  0
SECTION
  2
HEADER
  9
$ACADVER
  1
AC1014
  9
$ACADMAINTVER
 70
     9
  9
$DWGCODEPAGE
  3
ANSI_1252
  9
$INSBASE
 10
0.0
 20
0.0
 30
0.0
  9
$EXTMIN
 10
-581.7499991334553
 20
-92.7056330575142
 30
0.0
  9
$EXTMAX
 10
581.7500008682618
 20
92.79436694440665
 30
0.0
  9
$LIMMIN
 10
0.0
 20
0.0
  9
$LIMMAX
 10
12.0
 20
9.0
  9
$ORTHOMODE
 70
     0
  9
$REGENMODE
 70
     1
  9
$FILLMODE
 70
     1
  9
$QTEXTMODE
 70
     0
  9
$MIRRTEXT
 70
     1
  9
$DRAGMODE
 70
     2
  9
$LTSCALE
 40
1.0
  9
$OSMODE
 70
    37
  9
$ATTMODE
 70
     1
  9
$TEXTSIZE
 40
0.2
  9
$TRACEWID
 40
0.05
  9
$TEXTSTYLE
  7
STANDARD
  9
$CLAYER
  8
0
  9
$CELTYPE
  6
BYLAYER
  9
$CECOLOR
 62
   256
  9
$CELTSCALE
 40
1.0
  9
$DELOBJ
 70
     1
  9
$DISPSILH
 70
     0
  9
$DIMSCALE
 40
1.0
  9
$DIMASZ
 40
0.18
  9
$DIMEXO
 40
0.0625
  9
$DIMDLI
 40
0.38
  9
$DIMRND
 40
0.0
  9
$DIMDLE
 40
0.0
  9
$DIMEXE
 40
0.18
  9
$DIMTP
 40
0.0
  9
$DIMTM
 40
0.0
  9
$DIMTXT
 40
0.18
  9
$DIMCEN
 40
0.09
  9
$DIMTSZ
 40
0.0
  9
$DIMTOL
 70
     0
  9
$DIMLIM
 70
     0
  9
$DIMTIH
 70
     1
  9
$DIMTOH
 70
     1
  9
$DIMSE1
 70
     0
  9
$DIMSE2
 70
     0
  9
$DIMTAD
 70
     0
  9
$DIMZIN
 70
     0
  9
$DIMBLK
  1

  9
$DIMASO
 70
     1
  9
$DIMSHO
 70
     1
  9
$DIMPOST
  1

  9
$DIMAPOST
  1

  9
$DIMALT
 70
     0
  9
$DIMALTD
 70
     2
  9
$DIMALTF
 40
25.4
  9
$DIMLFAC
 40
1.0
  9
$DIMTOFL
 70
     0
  9
$DIMTVP
 40
0.0
  9
$DIMTIX
 70
     0
  9
$DIMSOXD
 70
     0
  9
$DIMSAH
 70
     0
  9
$DIMBLK1
  1

  9
$DIMBLK2
  1

  9
$DIMSTYLE
  2
STANDARD_ACAD
  9
$DIMCLRD
 70
     0
  9
$DIMCLRE
 70
     0
  9
$DIMCLRT
 70
     0
  9
$DIMTFAC
 40
1.0
  9
$DIMGAP
 40
0.09
  9
$DIMJUST
 70
     0
  9
$DIMSD1
 70
     0
  9
$DIMSD2
 70
     0
  9
$DIMTOLJ
 70
     1
  9
$DIMTZIN
 70
     0
  9
$DIMALTZ
 70
     0
  9
$DIMALTTZ
 70
     0
  9
$DIMFIT
 70
     5
  9
$DIMUPT
 70
     0
  9
$DIMUNIT
 70
     2
  9
$DIMDEC
 70
     4
  9
$DIMTDEC
 70
     4
  9
$DIMALTU
 70
     2
  9
$DIMALTTD
 70
     2
  9
$DIMTXSTY
  7
STANDARD
  9
$DIMAUNIT
 70
     0
  9
$LUNITS
 70
     2
  9
$LUPREC
 70
     3
  9
$SKETCHINC
 40
0.1
  9
$FILLETRAD
 40
0.0
  9
$AUNITS
 70
     0
  9
$AUPREC
 70
     0
  9
$MENU
  1
.
  9
$ELEVATION
 40
0.0
  9
$PELEVATION
 40
0.0
  9
$THICKNESS
 40
0.0
  9
$LIMCHECK
 70
     0
  9
$CHAMFERA
 40
0.0
  9
$CHAMFERB
 40
0.0
  9
$CHAMFERC
 40
0.0
  9
$CHAMFERD
 40
0.0
  9
$SKPOLY
 70
     0
  9
$TDCREATE
 40
2461243.663023264
  9
$TDUPDATE
 40
2461243.663023392
  9
$TDINDWG
 40
0.0000000116
  9
$TDUSRTIMER
 40
0.0000000116
  9
$USRTIMER
 70
     1
  9
$ANGBASE
 50
0.0
  9
$ANGDIR
 70
     0
  9
$PDMODE
 70
     0
  9
$PDSIZE
 40
0.0
  9
$PLINEWID
 40
0.0
  9
$COORDS
 70
     1
  9
$SPLFRAME
 70
     0
  9
$SPLINETYPE
 70
     6
  9
$SPLINESEGS
 70
     8
  9
$ATTDIA
 70
     0
  9
$ATTREQ
 70
     1
  9
$HANDLING
 70
     1
  9
$HANDSEED
  5
2BF
  9
$SURFTAB1
 70
     6
  9
$SURFTAB2
 70
     6
  9
$SURFTYPE
 70
     6
  9
$SURFU
 70
     6
  9
$SURFV
 70
     6
  9
$UCSNAME
  2

  9
$UCSORG
 10
0.0
 20
0.0
 30
0.0
  9
$UCSXDIR
 10
1.0
 20
0.0
 30
0.0
  9
$UCSYDIR
 10
0.0
 20
1.0
 30
0.0
  9
$PUCSNAME
  2

  9
$PUCSORG
 10
0.0
 20
0.0
 30
0.0
  9
$PUCSXDIR
 10
1.0
 20
0.0
 30
0.0
  9
$PUCSYDIR
 10
0.0
 20
1.0
 30
0.0
  9
$USERI1
 70
     0
  9
$USERI2
 70
     0
  9
$USERI3
 70
     0
  9
$USERI4
 70
     0
  9
$USERI5
 70
     0
  9
$USERR1
 40
0.0
  9
$USERR2
 40
0.0
  9
$USERR3
 40
0.0
  9
$USERR4
 40
0.0
  9
$USERR5
 40
0.0
  9
$WORLDVIEW
 70
     1
  9
$SHADEDGE
 70
     3
  9
$SHADEDIF
 70
    70
  9
$TILEMODE
 70
     1
  9
$MAXACTVP
 70
    64
  9
$PINSBASE
 10
0.0
 20
0.0
 30
0.0
  9
$PLIMCHECK
 70
     0
  9
$PEXTMIN
 10
1.000000000000000E+20
 20
1.000000000000000E+20
 30
1.000000000000000E+20
  9
$PEXTMAX
 10
-1.000000000000000E+20
 20
-1.000000000000000E+20
 30
-1.000000000000000E+20
  9
$PLIMMIN
 10
0.0
 20
0.0
  9
$PLIMMAX
 10
12.0
 20
9.0
  9
$UNITMODE
 70
     0
  9
$VISRETAIN
 70
     1
  9
$PLINEGEN
 70
     0
  9
$PSLTSCALE
 70
     1
  9
$TREEDEPTH
 70
  3020
  9
$PICKSTYLE
 70
     1
  9
$CMLSTYLE
  2
STANDARD
  9
$CMLJUST
 70
     0
  9
$CMLSCALE
 40
1.0
  9
$PROXYGRAPHICS
 70
     1
  9
$MEASUREMENT
 70
     1
  0
ENDSEC
  0
SECTION
  2
CLASSES
  0
CLASS
  1
ACDBDICTIONARYWDFLT
  2
AcDbDictionaryWithDefault
  3
ObjectDBX Classes
 90
        0
280
     0
281
     0
  0
CLASS
  1
VISUALSTYLE
  2
AcDbVisualStyle
  3
ObjectDBX Classes
 90
     4095
280
     0
281
     0
  0
CLASS
  1
MATERIAL
  2
AcDbMaterial
  3
ObjectDBX Classes
 90
     1153
280
     0
281
     0
  0
CLASS
  1
SCALE
  2
AcDbScale
  3
ObjectDBX Classes
 90
     1153
280
     0
281
     0
  0
CLASS
  1
TABLESTYLE
  2
AcDbTableStyle
  3
ObjectDBX Classes
 90
     4095
280
     0
281
     0
  0
CLASS
  1
MLEADERSTYLE
  2
AcDbMLeaderStyle
  3
ACDB_MLEADERSTYLE_CLASS
 90
     4095
280
     0
281
     0
  0
CLASS
  1
SUN
  2
AcDbSun
  3
SCENEOE
 90
     1153
280
     0
281
     0
  0
CLASS
  1
DICTIONARYVAR
  2
AcDbDictionaryVar
  3
ObjectDBX Classes
 90
        0
280
     0
281
     0
  0
CLASS
  1
XRECORD
  2
AcDbXrecord
  3
ObjectDBX Classes
 90
        0
280
     0
281
     0
  0
CLASS
  1
LWPOLYLINE
  2
AcDbPolyline
  3
ObjectDBX Classes
 90
        0
280
     0
281
     1
  0
CLASS
  1
HATCH
  2
AcDbHatch
  3
ObjectDBX Classes
 90
        0
280
     0
281
     1
  0
CLASS
  1
ACDBPLACEHOLDER
  2
AcDbPlaceHolder
  3
ObjectDBX Classes
 90
        0
280
     0
281
     0
  0
CLASS
  1
LAYOUT
  2
AcDbLayout
  3
ObjectDBX Classes
 90
        0
280
     0
281
     0
  0
ENDSEC
  0
SECTION
  2
TABLES
  0
TABLE
  2
VPORT
  5
8
102
{ACAD_XDICTIONARY
360
2B4
102
}
330
0
100
AcDbSymbolTable
 70
     1
  0
VPORT
  5
29
330
8
100
AcDbSymbolTableRecord
100
AcDbViewportTableRecord
  2
*ACTIVE
 70
     0
 10
0.0
 20
0.0
 11
1.0
 21
1.0
 12
10.42990654205607
 22
4.5
 13
0.0
 23
0.0
 14
0.5
 24
0.5
 15
0.5
 25
0.5
 16
0.0
 26
0.0
 36
1.0
 17
0.0
 27
0.0
 37
0.0
 40
9.0
 41
1.972972972850329
 42
50.0
 43
0.0
 44
0.0
 50
0.0
 51
0.0
 71
     0
 72
   100
 73
     1
 74
     3
 75
     0
 76
     0
 77
     0
 78
     0
  0
ENDTAB
  0
TABLE
  2
LTYPE
  5
5
330
0
100
AcDbSymbolTable
 70
     1
  0
LTYPE
  5
14
330
5
100
AcDbSymbolTableRecord
100
AcDbLinetypeTableRecord
  2
BYBLOCK
 70
     0
  3

 72
    65
 73
     0
 40
0.0
  0
LTYPE
  5
15
330
5
100
AcDbSymbolTableRecord
100
AcDbLinetypeTableRecord
  2
BYLAYER
 70
     0
  3

 72
    65
 73
     0
 40
0.0
  0
LTYPE
  5
16
330
5
100
AcDbSymbolTableRecord
100
AcDbLinetypeTableRecord
  2
CONTINUOUS
 70
     0
  3
Solid line
 72
    65
 73
     0
 40
0.0
  0
ENDTAB
  0
TABLE
  2
LAYER
  5
2
330
0
100
AcDbSymbolTable
 70
     4
  0
LAYER
  5
10
330
2
100
AcDbSymbolTableRecord
100
AcDbLayerTableRecord
  2
0
 70
     0
 62
     7
  6
CONTINUOUS
  0
LAYER
  5
5F
330
2
100
AcDbSymbolTableRecord
100
AcDbLayerTableRecord
  2
1_ANYTOOL_1MMDEEP_LABELS_S
 70
     0
 62
     2
  6
CONTINUOUS
  0
LAYER
  5
1EF
330
2
100
AcDbSymbolTableRecord
100
AcDbLayerTableRecord
  2
3_ANYTOOL_CUTTHROUGH_INSID
 70
     0
 62
     4
  6
CONTINUOUS
  0
LAYER
  5
20C
330
2
100
AcDbSymbolTableRecord
100
AcDbLayerTableRecord
  2
4_ANYTOOL_CUTTHROUGH_OUTSI
 70
     0
 62
     5
  6
CONTINUOUS
  0
ENDTAB
  0
TABLE
  2
STYLE
  5
3
330
0
100
AcDbSymbolTable
 70
     1
  0
STYLE
  5
11
330
3
100
AcDbSymbolTableRecord
100
AcDbTextStyleTableRecord
  2
STANDARD
 70
     0
 40
0.0
 41
1.0
 50
0.0
 71
     0
 42
0.2
  3
txt
  4

  0
ENDTAB
  0
TABLE
  2
VIEW
  5
6
330
0
100
AcDbSymbolTable
 70
     0
  0
ENDTAB
  0
TABLE
  2
UCS
  5
7
330
0
100
AcDbSymbolTable
 70
     0
  0
ENDTAB
  0
TABLE
  2
APPID
  5
9
330
0
100
AcDbSymbolTable
 70
     3
  0
APPID
  5
12
330
9
100
AcDbSymbolTableRecord
100
AcDbRegAppTableRecord
  2
ACAD
 70
     0
  0
APPID
  5
5E
330
9
100
AcDbSymbolTableRecord
100
AcDbRegAppTableRecord
  2
RHINO
 70
     0
  0
APPID
  5
2BE
330
9
100
AcDbSymbolTableRecord
100
AcDbRegAppTableRecord
  2
ACAD_MLEADERVER
 70
     0
  0
ENDTAB
  0
TABLE
  2
DIMSTYLE
  5
A
330
0
100
AcDbSymbolTable
 70
     1
  0
DIMSTYLE
105
27
330
A
100
AcDbSymbolTableRecord
100
AcDbDimStyleTableRecord
  2
STANDARD_ACAD
 70
     0
  3

  4

  5

  6

  7

 40
1.0
 41
0.18
 42
0.0625
 43
0.38
 44
0.18
 45
0.0
 46
0.0
 47
0.0
 48
0.0
140
0.18
141
0.09
142
0.0
143
25.4
144
1.0
145
0.0
146
1.0
147
0.09
 71
     0
 72
     0
 73
     1
 74
     1
 75
     0
 76
     0
 77
     0
 78
     0
170
     0
171
     2
172
     0
173
     0
174
     0
175
     0
176
     0
177
     0
178
     0
270
     2
271
     4
272
     4
273
     2
274
     2
340
11
275
     0
280
     0
281
     0
282
     0
283
     1
284
     0
285
     0
286
     0
287
     3
288
     0
  0
ENDTAB
  0
TABLE
  2
BLOCK_RECORD
  5
1
330
0
100
AcDbSymbolTable
 70
     0
  0
BLOCK_RECORD
  5
1F
330
1
100
AcDbSymbolTableRecord
100
AcDbBlockTableRecord
  2
*MODEL_SPACE
  0
BLOCK_RECORD
  5
1B
330
1
100
AcDbSymbolTableRecord
100
AcDbBlockTableRecord
  2
*PAPER_SPACE
  0
ENDTAB
  0
ENDSEC
  0
SECTION
  2
BLOCKS
  0
BLOCK
  5
20
330
1F
100
AcDbEntity
  8
0
100
AcDbBlockBegin
  2
*MODEL_SPACE
 70
     0
 10
0.0
 20
0.0
 30
0.0
  3
*MODEL_SPACE
  1

  0
ENDBLK
  5
21
330
1F
100
AcDbEntity
  8
0
100
AcDbBlockEnd
  0
BLOCK
  5
1C
330
1B
100
AcDbEntity
 67
     1
  8
0
100
AcDbBlockBegin
  2
*PAPER_SPACE
 70
     0
 10
0.0
 20
0.0
 30
0.0
  3
*PAPER_SPACE
  1

  0
ENDBLK
  5
1D
330
1B
100
AcDbEntity
 67
     1
  8
0
100
AcDbBlockEnd
  0
ENDSEC
  0
SECTION
  2
ENTITIES
  0
POLYLINE
  5
60
330
1F
100
AcDbEntity
  8
1_ANYTOOL_1MMDEEP_LABELS_S
100
AcDb2dPolyline
 66
     1
 10
0.0
 20
0.0
 30
0.0
 70
     1
  0
VERTEX
  5
61
330
60
100
AcDbEntity
  8
1_ANYTOOL_1MMDEEP_LABELS_S
100
AcDbVertex
100
AcDb2dVertex
 10
304.7149436357249
 20
0.0
 30
0.0
  0
VERTEX
  5
62
330
60
100
AcDbEntity
  8
1_ANYTOOL_1MMDEEP_LABELS_S
100
AcDbVertex
100
AcDb2dVertex
 10
304.7149436357249
 20
-30.0
 30
0.0
  0
VERTEX
  5
63
330
60
100
AcDbEntity
  8
1_ANYTOOL_1MMDEEP_LABELS_S
100
AcDbVertex
100
AcDb2dVertex
 10
313.2435150642959
 20
-29.91428571428696
 30
0.0
  0
VERTEX
  5
64
330
60
100
AcDbEntity
  8
1_ANYTOOL_1MMDEEP_LABELS_S
100
AcDbVertex
100
AcDb2dVertex
 10
313.6547594839389
 20
-29.90419921875132
 30
0.0
  0
VERTEX
  5
65
330
60
100
AcDbEntity
  8
1_ANYTOOL_1MMDEEP_LABELS_S
100
AcDbVertex
100
AcDb2dVertex
 10
314.0581356000104
 20
-29.88465401785854
 30
0.0
  0
VERTEX
  5
66
330
60
100
AcDbEntity
  8
1_ANYTOOL_1MMDEEP_LABELS_S
100
AcDbVertex
100
AcDb2dVertex
 10
314.4536434125105
 20
-29.8556501116086
 30
0.0
  0
VERTEX
  5
67
330
60
100
AcDbEntity
  8
1_ANYTOOL_1MMDEEP_LABELS_S
100
AcDbVertex
100
AcDb2dVertex
 10
314.8412829214391
 20
-29.81718750000152
 30
0.0
  0
VERTEX
  5
68
330
60
100
AcDbEntity
  8
1_ANYTOOL_1MMDEEP_LABELS_S
100
AcDbVertex
100
AcDb2dVertex
 10
315.2210541267963
 20
-29.7692661830373
 30
0.0
  0
VERTEX
  5
69
330
60
100
AcDbEntity
  8
1_ANYTOOL_1MMDEEP_LABELS_S
100
AcDbVertex
100
AcDb2dVertex
 10
315.5929570285821
 20
-29.71188616071592
 30
0.0
  0
VERTEX
  5
6A
330
60
100
AcDbEntity
  8
1_ANYTOOL_1MMDEEP_LABELS_S
100
AcDbVertex
100
AcDb2dVertex
 10
315.9569916267964
 20
-29.6450474330374
 30
0.0
  0
VERTEX
  5
6B
330
60
100
AcDbEntity
  8
1_ANYTOOL_1MMDEEP_LABELS_S
100
AcDbVertex
100
AcDb2dVertex
 10
316.3131579214394
 20
-29.56875000000173
 30
0.0
  0
VERTEX
  5
6C
330
60
100
AcDbEntity
  8
1_ANYTOOL_1MMDEEP_LABELS_S
100
AcDbVertex
100
AcDb2dVertex
 10
316.6614559125109
 20
-29.48299386160891
 30
0.0
  0
VERTEX
  5
6D
330
60
100
AcDbEntity
  8
1_ANYTOOL_1MMDEEP_LABELS_S
100
AcDbVertex
100
AcDb2dVertex
 10
317.0018856000108
 20
-29.38777901785895
 30
0.0
  0
VERTEX
  5
6E
330
60
100
AcDbEntity
  8
1_ANYTOOL_1MMDEEP_LABELS_S
100
AcDbVertex
100
AcDb2dVertex
 10
317.3344469839394
 20
-29.28310546875183
 30
0.0
  0
VERTEX
  5
6F
330
60
100
AcDbEntity
  8
1_ANYTOOL_1MMDEEP_LABELS_S
100
AcDbVertex
100
AcDb2dVertex
 10
317.6591400642967
 20
-29.16897321428758
 30
0.0
  0
VERTEX
  5
70
330
60
100
AcDbEntity
  8
1_ANYTOOL_1MMDEEP_LABELS_S
100
AcDbVertex
100
AcDb2dVertex
 10
317.9759648410824
 20
-29.04538225446617
 30
0.0
  0
VERTEX
  5
71
330
60
100
AcDbEntity
  8
1_ANYTOOL_1MMDEEP_LABELS_S
100
AcDbVertex
100
AcDb2dVertex
 10
318.131426615636
 20
-28.98003976004654
 30
0.0
  0
VERTEX
  5
72
330
60
100
AcDbEntity
  8
1_ANYTOOL_1MMDEEP_LABELS_S
100
AcDbVertex
100
AcDb2dVertex
 10
318.2849213142967
 20
-28.91233258928762
 30
0.0
  0
VERTEX
  5
73
330
60
100
AcDbEntity
  8
1_ANYTOOL_1MMDEEP_LABELS_S
100
AcDbVertex
100
AcDb2dVertex
 10
318.4364489370645
 20
-28.84226074218941
 30
0.0
  0
VERTEX
  5
74
330
60
100
AcDbEntity
  8
1_ANYTOOL_1MMDEEP_LABELS_S
100
AcDbVertex
100
AcDb2dVertex
 10
318.5860094839395
 20
-28.76982421875191
 30
0.0
  0
VERTEX
  5
75
330
60
100
AcDbEntity
  8
1_ANYTOOL_1MMDEEP_LABELS_S
100
AcDbVertex
100
AcDb2dVertex
 10
318.7336029549217
 20
-28.69502301897514
 30
0.0
  0
VERTEX
  5
76
330
60
100
AcDbEntity
  8
1_ANYTOOL_1MMDEEP_LABELS_S
100
AcDbVertex
100
AcDb2dVertex
 10
318.879229350011
 20
-28.61785714285907
 30
0.0
  0
VERTEX
  5
77
330
60
100
AcDbEntity
  8
1_ANYTOOL_1MMDEEP_LABELS_S
100
AcDbVertex
100
AcDb2dVertex
 10
319.0228886692074
 20
-28.53832659040371
 30
0.0
  0
VERTEX
  5
78
330
60
100
AcDbEntity
  8
1_ANYTOOL_1MMDEEP_LABELS_S
100
AcDbVertex
100
AcDb2dVertex
 10
319.1645809125109
 20
-28.45643136160907
 30
0.0
  0
VERTEX
  5
79
330
60
100
AcDbEntity
  8
1_ANYTOOL_1MMDEEP_LABELS_S
100
AcDbVertex
100
AcDb2dVertex
 10
319.3043060799217
 20
-28.37217145647514
 30
0.0
  0
VERTEX
  5
7A
330
60
100
AcDbEntity
  8
1_ANYTOOL_1MMDEEP_LABELS_S
100
AcDbVertex
100
AcDb2dVertex
 10
319.4420641714395
 20
-28.28554687500193
 30
0.0
  0
VERTEX
  5
7B
330
60
100
AcDbEntity
  8
1_ANYTOOL_1MMDEEP_LABELS_S
100
AcDbVertex
100
AcDb2dVertex
 10
319.5778551870645
 20
-28.19655761718943
 30
0.0
  0
VERTEX
  5
7C
330
60
100
AcDbEntity
  8
1_ANYTOOL_1MMDEEP_LABELS_S
100
AcDbVertex
100
AcDb2dVertex
 10
319.7116791267967
 20
-28.10520368303764
 30
0.0
  0
VERTEX
  5
7D
330
60
100
AcDbEntity
  8
1_ANYTOOL_1MMDEEP_LABELS_S
100
AcDbVertex
100
AcDb2dVertex
 10
319.843535990636
 20
-28.01148507254656
 30
0.0
  0
VERTEX
  5
7E
330
60
100
AcDbEntity
  8
1_ANYTOOL_1MMDEEP_LABELS_S
100
AcDbVertex
100
AcDb2dVertex
 10
319.9734257785823
 20
-27.9154017857162
 30
0.0
  0
VERTEX
  5
7F
330
60
100
AcDbEntity
  8
1_ANYTOOL_1MMDEEP_LABELS_S
100
AcDbVertex
100
AcDb2dVertex
 10
320.1013484906358
 20
-27.81695382254655
 30
0.0
  0
VERTEX
  5
80
330
60
100
AcDbEntity
  8
1_ANYTOOL_1MMDEEP_LABELS_S
100
AcDbVertex
100
AcDb2dVertex
 10
320.2273041267965
 20
-27.71614118303761
 30
0.0
  0
VERTEX
  5
81
330
60
100
AcDbEntity
  8
1_ANYTOOL_1MMDEEP_LABELS_S
100
AcDbVertex
100
AcDb2dVertex
 10
320.3512926870644
 20
-27.61296386718939
 30
0.0
  0
VERTEX
  5
82
330
60
100
AcDbEntity
  8
1_ANYTOOL_1MMDEEP_LABELS_S
100
AcDbVertex
100
AcDb2dVertex
 10
320.4733141714394
 20
-27.50742187500188
 30
0.0
  0
VERTEX
  5
83
330
60
100
AcDbEntity
  8
1_ANYTOOL_1MMDEEP_LABELS_S
100
AcDbVertex
100
AcDb2dVertex
 10
320.5933685799215
 20
-27.39951520647509
 30
0.0
  0
VERTEX
  5
84
330
60
100
AcDbEntity
  8
1_ANYTOOL_1MMDEEP_LABELS_S
100
AcDbVertex
100
AcDb2dVertex
 10
320.7114559125108
 20
-27.289243861609
 30
0.0
  0
VERTEX
  5
85
330
60
100
AcDbEntity
  8
1_ANYTOOL_1MMDEEP_LABELS_S
100
AcDbVertex
100
AcDb2dVertex
 10
320.8275761692072
 20
-27.17660784040363
 30
0.0
  0
VERTEX
  5
86
330
60
100
AcDbEntity
  8
1_ANYTOOL_1MMDEEP_LABELS_S
100
AcDbVertex
100
AcDb2dVertex
 10
320.9417293500107
 20
-27.06160714285897
 30
0.0
  0
VERTEX
  5
87
330
60
100
AcDbEntity
  8
1_ANYTOOL_1MMDEEP_LABELS_S
100
AcDbVertex
100
AcDb2dVertex
 10
321.0539154549214
 20
-26.94424176897503
 30
0.0
  0
VERTEX
  5
88
330
60
100
AcDbEntity
  8
1_ANYTOOL_1MMDEEP_LABELS_S
100
AcDbVertex
100
AcDb2dVertex
 10
321.1641344839392
 20
-26.8245117187518
 30
0.0
  0
VERTEX
  5
89
330
60
100
AcDbEntity
  8
1_ANYTOOL_1MMDEEP_LABELS_S
100
AcDbVertex
100
AcDb2dVertex
 10
321.2723864370642
 20
-26.70241699218928
 30
0.0
  0
VERTEX
  5
8A
330
60
100
AcDbEntity
  8
1_ANYTOOL_1MMDEEP_LABELS_S
100
AcDbVertex
100
AcDb2dVertex
 10
321.3786713142963
 20
-26.57795758928748
 30
0.0
  0
VERTEX
  5
8B
330
60
100
AcDbEntity
  8
1_ANYTOOL_1MMDEEP_LABELS_S
100
AcDbVertex
100
AcDb2dVertex
 10
321.4829891156356
 20
-26.45113351004639
 30
0.0
  0
VERTEX
  5
8C
330
60
100
AcDbEntity
  8
1_ANYTOOL_1MMDEEP_LABELS_S
100
AcDbVertex
100
AcDb2dVertex
 10
321.585339841082
 20
-26.32194475446601
 30
0.0
  0
VERTEX
  5
8D
330
60
100
AcDbEntity
  8
1_ANYTOOL_1MMDEEP_LABELS_S
100
AcDbVertex
100
AcDb2dVertex
 10
321.6857234906355
 20
-26.19039132254635
 30
0.0
  0
VERTEX
  5
8E
330
60
100
AcDbEntity
  8
1_ANYTOOL_1MMDEEP_LABELS_S
100
AcDbVertex
100
AcDb2dVertex
 10
321.7841400642962
 20
-26.05647321428739
 30
0.0
  0
VERTEX
  5
8F
330
60
100
AcDbEntity
  8
1_ANYTOOL_1MMDEEP_LABELS_S
100
AcDbVertex
100
AcDb2dVertex
 10
321.880589562064
 20
-25.92019042968916
 30
0.0
  0
VERTEX
  5
90
330
60
100
AcDbEntity
  8
1_ANYTOOL_1MMDEEP_LABELS_S
100
AcDbVertex
100
AcDb2dVertex
 10
321.975071983939
 20
-25.78154296875163
 30
0.0
  0
VERTEX
  5
91
330
60
100
AcDbEntity
  8
1_ANYTOOL_1MMDEEP_LABELS_S
100
AcDbVertex
100
AcDb2dVertex
 10
322.1581356000103
 20
-25.49715401785872
 30
0.0
  0
VERTEX
  5
92
330
60
100
AcDbEntity
  8
1_ANYTOOL_1MMDEEP_LABELS_S
100
AcDbVertex
100
AcDb2dVertex
 10
322.3333309125102
 20
-25.20330636160866
 30
0.0
  0
VERTEX
  5
93
330
60
100
AcDbEntity
  8
1_ANYTOOL_1MMDEEP_LABELS_S
100
AcDbVertex
100
AcDb2dVertex
 10
322.5006579214387
 20
-24.90000000000146
 30
0.0
  0
VERTEX
  5
94
330
60
100
AcDbEntity
  8
1_ANYTOOL_1MMDEEP_LABELS_S
100
AcDbVertex
100
AcDb2dVertex
 10
322.8172315821532
 20
-24.28108258928705
 30
0.0
  0
VERTEX
  5
95
330
60
100
AcDbEntity
  8
1_ANYTOOL_1MMDEEP_LABELS_S
100
AcDbVertex
100
AcDb2dVertex
 10
323.1133811357249
 20
-23.65647321428696
 30
0.0
  0
VERTEX
  5
96
330
60
100
AcDbEntity
  8
1_ANYTOOL_1MMDEEP_LABELS_S
100
AcDbVertex
100
AcDb2dVertex
 10
323.3891065821537
 20
-23.02617187500118
 30
0.0
  0
VERTEX
  5
97
330
60
100
AcDbEntity
  8
1_ANYTOOL_1MMDEEP_LABELS_S
100
AcDbVertex
100
AcDb2dVertex
 10
323.6444079214396
 20
-22.39017857142971
 30
0.0
  0
VERTEX
  5
98
330
60
100
AcDbEntity
  8
1_ANYTOOL_1MMDEEP_LABELS_S
100
AcDbVertex
100
AcDb2dVertex
 10
323.8792851535826
 20
-21.74849330357256
 30
0.0
  0
VERTEX
  5
99
330
60
100
AcDbEntity
  8
1_ANYTOOL_1MMDEEP_LABELS_S
100
AcDbVertex
100
AcDb2dVertex
 10
324.0937382785827
 20
-21.10111607142971
 30
0.0
  0
VERTEX
  5
9A
330
60
100
AcDbEntity
  8
1_ANYTOOL_1MMDEEP_LABELS_S
100
AcDbVertex
100
AcDb2dVertex
 10
324.2877672964401
 20
-20.44804687500118
 30
0.0
  0
VERTEX
  5
9B
330
60
100
AcDbEntity
  8
1_ANYTOOL_1MMDEEP_LABELS_S
100
AcDbVertex
100
AcDb2dVertex
 10
324.4613722071545
 20
-19.78928571428696
 30
0.0
  0
VERTEX
  5
9C
330
60
100
AcDbEntity
  8
1_ANYTOOL_1MMDEEP_LABELS_S
100
AcDbVertex
100
AcDb2dVertex
 10
324.614553010726
 20
-19.12483258928705
 30
0.0
  0
VERTEX
  5
9D
330
60
100
AcDbEntity
  8
1_ANYTOOL_1MMDEEP_LABELS_S
100
AcDbVertex
100
AcDb2dVertex
 10
324.7473097071547
 20
-18.45468750000146
 30
0.0
  0
VERTEX
  5
9E
330
60
100
AcDbEntity
  8
1_ANYTOOL_1MMDEEP_LABELS_S
100
AcDbVertex
100
AcDb2dVertex
 10
324.8596422964405
 20
-17.77885044643017
 30
0.0
  0
VERTEX
  5
9F
330
60
100
AcDbEntity
  8
1_ANYTOOL_1MMDEEP_LABELS_S
100
AcDbVertex
100
AcDb2dVertex
 10
324.9515507785834
 20
-17.0973214285732
 30
0.0
  0
VERTEX
  5
A0
330
60
100
AcDbEntity
  8
1_ANYTOOL_1MMDEEP_LABELS_S
100
AcDbVertex
100
AcDb2dVertex
 10
325.0230351535835
 20
-16.41010044643053
 30
0.0
  0
VERTEX
  5
A1
330
60
100
AcDbEntity
  8
1_ANYTOOL_1MMDEEP_LABELS_S
100
AcDbVertex
100
AcDb2dVertex
 10
325.0740954214406
 20
-15.71718750000218
 30
0.0
  0
VERTEX
  5
A2
330
60
100
AcDbEntity
  8
1_ANYTOOL_1MMDEEP_LABELS_S
100
AcDbVertex
100
AcDb2dVertex
 10
325.104731582155
 20
-15.01858258928814
 30
0.0
  0
VERTEX
  5
A3
330
60
100
AcDbEntity
  8
1_ANYTOOL_1MMDEEP_LABELS_S
100
AcDbVertex
100
AcDb2dVertex
 10
325.1149436357264
 20
-14.31428571428842
 30
0.0
  0
VERTEX
  5
A4
330
60
100
AcDbEntity
  8
1_ANYTOOL_1MMDEEP_LABELS_S
100
AcDbVertex
100
AcDb2dVertex
 10
325.1052338142978
 20
-13.71729910714521
 30
0.0
  0
VERTEX
  5
A5
330
60
100
AcDbEntity
  8
1_ANYTOOL_1MMDEEP_LABELS_S
100
AcDbVertex
100
AcDb2dVertex
 10
325.0761043500121
 20
-13.12633928571631
 30
0.0
  0
VERTEX
  5
A6
330
60
100
AcDbEntity
  8
1_ANYTOOL_1MMDEEP_LABELS_S
100
AcDbVertex
100
AcDb2dVertex
 10
325.0275552428692
 20
-12.54140625000173
 30
0.0
  0
VERTEX
  5
A7
330
60
100
AcDbEntity
  8
1_ANYTOOL_1MMDEEP_LABELS_S
100
AcDbVertex
100
AcDb2dVertex
 10
324.9595864928692
 20
-11.96250000000146
 30
0.0
  0
VERTEX
  5
A8
330
60
100
AcDbEntity
  8
1_ANYTOOL_1MMDEEP_LABELS_S
100
AcDbVertex
100
AcDb2dVertex
 10
324.872198100012
 20
-11.38962053571549
 30
0.0
  0
VERTEX
  5
A9
330
60
100
AcDbEntity
  8
1_ANYTOOL_1MMDEEP_LABELS_S
100
AcDbVertex
100
AcDb2dVertex
 10
324.821221537512
 20
-11.10544084821538
 30
0.0
  0
VERTEX
  5
AA
330
60
100
AcDbEntity
  8
1_ANYTOOL_1MMDEEP_LABELS_S
100
AcDbVertex
100
AcDb2dVertex
 10
324.7653900642978
 20
-10.82276785714384
 30
0.0
  0
VERTEX
  5
AB
330
60
100
AcDbEntity
  8
1_ANYTOOL_1MMDEEP_LABELS_S
100
AcDbVertex
100
AcDb2dVertex
 10
324.7047036803692
 20
-10.54160156250089
 30
0.0
  0
VERTEX
  5
AC
330
60
100
AcDbEntity
  8
1_ANYTOOL_1MMDEEP_LABELS_S
100
AcDbVertex
100
AcDb2dVertex
 10
324.6391623857263
 20
-10.26194196428651
 30
0.0
  0
VERTEX
  5
AD
330
60
100
AcDbEntity
  8
1_ANYTOOL_1MMDEEP_LABELS_S
100
AcDbVertex
100
AcDb2dVertex
 10
324.5687661803692
 20
-9.983789062500705
 30
0.0
  0
VERTEX
  5
AE
330
60
100
AcDbEntity
  8
1_ANYTOOL_1MMDEEP_LABELS_S
100
AcDbVertex
100
AcDb2dVertex
 10
324.4935150642978
 20
-9.70714285714348
 30
0.0
  0
VERTEX
  5
AF
330
60
100
AcDbEntity
  8
1_ANYTOOL_1MMDEEP_LABELS_S
100
AcDbVertex
100
AcDb2dVertex
 10
324.413409037512
 20
-9.432003348214835
 30
0.0
  0
VERTEX
  5
B0
330
60
100
AcDbEntity
  8
1_ANYTOOL_1MMDEEP_LABELS_S
100
AcDbVertex
100
AcDb2dVertex
 10
324.328448100012
 20
-9.158370535714766
 30
0.0
  0
VERTEX
  5
B1
330
60
100
AcDbEntity
  8
1_ANYTOOL_1MMDEEP_LABELS_S
100
AcDbVertex
100
AcDb2dVertex
 10
324.2386322517978
 20
-8.886244419643276
 30
0.0
  0
VERTEX
  5
B2
330
60
100
AcDbEntity
  8
1_ANYTOOL_1MMDEEP_LABELS_S
100
AcDbVertex
100
AcDb2dVertex
 10
324.1439614928692
 20
-8.615625000000364
 30
0.0
  0
VERTEX
  5
B3
330
60
100
AcDbEntity
  8
1_ANYTOOL_1MMDEEP_LABELS_S
100
AcDbVertex
100
AcDb2dVertex
 10
324.0444358232263
 20
-8.34651227678603
 30
0.0
  0
VERTEX
  5
B4
330
60
100
AcDbEntity
  8
1_ANYTOOL_1MMDEEP_LABELS_S
100
AcDbVertex
100
AcDb2dVertex
 10
323.9400552428691
 20
-8.078906250000273
 30
0.0
  0
VERTEX
  5
B5
330
60
100
AcDbEntity
  8
1_ANYTOOL_1MMDEEP_LABELS_S
100
AcDbVertex
100
AcDb2dVertex
 10
323.8308197517977
 20
-7.812806919643094
 30
0.0
  0
VERTEX
  5
B6
330
60
100
AcDbEntity
  8
1_ANYTOOL_1MMDEEP_LABELS_S
100
AcDbVertex
100
AcDb2dVertex
 10
323.716729350012
 20
-7.548214285714494
 30
0.0
  0
VERTEX
  5
B7
330
60
100
AcDbEntity
  8
1_ANYTOOL_1MMDEEP_LABELS_S
100
AcDbVertex
100
AcDb2dVertex
 10
323.4739838142976
 20
-7.023549107143026
 30
0.0
  0
VERTEX
  5
B8
330
60
100
AcDbEntity
  8
1_ANYTOOL_1MMDEEP_LABELS_S
100
AcDbVertex
100
AcDb2dVertex
 10
323.2118186357262
 20
-6.50491071428587
 30
0.0
  0
VERTEX
  5
B9
330
60
100
AcDbEntity
  8
1_ANYTOOL_1MMDEEP_LABELS_S
100
AcDbVertex
100
AcDb2dVertex
 10
322.9302338142976
 20
-5.992299107143026
 30
0.0
  0
VERTEX
  5
BA
330
60
100
AcDbEntity
  8
1_ANYTOOL_1MMDEEP_LABELS_S
100
AcDbVertex
100
AcDb2dVertex
 10
322.6292293500119
 20
-5.485714285714494
 30
0.0
  0
VERTEX
  5
BB
330
60
100
AcDbEntity
  8
1_ANYTOOL_1MMDEEP_LABELS_S
100
AcDbVertex
100
AcDb2dVertex
 10
322.4346562473334
 20
-5.179645647321614
 30
0.0
  0
VERTEX
  5
BC
330
60
100
AcDbEntity
  8
1_ANYTOOL_1MMDEEP_LABELS_S
100
AcDbVertex
100
AcDb2dVertex
 10
322.236651225012
 20
-4.882868303571598
 30
0.0
  0
VERTEX
  5
BD
330
60
100
AcDbEntity
  8
1_ANYTOOL_1MMDEEP_LABELS_S
100
AcDbVertex
100
AcDb2dVertex
 10
322.0352142830478
 20
-4.595382254464447
 30
0.0
  0
VERTEX
  5
BE
330
60
100
AcDbEntity
  8
1_ANYTOOL_1MMDEEP_LABELS_S
100
AcDbVertex
100
AcDb2dVertex
 10
321.8303454214407
 20
-4.317187500000159
 30
0.0
  0
VERTEX
  5
BF
330
60
100
AcDbEntity
  8
1_ANYTOOL_1MMDEEP_LABELS_S
100
AcDbVertex
100
AcDb2dVertex
 10
321.6220446401907
 20
-4.048284040178736
 30
0.0
  0
VERTEX
  5
C0
330
60
100
AcDbEntity
  8
1_ANYTOOL_1MMDEEP_LABELS_S
100
AcDbVertex
100
AcDb2dVertex
 10
321.4103119392979
 20
-3.788671875000176
 30
0.0
  0
VERTEX
  5
C1
330
60
100
AcDbEntity
  8
1_ANYTOOL_1MMDEEP_LABELS_S
100
AcDbVertex
100
AcDb2dVertex
 10
321.1951473187622
 20
-3.538351004464481
 30
0.0
  0
VERTEX
  5
C2
330
60
100
AcDbEntity
  8
1_ANYTOOL_1MMDEEP_LABELS_S
100
AcDbVertex
100
AcDb2dVertex
 10
320.9765507785837
 20
-3.297321428571649
 30
0.0
  0
VERTEX
  5
C3
330
60
100
AcDbEntity
  8
1_ANYTOOL_1MMDEEP_LABELS_S
100
AcDbVertex
100
AcDb2dVertex
 10
320.7545223187623
 20
-3.065583147321682
 30
0.0
  0
VERTEX
  5
C4
330
60
100
AcDbEntity
  8
1_ANYTOOL_1MMDEEP_LABELS_S
100
AcDbVertex
100
AcDb2dVertex
 10
320.529061939298
 20
-2.843136160714579
 30
0.0
  0
VERTEX
  5
C5
330
60
100
AcDbEntity
  8
1_ANYTOOL_1MMDEEP_LABELS_S
100
AcDbVertex
100
AcDb2dVertex
 10
320.3001696401909
 20
-2.62998046875034
 30
0.0
  0
VERTEX
  5
C6
330
60
100
AcDbEntity
  8
1_ANYTOOL_1MMDEEP_LABELS_S
100
AcDbVertex
100
AcDb2dVertex
 10
320.0678454214409
 20
-2.426116071428964
 30
0.0
  0
VERTEX
  5
C7
330
60
100
AcDbEntity
  8
1_ANYTOOL_1MMDEEP_LABELS_S
100
AcDbVertex
100
AcDb2dVertex
 10
319.832089283048
 20
-2.231542968750453
 30
0.0
  0
VERTEX
  5
C8
330
60
100
AcDbEntity
  8
1_ANYTOOL_1MMDEEP_LABELS_S
100
AcDbVertex
100
AcDb2dVertex
 10
319.5929012250123
 20
-2.046261160714806
 30
0.0
  0
VERTEX
  5
C9
330
60
100
AcDbEntity
  8
1_ANYTOOL_1MMDEEP_LABELS_S
100
AcDbVertex
100
AcDb2dVertex
 10
319.3502812473337
 20
-1.870270647322023
 30
0.0
  0
VERTEX
  5
CA
330
60
100
AcDbEntity
  8
1_ANYTOOL_1MMDEEP_LABELS_S
100
AcDbVertex
100
AcDb2dVertex
 10
319.1042293500122
 20
-1.703571428572104
 30
0.0
  0
VERTEX
  5
CB
330
60
100
AcDbEntity
  8
1_ANYTOOL_1MMDEEP_LABELS_S
100
AcDbVertex
100
AcDb2dVertex
 10
318.8547455330479
 20
-1.546163504465049
 30
0.0
  0
VERTEX
  5
CC
330
60
100
AcDbEntity
  8
1_ANYTOOL_1MMDEEP_LABELS_S
100
AcDbVertex
100
AcDb2dVertex
 10
318.6018297964407
 20
-1.398046875000858
 30
0.0
  0
VERTEX
  5
CD
330
60
100
AcDbEntity
  8
1_ANYTOOL_1MMDEEP_LABELS_S
100
AcDbVertex
100
AcDb2dVertex
 10
318.3454821401907
 20
-1.259221540179531
 30
0.0
  0
VERTEX
  5
CE
330
60
100
AcDbEntity
  8
1_ANYTOOL_1MMDEEP_LABELS_S
100
AcDbVertex
100
AcDb2dVertex
 10
318.0857025642978
 20
-1.129687500001069
 30
0.0
  0
VERTEX
  5
CF
330
60
100
AcDbEntity
  8
1_ANYTOOL_1MMDEEP_LABELS_S
100
AcDbVertex
100
AcDb2dVertex
 10
317.822491068762
 20
-1.00944475446547
 30
0.0
  0
VERTEX
  5
D0
330
60
100
AcDbEntity
  8
1_ANYTOOL_1MMDEEP_LABELS_S
100
AcDbVertex
100
AcDb2dVertex
 10
317.5558476535833
 20
-0.8984933035727352
 30
0.0
  0
VERTEX
  5
D1
330
60
100
AcDbEntity
  8
1_ANYTOOL_1MMDEEP_LABELS_S
100
AcDbVertex
100
AcDb2dVertex
 10
317.2857723187618
 20
-0.7968331473228645
 30
0.0
  0
VERTEX
  5
D2
330
60
100
AcDbEntity
  8
1_ANYTOOL_1MMDEEP_LABELS_S
100
AcDbVertex
100
AcDb2dVertex
 10
317.0122650642975
 20
-0.7044642857158578
 30
0.0
  0
VERTEX
  5
D3
330
60
100
AcDbEntity
  8
1_ANYTOOL_1MMDEEP_LABELS_S
100
AcDbVertex
100
AcDb2dVertex
 10
316.7353258901902
 20
-0.6213867187517153
 30
0.0
  0
VERTEX
  5
D4
330
60
100
AcDbEntity
  8
1_ANYTOOL_1MMDEEP_LABELS_S
100
AcDbVertex
100
AcDb2dVertex
 10
316.4549547964401
 20
-0.5476004464304367
 30
0.0
  0
VERTEX
  5
D5
330
60
100
AcDbEntity
  8
1_ANYTOOL_1MMDEEP_LABELS_S
100
AcDbVertex
100
AcDb2dVertex
 10
316.1711517830472
 20
-0.4831054687520222
 30
0.0
  0
VERTEX
  5
D6
330
60
100
AcDbEntity
  8
1_ANYTOOL_1MMDEEP_LABELS_S
100
AcDbVertex
100
AcDb2dVertex
 10
315.8839168500114
 20
-0.4279017857164717
 30
0.0
  0
VERTEX
  5
D7
330
60
100
AcDbEntity
  8
1_ANYTOOL_1MMDEEP_LABELS_S
100
AcDbVertex
100
AcDb2dVertex
 10
315.5932499973327
 20
-0.3819893973237853
 30
0.0
  0
VERTEX
  5
D8
330
60
100
AcDbEntity
  8
1_ANYTOOL_1MMDEEP_LABELS_S
100
AcDbVertex
100
AcDb2dVertex
 10
315.2991512250111
 20
-0.345368303573963
 30
0.0
  0
VERTEX
  5
D9
330
60
100
AcDbEntity
  8
1_ANYTOOL_1MMDEEP_LABELS_S
100
AcDbVertex
100
AcDb2dVertex
 10
315.0016205330467
 20
-0.3180385044670047
 30
0.0
  0
VERTEX
  5
DA
330
60
100
AcDbEntity
  8
1_ANYTOOL_1MMDEEP_LABELS_S
100
AcDbVertex
100
AcDb2dVertex
 10
314.7006579214394
 20
-0.3000000000029104
 30
0.0
  0
VERTEX
  5
DB
330
60
100
AcDbEntity
  8
1_ANYTOOL_1MMDEEP_LABELS_S
100
AcDbVertex
100
AcDb2dVertex
 10
309.8042293500112
 20
-0.0964285714289872
 30
0.0
  0
SEQEND
  5
DC
330
60
100
AcDbEntity
  8
1_ANYTOOL_1MMDEEP_LABELS_S
  0
LINE
  5
DD
330
1F
100
AcDbEntity
  8
1_ANYTOOL_1MMDEEP_LABELS_S
100
AcDbLine
 10
301.2863722071561
 20
-0.4714285714289872
 30
0.0
 11
284.1006579214409
 21
-31.24285714285361
 31
0.0
  0
LINE
  5
DE
330
1F
100
AcDbEntity
  8
1_ANYTOOL_1MMDEEP_LABELS_S
100
AcDbLine
 10
257.1006579214409
 20
-21.34285714285943
 30
0.0
 11
278.8720864928691
 21
-21.34285714285943
 31
0.0
  0
POLYLINE
  5
DF
330
1F
100
AcDbEntity
  8
1_ANYTOOL_1MMDEEP_LABELS_S
100
AcDb2dPolyline
 66
     1
 10
0.0
 20
0.0
 30
0.0
  0
VERTEX
  5
E0
330
DF
100
AcDbEntity
  8
1_ANYTOOL_1MMDEEP_LABELS_S
100
AcDbVertex
100
AcDb2dVertex
 10
273.0863722071554
 20
-30.0
 30
0.0
  0
VERTEX
  5
E1
330
DF
100
AcDbEntity
  8
1_ANYTOOL_1MMDEEP_LABELS_S
100
AcDbVertex
100
AcDb2dVertex
 10
273.1292293500119
 20
0.0428571428565192
 30
0.0
  0
VERTEX
  5
E2
330
DF
100
AcDbEntity
  8
1_ANYTOOL_1MMDEEP_LABELS_S
100
AcDbVertex
100
AcDb2dVertex
 10
257.1006579214409
 20
-21.34285714285943
 30
0.0
  0
SEQEND
  5
E3
330
DF
100
AcDbEntity
  8
1_ANYTOOL_1MMDEEP_LABELS_S
  0
LINE
  5
E4
330
1F
100
AcDbEntity
  8
1_ANYTOOL_1MMDEEP_LABELS_S
100
AcDbLine
 10
252.8149436357271
 20
-16.11428571428405
 30
0.0
 11
244.0292293500133
 21
-16.19999999999709
 31
0.0
  0
POLYLINE
  5
E5
330
1F
100
AcDbEntity
  8
1_ANYTOOL_1MMDEEP_LABELS_S
100
AcDb2dPolyline
 66
     1
 10
0.0
 20
0.0
 30
0.0
  0
VERTEX
  5
E6
330
E5
100
AcDbEntity
  8
1_ANYTOOL_1MMDEEP_LABELS_S
100
AcDbVertex
100
AcDb2dVertex
 10
214.4578007785822
 20
-30.0
 30
0.0
  0
VERTEX
  5
E7
330
E5
100
AcDbEntity
  8
1_ANYTOOL_1MMDEEP_LABELS_S
100
AcDbVertex
100
AcDb2dVertex
 10
214.4578007785822
 20
0.0
 30
0.0
  0
VERTEX
  5
E8
330
E5
100
AcDbEntity
  8
1_ANYTOOL_1MMDEEP_LABELS_S
100
AcDbVertex
100
AcDb2dVertex
 10
226.4578007785822
 20
-28.37142857143044
 30
0.0
  0
VERTEX
  5
E9
330
E5
100
AcDbEntity
  8
1_ANYTOOL_1MMDEEP_LABELS_S
100
AcDbVertex
100
AcDb2dVertex
 10
238.4578007785822
 20
-0.1285714285695576
 30
0.0
  0
VERTEX
  5
EA
330
E5
100
AcDbEntity
  8
1_ANYTOOL_1MMDEEP_LABELS_S
100
AcDbVertex
100
AcDb2dVertex
 10
238.4578007785822
 20
-30.0
 30
0.0
  0
SEQEND
  5
EB
330
E5
100
AcDbEntity
  8
1_ANYTOOL_1MMDEEP_LABELS_S
  0
LINE
  5
EC
330
1F
100
AcDbEntity
  8
1_ANYTOOL_1MMDEEP_LABELS_S
100
AcDbLine
 10
209.3149436357271
 20
-16.11428571428405
 30
0.0
 11
200.5292293500133
 21
-16.19999999999709
 31
0.0
  0
POLYLINE
  5
ED
330
1F
100
AcDbEntity
  8
1_ANYTOOL_1MMDEEP_LABELS_S
100
AcDb2dPolyline
 66
     1
 10
0.0
 20
0.0
 30
0.0
 70
     1
  0
VERTEX
  5
EE
330
ED
100
AcDbEntity
  8
1_ANYTOOL_1MMDEEP_LABELS_S
100
AcDbVertex
100
AcDb2dVertex
 10
185.3578007785836
 20
0.3428571428594296
 30
0.0
  0
VERTEX
  5
EF
330
ED
100
AcDbEntity
  8
1_ANYTOOL_1MMDEEP_LABELS_S
100
AcDbVertex
100
AcDb2dVertex
 10
185.7292851535836
 20
0.3369977678594296
 30
0.0
  0
VERTEX
  5
F0
330
ED
100
AcDbEntity
  8
1_ANYTOOL_1MMDEEP_LABELS_S
100
AcDbVertex
100
AcDb2dVertex
 10
186.0937382785836
 20
0.3194196428594296
 30
0.0
  0
VERTEX
  5
F1
330
ED
100
AcDbEntity
  8
1_ANYTOOL_1MMDEEP_LABELS_S
100
AcDbVertex
100
AcDb2dVertex
 10
186.4511601535836
 20
0.2901227678594296
 30
0.0
  0
VERTEX
  5
F2
330
ED
100
AcDbEntity
  8
1_ANYTOOL_1MMDEEP_LABELS_S
100
AcDbVertex
100
AcDb2dVertex
 10
186.6272343723336
 20
0.2710797991094296
 30
0.0
  0
VERTEX
  5
F3
330
ED
100
AcDbEntity
  8
1_ANYTOOL_1MMDEEP_LABELS_S
100
AcDbVertex
100
AcDb2dVertex
 10
186.8015507785835
 20
0.2491071428594296
 30
0.0
  0
VERTEX
  5
F4
330
ED
100
AcDbEntity
  8
1_ANYTOOL_1MMDEEP_LABELS_S
100
AcDbVertex
100
AcDb2dVertex
 10
186.9741093723335
 20
0.2242047991094296
 30
0.0
  0
VERTEX
  5
F5
330
ED
100
AcDbEntity
  8
1_ANYTOOL_1MMDEEP_LABELS_S
100
AcDbVertex
100
AcDb2dVertex
 10
187.1449101535835
 20
0.1963727678594296
 30
0.0
  0
VERTEX
  5
F6
330
ED
100
AcDbEntity
  8
1_ANYTOOL_1MMDEEP_LABELS_S
100
AcDbVertex
100
AcDb2dVertex
 10
187.3139531223334
 20
0.1656110491094296
 30
0.0
  0
VERTEX
  5
F7
330
ED
100
AcDbEntity
  8
1_ANYTOOL_1MMDEEP_LABELS_S
100
AcDbVertex
100
AcDb2dVertex
 10
187.4812382785834
 20
0.1319196428594296
 30
0.0
  0
VERTEX
  5
F8
330
ED
100
AcDbEntity
  8
1_ANYTOOL_1MMDEEP_LABELS_S
100
AcDbVertex
100
AcDb2dVertex
 10
187.6467656223334
 20
0.0952985491094296
 30
0.0
  0
VERTEX
  5
F9
330
ED
100
AcDbEntity
  8
1_ANYTOOL_1MMDEEP_LABELS_S
100
AcDbVertex
100
AcDb2dVertex
 10
187.8105351535833
 20
0.0557477678594296
 30
0.0
  0
VERTEX
  5
FA
330
ED
100
AcDbEntity
  8
1_ANYTOOL_1MMDEEP_LABELS_S
100
AcDbVertex
100
AcDb2dVertex
 10
187.9725468723333
 20
0.0132672991094296
 30
0.0
  0
VERTEX
  5
FB
330
ED
100
AcDbEntity
  8
1_ANYTOOL_1MMDEEP_LABELS_S
100
AcDbVertex
100
AcDb2dVertex
 10
188.1328007785833
 20
-0.0321428571405704
 30
0.0
  0
VERTEX
  5
FC
330
ED
100
AcDbEntity
  8
1_ANYTOOL_1MMDEEP_LABELS_S
100
AcDbVertex
100
AcDb2dVertex
 10
188.2912968723332
 20
-0.0804827008905704
 30
0.0
  0
VERTEX
  5
FD
330
ED
100
AcDbEntity
  8
1_ANYTOOL_1MMDEEP_LABELS_S
100
AcDbVertex
100
AcDb2dVertex
 10
188.4480351535832
 20
-0.1317522321405704
 30
0.0
  0
VERTEX
  5
FE
330
ED
100
AcDbEntity
  8
1_ANYTOOL_1MMDEEP_LABELS_S
100
AcDbVertex
100
AcDb2dVertex
 10
188.6030156223331
 20
-0.1859514508905704
 30
0.0
  0
VERTEX
  5
FF
330
ED
100
AcDbEntity
  8
1_ANYTOOL_1MMDEEP_LABELS_S
100
AcDbVertex
100
AcDb2dVertex
 10
188.7562382785831
 20
-0.2430803571405704
 30
0.0
  0
VERTEX
  5
100
330
ED
100
AcDbEntity
  8
1_ANYTOOL_1MMDEEP_LABELS_S
100
AcDbVertex
100
AcDb2dVertex
 10
188.907703122333
 20
-0.3031389508905704
 30
0.0
  0
VERTEX
  5
101
330
ED
100
AcDbEntity
  8
1_ANYTOOL_1MMDEEP_LABELS_S
100
AcDbVertex
100
AcDb2dVertex
 10
189.0574101535829
 20
-0.3661272321405704
 30
0.0
  0
VERTEX
  5
102
330
ED
100
AcDbEntity
  8
1_ANYTOOL_1MMDEEP_LABELS_S
100
AcDbVertex
100
AcDb2dVertex
 10
189.2053593723329
 20
-0.4320452008905704
 30
0.0
  0
VERTEX
  5
103
330
ED
100
AcDbEntity
  8
1_ANYTOOL_1MMDEEP_LABELS_S
100
AcDbVertex
100
AcDb2dVertex
 10
189.3515507785828
 20
-0.5008928571405704
 30
0.0
  0
VERTEX
  5
104
330
ED
100
AcDbEntity
  8
1_ANYTOOL_1MMDEEP_LABELS_S
100
AcDbVertex
100
AcDb2dVertex
 10
189.4959843723327
 20
-0.5726702008905704
 30
0.0
  0
VERTEX
  5
105
330
ED
100
AcDbEntity
  8
1_ANYTOOL_1MMDEEP_LABELS_S
100
AcDbVertex
100
AcDb2dVertex
 10
189.6386601535827
 20
-0.6473772321405704
 30
0.0
  0
VERTEX
  5
106
330
ED
100
AcDbEntity
  8
1_ANYTOOL_1MMDEEP_LABELS_S
100
AcDbVertex
100
AcDb2dVertex
 10
189.7795781223326
 20
-0.7250139508905704
 30
0.0
  0
VERTEX
  5
107
330
ED
100
AcDbEntity
  8
1_ANYTOOL_1MMDEEP_LABELS_S
100
AcDbVertex
100
AcDb2dVertex
 10
189.9187382785825
 20
-0.8055803571405704
 30
0.0
  0
VERTEX
  5
108
330
ED
100
AcDbEntity
  8
1_ANYTOOL_1MMDEEP_LABELS_S
100
AcDbVertex
100
AcDb2dVertex
 10
190.0561406223324
 20
-0.8890764508905704
 30
0.0
  0
VERTEX
  5
109
330
ED
100
AcDbEntity
  8
1_ANYTOOL_1MMDEEP_LABELS_S
100
AcDbVertex
100
AcDb2dVertex
 10
190.1917851535823
 20
-0.9755022321405704
 30
0.0
  0
VERTEX
  5
10A
330
ED
100
AcDbEntity
  8
1_ANYTOOL_1MMDEEP_LABELS_S
100
AcDbVertex
100
AcDb2dVertex
 10
190.3256718723323
 20
-1.06485770089057
 30
0.0
  0
VERTEX
  5
10B
330
ED
100
AcDbEntity
  8
1_ANYTOOL_1MMDEEP_LABELS_S
100
AcDbVertex
100
AcDb2dVertex
 10
190.7172873857253
 20
-1.342466517854945
 30
0.0
  0
VERTEX
  5
10C
330
ED
100
AcDbEntity
  8
1_ANYTOOL_1MMDEEP_LABELS_S
100
AcDbVertex
100
AcDb2dVertex
 10
190.9707472071541
 20
-1.534151785712197
 30
0.0
  0
VERTEX
  5
10D
330
ED
100
AcDbEntity
  8
1_ANYTOOL_1MMDEEP_LABELS_S
100
AcDbVertex
100
AcDb2dVertex
 10
191.2181802428686
 20
-1.732198660712328
 30
0.0
  0
VERTEX
  5
10E
330
ED
100
AcDbEntity
  8
1_ANYTOOL_1MMDEEP_LABELS_S
100
AcDbVertex
100
AcDb2dVertex
 10
191.4595864928688
 20
-1.936607142855337
 30
0.0
  0
VERTEX
  5
10F
330
ED
100
AcDbEntity
  8
1_ANYTOOL_1MMDEEP_LABELS_S
100
AcDbVertex
100
AcDb2dVertex
 10
191.6949659571546
 20
-2.147377232141224
 30
0.0
  0
VERTEX
  5
110
330
ED
100
AcDbEntity
  8
1_ANYTOOL_1MMDEEP_LABELS_S
100
AcDbVertex
100
AcDb2dVertex
 10
191.9243186357262
 20
-2.36450892856999
 30
0.0
  0
VERTEX
  5
111
330
ED
100
AcDbEntity
  8
1_ANYTOOL_1MMDEEP_LABELS_S
100
AcDbVertex
100
AcDb2dVertex
 10
192.1476445285834
 20
-2.588002232141633
 30
0.0
  0
VERTEX
  5
112
330
ED
100
AcDbEntity
  8
1_ANYTOOL_1MMDEEP_LABELS_S
100
AcDbVertex
100
AcDb2dVertex
 10
192.3649436357264
 20
-2.817857142856155
 30
0.0
  0
VERTEX
  5
113
330
ED
100
AcDbEntity
  8
1_ANYTOOL_1MMDEEP_LABELS_S
100
AcDbVertex
100
AcDb2dVertex
 10
192.576215957155
 20
-3.054073660713556
 30
0.0
  0
VERTEX
  5
114
330
ED
100
AcDbEntity
  8
1_ANYTOOL_1MMDEEP_LABELS_S
100
AcDbVertex
100
AcDb2dVertex
 10
192.7814614928693
 20
-3.296651785713834
 30
0.0
  0
VERTEX
  5
115
330
ED
100
AcDbEntity
  8
1_ANYTOOL_1MMDEEP_LABELS_S
100
AcDbVertex
100
AcDb2dVertex
 10
192.9806802428693
 20
-3.545591517856991
 30
0.0
  0
VERTEX
  5
116
330
ED
100
AcDbEntity
  8
1_ANYTOOL_1MMDEEP_LABELS_S
100
AcDbVertex
100
AcDb2dVertex
 10
193.173872207155
 20
-3.800892857143026
 30
0.0
  0
VERTEX
  5
117
330
ED
100
AcDbEntity
  8
1_ANYTOOL_1MMDEEP_LABELS_S
100
AcDbVertex
100
AcDb2dVertex
 10
193.3610373857264
 20
-4.062555803571939
 30
0.0
  0
VERTEX
  5
118
330
ED
100
AcDbEntity
  8
1_ANYTOOL_1MMDEEP_LABELS_S
100
AcDbVertex
100
AcDb2dVertex
 10
193.5421757785834
 20
-4.330580357143731
 30
0.0
  0
VERTEX
  5
119
330
ED
100
AcDbEntity
  8
1_ANYTOOL_1MMDEEP_LABELS_S
100
AcDbVertex
100
AcDb2dVertex
 10
193.7172873857262
 20
-4.604966517858401
 30
0.0
  0
VERTEX
  5
11A
330
ED
100
AcDbEntity
  8
1_ANYTOOL_1MMDEEP_LABELS_S
100
AcDbVertex
100
AcDb2dVertex
 10
194.0547873857259
 20
-5.171484375001199
 30
0.0
  0
VERTEX
  5
11B
330
ED
100
AcDbEntity
  8
1_ANYTOOL_1MMDEEP_LABELS_S
100
AcDbVertex
100
AcDb2dVertex
 10
194.2171757785828
 20
-5.460937500000796
 30
0.0
  0
VERTEX
  5
11C
330
ED
100
AcDbEntity
  8
1_ANYTOOL_1MMDEEP_LABELS_S
100
AcDbVertex
100
AcDb2dVertex
 10
194.3735373857255
 20
-5.754073660714738
 30
0.0
  0
VERTEX
  5
11D
330
ED
100
AcDbEntity
  8
1_ANYTOOL_1MMDEEP_LABELS_S
100
AcDbVertex
100
AcDb2dVertex
 10
194.523872207154
 20
-6.050892857143026
 30
0.0
  0
VERTEX
  5
11E
330
ED
100
AcDbEntity
  8
1_ANYTOOL_1MMDEEP_LABELS_S
100
AcDbVertex
100
AcDb2dVertex
 10
194.6681802428682
 20
-6.35139508928566
 30
0.0
  0
VERTEX
  5
11F
330
ED
100
AcDbEntity
  8
1_ANYTOOL_1MMDEEP_LABELS_S
100
AcDbVertex
100
AcDb2dVertex
 10
194.8064614928682
 20
-6.65558035714264
 30
0.0
  0
VERTEX
  5
120
330
ED
100
AcDbEntity
  8
1_ANYTOOL_1MMDEEP_LABELS_S
100
AcDbVertex
100
AcDb2dVertex
 10
194.9387159571538
 20
-6.963448660713965
 30
0.0
  0
VERTEX
  5
121
330
ED
100
AcDbEntity
  8
1_ANYTOOL_1MMDEEP_LABELS_S
100
AcDbVertex
100
AcDb2dVertex
 10
195.0649436357253
 20
-7.274999999999636
 30
0.0
  0
VERTEX
  5
122
330
ED
100
AcDbEntity
  8
1_ANYTOOL_1MMDEEP_LABELS_S
100
AcDbVertex
100
AcDb2dVertex
 10
195.1851445285825
 20
-7.590234374999653
 30
0.0
  0
VERTEX
  5
123
330
ED
100
AcDbEntity
  8
1_ANYTOOL_1MMDEEP_LABELS_S
100
AcDbVertex
100
AcDb2dVertex
 10
195.2993186357254
 20
-7.909151785714016
 30
0.0
  0
VERTEX
  5
124
330
ED
100
AcDbEntity
  8
1_ANYTOOL_1MMDEEP_LABELS_S
100
AcDbVertex
100
AcDb2dVertex
 10
195.4074659571541
 20
-8.231752232142725
 30
0.0
  0
VERTEX
  5
125
330
ED
100
AcDbEntity
  8
1_ANYTOOL_1MMDEEP_LABELS_S
100
AcDbVertex
100
AcDb2dVertex
 10
195.5095864928685
 20
-8.55803571428578
 30
0.0
  0
VERTEX
  5
126
330
ED
100
AcDbEntity
  8
1_ANYTOOL_1MMDEEP_LABELS_S
100
AcDbVertex
100
AcDb2dVertex
 10
195.6056802428687
 20
-8.88800223214318
 30
0.0
  0
VERTEX
  5
127
330
ED
100
AcDbEntity
  8
1_ANYTOOL_1MMDEEP_LABELS_S
100
AcDbVertex
100
AcDb2dVertex
 10
195.6957472071546
 20
-9.221651785714926
 30
0.0
  0
VERTEX
  5
128
330
ED
100
AcDbEntity
  8
1_ANYTOOL_1MMDEEP_LABELS_S
100
AcDbVertex
100
AcDb2dVertex
 10
195.7797873857262
 20
-9.558984375001017
 30
0.0
  0
VERTEX
  5
129
330
ED
100
AcDbEntity
  8
1_ANYTOOL_1MMDEEP_LABELS_S
100
AcDbVertex
100
AcDb2dVertex
 10
196.0084704214403
 20
-10.58236607142919
 30
0.0
  0
VERTEX
  5
12A
330
ED
100
AcDbEntity
  8
1_ANYTOOL_1MMDEEP_LABELS_S
100
AcDbVertex
100
AcDb2dVertex
 10
196.1390507785827
 20
-11.2580357142856
 30
0.0
  0
VERTEX
  5
12B
330
ED
100
AcDbEntity
  8
1_ANYTOOL_1MMDEEP_LABELS_S
100
AcDbVertex
100
AcDb2dVertex
 10
196.2495418500109
 20
-11.92700892857067
 30
0.0
  0
VERTEX
  5
12C
330
ED
100
AcDbEntity
  8
1_ANYTOOL_1MMDEEP_LABELS_S
100
AcDbVertex
100
AcDb2dVertex
 10
196.3399436357249
 20
-12.58928571428442
 30
0.0
  0
VERTEX
  5
12D
330
ED
100
AcDbEntity
  8
1_ANYTOOL_1MMDEEP_LABELS_S
100
AcDbVertex
100
AcDb2dVertex
 10
196.4102561357247
 20
-13.24486607142683
 30
0.0
  0
VERTEX
  5
12E
330
ED
100
AcDbEntity
  8
1_ANYTOOL_1MMDEEP_LABELS_S
100
AcDbVertex
100
AcDb2dVertex
 10
196.4604793500102
 20
-13.89374999999791
 30
0.0
  0
VERTEX
  5
12F
330
ED
100
AcDbEntity
  8
1_ANYTOOL_1MMDEEP_LABELS_S
100
AcDbVertex
100
AcDb2dVertex
 10
196.4906132785816
 20
-14.53593749999766
 30
0.0
  0
VERTEX
  5
130
330
ED
100
AcDbEntity
  8
1_ANYTOOL_1MMDEEP_LABELS_S
100
AcDbVertex
100
AcDb2dVertex
 10
196.5006579214387
 20
-15.17142857142608
 30
0.0
  0
VERTEX
  5
131
330
ED
100
AcDbEntity
  8
1_ANYTOOL_1MMDEEP_LABELS_S
100
AcDbVertex
100
AcDb2dVertex
 10
196.4897762250101
 20
-15.80892857142678
 30
0.0
  0
VERTEX
  5
132
330
ED
100
AcDbEntity
  8
1_ANYTOOL_1MMDEEP_LABELS_S
100
AcDbVertex
100
AcDb2dVertex
 10
196.4571311357244
 20
-16.44642857142742
 30
0.0
  0
VERTEX
  5
133
330
ED
100
AcDbEntity
  8
1_ANYTOOL_1MMDEEP_LABELS_S
100
AcDbVertex
100
AcDb2dVertex
 10
196.4027226535816
 20
-17.083928571428
 30
0.0
  0
VERTEX
  5
134
330
ED
100
AcDbEntity
  8
1_ANYTOOL_1MMDEEP_LABELS_S
100
AcDbVertex
100
AcDb2dVertex
 10
196.3265507785816
 20
-17.72142857142853
 30
0.0
  0
VERTEX
  5
135
330
ED
100
AcDbEntity
  8
1_ANYTOOL_1MMDEEP_LABELS_S
100
AcDbVertex
100
AcDb2dVertex
 10
196.2286155107245
 20
-18.358928571429
 30
0.0
  0
VERTEX
  5
136
330
ED
100
AcDbEntity
  8
1_ANYTOOL_1MMDEEP_LABELS_S
100
AcDbVertex
100
AcDb2dVertex
 10
196.1089168500102
 20
-18.99642857142942
 30
0.0
  0
VERTEX
  5
137
330
ED
100
AcDbEntity
  8
1_ANYTOOL_1MMDEEP_LABELS_S
100
AcDbVertex
100
AcDb2dVertex
 10
195.9674547964388
 20
-19.63392857142978
 30
0.0
  0
VERTEX
  5
138
330
ED
100
AcDbEntity
  8
1_ANYTOOL_1MMDEEP_LABELS_S
100
AcDbVertex
100
AcDb2dVertex
 10
195.8042293500102
 20
-20.27142857143008
 30
0.0
  0
VERTEX
  5
139
330
ED
100
AcDbEntity
  8
1_ANYTOOL_1MMDEEP_LABELS_S
100
AcDbVertex
100
AcDb2dVertex
 10
195.6192405107246
 20
-20.90892857143032
 30
0.0
  0
VERTEX
  5
13A
330
ED
100
AcDbEntity
  8
1_ANYTOOL_1MMDEEP_LABELS_S
100
AcDbVertex
100
AcDb2dVertex
 10
195.4124882785817
 20
-21.54642857143051
 30
0.0
  0
VERTEX
  5
13B
330
ED
100
AcDbEntity
  8
1_ANYTOOL_1MMDEEP_LABELS_S
100
AcDbVertex
100
AcDb2dVertex
 10
195.1839726535818
 20
-22.18392857143064
 30
0.0
  0
VERTEX
  5
13C
330
ED
100
AcDbEntity
  8
1_ANYTOOL_1MMDEEP_LABELS_S
100
AcDbVertex
100
AcDb2dVertex
 10
194.9336936357247
 20
-22.82142857143072
 30
0.0
  0
VERTEX
  5
13D
330
ED
100
AcDbEntity
  8
1_ANYTOOL_1MMDEEP_LABELS_S
100
AcDbVertex
100
AcDb2dVertex
 10
194.6616512250105
 20
-23.45892857143073
 30
0.0
  0
VERTEX
  5
13E
330
ED
100
AcDbEntity
  8
1_ANYTOOL_1MMDEEP_LABELS_S
100
AcDbVertex
100
AcDb2dVertex
 10
194.3678454214391
 20
-24.09642857143069
 30
0.0
  0
VERTEX
  5
13F
330
ED
100
AcDbEntity
  8
1_ANYTOOL_1MMDEEP_LABELS_S
100
AcDbVertex
100
AcDb2dVertex
 10
194.0522762250106
 20
-24.7339285714306
 30
0.0
  0
VERTEX
  5
140
330
ED
100
AcDbEntity
  8
1_ANYTOOL_1MMDEEP_LABELS_S
100
AcDbVertex
100
AcDb2dVertex
 10
193.7149436357249
 20
-25.37142857143044
 30
0.0
  0
VERTEX
  5
141
330
ED
100
AcDbEntity
  8
1_ANYTOOL_1MMDEEP_LABELS_S
100
AcDbVertex
100
AcDb2dVertex
 10
193.5403761134035
 20
-25.68519810268035
 30
0.0
  0
VERTEX
  5
142
330
ED
100
AcDbEntity
  8
1_ANYTOOL_1MMDEEP_LABELS_S
100
AcDbVertex
100
AcDb2dVertex
 10
193.3595306892963
 20
-25.98900669643027
 30
0.0
  0
VERTEX
  5
143
330
ED
100
AcDbEntity
  8
1_ANYTOOL_1MMDEEP_LABELS_S
100
AcDbVertex
100
AcDb2dVertex
 10
193.1724073634035
 20
-26.28285435268018
 30
0.0
  0
VERTEX
  5
144
330
ED
100
AcDbEntity
  8
1_ANYTOOL_1MMDEEP_LABELS_S
100
AcDbVertex
100
AcDb2dVertex
 10
192.9790061357249
 20
-26.5667410714301
 30
0.0
  0
VERTEX
  5
145
330
ED
100
AcDbEntity
  8
1_ANYTOOL_1MMDEEP_LABELS_S
100
AcDbVertex
100
AcDb2dVertex
 10
192.7793270062606
 20
-26.84066685268002
 30
0.0
  0
VERTEX
  5
146
330
ED
100
AcDbEntity
  8
1_ANYTOOL_1MMDEEP_LABELS_S
100
AcDbVertex
100
AcDb2dVertex
 10
192.5733699750106
 20
-27.10463169642995
 30
0.0
  0
VERTEX
  5
147
330
ED
100
AcDbEntity
  8
1_ANYTOOL_1MMDEEP_LABELS_S
100
AcDbVertex
100
AcDb2dVertex
 10
192.3611350419748
 20
-27.35863560267988
 30
0.0
  0
VERTEX
  5
148
330
ED
100
AcDbEntity
  8
1_ANYTOOL_1MMDEEP_LABELS_S
100
AcDbVertex
100
AcDb2dVertex
 10
192.1426222071534
 20
-27.60267857142981
 30
0.0
  0
VERTEX
  5
149
330
ED
100
AcDbEntity
  8
1_ANYTOOL_1MMDEEP_LABELS_S
100
AcDbVertex
100
AcDb2dVertex
 10
192.031011576573
 20
-27.72096470424227
 30
0.0
  0
VERTEX
  5
14A
330
ED
100
AcDbEntity
  8
1_ANYTOOL_1MMDEEP_LABELS_S
100
AcDbVertex
100
AcDb2dVertex
 10
191.9178314705462
 20
-27.83676060267974
 30
0.0
  0
VERTEX
  5
14B
330
ED
100
AcDbEntity
  8
1_ANYTOOL_1MMDEEP_LABELS_S
100
AcDbVertex
100
AcDb2dVertex
 10
191.803081889073
 20
-27.9500662667422
 30
0.0
  0
VERTEX
  5
14C
330
ED
100
AcDbEntity
  8
1_ANYTOOL_1MMDEEP_LABELS_S
100
AcDbVertex
100
AcDb2dVertex
 10
191.6867628321534
 20
-28.06088169642968
 30
0.0
  0
VERTEX
  5
14D
330
ED
100
AcDbEntity
  8
1_ANYTOOL_1MMDEEP_LABELS_S
100
AcDbVertex
100
AcDb2dVertex
 10
191.5688742997873
 20
-28.16920689174214
 30
0.0
  0
VERTEX
  5
14E
330
ED
100
AcDbEntity
  8
1_ANYTOOL_1MMDEEP_LABELS_S
100
AcDbVertex
100
AcDb2dVertex
 10
191.4494162919748
 20
-28.27504185267961
 30
0.0
  0
VERTEX
  5
14F
330
ED
100
AcDbEntity
  8
1_ANYTOOL_1MMDEEP_LABELS_S
100
AcDbVertex
100
AcDb2dVertex
 10
191.3283888087158
 20
-28.37838657924208
 30
0.0
  0
VERTEX
  5
150
330
ED
100
AcDbEntity
  8
1_ANYTOOL_1MMDEEP_LABELS_S
100
AcDbVertex
100
AcDb2dVertex
 10
191.2057918500105
 20
-28.47924107142956
 30
0.0
  0
VERTEX
  5
151
330
ED
100
AcDbEntity
  8
1_ANYTOOL_1MMDEEP_LABELS_S
100
AcDbVertex
100
AcDb2dVertex
 10
191.0816254158587
 20
-28.57760532924203
 30
0.0
  0
VERTEX
  5
152
330
ED
100
AcDbEntity
  8
1_ANYTOOL_1MMDEEP_LABELS_S
100
AcDbVertex
100
AcDb2dVertex
 10
190.9558895062605
 20
-28.6734793526795
 30
0.0
  0
VERTEX
  5
153
330
ED
100
AcDbEntity
  8
1_ANYTOOL_1MMDEEP_LABELS_S
100
AcDbVertex
100
AcDb2dVertex
 10
190.8285841212158
 20
-28.76686314174197
 30
0.0
  0
VERTEX
  5
154
330
ED
100
AcDbEntity
  8
1_ANYTOOL_1MMDEEP_LABELS_S
100
AcDbVertex
100
AcDb2dVertex
 10
190.6997092607247
 20
-28.85775669642945
 30
0.0
  0
VERTEX
  5
155
330
ED
100
AcDbEntity
  8
1_ANYTOOL_1MMDEEP_LABELS_S
100
AcDbVertex
100
AcDb2dVertex
 10
190.5692649247872
 20
-28.94616001674192
 30
0.0
  0
VERTEX
  5
156
330
ED
100
AcDbEntity
  8
1_ANYTOOL_1MMDEEP_LABELS_S
100
AcDbVertex
100
AcDb2dVertex
 10
190.4372511134033
 20
-29.0320731026794
 30
0.0
  0
VERTEX
  5
157
330
ED
100
AcDbEntity
  8
1_ANYTOOL_1MMDEEP_LABELS_S
100
AcDbVertex
100
AcDb2dVertex
 10
190.3036678265729
 20
-29.11549595424187
 30
0.0
  0
VERTEX
  5
158
330
ED
100
AcDbEntity
  8
1_ANYTOOL_1MMDEEP_LABELS_S
100
AcDbVertex
100
AcDb2dVertex
 10
190.1685150642961
 20
-29.19642857142935
 30
0.0
  0
VERTEX
  5
159
330
ED
100
AcDbEntity
  8
1_ANYTOOL_1MMDEEP_LABELS_S
100
AcDbVertex
100
AcDb2dVertex
 10
190.0317928265729
 20
-29.27487095424183
 30
0.0
  0
VERTEX
  5
15A
330
ED
100
AcDbEntity
  8
1_ANYTOOL_1MMDEEP_LABELS_S
100
AcDbVertex
100
AcDb2dVertex
 10
189.8935011134032
 20
-29.35082310267931
 30
0.0
  0
VERTEX
  5
15B
330
ED
100
AcDbEntity
  8
1_ANYTOOL_1MMDEEP_LABELS_S
100
AcDbVertex
100
AcDb2dVertex
 10
189.7536399247871
 20
-29.42428501674178
 30
0.0
  0
VERTEX
  5
15C
330
ED
100
AcDbEntity
  8
1_ANYTOOL_1MMDEEP_LABELS_S
100
AcDbVertex
100
AcDb2dVertex
 10
189.6122092607246
 20
-29.49525669642927
 30
0.0
  0
VERTEX
  5
15D
330
ED
100
AcDbEntity
  8
1_ANYTOOL_1MMDEEP_LABELS_S
100
AcDbVertex
100
AcDb2dVertex
 10
189.4692091212157
 20
-29.56373814174174
 30
0.0
  0
VERTEX
  5
15E
330
ED
100
AcDbEntity
  8
1_ANYTOOL_1MMDEEP_LABELS_S
100
AcDbVertex
100
AcDb2dVertex
 10
189.3246395062603
 20
-29.62972935267923
 30
0.0
  0
VERTEX
  5
15F
330
ED
100
AcDbEntity
  8
1_ANYTOOL_1MMDEEP_LABELS_S
100
AcDbVertex
100
AcDb2dVertex
 10
189.1785004158585
 20
-29.69323032924171
 30
0.0
  0
VERTEX
  5
160
330
ED
100
AcDbEntity
  8
1_ANYTOOL_1MMDEEP_LABELS_S
100
AcDbVertex
100
AcDb2dVertex
 10
189.0307918500103
 20
-29.75424107142919
 30
0.0
  0
VERTEX
  5
161
330
ED
100
AcDbEntity
  8
1_ANYTOOL_1MMDEEP_LABELS_S
100
AcDbVertex
100
AcDb2dVertex
 10
188.8815138087156
 20
-29.81276157924167
 30
0.0
  0
VERTEX
  5
162
330
ED
100
AcDbEntity
  8
1_ANYTOOL_1MMDEEP_LABELS_S
100
AcDbVertex
100
AcDb2dVertex
 10
188.7306662919746
 20
-29.86879185267916
 30
0.0
  0
VERTEX
  5
163
330
ED
100
AcDbEntity
  8
1_ANYTOOL_1MMDEEP_LABELS_S
100
AcDbVertex
100
AcDb2dVertex
 10
188.578249299787
 20
-29.92233189174164
 30
0.0
  0
VERTEX
  5
164
330
ED
100
AcDbEntity
  8
1_ANYTOOL_1MMDEEP_LABELS_S
100
AcDbVertex
100
AcDb2dVertex
 10
188.4242628321531
 20
-29.97338169642913
 30
0.0
  0
VERTEX
  5
165
330
ED
100
AcDbEntity
  8
1_ANYTOOL_1MMDEEP_LABELS_S
100
AcDbVertex
100
AcDb2dVertex
 10
188.1115814705459
 20
-30.0680106026791
 30
0.0
  0
VERTEX
  5
166
330
ED
100
AcDbEntity
  8
1_ANYTOOL_1MMDEEP_LABELS_S
100
AcDbVertex
100
AcDb2dVertex
 10
187.792622207153
 20
-30.15267857142908
 30
0.0
  0
VERTEX
  5
167
330
ED
100
AcDbEntity
  8
1_ANYTOOL_1MMDEEP_LABELS_S
100
AcDbVertex
100
AcDb2dVertex
 10
187.4673850419744
 20
-30.22738560267906
 30
0.0
  0
VERTEX
  5
168
330
ED
100
AcDbEntity
  8
1_ANYTOOL_1MMDEEP_LABELS_S
100
AcDbVertex
100
AcDb2dVertex
 10
187.1358699750101
 20
-30.29213169642904
 30
0.0
  0
VERTEX
  5
169
330
ED
100
AcDbEntity
  8
1_ANYTOOL_1MMDEEP_LABELS_S
100
AcDbVertex
100
AcDb2dVertex
 10
186.7980770062601
 20
-30.34691685267902
 30
0.0
  0
VERTEX
  5
16A
330
ED
100
AcDbEntity
  8
1_ANYTOOL_1MMDEEP_LABELS_S
100
AcDbVertex
100
AcDb2dVertex
 10
186.4540061357243
 20
-30.39174107142901
 30
0.0
  0
VERTEX
  5
16B
330
ED
100
AcDbEntity
  8
1_ANYTOOL_1MMDEEP_LABELS_S
100
AcDbVertex
100
AcDb2dVertex
 10
186.1036573634029
 20
-30.426604352679
 30
0.0
  0
VERTEX
  5
16C
330
ED
100
AcDbEntity
  8
1_ANYTOOL_1MMDEEP_LABELS_S
100
AcDbVertex
100
AcDb2dVertex
 10
185.7470306892957
 20
-30.45150669642899
 30
0.0
  0
VERTEX
  5
16D
330
ED
100
AcDbEntity
  8
1_ANYTOOL_1MMDEEP_LABELS_S
100
AcDbVertex
100
AcDb2dVertex
 10
185.3841261134028
 20
-30.46644810267899
 30
0.0
  0
VERTEX
  5
16E
330
ED
100
AcDbEntity
  8
1_ANYTOOL_1MMDEEP_LABELS_S
100
AcDbVertex
100
AcDb2dVertex
 10
185.0149436357242
 20
-30.47142857142899
 30
0.0
  0
VERTEX
  5
16F
330
ED
100
AcDbEntity
  8
1_ANYTOOL_1MMDEEP_LABELS_S
100
AcDbVertex
100
AcDb2dVertex
 10
184.6325357116172
 20
-30.46636439732185
 30
0.0
  0
VERTEX
  5
170
330
ED
100
AcDbEntity
  8
1_ANYTOOL_1MMDEEP_LABELS_S
100
AcDbVertex
100
AcDb2dVertex
 10
184.2567405107245
 20
-30.45117187500043
 30
0.0
  0
VERTEX
  5
171
330
ED
100
AcDbEntity
  8
1_ANYTOOL_1MMDEEP_LABELS_S
100
AcDbVertex
100
AcDb2dVertex
 10
183.8875580330461
 20
-30.42585100446473
 30
0.0
  0
VERTEX
  5
172
330
ED
100
AcDbEntity
  8
1_ANYTOOL_1MMDEEP_LABELS_S
100
AcDbVertex
100
AcDb2dVertex
 10
183.5249882785819
 20
-30.39040178571474
 30
0.0
  0
VERTEX
  5
173
330
ED
100
AcDbEntity
  8
1_ANYTOOL_1MMDEEP_LABELS_S
100
AcDbVertex
100
AcDb2dVertex
 10
183.1690312473321
 20
-30.34482421875048
 30
0.0
  0
VERTEX
  5
174
330
ED
100
AcDbEntity
  8
1_ANYTOOL_1MMDEEP_LABELS_S
100
AcDbVertex
100
AcDb2dVertex
 10
182.8196869392965
 20
-30.28911830357194
 30
0.0
  0
VERTEX
  5
175
330
ED
100
AcDbEntity
  8
1_ANYTOOL_1MMDEEP_LABELS_S
100
AcDbVertex
100
AcDb2dVertex
 10
182.4769553544752
 20
-30.22328404017912
 30
0.0
  0
VERTEX
  5
176
330
ED
100
AcDbEntity
  8
1_ANYTOOL_1MMDEEP_LABELS_S
100
AcDbVertex
100
AcDb2dVertex
 10
182.1408364928682
 20
-30.14732142857201
 30
0.0
  0
VERTEX
  5
177
330
ED
100
AcDbEntity
  8
1_ANYTOOL_1MMDEEP_LABELS_S
100
AcDbVertex
100
AcDb2dVertex
 10
181.8113303544754
 20
-30.06123046875063
 30
0.0
  0
VERTEX
  5
178
330
ED
100
AcDbEntity
  8
1_ANYTOOL_1MMDEEP_LABELS_S
100
AcDbVertex
100
AcDb2dVertex
 10
181.488436939297
 20
-29.96501116071497
 30
0.0
  0
VERTEX
  5
179
330
ED
100
AcDbEntity
  8
1_ANYTOOL_1MMDEEP_LABELS_S
100
AcDbVertex
100
AcDb2dVertex
 10
181.3294700029131
 20
-29.91310337611678
 30
0.0
  0
VERTEX
  5
17A
330
ED
100
AcDbEntity
  8
1_ANYTOOL_1MMDEEP_LABELS_S
100
AcDbVertex
100
AcDb2dVertex
 10
181.1721562473328
 20
-29.85866350446502
 30
0.0
  0
VERTEX
  5
17B
330
ED
100
AcDbEntity
  8
1_ANYTOOL_1MMDEEP_LABELS_S
100
AcDbVertex
100
AcDb2dVertex
 10
181.0164956725561
 20
-29.8016915457597
 30
0.0
  0
VERTEX
  5
17C
330
ED
100
AcDbEntity
  8
1_ANYTOOL_1MMDEEP_LABELS_S
100
AcDbVertex
100
AcDb2dVertex
 10
180.8624882785829
 20
-29.7421875000008
 30
0.0
  0
VERTEX
  5
17D
330
ED
100
AcDbEntity
  8
1_ANYTOOL_1MMDEEP_LABELS_S
100
AcDbVertex
100
AcDb2dVertex
 10
180.7101340654133
 20
-29.68015136718833
 30
0.0
  0
VERTEX
  5
17E
330
ED
100
AcDbEntity
  8
1_ANYTOOL_1MMDEEP_LABELS_S
100
AcDbVertex
100
AcDb2dVertex
 10
180.5594330330473
 20
-29.61558314732229
 30
0.0
  0
VERTEX
  5
17F
330
ED
100
AcDbEntity
  8
1_ANYTOOL_1MMDEEP_LABELS_S
100
AcDbVertex
100
AcDb2dVertex
 10
180.4103851814849
 20
-29.54848284040268
 30
0.0
  0
VERTEX
  5
180
330
ED
100
AcDbEntity
  8
1_ANYTOOL_1MMDEEP_LABELS_S
100
AcDbVertex
100
AcDb2dVertex
 10
180.262990510726
 20
-29.4788504464295
 30
0.0
  0
VERTEX
  5
181
330
ED
100
AcDbEntity
  8
1_ANYTOOL_1MMDEEP_LABELS_S
100
AcDbVertex
100
AcDb2dVertex
 10
180.1172490207707
 20
-29.40668596540276
 30
0.0
  0
VERTEX
  5
182
330
ED
100
AcDbEntity
  8
1_ANYTOOL_1MMDEEP_LABELS_S
100
AcDbVertex
100
AcDb2dVertex
 10
179.973160711619
 20
-29.33198939732244
 30
0.0
  0
VERTEX
  5
183
330
ED
100
AcDbEntity
  8
1_ANYTOOL_1MMDEEP_LABELS_S
100
AcDbVertex
100
AcDb2dVertex
 10
179.8307255832708
 20
-29.25476074218855
 30
0.0
  0
VERTEX
  5
184
330
ED
100
AcDbEntity
  8
1_ANYTOOL_1MMDEEP_LABELS_S
100
AcDbVertex
100
AcDb2dVertex
 10
179.6899436357262
 20
-29.17500000000109
 30
0.0
  0
VERTEX
  5
185
330
ED
100
AcDbEntity
  8
1_ANYTOOL_1MMDEEP_LABELS_S
100
AcDbVertex
100
AcDb2dVertex
 10
179.5508148689852
 20
-29.09270717076006
 30
0.0
  0
VERTEX
  5
186
330
ED
100
AcDbEntity
  8
1_ANYTOOL_1MMDEEP_LABELS_S
100
AcDbVertex
100
AcDb2dVertex
 10
179.4133392830477
 20
-29.00788225446546
 30
0.0
  0
VERTEX
  5
187
330
ED
100
AcDbEntity
  8
1_ANYTOOL_1MMDEEP_LABELS_S
100
AcDbVertex
100
AcDb2dVertex
 10
179.2775168779139
 20
-28.9205252511173
 30
0.0
  0
VERTEX
  5
188
330
ED
100
AcDbEntity
  8
1_ANYTOOL_1MMDEEP_LABELS_S
100
AcDbVertex
100
AcDb2dVertex
 10
179.1433476535835
 20
-28.83063616071556
 30
0.0
  0
VERTEX
  5
189
330
ED
100
AcDbEntity
  8
1_ANYTOOL_1MMDEEP_LABELS_S
100
AcDbVertex
100
AcDb2dVertex
 10
179.0108316100568
 20
-28.73821498326025
 30
0.0
  0
VERTEX
  5
18A
330
ED
100
AcDbEntity
  8
1_ANYTOOL_1MMDEEP_LABELS_S
100
AcDbVertex
100
AcDb2dVertex
 10
178.8799687473336
 20
-28.64326171875137
 30
0.0
  0
VERTEX
  5
18B
330
ED
100
AcDbEntity
  8
1_ANYTOOL_1MMDEEP_LABELS_S
100
AcDbVertex
100
AcDb2dVertex
 10
178.750759065414
 20
-28.54577636718892
 30
0.0
  0
VERTEX
  5
18C
330
ED
100
AcDbEntity
  8
1_ANYTOOL_1MMDEEP_LABELS_S
100
AcDbVertex
100
AcDb2dVertex
 10
178.623202564298
 20
-28.4457589285729
 30
0.0
  0
VERTEX
  5
18D
330
ED
100
AcDbEntity
  8
1_ANYTOOL_1MMDEEP_LABELS_S
100
AcDbVertex
100
AcDb2dVertex
 10
178.4972992439855
 20
-28.34320940290331
 30
0.0
  0
VERTEX
  5
18E
330
ED
100
AcDbEntity
  8
1_ANYTOOL_1MMDEEP_LABELS_S
100
AcDbVertex
100
AcDb2dVertex
 10
178.3730491044766
 20
-28.23812779018015
 30
0.0
  0
VERTEX
  5
18F
330
ED
100
AcDbEntity
  8
1_ANYTOOL_1MMDEEP_LABELS_S
100
AcDbVertex
100
AcDb2dVertex
 10
178.2504521457713
 20
-28.13051409040342
 30
0.0
  0
VERTEX
  5
190
330
ED
100
AcDbEntity
  8
1_ANYTOOL_1MMDEEP_LABELS_S
100
AcDbVertex
100
AcDb2dVertex
 10
178.1295083678696
 20
-28.02036830357312
 30
0.0
  0
VERTEX
  5
191
330
ED
100
AcDbEntity
  8
1_ANYTOOL_1MMDEEP_LABELS_S
100
AcDbVertex
100
AcDb2dVertex
 10
178.0102177707714
 20
-27.90769042968925
 30
0.0
  0
VERTEX
  5
192
330
ED
100
AcDbEntity
  8
1_ANYTOOL_1MMDEEP_LABELS_S
100
AcDbVertex
100
AcDb2dVertex
 10
177.8925803544768
 20
-27.79248046875181
 30
0.0
  0
VERTEX
  5
193
330
ED
100
AcDbEntity
  8
1_ANYTOOL_1MMDEEP_LABELS_S
100
AcDbVertex
100
AcDb2dVertex
 10
177.7765961189857
 20
-27.6747384207608
 30
0.0
  0
VERTEX
  5
194
330
ED
100
AcDbEntity
  8
1_ANYTOOL_1MMDEEP_LABELS_S
100
AcDbVertex
100
AcDb2dVertex
 10
177.6622650642983
 20
-27.55446428571622
 30
0.0
  0
VERTEX
  5
195
330
ED
100
AcDbEntity
  8
1_ANYTOOL_1MMDEEP_LABELS_S
100
AcDbVertex
100
AcDb2dVertex
 10
177.5495871904143
 20
-27.43165806361807
 30
0.0
  0
VERTEX
  5
196
330
ED
100
AcDbEntity
  8
1_ANYTOOL_1MMDEEP_LABELS_S
100
AcDbVertex
100
AcDb2dVertex
 10
177.438562497334
 20
-27.30631975446635
 30
0.0
  0
VERTEX
  5
197
330
ED
100
AcDbEntity
  8
1_ANYTOOL_1MMDEEP_LABELS_S
100
AcDbVertex
100
AcDb2dVertex
 10
177.2214726535841
 20
-27.0480468750022
 30
0.0
  0
VERTEX
  5
198
330
ED
100
AcDbEntity
  8
1_ANYTOOL_1MMDEEP_LABELS_S
100
AcDbVertex
100
AcDb2dVertex
 10
177.0109955330484
 20
-26.77964564732377
 30
0.0
  0
VERTEX
  5
199
330
ED
100
AcDbEntity
  8
1_ANYTOOL_1MMDEEP_LABELS_S
100
AcDbVertex
100
AcDb2dVertex
 10
176.807131135727
 20
-26.50111607143106
 30
0.0
  0
VERTEX
  5
19A
330
ED
100
AcDbEntity
  8
1_ANYTOOL_1MMDEEP_LABELS_S
100
AcDbVertex
100
AcDb2dVertex
 10
176.60987946162
 20
-26.21245814732406
 30
0.0
  0
VERTEX
  5
19B
330
ED
100
AcDbEntity
  8
1_ANYTOOL_1MMDEEP_LABELS_S
100
AcDbVertex
100
AcDb2dVertex
 10
176.4192405107271
 20
-25.91367187500279
 30
0.0
  0
VERTEX
  5
19C
330
ED
100
AcDbEntity
  8
1_ANYTOOL_1MMDEEP_LABELS_S
100
AcDbVertex
100
AcDb2dVertex
 10
176.2352142830486
 20
-25.60475725446724
 30
0.0
  0
VERTEX
  5
19D
330
ED
100
AcDbEntity
  8
1_ANYTOOL_1MMDEEP_LABELS_S
100
AcDbVertex
100
AcDb2dVertex
 10
176.0578007785844
 20
-25.2857142857174
 30
0.0
  0
VERTEX
  5
19E
330
ED
100
AcDbEntity
  8
1_ANYTOOL_1MMDEEP_LABELS_S
100
AcDbVertex
100
AcDb2dVertex
 10
175.7256579214415
 20
-24.63733258928829
 30
0.0
  0
VERTEX
  5
19F
330
ED
100
AcDbEntity
  8
1_ANYTOOL_1MMDEEP_LABELS_S
100
AcDbVertex
100
AcDb2dVertex
 10
175.4149436357272
 20
-23.98861607143067
 30
0.0
  0
VERTEX
  5
1A0
330
ED
100
AcDbEntity
  8
1_ANYTOOL_1MMDEEP_LABELS_S
100
AcDbVertex
100
AcDb2dVertex
 10
175.1256579214415
 20
-23.33956473214454
 30
0.0
  0
VERTEX
  5
1A1
330
ED
100
AcDbEntity
  8
1_ANYTOOL_1MMDEEP_LABELS_S
100
AcDbVertex
100
AcDb2dVertex
 10
174.8578007785843
 20
-22.6901785714299
 30
0.0
  0
VERTEX
  5
1A2
330
ED
100
AcDbEntity
  8
1_ANYTOOL_1MMDEEP_LABELS_S
100
AcDbVertex
100
AcDb2dVertex
 10
174.6113722071557
 20
-22.04045758928675
 30
0.0
  0
VERTEX
  5
1A3
330
ED
100
AcDbEntity
  8
1_ANYTOOL_1MMDEEP_LABELS_S
100
AcDbVertex
100
AcDb2dVertex
 10
174.3863722071557
 20
-21.39040178571508
 30
0.0
  0
VERTEX
  5
1A4
330
ED
100
AcDbEntity
  8
1_ANYTOOL_1MMDEEP_LABELS_S
100
AcDbVertex
100
AcDb2dVertex
 10
174.1828007785843
 20
-20.74001116071491
 30
0.0
  0
VERTEX
  5
1A5
330
ED
100
AcDbEntity
  8
1_ANYTOOL_1MMDEEP_LABELS_S
100
AcDbVertex
100
AcDb2dVertex
 10
174.0006579214414
 20
-20.08928571428623
 30
0.0
  0
VERTEX
  5
1A6
330
ED
100
AcDbEntity
  8
1_ANYTOOL_1MMDEEP_LABELS_S
100
AcDbVertex
100
AcDb2dVertex
 10
173.8399436357271
 20
-19.43822544642904
 30
0.0
  0
VERTEX
  5
1A7
330
ED
100
AcDbEntity
  8
1_ANYTOOL_1MMDEEP_LABELS_S
100
AcDbVertex
100
AcDb2dVertex
 10
173.7006579214414
 20
-18.78683035714334
 30
0.0
  0
VERTEX
  5
1A8
330
ED
100
AcDbEntity
  8
1_ANYTOOL_1MMDEEP_LABELS_S
100
AcDbVertex
100
AcDb2dVertex
 10
173.5828007785843
 20
-18.13510044642913
 30
0.0
  0
VERTEX
  5
1A9
330
ED
100
AcDbEntity
  8
1_ANYTOOL_1MMDEEP_LABELS_S
100
AcDbVertex
100
AcDb2dVertex
 10
173.4863722071557
 20
-17.48303571428642
 30
0.0
  0
VERTEX
  5
1AA
330
ED
100
AcDbEntity
  8
1_ANYTOOL_1MMDEEP_LABELS_S
100
AcDbVertex
100
AcDb2dVertex
 10
173.4113722071557
 20
-16.83063616071519
 30
0.0
  0
VERTEX
  5
1AB
330
ED
100
AcDbEntity
  8
1_ANYTOOL_1MMDEEP_LABELS_S
100
AcDbVertex
100
AcDb2dVertex
 10
173.3578007785842
 20
-16.17790178571545
 30
0.0
  0
VERTEX
  5
1AC
330
ED
100
AcDbEntity
  8
1_ANYTOOL_1MMDEEP_LABELS_S
100
AcDbVertex
100
AcDb2dVertex
 10
173.3256579214414
 20
-15.5248325892872
 30
0.0
  0
VERTEX
  5
1AD
330
ED
100
AcDbEntity
  8
1_ANYTOOL_1MMDEEP_LABELS_S
100
AcDbVertex
100
AcDb2dVertex
 10
173.3149436357271
 20
-14.87142857143044
 30
0.0
  0
VERTEX
  5
1AE
330
ED
100
AcDbEntity
  8
1_ANYTOOL_1MMDEEP_LABELS_S
100
AcDbVertex
100
AcDb2dVertex
 10
173.3261601535842
 20
-14.17801339285913
 30
0.0
  0
VERTEX
  5
1AF
330
ED
100
AcDbEntity
  8
1_ANYTOOL_1MMDEEP_LABELS_S
100
AcDbVertex
100
AcDb2dVertex
 10
173.3598097071556
 20
-13.49062500000207
 30
0.0
  0
VERTEX
  5
1B0
330
ED
100
AcDbEntity
  8
1_ANYTOOL_1MMDEEP_LABELS_S
100
AcDbVertex
100
AcDb2dVertex
 10
173.4158922964413
 20
-12.80926339285926
 30
0.0
  0
VERTEX
  5
1B1
330
ED
100
AcDbEntity
  8
1_ANYTOOL_1MMDEEP_LABELS_S
100
AcDbVertex
100
AcDb2dVertex
 10
173.4944079214413
 20
-12.13392857143072
 30
0.0
  0
VERTEX
  5
1B2
330
ED
100
AcDbEntity
  8
1_ANYTOOL_1MMDEEP_LABELS_S
100
AcDbVertex
100
AcDb2dVertex
 10
173.5953565821555
 20
-11.46462053571642
 30
0.0
  0
VERTEX
  5
1B3
330
ED
100
AcDbEntity
  8
1_ANYTOOL_1MMDEEP_LABELS_S
100
AcDbVertex
100
AcDb2dVertex
 10
173.718738278584
 20
-10.80133928571638
 30
0.0
  0
VERTEX
  5
1B4
330
ED
100
AcDbEntity
  8
1_ANYTOOL_1MMDEEP_LABELS_S
100
AcDbVertex
100
AcDb2dVertex
 10
173.8645530107268
 20
-10.1440848214306
 30
0.0
  0
VERTEX
  5
1B5
330
ED
100
AcDbEntity
  8
1_ANYTOOL_1MMDEEP_LABELS_S
100
AcDbVertex
100
AcDb2dVertex
 10
174.0328007785838
 20
-9.492857142859066
 30
0.0
  0
VERTEX
  5
1B6
330
ED
100
AcDbEntity
  8
1_ANYTOOL_1MMDEEP_LABELS_S
100
AcDbVertex
100
AcDb2dVertex
 10
174.2234815821551
 20
-8.84765625000179
 30
0.0
  0
VERTEX
  5
1B7
330
ED
100
AcDbEntity
  8
1_ANYTOOL_1MMDEEP_LABELS_S
100
AcDbVertex
100
AcDb2dVertex
 10
174.4365954214407
 20
-8.20848214285877
 30
0.0
  0
VERTEX
  5
1B8
330
ED
100
AcDbEntity
  8
1_ANYTOOL_1MMDEEP_LABELS_S
100
AcDbVertex
100
AcDb2dVertex
 10
174.6721422964405
 20
-7.575334821430005
 30
0.0
  0
VERTEX
  5
1B9
330
ED
100
AcDbEntity
  8
1_ANYTOOL_1MMDEEP_LABELS_S
100
AcDbVertex
100
AcDb2dVertex
 10
174.9301222071547
 20
-6.948214285715494
 30
0.0
  0
VERTEX
  5
1BA
330
ED
100
AcDbEntity
  8
1_ANYTOOL_1MMDEEP_LABELS_S
100
AcDbVertex
100
AcDb2dVertex
 10
175.2105351535831
 20
-6.327120535715238
 30
0.0
  0
VERTEX
  5
1BB
330
ED
100
AcDbEntity
  8
1_ANYTOOL_1MMDEEP_LABELS_S
100
AcDbVertex
100
AcDb2dVertex
 10
175.5133811357258
 20
-5.712053571429237
 30
0.0
  0
VERTEX
  5
1BC
330
ED
100
AcDbEntity
  8
1_ANYTOOL_1MMDEEP_LABELS_S
100
AcDbVertex
100
AcDb2dVertex
 10
175.8386601535827
 20
-5.103013392857491
 30
0.0
  0
VERTEX
  5
1BD
330
ED
100
AcDbEntity
  8
1_ANYTOOL_1MMDEEP_LABELS_S
100
AcDbVertex
100
AcDb2dVertex
 10
176.1863722071539
 20
-4.5
 30
0.0
  0
VERTEX
  5
1BE
330
ED
100
AcDbEntity
  8
1_ANYTOOL_1MMDEEP_LABELS_S
100
AcDbVertex
100
AcDb2dVertex
 10
176.3717795732254
 20
-4.202050781249859
 30
0.0
  0
VERTEX
  5
1BF
330
ED
100
AcDbEntity
  8
1_ANYTOOL_1MMDEEP_LABELS_S
100
AcDbVertex
100
AcDb2dVertex
 10
176.563715957154
 20
-3.913560267856866
 30
0.0
  0
VERTEX
  5
1C0
330
ED
100
AcDbEntity
  8
1_ANYTOOL_1MMDEEP_LABELS_S
100
AcDbVertex
100
AcDb2dVertex
 10
176.7621813589398
 20
-3.63452845982102
 30
0.0
  0
VERTEX
  5
1C1
330
ED
100
AcDbEntity
  8
1_ANYTOOL_1MMDEEP_LABELS_S
100
AcDbVertex
100
AcDb2dVertex
 10
176.9671757785828
 20
-3.364955357142321
 30
0.0
  0
VERTEX
  5
1C2
330
ED
100
AcDbEntity
  8
1_ANYTOOL_1MMDEEP_LABELS_S
100
AcDbVertex
100
AcDb2dVertex
 10
177.1786992160828
 20
-3.10484095982077
 30
0.0
  0
VERTEX
  5
1C3
330
ED
100
AcDbEntity
  8
1_ANYTOOL_1MMDEEP_LABELS_S
100
AcDbVertex
100
AcDb2dVertex
 10
177.39675167144
 20
-2.854185267856366
 30
0.0
  0
VERTEX
  5
1C4
330
ED
100
AcDbEntity
  8
1_ANYTOOL_1MMDEEP_LABELS_S
100
AcDbVertex
100
AcDb2dVertex
 10
177.6213331446544
 20
-2.612988281249109
 30
0.0
  0
VERTEX
  5
1C5
330
ED
100
AcDbEntity
  8
1_ANYTOOL_1MMDEEP_LABELS_S
100
AcDbVertex
100
AcDb2dVertex
 10
177.8524436357259
 20
-2.381249999999
 30
0.0
  0
VERTEX
  5
1C6
330
ED
100
AcDbEntity
  8
1_ANYTOOL_1MMDEEP_LABELS_S
100
AcDbVertex
100
AcDb2dVertex
 10
177.970447262958
 20
-2.268927873882875
 30
0.0
  0
VERTEX
  5
1C7
330
ED
100
AcDbEntity
  8
1_ANYTOOL_1MMDEEP_LABELS_S
100
AcDbVertex
100
AcDb2dVertex
 10
178.0900831446545
 20
-2.158970424106037
 30
0.0
  0
VERTEX
  5
1C8
330
ED
100
AcDbEntity
  8
1_ANYTOOL_1MMDEEP_LABELS_S
100
AcDbVertex
100
AcDb2dVertex
 10
178.2113512808153
 20
-2.051377650668487
 30
0.0
  0
VERTEX
  5
1C9
330
ED
100
AcDbEntity
  8
1_ANYTOOL_1MMDEEP_LABELS_S
100
AcDbVertex
100
AcDb2dVertex
 10
178.3342516714403
 20
-1.946149553570223
 30
0.0
  0
VERTEX
  5
1CA
330
ED
100
AcDbEntity
  8
1_ANYTOOL_1MMDEEP_LABELS_S
100
AcDbVertex
100
AcDb2dVertex
 10
178.4587843165296
 20
-1.843286132811246
 30
0.0
  0
VERTEX
  5
1CB
330
ED
100
AcDbEntity
  8
1_ANYTOOL_1MMDEEP_LABELS_S
100
AcDbVertex
100
AcDb2dVertex
 10
178.5849492160832
 20
-1.742787388391555
 30
0.0
  0
VERTEX
  5
1CC
330
ED
100
AcDbEntity
  8
1_ANYTOOL_1MMDEEP_LABELS_S
100
AcDbVertex
100
AcDb2dVertex
 10
178.7127463701011
 20
-1.644653320311152
 30
0.0
  0
VERTEX
  5
1CD
330
ED
100
AcDbEntity
  8
1_ANYTOOL_1MMDEEP_LABELS_S
100
AcDbVertex
100
AcDb2dVertex
 10
178.8421757785832
 20
-1.548883928570035
 30
0.0
  0
VERTEX
  5
1CE
330
ED
100
AcDbEntity
  8
1_ANYTOOL_1MMDEEP_LABELS_S
100
AcDbVertex
100
AcDb2dVertex
 10
178.9732374415297
 20
-1.455479213168205
 30
0.0
  0
VERTEX
  5
1CF
330
ED
100
AcDbEntity
  8
1_ANYTOOL_1MMDEEP_LABELS_S
100
AcDbVertex
100
AcDb2dVertex
 10
179.1059313589404
 20
-1.364439174105662
 30
0.0
  0
VERTEX
  5
1D0
330
ED
100
AcDbEntity
  8
1_ANYTOOL_1MMDEEP_LABELS_S
100
AcDbVertex
100
AcDb2dVertex
 10
179.2402575308154
 20
-1.275763811382406
 30
0.0
  0
VERTEX
  5
1D1
330
ED
100
AcDbEntity
  8
1_ANYTOOL_1MMDEEP_LABELS_S
100
AcDbVertex
100
AcDb2dVertex
 10
179.3762159571547
 20
-1.189453124998437
 30
0.0
  0
VERTEX
  5
1D2
330
ED
100
AcDbEntity
  8
1_ANYTOOL_1MMDEEP_LABELS_S
100
AcDbVertex
100
AcDb2dVertex
 10
179.5138066379583
 20
-1.105507114953754
 30
0.0
  0
VERTEX
  5
1D3
330
ED
100
AcDbEntity
  8
1_ANYTOOL_1MMDEEP_LABELS_S
100
AcDbVertex
100
AcDb2dVertex
 10
179.6530295732262
 20
-1.023925781248359
 30
0.0
  0
VERTEX
  5
1D4
330
ED
100
AcDbEntity
  8
1_ANYTOOL_1MMDEEP_LABELS_S
100
AcDbVertex
100
AcDb2dVertex
 10
179.7938847629584
 20
-0.9447091238822498
 30
0.0
  0
VERTEX
  5
1D5
330
ED
100
AcDbEntity
  8
1_ANYTOOL_1MMDEEP_LABELS_S
100
AcDbVertex
100
AcDb2dVertex
 10
179.9363722071548
 20
-0.8678571428554278
 30
0.0
  0
VERTEX
  5
1D6
330
ED
100
AcDbEntity
  8
1_ANYTOOL_1MMDEEP_LABELS_S
100
AcDbVertex
100
AcDb2dVertex
 10
180.0804919058156
 20
-0.7933698381678926
 30
0.0
  0
VERTEX
  5
1D7
330
ED
100
AcDbEntity
  8
1_ANYTOOL_1MMDEEP_LABELS_S
100
AcDbVertex
100
AcDb2dVertex
 10
180.2262438589406
 20
-0.7212472098196443
 30
0.0
  0
VERTEX
  5
1D8
330
ED
100
AcDbEntity
  8
1_ANYTOOL_1MMDEEP_LABELS_S
100
AcDbVertex
100
AcDb2dVertex
 10
180.5226445285834
 20
-0.5840959821410081
 30
0.0
  0
VERTEX
  5
1D9
330
ED
100
AcDbEntity
  8
1_ANYTOOL_1MMDEEP_LABELS_S
100
AcDbVertex
100
AcDb2dVertex
 10
180.8255742160835
 20
-0.4564034598195192
 30
0.0
  0
VERTEX
  5
1DA
330
ED
100
AcDbEntity
  8
1_ANYTOOL_1MMDEEP_LABELS_S
100
AcDbVertex
100
AcDb2dVertex
 10
181.1350329214407
 20
-0.3381696428551777
 30
0.0
  0
VERTEX
  5
1DB
330
ED
100
AcDbEntity
  8
1_ANYTOOL_1MMDEEP_LABELS_S
100
AcDbVertex
100
AcDb2dVertex
 10
181.451020644655
 20
-0.2293945312479835
 30
0.0
  0
VERTEX
  5
1DC
330
ED
100
AcDbEntity
  8
1_ANYTOOL_1MMDEEP_LABELS_S
100
AcDbVertex
100
AcDb2dVertex
 10
181.7735373857264
 20
-0.1300781249979366
 30
0.0
  0
VERTEX
  5
1DD
330
ED
100
AcDbEntity
  8
1_ANYTOOL_1MMDEEP_LABELS_S
100
AcDbVertex
100
AcDb2dVertex
 10
182.102583144655
 20
-0.040220424105037
 30
0.0
  0
VERTEX
  5
1DE
330
ED
100
AcDbEntity
  8
1_ANYTOOL_1MMDEEP_LABELS_S
100
AcDbVertex
100
AcDb2dVertex
 10
182.4381579214407
 20
0.0401785714307152
 30
0.0
  0
VERTEX
  5
1DF
330
ED
100
AcDbEntity
  8
1_ANYTOOL_1MMDEEP_LABELS_S
100
AcDbVertex
100
AcDb2dVertex
 10
182.7802617160836
 20
0.1111188616093202
 30
0.0
  0
VERTEX
  5
1E0
330
ED
100
AcDbEntity
  8
1_ANYTOOL_1MMDEEP_LABELS_S
100
AcDbVertex
100
AcDb2dVertex
 10
183.1288945285836
 20
0.1726004464307778
 30
0.0
  0
VERTEX
  5
1E1
330
ED
100
AcDbEntity
  8
1_ANYTOOL_1MMDEEP_LABELS_S
100
AcDbVertex
100
AcDb2dVertex
 10
183.4840563589408
 20
0.224623325895088
 30
0.0
  0
VERTEX
  5
1E2
330
ED
100
AcDbEntity
  8
1_ANYTOOL_1MMDEEP_LABELS_S
100
AcDbVertex
100
AcDb2dVertex
 10
183.8457472071551
 20
0.267187500002251
 30
0.0
  0
VERTEX
  5
1E3
330
ED
100
AcDbEntity
  8
1_ANYTOOL_1MMDEEP_LABELS_S
100
AcDbVertex
100
AcDb2dVertex
 10
184.2139670732265
 20
0.3002929687522666
 30
0.0
  0
VERTEX
  5
1E4
330
ED
100
AcDbEntity
  8
1_ANYTOOL_1MMDEEP_LABELS_S
100
AcDbVertex
100
AcDb2dVertex
 10
184.588715957155
 20
0.3239397321451349
 30
0.0
  0
VERTEX
  5
1E5
330
ED
100
AcDbEntity
  8
1_ANYTOOL_1MMDEEP_LABELS_S
100
AcDbVertex
100
AcDb2dVertex
 10
184.9699938589408
 20
0.3381277901808559
 30
0.0
  0
SEQEND
  5
1E6
330
ED
100
AcDbEntity
  8
1_ANYTOOL_1MMDEEP_LABELS_S
  0
LINE
  5
1E7
330
1F
100
AcDbEntity
  8
1_ANYTOOL_1MMDEEP_LABELS_S
100
AcDbLine
 10
169.2863722071561
 20
-16.11428571428405
 30
0.0
 11
160.5006579214387
 21
-16.19999999999709
 31
0.0
  0
POLYLINE
  5
1E8
330
1F
100
AcDbEntity
  8
1_ANYTOOL_1MMDEEP_LABELS_S
100
AcDb2dPolyline
 66
     1
 10
0.0
 20
0.0
 30
0.0
  0
VERTEX
  5
1E9
330
1E8
100
AcDbEntity
  8
1_ANYTOOL_1MMDEEP_LABELS_S
100
AcDbVertex
100
AcDb2dVertex
 10
124.9292293500112
 20
0.0
 30
0.0
  0
VERTEX
  5
1EA
330
1E8
100
AcDbEntity
  8
1_ANYTOOL_1MMDEEP_LABELS_S
100
AcDbVertex
100
AcDb2dVertex
 10
132.6435150642974
 20
-30.0
 30
0.0
  0
VERTEX
  5
1EB
330
1E8
100
AcDbEntity
  8
1_ANYTOOL_1MMDEEP_LABELS_S
100
AcDbVertex
100
AcDb2dVertex
 10
141.0863722071554
 20
-0.9000000000014552
 30
0.0
  0
VERTEX
  5
1EC
330
1E8
100
AcDbEntity
  8
1_ANYTOOL_1MMDEEP_LABELS_S
100
AcDbVertex
100
AcDb2dVertex
 10
149.5720864928699
 20
-30.0
 30
0.0
  0
VERTEX
  5
1ED
330
1E8
100
AcDbEntity
  8
1_ANYTOOL_1MMDEEP_LABELS_S
100
AcDbVertex
100
AcDb2dVertex
 10
157.0720864928699
 20
0.0
 30
0.0
  0
SEQEND
  5
1EE
330
1E8
100
AcDbEntity
  8
1_ANYTOOL_1MMDEEP_LABELS_S
  0
POLYLINE
  5
1F0
330
1F
100
AcDbEntity
  8
3_ANYTOOL_CUTTHROUGH_INSID
100
AcDb2dPolyline
 66
     1
 10
0.0
 20
0.0
 30
0.0
 70
     1
  0
VERTEX
  5
1F1
330
1F0
100
AcDbEntity
  8
3_ANYTOOL_CUTTHROUGH_INSID
100
AcDbVertex
100
AcDb2dVertex
 10
-18.24999913306237
 20
-39.11663305570983
 30
0.0
  0
VERTEX
  5
1F2
330
1F0
100
AcDbEntity
  8
3_ANYTOOL_CUTTHROUGH_INSID
100
AcDbVertex
100
AcDb2dVertex
 10
-18.24999913309148
 20
-46.70563305562246
 30
0.0
  0
VERTEX
  5
1F3
330
1F0
100
AcDbEntity
  8
3_ANYTOOL_CUTTHROUGH_INSID
100
AcDbVertex
100
AcDb2dVertex
 10
-24.24999913309148
 20
-46.70563305562246
 30
0.0
  0
VERTEX
  5
1F4
330
1F0
100
AcDbEntity
  8
3_ANYTOOL_CUTTHROUGH_INSID
100
AcDbVertex
100
AcDb2dVertex
 10
-24.24999913309148
 20
-59.20563305562246
 30
0.0
  0
VERTEX
  5
1F5
330
1F0
100
AcDbEntity
  8
3_ANYTOOL_CUTTHROUGH_INSID
100
AcDbVertex
100
AcDb2dVertex
 10
24.25000086697401
 20
-59.20563305566611
 30
0.0
  0
VERTEX
  5
1F6
330
1F0
100
AcDbEntity
  8
3_ANYTOOL_CUTTHROUGH_INSID
100
AcDbVertex
100
AcDb2dVertex
 10
24.25000086700311
 20
-46.70563305566611
 30
0.0
  0
VERTEX
  5
1F7
330
1F0
100
AcDbEntity
  8
3_ANYTOOL_CUTTHROUGH_INSID
100
AcDbVertex
100
AcDb2dVertex
 10
18.25000086700311
 20
-46.70563305565884
 30
0.0
  0
VERTEX
  5
1F8
330
1F0
100
AcDbEntity
  8
3_ANYTOOL_CUTTHROUGH_INSID
100
AcDbVertex
100
AcDb2dVertex
 10
18.25000086704677
 20
-39.11663305573893
 30
0.0
  0
VERTEX
  5
1F9
330
1F0
100
AcDbEntity
  8
3_ANYTOOL_CUTTHROUGH_INSID
100
AcDbVertex
100
AcDb2dVertex
 10
24.25000086704677
 20
-39.11663305574621
 30
0.0
  0
VERTEX
  5
1FA
330
1F0
100
AcDbEntity
  8
3_ANYTOOL_CUTTHROUGH_INSID
100
AcDbVertex
100
AcDb2dVertex
 10
24.25000086703949
 20
-26.61663305575348
 30
0.0
  0
VERTEX
  5
1FB
330
1F0
100
AcDbEntity
  8
3_ANYTOOL_CUTTHROUGH_INSID
100
AcDbVertex
100
AcDb2dVertex
 10
-24.24999913302599
 20
-26.6166330557171
 30
0.0
  0
VERTEX
  5
1FC
330
1F0
100
AcDbEntity
  8
3_ANYTOOL_CUTTHROUGH_INSID
100
AcDbVertex
100
AcDb2dVertex
 10
-24.24999913306237
 20
-39.11663305570983
 30
0.0
  0
SEQEND
  5
1FD
330
1F0
100
AcDbEntity
  8
3_ANYTOOL_CUTTHROUGH_INSID
  0
POLYLINE
  5
1FE
330
1F
100
AcDbEntity
  8
3_ANYTOOL_CUTTHROUGH_INSID
100
AcDb2dPolyline
 66
     1
 10
0.0
 20
0.0
 30
0.0
 70
     1
  0
VERTEX
  5
1FF
330
1FE
100
AcDbEntity
  8
3_ANYTOOL_CUTTHROUGH_INSID
100
AcDbVertex
100
AcDb2dVertex
 10
-18.24999913296779
 20
33.79436694413016
 30
0.0
  0
VERTEX
  5
200
330
1FE
100
AcDbEntity
  8
3_ANYTOOL_CUTTHROUGH_INSID
100
AcDbVertex
100
AcDb2dVertex
 10
-18.24999913296779
 20
23.29436694429751
 30
0.0
  0
VERTEX
  5
201
330
1FE
100
AcDbEntity
  8
3_ANYTOOL_CUTTHROUGH_INSID
100
AcDbVertex
100
AcDb2dVertex
 10
-24.24999913297506
 20
23.29436694429751
 30
0.0
  0
VERTEX
  5
202
330
1FE
100
AcDbEntity
  8
3_ANYTOOL_CUTTHROUGH_INSID
100
AcDbVertex
100
AcDb2dVertex
 10
-24.24999913298961
 20
10.79436694429751
 30
0.0
  0
VERTEX
  5
203
330
1FE
100
AcDbEntity
  8
3_ANYTOOL_CUTTHROUGH_INSID
100
AcDbVertex
100
AcDb2dVertex
 10
24.25000086709042
 20
10.79436694425385
 30
0.0
  0
VERTEX
  5
204
330
1FE
100
AcDbEntity
  8
3_ANYTOOL_CUTTHROUGH_INSID
100
AcDbVertex
100
AcDb2dVertex
 10
24.25000086711952
 20
23.29436694425385
 30
0.0
  0
VERTEX
  5
205
330
1FE
100
AcDbEntity
  8
3_ANYTOOL_CUTTHROUGH_INSID
100
AcDbVertex
100
AcDb2dVertex
 10
18.25000086711952
 20
23.29436694426113
 30
0.0
  0
VERTEX
  5
206
330
1FE
100
AcDbEntity
  8
3_ANYTOOL_CUTTHROUGH_INSID
100
AcDbVertex
100
AcDb2dVertex
 10
18.2500008671268
 20
33.79436694408651
 30
0.0
  0
VERTEX
  5
207
330
1FE
100
AcDbEntity
  8
3_ANYTOOL_CUTTHROUGH_INSID
100
AcDbVertex
100
AcDb2dVertex
 10
24.2500008671268
 20
33.79436694408651
 30
0.0
  0
VERTEX
  5
208
330
1FE
100
AcDbEntity
  8
3_ANYTOOL_CUTTHROUGH_INSID
100
AcDbVertex
100
AcDb2dVertex
 10
24.25000086711225
 20
46.29436694409378
 30
0.0
  0
VERTEX
  5
209
330
1FE
100
AcDbEntity
  8
3_ANYTOOL_CUTTHROUGH_INSID
100
AcDbVertex
100
AcDb2dVertex
 10
-24.24999913292413
 20
46.29436694413744
 30
0.0
  0
VERTEX
  5
20A
330
1FE
100
AcDbEntity
  8
3_ANYTOOL_CUTTHROUGH_INSID
100
AcDbVertex
100
AcDb2dVertex
 10
-24.24999913296779
 20
33.79436694413016
 30
0.0
  0
SEQEND
  5
20B
330
1FE
100
AcDbEntity
  8
3_ANYTOOL_CUTTHROUGH_INSID
  0
POLYLINE
  5
20D
330
1F
100
AcDbEntity
  8
4_ANYTOOL_CUTTHROUGH_OUTSI
100
AcDb2dPolyline
 66
     1
 10
0.0
 20
0.0
 30
0.0
 70
     1
  0
VERTEX
  5
20E
330
20D
100
AcDbEntity
  8
4_ANYTOOL_CUTTHROUGH_OUTSI
100
AcDbVertex
100
AcDb2dVertex
 10
535.154433043077
 20
-68.95563305652468
 30
0.0
  0
VERTEX
  5
20F
330
20D
100
AcDbEntity
  8
4_ANYTOOL_CUTTHROUGH_OUTSI
100
AcDbVertex
100
AcDb2dVertex
 10
535.154433043077
 20
-92.7056330575142
 30
0.0
  0
VERTEX
  5
210
330
20D
100
AcDbEntity
  8
4_ANYTOOL_CUTTHROUGH_OUTSI
100
AcDbVertex
100
AcDb2dVertex
 10
64.84555854139762
 20
-92.70563305674295
 30
0.0
  0
VERTEX
  5
211
330
20D
100
AcDbEntity
  8
4_ANYTOOL_CUTTHROUGH_OUTSI
100
AcDbVertex
100
AcDb2dVertex
 10
64.84555854139762
 20
-68.95563305674295
 30
0.0
 42
0.414213562351773
  0
VERTEX
  5
212
330
20D
100
AcDbEntity
  8
4_ANYTOOL_CUTTHROUGH_OUTSI
100
AcDbVertex
100
AcDb2dVertex
 10
64.59555854139762
 20
-68.70563305673932
 30
0.0
  0
VERTEX
  5
213
330
20D
100
AcDbEntity
  8
4_ANYTOOL_CUTTHROUGH_OUTSI
100
AcDbVertex
100
AcDb2dVertex
 10
52.59555854139762
 20
-68.70563305674295
 30
0.0
 42
0.4142135623560447
  0
VERTEX
  5
214
330
20D
100
AcDbEntity
  8
4_ANYTOOL_CUTTHROUGH_OUTSI
100
AcDbVertex
100
AcDb2dVertex
 10
52.34555854141217
 20
-68.95563305674295
 30
0.0
  0
VERTEX
  5
215
330
20D
100
AcDbEntity
  8
4_ANYTOOL_CUTTHROUGH_OUTSI
100
AcDbVertex
100
AcDb2dVertex
 10
52.34555854139762
 20
-74.70563305674295
 30
0.0
  0
VERTEX
  5
216
330
20D
100
AcDbEntity
  8
4_ANYTOOL_CUTTHROUGH_OUTSI
100
AcDbVertex
100
AcDb2dVertex
 10
42.90443304443761
 20
-74.70563305669202
 30
0.0
  0
VERTEX
  5
217
330
20D
100
AcDbEntity
  8
4_ANYTOOL_CUTTHROUGH_OUTSI
100
AcDbVertex
100
AcDb2dVertex
 10
42.90443304443761
 20
-68.95563305669202
 30
0.0
 42
0.4142135623688157
  0
VERTEX
  5
218
330
20D
100
AcDbEntity
  8
4_ANYTOOL_CUTTHROUGH_OUTSI
100
AcDbVertex
100
AcDb2dVertex
 10
42.65443304443761
 20
-68.70563305668838
 30
0.0
  0
VERTEX
  5
219
330
20D
100
AcDbEntity
  8
4_ANYTOOL_CUTTHROUGH_OUTSI
100
AcDbVertex
100
AcDb2dVertex
 10
30.65443304443761
 20
-68.70563305669202
 30
0.0
 42
0.4142135623475094
  0
VERTEX
  5
21A
330
20D
100
AcDbEntity
  8
4_ANYTOOL_CUTTHROUGH_OUTSI
100
AcDbVertex
100
AcDb2dVertex
 10
30.40443304444489
 20
-68.95563305669202
 30
0.0
  0
VERTEX
  5
21B
330
20D
100
AcDbEntity
  8
4_ANYTOOL_CUTTHROUGH_OUTSI
100
AcDbVertex
100
AcDb2dVertex
 10
30.40443304443761
 20
-92.70563305669202
 30
0.0
  0
VERTEX
  5
21C
330
20D
100
AcDbEntity
  8
4_ANYTOOL_CUTTHROUGH_OUTSI
100
AcDbVertex
100
AcDb2dVertex
 10
-30.40444145996298
 20
-92.70563305659016
 30
0.0
  0
VERTEX
  5
21D
330
20D
100
AcDbEntity
  8
4_ANYTOOL_CUTTHROUGH_OUTSI
100
AcDbVertex
100
AcDb2dVertex
 10
-30.40444145996298
 20
-68.95563305659016
 30
0.0
 42
0.4142135623688216
  0
VERTEX
  5
21E
330
20D
100
AcDbEntity
  8
4_ANYTOOL_CUTTHROUGH_OUTSI
100
AcDbVertex
100
AcDb2dVertex
 10
-30.65444145996298
 20
-68.70563305658652
 30
0.0
  0
VERTEX
  5
21F
330
20D
100
AcDbEntity
  8
4_ANYTOOL_CUTTHROUGH_OUTSI
100
AcDbVertex
100
AcDb2dVertex
 10
-42.65444145996298
 20
-68.70563305659016
 30
0.0
 42
0.414213562343268
  0
VERTEX
  5
220
330
20D
100
AcDbEntity
  8
4_ANYTOOL_CUTTHROUGH_OUTSI
100
AcDbVertex
100
AcDb2dVertex
 10
-42.90444145995207
 20
-68.95563305659016
 30
0.0
  0
VERTEX
  5
221
330
20D
100
AcDbEntity
  8
4_ANYTOOL_CUTTHROUGH_OUTSI
100
AcDbVertex
100
AcDb2dVertex
 10
-42.90444145996298
 20
-74.70563305659016
 30
0.0
  0
VERTEX
  5
222
330
20D
100
AcDbEntity
  8
4_ANYTOOL_CUTTHROUGH_OUTSI
100
AcDbVertex
100
AcDb2dVertex
 10
-52.34556695692299
 20
-74.70563305653923
 30
0.0
  0
VERTEX
  5
223
330
20D
100
AcDbEntity
  8
4_ANYTOOL_CUTTHROUGH_OUTSI
100
AcDbVertex
100
AcDb2dVertex
 10
-52.34556695692299
 20
-68.95563305653923
 30
0.0
 42
0.4142135623645667
  0
VERTEX
  5
224
330
20D
100
AcDbEntity
  8
4_ANYTOOL_CUTTHROUGH_OUTSI
100
AcDbVertex
100
AcDb2dVertex
 10
-52.59556695692299
 20
-68.70563305653195
 30
0.0
  0
VERTEX
  5
225
330
20D
100
AcDbEntity
  8
4_ANYTOOL_CUTTHROUGH_OUTSI
100
AcDbVertex
100
AcDb2dVertex
 10
-64.595566956923
 20
-68.70563305653923
 30
0.0
 42
0.4142135623475143
  0
VERTEX
  5
226
330
20D
100
AcDbEntity
  8
4_ANYTOOL_CUTTHROUGH_OUTSI
100
AcDbVertex
100
AcDb2dVertex
 10
-64.84556695691572
 20
-68.95563305653923
 30
0.0
  0
VERTEX
  5
227
330
20D
100
AcDbEntity
  8
4_ANYTOOL_CUTTHROUGH_OUTSI
100
AcDbVertex
100
AcDb2dVertex
 10
-64.845566956923
 20
-92.70563305653923
 30
0.0
  0
VERTEX
  5
228
330
20D
100
AcDbEntity
  8
4_ANYTOOL_CUTTHROUGH_OUTSI
100
AcDbVertex
100
AcDb2dVertex
 10
-535.1544414586097
 20
-92.70563305576798
 30
0.0
  0
VERTEX
  5
229
330
20D
100
AcDbEntity
  8
4_ANYTOOL_CUTTHROUGH_OUTSI
100
AcDbVertex
100
AcDb2dVertex
 10
-535.1544414586097
 20
-68.95563305576798
 30
0.0
 42
0.4142135623859526
  0
VERTEX
  5
22A
330
20D
100
AcDbEntity
  8
4_ANYTOOL_CUTTHROUGH_OUTSI
100
AcDbVertex
100
AcDb2dVertex
 10
-535.4044414586097
 20
-68.70563305576434
 30
0.0
  0
VERTEX
  5
22B
330
20D
100
AcDbEntity
  8
4_ANYTOOL_CUTTHROUGH_OUTSI
100
AcDbVertex
100
AcDb2dVertex
 10
-547.4044414586097
 20
-68.70563305576798
 30
0.0
 42
0.4142135623687817
  0
VERTEX
  5
22C
330
20D
100
AcDbEntity
  8
4_ANYTOOL_CUTTHROUGH_OUTSI
100
AcDbVertex
100
AcDb2dVertex
 10
-547.654441458606
 20
-68.95563305576798
 30
0.0
  0
VERTEX
  5
22D
330
20D
100
AcDbEntity
  8
4_ANYTOOL_CUTTHROUGH_OUTSI
100
AcDbVertex
100
AcDb2dVertex
 10
-547.6544414586097
 20
-74.70563305576798
 30
0.0
  0
VERTEX
  5
22E
330
20D
100
AcDbEntity
  8
4_ANYTOOL_CUTTHROUGH_OUTSI
100
AcDbVertex
100
AcDb2dVertex
 10
-563.7499991334043
 20
-74.70563305576798
 30
0.0
  0
VERTEX
  5
22F
330
20D
100
AcDbEntity
  8
4_ANYTOOL_CUTTHROUGH_OUTSI
100
AcDbVertex
100
AcDb2dVertex
 10
-563.7499991333971
 20
-71.20563305526593
 30
0.0
  0
VERTEX
  5
230
330
20D
100
AcDbEntity
  8
4_ANYTOOL_CUTTHROUGH_OUTSI
100
AcDbVertex
100
AcDb2dVertex
 10
-557.9999991333752
 20
-71.20563305526593
 30
0.0
 42
0.4142135623560855
  0
VERTEX
  5
231
330
20D
100
AcDbEntity
  8
4_ANYTOOL_CUTTHROUGH_OUTSI
100
AcDbVertex
100
AcDb2dVertex
 10
-557.7499991333752
 20
-70.95563305526593
 30
0.0
  0
VERTEX
  5
232
330
20D
100
AcDbEntity
  8
4_ANYTOOL_CUTTHROUGH_OUTSI
100
AcDbVertex
100
AcDb2dVertex
 10
-557.7499991333752
 20
-58.95563305527321
 30
0.0
 42
0.4142135623987866
  0
VERTEX
  5
233
330
20D
100
AcDbEntity
  8
4_ANYTOOL_CUTTHROUGH_OUTSI
100
AcDbVertex
100
AcDb2dVertex
 10
-557.9999991333752
 20
-58.70563305526593
 30
0.0
  0
VERTEX
  5
234
330
20D
100
AcDbEntity
  8
4_ANYTOOL_CUTTHROUGH_OUTSI
100
AcDbVertex
100
AcDb2dVertex
 10
-581.7499991334553
 20
-58.70563305525138
 30
0.0
  0
VERTEX
  5
235
330
20D
100
AcDbEntity
  8
4_ANYTOOL_CUTTHROUGH_OUTSI
100
AcDbVertex
100
AcDb2dVertex
 10
-581.7499991334262
 20
-27.1166330553533
 30
0.0
  0
VERTEX
  5
236
330
20D
100
AcDbEntity
  8
4_ANYTOOL_CUTTHROUGH_OUTSI
100
AcDbVertex
100
AcDb2dVertex
 10
-557.9999991333825
 20
-27.11663305536786
 30
0.0
 42
0.4142135623475937
  0
VERTEX
  5
237
330
20D
100
AcDbEntity
  8
4_ANYTOOL_CUTTHROUGH_OUTSI
100
AcDbVertex
100
AcDb2dVertex
 10
-557.7499991333752
 20
-26.86663305536786
 30
0.0
  0
VERTEX
  5
238
330
20D
100
AcDbEntity
  8
4_ANYTOOL_CUTTHROUGH_OUTSI
100
AcDbVertex
100
AcDb2dVertex
 10
-557.749999133368
 20
-14.86663305537513
 30
0.0
 42
0.4142135623687709
  0
VERTEX
  5
239
330
20D
100
AcDbEntity
  8
4_ANYTOOL_CUTTHROUGH_OUTSI
100
AcDbVertex
100
AcDb2dVertex
 10
-557.999999133368
 20
-14.61663305537149
 30
0.0
  0
VERTEX
  5
23A
330
20D
100
AcDbEntity
  8
4_ANYTOOL_CUTTHROUGH_OUTSI
100
AcDbVertex
100
AcDb2dVertex
 10
-563.749999133368
 20
-14.61663305536786
 30
0.0
  0
VERTEX
  5
23B
330
20D
100
AcDbEntity
  8
4_ANYTOOL_CUTTHROUGH_OUTSI
100
AcDbVertex
100
AcDb2dVertex
 10
-563.7499991333752
 20
-1.205633055433282
 30
0.0
  0
VERTEX
  5
23C
330
20D
100
AcDbEntity
  8
4_ANYTOOL_CUTTHROUGH_OUTSI
100
AcDbVertex
100
AcDb2dVertex
 10
-557.9999991333607
 20
-1.205633055440558
 30
0.0
 42
0.4142135623432334
  0
VERTEX
  5
23D
330
20D
100
AcDbEntity
  8
4_ANYTOOL_CUTTHROUGH_OUTSI
100
AcDbVertex
100
AcDb2dVertex
 10
-557.749999133357
 20
-0.9556330554405577
 30
0.0
  0
VERTEX
  5
23E
330
20D
100
AcDbEntity
  8
4_ANYTOOL_CUTTHROUGH_OUTSI
100
AcDbVertex
100
AcDb2dVertex
 10
-557.7499991333752
 20
11.04436694455944
 30
0.0
 42
0.4142135623687709
  0
VERTEX
  5
23F
330
20D
100
AcDbEntity
  8
4_ANYTOOL_CUTTHROUGH_OUTSI
100
AcDbVertex
100
AcDb2dVertex
 10
-557.9999991333752
 20
11.29436694456308
 30
0.0
  0
VERTEX
  5
240
330
20D
100
AcDbEntity
  8
4_ANYTOOL_CUTTHROUGH_OUTSI
100
AcDbVertex
100
AcDb2dVertex
 10
-581.7499991334334
 20
11.29436694458127
 30
0.0
  0
VERTEX
  5
241
330
20D
100
AcDbEntity
  8
4_ANYTOOL_CUTTHROUGH_OUTSI
100
AcDbVertex
100
AcDb2dVertex
 10
-581.7499991333534
 20
45.79436694450123
 30
0.0
  0
VERTEX
  5
242
330
20D
100
AcDbEntity
  8
4_ANYTOOL_CUTTHROUGH_OUTSI
100
AcDbVertex
100
AcDb2dVertex
 10
-557.9999991333534
 20
45.79436694448668
 30
0.0
 42
0.4142135623900495
  0
VERTEX
  5
243
330
20D
100
AcDbEntity
  8
4_ANYTOOL_CUTTHROUGH_OUTSI
100
AcDbVertex
100
AcDb2dVertex
 10
-557.7499991333534
 20
46.04436694448668
 30
0.0
  0
VERTEX
  5
244
330
20D
100
AcDbEntity
  8
4_ANYTOOL_CUTTHROUGH_OUTSI
100
AcDbVertex
100
AcDb2dVertex
 10
-557.7499991333461
 20
58.04436694448668
 30
0.0
 42
0.4142135622921229
  0
VERTEX
  5
245
330
20D
100
AcDbEntity
  8
4_ANYTOOL_CUTTHROUGH_OUTSI
100
AcDbVertex
100
AcDb2dVertex
 10
-557.9999991333461
 20
58.29436694448304
 30
0.0
  0
VERTEX
  5
246
330
20D
100
AcDbEntity
  8
4_ANYTOOL_CUTTHROUGH_OUTSI
100
AcDbVertex
100
AcDb2dVertex
 10
-563.7499991333461
 20
58.29436694448668
 30
0.0
  0
VERTEX
  5
247
330
20D
100
AcDbEntity
  8
4_ANYTOOL_CUTTHROUGH_OUTSI
100
AcDbVertex
100
AcDb2dVertex
 10
-563.7499991333752
 20
74.79436694434844
 30
0.0
  0
VERTEX
  5
248
330
20D
100
AcDbEntity
  8
4_ANYTOOL_CUTTHROUGH_OUTSI
100
AcDbVertex
100
AcDb2dVertex
 10
-547.6544414586097
 20
74.79436694434844
 30
0.0
  0
VERTEX
  5
249
330
20D
100
AcDbEntity
  8
4_ANYTOOL_CUTTHROUGH_OUTSI
100
AcDbVertex
100
AcDb2dVertex
 10
-547.6544414586097
 20
69.04436694434844
 30
0.0
 42
0.4142135623944103
  0
VERTEX
  5
24A
330
20D
100
AcDbEntity
  8
4_ANYTOOL_CUTTHROUGH_OUTSI
100
AcDbVertex
100
AcDb2dVertex
 10
-547.4044414586097
 20
68.79436694435208
 30
0.0
  0
VERTEX
  5
24B
330
20D
100
AcDbEntity
  8
4_ANYTOOL_CUTTHROUGH_OUTSI
100
AcDbVertex
100
AcDb2dVertex
 10
-535.4044414586097
 20
68.79436694434844
 30
0.0
 42
0.4142135623943436
  0
VERTEX
  5
24C
330
20D
100
AcDbEntity
  8
4_ANYTOOL_CUTTHROUGH_OUTSI
100
AcDbVertex
100
AcDb2dVertex
 10
-535.154441458606
 20
69.04436694434844
 30
0.0
  0
VERTEX
  5
24D
330
20D
100
AcDbEntity
  8
4_ANYTOOL_CUTTHROUGH_OUTSI
100
AcDbVertex
100
AcDb2dVertex
 10
-535.1544414586097
 20
92.79436694434844
 30
0.0
  0
VERTEX
  5
24E
330
20D
100
AcDbEntity
  8
4_ANYTOOL_CUTTHROUGH_OUTSI
100
AcDbVertex
100
AcDb2dVertex
 10
-64.845566956923
 20
92.79436694439937
 30
0.0
  0
VERTEX
  5
24F
330
20D
100
AcDbEntity
  8
4_ANYTOOL_CUTTHROUGH_OUTSI
100
AcDbVertex
100
AcDb2dVertex
 10
-64.845566956923
 20
69.04436694511969
 30
0.0
 42
0.4142135623560464
  0
VERTEX
  5
250
330
20D
100
AcDbEntity
  8
4_ANYTOOL_CUTTHROUGH_OUTSI
100
AcDbVertex
100
AcDb2dVertex
 10
-64.595566956923
 20
68.79436694511969
 30
0.0
  0
VERTEX
  5
251
330
20D
100
AcDbEntity
  8
4_ANYTOOL_CUTTHROUGH_OUTSI
100
AcDbVertex
100
AcDb2dVertex
 10
-52.59556695692299
 20
68.79436694511969
 30
0.0
 42
0.4142135623603183
  0
VERTEX
  5
252
330
20D
100
AcDbEntity
  8
4_ANYTOOL_CUTTHROUGH_OUTSI
100
AcDbVertex
100
AcDb2dVertex
 10
-52.34556695691936
 20
69.04436694511969
 30
0.0
  0
VERTEX
  5
253
330
20D
100
AcDbEntity
  8
4_ANYTOOL_CUTTHROUGH_OUTSI
100
AcDbVertex
100
AcDb2dVertex
 10
-52.34556695692299
 20
74.79436694511969
 30
0.0
  0
VERTEX
  5
254
330
20D
100
AcDbEntity
  8
4_ANYTOOL_CUTTHROUGH_OUTSI
100
AcDbVertex
100
AcDb2dVertex
 10
-42.90444145996298
 20
74.79436694517062
 30
0.0
  0
VERTEX
  5
255
330
20D
100
AcDbEntity
  8
4_ANYTOOL_CUTTHROUGH_OUTSI
100
AcDbVertex
100
AcDb2dVertex
 10
-42.90444145996298
 20
69.04436694517062
 30
0.0
 42
0.4142135623816252
  0
VERTEX
  5
256
330
20D
100
AcDbEntity
  8
4_ANYTOOL_CUTTHROUGH_OUTSI
100
AcDbVertex
100
AcDb2dVertex
 10
-42.65444145996298
 20
68.79436694516335
 30
0.0
  0
VERTEX
  5
257
330
20D
100
AcDbEntity
  8
4_ANYTOOL_CUTTHROUGH_OUTSI
100
AcDbVertex
100
AcDb2dVertex
 10
-30.65444145996298
 20
68.79436694517062
 30
0.0
 42
0.4142135623859
  0
VERTEX
  5
258
330
20D
100
AcDbEntity
  8
4_ANYTOOL_CUTTHROUGH_OUTSI
100
AcDbVertex
100
AcDb2dVertex
 10
-30.40444145996662
 20
69.04436694517062
 30
0.0
  0
VERTEX
  5
259
330
20D
100
AcDbEntity
  8
4_ANYTOOL_CUTTHROUGH_OUTSI
100
AcDbVertex
100
AcDb2dVertex
 10
-30.40444145996298
 20
92.79436694439937
 30
0.0
  0
VERTEX
  5
25A
330
20D
100
AcDbEntity
  8
4_ANYTOOL_CUTTHROUGH_OUTSI
100
AcDbVertex
100
AcDb2dVertex
 10
30.40443304443761
 20
92.79436694440665
 30
0.0
  0
VERTEX
  5
25B
330
20D
100
AcDbEntity
  8
4_ANYTOOL_CUTTHROUGH_OUTSI
100
AcDbVertex
100
AcDb2dVertex
 10
30.40443304443761
 20
69.04436694527249
 30
0.0
 42
0.414213562377349
  0
VERTEX
  5
25C
330
20D
100
AcDbEntity
  8
4_ANYTOOL_CUTTHROUGH_OUTSI
100
AcDbVertex
100
AcDb2dVertex
 10
30.65443304443761
 20
68.79436694527612
 30
0.0
  0
VERTEX
  5
25D
330
20D
100
AcDbEntity
  8
4_ANYTOOL_CUTTHROUGH_OUTSI
100
AcDbVertex
100
AcDb2dVertex
 10
42.65443304443761
 20
68.79436694527249
 30
0.0
 42
0.4142135623986806
  0
VERTEX
  5
25E
330
20D
100
AcDbEntity
  8
4_ANYTOOL_CUTTHROUGH_OUTSI
100
AcDbVertex
100
AcDb2dVertex
 10
42.90443304444489
 20
69.04436694527249
 30
0.0
  0
VERTEX
  5
25F
330
20D
100
AcDbEntity
  8
4_ANYTOOL_CUTTHROUGH_OUTSI
100
AcDbVertex
100
AcDb2dVertex
 10
42.90443304443761
 20
74.79436694527249
 30
0.0
  0
VERTEX
  5
260
330
20D
100
AcDbEntity
  8
4_ANYTOOL_CUTTHROUGH_OUTSI
100
AcDbVertex
100
AcDb2dVertex
 10
52.34555854139762
 20
74.79436694532342
 30
0.0
  0
VERTEX
  5
261
330
20D
100
AcDbEntity
  8
4_ANYTOOL_CUTTHROUGH_OUTSI
100
AcDbVertex
100
AcDb2dVertex
 10
52.34555854139762
 20
69.04436694532342
 30
0.0
 42
0.414213562373095
  0
VERTEX
  5
262
330
20D
100
AcDbEntity
  8
4_ANYTOOL_CUTTHROUGH_OUTSI
100
AcDbVertex
100
AcDb2dVertex
 10
52.59555854139762
 20
68.79436694532342
 30
0.0
  0
VERTEX
  5
263
330
20D
100
AcDbEntity
  8
4_ANYTOOL_CUTTHROUGH_OUTSI
100
AcDbVertex
100
AcDb2dVertex
 10
64.59555854139762
 20
68.79436694532342
 30
0.0
 42
0.4142135623773529
  0
VERTEX
  5
264
330
20D
100
AcDbEntity
  8
4_ANYTOOL_CUTTHROUGH_OUTSI
100
AcDbVertex
100
AcDb2dVertex
 10
64.84555854140126
 20
69.04436694532342
 30
0.0
  0
VERTEX
  5
265
330
20D
100
AcDbEntity
  8
4_ANYTOOL_CUTTHROUGH_OUTSI
100
AcDbVertex
100
AcDb2dVertex
 10
64.84555854139762
 20
92.79436694440665
 30
0.0
  0
VERTEX
  5
266
330
20D
100
AcDbEntity
  8
4_ANYTOOL_CUTTHROUGH_OUTSI
100
AcDbVertex
100
AcDb2dVertex
 10
535.154433043077
 20
92.79436694396281
 30
0.0
  0
VERTEX
  5
267
330
20D
100
AcDbEntity
  8
4_ANYTOOL_CUTTHROUGH_OUTSI
100
AcDbVertex
100
AcDb2dVertex
 10
535.154433043077
 20
69.04436694510514
 30
0.0
 42
0.4142135623433017
  0
VERTEX
  5
268
330
20D
100
AcDbEntity
  8
4_ANYTOOL_CUTTHROUGH_OUTSI
100
AcDbVertex
100
AcDb2dVertex
 10
535.404433043077
 20
68.79436694510878
 30
0.0
  0
VERTEX
  5
269
330
20D
100
AcDbEntity
  8
4_ANYTOOL_CUTTHROUGH_OUTSI
100
AcDbVertex
100
AcDb2dVertex
 10
547.404433043077
 20
68.79436694510514
 30
0.0
 42
0.4142135623475819
  0
VERTEX
  5
26A
330
20D
100
AcDbEntity
  8
4_ANYTOOL_CUTTHROUGH_OUTSI
100
AcDbVertex
100
AcDb2dVertex
 10
547.6544330430843
 20
69.04436694510514
 30
0.0
  0
VERTEX
  5
26B
330
20D
100
AcDbEntity
  8
4_ANYTOOL_CUTTHROUGH_OUTSI
100
AcDbVertex
100
AcDb2dVertex
 10
547.654433043077
 20
74.79436694510514
 30
0.0
  0
VERTEX
  5
26C
330
20D
100
AcDbEntity
  8
4_ANYTOOL_CUTTHROUGH_OUTSI
100
AcDbVertex
100
AcDb2dVertex
 10
563.7500008681818
 20
74.79436694515607
 30
0.0
  0
VERTEX
  5
26D
330
20D
100
AcDbEntity
  8
4_ANYTOOL_CUTTHROUGH_OUTSI
100
AcDbVertex
100
AcDb2dVertex
 10
563.7500008681964
 20
58.29436694285687
 30
0.0
  0
VERTEX
  5
26E
330
20D
100
AcDbEntity
  8
4_ANYTOOL_CUTTHROUGH_OUTSI
100
AcDbVertex
100
AcDb2dVertex
 10
558.0000008681964
 20
58.29436694285687
 30
0.0
 42
0.4142135623900495
  0
VERTEX
  5
26F
330
20D
100
AcDbEntity
  8
4_ANYTOOL_CUTTHROUGH_OUTSI
100
AcDbVertex
100
AcDb2dVertex
 10
557.7500008681964
 20
58.04436694285687
 30
0.0
  0
VERTEX
  5
270
330
20D
100
AcDbEntity
  8
4_ANYTOOL_CUTTHROUGH_OUTSI
100
AcDbVertex
100
AcDb2dVertex
 10
557.7500008681964
 20
46.04436694285687
 30
0.0
 42
0.4142135624285119
  0
VERTEX
  5
271
330
20D
100
AcDbEntity
  8
4_ANYTOOL_CUTTHROUGH_OUTSI
100
AcDbVertex
100
AcDb2dVertex
 10
558.0000008681964
 20
45.79436694286051
 30
0.0
  0
VERTEX
  5
272
330
20D
100
AcDbEntity
  8
4_ANYTOOL_CUTTHROUGH_OUTSI
100
AcDbVertex
100
AcDb2dVertex
 10
581.7500008682109
 20
45.79436694284959
 30
0.0
  0
VERTEX
  5
273
330
20D
100
AcDbEntity
  8
4_ANYTOOL_CUTTHROUGH_OUTSI
100
AcDbVertex
100
AcDb2dVertex
 10
581.7500008682618
 20
11.29436694292963
 30
0.0
  0
VERTEX
  5
274
330
20D
100
AcDbEntity
  8
4_ANYTOOL_CUTTHROUGH_OUTSI
100
AcDbVertex
100
AcDb2dVertex
 10
558.0000008681745
 20
11.2943669429369
 30
0.0
 42
0.4142135623348176
  0
VERTEX
  5
275
330
20D
100
AcDbEntity
  8
4_ANYTOOL_CUTTHROUGH_OUTSI
100
AcDbVertex
100
AcDb2dVertex
 10
557.7500008681782
 20
11.0443669429369
 30
0.0
  0
VERTEX
  5
276
330
20D
100
AcDbEntity
  8
4_ANYTOOL_CUTTHROUGH_OUTSI
100
AcDbVertex
100
AcDb2dVertex
 10
557.7500008681818
 20
-0.9556330570630962
 30
0.0
 42
0.4142135623687722
  0
VERTEX
  5
277
330
20D
100
AcDbEntity
  8
4_ANYTOOL_CUTTHROUGH_OUTSI
100
AcDbVertex
100
AcDb2dVertex
 10
558.0000008681818
 20
-1.205633057066734
 30
0.0
  0
VERTEX
  5
278
330
20D
100
AcDbEntity
  8
4_ANYTOOL_CUTTHROUGH_OUTSI
100
AcDbVertex
100
AcDb2dVertex
 10
563.7500008681818
 20
-1.205633057063096
 30
0.0
  0
VERTEX
  5
279
330
20D
100
AcDbEntity
  8
4_ANYTOOL_CUTTHROUGH_OUTSI
100
AcDbVertex
100
AcDb2dVertex
 10
563.7500008681818
 20
-14.61663305699767
 30
0.0
  0
VERTEX
  5
27A
330
20D
100
AcDbEntity
  8
4_ANYTOOL_CUTTHROUGH_OUTSI
100
AcDbVertex
100
AcDb2dVertex
 10
558.0000008681818
 20
-14.61663305699767
 30
0.0
 42
0.4142135624286055
  0
VERTEX
  5
27B
330
20D
100
AcDbEntity
  8
4_ANYTOOL_CUTTHROUGH_OUTSI
100
AcDbVertex
100
AcDb2dVertex
 10
557.7500008681927
 20
-14.86663305699767
 30
0.0
  0
VERTEX
  5
27C
330
20D
100
AcDbEntity
  8
4_ANYTOOL_CUTTHROUGH_OUTSI
100
AcDbVertex
100
AcDb2dVertex
 10
557.7500008681745
 20
-26.86663305699767
 30
0.0
 42
0.4142135624114139
  0
VERTEX
  5
27D
330
20D
100
AcDbEntity
  8
4_ANYTOOL_CUTTHROUGH_OUTSI
100
AcDbVertex
100
AcDb2dVertex
 10
558.0000008681745
 20
-27.11663305699403
 30
0.0
  0
VERTEX
  5
27E
330
20D
100
AcDbEntity
  8
4_ANYTOOL_CUTTHROUGH_OUTSI
100
AcDbVertex
100
AcDb2dVertex
 10
581.7500008682546
 20
-27.11663305700495
 30
0.0
  0
VERTEX
  5
27F
330
20D
100
AcDbEntity
  8
4_ANYTOOL_CUTTHROUGH_OUTSI
100
AcDbVertex
100
AcDb2dVertex
 10
581.7500008682473
 20
-58.7056330569103
 30
0.0
  0
VERTEX
  5
280
330
20D
100
AcDbEntity
  8
4_ANYTOOL_CUTTHROUGH_OUTSI
100
AcDbVertex
100
AcDb2dVertex
 10
558.0000008681527
 20
-58.70563305689575
 30
0.0
 42
0.4142135623772812
  0
VERTEX
  5
281
330
20D
100
AcDbEntity
  8
4_ANYTOOL_CUTTHROUGH_OUTSI
100
AcDbVertex
100
AcDb2dVertex
 10
557.7500008681491
 20
-58.95563305689575
 30
0.0
  0
VERTEX
  5
282
330
20D
100
AcDbEntity
  8
4_ANYTOOL_CUTTHROUGH_OUTSI
100
AcDbVertex
100
AcDb2dVertex
 10
557.7500008681673
 20
-70.95563305689575
 30
0.0
 42
0.414213562321855
  0
VERTEX
  5
283
330
20D
100
AcDbEntity
  8
4_ANYTOOL_CUTTHROUGH_OUTSI
100
AcDbVertex
100
AcDb2dVertex
 10
558.0000008681673
 20
-71.20563305689575
 30
0.0
  0
VERTEX
  5
284
330
20D
100
AcDbEntity
  8
4_ANYTOOL_CUTTHROUGH_OUTSI
100
AcDbVertex
100
AcDb2dVertex
 10
563.7500008681673
 20
-71.20563305689575
 30
0.0
  0
VERTEX
  5
285
330
20D
100
AcDbEntity
  8
4_ANYTOOL_CUTTHROUGH_OUTSI
100
AcDbVertex
100
AcDb2dVertex
 10
563.75000086816
 20
-74.70563305658288
 30
0.0
  0
VERTEX
  5
286
330
20D
100
AcDbEntity
  8
4_ANYTOOL_CUTTHROUGH_OUTSI
100
AcDbVertex
100
AcDb2dVertex
 10
547.654433043077
 20
-74.70563305652468
 30
0.0
  0
VERTEX
  5
287
330
20D
100
AcDbEntity
  8
4_ANYTOOL_CUTTHROUGH_OUTSI
100
AcDbVertex
100
AcDb2dVertex
 10
547.654433043077
 20
-68.95563305652468
 30
0.0
 42
0.4142135623773048
  0
VERTEX
  5
288
330
20D
100
AcDbEntity
  8
4_ANYTOOL_CUTTHROUGH_OUTSI
100
AcDbVertex
100
AcDb2dVertex
 10
547.404433043077
 20
-68.70563305652831
 30
0.0
  0
VERTEX
  5
289
330
20D
100
AcDbEntity
  8
4_ANYTOOL_CUTTHROUGH_OUTSI
100
AcDbVertex
100
AcDb2dVertex
 10
535.404433043077
 20
-68.70563305652468
 30
0.0
 42
0.4142135623859399
  0
SEQEND
  5
28A
330
20D
100
AcDbEntity
  8
4_ANYTOOL_CUTTHROUGH_OUTSI
  0
ENDSEC
  0
SECTION
  2
OBJECTS
  0
DICTIONARY
  5
C
330
0
100
AcDbDictionary
  3
ACAD_GROUP
350
D
  3
ACAD_LAYOUT
350
1A
  3
ACAD_MATERIAL
350
43
  3
ACAD_MLEADERSTYLE
350
5B
  3
ACAD_MLINESTYLE
350
17
  3
ACAD_PLOTSETTINGS
350
19
  3
ACAD_SCALELIST
350
47
  3
ACAD_VISUALSTYLE
350
2A
  3
ACDBHEADERROUNDTRIPXREC
350
28B
  3
ACDBVARIABLEDICTIONARY
350
2AC
  3
DWGPROPS
350
2B3
  0
DICTIONARY
  5
2B4
330
8
100
AcDbDictionary
280
     1
  3
ACAD_XREC_ROUNDTRIP
360
2B5
  0
DICTIONARY
  5
D
102
{ACAD_REACTORS
330
C
102
}
330
C
100
AcDbDictionary
  0
DICTIONARY
  5
1A
102
{ACAD_REACTORS
330
C
102
}
330
C
100
AcDbDictionary
  0
DICTIONARY
  5
43
102
{ACAD_REACTORS
330
C
102
}
330
C
100
AcDbDictionary
  3
BYBLOCK
350
45
  3
BYLAYER
350
44
  3
GLOBAL
350
46
  0
DICTIONARY
  5
5B
102
{ACAD_REACTORS
330
C
102
}
330
C
100
AcDbDictionary
  3
STANDARD
350
5C
  0
DICTIONARY
  5
17
102
{ACAD_REACTORS
330
C
102
}
330
C
100
AcDbDictionary
  3
STANDARD
350
18
  0
DICTIONARY
  5
19
102
{ACAD_REACTORS
330
C
102
}
330
C
100
AcDbDictionary
  0
DICTIONARY
  5
47
102
{ACAD_REACTORS
330
C
102
}
330
C
100
AcDbDictionary
  3
A0
350
48
  3
A1
350
49
  3
A2
350
4A
  3
A3
350
4B
  3
A4
350
4C
  3
A5
350
4D
  3
A6
350
4E
  3
A7
350
4F
  3
A8
350
50
  3
A9
350
51
  3
B1
350
52
  3
B2
350
53
  3
B3
350
54
  3
B4
350
55
  3
B5
350
56
  3
B6
350
57
  3
B7
350
58
  0
DICTIONARY
  5
2A
102
{ACAD_REACTORS
330
C
102
}
330
C
100
AcDbDictionary
  3
2DWIREFRAME
350
2F
  3
BASIC
350
32
  3
BRIGHTEN
350
36
  3
COLORCHANGE
350
3A
  3
CONCEPTUAL
350
34
  3
DIM
350
35
  3
EDGECOLOROFF
350
3D
  3
FACEPATTERN
350
39
  3
FLAT
350
2B
  3
FLATWITHEDGES
350
2C
  3
GOURAUD
350
2D
  3
GOURAUDWITHEDGES
350
2E
  3
HIDDEN
350
31
  3
JITTEROFF
350
3B
  3
LINEPATTERN
350
38
  3
OVERHANGOFF
350
3C
  3
REALISTIC
350
33
  3
SHADED
350
42
  3
SHADED_WITH_EDGES
350
41
  3
SHADES_OF_GRAY
350
3E
  3
SKETCHY
350
3F
  3
THICKEN
350
37
  3
WIREFRAME
350
30
  3
X-RAY
350
40
  0
DICTIONARY
  5
28B
102
{ACAD_REACTORS
330
C
102
}
330
C
100
AcDbDictionary
  3
CEPSNID
350
295
  3
CEPSNTYPE
350
294
  3
DIMSTYLEDATA
350
2AB
  3
FINGERPRINTGUID
350
296
  3
HYPERLINKBASE
350
28E
  3
INSUNITS
350
293
  3
LAYOUTDICT
350
290
  3
LWETCUNION
350
292
  3
PLOTSETDICT
350
291
  3
PSVPSCALE
350
298
  3
PUCSBASE
350
29B
  3
PUCSORGBACK
350
2A1
  3
PUCSORGBOTTOM
350
29D
  3
PUCSORGFRONT
350
2A0
  3
PUCSORGLEFT
350
29E
  3
PUCSORGRIGHT
350
29F
  3
PUCSORGTOP
350
29C
  3
PUCSORTHOREF
350
299
  3
PUCSORTHOVIEW
350
29A
  3
STYLESHEET
350
28F
  3
TSTACKALIGN
350
28C
  3
TSTACKSIZE
350
28D
  3
UCSBASE
350
2A4
  3
UCSORGBACK
350
2AA
  3
UCSORGBOTTOM
350
2A6
  3
UCSORGFRONT
350
2A9
  3
UCSORGLEFT
350
2A7
  3
UCSORGRIGHT
350
2A8
  3
UCSORGTOP
350
2A5
  3
UCSORTHOREF
350
2A2
  3
UCSORTHOVIEW
350
2A3
  3
VERSIONGUID
350
297
  0
DICTIONARY
  5
2AC
102
{ACAD_REACTORS
330
C
102
}
330
C
100
AcDbDictionary
  3
CANNOSCALE
350
2B6
  3
CMLEADERSTYLE
350
2AE
  3
CTABLESTYLE
350
2AD
  3
DIMASSOC
350
2B1
  3
HIDETEXT
350
2B2
  3
MSLTSCALE
350
2B7
  0
XRECORD
  5
2B3
102
{ACAD_REACTORS
330
C
102
}
330
C
100
AcDbXrecord
  1
DWGPROPS COOKIE
  2

  3

  4

  6

  7

  8
clayt
  9

300
=
301
=
302
=
303
=
304
=
305
=
306
=
307
=
308
=
309
=
 40
0.0
 41
2461243.621356597
 42
2461243.621356725
  1

 90
        0
  0
XRECORD
  5
2B5
102
{ACAD_REACTORS
330
2B4
102
}
330
2B4
100
AcDbXrecord
102
VTR_0.000_0.000_1.000_1.000_VISUALSTYLE
340
2F
102
VTR_0.000_0.000_1.000_1.000_GRIDDISPLAY
 70
     3
102
VTR_0.000_0.000_1.000_1.000_GRIDMAJOR
 70
     5
102
VTR_0.000_0.000_1.000_1.000_DEFAULTLIGHTING
280
     1
102
VTR_0.000_0.000_1.000_1.000_DEFAULTLIGHTINGTYPE
 70
     1
102
VTR_0.000_0.000_1.000_1.000_BRIGHTNESS
141
0.0
102
VTR_0.000_0.000_1.000_1.000_CONTRAST
142
0.0
  0
MATERIAL
  5
45
102
{ACAD_REACTORS
330
43
102
}
102
{ACAD_XDICTIONARY
360
2BA
102
}
330
43
100
AcDbMaterial
  1
BYBLOCK
  0
MATERIAL
  5
44
102
{ACAD_REACTORS
330
43
102
}
102
{ACAD_XDICTIONARY
360
2B8
102
}
330
43
100
AcDbMaterial
  1
BYLAYER
  0
MATERIAL
  5
46
102
{ACAD_REACTORS
330
43
102
}
102
{ACAD_XDICTIONARY
360
2BC
102
}
330
43
100
AcDbMaterial
  1
GLOBAL
  0
ACAD_PROXY_OBJECT
  5
5C
102
{ACAD_REACTORS
330
5B
102
}
330
5B
100
AcDbProxyObject
 90
      499
 91
      505
 93
      610
310
40901902A4063FBFFFFFE056BD1B81E855B9FC0AD7A3703D0AD73F4214DD185B99185C9900AD7A3703D0AC73F90141901A02B5E8DC0F42B1CFC02B5E8DC0F42B1CFE5764000000000000300FC0
340
14
340
0
340
11
340
0
 94
        0
1001
ACAD_MLEADERVER
1070
     2
  0
MLINESTYLE
  5
18
102
{ACAD_REACTORS
330
17
102
}
330
17
100
AcDbMlineStyle
  2
Standard
 70
     0
  3

 62
   256
 51
90.0
 52
90.0
 71
     2
 49
0.5
 62
   256
  6
BYLAYER
 49
-0.5
 62
   256
  6
BYLAYER
  0
ACAD_PROXY_OBJECT
  5
48
102
{ACAD_REACTORS
330
47
102
}
330
47
100
AcDbProxyObject
 90
      499
 91
      503
 93
       41
310
903313A31580
  0
ACAD_PROXY_OBJECT
  5
49
102
{ACAD_REACTORS
330
47
102
}
330
47
100
AcDbProxyObject
 90
      499
 91
      503
 93
      257
310
90E312F31323822203D2031272D3022000000000000200FC000000000000284000
  0
ACAD_PROXY_OBJECT
  5
4A
102
{ACAD_REACTORS
330
47
102
}
330
47
100
AcDbProxyObject
 90
      499
 91
      503
 93
      249
310
90D312F363422203D2031272D3022000000000000240FC000000000000284000
  0
ACAD_PROXY_OBJECT
  5
4B
102
{ACAD_REACTORS
330
47
102
}
330
47
100
AcDbProxyObject
 90
      499
 91
      503
 93
      249
310
90D312F333222203D2031272D3022000000000000280FC000000000000284000
  0
ACAD_PROXY_OBJECT
  5
4C
102
{ACAD_REACTORS
330
47
102
}
330
47
100
AcDbProxyObject
 90
      499
 91
      503
 93
      249
310
90D312F313622203D2031272D30220000000000002C0FC000000000000284000
  0
ACAD_PROXY_OBJECT
  5
4D
102
{ACAD_REACTORS
330
47
102
}
330
47
100
AcDbProxyObject
 90
      499
 91
      503
 93
      249
310
90D332F333222203D2031272D30220000000000002E0FC000000000000284000
  0
ACAD_PROXY_OBJECT
  5
4E
102
{ACAD_REACTORS
330
47
102
}
330
47
100
AcDbProxyObject
 90
      499
 91
      503
 93
      241
310
90C312F3822203D2031272D3022000000000000300FC000000000000284000
  0
ACAD_PROXY_OBJECT
  5
4F
102
{ACAD_REACTORS
330
47
102
}
330
47
100
AcDbProxyObject
 90
      499
 91
      503
 93
      249
310
90D332F313622203D2031272D3022000000000000320FC000000000000284000
  0
ACAD_PROXY_OBJECT
  5
50
102
{ACAD_REACTORS
330
47
102
}
330
47
100
AcDbProxyObject
 90
      499
 91
      503
 93
      241
310
90C312F3422203D2031272D3022000000000000340FC000000000000284000
  0
ACAD_PROXY_OBJECT
  5
51
102
{ACAD_REACTORS
330
47
102
}
330
47
100
AcDbProxyObject
 90
      499
 91
      503
 93
      241
310
90C332F3822203D2031272D3022000000000000360FC000000000000284000
  0
ACAD_PROXY_OBJECT
  5
52
102
{ACAD_REACTORS
330
47
102
}
330
47
100
AcDbProxyObject
 90
      499
 91
      503
 93
      241
310
90C312F3222203D2031272D3022000000000000380FC000000000000284000
  0
ACAD_PROXY_OBJECT
  5
53
102
{ACAD_REACTORS
330
47
102
}
330
47
100
AcDbProxyObject
 90
      499
 91
      503
 93
      241
310
90C332F3422203D2031272D30220000000000003A0FC000000000000284000
  0
ACAD_PROXY_OBJECT
  5
54
102
{ACAD_REACTORS
330
47
102
}
330
47
100
AcDbProxyObject
 90
      499
 91
      503
 93
      161
310
90A3122203D2031272D30224000000000000284000
  0
ACAD_PROXY_OBJECT
  5
55
102
{ACAD_REACTORS
330
47
102
}
330
47
100
AcDbProxyObject
 90
      499
 91
      503
 93
      257
310
90E312D312F3222203D2031272D30220000000000003E0FC000000000000284000
  0
ACAD_PROXY_OBJECT
  5
56
102
{ACAD_REACTORS
330
47
102
}
330
47
100
AcDbProxyObject
 90
      499
 91
      503
 93
      225
310
90A3322203D2031272D302200000000000002100000000000000284000
  0
ACAD_PROXY_OBJECT
  5
57
102
{ACAD_REACTORS
330
47
102
}
330
47
100
AcDbProxyObject
 90
      499
 91
      503
 93
      225
310
90A3622203D2031272D302200000000000006100000000000000284000
  0
ACAD_PROXY_OBJECT
  5
58
102
{ACAD_REACTORS
330
47
102
}
330
47
100
AcDbProxyObject
 90
      499
 91
      503
 93
      249
310
90D31272D3022203D2031272D30220000000000000A100000000000000284000
  0
ACAD_PROXY_OBJECT
  5
2F
102
{ACAD_REACTORS
330
2A
102
}
330
2A
100
AcDbProxyObject
 90
      499
 91
      501
 93
      436
310
42CC9915DA5C99599C985B595049028333333333333E33F0000000000000F90107901411070040501600405405064090741402480A0340
1001
ACAD
1000
AcDbSavedByObjectVersion
1070
     0
  0
ACAD_PROXY_OBJECT
  5
32
102
{ACAD_REACTORS
330
2A
102
}
330
2A
100
AcDbProxyObject
 90
      499
 91
      501
 93
      388
310
4150985CDA58D07406404333333333333E33F0000000000000F90107A41107004050150841D405064090741402480A0350
1001
ACAD
1000
AcDbSavedByObjectVersion
1070
     0
  0
ACAD_PROXY_OBJECT
  5
36
102
{ACAD_REACTORS
330
2A
102
}
330
2A
100
AcDbProxyObject
 90
      499
 91
      501
 93
      428
310
42109C9A59DA1D195B90C409028333333333333E33F0000000000000F9010790141107004050150841D405064090741402480A029950
1001
ACAD
1000
AcDbSavedByObjectVersion
1070
     0
  0
ACAD_PROXY_OBJECT
  5
3A
102
{ACAD_REACTORS
330
2A
102
}
330
2A
100
AcDbProxyObject
 90
      499
 91
      501
 93
      452
310
42D0DBDB1BDC90DA185B99D95104090240C333333333333E33F0000000000000F90108901411070040501508421405064090741402480A0350
1001
ACAD
1000
AcDbSavedByObjectVersion
1070
     0
  0
ACAD_PROXY_OBJECT
  5
34
102
{ACAD_REACTORS
330
2A
102
}
330
2A
100
AcDbProxyObject
 90
      499
 91
      501
 93
      500
310
4290DBDB98D95C1D1D585B10940D028333333333333E33F0000000000000F90107902409070040501000000000018199010841D405064090740C02480A0340
1001
ACAD
1000
AcDbSavedByObjectVersion
1070
     0
  0
ACAD_PROXY_OBJECT
  5
35
102
{ACAD_REACTORS
330
2A
102
}
330
2A
100
AcDbProxyObject
 90
      499
 91
      501
 93
      412
310
40D11A5B50B409028333333333333E33F0000000000000F9010790141107004050150841D405064090741402480A02677FFFFFD0
1001
ACAD
1000
AcDbSavedByObjectVersion
1070
     0
  0
ACAD_PROXY_OBJECT
  5
3D
102
{ACAD_REACTORS
330
2A
102
}
330
2A
100
AcDbProxyObject
 90
      499
 91
      501
 93
      452
310
43115919D950DBDB1BDC93D999916409028333333333333E33F0000000000000F9010790141107004050150841D405064090741402480A0350
1001
ACAD
1000
AcDbSavedByObjectVersion
1070
     0
  0
ACAD_PROXY_OBJECT
  5
39
102
{ACAD_REACTORS
330
2A
102
}
330
2A
100
AcDbProxyObject
 90
      499
 91
      501
 93
      444
310
42D19858D95C185D1D195C9B90F409028333333333333E33F0000000000000F9010790141107004050150841D405064090741402480A0350
1001
ACAD
1000
AcDbSavedByObjectVersion
1070
     0
  0
ACAD_PROXY_OBJECT
  5
2B
102
{ACAD_REACTORS
330
2A
102
}
330
2A
100
AcDbProxyObject
 90
      499
 91
      501
 93
      380
310
41119B185D240901404333333333333E33F0000000000000F9010740A907004050150841D405064090741402480A1B50
1001
ACAD
1000
AcDbSavedByObjectVersion
1070
     0
  0
ACAD_PROXY_OBJECT
  5
2C
102
{ACAD_REACTORS
330
2A
102
}
330
2A
100
AcDbProxyObject
 90
      499
 91
      501
 93
      468
310
43519B185D15DA5D1A115919D95CD0140901404333333333333E33F0000000000000F90107409019070040501600405405064090741402480A1B50
1001
ACAD
1000
AcDbSavedByObjectVersion
1070
     0
  0
ACAD_PROXY_OBJECT
  5
2D
102
{ACAD_REACTORS
330
2A
102
}
330
2A
100
AcDbProxyObject
 90
      499
 91
      501
 93
      404
310
41D1DBDD5C985D5910240902404333333333333E33F0000000000000F9010740A9070040501641D405064090741402480A1B50
1001
ACAD
1000
AcDbSavedByObjectVersion
1070
     0
  0
ACAD_PROXY_OBJECT
  5
2E
102
{ACAD_REACTORS
330
2A
102
}
330
2A
100
AcDbProxyObject
 90
      499
 91
      501
 93
      492
310
4411DBDD5C985D5915DA5D1A115919D95CD0340902404333333333333E33F0000000000000F90107409019070040501600405405064090741402480A1B50
1001
ACAD
1000
AcDbSavedByObjectVersion
1070
     0
  0
ACAD_PROXY_OBJECT
  5
31
102
{ACAD_REACTORS
330
2A
102
}
330
2A
100
AcDbProxyObject
 90
      499
 91
      501
 93
      476
310
41921A5919195B90640502408333333333333E33F0000000000000F901079024090700405020000000000001110200405405064090740C02480A0340
1001
ACAD
1000
AcDbSavedByObjectVersion
1070
     0
  0
ACAD_PROXY_OBJECT
  5
3B
102
{ACAD_REACTORS
330
2A
102
}
330
2A
100
AcDbProxyObject
 90
      499
 91
      501
 93
      428
310
42529A5D1D195C93D999914409028333333333333E33F0000000000000F9010790141107004050150A41D405064090741402480A0350
1001
ACAD
1000
AcDbSavedByObjectVersion
1070
     0
  0
ACAD_PROXY_OBJECT
  5
38
102
{ACAD_REACTORS
330
2A
102
}
330
2A
100
AcDbProxyObject
 90
      499
 91
      501
 93
      444
310
42D31A5B995C185D1D195C9B90E409028333333333333E33F0000000000000F9010790141107004050750841D405064090741402483A0350
1001
ACAD
1000
AcDbSavedByObjectVersion
1070
     0
  0
ACAD_PROXY_OBJECT
  5
3C
102
{ACAD_REACTORS
330
2A
102
}
330
2A
100
AcDbProxyObject
 90
      499
 91
      501
 93
      444
310
42D3DD995C9A185B99D3D999915409028333333333333E33F0000000000000F9010790141107004050150941D405064090741402480A0350
1001
ACAD
1000
AcDbSavedByObjectVersion
1070
     0
  0
ACAD_PROXY_OBJECT
  5
33
102
{ACAD_REACTORS
330
2A
102
}
330
2A
100
AcDbProxyObject
 90
      499
 91
      501
 93
      428
310
425499585B1A5CDD1A58D08409038333333333333E33F0000000000000F9010740A907004050150800405405064090740C02480A1B40
1001
ACAD
1000
AcDbSavedByObjectVersion
1070
     0
  0
ACAD_PROXY_OBJECT
  5
42
102
{ACAD_REACTORS
330
2A
102
}
330
2A
100
AcDbProxyObject
 90
      499
 91
      501
 93
      420
310
4194DA1859195911B40902404333333333333E33F0000000000000F9010740A41107004050150800405405064090840C02480A0B40
1001
ACAD
1000
AcDbSavedByObjectVersion
1070
     0
  0
ACAD_PROXY_OBJECT
  5
41
102
{ACAD_REACTORS
330
2A
102
}
330
2A
100
AcDbProxyObject
 90
      499
 91
      501
 93
      516
310
4454DA18591959081DDA5D1A08195919D95CD1A40902404333333333333E33F0000000000000F901074090142907004050250800405405064090740C02480A0B40
1001
ACAD
1000
AcDbSavedByObjectVersion
1070
     0
  0
ACAD_PROXY_OBJECT
  5
3E
102
{ACAD_REACTORS
330
2A
102
}
330
2A
100
AcDbProxyObject
 90
      499
 91
      501
 93
      532
310
4394DA1859195CC81BD98811DC985E5174090240C333333333333E33F0000000000000F901079024090741D01000000000000111010841D405064090740C02480A0340
1001
ACAD
1000
AcDbSavedByObjectVersion
1070
     0
  0
ACAD_PROXY_OBJECT
  5
3F
102
{ACAD_REACTORS
330
2A
102
}
330
2A
100
AcDbProxyObject
 90
      499
 91
      501
 93
      476
310
41D4DAD95D18DA1E51840502408333333333333E33F0000000000000F901079024090741D01000000000000111010B41D405064090741802480A0340
1001
ACAD
1000
AcDbSavedByObjectVersion
1070
     0
  0
ACAD_PROXY_OBJECT
  5
37
102
{ACAD_REACTORS
330
2A
102
}
330
2A
100
AcDbProxyObject
 90
      499
 91
      501
 93
      412
310
41D51A1A58DAD95B90D409028333333333333E33F0000000000000F9010790141107004050150C41D405064090741402480A0350
1001
ACAD
1000
AcDbSavedByObjectVersion
1070
     0
  0
ACAD_PROXY_OBJECT
  5
30
102
{ACAD_REACTORS
330
2A
102
}
330
2A
100
AcDbProxyObject
 90
      499
 91
      501
 93
      420
310
4255DA5C99599C985B595059028333333333333E33F0000000000000F90107901411070040501600405405064090740C02480A0340
1001
ACAD
1000
AcDbSavedByObjectVersion
1070
     0
  0
ACAD_PROXY_OBJECT
  5
40
102
{ACAD_REACTORS
330
2A
102
}
330
2A
100
AcDbProxyObject
 90
      499
 91
      501
 93
      404
310
41560B54985E51940902404000000000000E03F0000000000000F9010740501907004050150841D405064090740C02480A1B40
1001
ACAD
1000
AcDbSavedByObjectVersion
1070
     0
  0
XRECORD
  5
295
102
{ACAD_REACTORS
330
28B
102
}
330
28B
100
AcDbXrecord
340
0
  0
XRECORD
  5
294
102
{ACAD_REACTORS
330
28B
102
}
330
28B
100
AcDbXrecord
 90
        0
  0
XRECORD
  5
2AB
102
{ACAD_REACTORS
330
28B
102
}
330
28B
100
AcDbXrecord
1000
DSTYLE
1002
{
1070
   171
 70
     2
1070
   143
 40
25.4
1070
   274
 70
     2
1070
    41
 40
0.18
1070
   141
 40
0.09
1070
   271
 70
     4
1070
    43
 40
0.38
1070
   278
 70
    46
1070
    44
 40
0.18
1070
    42
 40
0.0625
1070
   147
 40
0.09
1070
    77
 70
     0
1070
   272
 70
     4
1070
    73
 70
     1
1070
   279
 70
     2
1070
   172
 70
     0
1070
    74
 70
     1
1070
   283
 70
     1
1070
   340
340
11
1070
   140
 40
0.18
1070
   284
 70
     0
1070
    78
 70
     0
1002
}
  0
XRECORD
  5
296
102
{ACAD_REACTORS
330
28B
102
}
330
28B
100
AcDbXrecord
  1
{ae90f630-6b00-4675-9405-0c7671ccc11d}
  0
XRECORD
  5
28E
102
{ACAD_REACTORS
330
28B
102
}
330
28B
100
AcDbXrecord
  1

  0
XRECORD
  5
293
102
{ACAD_REACTORS
330
28B
102
}
330
28B
100
AcDbXrecord
 90
        4
  0
XRECORD
  5
290
102
{ACAD_REACTORS
330
28B
102
}
330
28B
100
AcDbXrecord
340
1A
  0
XRECORD
  5
292
102
{ACAD_REACTORS
330
28B
102
}
330
28B
100
AcDbXrecord
 90
    10781
  0
XRECORD
  5
291
102
{ACAD_REACTORS
330
28B
102
}
330
28B
100
AcDbXrecord
340
19
  0
XRECORD
  5
298
102
{ACAD_REACTORS
330
28B
102
}
330
28B
100
AcDbXrecord
 40
0.0
  0
XRECORD
  5
29B
102
{ACAD_REACTORS
330
28B
102
}
330
28B
100
AcDbXrecord
340
0
  0
XRECORD
  5
2A1
102
{ACAD_REACTORS
330
28B
102
}
330
28B
100
AcDbXrecord
 10
0.0
 20
0.0
 30
0.0
  0
XRECORD
  5
29D
102
{ACAD_REACTORS
330
28B
102
}
330
28B
100
AcDbXrecord
 10
0.0
 20
0.0
 30
0.0
  0
XRECORD
  5
2A0
102
{ACAD_REACTORS
330
28B
102
}
330
28B
100
AcDbXrecord
 10
0.0
 20
0.0
 30
0.0
  0
XRECORD
  5
29E
102
{ACAD_REACTORS
330
28B
102
}
330
28B
100
AcDbXrecord
 10
0.0
 20
0.0
 30
0.0
  0
XRECORD
  5
29F
102
{ACAD_REACTORS
330
28B
102
}
330
28B
100
AcDbXrecord
 10
0.0
 20
0.0
 30
0.0
  0
XRECORD
  5
29C
102
{ACAD_REACTORS
330
28B
102
}
330
28B
100
AcDbXrecord
 10
0.0
 20
0.0
 30
0.0
  0
XRECORD
  5
299
102
{ACAD_REACTORS
330
28B
102
}
330
28B
100
AcDbXrecord
340
0
  0
XRECORD
  5
29A
102
{ACAD_REACTORS
330
28B
102
}
330
28B
100
AcDbXrecord
 70
     0
  0
XRECORD
  5
28F
102
{ACAD_REACTORS
330
28B
102
}
330
28B
100
AcDbXrecord
  1

  0
XRECORD
  5
28C
102
{ACAD_REACTORS
330
28B
102
}
330
28B
100
AcDbXrecord
 90
        1
  0
XRECORD
  5
28D
102
{ACAD_REACTORS
330
28B
102
}
330
28B
100
AcDbXrecord
 90
       70
  0
XRECORD
  5
2A4
102
{ACAD_REACTORS
330
28B
102
}
330
28B
100
AcDbXrecord
340
0
  0
XRECORD
  5
2AA
102
{ACAD_REACTORS
330
28B
102
}
330
28B
100
AcDbXrecord
 10
0.0
 20
0.0
 30
0.0
  0
XRECORD
  5
2A6
102
{ACAD_REACTORS
330
28B
102
}
330
28B
100
AcDbXrecord
 10
0.0
 20
0.0
 30
0.0
  0
XRECORD
  5
2A9
102
{ACAD_REACTORS
330
28B
102
}
330
28B
100
AcDbXrecord
 10
0.0
 20
0.0
 30
0.0
  0
XRECORD
  5
2A7
102
{ACAD_REACTORS
330
28B
102
}
330
28B
100
AcDbXrecord
 10
0.0
 20
0.0
 30
0.0
  0
XRECORD
  5
2A8
102
{ACAD_REACTORS
330
28B
102
}
330
28B
100
AcDbXrecord
 10
0.0
 20
0.0
 30
0.0
  0
XRECORD
  5
2A5
102
{ACAD_REACTORS
330
28B
102
}
330
28B
100
AcDbXrecord
 10
0.0
 20
0.0
 30
0.0
  0
XRECORD
  5
2A2
102
{ACAD_REACTORS
330
28B
102
}
330
28B
100
AcDbXrecord
340
0
  0
XRECORD
  5
2A3
102
{ACAD_REACTORS
330
28B
102
}
330
28B
100
AcDbXrecord
 70
     0
  0
XRECORD
  5
297
102
{ACAD_REACTORS
330
28B
102
}
330
28B
100
AcDbXrecord
  1
{FAEB1C32-E019-11D5-929B-00C0DF256EC4}
  0
DICTIONARYVAR
  5
2B6
102
{ACAD_REACTORS
330
2AC
102
}
330
2AC
100
DictionaryVariables
280
     0
  1
1:1
  0
DICTIONARYVAR
  5
2AE
102
{ACAD_REACTORS
330
2AC
102
}
330
2AC
100
DictionaryVariables
280
     0
  1
Standard
  0
DICTIONARYVAR
  5
2AD
102
{ACAD_REACTORS
330
2AC
102
}
330
2AC
100
DictionaryVariables
280
     0
  1
Standard
  0
DICTIONARYVAR
  5
2B1
102
{ACAD_REACTORS
330
2AC
102
}
330
2AC
100
DictionaryVariables
280
     0
  1
2
  0
DICTIONARYVAR
  5
2B2
102
{ACAD_REACTORS
330
2AC
102
}
330
2AC
100
DictionaryVariables
280
     0
  1
1
  0
DICTIONARYVAR
  5
2B7
102
{ACAD_REACTORS
330
2AC
102
}
330
2AC
100
DictionaryVariables
280
     0
  1
1
  0
DICTIONARY
  5
2BA
330
45
100
AcDbDictionary
280
     1
  3
ACAD_XREC_ROUNDTRIP
360
2BB
  0
DICTIONARY
  5
2B8
330
44
100
AcDbDictionary
280
     1
  3
ACAD_XREC_ROUNDTRIP
360
2B9
  0
DICTIONARY
  5
2BC
330
46
100
AcDbDictionary
280
     1
  3
ACAD_XREC_ROUNDTRIP
360
2BD
  0
XRECORD
  5
2BB
102
{ACAD_REACTORS
330
2BA
102
}
330
2BA
100
AcDbXrecord
102
MATERIAL
148
0.0
149
0.0
149
0.0
 93
        0
 94
      127
282
     0
 72
     1
 77
     1
171
     1
175
     1
179
     1
273
     0
  0
XRECORD
  5
2B9
102
{ACAD_REACTORS
330
2B8
102
}
330
2B8
100
AcDbXrecord
102
MATERIAL
148
0.0
149
0.0
149
0.0
 93
        0
 94
      127
282
     0
 72
     1
 77
     1
171
     1
175
     1
179
     1
273
     0
  0
XRECORD
  5
2BD
102
{ACAD_REACTORS
330
2BC
102
}
330
2BC
100
AcDbXrecord
102
MATERIAL
148
0.0
149
0.0
149
0.0
 93
        0
 94
      127
282
     0
 72
     1
 77
     1
171
     1
175
     1
179
     1
273
     0
  0
ENDSEC
  0
EOF
