  0
SECTION
  2
HEADER
  9
$ACADVER
  1
AC1014
  9
$ACADMAINTVER
 70
     9
  9
$DWGCODEPAGE
  3
ANSI_1252
  9
$INSBASE
 10
0.0
 20
0.0
 30
0.0
  9
$EXTMIN
 10
-600.2500063152238
 20
-80.14622487308225
 30
0.0
  9
$EXTMAX
 10
600.2499936854183
 20
69.85377512916784
 30
0.0000000000235829
  9
$LIMMIN
 10
0.0
 20
0.0
  9
$LIMMAX
 10
12.0
 20
9.0
  9
$ORTHOMODE
 70
     0
  9
$REGENMODE
 70
     1
  9
$FILLMODE
 70
     1
  9
$QTEXTMODE
 70
     0
  9
$MIRRTEXT
 70
     1
  9
$DRAGMODE
 70
     2
  9
$LTSCALE
 40
1.0
  9
$OSMODE
 70
    37
  9
$ATTMODE
 70
     1
  9
$TEXTSIZE
 40
0.2
  9
$TRACEWID
 40
0.05
  9
$TEXTSTYLE
  7
STANDARD
  9
$CLAYER
  8
0
  9
$CELTYPE
  6
BYLAYER
  9
$CECOLOR
 62
   256
  9
$CELTSCALE
 40
1.0
  9
$DELOBJ
 70
     1
  9
$DISPSILH
 70
     0
  9
$DIMSCALE
 40
1.0
  9
$DIMASZ
 40
0.18
  9
$DIMEXO
 40
0.0625
  9
$DIMDLI
 40
0.38
  9
$DIMRND
 40
0.0
  9
$DIMDLE
 40
0.0
  9
$DIMEXE
 40
0.18
  9
$DIMTP
 40
0.0
  9
$DIMTM
 40
0.0
  9
$DIMTXT
 40
0.18
  9
$DIMCEN
 40
0.09
  9
$DIMTSZ
 40
0.0
  9
$DIMTOL
 70
     0
  9
$DIMLIM
 70
     0
  9
$DIMTIH
 70
     1
  9
$DIMTOH
 70
     1
  9
$DIMSE1
 70
     0
  9
$DIMSE2
 70
     0
  9
$DIMTAD
 70
     0
  9
$DIMZIN
 70
     0
  9
$DIMBLK
  1

  9
$DIMASO
 70
     1
  9
$DIMSHO
 70
     1
  9
$DIMPOST
  1

  9
$DIMAPOST
  1

  9
$DIMALT
 70
     0
  9
$DIMALTD
 70
     2
  9
$DIMALTF
 40
25.4
  9
$DIMLFAC
 40
1.0
  9
$DIMTOFL
 70
     0
  9
$DIMTVP
 40
0.0
  9
$DIMTIX
 70
     0
  9
$DIMSOXD
 70
     0
  9
$DIMSAH
 70
     0
  9
$DIMBLK1
  1

  9
$DIMBLK2
  1

  9
$DIMSTYLE
  2
STANDARD_ACAD
  9
$DIMCLRD
 70
     0
  9
$DIMCLRE
 70
     0
  9
$DIMCLRT
 70
     0
  9
$DIMTFAC
 40
1.0
  9
$DIMGAP
 40
0.09
  9
$DIMJUST
 70
     0
  9
$DIMSD1
 70
     0
  9
$DIMSD2
 70
     0
  9
$DIMTOLJ
 70
     1
  9
$DIMTZIN
 70
     0
  9
$DIMALTZ
 70
     0
  9
$DIMALTTZ
 70
     0
  9
$DIMFIT
 70
     5
  9
$DIMUPT
 70
     0
  9
$DIMUNIT
 70
     2
  9
$DIMDEC
 70
     4
  9
$DIMTDEC
 70
     4
  9
$DIMALTU
 70
     2
  9
$DIMALTTD
 70
     2
  9
$DIMTXSTY
  7
STANDARD
  9
$DIMAUNIT
 70
     0
  9
$LUNITS
 70
     2
  9
$LUPREC
 70
     3
  9
$SKETCHINC
 40
0.1
  9
$FILLETRAD
 40
0.0
  9
$AUNITS
 70
     0
  9
$AUPREC
 70
     0
  9
$MENU
  1
.
  9
$ELEVATION
 40
0.0
  9
$PELEVATION
 40
0.0
  9
$THICKNESS
 40
0.0
  9
$LIMCHECK
 70
     0
  9
$CHAMFERA
 40
0.0
  9
$CHAMFERB
 40
0.0
  9
$CHAMFERC
 40
0.0
  9
$CHAMFERD
 40
0.0
  9
$SKPOLY
 70
     0
  9
$TDCREATE
 40
2461243.645689387
  9
$TDUPDATE
 40
2461243.645689549
  9
$TDINDWG
 40
0.0000000116
  9
$TDUSRTIMER
 40
0.0000000116
  9
$USRTIMER
 70
     1
  9
$ANGBASE
 50
0.0
  9
$ANGDIR
 70
     0
  9
$PDMODE
 70
     0
  9
$PDSIZE
 40
0.0
  9
$PLINEWID
 40
0.0
  9
$COORDS
 70
     1
  9
$SPLFRAME
 70
     0
  9
$SPLINETYPE
 70
     6
  9
$SPLINESEGS
 70
     8
  9
$ATTDIA
 70
     0
  9
$ATTREQ
 70
     1
  9
$HANDLING
 70
     1
  9
$HANDSEED
  5
471
  9
$SURFTAB1
 70
     6
  9
$SURFTAB2
 70
     6
  9
$SURFTYPE
 70
     6
  9
$SURFU
 70
     6
  9
$SURFV
 70
     6
  9
$UCSNAME
  2

  9
$UCSORG
 10
0.0
 20
0.0
 30
0.0
  9
$UCSXDIR
 10
1.0
 20
0.0
 30
0.0
  9
$UCSYDIR
 10
0.0
 20
1.0
 30
0.0
  9
$PUCSNAME
  2

  9
$PUCSORG
 10
0.0
 20
0.0
 30
0.0
  9
$PUCSXDIR
 10
1.0
 20
0.0
 30
0.0
  9
$PUCSYDIR
 10
0.0
 20
1.0
 30
0.0
  9
$USERI1
 70
     0
  9
$USERI2
 70
     0
  9
$USERI3
 70
     0
  9
$USERI4
 70
     0
  9
$USERI5
 70
     0
  9
$USERR1
 40
0.0
  9
$USERR2
 40
0.0
  9
$USERR3
 40
0.0
  9
$USERR4
 40
0.0
  9
$USERR5
 40
0.0
  9
$WORLDVIEW
 70
     1
  9
$SHADEDGE
 70
     3
  9
$SHADEDIF
 70
    70
  9
$TILEMODE
 70
     1
  9
$MAXACTVP
 70
    64
  9
$PINSBASE
 10
0.0
 20
0.0
 30
0.0
  9
$PLIMCHECK
 70
     0
  9
$PEXTMIN
 10
1.000000000000000E+20
 20
1.000000000000000E+20
 30
1.000000000000000E+20
  9
$PEXTMAX
 10
-1.000000000000000E+20
 20
-1.000000000000000E+20
 30
-1.000000000000000E+20
  9
$PLIMMIN
 10
0.0
 20
0.0
  9
$PLIMMAX
 10
12.0
 20
9.0
  9
$UNITMODE
 70
     0
  9
$VISRETAIN
 70
     1
  9
$PLINEGEN
 70
     0
  9
$PSLTSCALE
 70
     1
  9
$TREEDEPTH
 70
  3020
  9
$PICKSTYLE
 70
     1
  9
$CMLSTYLE
  2
STANDARD
  9
$CMLJUST
 70
     0
  9
$CMLSCALE
 40
1.0
  9
$PROXYGRAPHICS
 70
     1
  9
$MEASUREMENT
 70
     1
  0
ENDSEC
  0
SECTION
  2
CLASSES
  0
CLASS
  1
ACDBDICTIONARYWDFLT
  2
AcDbDictionaryWithDefault
  3
ObjectDBX Classes
 90
        0
280
     0
281
     0
  0
CLASS
  1
VISUALSTYLE
  2
AcDbVisualStyle
  3
ObjectDBX Classes
 90
     4095
280
     0
281
     0
  0
CLASS
  1
MATERIAL
  2
AcDbMaterial
  3
ObjectDBX Classes
 90
     1153
280
     0
281
     0
  0
CLASS
  1
SCALE
  2
AcDbScale
  3
ObjectDBX Classes
 90
     1153
280
     0
281
     0
  0
CLASS
  1
TABLESTYLE
  2
AcDbTableStyle
  3
ObjectDBX Classes
 90
     4095
280
     0
281
     0
  0
CLASS
  1
MLEADERSTYLE
  2
AcDbMLeaderStyle
  3
ACDB_MLEADERSTYLE_CLASS
 90
     4095
280
     0
281
     0
  0
CLASS
  1
SUN
  2
AcDbSun
  3
SCENEOE
 90
     1153
280
     0
281
     0
  0
CLASS
  1
DICTIONARYVAR
  2
AcDbDictionaryVar
  3
ObjectDBX Classes
 90
        0
280
     0
281
     0
  0
CLASS
  1
XRECORD
  2
AcDbXrecord
  3
ObjectDBX Classes
 90
        0
280
     0
281
     0
  0
CLASS
  1
LWPOLYLINE
  2
AcDbPolyline
  3
ObjectDBX Classes
 90
        0
280
     0
281
     1
  0
CLASS
  1
HATCH
  2
AcDbHatch
  3
ObjectDBX Classes
 90
        0
280
     0
281
     1
  0
CLASS
  1
ACDBPLACEHOLDER
  2
AcDbPlaceHolder
  3
ObjectDBX Classes
 90
        0
280
     0
281
     0
  0
CLASS
  1
LAYOUT
  2
AcDbLayout
  3
ObjectDBX Classes
 90
        0
280
     0
281
     0
  0
ENDSEC
  0
SECTION
  2
TABLES
  0
TABLE
  2
VPORT
  5
8
102
{ACAD_XDICTIONARY
360
466
102
}
330
0
100
AcDbSymbolTable
 70
     1
  0
VPORT
  5
29
330
8
100
AcDbSymbolTableRecord
100
AcDbViewportTableRecord
  2
*ACTIVE
 70
     0
 10
0.0
 20
0.0
 11
1.0
 21
1.0
 12
10.42990654205607
 22
4.5
 13
0.0
 23
0.0
 14
0.5
 24
0.5
 15
0.5
 25
0.5
 16
0.0
 26
0.0
 36
1.0
 17
0.0
 27
0.0
 37
0.0
 40
9.0
 41
1.972972972850329
 42
50.0
 43
0.0
 44
0.0
 50
0.0
 51
0.0
 71
     0
 72
   100
 73
     1
 74
     3
 75
     0
 76
     0
 77
     0
 78
     0
  0
ENDTAB
  0
TABLE
  2
LTYPE
  5
5
330
0
100
AcDbSymbolTable
 70
     1
  0
LTYPE
  5
14
330
5
100
AcDbSymbolTableRecord
100
AcDbLinetypeTableRecord
  2
BYBLOCK
 70
     0
  3

 72
    65
 73
     0
 40
0.0
  0
LTYPE
  5
15
330
5
100
AcDbSymbolTableRecord
100
AcDbLinetypeTableRecord
  2
BYLAYER
 70
     0
  3

 72
    65
 73
     0
 40
0.0
  0
LTYPE
  5
16
330
5
100
AcDbSymbolTableRecord
100
AcDbLinetypeTableRecord
  2
CONTINUOUS
 70
     0
  3
Solid line
 72
    65
 73
     0
 40
0.0
  0
ENDTAB
  0
TABLE
  2
LAYER
  5
2
330
0
100
AcDbSymbolTable
 70
     4
  0
LAYER
  5
10
330
2
100
AcDbSymbolTableRecord
100
AcDbLayerTableRecord
  2
0
 70
     0
 62
     7
  6
CONTINUOUS
  0
LAYER
  5
5F
330
2
100
AcDbSymbolTableRecord
100
AcDbLayerTableRecord
  2
1_ANYTOOL_1MMDEEP_LABELS_S
 70
     0
 62
     2
  6
CONTINUOUS
  0
LAYER
  5
2E3
330
2
100
AcDbSymbolTableRecord
100
AcDbLayerTableRecord
  2
5_ANYTOOL_HALF_MILL_9MM_IN
 70
     0
 62
     3
  6
CONTINUOUS
  0
LAYER
  5
34E
330
2
100
AcDbSymbolTableRecord
100
AcDbLayerTableRecord
  2
4_ANYTOOL_CUTTHROUGH_OUTSI
 70
     0
 62
     5
  6
CONTINUOUS
  0
ENDTAB
  0
TABLE
  2
STYLE
  5
3
330
0
100
AcDbSymbolTable
 70
     1
  0
STYLE
  5
11
330
3
100
AcDbSymbolTableRecord
100
AcDbTextStyleTableRecord
  2
STANDARD
 70
     0
 40
0.0
 41
1.0
 50
0.0
 71
     0
 42
0.2
  3
txt
  4

  0
ENDTAB
  0
TABLE
  2
VIEW
  5
6
330
0
100
AcDbSymbolTable
 70
     0
  0
ENDTAB
  0
TABLE
  2
UCS
  5
7
330
0
100
AcDbSymbolTable
 70
     0
  0
ENDTAB
  0
TABLE
  2
APPID
  5
9
330
0
100
AcDbSymbolTable
 70
     3
  0
APPID
  5
12
330
9
100
AcDbSymbolTableRecord
100
AcDbRegAppTableRecord
  2
ACAD
 70
     0
  0
APPID
  5
5E
330
9
100
AcDbSymbolTableRecord
100
AcDbRegAppTableRecord
  2
RHINO
 70
     0
  0
APPID
  5
470
330
9
100
AcDbSymbolTableRecord
100
AcDbRegAppTableRecord
  2
ACAD_MLEADERVER
 70
     0
  0
ENDTAB
  0
TABLE
  2
DIMSTYLE
  5
A
330
0
100
AcDbSymbolTable
 70
     1
  0
DIMSTYLE
105
27
330
A
100
AcDbSymbolTableRecord
100
AcDbDimStyleTableRecord
  2
STANDARD_ACAD
 70
     0
  3

  4

  5

  6

  7

 40
1.0
 41
0.18
 42
0.0625
 43
0.38
 44
0.18
 45
0.0
 46
0.0
 47
0.0
 48
0.0
140
0.18
141
0.09
142
0.0
143
25.4
144
1.0
145
0.0
146
1.0
147
0.09
 71
     0
 72
     0
 73
     1
 74
     1
 75
     0
 76
     0
 77
     0
 78
     0
170
     0
171
     2
172
     0
173
     0
174
     0
175
     0
176
     0
177
     0
178
     0
270
     2
271
     4
272
     4
273
     2
274
     2
340
11
275
     0
280
     0
281
     0
282
     0
283
     1
284
     0
285
     0
286
     0
287
     3
288
     0
  0
ENDTAB
  0
TABLE
  2
BLOCK_RECORD
  5
1
330
0
100
AcDbSymbolTable
 70
     0
  0
BLOCK_RECORD
  5
1F
330
1
100
AcDbSymbolTableRecord
100
AcDbBlockTableRecord
  2
*MODEL_SPACE
  0
BLOCK_RECORD
  5
1B
330
1
100
AcDbSymbolTableRecord
100
AcDbBlockTableRecord
  2
*PAPER_SPACE
  0
ENDTAB
  0
ENDSEC
  0
SECTION
  2
BLOCKS
  0
BLOCK
  5
20
330
1F
100
AcDbEntity
  8
0
100
AcDbBlockBegin
  2
*MODEL_SPACE
 70
     0
 10
0.0
 20
0.0
 30
0.0
  3
*MODEL_SPACE
  1

  0
ENDBLK
  5
21
330
1F
100
AcDbEntity
  8
0
100
AcDbBlockEnd
  0
BLOCK
  5
1C
330
1B
100
AcDbEntity
 67
     1
  8
0
100
AcDbBlockBegin
  2
*PAPER_SPACE
 70
     0
 10
0.0
 20
0.0
 30
0.0
  3
*PAPER_SPACE
  1

  0
ENDBLK
  5
1D
330
1B
100
AcDbEntity
 67
     1
  8
0
100
AcDbBlockEnd
  0
ENDSEC
  0
SECTION
  2
ENTITIES
  0
POLYLINE
  5
60
330
1F
100
AcDbEntity
  8
1_ANYTOOL_1MMDEEP_LABELS_S
100
AcDb2dPolyline
 66
     1
 10
0.0
 20
0.0
 30
0.0
  0
VERTEX
  5
61
330
60
100
AcDbEntity
  8
1_ANYTOOL_1MMDEEP_LABELS_S
100
AcDbVertex
100
AcDb2dVertex
 10
196.5857142857149
 20
27.77560268421075
 30
0.0
 42
0.1311029518676566
  0
VERTEX
  5
62
330
60
100
AcDbEntity
  8
1_ANYTOOL_1MMDEEP_LABELS_S
100
AcDbVertex
100
AcDb2dVertex
 10
192.8142857142866
 20
33.1327455413557
 30
0.0
  0
VERTEX
  5
63
330
60
100
AcDbEntity
  8
1_ANYTOOL_1MMDEEP_LABELS_S
100
AcDbVertex
100
AcDb2dVertex
 10
192.6578404017866
 20
33.26458147885556
 30
0.0
  0
VERTEX
  5
64
330
60
100
AcDbEntity
  8
1_ANYTOOL_1MMDEEP_LABELS_S
100
AcDbVertex
100
AcDb2dVertex
 10
192.4992187500009
 20
33.39223214849829
 30
0.0
  0
VERTEX
  5
65
330
60
100
AcDbEntity
  8
1_ANYTOOL_1MMDEEP_LABELS_S
100
AcDbVertex
100
AcDb2dVertex
 10
192.3384207589294
 20
33.51569755028389
 30
0.0
  0
VERTEX
  5
66
330
60
100
AcDbEntity
  8
1_ANYTOOL_1MMDEEP_LABELS_S
100
AcDbVertex
100
AcDb2dVertex
 10
192.1754464285723
 20
33.63497768421234
 30
0.0
  0
VERTEX
  5
67
330
60
100
AcDbEntity
  8
1_ANYTOOL_1MMDEEP_LABELS_S
100
AcDbVertex
100
AcDb2dVertex
 10
192.0102957589294
 20
33.75007255028366
 30
0.0
  0
VERTEX
  5
68
330
60
100
AcDbEntity
  8
1_ANYTOOL_1MMDEEP_LABELS_S
100
AcDbVertex
100
AcDb2dVertex
 10
191.8429687500008
 20
33.86098214849784
 30
0.0
  0
VERTEX
  5
69
330
60
100
AcDbEntity
  8
1_ANYTOOL_1MMDEEP_LABELS_S
100
AcDbVertex
100
AcDb2dVertex
 10
191.6734654017865
 20
33.96770647885488
 30
0.0
  0
VERTEX
  5
6A
330
60
100
AcDbEntity
  8
1_ANYTOOL_1MMDEEP_LABELS_S
100
AcDbVertex
100
AcDb2dVertex
 10
191.5017857142865
 20
34.07024554135478
 30
0.0
  0
VERTEX
  5
6B
330
60
100
AcDbEntity
  8
1_ANYTOOL_1MMDEEP_LABELS_S
100
AcDbVertex
100
AcDb2dVertex
 10
191.3279296875008
 20
34.16859933599754
 30
0.0
  0
VERTEX
  5
6C
330
60
100
AcDbEntity
  8
1_ANYTOOL_1MMDEEP_LABELS_S
100
AcDbVertex
100
AcDb2dVertex
 10
191.1518973214293
 20
34.26276786278316
 30
0.0
  0
VERTEX
  5
6D
330
60
100
AcDbEntity
  8
1_ANYTOOL_1MMDEEP_LABELS_S
100
AcDbVertex
100
AcDb2dVertex
 10
190.9736886160721
 20
34.35275112171165
 30
0.0
  0
VERTEX
  5
6E
330
60
100
AcDbEntity
  8
1_ANYTOOL_1MMDEEP_LABELS_S
100
AcDbVertex
100
AcDb2dVertex
 10
190.7933035714293
 20
34.43854911278299
 30
0.0
  0
VERTEX
  5
6F
330
60
100
AcDbEntity
  8
1_ANYTOOL_1MMDEEP_LABELS_S
100
AcDbVertex
100
AcDb2dVertex
 10
190.6107421875007
 20
34.5201618359972
 30
0.0
  0
VERTEX
  5
70
330
60
100
AcDbEntity
  8
1_ANYTOOL_1MMDEEP_LABELS_S
100
AcDbVertex
100
AcDb2dVertex
 10
190.4260044642864
 20
34.59758929135427
 30
0.0
  0
VERTEX
  5
71
330
60
100
AcDbEntity
  8
1_ANYTOOL_1MMDEEP_LABELS_S
100
AcDbVertex
100
AcDb2dVertex
 10
190.2390904017864
 20
34.6708314788542
 30
0.0
  0
VERTEX
  5
72
330
60
100
AcDbEntity
  8
1_ANYTOOL_1MMDEEP_LABELS_S
100
AcDbVertex
100
AcDb2dVertex
 10
190.0500000000006
 20
34.73988839849699
 30
0.0
  0
VERTEX
  5
73
330
60
100
AcDbEntity
  8
1_ANYTOOL_1MMDEEP_LABELS_S
100
AcDbVertex
100
AcDb2dVertex
 10
189.8587332589292
 20
34.80476005028264
 30
0.0
  0
VERTEX
  5
74
330
60
100
AcDbEntity
  8
1_ANYTOOL_1MMDEEP_LABELS_S
100
AcDbVertex
100
AcDb2dVertex
 10
189.665290178572
 20
34.86544643421115
 30
0.0
  0
VERTEX
  5
75
330
60
100
AcDbEntity
  8
1_ANYTOOL_1MMDEEP_LABELS_S
100
AcDbVertex
100
AcDb2dVertex
 10
189.4696707589292
 20
34.92194755028252
 30
0.0
  0
VERTEX
  5
76
330
60
100
AcDbEntity
  8
1_ANYTOOL_1MMDEEP_LABELS_S
100
AcDbVertex
100
AcDb2dVertex
 10
189.2718750000006
 20
34.97426339849676
 30
0.0
  0
VERTEX
  5
77
330
60
100
AcDbEntity
  8
1_ANYTOOL_1MMDEEP_LABELS_S
100
AcDbVertex
100
AcDb2dVertex
 10
189.0719029017862
 20
35.02239397885386
 30
0.0
  0
VERTEX
  5
78
330
60
100
AcDbEntity
  8
1_ANYTOOL_1MMDEEP_LABELS_S
100
AcDbVertex
100
AcDb2dVertex
 10
188.8697544642862
 20
35.06633929135381
 30
0.0
  0
VERTEX
  5
79
330
60
100
AcDbEntity
  8
1_ANYTOOL_1MMDEEP_LABELS_S
100
AcDbVertex
100
AcDb2dVertex
 10
188.6654296875005
 20
35.10609933599663
 30
0.0
  0
VERTEX
  5
7A
330
60
100
AcDbEntity
  8
1_ANYTOOL_1MMDEEP_LABELS_S
100
AcDbVertex
100
AcDb2dVertex
 10
188.4589285714291
 20
35.14167411278231
 30
0.0
  0
VERTEX
  5
7B
330
60
100
AcDbEntity
  8
1_ANYTOOL_1MMDEEP_LABELS_S
100
AcDbVertex
100
AcDb2dVertex
 10
188.2502511160719
 20
35.17306362171085
 30
0.0
  0
VERTEX
  5
7C
330
60
100
AcDbEntity
  8
1_ANYTOOL_1MMDEEP_LABELS_S
100
AcDbVertex
100
AcDb2dVertex
 10
188.039397321429
 20
35.20026786278225
 30
0.0
  0
VERTEX
  5
7D
330
60
100
AcDbEntity
  8
1_ANYTOOL_1MMDEEP_LABELS_S
100
AcDbVertex
100
AcDb2dVertex
 10
187.8263671875004
 20
35.22328683599652
 30
0.0
  0
VERTEX
  5
7E
330
60
100
AcDbEntity
  8
1_ANYTOOL_1MMDEEP_LABELS_S
100
AcDbVertex
100
AcDb2dVertex
 10
187.6111607142861
 20
35.24212054135364
 30
0.0
  0
VERTEX
  5
7F
330
60
100
AcDbEntity
  8
1_ANYTOOL_1MMDEEP_LABELS_S
100
AcDbVertex
100
AcDb2dVertex
 10
187.3937779017861
 20
35.25676897885363
 30
0.0
  0
VERTEX
  5
80
330
60
100
AcDbEntity
  8
1_ANYTOOL_1MMDEEP_LABELS_S
100
AcDbVertex
100
AcDb2dVertex
 10
187.1742187500004
 20
35.26723214849648
 30
0.0
  0
VERTEX
  5
81
330
60
100
AcDbEntity
  8
1_ANYTOOL_1MMDEEP_LABELS_S
100
AcDbVertex
100
AcDb2dVertex
 10
186.9524832589289
 20
35.27351005028218
 30
0.0
  0
VERTEX
  5
82
330
60
100
AcDbEntity
  8
1_ANYTOOL_1MMDEEP_LABELS_S
100
AcDbVertex
100
AcDb2dVertex
 10
186.7285714285717
 20
35.27560268421075
 30
0.0
  0
VERTEX
  5
83
330
60
100
AcDbEntity
  8
1_ANYTOOL_1MMDEEP_LABELS_S
100
AcDbVertex
100
AcDb2dVertex
 10
186.3856724330361
 20
35.2709988895679
 30
0.0
  0
VERTEX
  5
84
330
60
100
AcDbEntity
  8
1_ANYTOOL_1MMDEEP_LABELS_S
100
AcDbVertex
100
AcDb2dVertex
 10
186.0480468750004
 20
35.25718750563934
 30
0.0
  0
VERTEX
  5
85
330
60
100
AcDbEntity
  8
1_ANYTOOL_1MMDEEP_LABELS_S
100
AcDbVertex
100
AcDb2dVertex
 10
185.7156947544647
 20
35.23416853242507
 30
0.0
  0
VERTEX
  5
86
330
60
100
AcDbEntity
  8
1_ANYTOOL_1MMDEEP_LABELS_S
100
AcDbVertex
100
AcDb2dVertex
 10
185.388616071429
 20
35.20194196992509
 30
0.0
  0
VERTEX
  5
87
330
60
100
AcDbEntity
  8
1_ANYTOOL_1MMDEEP_LABELS_S
100
AcDbVertex
100
AcDb2dVertex
 10
185.0668108258933
 20
35.1605078181394
 30
0.0
  0
VERTEX
  5
88
330
60
100
AcDbEntity
  8
1_ANYTOOL_1MMDEEP_LABELS_S
100
AcDbVertex
100
AcDb2dVertex
 10
184.7502790178576
 20
35.10986607706801
 30
0.0
  0
VERTEX
  5
89
330
60
100
AcDbEntity
  8
1_ANYTOOL_1MMDEEP_LABELS_S
100
AcDbVertex
100
AcDb2dVertex
 10
184.4390206473219
 20
35.0500167467109
 30
0.0
  0
VERTEX
  5
8A
330
60
100
AcDbEntity
  8
1_ANYTOOL_1MMDEEP_LABELS_S
100
AcDbVertex
100
AcDb2dVertex
 10
184.1330357142862
 20
34.98095982706809
 30
0.0
  0
VERTEX
  5
8B
330
60
100
AcDbEntity
  8
1_ANYTOOL_1MMDEEP_LABELS_S
100
AcDbVertex
100
AcDb2dVertex
 10
183.8323242187504
 20
34.90269531813957
 30
0.0
  0
VERTEX
  5
8C
330
60
100
AcDbEntity
  8
1_ANYTOOL_1MMDEEP_LABELS_S
100
AcDbVertex
100
AcDb2dVertex
 10
183.5368861607147
 20
34.81522321992534
 30
0.0
  0
VERTEX
  5
8D
330
60
100
AcDbEntity
  8
1_ANYTOOL_1MMDEEP_LABELS_S
100
AcDbVertex
100
AcDb2dVertex
 10
183.246721540179
 20
34.71854353242541
 30
0.0
  0
VERTEX
  5
8E
330
60
100
AcDbEntity
  8
1_ANYTOOL_1MMDEEP_LABELS_S
100
AcDbVertex
100
AcDb2dVertex
 10
182.9618303571433
 20
34.61265625563976
 30
0.0
  0
VERTEX
  5
8F
330
60
100
AcDbEntity
  8
1_ANYTOOL_1MMDEEP_LABELS_S
100
AcDbVertex
100
AcDb2dVertex
 10
182.6822126116076
 20
34.49756138956841
 30
0.0
  0
VERTEX
  5
90
330
60
100
AcDbEntity
  8
1_ANYTOOL_1MMDEEP_LABELS_S
100
AcDbVertex
100
AcDb2dVertex
 10
182.5443812779022
 20
34.4365611105506
 30
0.0
  0
VERTEX
  5
91
330
60
100
AcDbEntity
  8
1_ANYTOOL_1MMDEEP_LABELS_S
100
AcDbVertex
100
AcDb2dVertex
 10
182.4078683035719
 20
34.37325893421135
 30
0.0
  0
VERTEX
  5
92
330
60
100
AcDbEntity
  8
1_ANYTOOL_1MMDEEP_LABELS_S
100
AcDbVertex
100
AcDb2dVertex
 10
182.2726736886165
 20
34.30765486055068
 30
0.0
  0
VERTEX
  5
93
330
60
100
AcDbEntity
  8
1_ANYTOOL_1MMDEEP_LABELS_S
100
AcDbVertex
100
AcDb2dVertex
 10
182.1387974330362
 20
34.23974888956858
 30
0.0
  0
VERTEX
  5
94
330
60
100
AcDbEntity
  8
1_ANYTOOL_1MMDEEP_LABELS_S
100
AcDbVertex
100
AcDb2dVertex
 10
182.0062395368308
 20
34.16954102126505
 30
0.0
  0
VERTEX
  5
95
330
60
100
AcDbEntity
  8
1_ANYTOOL_1MMDEEP_LABELS_S
100
AcDbVertex
100
AcDb2dVertex
 10
181.8750000000005
 20
34.0970312556401
 30
0.0
  0
VERTEX
  5
96
330
60
100
AcDbEntity
  8
1_ANYTOOL_1MMDEEP_LABELS_S
100
AcDbVertex
100
AcDb2dVertex
 10
181.7450788225451
 20
34.02221959269372
 30
0.0
  0
VERTEX
  5
97
330
60
100
AcDbEntity
  8
1_ANYTOOL_1MMDEEP_LABELS_S
100
AcDbVertex
100
AcDb2dVertex
 10
181.6164760044647
 20
33.94510603242592
 30
0.0
  0
VERTEX
  5
98
330
60
100
AcDbEntity
  8
1_ANYTOOL_1MMDEEP_LABELS_S
100
AcDbVertex
100
AcDb2dVertex
 10
181.4891915457594
 20
33.86569057483669
 30
0.0
  0
VERTEX
  5
99
330
60
100
AcDbEntity
  8
1_ANYTOOL_1MMDEEP_LABELS_S
100
AcDbVertex
100
AcDb2dVertex
 10
181.363225446429
 20
33.78397321992603
 30
0.0
  0
VERTEX
  5
9A
330
60
100
AcDbEntity
  8
1_ANYTOOL_1MMDEEP_LABELS_S
100
AcDbVertex
100
AcDb2dVertex
 10
181.2385777064736
 20
33.69995396769394
 30
0.0
  0
VERTEX
  5
9B
330
60
100
AcDbEntity
  8
1_ANYTOOL_1MMDEEP_LABELS_S
100
AcDbVertex
100
AcDb2dVertex
 10
181.1152483258933
 20
33.61363281814042
 30
0.0
  0
VERTEX
  5
9C
330
60
100
AcDbEntity
  8
1_ANYTOOL_1MMDEEP_LABELS_S
100
AcDbVertex
100
AcDb2dVertex
 10
180.8725446428575
 20
33.43408482706911
 30
0.0
  0
VERTEX
  5
9D
330
60
100
AcDbEntity
  8
1_ANYTOOL_1MMDEEP_LABELS_S
100
AcDbVertex
100
AcDb2dVertex
 10
180.6351143973218
 20
33.2453292467121
 30
0.0
  0
VERTEX
  5
9E
330
60
100
AcDbEntity
  8
1_ANYTOOL_1MMDEEP_LABELS_S
100
AcDbVertex
100
AcDb2dVertex
 10
180.4029575892861
 20
33.04736607706937
 30
0.0
  0
VERTEX
  5
9F
330
60
100
AcDbEntity
  8
1_ANYTOOL_1MMDEEP_LABELS_S
100
AcDbVertex
100
AcDb2dVertex
 10
180.1760742187503
 20
32.84019531814094
 30
0.0
  0
VERTEX
  5
A0
330
60
100
AcDbEntity
  8
1_ANYTOOL_1MMDEEP_LABELS_S
100
AcDbVertex
100
AcDb2dVertex
 10
179.9544642857146
 20
32.62381696992679
 30
0.0
  0
VERTEX
  5
A1
330
60
100
AcDbEntity
  8
1_ANYTOOL_1MMDEEP_LABELS_S
100
AcDbVertex
100
AcDb2dVertex
 10
179.7381277901789
 20
32.39823103242694
 30
0.0
  0
VERTEX
  5
A2
330
60
100
AcDbEntity
  8
1_ANYTOOL_1MMDEEP_LABELS_S
100
AcDbVertex
100
AcDb2dVertex
 10
179.5270647321431
 20
32.16343750564138
 30
0.0
  0
VERTEX
  5
A3
330
60
100
AcDbEntity
  8
1_ANYTOOL_1MMDEEP_LABELS_S
100
AcDbVertex
100
AcDb2dVertex
 10
179.3212751116074
 20
31.91943638957012
 30
0.0
  0
VERTEX
  5
A4
330
60
100
AcDbEntity
  8
1_ANYTOOL_1MMDEEP_LABELS_S
100
AcDbVertex
100
AcDb2dVertex
 10
179.1207589285716
 20
31.66622768421314
 30
0.0
  0
VERTEX
  5
A5
330
60
100
AcDbEntity
  8
1_ANYTOOL_1MMDEEP_LABELS_S
100
AcDbVertex
100
AcDb2dVertex
 10
178.9255161830359
 20
31.40381138957046
 30
0.0
  0
VERTEX
  5
A6
330
60
100
AcDbEntity
  8
1_ANYTOOL_1MMDEEP_LABELS_S
100
AcDbVertex
100
AcDb2dVertex
 10
178.7355468750001
 20
31.13218750564207
 30
0.0
  0
VERTEX
  5
A7
330
60
100
AcDbEntity
  8
1_ANYTOOL_1MMDEEP_LABELS_S
100
AcDbVertex
100
AcDb2dVertex
 10
178.5508510044644
 20
30.85135603242797
 30
0.0
  0
VERTEX
  5
A8
330
60
100
AcDbEntity
  8
1_ANYTOOL_1MMDEEP_LABELS_S
100
AcDbVertex
100
AcDb2dVertex
 10
178.3714285714286
 20
30.56131696992816
 30
0.0
  0
VERTEX
  5
A9
330
60
100
AcDbEntity
  8
1_ANYTOOL_1MMDEEP_LABELS_S
100
AcDbVertex
100
AcDb2dVertex
 10
178.034095982143
 20
29.97370536278473
 30
0.0
  0
VERTEX
  5
AA
330
60
100
AcDbEntity
  8
1_ANYTOOL_1MMDEEP_LABELS_S
100
AcDbVertex
100
AcDb2dVertex
 10
177.7185267857145
 20
29.37872768421278
 30
0.0
  0
VERTEX
  5
AB
330
60
100
AcDbEntity
  8
1_ANYTOOL_1MMDEEP_LABELS_S
100
AcDbVertex
100
AcDb2dVertex
 10
177.4247209821431
 20
28.7763839342123
 30
0.0
  0
VERTEX
  5
AC
330
60
100
AcDbEntity
  8
1_ANYTOOL_1MMDEEP_LABELS_S
100
AcDbVertex
100
AcDb2dVertex
 10
177.1526785714289
 20
28.16667411278331
 30
0.0
  0
VERTEX
  5
AD
330
60
100
AcDbEntity
  8
1_ANYTOOL_1MMDEEP_LABELS_S
100
AcDbVertex
100
AcDb2dVertex
 10
176.9023995535717
 20
27.5495982199258
 30
0.0
  0
VERTEX
  5
AE
330
60
100
AcDbEntity
  8
1_ANYTOOL_1MMDEEP_LABELS_S
100
AcDbVertex
100
AcDb2dVertex
 10
176.6738839285718
 20
26.92515625563976
 30
0.0
  0
VERTEX
  5
AF
330
60
100
AcDbEntity
  8
1_ANYTOOL_1MMDEEP_LABELS_S
100
AcDbVertex
100
AcDb2dVertex
 10
176.467131696429
 20
26.29334821992521
 30
0.0
  0
VERTEX
  5
B0
330
60
100
AcDbEntity
  8
1_ANYTOOL_1MMDEEP_LABELS_S
100
AcDbVertex
100
AcDb2dVertex
 10
176.2821428571433
 20
25.65417411278213
 30
0.0
  0
VERTEX
  5
B1
330
60
100
AcDbEntity
  8
1_ANYTOOL_1MMDEEP_LABELS_S
100
AcDbVertex
100
AcDb2dVertex
 10
176.1189174107147
 20
25.00763393421053
 30
0.0
  0
VERTEX
  5
B2
330
60
100
AcDbEntity
  8
1_ANYTOOL_1MMDEEP_LABELS_S
100
AcDbVertex
100
AcDb2dVertex
 10
175.9774553571434
 20
24.35372768421041
 30
0.0
  0
VERTEX
  5
B3
330
60
100
AcDbEntity
  8
1_ANYTOOL_1MMDEEP_LABELS_S
100
AcDbVertex
100
AcDb2dVertex
 10
175.8577566964291
 20
23.69245536278177
 30
0.0
  0
VERTEX
  5
B4
330
60
100
AcDbEntity
  8
1_ANYTOOL_1MMDEEP_LABELS_S
100
AcDbVertex
100
AcDb2dVertex
 10
175.759821428572
 20
23.02381696992461
 30
0.0
  0
VERTEX
  5
B5
330
60
100
AcDbEntity
  8
1_ANYTOOL_1MMDEEP_LABELS_S
100
AcDbVertex
100
AcDb2dVertex
 10
175.683649553572
 20
22.34781250563893
 30
0.0
  0
VERTEX
  5
B6
330
60
100
AcDbEntity
  8
1_ANYTOOL_1MMDEEP_LABELS_S
100
AcDbVertex
100
AcDb2dVertex
 10
175.6292410714291
 20
21.66444196992472
 30
0.0
  0
VERTEX
  5
B7
330
60
100
AcDbEntity
  8
1_ANYTOOL_1MMDEEP_LABELS_S
100
AcDbVertex
100
AcDb2dVertex
 10
175.5965959821434
 20
20.973705362782
 30
0.0
  0
VERTEX
  5
B8
330
60
100
AcDbEntity
  8
1_ANYTOOL_1MMDEEP_LABELS_S
100
AcDbVertex
100
AcDb2dVertex
 10
175.5857142857149
 20
20.27560268421075
 30
0.0
  0
VERTEX
  5
B9
330
60
100
AcDbEntity
  8
1_ANYTOOL_1MMDEEP_LABELS_S
100
AcDbVertex
100
AcDb2dVertex
 10
175.5967633928577
 20
19.57733259492522
 30
0.0
  0
VERTEX
  5
BA
330
60
100
AcDbEntity
  8
1_ANYTOOL_1MMDEEP_LABELS_S
100
AcDbVertex
100
AcDb2dVertex
 10
175.6299107142863
 20
18.88609375563965
 30
0.0
  0
VERTEX
  5
BB
330
60
100
AcDbEntity
  8
1_ANYTOOL_1MMDEEP_LABELS_S
100
AcDbVertex
100
AcDb2dVertex
 10
175.6851562500005
 20
18.20188616635403
 30
0.0
  0
VERTEX
  5
BC
330
60
100
AcDbEntity
  8
1_ANYTOOL_1MMDEEP_LABELS_S
100
AcDbVertex
100
AcDb2dVertex
 10
175.7625000000005
 20
17.52470982706836
 30
0.0
  0
VERTEX
  5
BD
330
60
100
AcDbEntity
  8
1_ANYTOOL_1MMDEEP_LABELS_S
100
AcDbVertex
100
AcDb2dVertex
 10
175.8619419642862
 20
16.85456473778265
 30
0.0
  0
VERTEX
  5
BE
330
60
100
AcDbEntity
  8
1_ANYTOOL_1MMDEEP_LABELS_S
100
AcDbVertex
100
AcDb2dVertex
 10
175.9834821428576
 20
16.1914508984969
 30
0.0
  0
VERTEX
  5
BF
330
60
100
AcDbEntity
  8
1_ANYTOOL_1MMDEEP_LABELS_S
100
AcDbVertex
100
AcDb2dVertex
 10
176.1271205357147
 20
15.53536830921109
 30
0.0
  0
VERTEX
  5
C0
330
60
100
AcDbEntity
  8
1_ANYTOOL_1MMDEEP_LABELS_S
100
AcDbVertex
100
AcDb2dVertex
 10
176.2928571428574
 20
14.88631696992525
 30
0.0
  0
VERTEX
  5
C1
330
60
100
AcDbEntity
  8
1_ANYTOOL_1MMDEEP_LABELS_S
100
AcDbVertex
100
AcDb2dVertex
 10
176.4806919642859
 20
14.24429688063935
 30
0.0
  0
VERTEX
  5
C2
330
60
100
AcDbEntity
  8
1_ANYTOOL_1MMDEEP_LABELS_S
100
AcDbVertex
100
AcDb2dVertex
 10
176.6906250000001
 20
13.60930804135342
 30
0.0
  0
VERTEX
  5
C3
330
60
100
AcDbEntity
  8
1_ANYTOOL_1MMDEEP_LABELS_S
100
AcDbVertex
100
AcDb2dVertex
 10
176.92265625
 20
12.98135045206743
 30
0.0
  0
VERTEX
  5
C4
330
60
100
AcDbEntity
  8
1_ANYTOOL_1MMDEEP_LABELS_S
100
AcDbVertex
100
AcDb2dVertex
 10
177.1767857142856
 20
12.3604241127814
 30
0.0
  0
VERTEX
  5
C5
330
60
100
AcDbEntity
  8
1_ANYTOOL_1MMDEEP_LABELS_S
100
AcDbVertex
100
AcDb2dVertex
 10
177.453013392857
 20
11.74652902349533
 30
0.0
  0
VERTEX
  5
C6
330
60
100
AcDbEntity
  8
1_ANYTOOL_1MMDEEP_LABELS_S
100
AcDbVertex
100
AcDb2dVertex
 10
177.751339285714
 20
11.13966518420921
 30
0.0
  0
VERTEX
  5
C7
330
60
100
AcDbEntity
  8
1_ANYTOOL_1MMDEEP_LABELS_S
100
AcDbVertex
100
AcDb2dVertex
 10
178.0717633928567
 20
10.53983259492304
 30
0.0
  0
VERTEX
  5
C8
330
60
100
AcDbEntity
  8
1_ANYTOOL_1MMDEEP_LABELS_S
100
AcDbVertex
100
AcDb2dVertex
 10
178.4142857142851
 20
9.94703125563683
 30
0.0
  0
VERTEX
  5
C9
330
60
100
AcDbEntity
  8
1_ANYTOOL_1MMDEEP_LABELS_S
100
AcDbVertex
100
AcDb2dVertex
 10
178.5965959821423
 20
9.659628911886983
 30
0.0
  0
VERTEX
  5
CA
330
60
100
AcDbEntity
  8
1_ANYTOOL_1MMDEEP_LABELS_S
100
AcDbVertex
100
AcDb2dVertex
 10
178.7845982142852
 20
9.381350452065703
 30
0.0
  0
VERTEX
  5
CB
330
60
100
AcDbEntity
  8
1_ANYTOOL_1MMDEEP_LABELS_S
100
AcDbVertex
100
AcDb2dVertex
 10
178.9782924107137
 20
9.11219587617299
 30
0.0
  0
VERTEX
  5
CC
330
60
100
AcDbEntity
  8
1_ANYTOOL_1MMDEEP_LABELS_S
100
AcDbVertex
100
AcDb2dVertex
 10
179.177678571428
 20
8.852165184208843
 30
0.0
  0
VERTEX
  5
CD
330
60
100
AcDbEntity
  8
1_ANYTOOL_1MMDEEP_LABELS_S
100
AcDbVertex
100
AcDb2dVertex
 10
179.382756696428
 20
8.601258376173263
 30
0.0
  0
VERTEX
  5
CE
330
60
100
AcDbEntity
  8
1_ANYTOOL_1MMDEEP_LABELS_S
100
AcDbVertex
100
AcDb2dVertex
 10
179.5935267857138
 20
8.359475452066249
 30
0.0
  0
VERTEX
  5
CF
330
60
100
AcDbEntity
  8
1_ANYTOOL_1MMDEEP_LABELS_S
100
AcDbVertex
100
AcDb2dVertex
 10
179.8099888392852
 20
8.126816411887802
 30
0.0
  0
VERTEX
  5
D0
330
60
100
AcDbEntity
  8
1_ANYTOOL_1MMDEEP_LABELS_S
100
AcDbVertex
100
AcDb2dVertex
 10
180.0321428571424
 20
7.903281255637921
 30
0.0
  0
VERTEX
  5
D1
330
60
100
AcDbEntity
  8
1_ANYTOOL_1MMDEEP_LABELS_S
100
AcDbVertex
100
AcDb2dVertex
 10
180.2599888392853
 20
7.688869983316607
 30
0.0
  0
VERTEX
  5
D2
330
60
100
AcDbEntity
  8
1_ANYTOOL_1MMDEEP_LABELS_S
100
AcDbVertex
100
AcDb2dVertex
 10
180.4935267857139
 20
7.48358259492386
 30
0.0
  0
VERTEX
  5
D3
330
60
100
AcDbEntity
  8
1_ANYTOOL_1MMDEEP_LABELS_S
100
AcDbVertex
100
AcDb2dVertex
 10
180.7327566964282
 20
7.287419090459679
 30
0.0
  0
VERTEX
  5
D4
330
60
100
AcDbEntity
  8
1_ANYTOOL_1MMDEEP_LABELS_S
100
AcDbVertex
100
AcDb2dVertex
 10
180.9776785714282
 20
7.100379469924064
 30
0.0
  0
VERTEX
  5
D5
330
60
100
AcDbEntity
  8
1_ANYTOOL_1MMDEEP_LABELS_S
100
AcDbVertex
100
AcDb2dVertex
 10
181.1022739955354
 20
7.01028111612947
 30
0.0
  0
VERTEX
  5
D6
330
60
100
AcDbEntity
  8
1_ANYTOOL_1MMDEEP_LABELS_S
100
AcDbVertex
100
AcDb2dVertex
 10
181.2282924107139
 20
6.922463733317016
 30
0.0
  0
VERTEX
  5
D7
330
60
100
AcDbEntity
  8
1_ANYTOOL_1MMDEEP_LABELS_S
100
AcDbVertex
100
AcDb2dVertex
 10
181.355733816964
 20
6.836927321486705
 30
0.0
  0
VERTEX
  5
D8
330
60
100
AcDbEntity
  8
1_ANYTOOL_1MMDEEP_LABELS_S
100
AcDbVertex
100
AcDb2dVertex
 10
181.4845982142854
 20
6.753671880638535
 30
0.0
  0
VERTEX
  5
D9
330
60
100
AcDbEntity
  8
1_ANYTOOL_1MMDEEP_LABELS_S
100
AcDbVertex
100
AcDb2dVertex
 10
181.6148856026783
 20
6.672697410772507
 30
0.0
  0
VERTEX
  5
DA
330
60
100
AcDbEntity
  8
1_ANYTOOL_1MMDEEP_LABELS_S
100
AcDbVertex
100
AcDb2dVertex
 10
181.7465959821426
 20
6.59400391188862
 30
0.0
  0
VERTEX
  5
DB
330
60
100
AcDbEntity
  8
1_ANYTOOL_1MMDEEP_LABELS_S
100
AcDbVertex
100
AcDb2dVertex
 10
181.8797293526783
 20
6.517591383986876
 30
0.0
  0
VERTEX
  5
DC
330
60
100
AcDbEntity
  8
1_ANYTOOL_1MMDEEP_LABELS_S
100
AcDbVertex
100
AcDb2dVertex
 10
182.0142857142855
 20
6.443459827067272
 30
0.0
  0
VERTEX
  5
DD
330
60
100
AcDbEntity
  8
1_ANYTOOL_1MMDEEP_LABELS_S
100
AcDbVertex
100
AcDb2dVertex
 10
182.2876674107141
 20
6.302039626174491
 30
0.0
  0
VERTEX
  5
DE
330
60
100
AcDbEntity
  8
1_ANYTOOL_1MMDEEP_LABELS_S
100
AcDbVertex
100
AcDb2dVertex
 10
182.5667410714285
 20
6.169743309210276
 30
0.0
  0
VERTEX
  5
DF
330
60
100
AcDbEntity
  8
1_ANYTOOL_1MMDEEP_LABELS_S
100
AcDbVertex
100
AcDb2dVertex
 10
182.8515066964285
 20
6.046570876174627
 30
0.0
  0
VERTEX
  5
E0
330
60
100
AcDbEntity
  8
1_ANYTOOL_1MMDEEP_LABELS_S
100
AcDbVertex
100
AcDb2dVertex
 10
183.1419642857143
 20
5.932522327067545
 30
0.0
  0
VERTEX
  5
E1
330
60
100
AcDbEntity
  8
1_ANYTOOL_1MMDEEP_LABELS_S
100
AcDbVertex
100
AcDb2dVertex
 10
183.4381138392857
 20
5.82759766188903
 30
0.0
  0
VERTEX
  5
E2
330
60
100
AcDbEntity
  8
1_ANYTOOL_1MMDEEP_LABELS_S
100
AcDbVertex
100
AcDb2dVertex
 10
183.7399553571429
 20
5.731796880639081
 30
0.0
  0
VERTEX
  5
E3
330
60
100
AcDbEntity
  8
1_ANYTOOL_1MMDEEP_LABELS_S
100
AcDbVertex
100
AcDb2dVertex
 10
184.0474888392858
 20
5.645119983317699
 30
0.0
  0
VERTEX
  5
E4
330
60
100
AcDbEntity
  8
1_ANYTOOL_1MMDEEP_LABELS_S
100
AcDbVertex
100
AcDb2dVertex
 10
184.3607142857145
 20
5.567566969924883
 30
0.0
  0
VERTEX
  5
E5
330
60
100
AcDbEntity
  8
1_ANYTOOL_1MMDEEP_LABELS_S
100
AcDbVertex
100
AcDb2dVertex
 10
184.6796316964288
 20
5.499137840460634
 30
0.0
  0
VERTEX
  5
E6
330
60
100
AcDbEntity
  8
1_ANYTOOL_1MMDEEP_LABELS_S
100
AcDbVertex
100
AcDb2dVertex
 10
185.0042410714289
 20
5.439832594924951
 30
0.0
  0
VERTEX
  5
E7
330
60
100
AcDbEntity
  8
1_ANYTOOL_1MMDEEP_LABELS_S
100
AcDbVertex
100
AcDb2dVertex
 10
185.3345424107147
 20
5.389651233317835
 30
0.0
  0
VERTEX
  5
E8
330
60
100
AcDbEntity
  8
1_ANYTOOL_1MMDEEP_LABELS_S
100
AcDbVertex
100
AcDb2dVertex
 10
185.6705357142862
 20
5.348593755639286
 30
0.0
  0
VERTEX
  5
E9
330
60
100
AcDbEntity
  8
1_ANYTOOL_1MMDEEP_LABELS_S
100
AcDbVertex
100
AcDb2dVertex
 10
186.0122209821434
 20
5.316660161889303
 30
0.0
  0
VERTEX
  5
EA
330
60
100
AcDbEntity
  8
1_ANYTOOL_1MMDEEP_LABELS_S
100
AcDbVertex
100
AcDb2dVertex
 10
186.3595982142863
 20
5.293850452067886
 30
0.0
  0
VERTEX
  5
EB
330
60
100
AcDbEntity
  8
1_ANYTOOL_1MMDEEP_LABELS_S
100
AcDbVertex
100
AcDb2dVertex
 10
186.712667410715
 20
5.280164626175036
 30
0.0
  0
VERTEX
  5
EC
330
60
100
AcDbEntity
  8
1_ANYTOOL_1MMDEEP_LABELS_S
100
AcDbVertex
100
AcDb2dVertex
 10
187.0714285714294
 20
5.275602684210753
 30
0.0
  0
VERTEX
  5
ED
330
60
100
AcDbEntity
  8
1_ANYTOOL_1MMDEEP_LABELS_S
100
AcDbVertex
100
AcDb2dVertex
 10
187.4534598214292
 20
5.281964291353603
 30
0.0
  0
VERTEX
  5
EE
330
60
100
AcDbEntity
  8
1_ANYTOOL_1MMDEEP_LABELS_S
100
AcDbVertex
100
AcDb2dVertex
 10
187.8281250000005
 20
5.301049112782152
 30
0.0
  0
VERTEX
  5
EF
330
60
100
AcDbEntity
  8
1_ANYTOOL_1MMDEEP_LABELS_S
100
AcDbVertex
100
AcDb2dVertex
 10
188.0126953125004
 20
5.315362728853565
 30
0.0
  0
VERTEX
  5
F0
330
60
100
AcDbEntity
  8
1_ANYTOOL_1MMDEEP_LABELS_S
100
AcDbVertex
100
AcDb2dVertex
 10
188.1954241071432
 20
5.332857148496402
 30
0.0
  0
VERTEX
  5
F1
330
60
100
AcDbEntity
  8
1_ANYTOOL_1MMDEEP_LABELS_S
100
AcDbVertex
100
AcDb2dVertex
 10
188.3763113839289
 20
5.353532371710664
 30
0.0
  0
VERTEX
  5
F2
330
60
100
AcDbEntity
  8
1_ANYTOOL_1MMDEEP_LABELS_S
100
AcDbVertex
100
AcDb2dVertex
 10
188.5553571428574
 20
5.37738839849635
 30
0.0
  0
VERTEX
  5
F3
330
60
100
AcDbEntity
  8
1_ANYTOOL_1MMDEEP_LABELS_S
100
AcDbVertex
100
AcDb2dVertex
 10
188.7325613839287
 20
5.404425228853462
 30
0.0
  0
VERTEX
  5
F4
330
60
100
AcDbEntity
  8
1_ANYTOOL_1MMDEEP_LABELS_S
100
AcDbVertex
100
AcDb2dVertex
 10
188.9079241071429
 20
5.434642862781999
 30
0.0
  0
VERTEX
  5
F5
330
60
100
AcDbEntity
  8
1_ANYTOOL_1MMDEEP_LABELS_S
100
AcDbVertex
100
AcDb2dVertex
 10
189.0814453125
 20
5.468041300281961
 30
0.0
  0
VERTEX
  5
F6
330
60
100
AcDbEntity
  8
1_ANYTOOL_1MMDEEP_LABELS_S
100
AcDbVertex
100
AcDb2dVertex
 10
189.253125
 20
5.504620541353347
 30
0.0
  0
VERTEX
  5
F7
330
60
100
AcDbEntity
  8
1_ANYTOOL_1MMDEEP_LABELS_S
100
AcDbVertex
100
AcDb2dVertex
 10
189.4229631696428
 20
5.544380585996159
 30
0.0
  0
VERTEX
  5
F8
330
60
100
AcDbEntity
  8
1_ANYTOOL_1MMDEEP_LABELS_S
100
AcDbVertex
100
AcDb2dVertex
 10
189.5909598214284
 20
5.587321434210395
 30
0.0
  0
VERTEX
  5
F9
330
60
100
AcDbEntity
  8
1_ANYTOOL_1MMDEEP_LABELS_S
100
AcDbVertex
100
AcDb2dVertex
 10
189.757114955357
 20
5.633443085996056
 30
0.0
  0
VERTEX
  5
FA
330
60
100
AcDbEntity
  8
1_ANYTOOL_1MMDEEP_LABELS_S
100
AcDbVertex
100
AcDb2dVertex
 10
189.9214285714284
 20
5.682745541353142
 30
0.0
  0
VERTEX
  5
FB
330
60
100
AcDbEntity
  8
1_ANYTOOL_1MMDEEP_LABELS_S
100
AcDbVertex
100
AcDb2dVertex
 10
190.0839006696426
 20
5.735228800281654
 30
0.0
  0
VERTEX
  5
FC
330
60
100
AcDbEntity
  8
1_ANYTOOL_1MMDEEP_LABELS_S
100
AcDbVertex
100
AcDb2dVertex
 10
190.2445312499997
 20
5.79089286278159
 30
0.0
  0
VERTEX
  5
FD
330
60
100
AcDbEntity
  8
1_ANYTOOL_1MMDEEP_LABELS_S
100
AcDbVertex
100
AcDb2dVertex
 10
190.4033203124997
 20
5.849737728852951
 30
0.0
  0
VERTEX
  5
FE
330
60
100
AcDbEntity
  8
1_ANYTOOL_1MMDEEP_LABELS_S
100
AcDbVertex
100
AcDb2dVertex
 10
190.5602678571425
 20
5.911763398495737
 30
0.0
  0
VERTEX
  5
FF
330
60
100
AcDbEntity
  8
1_ANYTOOL_1MMDEEP_LABELS_S
100
AcDbVertex
100
AcDb2dVertex
 10
190.7153738839281
 20
5.976969871709947
 30
0.0
  0
VERTEX
  5
100
330
60
100
AcDbEntity
  8
1_ANYTOOL_1MMDEEP_LABELS_S
100
AcDbVertex
100
AcDb2dVertex
 10
190.8686383928567
 20
6.045357148495583
 30
0.0
  0
VERTEX
  5
101
330
60
100
AcDbEntity
  8
1_ANYTOOL_1MMDEEP_LABELS_S
100
AcDbVertex
100
AcDb2dVertex
 10
191.0200613839281
 20
6.116925228852644
 30
0.0
  0
VERTEX
  5
102
330
60
100
AcDbEntity
  8
1_ANYTOOL_1MMDEEP_LABELS_S
100
AcDbVertex
100
AcDb2dVertex
 10
191.1696428571423
 20
6.191674112781129
 30
0.0
  0
VERTEX
  5
103
330
60
100
AcDbEntity
  8
1_ANYTOOL_1MMDEEP_LABELS_S
100
AcDbVertex
100
AcDb2dVertex
 10
191.3173828124994
 20
6.26960380028104
 30
0.0
  0
VERTEX
  5
104
330
60
100
AcDbEntity
  8
1_ANYTOOL_1MMDEEP_LABELS_S
100
AcDbVertex
100
AcDb2dVertex
 10
191.4632812499994
 20
6.350714291352375
 30
0.0
  0
VERTEX
  5
105
330
60
100
AcDbEntity
  8
1_ANYTOOL_1MMDEEP_LABELS_S
100
AcDbVertex
100
AcDb2dVertex
 10
191.6073381696422
 20
6.435005585995135
 30
0.0
  0
VERTEX
  5
106
330
60
100
AcDbEntity
  8
1_ANYTOOL_1MMDEEP_LABELS_S
100
AcDbVertex
100
AcDb2dVertex
 10
191.7495535714279
 20
6.522477684209321
 30
0.0
  0
VERTEX
  5
107
330
60
100
AcDbEntity
  8
1_ANYTOOL_1MMDEEP_LABELS_S
100
AcDbVertex
100
AcDb2dVertex
 10
191.8899274553565
 20
6.613130585994931
 30
0.0
  0
VERTEX
  5
108
330
60
100
AcDbEntity
  8
1_ANYTOOL_1MMDEEP_LABELS_S
100
AcDbVertex
100
AcDb2dVertex
 10
192.0284598214279
 20
6.706964291351966
 30
0.0
  0
VERTEX
  5
109
330
60
100
AcDbEntity
  8
1_ANYTOOL_1MMDEEP_LABELS_S
100
AcDbVertex
100
AcDb2dVertex
 10
192.1651506696421
 20
6.803978800280426
 30
0.0
  0
VERTEX
  5
10A
330
60
100
AcDbEntity
  8
1_ANYTOOL_1MMDEEP_LABELS_S
100
AcDbVertex
100
AcDb2dVertex
 10
192.2999999999993
 20
6.904174112780311
 30
0.0
  0
VERTEX
  5
10B
330
60
100
AcDbEntity
  8
1_ANYTOOL_1MMDEEP_LABELS_S
100
AcDbVertex
100
AcDb2dVertex
 10
192.565178571428
 20
7.111428577066675
 30
0.0
  0
VERTEX
  5
10C
330
60
100
AcDbEntity
  8
1_ANYTOOL_1MMDEEP_LABELS_S
100
AcDbVertex
100
AcDb2dVertex
 10
192.8249999999996
 20
7.326049112781561
 30
0.0
  0
VERTEX
  5
10D
330
60
100
AcDbEntity
  8
1_ANYTOOL_1MMDEEP_LABELS_S
100
AcDbVertex
100
AcDb2dVertex
 10
193.079464285714
 20
7.548035719924968
 30
0.0
  0
VERTEX
  5
10E
330
60
100
AcDbEntity
  8
1_ANYTOOL_1MMDEEP_LABELS_S
100
AcDbVertex
100
AcDb2dVertex
 10
193.3285714285713
 20
7.777388398496896
 30
0.0
  0
VERTEX
  5
10F
330
60
100
AcDbEntity
  8
1_ANYTOOL_1MMDEEP_LABELS_S
100
AcDbVertex
100
AcDb2dVertex
 10
193.5723214285714
 20
8.014107148497345
 30
0.0
  0
VERTEX
  5
110
330
60
100
AcDbEntity
  8
1_ANYTOOL_1MMDEEP_LABELS_S
100
AcDbVertex
100
AcDb2dVertex
 10
193.8107142857143
 20
8.258191969926315
 30
0.0
  0
VERTEX
  5
111
330
60
100
AcDbEntity
  8
1_ANYTOOL_1MMDEEP_LABELS_S
100
AcDbVertex
100
AcDb2dVertex
 10
194.0437500000001
 20
8.509642862783807
 30
0.0
  0
VERTEX
  5
112
330
60
100
AcDbEntity
  8
1_ANYTOOL_1MMDEEP_LABELS_S
100
AcDbVertex
100
AcDb2dVertex
 10
194.2714285714287
 20
8.768459827069819
 30
0.0
  0
VERTEX
  5
113
330
60
100
AcDbEntity
  8
1_ANYTOOL_1MMDEEP_LABELS_S
100
AcDbVertex
100
AcDb2dVertex
 10
194.4937500000001
 20
9.034642862784352
 30
0.0
  0
VERTEX
  5
114
330
60
100
AcDbEntity
  8
1_ANYTOOL_1MMDEEP_LABELS_S
100
AcDbVertex
100
AcDb2dVertex
 10
194.7107142857144
 20
9.308191969927407
 30
0.0
  0
VERTEX
  5
115
330
60
100
AcDbEntity
  8
1_ANYTOOL_1MMDEEP_LABELS_S
100
AcDbVertex
100
AcDb2dVertex
 10
194.9223214285715
 20
9.589107148498982
 30
0.0
  0
VERTEX
  5
116
330
60
100
AcDbEntity
  8
1_ANYTOOL_1MMDEEP_LABELS_S
100
AcDbVertex
100
AcDb2dVertex
 10
195.1285714285715
 20
9.877388398499079
 30
0.0
  0
VERTEX
  5
117
330
60
100
AcDbEntity
  8
1_ANYTOOL_1MMDEEP_LABELS_S
100
AcDbVertex
100
AcDb2dVertex
 10
195.3294642857143
 20
10.1730357199277
 30
0.0
  0
VERTEX
  5
118
330
60
100
AcDbEntity
  8
1_ANYTOOL_1MMDEEP_LABELS_S
100
AcDbVertex
100
AcDb2dVertex
 10
195.5249999999999
 20
10.47604911278484
 30
0.0
  0
VERTEX
  5
119
330
60
100
AcDbEntity
  8
1_ANYTOOL_1MMDEEP_LABELS_S
100
AcDbVertex
100
AcDb2dVertex
 10
195.7151785714283
 20
10.7864285770705
 30
0.0
  0
VERTEX
  5
11A
330
60
100
AcDbEntity
  8
1_ANYTOOL_1MMDEEP_LABELS_S
100
AcDbVertex
100
AcDb2dVertex
 10
195.8999999999996
 20
11.10417411278468
 30
0.0
  0
SEQEND
  5
11B
330
60
100
AcDbEntity
  8
1_ANYTOOL_1MMDEEP_LABELS_S
  0
LINE
  5
11C
330
1F
100
AcDbEntity
  8
1_ANYTOOL_1MMDEEP_LABELS_S
100
AcDbLine
 10
172.971428571429
 20
34.80417411278177
 30
0.0
 11
155.7857142857138
 21
4.032745541357144
 31
0.0
  0
POLYLINE
  5
11D
330
1F
100
AcDbEntity
  8
1_ANYTOOL_1MMDEEP_LABELS_S
100
AcDb2dPolyline
 66
     1
 10
0.0
 20
0.0
 30
0.0
  0
VERTEX
  5
11E
330
11D
100
AcDbEntity
  8
1_ANYTOOL_1MMDEEP_LABELS_S
100
AcDbVertex
100
AcDb2dVertex
 10
151.7571428571428
 20
5.318459827067272
 30
0.0
  0
VERTEX
  5
11F
330
11D
100
AcDbEntity
  8
1_ANYTOOL_1MMDEEP_LABELS_S
100
AcDbVertex
100
AcDb2dVertex
 10
133.4571428571435
 20
5.361316969923791
 30
0.0
  0
VERTEX
  5
120
330
11D
100
AcDbEntity
  8
1_ANYTOOL_1MMDEEP_LABELS_S
100
AcDbVertex
100
AcDb2dVertex
 10
133.6034598214292
 20
5.81717634492432
 30
0.0
  0
VERTEX
  5
121
330
11D
100
AcDbEntity
  8
1_ANYTOOL_1MMDEEP_LABELS_S
100
AcDbVertex
100
AcDb2dVertex
 10
133.7638392857149
 20
6.263325898496191
 30
0.0
  0
VERTEX
  5
122
330
11D
100
AcDbEntity
  8
1_ANYTOOL_1MMDEEP_LABELS_S
100
AcDbVertex
100
AcDb2dVertex
 10
133.8493024553578
 20
6.48275949224638
 30
0.0
  0
VERTEX
  5
123
330
11D
100
AcDbEntity
  8
1_ANYTOOL_1MMDEEP_LABELS_S
100
AcDbVertex
100
AcDb2dVertex
 10
133.9382812500007
 20
6.699765630639405
 30
0.0
  0
VERTEX
  5
124
330
11D
100
AcDbEntity
  8
1_ANYTOOL_1MMDEEP_LABELS_S
100
AcDbVertex
100
AcDb2dVertex
 10
134.0307756696435
 20
6.914344313675265
 30
0.0
  0
VERTEX
  5
125
330
11D
100
AcDbEntity
  8
1_ANYTOOL_1MMDEEP_LABELS_S
100
AcDbVertex
100
AcDb2dVertex
 10
134.1267857142864
 20
7.126495541353961
 30
0.0
  0
VERTEX
  5
126
330
11D
100
AcDbEntity
  8
1_ANYTOOL_1MMDEEP_LABELS_S
100
AcDbVertex
100
AcDb2dVertex
 10
134.2263113839292
 20
7.336219313675493
 30
0.0
  0
VERTEX
  5
127
330
11D
100
AcDbEntity
  8
1_ANYTOOL_1MMDEEP_LABELS_S
100
AcDbVertex
100
AcDb2dVertex
 10
134.3293526785721
 20
7.54351563063986
 30
0.0
  0
VERTEX
  5
128
330
11D
100
AcDbEntity
  8
1_ANYTOOL_1MMDEEP_LABELS_S
100
AcDbVertex
100
AcDb2dVertex
 10
134.4359095982149
 20
7.748384492247062
 30
0.0
  0
VERTEX
  5
129
330
11D
100
AcDbEntity
  8
1_ANYTOOL_1MMDEEP_LABELS_S
100
AcDbVertex
100
AcDb2dVertex
 10
134.5459821428578
 20
7.950825898497101
 30
0.0
  0
VERTEX
  5
12A
330
11D
100
AcDbEntity
  8
1_ANYTOOL_1MMDEEP_LABELS_S
100
AcDbVertex
100
AcDb2dVertex
 10
134.6595703125006
 20
8.150839849389975
 30
0.0
  0
VERTEX
  5
12B
330
11D
100
AcDbEntity
  8
1_ANYTOOL_1MMDEEP_LABELS_S
100
AcDbVertex
100
AcDb2dVertex
 10
134.7766741071435
 20
8.348426344925684
 30
0.0
  0
VERTEX
  5
12C
330
11D
100
AcDbEntity
  8
1_ANYTOOL_1MMDEEP_LABELS_S
100
AcDbVertex
100
AcDb2dVertex
 10
134.8972935267863
 20
8.54358538510423
 30
0.0
  0
VERTEX
  5
12D
330
11D
100
AcDbEntity
  8
1_ANYTOOL_1MMDEEP_LABELS_S
100
AcDbVertex
100
AcDb2dVertex
 10
135.0214285714292
 20
8.73631696992561
 30
0.0
  0
VERTEX
  5
12E
330
11D
100
AcDbEntity
  8
1_ANYTOOL_1MMDEEP_LABELS_S
100
AcDbVertex
100
AcDb2dVertex
 10
135.149079241072
 20
8.926621099389827
 30
0.0
  0
VERTEX
  5
12F
330
11D
100
AcDbEntity
  8
1_ANYTOOL_1MMDEEP_LABELS_S
100
AcDbVertex
100
AcDb2dVertex
 10
135.2802455357149
 20
9.114497773496879
 30
0.0
  0
VERTEX
  5
130
330
11D
100
AcDbEntity
  8
1_ANYTOOL_1MMDEEP_LABELS_S
100
AcDbVertex
100
AcDb2dVertex
 10
135.4149274553577
 20
9.299946992246767
 30
0.0
  0
VERTEX
  5
131
330
11D
100
AcDbEntity
  8
1_ANYTOOL_1MMDEEP_LABELS_S
100
AcDbVertex
100
AcDb2dVertex
 10
135.5531250000005
 20
9.48296875563949
 30
0.0
  0
VERTEX
  5
132
330
11D
100
AcDbEntity
  8
1_ANYTOOL_1MMDEEP_LABELS_S
100
AcDbVertex
100
AcDb2dVertex
 10
135.6948381696434
 20
9.66356306367505
 30
0.0
  0
VERTEX
  5
133
330
11D
100
AcDbEntity
  8
1_ANYTOOL_1MMDEEP_LABELS_S
100
AcDbVertex
100
AcDb2dVertex
 10
135.8400669642862
 20
9.841729916353444
 30
0.0
  0
VERTEX
  5
134
330
11D
100
AcDbEntity
  8
1_ANYTOOL_1MMDEEP_LABELS_S
100
AcDbVertex
100
AcDb2dVertex
 10
135.988811383929
 20
10.01746931367467
 30
0.0
  0
VERTEX
  5
135
330
11D
100
AcDbEntity
  8
1_ANYTOOL_1MMDEEP_LABELS_S
100
AcDbVertex
100
AcDb2dVertex
 10
136.1410714285719
 20
10.19078125563874
 30
0.0
  0
VERTEX
  5
136
330
11D
100
AcDbEntity
  8
1_ANYTOOL_1MMDEEP_LABELS_S
100
AcDbVertex
100
AcDb2dVertex
 10
136.2968470982147
 20
10.36166574224564
 30
0.0
  0
VERTEX
  5
137
330
11D
100
AcDbEntity
  8
1_ANYTOOL_1MMDEEP_LABELS_S
100
AcDbVertex
100
AcDb2dVertex
 10
136.4561383928576
 20
10.53012277349538
 30
0.0
  0
VERTEX
  5
138
330
11D
100
AcDbEntity
  8
1_ANYTOOL_1MMDEEP_LABELS_S
100
AcDbVertex
100
AcDb2dVertex
 10
136.6189453125004
 20
10.69615234938795
 30
0.0
  0
VERTEX
  5
139
330
11D
100
AcDbEntity
  8
1_ANYTOOL_1MMDEEP_LABELS_S
100
AcDbVertex
100
AcDb2dVertex
 10
136.7852678571432
 20
10.85975446992336
 30
0.0
  0
VERTEX
  5
13A
330
11D
100
AcDbEntity
  8
1_ANYTOOL_1MMDEEP_LABELS_S
100
AcDbVertex
100
AcDb2dVertex
 10
136.955106026786
 20
11.0209291351016
 30
0.0
  0
VERTEX
  5
13B
330
11D
100
AcDbEntity
  8
1_ANYTOOL_1MMDEEP_LABELS_S
100
AcDbVertex
100
AcDb2dVertex
 10
137.1284598214289
 20
11.17967634492268
 30
0.0
  0
VERTEX
  5
13C
330
11D
100
AcDbEntity
  8
1_ANYTOOL_1MMDEEP_LABELS_S
100
AcDbVertex
100
AcDb2dVertex
 10
137.3053292410717
 20
11.3359960993866
 30
0.0
  0
VERTEX
  5
13D
330
11D
100
AcDbEntity
  8
1_ANYTOOL_1MMDEEP_LABELS_S
100
AcDbVertex
100
AcDb2dVertex
 10
137.4857142857145
 20
11.48988839849335
 30
0.0
  0
VERTEX
  5
13E
330
11D
100
AcDbEntity
  8
1_ANYTOOL_1MMDEEP_LABELS_S
100
AcDbVertex
100
AcDb2dVertex
 10
140.4642857142862
 20
13.91131696992306
 30
0.0
  0
VERTEX
  5
13F
330
11D
100
AcDbEntity
  8
1_ANYTOOL_1MMDEEP_LABELS_S
100
AcDbVertex
100
AcDb2dVertex
 10
143.4857142857145
 20
16.20417411278322
 30
0.0
  0
VERTEX
  5
140
330
11D
100
AcDbEntity
  8
1_ANYTOOL_1MMDEEP_LABELS_S
100
AcDbVertex
100
AcDb2dVertex
 10
144.2457589285717
 20
16.76533482706816
 30
0.0
  0
VERTEX
  5
141
330
11D
100
AcDbEntity
  8
1_ANYTOOL_1MMDEEP_LABELS_S
100
AcDbVertex
100
AcDb2dVertex
 10
144.9830357142861
 20
17.33453125563892
 30
0.0
  0
VERTEX
  5
142
330
11D
100
AcDbEntity
  8
1_ANYTOOL_1MMDEEP_LABELS_S
100
AcDbVertex
100
AcDb2dVertex
 10
145.6975446428575
 20
17.91176339849551
 30
0.0
  0
VERTEX
  5
143
330
11D
100
AcDbEntity
  8
1_ANYTOOL_1MMDEEP_LABELS_S
100
AcDbVertex
100
AcDb2dVertex
 10
146.389285714286
 20
18.49703125563792
 30
0.0
  0
VERTEX
  5
144
330
11D
100
AcDbEntity
  8
1_ANYTOOL_1MMDEEP_LABELS_S
100
AcDbVertex
100
AcDb2dVertex
 10
147.0582589285715
 20
19.09033482706616
 30
0.0
  0
VERTEX
  5
145
330
11D
100
AcDbEntity
  8
1_ANYTOOL_1MMDEEP_LABELS_S
100
AcDbVertex
100
AcDb2dVertex
 10
147.7044642857142
 20
19.69167411278022
 30
0.0
  0
VERTEX
  5
146
330
11D
100
AcDbEntity
  8
1_ANYTOOL_1MMDEEP_LABELS_S
100
AcDbVertex
100
AcDb2dVertex
 10
148.3279017857139
 20
20.30104911278011
 30
0.0
  0
VERTEX
  5
147
330
11D
100
AcDbEntity
  8
1_ANYTOOL_1MMDEEP_LABELS_S
100
AcDbVertex
100
AcDb2dVertex
 10
148.9285714285706
 20
20.91845982706582
 30
0.0
  0
VERTEX
  5
148
330
11D
100
AcDbEntity
  8
1_ANYTOOL_1MMDEEP_LABELS_S
100
AcDbVertex
100
AcDb2dVertex
 10
149.0735909598206
 20
21.07494699224441
 30
0.0
  0
VERTEX
  5
149
330
11D
100
AcDbEntity
  8
1_ANYTOOL_1MMDEEP_LABELS_S
100
AcDbVertex
100
AcDb2dVertex
 10
149.2140066964278
 20
21.23369420206586
 30
0.0
  0
VERTEX
  5
14A
330
11D
100
AcDbEntity
  8
1_ANYTOOL_1MMDEEP_LABELS_S
100
AcDbVertex
100
AcDb2dVertex
 10
149.3498186383921
 20
21.39470145653019
 30
0.0
  0
VERTEX
  5
14B
330
11D
100
AcDbEntity
  8
1_ANYTOOL_1MMDEEP_LABELS_S
100
AcDbVertex
100
AcDb2dVertex
 10
149.4810267857136
 20
21.55796875563738
 30
0.0
  0
VERTEX
  5
14C
330
11D
100
AcDbEntity
  8
1_ANYTOOL_1MMDEEP_LABELS_S
100
AcDbVertex
100
AcDb2dVertex
 10
149.6076311383922
 20
21.72349609938743
 30
0.0
  0
VERTEX
  5
14D
330
11D
100
AcDbEntity
  8
1_ANYTOOL_1MMDEEP_LABELS_S
100
AcDbVertex
100
AcDb2dVertex
 10
149.7296316964279
 20
21.89128348778036
 30
0.0
  0
VERTEX
  5
14E
330
11D
100
AcDbEntity
  8
1_ANYTOOL_1MMDEEP_LABELS_S
100
AcDbVertex
100
AcDb2dVertex
 10
149.8470284598208
 20
22.06133092081615
 30
0.0
  0
VERTEX
  5
14F
330
11D
100
AcDbEntity
  8
1_ANYTOOL_1MMDEEP_LABELS_S
100
AcDbVertex
100
AcDb2dVertex
 10
149.9598214285708
 20
22.2336383984948
 30
0.0
  0
VERTEX
  5
150
330
11D
100
AcDbEntity
  8
1_ANYTOOL_1MMDEEP_LABELS_S
100
AcDbVertex
100
AcDb2dVertex
 10
150.0680106026779
 20
22.40820592081633
 30
0.0
  0
VERTEX
  5
151
330
11D
100
AcDbEntity
  8
1_ANYTOOL_1MMDEEP_LABELS_S
100
AcDbVertex
100
AcDb2dVertex
 10
150.1715959821422
 20
22.58503348778072
 30
0.0
  0
VERTEX
  5
152
330
11D
100
AcDbEntity
  8
1_ANYTOOL_1MMDEEP_LABELS_S
100
AcDbVertex
100
AcDb2dVertex
 10
150.2705775669637
 20
22.76412109938798
 30
0.0
  0
VERTEX
  5
153
330
11D
100
AcDbEntity
  8
1_ANYTOOL_1MMDEEP_LABELS_S
100
AcDbVertex
100
AcDb2dVertex
 10
150.3649553571422
 20
22.9454687556381
 30
0.0
  0
VERTEX
  5
154
330
11D
100
AcDbEntity
  8
1_ANYTOOL_1MMDEEP_LABELS_S
100
AcDbVertex
100
AcDb2dVertex
 10
150.454729352678
 20
23.1290764565311
 30
0.0
  0
VERTEX
  5
155
330
11D
100
AcDbEntity
  8
1_ANYTOOL_1MMDEEP_LABELS_S
100
AcDbVertex
100
AcDb2dVertex
 10
150.5398995535708
 20
23.31494420206695
 30
0.0
  0
VERTEX
  5
156
330
11D
100
AcDbEntity
  8
1_ANYTOOL_1MMDEEP_LABELS_S
100
AcDbVertex
100
AcDb2dVertex
 10
150.6204659598208
 20
23.50307199224568
 30
0.0
  0
VERTEX
  5
157
330
11D
100
AcDbEntity
  8
1_ANYTOOL_1MMDEEP_LABELS_S
100
AcDbVertex
100
AcDb2dVertex
 10
150.696428571428
 20
23.69345982706727
 30
0.0
  0
VERTEX
  5
158
330
11D
100
AcDbEntity
  8
1_ANYTOOL_1MMDEEP_LABELS_S
100
AcDbVertex
100
AcDb2dVertex
 10
150.7677873883923
 20
23.88610770653173
 30
0.0
  0
VERTEX
  5
159
330
11D
100
AcDbEntity
  8
1_ANYTOOL_1MMDEEP_LABELS_S
100
AcDbVertex
100
AcDb2dVertex
 10
150.8345424107137
 20
24.08101563063906
 30
0.0
  0
VERTEX
  5
15A
330
11D
100
AcDbEntity
  8
1_ANYTOOL_1MMDEEP_LABELS_S
100
AcDbVertex
100
AcDb2dVertex
 10
150.8966936383923
 20
24.27818359938925
 30
0.0
  0
VERTEX
  5
15B
330
11D
100
AcDbEntity
  8
1_ANYTOOL_1MMDEEP_LABELS_S
100
AcDbVertex
100
AcDb2dVertex
 10
150.954241071428
 20
24.47761161278231
 30
0.0
  0
VERTEX
  5
15C
330
11D
100
AcDbEntity
  8
1_ANYTOOL_1MMDEEP_LABELS_S
100
AcDbVertex
100
AcDb2dVertex
 10
151.0071847098209
 20
24.67929967081824
 30
0.0
  0
VERTEX
  5
15D
330
11D
100
AcDbEntity
  8
1_ANYTOOL_1MMDEEP_LABELS_S
100
AcDbVertex
100
AcDb2dVertex
 10
151.0555245535709
 20
24.88324777349703
 30
0.0
  0
VERTEX
  5
15E
330
11D
100
AcDbEntity
  8
1_ANYTOOL_1MMDEEP_LABELS_S
100
AcDbVertex
100
AcDb2dVertex
 10
151.099260602678
 20
25.08945592081869
 30
0.0
  0
VERTEX
  5
15F
330
11D
100
AcDbEntity
  8
1_ANYTOOL_1MMDEEP_LABELS_S
100
AcDbVertex
100
AcDb2dVertex
 10
151.1383928571423
 20
25.29792411278322
 30
0.0
  0
VERTEX
  5
160
330
11D
100
AcDbEntity
  8
1_ANYTOOL_1MMDEEP_LABELS_S
100
AcDbVertex
100
AcDb2dVertex
 10
151.1729213169638
 20
25.50865234939062
 30
0.0
  0
VERTEX
  5
161
330
11D
100
AcDbEntity
  8
1_ANYTOOL_1MMDEEP_LABELS_S
100
AcDbVertex
100
AcDb2dVertex
 10
151.2028459821423
 20
25.72164063064088
 30
0.0
  0
VERTEX
  5
162
330
11D
100
AcDbEntity
  8
1_ANYTOOL_1MMDEEP_LABELS_S
100
AcDbVertex
100
AcDb2dVertex
 10
151.228166852678
 20
25.93688895653401
 30
0.0
  0
VERTEX
  5
163
330
11D
100
AcDbEntity
  8
1_ANYTOOL_1MMDEEP_LABELS_S
100
AcDbVertex
100
AcDb2dVertex
 10
151.2488839285709
 20
26.15439732707
 30
0.0
  0
VERTEX
  5
164
330
11D
100
AcDbEntity
  8
1_ANYTOOL_1MMDEEP_LABELS_S
100
AcDbVertex
100
AcDb2dVertex
 10
151.2649972098209
 20
26.37416574224886
 30
0.0
  0
VERTEX
  5
165
330
11D
100
AcDbEntity
  8
1_ANYTOOL_1MMDEEP_LABELS_S
100
AcDbVertex
100
AcDb2dVertex
 10
151.276506696428
 20
26.59619420207059
 30
0.0
  0
VERTEX
  5
166
330
11D
100
AcDbEntity
  8
1_ANYTOOL_1MMDEEP_LABELS_S
100
AcDbVertex
100
AcDb2dVertex
 10
151.2834123883923
 20
26.82048270653519
 30
0.0
  0
VERTEX
  5
167
330
11D
100
AcDbEntity
  8
1_ANYTOOL_1MMDEEP_LABELS_S
100
AcDbVertex
100
AcDb2dVertex
 10
151.2857142857138
 20
27.04703125564265
 30
0.0
  0
VERTEX
  5
168
330
11D
100
AcDbEntity
  8
1_ANYTOOL_1MMDEEP_LABELS_S
100
AcDbVertex
100
AcDb2dVertex
 10
151.2832449776781
 20
27.29693359939262
 30
0.0
  0
VERTEX
  5
169
330
11D
100
AcDbEntity
  8
1_ANYTOOL_1MMDEEP_LABELS_S
100
AcDbVertex
100
AcDb2dVertex
 10
151.2758370535709
 20
27.54306920207117
 30
0.0
  0
VERTEX
  5
16A
330
11D
100
AcDbEntity
  8
1_ANYTOOL_1MMDEEP_LABELS_S
100
AcDbVertex
100
AcDb2dVertex
 10
151.2634905133924
 20
27.78543806367828
 30
0.0
  0
VERTEX
  5
16B
330
11D
100
AcDbEntity
  8
1_ANYTOOL_1MMDEEP_LABELS_S
100
AcDbVertex
100
AcDb2dVertex
 10
151.2462053571423
 20
28.02404018421396
 30
0.0
  0
VERTEX
  5
16C
330
11D
100
AcDbEntity
  8
1_ANYTOOL_1MMDEEP_LABELS_S
100
AcDbVertex
100
AcDb2dVertex
 10
151.2239815848209
 20
28.25887556367821
 30
0.0
  0
VERTEX
  5
16D
330
11D
100
AcDbEntity
  8
1_ANYTOOL_1MMDEEP_LABELS_S
100
AcDbVertex
100
AcDb2dVertex
 10
151.1968191964281
 20
28.48994420207103
 30
0.0
  0
VERTEX
  5
16E
330
11D
100
AcDbEntity
  8
1_ANYTOOL_1MMDEEP_LABELS_S
100
AcDbVertex
100
AcDb2dVertex
 10
151.1647181919638
 20
28.71724609939242
 30
0.0
  0
VERTEX
  5
16F
330
11D
100
AcDbEntity
  8
1_ANYTOOL_1MMDEEP_LABELS_S
100
AcDbVertex
100
AcDb2dVertex
 10
151.1276785714281
 20
28.94078125564238
 30
0.0
  0
VERTEX
  5
170
330
11D
100
AcDbEntity
  8
1_ANYTOOL_1MMDEEP_LABELS_S
100
AcDbVertex
100
AcDb2dVertex
 10
151.085700334821
 20
29.16054967082091
 30
0.0
  0
VERTEX
  5
171
330
11D
100
AcDbEntity
  8
1_ANYTOOL_1MMDEEP_LABELS_S
100
AcDbVertex
100
AcDb2dVertex
 10
151.0387834821424
 20
29.376551344928
 30
0.0
  0
VERTEX
  5
172
330
11D
100
AcDbEntity
  8
1_ANYTOOL_1MMDEEP_LABELS_S
100
AcDbVertex
100
AcDb2dVertex
 10
150.9869280133924
 20
29.58878627796367
 30
0.0
  0
VERTEX
  5
173
330
11D
100
AcDbEntity
  8
1_ANYTOOL_1MMDEEP_LABELS_S
100
AcDbVertex
100
AcDb2dVertex
 10
150.930133928571
 20
29.79725446992791
 30
0.0
  0
VERTEX
  5
174
330
11D
100
AcDbEntity
  8
1_ANYTOOL_1MMDEEP_LABELS_S
100
AcDbVertex
100
AcDb2dVertex
 10
150.8684012276781
 20
30.00195592082071
 30
0.0
  0
VERTEX
  5
175
330
11D
100
AcDbEntity
  8
1_ANYTOOL_1MMDEEP_LABELS_S
100
AcDbVertex
100
AcDb2dVertex
 10
150.8017299107138
 20
30.20289063064209
 30
0.0
  0
VERTEX
  5
176
330
11D
100
AcDbEntity
  8
1_ANYTOOL_1MMDEEP_LABELS_S
100
AcDbVertex
100
AcDb2dVertex
 10
150.7301199776782
 20
30.40005859939203
 30
0.0
  0
VERTEX
  5
177
330
11D
100
AcDbEntity
  8
1_ANYTOOL_1MMDEEP_LABELS_S
100
AcDbVertex
100
AcDb2dVertex
 10
150.653571428571
 20
30.59345982707055
 30
0.0
  0
VERTEX
  5
178
330
11D
100
AcDbEntity
  8
1_ANYTOOL_1MMDEEP_LABELS_S
100
AcDbVertex
100
AcDb2dVertex
 10
150.5720842633925
 20
30.78309431367763
 30
0.0
  0
VERTEX
  5
179
330
11D
100
AcDbEntity
  8
1_ANYTOOL_1MMDEEP_LABELS_S
100
AcDbVertex
100
AcDb2dVertex
 10
150.4856584821425
 20
30.96896205921328
 30
0.0
  0
VERTEX
  5
17A
330
11D
100
AcDbEntity
  8
1_ANYTOOL_1MMDEEP_LABELS_S
100
AcDbVertex
100
AcDb2dVertex
 10
150.3942940848211
 20
31.1510630636775
 30
0.0
  0
VERTEX
  5
17B
330
11D
100
AcDbEntity
  8
1_ANYTOOL_1MMDEEP_LABELS_S
100
AcDbVertex
100
AcDb2dVertex
 10
150.2979910714282
 20
31.3293973270703
 30
0.0
  0
VERTEX
  5
17C
330
11D
100
AcDbEntity
  8
1_ANYTOOL_1MMDEEP_LABELS_S
100
AcDbVertex
100
AcDb2dVertex
 10
150.196749441964
 20
31.50396484939166
 30
0.0
  0
VERTEX
  5
17D
330
11D
100
AcDbEntity
  8
1_ANYTOOL_1MMDEEP_LABELS_S
100
AcDbVertex
100
AcDb2dVertex
 10
150.0905691964282
 20
31.67476563064159
 30
0.0
  0
VERTEX
  5
17E
330
11D
100
AcDbEntity
  8
1_ANYTOOL_1MMDEEP_LABELS_S
100
AcDbVertex
100
AcDb2dVertex
 10
149.9794503348211
 20
31.84179967082009
 30
0.0
  0
VERTEX
  5
17F
330
11D
100
AcDbEntity
  8
1_ANYTOOL_1MMDEEP_LABELS_S
100
AcDbVertex
100
AcDb2dVertex
 10
149.8633928571426
 20
32.00506696992716
 30
0.0
  0
VERTEX
  5
180
330
11D
100
AcDbEntity
  8
1_ANYTOOL_1MMDEEP_LABELS_S
100
AcDbVertex
100
AcDb2dVertex
 10
149.7423967633926
 20
32.1645675279628
 30
0.0
  0
VERTEX
  5
181
330
11D
100
AcDbEntity
  8
1_ANYTOOL_1MMDEEP_LABELS_S
100
AcDbVertex
100
AcDb2dVertex
 10
149.6164620535712
 20
32.320301344927
 30
0.0
  0
VERTEX
  5
182
330
11D
100
AcDbEntity
  8
1_ANYTOOL_1MMDEEP_LABELS_S
100
AcDbVertex
100
AcDb2dVertex
 10
149.4855887276784
 20
32.47226842081978
 30
0.0
  0
VERTEX
  5
183
330
11D
100
AcDbEntity
  8
1_ANYTOOL_1MMDEEP_LABELS_S
100
AcDbVertex
100
AcDb2dVertex
 10
149.3497767857141
 20
32.62046875564113
 30
0.0
  0
VERTEX
  5
184
330
11D
100
AcDbEntity
  8
1_ANYTOOL_1MMDEEP_LABELS_S
100
AcDbVertex
100
AcDb2dVertex
 10
149.2090262276784
 20
32.76490234939104
 30
0.0
  0
VERTEX
  5
185
330
11D
100
AcDbEntity
  8
1_ANYTOOL_1MMDEEP_LABELS_S
100
AcDbVertex
100
AcDb2dVertex
 10
149.0633370535713
 20
32.90556920206953
 30
0.0
  0
VERTEX
  5
186
330
11D
100
AcDbEntity
  8
1_ANYTOOL_1MMDEEP_LABELS_S
100
AcDbVertex
100
AcDb2dVertex
 10
148.9127092633927
 20
33.04246931367658
 30
0.0
  0
VERTEX
  5
187
330
11D
100
AcDbEntity
  8
1_ANYTOOL_1MMDEEP_LABELS_S
100
AcDbVertex
100
AcDb2dVertex
 10
148.7571428571428
 20
33.17560268421221
 30
0.0
  0
VERTEX
  5
188
330
11D
100
AcDbEntity
  8
1_ANYTOOL_1MMDEEP_LABELS_S
100
AcDbVertex
100
AcDb2dVertex
 10
148.5978097098213
 20
33.30480190296212
 30
0.0
  0
VERTEX
  5
189
330
11D
100
AcDbEntity
  8
1_ANYTOOL_1MMDEEP_LABELS_S
100
AcDbVertex
100
AcDb2dVertex
 10
148.4358816964285
 20
33.42989955921203
 30
0.0
  0
VERTEX
  5
18A
330
11D
100
AcDbEntity
  8
1_ANYTOOL_1MMDEEP_LABELS_S
100
AcDbVertex
100
AcDb2dVertex
 10
148.2713588169642
 20
33.55089565296195
 30
0.0
  0
VERTEX
  5
18B
330
11D
100
AcDbEntity
  8
1_ANYTOOL_1MMDEEP_LABELS_S
100
AcDbVertex
100
AcDb2dVertex
 10
148.1042410714286
 20
33.66779018421187
 30
0.0
  0
VERTEX
  5
18C
330
11D
100
AcDbEntity
  8
1_ANYTOOL_1MMDEEP_LABELS_S
100
AcDbVertex
100
AcDb2dVertex
 10
147.9345284598215
 20
33.78058315296179
 30
0.0
  0
VERTEX
  5
18D
330
11D
100
AcDbEntity
  8
1_ANYTOOL_1MMDEEP_LABELS_S
100
AcDbVertex
100
AcDb2dVertex
 10
147.7622209821429
 20
33.88927455921171
 30
0.0
  0
VERTEX
  5
18E
330
11D
100
AcDbEntity
  8
1_ANYTOOL_1MMDEEP_LABELS_S
100
AcDbVertex
100
AcDb2dVertex
 10
147.5873186383929
 20
33.99386440296164
 30
0.0
  0
VERTEX
  5
18F
330
11D
100
AcDbEntity
  8
1_ANYTOOL_1MMDEEP_LABELS_S
100
AcDbVertex
100
AcDb2dVertex
 10
147.4098214285715
 20
34.09435268421157
 30
0.0
  0
VERTEX
  5
190
330
11D
100
AcDbEntity
  8
1_ANYTOOL_1MMDEEP_LABELS_S
100
AcDbVertex
100
AcDb2dVertex
 10
147.2297293526786
 20
34.1907394029615
 30
0.0
  0
VERTEX
  5
191
330
11D
100
AcDbEntity
  8
1_ANYTOOL_1MMDEEP_LABELS_S
100
AcDbVertex
100
AcDb2dVertex
 10
147.0470424107144
 20
34.28302455921144
 30
0.0
  0
VERTEX
  5
192
330
11D
100
AcDbEntity
  8
1_ANYTOOL_1MMDEEP_LABELS_S
100
AcDbVertex
100
AcDb2dVertex
 10
146.8617606026787
 20
34.37120815296138
 30
0.0
  0
VERTEX
  5
193
330
11D
100
AcDbEntity
  8
1_ANYTOOL_1MMDEEP_LABELS_S
100
AcDbVertex
100
AcDb2dVertex
 10
146.6738839285715
 20
34.45529018421132
 30
0.0
  0
VERTEX
  5
194
330
11D
100
AcDbEntity
  8
1_ANYTOOL_1MMDEEP_LABELS_S
100
AcDbVertex
100
AcDb2dVertex
 10
146.483412388393
 20
34.53527065296127
 30
0.0
  0
VERTEX
  5
195
330
11D
100
AcDbEntity
  8
1_ANYTOOL_1MMDEEP_LABELS_S
100
AcDbVertex
100
AcDb2dVertex
 10
146.290345982143
 20
34.61114955921121
 30
0.0
  0
VERTEX
  5
196
330
11D
100
AcDbEntity
  8
1_ANYTOOL_1MMDEEP_LABELS_S
100
AcDbVertex
100
AcDb2dVertex
 10
146.0946847098216
 20
34.68292690296116
 30
0.0
  0
VERTEX
  5
197
330
11D
100
AcDbEntity
  8
1_ANYTOOL_1MMDEEP_LABELS_S
100
AcDbVertex
100
AcDb2dVertex
 10
145.8964285714287
 20
34.75060268421112
 30
0.0
  0
VERTEX
  5
198
330
11D
100
AcDbEntity
  8
1_ANYTOOL_1MMDEEP_LABELS_S
100
AcDbVertex
100
AcDb2dVertex
 10
145.6955775669644
 20
34.81417690296107
 30
0.0
  0
VERTEX
  5
199
330
11D
100
AcDbEntity
  8
1_ANYTOOL_1MMDEEP_LABELS_S
100
AcDbVertex
100
AcDb2dVertex
 10
145.4921316964287
 20
34.87364955921103
 30
0.0
  0
VERTEX
  5
19A
330
11D
100
AcDbEntity
  8
1_ANYTOOL_1MMDEEP_LABELS_S
100
AcDbVertex
100
AcDb2dVertex
 10
145.2860909598216
 20
34.92902065296099
 30
0.0
  0
VERTEX
  5
19B
330
11D
100
AcDbEntity
  8
1_ANYTOOL_1MMDEEP_LABELS_S
100
AcDbVertex
100
AcDb2dVertex
 10
145.077455357143
 20
34.98029018421096
 30
0.0
  0
VERTEX
  5
19C
330
11D
100
AcDbEntity
  8
1_ANYTOOL_1MMDEEP_LABELS_S
100
AcDbVertex
100
AcDb2dVertex
 10
144.866224888393
 20
35.02745815296093
 30
0.0
  0
VERTEX
  5
19D
330
11D
100
AcDbEntity
  8
1_ANYTOOL_1MMDEEP_LABELS_S
100
AcDbVertex
100
AcDb2dVertex
 10
144.6523995535716
 20
35.0705245592109
 30
0.0
  0
VERTEX
  5
19E
330
11D
100
AcDbEntity
  8
1_ANYTOOL_1MMDEEP_LABELS_S
100
AcDbVertex
100
AcDb2dVertex
 10
144.4359793526787
 20
35.10948940296087
 30
0.0
  0
VERTEX
  5
19F
330
11D
100
AcDbEntity
  8
1_ANYTOOL_1MMDEEP_LABELS_S
100
AcDbVertex
100
AcDb2dVertex
 10
144.2169642857144
 20
35.14435268421084
 30
0.0
  0
VERTEX
  5
1A0
330
11D
100
AcDbEntity
  8
1_ANYTOOL_1MMDEEP_LABELS_S
100
AcDbVertex
100
AcDb2dVertex
 10
143.9953543526787
 20
35.17511440296082
 30
0.0
  0
VERTEX
  5
1A1
330
11D
100
AcDbEntity
  8
1_ANYTOOL_1MMDEEP_LABELS_S
100
AcDbVertex
100
AcDb2dVertex
 10
143.7711495535715
 20
35.2017745592108
 30
0.0
  0
VERTEX
  5
1A2
330
11D
100
AcDbEntity
  8
1_ANYTOOL_1MMDEEP_LABELS_S
100
AcDbVertex
100
AcDb2dVertex
 10
143.544349888393
 20
35.22433315296079
 30
0.0
  0
VERTEX
  5
1A3
330
11D
100
AcDbEntity
  8
1_ANYTOOL_1MMDEEP_LABELS_S
100
AcDbVertex
100
AcDb2dVertex
 10
143.314955357143
 20
35.24279018421078
 30
0.0
  0
VERTEX
  5
1A4
330
11D
100
AcDbEntity
  8
1_ANYTOOL_1MMDEEP_LABELS_S
100
AcDbVertex
100
AcDb2dVertex
 10
143.0829659598215
 20
35.25714565296077
 30
0.0
  0
VERTEX
  5
1A5
330
11D
100
AcDbEntity
  8
1_ANYTOOL_1MMDEEP_LABELS_S
100
AcDbVertex
100
AcDb2dVertex
 10
142.8483816964286
 20
35.26739955921076
 30
0.0
  0
VERTEX
  5
1A6
330
11D
100
AcDbEntity
  8
1_ANYTOOL_1MMDEEP_LABELS_S
100
AcDbVertex
100
AcDb2dVertex
 10
142.3714285714286
 20
35.27560268421075
 30
0.0
  0
VERTEX
  5
1A7
330
11D
100
AcDbEntity
  8
1_ANYTOOL_1MMDEEP_LABELS_S
100
AcDbVertex
100
AcDb2dVertex
 10
142.0050502232144
 20
35.27062221546075
 30
0.0
  0
VERTEX
  5
1A8
330
11D
100
AcDbEntity
  8
1_ANYTOOL_1MMDEEP_LABELS_S
100
AcDbVertex
100
AcDb2dVertex
 10
141.6452008928572
 20
35.25568080921076
 30
0.0
  0
VERTEX
  5
1A9
330
11D
100
AcDbEntity
  8
1_ANYTOOL_1MMDEEP_LABELS_S
100
AcDbVertex
100
AcDb2dVertex
 10
141.2918805803573
 20
35.23077846546077
 30
0.0
  0
VERTEX
  5
1AA
330
11D
100
AcDbEntity
  8
1_ANYTOOL_1MMDEEP_LABELS_S
100
AcDbVertex
100
AcDb2dVertex
 10
140.9450892857145
 20
35.19591518421078
 30
0.0
  0
VERTEX
  5
1AB
330
11D
100
AcDbEntity
  8
1_ANYTOOL_1MMDEEP_LABELS_S
100
AcDbVertex
100
AcDb2dVertex
 10
140.6048270089288
 20
35.15109096546079
 30
0.0
  0
VERTEX
  5
1AC
330
11D
100
AcDbEntity
  8
1_ANYTOOL_1MMDEEP_LABELS_S
100
AcDbVertex
100
AcDb2dVertex
 10
140.2710937500002
 20
35.0963058092108
 30
0.0
  0
VERTEX
  5
1AD
330
11D
100
AcDbEntity
  8
1_ANYTOOL_1MMDEEP_LABELS_S
100
AcDbVertex
100
AcDb2dVertex
 10
139.9438895089288
 20
35.03155971546082
 30
0.0
  0
VERTEX
  5
1AE
330
11D
100
AcDbEntity
  8
1_ANYTOOL_1MMDEEP_LABELS_S
100
AcDbVertex
100
AcDb2dVertex
 10
139.6232142857145
 20
34.95685268421084
 30
0.0
  0
VERTEX
  5
1AF
330
11D
100
AcDbEntity
  8
1_ANYTOOL_1MMDEEP_LABELS_S
100
AcDbVertex
100
AcDb2dVertex
 10
139.3090680803574
 20
34.87218471546087
 30
0.0
  0
VERTEX
  5
1B0
330
11D
100
AcDbEntity
  8
1_ANYTOOL_1MMDEEP_LABELS_S
100
AcDbVertex
100
AcDb2dVertex
 10
139.1544433593753
 20
34.82611537952339
 30
0.0
  0
VERTEX
  5
1B1
330
11D
100
AcDbEntity
  8
1_ANYTOOL_1MMDEEP_LABELS_S
100
AcDbVertex
100
AcDb2dVertex
 10
139.0014508928574
 20
34.7775558092109
 30
0.0
  0
VERTEX
  5
1B2
330
11D
100
AcDbEntity
  8
1_ANYTOOL_1MMDEEP_LABELS_S
100
AcDbVertex
100
AcDb2dVertex
 10
138.8500906808038
 20
34.72650600452342
 30
0.0
  0
VERTEX
  5
1B3
330
11D
100
AcDbEntity
  8
1_ANYTOOL_1MMDEEP_LABELS_S
100
AcDbVertex
100
AcDb2dVertex
 10
138.7003627232146
 20
34.67296596546093
 30
0.0
  0
VERTEX
  5
1B4
330
11D
100
AcDbEntity
  8
1_ANYTOOL_1MMDEEP_LABELS_S
100
AcDbVertex
100
AcDb2dVertex
 10
138.5522670200896
 20
34.61693569202344
 30
0.0
  0
VERTEX
  5
1B5
330
11D
100
AcDbEntity
  8
1_ANYTOOL_1MMDEEP_LABELS_S
100
AcDbVertex
100
AcDb2dVertex
 10
138.4058035714289
 20
34.55841518421096
 30
0.0
  0
VERTEX
  5
1B6
330
11D
100
AcDbEntity
  8
1_ANYTOOL_1MMDEEP_LABELS_S
100
AcDbVertex
100
AcDb2dVertex
 10
138.2609723772324
 20
34.49740444202347
 30
0.0
  0
VERTEX
  5
1B7
330
11D
100
AcDbEntity
  8
1_ANYTOOL_1MMDEEP_LABELS_S
100
AcDbVertex
100
AcDb2dVertex
 10
138.1177734375003
 20
34.43390346546099
 30
0.0
  0
VERTEX
  5
1B8
330
11D
100
AcDbEntity
  8
1_ANYTOOL_1MMDEEP_LABELS_S
100
AcDbVertex
100
AcDb2dVertex
 10
137.9762067522324
 20
34.36791225452352
 30
0.0
  0
VERTEX
  5
1B9
330
11D
100
AcDbEntity
  8
1_ANYTOOL_1MMDEEP_LABELS_S
100
AcDbVertex
100
AcDb2dVertex
 10
137.8362723214289
 20
34.29943080921103
 30
0.0
  0
VERTEX
  5
1BA
330
11D
100
AcDbEntity
  8
1_ANYTOOL_1MMDEEP_LABELS_S
100
AcDbVertex
100
AcDb2dVertex
 10
137.6979701450896
 20
34.22845912952356
 30
0.0
  0
VERTEX
  5
1BB
330
11D
100
AcDbEntity
  8
1_ANYTOOL_1MMDEEP_LABELS_S
100
AcDbVertex
100
AcDb2dVertex
 10
137.5613002232146
 20
34.15499721546107
 30
0.0
  0
VERTEX
  5
1BC
330
11D
100
AcDbEntity
  8
1_ANYTOOL_1MMDEEP_LABELS_S
100
AcDbVertex
100
AcDb2dVertex
 10
137.4262625558039
 20
34.07904506702359
 30
0.0
  0
VERTEX
  5
1BD
330
11D
100
AcDbEntity
  8
1_ANYTOOL_1MMDEEP_LABELS_S
100
AcDbVertex
100
AcDb2dVertex
 10
137.2928571428574
 20
34.00060268421112
 30
0.0
  0
VERTEX
  5
1BE
330
11D
100
AcDbEntity
  8
1_ANYTOOL_1MMDEEP_LABELS_S
100
AcDbVertex
100
AcDb2dVertex
 10
137.1610839843753
 20
33.91967006702364
 30
0.0
  0
VERTEX
  5
1BF
330
11D
100
AcDbEntity
  8
1_ANYTOOL_1MMDEEP_LABELS_S
100
AcDbVertex
100
AcDb2dVertex
 10
137.0309430803574
 20
33.83624721546116
 30
0.0
  0
VERTEX
  5
1C0
330
11D
100
AcDbEntity
  8
1_ANYTOOL_1MMDEEP_LABELS_S
100
AcDbVertex
100
AcDb2dVertex
 10
136.9024344308039
 20
33.75033412952369
 30
0.0
  0
VERTEX
  5
1C1
330
11D
100
AcDbEntity
  8
1_ANYTOOL_1MMDEEP_LABELS_S
100
AcDbVertex
100
AcDb2dVertex
 10
136.7755580357145
 20
33.66193080921121
 30
0.0
  0
VERTEX
  5
1C2
330
11D
100
AcDbEntity
  8
1_ANYTOOL_1MMDEEP_LABELS_S
100
AcDbVertex
100
AcDb2dVertex
 10
136.6503138950895
 20
33.57103725452374
 30
0.0
  0
VERTEX
  5
1C3
330
11D
100
AcDbEntity
  8
1_ANYTOOL_1MMDEEP_LABELS_S
100
AcDbVertex
100
AcDb2dVertex
 10
136.5267020089288
 20
33.47765346546127
 30
0.0
  0
VERTEX
  5
1C4
330
11D
100
AcDbEntity
  8
1_ANYTOOL_1MMDEEP_LABELS_S
100
AcDbVertex
100
AcDb2dVertex
 10
136.4047223772324
 20
33.38177944202379
 30
0.0
  0
VERTEX
  5
1C5
330
11D
100
AcDbEntity
  8
1_ANYTOOL_1MMDEEP_LABELS_S
100
AcDbVertex
100
AcDb2dVertex
 10
136.2843750000002
 20
33.28341518421132
 30
0.0
  0
VERTEX
  5
1C6
330
11D
100
AcDbEntity
  8
1_ANYTOOL_1MMDEEP_LABELS_S
100
AcDbVertex
100
AcDb2dVertex
 10
136.1656598772324
 20
33.18256069202385
 30
0.0
  0
VERTEX
  5
1C7
330
11D
100
AcDbEntity
  8
1_ANYTOOL_1MMDEEP_LABELS_S
100
AcDbVertex
100
AcDb2dVertex
 10
136.0485770089288
 20
33.07921596546138
 30
0.0
  0
VERTEX
  5
1C8
330
11D
100
AcDbEntity
  8
1_ANYTOOL_1MMDEEP_LABELS_S
100
AcDbVertex
100
AcDb2dVertex
 10
135.9331263950895
 20
32.97338100452392
 30
0.0
  0
VERTEX
  5
1C9
330
11D
100
AcDbEntity
  8
1_ANYTOOL_1MMDEEP_LABELS_S
100
AcDbVertex
100
AcDb2dVertex
 10
135.8193080357145
 20
32.86505580921144
 30
0.0
  0
VERTEX
  5
1CA
330
11D
100
AcDbEntity
  8
1_ANYTOOL_1MMDEEP_LABELS_S
100
AcDbVertex
100
AcDb2dVertex
 10
135.7071219308037
 20
32.75424037952398
 30
0.0
  0
VERTEX
  5
1CB
330
11D
100
AcDbEntity
  8
1_ANYTOOL_1MMDEEP_LABELS_S
100
AcDbVertex
100
AcDb2dVertex
 10
135.5965680803573
 20
32.6409347154615
 30
0.0
  0
VERTEX
  5
1CC
330
11D
100
AcDbEntity
  8
1_ANYTOOL_1MMDEEP_LABELS_S
100
AcDbVertex
100
AcDb2dVertex
 10
135.4876464843752
 20
32.52513881702404
 30
0.0
  0
VERTEX
  5
1CD
330
11D
100
AcDbEntity
  8
1_ANYTOOL_1MMDEEP_LABELS_S
100
AcDbVertex
100
AcDb2dVertex
 10
135.3803571428573
 20
32.40685268421157
 30
0.0
  0
VERTEX
  5
1CE
330
11D
100
AcDbEntity
  8
1_ANYTOOL_1MMDEEP_LABELS_S
100
AcDbVertex
100
AcDb2dVertex
 10
135.2747000558037
 20
32.2860763170241
 30
0.0
  0
VERTEX
  5
1CF
330
11D
100
AcDbEntity
  8
1_ANYTOOL_1MMDEEP_LABELS_S
100
AcDbVertex
100
AcDb2dVertex
 10
135.1706752232144
 20
32.16280971546164
 30
0.0
  0
VERTEX
  5
1D0
330
11D
100
AcDbEntity
  8
1_ANYTOOL_1MMDEEP_LABELS_S
100
AcDbVertex
100
AcDb2dVertex
 10
134.9675223214286
 20
31.90880580921171
 30
0.0
  0
VERTEX
  5
1D1
330
11D
100
AcDbEntity
  8
1_ANYTOOL_1MMDEEP_LABELS_S
100
AcDbVertex
100
AcDb2dVertex
 10
134.7708984375001
 20
31.64484096546179
 30
0.0
  0
VERTEX
  5
1D2
330
11D
100
AcDbEntity
  8
1_ANYTOOL_1MMDEEP_LABELS_S
100
AcDbVertex
100
AcDb2dVertex
 10
134.5808035714286
 20
31.37091518421187
 30
0.0
  0
VERTEX
  5
1D3
330
11D
100
AcDbEntity
  8
1_ANYTOOL_1MMDEEP_LABELS_S
100
AcDbVertex
100
AcDb2dVertex
 10
134.3972377232143
 20
31.08702846546195
 30
0.0
  0
VERTEX
  5
1D4
330
11D
100
AcDbEntity
  8
1_ANYTOOL_1MMDEEP_LABELS_S
100
AcDbVertex
100
AcDb2dVertex
 10
134.2202008928571
 20
30.79318080921203
 30
0.0
  0
VERTEX
  5
1D5
330
11D
100
AcDbEntity
  8
1_ANYTOOL_1MMDEEP_LABELS_S
100
AcDbVertex
100
AcDb2dVertex
 10
134.049693080357
 20
30.48937221546212
 30
0.0
  0
VERTEX
  5
1D6
330
11D
100
AcDbEntity
  8
1_ANYTOOL_1MMDEEP_LABELS_S
100
AcDbVertex
100
AcDb2dVertex
 10
133.8857142857141
 20
30.17560268421221
 30
0.0
  0
SEQEND
  5
1D7
330
11D
100
AcDbEntity
  8
1_ANYTOOL_1MMDEEP_LABELS_S
  0
LINE
  5
1D8
330
1F
100
AcDbEntity
  8
1_ANYTOOL_1MMDEEP_LABELS_S
100
AcDbLine
 10
129.1714285714279
 20
19.1613169699267
 30
0.0
 11
120.3857142857141
 21
19.07560268421366
 31
0.0
  0
POLYLINE
  5
1D9
330
1F
100
AcDbEntity
  8
1_ANYTOOL_1MMDEEP_LABELS_S
100
AcDb2dPolyline
 66
     1
 10
0.0
 20
0.0
 30
0.0
  0
VERTEX
  5
1DA
330
1D9
100
AcDbEntity
  8
1_ANYTOOL_1MMDEEP_LABELS_S
100
AcDbVertex
100
AcDb2dVertex
 10
90.8142857142866
 20
5.275602684210753
 30
0.0
  0
VERTEX
  5
1DB
330
1D9
100
AcDbEntity
  8
1_ANYTOOL_1MMDEEP_LABELS_S
100
AcDbVertex
100
AcDb2dVertex
 10
90.8142857142866
 20
35.27560268421075
 30
0.0
  0
VERTEX
  5
1DC
330
1D9
100
AcDbEntity
  8
1_ANYTOOL_1MMDEEP_LABELS_S
100
AcDbVertex
100
AcDb2dVertex
 10
102.8142857142866
 20
6.904174112780311
 30
0.0
  0
VERTEX
  5
1DD
330
1D9
100
AcDbEntity
  8
1_ANYTOOL_1MMDEEP_LABELS_S
100
AcDbVertex
100
AcDb2dVertex
 10
114.8142857142866
 20
35.1470312556412
 30
0.0
  0
VERTEX
  5
1DE
330
1D9
100
AcDbEntity
  8
1_ANYTOOL_1MMDEEP_LABELS_S
100
AcDbVertex
100
AcDb2dVertex
 10
114.8142857142866
 20
5.275602684210753
 30
0.0
  0
SEQEND
  5
1DF
330
1D9
100
AcDbEntity
  8
1_ANYTOOL_1MMDEEP_LABELS_S
  0
LINE
  5
1E0
330
1F
100
AcDbEntity
  8
1_ANYTOOL_1MMDEEP_LABELS_S
100
AcDbLine
 10
85.6714285714279
 20
19.1613169699267
 30
0.0
 11
76.88571428571413
 21
19.07560268421366
 31
0.0
  0
POLYLINE
  5
1E1
330
1F
100
AcDbEntity
  8
1_ANYTOOL_1MMDEEP_LABELS_S
100
AcDb2dPolyline
 66
     1
 10
0.0
 20
0.0
 30
0.0
 70
     1
  0
VERTEX
  5
1E2
330
1E1
100
AcDbEntity
  8
1_ANYTOOL_1MMDEEP_LABELS_S
100
AcDbVertex
100
AcDb2dVertex
 10
61.71428571428623
 20
35.61845982707018
 30
0.0
  0
VERTEX
  5
1E3
330
1E1
100
AcDbEntity
  8
1_ANYTOOL_1MMDEEP_LABELS_S
100
AcDbVertex
100
AcDb2dVertex
 10
62.08577008928624
 20
35.61260045207018
 30
0.0
  0
VERTEX
  5
1E4
330
1E1
100
AcDbEntity
  8
1_ANYTOOL_1MMDEEP_LABELS_S
100
AcDbVertex
100
AcDb2dVertex
 10
62.45022321428624
 20
35.59502232707018
 30
0.0
  0
VERTEX
  5
1E5
330
1E1
100
AcDbEntity
  8
1_ANYTOOL_1MMDEEP_LABELS_S
100
AcDbVertex
100
AcDb2dVertex
 10
62.80764508928625
 20
35.56572545207018
 30
0.0
  0
VERTEX
  5
1E6
330
1E1
100
AcDbEntity
  8
1_ANYTOOL_1MMDEEP_LABELS_S
100
AcDbVertex
100
AcDb2dVertex
 10
62.98371930803625
 20
35.54668248332018
 30
0.0
  0
VERTEX
  5
1E7
330
1E1
100
AcDbEntity
  8
1_ANYTOOL_1MMDEEP_LABELS_S
100
AcDbVertex
100
AcDb2dVertex
 10
63.15803571428626
 20
35.52470982707018
 30
0.0
  0
VERTEX
  5
1E8
330
1E1
100
AcDbEntity
  8
1_ANYTOOL_1MMDEEP_LABELS_S
100
AcDbVertex
100
AcDb2dVertex
 10
63.33059430803626
 20
35.49980748332018
 30
0.0
  0
VERTEX
  5
1E9
330
1E1
100
AcDbEntity
  8
1_ANYTOOL_1MMDEEP_LABELS_S
100
AcDbVertex
100
AcDb2dVertex
 10
63.50139508928627
 20
35.47197545207018
 30
0.0
  0
VERTEX
  5
1EA
330
1E1
100
AcDbEntity
  8
1_ANYTOOL_1MMDEEP_LABELS_S
100
AcDbVertex
100
AcDb2dVertex
 10
63.67043805803628
 20
35.44121373332018
 30
0.0
  0
VERTEX
  5
1EB
330
1E1
100
AcDbEntity
  8
1_ANYTOOL_1MMDEEP_LABELS_S
100
AcDbVertex
100
AcDb2dVertex
 10
63.83772321428629
 20
35.40752232707018
 30
0.0
  0
VERTEX
  5
1EC
330
1E1
100
AcDbEntity
  8
1_ANYTOOL_1MMDEEP_LABELS_S
100
AcDbVertex
100
AcDb2dVertex
 10
64.0032505580363
 20
35.37090123332018
 30
0.0
  0
VERTEX
  5
1ED
330
1E1
100
AcDbEntity
  8
1_ANYTOOL_1MMDEEP_LABELS_S
100
AcDbVertex
100
AcDb2dVertex
 10
64.1670200892863
 20
35.33135045207018
 30
0.0
  0
VERTEX
  5
1EE
330
1E1
100
AcDbEntity
  8
1_ANYTOOL_1MMDEEP_LABELS_S
100
AcDbVertex
100
AcDb2dVertex
 10
64.32903180803632
 20
35.28886998332018
 30
0.0
  0
VERTEX
  5
1EF
330
1E1
100
AcDbEntity
  8
1_ANYTOOL_1MMDEEP_LABELS_S
100
AcDbVertex
100
AcDb2dVertex
 10
64.48928571428632
 20
35.24345982707018
 30
0.0
  0
VERTEX
  5
1F0
330
1E1
100
AcDbEntity
  8
1_ANYTOOL_1MMDEEP_LABELS_S
100
AcDbVertex
100
AcDb2dVertex
 10
64.64778180803634
 20
35.19511998332018
 30
0.0
  0
VERTEX
  5
1F1
330
1E1
100
AcDbEntity
  8
1_ANYTOOL_1MMDEEP_LABELS_S
100
AcDbVertex
100
AcDb2dVertex
 10
64.80452008928634
 20
35.14385045207018
 30
0.0
  0
VERTEX
  5
1F2
330
1E1
100
AcDbEntity
  8
1_ANYTOOL_1MMDEEP_LABELS_S
100
AcDbVertex
100
AcDb2dVertex
 10
64.95950055803637
 20
35.08965123332018
 30
0.0
  0
VERTEX
  5
1F3
330
1E1
100
AcDbEntity
  8
1_ANYTOOL_1MMDEEP_LABELS_S
100
AcDbVertex
100
AcDb2dVertex
 10
65.11272321428638
 20
35.03252232707018
 30
0.0
  0
VERTEX
  5
1F4
330
1E1
100
AcDbEntity
  8
1_ANYTOOL_1MMDEEP_LABELS_S
100
AcDbVertex
100
AcDb2dVertex
 10
65.26418805803638
 20
34.97246373332018
 30
0.0
  0
VERTEX
  5
1F5
330
1E1
100
AcDbEntity
  8
1_ANYTOOL_1MMDEEP_LABELS_S
100
AcDbVertex
100
AcDb2dVertex
 10
65.4138950892864
 20
34.90947545207018
 30
0.0
  0
VERTEX
  5
1F6
330
1E1
100
AcDbEntity
  8
1_ANYTOOL_1MMDEEP_LABELS_S
100
AcDbVertex
100
AcDb2dVertex
 10
65.56184430803643
 20
34.84355748332018
 30
0.0
  0
VERTEX
  5
1F7
330
1E1
100
AcDbEntity
  8
1_ANYTOOL_1MMDEEP_LABELS_S
100
AcDbVertex
100
AcDb2dVertex
 10
65.70803571428644
 20
34.77470982707018
 30
0.0
  0
VERTEX
  5
1F8
330
1E1
100
AcDbEntity
  8
1_ANYTOOL_1MMDEEP_LABELS_S
100
AcDbVertex
100
AcDb2dVertex
 10
65.85246930803646
 20
34.70293248332018
 30
0.0
  0
VERTEX
  5
1F9
330
1E1
100
AcDbEntity
  8
1_ANYTOOL_1MMDEEP_LABELS_S
100
AcDbVertex
100
AcDb2dVertex
 10
65.99514508928647
 20
34.62822545207018
 30
0.0
  0
VERTEX
  5
1FA
330
1E1
100
AcDbEntity
  8
1_ANYTOOL_1MMDEEP_LABELS_S
100
AcDbVertex
100
AcDb2dVertex
 10
66.13606305803648
 20
34.55058873332018
 30
0.0
  0
VERTEX
  5
1FB
330
1E1
100
AcDbEntity
  8
1_ANYTOOL_1MMDEEP_LABELS_S
100
AcDbVertex
100
AcDb2dVertex
 10
66.27522321428651
 20
34.47002232707018
 30
0.0
  0
VERTEX
  5
1FC
330
1E1
100
AcDbEntity
  8
1_ANYTOOL_1MMDEEP_LABELS_S
100
AcDbVertex
100
AcDb2dVertex
 10
66.41262555803654
 20
34.38652623332018
 30
0.0
  0
VERTEX
  5
1FD
330
1E1
100
AcDbEntity
  8
1_ANYTOOL_1MMDEEP_LABELS_S
100
AcDbVertex
100
AcDb2dVertex
 10
66.54827008928655
 20
34.30010045207018
 30
0.0
  0
VERTEX
  5
1FE
330
1E1
100
AcDbEntity
  8
1_ANYTOOL_1MMDEEP_LABELS_S
100
AcDbVertex
100
AcDb2dVertex
 10
66.68215680803658
 20
34.21074498332018
 30
0.0
  0
VERTEX
  5
1FF
330
1E1
100
AcDbEntity
  8
1_ANYTOOL_1MMDEEP_LABELS_S
100
AcDbVertex
100
AcDb2dVertex
 10
67.07377232142929
 20
33.93313616635581
 30
0.0
  0
VERTEX
  5
200
330
1E1
100
AcDbEntity
  8
1_ANYTOOL_1MMDEEP_LABELS_S
100
AcDbVertex
100
AcDb2dVertex
 10
67.3272321428577
 20
33.74145089849856
 30
0.0
  0
VERTEX
  5
201
330
1E1
100
AcDbEntity
  8
1_ANYTOOL_1MMDEEP_LABELS_S
100
AcDbVertex
100
AcDb2dVertex
 10
67.57466517857185
 20
33.54340402349843
 30
0.0
  0
VERTEX
  5
202
330
1E1
100
AcDbEntity
  8
1_ANYTOOL_1MMDEEP_LABELS_S
100
AcDbVertex
100
AcDb2dVertex
 10
67.81607142857172
 20
33.33899554135542
 30
0.0
  0
VERTEX
  5
203
330
1E1
100
AcDbEntity
  8
1_ANYTOOL_1MMDEEP_LABELS_S
100
AcDbVertex
100
AcDb2dVertex
 10
68.05145089285733
 20
33.12822545206953
 30
0.0
  0
VERTEX
  5
204
330
1E1
100
AcDbEntity
  8
1_ANYTOOL_1MMDEEP_LABELS_S
100
AcDbVertex
100
AcDb2dVertex
 10
68.28080357142866
 20
32.91109375564076
 30
0.0
  0
VERTEX
  5
205
330
1E1
100
AcDbEntity
  8
1_ANYTOOL_1MMDEEP_LABELS_S
100
AcDbVertex
100
AcDb2dVertex
 10
68.50412946428574
 20
32.68760045206912
 30
0.0
  0
VERTEX
  5
206
330
1E1
100
AcDbEntity
  8
1_ANYTOOL_1MMDEEP_LABELS_S
100
AcDbVertex
100
AcDb2dVertex
 10
68.72142857142853
 20
32.4577455413546
 30
0.0
  0
VERTEX
  5
207
330
1E1
100
AcDbEntity
  8
1_ANYTOOL_1MMDEEP_LABELS_S
100
AcDbVertex
100
AcDb2dVertex
 10
68.93270089285707
 20
32.2215290234972
 30
0.0
  0
VERTEX
  5
208
330
1E1
100
AcDbEntity
  8
1_ANYTOOL_1MMDEEP_LABELS_S
100
AcDbVertex
100
AcDb2dVertex
 10
69.13794642857133
 20
31.97895089849692
 30
0.0
  0
VERTEX
  5
209
330
1E1
100
AcDbEntity
  8
1_ANYTOOL_1MMDEEP_LABELS_S
100
AcDbVertex
100
AcDb2dVertex
 10
69.33716517857133
 20
31.73001116635376
 30
0.0
  0
VERTEX
  5
20A
330
1E1
100
AcDbEntity
  8
1_ANYTOOL_1MMDEEP_LABELS_S
100
AcDbVertex
100
AcDb2dVertex
 10
69.53035714285704
 20
31.47470982706773
 30
0.0
  0
VERTEX
  5
20B
330
1E1
100
AcDbEntity
  8
1_ANYTOOL_1MMDEEP_LABELS_S
100
AcDbVertex
100
AcDb2dVertex
 10
69.7175223214285
 20
31.21304688063881
 30
0.0
  0
VERTEX
  5
20C
330
1E1
100
AcDbEntity
  8
1_ANYTOOL_1MMDEEP_LABELS_S
100
AcDbVertex
100
AcDb2dVertex
 10
69.89866071428568
 20
30.94502232706702
 30
0.0
  0
VERTEX
  5
20D
330
1E1
100
AcDbEntity
  8
1_ANYTOOL_1MMDEEP_LABELS_S
100
AcDbVertex
100
AcDb2dVertex
 10
70.0737723214286
 20
30.67063616635235
 30
0.0
  0
VERTEX
  5
20E
330
1E1
100
AcDbEntity
  8
1_ANYTOOL_1MMDEEP_LABELS_S
100
AcDbVertex
100
AcDb2dVertex
 10
70.41127232142868
 20
30.10411830920955
 30
0.0
  0
VERTEX
  5
20F
330
1E1
100
AcDbEntity
  8
1_ANYTOOL_1MMDEEP_LABELS_S
100
AcDbVertex
100
AcDb2dVertex
 10
70.57366071428584
 20
29.81466518420996
 30
0.0
  0
VERTEX
  5
210
330
1E1
100
AcDbEntity
  8
1_ANYTOOL_1MMDEEP_LABELS_S
100
AcDbVertex
100
AcDb2dVertex
 10
70.7300223214287
 20
29.52152902349602
 30
0.0
  0
VERTEX
  5
211
330
1E1
100
AcDbEntity
  8
1_ANYTOOL_1MMDEEP_LABELS_S
100
AcDbVertex
100
AcDb2dVertex
 10
70.88035714285729
 20
29.22470982706773
 30
0.0
  0
VERTEX
  5
212
330
1E1
100
AcDbEntity
  8
1_ANYTOOL_1MMDEEP_LABELS_S
100
AcDbVertex
100
AcDb2dVertex
 10
71.0246651785716
 20
28.92420759492509
 30
0.0
  0
VERTEX
  5
213
330
1E1
100
AcDbEntity
  8
1_ANYTOOL_1MMDEEP_LABELS_S
100
AcDbVertex
100
AcDb2dVertex
 10
71.16294642857162
 20
28.62002232706811
 30
0.0
  0
VERTEX
  5
214
330
1E1
100
AcDbEntity
  8
1_ANYTOOL_1MMDEEP_LABELS_S
100
AcDbVertex
100
AcDb2dVertex
 10
71.29520089285735
 20
28.31215402349679
 30
0.0
  0
VERTEX
  5
215
330
1E1
100
AcDbEntity
  8
1_ANYTOOL_1MMDEEP_LABELS_S
100
AcDbVertex
100
AcDb2dVertex
 10
71.4214285714288
 20
28.00060268421112
 30
0.0
  0
VERTEX
  5
216
330
1E1
100
AcDbEntity
  8
1_ANYTOOL_1MMDEEP_LABELS_S
100
AcDbVertex
100
AcDb2dVertex
 10
71.54162946428598
 20
27.6853683092111
 30
0.0
  0
VERTEX
  5
217
330
1E1
100
AcDbEntity
  8
1_ANYTOOL_1MMDEEP_LABELS_S
100
AcDbVertex
100
AcDb2dVertex
 10
71.65580357142886
 20
27.36645089849674
 30
0.0
  0
VERTEX
  5
218
330
1E1
100
AcDbEntity
  8
1_ANYTOOL_1MMDEEP_LABELS_S
100
AcDbVertex
100
AcDb2dVertex
 10
71.76395089285747
 20
27.04385045206803
 30
0.0
  0
VERTEX
  5
219
330
1E1
100
AcDbEntity
  8
1_ANYTOOL_1MMDEEP_LABELS_S
100
AcDbVertex
100
AcDb2dVertex
 10
71.86607142857179
 20
26.71756696992497
 30
0.0
  0
VERTEX
  5
21A
330
1E1
100
AcDbEntity
  8
1_ANYTOOL_1MMDEEP_LABELS_S
100
AcDbVertex
100
AcDb2dVertex
 10
71.96216517857182
 20
26.38760045206757
 30
0.0
  0
VERTEX
  5
21B
330
1E1
100
AcDbEntity
  8
1_ANYTOOL_1MMDEEP_LABELS_S
100
AcDbVertex
100
AcDb2dVertex
 10
72.05223214285758
 20
26.05395089849583
 30
0.0
  0
VERTEX
  5
21C
330
1E1
100
AcDbEntity
  8
1_ANYTOOL_1MMDEEP_LABELS_S
100
AcDbVertex
100
AcDb2dVertex
 10
72.13627232142905
 20
25.71661830920974
 30
0.0
  0
VERTEX
  5
21D
330
1E1
100
AcDbEntity
  8
1_ANYTOOL_1MMDEEP_LABELS_S
100
AcDbVertex
100
AcDb2dVertex
 10
72.36495535714332
 20
24.69323661278156
 30
0.0
  0
VERTEX
  5
21E
330
1E1
100
AcDbEntity
  8
1_ANYTOOL_1MMDEEP_LABELS_S
100
AcDbVertex
100
AcDb2dVertex
 10
72.49553571428612
 20
24.01756696992516
 30
0.0
  0
VERTEX
  5
21F
330
1E1
100
AcDbEntity
  8
1_ANYTOOL_1MMDEEP_LABELS_S
100
AcDbVertex
100
AcDb2dVertex
 10
72.60602678571465
 20
23.34859375564008
 30
0.0
  0
VERTEX
  5
220
330
1E1
100
AcDbEntity
  8
1_ANYTOOL_1MMDEEP_LABELS_S
100
AcDbVertex
100
AcDb2dVertex
 10
72.6964285714289
 20
22.68631696992634
 30
0.0
  0
VERTEX
  5
221
330
1E1
100
AcDbEntity
  8
1_ANYTOOL_1MMDEEP_LABELS_S
100
AcDbVertex
100
AcDb2dVertex
 10
72.76674107142887
 20
22.03073661278393
 30
0.0
  0
VERTEX
  5
222
330
1E1
100
AcDbEntity
  8
1_ANYTOOL_1MMDEEP_LABELS_S
100
AcDbVertex
100
AcDb2dVertex
 10
72.81696428571456
 20
21.38185268421284
 30
0.0
  0
VERTEX
  5
223
330
1E1
100
AcDbEntity
  8
1_ANYTOOL_1MMDEEP_LABELS_S
100
AcDbVertex
100
AcDb2dVertex
 10
72.84709821428598
 20
20.7396651842131
 30
0.0
  0
VERTEX
  5
224
330
1E1
100
AcDbEntity
  8
1_ANYTOOL_1MMDEEP_LABELS_S
100
AcDbVertex
100
AcDb2dVertex
 10
72.85714285714312
 20
20.10417411278468
 30
0.0
  0
VERTEX
  5
225
330
1E1
100
AcDbEntity
  8
1_ANYTOOL_1MMDEEP_LABELS_S
100
AcDbVertex
100
AcDb2dVertex
 10
72.84626116071455
 20
19.46667411278398
 30
0.0
  0
VERTEX
  5
226
330
1E1
100
AcDbEntity
  8
1_ANYTOOL_1MMDEEP_LABELS_S
100
AcDbVertex
100
AcDb2dVertex
 10
72.81361607142884
 20
18.82917411278333
 30
0.0
  0
VERTEX
  5
227
330
1E1
100
AcDbEntity
  8
1_ANYTOOL_1MMDEEP_LABELS_S
100
AcDbVertex
100
AcDb2dVertex
 10
72.75920758928599
 20
18.19167411278275
 30
0.0
  0
VERTEX
  5
228
330
1E1
100
AcDbEntity
  8
1_ANYTOOL_1MMDEEP_LABELS_S
100
AcDbVertex
100
AcDb2dVertex
 10
72.683035714286
 20
17.55417411278222
 30
0.0
  0
VERTEX
  5
229
330
1E1
100
AcDbEntity
  8
1_ANYTOOL_1MMDEEP_LABELS_S
100
AcDbVertex
100
AcDb2dVertex
 10
72.58510044642888
 20
16.91667411278175
 30
0.0
  0
VERTEX
  5
22A
330
1E1
100
AcDbEntity
  8
1_ANYTOOL_1MMDEEP_LABELS_S
100
AcDbVertex
100
AcDb2dVertex
 10
72.46540178571462
 20
16.27917411278133
 30
0.0
  0
VERTEX
  5
22B
330
1E1
100
AcDbEntity
  8
1_ANYTOOL_1MMDEEP_LABELS_S
100
AcDbVertex
100
AcDb2dVertex
 10
72.32393973214322
 20
15.64167411278098
 30
0.0
  0
VERTEX
  5
22C
330
1E1
100
AcDbEntity
  8
1_ANYTOOL_1MMDEEP_LABELS_S
100
AcDbVertex
100
AcDb2dVertex
 10
72.16071428571468
 20
15.00417411278067
 30
0.0
  0
VERTEX
  5
22D
330
1E1
100
AcDbEntity
  8
1_ANYTOOL_1MMDEEP_LABELS_S
100
AcDbVertex
100
AcDb2dVertex
 10
71.975725446429
 20
14.36667411278043
 30
0.0
  0
VERTEX
  5
22E
330
1E1
100
AcDbEntity
  8
1_ANYTOOL_1MMDEEP_LABELS_S
100
AcDbVertex
100
AcDb2dVertex
 10
71.76897321428618
 20
13.72917411278024
 30
0.0
  0
VERTEX
  5
22F
330
1E1
100
AcDbEntity
  8
1_ANYTOOL_1MMDEEP_LABELS_S
100
AcDbVertex
100
AcDb2dVertex
 10
71.54045758928622
 20
13.09167411278011
 30
0.0
  0
VERTEX
  5
230
330
1E1
100
AcDbEntity
  8
1_ANYTOOL_1MMDEEP_LABELS_S
100
AcDbVertex
100
AcDb2dVertex
 10
71.29017857142912
 20
12.45417411278004
 30
0.0
  0
VERTEX
  5
231
330
1E1
100
AcDbEntity
  8
1_ANYTOOL_1MMDEEP_LABELS_S
100
AcDbVertex
100
AcDb2dVertex
 10
71.01813616071489
 20
11.81667411278002
 30
0.0
  0
VERTEX
  5
232
330
1E1
100
AcDbEntity
  8
1_ANYTOOL_1MMDEEP_LABELS_S
100
AcDbVertex
100
AcDb2dVertex
 10
70.72433035714351
 20
11.17917411278006
 30
0.0
  0
VERTEX
  5
233
330
1E1
100
AcDbEntity
  8
1_ANYTOOL_1MMDEEP_LABELS_S
100
AcDbVertex
100
AcDb2dVertex
 10
70.408761160715
 20
10.54167411278016
 30
0.0
  0
VERTEX
  5
234
330
1E1
100
AcDbEntity
  8
1_ANYTOOL_1MMDEEP_LABELS_S
100
AcDbVertex
100
AcDb2dVertex
 10
70.07142857142935
 20
9.90417411278031
 30
0.0
  0
VERTEX
  5
235
330
1E1
100
AcDbEntity
  8
1_ANYTOOL_1MMDEEP_LABELS_S
100
AcDbVertex
100
AcDb2dVertex
 10
69.89686104910791
 20
9.5904045815304
 30
0.0
  0
VERTEX
  5
236
330
1E1
100
AcDbEntity
  8
1_ANYTOOL_1MMDEEP_LABELS_S
100
AcDbVertex
100
AcDb2dVertex
 10
69.71601562500076
 20
9.286595987780487
 30
0.0
  0
VERTEX
  5
237
330
1E1
100
AcDbEntity
  8
1_ANYTOOL_1MMDEEP_LABELS_S
100
AcDbVertex
100
AcDb2dVertex
 10
69.5288922991079
 20
8.99274833153057
 30
0.0
  0
VERTEX
  5
238
330
1E1
100
AcDbEntity
  8
1_ANYTOOL_1MMDEEP_LABELS_S
100
AcDbVertex
100
AcDb2dVertex
 10
69.33549107142932
 20
8.708861612780652
 30
0.0
  0
VERTEX
  5
239
330
1E1
100
AcDbEntity
  8
1_ANYTOOL_1MMDEEP_LABELS_S
100
AcDbVertex
100
AcDb2dVertex
 10
69.13581194196502
 20
8.43493583153073
 30
0.0
  0
VERTEX
  5
23A
330
1E1
100
AcDbEntity
  8
1_ANYTOOL_1MMDEEP_LABELS_S
100
AcDbVertex
100
AcDb2dVertex
 10
68.92985491071501
 20
8.170970987780805
 30
0.0
  0
VERTEX
  5
23B
330
1E1
100
AcDbEntity
  8
1_ANYTOOL_1MMDEEP_LABELS_S
100
AcDbVertex
100
AcDb2dVertex
 10
68.71761997767928
 20
7.916967081530878
 30
0.0
  0
VERTEX
  5
23C
330
1E1
100
AcDbEntity
  8
1_ANYTOOL_1MMDEEP_LABELS_S
100
AcDbVertex
100
AcDb2dVertex
 10
68.49910714285784
 20
7.672924112780947
 30
0.0
  0
VERTEX
  5
23D
330
1E1
100
AcDbEntity
  8
1_ANYTOOL_1MMDEEP_LABELS_S
100
AcDbVertex
100
AcDb2dVertex
 10
68.38749651227747
 20
7.554637979968481
 30
0.0
  0
VERTEX
  5
23E
330
1E1
100
AcDbEntity
  8
1_ANYTOOL_1MMDEEP_LABELS_S
100
AcDbVertex
100
AcDb2dVertex
 10
68.27431640625068
 20
7.438842081531014
 30
0.0
  0
VERTEX
  5
23F
330
1E1
100
AcDbEntity
  8
1_ANYTOOL_1MMDEEP_LABELS_S
100
AcDbVertex
100
AcDb2dVertex
 10
68.15956682477746
 20
7.325536417468546
 30
0.0
  0
VERTEX
  5
240
330
1E1
100
AcDbEntity
  8
1_ANYTOOL_1MMDEEP_LABELS_S
100
AcDbVertex
100
AcDb2dVertex
 10
68.0432477678578
 20
7.214720987781078
 30
0.0
  0
VERTEX
  5
241
330
1E1
100
AcDbEntity
  8
1_ANYTOOL_1MMDEEP_LABELS_S
100
AcDbVertex
100
AcDb2dVertex
 10
67.92535923549173
 20
7.106395792468609
 30
0.0
  0
VERTEX
  5
242
330
1E1
100
AcDbEntity
  8
1_ANYTOOL_1MMDEEP_LABELS_S
100
AcDbVertex
100
AcDb2dVertex
 10
67.80590122767921
 20
7.000560831531139
 30
0.0
  0
VERTEX
  5
243
330
1E1
100
AcDbEntity
  8
1_ANYTOOL_1MMDEEP_LABELS_S
100
AcDbVertex
100
AcDb2dVertex
 10
67.68487374442027
 20
6.897216104968669
 30
0.0
  0
VERTEX
  5
244
330
1E1
100
AcDbEntity
  8
1_ANYTOOL_1MMDEEP_LABELS_S
100
AcDbVertex
100
AcDb2dVertex
 10
67.56227678571491
 20
6.796361612781197
 30
0.0
  0
VERTEX
  5
245
330
1E1
100
AcDbEntity
  8
1_ANYTOOL_1MMDEEP_LABELS_S
100
AcDbVertex
100
AcDb2dVertex
 10
67.43811035156313
 20
6.697997354968726
 30
0.0
  0
VERTEX
  5
246
330
1E1
100
AcDbEntity
  8
1_ANYTOOL_1MMDEEP_LABELS_S
100
AcDbVertex
100
AcDb2dVertex
 10
67.31237444196489
 20
6.602123331531253
 30
0.0
  0
VERTEX
  5
247
330
1E1
100
AcDbEntity
  8
1_ANYTOOL_1MMDEEP_LABELS_S
100
AcDbVertex
100
AcDb2dVertex
 10
67.18506905692024
 20
6.50873954246878
 30
0.0
  0
VERTEX
  5
248
330
1E1
100
AcDbEntity
  8
1_ANYTOOL_1MMDEEP_LABELS_S
100
AcDbVertex
100
AcDb2dVertex
 10
67.05619419642916
 20
6.417845987781305
 30
0.0
  0
VERTEX
  5
249
330
1E1
100
AcDbEntity
  8
1_ANYTOOL_1MMDEEP_LABELS_S
100
AcDbVertex
100
AcDb2dVertex
 10
66.92574986049163
 20
6.329442667468831
 30
0.0
  0
VERTEX
  5
24A
330
1E1
100
AcDbEntity
  8
1_ANYTOOL_1MMDEEP_LABELS_S
100
AcDbVertex
100
AcDb2dVertex
 10
66.79373604910771
 20
6.243529581531355
 30
0.0
  0
VERTEX
  5
24B
330
1E1
100
AcDbEntity
  8
1_ANYTOOL_1MMDEEP_LABELS_S
100
AcDbVertex
100
AcDb2dVertex
 10
66.66015276227733
 20
6.160106729968879
 30
0.0
  0
VERTEX
  5
24C
330
1E1
100
AcDbEntity
  8
1_ANYTOOL_1MMDEEP_LABELS_S
100
AcDbVertex
100
AcDb2dVertex
 10
66.52500000000055
 20
6.079174112781402
 30
0.0
  0
VERTEX
  5
24D
330
1E1
100
AcDbEntity
  8
1_ANYTOOL_1MMDEEP_LABELS_S
100
AcDbVertex
100
AcDb2dVertex
 10
66.38827776227731
 20
6.000731729968924
 30
0.0
  0
VERTEX
  5
24E
330
1E1
100
AcDbEntity
  8
1_ANYTOOL_1MMDEEP_LABELS_S
100
AcDbVertex
100
AcDb2dVertex
 10
66.24998604910766
 20
5.924779581531446
 30
0.0
  0
VERTEX
  5
24F
330
1E1
100
AcDbEntity
  8
1_ANYTOOL_1MMDEEP_LABELS_S
100
AcDbVertex
100
AcDb2dVertex
 10
66.11012486049157
 20
5.851317667468967
 30
0.0
  0
VERTEX
  5
250
330
1E1
100
AcDbEntity
  8
1_ANYTOOL_1MMDEEP_LABELS_S
100
AcDbVertex
100
AcDb2dVertex
 10
65.96869419642907
 20
5.780345987781487
 30
0.0
  0
VERTEX
  5
251
330
1E1
100
AcDbEntity
  8
1_ANYTOOL_1MMDEEP_LABELS_S
100
AcDbVertex
100
AcDb2dVertex
 10
65.82569405692013
 20
5.711864542469007
 30
0.0
  0
VERTEX
  5
252
330
1E1
100
AcDbEntity
  8
1_ANYTOOL_1MMDEEP_LABELS_S
100
AcDbVertex
100
AcDb2dVertex
 10
65.68112444196476
 20
5.645873331531526
 30
0.0
  0
VERTEX
  5
253
330
1E1
100
AcDbEntity
  8
1_ANYTOOL_1MMDEEP_LABELS_S
100
AcDbVertex
100
AcDb2dVertex
 10
65.53498535156297
 20
5.582372354969044
 30
0.0
  0
VERTEX
  5
254
330
1E1
100
AcDbEntity
  8
1_ANYTOOL_1MMDEEP_LABELS_S
100
AcDbVertex
100
AcDb2dVertex
 10
65.38727678571473
 20
5.521361612781561
 30
0.0
  0
VERTEX
  5
255
330
1E1
100
AcDbEntity
  8
1_ANYTOOL_1MMDEEP_LABELS_S
100
AcDbVertex
100
AcDb2dVertex
 10
65.23799874442007
 20
5.462841104969078
 30
0.0
  0
VERTEX
  5
256
330
1E1
100
AcDbEntity
  8
1_ANYTOOL_1MMDEEP_LABELS_S
100
AcDbVertex
100
AcDb2dVertex
 10
65.08715122767899
 20
5.406810831531594
 30
0.0
  0
VERTEX
  5
257
330
1E1
100
AcDbEntity
  8
1_ANYTOOL_1MMDEEP_LABELS_S
100
AcDbVertex
100
AcDb2dVertex
 10
64.93473423549148
 20
5.353270792469109
 30
0.0
  0
VERTEX
  5
258
330
1E1
100
AcDbEntity
  8
1_ANYTOOL_1MMDEEP_LABELS_S
100
AcDbVertex
100
AcDb2dVertex
 10
64.78074776785753
 20
5.302220987781624
 30
0.0
  0
VERTEX
  5
259
330
1E1
100
AcDbEntity
  8
1_ANYTOOL_1MMDEEP_LABELS_S
100
AcDbVertex
100
AcDb2dVertex
 10
64.46806640625036
 20
5.207592081531651
 30
0.0
  0
VERTEX
  5
25A
330
1E1
100
AcDbEntity
  8
1_ANYTOOL_1MMDEEP_LABELS_S
100
AcDbVertex
100
AcDb2dVertex
 10
64.14910714285747
 20
5.122924112781675
 30
0.0
  0
VERTEX
  5
25B
330
1E1
100
AcDbEntity
  8
1_ANYTOOL_1MMDEEP_LABELS_S
100
AcDbVertex
100
AcDb2dVertex
 10
63.82386997767887
 20
5.048217081531696
 30
0.0
  0
VERTEX
  5
25C
330
1E1
100
AcDbEntity
  8
1_ANYTOOL_1MMDEEP_LABELS_S
100
AcDbVertex
100
AcDb2dVertex
 10
63.49235491071455
 20
4.983470987781715
 30
0.0
  0
VERTEX
  5
25D
330
1E1
100
AcDbEntity
  8
1_ANYTOOL_1MMDEEP_LABELS_S
100
AcDbVertex
100
AcDb2dVertex
 10
63.15456194196452
 20
4.92868583153173
 30
0.0
  0
VERTEX
  5
25E
330
1E1
100
AcDbEntity
  8
1_ANYTOOL_1MMDEEP_LABELS_S
100
AcDbVertex
100
AcDb2dVertex
 10
62.81049107142877
 20
4.883861612781743
 30
0.0
  0
VERTEX
  5
25F
330
1E1
100
AcDbEntity
  8
1_ANYTOOL_1MMDEEP_LABELS_S
100
AcDbVertex
100
AcDb2dVertex
 10
62.4601422991073
 20
4.848998331531753
 30
0.0
  0
VERTEX
  5
260
330
1E1
100
AcDbEntity
  8
1_ANYTOOL_1MMDEEP_LABELS_S
100
AcDbVertex
100
AcDb2dVertex
 10
62.10351562500013
 20
4.82409598778176
 30
0.0
  0
VERTEX
  5
261
330
1E1
100
AcDbEntity
  8
1_ANYTOOL_1MMDEEP_LABELS_S
100
AcDbVertex
100
AcDb2dVertex
 10
61.74061104910723
 20
4.809154581531764
 30
0.0
  0
VERTEX
  5
262
330
1E1
100
AcDbEntity
  8
1_ANYTOOL_1MMDEEP_LABELS_S
100
AcDbVertex
100
AcDb2dVertex
 10
61.37142857142862
 20
4.804174112781766
 30
0.0
  0
VERTEX
  5
263
330
1E1
100
AcDbEntity
  8
1_ANYTOOL_1MMDEEP_LABELS_S
100
AcDbVertex
100
AcDb2dVertex
 10
60.98902064732152
 20
4.809238286888906
 30
0.0
  0
VERTEX
  5
264
330
1E1
100
AcDbEntity
  8
1_ANYTOOL_1MMDEEP_LABELS_S
100
AcDbVertex
100
AcDb2dVertex
 10
60.6132254464287
 20
4.824430809210327
 30
0.0
  0
VERTEX
  5
265
330
1E1
100
AcDbEntity
  8
1_ANYTOOL_1MMDEEP_LABELS_S
100
AcDbVertex
100
AcDb2dVertex
 10
60.24404296875016
 20
4.849751679746028
 30
0.0
  0
VERTEX
  5
266
330
1E1
100
AcDbEntity
  8
1_ANYTOOL_1MMDEEP_LABELS_S
100
AcDbVertex
100
AcDb2dVertex
 10
59.8814732142859
 20
4.885200898496009
 30
0.0
  0
VERTEX
  5
267
330
1E1
100
AcDbEntity
  8
1_ANYTOOL_1MMDEEP_LABELS_S
100
AcDbVertex
100
AcDb2dVertex
 10
59.52551618303593
 20
4.930778465460271
 30
0.0
  0
VERTEX
  5
268
330
1E1
100
AcDbEntity
  8
1_ANYTOOL_1MMDEEP_LABELS_S
100
AcDbVertex
100
AcDb2dVertex
 10
59.17617187500024
 20
4.986484380638814
 30
0.0
  0
VERTEX
  5
269
330
1E1
100
AcDbEntity
  8
1_ANYTOOL_1MMDEEP_LABELS_S
100
AcDbVertex
100
AcDb2dVertex
 10
58.83344029017883
 20
5.052318644031637
 30
0.0
  0
VERTEX
  5
26A
330
1E1
100
AcDbEntity
  8
1_ANYTOOL_1MMDEEP_LABELS_S
100
AcDbVertex
100
AcDb2dVertex
 10
58.49732142857169
 20
5.12828125563874
 30
0.0
  0
VERTEX
  5
26B
330
1E1
100
AcDbEntity
  8
1_ANYTOOL_1MMDEEP_LABELS_S
100
AcDbVertex
100
AcDb2dVertex
 10
58.16781529017885
 20
5.214372215460124
 30
0.0
  0
VERTEX
  5
26C
330
1E1
100
AcDbEntity
  8
1_ANYTOOL_1MMDEEP_LABELS_S
100
AcDbVertex
100
AcDb2dVertex
 10
57.84492187500028
 20
5.310591523495788
 30
0.0
  0
VERTEX
  5
26D
330
1E1
100
AcDbEntity
  8
1_ANYTOOL_1MMDEEP_LABELS_S
100
AcDbVertex
100
AcDb2dVertex
 10
57.68595493861636
 20
5.362499308093975
 30
0.0
  0
VERTEX
  5
26E
330
1E1
100
AcDbEntity
  8
1_ANYTOOL_1MMDEEP_LABELS_S
100
AcDbVertex
100
AcDb2dVertex
 10
57.528641183036
 20
5.416939179745732
 30
0.0
  0
VERTEX
  5
26F
330
1E1
100
AcDbEntity
  8
1_ANYTOOL_1MMDEEP_LABELS_S
100
AcDbVertex
100
AcDb2dVertex
 10
57.37298060825921
 20
5.47391113845106
 30
0.0
  0
VERTEX
  5
270
330
1E1
100
AcDbEntity
  8
1_ANYTOOL_1MMDEEP_LABELS_S
100
AcDbVertex
100
AcDb2dVertex
 10
57.218973214286
 20
5.533415184209957
 30
0.0
  0
VERTEX
  5
271
330
1E1
100
AcDbEntity
  8
1_ANYTOOL_1MMDEEP_LABELS_S
100
AcDbVertex
100
AcDb2dVertex
 10
57.06661900111635
 20
5.595451317022425
 30
0.0
  0
VERTEX
  5
272
330
1E1
100
AcDbEntity
  8
1_ANYTOOL_1MMDEEP_LABELS_S
100
AcDbVertex
100
AcDb2dVertex
 10
56.91591796875028
 20
5.660019536888463
 30
0.0
  0
VERTEX
  5
273
330
1E1
100
AcDbEntity
  8
1_ANYTOOL_1MMDEEP_LABELS_S
100
AcDbVertex
100
AcDb2dVertex
 10
56.76687011718777
 20
5.727119843808071
 30
0.0
  0
VERTEX
  5
274
330
1E1
100
AcDbEntity
  8
1_ANYTOOL_1MMDEEP_LABELS_S
100
AcDbVertex
100
AcDb2dVertex
 10
56.61947544642884
 20
5.796752237781249
 30
0.0
  0
VERTEX
  5
275
330
1E1
100
AcDbEntity
  8
1_ANYTOOL_1MMDEEP_LABELS_S
100
AcDbVertex
100
AcDb2dVertex
 10
56.47373395647347
 20
5.868916718807997
 30
0.0
  0
VERTEX
  5
276
330
1E1
100
AcDbEntity
  8
1_ANYTOOL_1MMDEEP_LABELS_S
100
AcDbVertex
100
AcDb2dVertex
 10
56.32964564732168
 20
5.943613286888315
 30
0.0
  0
VERTEX
  5
277
330
1E1
100
AcDbEntity
  8
1_ANYTOOL_1MMDEEP_LABELS_S
100
AcDbVertex
100
AcDb2dVertex
 10
56.18721051897346
 20
6.020841942022203
 30
0.0
  0
VERTEX
  5
278
330
1E1
100
AcDbEntity
  8
1_ANYTOOL_1MMDEEP_LABELS_S
100
AcDbVertex
100
AcDb2dVertex
 10
56.04642857142881
 20
6.100602684209662
 30
0.0
  0
VERTEX
  5
279
330
1E1
100
AcDbEntity
  8
1_ANYTOOL_1MMDEEP_LABELS_S
100
AcDbVertex
100
AcDb2dVertex
 10
55.90729980468772
 20
6.18289551345069
 30
0.0
  0
VERTEX
  5
27A
330
1E1
100
AcDbEntity
  8
1_ANYTOOL_1MMDEEP_LABELS_S
100
AcDbVertex
100
AcDb2dVertex
 10
55.76982421875022
 20
6.267720429745289
 30
0.0
  0
VERTEX
  5
27B
330
1E1
100
AcDbEntity
  8
1_ANYTOOL_1MMDEEP_LABELS_S
100
AcDbVertex
100
AcDb2dVertex
 10
55.63400181361627
 20
6.355077433093458
 30
0.0
  0
VERTEX
  5
27C
330
1E1
100
AcDbEntity
  8
1_ANYTOOL_1MMDEEP_LABELS_S
100
AcDbVertex
100
AcDb2dVertex
 10
55.4998325892859
 20
6.444966523495196
 30
0.0
  0
VERTEX
  5
27D
330
1E1
100
AcDbEntity
  8
1_ANYTOOL_1MMDEEP_LABELS_S
100
AcDbVertex
100
AcDb2dVertex
 10
55.3673165457591
 20
6.537387700950505
 30
0.0
  0
VERTEX
  5
27E
330
1E1
100
AcDbEntity
  8
1_ANYTOOL_1MMDEEP_LABELS_S
100
AcDbVertex
100
AcDb2dVertex
 10
55.23645368303588
 20
6.632340965459385
 30
0.0
  0
VERTEX
  5
27F
330
1E1
100
AcDbEntity
  8
1_ANYTOOL_1MMDEEP_LABELS_S
100
AcDbVertex
100
AcDb2dVertex
 10
55.10724400111621
 20
6.729826317021834
 30
0.0
  0
VERTEX
  5
280
330
1E1
100
AcDbEntity
  8
1_ANYTOOL_1MMDEEP_LABELS_S
100
AcDbVertex
100
AcDb2dVertex
 10
54.97968750000013
 20
6.829843755637853
 30
0.0
  0
VERTEX
  5
281
330
1E1
100
AcDbEntity
  8
1_ANYTOOL_1MMDEEP_LABELS_S
100
AcDbVertex
100
AcDb2dVertex
 10
54.85378417968761
 20
6.932393281307442
 30
0.0
  0
VERTEX
  5
282
330
1E1
100
AcDbEntity
  8
1_ANYTOOL_1MMDEEP_LABELS_S
100
AcDbVertex
100
AcDb2dVertex
 10
54.72953404017866
 20
7.037474894030602
 30
0.0
  0
VERTEX
  5
283
330
1E1
100
AcDbEntity
  8
1_ANYTOOL_1MMDEEP_LABELS_S
100
AcDbVertex
100
AcDb2dVertex
 10
54.60693708147328
 20
7.145088593807332
 30
0.0
  0
VERTEX
  5
284
330
1E1
100
AcDbEntity
  8
1_ANYTOOL_1MMDEEP_LABELS_S
100
AcDbVertex
100
AcDb2dVertex
 10
54.48599330357148
 20
7.255234380637631
 30
0.0
  0
VERTEX
  5
285
330
1E1
100
AcDbEntity
  8
1_ANYTOOL_1MMDEEP_LABELS_S
100
AcDbVertex
100
AcDb2dVertex
 10
54.36670270647324
 20
7.367912254521501
 30
0.0
  0
VERTEX
  5
286
330
1E1
100
AcDbEntity
  8
1_ANYTOOL_1MMDEEP_LABELS_S
100
AcDbVertex
100
AcDb2dVertex
 10
54.24906529017858
 20
7.483122215458941
 30
0.0
  0
VERTEX
  5
287
330
1E1
100
AcDbEntity
  8
1_ANYTOOL_1MMDEEP_LABELS_S
100
AcDbVertex
100
AcDb2dVertex
 10
54.13308105468748
 20
7.600864263449951
 30
0.0
  0
VERTEX
  5
288
330
1E1
100
AcDbEntity
  8
1_ANYTOOL_1MMDEEP_LABELS_S
100
AcDbVertex
100
AcDb2dVertex
 10
54.01874999999995
 20
7.721138398494531
 30
0.0
  0
VERTEX
  5
289
330
1E1
100
AcDbEntity
  8
1_ANYTOOL_1MMDEEP_LABELS_S
100
AcDbVertex
100
AcDb2dVertex
 10
53.906072126116
 20
7.843944620592682
 30
0.0
  0
VERTEX
  5
28A
330
1E1
100
AcDbEntity
  8
1_ANYTOOL_1MMDEEP_LABELS_S
100
AcDbVertex
100
AcDb2dVertex
 10
53.79504743303562
 20
7.969282929744402
 30
0.0
  0
VERTEX
  5
28B
330
1E1
100
AcDbEntity
  8
1_ANYTOOL_1MMDEEP_LABELS_S
100
AcDbVertex
100
AcDb2dVertex
 10
53.57795758928556
 20
8.227555809208553
 30
0.0
  0
VERTEX
  5
28C
330
1E1
100
AcDbEntity
  8
1_ANYTOOL_1MMDEEP_LABELS_S
100
AcDbVertex
100
AcDb2dVertex
 10
53.36748046874979
 20
8.495957036886985
 30
0.0
  0
VERTEX
  5
28D
330
1E1
100
AcDbEntity
  8
1_ANYTOOL_1MMDEEP_LABELS_S
100
AcDbVertex
100
AcDb2dVertex
 10
53.16361607142829
 20
8.774486612779697
 30
0.0
  0
VERTEX
  5
28E
330
1E1
100
AcDbEntity
  8
1_ANYTOOL_1MMDEEP_LABELS_S
100
AcDbVertex
100
AcDb2dVertex
 10
52.96636439732109
 20
9.06314453688669
 30
0.0
  0
VERTEX
  5
28F
330
1E1
100
AcDbEntity
  8
1_ANYTOOL_1MMDEEP_LABELS_S
100
AcDbVertex
100
AcDb2dVertex
 10
52.77572544642815
 20
9.361930809207962
 30
0.0
  0
VERTEX
  5
290
330
1E1
100
AcDbEntity
  8
1_ANYTOOL_1MMDEEP_LABELS_S
100
AcDbVertex
100
AcDb2dVertex
 10
52.59169921874951
 20
9.670845429743515
 30
0.0
  0
VERTEX
  5
291
330
1E1
100
AcDbEntity
  8
1_ANYTOOL_1MMDEEP_LABELS_S
100
AcDbVertex
100
AcDb2dVertex
 10
52.41428571428514
 20
9.989888398493349
 30
0.0
  0
VERTEX
  5
292
330
1E1
100
AcDbEntity
  8
1_ANYTOOL_1MMDEEP_LABELS_S
100
AcDbVertex
100
AcDb2dVertex
 10
52.08214285714227
 20
10.63827009492246
 30
0.0
  0
VERTEX
  5
293
330
1E1
100
AcDbEntity
  8
1_ANYTOOL_1MMDEEP_LABELS_S
100
AcDbVertex
100
AcDb2dVertex
 10
51.77142857142798
 20
11.28698661278008
 30
0.0
  0
VERTEX
  5
294
330
1E1
100
AcDbEntity
  8
1_ANYTOOL_1MMDEEP_LABELS_S
100
AcDbVertex
100
AcDb2dVertex
 10
51.48214285714225
 20
11.93603795206621
 30
0.0
  0
VERTEX
  5
295
330
1E1
100
AcDbEntity
  8
1_ANYTOOL_1MMDEEP_LABELS_S
100
AcDbVertex
100
AcDb2dVertex
 10
51.2142857142851
 20
12.58542411278086
 30
0.0
  0
VERTEX
  5
296
330
1E1
100
AcDbEntity
  8
1_ANYTOOL_1MMDEEP_LABELS_S
100
AcDbVertex
100
AcDb2dVertex
 10
50.96785714285652
 20
13.23514509492401
 30
0.0
  0
VERTEX
  5
297
330
1E1
100
AcDbEntity
  8
1_ANYTOOL_1MMDEEP_LABELS_S
100
AcDbVertex
100
AcDb2dVertex
 10
50.74285714285651
 20
13.88520089849567
 30
0.0
  0
VERTEX
  5
298
330
1E1
100
AcDbEntity
  8
1_ANYTOOL_1MMDEEP_LABELS_S
100
AcDbVertex
100
AcDb2dVertex
 10
50.53928571428507
 20
14.53559152349584
 30
0.0
  0
VERTEX
  5
299
330
1E1
100
AcDbEntity
  8
1_ANYTOOL_1MMDEEP_LABELS_S
100
AcDbVertex
100
AcDb2dVertex
 10
50.35714285714221
 20
15.18631696992452
 30
0.0
  0
VERTEX
  5
29A
330
1E1
100
AcDbEntity
  8
1_ANYTOOL_1MMDEEP_LABELS_S
100
AcDbVertex
100
AcDb2dVertex
 10
50.19642857142792
 20
15.83737723778171
 30
0.0
  0
VERTEX
  5
29B
330
1E1
100
AcDbEntity
  8
1_ANYTOOL_1MMDEEP_LABELS_S
100
AcDbVertex
100
AcDb2dVertex
 10
50.0571428571422
 20
16.48877232706741
 30
0.0
  0
VERTEX
  5
29C
330
1E1
100
AcDbEntity
  8
1_ANYTOOL_1MMDEEP_LABELS_S
100
AcDbVertex
100
AcDb2dVertex
 10
49.93928571428505
 20
17.14050223778162
 30
0.0
  0
VERTEX
  5
29D
330
1E1
100
AcDbEntity
  8
1_ANYTOOL_1MMDEEP_LABELS_S
100
AcDbVertex
100
AcDb2dVertex
 10
49.84285714285647
 20
17.79256696992434
 30
0.0
  0
VERTEX
  5
29E
330
1E1
100
AcDbEntity
  8
1_ANYTOOL_1MMDEEP_LABELS_S
100
AcDbVertex
100
AcDb2dVertex
 10
49.76785714285647
 20
18.44496652349557
 30
0.0
  0
VERTEX
  5
29F
330
1E1
100
AcDbEntity
  8
1_ANYTOOL_1MMDEEP_LABELS_S
100
AcDbVertex
100
AcDb2dVertex
 10
49.71428571428504
 20
19.0977008984953
 30
0.0
  0
VERTEX
  5
2A0
330
1E1
100
AcDbEntity
  8
1_ANYTOOL_1MMDEEP_LABELS_S
100
AcDbVertex
100
AcDb2dVertex
 10
49.68214285714218
 20
19.75077009492355
 30
0.0
  0
VERTEX
  5
2A1
330
1E1
100
AcDbEntity
  8
1_ANYTOOL_1MMDEEP_LABELS_S
100
AcDbVertex
100
AcDb2dVertex
 10
49.6714285714279
 20
20.40417411278031
 30
0.0
  0
VERTEX
  5
2A2
330
1E1
100
AcDbEntity
  8
1_ANYTOOL_1MMDEEP_LABELS_S
100
AcDbVertex
100
AcDb2dVertex
 10
49.68264508928504
 20
21.09758929135162
 30
0.0
  0
VERTEX
  5
2A3
330
1E1
100
AcDbEntity
  8
1_ANYTOOL_1MMDEEP_LABELS_S
100
AcDbVertex
100
AcDb2dVertex
 10
49.71629464285647
 20
21.78497768420868
 30
0.0
  0
VERTEX
  5
2A4
330
1E1
100
AcDbEntity
  8
1_ANYTOOL_1MMDEEP_LABELS_S
100
AcDbVertex
100
AcDb2dVertex
 10
49.77237723214218
 20
22.46633929135149
 30
0.0
  0
VERTEX
  5
2A5
330
1E1
100
AcDbEntity
  8
1_ANYTOOL_1MMDEEP_LABELS_S
100
AcDbVertex
100
AcDb2dVertex
 10
49.85089285714218
 20
23.14167411278004
 30
0.0
  0
VERTEX
  5
2A6
330
1E1
100
AcDbEntity
  8
1_ANYTOOL_1MMDEEP_LABELS_S
100
AcDbVertex
100
AcDb2dVertex
 10
49.95184151785647
 20
23.81098214849433
 30
0.0
  0
VERTEX
  5
2A7
330
1E1
100
AcDbEntity
  8
1_ANYTOOL_1MMDEEP_LABELS_S
100
AcDbVertex
100
AcDb2dVertex
 10
50.07522321428505
 20
24.47426339849437
 30
0.0
  0
VERTEX
  5
2A8
330
1E1
100
AcDbEntity
  8
1_ANYTOOL_1MMDEEP_LABELS_S
100
AcDbVertex
100
AcDb2dVertex
 10
50.22103794642791
 20
25.13151786278016
 30
0.0
  0
VERTEX
  5
2A9
330
1E1
100
AcDbEntity
  8
1_ANYTOOL_1MMDEEP_LABELS_S
100
AcDbVertex
100
AcDb2dVertex
 10
50.38928571428505
 20
25.78274554135169
 30
0.0
  0
VERTEX
  5
2AA
330
1E1
100
AcDbEntity
  8
1_ANYTOOL_1MMDEEP_LABELS_S
100
AcDbVertex
100
AcDb2dVertex
 10
50.57996651785648
 20
26.42794643420896
 30
0.0
  0
VERTEX
  5
2AB
330
1E1
100
AcDbEntity
  8
1_ANYTOOL_1MMDEEP_LABELS_S
100
AcDbVertex
100
AcDb2dVertex
 10
50.7930803571422
 20
27.06712054135198
 30
0.0
  0
VERTEX
  5
2AC
330
1E1
100
AcDbEntity
  8
1_ANYTOOL_1MMDEEP_LABELS_S
100
AcDbVertex
100
AcDb2dVertex
 10
51.02862723214221
 20
27.70026786278075
 30
0.0
  0
VERTEX
  5
2AD
330
1E1
100
AcDbEntity
  8
1_ANYTOOL_1MMDEEP_LABELS_S
100
AcDbVertex
100
AcDb2dVertex
 10
51.2866071428565
 20
28.32738839849526
 30
0.0
  0
VERTEX
  5
2AE
330
1E1
100
AcDbEntity
  8
1_ANYTOOL_1MMDEEP_LABELS_S
100
AcDbVertex
100
AcDb2dVertex
 10
51.56702008928507
 20
28.94848214849551
 30
0.0
  0
VERTEX
  5
2AF
330
1E1
100
AcDbEntity
  8
1_ANYTOOL_1MMDEEP_LABELS_S
100
AcDbVertex
100
AcDb2dVertex
 10
51.86986607142794
 20
29.56354911278152
 30
0.0
  0
VERTEX
  5
2B0
330
1E1
100
AcDbEntity
  8
1_ANYTOOL_1MMDEEP_LABELS_S
100
AcDbVertex
100
AcDb2dVertex
 10
52.19514508928508
 20
30.17258929135326
 30
0.0
  0
VERTEX
  5
2B1
330
1E1
100
AcDbEntity
  8
1_ANYTOOL_1MMDEEP_LABELS_S
100
AcDbVertex
100
AcDb2dVertex
 10
52.54285714285652
 20
30.77560268421075
 30
0.0
  0
VERTEX
  5
2B2
330
1E1
100
AcDbEntity
  8
1_ANYTOOL_1MMDEEP_LABELS_S
100
AcDbVertex
100
AcDb2dVertex
 10
52.72826450892802
 20
31.07355190296089
 30
0.0
  0
VERTEX
  5
2B3
330
1E1
100
AcDbEntity
  8
1_ANYTOOL_1MMDEEP_LABELS_S
100
AcDbVertex
100
AcDb2dVertex
 10
52.92020089285667
 20
31.36204241635389
 30
0.0
  0
VERTEX
  5
2B4
330
1E1
100
AcDbEntity
  8
1_ANYTOOL_1MMDEEP_LABELS_S
100
AcDbVertex
100
AcDb2dVertex
 10
53.11866629464245
 20
31.64107422438973
 30
0.0
  0
VERTEX
  5
2B5
330
1E1
100
AcDbEntity
  8
1_ANYTOOL_1MMDEEP_LABELS_S
100
AcDbVertex
100
AcDb2dVertex
 10
53.32366071428538
 20
31.91064732706843
 30
0.0
  0
VERTEX
  5
2B6
330
1E1
100
AcDbEntity
  8
1_ANYTOOL_1MMDEEP_LABELS_S
100
AcDbVertex
100
AcDb2dVertex
 10
53.53518415178544
 20
32.17076172438998
 30
0.0
  0
VERTEX
  5
2B7
330
1E1
100
AcDbEntity
  8
1_ANYTOOL_1MMDEEP_LABELS_S
100
AcDbVertex
100
AcDb2dVertex
 10
53.75323660714265
 20
32.42141741635439
 30
0.0
  0
VERTEX
  5
2B8
330
1E1
100
AcDbEntity
  8
1_ANYTOOL_1MMDEEP_LABELS_S
100
AcDbVertex
100
AcDb2dVertex
 10
53.977818080357
 20
32.66261440296164
 30
0.0
  0
VERTEX
  5
2B9
330
1E1
100
AcDbEntity
  8
1_ANYTOOL_1MMDEEP_LABELS_S
100
AcDbVertex
100
AcDb2dVertex
 10
54.20892857142849
 20
32.89435268421175
 30
0.0
  0
VERTEX
  5
2BA
330
1E1
100
AcDbEntity
  8
1_ANYTOOL_1MMDEEP_LABELS_S
100
AcDbVertex
100
AcDb2dVertex
 10
54.32693219866066
 20
33.00667481032788
 30
0.0
  0
VERTEX
  5
2BB
330
1E1
100
AcDbEntity
  8
1_ANYTOOL_1MMDEEP_LABELS_S
100
AcDbVertex
100
AcDb2dVertex
 10
54.44656808035711
 20
33.11663226010472
 30
0.0
  0
VERTEX
  5
2BC
330
1E1
100
AcDbEntity
  8
1_ANYTOOL_1MMDEEP_LABELS_S
100
AcDbVertex
100
AcDb2dVertex
 10
54.56783621651785
 20
33.22422503354227
 30
0.0
  0
VERTEX
  5
2BD
330
1E1
100
AcDbEntity
  8
1_ANYTOOL_1MMDEEP_LABELS_S
100
AcDbVertex
100
AcDb2dVertex
 10
54.69073660714288
 20
33.32945313064053
 30
0.0
  0
VERTEX
  5
2BE
330
1E1
100
AcDbEntity
  8
1_ANYTOOL_1MMDEEP_LABELS_S
100
AcDbVertex
100
AcDb2dVertex
 10
54.81526925223219
 20
33.43231655139951
 30
0.0
  0
VERTEX
  5
2BF
330
1E1
100
AcDbEntity
  8
1_ANYTOOL_1MMDEEP_LABELS_S
100
AcDbVertex
100
AcDb2dVertex
 10
54.94143415178578
 20
33.5328152958192
 30
0.0
  0
VERTEX
  5
2C0
330
1E1
100
AcDbEntity
  8
1_ANYTOOL_1MMDEEP_LABELS_S
100
AcDbVertex
100
AcDb2dVertex
 10
55.06923130580367
 20
33.6309493638996
 30
0.0
  0
VERTEX
  5
2C1
330
1E1
100
AcDbEntity
  8
1_ANYTOOL_1MMDEEP_LABELS_S
100
AcDbVertex
100
AcDb2dVertex
 10
55.19866071428584
 20
33.72671875564072
 30
0.0
  0
VERTEX
  5
2C2
330
1E1
100
AcDbEntity
  8
1_ANYTOOL_1MMDEEP_LABELS_S
100
AcDbVertex
100
AcDb2dVertex
 10
55.32972237723229
 20
33.82012347104255
 30
0.0
  0
VERTEX
  5
2C3
330
1E1
100
AcDbEntity
  8
1_ANYTOOL_1MMDEEP_LABELS_S
100
AcDbVertex
100
AcDb2dVertex
 10
55.46241629464302
 20
33.91116351010509
 30
0.0
  0
VERTEX
  5
2C4
330
1E1
100
AcDbEntity
  8
1_ANYTOOL_1MMDEEP_LABELS_S
100
AcDbVertex
100
AcDb2dVertex
 10
55.59674246651804
 20
33.99983887282835
 30
0.0
  0
VERTEX
  5
2C5
330
1E1
100
AcDbEntity
  8
1_ANYTOOL_1MMDEEP_LABELS_S
100
AcDbVertex
100
AcDb2dVertex
 10
55.73270089285735
 20
34.08614955921232
 30
0.0
  0
VERTEX
  5
2C6
330
1E1
100
AcDbEntity
  8
1_ANYTOOL_1MMDEEP_LABELS_S
100
AcDbVertex
100
AcDb2dVertex
 10
55.87029157366094
 20
34.170095569257
 30
0.0
  0
VERTEX
  5
2C7
330
1E1
100
AcDbEntity
  8
1_ANYTOOL_1MMDEEP_LABELS_S
100
AcDbVertex
100
AcDb2dVertex
 10
56.00951450892882
 20
34.25167690296239
 30
0.0
  0
VERTEX
  5
2C8
330
1E1
100
AcDbEntity
  8
1_ANYTOOL_1MMDEEP_LABELS_S
100
AcDbVertex
100
AcDb2dVertex
 10
56.15036969866098
 20
34.33089356032851
 30
0.0
  0
VERTEX
  5
2C9
330
1E1
100
AcDbEntity
  8
1_ANYTOOL_1MMDEEP_LABELS_S
100
AcDbVertex
100
AcDb2dVertex
 10
56.29285714285743
 20
34.40774554135533
 30
0.0
  0
VERTEX
  5
2CA
330
1E1
100
AcDbEntity
  8
1_ANYTOOL_1MMDEEP_LABELS_S
100
AcDbVertex
100
AcDb2dVertex
 10
56.43697684151816
 20
34.48223284604286
 30
0.0
  0
VERTEX
  5
2CB
330
1E1
100
AcDbEntity
  8
1_ANYTOOL_1MMDEEP_LABELS_S
100
AcDbVertex
100
AcDb2dVertex
 10
56.58272879464317
 20
34.55435547439111
 30
0.0
  0
VERTEX
  5
2CC
330
1E1
100
AcDbEntity
  8
1_ANYTOOL_1MMDEEP_LABELS_S
100
AcDbVertex
100
AcDb2dVertex
 10
56.87912946428607
 20
34.69150670206974
 30
0.0
  0
VERTEX
  5
2CD
330
1E1
100
AcDbEntity
  8
1_ANYTOOL_1MMDEEP_LABELS_S
100
AcDbVertex
100
AcDb2dVertex
 10
57.18205915178609
 20
34.81919922439123
 30
0.0
  0
VERTEX
  5
2CE
330
1E1
100
AcDbEntity
  8
1_ANYTOOL_1MMDEEP_LABELS_S
100
AcDbVertex
100
AcDb2dVertex
 10
57.49151785714326
 20
34.93743304135558
 30
0.0
  0
VERTEX
  5
2CF
330
1E1
100
AcDbEntity
  8
1_ANYTOOL_1MMDEEP_LABELS_S
100
AcDbVertex
100
AcDb2dVertex
 10
57.80750558035757
 20
35.04620815296277
 30
0.0
  0
VERTEX
  5
2D0
330
1E1
100
AcDbEntity
  8
1_ANYTOOL_1MMDEEP_LABELS_S
100
AcDbVertex
100
AcDb2dVertex
 10
58.13002232142902
 20
35.14552455921282
 30
0.0
  0
VERTEX
  5
2D1
330
1E1
100
AcDbEntity
  8
1_ANYTOOL_1MMDEEP_LABELS_S
100
AcDbVertex
100
AcDb2dVertex
 10
58.45906808035761
 20
35.23538226010572
 30
0.0
  0
VERTEX
  5
2D2
330
1E1
100
AcDbEntity
  8
1_ANYTOOL_1MMDEEP_LABELS_S
100
AcDbVertex
100
AcDb2dVertex
 10
58.79464285714334
 20
35.31578125564147
 30
0.0
  0
VERTEX
  5
2D3
330
1E1
100
AcDbEntity
  8
1_ANYTOOL_1MMDEEP_LABELS_S
100
AcDbVertex
100
AcDb2dVertex
 10
59.13674665178621
 20
35.38672154582007
 30
0.0
  0
VERTEX
  5
2D4
330
1E1
100
AcDbEntity
  8
1_ANYTOOL_1MMDEEP_LABELS_S
100
AcDbVertex
100
AcDb2dVertex
 10
59.48537946428623
 20
35.44820313064153
 30
0.0
  0
VERTEX
  5
2D5
330
1E1
100
AcDbEntity
  8
1_ANYTOOL_1MMDEEP_LABELS_S
100
AcDbVertex
100
AcDb2dVertex
 10
59.84054129464337
 20
35.50022601010584
 30
0.0
  0
VERTEX
  5
2D6
330
1E1
100
AcDbEntity
  8
1_ANYTOOL_1MMDEEP_LABELS_S
100
AcDbVertex
100
AcDb2dVertex
 10
60.20223214285767
 20
35.542790184213
 30
0.0
  0
VERTEX
  5
2D7
330
1E1
100
AcDbEntity
  8
1_ANYTOOL_1MMDEEP_LABELS_S
100
AcDbVertex
100
AcDb2dVertex
 10
60.5704520089291
 20
35.57589565296302
 30
0.0
  0
VERTEX
  5
2D8
330
1E1
100
AcDbEntity
  8
1_ANYTOOL_1MMDEEP_LABELS_S
100
AcDbVertex
100
AcDb2dVertex
 10
60.94520089285767
 20
35.59954241635589
 30
0.0
  0
VERTEX
  5
2D9
330
1E1
100
AcDbEntity
  8
1_ANYTOOL_1MMDEEP_LABELS_S
100
AcDbVertex
100
AcDb2dVertex
 10
61.32647879464338
 20
35.61373047439161
 30
0.0
  0
SEQEND
  5
2DA
330
1E1
100
AcDbEntity
  8
1_ANYTOOL_1MMDEEP_LABELS_S
  0
LINE
  5
2DB
330
1F
100
AcDbEntity
  8
1_ANYTOOL_1MMDEEP_LABELS_S
100
AcDbLine
 10
45.64285714285688
 20
19.1613169699267
 30
0.0
 11
36.85714285714312
 21
19.07560268421366
 31
0.0
  0
POLYLINE
  5
2DC
330
1F
100
AcDbEntity
  8
1_ANYTOOL_1MMDEEP_LABELS_S
100
AcDb2dPolyline
 66
     1
 10
0.0
 20
0.0
 30
0.0
  0
VERTEX
  5
2DD
330
2DC
100
AcDbEntity
  8
1_ANYTOOL_1MMDEEP_LABELS_S
100
AcDbVertex
100
AcDb2dVertex
 10
1.285714285713766
 20
35.27560268421075
 30
0.0
  0
VERTEX
  5
2DE
330
2DC
100
AcDbEntity
  8
1_ANYTOOL_1MMDEEP_LABELS_S
100
AcDbVertex
100
AcDb2dVertex
 10
9.0
 20
5.275602684210753
 30
0.0
  0
VERTEX
  5
2DF
330
2DC
100
AcDbEntity
  8
1_ANYTOOL_1MMDEEP_LABELS_S
100
AcDbVertex
100
AcDb2dVertex
 10
17.44285714285797
 20
34.3756026842093
 30
0.0
  0
VERTEX
  5
2E0
330
2DC
100
AcDbEntity
  8
1_ANYTOOL_1MMDEEP_LABELS_S
100
AcDbVertex
100
AcDb2dVertex
 10
25.92857142857065
 20
5.275602684210753
 30
0.0
  0
VERTEX
  5
2E1
330
2DC
100
AcDbEntity
  8
1_ANYTOOL_1MMDEEP_LABELS_S
100
AcDbVertex
100
AcDb2dVertex
 10
33.42857142857065
 20
35.27560268421075
 30
0.0
  0
SEQEND
  5
2E2
330
2DC
100
AcDbEntity
  8
1_ANYTOOL_1MMDEEP_LABELS_S
  0
POLYLINE
  5
2E4
330
1F
100
AcDbEntity
  8
5_ANYTOOL_HALF_MILL_9MM_IN
100
AcDb2dPolyline
 66
     1
 10
0.0
 20
0.0
 30
0.0000000000235829
 70
     1
  0
VERTEX
  5
2E5
330
2E4
100
AcDbEntity
  8
5_ANYTOOL_HALF_MILL_9MM_IN
100
AcDbVertex
100
AcDb2dVertex
 10
171.6249936851436
 20
69.85377512916602
 30
0.0000000000235829
 42
0.414213562372917
  0
VERTEX
  5
2E6
330
2E4
100
AcDbEntity
  8
5_ANYTOOL_HALF_MILL_9MM_IN
100
AcDbVertex
100
AcDb2dVertex
 10
165.6249936851473
 20
63.85377512916602
 30
0.0000000000235829
  0
VERTEX
  5
2E7
330
2E4
100
AcDbEntity
  8
5_ANYTOOL_HALF_MILL_9MM_IN
100
AcDbVertex
100
AcDb2dVertex
 10
165.6249936851436
 20
57.35377512912237
 30
0.0000000000235829
 42
0.4142135623729155
  0
VERTEX
  5
2E8
330
2E4
100
AcDbEntity
  8
5_ANYTOOL_HALF_MILL_9MM_IN
100
AcDbVertex
100
AcDb2dVertex
 10
171.6249936851436
 20
51.35377512911873
 30
0.0000000000235829
  0
VERTEX
  5
2E9
330
2E4
100
AcDbEntity
  8
5_ANYTOOL_HALF_MILL_9MM_IN
100
AcDbVertex
100
AcDb2dVertex
 10
220.3749936851436
 20
51.35377512912237
 30
0.0000000000235829
 42
0.4142135623735395
  0
VERTEX
  5
2EA
330
2E4
100
AcDbEntity
  8
5_ANYTOOL_HALF_MILL_9MM_IN
100
AcDbVertex
100
AcDb2dVertex
 10
226.3749936851382
 20
57.35377512912237
 30
0.0000000000235829
  0
VERTEX
  5
2EB
330
2E4
100
AcDbEntity
  8
5_ANYTOOL_HALF_MILL_9MM_IN
100
AcDbVertex
100
AcDb2dVertex
 10
226.3749936851436
 20
63.85377512916602
 30
0.0000000000235829
 42
0.4142135623723847
  0
VERTEX
  5
2EC
330
2E4
100
AcDbEntity
  8
5_ANYTOOL_HALF_MILL_9MM_IN
100
AcDbVertex
100
AcDb2dVertex
 10
220.3749936851436
 20
69.85377512916602
 30
0.0000000000235829
  0
SEQEND
  5
2ED
330
2E4
100
AcDbEntity
  8
5_ANYTOOL_HALF_MILL_9MM_IN
  0
POLYLINE
  5
2EE
330
1F
100
AcDbEntity
  8
5_ANYTOOL_HALF_MILL_9MM_IN
100
AcDb2dPolyline
 66
     1
 10
0.0
 20
0.0
 30
0.0000000000235829
 70
     1
  0
VERTEX
  5
2EF
330
2EE
100
AcDbEntity
  8
5_ANYTOOL_HALF_MILL_9MM_IN
100
AcDbVertex
100
AcDb2dVertex
 10
-220.3750063149146
 20
69.85377512915875
 30
0.0000000000235829
 42
0.4142135623722954
  0
VERTEX
  5
2F0
330
2EE
100
AcDbEntity
  8
5_ANYTOOL_HALF_MILL_9MM_IN
100
AcDbVertex
100
AcDb2dVertex
 10
-226.3750063149128
 20
63.85377512915875
 30
0.0000000000235829
  0
VERTEX
  5
2F1
330
2EE
100
AcDbEntity
  8
5_ANYTOOL_HALF_MILL_9MM_IN
100
AcDbVertex
100
AcDb2dVertex
 10
-226.3750063149146
 20
57.3537751291442
 30
0.0000000000235829
 42
0.4142135623730048
  0
VERTEX
  5
2F2
330
2EE
100
AcDbEntity
  8
5_ANYTOOL_HALF_MILL_9MM_IN
100
AcDbVertex
100
AcDb2dVertex
 10
-220.3750063149146
 20
51.35377512914238
 30
0.0000000000235829
  0
VERTEX
  5
2F3
330
2EE
100
AcDbEntity
  8
5_ANYTOOL_HALF_MILL_9MM_IN
100
AcDbVertex
100
AcDb2dVertex
 10
-171.6250063149146
 20
51.3537751291442
 30
0.0000000000235829
 42
0.4142135623730059
  0
VERTEX
  5
2F4
330
2EE
100
AcDbEntity
  8
5_ANYTOOL_HALF_MILL_9MM_IN
100
AcDbVertex
100
AcDb2dVertex
 10
-165.6250063149164
 20
57.3537751291442
 30
0.0000000000235829
  0
VERTEX
  5
2F5
330
2EE
100
AcDbEntity
  8
5_ANYTOOL_HALF_MILL_9MM_IN
100
AcDbVertex
100
AcDb2dVertex
 10
-165.6250063149146
 20
63.85377512915875
 30
0.0000000000235829
 42
0.4142135623722956
  0
VERTEX
  5
2F6
330
2EE
100
AcDbEntity
  8
5_ANYTOOL_HALF_MILL_9MM_IN
100
AcDbVertex
100
AcDb2dVertex
 10
-171.6250063149146
 20
69.85377512916057
 30
0.0000000000235829
  0
SEQEND
  5
2F7
330
2EE
100
AcDbEntity
  8
5_ANYTOOL_HALF_MILL_9MM_IN
  0
POLYLINE
  5
2F8
330
1F
100
AcDbEntity
  8
5_ANYTOOL_HALF_MILL_9MM_IN
100
AcDb2dPolyline
 66
     1
 10
0.0
 20
0.0
 30
0.0000000000235829
 70
     1
  0
VERTEX
  5
2F9
330
2F8
100
AcDbEntity
  8
5_ANYTOOL_HALF_MILL_9MM_IN
100
AcDbVertex
100
AcDb2dVertex
 10
-428.3750063149146
 20
69.85377512912964
 30
0.0000000000235829
 42
0.4142135623716723
  0
VERTEX
  5
2FA
330
2F8
100
AcDbEntity
  8
5_ANYTOOL_HALF_MILL_9MM_IN
100
AcDbVertex
100
AcDb2dVertex
 10
-434.3750063149146
 20
63.85377512912964
 30
0.0000000000235829
  0
VERTEX
  5
2FB
330
2F8
100
AcDbEntity
  8
5_ANYTOOL_HALF_MILL_9MM_IN
100
AcDbVertex
100
AcDb2dVertex
 10
-434.3750063149146
 20
57.35377512911509
 30
0.0000000000235829
 42
0.4142135623725622
  0
VERTEX
  5
2FC
330
2F8
100
AcDbEntity
  8
5_ANYTOOL_HALF_MILL_9MM_IN
100
AcDbVertex
100
AcDb2dVertex
 10
-428.3750063149146
 20
51.35377512911873
 30
0.0000000000235829
  0
VERTEX
  5
2FD
330
2F8
100
AcDbEntity
  8
5_ANYTOOL_HALF_MILL_9MM_IN
100
AcDbVertex
100
AcDb2dVertex
 10
-379.6250063149146
 20
51.35377512911509
 30
0.0000000000235829
 42
0.4142135623734499
  0
VERTEX
  5
2FE
330
2F8
100
AcDbEntity
  8
5_ANYTOOL_HALF_MILL_9MM_IN
100
AcDbVertex
100
AcDb2dVertex
 10
-373.6250063149218
 20
57.35377512911509
 30
0.0000000000235829
  0
VERTEX
  5
2FF
330
2F8
100
AcDbEntity
  8
5_ANYTOOL_HALF_MILL_9MM_IN
100
AcDbVertex
100
AcDb2dVertex
 10
-373.6250063149146
 20
63.85377512912964
 30
0.0000000000235829
 42
0.4142135623723847
  0
VERTEX
  5
300
330
2F8
100
AcDbEntity
  8
5_ANYTOOL_HALF_MILL_9MM_IN
100
AcDbVertex
100
AcDb2dVertex
 10
-379.6250063149146
 20
69.85377512912964
 30
0.0000000000235829
  0
SEQEND
  5
301
330
2F8
100
AcDbEntity
  8
5_ANYTOOL_HALF_MILL_9MM_IN
  0
POLYLINE
  5
302
330
1F
100
AcDbEntity
  8
5_ANYTOOL_HALF_MILL_9MM_IN
100
AcDb2dPolyline
 66
     1
 10
0.0
 20
0.0
 30
0.0000000000235829
 70
     1
  0
VERTEX
  5
303
330
302
100
AcDbEntity
  8
5_ANYTOOL_HALF_MILL_9MM_IN
100
AcDbVertex
100
AcDb2dVertex
 10
-24.37500631488547
 20
69.85377512843843
 30
0.0000000000235829
 42
0.414213562372917
  0
VERTEX
  5
304
330
302
100
AcDbEntity
  8
5_ANYTOOL_HALF_MILL_9MM_IN
100
AcDbVertex
100
AcDb2dVertex
 10
-30.37500631488183
 20
63.85377512843843
 30
0.0000000000235829
  0
VERTEX
  5
305
330
302
100
AcDbEntity
  8
5_ANYTOOL_HALF_MILL_9MM_IN
100
AcDbVertex
100
AcDb2dVertex
 10
-30.37500631488547
 20
57.35377512842388
 30
0.0000000000235829
 42
0.4142135623729175
  0
VERTEX
  5
306
330
302
100
AcDbEntity
  8
5_ANYTOOL_HALF_MILL_9MM_IN
100
AcDbVertex
100
AcDb2dVertex
 10
-24.37500631488547
 20
51.35377512842024
 30
0.0000000000235829
  0
VERTEX
  5
307
330
302
100
AcDbEntity
  8
5_ANYTOOL_HALF_MILL_9MM_IN
100
AcDbVertex
100
AcDb2dVertex
 10
24.37499368511453
 20
51.35377512842388
 30
0.0000000000235829
 42
0.4142135623729174
  0
VERTEX
  5
308
330
302
100
AcDbEntity
  8
5_ANYTOOL_HALF_MILL_9MM_IN
100
AcDbVertex
100
AcDb2dVertex
 10
30.37499368511089
 20
57.35377512842388
 30
0.0000000000235829
  0
VERTEX
  5
309
330
302
100
AcDbEntity
  8
5_ANYTOOL_HALF_MILL_9MM_IN
100
AcDbVertex
100
AcDb2dVertex
 10
30.37499368511453
 20
63.85377512843843
 30
0.0000000000235829
 42
0.4142135623724732
  0
VERTEX
  5
30A
330
302
100
AcDbEntity
  8
5_ANYTOOL_HALF_MILL_9MM_IN
100
AcDbVertex
100
AcDb2dVertex
 10
24.37499368511453
 20
69.85377512843661
 30
0.0000000000235829
  0
SEQEND
  5
30B
330
302
100
AcDbEntity
  8
5_ANYTOOL_HALF_MILL_9MM_IN
  0
POLYLINE
  5
30C
330
1F
100
AcDbEntity
  8
5_ANYTOOL_HALF_MILL_9MM_IN
100
AcDb2dPolyline
 66
     1
 10
0.0
 20
0.0
 30
0.0000000000062883
 70
     1
  0
VERTEX
  5
30D
330
30C
100
AcDbEntity
  8
5_ANYTOOL_HALF_MILL_9MM_IN
100
AcDbVertex
100
AcDb2dVertex
 10
-594.2500063152238
 20
-8.77122487303859
 30
0.0000000000062883
 42
0.4142135623728295
  0
VERTEX
  5
30E
330
30C
100
AcDbEntity
  8
5_ANYTOOL_HALF_MILL_9MM_IN
100
AcDbVertex
100
AcDb2dVertex
 10
-600.2500063152183
 20
-14.77122487303859
 30
0.0000000000062883
  0
VERTEX
  5
30F
330
30C
100
AcDbEntity
  8
5_ANYTOOL_HALF_MILL_9MM_IN
100
AcDbVertex
100
AcDb2dVertex
 10
-600.2500063152238
 20
-41.0212248730968
 30
0.0000000000062883
 42
0.4142135623735379
  0
VERTEX
  5
310
330
30C
100
AcDbEntity
  8
5_ANYTOOL_HALF_MILL_9MM_IN
100
AcDbVertex
100
AcDb2dVertex
 10
-594.2500063152238
 20
-47.02122487310226
 30
0.0000000000062883
  0
VERTEX
  5
311
330
30C
100
AcDbEntity
  8
5_ANYTOOL_HALF_MILL_9MM_IN
100
AcDbVertex
100
AcDb2dVertex
 10
-587.7500063151783
 20
-47.0212248730968
 30
0.0000000000062883
 42
0.4142135623730019
  0
VERTEX
  5
312
330
30C
100
AcDbEntity
  8
5_ANYTOOL_HALF_MILL_9MM_IN
100
AcDbVertex
100
AcDb2dVertex
 10
-581.7500063151801
 20
-41.0212248730968
 30
0.0000000000062883
  0
VERTEX
  5
313
330
30C
100
AcDbEntity
  8
5_ANYTOOL_HALF_MILL_9MM_IN
100
AcDbVertex
100
AcDb2dVertex
 10
-581.7500063151783
 20
-14.77122487303859
 30
0.0000000000062883
 42
0.4142135623725664
  0
VERTEX
  5
314
330
30C
100
AcDbEntity
  8
5_ANYTOOL_HALF_MILL_9MM_IN
100
AcDbVertex
100
AcDb2dVertex
 10
-587.7500063151783
 20
-8.771224873042229
 30
0.0000000000062883
  0
SEQEND
  5
315
330
30C
100
AcDbEntity
  8
5_ANYTOOL_HALF_MILL_9MM_IN
  0
POLYLINE
  5
316
330
1F
100
AcDbEntity
  8
5_ANYTOOL_HALF_MILL_9MM_IN
100
AcDb2dPolyline
 66
     1
 10
0.0
 20
0.0
 30
0.0000000000102176
 70
     1
  0
VERTEX
  5
317
330
316
100
AcDbEntity
  8
5_ANYTOOL_HALF_MILL_9MM_IN
100
AcDbVertex
100
AcDb2dVertex
 10
587.7499936853856
 20
-8.771224872958555
 30
0.0000000000102176
 42
0.4142135623730016
  0
VERTEX
  5
318
330
316
100
AcDbEntity
  8
5_ANYTOOL_HALF_MILL_9MM_IN
100
AcDbVertex
100
AcDb2dVertex
 10
581.7499936853874
 20
-14.77122487295856
 30
0.0000000000102176
  0
VERTEX
  5
319
330
316
100
AcDbEntity
  8
5_ANYTOOL_HALF_MILL_9MM_IN
100
AcDbVertex
100
AcDb2dVertex
 10
581.7499936853856
 20
-41.02122487298766
 30
0.0000000000102176
 42
0.4142135623728296
  0
VERTEX
  5
31A
330
316
100
AcDbEntity
  8
5_ANYTOOL_HALF_MILL_9MM_IN
100
AcDbVertex
100
AcDb2dVertex
 10
587.7499936853856
 20
-47.02122487299312
 30
0.0000000000102176
  0
VERTEX
  5
31B
330
316
100
AcDbEntity
  8
5_ANYTOOL_HALF_MILL_9MM_IN
100
AcDbVertex
100
AcDb2dVertex
 10
594.2499936854183
 20
-47.02122487298766
 30
0.0000000000102176
 42
0.4142135623733654
  0
VERTEX
  5
31C
330
316
100
AcDbEntity
  8
5_ANYTOOL_HALF_MILL_9MM_IN
100
AcDbVertex
100
AcDb2dVertex
 10
600.2499936854092
 20
-41.02122487298766
 30
0.0000000000102176
  0
VERTEX
  5
31D
330
316
100
AcDbEntity
  8
5_ANYTOOL_HALF_MILL_9MM_IN
100
AcDbVertex
100
AcDb2dVertex
 10
600.2499936854183
 20
-14.77122487295856
 30
0.0000000000102176
 42
0.4142135623729147
  0
VERTEX
  5
31E
330
316
100
AcDbEntity
  8
5_ANYTOOL_HALF_MILL_9MM_IN
100
AcDbVertex
100
AcDb2dVertex
 10
594.2499936854183
 20
-8.771224872954917
 30
0.0000000000102176
  0
SEQEND
  5
31F
330
316
100
AcDbEntity
  8
5_ANYTOOL_HALF_MILL_9MM_IN
  0
POLYLINE
  5
320
330
1F
100
AcDbEntity
  8
5_ANYTOOL_HALF_MILL_9MM_IN
100
AcDb2dPolyline
 66
     1
 10
0.0
 20
0.0
 30
0.0000000000088061
 70
     1
  0
VERTEX
  5
321
330
320
100
AcDbEntity
  8
5_ANYTOOL_HALF_MILL_9MM_IN
100
AcDbVertex
100
AcDb2dVertex
 10
-473.6500063147032
 20
-24.39622487298766
 30
0.0000000000088061
 42
0.9999999999989727
  0
VERTEX
  5
322
330
320
100
AcDbEntity
  8
5_ANYTOOL_HALF_MILL_9MM_IN
100
AcDbVertex
100
AcDb2dVertex
 10
-516.1500063147032
 20
-24.39622487300221
 30
0.0000000000088061
  0
VERTEX
  5
323
330
320
100
AcDbEntity
  8
5_ANYTOOL_HALF_MILL_9MM_IN
100
AcDbVertex
100
AcDb2dVertex
 10
-516.150006314705
 20
-30.64622487300221
 30
0.0000000000088061
  0
VERTEX
  5
324
330
320
100
AcDbEntity
  8
5_ANYTOOL_HALF_MILL_9MM_IN
100
AcDbVertex
100
AcDb2dVertex
 10
-473.6500063147014
 20
-30.64622487298766
 30
0.0000000000088061
  0
SEQEND
  5
325
330
320
100
AcDbEntity
  8
5_ANYTOOL_HALF_MILL_9MM_IN
  0
POLYLINE
  5
326
330
1F
100
AcDbEntity
  8
5_ANYTOOL_HALF_MILL_9MM_IN
100
AcDb2dPolyline
 66
     1
 10
0.0
 20
0.0
 30
0.0000000000088061
 70
     1
  0
VERTEX
  5
327
330
326
100
AcDbEntity
  8
5_ANYTOOL_HALF_MILL_9MM_IN
100
AcDbVertex
100
AcDb2dVertex
 10
-278.7500063149164
 20
-24.39622487297311
 30
0.0000000000088061
 42
0.9999999999993151
  0
VERTEX
  5
328
330
326
100
AcDbEntity
  8
5_ANYTOOL_HALF_MILL_9MM_IN
100
AcDbVertex
100
AcDb2dVertex
 10
-321.2500063149309
 20
-24.3962248729731
 30
0.0000000000088061
  0
VERTEX
  5
329
330
326
100
AcDbEntity
  8
5_ANYTOOL_HALF_MILL_9MM_IN
100
AcDbVertex
100
AcDb2dVertex
 10
-321.2500063149091
 20
-30.64622487297311
 30
0.0000000000088061
  0
VERTEX
  5
32A
330
326
100
AcDbEntity
  8
5_ANYTOOL_HALF_MILL_9MM_IN
100
AcDbVertex
100
AcDb2dVertex
 10
-278.7500063149109
 20
-30.64622487297311
 30
0.0000000000088061
  0
SEQEND
  5
32B
330
326
100
AcDbEntity
  8
5_ANYTOOL_HALF_MILL_9MM_IN
  0
POLYLINE
  5
32C
330
1F
100
AcDbEntity
  8
5_ANYTOOL_HALF_MILL_9MM_IN
100
AcDb2dPolyline
 66
     1
 10
0.0
 20
0.0
 30
0.0000000000088061
 70
     1
  0
VERTEX
  5
32D
330
32C
100
AcDbEntity
  8
5_ANYTOOL_HALF_MILL_9MM_IN
100
AcDbVertex
100
AcDb2dVertex
 10
-83.85000631510957
 20
-24.3962248729149
 30
0.0000000000088061
 42
0.9999999999989727
  0
VERTEX
  5
32E
330
32C
100
AcDbEntity
  8
5_ANYTOOL_HALF_MILL_9MM_IN
100
AcDbVertex
100
AcDb2dVertex
 10
-126.3500063150877
 20
-24.3962248729149
 30
0.0000000000088061
  0
VERTEX
  5
32F
330
32C
100
AcDbEntity
  8
5_ANYTOOL_HALF_MILL_9MM_IN
100
AcDbVertex
100
AcDb2dVertex
 10
-126.350006315115
 20
-30.6462248729149
 30
0.0000000000088061
  0
VERTEX
  5
330
330
32C
100
AcDbEntity
  8
5_ANYTOOL_HALF_MILL_9MM_IN
100
AcDbVertex
100
AcDb2dVertex
 10
-83.85000631511502
 20
-30.6462248729149
 30
0.0000000000088061
  0
SEQEND
  5
331
330
32C
100
AcDbEntity
  8
5_ANYTOOL_HALF_MILL_9MM_IN
  0
POLYLINE
  5
332
330
1F
100
AcDbEntity
  8
5_ANYTOOL_HALF_MILL_9MM_IN
100
AcDb2dPolyline
 66
     1
 10
0.0
 20
0.0
 30
0.0000000000088061
 70
     1
  0
VERTEX
  5
333
330
332
100
AcDbEntity
  8
5_ANYTOOL_HALF_MILL_9MM_IN
100
AcDbVertex
100
AcDb2dVertex
 10
126.3499936853368
 20
-24.39622487290762
 30
0.0000000000088061
 42
0.9999999999998287
  0
VERTEX
  5
334
330
332
100
AcDbEntity
  8
5_ANYTOOL_HALF_MILL_9MM_IN
100
AcDbVertex
100
AcDb2dVertex
 10
83.84999368534045
 20
-24.39622487290034
 30
0.0000000000088061
  0
VERTEX
  5
335
330
332
100
AcDbEntity
  8
5_ANYTOOL_HALF_MILL_9MM_IN
100
AcDbVertex
100
AcDb2dVertex
 10
83.84999368533863
 20
-30.64622487290035
 30
0.0000000000088061
  0
VERTEX
  5
336
330
332
100
AcDbEntity
  8
5_ANYTOOL_HALF_MILL_9MM_IN
100
AcDbVertex
100
AcDb2dVertex
 10
126.3499936853368
 20
-30.64622487290762
 30
0.0000000000088061
  0
SEQEND
  5
337
330
332
100
AcDbEntity
  8
5_ANYTOOL_HALF_MILL_9MM_IN
  0
POLYLINE
  5
338
330
1F
100
AcDbEntity
  8
5_ANYTOOL_HALF_MILL_9MM_IN
100
AcDb2dPolyline
 66
     1
 10
0.0
 20
0.0
 30
0.0000000000088061
 70
     1
  0
VERTEX
  5
339
330
338
100
AcDbEntity
  8
5_ANYTOOL_HALF_MILL_9MM_IN
100
AcDbVertex
100
AcDb2dVertex
 10
321.2499936851418
 20
-24.39622487287852
 30
0.0000000000088061
 42
1.000000000000856
  0
VERTEX
  5
33A
330
338
100
AcDbEntity
  8
5_ANYTOOL_HALF_MILL_9MM_IN
100
AcDbVertex
100
AcDb2dVertex
 10
278.7499936851418
 20
-24.39622487288579
 30
0.0000000000088061
  0
VERTEX
  5
33B
330
338
100
AcDbEntity
  8
5_ANYTOOL_HALF_MILL_9MM_IN
100
AcDbVertex
100
AcDb2dVertex
 10
278.7499936851364
 20
-30.6462248728858
 30
0.0000000000088061
  0
VERTEX
  5
33C
330
338
100
AcDbEntity
  8
5_ANYTOOL_HALF_MILL_9MM_IN
100
AcDbVertex
100
AcDb2dVertex
 10
321.2499936851364
 20
-30.64622487287124
 30
0.0000000000088061
  0
SEQEND
  5
33D
330
338
100
AcDbEntity
  8
5_ANYTOOL_HALF_MILL_9MM_IN
  0
POLYLINE
  5
33E
330
1F
100
AcDbEntity
  8
5_ANYTOOL_HALF_MILL_9MM_IN
100
AcDb2dPolyline
 66
     1
 10
0.0
 20
0.0
 30
0.0000000000088061
 70
     1
  0
VERTEX
  5
33F
330
33E
100
AcDbEntity
  8
5_ANYTOOL_HALF_MILL_9MM_IN
100
AcDbVertex
100
AcDb2dVertex
 10
516.1499936849468
 20
-24.39622487283486
 30
0.0000000000088061
 42
1.00000000000137
  0
VERTEX
  5
340
330
33E
100
AcDbEntity
  8
5_ANYTOOL_HALF_MILL_9MM_IN
100
AcDbVertex
100
AcDb2dVertex
 10
473.6499936849432
 20
-24.39622487283486
 30
0.0000000000088061
  0
VERTEX
  5
341
330
33E
100
AcDbEntity
  8
5_ANYTOOL_HALF_MILL_9MM_IN
100
AcDbVertex
100
AcDb2dVertex
 10
473.6499936849468
 20
-30.64622487283486
 30
0.0000000000088061
  0
VERTEX
  5
342
330
33E
100
AcDbEntity
  8
5_ANYTOOL_HALF_MILL_9MM_IN
100
AcDbVertex
100
AcDb2dVertex
 10
516.1499936849486
 20
-30.64622487283486
 30
0.0000000000088061
  0
SEQEND
  5
343
330
33E
100
AcDbEntity
  8
5_ANYTOOL_HALF_MILL_9MM_IN
  0
POLYLINE
  5
344
330
1F
100
AcDbEntity
  8
5_ANYTOOL_HALF_MILL_9MM_IN
100
AcDb2dPolyline
 66
     1
 10
0.0
 20
0.0
 30
0.0000000000235829
 70
     1
  0
VERTEX
  5
345
330
344
100
AcDbEntity
  8
5_ANYTOOL_HALF_MILL_9MM_IN
100
AcDbVertex
100
AcDb2dVertex
 10
379.6249936851455
 20
69.85377512916602
 30
0.0000000000235829
 42
0.4142135623724746
  0
VERTEX
  5
346
330
344
100
AcDbEntity
  8
5_ANYTOOL_HALF_MILL_9MM_IN
100
AcDbVertex
100
AcDb2dVertex
 10
373.6249936851436
 20
63.85377512916602
 30
0.0000000000235829
  0
VERTEX
  5
347
330
344
100
AcDbEntity
  8
5_ANYTOOL_HALF_MILL_9MM_IN
100
AcDbVertex
100
AcDb2dVertex
 10
373.6249936851455
 20
57.35377512912237
 30
0.0000000000235829
 42
0.4142135623724735
  0
VERTEX
  5
348
330
344
100
AcDbEntity
  8
5_ANYTOOL_HALF_MILL_9MM_IN
100
AcDbVertex
100
AcDb2dVertex
 10
379.6249936851455
 20
51.35377512912419
 30
0.0000000000235829
  0
VERTEX
  5
349
330
344
100
AcDbEntity
  8
5_ANYTOOL_HALF_MILL_9MM_IN
100
AcDbVertex
100
AcDb2dVertex
 10
428.3749936851455
 20
51.35377512912237
 30
0.0000000000235829
 42
0.4142135623730925
  0
VERTEX
  5
34A
330
344
100
AcDbEntity
  8
5_ANYTOOL_HALF_MILL_9MM_IN
100
AcDbVertex
100
AcDb2dVertex
 10
434.3749936851455
 20
57.35377512912237
 30
0.0000000000235829
  0
VERTEX
  5
34B
330
344
100
AcDbEntity
  8
5_ANYTOOL_HALF_MILL_9MM_IN
100
AcDbVertex
100
AcDb2dVertex
 10
434.3749936851455
 20
63.85377512916602
 30
0.0000000000235829
 42
0.4142135623722956
  0
VERTEX
  5
34C
330
344
100
AcDbEntity
  8
5_ANYTOOL_HALF_MILL_9MM_IN
100
AcDbVertex
100
AcDb2dVertex
 10
428.3749936851455
 20
69.85377512916784
 30
0.0000000000235829
  0
SEQEND
  5
34D
330
344
100
AcDbEntity
  8
5_ANYTOOL_HALF_MILL_9MM_IN
  0
POLYLINE
  5
34F
330
1F
100
AcDbEntity
  8
4_ANYTOOL_CUTTHROUGH_OUTSI
100
AcDb2dPolyline
 66
     1
 10
0.0
 20
0.0
 30
0.0
 70
     1
  0
VERTEX
  5
350
330
34F
100
AcDbEntity
  8
4_ANYTOOL_CUTTHROUGH_OUTSI
100
AcDbVertex
100
AcDb2dVertex
 10
30.65443093684917
 20
-80.14622487308225
 30
0.0
  0
VERTEX
  5
351
330
34F
100
AcDbEntity
  8
4_ANYTOOL_CUTTHROUGH_OUTSI
100
AcDbVertex
100
AcDb2dVertex
 10
-30.65444356663102
 20
-80.14622487308225
 30
0.0
 42
-0.3178372451969115
  0
VERTEX
  5
352
330
34F
100
AcDbEntity
  8
4_ANYTOOL_CUTTHROUGH_OUTSI
100
AcDbVertex
100
AcDb2dVertex
 10
-36.07559555572809
 20
-76.31289153974494
 30
0.0
 42
0.7071067811842392
  0
VERTEX
  5
353
330
34F
100
AcDbEntity
  8
4_ANYTOOL_CUTTHROUGH_OUTSI
100
AcDbVertex
100
AcDb2dVertex
 10
-59.17441707448847
 20
-76.31289153973297
 30
0.0
 42
-0.31783724519525
  0
VERTEX
  5
354
330
34F
100
AcDbEntity
  8
4_ANYTOOL_CUTTHROUGH_OUTSI
100
AcDbVertex
100
AcDb2dVertex
 10
-64.59556906359649
 20
-80.14622487306633
 30
0.0
  0
VERTEX
  5
355
330
34F
100
AcDbEntity
  8
4_ANYTOOL_CUTTHROUGH_OUTSI
100
AcDbVertex
100
AcDb2dVertex
 10
-76.99456896230186
 20
-80.14622487290762
 30
0.0
  0
VERTEX
  5
356
330
34F
100
AcDbEntity
  8
4_ANYTOOL_CUTTHROUGH_OUTSI
100
AcDbVertex
100
AcDb2dVertex
 10
-76.75957495371766
 20
-78.75135467258849
 30
0.0
  0
VERTEX
  5
357
330
34F
100
AcDbEntity
  8
4_ANYTOOL_CUTTHROUGH_OUTSI
100
AcDbVertex
100
AcDb2dVertex
 10
-59.86404172702532
 20
-30.4788124790939
 30
0.0
  0
VERTEX
  5
358
330
34F
100
AcDbEntity
  8
4_ANYTOOL_CUTTHROUGH_OUTSI
100
AcDbVertex
100
AcDb2dVertex
 10
-59.85000631611543
 20
-30.39622487290762
 30
0.0
 42
0.414213562376164
  0
VERTEX
  5
359
330
34F
100
AcDbEntity
  8
4_ANYTOOL_CUTTHROUGH_OUTSI
100
AcDbVertex
100
AcDb2dVertex
 10
-66.10000631614821
 20
-24.14622487292581
 30
0.0
  0
VERTEX
  5
35A
330
34F
100
AcDbEntity
  8
4_ANYTOOL_CUTTHROUGH_OUTSI
100
AcDbVertex
100
AcDb2dVertex
 10
-144.1000063160864
 20
-24.14622487292218
 30
0.0
 42
0.4142135623757372
  0
VERTEX
  5
35B
330
34F
100
AcDbEntity
  8
4_ANYTOOL_CUTTHROUGH_OUTSI
100
AcDbVertex
100
AcDb2dVertex
 10
-150.3500063161136
 20
-30.39622487290762
 30
0.0
  0
VERTEX
  5
35C
330
34F
100
AcDbEntity
  8
4_ANYTOOL_CUTTHROUGH_OUTSI
100
AcDbVertex
100
AcDb2dVertex
 10
-150.3359709052077
 20
-30.47881247908671
 30
0.0
  0
VERTEX
  5
35D
330
34F
100
AcDbEntity
  8
4_ANYTOOL_CUTTHROUGH_OUTSI
100
AcDbVertex
100
AcDb2dVertex
 10
-133.4368579107631
 20
-78.76241965198278
 30
0.0
  0
VERTEX
  5
35E
330
34F
100
AcDbEntity
  8
4_ANYTOOL_CUTTHROUGH_OUTSI
100
AcDbVertex
100
AcDb2dVertex
 10
-133.20544366921
 20
-80.14622487290322
 30
0.0
  0
VERTEX
  5
35F
330
34F
100
AcDbEntity
  8
4_ANYTOOL_CUTTHROUGH_OUTSI
100
AcDbVertex
100
AcDb2dVertex
 10
-271.8945689615794
 20
-80.14622487295128
 30
0.0
  0
VERTEX
  5
360
330
34F
100
AcDbEntity
  8
4_ANYTOOL_CUTTHROUGH_OUTSI
100
AcDbVertex
100
AcDb2dVertex
 10
-271.6595749529858
 20
-78.75135467263836
 30
0.0
  0
VERTEX
  5
361
330
34F
100
AcDbEntity
  8
4_ANYTOOL_CUTTHROUGH_OUTSI
100
AcDbVertex
100
AcDb2dVertex
 10
-254.7640417263065
 20
-30.47881247916666
 30
0.0
  0
VERTEX
  5
362
330
34F
100
AcDbEntity
  8
4_ANYTOOL_CUTTHROUGH_OUTSI
100
AcDbVertex
100
AcDb2dVertex
 10
-254.7500063153959
 20
-30.39622487298038
 30
0.0
 42
0.4142135623793716
  0
VERTEX
  5
363
330
34F
100
AcDbEntity
  8
4_ANYTOOL_CUTTHROUGH_OUTSI
100
AcDbVertex
100
AcDb2dVertex
 10
-261.0000063154148
 20
-24.14622487298038
 30
0.0
  0
VERTEX
  5
364
330
34F
100
AcDbEntity
  8
4_ANYTOOL_CUTTHROUGH_OUTSI
100
AcDbVertex
100
AcDb2dVertex
 10
-339.0000063153821
 20
-24.14622487298038
 30
0.0
 42
0.4142135623772747
  0
VERTEX
  5
365
330
34F
100
AcDbEntity
  8
4_ANYTOOL_CUTTHROUGH_OUTSI
100
AcDbVertex
100
AcDb2dVertex
 10
-345.2500063153984
 20
-30.39622487298038
 30
0.0
  0
VERTEX
  5
366
330
34F
100
AcDbEntity
  8
4_ANYTOOL_CUTTHROUGH_OUTSI
100
AcDbVertex
100
AcDb2dVertex
 10
-345.2359709044879
 20
-30.47881247915917
 30
0.0
  0
VERTEX
  5
367
330
34F
100
AcDbEntity
  8
4_ANYTOOL_CUTTHROUGH_OUTSI
100
AcDbVertex
100
AcDb2dVertex
 10
-328.3368579100443
 20
-78.76241965202644
 30
0.0
  0
VERTEX
  5
368
330
34F
100
AcDbEntity
  8
4_ANYTOOL_CUTTHROUGH_OUTSI
100
AcDbVertex
100
AcDb2dVertex
 10
-328.1054436688548
 20
-80.14622487296427
 30
0.0
  0
VERTEX
  5
369
330
34F
100
AcDbEntity
  8
4_ANYTOOL_CUTTHROUGH_OUTSI
100
AcDbVertex
100
AcDb2dVertex
 10
-466.7945689612352
 20
-80.14622487299494
 30
0.0
  0
VERTEX
  5
36A
330
34F
100
AcDbEntity
  8
4_ANYTOOL_CUTTHROUGH_OUTSI
100
AcDbVertex
100
AcDb2dVertex
 10
-466.5595749522814
 20
-78.75135467268153
 30
0.0
  0
VERTEX
  5
36B
330
34F
100
AcDbEntity
  8
4_ANYTOOL_CUTTHROUGH_OUTSI
100
AcDbVertex
100
AcDb2dVertex
 10
-449.6640417255894
 20
-30.47881247918849
 30
0.0
  0
VERTEX
  5
36C
330
34F
100
AcDbEntity
  8
4_ANYTOOL_CUTTHROUGH_OUTSI
100
AcDbVertex
100
AcDb2dVertex
 10
-449.6500063146802
 20
-30.39622487300221
 30
0.0
 42
0.4142135623785703
  0
VERTEX
  5
36D
330
34F
100
AcDbEntity
  8
4_ANYTOOL_CUTTHROUGH_OUTSI
100
AcDbVertex
100
AcDb2dVertex
 10
-455.9000063147068
 20
-24.14622487299312
 30
0.0
  0
VERTEX
  5
36E
330
34F
100
AcDbEntity
  8
4_ANYTOOL_CUTTHROUGH_OUTSI
100
AcDbVertex
100
AcDb2dVertex
 10
-533.9000063146614
 20
-24.14622487300949
 30
0.0
 42
0.4142135623782093
  0
VERTEX
  5
36F
330
34F
100
AcDbEntity
  8
4_ANYTOOL_CUTTHROUGH_OUTSI
100
AcDbVertex
100
AcDb2dVertex
 10
-540.1500063146832
 20
-30.39622487300949
 30
0.0
  0
VERTEX
  5
370
330
34F
100
AcDbEntity
  8
4_ANYTOOL_CUTTHROUGH_OUTSI
100
AcDbVertex
100
AcDb2dVertex
 10
-540.1359709037698
 20
-30.47881247918852
 30
0.0
  0
VERTEX
  5
371
330
34F
100
AcDbEntity
  8
4_ANYTOOL_CUTTHROUGH_OUTSI
100
AcDbVertex
100
AcDb2dVertex
 10
-523.23685790934
 20
-78.7624196520701
 30
0.0
  0
VERTEX
  5
372
330
34F
100
AcDbEntity
  8
4_ANYTOOL_CUTTHROUGH_OUTSI
100
AcDbVertex
100
AcDb2dVertex
 10
-523.0054436681539
 20
-80.14622487299916
 30
0.0
  0
VERTEX
  5
373
330
34F
100
AcDbEntity
  8
4_ANYTOOL_CUTTHROUGH_OUTSI
100
AcDbVertex
100
AcDb2dVertex
 10
-535.4044435662399
 20
-80.14622487296583
 30
0.0
 42
-0.3178372451977688
  0
VERTEX
  5
374
330
34F
100
AcDbEntity
  8
4_ANYTOOL_CUTTHROUGH_OUTSI
100
AcDbVertex
100
AcDb2dVertex
 10
-540.8255955553356
 20
-76.31289153962994
 30
0.0
 42
0.7071067811842698
  0
VERTEX
  5
375
330
34F
100
AcDbEntity
  8
4_ANYTOOL_CUTTHROUGH_OUTSI
100
AcDbVertex
100
AcDb2dVertex
 10
-563.9244170740917
 20
-76.312891539616
 30
0.0
 42
-0.317837245194267
  0
VERTEX
  5
376
330
34F
100
AcDbEntity
  8
4_ANYTOOL_CUTTHROUGH_OUTSI
100
AcDbVertex
100
AcDb2dVertex
 10
-569.3455690631981
 20
-80.14622487295394
 30
0.0
  0
VERTEX
  5
377
330
34F
100
AcDbEntity
  8
4_ANYTOOL_CUTTHROUGH_OUTSI
100
AcDbVertex
100
AcDb2dVertex
 10
-581.7500063148946
 20
-80.14622487302404
 30
0.0
  0
VERTEX
  5
378
330
34F
100
AcDbEntity
  8
4_ANYTOOL_CUTTHROUGH_OUTSI
100
AcDbVertex
100
AcDb2dVertex
 10
-581.7500063152347
 20
-52.64622487308225
 30
0.0
  0
VERTEX
  5
379
330
34F
100
AcDbEntity
  8
4_ANYTOOL_CUTTHROUGH_OUTSI
100
AcDbVertex
100
AcDb2dVertex
 10
-576.0000063152384
 20
-52.64622487308225
 30
0.0
 42
0.4142135623517191
  0
VERTEX
  5
37A
330
34F
100
AcDbEntity
  8
4_ANYTOOL_CUTTHROUGH_OUTSI
100
AcDbVertex
100
AcDb2dVertex
 10
-575.750006315242
 20
-52.39622487308225
 30
0.0
  0
VERTEX
  5
37B
330
34F
100
AcDbEntity
  8
4_ANYTOOL_CUTTHROUGH_OUTSI
100
AcDbVertex
100
AcDb2dVertex
 10
-575.7500063151801
 20
-40.39622487308225
 30
0.0
 42
0.4142135623624525
  0
VERTEX
  5
37C
330
34F
100
AcDbEntity
  8
4_ANYTOOL_CUTTHROUGH_OUTSI
100
AcDbVertex
100
AcDb2dVertex
 10
-576.0000063151801
 20
-40.14622487307315
 30
0.0
  0
VERTEX
  5
37D
330
34F
100
AcDbEntity
  8
4_ANYTOOL_CUTTHROUGH_OUTSI
100
AcDbVertex
100
AcDb2dVertex
 10
-599.7500063152238
 20
-40.14622487308225
 30
0.0
  0
VERTEX
  5
37E
330
34F
100
AcDbEntity
  8
4_ANYTOOL_CUTTHROUGH_OUTSI
100
AcDbVertex
100
AcDb2dVertex
 10
-599.7500063151783
 20
-15.64622487308225
 30
0.0
  0
VERTEX
  5
37F
330
34F
100
AcDbEntity
  8
4_ANYTOOL_CUTTHROUGH_OUTSI
100
AcDbVertex
100
AcDb2dVertex
 10
-576.0000063151492
 20
-15.64622487305314
 30
0.0
 42
0.4142135623879873
  0
VERTEX
  5
380
330
34F
100
AcDbEntity
  8
4_ANYTOOL_CUTTHROUGH_OUTSI
100
AcDbVertex
100
AcDb2dVertex
 10
-575.750006315151
 20
-15.39622487305314
 30
0.0
  0
VERTEX
  5
381
330
34F
100
AcDbEntity
  8
4_ANYTOOL_CUTTHROUGH_OUTSI
100
AcDbVertex
100
AcDb2dVertex
 10
-575.7500063152365
 20
-3.396224873053143
 30
0.0
 42
0.4142135623581817
  0
VERTEX
  5
382
330
34F
100
AcDbEntity
  8
4_ANYTOOL_CUTTHROUGH_OUTSI
100
AcDbVertex
100
AcDb2dVertex
 10
-576.0000063152365
 20
-3.146224873054962
 30
0.0
  0
VERTEX
  5
383
330
34F
100
AcDbEntity
  8
4_ANYTOOL_CUTTHROUGH_OUTSI
100
AcDbVertex
100
AcDb2dVertex
 10
-581.7500063152365
 20
-3.146224873053143
 30
0.0
  0
VERTEX
  5
384
330
34F
100
AcDbEntity
  8
4_ANYTOOL_CUTTHROUGH_OUTSI
100
AcDbVertex
100
AcDb2dVertex
 10
-581.750006315222
 20
7.353775126975961
 30
0.0
  0
VERTEX
  5
385
330
34F
100
AcDbEntity
  8
4_ANYTOOL_CUTTHROUGH_OUTSI
100
AcDbVertex
100
AcDb2dVertex
 10
-576.000006315222
 20
7.353775126975961
 30
0.0
 42
0.4142135623816365
  0
VERTEX
  5
386
330
34F
100
AcDbEntity
  8
4_ANYTOOL_CUTTHROUGH_OUTSI
100
AcDbVertex
100
AcDb2dVertex
 10
-575.7500063152147
 20
7.603775126975961
 30
0.0
  0
VERTEX
  5
387
330
34F
100
AcDbEntity
  8
4_ANYTOOL_CUTTHROUGH_OUTSI
100
AcDbVertex
100
AcDb2dVertex
 10
-575.7500063151492
 20
19.60377512697596
 30
0.0
 42
0.4142135624008233
  0
VERTEX
  5
388
330
34F
100
AcDbEntity
  8
4_ANYTOOL_CUTTHROUGH_OUTSI
100
AcDbVertex
100
AcDb2dVertex
 10
-576.0000063151492
 20
19.85377512698142
 30
0.0
  0
VERTEX
  5
389
330
34F
100
AcDbEntity
  8
4_ANYTOOL_CUTTHROUGH_OUTSI
100
AcDbVertex
100
AcDb2dVertex
 10
-599.7500063151765
 20
19.85377512697596
 30
0.0
  0
VERTEX
  5
38A
330
34F
100
AcDbEntity
  8
4_ANYTOOL_CUTTHROUGH_OUTSI
100
AcDbVertex
100
AcDb2dVertex
 10
-599.7500063149455
 20
69.35377512843115
 30
0.0
  0
VERTEX
  5
38B
330
34F
100
AcDbEntity
  8
4_ANYTOOL_CUTTHROUGH_OUTSI
100
AcDbVertex
100
AcDb2dVertex
 10
-458.2500063149146
 20
69.35377512912964
 30
0.0
  0
VERTEX
  5
38C
330
34F
100
AcDbEntity
  8
4_ANYTOOL_CUTTHROUGH_OUTSI
100
AcDbVertex
100
AcDb2dVertex
 10
-458.2500063149146
 20
45.60377512912964
 30
0.0
 42
0.4142135623859197
  0
VERTEX
  5
38D
330
34F
100
AcDbEntity
  8
4_ANYTOOL_CUTTHROUGH_OUTSI
100
AcDbVertex
100
AcDb2dVertex
 10
-458.0000063149146
 20
45.35377512912601
 30
0.0
  0
VERTEX
  5
38E
330
34F
100
AcDbEntity
  8
4_ANYTOOL_CUTTHROUGH_OUTSI
100
AcDbVertex
100
AcDb2dVertex
 10
-446.0000063149146
 20
45.35377512912964
 30
0.0
 42
0.4142135623923102
  0
VERTEX
  5
38F
330
34F
100
AcDbEntity
  8
4_ANYTOOL_CUTTHROUGH_OUTSI
100
AcDbVertex
100
AcDb2dVertex
 10
-445.7500063149128
 20
45.60377512912964
 30
0.0
  0
VERTEX
  5
390
330
34F
100
AcDbEntity
  8
4_ANYTOOL_CUTTHROUGH_OUTSI
100
AcDbVertex
100
AcDb2dVertex
 10
-445.7500063149146
 20
51.35377512912964
 30
0.0
  0
VERTEX
  5
391
330
34F
100
AcDbEntity
  8
4_ANYTOOL_CUTTHROUGH_OUTSI
100
AcDbVertex
100
AcDb2dVertex
 10
-436.2500063149146
 20
51.35377512912964
 30
0.0
  0
VERTEX
  5
392
330
34F
100
AcDbEntity
  8
4_ANYTOOL_CUTTHROUGH_OUTSI
100
AcDbVertex
100
AcDb2dVertex
 10
-436.2500063149146
 20
45.60377512912964
 30
0.0
 42
0.4142135623859197
  0
VERTEX
  5
393
330
34F
100
AcDbEntity
  8
4_ANYTOOL_CUTTHROUGH_OUTSI
100
AcDbVertex
100
AcDb2dVertex
 10
-436.0000063149146
 20
45.35377512912601
 30
0.0
  0
VERTEX
  5
394
330
34F
100
AcDbEntity
  8
4_ANYTOOL_CUTTHROUGH_OUTSI
100
AcDbVertex
100
AcDb2dVertex
 10
-424.0000063149146
 20
45.35377512912964
 30
0.0
 42
0.4142135623815949
  0
VERTEX
  5
395
330
34F
100
AcDbEntity
  8
4_ANYTOOL_CUTTHROUGH_OUTSI
100
AcDbVertex
100
AcDb2dVertex
 10
-423.7500063149218
 20
45.60377512912964
 30
0.0
  0
VERTEX
  5
396
330
34F
100
AcDbEntity
  8
4_ANYTOOL_CUTTHROUGH_OUTSI
100
AcDbVertex
100
AcDb2dVertex
 10
-423.7500063149146
 20
69.35377512912964
 30
0.0
  0
VERTEX
  5
397
330
34F
100
AcDbEntity
  8
4_ANYTOOL_CUTTHROUGH_OUTSI
100
AcDbVertex
100
AcDb2dVertex
 10
-384.2500063149146
 20
69.35377512912964
 30
0.0
  0
VERTEX
  5
398
330
34F
100
AcDbEntity
  8
4_ANYTOOL_CUTTHROUGH_OUTSI
100
AcDbVertex
100
AcDb2dVertex
 10
-384.2500063149146
 20
45.60377512912964
 30
0.0
 42
0.4142135623859197
  0
VERTEX
  5
399
330
34F
100
AcDbEntity
  8
4_ANYTOOL_CUTTHROUGH_OUTSI
100
AcDbVertex
100
AcDb2dVertex
 10
-384.0000063149146
 20
45.35377512912601
 30
0.0
  0
VERTEX
  5
39A
330
34F
100
AcDbEntity
  8
4_ANYTOOL_CUTTHROUGH_OUTSI
100
AcDbVertex
100
AcDb2dVertex
 10
-372.0000063149146
 20
45.35377512912964
 30
0.0
 42
0.4142135623879947
  0
VERTEX
  5
39B
330
34F
100
AcDbEntity
  8
4_ANYTOOL_CUTTHROUGH_OUTSI
100
AcDbVertex
100
AcDb2dVertex
 10
-371.7500063149164
 20
45.60377512912964
 30
0.0
  0
VERTEX
  5
39C
330
34F
100
AcDbEntity
  8
4_ANYTOOL_CUTTHROUGH_OUTSI
100
AcDbVertex
100
AcDb2dVertex
 10
-371.7500063149146
 20
51.35377512912964
 30
0.0
  0
VERTEX
  5
39D
330
34F
100
AcDbEntity
  8
4_ANYTOOL_CUTTHROUGH_OUTSI
100
AcDbVertex
100
AcDb2dVertex
 10
-362.2500063149146
 20
51.35377512912964
 30
0.0
  0
VERTEX
  5
39E
330
34F
100
AcDbEntity
  8
4_ANYTOOL_CUTTHROUGH_OUTSI
100
AcDbVertex
100
AcDb2dVertex
 10
-362.2500063149146
 20
45.60377512912964
 30
0.0
 42
0.4142135623624508
  0
VERTEX
  5
39F
330
34F
100
AcDbEntity
  8
4_ANYTOOL_CUTTHROUGH_OUTSI
100
AcDbVertex
100
AcDb2dVertex
 10
-362.0000063149146
 20
45.3537751291351
 30
0.0
  0
VERTEX
  5
3A0
330
34F
100
AcDbEntity
  8
4_ANYTOOL_CUTTHROUGH_OUTSI
100
AcDbVertex
100
AcDb2dVertex
 10
-350.0000063149146
 20
45.35377512912964
 30
0.0
 42
0.4142135624029315
  0
VERTEX
  5
3A1
330
34F
100
AcDbEntity
  8
4_ANYTOOL_CUTTHROUGH_OUTSI
100
AcDbVertex
100
AcDb2dVertex
 10
-349.7500063149182
 20
45.60377512912964
 30
0.0
  0
VERTEX
  5
3A2
330
34F
100
AcDbEntity
  8
4_ANYTOOL_CUTTHROUGH_OUTSI
100
AcDbVertex
100
AcDb2dVertex
 10
-349.7500063149146
 20
69.35377512912964
 30
0.0
  0
VERTEX
  5
3A3
330
34F
100
AcDbEntity
  8
4_ANYTOOL_CUTTHROUGH_OUTSI
100
AcDbVertex
100
AcDb2dVertex
 10
-250.2500063149146
 20
69.35377512915875
 30
0.0
  0
VERTEX
  5
3A4
330
34F
100
AcDbEntity
  8
4_ANYTOOL_CUTTHROUGH_OUTSI
100
AcDbVertex
100
AcDb2dVertex
 10
-250.2500063149146
 20
45.60377512912964
 30
0.0
 42
0.4142135623837251
  0
VERTEX
  5
3A5
330
34F
100
AcDbEntity
  8
4_ANYTOOL_CUTTHROUGH_OUTSI
100
AcDbVertex
100
AcDb2dVertex
 10
-250.0000063149146
 20
45.35377512912419
 30
0.0
  0
VERTEX
  5
3A6
330
34F
100
AcDbEntity
  8
4_ANYTOOL_CUTTHROUGH_OUTSI
100
AcDbVertex
100
AcDb2dVertex
 10
-238.0000063149146
 20
45.35377512915875
 30
0.0
 42
0.4142135624412857
  0
VERTEX
  5
3A7
330
34F
100
AcDbEntity
  8
4_ANYTOOL_CUTTHROUGH_OUTSI
100
AcDbVertex
100
AcDb2dVertex
 10
-237.7500063149146
 20
45.60377512915875
 30
0.0
  0
VERTEX
  5
3A8
330
34F
100
AcDbEntity
  8
4_ANYTOOL_CUTTHROUGH_OUTSI
100
AcDbVertex
100
AcDb2dVertex
 10
-237.7500063149146
 20
51.35377512915875
 30
0.0
  0
VERTEX
  5
3A9
330
34F
100
AcDbEntity
  8
4_ANYTOOL_CUTTHROUGH_OUTSI
100
AcDbVertex
100
AcDb2dVertex
 10
-228.2500063149146
 20
51.35377512915875
 30
0.0
  0
VERTEX
  5
3AA
330
34F
100
AcDbEntity
  8
4_ANYTOOL_CUTTHROUGH_OUTSI
100
AcDbVertex
100
AcDb2dVertex
 10
-228.2500063149146
 20
45.60377512915875
 30
0.0
 42
0.4142135623539038
  0
VERTEX
  5
3AB
330
34F
100
AcDbEntity
  8
4_ANYTOOL_CUTTHROUGH_OUTSI
100
AcDbVertex
100
AcDb2dVertex
 10
-228.0000063149146
 20
45.35377512915693
 30
0.0
  0
VERTEX
  5
3AC
330
34F
100
AcDbEntity
  8
4_ANYTOOL_CUTTHROUGH_OUTSI
100
AcDbVertex
100
AcDb2dVertex
 10
-216.0000063149146
 20
45.35377512915875
 30
0.0
 42
0.4142135623496642
  0
VERTEX
  5
3AD
330
34F
100
AcDbEntity
  8
4_ANYTOOL_CUTTHROUGH_OUTSI
100
AcDbVertex
100
AcDb2dVertex
 10
-215.75000631492
 20
45.60377512915875
 30
0.0
  0
VERTEX
  5
3AE
330
34F
100
AcDbEntity
  8
4_ANYTOOL_CUTTHROUGH_OUTSI
100
AcDbVertex
100
AcDb2dVertex
 10
-215.7500063149146
 20
69.35377512915875
 30
0.0
  0
VERTEX
  5
3AF
330
34F
100
AcDbEntity
  8
4_ANYTOOL_CUTTHROUGH_OUTSI
100
AcDbVertex
100
AcDb2dVertex
 10
-176.2500063149146
 20
69.35377512915875
 30
0.0
  0
VERTEX
  5
3B0
330
34F
100
AcDbEntity
  8
4_ANYTOOL_CUTTHROUGH_OUTSI
100
AcDbVertex
100
AcDb2dVertex
 10
-176.2500063149146
 20
45.60377512915875
 30
0.0
 42
0.4142135623411546
  0
VERTEX
  5
3B1
330
34F
100
AcDbEntity
  8
4_ANYTOOL_CUTTHROUGH_OUTSI
100
AcDbVertex
100
AcDb2dVertex
 10
-176.0000063149146
 20
45.35377512916057
 30
0.0
  0
VERTEX
  5
3B2
330
34F
100
AcDbEntity
  8
4_ANYTOOL_CUTTHROUGH_OUTSI
100
AcDbVertex
100
AcDb2dVertex
 10
-164.0000063149146
 20
45.35377512915875
 30
0.0
 42
0.4142135623390075
  0
VERTEX
  5
3B3
330
34F
100
AcDbEntity
  8
4_ANYTOOL_CUTTHROUGH_OUTSI
100
AcDbVertex
100
AcDb2dVertex
 10
-163.7500063149146
 20
45.60377512915875
 30
0.0
  0
VERTEX
  5
3B4
330
34F
100
AcDbEntity
  8
4_ANYTOOL_CUTTHROUGH_OUTSI
100
AcDbVertex
100
AcDb2dVertex
 10
-163.7500063149146
 20
51.35377512915875
 30
0.0
  0
VERTEX
  5
3B5
330
34F
100
AcDbEntity
  8
4_ANYTOOL_CUTTHROUGH_OUTSI
100
AcDbVertex
100
AcDb2dVertex
 10
-154.2500063149146
 20
51.35377512915875
 30
0.0
  0
VERTEX
  5
3B6
330
34F
100
AcDbEntity
  8
4_ANYTOOL_CUTTHROUGH_OUTSI
100
AcDbVertex
100
AcDb2dVertex
 10
-154.2500063149146
 20
45.60377512915875
 30
0.0
 42
0.4142135623539038
  0
VERTEX
  5
3B7
330
34F
100
AcDbEntity
  8
4_ANYTOOL_CUTTHROUGH_OUTSI
100
AcDbVertex
100
AcDb2dVertex
 10
-154.0000063149146
 20
45.35377512915693
 30
0.0
  0
VERTEX
  5
3B8
330
34F
100
AcDbEntity
  8
4_ANYTOOL_CUTTHROUGH_OUTSI
100
AcDbVertex
100
AcDb2dVertex
 10
-142.0000063149146
 20
45.35377512915875
 30
0.0
 42
0.4142135623517759
  0
VERTEX
  5
3B9
330
34F
100
AcDbEntity
  8
4_ANYTOOL_CUTTHROUGH_OUTSI
100
AcDbVertex
100
AcDb2dVertex
 10
-141.7500063149182
 20
45.60377512915875
 30
0.0
  0
VERTEX
  5
3BA
330
34F
100
AcDbEntity
  8
4_ANYTOOL_CUTTHROUGH_OUTSI
100
AcDbVertex
100
AcDb2dVertex
 10
-141.7500063149146
 20
69.35377512915147
 30
0.0
  0
VERTEX
  5
3BB
330
34F
100
AcDbEntity
  8
4_ANYTOOL_CUTTHROUGH_OUTSI
100
AcDbVertex
100
AcDb2dVertex
 10
-54.25000631488547
 20
69.35377512704144
 30
0.0
  0
VERTEX
  5
3BC
330
34F
100
AcDbEntity
  8
4_ANYTOOL_CUTTHROUGH_OUTSI
100
AcDbVertex
100
AcDb2dVertex
 10
-54.25000631488547
 20
45.60377512843115
 30
0.0
 42
0.4142135623858786
  0
VERTEX
  5
3BD
330
34F
100
AcDbEntity
  8
4_ANYTOOL_CUTTHROUGH_OUTSI
100
AcDbVertex
100
AcDb2dVertex
 10
-54.00000631488547
 20
45.35377512842751
 30
0.0
  0
VERTEX
  5
3BE
330
34F
100
AcDbEntity
  8
4_ANYTOOL_CUTTHROUGH_OUTSI
100
AcDbVertex
100
AcDb2dVertex
 10
-42.00000631488547
 20
45.35377512843115
 30
0.0
 42
0.4142135623880182
  0
VERTEX
  5
3BF
330
34F
100
AcDbEntity
  8
4_ANYTOOL_CUTTHROUGH_OUTSI
100
AcDbVertex
100
AcDb2dVertex
 10
-41.75000631488729
 20
45.60377512843115
 30
0.0
  0
VERTEX
  5
3C0
330
34F
100
AcDbEntity
  8
4_ANYTOOL_CUTTHROUGH_OUTSI
100
AcDbVertex
100
AcDb2dVertex
 10
-41.75000631488547
 20
51.35377512843115
 30
0.0
  0
VERTEX
  5
3C1
330
34F
100
AcDbEntity
  8
4_ANYTOOL_CUTTHROUGH_OUTSI
100
AcDbVertex
100
AcDb2dVertex
 10
-32.25000631488547
 20
51.35377512843115
 30
0.0
  0
VERTEX
  5
3C2
330
34F
100
AcDbEntity
  8
4_ANYTOOL_CUTTHROUGH_OUTSI
100
AcDbVertex
100
AcDb2dVertex
 10
-32.25000631488547
 20
45.60377512843115
 30
0.0
 42
0.4142135623752283
  0
VERTEX
  5
3C3
330
34F
100
AcDbEntity
  8
4_ANYTOOL_CUTTHROUGH_OUTSI
100
AcDbVertex
100
AcDb2dVertex
 10
-32.00000631488547
 20
45.35377512843297
 30
0.0
  0
VERTEX
  5
3C4
330
34F
100
AcDbEntity
  8
4_ANYTOOL_CUTTHROUGH_OUTSI
100
AcDbVertex
100
AcDb2dVertex
 10
-20.00000631488547
 20
45.35377512843115
 30
0.0
 42
0.4142135623837496
  0
VERTEX
  5
3C5
330
34F
100
AcDbEntity
  8
4_ANYTOOL_CUTTHROUGH_OUTSI
100
AcDbVertex
100
AcDb2dVertex
 10
-19.75000631489092
 20
45.60377512843115
 30
0.0
  0
VERTEX
  5
3C6
330
34F
100
AcDbEntity
  8
4_ANYTOOL_CUTTHROUGH_OUTSI
100
AcDbVertex
100
AcDb2dVertex
 10
-19.75000631488547
 20
69.35377512843115
 30
0.0
  0
VERTEX
  5
3C7
330
34F
100
AcDbEntity
  8
4_ANYTOOL_CUTTHROUGH_OUTSI
100
AcDbVertex
100
AcDb2dVertex
 10
19.74999368511453
 20
69.35377512843115
 30
0.0
  0
VERTEX
  5
3C8
330
34F
100
AcDbEntity
  8
4_ANYTOOL_CUTTHROUGH_OUTSI
100
AcDbVertex
100
AcDb2dVertex
 10
19.74999368511453
 20
45.60377512843115
 30
0.0
 42
0.4142135623858844
  0
VERTEX
  5
3C9
330
34F
100
AcDbEntity
  8
4_ANYTOOL_CUTTHROUGH_OUTSI
100
AcDbVertex
100
AcDb2dVertex
 10
19.99999368511453
 20
45.35377512842751
 30
0.0
  0
VERTEX
  5
3CA
330
34F
100
AcDbEntity
  8
4_ANYTOOL_CUTTHROUGH_OUTSI
100
AcDbVertex
100
AcDb2dVertex
 10
31.99999368511453
 20
45.35377512843115
 30
0.0
 42
0.4142135623901437
  0
VERTEX
  5
3CB
330
34F
100
AcDbEntity
  8
4_ANYTOOL_CUTTHROUGH_OUTSI
100
AcDbVertex
100
AcDb2dVertex
 10
32.24999368511453
 20
45.60377512843115
 30
0.0
  0
VERTEX
  5
3CC
330
34F
100
AcDbEntity
  8
4_ANYTOOL_CUTTHROUGH_OUTSI
100
AcDbVertex
100
AcDb2dVertex
 10
32.24999368511453
 20
51.35377512843115
 30
0.0
  0
VERTEX
  5
3CD
330
34F
100
AcDbEntity
  8
4_ANYTOOL_CUTTHROUGH_OUTSI
100
AcDbVertex
100
AcDb2dVertex
 10
41.74999368511453
 20
51.35377512843115
 30
0.0
  0
VERTEX
  5
3CE
330
34F
100
AcDbEntity
  8
4_ANYTOOL_CUTTHROUGH_OUTSI
100
AcDbVertex
100
AcDb2dVertex
 10
41.74999368511453
 20
45.60377512843115
 30
0.0
 42
0.4142135623858786
  0
VERTEX
  5
3CF
330
34F
100
AcDbEntity
  8
4_ANYTOOL_CUTTHROUGH_OUTSI
100
AcDbVertex
100
AcDb2dVertex
 10
41.99999368511453
 20
45.35377512842751
 30
0.0
  0
VERTEX
  5
3D0
330
34F
100
AcDbEntity
  8
4_ANYTOOL_CUTTHROUGH_OUTSI
100
AcDbVertex
100
AcDb2dVertex
 10
53.99999368511453
 20
45.35377512843115
 30
0.0
 42
0.4142135623880182
  0
VERTEX
  5
3D1
330
34F
100
AcDbEntity
  8
4_ANYTOOL_CUTTHROUGH_OUTSI
100
AcDbVertex
100
AcDb2dVertex
 10
54.24999368511271
 20
45.60377512843115
 30
0.0
  0
VERTEX
  5
3D2
330
34F
100
AcDbEntity
  8
4_ANYTOOL_CUTTHROUGH_OUTSI
100
AcDbVertex
100
AcDb2dVertex
 10
54.24999368511453
 20
69.35377512843115
 30
0.0
  0
VERTEX
  5
3D3
330
34F
100
AcDbEntity
  8
4_ANYTOOL_CUTTHROUGH_OUTSI
100
AcDbVertex
100
AcDb2dVertex
 10
141.7499936851436
 20
69.35377512773266
 30
0.0
  0
VERTEX
  5
3D4
330
34F
100
AcDbEntity
  8
4_ANYTOOL_CUTTHROUGH_OUTSI
100
AcDbVertex
100
AcDb2dVertex
 10
141.7499936851436
 20
45.60377512915875
 30
0.0
 42
0.4142135623645952
  0
VERTEX
  5
3D5
330
34F
100
AcDbEntity
  8
4_ANYTOOL_CUTTHROUGH_OUTSI
100
AcDbVertex
100
AcDb2dVertex
 10
141.9999936851436
 20
45.35377512915147
 30
0.0
  0
VERTEX
  5
3D6
330
34F
100
AcDbEntity
  8
4_ANYTOOL_CUTTHROUGH_OUTSI
100
AcDbVertex
100
AcDb2dVertex
 10
153.9999936851436
 20
45.35377512915875
 30
0.0
 42
0.4142135623411173
  0
VERTEX
  5
3D7
330
34F
100
AcDbEntity
  8
4_ANYTOOL_CUTTHROUGH_OUTSI
100
AcDbVertex
100
AcDb2dVertex
 10
154.2499936851455
 20
45.60377512915875
 30
0.0
  0
VERTEX
  5
3D8
330
34F
100
AcDbEntity
  8
4_ANYTOOL_CUTTHROUGH_OUTSI
100
AcDbVertex
100
AcDb2dVertex
 10
154.2499936851436
 20
51.35377512915875
 30
0.0
  0
VERTEX
  5
3D9
330
34F
100
AcDbEntity
  8
4_ANYTOOL_CUTTHROUGH_OUTSI
100
AcDbVertex
100
AcDb2dVertex
 10
163.7499936851436
 20
51.35377512915875
 30
0.0
  0
VERTEX
  5
3DA
330
34F
100
AcDbEntity
  8
4_ANYTOOL_CUTTHROUGH_OUTSI
100
AcDbVertex
100
AcDb2dVertex
 10
163.7499936851436
 20
45.60377512915875
 30
0.0
 42
0.4142135623539038
  0
VERTEX
  5
3DB
330
34F
100
AcDbEntity
  8
4_ANYTOOL_CUTTHROUGH_OUTSI
100
AcDbVertex
100
AcDb2dVertex
 10
163.9999936851436
 20
45.35377512915693
 30
0.0
  0
VERTEX
  5
3DC
330
34F
100
AcDbEntity
  8
4_ANYTOOL_CUTTHROUGH_OUTSI
100
AcDbVertex
100
AcDb2dVertex
 10
175.9999936851436
 20
45.35377512915875
 30
0.0
 42
0.4142135623624326
  0
VERTEX
  5
3DD
330
34F
100
AcDbEntity
  8
4_ANYTOOL_CUTTHROUGH_OUTSI
100
AcDbVertex
100
AcDb2dVertex
 10
176.2499936851345
 20
45.60377512915875
 30
0.0
  0
VERTEX
  5
3DE
330
34F
100
AcDbEntity
  8
4_ANYTOOL_CUTTHROUGH_OUTSI
100
AcDbVertex
100
AcDb2dVertex
 10
176.2499936851436
 20
69.35377512915875
 30
0.0
  0
VERTEX
  5
3DF
330
34F
100
AcDbEntity
  8
4_ANYTOOL_CUTTHROUGH_OUTSI
100
AcDbVertex
100
AcDb2dVertex
 10
215.7499936851436
 20
69.35377512915875
 30
0.0
  0
VERTEX
  5
3E0
330
34F
100
AcDbEntity
  8
4_ANYTOOL_CUTTHROUGH_OUTSI
100
AcDbVertex
100
AcDb2dVertex
 10
215.7499936851436
 20
45.60377512915875
 30
0.0
 42
0.4142135623390213
  0
VERTEX
  5
3E1
330
34F
100
AcDbEntity
  8
4_ANYTOOL_CUTTHROUGH_OUTSI
100
AcDbVertex
100
AcDb2dVertex
 10
215.9999936851436
 20
45.35377512915875
 30
0.0
  0
VERTEX
  5
3E2
330
34F
100
AcDbEntity
  8
4_ANYTOOL_CUTTHROUGH_OUTSI
100
AcDbVertex
100
AcDb2dVertex
 10
227.9999936851436
 20
45.35377512915875
 30
0.0
 42
0.4142135623411173
  0
VERTEX
  5
3E3
330
34F
100
AcDbEntity
  8
4_ANYTOOL_CUTTHROUGH_OUTSI
100
AcDbVertex
100
AcDb2dVertex
 10
228.2499936851455
 20
45.60377512915875
 30
0.0
  0
VERTEX
  5
3E4
330
34F
100
AcDbEntity
  8
4_ANYTOOL_CUTTHROUGH_OUTSI
100
AcDbVertex
100
AcDb2dVertex
 10
228.2499936851436
 20
51.35377512915875
 30
0.0
  0
VERTEX
  5
3E5
330
34F
100
AcDbEntity
  8
4_ANYTOOL_CUTTHROUGH_OUTSI
100
AcDbVertex
100
AcDb2dVertex
 10
237.7499936851436
 20
51.35377512915875
 30
0.0
  0
VERTEX
  5
3E6
330
34F
100
AcDbEntity
  8
4_ANYTOOL_CUTTHROUGH_OUTSI
100
AcDbVertex
100
AcDb2dVertex
 10
237.7499936851436
 20
45.60377512915875
 30
0.0
 42
0.4142135623262203
  0
VERTEX
  5
3E7
330
34F
100
AcDbEntity
  8
4_ANYTOOL_CUTTHROUGH_OUTSI
100
AcDbVertex
100
AcDb2dVertex
 10
237.9999936851436
 20
45.35377512916239
 30
0.0
  0
VERTEX
  5
3E8
330
34F
100
AcDbEntity
  8
4_ANYTOOL_CUTTHROUGH_OUTSI
100
AcDbVertex
100
AcDb2dVertex
 10
249.9999936851436
 20
45.35377512915875
 30
0.0
 42
0.4142135623517759
  0
VERTEX
  5
3E9
330
34F
100
AcDbEntity
  8
4_ANYTOOL_CUTTHROUGH_OUTSI
100
AcDbVertex
100
AcDb2dVertex
 10
250.24999368514
 20
45.60377512915875
 30
0.0
  0
VERTEX
  5
3EA
330
34F
100
AcDbEntity
  8
4_ANYTOOL_CUTTHROUGH_OUTSI
100
AcDbVertex
100
AcDb2dVertex
 10
250.2499936851436
 20
69.35377512915875
 30
0.0
  0
VERTEX
  5
3EB
330
34F
100
AcDbEntity
  8
4_ANYTOOL_CUTTHROUGH_OUTSI
100
AcDbVertex
100
AcDb2dVertex
 10
349.7499936851436
 20
69.35377512915875
 30
0.0
  0
VERTEX
  5
3EC
330
34F
100
AcDbEntity
  8
4_ANYTOOL_CUTTHROUGH_OUTSI
100
AcDbVertex
100
AcDb2dVertex
 10
349.7499936851436
 20
45.60377512915875
 30
0.0
 42
0.4142135623539038
  0
VERTEX
  5
3ED
330
34F
100
AcDbEntity
  8
4_ANYTOOL_CUTTHROUGH_OUTSI
100
AcDbVertex
100
AcDb2dVertex
 10
349.9999936851436
 20
45.35377512915693
 30
0.0
  0
VERTEX
  5
3EE
330
34F
100
AcDbEntity
  8
4_ANYTOOL_CUTTHROUGH_OUTSI
100
AcDbVertex
100
AcDb2dVertex
 10
361.9999936851436
 20
45.35377512915875
 30
0.0
 42
0.4142135623432781
  0
VERTEX
  5
3EF
330
34F
100
AcDbEntity
  8
4_ANYTOOL_CUTTHROUGH_OUTSI
100
AcDbVertex
100
AcDb2dVertex
 10
362.2499936851473
 20
45.60377512915875
 30
0.0
  0
VERTEX
  5
3F0
330
34F
100
AcDbEntity
  8
4_ANYTOOL_CUTTHROUGH_OUTSI
100
AcDbVertex
100
AcDb2dVertex
 10
362.2499936851436
 20
51.35377512915875
 30
0.0
  0
VERTEX
  5
3F1
330
34F
100
AcDbEntity
  8
4_ANYTOOL_CUTTHROUGH_OUTSI
100
AcDbVertex
100
AcDb2dVertex
 10
371.7499936851436
 20
51.35377512915875
 30
0.0
  0
VERTEX
  5
3F2
330
34F
100
AcDbEntity
  8
4_ANYTOOL_CUTTHROUGH_OUTSI
100
AcDbVertex
100
AcDb2dVertex
 10
371.7499936851436
 20
45.60377512915875
 30
0.0
 42
0.4142135623517754
  0
VERTEX
  5
3F3
330
34F
100
AcDbEntity
  8
4_ANYTOOL_CUTTHROUGH_OUTSI
100
AcDbVertex
100
AcDb2dVertex
 10
371.9999936851436
 20
45.35377512915511
 30
0.0
  0
VERTEX
  5
3F4
330
34F
100
AcDbEntity
  8
4_ANYTOOL_CUTTHROUGH_OUTSI
100
AcDbVertex
100
AcDb2dVertex
 10
383.9999936851436
 20
45.35377512915875
 30
0.0
 42
0.4142135623646129
  0
VERTEX
  5
3F5
330
34F
100
AcDbEntity
  8
4_ANYTOOL_CUTTHROUGH_OUTSI
100
AcDbVertex
100
AcDb2dVertex
 10
384.2499936851364
 20
45.60377512915875
 30
0.0
  0
VERTEX
  5
3F6
330
34F
100
AcDbEntity
  8
4_ANYTOOL_CUTTHROUGH_OUTSI
100
AcDbVertex
100
AcDb2dVertex
 10
384.2499936851436
 20
69.35377512915875
 30
0.0
  0
VERTEX
  5
3F7
330
34F
100
AcDbEntity
  8
4_ANYTOOL_CUTTHROUGH_OUTSI
100
AcDbVertex
100
AcDb2dVertex
 10
423.7499936851436
 20
69.35377512915875
 30
0.0
  0
VERTEX
  5
3F8
330
34F
100
AcDbEntity
  8
4_ANYTOOL_CUTTHROUGH_OUTSI
100
AcDbVertex
100
AcDb2dVertex
 10
423.7499936851436
 20
45.60377512915875
 30
0.0
 42
0.4142135623539038
  0
VERTEX
  5
3F9
330
34F
100
AcDbEntity
  8
4_ANYTOOL_CUTTHROUGH_OUTSI
100
AcDbVertex
100
AcDb2dVertex
 10
423.9999936851436
 20
45.35377512915693
 30
0.0
  0
VERTEX
  5
3FA
330
34F
100
AcDbEntity
  8
4_ANYTOOL_CUTTHROUGH_OUTSI
100
AcDbVertex
100
AcDb2dVertex
 10
435.9999936851436
 20
45.35377512915875
 30
0.0
 42
0.4142135623496642
  0
VERTEX
  5
3FB
330
34F
100
AcDbEntity
  8
4_ANYTOOL_CUTTHROUGH_OUTSI
100
AcDbVertex
100
AcDb2dVertex
 10
436.2499936851382
 20
45.60377512915875
 30
0.0
  0
VERTEX
  5
3FC
330
34F
100
AcDbEntity
  8
4_ANYTOOL_CUTTHROUGH_OUTSI
100
AcDbVertex
100
AcDb2dVertex
 10
436.2499936851436
 20
51.35377512915875
 30
0.0
  0
VERTEX
  5
3FD
330
34F
100
AcDbEntity
  8
4_ANYTOOL_CUTTHROUGH_OUTSI
100
AcDbVertex
100
AcDb2dVertex
 10
445.7499936851436
 20
51.35377512915875
 30
0.0
  0
VERTEX
  5
3FE
330
34F
100
AcDbEntity
  8
4_ANYTOOL_CUTTHROUGH_OUTSI
100
AcDbVertex
100
AcDb2dVertex
 10
445.7499936851436
 20
45.60377512915875
 30
0.0
 42
0.4142135623496279
  0
VERTEX
  5
3FF
330
34F
100
AcDbEntity
  8
4_ANYTOOL_CUTTHROUGH_OUTSI
100
AcDbVertex
100
AcDb2dVertex
 10
445.9999936851436
 20
45.35377512915329
 30
0.0
  0
VERTEX
  5
400
330
34F
100
AcDbEntity
  8
4_ANYTOOL_CUTTHROUGH_OUTSI
100
AcDbVertex
100
AcDb2dVertex
 10
457.9999936851436
 20
45.35377512915875
 30
0.0
 42
0.414213562353917
  0
VERTEX
  5
401
330
34F
100
AcDbEntity
  8
4_ANYTOOL_CUTTHROUGH_OUTSI
100
AcDbVertex
100
AcDb2dVertex
 10
458.2499936851418
 20
45.60377512915875
 30
0.0
  0
VERTEX
  5
402
330
34F
100
AcDbEntity
  8
4_ANYTOOL_CUTTHROUGH_OUTSI
100
AcDbVertex
100
AcDb2dVertex
 10
458.2499936851436
 20
69.35377512915875
 30
0.0
  0
VERTEX
  5
403
330
34F
100
AcDbEntity
  8
4_ANYTOOL_CUTTHROUGH_OUTSI
100
AcDbVertex
100
AcDb2dVertex
 10
599.7499936851746
 20
69.35377512847481
 30
0.0
  0
VERTEX
  5
404
330
34F
100
AcDbEntity
  8
4_ANYTOOL_CUTTHROUGH_OUTSI
100
AcDbVertex
100
AcDb2dVertex
 10
599.7499936854165
 20
19.85377512710693
 30
0.0
  0
VERTEX
  5
405
330
34F
100
AcDbEntity
  8
4_ANYTOOL_CUTTHROUGH_OUTSI
100
AcDbVertex
100
AcDb2dVertex
 10
575.9999936853892
 20
19.85377512709238
 30
0.0
 42
0.4142135623986937
  0
VERTEX
  5
406
330
34F
100
AcDbEntity
  8
4_ANYTOOL_CUTTHROUGH_OUTSI
100
AcDbVertex
100
AcDb2dVertex
 10
575.7499936853965
 20
19.60377512709238
 30
0.0
  0
VERTEX
  5
407
330
34F
100
AcDbEntity
  8
4_ANYTOOL_CUTTHROUGH_OUTSI
100
AcDbVertex
100
AcDb2dVertex
 10
575.7499936854765
 20
7.603775127092376
 30
0.0
 42
0.4142135623261284
  0
VERTEX
  5
408
330
34F
100
AcDbEntity
  8
4_ANYTOOL_CUTTHROUGH_OUTSI
100
AcDbVertex
100
AcDb2dVertex
 10
575.9999936854765
 20
7.353775127096014
 30
0.0
  0
VERTEX
  5
409
330
34F
100
AcDbEntity
  8
4_ANYTOOL_CUTTHROUGH_OUTSI
100
AcDbVertex
100
AcDb2dVertex
 10
581.7499936854765
 20
7.353775127092376
 30
0.0
  0
VERTEX
  5
40A
330
34F
100
AcDbEntity
  8
4_ANYTOOL_CUTTHROUGH_OUTSI
100
AcDbVertex
100
AcDb2dVertex
 10
581.7499936854765
 20
-3.146224872965831
 30
0.0
  0
VERTEX
  5
40B
330
34F
100
AcDbEntity
  8
4_ANYTOOL_CUTTHROUGH_OUTSI
100
AcDbVertex
100
AcDb2dVertex
 10
575.9999936854474
 20
-3.146224872965831
 30
0.0
 42
0.4142135623517264
  0
VERTEX
  5
40C
330
34F
100
AcDbEntity
  8
4_ANYTOOL_CUTTHROUGH_OUTSI
100
AcDbVertex
100
AcDb2dVertex
 10
575.749993685451
 20
-3.396224872965831
 30
0.0
  0
VERTEX
  5
40D
330
34F
100
AcDbEntity
  8
4_ANYTOOL_CUTTHROUGH_OUTSI
100
AcDbVertex
100
AcDb2dVertex
 10
575.7499936853455
 20
-15.39622487296583
 30
0.0
 42
0.4142135624136437
  0
VERTEX
  5
40E
330
34F
100
AcDbEntity
  8
4_ANYTOOL_CUTTHROUGH_OUTSI
100
AcDbVertex
100
AcDb2dVertex
 10
575.9999936853455
 20
-15.64622487296037
 30
0.0
  0
VERTEX
  5
40F
330
34F
100
AcDbEntity
  8
4_ANYTOOL_CUTTHROUGH_OUTSI
100
AcDbVertex
100
AcDb2dVertex
 10
599.7499936854183
 20
-15.64622487295128
 30
0.0
  0
VERTEX
  5
410
330
34F
100
AcDbEntity
  8
4_ANYTOOL_CUTTHROUGH_OUTSI
100
AcDbVertex
100
AcDb2dVertex
 10
599.7499936854019
 20
-40.14622487295128
 30
0.0
  0
VERTEX
  5
411
330
34F
100
AcDbEntity
  8
4_ANYTOOL_CUTTHROUGH_OUTSI
100
AcDbVertex
100
AcDb2dVertex
 10
575.9999936853728
 20
-40.14622487296583
 30
0.0
 42
0.4142135623752145
  0
VERTEX
  5
412
330
34F
100
AcDbEntity
  8
4_ANYTOOL_CUTTHROUGH_OUTSI
100
AcDbVertex
100
AcDb2dVertex
 10
575.749993685371
 20
-40.39622487296583
 30
0.0
  0
VERTEX
  5
413
330
34F
100
AcDbEntity
  8
4_ANYTOOL_CUTTHROUGH_OUTSI
100
AcDbVertex
100
AcDb2dVertex
 10
575.7499936854601
 20
-52.39622487296583
 30
0.0
 42
0.4142135623687769
  0
VERTEX
  5
414
330
34F
100
AcDbEntity
  8
4_ANYTOOL_CUTTHROUGH_OUTSI
100
AcDbVertex
100
AcDb2dVertex
 10
575.9999936854601
 20
-52.64622487296947
 30
0.0
  0
VERTEX
  5
415
330
34F
100
AcDbEntity
  8
4_ANYTOOL_CUTTHROUGH_OUTSI
100
AcDbVertex
100
AcDb2dVertex
 10
581.7499936854565
 20
-52.64622487295128
 30
0.0
  0
VERTEX
  5
416
330
34F
100
AcDbEntity
  8
4_ANYTOOL_CUTTHROUGH_OUTSI
100
AcDbVertex
100
AcDb2dVertex
 10
581.7499936851127
 20
-80.14622487290762
 30
0.0
  0
VERTEX
  5
417
330
34F
100
AcDbEntity
  8
4_ANYTOOL_CUTTHROUGH_OUTSI
100
AcDbVertex
100
AcDb2dVertex
 10
569.3455564334163
 20
-80.14622487295128
 30
0.0
 42
-0.3178372451946279
  0
VERTEX
  5
418
330
34F
100
AcDbEntity
  8
4_ANYTOOL_CUTTHROUGH_OUTSI
100
AcDbVertex
100
AcDb2dVertex
 10
563.9244044443144
 20
-76.3128915396157
 30
0.0
 42
0.7071067811851575
  0
VERTEX
  5
419
330
34F
100
AcDbEntity
  8
4_ANYTOOL_CUTTHROUGH_OUTSI
100
AcDbVertex
100
AcDb2dVertex
 10
540.8255829255528
 20
-76.31289153962959
 30
0.0
 42
-0.3178372451988354
  0
VERTEX
  5
41A
330
34F
100
AcDbEntity
  8
4_ANYTOOL_CUTTHROUGH_OUTSI
100
AcDbVertex
100
AcDb2dVertex
 10
535.4044309364617
 20
-80.1462248729624
 30
0.0
  0
VERTEX
  5
41B
330
34F
100
AcDbEntity
  8
4_ANYTOOL_CUTTHROUGH_OUTSI
100
AcDbVertex
100
AcDb2dVertex
 10
523.0054310377418
 20
-80.14622487287852
 30
0.0
  0
VERTEX
  5
41C
330
34F
100
AcDbEntity
  8
4_ANYTOOL_CUTTHROUGH_OUTSI
100
AcDbVertex
100
AcDb2dVertex
 10
523.2404250463096
 20
-78.75135467250601
 30
0.0
  0
VERTEX
  5
41D
330
34F
100
AcDbEntity
  8
4_ANYTOOL_CUTTHROUGH_OUTSI
100
AcDbVertex
100
AcDb2dVertex
 10
540.135958273002
 20
-30.47881247900659
 30
0.0
  0
VERTEX
  5
41E
330
34F
100
AcDbEntity
  8
4_ANYTOOL_CUTTHROUGH_OUTSI
100
AcDbVertex
100
AcDb2dVertex
 10
540.1499936839132
 20
-30.39622487282031
 30
0.0
 42
0.4142135623756604
  0
VERTEX
  5
41F
330
34F
100
AcDbEntity
  8
4_ANYTOOL_CUTTHROUGH_OUTSI
100
AcDbVertex
100
AcDb2dVertex
 10
533.8999936838827
 20
-24.14622487281849
 30
0.0
  0
VERTEX
  5
420
330
34F
100
AcDbEntity
  8
4_ANYTOOL_CUTTHROUGH_OUTSI
100
AcDbVertex
100
AcDb2dVertex
 10
455.8999936839446
 20
-24.14622487283486
 30
0.0
 42
0.414213562379231
  0
VERTEX
  5
421
330
34F
100
AcDbEntity
  8
4_ANYTOOL_CUTTHROUGH_OUTSI
100
AcDbVertex
100
AcDb2dVertex
 10
449.6499936839155
 20
-30.39622487282031
 30
0.0
  0
VERTEX
  5
422
330
34F
100
AcDbEntity
  8
4_ANYTOOL_CUTTHROUGH_OUTSI
100
AcDbVertex
100
AcDb2dVertex
 10
449.664029094821
 20
-30.47881247899954
 30
0.0
  0
VERTEX
  5
423
330
34F
100
AcDbEntity
  8
4_ANYTOOL_CUTTHROUGH_OUTSI
100
AcDbVertex
100
AcDb2dVertex
 10
466.563142089266
 20
-78.76241965189547
 30
0.0
  0
VERTEX
  5
424
330
34F
100
AcDbEntity
  8
4_ANYTOOL_CUTTHROUGH_OUTSI
100
AcDbVertex
100
AcDb2dVertex
 10
466.7945563308137
 20
-80.14622487287905
 30
0.0
  0
VERTEX
  5
425
330
34F
100
AcDbEntity
  8
4_ANYTOOL_CUTTHROUGH_OUTSI
100
AcDbVertex
100
AcDb2dVertex
 10
328.1054310384879
 20
-80.14622487287852
 30
0.0
  0
VERTEX
  5
426
330
34F
100
AcDbEntity
  8
4_ANYTOOL_CUTTHROUGH_OUTSI
100
AcDbVertex
100
AcDb2dVertex
 10
328.3404250470429
 20
-78.75135467255588
 30
0.0
  0
VERTEX
  5
427
330
34F
100
AcDbEntity
  8
4_ANYTOOL_CUTTHROUGH_OUTSI
100
AcDbVertex
100
AcDb2dVertex
 10
345.2359582737245
 20
-30.47881247905025
 30
0.0
  0
VERTEX
  5
428
330
34F
100
AcDbEntity
  8
4_ANYTOOL_CUTTHROUGH_OUTSI
100
AcDbVertex
100
AcDb2dVertex
 10
345.2499936846334
 20
-30.39622487286397
 30
0.0
 42
0.4142135623746002
  0
VERTEX
  5
429
330
34F
100
AcDbEntity
  8
4_ANYTOOL_CUTTHROUGH_OUTSI
100
AcDbVertex
100
AcDb2dVertex
 10
338.9999936846179
 20
-24.14622487286761
 30
0.0
  0
VERTEX
  5
42A
330
34F
100
AcDbEntity
  8
4_ANYTOOL_CUTTHROUGH_OUTSI
100
AcDbVertex
100
AcDb2dVertex
 10
260.9999936846452
 20
-24.14622487287852
 30
0.0
 42
0.4142135623765902
  0
VERTEX
  5
42B
330
34F
100
AcDbEntity
  8
4_ANYTOOL_CUTTHROUGH_OUTSI
100
AcDbVertex
100
AcDb2dVertex
 10
254.7499936846289
 20
-30.39622487286397
 30
0.0
  0
VERTEX
  5
42C
330
34F
100
AcDbEntity
  8
4_ANYTOOL_CUTTHROUGH_OUTSI
100
AcDbVertex
100
AcDb2dVertex
 10
254.7640290955438
 20
-30.47881247904183
 30
0.0
  0
VERTEX
  5
42D
330
34F
100
AcDbEntity
  8
4_ANYTOOL_CUTTHROUGH_OUTSI
100
AcDbVertex
100
AcDb2dVertex
 10
271.6631420899866
 20
-78.76241965193913
 30
0.0
  0
VERTEX
  5
42E
330
34F
100
AcDbEntity
  8
4_ANYTOOL_CUTTHROUGH_OUTSI
100
AcDbVertex
100
AcDb2dVertex
 10
271.8945563311838
 20
-80.14622487290848
 30
0.0
  0
VERTEX
  5
42F
330
34F
100
AcDbEntity
  8
4_ANYTOOL_CUTTHROUGH_OUTSI
100
AcDbVertex
100
AcDb2dVertex
 10
133.2054310388248
 20
-80.14622487290762
 30
0.0
  0
VERTEX
  5
430
330
34F
100
AcDbEntity
  8
4_ANYTOOL_CUTTHROUGH_OUTSI
100
AcDbVertex
100
AcDb2dVertex
 10
133.4404250477477
 20
-78.75135467257725
 30
0.0
  0
VERTEX
  5
431
330
34F
100
AcDbEntity
  8
4_ANYTOOL_CUTTHROUGH_OUTSI
100
AcDbVertex
100
AcDb2dVertex
 10
150.3359582744415
 20
-30.47881247907935
 30
0.0
  0
VERTEX
  5
432
330
34F
100
AcDbEntity
  8
4_ANYTOOL_CUTTHROUGH_OUTSI
100
AcDbVertex
100
AcDb2dVertex
 10
150.3499936853513
 20
-30.39622487289307
 30
0.0
 42
0.4142135623768473
  0
VERTEX
  5
433
330
34F
100
AcDbEntity
  8
4_ANYTOOL_CUTTHROUGH_OUTSI
100
AcDbVertex
100
AcDb2dVertex
 10
144.0999936853186
 20
-24.14622487291126
 30
0.0
  0
VERTEX
  5
434
330
34F
100
AcDbEntity
  8
4_ANYTOOL_CUTTHROUGH_OUTSI
100
AcDbVertex
100
AcDb2dVertex
 10
66.09999368536592
 20
-24.14622487290762
 30
0.0
 42
0.4142135623776979
  0
VERTEX
  5
435
330
34F
100
AcDbEntity
  8
4_ANYTOOL_CUTTHROUGH_OUTSI
100
AcDbVertex
100
AcDb2dVertex
 10
59.84999368534045
 20
-30.39622487289307
 30
0.0
  0
VERTEX
  5
436
330
34F
100
AcDbEntity
  8
4_ANYTOOL_CUTTHROUGH_OUTSI
100
AcDbVertex
100
AcDb2dVertex
 10
59.86402909625677
 20
-30.47881247907236
 30
0.0
  0
VERTEX
  5
437
330
34F
100
AcDbEntity
  8
4_ANYTOOL_CUTTHROUGH_OUTSI
100
AcDbVertex
100
AcDb2dVertex
 10
76.76314209069096
 20
-78.76241965196823
 30
0.0
  0
VERTEX
  5
438
330
34F
100
AcDbEntity
  8
4_ANYTOOL_CUTTHROUGH_OUTSI
100
AcDbVertex
100
AcDb2dVertex
 10
76.9945563318797
 20
-80.14622487291335
 30
0.0
  0
VERTEX
  5
439
330
34F
100
AcDbEntity
  8
4_ANYTOOL_CUTTHROUGH_OUTSI
100
AcDbVertex
100
AcDb2dVertex
 10
64.59555643381464
 20
-80.1462248730677
 30
0.0
 42
-0.3178372451952501
  0
VERTEX
  5
43A
330
34F
100
AcDbEntity
  8
4_ANYTOOL_CUTTHROUGH_OUTSI
100
AcDbVertex
100
AcDb2dVertex
 10
59.17440444470896
 20
-76.31289153973343
 30
0.0
 42
0.7071067811852322
  0
VERTEX
  5
43B
330
34F
100
AcDbEntity
  8
4_ANYTOOL_CUTTHROUGH_OUTSI
100
AcDbVertex
100
AcDb2dVertex
 10
36.07558292594743
 20
-76.31289153974602
 30
0.0
 42
-0.3178372451962039
  0
SEQEND
  5
43C
330
34F
100
AcDbEntity
  8
4_ANYTOOL_CUTTHROUGH_OUTSI
  0
ENDSEC
  0
SECTION
  2
OBJECTS
  0
DICTIONARY
  5
C
330
0
100
AcDbDictionary
  3
ACAD_GROUP
350
D
  3
ACAD_LAYOUT
350
1A
  3
ACAD_MATERIAL
350
43
  3
ACAD_MLEADERSTYLE
350
5B
  3
ACAD_MLINESTYLE
350
17
  3
ACAD_PLOTSETTINGS
350
19
  3
ACAD_SCALELIST
350
47
  3
ACAD_VISUALSTYLE
350
2A
  3
ACDBHEADERROUNDTRIPXREC
350
43D
  3
ACDBVARIABLEDICTIONARY
350
45E
  3
DWGPROPS
350
465
  0
DICTIONARY
  5
466
330
8
100
AcDbDictionary
280
     1
  3
ACAD_XREC_ROUNDTRIP
360
467
  0
DICTIONARY
  5
D
102
{ACAD_REACTORS
330
C
102
}
330
C
100
AcDbDictionary
  0
DICTIONARY
  5
1A
102
{ACAD_REACTORS
330
C
102
}
330
C
100
AcDbDictionary
  0
DICTIONARY
  5
43
102
{ACAD_REACTORS
330
C
102
}
330
C
100
AcDbDictionary
  3
BYBLOCK
350
45
  3
BYLAYER
350
44
  3
GLOBAL
350
46
  0
DICTIONARY
  5
5B
102
{ACAD_REACTORS
330
C
102
}
330
C
100
AcDbDictionary
  3
STANDARD
350
5C
  0
DICTIONARY
  5
17
102
{ACAD_REACTORS
330
C
102
}
330
C
100
AcDbDictionary
  3
STANDARD
350
18
  0
DICTIONARY
  5
19
102
{ACAD_REACTORS
330
C
102
}
330
C
100
AcDbDictionary
  0
DICTIONARY
  5
47
102
{ACAD_REACTORS
330
C
102
}
330
C
100
AcDbDictionary
  3
A0
350
48
  3
A1
350
49
  3
A2
350
4A
  3
A3
350
4B
  3
A4
350
4C
  3
A5
350
4D
  3
A6
350
4E
  3
A7
350
4F
  3
A8
350
50
  3
A9
350
51
  3
B1
350
52
  3
B2
350
53
  3
B3
350
54
  3
B4
350
55
  3
B5
350
56
  3
B6
350
57
  3
B7
350
58
  0
DICTIONARY
  5
2A
102
{ACAD_REACTORS
330
C
102
}
330
C
100
AcDbDictionary
  3
2DWIREFRAME
350
2F
  3
BASIC
350
32
  3
BRIGHTEN
350
36
  3
COLORCHANGE
350
3A
  3
CONCEPTUAL
350
34
  3
DIM
350
35
  3
EDGECOLOROFF
350
3D
  3
FACEPATTERN
350
39
  3
FLAT
350
2B
  3
FLATWITHEDGES
350
2C
  3
GOURAUD
350
2D
  3
GOURAUDWITHEDGES
350
2E
  3
HIDDEN
350
31
  3
JITTEROFF
350
3B
  3
LINEPATTERN
350
38
  3
OVERHANGOFF
350
3C
  3
REALISTIC
350
33
  3
SHADED
350
42
  3
SHADED_WITH_EDGES
350
41
  3
SHADES_OF_GRAY
350
3E
  3
SKETCHY
350
3F
  3
THICKEN
350
37
  3
WIREFRAME
350
30
  3
X-RAY
350
40
  0
DICTIONARY
  5
43D
102
{ACAD_REACTORS
330
C
102
}
330
C
100
AcDbDictionary
  3
CEPSNID
350
447
  3
CEPSNTYPE
350
446
  3
DIMSTYLEDATA
350
45D
  3
FINGERPRINTGUID
350
448
  3
HYPERLINKBASE
350
440
  3
INSUNITS
350
445
  3
LAYOUTDICT
350
442
  3
LWETCUNION
350
444
  3
PLOTSETDICT
350
443
  3
PSVPSCALE
350
44A
  3
PUCSBASE
350
44D
  3
PUCSORGBACK
350
453
  3
PUCSORGBOTTOM
350
44F
  3
PUCSORGFRONT
350
452
  3
PUCSORGLEFT
350
450
  3
PUCSORGRIGHT
350
451
  3
PUCSORGTOP
350
44E
  3
PUCSORTHOREF
350
44B
  3
PUCSORTHOVIEW
350
44C
  3
STYLESHEET
350
441
  3
TSTACKALIGN
350
43E
  3
TSTACKSIZE
350
43F
  3
UCSBASE
350
456
  3
UCSORGBACK
350
45C
  3
UCSORGBOTTOM
350
458
  3
UCSORGFRONT
350
45B
  3
UCSORGLEFT
350
459
  3
UCSORGRIGHT
350
45A
  3
UCSORGTOP
350
457
  3
UCSORTHOREF
350
454
  3
UCSORTHOVIEW
350
455
  3
VERSIONGUID
350
449
  0
DICTIONARY
  5
45E
102
{ACAD_REACTORS
330
C
102
}
330
C
100
AcDbDictionary
  3
CANNOSCALE
350
468
  3
CMLEADERSTYLE
350
460
  3
CTABLESTYLE
350
45F
  3
DIMASSOC
350
463
  3
HIDETEXT
350
464
  3
MSLTSCALE
350
469
  0
XRECORD
  5
465
102
{ACAD_REACTORS
330
C
102
}
330
C
100
AcDbXrecord
  1
DWGPROPS COOKIE
  2

  3

  4

  6

  7

  8
clayt
  9

300
=
301
=
302
=
303
=
304
=
305
=
306
=
307
=
308
=
309
=
 40
0.0
 41
2461243.60402272
 42
2461243.604022882
  1

 90
        0
  0
XRECORD
  5
467
102
{ACAD_REACTORS
330
466
102
}
330
466
100
AcDbXrecord
102
VTR_0.000_0.000_1.000_1.000_VISUALSTYLE
340
2F
102
VTR_0.000_0.000_1.000_1.000_GRIDDISPLAY
 70
     3
102
VTR_0.000_0.000_1.000_1.000_GRIDMAJOR
 70
     5
102
VTR_0.000_0.000_1.000_1.000_DEFAULTLIGHTING
280
     1
102
VTR_0.000_0.000_1.000_1.000_DEFAULTLIGHTINGTYPE
 70
     1
102
VTR_0.000_0.000_1.000_1.000_BRIGHTNESS
141
0.0
102
VTR_0.000_0.000_1.000_1.000_CONTRAST
142
0.0
  0
MATERIAL
  5
45
102
{ACAD_REACTORS
330
43
102
}
102
{ACAD_XDICTIONARY
360
46C
102
}
330
43
100
AcDbMaterial
  1
BYBLOCK
  0
MATERIAL
  5
44
102
{ACAD_REACTORS
330
43
102
}
102
{ACAD_XDICTIONARY
360
46A
102
}
330
43
100
AcDbMaterial
  1
BYLAYER
  0
MATERIAL
  5
46
102
{ACAD_REACTORS
330
43
102
}
102
{ACAD_XDICTIONARY
360
46E
102
}
330
43
100
AcDbMaterial
  1
GLOBAL
  0
ACAD_PROXY_OBJECT
  5
5C
102
{ACAD_REACTORS
330
5B
102
}
330
5B
100
AcDbProxyObject
 90
      499
 91
      505
 93
      610
310
40901902A4063FBFFFFFE056BD1B81E855B9FC0AD7A3703D0AD73F4214DD185B99185C9900AD7A3703D0AC73F90141901A02B5E8DC0F42B1CFC02B5E8DC0F42B1CFE5764000000000000300FC0
340
14
340
0
340
11
340
0
 94
        0
1001
ACAD_MLEADERVER
1070
     2
  0
MLINESTYLE
  5
18
102
{ACAD_REACTORS
330
17
102
}
330
17
100
AcDbMlineStyle
  2
Standard
 70
     0
  3

 62
   256
 51
90.0
 52
90.0
 71
     2
 49
0.5
 62
   256
  6
BYLAYER
 49
-0.5
 62
   256
  6
BYLAYER
  0
ACAD_PROXY_OBJECT
  5
48
102
{ACAD_REACTORS
330
47
102
}
330
47
100
AcDbProxyObject
 90
      499
 91
      503
 93
       41
310
903313A31580
  0
ACAD_PROXY_OBJECT
  5
49
102
{ACAD_REACTORS
330
47
102
}
330
47
100
AcDbProxyObject
 90
      499
 91
      503
 93
      257
310
90E312F31323822203D2031272D3022000000000000200FC000000000000284000
  0
ACAD_PROXY_OBJECT
  5
4A
102
{ACAD_REACTORS
330
47
102
}
330
47
100
AcDbProxyObject
 90
      499
 91
      503
 93
      249
310
90D312F363422203D2031272D3022000000000000240FC000000000000284000
  0
ACAD_PROXY_OBJECT
  5
4B
102
{ACAD_REACTORS
330
47
102
}
330
47
100
AcDbProxyObject
 90
      499
 91
      503
 93
      249
310
90D312F333222203D2031272D3022000000000000280FC000000000000284000
  0
ACAD_PROXY_OBJECT
  5
4C
102
{ACAD_REACTORS
330
47
102
}
330
47
100
AcDbProxyObject
 90
      499
 91
      503
 93
      249
310
90D312F313622203D2031272D30220000000000002C0FC000000000000284000
  0
ACAD_PROXY_OBJECT
  5
4D
102
{ACAD_REACTORS
330
47
102
}
330
47
100
AcDbProxyObject
 90
      499
 91
      503
 93
      249
310
90D332F333222203D2031272D30220000000000002E0FC000000000000284000
  0
ACAD_PROXY_OBJECT
  5
4E
102
{ACAD_REACTORS
330
47
102
}
330
47
100
AcDbProxyObject
 90
      499
 91
      503
 93
      241
310
90C312F3822203D2031272D3022000000000000300FC000000000000284000
  0
ACAD_PROXY_OBJECT
  5
4F
102
{ACAD_REACTORS
330
47
102
}
330
47
100
AcDbProxyObject
 90
      499
 91
      503
 93
      249
310
90D332F313622203D2031272D3022000000000000320FC000000000000284000
  0
ACAD_PROXY_OBJECT
  5
50
102
{ACAD_REACTORS
330
47
102
}
330
47
100
AcDbProxyObject
 90
      499
 91
      503
 93
      241
310
90C312F3422203D2031272D3022000000000000340FC000000000000284000
  0
ACAD_PROXY_OBJECT
  5
51
102
{ACAD_REACTORS
330
47
102
}
330
47
100
AcDbProxyObject
 90
      499
 91
      503
 93
      241
310
90C332F3822203D2031272D3022000000000000360FC000000000000284000
  0
ACAD_PROXY_OBJECT
  5
52
102
{ACAD_REACTORS
330
47
102
}
330
47
100
AcDbProxyObject
 90
      499
 91
      503
 93
      241
310
90C312F3222203D2031272D3022000000000000380FC000000000000284000
  0
ACAD_PROXY_OBJECT
  5
53
102
{ACAD_REACTORS
330
47
102
}
330
47
100
AcDbProxyObject
 90
      499
 91
      503
 93
      241
310
90C332F3422203D2031272D30220000000000003A0FC000000000000284000
  0
ACAD_PROXY_OBJECT
  5
54
102
{ACAD_REACTORS
330
47
102
}
330
47
100
AcDbProxyObject
 90
      499
 91
      503
 93
      161
310
90A3122203D2031272D30224000000000000284000
  0
ACAD_PROXY_OBJECT
  5
55
102
{ACAD_REACTORS
330
47
102
}
330
47
100
AcDbProxyObject
 90
      499
 91
      503
 93
      257
310
90E312D312F3222203D2031272D30220000000000003E0FC000000000000284000
  0
ACAD_PROXY_OBJECT
  5
56
102
{ACAD_REACTORS
330
47
102
}
330
47
100
AcDbProxyObject
 90
      499
 91
      503
 93
      225
310
90A3322203D2031272D302200000000000002100000000000000284000
  0
ACAD_PROXY_OBJECT
  5
57
102
{ACAD_REACTORS
330
47
102
}
330
47
100
AcDbProxyObject
 90
      499
 91
      503
 93
      225
310
90A3622203D2031272D302200000000000006100000000000000284000
  0
ACAD_PROXY_OBJECT
  5
58
102
{ACAD_REACTORS
330
47
102
}
330
47
100
AcDbProxyObject
 90
      499
 91
      503
 93
      249
310
90D31272D3022203D2031272D30220000000000000A100000000000000284000
  0
ACAD_PROXY_OBJECT
  5
2F
102
{ACAD_REACTORS
330
2A
102
}
330
2A
100
AcDbProxyObject
 90
      499
 91
      501
 93
      436
310
42CC9915DA5C99599C985B595049028333333333333E33F0000000000000F90107901411070040501600405405064090741402480A0340
1001
ACAD
1000
AcDbSavedByObjectVersion
1070
     0
  0
ACAD_PROXY_OBJECT
  5
32
102
{ACAD_REACTORS
330
2A
102
}
330
2A
100
AcDbProxyObject
 90
      499
 91
      501
 93
      388
310
4150985CDA58D07406404333333333333E33F0000000000000F90107A41107004050150841D405064090741402480A0350
1001
ACAD
1000
AcDbSavedByObjectVersion
1070
     0
  0
ACAD_PROXY_OBJECT
  5
36
102
{ACAD_REACTORS
330
2A
102
}
330
2A
100
AcDbProxyObject
 90
      499
 91
      501
 93
      428
310
42109C9A59DA1D195B90C409028333333333333E33F0000000000000F9010790141107004050150841D405064090741402480A029950
1001
ACAD
1000
AcDbSavedByObjectVersion
1070
     0
  0
ACAD_PROXY_OBJECT
  5
3A
102
{ACAD_REACTORS
330
2A
102
}
330
2A
100
AcDbProxyObject
 90
      499
 91
      501
 93
      452
310
42D0DBDB1BDC90DA185B99D95104090240C333333333333E33F0000000000000F90108901411070040501508421405064090741402480A0350
1001
ACAD
1000
AcDbSavedByObjectVersion
1070
     0
  0
ACAD_PROXY_OBJECT
  5
34
102
{ACAD_REACTORS
330
2A
102
}
330
2A
100
AcDbProxyObject
 90
      499
 91
      501
 93
      500
310
4290DBDB98D95C1D1D585B10940D028333333333333E33F0000000000000F90107902409070040501000000000018199010841D405064090740C02480A0340
1001
ACAD
1000
AcDbSavedByObjectVersion
1070
     0
  0
ACAD_PROXY_OBJECT
  5
35
102
{ACAD_REACTORS
330
2A
102
}
330
2A
100
AcDbProxyObject
 90
      499
 91
      501
 93
      412
310
40D11A5B50B409028333333333333E33F0000000000000F9010790141107004050150841D405064090741402480A02677FFFFFD0
1001
ACAD
1000
AcDbSavedByObjectVersion
1070
     0
  0
ACAD_PROXY_OBJECT
  5
3D
102
{ACAD_REACTORS
330
2A
102
}
330
2A
100
AcDbProxyObject
 90
      499
 91
      501
 93
      452
310
43115919D950DBDB1BDC93D999916409028333333333333E33F0000000000000F9010790141107004050150841D405064090741402480A0350
1001
ACAD
1000
AcDbSavedByObjectVersion
1070
     0
  0
ACAD_PROXY_OBJECT
  5
39
102
{ACAD_REACTORS
330
2A
102
}
330
2A
100
AcDbProxyObject
 90
      499
 91
      501
 93
      444
310
42D19858D95C185D1D195C9B90F409028333333333333E33F0000000000000F9010790141107004050150841D405064090741402480A0350
1001
ACAD
1000
AcDbSavedByObjectVersion
1070
     0
  0
ACAD_PROXY_OBJECT
  5
2B
102
{ACAD_REACTORS
330
2A
102
}
330
2A
100
AcDbProxyObject
 90
      499
 91
      501
 93
      380
310
41119B185D240901404333333333333E33F0000000000000F9010740A907004050150841D405064090741402480A1B50
1001
ACAD
1000
AcDbSavedByObjectVersion
1070
     0
  0
ACAD_PROXY_OBJECT
  5
2C
102
{ACAD_REACTORS
330
2A
102
}
330
2A
100
AcDbProxyObject
 90
      499
 91
      501
 93
      468
310
43519B185D15DA5D1A115919D95CD0140901404333333333333E33F0000000000000F90107409019070040501600405405064090741402480A1B50
1001
ACAD
1000
AcDbSavedByObjectVersion
1070
     0
  0
ACAD_PROXY_OBJECT
  5
2D
102
{ACAD_REACTORS
330
2A
102
}
330
2A
100
AcDbProxyObject
 90
      499
 91
      501
 93
      404
310
41D1DBDD5C985D5910240902404333333333333E33F0000000000000F9010740A9070040501641D405064090741402480A1B50
1001
ACAD
1000
AcDbSavedByObjectVersion
1070
     0
  0
ACAD_PROXY_OBJECT
  5
2E
102
{ACAD_REACTORS
330
2A
102
}
330
2A
100
AcDbProxyObject
 90
      499
 91
      501
 93
      492
310
4411DBDD5C985D5915DA5D1A115919D95CD0340902404333333333333E33F0000000000000F90107409019070040501600405405064090741402480A1B50
1001
ACAD
1000
AcDbSavedByObjectVersion
1070
     0
  0
ACAD_PROXY_OBJECT
  5
31
102
{ACAD_REACTORS
330
2A
102
}
330
2A
100
AcDbProxyObject
 90
      499
 91
      501
 93
      476
310
41921A5919195B90640502408333333333333E33F0000000000000F901079024090700405020000000000001110200405405064090740C02480A0340
1001
ACAD
1000
AcDbSavedByObjectVersion
1070
     0
  0
ACAD_PROXY_OBJECT
  5
3B
102
{ACAD_REACTORS
330
2A
102
}
330
2A
100
AcDbProxyObject
 90
      499
 91
      501
 93
      428
310
42529A5D1D195C93D999914409028333333333333E33F0000000000000F9010790141107004050150A41D405064090741402480A0350
1001
ACAD
1000
AcDbSavedByObjectVersion
1070
     0
  0
ACAD_PROXY_OBJECT
  5
38
102
{ACAD_REACTORS
330
2A
102
}
330
2A
100
AcDbProxyObject
 90
      499
 91
      501
 93
      444
310
42D31A5B995C185D1D195C9B90E409028333333333333E33F0000000000000F9010790141107004050750841D405064090741402483A0350
1001
ACAD
1000
AcDbSavedByObjectVersion
1070
     0
  0
ACAD_PROXY_OBJECT
  5
3C
102
{ACAD_REACTORS
330
2A
102
}
330
2A
100
AcDbProxyObject
 90
      499
 91
      501
 93
      444
310
42D3DD995C9A185B99D3D999915409028333333333333E33F0000000000000F9010790141107004050150941D405064090741402480A0350
1001
ACAD
1000
AcDbSavedByObjectVersion
1070
     0
  0
ACAD_PROXY_OBJECT
  5
33
102
{ACAD_REACTORS
330
2A
102
}
330
2A
100
AcDbProxyObject
 90
      499
 91
      501
 93
      428
310
425499585B1A5CDD1A58D08409038333333333333E33F0000000000000F9010740A907004050150800405405064090740C02480A1B40
1001
ACAD
1000
AcDbSavedByObjectVersion
1070
     0
  0
ACAD_PROXY_OBJECT
  5
42
102
{ACAD_REACTORS
330
2A
102
}
330
2A
100
AcDbProxyObject
 90
      499
 91
      501
 93
      420
310
4194DA1859195911B40902404333333333333E33F0000000000000F9010740A41107004050150800405405064090840C02480A0B40
1001
ACAD
1000
AcDbSavedByObjectVersion
1070
     0
  0
ACAD_PROXY_OBJECT
  5
41
102
{ACAD_REACTORS
330
2A
102
}
330
2A
100
AcDbProxyObject
 90
      499
 91
      501
 93
      516
310
4454DA18591959081DDA5D1A08195919D95CD1A40902404333333333333E33F0000000000000F901074090142907004050250800405405064090740C02480A0B40
1001
ACAD
1000
AcDbSavedByObjectVersion
1070
     0
  0
ACAD_PROXY_OBJECT
  5
3E
102
{ACAD_REACTORS
330
2A
102
}
330
2A
100
AcDbProxyObject
 90
      499
 91
      501
 93
      532
310
4394DA1859195CC81BD98811DC985E5174090240C333333333333E33F0000000000000F901079024090741D01000000000000111010841D405064090740C02480A0340
1001
ACAD
1000
AcDbSavedByObjectVersion
1070
     0
  0
ACAD_PROXY_OBJECT
  5
3F
102
{ACAD_REACTORS
330
2A
102
}
330
2A
100
AcDbProxyObject
 90
      499
 91
      501
 93
      476
310
41D4DAD95D18DA1E51840502408333333333333E33F0000000000000F901079024090741D01000000000000111010B41D405064090741802480A0340
1001
ACAD
1000
AcDbSavedByObjectVersion
1070
     0
  0
ACAD_PROXY_OBJECT
  5
37
102
{ACAD_REACTORS
330
2A
102
}
330
2A
100
AcDbProxyObject
 90
      499
 91
      501
 93
      412
310
41D51A1A58DAD95B90D409028333333333333E33F0000000000000F9010790141107004050150C41D405064090741402480A0350
1001
ACAD
1000
AcDbSavedByObjectVersion
1070
     0
  0
ACAD_PROXY_OBJECT
  5
30
102
{ACAD_REACTORS
330
2A
102
}
330
2A
100
AcDbProxyObject
 90
      499
 91
      501
 93
      420
310
4255DA5C99599C985B595059028333333333333E33F0000000000000F90107901411070040501600405405064090740C02480A0340
1001
ACAD
1000
AcDbSavedByObjectVersion
1070
     0
  0
ACAD_PROXY_OBJECT
  5
40
102
{ACAD_REACTORS
330
2A
102
}
330
2A
100
AcDbProxyObject
 90
      499
 91
      501
 93
      404
310
41560B54985E51940902404000000000000E03F0000000000000F9010740501907004050150841D405064090740C02480A1B40
1001
ACAD
1000
AcDbSavedByObjectVersion
1070
     0
  0
XRECORD
  5
447
102
{ACAD_REACTORS
330
43D
102
}
330
43D
100
AcDbXrecord
340
0
  0
XRECORD
  5
446
102
{ACAD_REACTORS
330
43D
102
}
330
43D
100
AcDbXrecord
 90
        0
  0
XRECORD
  5
45D
102
{ACAD_REACTORS
330
43D
102
}
330
43D
100
AcDbXrecord
1000
DSTYLE
1002
{
1070
   171
 70
     2
1070
   143
 40
25.4
1070
   274
 70
     2
1070
    41
 40
0.18
1070
   141
 40
0.09
1070
   271
 70
     4
1070
    43
 40
0.38
1070
   278
 70
    46
1070
    44
 40
0.18
1070
    42
 40
0.0625
1070
   147
 40
0.09
1070
    77
 70
     0
1070
   272
 70
     4
1070
    73
 70
     1
1070
   279
 70
     2
1070
   172
 70
     0
1070
    74
 70
     1
1070
   283
 70
     1
1070
   340
340
11
1070
   140
 40
0.18
1070
   284
 70
     0
1070
    78
 70
     0
1002
}
  0
XRECORD
  5
448
102
{ACAD_REACTORS
330
43D
102
}
330
43D
100
AcDbXrecord
  1
{b65002ed-55c5-44cf-942c-f16e5ea8db49}
  0
XRECORD
  5
440
102
{ACAD_REACTORS
330
43D
102
}
330
43D
100
AcDbXrecord
  1

  0
XRECORD
  5
445
102
{ACAD_REACTORS
330
43D
102
}
330
43D
100
AcDbXrecord
 90
        4
  0
XRECORD
  5
442
102
{ACAD_REACTORS
330
43D
102
}
330
43D
100
AcDbXrecord
340
1A
  0
XRECORD
  5
444
102
{ACAD_REACTORS
330
43D
102
}
330
43D
100
AcDbXrecord
 90
    10781
  0
XRECORD
  5
443
102
{ACAD_REACTORS
330
43D
102
}
330
43D
100
AcDbXrecord
340
19
  0
XRECORD
  5
44A
102
{ACAD_REACTORS
330
43D
102
}
330
43D
100
AcDbXrecord
 40
0.0
  0
XRECORD
  5
44D
102
{ACAD_REACTORS
330
43D
102
}
330
43D
100
AcDbXrecord
340
0
  0
XRECORD
  5
453
102
{ACAD_REACTORS
330
43D
102
}
330
43D
100
AcDbXrecord
 10
0.0
 20
0.0
 30
0.0
  0
XRECORD
  5
44F
102
{ACAD_REACTORS
330
43D
102
}
330
43D
100
AcDbXrecord
 10
0.0
 20
0.0
 30
0.0
  0
XRECORD
  5
452
102
{ACAD_REACTORS
330
43D
102
}
330
43D
100
AcDbXrecord
 10
0.0
 20
0.0
 30
0.0
  0
XRECORD
  5
450
102
{ACAD_REACTORS
330
43D
102
}
330
43D
100
AcDbXrecord
 10
0.0
 20
0.0
 30
0.0
  0
XRECORD
  5
451
102
{ACAD_REACTORS
330
43D
102
}
330
43D
100
AcDbXrecord
 10
0.0
 20
0.0
 30
0.0
  0
XRECORD
  5
44E
102
{ACAD_REACTORS
330
43D
102
}
330
43D
100
AcDbXrecord
 10
0.0
 20
0.0
 30
0.0
  0
XRECORD
  5
44B
102
{ACAD_REACTORS
330
43D
102
}
330
43D
100
AcDbXrecord
340
0
  0
XRECORD
  5
44C
102
{ACAD_REACTORS
330
43D
102
}
330
43D
100
AcDbXrecord
 70
     0
  0
XRECORD
  5
441
102
{ACAD_REACTORS
330
43D
102
}
330
43D
100
AcDbXrecord
  1

  0
XRECORD
  5
43E
102
{ACAD_REACTORS
330
43D
102
}
330
43D
100
AcDbXrecord
 90
        1
  0
XRECORD
  5
43F
102
{ACAD_REACTORS
330
43D
102
}
330
43D
100
AcDbXrecord
 90
       70
  0
XRECORD
  5
456
102
{ACAD_REACTORS
330
43D
102
}
330
43D
100
AcDbXrecord
340
0
  0
XRECORD
  5
45C
102
{ACAD_REACTORS
330
43D
102
}
330
43D
100
AcDbXrecord
 10
0.0
 20
0.0
 30
0.0
  0
XRECORD
  5
458
102
{ACAD_REACTORS
330
43D
102
}
330
43D
100
AcDbXrecord
 10
0.0
 20
0.0
 30
0.0
  0
XRECORD
  5
45B
102
{ACAD_REACTORS
330
43D
102
}
330
43D
100
AcDbXrecord
 10
0.0
 20
0.0
 30
0.0
  0
XRECORD
  5
459
102
{ACAD_REACTORS
330
43D
102
}
330
43D
100
AcDbXrecord
 10
0.0
 20
0.0
 30
0.0
  0
XRECORD
  5
45A
102
{ACAD_REACTORS
330
43D
102
}
330
43D
100
AcDbXrecord
 10
0.0
 20
0.0
 30
0.0
  0
XRECORD
  5
457
102
{ACAD_REACTORS
330
43D
102
}
330
43D
100
AcDbXrecord
 10
0.0
 20
0.0
 30
0.0
  0
XRECORD
  5
454
102
{ACAD_REACTORS
330
43D
102
}
330
43D
100
AcDbXrecord
340
0
  0
XRECORD
  5
455
102
{ACAD_REACTORS
330
43D
102
}
330
43D
100
AcDbXrecord
 70
     0
  0
XRECORD
  5
449
102
{ACAD_REACTORS
330
43D
102
}
330
43D
100
AcDbXrecord
  1
{FAEB1C32-E019-11D5-929B-00C0DF256EC4}
  0
DICTIONARYVAR
  5
468
102
{ACAD_REACTORS
330
45E
102
}
330
45E
100
DictionaryVariables
280
     0
  1
1:1
  0
DICTIONARYVAR
  5
460
102
{ACAD_REACTORS
330
45E
102
}
330
45E
100
DictionaryVariables
280
     0
  1
Standard
  0
DICTIONARYVAR
  5
45F
102
{ACAD_REACTORS
330
45E
102
}
330
45E
100
DictionaryVariables
280
     0
  1
Standard
  0
DICTIONARYVAR
  5
463
102
{ACAD_REACTORS
330
45E
102
}
330
45E
100
DictionaryVariables
280
     0
  1
2
  0
DICTIONARYVAR
  5
464
102
{ACAD_REACTORS
330
45E
102
}
330
45E
100
DictionaryVariables
280
     0
  1
1
  0
DICTIONARYVAR
  5
469
102
{ACAD_REACTORS
330
45E
102
}
330
45E
100
DictionaryVariables
280
     0
  1
1
  0
DICTIONARY
  5
46C
330
45
100
AcDbDictionary
280
     1
  3
ACAD_XREC_ROUNDTRIP
360
46D
  0
DICTIONARY
  5
46A
330
44
100
AcDbDictionary
280
     1
  3
ACAD_XREC_ROUNDTRIP
360
46B
  0
DICTIONARY
  5
46E
330
46
100
AcDbDictionary
280
     1
  3
ACAD_XREC_ROUNDTRIP
360
46F
  0
XRECORD
  5
46D
102
{ACAD_REACTORS
330
46C
102
}
330
46C
100
AcDbXrecord
102
MATERIAL
148
0.0
149
0.0
149
0.0
 93
        0
 94
      127
282
     0
 72
     1
 77
     1
171
     1
175
     1
179
     1
273
     0
  0
XRECORD
  5
46B
102
{ACAD_REACTORS
330
46A
102
}
330
46A
100
AcDbXrecord
102
MATERIAL
148
0.0
149
0.0
149
0.0
 93
        0
 94
      127
282
     0
 72
     1
 77
     1
171
     1
175
     1
179
     1
273
     0
  0
XRECORD
  5
46F
102
{ACAD_REACTORS
330
46E
102
}
330
46E
100
AcDbXrecord
102
MATERIAL
148
0.0
149
0.0
149
0.0
 93
        0
 94
      127
282
     0
 72
     1
 77
     1
171
     1
175
     1
179
     1
273
     0
  0
ENDSEC
  0
EOF
