  0
SECTION
  2
HEADER
  9
$ACADVER
  1
AC1014
  9
$ACADMAINTVER
 70
     9
  9
$DWGCODEPAGE
  3
ANSI_1252
  9
$INSBASE
 10
0.0
 20
0.0
 30
0.0
  9
$EXTMIN
 10
-1199.750000183832
 20
-184.3945661817779
 30
-0.0000000000515179
  9
$EXTMAX
 10
1199.750000184301
 20
195.1054338201793
 30
0.0000000000307274
  9
$LIMMIN
 10
0.0
 20
0.0
  9
$LIMMAX
 10
12.0
 20
9.0
  9
$ORTHOMODE
 70
     0
  9
$REGENMODE
 70
     1
  9
$FILLMODE
 70
     1
  9
$QTEXTMODE
 70
     0
  9
$MIRRTEXT
 70
     1
  9
$DRAGMODE
 70
     2
  9
$LTSCALE
 40
1.0
  9
$OSMODE
 70
    37
  9
$ATTMODE
 70
     1
  9
$TEXTSIZE
 40
0.2
  9
$TRACEWID
 40
0.05
  9
$TEXTSTYLE
  7
STANDARD
  9
$CLAYER
  8
0
  9
$CELTYPE
  6
BYLAYER
  9
$CECOLOR
 62
   256
  9
$CELTSCALE
 40
1.0
  9
$DELOBJ
 70
     1
  9
$DISPSILH
 70
     0
  9
$DIMSCALE
 40
1.0
  9
$DIMASZ
 40
0.18
  9
$DIMEXO
 40
0.0625
  9
$DIMDLI
 40
0.38
  9
$DIMRND
 40
0.0
  9
$DIMDLE
 40
0.0
  9
$DIMEXE
 40
0.18
  9
$DIMTP
 40
0.0
  9
$DIMTM
 40
0.0
  9
$DIMTXT
 40
0.18
  9
$DIMCEN
 40
0.09
  9
$DIMTSZ
 40
0.0
  9
$DIMTOL
 70
     0
  9
$DIMLIM
 70
     0
  9
$DIMTIH
 70
     1
  9
$DIMTOH
 70
     1
  9
$DIMSE1
 70
     0
  9
$DIMSE2
 70
     0
  9
$DIMTAD
 70
     0
  9
$DIMZIN
 70
     0
  9
$DIMBLK
  1

  9
$DIMASO
 70
     1
  9
$DIMSHO
 70
     1
  9
$DIMPOST
  1

  9
$DIMAPOST
  1

  9
$DIMALT
 70
     0
  9
$DIMALTD
 70
     2
  9
$DIMALTF
 40
25.4
  9
$DIMLFAC
 40
1.0
  9
$DIMTOFL
 70
     0
  9
$DIMTVP
 40
0.0
  9
$DIMTIX
 70
     0
  9
$DIMSOXD
 70
     0
  9
$DIMSAH
 70
     0
  9
$DIMBLK1
  1

  9
$DIMBLK2
  1

  9
$DIMSTYLE
  2
STANDARD_ACAD
  9
$DIMCLRD
 70
     0
  9
$DIMCLRE
 70
     0
  9
$DIMCLRT
 70
     0
  9
$DIMTFAC
 40
1.0
  9
$DIMGAP
 40
0.09
  9
$DIMJUST
 70
     0
  9
$DIMSD1
 70
     0
  9
$DIMSD2
 70
     0
  9
$DIMTOLJ
 70
     1
  9
$DIMTZIN
 70
     0
  9
$DIMALTZ
 70
     0
  9
$DIMALTTZ
 70
     0
  9
$DIMFIT
 70
     5
  9
$DIMUPT
 70
     0
  9
$DIMUNIT
 70
     2
  9
$DIMDEC
 70
     4
  9
$DIMTDEC
 70
     4
  9
$DIMALTU
 70
     2
  9
$DIMALTTD
 70
     2
  9
$DIMTXSTY
  7
STANDARD
  9
$DIMAUNIT
 70
     0
  9
$LUNITS
 70
     2
  9
$LUPREC
 70
     2
  9
$SKETCHINC
 40
0.1
  9
$FILLETRAD
 40
0.0
  9
$AUNITS
 70
     0
  9
$AUPREC
 70
     0
  9
$MENU
  1
.
  9
$ELEVATION
 40
0.0
  9
$PELEVATION
 40
0.0
  9
$THICKNESS
 40
0.0
  9
$LIMCHECK
 70
     0
  9
$CHAMFERA
 40
0.0
  9
$CHAMFERB
 40
0.0
  9
$CHAMFERC
 40
0.0
  9
$CHAMFERD
 40
0.0
  9
$SKPOLY
 70
     0
  9
$TDCREATE
 40
2461249.437220637
  9
$TDUPDATE
 40
2461249.437220706
  9
$TDINDWG
 40
0.0000000116
  9
$TDUSRTIMER
 40
0.0000000116
  9
$USRTIMER
 70
     1
  9
$ANGBASE
 50
0.0
  9
$ANGDIR
 70
     0
  9
$PDMODE
 70
     0
  9
$PDSIZE
 40
0.0
  9
$PLINEWID
 40
0.0
  9
$COORDS
 70
     1
  9
$SPLFRAME
 70
     0
  9
$SPLINETYPE
 70
     6
  9
$SPLINESEGS
 70
     8
  9
$ATTDIA
 70
     0
  9
$ATTREQ
 70
     1
  9
$HANDLING
 70
     1
  9
$HANDSEED
  5
23D
  9
$SURFTAB1
 70
     6
  9
$SURFTAB2
 70
     6
  9
$SURFTYPE
 70
     6
  9
$SURFU
 70
     6
  9
$SURFV
 70
     6
  9
$UCSNAME
  2

  9
$UCSORG
 10
0.0
 20
0.0
 30
0.0
  9
$UCSXDIR
 10
1.0
 20
0.0
 30
0.0
  9
$UCSYDIR
 10
0.0
 20
1.0
 30
0.0
  9
$PUCSNAME
  2

  9
$PUCSORG
 10
0.0
 20
0.0
 30
0.0
  9
$PUCSXDIR
 10
1.0
 20
0.0
 30
0.0
  9
$PUCSYDIR
 10
0.0
 20
1.0
 30
0.0
  9
$USERI1
 70
     0
  9
$USERI2
 70
     0
  9
$USERI3
 70
     0
  9
$USERI4
 70
     0
  9
$USERI5
 70
     0
  9
$USERR1
 40
0.0
  9
$USERR2
 40
0.0
  9
$USERR3
 40
0.0
  9
$USERR4
 40
0.0
  9
$USERR5
 40
0.0
  9
$WORLDVIEW
 70
     1
  9
$SHADEDGE
 70
     3
  9
$SHADEDIF
 70
    70
  9
$TILEMODE
 70
     1
  9
$MAXACTVP
 70
    64
  9
$PINSBASE
 10
0.0
 20
0.0
 30
0.0
  9
$PLIMCHECK
 70
     0
  9
$PEXTMIN
 10
1.000000000000000E+20
 20
1.000000000000000E+20
 30
1.000000000000000E+20
  9
$PEXTMAX
 10
-1.000000000000000E+20
 20
-1.000000000000000E+20
 30
-1.000000000000000E+20
  9
$PLIMMIN
 10
0.0
 20
0.0
  9
$PLIMMAX
 10
12.0
 20
9.0
  9
$UNITMODE
 70
     0
  9
$VISRETAIN
 70
     1
  9
$PLINEGEN
 70
     0
  9
$PSLTSCALE
 70
     1
  9
$TREEDEPTH
 70
  3020
  9
$PICKSTYLE
 70
     1
  9
$CMLSTYLE
  2
STANDARD
  9
$CMLJUST
 70
     0
  9
$CMLSCALE
 40
1.0
  9
$PROXYGRAPHICS
 70
     1
  9
$MEASUREMENT
 70
     1
  0
ENDSEC
  0
SECTION
  2
CLASSES
  0
CLASS
  1
ACDBDICTIONARYWDFLT
  2
AcDbDictionaryWithDefault
  3
ObjectDBX Classes
 90
        0
280
     0
281
     0
  0
CLASS
  1
VISUALSTYLE
  2
AcDbVisualStyle
  3
ObjectDBX Classes
 90
     4095
280
     0
281
     0
  0
CLASS
  1
MATERIAL
  2
AcDbMaterial
  3
ObjectDBX Classes
 90
     1153
280
     0
281
     0
  0
CLASS
  1
SCALE
  2
AcDbScale
  3
ObjectDBX Classes
 90
     1153
280
     0
281
     0
  0
CLASS
  1
TABLESTYLE
  2
AcDbTableStyle
  3
ObjectDBX Classes
 90
     4095
280
     0
281
     0
  0
CLASS
  1
MLEADERSTYLE
  2
AcDbMLeaderStyle
  3
ACDB_MLEADERSTYLE_CLASS
 90
     4095
280
     0
281
     0
  0
CLASS
  1
SUN
  2
AcDbSun
  3
SCENEOE
 90
     1153
280
     0
281
     0
  0
CLASS
  1
DICTIONARYVAR
  2
AcDbDictionaryVar
  3
ObjectDBX Classes
 90
        0
280
     0
281
     0
  0
CLASS
  1
XRECORD
  2
AcDbXrecord
  3
ObjectDBX Classes
 90
        0
280
     0
281
     0
  0
CLASS
  1
LWPOLYLINE
  2
AcDbPolyline
  3
ObjectDBX Classes
 90
        0
280
     0
281
     1
  0
CLASS
  1
HATCH
  2
AcDbHatch
  3
ObjectDBX Classes
 90
        0
280
     0
281
     1
  0
CLASS
  1
ACDBPLACEHOLDER
  2
AcDbPlaceHolder
  3
ObjectDBX Classes
 90
        0
280
     0
281
     0
  0
CLASS
  1
LAYOUT
  2
AcDbLayout
  3
ObjectDBX Classes
 90
        0
280
     0
281
     0
  0
ENDSEC
  0
SECTION
  2
TABLES
  0
TABLE
  2
VPORT
  5
8
102
{ACAD_XDICTIONARY
360
232
102
}
330
0
100
AcDbSymbolTable
 70
     1
  0
VPORT
  5
29
330
8
100
AcDbSymbolTableRecord
100
AcDbViewportTableRecord
  2
*ACTIVE
 70
     0
 10
0.0
 20
0.0
 11
1.0
 21
1.0
 12
10.42990654205607
 22
4.5
 13
0.0
 23
0.0
 14
0.5
 24
0.5
 15
0.5
 25
0.5
 16
0.0
 26
0.0
 36
1.0
 17
0.0
 27
0.0
 37
0.0
 40
9.0
 41
1.972972972850329
 42
50.0
 43
0.0
 44
0.0
 50
0.0
 51
0.0
 71
     0
 72
   100
 73
     1
 74
     3
 75
     0
 76
     0
 77
     0
 78
     0
  0
ENDTAB
  0
TABLE
  2
LTYPE
  5
5
330
0
100
AcDbSymbolTable
 70
     1
  0
LTYPE
  5
14
330
5
100
AcDbSymbolTableRecord
100
AcDbLinetypeTableRecord
  2
BYBLOCK
 70
     0
  3

 72
    65
 73
     0
 40
0.0
  0
LTYPE
  5
15
330
5
100
AcDbSymbolTableRecord
100
AcDbLinetypeTableRecord
  2
BYLAYER
 70
     0
  3

 72
    65
 73
     0
 40
0.0
  0
LTYPE
  5
16
330
5
100
AcDbSymbolTableRecord
100
AcDbLinetypeTableRecord
  2
CONTINUOUS
 70
     0
  3
Solid line
 72
    65
 73
     0
 40
0.0
  0
ENDTAB
  0
TABLE
  2
LAYER
  5
2
330
0
100
AcDbSymbolTable
 70
     4
  0
LAYER
  5
10
330
2
100
AcDbSymbolTableRecord
100
AcDbLayerTableRecord
  2
0
 70
     0
 62
     7
  6
CONTINUOUS
  0
LAYER
  5
5F
330
2
100
AcDbSymbolTableRecord
100
AcDbLayerTableRecord
  2
1_ANYTOOL_1MMDEEP_LABELS_S
 70
     0
 62
     2
  6
CONTINUOUS
  0
LAYER
  5
6F
330
2
100
AcDbSymbolTableRecord
100
AcDbLayerTableRecord
  2
3_ANYTOOL_CUTTHROUGH_INSID
 70
     0
 62
     4
  6
CONTINUOUS
  0
LAYER
  5
17A
330
2
100
AcDbSymbolTableRecord
100
AcDbLayerTableRecord
  2
4_ANYTOOL_CUTTHROUGH_OUTSI
 70
     0
 62
     5
  6
CONTINUOUS
  0
ENDTAB
  0
TABLE
  2
STYLE
  5
3
330
0
100
AcDbSymbolTable
 70
     1
  0
STYLE
  5
11
330
3
100
AcDbSymbolTableRecord
100
AcDbTextStyleTableRecord
  2
STANDARD
 70
     0
 40
0.0
 41
1.0
 50
0.0
 71
     0
 42
0.2
  3
txt
  4

  0
ENDTAB
  0
TABLE
  2
VIEW
  5
6
330
0
100
AcDbSymbolTable
 70
     0
  0
ENDTAB
  0
TABLE
  2
UCS
  5
7
330
0
100
AcDbSymbolTable
 70
     0
  0
ENDTAB
  0
TABLE
  2
APPID
  5
9
330
0
100
AcDbSymbolTable
 70
     3
  0
APPID
  5
12
330
9
100
AcDbSymbolTableRecord
100
AcDbRegAppTableRecord
  2
ACAD
 70
     0
  0
APPID
  5
5E
330
9
100
AcDbSymbolTableRecord
100
AcDbRegAppTableRecord
  2
RHINO
 70
     0
  0
APPID
  5
23C
330
9
100
AcDbSymbolTableRecord
100
AcDbRegAppTableRecord
  2
ACAD_MLEADERVER
 70
     0
  0
ENDTAB
  0
TABLE
  2
DIMSTYLE
  5
A
330
0
100
AcDbSymbolTable
 70
     1
  0
DIMSTYLE
105
27
330
A
100
AcDbSymbolTableRecord
100
AcDbDimStyleTableRecord
  2
STANDARD_ACAD
 70
     0
  3

  4

  5

  6

  7

 40
1.0
 41
0.18
 42
0.0625
 43
0.38
 44
0.18
 45
0.0
 46
0.0
 47
0.0
 48
0.0
140
0.18
141
0.09
142
0.0
143
25.4
144
1.0
145
0.0
146
1.0
147
0.09
 71
     0
 72
     0
 73
     1
 74
     1
 75
     0
 76
     0
 77
     0
 78
     0
170
     0
171
     2
172
     0
173
     0
174
     0
175
     0
176
     0
177
     0
178
     0
270
     2
271
     4
272
     4
273
     2
274
     2
340
11
275
     0
280
     0
281
     0
282
     0
283
     1
284
     0
285
     0
286
     0
287
     3
288
     0
  0
ENDTAB
  0
TABLE
  2
BLOCK_RECORD
  5
1
330
0
100
AcDbSymbolTable
 70
     0
  0
BLOCK_RECORD
  5
1F
330
1
100
AcDbSymbolTableRecord
100
AcDbBlockTableRecord
  2
*MODEL_SPACE
  0
BLOCK_RECORD
  5
1B
330
1
100
AcDbSymbolTableRecord
100
AcDbBlockTableRecord
  2
*PAPER_SPACE
  0
ENDTAB
  0
ENDSEC
  0
SECTION
  2
BLOCKS
  0
BLOCK
  5
20
330
1F
100
AcDbEntity
  8
0
100
AcDbBlockBegin
  2
*MODEL_SPACE
 70
     0
 10
0.0
 20
0.0
 30
0.0
  3
*MODEL_SPACE
  1

  0
ENDBLK
  5
21
330
1F
100
AcDbEntity
  8
0
100
AcDbBlockEnd
  0
BLOCK
  5
1C
330
1B
100
AcDbEntity
 67
     1
  8
0
100
AcDbBlockBegin
  2
*PAPER_SPACE
 70
     0
 10
0.0
 20
0.0
 30
0.0
  3
*PAPER_SPACE
  1

  0
ENDBLK
  5
1D
330
1B
100
AcDbEntity
 67
     1
  8
0
100
AcDbBlockEnd
  0
ENDSEC
  0
SECTION
  2
ENTITIES
  0
POLYLINE
  5
60
330
1F
100
AcDbEntity
  8
1_ANYTOOL_1MMDEEP_LABELS_S
100
AcDb2dPolyline
 66
     1
 10
0.0
 20
0.0
 30
0.0
  0
VERTEX
  5
61
330
60
100
AcDbEntity
  8
1_ANYTOOL_1MMDEEP_LABELS_S
100
AcDbVertex
100
AcDb2dVertex
 10
21.94285714285706
 20
-30.0
 30
0.0
  0
VERTEX
  5
62
330
60
100
AcDbEntity
  8
1_ANYTOOL_1MMDEEP_LABELS_S
100
AcDbVertex
100
AcDb2dVertex
 10
3.0
 20
-30.0
 30
0.0
  0
VERTEX
  5
63
330
60
100
AcDbEntity
  8
1_ANYTOOL_1MMDEEP_LABELS_S
100
AcDbVertex
100
AcDb2dVertex
 10
3.0
 20
0.0
 30
0.0
  0
VERTEX
  5
64
330
60
100
AcDbEntity
  8
1_ANYTOOL_1MMDEEP_LABELS_S
100
AcDbVertex
100
AcDb2dVertex
 10
20.82857142857119
 20
0.0
 30
0.0
  0
SEQEND
  5
65
330
60
100
AcDbEntity
  8
1_ANYTOOL_1MMDEEP_LABELS_S
  0
LINE
  5
66
330
1F
100
AcDbEntity
  8
1_ANYTOOL_1MMDEEP_LABELS_S
100
AcDbLine
 10
17.6571428571433
 20
-13.92857142857247
 30
0.0
 11
3.0
 21
-13.92857142857247
 31
0.0
  0
LINE
  5
67
330
1F
100
AcDbEntity
  8
1_ANYTOOL_1MMDEEP_LABELS_S
100
AcDbLine
 10
34.1571428571433
 20
-16.11428571428405
 30
0.0
 11
25.37142857142862
 21
-16.19999999999709
 31
0.0
  0
POLYLINE
  5
68
330
1F
100
AcDbEntity
  8
1_ANYTOOL_1MMDEEP_LABELS_S
100
AcDb2dPolyline
 66
     1
 10
0.0
 20
0.0
 30
0.0
  0
VERTEX
  5
69
330
68
100
AcDbEntity
  8
1_ANYTOOL_1MMDEEP_LABELS_S
100
AcDbVertex
100
AcDb2dVertex
 10
39.30000000000018
 20
0.0
 30
0.0
  0
VERTEX
  5
6A
330
68
100
AcDbEntity
  8
1_ANYTOOL_1MMDEEP_LABELS_S
100
AcDbVertex
100
AcDb2dVertex
 10
39.30000000000018
 20
-30.0
 30
0.0
  0
VERTEX
  5
6B
330
68
100
AcDbEntity
  8
1_ANYTOOL_1MMDEEP_LABELS_S
100
AcDbVertex
100
AcDb2dVertex
 10
56.39999999999964
 20
-30.0
 30
0.0
  0
SEQEND
  5
6C
330
68
100
AcDbEntity
  8
1_ANYTOOL_1MMDEEP_LABELS_S
  0
LINE
  5
6D
330
1F
100
AcDbEntity
  8
1_ANYTOOL_1MMDEEP_LABELS_S
100
AcDbLine
 10
76.54285714285743
 20
-0.4714285714289872
 30
0.0
 11
59.35714285714312
 21
-31.24285714285361
 31
0.0
  0
LINE
  5
6E
330
1F
100
AcDbEntity
  8
1_ANYTOOL_1MMDEEP_LABELS_S
100
AcDbLine
 10
80.05714285714294
 20
0.0
 30
0.0
 11
80.05714285714294
 21
-30.0
 31
0.0
  0
POLYLINE
  5
70
330
1F
100
AcDbEntity
  8
3_ANYTOOL_CUTTHROUGH_INSID
100
AcDb2dPolyline
 66
     1
 10
0.0
 20
0.0
 30
0.0000000000014495
 70
     1
  0
VERTEX
  5
71
330
70
100
AcDbEntity
  8
3_ANYTOOL_CUTTHROUGH_INSID
100
AcDbVertex
100
AcDb2dVertex
 10
-1075.250000183874
 20
-96.3945661795151
 30
0.0000000000014495
  0
VERTEX
  5
72
330
70
100
AcDbEntity
  8
3_ANYTOOL_CUTTHROUGH_INSID
100
AcDbVertex
100
AcDb2dVertex
 10
-1075.250000183859
 20
-90.3945661795151
 30
0.0000000000014495
  0
VERTEX
  5
73
330
70
100
AcDbEntity
  8
3_ANYTOOL_CUTTHROUGH_INSID
100
AcDbVertex
100
AcDb2dVertex
 10
-1087.75000018386
 20
-90.39456617950782
 30
0.0000000000014495
  0
VERTEX
  5
74
330
70
100
AcDbEntity
  8
3_ANYTOOL_CUTTHROUGH_INSID
100
AcDbVertex
100
AcDb2dVertex
 10
-1087.750000183861
 20
-120.8945661794642
 30
0.0000000000014495
  0
VERTEX
  5
75
330
70
100
AcDbEntity
  8
3_ANYTOOL_CUTTHROUGH_INSID
100
AcDbVertex
100
AcDb2dVertex
 10
-1075.25000018386
 20
-120.8945661794787
 30
0.0000000000014495
  0
VERTEX
  5
76
330
70
100
AcDbEntity
  8
3_ANYTOOL_CUTTHROUGH_INSID
100
AcDbVertex
100
AcDb2dVertex
 10
-1075.25000018386
 20
-114.894566179486
 30
0.0000000000014495
  0
VERTEX
  5
77
330
70
100
AcDbEntity
  8
3_ANYTOOL_CUTTHROUGH_INSID
100
AcDbVertex
100
AcDb2dVertex
 10
-1024.750000113678
 20
-114.8945661790567
 30
0.0000000000014495
  0
VERTEX
  5
78
330
70
100
AcDbEntity
  8
3_ANYTOOL_CUTTHROUGH_INSID
100
AcDbVertex
100
AcDb2dVertex
 10
-1024.750000113676
 20
-120.8945661790567
 30
0.0000000000014495
  0
VERTEX
  5
79
330
70
100
AcDbEntity
  8
3_ANYTOOL_CUTTHROUGH_INSID
100
AcDbVertex
100
AcDb2dVertex
 10
-1012.250000113678
 20
-120.8945661790713
 30
0.0000000000014495
  0
VERTEX
  5
7A
330
70
100
AcDbEntity
  8
3_ANYTOOL_CUTTHROUGH_INSID
100
AcDbVertex
100
AcDb2dVertex
 10
-1012.25000011371
 20
-90.39456617911492
 30
0.0000000000014495
  0
VERTEX
  5
7B
330
70
100
AcDbEntity
  8
3_ANYTOOL_CUTTHROUGH_INSID
100
AcDbVertex
100
AcDb2dVertex
 10
-1024.750000113707
 20
-90.39456617909309
 30
0.0000000000014495
  0
VERTEX
  5
7C
330
70
100
AcDbEntity
  8
3_ANYTOOL_CUTTHROUGH_INSID
100
AcDbVertex
100
AcDb2dVertex
 10
-1024.750000113707
 20
-96.39456617909309
 30
0.0000000000014495
  0
SEQEND
  5
7D
330
70
100
AcDbEntity
  8
3_ANYTOOL_CUTTHROUGH_INSID
  0
POLYLINE
  5
7E
330
1F
100
AcDbEntity
  8
3_ANYTOOL_CUTTHROUGH_INSID
100
AcDb2dPolyline
 66
     1
 10
0.0
 20
0.0
 30
-0.0000000000501572
 70
     1
  0
VERTEX
  5
7F
330
7E
100
AcDbEntity
  8
3_ANYTOOL_CUTTHROUGH_INSID
100
AcDbVertex
100
AcDb2dVertex
 10
-775.2500001137105
 20
-114.8945661787802
 30
-0.0000000000501572
  0
VERTEX
  5
80
330
7E
100
AcDbEntity
  8
3_ANYTOOL_CUTTHROUGH_INSID
100
AcDbVertex
100
AcDb2dVertex
 10
-775.2500001137105
 20
-120.8945661787802
 30
-0.0000000000501572
  0
VERTEX
  5
81
330
7E
100
AcDbEntity
  8
3_ANYTOOL_CUTTHROUGH_INSID
100
AcDbVertex
100
AcDb2dVertex
 10
-787.7500001137105
 20
-120.8945661787657
 30
-0.0000000000501572
  0
VERTEX
  5
82
330
7E
100
AcDbEntity
  8
3_ANYTOOL_CUTTHROUGH_INSID
100
AcDbVertex
100
AcDb2dVertex
 10
-787.7500001137114
 20
-90.39456617880933
 30
-0.0000000000501572
  0
VERTEX
  5
83
330
7E
100
AcDbEntity
  8
3_ANYTOOL_CUTTHROUGH_INSID
100
AcDbVertex
100
AcDb2dVertex
 10
-775.2500001137114
 20
-90.3945661788166
 30
-0.0000000000501572
  0
VERTEX
  5
84
330
7E
100
AcDbEntity
  8
3_ANYTOOL_CUTTHROUGH_INSID
100
AcDbVertex
100
AcDb2dVertex
 10
-775.2500001137405
 20
-96.3945661788166
 30
-0.0000000000501572
  0
VERTEX
  5
85
330
7E
100
AcDbEntity
  8
3_ANYTOOL_CUTTHROUGH_INSID
100
AcDbVertex
100
AcDb2dVertex
 10
-724.7500001137732
 20
-96.3945661784528
 30
-0.0000000000501572
  0
VERTEX
  5
86
330
7E
100
AcDbEntity
  8
3_ANYTOOL_CUTTHROUGH_INSID
100
AcDbVertex
100
AcDb2dVertex
 10
-724.7500001137441
 20
-90.3945661784528
 30
-0.0000000000501572
  0
VERTEX
  5
87
330
7E
100
AcDbEntity
  8
3_ANYTOOL_CUTTHROUGH_INSID
100
AcDbVertex
100
AcDb2dVertex
 10
-712.250000113745
 20
-90.39456617846736
 30
-0.0000000000501572
  0
VERTEX
  5
88
330
7E
100
AcDbEntity
  8
3_ANYTOOL_CUTTHROUGH_INSID
100
AcDbVertex
100
AcDb2dVertex
 10
-712.2500001137441
 20
-120.8945661784237
 30
-0.0000000000501572
  0
VERTEX
  5
89
330
7E
100
AcDbEntity
  8
3_ANYTOOL_CUTTHROUGH_INSID
100
AcDbVertex
100
AcDb2dVertex
 10
-724.7500001137441
 20
-120.8945661784091
 30
-0.0000000000501572
  0
VERTEX
  5
8A
330
7E
100
AcDbEntity
  8
3_ANYTOOL_CUTTHROUGH_INSID
100
AcDbVertex
100
AcDb2dVertex
 10
-724.750000113715
 20
-114.8945661784091
 30
-0.0000000000501572
  0
SEQEND
  5
8B
330
7E
100
AcDbEntity
  8
3_ANYTOOL_CUTTHROUGH_INSID
  0
POLYLINE
  5
8C
330
1F
100
AcDbEntity
  8
3_ANYTOOL_CUTTHROUGH_INSID
100
AcDb2dPolyline
 66
     1
 10
0.0
 20
0.0
 30
-0.0000000000515179
 70
     1
  0
VERTEX
  5
8D
330
8C
100
AcDbEntity
  8
3_ANYTOOL_CUTTHROUGH_INSID
100
AcDbVertex
100
AcDb2dVertex
 10
-874.7500001137105
 20
-96.39456617891847
 30
-0.0000000000515179
  0
VERTEX
  5
8E
330
8C
100
AcDbEntity
  8
3_ANYTOOL_CUTTHROUGH_INSID
100
AcDbVertex
100
AcDb2dVertex
 10
-874.7500001137105
 20
-90.39456617891847
 30
-0.0000000000515179
  0
VERTEX
  5
8F
330
8C
100
AcDbEntity
  8
3_ANYTOOL_CUTTHROUGH_INSID
100
AcDbVertex
100
AcDb2dVertex
 10
-862.2500001137114
 20
-90.3945661789403
 30
-0.0000000000515179
  0
VERTEX
  5
90
330
8C
100
AcDbEntity
  8
3_ANYTOOL_CUTTHROUGH_INSID
100
AcDbVertex
100
AcDb2dVertex
 10
-862.2500001136796
 20
-120.8945661788966
 30
-0.0000000000515179
  0
VERTEX
  5
91
330
8C
100
AcDbEntity
  8
3_ANYTOOL_CUTTHROUGH_INSID
100
AcDbVertex
100
AcDb2dVertex
 10
-874.7500001136796
 20
-120.8945661788821
 30
-0.0000000000515179
  0
VERTEX
  5
92
330
8C
100
AcDbEntity
  8
3_ANYTOOL_CUTTHROUGH_INSID
100
AcDbVertex
100
AcDb2dVertex
 10
-874.7500001136796
 20
-114.8945661788821
 30
-0.0000000000515179
  0
VERTEX
  5
93
330
8C
100
AcDbEntity
  8
3_ANYTOOL_CUTTHROUGH_INSID
100
AcDbVertex
100
AcDb2dVertex
 10
-925.2500001137087
 20
-114.894566178933
 30
-0.0000000000515179
  0
VERTEX
  5
94
330
8C
100
AcDbEntity
  8
3_ANYTOOL_CUTTHROUGH_INSID
100
AcDbVertex
100
AcDb2dVertex
 10
-925.2500001137068
 20
-120.894566178933
 30
-0.0000000000515179
  0
VERTEX
  5
95
330
8C
100
AcDbEntity
  8
3_ANYTOOL_CUTTHROUGH_INSID
100
AcDbVertex
100
AcDb2dVertex
 10
-937.7500001137068
 20
-120.8945661789185
 30
-0.0000000000515179
  0
VERTEX
  5
96
330
8C
100
AcDbEntity
  8
3_ANYTOOL_CUTTHROUGH_INSID
100
AcDbVertex
100
AcDb2dVertex
 10
-937.7500001137078
 20
-90.39456617896212
 30
-0.0000000000515179
  0
VERTEX
  5
97
330
8C
100
AcDbEntity
  8
3_ANYTOOL_CUTTHROUGH_INSID
100
AcDbVertex
100
AcDb2dVertex
 10
-925.2500001137078
 20
-90.3945661789694
 30
-0.0000000000515179
  0
VERTEX
  5
98
330
8C
100
AcDbEntity
  8
3_ANYTOOL_CUTTHROUGH_INSID
100
AcDbVertex
100
AcDb2dVertex
 10
-925.2500001137369
 20
-96.3945661789694
 30
-0.0000000000515179
  0
SEQEND
  5
99
330
8C
100
AcDbEntity
  8
3_ANYTOOL_CUTTHROUGH_INSID
  0
POLYLINE
  5
9A
330
1F
100
AcDbEntity
  8
3_ANYTOOL_CUTTHROUGH_INSID
100
AcDb2dPolyline
 66
     1
 10
0.0
 20
0.0
 30
-0.0000000000514042
 70
     1
  0
VERTEX
  5
9B
330
9A
100
AcDbEntity
  8
3_ANYTOOL_CUTTHROUGH_INSID
100
AcDbVertex
100
AcDb2dVertex
 10
-924.2500001189565
 20
57.10543381964817
 30
-0.0000000000514042
  0
VERTEX
  5
9C
330
9A
100
AcDbEntity
  8
3_ANYTOOL_CUTTHROUGH_INSID
100
AcDbVertex
100
AcDb2dVertex
 10
-924.2500001189583
 20
69.60543381964817
 30
-0.0000000000514042
  0
VERTEX
  5
9D
330
9A
100
AcDbEntity
  8
3_ANYTOOL_CUTTHROUGH_INSID
100
AcDbVertex
100
AcDb2dVertex
 10
-918.2500001189583
 20
69.60543381963362
 30
-0.0000000000514042
  0
VERTEX
  5
9E
330
9A
100
AcDbEntity
  8
3_ANYTOOL_CUTTHROUGH_INSID
100
AcDbVertex
100
AcDb2dVertex
 10
-918.2500001190037
 20
115.1054338196627
 30
-0.0000000000514042
  0
VERTEX
  5
9F
330
9A
100
AcDbEntity
  8
3_ANYTOOL_CUTTHROUGH_INSID
100
AcDbVertex
100
AcDb2dVertex
 10
-924.2500001190037
 20
115.1054338196773
 30
-0.0000000000514042
  0
VERTEX
  5
A0
330
9A
100
AcDbEntity
  8
3_ANYTOOL_CUTTHROUGH_INSID
100
AcDbVertex
100
AcDb2dVertex
 10
-924.2500001189883
 20
127.6054338196773
 30
-0.0000000000514042
  0
VERTEX
  5
A1
330
9A
100
AcDbEntity
  8
3_ANYTOOL_CUTTHROUGH_INSID
100
AcDbVertex
100
AcDb2dVertex
 10
-875.7500001190338
 20
127.6054338196773
 30
-0.0000000000514042
  0
VERTEX
  5
A2
330
9A
100
AcDbEntity
  8
3_ANYTOOL_CUTTHROUGH_INSID
100
AcDbVertex
100
AcDb2dVertex
 10
-875.7500001190492
 20
115.1054338196773
 30
-0.0000000000514042
  0
VERTEX
  5
A3
330
9A
100
AcDbEntity
  8
3_ANYTOOL_CUTTHROUGH_INSID
100
AcDbVertex
100
AcDb2dVertex
 10
-881.7500001190474
 20
115.1054338196918
 30
-0.0000000000514042
  0
VERTEX
  5
A4
330
9A
100
AcDbEntity
  8
3_ANYTOOL_CUTTHROUGH_INSID
100
AcDbVertex
100
AcDb2dVertex
 10
-881.7500001189874
 20
69.60543381967727
 30
-0.0000000000514042
  0
VERTEX
  5
A5
330
9A
100
AcDbEntity
  8
3_ANYTOOL_CUTTHROUGH_INSID
100
AcDbVertex
100
AcDb2dVertex
 10
-875.7500001189865
 20
69.60543381966272
 30
-0.0000000000514042
  0
VERTEX
  5
A6
330
9A
100
AcDbEntity
  8
3_ANYTOOL_CUTTHROUGH_INSID
100
AcDbVertex
100
AcDb2dVertex
 10
-875.7500001190174
 20
57.10543381966272
 30
-0.0000000000514042
  0
SEQEND
  5
A7
330
9A
100
AcDbEntity
  8
3_ANYTOOL_CUTTHROUGH_INSID
  0
POLYLINE
  5
A8
330
1F
100
AcDbEntity
  8
3_ANYTOOL_CUTTHROUGH_INSID
100
AcDb2dPolyline
 66
     1
 10
0.0
 20
0.0
 30
-0.0000000000384937
 70
     1
  0
VERTEX
  5
A9
330
A8
100
AcDbEntity
  8
3_ANYTOOL_CUTTHROUGH_INSID
100
AcDbVertex
100
AcDb2dVertex
 10
-475.2500001137478
 20
-114.8945661781399
 30
-0.0000000000384937
  0
VERTEX
  5
AA
330
A8
100
AcDbEntity
  8
3_ANYTOOL_CUTTHROUGH_INSID
100
AcDbVertex
100
AcDb2dVertex
 10
-475.2500001137769
 20
-120.8945661781327
 30
-0.0000000000384937
  0
VERTEX
  5
AB
330
A8
100
AcDbEntity
  8
3_ANYTOOL_CUTTHROUGH_INSID
100
AcDbVertex
100
AcDb2dVertex
 10
-487.7500001137769
 20
-120.8945661781181
 30
-0.0000000000384937
  0
VERTEX
  5
AC
330
A8
100
AcDbEntity
  8
3_ANYTOOL_CUTTHROUGH_INSID
100
AcDbVertex
100
AcDb2dVertex
 10
-487.7500001137778
 20
-90.39456617816904
 30
-0.0000000000384937
  0
VERTEX
  5
AD
330
A8
100
AcDbEntity
  8
3_ANYTOOL_CUTTHROUGH_INSID
100
AcDbVertex
100
AcDb2dVertex
 10
-475.2500001137778
 20
-90.39456617817632
 30
-0.0000000000384937
  0
VERTEX
  5
AE
330
A8
100
AcDbEntity
  8
3_ANYTOOL_CUTTHROUGH_INSID
100
AcDbVertex
100
AcDb2dVertex
 10
-475.2500001137778
 20
-96.3945661781836
 30
-0.0000000000384937
  0
VERTEX
  5
AF
330
A8
100
AcDbEntity
  8
3_ANYTOOL_CUTTHROUGH_INSID
100
AcDbVertex
100
AcDb2dVertex
 10
-424.7499999996853
 20
-96.39456617977703
 30
-0.0000000000384937
  0
VERTEX
  5
B0
330
A8
100
AcDbEntity
  8
3_ANYTOOL_CUTTHROUGH_INSID
100
AcDbVertex
100
AcDb2dVertex
 10
-424.7499999996853
 20
-90.3945661797843
 30
-0.0000000000384937
  0
VERTEX
  5
B1
330
A8
100
AcDbEntity
  8
3_ANYTOOL_CUTTHROUGH_INSID
100
AcDbVertex
100
AcDb2dVertex
 10
-412.249999999688
 20
-90.39456617980613
 30
-0.0000000000384937
  0
VERTEX
  5
B2
330
A8
100
AcDbEntity
  8
3_ANYTOOL_CUTTHROUGH_INSID
100
AcDbVertex
100
AcDb2dVertex
 10
-412.2499999996562
 20
-120.8945661797625
 30
-0.0000000000384937
  0
VERTEX
  5
B3
330
A8
100
AcDbEntity
  8
3_ANYTOOL_CUTTHROUGH_INSID
100
AcDbVertex
100
AcDb2dVertex
 10
-424.7499999996544
 20
-120.8945661797479
 30
-0.0000000000384937
  0
VERTEX
  5
B4
330
A8
100
AcDbEntity
  8
3_ANYTOOL_CUTTHROUGH_INSID
100
AcDbVertex
100
AcDb2dVertex
 10
-424.7499999996562
 20
-114.8945661797407
 30
-0.0000000000384937
  0
SEQEND
  5
B5
330
A8
100
AcDbEntity
  8
3_ANYTOOL_CUTTHROUGH_INSID
  0
POLYLINE
  5
B6
330
1F
100
AcDbEntity
  8
3_ANYTOOL_CUTTHROUGH_INSID
100
AcDb2dPolyline
 66
     1
 10
0.0
 20
0.0
 30
-0.0000000000398543
 70
     1
  0
VERTEX
  5
B7
330
B6
100
AcDbEntity
  8
3_ANYTOOL_CUTTHROUGH_INSID
100
AcDbVertex
100
AcDb2dVertex
 10
-574.7500001137469
 20
-96.39456617827818
 30
-0.0000000000398543
  0
VERTEX
  5
B8
330
B6
100
AcDbEntity
  8
3_ANYTOOL_CUTTHROUGH_INSID
100
AcDbVertex
100
AcDb2dVertex
 10
-574.7500001137469
 20
-90.39456617827818
 30
-0.0000000000398543
  0
VERTEX
  5
B9
330
B6
100
AcDbEntity
  8
3_ANYTOOL_CUTTHROUGH_INSID
100
AcDbVertex
100
AcDb2dVertex
 10
-562.2500001137478
 20
-90.39456617830001
 30
-0.0000000000398543
  0
VERTEX
  5
BA
330
B6
100
AcDbEntity
  8
3_ANYTOOL_CUTTHROUGH_INSID
100
AcDbVertex
100
AcDb2dVertex
 10
-562.2500001137159
 20
-120.8945661782564
 30
-0.0000000000398543
  0
VERTEX
  5
BB
330
B6
100
AcDbEntity
  8
3_ANYTOOL_CUTTHROUGH_INSID
100
AcDbVertex
100
AcDb2dVertex
 10
-574.7500001137159
 20
-120.8945661782418
 30
-0.0000000000398543
  0
VERTEX
  5
BC
330
B6
100
AcDbEntity
  8
3_ANYTOOL_CUTTHROUGH_INSID
100
AcDbVertex
100
AcDb2dVertex
 10
-574.7500001137159
 20
-114.8945661782418
 30
-0.0000000000398543
  0
VERTEX
  5
BD
330
B6
100
AcDbEntity
  8
3_ANYTOOL_CUTTHROUGH_INSID
100
AcDbVertex
100
AcDb2dVertex
 10
-625.250000113745
 20
-114.8945661783
 30
-0.0000000000398543
  0
VERTEX
  5
BE
330
B6
100
AcDbEntity
  8
3_ANYTOOL_CUTTHROUGH_INSID
100
AcDbVertex
100
AcDb2dVertex
 10
-625.250000113745
 20
-120.8945661783
 30
-0.0000000000398543
  0
VERTEX
  5
BF
330
B6
100
AcDbEntity
  8
3_ANYTOOL_CUTTHROUGH_INSID
100
AcDbVertex
100
AcDb2dVertex
 10
-637.750000113745
 20
-120.8945661782855
 30
-0.0000000000398543
  0
VERTEX
  5
C0
330
B6
100
AcDbEntity
  8
3_ANYTOOL_CUTTHROUGH_INSID
100
AcDbVertex
100
AcDb2dVertex
 10
-637.750000113746
 20
-90.39456617832911
 30
-0.0000000000398543
  0
VERTEX
  5
C1
330
B6
100
AcDbEntity
  8
3_ANYTOOL_CUTTHROUGH_INSID
100
AcDbVertex
100
AcDb2dVertex
 10
-625.250000113746
 20
-90.39456617833639
 30
-0.0000000000398543
  0
VERTEX
  5
C2
330
B6
100
AcDbEntity
  8
3_ANYTOOL_CUTTHROUGH_INSID
100
AcDbVertex
100
AcDb2dVertex
 10
-625.2500001137751
 20
-96.39456617833639
 30
-0.0000000000398543
  0
SEQEND
  5
C3
330
B6
100
AcDbEntity
  8
3_ANYTOOL_CUTTHROUGH_INSID
  0
POLYLINE
  5
C4
330
1F
100
AcDbEntity
  8
3_ANYTOOL_CUTTHROUGH_INSID
100
AcDb2dPolyline
 66
     1
 10
0.0
 20
0.0
 30
-0.0000000000231957
 70
     1
  0
VERTEX
  5
C5
330
C4
100
AcDbEntity
  8
3_ANYTOOL_CUTTHROUGH_INSID
100
AcDbVertex
100
AcDb2dVertex
 10
-175.249999999689
 20
-114.8945661794714
 30
-0.0000000000231957
  0
VERTEX
  5
C6
330
C4
100
AcDbEntity
  8
3_ANYTOOL_CUTTHROUGH_INSID
100
AcDbVertex
100
AcDb2dVertex
 10
-175.249999999689
 20
-120.8945661794714
 30
-0.0000000000231957
  0
VERTEX
  5
C7
330
C4
100
AcDbEntity
  8
3_ANYTOOL_CUTTHROUGH_INSID
100
AcDbVertex
100
AcDb2dVertex
 10
-187.749999999689
 20
-120.8945661794569
 30
-0.0000000000231957
  0
VERTEX
  5
C8
330
C4
100
AcDbEntity
  8
3_ANYTOOL_CUTTHROUGH_INSID
100
AcDbVertex
100
AcDb2dVertex
 10
-187.7499999996899
 20
-90.39456617950054
 30
-0.0000000000231957
  0
VERTEX
  5
C9
330
C4
100
AcDbEntity
  8
3_ANYTOOL_CUTTHROUGH_INSID
100
AcDbVertex
100
AcDb2dVertex
 10
-175.2499999996899
 20
-90.39456617950782
 30
-0.0000000000231957
  0
VERTEX
  5
CA
330
C4
100
AcDbEntity
  8
3_ANYTOOL_CUTTHROUGH_INSID
100
AcDbVertex
100
AcDb2dVertex
 10
-175.249999999719
 20
-96.39456617950782
 30
-0.0000000000231957
  0
VERTEX
  5
CB
330
C4
100
AcDbEntity
  8
3_ANYTOOL_CUTTHROUGH_INSID
100
AcDbVertex
100
AcDb2dVertex
 10
-124.7499999997517
 20
-96.39456617914402
 30
-0.0000000000231957
  0
VERTEX
  5
CC
330
C4
100
AcDbEntity
  8
3_ANYTOOL_CUTTHROUGH_INSID
100
AcDbVertex
100
AcDb2dVertex
 10
-124.7499999997226
 20
-90.39456617914402
 30
-0.0000000000231957
  0
VERTEX
  5
CD
330
C4
100
AcDbEntity
  8
3_ANYTOOL_CUTTHROUGH_INSID
100
AcDbVertex
100
AcDb2dVertex
 10
-112.2499999997235
 20
-90.39456617915857
 30
-0.0000000000231957
  0
VERTEX
  5
CE
330
C4
100
AcDbEntity
  8
3_ANYTOOL_CUTTHROUGH_INSID
100
AcDbVertex
100
AcDb2dVertex
 10
-112.2499999997226
 20
-120.8945661791149
 30
-0.0000000000231957
  0
VERTEX
  5
CF
330
C4
100
AcDbEntity
  8
3_ANYTOOL_CUTTHROUGH_INSID
100
AcDbVertex
100
AcDb2dVertex
 10
-124.7499999997226
 20
-120.8945661791004
 30
-0.0000000000231957
  0
VERTEX
  5
D0
330
C4
100
AcDbEntity
  8
3_ANYTOOL_CUTTHROUGH_INSID
100
AcDbVertex
100
AcDb2dVertex
 10
-124.7499999996935
 20
-114.8945661791004
 30
-0.0000000000231957
  0
SEQEND
  5
D1
330
C4
100
AcDbEntity
  8
3_ANYTOOL_CUTTHROUGH_INSID
  0
POLYLINE
  5
D2
330
1F
100
AcDbEntity
  8
3_ANYTOOL_CUTTHROUGH_INSID
100
AcDb2dPolyline
 66
     1
 10
0.0
 20
0.0
 30
-0.0000000000245564
 70
     1
  0
VERTEX
  5
D3
330
D2
100
AcDbEntity
  8
3_ANYTOOL_CUTTHROUGH_INSID
100
AcDbVertex
100
AcDb2dVertex
 10
-274.749999999689
 20
-96.39456617960968
 30
-0.0000000000245564
  0
VERTEX
  5
D4
330
D2
100
AcDbEntity
  8
3_ANYTOOL_CUTTHROUGH_INSID
100
AcDbVertex
100
AcDb2dVertex
 10
-274.749999999689
 20
-90.39456617960968
 30
-0.0000000000245564
  0
VERTEX
  5
D5
330
D2
100
AcDbEntity
  8
3_ANYTOOL_CUTTHROUGH_INSID
100
AcDbVertex
100
AcDb2dVertex
 10
-262.2499999996899
 20
-90.39456617963151
 30
-0.0000000000245564
  0
VERTEX
  5
D6
330
D2
100
AcDbEntity
  8
3_ANYTOOL_CUTTHROUGH_INSID
100
AcDbVertex
100
AcDb2dVertex
 10
-262.249999999658
 20
-120.8945661795879
 30
-0.0000000000245564
  0
VERTEX
  5
D7
330
D2
100
AcDbEntity
  8
3_ANYTOOL_CUTTHROUGH_INSID
100
AcDbVertex
100
AcDb2dVertex
 10
-274.749999999658
 20
-120.8945661795733
 30
-0.0000000000245564
  0
VERTEX
  5
D8
330
D2
100
AcDbEntity
  8
3_ANYTOOL_CUTTHROUGH_INSID
100
AcDbVertex
100
AcDb2dVertex
 10
-274.749999999658
 20
-114.8945661795733
 30
-0.0000000000245564
  0
VERTEX
  5
D9
330
D2
100
AcDbEntity
  8
3_ANYTOOL_CUTTHROUGH_INSID
100
AcDbVertex
100
AcDb2dVertex
 10
-325.2499999996871
 20
-114.8945661796242
 30
-0.0000000000245564
  0
VERTEX
  5
DA
330
D2
100
AcDbEntity
  8
3_ANYTOOL_CUTTHROUGH_INSID
100
AcDbVertex
100
AcDb2dVertex
 10
-325.2499999996853
 20
-120.8945661796242
 30
-0.0000000000245564
  0
VERTEX
  5
DB
330
D2
100
AcDbEntity
  8
3_ANYTOOL_CUTTHROUGH_INSID
100
AcDbVertex
100
AcDb2dVertex
 10
-337.7499999996853
 20
-120.8945661796097
 30
-0.0000000000245564
  0
VERTEX
  5
DC
330
D2
100
AcDbEntity
  8
3_ANYTOOL_CUTTHROUGH_INSID
100
AcDbVertex
100
AcDb2dVertex
 10
-337.7499999996862
 20
-90.39456617965334
 30
-0.0000000000245564
  0
VERTEX
  5
DD
330
D2
100
AcDbEntity
  8
3_ANYTOOL_CUTTHROUGH_INSID
100
AcDbVertex
100
AcDb2dVertex
 10
-325.2499999996862
 20
-90.39456617966061
 30
-0.0000000000245564
  0
VERTEX
  5
DE
330
D2
100
AcDbEntity
  8
3_ANYTOOL_CUTTHROUGH_INSID
100
AcDbVertex
100
AcDb2dVertex
 10
-325.2499999997153
 20
-96.39456617966061
 30
-0.0000000000245564
  0
SEQEND
  5
DF
330
D2
100
AcDbEntity
  8
3_ANYTOOL_CUTTHROUGH_INSID
  0
POLYLINE
  5
E0
330
1F
100
AcDbEntity
  8
3_ANYTOOL_CUTTHROUGH_INSID
100
AcDb2dPolyline
 66
     1
 10
0.0
 20
0.0
 30
-0.0000000000244427
 70
     1
  0
VERTEX
  5
E1
330
E0
100
AcDbEntity
  8
3_ANYTOOL_CUTTHROUGH_INSID
100
AcDbVertex
100
AcDb2dVertex
 10
-324.2500000049349
 20
57.10543381895695
 30
-0.0000000000244427
  0
VERTEX
  5
E2
330
E0
100
AcDbEntity
  8
3_ANYTOOL_CUTTHROUGH_INSID
100
AcDbVertex
100
AcDb2dVertex
 10
-324.2500000049367
 20
69.60543381895695
 30
-0.0000000000244427
  0
VERTEX
  5
E3
330
E0
100
AcDbEntity
  8
3_ANYTOOL_CUTTHROUGH_INSID
100
AcDbVertex
100
AcDb2dVertex
 10
-318.2500000049367
 20
69.6054338189424
 30
-0.0000000000244427
  0
VERTEX
  5
E4
330
E0
100
AcDbEntity
  8
3_ANYTOOL_CUTTHROUGH_INSID
100
AcDbVertex
100
AcDb2dVertex
 10
-318.2500000049822
 20
115.1054338189715
 30
-0.0000000000244427
  0
VERTEX
  5
E5
330
E0
100
AcDbEntity
  8
3_ANYTOOL_CUTTHROUGH_INSID
100
AcDbVertex
100
AcDb2dVertex
 10
-324.2500000049822
 20
115.1054338189861
 30
-0.0000000000244427
  0
VERTEX
  5
E6
330
E0
100
AcDbEntity
  8
3_ANYTOOL_CUTTHROUGH_INSID
100
AcDbVertex
100
AcDb2dVertex
 10
-324.2500000049668
 20
127.6054338189861
 30
-0.0000000000244427
  0
VERTEX
  5
E7
330
E0
100
AcDbEntity
  8
3_ANYTOOL_CUTTHROUGH_INSID
100
AcDbVertex
100
AcDb2dVertex
 10
-275.7500000050122
 20
127.6054338189861
 30
-0.0000000000244427
  0
VERTEX
  5
E8
330
E0
100
AcDbEntity
  8
3_ANYTOOL_CUTTHROUGH_INSID
100
AcDbVertex
100
AcDb2dVertex
 10
-275.7500000050277
 20
115.1054338189861
 30
-0.0000000000244427
  0
VERTEX
  5
E9
330
E0
100
AcDbEntity
  8
3_ANYTOOL_CUTTHROUGH_INSID
100
AcDbVertex
100
AcDb2dVertex
 10
-281.7500000050259
 20
115.1054338190006
 30
-0.0000000000244427
  0
VERTEX
  5
EA
330
E0
100
AcDbEntity
  8
3_ANYTOOL_CUTTHROUGH_INSID
100
AcDbVertex
100
AcDb2dVertex
 10
-281.7500000049658
 20
69.60543381898606
 30
-0.0000000000244427
  0
VERTEX
  5
EB
330
E0
100
AcDbEntity
  8
3_ANYTOOL_CUTTHROUGH_INSID
100
AcDbVertex
100
AcDb2dVertex
 10
-275.7500000049649
 20
69.6054338189715
 30
-0.0000000000244427
  0
VERTEX
  5
EC
330
E0
100
AcDbEntity
  8
3_ANYTOOL_CUTTHROUGH_INSID
100
AcDbVertex
100
AcDb2dVertex
 10
-275.7500000049959
 20
57.10543381897151
 30
-0.0000000000244427
  0
SEQEND
  5
ED
330
E0
100
AcDbEntity
  8
3_ANYTOOL_CUTTHROUGH_INSID
  0
POLYLINE
  5
EE
330
1F
100
AcDbEntity
  8
3_ANYTOOL_CUTTHROUGH_INSID
100
AcDb2dPolyline
 66
     1
 10
0.0
 20
0.0
 30
-0.0000000000115321
 70
     1
  0
VERTEX
  5
EF
330
EE
100
AcDbEntity
  8
3_ANYTOOL_CUTTHROUGH_INSID
100
AcDbVertex
100
AcDb2dVertex
 10
124.7500000002738
 20
-114.8945661788312
 30
-0.0000000000115321
  0
VERTEX
  5
F0
330
EE
100
AcDbEntity
  8
3_ANYTOOL_CUTTHROUGH_INSID
100
AcDbVertex
100
AcDb2dVertex
 10
124.7500000002447
 20
-120.8945661788239
 30
-0.0000000000115321
  0
VERTEX
  5
F1
330
EE
100
AcDbEntity
  8
3_ANYTOOL_CUTTHROUGH_INSID
100
AcDbVertex
100
AcDb2dVertex
 10
112.2500000002447
 20
-120.8945661788093
 30
-0.0000000000115321
  0
VERTEX
  5
F2
330
EE
100
AcDbEntity
  8
3_ANYTOOL_CUTTHROUGH_INSID
100
AcDbVertex
100
AcDb2dVertex
 10
112.2500000002437
 20
-90.39456617886026
 30
-0.0000000000115321
  0
VERTEX
  5
F3
330
EE
100
AcDbEntity
  8
3_ANYTOOL_CUTTHROUGH_INSID
100
AcDbVertex
100
AcDb2dVertex
 10
124.7500000002437
 20
-90.39456617886754
 30
-0.0000000000115321
  0
VERTEX
  5
F4
330
EE
100
AcDbEntity
  8
3_ANYTOOL_CUTTHROUGH_INSID
100
AcDbVertex
100
AcDb2dVertex
 10
124.7500000002437
 20
-96.39456617887481
 30
-0.0000000000115321
  0
VERTEX
  5
F5
330
EE
100
AcDbEntity
  8
3_ANYTOOL_CUTTHROUGH_INSID
100
AcDbVertex
100
AcDb2dVertex
 10
175.2500001143362
 20
-96.39456618046825
 30
-0.0000000000115321
  0
VERTEX
  5
F6
330
EE
100
AcDbEntity
  8
3_ANYTOOL_CUTTHROUGH_INSID
100
AcDbVertex
100
AcDb2dVertex
 10
175.2500001143362
 20
-90.39456618047552
 30
-0.0000000000115321
  0
VERTEX
  5
F7
330
EE
100
AcDbEntity
  8
3_ANYTOOL_CUTTHROUGH_INSID
100
AcDbVertex
100
AcDb2dVertex
 10
187.7500001143335
 20
-90.39456618049735
 30
-0.0000000000115321
  0
VERTEX
  5
F8
330
EE
100
AcDbEntity
  8
3_ANYTOOL_CUTTHROUGH_INSID
100
AcDbVertex
100
AcDb2dVertex
 10
187.7500001143653
 20
-120.8945661804537
 30
-0.0000000000115321
  0
VERTEX
  5
F9
330
EE
100
AcDbEntity
  8
3_ANYTOOL_CUTTHROUGH_INSID
100
AcDbVertex
100
AcDb2dVertex
 10
175.2500001143671
 20
-120.8945661804391
 30
-0.0000000000115321
  0
VERTEX
  5
FA
330
EE
100
AcDbEntity
  8
3_ANYTOOL_CUTTHROUGH_INSID
100
AcDbVertex
100
AcDb2dVertex
 10
175.2500001143653
 20
-114.8945661804319
 30
-0.0000000000115321
  0
SEQEND
  5
FB
330
EE
100
AcDbEntity
  8
3_ANYTOOL_CUTTHROUGH_INSID
  0
POLYLINE
  5
FC
330
1F
100
AcDbEntity
  8
3_ANYTOOL_CUTTHROUGH_INSID
100
AcDb2dPolyline
 66
     1
 10
0.0
 20
0.0
 30
-0.0000000000128928
 70
     1
  0
VERTEX
  5
FD
330
FC
100
AcDbEntity
  8
3_ANYTOOL_CUTTHROUGH_INSID
100
AcDbVertex
100
AcDb2dVertex
 10
25.25000000027467
 20
-96.3945661789694
 30
-0.0000000000128928
  0
VERTEX
  5
FE
330
FC
100
AcDbEntity
  8
3_ANYTOOL_CUTTHROUGH_INSID
100
AcDbVertex
100
AcDb2dVertex
 10
25.25000000027467
 20
-90.3945661789694
 30
-0.0000000000128928
  0
VERTEX
  5
FF
330
FC
100
AcDbEntity
  8
3_ANYTOOL_CUTTHROUGH_INSID
100
AcDbVertex
100
AcDb2dVertex
 10
37.75000000027376
 20
-90.39456617899123
 30
-0.0000000000128928
  0
VERTEX
  5
100
330
FC
100
AcDbEntity
  8
3_ANYTOOL_CUTTHROUGH_INSID
100
AcDbVertex
100
AcDb2dVertex
 10
37.75000000030559
 20
-120.8945661789476
 30
-0.0000000000128928
  0
VERTEX
  5
101
330
FC
100
AcDbEntity
  8
3_ANYTOOL_CUTTHROUGH_INSID
100
AcDbVertex
100
AcDb2dVertex
 10
25.25000000030559
 20
-120.894566178933
 30
-0.0000000000128928
  0
VERTEX
  5
102
330
FC
100
AcDbEntity
  8
3_ANYTOOL_CUTTHROUGH_INSID
100
AcDbVertex
100
AcDb2dVertex
 10
25.25000000030559
 20
-114.894566178933
 30
-0.0000000000128928
  0
VERTEX
  5
103
330
FC
100
AcDbEntity
  8
3_ANYTOOL_CUTTHROUGH_INSID
100
AcDbVertex
100
AcDb2dVertex
 10
-25.24999999972351
 20
-114.8945661789912
 30
-0.0000000000128928
  0
VERTEX
  5
104
330
FC
100
AcDbEntity
  8
3_ANYTOOL_CUTTHROUGH_INSID
100
AcDbVertex
100
AcDb2dVertex
 10
-25.24999999972351
 20
-120.8945661789912
 30
-0.0000000000128928
  0
VERTEX
  5
105
330
FC
100
AcDbEntity
  8
3_ANYTOOL_CUTTHROUGH_INSID
100
AcDbVertex
100
AcDb2dVertex
 10
-37.74999999972351
 20
-120.8945661789767
 30
-0.0000000000128928
  0
VERTEX
  5
106
330
FC
100
AcDbEntity
  8
3_ANYTOOL_CUTTHROUGH_INSID
100
AcDbVertex
100
AcDb2dVertex
 10
-37.74999999972442
 20
-90.39456617902033
 30
-0.0000000000128928
  0
VERTEX
  5
107
330
FC
100
AcDbEntity
  8
3_ANYTOOL_CUTTHROUGH_INSID
100
AcDbVertex
100
AcDb2dVertex
 10
-25.24999999972442
 20
-90.3945661790276
 30
-0.0000000000128928
  0
VERTEX
  5
108
330
FC
100
AcDbEntity
  8
3_ANYTOOL_CUTTHROUGH_INSID
100
AcDbVertex
100
AcDb2dVertex
 10
-25.24999999975353
 20
-96.3945661790276
 30
-0.0000000000128928
  0
SEQEND
  5
109
330
FC
100
AcDbEntity
  8
3_ANYTOOL_CUTTHROUGH_INSID
  0
POLYLINE
  5
10A
330
1F
100
AcDbEntity
  8
3_ANYTOOL_CUTTHROUGH_INSID
100
AcDb2dPolyline
 66
     1
 10
0.0
 20
0.0
 30
0.0000000000037659
 70
     1
  0
VERTEX
  5
10B
330
10A
100
AcDbEntity
  8
3_ANYTOOL_CUTTHROUGH_INSID
100
AcDbVertex
100
AcDb2dVertex
 10
424.7500001143326
 20
-114.8945661801627
 30
0.0000000000037659
  0
VERTEX
  5
10C
330
10A
100
AcDbEntity
  8
3_ANYTOOL_CUTTHROUGH_INSID
100
AcDbVertex
100
AcDb2dVertex
 10
424.7500001143326
 20
-120.8945661801627
 30
0.0000000000037659
  0
VERTEX
  5
10D
330
10A
100
AcDbEntity
  8
3_ANYTOOL_CUTTHROUGH_INSID
100
AcDbVertex
100
AcDb2dVertex
 10
412.2500001143326
 20
-120.8945661801481
 30
0.0000000000037659
  0
VERTEX
  5
10E
330
10A
100
AcDbEntity
  8
3_ANYTOOL_CUTTHROUGH_INSID
100
AcDbVertex
100
AcDb2dVertex
 10
412.2500001143317
 20
-90.39456618019176
 30
0.0000000000037659
  0
VERTEX
  5
10F
330
10A
100
AcDbEntity
  8
3_ANYTOOL_CUTTHROUGH_INSID
100
AcDbVertex
100
AcDb2dVertex
 10
424.7500001143317
 20
-90.39456618019904
 30
0.0000000000037659
  0
VERTEX
  5
110
330
10A
100
AcDbEntity
  8
3_ANYTOOL_CUTTHROUGH_INSID
100
AcDbVertex
100
AcDb2dVertex
 10
424.7500001143026
 20
-96.39456618019904
 30
0.0000000000037659
  0
VERTEX
  5
111
330
10A
100
AcDbEntity
  8
3_ANYTOOL_CUTTHROUGH_INSID
100
AcDbVertex
100
AcDb2dVertex
 10
475.2500001142698
 20
-96.39456617984251
 30
0.0000000000037659
  0
VERTEX
  5
112
330
10A
100
AcDbEntity
  8
3_ANYTOOL_CUTTHROUGH_INSID
100
AcDbVertex
100
AcDb2dVertex
 10
475.2500001142989
 20
-90.39456617984251
 30
0.0000000000037659
  0
VERTEX
  5
113
330
10A
100
AcDbEntity
  8
3_ANYTOOL_CUTTHROUGH_INSID
100
AcDbVertex
100
AcDb2dVertex
 10
487.750000114298
 20
-90.39456617985707
 30
0.0000000000037659
  0
VERTEX
  5
114
330
10A
100
AcDbEntity
  8
3_ANYTOOL_CUTTHROUGH_INSID
100
AcDbVertex
100
AcDb2dVertex
 10
487.7500001142989
 20
-120.8945661798134
 30
0.0000000000037659
  0
VERTEX
  5
115
330
10A
100
AcDbEntity
  8
3_ANYTOOL_CUTTHROUGH_INSID
100
AcDbVertex
100
AcDb2dVertex
 10
475.2500001142989
 20
-120.8945661797989
 30
0.0000000000037659
  0
VERTEX
  5
116
330
10A
100
AcDbEntity
  8
3_ANYTOOL_CUTTHROUGH_INSID
100
AcDbVertex
100
AcDb2dVertex
 10
475.250000114328
 20
-114.8945661797989
 30
0.0000000000037659
  0
SEQEND
  5
117
330
10A
100
AcDbEntity
  8
3_ANYTOOL_CUTTHROUGH_INSID
  0
POLYLINE
  5
118
330
1F
100
AcDbEntity
  8
3_ANYTOOL_CUTTHROUGH_INSID
100
AcDb2dPolyline
 66
     1
 10
0.0
 20
0.0
 30
0.0000000000024052
 70
     1
  0
VERTEX
  5
119
330
118
100
AcDbEntity
  8
3_ANYTOOL_CUTTHROUGH_INSID
100
AcDbVertex
100
AcDb2dVertex
 10
325.2500001143326
 20
-96.3945661803009
 30
0.0000000000024052
  0
VERTEX
  5
11A
330
118
100
AcDbEntity
  8
3_ANYTOOL_CUTTHROUGH_INSID
100
AcDbVertex
100
AcDb2dVertex
 10
325.2500001143326
 20
-90.3945661803009
 30
0.0000000000024052
  0
VERTEX
  5
11B
330
118
100
AcDbEntity
  8
3_ANYTOOL_CUTTHROUGH_INSID
100
AcDbVertex
100
AcDb2dVertex
 10
337.7500001143317
 20
-90.39456618032273
 30
0.0000000000024052
  0
VERTEX
  5
11C
330
118
100
AcDbEntity
  8
3_ANYTOOL_CUTTHROUGH_INSID
100
AcDbVertex
100
AcDb2dVertex
 10
337.7500001143635
 20
-120.8945661802791
 30
0.0000000000024052
  0
VERTEX
  5
11D
330
118
100
AcDbEntity
  8
3_ANYTOOL_CUTTHROUGH_INSID
100
AcDbVertex
100
AcDb2dVertex
 10
325.2500001143635
 20
-120.8945661802645
 30
0.0000000000024052
  0
VERTEX
  5
11E
330
118
100
AcDbEntity
  8
3_ANYTOOL_CUTTHROUGH_INSID
100
AcDbVertex
100
AcDb2dVertex
 10
325.2500001143635
 20
-114.8945661802645
 30
0.0000000000024052
  0
VERTEX
  5
11F
330
118
100
AcDbEntity
  8
3_ANYTOOL_CUTTHROUGH_INSID
100
AcDbVertex
100
AcDb2dVertex
 10
274.7500001143344
 20
-114.8945661803155
 30
0.0000000000024052
  0
VERTEX
  5
120
330
118
100
AcDbEntity
  8
3_ANYTOOL_CUTTHROUGH_INSID
100
AcDbVertex
100
AcDb2dVertex
 10
274.7500001143362
 20
-120.8945661803155
 30
0.0000000000024052
  0
VERTEX
  5
121
330
118
100
AcDbEntity
  8
3_ANYTOOL_CUTTHROUGH_INSID
100
AcDbVertex
100
AcDb2dVertex
 10
262.2500001143362
 20
-120.8945661803009
 30
0.0000000000024052
  0
VERTEX
  5
122
330
118
100
AcDbEntity
  8
3_ANYTOOL_CUTTHROUGH_INSID
100
AcDbVertex
100
AcDb2dVertex
 10
262.2500001143353
 20
-90.39456618034455
 30
0.0000000000024052
  0
VERTEX
  5
123
330
118
100
AcDbEntity
  8
3_ANYTOOL_CUTTHROUGH_INSID
100
AcDbVertex
100
AcDb2dVertex
 10
274.7500001143353
 20
-90.39456618035183
 30
0.0000000000024052
  0
VERTEX
  5
124
330
118
100
AcDbEntity
  8
3_ANYTOOL_CUTTHROUGH_INSID
100
AcDbVertex
100
AcDb2dVertex
 10
274.7500001143062
 20
-96.39456618035183
 30
0.0000000000024052
  0
SEQEND
  5
125
330
118
100
AcDbEntity
  8
3_ANYTOOL_CUTTHROUGH_INSID
  0
POLYLINE
  5
126
330
1F
100
AcDbEntity
  8
3_ANYTOOL_CUTTHROUGH_INSID
100
AcDb2dPolyline
 66
     1
 10
0.0
 20
0.0
 30
0.0000000000025189
 70
     1
  0
VERTEX
  5
127
330
126
100
AcDbEntity
  8
3_ANYTOOL_CUTTHROUGH_INSID
100
AcDbVertex
100
AcDb2dVertex
 10
275.7500001090866
 20
57.10543381826574
 30
0.0000000000025189
  0
VERTEX
  5
128
330
126
100
AcDbEntity
  8
3_ANYTOOL_CUTTHROUGH_INSID
100
AcDbVertex
100
AcDb2dVertex
 10
275.7500001090848
 20
69.60543381826574
 30
0.0000000000025189
  0
VERTEX
  5
129
330
126
100
AcDbEntity
  8
3_ANYTOOL_CUTTHROUGH_INSID
100
AcDbVertex
100
AcDb2dVertex
 10
281.7500001090848
 20
69.60543381825119
 30
0.0000000000025189
  0
VERTEX
  5
12A
330
126
100
AcDbEntity
  8
3_ANYTOOL_CUTTHROUGH_INSID
100
AcDbVertex
100
AcDb2dVertex
 10
281.7500001090393
 20
115.1054338182803
 30
0.0000000000025189
  0
VERTEX
  5
12B
330
126
100
AcDbEntity
  8
3_ANYTOOL_CUTTHROUGH_INSID
100
AcDbVertex
100
AcDb2dVertex
 10
275.7500001090393
 20
115.1054338182948
 30
0.0000000000025189
  0
VERTEX
  5
12C
330
126
100
AcDbEntity
  8
3_ANYTOOL_CUTTHROUGH_INSID
100
AcDbVertex
100
AcDb2dVertex
 10
275.7500001090548
 20
127.6054338182948
 30
0.0000000000025189
  0
VERTEX
  5
12D
330
126
100
AcDbEntity
  8
3_ANYTOOL_CUTTHROUGH_INSID
100
AcDbVertex
100
AcDb2dVertex
 10
324.2500001090093
 20
127.6054338182948
 30
0.0000000000025189
  0
VERTEX
  5
12E
330
126
100
AcDbEntity
  8
3_ANYTOOL_CUTTHROUGH_INSID
100
AcDbVertex
100
AcDb2dVertex
 10
324.2500001089938
 20
115.1054338182948
 30
0.0000000000025189
  0
VERTEX
  5
12F
330
126
100
AcDbEntity
  8
3_ANYTOOL_CUTTHROUGH_INSID
100
AcDbVertex
100
AcDb2dVertex
 10
318.2500001089957
 20
115.1054338183094
 30
0.0000000000025189
  0
VERTEX
  5
130
330
126
100
AcDbEntity
  8
3_ANYTOOL_CUTTHROUGH_INSID
100
AcDbVertex
100
AcDb2dVertex
 10
318.2500001090557
 20
69.60543381829484
 30
0.0000000000025189
  0
VERTEX
  5
131
330
126
100
AcDbEntity
  8
3_ANYTOOL_CUTTHROUGH_INSID
100
AcDbVertex
100
AcDb2dVertex
 10
324.2500001090566
 20
69.60543381828029
 30
0.0000000000025189
  0
VERTEX
  5
132
330
126
100
AcDbEntity
  8
3_ANYTOOL_CUTTHROUGH_INSID
100
AcDbVertex
100
AcDb2dVertex
 10
324.2500001090257
 20
57.10543381828029
 30
0.0000000000025189
  0
SEQEND
  5
133
330
126
100
AcDbEntity
  8
3_ANYTOOL_CUTTHROUGH_INSID
  0
POLYLINE
  5
134
330
1F
100
AcDbEntity
  8
3_ANYTOOL_CUTTHROUGH_INSID
100
AcDb2dPolyline
 66
     1
 10
0.0
 20
0.0
 30
0.0000000000154259
 70
     1
  0
VERTEX
  5
135
330
134
100
AcDbEntity
  8
3_ANYTOOL_CUTTHROUGH_INSID
100
AcDbVertex
100
AcDb2dVertex
 10
724.7500001142953
 20
-114.8945661795296
 30
0.0000000000154259
  0
VERTEX
  5
136
330
134
100
AcDbEntity
  8
3_ANYTOOL_CUTTHROUGH_INSID
100
AcDbVertex
100
AcDb2dVertex
 10
724.7500001142662
 20
-120.8945661795224
 30
0.0000000000154259
  0
VERTEX
  5
137
330
134
100
AcDbEntity
  8
3_ANYTOOL_CUTTHROUGH_INSID
100
AcDbVertex
100
AcDb2dVertex
 10
712.2500001142662
 20
-120.8945661795078
 30
0.0000000000154259
  0
VERTEX
  5
138
330
134
100
AcDbEntity
  8
3_ANYTOOL_CUTTHROUGH_INSID
100
AcDbVertex
100
AcDb2dVertex
 10
712.2500001142653
 20
-90.39456617955875
 30
0.0000000000154259
  0
VERTEX
  5
139
330
134
100
AcDbEntity
  8
3_ANYTOOL_CUTTHROUGH_INSID
100
AcDbVertex
100
AcDb2dVertex
 10
724.7500001142653
 20
-90.39456617956603
 30
0.0000000000154259
  0
VERTEX
  5
13A
330
134
100
AcDbEntity
  8
3_ANYTOOL_CUTTHROUGH_INSID
100
AcDbVertex
100
AcDb2dVertex
 10
724.7500001142653
 20
-96.3945661795733
 30
0.0000000000154259
  0
VERTEX
  5
13B
330
134
100
AcDbEntity
  8
3_ANYTOOL_CUTTHROUGH_INSID
100
AcDbVertex
100
AcDb2dVertex
 10
775.2500002283577
 20
-96.39456618115946
 30
0.0000000000154259
  0
VERTEX
  5
13C
330
134
100
AcDbEntity
  8
3_ANYTOOL_CUTTHROUGH_INSID
100
AcDbVertex
100
AcDb2dVertex
 10
775.2500002283577
 20
-90.39456618116674
 30
0.0000000000154259
  0
VERTEX
  5
13D
330
134
100
AcDbEntity
  8
3_ANYTOOL_CUTTHROUGH_INSID
100
AcDbVertex
100
AcDb2dVertex
 10
787.750000228355
 20
-90.39456618118857
 30
0.0000000000154259
  0
VERTEX
  5
13E
330
134
100
AcDbEntity
  8
3_ANYTOOL_CUTTHROUGH_INSID
100
AcDbVertex
100
AcDb2dVertex
 10
787.7500002283869
 20
-120.8945661811449
 30
0.0000000000154259
  0
VERTEX
  5
13F
330
134
100
AcDbEntity
  8
3_ANYTOOL_CUTTHROUGH_INSID
100
AcDbVertex
100
AcDb2dVertex
 10
775.2500002283887
 20
-120.8945661811304
 30
0.0000000000154259
  0
VERTEX
  5
140
330
134
100
AcDbEntity
  8
3_ANYTOOL_CUTTHROUGH_INSID
100
AcDbVertex
100
AcDb2dVertex
 10
775.2500002283869
 20
-114.8945661811231
 30
0.0000000000154259
  0
SEQEND
  5
141
330
134
100
AcDbEntity
  8
3_ANYTOOL_CUTTHROUGH_INSID
  0
POLYLINE
  5
142
330
1F
100
AcDbEntity
  8
3_ANYTOOL_CUTTHROUGH_INSID
100
AcDb2dPolyline
 66
     1
 10
0.0
 20
0.0
 30
0.0000000000140652
 70
     1
  0
VERTEX
  5
143
330
142
100
AcDbEntity
  8
3_ANYTOOL_CUTTHROUGH_INSID
100
AcDbVertex
100
AcDb2dVertex
 10
625.2500001142962
 20
-96.39456617966789
 30
0.0000000000140652
  0
VERTEX
  5
144
330
142
100
AcDbEntity
  8
3_ANYTOOL_CUTTHROUGH_INSID
100
AcDbVertex
100
AcDb2dVertex
 10
625.2500001142962
 20
-90.39456617966789
 30
0.0000000000140652
  0
VERTEX
  5
145
330
142
100
AcDbEntity
  8
3_ANYTOOL_CUTTHROUGH_INSID
100
AcDbVertex
100
AcDb2dVertex
 10
637.7500001142953
 20
-90.39456617968972
 30
0.0000000000140652
  0
VERTEX
  5
146
330
142
100
AcDbEntity
  8
3_ANYTOOL_CUTTHROUGH_INSID
100
AcDbVertex
100
AcDb2dVertex
 10
637.7500001143271
 20
-120.8945661796461
 30
0.0000000000140652
  0
VERTEX
  5
147
330
142
100
AcDbEntity
  8
3_ANYTOOL_CUTTHROUGH_INSID
100
AcDbVertex
100
AcDb2dVertex
 10
625.2500001143271
 20
-120.8945661796315
 30
0.0000000000140652
  0
VERTEX
  5
148
330
142
100
AcDbEntity
  8
3_ANYTOOL_CUTTHROUGH_INSID
100
AcDbVertex
100
AcDb2dVertex
 10
625.2500001143271
 20
-114.8945661796315
 30
0.0000000000140652
  0
VERTEX
  5
149
330
142
100
AcDbEntity
  8
3_ANYTOOL_CUTTHROUGH_INSID
100
AcDbVertex
100
AcDb2dVertex
 10
574.750000114298
 20
-114.8945661796897
 30
0.0000000000140652
  0
VERTEX
  5
14A
330
142
100
AcDbEntity
  8
3_ANYTOOL_CUTTHROUGH_INSID
100
AcDbVertex
100
AcDb2dVertex
 10
574.750000114298
 20
-120.8945661796897
 30
0.0000000000140652
  0
VERTEX
  5
14B
330
142
100
AcDbEntity
  8
3_ANYTOOL_CUTTHROUGH_INSID
100
AcDbVertex
100
AcDb2dVertex
 10
562.250000114298
 20
-120.8945661796752
 30
0.0000000000140652
  0
VERTEX
  5
14C
330
142
100
AcDbEntity
  8
3_ANYTOOL_CUTTHROUGH_INSID
100
AcDbVertex
100
AcDb2dVertex
 10
562.2500001142971
 20
-90.39456617971882
 30
0.0000000000140652
  0
VERTEX
  5
14D
330
142
100
AcDbEntity
  8
3_ANYTOOL_CUTTHROUGH_INSID
100
AcDbVertex
100
AcDb2dVertex
 10
574.7500001142971
 20
-90.3945661797261
 30
0.0000000000140652
  0
VERTEX
  5
14E
330
142
100
AcDbEntity
  8
3_ANYTOOL_CUTTHROUGH_INSID
100
AcDbVertex
100
AcDb2dVertex
 10
574.750000114268
 20
-96.3945661797261
 30
0.0000000000140652
  0
SEQEND
  5
14F
330
142
100
AcDbEntity
  8
3_ANYTOOL_CUTTHROUGH_INSID
  0
POLYLINE
  5
150
330
1F
100
AcDbEntity
  8
3_ANYTOOL_CUTTHROUGH_INSID
100
AcDb2dPolyline
 66
     1
 10
0.0
 20
0.0
 30
0.0000000000307274
 70
     1
  0
VERTEX
  5
151
330
150
100
AcDbEntity
  8
3_ANYTOOL_CUTTHROUGH_INSID
100
AcDbVertex
100
AcDb2dVertex
 10
1024.750000228354
 20
-114.8945661808466
 30
0.0000000000307274
  0
VERTEX
  5
152
330
150
100
AcDbEntity
  8
3_ANYTOOL_CUTTHROUGH_INSID
100
AcDbVertex
100
AcDb2dVertex
 10
1024.750000228354
 20
-120.8945661808539
 30
0.0000000000307274
  0
VERTEX
  5
153
330
150
100
AcDbEntity
  8
3_ANYTOOL_CUTTHROUGH_INSID
100
AcDbVertex
100
AcDb2dVertex
 10
1012.250000228354
 20
-120.8945661808393
 30
0.0000000000307274
  0
VERTEX
  5
154
330
150
100
AcDbEntity
  8
3_ANYTOOL_CUTTHROUGH_INSID
100
AcDbVertex
100
AcDb2dVertex
 10
1012.250000228353
 20
-90.39456618088298
 30
0.0000000000307274
  0
VERTEX
  5
155
330
150
100
AcDbEntity
  8
3_ANYTOOL_CUTTHROUGH_INSID
100
AcDbVertex
100
AcDb2dVertex
 10
1024.750000228353
 20
-90.39456618089025
 30
0.0000000000307274
  0
VERTEX
  5
156
330
150
100
AcDbEntity
  8
3_ANYTOOL_CUTTHROUGH_INSID
100
AcDbVertex
100
AcDb2dVertex
 10
1024.750000228324
 20
-96.39456618088298
 30
0.0000000000307274
  0
VERTEX
  5
157
330
150
100
AcDbEntity
  8
3_ANYTOOL_CUTTHROUGH_INSID
100
AcDbVertex
100
AcDb2dVertex
 10
1075.250000184346
 20
-96.39456617945689
 30
0.0000000000307274
  0
VERTEX
  5
158
330
150
100
AcDbEntity
  8
3_ANYTOOL_CUTTHROUGH_INSID
100
AcDbVertex
100
AcDb2dVertex
 10
1075.250000184332
 20
-90.39456617944961
 30
0.0000000000307274
  0
VERTEX
  5
159
330
150
100
AcDbEntity
  8
3_ANYTOOL_CUTTHROUGH_INSID
100
AcDbVertex
100
AcDb2dVertex
 10
1087.750000184332
 20
-90.39456617944234
 30
0.0000000000307274
  0
VERTEX
  5
15A
330
150
100
AcDbEntity
  8
3_ANYTOOL_CUTTHROUGH_INSID
100
AcDbVertex
100
AcDb2dVertex
 10
1087.750000184332
 20
-120.8945661793987
 30
0.0000000000307274
  0
VERTEX
  5
15B
330
150
100
AcDbEntity
  8
3_ANYTOOL_CUTTHROUGH_INSID
100
AcDbVertex
100
AcDb2dVertex
 10
1075.250000184333
 20
-120.8945661794132
 30
0.0000000000307274
  0
VERTEX
  5
15C
330
150
100
AcDbEntity
  8
3_ANYTOOL_CUTTHROUGH_INSID
100
AcDbVertex
100
AcDb2dVertex
 10
1075.250000184333
 20
-114.8945661794278
 30
0.0000000000307274
  0
SEQEND
  5
15D
330
150
100
AcDbEntity
  8
3_ANYTOOL_CUTTHROUGH_INSID
  0
POLYLINE
  5
15E
330
1F
100
AcDbEntity
  8
3_ANYTOOL_CUTTHROUGH_INSID
100
AcDb2dPolyline
 66
     1
 10
0.0
 20
0.0
 30
0.0000000000293667
 70
     1
  0
VERTEX
  5
15F
330
15E
100
AcDbEntity
  8
3_ANYTOOL_CUTTHROUGH_INSID
100
AcDbVertex
100
AcDb2dVertex
 10
925.2500002283541
 20
-96.39456618099211
 30
0.0000000000293667
  0
VERTEX
  5
160
330
15E
100
AcDbEntity
  8
3_ANYTOOL_CUTTHROUGH_INSID
100
AcDbVertex
100
AcDb2dVertex
 10
925.2500002283541
 20
-90.39456618099211
 30
0.0000000000293667
  0
VERTEX
  5
161
330
15E
100
AcDbEntity
  8
3_ANYTOOL_CUTTHROUGH_INSID
100
AcDbVertex
100
AcDb2dVertex
 10
937.7500002283532
 20
-90.39456618101394
 30
0.0000000000293667
  0
VERTEX
  5
162
330
15E
100
AcDbEntity
  8
3_ANYTOOL_CUTTHROUGH_INSID
100
AcDbVertex
100
AcDb2dVertex
 10
937.750000228385
 20
-120.8945661809703
 30
0.0000000000293667
  0
VERTEX
  5
163
330
15E
100
AcDbEntity
  8
3_ANYTOOL_CUTTHROUGH_INSID
100
AcDbVertex
100
AcDb2dVertex
 10
925.250000228385
 20
-120.8945661809557
 30
0.0000000000293667
  0
VERTEX
  5
164
330
15E
100
AcDbEntity
  8
3_ANYTOOL_CUTTHROUGH_INSID
100
AcDbVertex
100
AcDb2dVertex
 10
925.250000228385
 20
-114.8945661809557
 30
0.0000000000293667
  0
VERTEX
  5
165
330
15E
100
AcDbEntity
  8
3_ANYTOOL_CUTTHROUGH_INSID
100
AcDbVertex
100
AcDb2dVertex
 10
874.7500002283559
 20
-114.8945661810067
 30
0.0000000000293667
  0
VERTEX
  5
166
330
15E
100
AcDbEntity
  8
3_ANYTOOL_CUTTHROUGH_INSID
100
AcDbVertex
100
AcDb2dVertex
 10
874.7500002283577
 20
-120.8945661810067
 30
0.0000000000293667
  0
VERTEX
  5
167
330
15E
100
AcDbEntity
  8
3_ANYTOOL_CUTTHROUGH_INSID
100
AcDbVertex
100
AcDb2dVertex
 10
862.2500002283577
 20
-120.8945661809921
 30
0.0000000000293667
  0
VERTEX
  5
168
330
15E
100
AcDbEntity
  8
3_ANYTOOL_CUTTHROUGH_INSID
100
AcDbVertex
100
AcDb2dVertex
 10
862.2500002283568
 20
-90.39456618103577
 30
0.0000000000293667
  0
VERTEX
  5
169
330
15E
100
AcDbEntity
  8
3_ANYTOOL_CUTTHROUGH_INSID
100
AcDbVertex
100
AcDb2dVertex
 10
874.7500002283568
 20
-90.39456618104305
 30
0.0000000000293667
  0
VERTEX
  5
16A
330
15E
100
AcDbEntity
  8
3_ANYTOOL_CUTTHROUGH_INSID
100
AcDbVertex
100
AcDb2dVertex
 10
874.7500002283277
 20
-96.39456618104305
 30
0.0000000000293667
  0
SEQEND
  5
16B
330
15E
100
AcDbEntity
  8
3_ANYTOOL_CUTTHROUGH_INSID
  0
POLYLINE
  5
16C
330
1F
100
AcDbEntity
  8
3_ANYTOOL_CUTTHROUGH_INSID
100
AcDb2dPolyline
 66
     1
 10
0.0
 20
0.0
 30
0.0000000000294804
 70
     1
  0
VERTEX
  5
16D
330
16C
100
AcDbEntity
  8
3_ANYTOOL_CUTTHROUGH_INSID
100
AcDbVertex
100
AcDb2dVertex
 10
875.7500002231081
 20
57.10543381757452
 30
0.0000000000294804
  0
VERTEX
  5
16E
330
16C
100
AcDbEntity
  8
3_ANYTOOL_CUTTHROUGH_INSID
100
AcDbVertex
100
AcDb2dVertex
 10
875.7500002231063
 20
69.60543381757452
 30
0.0000000000294804
  0
VERTEX
  5
16F
330
16C
100
AcDbEntity
  8
3_ANYTOOL_CUTTHROUGH_INSID
100
AcDbVertex
100
AcDb2dVertex
 10
881.7500002231063
 20
69.60543381755997
 30
0.0000000000294804
  0
VERTEX
  5
170
330
16C
100
AcDbEntity
  8
3_ANYTOOL_CUTTHROUGH_INSID
100
AcDbVertex
100
AcDb2dVertex
 10
881.7500002230609
 20
115.1054338175891
 30
0.0000000000294804
  0
VERTEX
  5
171
330
16C
100
AcDbEntity
  8
3_ANYTOOL_CUTTHROUGH_INSID
100
AcDbVertex
100
AcDb2dVertex
 10
875.7500002230609
 20
115.1054338176036
 30
0.0000000000294804
  0
VERTEX
  5
172
330
16C
100
AcDbEntity
  8
3_ANYTOOL_CUTTHROUGH_INSID
100
AcDbVertex
100
AcDb2dVertex
 10
875.7500002230763
 20
127.6054338176036
 30
0.0000000000294804
  0
VERTEX
  5
173
330
16C
100
AcDbEntity
  8
3_ANYTOOL_CUTTHROUGH_INSID
100
AcDbVertex
100
AcDb2dVertex
 10
924.2500002230308
 20
127.6054338176036
 30
0.0000000000294804
  0
VERTEX
  5
174
330
16C
100
AcDbEntity
  8
3_ANYTOOL_CUTTHROUGH_INSID
100
AcDbVertex
100
AcDb2dVertex
 10
924.2500002230154
 20
115.1054338176036
 30
0.0000000000294804
  0
VERTEX
  5
175
330
16C
100
AcDbEntity
  8
3_ANYTOOL_CUTTHROUGH_INSID
100
AcDbVertex
100
AcDb2dVertex
 10
918.2500002230172
 20
115.1054338176182
 30
0.0000000000294804
  0
VERTEX
  5
176
330
16C
100
AcDbEntity
  8
3_ANYTOOL_CUTTHROUGH_INSID
100
AcDbVertex
100
AcDb2dVertex
 10
918.2500002230772
 20
69.60543381760363
 30
0.0000000000294804
  0
VERTEX
  5
177
330
16C
100
AcDbEntity
  8
3_ANYTOOL_CUTTHROUGH_INSID
100
AcDbVertex
100
AcDb2dVertex
 10
924.2500002230781
 20
69.60543381758907
 30
0.0000000000294804
  0
VERTEX
  5
178
330
16C
100
AcDbEntity
  8
3_ANYTOOL_CUTTHROUGH_INSID
100
AcDbVertex
100
AcDb2dVertex
 10
924.2500002230472
 20
57.10543381758907
 30
0.0000000000294804
  0
SEQEND
  5
179
330
16C
100
AcDbEntity
  8
3_ANYTOOL_CUTTHROUGH_INSID
  0
POLYLINE
  5
17B
330
1F
100
AcDbEntity
  8
4_ANYTOOL_CUTTHROUGH_OUTSI
100
AcDb2dPolyline
 66
     1
 10
0.0
 20
0.0
 30
0.0
 70
     1
  0
VERTEX
  5
17C
330
17B
100
AcDbEntity
  8
4_ANYTOOL_CUTTHROUGH_OUTSI
100
AcDbVertex
100
AcDb2dVertex
 10
-1199.750000183794
 20
111.436794381465
 30
0.0
 42
0.412073348108676
  0
VERTEX
  5
17D
330
17B
100
AcDbEntity
  8
4_ANYTOOL_CUTTHROUGH_OUTSI
100
AcDbVertex
100
AcDb2dVertex
 10
-1194.042047683325
 20
105.6869481219702
 30
0.0
  0
VERTEX
  5
17E
330
17B
100
AcDbEntity
  8
4_ANYTOOL_CUTTHROUGH_OUTSI
100
AcDbVertex
100
AcDb2dVertex
 10
-1144.082588381562
 20
123.172899474208
 30
0.0
  0
VERTEX
  5
17F
330
17B
100
AcDbEntity
  8
4_ANYTOOL_CUTTHROUGH_OUTSI
100
AcDbVertex
100
AcDb2dVertex
 10
-1144.000000183795
 20
123.1869350921698
 30
0.0
 42
-0.4142135623743709
  0
VERTEX
  5
180
330
17B
100
AcDbEntity
  8
4_ANYTOOL_CUTTHROUGH_OUTSI
100
AcDbVertex
100
AcDb2dVertex
 10
-1137.750000183797
 20
116.9369350921697
 30
0.0
  0
VERTEX
  5
181
330
17B
100
AcDbEntity
  8
4_ANYTOOL_CUTTHROUGH_OUTSI
100
AcDbVertex
100
AcDb2dVertex
 10
-1137.750000183794
 20
38.93693509216973
 30
0.0
 42
-0.4142135623735271
  0
VERTEX
  5
182
330
17B
100
AcDbEntity
  8
4_ANYTOOL_CUTTHROUGH_OUTSI
100
AcDbVertex
100
AcDb2dVertex
 10
-1144.000000183795
 20
32.68693509216337
 30
0.0
  0
VERTEX
  5
183
330
17B
100
AcDbEntity
  8
4_ANYTOOL_CUTTHROUGH_OUTSI
100
AcDbVertex
100
AcDb2dVertex
 10
-1144.082588381562
 20
32.70097071013149
 30
0.0
  0
VERTEX
  5
184
330
17B
100
AcDbEntity
  8
4_ANYTOOL_CUTTHROUGH_OUTSI
100
AcDbVertex
100
AcDb2dVertex
 10
-1194.042047683325
 20
50.18692206236294
 30
0.0
 42
0.4120733481089446
  0
VERTEX
  5
185
330
17B
100
AcDbEntity
  8
4_ANYTOOL_CUTTHROUGH_OUTSI
100
AcDbVertex
100
AcDb2dVertex
 10
-1199.750000183794
 20
44.43707580287446
 30
0.0
  0
VERTEX
  5
186
330
17B
100
AcDbEntity
  8
4_ANYTOOL_CUTTHROUGH_OUTSI
100
AcDbVertex
100
AcDb2dVertex
 10
-1199.750000183793
 20
-33.56292419712554
 30
0.0
 42
0.4120733481062803
  0
VERTEX
  5
187
330
17B
100
AcDbEntity
  8
4_ANYTOOL_CUTTHROUGH_OUTSI
100
AcDbVertex
100
AcDb2dVertex
 10
-1194.042047683323
 20
-39.31277045660931
 30
0.0
  0
VERTEX
  5
188
330
17B
100
AcDbEntity
  8
4_ANYTOOL_CUTTHROUGH_OUTSI
100
AcDbVertex
100
AcDb2dVertex
 10
-1144.082588381562
 20
-21.82681910438259
 30
0.0
  0
VERTEX
  5
189
330
17B
100
AcDbEntity
  8
4_ANYTOOL_CUTTHROUGH_OUTSI
100
AcDbVertex
100
AcDb2dVertex
 10
-1144.000000183794
 20
-21.81278348642126
 30
0.0
 42
-0.4142135623749164
  0
VERTEX
  5
18A
330
17B
100
AcDbEntity
  8
4_ANYTOOL_CUTTHROUGH_OUTSI
100
AcDbVertex
100
AcDb2dVertex
 10
-1137.750000183793
 20
-28.06278348641354
 30
0.0
  0
VERTEX
  5
18B
330
17B
100
AcDbEntity
  8
4_ANYTOOL_CUTTHROUGH_OUTSI
100
AcDbVertex
100
AcDb2dVertex
 10
-1137.7500001838
 20
-106.0627834864208
 30
0.0
 42
-0.4142135623733135
  0
VERTEX
  5
18C
330
17B
100
AcDbEntity
  8
4_ANYTOOL_CUTTHROUGH_OUTSI
100
AcDbVertex
100
AcDb2dVertex
 10
-1144.000000183815
 20
-112.3127834864172
 30
0.0
  0
VERTEX
  5
18D
330
17B
100
AcDbEntity
  8
4_ANYTOOL_CUTTHROUGH_OUTSI
100
AcDbVertex
100
AcDb2dVertex
 10
-1144.082588381582
 20
-112.2987478684594
 30
0.0
  0
VERTEX
  5
18E
330
17B
100
AcDbEntity
  8
4_ANYTOOL_CUTTHROUGH_OUTSI
100
AcDbVertex
100
AcDb2dVertex
 10
-1194.042047683331
 20
-94.81279651622754
 30
0.0
 42
0.4120733481054396
  0
VERTEX
  5
18F
330
17B
100
AcDbEntity
  8
4_ANYTOOL_CUTTHROUGH_OUTSI
100
AcDbVertex
100
AcDb2dVertex
 10
-1199.750000183832
 20
-100.5626427757161
 30
0.0
  0
VERTEX
  5
190
330
17B
100
AcDbEntity
  8
4_ANYTOOL_CUTTHROUGH_OUTSI
100
AcDbVertex
100
AcDb2dVertex
 10
-1199.750000183799
 20
-184.3945661817779
 30
0.0
  0
VERTEX
  5
191
330
17B
100
AcDbEntity
  8
4_ANYTOOL_CUTTHROUGH_OUTSI
100
AcDbVertex
100
AcDb2dVertex
 10
1199.75000018427
 20
-184.3945661817052
 30
0.0
  0
VERTEX
  5
192
330
17B
100
AcDbEntity
  8
4_ANYTOOL_CUTTHROUGH_OUTSI
100
AcDbVertex
100
AcDb2dVertex
 10
1199.750000184301
 20
-100.5626427756433
 30
0.0
 42
0.4120733481052148
  0
VERTEX
  5
193
330
17B
100
AcDbEntity
  8
4_ANYTOOL_CUTTHROUGH_OUTSI
100
AcDbVertex
100
AcDb2dVertex
 10
1194.042047683802
 20
-94.81279651615228
 30
0.0
  0
VERTEX
  5
194
330
17B
100
AcDbEntity
  8
4_ANYTOOL_CUTTHROUGH_OUTSI
100
AcDbVertex
100
AcDb2dVertex
 10
1144.082588382054
 20
-112.2987478683935
 30
0.0
  0
VERTEX
  5
195
330
17B
100
AcDbEntity
  8
4_ANYTOOL_CUTTHROUGH_OUTSI
100
AcDbVertex
100
AcDb2dVertex
 10
1144.000000184286
 20
-112.3127834863555
 30
0.0
 42
-0.4142135623743572
  0
VERTEX
  5
196
330
17B
100
AcDbEntity
  8
4_ANYTOOL_CUTTHROUGH_OUTSI
100
AcDbVertex
100
AcDb2dVertex
 10
1137.750000184274
 20
-106.0627834863553
 30
0.0
  0
VERTEX
  5
197
330
17B
100
AcDbEntity
  8
4_ANYTOOL_CUTTHROUGH_OUTSI
100
AcDbVertex
100
AcDb2dVertex
 10
1137.750000184266
 20
-28.06278348634805
 30
0.0
 42
-0.4142135623732617
  0
VERTEX
  5
198
330
17B
100
AcDbEntity
  8
4_ANYTOOL_CUTTHROUGH_OUTSI
100
AcDbVertex
100
AcDb2dVertex
 10
1144.000000184266
 20
-21.81278348635169
 30
0.0
  0
VERTEX
  5
199
330
17B
100
AcDbEntity
  8
4_ANYTOOL_CUTTHROUGH_OUTSI
100
AcDbVertex
100
AcDb2dVertex
 10
1144.082588382034
 20
-21.8268191043101
 30
0.0
  0
VERTEX
  5
19A
330
17B
100
AcDbEntity
  8
4_ANYTOOL_CUTTHROUGH_OUTSI
100
AcDbVertex
100
AcDb2dVertex
 10
1194.042047683796
 20
-39.31277045654154
 30
0.0
 42
0.4120733481062307
  0
VERTEX
  5
19B
330
17B
100
AcDbEntity
  8
4_ANYTOOL_CUTTHROUGH_OUTSI
100
AcDbVertex
100
AcDb2dVertex
 10
1199.750000184269
 20
-33.56292419705278
 30
0.0
  0
VERTEX
  5
19C
330
17B
100
AcDbEntity
  8
4_ANYTOOL_CUTTHROUGH_OUTSI
100
AcDbVertex
100
AcDb2dVertex
 10
1199.750000184268
 20
44.43707580294722
 30
0.0
 42
0.4120733481054031
  0
VERTEX
  5
19D
330
17B
100
AcDbEntity
  8
4_ANYTOOL_CUTTHROUGH_OUTSI
100
AcDbVertex
100
AcDb2dVertex
 10
1194.042047683796
 20
50.18692206243638
 30
0.0
  0
VERTEX
  5
19E
330
17B
100
AcDbEntity
  8
4_ANYTOOL_CUTTHROUGH_OUTSI
100
AcDbVertex
100
AcDb2dVertex
 10
1144.082588382035
 20
32.70097071020427
 30
0.0
  0
VERTEX
  5
19F
330
17B
100
AcDbEntity
  8
4_ANYTOOL_CUTTHROUGH_OUTSI
100
AcDbVertex
100
AcDb2dVertex
 10
1144.00000018427
 20
32.68693509224293
 30
0.0
 42
-0.414213562374062
  0
VERTEX
  5
1A0
330
17B
100
AcDbEntity
  8
4_ANYTOOL_CUTTHROUGH_OUTSI
100
AcDbVertex
100
AcDb2dVertex
 10
1137.750000184265
 20
38.93693509224249
 30
0.0
  0
VERTEX
  5
1A1
330
17B
100
AcDbEntity
  8
4_ANYTOOL_CUTTHROUGH_OUTSI
100
AcDbVertex
100
AcDb2dVertex
 10
1137.75000018427
 20
116.9369350922425
 30
0.0
 42
-0.41421356237402
  0
VERTEX
  5
1A2
330
17B
100
AcDbEntity
  8
4_ANYTOOL_CUTTHROUGH_OUTSI
100
AcDbVertex
100
AcDb2dVertex
 10
1144.00000018427
 20
123.186935092237
 30
0.0
  0
VERTEX
  5
1A3
330
17B
100
AcDbEntity
  8
4_ANYTOOL_CUTTHROUGH_OUTSI
100
AcDbVertex
100
AcDb2dVertex
 10
1144.082588382037
 20
123.172899474281
 30
0.0
  0
VERTEX
  5
1A4
330
17B
100
AcDbEntity
  8
4_ANYTOOL_CUTTHROUGH_OUTSI
100
AcDbVertex
100
AcDb2dVertex
 10
1194.0420476838
 20
105.6869481220493
 30
0.0
 42
0.412073348108821
  0
VERTEX
  5
1A5
330
17B
100
AcDbEntity
  8
4_ANYTOOL_CUTTHROUGH_OUTSI
100
AcDbVertex
100
AcDb2dVertex
 10
1199.750000184266
 20
111.4367943815378
 30
0.0
  0
VERTEX
  5
1A6
330
17B
100
AcDbEntity
  8
4_ANYTOOL_CUTTHROUGH_OUTSI
100
AcDbVertex
100
AcDb2dVertex
 10
1199.750000184297
 20
195.1054338189497
 30
0.0
  0
VERTEX
  5
1A7
330
17B
100
AcDbEntity
  8
4_ANYTOOL_CUTTHROUGH_OUTSI
100
AcDbVertex
100
AcDb2dVertex
 10
1170.250000184299
 20
195.1054338189424
 30
0.0
  0
VERTEX
  5
1A8
330
17B
100
AcDbEntity
  8
4_ANYTOOL_CUTTHROUGH_OUTSI
100
AcDbVertex
100
AcDb2dVertex
 10
1170.250000184299
 20
171.3554338189715
 30
0.0
 42
-0.4142135623879401
  0
VERTEX
  5
1A9
330
17B
100
AcDbEntity
  8
4_ANYTOOL_CUTTHROUGH_OUTSI
100
AcDbVertex
100
AcDb2dVertex
 10
1170.000000184299
 20
171.1054338189697
 30
0.0
  0
VERTEX
  5
1AA
330
17B
100
AcDbEntity
  8
4_ANYTOOL_CUTTHROUGH_OUTSI
100
AcDbVertex
100
AcDb2dVertex
 10
1158.000000184299
 20
171.1054338189715
 30
0.0
 42
-0.4142135623772871
  0
VERTEX
  5
1AB
330
17B
100
AcDbEntity
  8
4_ANYTOOL_CUTTHROUGH_OUTSI
100
AcDbVertex
100
AcDb2dVertex
 10
1157.750000184296
 20
171.3554338189715
 30
0.0
  0
VERTEX
  5
1AC
330
17B
100
AcDbEntity
  8
4_ANYTOOL_CUTTHROUGH_OUTSI
100
AcDbVertex
100
AcDb2dVertex
 10
1157.750000184299
 20
177.1054338189715
 30
0.0
  0
VERTEX
  5
1AD
330
17B
100
AcDbEntity
  8
4_ANYTOOL_CUTTHROUGH_OUTSI
100
AcDbVertex
100
AcDb2dVertex
 10
1012.250000228288
 20
177.1054338180693
 30
0.0
  0
VERTEX
  5
1AE
330
17B
100
AcDbEntity
  8
4_ANYTOOL_CUTTHROUGH_OUTSI
100
AcDbVertex
100
AcDb2dVertex
 10
1012.250000228288
 20
171.3554338180693
 30
0.0
 42
-0.4142135624017868
  0
VERTEX
  5
1AF
330
17B
100
AcDbEntity
  8
4_ANYTOOL_CUTTHROUGH_OUTSI
100
AcDbVertex
100
AcDb2dVertex
 10
1012.000000228288
 20
171.1054338180647
 30
0.0
  0
VERTEX
  5
1B0
330
17B
100
AcDbEntity
  8
4_ANYTOOL_CUTTHROUGH_OUTSI
100
AcDbVertex
100
AcDb2dVertex
 10
1000.000000228288
 20
171.1054338180838
 30
0.0
 42
-0.414213562363492
  0
VERTEX
  5
1B1
330
17B
100
AcDbEntity
  8
4_ANYTOOL_CUTTHROUGH_OUTSI
100
AcDbVertex
100
AcDb2dVertex
 10
999.7500002282814
 20
171.3554338180838
 30
0.0
  0
VERTEX
  5
1B2
330
17B
100
AcDbEntity
  8
4_ANYTOOL_CUTTHROUGH_OUTSI
100
AcDbVertex
100
AcDb2dVertex
 10
999.7500002282859
 20
195.1054338180838
 30
0.0
  0
VERTEX
  5
1B3
330
17B
100
AcDbEntity
  8
4_ANYTOOL_CUTTHROUGH_OUTSI
100
AcDbVertex
100
AcDb2dVertex
 10
800.2500002282895
 20
195.1054338180693
 30
0.0
  0
VERTEX
  5
1B4
330
17B
100
AcDbEntity
  8
4_ANYTOOL_CUTTHROUGH_OUTSI
100
AcDbVertex
100
AcDb2dVertex
 10
800.2500002282914
 20
171.3554338180766
 30
0.0
 42
-0.4142135623516768
  0
VERTEX
  5
1B5
330
17B
100
AcDbEntity
  8
4_ANYTOOL_CUTTHROUGH_OUTSI
100
AcDbVertex
100
AcDb2dVertex
 10
800.0000002282914
 20
171.1054338180729
 30
0.0
  0
VERTEX
  5
1B6
330
17B
100
AcDbEntity
  8
4_ANYTOOL_CUTTHROUGH_OUTSI
100
AcDbVertex
100
AcDb2dVertex
 10
788.0000002282914
 20
171.1054338180766
 30
0.0
 42
-0.4142135623624267
  0
VERTEX
  5
1B7
330
17B
100
AcDbEntity
  8
4_ANYTOOL_CUTTHROUGH_OUTSI
100
AcDbVertex
100
AcDb2dVertex
 10
787.7500002283005
 20
171.3554338180766
 30
0.0
  0
VERTEX
  5
1B8
330
17B
100
AcDbEntity
  8
4_ANYTOOL_CUTTHROUGH_OUTSI
100
AcDbVertex
100
AcDb2dVertex
 10
787.7500002282914
 20
177.1054338180766
 30
0.0
  0
VERTEX
  5
1B9
330
17B
100
AcDbEntity
  8
4_ANYTOOL_CUTTHROUGH_OUTSI
100
AcDbVertex
100
AcDb2dVertex
 10
642.2500001142589
 20
177.1054338187678
 30
0.0
  0
VERTEX
  5
1BA
330
17B
100
AcDbEntity
  8
4_ANYTOOL_CUTTHROUGH_OUTSI
100
AcDbVertex
100
AcDb2dVertex
 10
642.2500001142444
 20
171.3554338187678
 30
0.0
 42
-0.414213562374131
  0
VERTEX
  5
1BB
330
17B
100
AcDbEntity
  8
4_ANYTOOL_CUTTHROUGH_OUTSI
100
AcDbVertex
100
AcDb2dVertex
 10
642.0000001142444
 20
171.1054338187687
 30
0.0
  0
VERTEX
  5
1BC
330
17B
100
AcDbEntity
  8
4_ANYTOOL_CUTTHROUGH_OUTSI
100
AcDbVertex
100
AcDb2dVertex
 10
630.0000001142444
 20
171.1054338187678
 30
0.0
 42
-0.4142135623849664
  0
VERTEX
  5
1BD
330
17B
100
AcDbEntity
  8
4_ANYTOOL_CUTTHROUGH_OUTSI
100
AcDbVertex
100
AcDb2dVertex
 10
629.7500001142489
 20
171.3554338187678
 30
0.0
  0
VERTEX
  5
1BE
330
17B
100
AcDbEntity
  8
4_ANYTOOL_CUTTHROUGH_OUTSI
100
AcDbVertex
100
AcDb2dVertex
 10
629.7500001142571
 20
195.1054338187678
 30
0.0
  0
VERTEX
  5
1BF
330
17B
100
AcDbEntity
  8
4_ANYTOOL_CUTTHROUGH_OUTSI
100
AcDbVertex
100
AcDb2dVertex
 10
570.2500001142589
 20
195.1054338187896
 30
0.0
  0
VERTEX
  5
1C0
330
17B
100
AcDbEntity
  8
4_ANYTOOL_CUTTHROUGH_OUTSI
100
AcDbVertex
100
AcDb2dVertex
 10
570.2500001142462
 20
171.3554338187896
 30
0.0
 42
-0.4142135623931948
  0
VERTEX
  5
1C1
330
17B
100
AcDbEntity
  8
4_ANYTOOL_CUTTHROUGH_OUTSI
100
AcDbVertex
100
AcDb2dVertex
 10
570.0000001142453
 20
171.1054338187914
 30
0.0
  0
VERTEX
  5
1C2
330
17B
100
AcDbEntity
  8
4_ANYTOOL_CUTTHROUGH_OUTSI
100
AcDbVertex
100
AcDb2dVertex
 10
558.0000001142462
 20
171.1054338188114
 30
0.0
 42
-0.4142135623442849
  0
VERTEX
  5
1C3
330
17B
100
AcDbEntity
  8
4_ANYTOOL_CUTTHROUGH_OUTSI
100
AcDbVertex
100
AcDb2dVertex
 10
557.7500001142416
 20
171.3554338188114
 30
0.0
  0
VERTEX
  5
1C4
330
17B
100
AcDbEntity
  8
4_ANYTOOL_CUTTHROUGH_OUTSI
100
AcDbVertex
100
AcDb2dVertex
 10
557.7500001142589
 20
177.1054338188114
 30
0.0
  0
VERTEX
  5
1C5
330
17B
100
AcDbEntity
  8
4_ANYTOOL_CUTTHROUGH_OUTSI
100
AcDbVertex
100
AcDb2dVertex
 10
412.2500001142662
 20
177.1054338187605
 30
0.0
  0
VERTEX
  5
1C6
330
17B
100
AcDbEntity
  8
4_ANYTOOL_CUTTHROUGH_OUTSI
100
AcDbVertex
100
AcDb2dVertex
 10
412.2500001142662
 20
171.3554338187605
 30
0.0
 42
-0.4142135623698928
  0
VERTEX
  5
1C7
330
17B
100
AcDbEntity
  8
4_ANYTOOL_CUTTHROUGH_OUTSI
100
AcDbVertex
100
AcDb2dVertex
 10
412.0000001142653
 20
171.1054338187569
 30
0.0
  0
VERTEX
  5
1C8
330
17B
100
AcDbEntity
  8
4_ANYTOOL_CUTTHROUGH_OUTSI
100
AcDbVertex
100
AcDb2dVertex
 10
400.0000001142662
 20
171.1054338187751
 30
0.0
 42
-0.4142135623859282
  0
VERTEX
  5
1C9
330
17B
100
AcDbEntity
  8
4_ANYTOOL_CUTTHROUGH_OUTSI
100
AcDbVertex
100
AcDb2dVertex
 10
399.7500001142698
 20
171.3554338187751
 30
0.0
  0
VERTEX
  5
1CA
330
17B
100
AcDbEntity
  8
4_ANYTOOL_CUTTHROUGH_OUTSI
100
AcDbVertex
100
AcDb2dVertex
 10
399.7500001142644
 20
195.1054338187751
 30
0.0
  0
VERTEX
  5
1CB
330
17B
100
AcDbEntity
  8
4_ANYTOOL_CUTTHROUGH_OUTSI
100
AcDbVertex
100
AcDb2dVertex
 10
200.250000114268
 20
195.1054338187605
 30
0.0
  0
VERTEX
  5
1CC
330
17B
100
AcDbEntity
  8
4_ANYTOOL_CUTTHROUGH_OUTSI
100
AcDbVertex
100
AcDb2dVertex
 10
200.2500001142698
 20
171.3554338187678
 30
0.0
 42
-0.4142135623742016
  0
VERTEX
  5
1CD
330
17B
100
AcDbEntity
  8
4_ANYTOOL_CUTTHROUGH_OUTSI
100
AcDbVertex
100
AcDb2dVertex
 10
200.0000001142698
 20
171.1054338187687
 30
0.0
  0
VERTEX
  5
1CE
330
17B
100
AcDbEntity
  8
4_ANYTOOL_CUTTHROUGH_OUTSI
100
AcDbVertex
100
AcDb2dVertex
 10
188.0000001142698
 20
171.1054338187678
 30
0.0
 42
-0.4142135623869526
  0
VERTEX
  5
1CF
330
17B
100
AcDbEntity
  8
4_ANYTOOL_CUTTHROUGH_OUTSI
100
AcDbVertex
100
AcDb2dVertex
 10
187.7500001142726
 20
171.3554338187678
 30
0.0
  0
VERTEX
  5
1D0
330
17B
100
AcDbEntity
  8
4_ANYTOOL_CUTTHROUGH_OUTSI
100
AcDbVertex
100
AcDb2dVertex
 10
187.7500001142698
 20
177.1054338187678
 30
0.0
  0
VERTEX
  5
1D1
330
17B
100
AcDbEntity
  8
4_ANYTOOL_CUTTHROUGH_OUTSI
100
AcDbVertex
100
AcDb2dVertex
 10
42.25000000023556
 20
177.1054338194663
 30
0.0
  0
VERTEX
  5
1D2
330
17B
100
AcDbEntity
  8
4_ANYTOOL_CUTTHROUGH_OUTSI
100
AcDbVertex
100
AcDb2dVertex
 10
42.25000000022283
 20
171.3554338194663
 30
0.0
 42
-0.4142135623763011
  0
VERTEX
  5
1D3
330
17B
100
AcDbEntity
  8
4_ANYTOOL_CUTTHROUGH_OUTSI
100
AcDbVertex
100
AcDb2dVertex
 10
42.00000000022283
 20
171.105433819469
 30
0.0
  0
VERTEX
  5
1D4
330
17B
100
AcDbEntity
  8
4_ANYTOOL_CUTTHROUGH_OUTSI
100
AcDbVertex
100
AcDb2dVertex
 10
30.00000000022283
 20
171.1054338194663
 30
0.0
 42
-0.4142135623730716
  0
VERTEX
  5
1D5
330
17B
100
AcDbEntity
  8
4_ANYTOOL_CUTTHROUGH_OUTSI
100
AcDbVertex
100
AcDb2dVertex
 10
29.75000000022283
 20
171.3554338194663
 30
0.0
  0
VERTEX
  5
1D6
330
17B
100
AcDbEntity
  8
4_ANYTOOL_CUTTHROUGH_OUTSI
100
AcDbVertex
100
AcDb2dVertex
 10
29.75000000023556
 20
195.1054338194663
 30
0.0
  0
VERTEX
  5
1D7
330
17B
100
AcDbEntity
  8
4_ANYTOOL_CUTTHROUGH_OUTSI
100
AcDbVertex
100
AcDb2dVertex
 10
-29.74999999976262
 20
195.1054338194881
 30
0.0
  0
VERTEX
  5
1D8
330
17B
100
AcDbEntity
  8
4_ANYTOOL_CUTTHROUGH_OUTSI
100
AcDbVertex
100
AcDb2dVertex
 10
-29.74999999977535
 20
171.3554338194881
 30
0.0
 42
-0.4142135623954679
  0
VERTEX
  5
1D9
330
17B
100
AcDbEntity
  8
4_ANYTOOL_CUTTHROUGH_OUTSI
100
AcDbVertex
100
AcDb2dVertex
 10
-29.99999999977626
 20
171.1054338194917
 30
0.0
  0
VERTEX
  5
1DA
330
17B
100
AcDbEntity
  8
4_ANYTOOL_CUTTHROUGH_OUTSI
100
AcDbVertex
100
AcDb2dVertex
 10
-41.99999999977535
 20
171.1054338195099
 30
0.0
 42
-0.4142135623571038
  0
VERTEX
  5
1DB
330
17B
100
AcDbEntity
  8
4_ANYTOOL_CUTTHROUGH_OUTSI
100
AcDbVertex
100
AcDb2dVertex
 10
-42.24999999977626
 20
171.3554338195099
 30
0.0
  0
VERTEX
  5
1DC
330
17B
100
AcDbEntity
  8
4_ANYTOOL_CUTTHROUGH_OUTSI
100
AcDbVertex
100
AcDb2dVertex
 10
-42.24999999976262
 20
177.1054338195099
 30
0.0
  0
VERTEX
  5
1DD
330
17B
100
AcDbEntity
  8
4_ANYTOOL_CUTTHROUGH_OUTSI
100
AcDbVertex
100
AcDb2dVertex
 10
-187.7499999997553
 20
177.1054338194517
 30
0.0
  0
VERTEX
  5
1DE
330
17B
100
AcDbEntity
  8
4_ANYTOOL_CUTTHROUGH_OUTSI
100
AcDbVertex
100
AcDb2dVertex
 10
-187.7499999997553
 20
171.3554338194517
 30
0.0
 42
-0.4142135623752044
  0
VERTEX
  5
1DF
330
17B
100
AcDbEntity
  8
4_ANYTOOL_CUTTHROUGH_OUTSI
100
AcDbVertex
100
AcDb2dVertex
 10
-187.9999999997563
 20
171.1054338194526
 30
0.0
  0
VERTEX
  5
1E0
330
17B
100
AcDbEntity
  8
4_ANYTOOL_CUTTHROUGH_OUTSI
100
AcDbVertex
100
AcDb2dVertex
 10
-199.9999999997553
 20
171.1054338194663
 30
0.0
 42
-0.414213562375191
  0
VERTEX
  5
1E1
330
17B
100
AcDbEntity
  8
4_ANYTOOL_CUTTHROUGH_OUTSI
100
AcDbVertex
100
AcDb2dVertex
 10
-200.2499999997572
 20
171.3554338194663
 30
0.0
  0
VERTEX
  5
1E2
330
17B
100
AcDbEntity
  8
4_ANYTOOL_CUTTHROUGH_OUTSI
100
AcDbVertex
100
AcDb2dVertex
 10
-200.2499999997572
 20
195.1054338194663
 30
0.0
  0
VERTEX
  5
1E3
330
17B
100
AcDbEntity
  8
4_ANYTOOL_CUTTHROUGH_OUTSI
100
AcDbVertex
100
AcDb2dVertex
 10
-399.7499999997535
 20
195.1054338194517
 30
0.0
  0
VERTEX
  5
1E4
330
17B
100
AcDbEntity
  8
4_ANYTOOL_CUTTHROUGH_OUTSI
100
AcDbVertex
100
AcDb2dVertex
 10
-399.7499999997517
 20
171.355433819459
 30
0.0
 42
-0.4142135623528914
  0
VERTEX
  5
1E5
330
17B
100
AcDbEntity
  8
4_ANYTOOL_CUTTHROUGH_OUTSI
100
AcDbVertex
100
AcDb2dVertex
 10
-399.9999999997517
 20
171.1054338194563
 30
0.0
  0
VERTEX
  5
1E6
330
17B
100
AcDbEntity
  8
4_ANYTOOL_CUTTHROUGH_OUTSI
100
AcDbVertex
100
AcDb2dVertex
 10
-411.9999999997517
 20
171.105433819459
 30
0.0
 42
-0.4142135623539465
  0
VERTEX
  5
1E7
330
17B
100
AcDbEntity
  8
4_ANYTOOL_CUTTHROUGH_OUTSI
100
AcDbVertex
100
AcDb2dVertex
 10
-412.2499999997499
 20
171.355433819459
 30
0.0
  0
VERTEX
  5
1E8
330
17B
100
AcDbEntity
  8
4_ANYTOOL_CUTTHROUGH_OUTSI
100
AcDbVertex
100
AcDb2dVertex
 10
-412.2499999997517
 20
177.105433819459
 30
0.0
  0
VERTEX
  5
1E9
330
17B
100
AcDbEntity
  8
4_ANYTOOL_CUTTHROUGH_OUTSI
100
AcDbVertex
100
AcDb2dVertex
 10
-557.7500001137851
 20
177.1054338201575
 30
0.0
  0
VERTEX
  5
1EA
330
17B
100
AcDbEntity
  8
4_ANYTOOL_CUTTHROUGH_OUTSI
100
AcDbVertex
100
AcDb2dVertex
 10
-557.7500001137987
 20
171.3554338201575
 30
0.0
 42
-0.4142135623551419
  0
VERTEX
  5
1EB
330
17B
100
AcDbEntity
  8
4_ANYTOOL_CUTTHROUGH_OUTSI
100
AcDbVertex
100
AcDb2dVertex
 10
-558.0000001137987
 20
171.1054338201566
 30
0.0
  0
VERTEX
  5
1EC
330
17B
100
AcDbEntity
  8
4_ANYTOOL_CUTTHROUGH_OUTSI
100
AcDbVertex
100
AcDb2dVertex
 10
-570.0000001137987
 20
171.1054338201575
 30
0.0
 42
-0.4142135623516897
  0
VERTEX
  5
1ED
330
17B
100
AcDbEntity
  8
4_ANYTOOL_CUTTHROUGH_OUTSI
100
AcDbVertex
100
AcDb2dVertex
 10
-570.2500001137951
 20
171.3554338201575
 30
0.0
  0
VERTEX
  5
1EE
330
17B
100
AcDbEntity
  8
4_ANYTOOL_CUTTHROUGH_OUTSI
100
AcDbVertex
100
AcDb2dVertex
 10
-570.250000113786
 20
195.1054338201575
 30
0.0
  0
VERTEX
  5
1EF
330
17B
100
AcDbEntity
  8
4_ANYTOOL_CUTTHROUGH_OUTSI
100
AcDbVertex
100
AcDb2dVertex
 10
-629.7500001137842
 20
195.1054338201793
 30
0.0
  0
VERTEX
  5
1F0
330
17B
100
AcDbEntity
  8
4_ANYTOOL_CUTTHROUGH_OUTSI
100
AcDbVertex
100
AcDb2dVertex
 10
-629.7500001137969
 20
171.3554338201793
 30
0.0
 42
-0.4142135624168948
  0
VERTEX
  5
1F1
330
17B
100
AcDbEntity
  8
4_ANYTOOL_CUTTHROUGH_OUTSI
100
AcDbVertex
100
AcDb2dVertex
 10
-630.0000001137978
 20
171.105433820172
 30
0.0
  0
VERTEX
  5
1F2
330
17B
100
AcDbEntity
  8
4_ANYTOOL_CUTTHROUGH_OUTSI
100
AcDbVertex
100
AcDb2dVertex
 10
-642.0000001137969
 20
171.1054338202011
 30
0.0
 42
-0.414213562365712
  0
VERTEX
  5
1F3
330
17B
100
AcDbEntity
  8
4_ANYTOOL_CUTTHROUGH_OUTSI
100
AcDbVertex
100
AcDb2dVertex
 10
-642.2500001137905
 20
171.3554338202011
 30
0.0
  0
VERTEX
  5
1F4
330
17B
100
AcDbEntity
  8
4_ANYTOOL_CUTTHROUGH_OUTSI
100
AcDbVertex
100
AcDb2dVertex
 10
-642.2500001137842
 20
177.1054338202011
 30
0.0
  0
VERTEX
  5
1F5
330
17B
100
AcDbEntity
  8
4_ANYTOOL_CUTTHROUGH_OUTSI
100
AcDbVertex
100
AcDb2dVertex
 10
-787.7500001137769
 20
177.1054338201429
 30
0.0
  0
VERTEX
  5
1F6
330
17B
100
AcDbEntity
  8
4_ANYTOOL_CUTTHROUGH_OUTSI
100
AcDbVertex
100
AcDb2dVertex
 10
-787.7500001137769
 20
171.3554338201429
 30
0.0
 42
-0.4142135623603414
  0
VERTEX
  5
1F7
330
17B
100
AcDbEntity
  8
4_ANYTOOL_CUTTHROUGH_OUTSI
100
AcDbVertex
100
AcDb2dVertex
 10
-788.0000001137778
 20
171.1054338201457
 30
0.0
  0
VERTEX
  5
1F8
330
17B
100
AcDbEntity
  8
4_ANYTOOL_CUTTHROUGH_OUTSI
100
AcDbVertex
100
AcDb2dVertex
 10
-800.0000001137769
 20
171.1054338201575
 30
0.0
 42
-0.4142135623516897
  0
VERTEX
  5
1F9
330
17B
100
AcDbEntity
  8
4_ANYTOOL_CUTTHROUGH_OUTSI
100
AcDbVertex
100
AcDb2dVertex
 10
-800.2500001137732
 20
171.3554338201575
 30
0.0
  0
VERTEX
  5
1FA
330
17B
100
AcDbEntity
  8
4_ANYTOOL_CUTTHROUGH_OUTSI
100
AcDbVertex
100
AcDb2dVertex
 10
-800.2500001137787
 20
195.1054338201575
 30
0.0
  0
VERTEX
  5
1FB
330
17B
100
AcDbEntity
  8
4_ANYTOOL_CUTTHROUGH_OUTSI
100
AcDbVertex
100
AcDb2dVertex
 10
-999.7500001137751
 20
195.1054338201429
 30
0.0
  0
VERTEX
  5
1FC
330
17B
100
AcDbEntity
  8
4_ANYTOOL_CUTTHROUGH_OUTSI
100
AcDbVertex
100
AcDb2dVertex
 10
-999.7500001137732
 20
171.3554338201502
 30
0.0
 42
-0.4142135623475683
  0
VERTEX
  5
1FD
330
17B
100
AcDbEntity
  8
4_ANYTOOL_CUTTHROUGH_OUTSI
100
AcDbVertex
100
AcDb2dVertex
 10
-1000.000000113773
 20
171.1054338201575
 30
0.0
  0
VERTEX
  5
1FE
330
17B
100
AcDbEntity
  8
4_ANYTOOL_CUTTHROUGH_OUTSI
100
AcDbVertex
100
AcDb2dVertex
 10
-1012.000000113773
 20
171.1054338201502
 30
0.0
 42
-0.414213562343245
  0
VERTEX
  5
1FF
330
17B
100
AcDbEntity
  8
4_ANYTOOL_CUTTHROUGH_OUTSI
100
AcDbVertex
100
AcDb2dVertex
 10
-1012.250000113777
 20
171.3554338201502
 30
0.0
  0
VERTEX
  5
200
330
17B
100
AcDbEntity
  8
4_ANYTOOL_CUTTHROUGH_OUTSI
100
AcDbVertex
100
AcDb2dVertex
 10
-1012.250000113773
 20
177.1054338201502
 30
0.0
  0
VERTEX
  5
201
330
17B
100
AcDbEntity
  8
4_ANYTOOL_CUTTHROUGH_OUTSI
100
AcDbVertex
100
AcDb2dVertex
 10
-1157.750000183824
 20
177.105433818906
 30
0.0
  0
VERTEX
  5
202
330
17B
100
AcDbEntity
  8
4_ANYTOOL_CUTTHROUGH_OUTSI
100
AcDbVertex
100
AcDb2dVertex
 10
-1157.750000183824
 20
171.355433818906
 30
0.0
 42
-0.4142135623666339
  0
VERTEX
  5
203
330
17B
100
AcDbEntity
  8
4_ANYTOOL_CUTTHROUGH_OUTSI
100
AcDbVertex
100
AcDb2dVertex
 10
-1158.000000183824
 20
171.1054338189006
 30
0.0
  0
VERTEX
  5
204
330
17B
100
AcDbEntity
  8
4_ANYTOOL_CUTTHROUGH_OUTSI
100
AcDbVertex
100
AcDb2dVertex
 10
-1170.000000183824
 20
171.105433818906
 30
0.0
 42
-0.4142135623508771
  0
VERTEX
  5
205
330
17B
100
AcDbEntity
  8
4_ANYTOOL_CUTTHROUGH_OUTSI
100
AcDbVertex
100
AcDb2dVertex
 10
-1170.25000018382
 20
171.355433818906
 30
0.0
  0
VERTEX
  5
206
330
17B
100
AcDbEntity
  8
4_ANYTOOL_CUTTHROUGH_OUTSI
100
AcDbVertex
100
AcDb2dVertex
 10
-1170.250000183824
 20
195.1054338188769
 30
0.0
  0
VERTEX
  5
207
330
17B
100
AcDbEntity
  8
4_ANYTOOL_CUTTHROUGH_OUTSI
100
AcDbVertex
100
AcDb2dVertex
 10
-1199.750000183822
 20
195.1054338188769
 30
0.0
  0
SEQEND
  5
208
330
17B
100
AcDbEntity
  8
4_ANYTOOL_CUTTHROUGH_OUTSI
  0
ENDSEC
  0
SECTION
  2
OBJECTS
  0
DICTIONARY
  5
C
330
0
100
AcDbDictionary
  3
ACAD_GROUP
350
D
  3
ACAD_LAYOUT
350
1A
  3
ACAD_MATERIAL
350
43
  3
ACAD_MLEADERSTYLE
350
5B
  3
ACAD_MLINESTYLE
350
17
  3
ACAD_PLOTSETTINGS
350
19
  3
ACAD_SCALELIST
350
47
  3
ACAD_VISUALSTYLE
350
2A
  3
ACDBHEADERROUNDTRIPXREC
350
209
  3
ACDBVARIABLEDICTIONARY
350
22A
  3
DWGPROPS
350
231
  0
DICTIONARY
  5
232
330
8
100
AcDbDictionary
280
     1
  3
ACAD_XREC_ROUNDTRIP
360
233
  0
DICTIONARY
  5
D
102
{ACAD_REACTORS
330
C
102
}
330
C
100
AcDbDictionary
  0
DICTIONARY
  5
1A
102
{ACAD_REACTORS
330
C
102
}
330
C
100
AcDbDictionary
  0
DICTIONARY
  5
43
102
{ACAD_REACTORS
330
C
102
}
330
C
100
AcDbDictionary
  3
BYBLOCK
350
45
  3
BYLAYER
350
44
  3
GLOBAL
350
46
  0
DICTIONARY
  5
5B
102
{ACAD_REACTORS
330
C
102
}
330
C
100
AcDbDictionary
  3
STANDARD
350
5C
  0
DICTIONARY
  5
17
102
{ACAD_REACTORS
330
C
102
}
330
C
100
AcDbDictionary
  3
STANDARD
350
18
  0
DICTIONARY
  5
19
102
{ACAD_REACTORS
330
C
102
}
330
C
100
AcDbDictionary
  0
DICTIONARY
  5
47
102
{ACAD_REACTORS
330
C
102
}
330
C
100
AcDbDictionary
  3
A0
350
48
  3
A1
350
49
  3
A2
350
4A
  3
A3
350
4B
  3
A4
350
4C
  3
A5
350
4D
  3
A6
350
4E
  3
A7
350
4F
  3
A8
350
50
  3
A9
350
51
  3
B1
350
52
  3
B2
350
53
  3
B3
350
54
  3
B4
350
55
  3
B5
350
56
  3
B6
350
57
  3
B7
350
58
  0
DICTIONARY
  5
2A
102
{ACAD_REACTORS
330
C
102
}
330
C
100
AcDbDictionary
  3
2DWIREFRAME
350
2F
  3
BASIC
350
32
  3
BRIGHTEN
350
36
  3
COLORCHANGE
350
3A
  3
CONCEPTUAL
350
34
  3
DIM
350
35
  3
EDGECOLOROFF
350
3D
  3
FACEPATTERN
350
39
  3
FLAT
350
2B
  3
FLATWITHEDGES
350
2C
  3
GOURAUD
350
2D
  3
GOURAUDWITHEDGES
350
2E
  3
HIDDEN
350
31
  3
JITTEROFF
350
3B
  3
LINEPATTERN
350
38
  3
OVERHANGOFF
350
3C
  3
REALISTIC
350
33
  3
SHADED
350
42
  3
SHADED_WITH_EDGES
350
41
  3
SHADES_OF_GRAY
350
3E
  3
SKETCHY
350
3F
  3
THICKEN
350
37
  3
WIREFRAME
350
30
  3
X-RAY
350
40
  0
DICTIONARY
  5
209
102
{ACAD_REACTORS
330
C
102
}
330
C
100
AcDbDictionary
  3
CEPSNID
350
213
  3
CEPSNTYPE
350
212
  3
DIMSTYLEDATA
350
229
  3
FINGERPRINTGUID
350
214
  3
HYPERLINKBASE
350
20C
  3
INSUNITS
350
211
  3
LAYOUTDICT
350
20E
  3
LWETCUNION
350
210
  3
PLOTSETDICT
350
20F
  3
PSVPSCALE
350
216
  3
PUCSBASE
350
219
  3
PUCSORGBACK
350
21F
  3
PUCSORGBOTTOM
350
21B
  3
PUCSORGFRONT
350
21E
  3
PUCSORGLEFT
350
21C
  3
PUCSORGRIGHT
350
21D
  3
PUCSORGTOP
350
21A
  3
PUCSORTHOREF
350
217
  3
PUCSORTHOVIEW
350
218
  3
STYLESHEET
350
20D
  3
TSTACKALIGN
350
20A
  3
TSTACKSIZE
350
20B
  3
UCSBASE
350
222
  3
UCSORGBACK
350
228
  3
UCSORGBOTTOM
350
224
  3
UCSORGFRONT
350
227
  3
UCSORGLEFT
350
225
  3
UCSORGRIGHT
350
226
  3
UCSORGTOP
350
223
  3
UCSORTHOREF
350
220
  3
UCSORTHOVIEW
350
221
  3
VERSIONGUID
350
215
  0
DICTIONARY
  5
22A
102
{ACAD_REACTORS
330
C
102
}
330
C
100
AcDbDictionary
  3
CANNOSCALE
350
234
  3
CMLEADERSTYLE
350
22C
  3
CTABLESTYLE
350
22B
  3
DIMASSOC
350
22F
  3
HIDETEXT
350
230
  3
MSLTSCALE
350
235
  0
XRECORD
  5
231
102
{ACAD_REACTORS
330
C
102
}
330
C
100
AcDbXrecord
  1
DWGPROPS COOKIE
  2

  3

  4

  6

  7

  8
clayt
  9

300
=
301
=
302
=
303
=
304
=
305
=
306
=
307
=
308
=
309
=
 40
0.0
 41
2461249.39555397
 42
2461249.395554039
  1

 90
        0
  0
XRECORD
  5
233
102
{ACAD_REACTORS
330
232
102
}
330
232
100
AcDbXrecord
102
VTR_0.000_0.000_1.000_1.000_VISUALSTYLE
340
2F
102
VTR_0.000_0.000_1.000_1.000_GRIDDISPLAY
 70
     3
102
VTR_0.000_0.000_1.000_1.000_GRIDMAJOR
 70
     5
102
VTR_0.000_0.000_1.000_1.000_DEFAULTLIGHTING
280
     1
102
VTR_0.000_0.000_1.000_1.000_DEFAULTLIGHTINGTYPE
 70
     1
102
VTR_0.000_0.000_1.000_1.000_BRIGHTNESS
141
0.0
102
VTR_0.000_0.000_1.000_1.000_CONTRAST
142
0.0
  0
MATERIAL
  5
45
102
{ACAD_REACTORS
330
43
102
}
102
{ACAD_XDICTIONARY
360
238
102
}
330
43
100
AcDbMaterial
  1
BYBLOCK
  0
MATERIAL
  5
44
102
{ACAD_REACTORS
330
43
102
}
102
{ACAD_XDICTIONARY
360
236
102
}
330
43
100
AcDbMaterial
  1
BYLAYER
  0
MATERIAL
  5
46
102
{ACAD_REACTORS
330
43
102
}
102
{ACAD_XDICTIONARY
360
23A
102
}
330
43
100
AcDbMaterial
  1
GLOBAL
  0
ACAD_PROXY_OBJECT
  5
5C
102
{ACAD_REACTORS
330
5B
102
}
330
5B
100
AcDbProxyObject
 90
      499
 91
      505
 93
      610
310
40901902A4063FBFFFFFE056BD1B81E855B9FC0AD7A3703D0AD73F4214DD185B99185C9900AD7A3703D0AC73F90141901A02B5E8DC0F42B1CFC02B5E8DC0F42B1CFE5764000000000000300FC0
340
14
340
0
340
11
340
0
 94
        0
1001
ACAD_MLEADERVER
1070
     2
  0
MLINESTYLE
  5
18
102
{ACAD_REACTORS
330
17
102
}
330
17
100
AcDbMlineStyle
  2
Standard
 70
     0
  3

 62
   256
 51
90.0
 52
90.0
 71
     2
 49
0.5
 62
   256
  6
BYLAYER
 49
-0.5
 62
   256
  6
BYLAYER
  0
ACAD_PROXY_OBJECT
  5
48
102
{ACAD_REACTORS
330
47
102
}
330
47
100
AcDbProxyObject
 90
      499
 91
      503
 93
       41
310
903313A31580
  0
ACAD_PROXY_OBJECT
  5
49
102
{ACAD_REACTORS
330
47
102
}
330
47
100
AcDbProxyObject
 90
      499
 91
      503
 93
      257
310
90E312F31323822203D2031272D3022000000000000200FC000000000000284000
  0
ACAD_PROXY_OBJECT
  5
4A
102
{ACAD_REACTORS
330
47
102
}
330
47
100
AcDbProxyObject
 90
      499
 91
      503
 93
      249
310
90D312F363422203D2031272D3022000000000000240FC000000000000284000
  0
ACAD_PROXY_OBJECT
  5
4B
102
{ACAD_REACTORS
330
47
102
}
330
47
100
AcDbProxyObject
 90
      499
 91
      503
 93
      249
310
90D312F333222203D2031272D3022000000000000280FC000000000000284000
  0
ACAD_PROXY_OBJECT
  5
4C
102
{ACAD_REACTORS
330
47
102
}
330
47
100
AcDbProxyObject
 90
      499
 91
      503
 93
      249
310
90D312F313622203D2031272D30220000000000002C0FC000000000000284000
  0
ACAD_PROXY_OBJECT
  5
4D
102
{ACAD_REACTORS
330
47
102
}
330
47
100
AcDbProxyObject
 90
      499
 91
      503
 93
      249
310
90D332F333222203D2031272D30220000000000002E0FC000000000000284000
  0
ACAD_PROXY_OBJECT
  5
4E
102
{ACAD_REACTORS
330
47
102
}
330
47
100
AcDbProxyObject
 90
      499
 91
      503
 93
      241
310
90C312F3822203D2031272D3022000000000000300FC000000000000284000
  0
ACAD_PROXY_OBJECT
  5
4F
102
{ACAD_REACTORS
330
47
102
}
330
47
100
AcDbProxyObject
 90
      499
 91
      503
 93
      249
310
90D332F313622203D2031272D3022000000000000320FC000000000000284000
  0
ACAD_PROXY_OBJECT
  5
50
102
{ACAD_REACTORS
330
47
102
}
330
47
100
AcDbProxyObject
 90
      499
 91
      503
 93
      241
310
90C312F3422203D2031272D3022000000000000340FC000000000000284000
  0
ACAD_PROXY_OBJECT
  5
51
102
{ACAD_REACTORS
330
47
102
}
330
47
100
AcDbProxyObject
 90
      499
 91
      503
 93
      241
310
90C332F3822203D2031272D3022000000000000360FC000000000000284000
  0
ACAD_PROXY_OBJECT
  5
52
102
{ACAD_REACTORS
330
47
102
}
330
47
100
AcDbProxyObject
 90
      499
 91
      503
 93
      241
310
90C312F3222203D2031272D3022000000000000380FC000000000000284000
  0
ACAD_PROXY_OBJECT
  5
53
102
{ACAD_REACTORS
330
47
102
}
330
47
100
AcDbProxyObject
 90
      499
 91
      503
 93
      241
310
90C332F3422203D2031272D30220000000000003A0FC000000000000284000
  0
ACAD_PROXY_OBJECT
  5
54
102
{ACAD_REACTORS
330
47
102
}
330
47
100
AcDbProxyObject
 90
      499
 91
      503
 93
      161
310
90A3122203D2031272D30224000000000000284000
  0
ACAD_PROXY_OBJECT
  5
55
102
{ACAD_REACTORS
330
47
102
}
330
47
100
AcDbProxyObject
 90
      499
 91
      503
 93
      257
310
90E312D312F3222203D2031272D30220000000000003E0FC000000000000284000
  0
ACAD_PROXY_OBJECT
  5
56
102
{ACAD_REACTORS
330
47
102
}
330
47
100
AcDbProxyObject
 90
      499
 91
      503
 93
      225
310
90A3322203D2031272D302200000000000002100000000000000284000
  0
ACAD_PROXY_OBJECT
  5
57
102
{ACAD_REACTORS
330
47
102
}
330
47
100
AcDbProxyObject
 90
      499
 91
      503
 93
      225
310
90A3622203D2031272D302200000000000006100000000000000284000
  0
ACAD_PROXY_OBJECT
  5
58
102
{ACAD_REACTORS
330
47
102
}
330
47
100
AcDbProxyObject
 90
      499
 91
      503
 93
      249
310
90D31272D3022203D2031272D30220000000000000A100000000000000284000
  0
ACAD_PROXY_OBJECT
  5
2F
102
{ACAD_REACTORS
330
2A
102
}
330
2A
100
AcDbProxyObject
 90
      499
 91
      501
 93
      436
310
42CC9915DA5C99599C985B595049028333333333333E33F0000000000000F90107901411070040501600405405064090741402480A0340
1001
ACAD
1000
AcDbSavedByObjectVersion
1070
     0
  0
ACAD_PROXY_OBJECT
  5
32
102
{ACAD_REACTORS
330
2A
102
}
330
2A
100
AcDbProxyObject
 90
      499
 91
      501
 93
      388
310
4150985CDA58D07406404333333333333E33F0000000000000F90107A41107004050150841D405064090741402480A0350
1001
ACAD
1000
AcDbSavedByObjectVersion
1070
     0
  0
ACAD_PROXY_OBJECT
  5
36
102
{ACAD_REACTORS
330
2A
102
}
330
2A
100
AcDbProxyObject
 90
      499
 91
      501
 93
      428
310
42109C9A59DA1D195B90C409028333333333333E33F0000000000000F9010790141107004050150841D405064090741402480A029950
1001
ACAD
1000
AcDbSavedByObjectVersion
1070
     0
  0
ACAD_PROXY_OBJECT
  5
3A
102
{ACAD_REACTORS
330
2A
102
}
330
2A
100
AcDbProxyObject
 90
      499
 91
      501
 93
      452
310
42D0DBDB1BDC90DA185B99D95104090240C333333333333E33F0000000000000F90108901411070040501508421405064090741402480A0350
1001
ACAD
1000
AcDbSavedByObjectVersion
1070
     0
  0
ACAD_PROXY_OBJECT
  5
34
102
{ACAD_REACTORS
330
2A
102
}
330
2A
100
AcDbProxyObject
 90
      499
 91
      501
 93
      500
310
4290DBDB98D95C1D1D585B10940D028333333333333E33F0000000000000F90107902409070040501000000000018199010841D405064090740C02480A0340
1001
ACAD
1000
AcDbSavedByObjectVersion
1070
     0
  0
ACAD_PROXY_OBJECT
  5
35
102
{ACAD_REACTORS
330
2A
102
}
330
2A
100
AcDbProxyObject
 90
      499
 91
      501
 93
      412
310
40D11A5B50B409028333333333333E33F0000000000000F9010790141107004050150841D405064090741402480A02677FFFFFD0
1001
ACAD
1000
AcDbSavedByObjectVersion
1070
     0
  0
ACAD_PROXY_OBJECT
  5
3D
102
{ACAD_REACTORS
330
2A
102
}
330
2A
100
AcDbProxyObject
 90
      499
 91
      501
 93
      452
310
43115919D950DBDB1BDC93D999916409028333333333333E33F0000000000000F9010790141107004050150841D405064090741402480A0350
1001
ACAD
1000
AcDbSavedByObjectVersion
1070
     0
  0
ACAD_PROXY_OBJECT
  5
39
102
{ACAD_REACTORS
330
2A
102
}
330
2A
100
AcDbProxyObject
 90
      499
 91
      501
 93
      444
310
42D19858D95C185D1D195C9B90F409028333333333333E33F0000000000000F9010790141107004050150841D405064090741402480A0350
1001
ACAD
1000
AcDbSavedByObjectVersion
1070
     0
  0
ACAD_PROXY_OBJECT
  5
2B
102
{ACAD_REACTORS
330
2A
102
}
330
2A
100
AcDbProxyObject
 90
      499
 91
      501
 93
      380
310
41119B185D240901404333333333333E33F0000000000000F9010740A907004050150841D405064090741402480A1B50
1001
ACAD
1000
AcDbSavedByObjectVersion
1070
     0
  0
ACAD_PROXY_OBJECT
  5
2C
102
{ACAD_REACTORS
330
2A
102
}
330
2A
100
AcDbProxyObject
 90
      499
 91
      501
 93
      468
310
43519B185D15DA5D1A115919D95CD0140901404333333333333E33F0000000000000F90107409019070040501600405405064090741402480A1B50
1001
ACAD
1000
AcDbSavedByObjectVersion
1070
     0
  0
ACAD_PROXY_OBJECT
  5
2D
102
{ACAD_REACTORS
330
2A
102
}
330
2A
100
AcDbProxyObject
 90
      499
 91
      501
 93
      404
310
41D1DBDD5C985D5910240902404333333333333E33F0000000000000F9010740A9070040501641D405064090741402480A1B50
1001
ACAD
1000
AcDbSavedByObjectVersion
1070
     0
  0
ACAD_PROXY_OBJECT
  5
2E
102
{ACAD_REACTORS
330
2A
102
}
330
2A
100
AcDbProxyObject
 90
      499
 91
      501
 93
      492
310
4411DBDD5C985D5915DA5D1A115919D95CD0340902404333333333333E33F0000000000000F90107409019070040501600405405064090741402480A1B50
1001
ACAD
1000
AcDbSavedByObjectVersion
1070
     0
  0
ACAD_PROXY_OBJECT
  5
31
102
{ACAD_REACTORS
330
2A
102
}
330
2A
100
AcDbProxyObject
 90
      499
 91
      501
 93
      476
310
41921A5919195B90640502408333333333333E33F0000000000000F901079024090700405020000000000001110200405405064090740C02480A0340
1001
ACAD
1000
AcDbSavedByObjectVersion
1070
     0
  0
ACAD_PROXY_OBJECT
  5
3B
102
{ACAD_REACTORS
330
2A
102
}
330
2A
100
AcDbProxyObject
 90
      499
 91
      501
 93
      428
310
42529A5D1D195C93D999914409028333333333333E33F0000000000000F9010790141107004050150A41D405064090741402480A0350
1001
ACAD
1000
AcDbSavedByObjectVersion
1070
     0
  0
ACAD_PROXY_OBJECT
  5
38
102
{ACAD_REACTORS
330
2A
102
}
330
2A
100
AcDbProxyObject
 90
      499
 91
      501
 93
      444
310
42D31A5B995C185D1D195C9B90E409028333333333333E33F0000000000000F9010790141107004050750841D405064090741402483A0350
1001
ACAD
1000
AcDbSavedByObjectVersion
1070
     0
  0
ACAD_PROXY_OBJECT
  5
3C
102
{ACAD_REACTORS
330
2A
102
}
330
2A
100
AcDbProxyObject
 90
      499
 91
      501
 93
      444
310
42D3DD995C9A185B99D3D999915409028333333333333E33F0000000000000F9010790141107004050150941D405064090741402480A0350
1001
ACAD
1000
AcDbSavedByObjectVersion
1070
     0
  0
ACAD_PROXY_OBJECT
  5
33
102
{ACAD_REACTORS
330
2A
102
}
330
2A
100
AcDbProxyObject
 90
      499
 91
      501
 93
      428
310
425499585B1A5CDD1A58D08409038333333333333E33F0000000000000F9010740A907004050150800405405064090740C02480A1B40
1001
ACAD
1000
AcDbSavedByObjectVersion
1070
     0
  0
ACAD_PROXY_OBJECT
  5
42
102
{ACAD_REACTORS
330
2A
102
}
330
2A
100
AcDbProxyObject
 90
      499
 91
      501
 93
      420
310
4194DA1859195911B40902404333333333333E33F0000000000000F9010740A41107004050150800405405064090840C02480A0B40
1001
ACAD
1000
AcDbSavedByObjectVersion
1070
     0
  0
ACAD_PROXY_OBJECT
  5
41
102
{ACAD_REACTORS
330
2A
102
}
330
2A
100
AcDbProxyObject
 90
      499
 91
      501
 93
      516
310
4454DA18591959081DDA5D1A08195919D95CD1A40902404333333333333E33F0000000000000F901074090142907004050250800405405064090740C02480A0B40
1001
ACAD
1000
AcDbSavedByObjectVersion
1070
     0
  0
ACAD_PROXY_OBJECT
  5
3E
102
{ACAD_REACTORS
330
2A
102
}
330
2A
100
AcDbProxyObject
 90
      499
 91
      501
 93
      532
310
4394DA1859195CC81BD98811DC985E5174090240C333333333333E33F0000000000000F901079024090741D01000000000000111010841D405064090740C02480A0340
1001
ACAD
1000
AcDbSavedByObjectVersion
1070
     0
  0
ACAD_PROXY_OBJECT
  5
3F
102
{ACAD_REACTORS
330
2A
102
}
330
2A
100
AcDbProxyObject
 90
      499
 91
      501
 93
      476
310
41D4DAD95D18DA1E51840502408333333333333E33F0000000000000F901079024090741D01000000000000111010B41D405064090741802480A0340
1001
ACAD
1000
AcDbSavedByObjectVersion
1070
     0
  0
ACAD_PROXY_OBJECT
  5
37
102
{ACAD_REACTORS
330
2A
102
}
330
2A
100
AcDbProxyObject
 90
      499
 91
      501
 93
      412
310
41D51A1A58DAD95B90D409028333333333333E33F0000000000000F9010790141107004050150C41D405064090741402480A0350
1001
ACAD
1000
AcDbSavedByObjectVersion
1070
     0
  0
ACAD_PROXY_OBJECT
  5
30
102
{ACAD_REACTORS
330
2A
102
}
330
2A
100
AcDbProxyObject
 90
      499
 91
      501
 93
      420
310
4255DA5C99599C985B595059028333333333333E33F0000000000000F90107901411070040501600405405064090740C02480A0340
1001
ACAD
1000
AcDbSavedByObjectVersion
1070
     0
  0
ACAD_PROXY_OBJECT
  5
40
102
{ACAD_REACTORS
330
2A
102
}
330
2A
100
AcDbProxyObject
 90
      499
 91
      501
 93
      404
310
41560B54985E51940902404000000000000E03F0000000000000F9010740501907004050150841D405064090740C02480A1B40
1001
ACAD
1000
AcDbSavedByObjectVersion
1070
     0
  0
XRECORD
  5
213
102
{ACAD_REACTORS
330
209
102
}
330
209
100
AcDbXrecord
340
0
  0
XRECORD
  5
212
102
{ACAD_REACTORS
330
209
102
}
330
209
100
AcDbXrecord
 90
        0
  0
XRECORD
  5
229
102
{ACAD_REACTORS
330
209
102
}
330
209
100
AcDbXrecord
1000
DSTYLE
1002
{
1070
   171
 70
     2
1070
   143
 40
25.4
1070
   274
 70
     2
1070
    41
 40
0.18
1070
   141
 40
0.09
1070
   271
 70
     4
1070
    43
 40
0.38
1070
   278
 70
    46
1070
    44
 40
0.18
1070
    42
 40
0.0625
1070
   147
 40
0.09
1070
    77
 70
     0
1070
   272
 70
     4
1070
    73
 70
     1
1070
   279
 70
     2
1070
   172
 70
     0
1070
    74
 70
     1
1070
   283
 70
     1
1070
   340
340
11
1070
   140
 40
0.18
1070
   284
 70
     0
1070
    78
 70
     0
1002
}
  0
XRECORD
  5
214
102
{ACAD_REACTORS
330
209
102
}
330
209
100
AcDbXrecord
  1
{01f67881-ce72-46bb-a524-de70469fb80e}
  0
XRECORD
  5
20C
102
{ACAD_REACTORS
330
209
102
}
330
209
100
AcDbXrecord
  1

  0
XRECORD
  5
211
102
{ACAD_REACTORS
330
209
102
}
330
209
100
AcDbXrecord
 90
        4
  0
XRECORD
  5
20E
102
{ACAD_REACTORS
330
209
102
}
330
209
100
AcDbXrecord
340
1A
  0
XRECORD
  5
210
102
{ACAD_REACTORS
330
209
102
}
330
209
100
AcDbXrecord
 90
    10781
  0
XRECORD
  5
20F
102
{ACAD_REACTORS
330
209
102
}
330
209
100
AcDbXrecord
340
19
  0
XRECORD
  5
216
102
{ACAD_REACTORS
330
209
102
}
330
209
100
AcDbXrecord
 40
0.0
  0
XRECORD
  5
219
102
{ACAD_REACTORS
330
209
102
}
330
209
100
AcDbXrecord
340
0
  0
XRECORD
  5
21F
102
{ACAD_REACTORS
330
209
102
}
330
209
100
AcDbXrecord
 10
0.0
 20
0.0
 30
0.0
  0
XRECORD
  5
21B
102
{ACAD_REACTORS
330
209
102
}
330
209
100
AcDbXrecord
 10
0.0
 20
0.0
 30
0.0
  0
XRECORD
  5
21E
102
{ACAD_REACTORS
330
209
102
}
330
209
100
AcDbXrecord
 10
0.0
 20
0.0
 30
0.0
  0
XRECORD
  5
21C
102
{ACAD_REACTORS
330
209
102
}
330
209
100
AcDbXrecord
 10
0.0
 20
0.0
 30
0.0
  0
XRECORD
  5
21D
102
{ACAD_REACTORS
330
209
102
}
330
209
100
AcDbXrecord
 10
0.0
 20
0.0
 30
0.0
  0
XRECORD
  5
21A
102
{ACAD_REACTORS
330
209
102
}
330
209
100
AcDbXrecord
 10
0.0
 20
0.0
 30
0.0
  0
XRECORD
  5
217
102
{ACAD_REACTORS
330
209
102
}
330
209
100
AcDbXrecord
340
0
  0
XRECORD
  5
218
102
{ACAD_REACTORS
330
209
102
}
330
209
100
AcDbXrecord
 70
     0
  0
XRECORD
  5
20D
102
{ACAD_REACTORS
330
209
102
}
330
209
100
AcDbXrecord
  1

  0
XRECORD
  5
20A
102
{ACAD_REACTORS
330
209
102
}
330
209
100
AcDbXrecord
 90
        1
  0
XRECORD
  5
20B
102
{ACAD_REACTORS
330
209
102
}
330
209
100
AcDbXrecord
 90
       70
  0
XRECORD
  5
222
102
{ACAD_REACTORS
330
209
102
}
330
209
100
AcDbXrecord
340
0
  0
XRECORD
  5
228
102
{ACAD_REACTORS
330
209
102
}
330
209
100
AcDbXrecord
 10
0.0
 20
0.0
 30
0.0
  0
XRECORD
  5
224
102
{ACAD_REACTORS
330
209
102
}
330
209
100
AcDbXrecord
 10
0.0
 20
0.0
 30
0.0
  0
XRECORD
  5
227
102
{ACAD_REACTORS
330
209
102
}
330
209
100
AcDbXrecord
 10
0.0
 20
0.0
 30
0.0
  0
XRECORD
  5
225
102
{ACAD_REACTORS
330
209
102
}
330
209
100
AcDbXrecord
 10
0.0
 20
0.0
 30
0.0
  0
XRECORD
  5
226
102
{ACAD_REACTORS
330
209
102
}
330
209
100
AcDbXrecord
 10
0.0
 20
0.0
 30
0.0
  0
XRECORD
  5
223
102
{ACAD_REACTORS
330
209
102
}
330
209
100
AcDbXrecord
 10
0.0
 20
0.0
 30
0.0
  0
XRECORD
  5
220
102
{ACAD_REACTORS
330
209
102
}
330
209
100
AcDbXrecord
340
0
  0
XRECORD
  5
221
102
{ACAD_REACTORS
330
209
102
}
330
209
100
AcDbXrecord
 70
     0
  0
XRECORD
  5
215
102
{ACAD_REACTORS
330
209
102
}
330
209
100
AcDbXrecord
  1
{FAEB1C32-E019-11D5-929B-00C0DF256EC4}
  0
DICTIONARYVAR
  5
234
102
{ACAD_REACTORS
330
22A
102
}
330
22A
100
DictionaryVariables
280
     0
  1
1:1
  0
DICTIONARYVAR
  5
22C
102
{ACAD_REACTORS
330
22A
102
}
330
22A
100
DictionaryVariables
280
     0
  1
Standard
  0
DICTIONARYVAR
  5
22B
102
{ACAD_REACTORS
330
22A
102
}
330
22A
100
DictionaryVariables
280
     0
  1
Standard
  0
DICTIONARYVAR
  5
22F
102
{ACAD_REACTORS
330
22A
102
}
330
22A
100
DictionaryVariables
280
     0
  1
2
  0
DICTIONARYVAR
  5
230
102
{ACAD_REACTORS
330
22A
102
}
330
22A
100
DictionaryVariables
280
     0
  1
1
  0
DICTIONARYVAR
  5
235
102
{ACAD_REACTORS
330
22A
102
}
330
22A
100
DictionaryVariables
280
     0
  1
1
  0
DICTIONARY
  5
238
330
45
100
AcDbDictionary
280
     1
  3
ACAD_XREC_ROUNDTRIP
360
239
  0
DICTIONARY
  5
236
330
44
100
AcDbDictionary
280
     1
  3
ACAD_XREC_ROUNDTRIP
360
237
  0
DICTIONARY
  5
23A
330
46
100
AcDbDictionary
280
     1
  3
ACAD_XREC_ROUNDTRIP
360
23B
  0
XRECORD
  5
239
102
{ACAD_REACTORS
330
238
102
}
330
238
100
AcDbXrecord
102
MATERIAL
148
0.0
149
0.0
149
0.0
 93
        0
 94
      127
282
     0
 72
     1
 77
     1
171
     1
175
     1
179
     1
273
     0
  0
XRECORD
  5
237
102
{ACAD_REACTORS
330
236
102
}
330
236
100
AcDbXrecord
102
MATERIAL
148
0.0
149
0.0
149
0.0
 93
        0
 94
      127
282
     0
 72
     1
 77
     1
171
     1
175
     1
179
     1
273
     0
  0
XRECORD
  5
23B
102
{ACAD_REACTORS
330
23A
102
}
330
23A
100
AcDbXrecord
102
MATERIAL
148
0.0
149
0.0
149
0.0
 93
        0
 94
      127
282
     0
 72
     1
 77
     1
171
     1
175
     1
179
     1
273
     0
  0
ENDSEC
  0
EOF
