  0
SECTION
  2
HEADER
  9
$ACADVER
  1
AC1014
  9
$ACADMAINTVER
 70
     9
  9
$DWGCODEPAGE
  3
ANSI_1252
  9
$INSBASE
 10
0.0
 20
0.0
 30
0.0
  9
$EXTMIN
 10
-886.2941743595156
 20
-189.9568523143025
 30
-0.0000000000166018
  9
$EXTMAX
 10
861.2055583171953
 20
207.5431476899539
 30
0.0
  9
$LIMMIN
 10
0.0
 20
0.0
  9
$LIMMAX
 10
12.0
 20
9.0
  9
$ORTHOMODE
 70
     0
  9
$REGENMODE
 70
     1
  9
$FILLMODE
 70
     1
  9
$QTEXTMODE
 70
     0
  9
$MIRRTEXT
 70
     1
  9
$DRAGMODE
 70
     2
  9
$LTSCALE
 40
1.0
  9
$OSMODE
 70
    37
  9
$ATTMODE
 70
     1
  9
$TEXTSIZE
 40
0.2
  9
$TRACEWID
 40
0.05
  9
$TEXTSTYLE
  7
STANDARD
  9
$CLAYER
  8
0
  9
$CELTYPE
  6
BYLAYER
  9
$CECOLOR
 62
   256
  9
$CELTSCALE
 40
1.0
  9
$DELOBJ
 70
     1
  9
$DISPSILH
 70
     0
  9
$DIMSCALE
 40
1.0
  9
$DIMASZ
 40
0.18
  9
$DIMEXO
 40
0.0625
  9
$DIMDLI
 40
0.38
  9
$DIMRND
 40
0.0
  9
$DIMDLE
 40
0.0
  9
$DIMEXE
 40
0.18
  9
$DIMTP
 40
0.0
  9
$DIMTM
 40
0.0
  9
$DIMTXT
 40
0.18
  9
$DIMCEN
 40
0.09
  9
$DIMTSZ
 40
0.0
  9
$DIMTOL
 70
     0
  9
$DIMLIM
 70
     0
  9
$DIMTIH
 70
     1
  9
$DIMTOH
 70
     1
  9
$DIMSE1
 70
     0
  9
$DIMSE2
 70
     0
  9
$DIMTAD
 70
     0
  9
$DIMZIN
 70
     0
  9
$DIMBLK
  1

  9
$DIMASO
 70
     1
  9
$DIMSHO
 70
     1
  9
$DIMPOST
  1

  9
$DIMAPOST
  1

  9
$DIMALT
 70
     0
  9
$DIMALTD
 70
     2
  9
$DIMALTF
 40
25.4
  9
$DIMLFAC
 40
1.0
  9
$DIMTOFL
 70
     0
  9
$DIMTVP
 40
0.0
  9
$DIMTIX
 70
     0
  9
$DIMSOXD
 70
     0
  9
$DIMSAH
 70
     0
  9
$DIMBLK1
  1

  9
$DIMBLK2
  1

  9
$DIMSTYLE
  2
STANDARD_ACAD
  9
$DIMCLRD
 70
     0
  9
$DIMCLRE
 70
     0
  9
$DIMCLRT
 70
     0
  9
$DIMTFAC
 40
1.0
  9
$DIMGAP
 40
0.09
  9
$DIMJUST
 70
     0
  9
$DIMSD1
 70
     0
  9
$DIMSD2
 70
     0
  9
$DIMTOLJ
 70
     1
  9
$DIMTZIN
 70
     0
  9
$DIMALTZ
 70
     0
  9
$DIMALTTZ
 70
     0
  9
$DIMFIT
 70
     5
  9
$DIMUPT
 70
     0
  9
$DIMUNIT
 70
     2
  9
$DIMDEC
 70
     4
  9
$DIMTDEC
 70
     4
  9
$DIMALTU
 70
     2
  9
$DIMALTTD
 70
     2
  9
$DIMTXSTY
  7
STANDARD
  9
$DIMAUNIT
 70
     0
  9
$LUNITS
 70
     2
  9
$LUPREC
 70
     2
  9
$SKETCHINC
 40
0.1
  9
$FILLETRAD
 40
0.0
  9
$AUNITS
 70
     0
  9
$AUPREC
 70
     0
  9
$MENU
  1
.
  9
$ELEVATION
 40
0.0
  9
$PELEVATION
 40
0.0
  9
$THICKNESS
 40
0.0
  9
$LIMCHECK
 70
     0
  9
$CHAMFERA
 40
0.0
  9
$CHAMFERB
 40
0.0
  9
$CHAMFERC
 40
0.0
  9
$CHAMFERD
 40
0.0
  9
$SKPOLY
 70
     0
  9
$TDCREATE
 40
2461249.437223472
  9
$TDUPDATE
 40
2461249.43722353
  9
$TDINDWG
 40
0.0000000116
  9
$TDUSRTIMER
 40
0.0000000116
  9
$USRTIMER
 70
     1
  9
$ANGBASE
 50
0.0
  9
$ANGDIR
 70
     0
  9
$PDMODE
 70
     0
  9
$PDSIZE
 40
0.0
  9
$PLINEWID
 40
0.0
  9
$COORDS
 70
     1
  9
$SPLFRAME
 70
     0
  9
$SPLINETYPE
 70
     6
  9
$SPLINESEGS
 70
     8
  9
$ATTDIA
 70
     0
  9
$ATTREQ
 70
     1
  9
$HANDLING
 70
     1
  9
$HANDSEED
  5
25C
  9
$SURFTAB1
 70
     6
  9
$SURFTAB2
 70
     6
  9
$SURFTYPE
 70
     6
  9
$SURFU
 70
     6
  9
$SURFV
 70
     6
  9
$UCSNAME
  2

  9
$UCSORG
 10
0.0
 20
0.0
 30
0.0
  9
$UCSXDIR
 10
1.0
 20
0.0
 30
0.0
  9
$UCSYDIR
 10
0.0
 20
1.0
 30
0.0
  9
$PUCSNAME
  2

  9
$PUCSORG
 10
0.0
 20
0.0
 30
0.0
  9
$PUCSXDIR
 10
1.0
 20
0.0
 30
0.0
  9
$PUCSYDIR
 10
0.0
 20
1.0
 30
0.0
  9
$USERI1
 70
     0
  9
$USERI2
 70
     0
  9
$USERI3
 70
     0
  9
$USERI4
 70
     0
  9
$USERI5
 70
     0
  9
$USERR1
 40
0.0
  9
$USERR2
 40
0.0
  9
$USERR3
 40
0.0
  9
$USERR4
 40
0.0
  9
$USERR5
 40
0.0
  9
$WORLDVIEW
 70
     1
  9
$SHADEDGE
 70
     3
  9
$SHADEDIF
 70
    70
  9
$TILEMODE
 70
     1
  9
$MAXACTVP
 70
    64
  9
$PINSBASE
 10
0.0
 20
0.0
 30
0.0
  9
$PLIMCHECK
 70
     0
  9
$PEXTMIN
 10
1.000000000000000E+20
 20
1.000000000000000E+20
 30
1.000000000000000E+20
  9
$PEXTMAX
 10
-1.000000000000000E+20
 20
-1.000000000000000E+20
 30
-1.000000000000000E+20
  9
$PLIMMIN
 10
0.0
 20
0.0
  9
$PLIMMAX
 10
12.0
 20
9.0
  9
$UNITMODE
 70
     0
  9
$VISRETAIN
 70
     1
  9
$PLINEGEN
 70
     0
  9
$PSLTSCALE
 70
     1
  9
$TREEDEPTH
 70
  3020
  9
$PICKSTYLE
 70
     1
  9
$CMLSTYLE
  2
STANDARD
  9
$CMLJUST
 70
     0
  9
$CMLSCALE
 40
1.0
  9
$PROXYGRAPHICS
 70
     1
  9
$MEASUREMENT
 70
     1
  0
ENDSEC
  0
SECTION
  2
CLASSES
  0
CLASS
  1
ACDBDICTIONARYWDFLT
  2
AcDbDictionaryWithDefault
  3
ObjectDBX Classes
 90
        0
280
     0
281
     0
  0
CLASS
  1
VISUALSTYLE
  2
AcDbVisualStyle
  3
ObjectDBX Classes
 90
     4095
280
     0
281
     0
  0
CLASS
  1
MATERIAL
  2
AcDbMaterial
  3
ObjectDBX Classes
 90
     1153
280
     0
281
     0
  0
CLASS
  1
SCALE
  2
AcDbScale
  3
ObjectDBX Classes
 90
     1153
280
     0
281
     0
  0
CLASS
  1
TABLESTYLE
  2
AcDbTableStyle
  3
ObjectDBX Classes
 90
     4095
280
     0
281
     0
  0
CLASS
  1
MLEADERSTYLE
  2
AcDbMLeaderStyle
  3
ACDB_MLEADERSTYLE_CLASS
 90
     4095
280
     0
281
     0
  0
CLASS
  1
SUN
  2
AcDbSun
  3
SCENEOE
 90
     1153
280
     0
281
     0
  0
CLASS
  1
DICTIONARYVAR
  2
AcDbDictionaryVar
  3
ObjectDBX Classes
 90
        0
280
     0
281
     0
  0
CLASS
  1
XRECORD
  2
AcDbXrecord
  3
ObjectDBX Classes
 90
        0
280
     0
281
     0
  0
CLASS
  1
LWPOLYLINE
  2
AcDbPolyline
  3
ObjectDBX Classes
 90
        0
280
     0
281
     1
  0
CLASS
  1
HATCH
  2
AcDbHatch
  3
ObjectDBX Classes
 90
        0
280
     0
281
     1
  0
CLASS
  1
ACDBPLACEHOLDER
  2
AcDbPlaceHolder
  3
ObjectDBX Classes
 90
        0
280
     0
281
     0
  0
CLASS
  1
LAYOUT
  2
AcDbLayout
  3
ObjectDBX Classes
 90
        0
280
     0
281
     0
  0
ENDSEC
  0
SECTION
  2
TABLES
  0
TABLE
  2
VPORT
  5
8
102
{ACAD_XDICTIONARY
360
251
102
}
330
0
100
AcDbSymbolTable
 70
     1
  0
VPORT
  5
29
330
8
100
AcDbSymbolTableRecord
100
AcDbViewportTableRecord
  2
*ACTIVE
 70
     0
 10
0.0
 20
0.0
 11
1.0
 21
1.0
 12
10.42990654205607
 22
4.5
 13
0.0
 23
0.0
 14
0.5
 24
0.5
 15
0.5
 25
0.5
 16
0.0
 26
0.0
 36
1.0
 17
0.0
 27
0.0
 37
0.0
 40
9.0
 41
1.972972972850329
 42
50.0
 43
0.0
 44
0.0
 50
0.0
 51
0.0
 71
     0
 72
   100
 73
     1
 74
     3
 75
     0
 76
     0
 77
     0
 78
     0
  0
ENDTAB
  0
TABLE
  2
LTYPE
  5
5
330
0
100
AcDbSymbolTable
 70
     1
  0
LTYPE
  5
14
330
5
100
AcDbSymbolTableRecord
100
AcDbLinetypeTableRecord
  2
BYBLOCK
 70
     0
  3

 72
    65
 73
     0
 40
0.0
  0
LTYPE
  5
15
330
5
100
AcDbSymbolTableRecord
100
AcDbLinetypeTableRecord
  2
BYLAYER
 70
     0
  3

 72
    65
 73
     0
 40
0.0
  0
LTYPE
  5
16
330
5
100
AcDbSymbolTableRecord
100
AcDbLinetypeTableRecord
  2
CONTINUOUS
 70
     0
  3
Solid line
 72
    65
 73
     0
 40
0.0
  0
ENDTAB
  0
TABLE
  2
LAYER
  5
2
330
0
100
AcDbSymbolTable
 70
     4
  0
LAYER
  5
10
330
2
100
AcDbSymbolTableRecord
100
AcDbLayerTableRecord
  2
0
 70
     0
 62
     7
  6
CONTINUOUS
  0
LAYER
  5
5F
330
2
100
AcDbSymbolTableRecord
100
AcDbLayerTableRecord
  2
1_ANYTOOL_1MMDEEP_LABELS_S
 70
     0
 62
     2
  6
CONTINUOUS
  0
LAYER
  5
F2
330
2
100
AcDbSymbolTableRecord
100
AcDbLayerTableRecord
  2
3_ANYTOOL_CUTTHROUGH_INSID
 70
     0
 62
     4
  6
CONTINUOUS
  0
LAYER
  5
1A1
330
2
100
AcDbSymbolTableRecord
100
AcDbLayerTableRecord
  2
4_ANYTOOL_CUTTHROUGH_OUTSI
 70
     0
 62
     5
  6
CONTINUOUS
  0
ENDTAB
  0
TABLE
  2
STYLE
  5
3
330
0
100
AcDbSymbolTable
 70
     1
  0
STYLE
  5
11
330
3
100
AcDbSymbolTableRecord
100
AcDbTextStyleTableRecord
  2
STANDARD
 70
     0
 40
0.0
 41
1.0
 50
0.0
 71
     0
 42
0.2
  3
txt
  4

  0
ENDTAB
  0
TABLE
  2
VIEW
  5
6
330
0
100
AcDbSymbolTable
 70
     0
  0
ENDTAB
  0
TABLE
  2
UCS
  5
7
330
0
100
AcDbSymbolTable
 70
     0
  0
ENDTAB
  0
TABLE
  2
APPID
  5
9
330
0
100
AcDbSymbolTable
 70
     3
  0
APPID
  5
12
330
9
100
AcDbSymbolTableRecord
100
AcDbRegAppTableRecord
  2
ACAD
 70
     0
  0
APPID
  5
5E
330
9
100
AcDbSymbolTableRecord
100
AcDbRegAppTableRecord
  2
RHINO
 70
     0
  0
APPID
  5
25B
330
9
100
AcDbSymbolTableRecord
100
AcDbRegAppTableRecord
  2
ACAD_MLEADERVER
 70
     0
  0
ENDTAB
  0
TABLE
  2
DIMSTYLE
  5
A
330
0
100
AcDbSymbolTable
 70
     1
  0
DIMSTYLE
105
27
330
A
100
AcDbSymbolTableRecord
100
AcDbDimStyleTableRecord
  2
STANDARD_ACAD
 70
     0
  3

  4

  5

  6

  7

 40
1.0
 41
0.18
 42
0.0625
 43
0.38
 44
0.18
 45
0.0
 46
0.0
 47
0.0
 48
0.0
140
0.18
141
0.09
142
0.0
143
25.4
144
1.0
145
0.0
146
1.0
147
0.09
 71
     0
 72
     0
 73
     1
 74
     1
 75
     0
 76
     0
 77
     0
 78
     0
170
     0
171
     2
172
     0
173
     0
174
     0
175
     0
176
     0
177
     0
178
     0
270
     2
271
     4
272
     4
273
     2
274
     2
340
11
275
     0
280
     0
281
     0
282
     0
283
     1
284
     0
285
     0
286
     0
287
     3
288
     0
  0
ENDTAB
  0
TABLE
  2
BLOCK_RECORD
  5
1
330
0
100
AcDbSymbolTable
 70
     0
  0
BLOCK_RECORD
  5
1F
330
1
100
AcDbSymbolTableRecord
100
AcDbBlockTableRecord
  2
*MODEL_SPACE
  0
BLOCK_RECORD
  5
1B
330
1
100
AcDbSymbolTableRecord
100
AcDbBlockTableRecord
  2
*PAPER_SPACE
  0
ENDTAB
  0
ENDSEC
  0
SECTION
  2
BLOCKS
  0
BLOCK
  5
20
330
1F
100
AcDbEntity
  8
0
100
AcDbBlockBegin
  2
*MODEL_SPACE
 70
     0
 10
0.0
 20
0.0
 30
0.0
  3
*MODEL_SPACE
  1

  0
ENDBLK
  5
21
330
1F
100
AcDbEntity
  8
0
100
AcDbBlockEnd
  0
BLOCK
  5
1C
330
1B
100
AcDbEntity
 67
     1
  8
0
100
AcDbBlockBegin
  2
*PAPER_SPACE
 70
     0
 10
0.0
 20
0.0
 30
0.0
  3
*PAPER_SPACE
  1

  0
ENDBLK
  5
1D
330
1B
100
AcDbEntity
 67
     1
  8
0
100
AcDbBlockEnd
  0
ENDSEC
  0
SECTION
  2
ENTITIES
  0
POLYLINE
  5
60
330
1F
100
AcDbEntity
  8
1_ANYTOOL_1MMDEEP_LABELS_S
100
AcDb2dPolyline
 66
     1
 10
0.0
 20
0.0
 30
0.0
  0
VERTEX
  5
61
330
60
100
AcDbEntity
  8
1_ANYTOOL_1MMDEEP_LABELS_S
100
AcDbVertex
100
AcDb2dVertex
 10
21.94285714283978
 20
-30.0
 30
0.0
  0
VERTEX
  5
62
330
60
100
AcDbEntity
  8
1_ANYTOOL_1MMDEEP_LABELS_S
100
AcDbVertex
100
AcDb2dVertex
 10
2.99999999998272
 20
-30.0
 30
0.0
  0
VERTEX
  5
63
330
60
100
AcDbEntity
  8
1_ANYTOOL_1MMDEEP_LABELS_S
100
AcDbVertex
100
AcDb2dVertex
 10
2.99999999998272
 20
0.0
 30
0.0
  0
VERTEX
  5
64
330
60
100
AcDbEntity
  8
1_ANYTOOL_1MMDEEP_LABELS_S
100
AcDbVertex
100
AcDb2dVertex
 10
20.82857142855391
 20
0.0
 30
0.0
  0
SEQEND
  5
65
330
60
100
AcDbEntity
  8
1_ANYTOOL_1MMDEEP_LABELS_S
  0
LINE
  5
66
330
1F
100
AcDbEntity
  8
1_ANYTOOL_1MMDEEP_LABELS_S
100
AcDbLine
 10
17.65714285712602
 20
-13.92857142857247
 30
0.0
 11
2.99999999998272
 21
-13.92857142857247
 31
0.0
  0
LINE
  5
67
330
1F
100
AcDbEntity
  8
1_ANYTOOL_1MMDEEP_LABELS_S
100
AcDbLine
 10
34.15714285712602
 20
-16.11428571428405
 30
0.0
 11
25.37142857141134
 21
-16.19999999999709
 31
0.0
  0
POLYLINE
  5
68
330
1F
100
AcDbEntity
  8
1_ANYTOOL_1MMDEEP_LABELS_S
100
AcDb2dPolyline
 66
     1
 10
0.0
 20
0.0
 30
0.0
  0
VERTEX
  5
69
330
68
100
AcDbEntity
  8
1_ANYTOOL_1MMDEEP_LABELS_S
100
AcDbVertex
100
AcDb2dVertex
 10
39.2999999999829
 20
0.0
 30
0.0
  0
VERTEX
  5
6A
330
68
100
AcDbEntity
  8
1_ANYTOOL_1MMDEEP_LABELS_S
100
AcDbVertex
100
AcDb2dVertex
 10
39.2999999999829
 20
-30.0
 30
0.0
  0
VERTEX
  5
6B
330
68
100
AcDbEntity
  8
1_ANYTOOL_1MMDEEP_LABELS_S
100
AcDbVertex
100
AcDb2dVertex
 10
56.39999999998236
 20
-30.0
 30
0.0
  0
SEQEND
  5
6C
330
68
100
AcDbEntity
  8
1_ANYTOOL_1MMDEEP_LABELS_S
  0
LINE
  5
6D
330
1F
100
AcDbEntity
  8
1_ANYTOOL_1MMDEEP_LABELS_S
100
AcDbLine
 10
76.54285714284015
 20
-0.4714285714289872
 30
0.0
 11
59.35714285712584
 21
-31.24285714285361
 31
0.0
  0
POLYLINE
  5
6E
330
1F
100
AcDbEntity
  8
1_ANYTOOL_1MMDEEP_LABELS_S
100
AcDb2dPolyline
 66
     1
 10
0.0
 20
0.0
 30
0.0
  0
VERTEX
  5
6F
330
6E
100
AcDbEntity
  8
1_ANYTOOL_1MMDEEP_LABELS_S
100
AcDbVertex
100
AcDb2dVertex
 10
77.61428571426859
 20
-21.51428571428551
 30
0.0
  0
VERTEX
  5
70
330
6E
100
AcDbEntity
  8
1_ANYTOOL_1MMDEEP_LABELS_S
100
AcDbVertex
100
AcDb2dVertex
 10
77.61642020087574
 20
-21.72246093749993
 30
0.0
  0
VERTEX
  5
71
330
6E
100
AcDbEntity
  8
1_ANYTOOL_1MMDEEP_LABELS_S
100
AcDbVertex
100
AcDb2dVertex
 10
77.62282366069716
 20
-21.92912946428578
 30
0.0
  0
VERTEX
  5
72
330
6E
100
AcDbEntity
  8
1_ANYTOOL_1MMDEEP_LABELS_S
100
AcDbVertex
100
AcDb2dVertex
 10
77.63349609373287
 20
-22.13429129464305
 30
0.0
  0
VERTEX
  5
73
330
6E
100
AcDbEntity
  8
1_ANYTOOL_1MMDEEP_LABELS_S
100
AcDbVertex
100
AcDb2dVertex
 10
77.64843749998288
 20
-22.33794642857174
 30
0.0
  0
VERTEX
  5
74
330
6E
100
AcDbEntity
  8
1_ANYTOOL_1MMDEEP_LABELS_S
100
AcDbVertex
100
AcDb2dVertex
 10
77.66764787944716
 20
-22.54009486607185
 30
0.0
  0
VERTEX
  5
75
330
6E
100
AcDbEntity
  8
1_ANYTOOL_1MMDEEP_LABELS_S
100
AcDbVertex
100
AcDb2dVertex
 10
77.69112723212572
 20
-22.74073660714339
 30
0.0
  0
VERTEX
  5
76
330
6E
100
AcDbEntity
  8
1_ANYTOOL_1MMDEEP_LABELS_S
100
AcDbVertex
100
AcDb2dVertex
 10
77.71887555801858
 20
-22.93987165178635
 30
0.0
  0
VERTEX
  5
77
330
6E
100
AcDbEntity
  8
1_ANYTOOL_1MMDEEP_LABELS_S
100
AcDbVertex
100
AcDb2dVertex
 10
77.75089285712573
 20
-23.13750000000073
 30
0.0
  0
VERTEX
  5
78
330
6E
100
AcDbEntity
  8
1_ANYTOOL_1MMDEEP_LABELS_S
100
AcDbVertex
100
AcDb2dVertex
 10
77.78717912944717
 20
-23.33362165178653
 30
0.0
  0
VERTEX
  5
79
330
6E
100
AcDbEntity
  8
1_ANYTOOL_1MMDEEP_LABELS_S
100
AcDbVertex
100
AcDb2dVertex
 10
77.82773437498287
 20
-23.52823660714375
 30
0.0
  0
VERTEX
  5
7A
330
6E
100
AcDbEntity
  8
1_ANYTOOL_1MMDEEP_LABELS_S
100
AcDbVertex
100
AcDb2dVertex
 10
77.87255859373286
 20
-23.7213448660724
 30
0.0
  0
VERTEX
  5
7B
330
6E
100
AcDbEntity
  8
1_ANYTOOL_1MMDEEP_LABELS_S
100
AcDbVertex
100
AcDb2dVertex
 10
77.92165178569716
 20
-23.91294642857247
 30
0.0
  0
VERTEX
  5
7C
330
6E
100
AcDbEntity
  8
1_ANYTOOL_1MMDEEP_LABELS_S
100
AcDbVertex
100
AcDb2dVertex
 10
77.97501395087575
 20
-24.10304129464396
 30
0.0
  0
VERTEX
  5
7D
330
6E
100
AcDbEntity
  8
1_ANYTOOL_1MMDEEP_LABELS_S
100
AcDbVertex
100
AcDb2dVertex
 10
78.0326450892686
 20
-24.29162946428687
 30
0.0
  0
VERTEX
  5
7E
330
6E
100
AcDbEntity
  8
1_ANYTOOL_1MMDEEP_LABELS_S
100
AcDbVertex
100
AcDb2dVertex
 10
78.09454520087573
 20
-24.47871093750121
 30
0.0
  0
VERTEX
  5
7F
330
6E
100
AcDbEntity
  8
1_ANYTOOL_1MMDEEP_LABELS_S
100
AcDbVertex
100
AcDb2dVertex
 10
78.16071428569717
 20
-24.66428571428696
 30
0.0
  0
VERTEX
  5
80
330
6E
100
AcDbEntity
  8
1_ANYTOOL_1MMDEEP_LABELS_S
100
AcDbVertex
100
AcDb2dVertex
 10
78.23115234373287
 20
-24.84835379464414
 30
0.0
  0
VERTEX
  5
81
330
6E
100
AcDbEntity
  8
1_ANYTOOL_1MMDEEP_LABELS_S
100
AcDbVertex
100
AcDb2dVertex
 10
78.30585937498289
 20
-25.03091517857274
 30
0.0
  0
VERTEX
  5
82
330
6E
100
AcDbEntity
  8
1_ANYTOOL_1MMDEEP_LABELS_S
100
AcDbVertex
100
AcDb2dVertex
 10
78.38483537944718
 20
-25.21196986607276
 30
0.0
  0
VERTEX
  5
83
330
6E
100
AcDbEntity
  8
1_ANYTOOL_1MMDEEP_LABELS_S
100
AcDbVertex
100
AcDb2dVertex
 10
78.46808035712574
 20
-25.39151785714421
 30
0.0
  0
VERTEX
  5
84
330
6E
100
AcDbEntity
  8
1_ANYTOOL_1MMDEEP_LABELS_S
100
AcDbVertex
100
AcDb2dVertex
 10
78.55559430801858
 20
-25.56955915178708
 30
0.0
  0
VERTEX
  5
85
330
6E
100
AcDbEntity
  8
1_ANYTOOL_1MMDEEP_LABELS_S
100
AcDbVertex
100
AcDb2dVertex
 10
78.64737723212573
 20
-25.74609375000136
 30
0.0
  0
VERTEX
  5
86
330
6E
100
AcDbEntity
  8
1_ANYTOOL_1MMDEEP_LABELS_S
100
AcDbVertex
100
AcDb2dVertex
 10
78.74342912944718
 20
-25.92112165178708
 30
0.0
  0
VERTEX
  5
87
330
6E
100
AcDbEntity
  8
1_ANYTOOL_1MMDEEP_LABELS_S
100
AcDbVertex
100
AcDb2dVertex
 10
78.84374999998289
 20
-26.09464285714421
 30
0.0
  0
VERTEX
  5
88
330
6E
100
AcDbEntity
  8
1_ANYTOOL_1MMDEEP_LABELS_S
100
AcDbVertex
100
AcDb2dVertex
 10
78.94833984373288
 20
-26.26665736607276
 30
0.0
  0
VERTEX
  5
89
330
6E
100
AcDbEntity
  8
1_ANYTOOL_1MMDEEP_LABELS_S
100
AcDbVertex
100
AcDb2dVertex
 10
79.05719866069717
 20
-26.43716517857274
 30
0.0
  0
VERTEX
  5
8A
330
6E
100
AcDbEntity
  8
1_ANYTOOL_1MMDEEP_LABELS_S
100
AcDbVertex
100
AcDb2dVertex
 10
79.17032645087575
 20
-26.60616629464414
 30
0.0
  0
VERTEX
  5
8B
330
6E
100
AcDbEntity
  8
1_ANYTOOL_1MMDEEP_LABELS_S
100
AcDbVertex
100
AcDb2dVertex
 10
79.28772321426861
 20
-26.77366071428696
 30
0.0
  0
VERTEX
  5
8C
330
6E
100
AcDbEntity
  8
1_ANYTOOL_1MMDEEP_LABELS_S
100
AcDbVertex
100
AcDb2dVertex
 10
79.40938895087575
 20
-26.93964843750121
 30
0.0
  0
VERTEX
  5
8D
330
6E
100
AcDbEntity
  8
1_ANYTOOL_1MMDEEP_LABELS_S
100
AcDbVertex
100
AcDb2dVertex
 10
79.53532366069719
 20
-27.10412946428687
 30
0.0
  0
VERTEX
  5
8E
330
6E
100
AcDbEntity
  8
1_ANYTOOL_1MMDEEP_LABELS_S
100
AcDbVertex
100
AcDb2dVertex
 10
79.6655273437329
 20
-27.26710379464396
 30
0.0
  0
VERTEX
  5
8F
330
6E
100
AcDbEntity
  8
1_ANYTOOL_1MMDEEP_LABELS_S
100
AcDbVertex
100
AcDb2dVertex
 10
79.7999999999829
 20
-27.42857142857247
 30
0.0
  0
VERTEX
  5
90
330
6E
100
AcDbEntity
  8
1_ANYTOOL_1MMDEEP_LABELS_S
100
AcDbVertex
100
AcDb2dVertex
 10
79.94062499998287
 20
-27.5867745535724
 30
0.0
  0
VERTEX
  5
91
330
6E
100
AcDbEntity
  8
1_ANYTOOL_1MMDEEP_LABELS_S
100
AcDbVertex
100
AcDb2dVertex
 10
80.0839285714114
 20
-27.73995535714377
 30
0.0
  0
VERTEX
  5
92
330
6E
100
AcDbEntity
  8
1_ANYTOOL_1MMDEEP_LABELS_S
100
AcDbVertex
100
AcDb2dVertex
 10
80.22991071426853
 20
-27.88811383928657
 30
0.0
  0
VERTEX
  5
93
330
6E
100
AcDbEntity
  8
1_ANYTOOL_1MMDEEP_LABELS_S
100
AcDbVertex
100
AcDb2dVertex
 10
80.3785714285542
 20
-28.0312500000008
 30
0.0
  0
VERTEX
  5
94
330
6E
100
AcDbEntity
  8
1_ANYTOOL_1MMDEEP_LABELS_S
100
AcDbVertex
100
AcDb2dVertex
 10
80.52991071426845
 20
-28.16936383928645
 30
0.0
  0
VERTEX
  5
95
330
6E
100
AcDbEntity
  8
1_ANYTOOL_1MMDEEP_LABELS_S
100
AcDbVertex
100
AcDb2dVertex
 10
80.68392857141129
 20
-28.30245535714354
 30
0.0
  0
VERTEX
  5
96
330
6E
100
AcDbEntity
  8
1_ANYTOOL_1MMDEEP_LABELS_S
100
AcDbVertex
100
AcDb2dVertex
 10
80.84062499998268
 20
-28.43052455357206
 30
0.0
  0
VERTEX
  5
97
330
6E
100
AcDbEntity
  8
1_ANYTOOL_1MMDEEP_LABELS_S
100
AcDbVertex
100
AcDb2dVertex
 10
80.99999999998266
 20
-28.55357142857201
 30
0.0
  0
VERTEX
  5
98
330
6E
100
AcDbEntity
  8
1_ANYTOOL_1MMDEEP_LABELS_S
100
AcDbVertex
100
AcDb2dVertex
 10
81.16205357141122
 20
-28.67159598214339
 30
0.0
  0
VERTEX
  5
99
330
6E
100
AcDbEntity
  8
1_ANYTOOL_1MMDEEP_LABELS_S
100
AcDbVertex
100
AcDb2dVertex
 10
81.32678571426834
 20
-28.78459821428621
 30
0.0
  0
VERTEX
  5
9A
330
6E
100
AcDbEntity
  8
1_ANYTOOL_1MMDEEP_LABELS_S
100
AcDbVertex
100
AcDb2dVertex
 10
81.49419642855403
 20
-28.89257812500045
 30
0.0
  0
VERTEX
  5
9B
330
6E
100
AcDbEntity
  8
1_ANYTOOL_1MMDEEP_LABELS_S
100
AcDbVertex
100
AcDb2dVertex
 10
81.6642857142683
 20
-28.99553571428612
 30
0.0
  0
VERTEX
  5
9C
330
6E
100
AcDbEntity
  8
1_ANYTOOL_1MMDEEP_LABELS_S
100
AcDbVertex
100
AcDb2dVertex
 10
81.83705357141115
 20
-29.09347098214322
 30
0.0
  0
VERTEX
  5
9D
330
6E
100
AcDbEntity
  8
1_ANYTOOL_1MMDEEP_LABELS_S
100
AcDbVertex
100
AcDb2dVertex
 10
82.01249999998257
 20
-29.18638392857176
 30
0.0
  0
VERTEX
  5
9E
330
6E
100
AcDbEntity
  8
1_ANYTOOL_1MMDEEP_LABELS_S
100
AcDbVertex
100
AcDb2dVertex
 10
82.19062499998256
 20
-29.27427455357172
 30
0.0
  0
VERTEX
  5
9F
330
6E
100
AcDbEntity
  8
1_ANYTOOL_1MMDEEP_LABELS_S
100
AcDbVertex
100
AcDb2dVertex
 10
82.37142857141112
 20
-29.35714285714312
 30
0.0
  0
VERTEX
  5
A0
330
6E
100
AcDbEntity
  8
1_ANYTOOL_1MMDEEP_LABELS_S
100
AcDbVertex
100
AcDb2dVertex
 10
82.55491071426826
 20
-29.43498883928594
 30
0.0
  0
VERTEX
  5
A1
330
6E
100
AcDbEntity
  8
1_ANYTOOL_1MMDEEP_LABELS_S
100
AcDbVertex
100
AcDb2dVertex
 10
82.74107142855397
 20
-29.5078125000002
 30
0.0
  0
VERTEX
  5
A2
330
6E
100
AcDbEntity
  8
1_ANYTOOL_1MMDEEP_LABELS_S
100
AcDbVertex
100
AcDb2dVertex
 10
82.92991071426825
 20
-29.57561383928589
 30
0.0
  0
VERTEX
  5
A3
330
6E
100
AcDbEntity
  8
1_ANYTOOL_1MMDEEP_LABELS_S
100
AcDbVertex
100
AcDb2dVertex
 10
83.1214285714111
 20
-29.638392857143
 30
0.0
  0
VERTEX
  5
A4
330
6E
100
AcDbEntity
  8
1_ANYTOOL_1MMDEEP_LABELS_S
100
AcDbVertex
100
AcDb2dVertex
 10
83.31562499998253
 20
-29.69614955357155
 30
0.0
  0
VERTEX
  5
A5
330
6E
100
AcDbEntity
  8
1_ANYTOOL_1MMDEEP_LABELS_S
100
AcDbVertex
100
AcDb2dVertex
 10
83.51249999998254
 20
-29.74888392857153
 30
0.0
  0
VERTEX
  5
A6
330
6E
100
AcDbEntity
  8
1_ANYTOOL_1MMDEEP_LABELS_S
100
AcDbVertex
100
AcDb2dVertex
 10
83.71205357141112
 20
-29.79659598214294
 30
0.0
  0
VERTEX
  5
A7
330
6E
100
AcDbEntity
  8
1_ANYTOOL_1MMDEEP_LABELS_S
100
AcDbVertex
100
AcDb2dVertex
 10
83.91428571426826
 20
-29.83928571428578
 30
0.0
  0
VERTEX
  5
A8
330
6E
100
AcDbEntity
  8
1_ANYTOOL_1MMDEEP_LABELS_S
100
AcDbVertex
100
AcDb2dVertex
 10
84.11919642855398
 20
-29.87695312500005
 30
0.0
  0
VERTEX
  5
A9
330
6E
100
AcDbEntity
  8
1_ANYTOOL_1MMDEEP_LABELS_S
100
AcDbVertex
100
AcDb2dVertex
 10
84.32678571426828
 20
-29.90959821428575
 30
0.0
  0
VERTEX
  5
AA
330
6E
100
AcDbEntity
  8
1_ANYTOOL_1MMDEEP_LABELS_S
100
AcDbVertex
100
AcDb2dVertex
 10
84.53705357141115
 20
-29.93722098214288
 30
0.0
  0
VERTEX
  5
AB
330
6E
100
AcDbEntity
  8
1_ANYTOOL_1MMDEEP_LABELS_S
100
AcDbVertex
100
AcDb2dVertex
 10
84.74999999998259
 20
-29.95982142857144
 30
0.0
  0
VERTEX
  5
AC
330
6E
100
AcDbEntity
  8
1_ANYTOOL_1MMDEEP_LABELS_S
100
AcDbVertex
100
AcDb2dVertex
 10
84.96562499998262
 20
-29.97739955357144
 30
0.0
  0
VERTEX
  5
AD
330
6E
100
AcDbEntity
  8
1_ANYTOOL_1MMDEEP_LABELS_S
100
AcDbVertex
100
AcDb2dVertex
 10
85.1839285714112
 20
-29.98995535714286
 30
0.0
  0
VERTEX
  5
AE
330
6E
100
AcDbEntity
  8
1_ANYTOOL_1MMDEEP_LABELS_S
100
AcDbVertex
100
AcDb2dVertex
 10
85.40491071426837
 20
-29.99748883928572
 30
0.0
  0
VERTEX
  5
AF
330
6E
100
AcDbEntity
  8
1_ANYTOOL_1MMDEEP_LABELS_S
100
AcDbVertex
100
AcDb2dVertex
 10
85.6285714285541
 20
-30.0
 30
0.0
  0
VERTEX
  5
B0
330
6E
100
AcDbEntity
  8
1_ANYTOOL_1MMDEEP_LABELS_S
100
AcDbVertex
100
AcDb2dVertex
 10
85.84160156248268
 20
-29.99769810267857
 30
0.0
  0
VERTEX
  5
B1
330
6E
100
AcDbEntity
  8
1_ANYTOOL_1MMDEEP_LABELS_S
100
AcDbVertex
100
AcDb2dVertex
 10
86.05212053569697
 20
-29.99079241071428
 30
0.0
  0
VERTEX
  5
B2
330
6E
100
AcDbEntity
  8
1_ANYTOOL_1MMDEEP_LABELS_S
100
AcDbVertex
100
AcDb2dVertex
 10
86.26012834819697
 20
-29.97928292410712
 30
0.0
  0
VERTEX
  5
B3
330
6E
100
AcDbEntity
  8
1_ANYTOOL_1MMDEEP_LABELS_S
100
AcDbVertex
100
AcDb2dVertex
 10
86.4656249999827
 20
-29.96316964285711
 30
0.0
  0
VERTEX
  5
B4
330
6E
100
AcDbEntity
  8
1_ANYTOOL_1MMDEEP_LABELS_S
100
AcDbVertex
100
AcDb2dVertex
 10
86.66861049105412
 20
-29.94245256696423
 30
0.0
  0
VERTEX
  5
B5
330
6E
100
AcDbEntity
  8
1_ANYTOOL_1MMDEEP_LABELS_S
100
AcDbVertex
100
AcDb2dVertex
 10
86.86908482141126
 20
-29.9171316964285
 30
0.0
  0
VERTEX
  5
B6
330
6E
100
AcDbEntity
  8
1_ANYTOOL_1MMDEEP_LABELS_S
100
AcDbVertex
100
AcDb2dVertex
 10
87.06704799105412
 20
-29.8872070312499
 30
0.0
  0
VERTEX
  5
B7
330
6E
100
AcDbEntity
  8
1_ANYTOOL_1MMDEEP_LABELS_S
100
AcDbVertex
100
AcDb2dVertex
 10
87.26249999998271
 20
-29.85267857142844
 30
0.0
  0
VERTEX
  5
B8
330
6E
100
AcDbEntity
  8
1_ANYTOOL_1MMDEEP_LABELS_S
100
AcDbVertex
100
AcDb2dVertex
 10
87.455440848197
 20
-29.81354631696412
 30
0.0
  0
VERTEX
  5
B9
330
6E
100
AcDbEntity
  8
1_ANYTOOL_1MMDEEP_LABELS_S
100
AcDbVertex
100
AcDb2dVertex
 10
87.64587053569699
 20
-29.76981026785694
 30
0.0
  0
VERTEX
  5
BA
330
6E
100
AcDbEntity
  8
1_ANYTOOL_1MMDEEP_LABELS_S
100
AcDbVertex
100
AcDb2dVertex
 10
87.83378906248271
 20
-29.7214704241069
 30
0.0
  0
VERTEX
  5
BB
330
6E
100
AcDbEntity
  8
1_ANYTOOL_1MMDEEP_LABELS_S
100
AcDbVertex
100
AcDb2dVertex
 10
88.01919642855414
 20
-29.66852678571399
 30
0.0
  0
VERTEX
  5
BC
330
6E
100
AcDbEntity
  8
1_ANYTOOL_1MMDEEP_LABELS_S
100
AcDbVertex
100
AcDb2dVertex
 10
88.20209263391129
 20
-29.61097935267823
 30
0.0
  0
VERTEX
  5
BD
330
6E
100
AcDbEntity
  8
1_ANYTOOL_1MMDEEP_LABELS_S
100
AcDbVertex
100
AcDb2dVertex
 10
88.38247767855414
 20
-29.5488281249996
 30
0.0
  0
VERTEX
  5
BE
330
6E
100
AcDbEntity
  8
1_ANYTOOL_1MMDEEP_LABELS_S
100
AcDbVertex
100
AcDb2dVertex
 10
88.56035156248271
 20
-29.48207310267811
 30
0.0
  0
VERTEX
  5
BF
330
6E
100
AcDbEntity
  8
1_ANYTOOL_1MMDEEP_LABELS_S
100
AcDbVertex
100
AcDb2dVertex
 10
88.73571428569699
 20
-29.41071428571377
 30
0.0
  0
VERTEX
  5
C0
330
6E
100
AcDbEntity
  8
1_ANYTOOL_1MMDEEP_LABELS_S
100
AcDbVertex
100
AcDb2dVertex
 10
88.90856584819699
 20
-29.33475167410656
 30
0.0
  0
VERTEX
  5
C1
330
6E
100
AcDbEntity
  8
1_ANYTOOL_1MMDEEP_LABELS_S
100
AcDbVertex
100
AcDb2dVertex
 10
89.0789062499827
 20
-29.25418526785649
 30
0.0
  0
VERTEX
  5
C2
330
6E
100
AcDbEntity
  8
1_ANYTOOL_1MMDEEP_LABELS_S
100
AcDbVertex
100
AcDb2dVertex
 10
89.24673549105412
 20
-29.16901506696355
 30
0.0
  0
VERTEX
  5
C3
330
6E
100
AcDbEntity
  8
1_ANYTOOL_1MMDEEP_LABELS_S
100
AcDbVertex
100
AcDb2dVertex
 10
89.41205357141125
 20
-29.07924107142776
 30
0.0
  0
VERTEX
  5
C4
330
6E
100
AcDbEntity
  8
1_ANYTOOL_1MMDEEP_LABELS_S
100
AcDbVertex
100
AcDb2dVertex
 10
89.5748604910541
 20
-28.9848632812491
 30
0.0
  0
VERTEX
  5
C5
330
6E
100
AcDbEntity
  8
1_ANYTOOL_1MMDEEP_LABELS_S
100
AcDbVertex
100
AcDb2dVertex
 10
89.73515624998265
 20
-28.88588169642759
 30
0.0
  0
VERTEX
  5
C6
330
6E
100
AcDbEntity
  8
1_ANYTOOL_1MMDEEP_LABELS_S
100
AcDbVertex
100
AcDb2dVertex
 10
89.89294084819694
 20
-28.78229631696321
 30
0.0
  0
VERTEX
  5
C7
330
6E
100
AcDbEntity
  8
1_ANYTOOL_1MMDEEP_LABELS_S
100
AcDbVertex
100
AcDb2dVertex
 10
90.04821428569693
 20
-28.67410714285597
 30
0.0
  0
VERTEX
  5
C8
330
6E
100
AcDbEntity
  8
1_ANYTOOL_1MMDEEP_LABELS_S
100
AcDbVertex
100
AcDb2dVertex
 10
90.20097656248262
 20
-28.56131417410587
 30
0.0
  0
VERTEX
  5
C9
330
6E
100
AcDbEntity
  8
1_ANYTOOL_1MMDEEP_LABELS_S
100
AcDbVertex
100
AcDb2dVertex
 10
90.35122767855404
 20
-28.44391741071291
 30
0.0
  0
VERTEX
  5
CA
330
6E
100
AcDbEntity
  8
1_ANYTOOL_1MMDEEP_LABELS_S
100
AcDbVertex
100
AcDb2dVertex
 10
90.49896763391118
 20
-28.32191685267709
 30
0.0
  0
VERTEX
  5
CB
330
6E
100
AcDbEntity
  8
1_ANYTOOL_1MMDEEP_LABELS_S
100
AcDbVertex
100
AcDb2dVertex
 10
90.64419642855403
 20
-28.19531249999841
 30
0.0
  0
VERTEX
  5
CC
330
6E
100
AcDbEntity
  8
1_ANYTOOL_1MMDEEP_LABELS_S
100
AcDbVertex
100
AcDb2dVertex
 10
90.78691406248258
 20
-28.06410435267686
 30
0.0
  0
VERTEX
  5
CD
330
6E
100
AcDbEntity
  8
1_ANYTOOL_1MMDEEP_LABELS_S
100
AcDbVertex
100
AcDb2dVertex
 10
90.92712053569686
 20
-27.92829241071246
 30
0.0
  0
VERTEX
  5
CE
330
6E
100
AcDbEntity
  8
1_ANYTOOL_1MMDEEP_LABELS_S
100
AcDbVertex
100
AcDb2dVertex
 10
91.06481584819684
 20
-27.78787667410519
 30
0.0
  0
VERTEX
  5
CF
330
6E
100
AcDbEntity
  8
1_ANYTOOL_1MMDEEP_LABELS_S
100
AcDbVertex
100
AcDb2dVertex
 10
91.19999999998254
 20
-27.64285714285506
 30
0.0
  0
VERTEX
  5
D0
330
6E
100
AcDbEntity
  8
1_ANYTOOL_1MMDEEP_LABELS_S
100
AcDbVertex
100
AcDb2dVertex
 10
91.33183593748252
 20
-27.49453124999824
 30
0.0
  0
VERTEX
  5
D1
330
6E
100
AcDbEntity
  8
1_ANYTOOL_1MMDEEP_LABELS_S
100
AcDbVertex
100
AcDb2dVertex
 10
91.45948660712537
 20
-27.34419642856997
 30
0.0
  0
VERTEX
  5
D2
330
6E
100
AcDbEntity
  8
1_ANYTOOL_1MMDEEP_LABELS_S
100
AcDbVertex
100
AcDb2dVertex
 10
91.58295200891106
 20
-27.19185267857026
 30
0.0
  0
VERTEX
  5
D3
330
6E
100
AcDbEntity
  8
1_ANYTOOL_1MMDEEP_LABELS_S
100
AcDbVertex
100
AcDb2dVertex
 10
91.70223214283962
 20
-27.03749999999911
 30
0.0
  0
VERTEX
  5
D4
330
6E
100
AcDbEntity
  8
1_ANYTOOL_1MMDEEP_LABELS_S
100
AcDbVertex
100
AcDb2dVertex
 10
91.81732700891104
 20
-26.88113839285652
 30
0.0
  0
VERTEX
  5
D5
330
6E
100
AcDbEntity
  8
1_ANYTOOL_1MMDEEP_LABELS_S
100
AcDbVertex
100
AcDb2dVertex
 10
91.92823660712531
 20
-26.72276785714249
 30
0.0
  0
VERTEX
  5
D6
330
6E
100
AcDbEntity
  8
1_ANYTOOL_1MMDEEP_LABELS_S
100
AcDbVertex
100
AcDb2dVertex
 10
92.03496093748244
 20
-26.56238839285701
 30
0.0
  0
VERTEX
  5
D7
330
6E
100
AcDbEntity
  8
1_ANYTOOL_1MMDEEP_LABELS_S
100
AcDbVertex
100
AcDb2dVertex
 10
92.13749999998242
 20
-26.40000000000009
 30
0.0
  0
VERTEX
  5
D8
330
6E
100
AcDbEntity
  8
1_ANYTOOL_1MMDEEP_LABELS_S
100
AcDbVertex
100
AcDb2dVertex
 10
92.23585379462527
 20
-26.23560267857173
 30
0.0
  0
VERTEX
  5
D9
330
6E
100
AcDbEntity
  8
1_ANYTOOL_1MMDEEP_LABELS_S
100
AcDbVertex
100
AcDb2dVertex
 10
92.33002232141098
 20
-26.06919642857193
 30
0.0
  0
VERTEX
  5
DA
330
6E
100
AcDbEntity
  8
1_ANYTOOL_1MMDEEP_LABELS_S
100
AcDbVertex
100
AcDb2dVertex
 10
92.42000558033953
 20
-25.90078125000068
 30
0.0
  0
VERTEX
  5
DB
330
6E
100
AcDbEntity
  8
1_ANYTOOL_1MMDEEP_LABELS_S
100
AcDbVertex
100
AcDb2dVertex
 10
92.50580357141095
 20
-25.730357142858
 30
0.0
  0
VERTEX
  5
DC
330
6E
100
AcDbEntity
  8
1_ANYTOOL_1MMDEEP_LABELS_S
100
AcDbVertex
100
AcDb2dVertex
 10
92.58741629462523
 20
-25.55792410714387
 30
0.0
  0
VERTEX
  5
DD
330
6E
100
AcDbEntity
  8
1_ANYTOOL_1MMDEEP_LABELS_S
100
AcDbVertex
100
AcDb2dVertex
 10
92.66484374998237
 20
-25.3834821428583
 30
0.0
  0
VERTEX
  5
DE
330
6E
100
AcDbEntity
  8
1_ANYTOOL_1MMDEEP_LABELS_S
100
AcDbVertex
100
AcDb2dVertex
 10
92.73808593748235
 20
-25.20703125000129
 30
0.0
  0
VERTEX
  5
DF
330
6E
100
AcDbEntity
  8
1_ANYTOOL_1MMDEEP_LABELS_S
100
AcDbVertex
100
AcDb2dVertex
 10
92.8071428571252
 20
-25.02857142857283
 30
0.0
  0
VERTEX
  5
E0
330
6E
100
AcDbEntity
  8
1_ANYTOOL_1MMDEEP_LABELS_S
100
AcDbVertex
100
AcDb2dVertex
 10
92.87201450891091
 20
-24.84810267857294
 30
0.0
  0
VERTEX
  5
E1
330
6E
100
AcDbEntity
  8
1_ANYTOOL_1MMDEEP_LABELS_S
100
AcDbVertex
100
AcDb2dVertex
 10
92.93270089283948
 20
-24.6656250000016
 30
0.0
  0
VERTEX
  5
E2
330
6E
100
AcDbEntity
  8
1_ANYTOOL_1MMDEEP_LABELS_S
100
AcDbVertex
100
AcDb2dVertex
 10
92.9892020089109
 20
-24.48113839285882
 30
0.0
  0
VERTEX
  5
E3
330
6E
100
AcDbEntity
  8
1_ANYTOOL_1MMDEEP_LABELS_S
100
AcDbVertex
100
AcDb2dVertex
 10
93.04151785712517
 20
-24.29464285714459
 30
0.0
  0
VERTEX
  5
E4
330
6E
100
AcDbEntity
  8
1_ANYTOOL_1MMDEEP_LABELS_S
100
AcDbVertex
100
AcDb2dVertex
 10
93.08964843748231
 20
-24.10613839285893
 30
0.0
  0
VERTEX
  5
E5
330
6E
100
AcDbEntity
  8
1_ANYTOOL_1MMDEEP_LABELS_S
100
AcDbVertex
100
AcDb2dVertex
 10
93.13359374998231
 20
-23.91562500000182
 30
0.0
  0
VERTEX
  5
E6
330
6E
100
AcDbEntity
  8
1_ANYTOOL_1MMDEEP_LABELS_S
100
AcDbVertex
100
AcDb2dVertex
 10
93.17335379462516
 20
-23.72310267857328
 30
0.0
  0
VERTEX
  5
E7
330
6E
100
AcDbEntity
  8
1_ANYTOOL_1MMDEEP_LABELS_S
100
AcDbVertex
100
AcDb2dVertex
 10
93.20892857141087
 20
-23.52857142857329
 30
0.0
  0
VERTEX
  5
E8
330
6E
100
AcDbEntity
  8
1_ANYTOOL_1MMDEEP_LABELS_S
100
AcDbVertex
100
AcDb2dVertex
 10
93.24031808033943
 20
-23.33203125000185
 30
0.0
  0
VERTEX
  5
E9
330
6E
100
AcDbEntity
  8
1_ANYTOOL_1MMDEEP_LABELS_S
100
AcDbVertex
100
AcDb2dVertex
 10
93.26752232141087
 20
-23.13348214285898
 30
0.0
  0
VERTEX
  5
EA
330
6E
100
AcDbEntity
  8
1_ANYTOOL_1MMDEEP_LABELS_S
100
AcDbVertex
100
AcDb2dVertex
 10
93.29054129462514
 20
-22.93292410714466
 30
0.0
  0
VERTEX
  5
EB
330
6E
100
AcDbEntity
  8
1_ANYTOOL_1MMDEEP_LABELS_S
100
AcDbVertex
100
AcDb2dVertex
 10
93.30937499998228
 20
-22.73035714285891
 30
0.0
  0
VERTEX
  5
EC
330
6E
100
AcDbEntity
  8
1_ANYTOOL_1MMDEEP_LABELS_S
100
AcDbVertex
100
AcDb2dVertex
 10
93.32402343748228
 20
-22.52578125000171
 30
0.0
  0
VERTEX
  5
ED
330
6E
100
AcDbEntity
  8
1_ANYTOOL_1MMDEEP_LABELS_S
100
AcDbVertex
100
AcDb2dVertex
 10
93.33448660712514
 20
-22.31919642857306
 30
0.0
  0
VERTEX
  5
EE
330
6E
100
AcDbEntity
  8
1_ANYTOOL_1MMDEEP_LABELS_S
100
AcDbVertex
100
AcDb2dVertex
 10
93.34076450891085
 20
-22.11060267857298
 30
0.0
  0
VERTEX
  5
EF
330
6E
100
AcDbEntity
  8
1_ANYTOOL_1MMDEEP_LABELS_S
100
AcDbVertex
100
AcDb2dVertex
 10
93.34285714283942
 20
-21.90000000000146
 30
0.0
  0
VERTEX
  5
F0
330
6E
100
AcDbEntity
  8
1_ANYTOOL_1MMDEEP_LABELS_S
100
AcDbVertex
100
AcDb2dVertex
 10
93.34285714283942
 20
0.0
 30
0.0
  0
SEQEND
  5
F1
330
6E
100
AcDbEntity
  8
1_ANYTOOL_1MMDEEP_LABELS_S
  0
POLYLINE
  5
F3
330
1F
100
AcDbEntity
  8
3_ANYTOOL_CUTTHROUGH_INSID
100
AcDb2dPolyline
 66
     1
 10
0.0
 20
0.0
 30
0.0
 70
     1
  0
VERTEX
  5
F4
330
F3
100
AcDbEntity
  8
3_ANYTOOL_CUTTHROUGH_INSID
100
AcDbVertex
100
AcDb2dVertex
 10
-712.7941743594984
 20
76.04314768740733
 30
0.0
  0
VERTEX
  5
F5
330
F3
100
AcDbEntity
  8
3_ANYTOOL_CUTTHROUGH_INSID
100
AcDbVertex
100
AcDb2dVertex
 10
-712.7941743594984
 20
70.04314768740733
 30
0.0
  0
VERTEX
  5
F6
330
F3
100
AcDbEntity
  8
3_ANYTOOL_CUTTHROUGH_INSID
100
AcDbVertex
100
AcDb2dVertex
 10
-724.7941743594984
 20
70.04314768739277
 30
0.0
  0
VERTEX
  5
F7
330
F3
100
AcDbEntity
  8
3_ANYTOOL_CUTTHROUGH_INSID
100
AcDbVertex
100
AcDb2dVertex
 10
-724.7941743594838
 20
57.54314768739277
 30
0.0
  0
VERTEX
  5
F8
330
F3
100
AcDbEntity
  8
3_ANYTOOL_CUTTHROUGH_INSID
100
AcDbVertex
100
AcDb2dVertex
 10
-718.7941743594838
 20
57.54314768737822
 30
0.0
  0
VERTEX
  5
F9
330
F3
100
AcDbEntity
  8
3_ANYTOOL_CUTTHROUGH_INSID
100
AcDbVertex
100
AcDb2dVertex
 10
-718.7941743594984
 20
12.04314768736367
 30
0.0
  0
VERTEX
  5
FA
330
F3
100
AcDbEntity
  8
3_ANYTOOL_CUTTHROUGH_INSID
100
AcDbVertex
100
AcDb2dVertex
 10
-724.7941743594984
 20
12.04314768739277
 30
0.0
  0
VERTEX
  5
FB
330
F3
100
AcDbEntity
  8
3_ANYTOOL_CUTTHROUGH_INSID
100
AcDbVertex
100
AcDb2dVertex
 10
-724.7941743594984
 20
-0.456852312607225
 30
0.0
  0
VERTEX
  5
FC
330
F3
100
AcDbEntity
  8
3_ANYTOOL_CUTTHROUGH_INSID
100
AcDbVertex
100
AcDb2dVertex
 10
-712.7941743594993
 20
-0.456852312607225
 30
0.0
  0
VERTEX
  5
FD
330
F3
100
AcDbEntity
  8
3_ANYTOOL_CUTTHROUGH_INSID
100
AcDbVertex
100
AcDb2dVertex
 10
-712.794174359512
 20
-6.456852312607225
 30
0.0
  0
VERTEX
  5
FE
330
F3
100
AcDbEntity
  8
3_ANYTOOL_CUTTHROUGH_INSID
100
AcDbVertex
100
AcDb2dVertex
 10
-700.2941743595111
 20
-6.456852312636329
 30
0.0
  0
VERTEX
  5
FF
330
F3
100
AcDbEntity
  8
3_ANYTOOL_CUTTHROUGH_INSID
100
AcDbVertex
100
AcDb2dVertex
 10
-700.2941743594965
 20
76.04314768737822
 30
0.0
  0
SEQEND
  5
100
330
F3
100
AcDbEntity
  8
3_ANYTOOL_CUTTHROUGH_INSID
  0
POLYLINE
  5
101
330
1F
100
AcDbEntity
  8
3_ANYTOOL_CUTTHROUGH_INSID
100
AcDb2dPolyline
 66
     1
 10
0.0
 20
0.0
 30
0.0
 70
     1
  0
VERTEX
  5
102
330
101
100
AcDbEntity
  8
3_ANYTOOL_CUTTHROUGH_INSID
100
AcDbVertex
100
AcDb2dVertex
 10
-868.294174359515
 20
149.7931389048972
 30
0.0
 42
1.000000949554592
  0
VERTEX
  5
103
330
101
100
AcDbEntity
  8
3_ANYTOOL_CUTTHROUGH_INSID
100
AcDbVertex
100
AcDb2dVertex
 10
-877.794174359509
 20
149.7931476882804
 30
0.0
  0
VERTEX
  5
104
330
101
100
AcDbEntity
  8
3_ANYTOOL_CUTTHROUGH_INSID
100
AcDbVertex
100
AcDb2dVertex
 10
-877.7941743594992
 20
99.79314786111354
 30
0.0
 42
1.000001457191516
  0
VERTEX
  5
105
330
101
100
AcDbEntity
  8
3_ANYTOOL_CUTTHROUGH_INSID
100
AcDbVertex
100
AcDb2dVertex
 10
-868.2941743595057
 20
99.7931487406095
 30
0.0
  0
SEQEND
  5
106
330
101
100
AcDbEntity
  8
3_ANYTOOL_CUTTHROUGH_INSID
  0
POLYLINE
  5
107
330
1F
100
AcDbEntity
  8
3_ANYTOOL_CUTTHROUGH_INSID
100
AcDb2dPolyline
 66
     1
 10
0.0
 20
0.0
 30
0.0
 70
     1
  0
VERTEX
  5
108
330
107
100
AcDbEntity
  8
3_ANYTOOL_CUTTHROUGH_INSID
100
AcDbVertex
100
AcDb2dVertex
 10
-594.7941743594538
 20
76.04314768745098
 30
0.0
  0
VERTEX
  5
109
330
107
100
AcDbEntity
  8
3_ANYTOOL_CUTTHROUGH_INSID
100
AcDbVertex
100
AcDb2dVertex
 10
-594.794174359452
 20
70.04314768745098
 30
0.0
  0
VERTEX
  5
10A
330
107
100
AcDbEntity
  8
3_ANYTOOL_CUTTHROUGH_INSID
100
AcDbVertex
100
AcDb2dVertex
 10
-606.7941743594538
 20
70.04314768740733
 30
0.0
  0
VERTEX
  5
10B
330
107
100
AcDbEntity
  8
3_ANYTOOL_CUTTHROUGH_INSID
100
AcDbVertex
100
AcDb2dVertex
 10
-606.7941743594374
 20
57.54314768740733
 30
0.0
  0
VERTEX
  5
10C
330
107
100
AcDbEntity
  8
3_ANYTOOL_CUTTHROUGH_INSID
100
AcDbVertex
100
AcDb2dVertex
 10
-600.7941743594229
 20
57.54314768739277
 30
0.0
  0
VERTEX
  5
10D
330
107
100
AcDbEntity
  8
3_ANYTOOL_CUTTHROUGH_INSID
100
AcDbVertex
100
AcDb2dVertex
 10
-600.7941743594474
 20
12.04314768740733
 30
0.0
  0
VERTEX
  5
10E
330
107
100
AcDbEntity
  8
3_ANYTOOL_CUTTHROUGH_INSID
100
AcDbVertex
100
AcDb2dVertex
 10
-606.7941743594474
 20
12.04314768742188
 30
0.0
  0
VERTEX
  5
10F
330
107
100
AcDbEntity
  8
3_ANYTOOL_CUTTHROUGH_INSID
100
AcDbVertex
100
AcDb2dVertex
 10
-606.7941743594492
 20
-0.4568523125781212
 30
0.0
  0
VERTEX
  5
110
330
107
100
AcDbEntity
  8
3_ANYTOOL_CUTTHROUGH_INSID
100
AcDbVertex
100
AcDb2dVertex
 10
-594.7941743594483
 20
-0.4568523125635693
 30
0.0
  0
VERTEX
  5
111
330
107
100
AcDbEntity
  8
3_ANYTOOL_CUTTHROUGH_INSID
100
AcDbVertex
100
AcDb2dVertex
 10
-594.7941743594447
 20
-6.456852312563569
 30
0.0
  0
VERTEX
  5
112
330
107
100
AcDbEntity
  8
3_ANYTOOL_CUTTHROUGH_INSID
100
AcDbVertex
100
AcDb2dVertex
 10
-582.294174359442
 20
-6.456852312607225
 30
0.0
  0
VERTEX
  5
113
330
107
100
AcDbEntity
  8
3_ANYTOOL_CUTTHROUGH_INSID
100
AcDbVertex
100
AcDb2dVertex
 10
-582.294174359452
 20
76.04314768740733
 30
0.0
  0
SEQEND
  5
114
330
107
100
AcDbEntity
  8
3_ANYTOOL_CUTTHROUGH_INSID
  0
POLYLINE
  5
115
330
1F
100
AcDbEntity
  8
3_ANYTOOL_CUTTHROUGH_INSID
100
AcDb2dPolyline
 66
     1
 10
0.0
 20
0.0
 30
-0.0000000000105563
 70
     1
  0
VERTEX
  5
116
330
115
100
AcDbEntity
  8
3_ANYTOOL_CUTTHROUGH_INSID
100
AcDbVertex
100
AcDb2dVertex
 10
-275.7941743646879
 20
-101.9568523121052
 30
-0.0000000000105563
  0
VERTEX
  5
117
330
115
100
AcDbEntity
  8
3_ANYTOOL_CUTTHROUGH_INSID
100
AcDbVertex
100
AcDb2dVertex
 10
-275.7941743647179
 20
-95.95685231210518
 30
-0.0000000000105563
  0
VERTEX
  5
118
330
115
100
AcDbEntity
  8
3_ANYTOOL_CUTTHROUGH_INSID
100
AcDbVertex
100
AcDb2dVertex
 10
-288.294174364717
 20
-95.95685231211974
 30
-0.0000000000105563
  0
VERTEX
  5
119
330
115
100
AcDbEntity
  8
3_ANYTOOL_CUTTHROUGH_INSID
100
AcDbVertex
100
AcDb2dVertex
 10
-288.2941743647134
 20
-126.4568523120761
 30
-0.0000000000105563
  0
VERTEX
  5
11A
330
115
100
AcDbEntity
  8
3_ANYTOOL_CUTTHROUGH_INSID
100
AcDbVertex
100
AcDb2dVertex
 10
-275.7941743647134
 20
-126.4568523120615
 30
-0.0000000000105563
  0
VERTEX
  5
11B
330
115
100
AcDbEntity
  8
3_ANYTOOL_CUTTHROUGH_INSID
100
AcDbVertex
100
AcDb2dVertex
 10
-275.7941743647425
 20
-120.4568523120615
 30
-0.0000000000105563
  0
VERTEX
  5
11C
330
115
100
AcDbEntity
  8
3_ANYTOOL_CUTTHROUGH_INSID
100
AcDbVertex
100
AcDb2dVertex
 10
-225.2941743647816
 20
-120.456852311625
 30
-0.0000000000105563
  0
VERTEX
  5
11D
330
115
100
AcDbEntity
  8
3_ANYTOOL_CUTTHROUGH_INSID
100
AcDbVertex
100
AcDb2dVertex
 10
-225.2941743647807
 20
-126.456852311625
 30
-0.0000000000105563
  0
VERTEX
  5
11E
330
115
100
AcDbEntity
  8
3_ANYTOOL_CUTTHROUGH_INSID
100
AcDbVertex
100
AcDb2dVertex
 10
-212.7941743647807
 20
-126.4568523116104
 30
-0.0000000000105563
  0
VERTEX
  5
11F
330
115
100
AcDbEntity
  8
3_ANYTOOL_CUTTHROUGH_INSID
100
AcDbVertex
100
AcDb2dVertex
 10
-212.7941743647834
 20
-95.95685231165407
 30
-0.0000000000105563
  0
VERTEX
  5
120
330
115
100
AcDbEntity
  8
3_ANYTOOL_CUTTHROUGH_INSID
100
AcDbVertex
100
AcDb2dVertex
 10
-225.2941743647834
 20
-95.95685231166135
 30
-0.0000000000105563
  0
VERTEX
  5
121
330
115
100
AcDbEntity
  8
3_ANYTOOL_CUTTHROUGH_INSID
100
AcDbVertex
100
AcDb2dVertex
 10
-225.2941743647534
 20
-101.9568523116614
 30
-0.0000000000105563
  0
SEQEND
  5
122
330
115
100
AcDbEntity
  8
3_ANYTOOL_CUTTHROUGH_INSID
  0
POLYLINE
  5
123
330
1F
100
AcDbEntity
  8
3_ANYTOOL_CUTTHROUGH_INSID
100
AcDb2dPolyline
 66
     1
 10
0.0
 20
0.0
 30
-0.0000000000029772
 70
     1
  0
VERTEX
  5
124
330
123
100
AcDbEntity
  8
3_ANYTOOL_CUTTHROUGH_INSID
100
AcDbVertex
100
AcDb2dVertex
 10
-425.7941743647143
 20
-101.9568523119451
 30
-0.0000000000029772
  0
VERTEX
  5
125
330
123
100
AcDbEntity
  8
3_ANYTOOL_CUTTHROUGH_INSID
100
AcDbVertex
100
AcDb2dVertex
 10
-425.7941743647152
 20
-95.95685231194511
 30
-0.0000000000029772
  0
VERTEX
  5
126
330
123
100
AcDbEntity
  8
3_ANYTOOL_CUTTHROUGH_INSID
100
AcDbVertex
100
AcDb2dVertex
 10
-438.2941743647143
 20
-95.95685231197422
 30
-0.0000000000029772
  0
VERTEX
  5
127
330
123
100
AcDbEntity
  8
3_ANYTOOL_CUTTHROUGH_INSID
100
AcDbVertex
100
AcDb2dVertex
 10
-438.2941743647416
 20
-126.4568523119306
 30
-0.0000000000029772
  0
VERTEX
  5
128
330
123
100
AcDbEntity
  8
3_ANYTOOL_CUTTHROUGH_INSID
100
AcDbVertex
100
AcDb2dVertex
 10
-425.7941743647416
 20
-126.456852311916
 30
-0.0000000000029772
  0
VERTEX
  5
129
330
123
100
AcDbEntity
  8
3_ANYTOOL_CUTTHROUGH_INSID
100
AcDbVertex
100
AcDb2dVertex
 10
-425.7941743647416
 20
-120.456852311916
 30
-0.0000000000029772
  0
VERTEX
  5
12A
330
123
100
AcDbEntity
  8
3_ANYTOOL_CUTTHROUGH_INSID
100
AcDbVertex
100
AcDb2dVertex
 10
-375.2941743647125
 20
-120.4568523119597
 30
-0.0000000000029772
  0
VERTEX
  5
12B
330
123
100
AcDbEntity
  8
3_ANYTOOL_CUTTHROUGH_INSID
100
AcDbVertex
100
AcDb2dVertex
 10
-375.2941743647125
 20
-126.4568523119597
 30
-0.0000000000029772
  0
VERTEX
  5
12C
330
123
100
AcDbEntity
  8
3_ANYTOOL_CUTTHROUGH_INSID
100
AcDbVertex
100
AcDb2dVertex
 10
-362.7941743647125
 20
-126.4568523119451
 30
-0.0000000000029772
  0
VERTEX
  5
12D
330
123
100
AcDbEntity
  8
3_ANYTOOL_CUTTHROUGH_INSID
100
AcDbVertex
100
AcDb2dVertex
 10
-362.7941743647161
 20
-95.95685231198877
 30
-0.0000000000029772
  0
VERTEX
  5
12E
330
123
100
AcDbEntity
  8
3_ANYTOOL_CUTTHROUGH_INSID
100
AcDbVertex
100
AcDb2dVertex
 10
-375.2941743647161
 20
-95.95685231198877
 30
-0.0000000000029772
  0
VERTEX
  5
12F
330
123
100
AcDbEntity
  8
3_ANYTOOL_CUTTHROUGH_INSID
100
AcDbVertex
100
AcDb2dVertex
 10
-375.2941743646861
 20
-101.9568523119888
 30
-0.0000000000029772
  0
SEQEND
  5
130
330
123
100
AcDbEntity
  8
3_ANYTOOL_CUTTHROUGH_INSID
  0
POLYLINE
  5
131
330
1F
100
AcDbEntity
  8
3_ANYTOOL_CUTTHROUGH_INSID
100
AcDb2dPolyline
 66
     1
 10
0.0
 20
0.0
 30
-0.0000000000078195
 70
     1
  0
VERTEX
  5
132
330
131
100
AcDbEntity
  8
3_ANYTOOL_CUTTHROUGH_INSID
100
AcDbVertex
100
AcDb2dVertex
 10
24.20582563521293
 20
-101.9568523119087
 30
-0.0000000000078195
  0
VERTEX
  5
133
330
131
100
AcDbEntity
  8
3_ANYTOOL_CUTTHROUGH_INSID
100
AcDbVertex
100
AcDb2dVertex
 10
24.20582563521293
 20
-95.95685231191601
 30
-0.0000000000078195
  0
VERTEX
  5
134
330
131
100
AcDbEntity
  8
3_ANYTOOL_CUTTHROUGH_INSID
100
AcDbVertex
100
AcDb2dVertex
 10
11.70582563521566
 20
-95.95685231193784
 30
-0.0000000000078195
  0
VERTEX
  5
135
330
131
100
AcDbEntity
  8
3_ANYTOOL_CUTTHROUGH_INSID
100
AcDbVertex
100
AcDb2dVertex
 10
11.70582563518656
 20
-126.4568523118942
 30
-0.0000000000078195
  0
VERTEX
  5
136
330
131
100
AcDbEntity
  8
3_ANYTOOL_CUTTHROUGH_INSID
100
AcDbVertex
100
AcDb2dVertex
 10
24.20582563518474
 20
-126.4568523118796
 30
-0.0000000000078195
  0
VERTEX
  5
137
330
131
100
AcDbEntity
  8
3_ANYTOOL_CUTTHROUGH_INSID
100
AcDbVertex
100
AcDb2dVertex
 10
24.20582563518565
 20
-120.4568523118724
 30
-0.0000000000078195
  0
VERTEX
  5
138
330
131
100
AcDbEntity
  8
3_ANYTOOL_CUTTHROUGH_INSID
100
AcDbVertex
100
AcDb2dVertex
 10
74.70582574927721
 20
-120.4568523102716
 30
-0.0000000000078195
  0
VERTEX
  5
139
330
131
100
AcDbEntity
  8
3_ANYTOOL_CUTTHROUGH_INSID
100
AcDbVertex
100
AcDb2dVertex
 10
74.70582574930722
 20
-126.4568523102644
 30
-0.0000000000078195
  0
VERTEX
  5
13A
330
131
100
AcDbEntity
  8
3_ANYTOOL_CUTTHROUGH_INSID
100
AcDbVertex
100
AcDb2dVertex
 10
87.20582574930722
 20
-126.4568523102498
 30
-0.0000000000078195
  0
VERTEX
  5
13B
330
131
100
AcDbEntity
  8
3_ANYTOOL_CUTTHROUGH_INSID
100
AcDbVertex
100
AcDb2dVertex
 10
87.2058257493045
 20
-95.95685231029347
 30
-0.0000000000078195
  0
VERTEX
  5
13C
330
131
100
AcDbEntity
  8
3_ANYTOOL_CUTTHROUGH_INSID
100
AcDbVertex
100
AcDb2dVertex
 10
74.7058257493045
 20
-95.95685231030075
 30
-0.0000000000078195
  0
VERTEX
  5
13D
330
131
100
AcDbEntity
  8
3_ANYTOOL_CUTTHROUGH_INSID
100
AcDbVertex
100
AcDb2dVertex
 10
74.7058257493054
 20
-101.9568523103153
 30
-0.0000000000078195
  0
SEQEND
  5
13E
330
131
100
AcDbEntity
  8
3_ANYTOOL_CUTTHROUGH_INSID
  0
POLYLINE
  5
13F
330
1F
100
AcDbEntity
  8
3_ANYTOOL_CUTTHROUGH_INSID
100
AcDb2dPolyline
 66
     1
 10
0.0
 20
0.0
 30
-0.0000000000109353
 70
     1
  0
VERTEX
  5
140
330
13F
100
AcDbEntity
  8
3_ANYTOOL_CUTTHROUGH_INSID
100
AcDbVertex
100
AcDb2dVertex
 10
-125.7941743647834
 20
-101.9568523117487
 30
-0.0000000000109353
  0
VERTEX
  5
141
330
13F
100
AcDbEntity
  8
3_ANYTOOL_CUTTHROUGH_INSID
100
AcDbVertex
100
AcDb2dVertex
 10
-125.7941743647843
 20
-95.95685231174866
 30
-0.0000000000109353
  0
VERTEX
  5
142
330
13F
100
AcDbEntity
  8
3_ANYTOOL_CUTTHROUGH_INSID
100
AcDbVertex
100
AcDb2dVertex
 10
-138.2941743647834
 20
-95.95685231177049
 30
-0.0000000000109353
  0
VERTEX
  5
143
330
13F
100
AcDbEntity
  8
3_ANYTOOL_CUTTHROUGH_INSID
100
AcDbVertex
100
AcDb2dVertex
 10
-138.2941743648116
 20
-126.4568523117341
 30
-0.0000000000109353
  0
VERTEX
  5
144
330
13F
100
AcDbEntity
  8
3_ANYTOOL_CUTTHROUGH_INSID
100
AcDbVertex
100
AcDb2dVertex
 10
-125.7941743648116
 20
-126.4568523117123
 30
-0.0000000000109353
  0
VERTEX
  5
145
330
13F
100
AcDbEntity
  8
3_ANYTOOL_CUTTHROUGH_INSID
100
AcDbVertex
100
AcDb2dVertex
 10
-125.7941743648125
 20
-120.4568523117123
 30
-0.0000000000109353
  0
VERTEX
  5
146
330
13F
100
AcDbEntity
  8
3_ANYTOOL_CUTTHROUGH_INSID
100
AcDbVertex
100
AcDb2dVertex
 10
-75.29417436478343
 20
-120.4568523117632
 30
-0.0000000000109353
  0
VERTEX
  5
147
330
13F
100
AcDbEntity
  8
3_ANYTOOL_CUTTHROUGH_INSID
100
AcDbVertex
100
AcDb2dVertex
 10
-75.29417436478434
 20
-126.4568523117632
 30
-0.0000000000109353
  0
VERTEX
  5
148
330
13F
100
AcDbEntity
  8
3_ANYTOOL_CUTTHROUGH_INSID
100
AcDbVertex
100
AcDb2dVertex
 10
-62.79417436478434
 20
-126.4568523117487
 30
-0.0000000000109353
  0
VERTEX
  5
149
330
13F
100
AcDbEntity
  8
3_ANYTOOL_CUTTHROUGH_INSID
100
AcDbVertex
100
AcDb2dVertex
 10
-62.79417436478616
 20
-95.95685231179232
 30
-0.0000000000109353
  0
VERTEX
  5
14A
330
13F
100
AcDbEntity
  8
3_ANYTOOL_CUTTHROUGH_INSID
100
AcDbVertex
100
AcDb2dVertex
 10
-75.29417436478707
 20
-95.9568523117996
 30
-0.0000000000109353
  0
VERTEX
  5
14B
330
13F
100
AcDbEntity
  8
3_ANYTOOL_CUTTHROUGH_INSID
100
AcDbVertex
100
AcDb2dVertex
 10
-75.29417436475705
 20
-101.9568523117996
 30
-0.0000000000109353
  0
SEQEND
  5
14C
330
13F
100
AcDbEntity
  8
3_ANYTOOL_CUTTHROUGH_INSID
  0
POLYLINE
  5
14D
330
1F
100
AcDbEntity
  8
3_ANYTOOL_CUTTHROUGH_INSID
100
AcDb2dPolyline
 66
     1
 10
0.0
 20
0.0
 30
-0.0000000000090594
 70
     1
  0
VERTEX
  5
14E
330
14D
100
AcDbEntity
  8
3_ANYTOOL_CUTTHROUGH_INSID
100
AcDbVertex
100
AcDb2dVertex
 10
-76.29417435955293
 20
51.54314768682525
 30
-0.0000000000090594
  0
VERTEX
  5
14F
330
14D
100
AcDbEntity
  8
3_ANYTOOL_CUTTHROUGH_INSID
100
AcDbVertex
100
AcDb2dVertex
 10
-76.29417435955202
 20
64.04314768682525
 30
-0.0000000000090594
  0
VERTEX
  5
150
330
14D
100
AcDbEntity
  8
3_ANYTOOL_CUTTHROUGH_INSID
100
AcDbVertex
100
AcDb2dVertex
 10
-82.29417435955202
 20
64.0431476868107
 30
-0.0000000000090594
  0
VERTEX
  5
151
330
14D
100
AcDbEntity
  8
3_ANYTOOL_CUTTHROUGH_INSID
100
AcDbVertex
100
AcDb2dVertex
 10
-82.29417435951109
 20
109.5431476868398
 30
-0.0000000000090594
  0
VERTEX
  5
152
330
14D
100
AcDbEntity
  8
3_ANYTOOL_CUTTHROUGH_INSID
100
AcDbVertex
100
AcDb2dVertex
 10
-76.29417435951109
 20
109.5431476868544
 30
-0.0000000000090594
  0
VERTEX
  5
153
330
14D
100
AcDbEntity
  8
3_ANYTOOL_CUTTHROUGH_INSID
100
AcDbVertex
100
AcDb2dVertex
 10
-76.29417435952655
 20
122.0431476868544
 30
-0.0000000000090594
  0
VERTEX
  5
154
330
14D
100
AcDbEntity
  8
3_ANYTOOL_CUTTHROUGH_INSID
100
AcDbVertex
100
AcDb2dVertex
 10
-124.7941743594811
 20
122.0431476868544
 30
-0.0000000000090594
  0
VERTEX
  5
155
330
14D
100
AcDbEntity
  8
3_ANYTOOL_CUTTHROUGH_INSID
100
AcDbVertex
100
AcDb2dVertex
 10
-124.7941743594656
 20
109.5431476868544
 30
-0.0000000000090594
  0
VERTEX
  5
156
330
14D
100
AcDbEntity
  8
3_ANYTOOL_CUTTHROUGH_INSID
100
AcDbVertex
100
AcDb2dVertex
 10
-118.7941743594674
 20
109.5431476868689
 30
-0.0000000000090594
  0
VERTEX
  5
157
330
14D
100
AcDbEntity
  8
3_ANYTOOL_CUTTHROUGH_INSID
100
AcDbVertex
100
AcDb2dVertex
 10
-118.7941743595229
 20
64.04314768685435
 30
-0.0000000000090594
  0
VERTEX
  5
158
330
14D
100
AcDbEntity
  8
3_ANYTOOL_CUTTHROUGH_INSID
100
AcDbVertex
100
AcDb2dVertex
 10
-124.7941743595238
 20
64.0431476868398
 30
-0.0000000000090594
  0
VERTEX
  5
159
330
14D
100
AcDbEntity
  8
3_ANYTOOL_CUTTHROUGH_INSID
100
AcDbVertex
100
AcDb2dVertex
 10
-124.794174359492
 20
51.5431476868398
 30
-0.0000000000090594
  0
SEQEND
  5
15A
330
14D
100
AcDbEntity
  8
3_ANYTOOL_CUTTHROUGH_INSID
  0
POLYLINE
  5
15B
330
1F
100
AcDbEntity
  8
3_ANYTOOL_CUTTHROUGH_INSID
100
AcDb2dPolyline
 66
     1
 10
0.0
 20
0.0
 30
-0.0000000000124736
 70
     1
  0
VERTEX
  5
15C
330
15B
100
AcDbEntity
  8
3_ANYTOOL_CUTTHROUGH_INSID
100
AcDbVertex
100
AcDb2dVertex
 10
324.2058257493009
 20
-101.9568523105554
 30
-0.0000000000124736
  0
VERTEX
  5
15D
330
15B
100
AcDbEntity
  8
3_ANYTOOL_CUTTHROUGH_INSID
100
AcDbVertex
100
AcDb2dVertex
 10
324.2058257492718
 20
-95.9568523105554
 30
-0.0000000000124736
  0
VERTEX
  5
15E
330
15B
100
AcDbEntity
  8
3_ANYTOOL_CUTTHROUGH_INSID
100
AcDbVertex
100
AcDb2dVertex
 10
311.7058257492727
 20
-95.95685231057723
 30
-0.0000000000124736
  0
VERTEX
  5
15F
330
15B
100
AcDbEntity
  8
3_ANYTOOL_CUTTHROUGH_INSID
100
AcDbVertex
100
AcDb2dVertex
 10
311.7058257492745
 20
-126.4568523105336
 30
-0.0000000000124736
  0
VERTEX
  5
160
330
15B
100
AcDbEntity
  8
3_ANYTOOL_CUTTHROUGH_INSID
100
AcDbVertex
100
AcDb2dVertex
 10
324.2058257492745
 20
-126.456852310519
 30
-0.0000000000124736
  0
VERTEX
  5
161
330
15B
100
AcDbEntity
  8
3_ANYTOOL_CUTTHROUGH_INSID
100
AcDbVertex
100
AcDb2dVertex
 10
324.2058257492445
 20
-120.456852310519
 30
-0.0000000000124736
  0
VERTEX
  5
162
330
15B
100
AcDbEntity
  8
3_ANYTOOL_CUTTHROUGH_INSID
100
AcDbVertex
100
AcDb2dVertex
 10
374.7058257492408
 20
-120.456852310861
 30
-0.0000000000124736
  0
VERTEX
  5
163
330
15B
100
AcDbEntity
  8
3_ANYTOOL_CUTTHROUGH_INSID
100
AcDbVertex
100
AcDb2dVertex
 10
374.7058257492417
 20
-126.456852310861
 30
-0.0000000000124736
  0
VERTEX
  5
164
330
15B
100
AcDbEntity
  8
3_ANYTOOL_CUTTHROUGH_INSID
100
AcDbVertex
100
AcDb2dVertex
 10
387.2058257492417
 20
-126.4568523108464
 30
-0.0000000000124736
  0
VERTEX
  5
165
330
15B
100
AcDbEntity
  8
3_ANYTOOL_CUTTHROUGH_INSID
100
AcDbVertex
100
AcDb2dVertex
 10
387.205825749239
 20
-95.9568523108901
 30
-0.0000000000124736
  0
VERTEX
  5
166
330
15B
100
AcDbEntity
  8
3_ANYTOOL_CUTTHROUGH_INSID
100
AcDbVertex
100
AcDb2dVertex
 10
374.705825749239
 20
-95.95685231089737
 30
-0.0000000000124736
  0
VERTEX
  5
167
330
15B
100
AcDbEntity
  8
3_ANYTOOL_CUTTHROUGH_INSID
100
AcDbVertex
100
AcDb2dVertex
 10
374.705825749269
 20
-101.9568523108974
 30
-0.0000000000124736
  0
SEQEND
  5
168
330
15B
100
AcDbEntity
  8
3_ANYTOOL_CUTTHROUGH_INSID
  0
POLYLINE
  5
169
330
1F
100
AcDbEntity
  8
3_ANYTOOL_CUTTHROUGH_INSID
100
AcDb2dPolyline
 66
     1
 10
0.0
 20
0.0
 30
-0.0000000000155893
 70
     1
  0
VERTEX
  5
16A
330
169
100
AcDbEntity
  8
3_ANYTOOL_CUTTHROUGH_INSID
100
AcDbVertex
100
AcDb2dVertex
 10
174.2058257492745
 20
-101.9568523104026
 30
-0.0000000000155893
  0
VERTEX
  5
16B
330
169
100
AcDbEntity
  8
3_ANYTOOL_CUTTHROUGH_INSID
100
AcDbVertex
100
AcDb2dVertex
 10
174.2058257492736
 20
-95.95685231040261
 30
-0.0000000000155893
  0
VERTEX
  5
16C
330
169
100
AcDbEntity
  8
3_ANYTOOL_CUTTHROUGH_INSID
100
AcDbVertex
100
AcDb2dVertex
 10
161.7058257492745
 20
-95.95685231042444
 30
-0.0000000000155893
  0
VERTEX
  5
16D
330
169
100
AcDbEntity
  8
3_ANYTOOL_CUTTHROUGH_INSID
100
AcDbVertex
100
AcDb2dVertex
 10
161.7058257492463
 20
-126.4568523103808
 30
-0.0000000000155893
  0
VERTEX
  5
16E
330
169
100
AcDbEntity
  8
3_ANYTOOL_CUTTHROUGH_INSID
100
AcDbVertex
100
AcDb2dVertex
 10
174.2058257492463
 20
-126.4568523103662
 30
-0.0000000000155893
  0
VERTEX
  5
16F
330
169
100
AcDbEntity
  8
3_ANYTOOL_CUTTHROUGH_INSID
100
AcDbVertex
100
AcDb2dVertex
 10
174.2058257492454
 20
-120.4568523103662
 30
-0.0000000000155893
  0
VERTEX
  5
170
330
169
100
AcDbEntity
  8
3_ANYTOOL_CUTTHROUGH_INSID
100
AcDbVertex
100
AcDb2dVertex
 10
224.7058257492745
 20
-120.4568523104099
 30
-0.0000000000155893
  0
VERTEX
  5
171
330
169
100
AcDbEntity
  8
3_ANYTOOL_CUTTHROUGH_INSID
100
AcDbVertex
100
AcDb2dVertex
 10
224.7058257492754
 20
-126.4568523104099
 30
-0.0000000000155893
  0
VERTEX
  5
172
330
169
100
AcDbEntity
  8
3_ANYTOOL_CUTTHROUGH_INSID
100
AcDbVertex
100
AcDb2dVertex
 10
237.2058257492754
 20
-126.4568523103953
 30
-0.0000000000155893
  0
VERTEX
  5
173
330
169
100
AcDbEntity
  8
3_ANYTOOL_CUTTHROUGH_INSID
100
AcDbVertex
100
AcDb2dVertex
 10
237.2058257492736
 20
-95.95685231043899
 30
-0.0000000000155893
  0
VERTEX
  5
174
330
169
100
AcDbEntity
  8
3_ANYTOOL_CUTTHROUGH_INSID
100
AcDbVertex
100
AcDb2dVertex
 10
224.7058257492727
 20
-95.95685231045354
 30
-0.0000000000155893
  0
VERTEX
  5
175
330
169
100
AcDbEntity
  8
3_ANYTOOL_CUTTHROUGH_INSID
100
AcDbVertex
100
AcDb2dVertex
 10
224.7058257493027
 20
-101.9568523104535
 30
-0.0000000000155893
  0
SEQEND
  5
176
330
169
100
AcDbEntity
  8
3_ANYTOOL_CUTTHROUGH_INSID
  0
POLYLINE
  5
177
330
1F
100
AcDbEntity
  8
3_ANYTOOL_CUTTHROUGH_INSID
100
AcDb2dPolyline
 66
     1
 10
0.0
 20
0.0
 30
-0.0000000000134861
 70
     1
  0
VERTEX
  5
178
330
177
100
AcDbEntity
  8
3_ANYTOOL_CUTTHROUGH_INSID
100
AcDbVertex
100
AcDb2dVertex
 10
624.2058257492354
 20
-101.9568523111593
 30
-0.0000000000134861
  0
VERTEX
  5
179
330
177
100
AcDbEntity
  8
3_ANYTOOL_CUTTHROUGH_INSID
100
AcDbVertex
100
AcDb2dVertex
 10
624.2058257492354
 20
-95.95685231115203
 30
-0.0000000000134861
  0
VERTEX
  5
17A
330
177
100
AcDbEntity
  8
3_ANYTOOL_CUTTHROUGH_INSID
100
AcDbVertex
100
AcDb2dVertex
 10
611.7058257492381
 20
-95.95685231117386
 30
-0.0000000000134861
  0
VERTEX
  5
17B
330
177
100
AcDbEntity
  8
3_ANYTOOL_CUTTHROUGH_INSID
100
AcDbVertex
100
AcDb2dVertex
 10
611.705825749209
 20
-126.4568523111302
 30
-0.0000000000134861
  0
VERTEX
  5
17C
330
177
100
AcDbEntity
  8
3_ANYTOOL_CUTTHROUGH_INSID
100
AcDbVertex
100
AcDb2dVertex
 10
624.2058257492072
 20
-126.4568523111157
 30
-0.0000000000134861
  0
VERTEX
  5
17D
330
177
100
AcDbEntity
  8
3_ANYTOOL_CUTTHROUGH_INSID
100
AcDbVertex
100
AcDb2dVertex
 10
624.2058257492081
 20
-120.4568523111229
 30
-0.0000000000134861
  0
VERTEX
  5
17E
330
177
100
AcDbEntity
  8
3_ANYTOOL_CUTTHROUGH_INSID
100
AcDbVertex
100
AcDb2dVertex
 10
674.7058257447561
 20
-120.4568523120033
 30
-0.0000000000134861
  0
VERTEX
  5
17F
330
177
100
AcDbEntity
  8
3_ANYTOOL_CUTTHROUGH_INSID
100
AcDbVertex
100
AcDb2dVertex
 10
674.7058257447843
 20
-126.4568523120106
 30
-0.0000000000134861
  0
VERTEX
  5
180
330
177
100
AcDbEntity
  8
3_ANYTOOL_CUTTHROUGH_INSID
100
AcDbVertex
100
AcDb2dVertex
 10
687.2058257447843
 20
-126.456852311996
 30
-0.0000000000134861
  0
VERTEX
  5
181
330
177
100
AcDbEntity
  8
3_ANYTOOL_CUTTHROUGH_INSID
100
AcDbVertex
100
AcDb2dVertex
 10
687.2058257447816
 20
-95.9568523120397
 30
-0.0000000000134861
  0
VERTEX
  5
182
330
177
100
AcDbEntity
  8
3_ANYTOOL_CUTTHROUGH_INSID
100
AcDbVertex
100
AcDb2dVertex
 10
674.7058257447816
 20
-95.9568523120397
 30
-0.0000000000134861
  0
VERTEX
  5
183
330
177
100
AcDbEntity
  8
3_ANYTOOL_CUTTHROUGH_INSID
100
AcDbVertex
100
AcDb2dVertex
 10
674.7058257447825
 20
-101.9568523120324
 30
-0.0000000000134861
  0
SEQEND
  5
184
330
177
100
AcDbEntity
  8
3_ANYTOOL_CUTTHROUGH_INSID
  0
POLYLINE
  5
185
330
1F
100
AcDbEntity
  8
3_ANYTOOL_CUTTHROUGH_INSID
100
AcDb2dPolyline
 66
     1
 10
0.0
 20
0.0
 30
-0.0000000000166018
 70
     1
  0
VERTEX
  5
186
330
185
100
AcDbEntity
  8
3_ANYTOOL_CUTTHROUGH_INSID
100
AcDbVertex
100
AcDb2dVertex
 10
474.205825749239
 20
-101.9568523109847
 30
-0.0000000000166018
  0
VERTEX
  5
187
330
185
100
AcDbEntity
  8
3_ANYTOOL_CUTTHROUGH_INSID
100
AcDbVertex
100
AcDb2dVertex
 10
474.2058257492381
 20
-95.95685231098469
 30
-0.0000000000166018
  0
VERTEX
  5
188
330
185
100
AcDbEntity
  8
3_ANYTOOL_CUTTHROUGH_INSID
100
AcDbVertex
100
AcDb2dVertex
 10
461.705825749239
 20
-95.95685231100651
 30
-0.0000000000166018
  0
VERTEX
  5
189
330
185
100
AcDbEntity
  8
3_ANYTOOL_CUTTHROUGH_INSID
100
AcDbVertex
100
AcDb2dVertex
 10
461.7058257492108
 20
-126.4568523109701
 30
-0.0000000000166018
  0
VERTEX
  5
18A
330
185
100
AcDbEntity
  8
3_ANYTOOL_CUTTHROUGH_INSID
100
AcDbVertex
100
AcDb2dVertex
 10
474.2058257492108
 20
-126.4568523109483
 30
-0.0000000000166018
  0
VERTEX
  5
18B
330
185
100
AcDbEntity
  8
3_ANYTOOL_CUTTHROUGH_INSID
100
AcDbVertex
100
AcDb2dVertex
 10
474.2058257492099
 20
-120.4568523109483
 30
-0.0000000000166018
  0
VERTEX
  5
18C
330
185
100
AcDbEntity
  8
3_ANYTOOL_CUTTHROUGH_INSID
100
AcDbVertex
100
AcDb2dVertex
 10
524.705825749239
 20
-120.4568523109992
 30
-0.0000000000166018
  0
VERTEX
  5
18D
330
185
100
AcDbEntity
  8
3_ANYTOOL_CUTTHROUGH_INSID
100
AcDbVertex
100
AcDb2dVertex
 10
524.7058257492381
 20
-126.4568523109992
 30
-0.0000000000166018
  0
VERTEX
  5
18E
330
185
100
AcDbEntity
  8
3_ANYTOOL_CUTTHROUGH_INSID
100
AcDbVertex
100
AcDb2dVertex
 10
537.2058257492381
 20
-126.4568523109847
 30
-0.0000000000166018
  0
VERTEX
  5
18F
330
185
100
AcDbEntity
  8
3_ANYTOOL_CUTTHROUGH_INSID
100
AcDbVertex
100
AcDb2dVertex
 10
537.2058257492363
 20
-95.95685231102834
 30
-0.0000000000166018
  0
VERTEX
  5
190
330
185
100
AcDbEntity
  8
3_ANYTOOL_CUTTHROUGH_INSID
100
AcDbVertex
100
AcDb2dVertex
 10
524.7058257492363
 20
-95.95685231103562
 30
-0.0000000000166018
  0
VERTEX
  5
191
330
185
100
AcDbEntity
  8
3_ANYTOOL_CUTTHROUGH_INSID
100
AcDbVertex
100
AcDb2dVertex
 10
524.7058257492654
 20
-101.9568523110356
 30
-0.0000000000166018
  0
SEQEND
  5
192
330
185
100
AcDbEntity
  8
3_ANYTOOL_CUTTHROUGH_INSID
  0
POLYLINE
  5
193
330
1F
100
AcDbEntity
  8
3_ANYTOOL_CUTTHROUGH_INSID
100
AcDb2dPolyline
 66
     1
 10
0.0
 20
0.0
 30
-0.000000000014726
 70
     1
  0
VERTEX
  5
194
330
193
100
AcDbEntity
  8
3_ANYTOOL_CUTTHROUGH_INSID
100
AcDbVertex
100
AcDb2dVertex
 10
523.7058257544704
 20
51.54314768758923
 30
-0.000000000014726
  0
VERTEX
  5
195
330
193
100
AcDbEntity
  8
3_ANYTOOL_CUTTHROUGH_INSID
100
AcDbVertex
100
AcDb2dVertex
 10
523.7058257544704
 20
64.04314768758923
 30
-0.000000000014726
  0
VERTEX
  5
196
330
193
100
AcDbEntity
  8
3_ANYTOOL_CUTTHROUGH_INSID
100
AcDbVertex
100
AcDb2dVertex
 10
517.7058257544704
 20
64.04314768757467
 30
-0.000000000014726
  0
VERTEX
  5
197
330
193
100
AcDbEntity
  8
3_ANYTOOL_CUTTHROUGH_INSID
100
AcDbVertex
100
AcDb2dVertex
 10
517.7058257545114
 20
109.5431476876038
 30
-0.000000000014726
  0
VERTEX
  5
198
330
193
100
AcDbEntity
  8
3_ANYTOOL_CUTTHROUGH_INSID
100
AcDbVertex
100
AcDb2dVertex
 10
523.7058257545114
 20
109.5431476876183
 30
-0.000000000014726
  0
VERTEX
  5
199
330
193
100
AcDbEntity
  8
3_ANYTOOL_CUTTHROUGH_INSID
100
AcDbVertex
100
AcDb2dVertex
 10
523.7058257544959
 20
122.0431476876183
 30
-0.000000000014726
  0
VERTEX
  5
19A
330
193
100
AcDbEntity
  8
3_ANYTOOL_CUTTHROUGH_INSID
100
AcDbVertex
100
AcDb2dVertex
 10
475.2058257545414
 20
122.0431476876183
 30
-0.000000000014726
  0
VERTEX
  5
19B
330
193
100
AcDbEntity
  8
3_ANYTOOL_CUTTHROUGH_INSID
100
AcDbVertex
100
AcDb2dVertex
 10
475.2058257545568
 20
109.5431476876183
 30
-0.000000000014726
  0
VERTEX
  5
19C
330
193
100
AcDbEntity
  8
3_ANYTOOL_CUTTHROUGH_INSID
100
AcDbVertex
100
AcDb2dVertex
 10
481.205825754555
 20
109.5431476876329
 30
-0.000000000014726
  0
VERTEX
  5
19D
330
193
100
AcDbEntity
  8
3_ANYTOOL_CUTTHROUGH_INSID
100
AcDbVertex
100
AcDb2dVertex
 10
481.2058257544995
 20
64.04314768761833
 30
-0.000000000014726
  0
VERTEX
  5
19E
330
193
100
AcDbEntity
  8
3_ANYTOOL_CUTTHROUGH_INSID
100
AcDbVertex
100
AcDb2dVertex
 10
475.2058257544986
 20
64.04314768760378
 30
-0.000000000014726
  0
VERTEX
  5
19F
330
193
100
AcDbEntity
  8
3_ANYTOOL_CUTTHROUGH_INSID
100
AcDbVertex
100
AcDb2dVertex
 10
475.2058257545305
 20
51.54314768760378
 30
-0.000000000014726
  0
SEQEND
  5
1A0
330
193
100
AcDbEntity
  8
3_ANYTOOL_CUTTHROUGH_INSID
  0
POLYLINE
  5
1A2
330
1F
100
AcDbEntity
  8
4_ANYTOOL_CUTTHROUGH_OUTSI
100
AcDb2dPolyline
 66
     1
 10
0.0
 20
0.0
 30
0.0
 70
     1
  0
VERTEX
  5
1A3
330
1A2
100
AcDbEntity
  8
4_ANYTOOL_CUTTHROUGH_OUTSI
100
AcDbVertex
100
AcDb2dVertex
 10
-575.7941743602632
 20
189.5431476874364
 30
0.0
  0
VERTEX
  5
1A4
330
1A2
100
AcDbEntity
  8
4_ANYTOOL_CUTTHROUGH_OUTSI
100
AcDbVertex
100
AcDb2dVertex
 10
-575.7941743602814
 20
165.7931476874801
 30
0.0
 42
0.4142135623516768
  0
VERTEX
  5
1A5
330
1A2
100
AcDbEntity
  8
4_ANYTOOL_CUTTHROUGH_OUTSI
100
AcDbVertex
100
AcDb2dVertex
 10
-575.5441743602814
 20
165.5431476874764
 30
0.0
  0
VERTEX
  5
1A6
330
1A2
100
AcDbEntity
  8
4_ANYTOOL_CUTTHROUGH_OUTSI
100
AcDbVertex
100
AcDb2dVertex
 10
-563.5441743602869
 20
165.5431476874728
 30
0.0
 42
0.414213562363492
  0
VERTEX
  5
1A7
330
1A2
100
AcDbEntity
  8
4_ANYTOOL_CUTTHROUGH_OUTSI
100
AcDbVertex
100
AcDb2dVertex
 10
-563.2941743602805
 20
165.7931476874728
 30
0.0
  0
VERTEX
  5
1A8
330
1A2
100
AcDbEntity
  8
4_ANYTOOL_CUTTHROUGH_OUTSI
100
AcDbVertex
100
AcDb2dVertex
 10
-563.294174360255
 20
171.5431476874583
 30
0.0
  0
VERTEX
  5
1A9
330
1A2
100
AcDbEntity
  8
4_ANYTOOL_CUTTHROUGH_OUTSI
100
AcDbVertex
100
AcDb2dVertex
 10
-442.7941743647243
 20
171.5431476865124
 30
0.0
  0
VERTEX
  5
1AA
330
1A2
100
AcDbEntity
  8
4_ANYTOOL_CUTTHROUGH_OUTSI
100
AcDbVertex
100
AcDb2dVertex
 10
-442.7941743647098
 20
165.7931476865124
 30
0.0
 42
0.414213562343283
  0
VERTEX
  5
1AB
330
1A2
100
AcDbEntity
  8
4_ANYTOOL_CUTTHROUGH_OUTSI
100
AcDbVertex
100
AcDb2dVertex
 10
-442.5441743647098
 20
165.543147686516
 30
0.0
  0
VERTEX
  5
1AC
330
1A2
100
AcDbEntity
  8
4_ANYTOOL_CUTTHROUGH_OUTSI
100
AcDbVertex
100
AcDb2dVertex
 10
-430.5441743647098
 20
165.5431476865124
 30
0.0
 42
0.4142135623890526
  0
VERTEX
  5
1AD
330
1A2
100
AcDbEntity
  8
4_ANYTOOL_CUTTHROUGH_OUTSI
100
AcDbVertex
100
AcDb2dVertex
 10
-430.2941743647107
 20
165.7931476865124
 30
0.0
  0
VERTEX
  5
1AE
330
1A2
100
AcDbEntity
  8
4_ANYTOOL_CUTTHROUGH_OUTSI
100
AcDbVertex
100
AcDb2dVertex
 10
-430.294174364727
 20
189.5431476865124
 30
0.0
  0
VERTEX
  5
1AF
330
1A2
100
AcDbEntity
  8
4_ANYTOOL_CUTTHROUGH_OUTSI
100
AcDbVertex
100
AcDb2dVertex
 10
-370.7941743647289
 20
189.5431476865415
 30
0.0
  0
VERTEX
  5
1B0
330
1A2
100
AcDbEntity
  8
4_ANYTOOL_CUTTHROUGH_OUTSI
100
AcDbVertex
100
AcDb2dVertex
 10
-370.7941743647116
 20
165.7931476865415
 30
0.0
 42
0.4142135623752515
  0
VERTEX
  5
1B1
330
1A2
100
AcDbEntity
  8
4_ANYTOOL_CUTTHROUGH_OUTSI
100
AcDbVertex
100
AcDb2dVertex
 10
-370.5441743647107
 20
165.5431476865424
 30
0.0
  0
VERTEX
  5
1B2
330
1A2
100
AcDbEntity
  8
4_ANYTOOL_CUTTHROUGH_OUTSI
100
AcDbVertex
100
AcDb2dVertex
 10
-358.5441743647107
 20
165.5431476865706
 30
0.0
 42
0.4142135623741902
  0
VERTEX
  5
1B3
330
1A2
100
AcDbEntity
  8
4_ANYTOOL_CUTTHROUGH_OUTSI
100
AcDbVertex
100
AcDb2dVertex
 10
-358.2941743647098
 20
165.7931476865706
 30
0.0
  0
VERTEX
  5
1B4
330
1A2
100
AcDbEntity
  8
4_ANYTOOL_CUTTHROUGH_OUTSI
100
AcDbVertex
100
AcDb2dVertex
 10
-358.2941743647261
 20
171.5431476865706
 30
0.0
  0
VERTEX
  5
1B5
330
1A2
100
AcDbEntity
  8
4_ANYTOOL_CUTTHROUGH_OUTSI
100
AcDbVertex
100
AcDb2dVertex
 10
-212.7941743647434
 20
171.5431476873055
 30
0.0
  0
VERTEX
  5
1B6
330
1A2
100
AcDbEntity
  8
4_ANYTOOL_CUTTHROUGH_OUTSI
100
AcDbVertex
100
AcDb2dVertex
 10
-212.7941743647425
 20
165.7931476873055
 30
0.0
 42
0.4142135623859055
  0
VERTEX
  5
1B7
330
1A2
100
AcDbEntity
  8
4_ANYTOOL_CUTTHROUGH_OUTSI
100
AcDbVertex
100
AcDb2dVertex
 10
-212.5441743647416
 20
165.5431476873009
 30
0.0
  0
VERTEX
  5
1B8
330
1A2
100
AcDbEntity
  8
4_ANYTOOL_CUTTHROUGH_OUTSI
100
AcDbVertex
100
AcDb2dVertex
 10
-200.5441743647425
 20
165.5431476873273
 30
0.0
 42
0.414213562343284
  0
VERTEX
  5
1B9
330
1A2
100
AcDbEntity
  8
4_ANYTOOL_CUTTHROUGH_OUTSI
100
AcDbVertex
100
AcDb2dVertex
 10
-200.2941743647389
 20
165.7931476873273
 30
0.0
  0
VERTEX
  5
1BA
330
1A2
100
AcDbEntity
  8
4_ANYTOOL_CUTTHROUGH_OUTSI
100
AcDbVertex
100
AcDb2dVertex
 10
-200.2941743647434
 20
189.5431476873273
 30
0.0
  0
VERTEX
  5
1BB
330
1A2
100
AcDbEntity
  8
4_ANYTOOL_CUTTHROUGH_OUTSI
100
AcDbVertex
100
AcDb2dVertex
 10
-0.7941743647461408
 20
189.5431476873346
 30
0.0
  0
VERTEX
  5
1BC
330
1A2
100
AcDbEntity
  8
4_ANYTOOL_CUTTHROUGH_OUTSI
100
AcDbVertex
100
AcDb2dVertex
 10
-0.7941743647461408
 20
165.7931476873346
 30
0.0
 42
0.4142135623528539
  0
VERTEX
  5
1BD
330
1A2
100
AcDbEntity
  8
4_ANYTOOL_CUTTHROUGH_OUTSI
100
AcDbVertex
100
AcDb2dVertex
 10
-0.5441743647461408
 20
165.5431476873318
 30
0.0
  0
VERTEX
  5
1BE
330
1A2
100
AcDbEntity
  8
4_ANYTOOL_CUTTHROUGH_OUTSI
100
AcDbVertex
100
AcDb2dVertex
 10
11.45582563525386
 20
165.5431476873418
 30
0.0
 42
0.4142135623752063
  0
VERTEX
  5
1BF
330
1A2
100
AcDbEntity
  8
4_ANYTOOL_CUTTHROUGH_OUTSI
100
AcDbVertex
100
AcDb2dVertex
 10
11.70582563525568
 20
165.7931476873418
 30
0.0
  0
VERTEX
  5
1C0
330
1A2
100
AcDbEntity
  8
4_ANYTOOL_CUTTHROUGH_OUTSI
100
AcDbVertex
100
AcDb2dVertex
 10
11.70582563525386
 20
171.5431476873418
 30
0.0
  0
VERTEX
  5
1C1
330
1A2
100
AcDbEntity
  8
4_ANYTOOL_CUTTHROUGH_OUTSI
100
AcDbVertex
100
AcDb2dVertex
 10
157.2058257492863
 20
171.5431476880403
 30
0.0
  0
VERTEX
  5
1C2
330
1A2
100
AcDbEntity
  8
4_ANYTOOL_CUTTHROUGH_OUTSI
100
AcDbVertex
100
AcDb2dVertex
 10
157.2058257493009
 20
165.7931476880403
 30
0.0
 42
0.4142135623454354
  0
VERTEX
  5
1C3
330
1A2
100
AcDbEntity
  8
4_ANYTOOL_CUTTHROUGH_OUTSI
100
AcDbVertex
100
AcDb2dVertex
 10
157.4558257493009
 20
165.5431476880458
 30
0.0
  0
VERTEX
  5
1C4
330
1A2
100
AcDbEntity
  8
4_ANYTOOL_CUTTHROUGH_OUTSI
100
AcDbVertex
100
AcDb2dVertex
 10
169.4558257493009
 20
165.5431476880403
 30
0.0
 42
0.4142135623454133
  0
VERTEX
  5
1C5
330
1A2
100
AcDbEntity
  8
4_ANYTOOL_CUTTHROUGH_OUTSI
100
AcDbVertex
100
AcDb2dVertex
 10
169.7058257493063
 20
165.7931476880403
 30
0.0
  0
VERTEX
  5
1C6
330
1A2
100
AcDbEntity
  8
4_ANYTOOL_CUTTHROUGH_OUTSI
100
AcDbVertex
100
AcDb2dVertex
 10
169.7058257492863
 20
189.5431476880403
 30
0.0
  0
VERTEX
  5
1C7
330
1A2
100
AcDbEntity
  8
4_ANYTOOL_CUTTHROUGH_OUTSI
100
AcDbVertex
100
AcDb2dVertex
 10
229.2058257492845
 20
189.5431476880767
 30
0.0
  0
VERTEX
  5
1C8
330
1A2
100
AcDbEntity
  8
4_ANYTOOL_CUTTHROUGH_OUTSI
100
AcDbVertex
100
AcDb2dVertex
 10
229.205825749299
 20
165.7931476880694
 30
0.0
 42
0.4142135623975701
  0
VERTEX
  5
1C9
330
1A2
100
AcDbEntity
  8
4_ANYTOOL_CUTTHROUGH_OUTSI
100
AcDbVertex
100
AcDb2dVertex
 10
229.4558257492999
 20
165.5431476880749
 30
0.0
  0
VERTEX
  5
1CA
330
1A2
100
AcDbEntity
  8
4_ANYTOOL_CUTTHROUGH_OUTSI
100
AcDbVertex
100
AcDb2dVertex
 10
241.455825749299
 20
165.5431476880985
 30
0.0
 42
0.4142135623763194
  0
VERTEX
  5
1CB
330
1A2
100
AcDbEntity
  8
4_ANYTOOL_CUTTHROUGH_OUTSI
100
AcDbVertex
100
AcDb2dVertex
 10
241.7058257493018
 20
165.7931476880985
 30
0.0
  0
VERTEX
  5
1CC
330
1A2
100
AcDbEntity
  8
4_ANYTOOL_CUTTHROUGH_OUTSI
100
AcDbVertex
100
AcDb2dVertex
 10
241.7058257492854
 20
171.5431476880985
 30
0.0
  0
VERTEX
  5
1CD
330
1A2
100
AcDbEntity
  8
4_ANYTOOL_CUTTHROUGH_OUTSI
100
AcDbVertex
100
AcDb2dVertex
 10
387.205825749279
 20
171.5431476880694
 30
0.0
  0
VERTEX
  5
1CE
330
1A2
100
AcDbEntity
  8
4_ANYTOOL_CUTTHROUGH_OUTSI
100
AcDbVertex
100
AcDb2dVertex
 10
387.2058257492799
 20
165.7931476880694
 30
0.0
 42
0.4142135623720217
  0
VERTEX
  5
1CF
330
1A2
100
AcDbEntity
  8
4_ANYTOOL_CUTTHROUGH_OUTSI
100
AcDbVertex
100
AcDb2dVertex
 10
387.4558257492808
 20
165.5431476880676
 30
0.0
  0
VERTEX
  5
1D0
330
1A2
100
AcDbEntity
  8
4_ANYTOOL_CUTTHROUGH_OUTSI
100
AcDbVertex
100
AcDb2dVertex
 10
399.4558257492799
 20
165.5431476880913
 30
0.0
 42
0.4142135623730049
  0
VERTEX
  5
1D1
330
1A2
100
AcDbEntity
  8
4_ANYTOOL_CUTTHROUGH_OUTSI
100
AcDbVertex
100
AcDb2dVertex
 10
399.7058257492799
 20
165.7931476880913
 30
0.0
  0
VERTEX
  5
1D2
330
1A2
100
AcDbEntity
  8
4_ANYTOOL_CUTTHROUGH_OUTSI
100
AcDbVertex
100
AcDb2dVertex
 10
399.705825749279
 20
189.5431476880913
 30
0.0
  0
VERTEX
  5
1D3
330
1A2
100
AcDbEntity
  8
4_ANYTOOL_CUTTHROUGH_OUTSI
100
AcDbVertex
100
AcDb2dVertex
 10
599.2058257492763
 20
189.5431476880985
 30
0.0
  0
VERTEX
  5
1D4
330
1A2
100
AcDbEntity
  8
4_ANYTOOL_CUTTHROUGH_OUTSI
100
AcDbVertex
100
AcDb2dVertex
 10
599.2058257492763
 20
165.7931476880985
 30
0.0
 42
0.4142135623848696
  0
VERTEX
  5
1D5
330
1A2
100
AcDbEntity
  8
4_ANYTOOL_CUTTHROUGH_OUTSI
100
AcDbVertex
100
AcDb2dVertex
 10
599.4558257492763
 20
165.543147688094
 30
0.0
  0
VERTEX
  5
1D6
330
1A2
100
AcDbEntity
  8
4_ANYTOOL_CUTTHROUGH_OUTSI
100
AcDbVertex
100
AcDb2dVertex
 10
611.4558257492763
 20
165.5431476881058
 30
0.0
 42
0.4142135623742291
  0
VERTEX
  5
1D7
330
1A2
100
AcDbEntity
  8
4_ANYTOOL_CUTTHROUGH_OUTSI
100
AcDbVertex
100
AcDb2dVertex
 10
611.7058257492772
 20
165.7931476881058
 30
0.0
  0
VERTEX
  5
1D8
330
1A2
100
AcDbEntity
  8
4_ANYTOOL_CUTTHROUGH_OUTSI
100
AcDbVertex
100
AcDb2dVertex
 10
611.7058257492763
 20
171.5431476881058
 30
0.0
  0
VERTEX
  5
1D9
330
1A2
100
AcDbEntity
  8
4_ANYTOOL_CUTTHROUGH_OUTSI
100
AcDbVertex
100
AcDb2dVertex
 10
757.205825744777
 20
171.5431476872109
 30
0.0
  0
VERTEX
  5
1DA
330
1A2
100
AcDbEntity
  8
4_ANYTOOL_CUTTHROUGH_OUTSI
100
AcDbVertex
100
AcDb2dVertex
 10
757.2058257447779
 20
165.7931476872109
 30
0.0
 42
0.4142135623869415
  0
VERTEX
  5
1DB
330
1A2
100
AcDbEntity
  8
4_ANYTOOL_CUTTHROUGH_OUTSI
100
AcDbVertex
100
AcDb2dVertex
 10
757.4558257447779
 20
165.5431476872081
 30
0.0
  0
VERTEX
  5
1DC
330
1A2
100
AcDbEntity
  8
4_ANYTOOL_CUTTHROUGH_OUTSI
100
AcDbVertex
100
AcDb2dVertex
 10
769.4558257447779
 20
165.5431476872109
 30
0.0
 42
0.4142135624030393
  0
VERTEX
  5
1DD
330
1A2
100
AcDbEntity
  8
4_ANYTOOL_CUTTHROUGH_OUTSI
100
AcDbVertex
100
AcDb2dVertex
 10
769.7058257447743
 20
165.7931476872109
 30
0.0
  0
VERTEX
  5
1DE
330
1A2
100
AcDbEntity
  8
4_ANYTOOL_CUTTHROUGH_OUTSI
100
AcDbVertex
100
AcDb2dVertex
 10
769.705825744777
 20
189.5431476872109
 30
0.0
  0
VERTEX
  5
1DF
330
1A2
100
AcDbEntity
  8
4_ANYTOOL_CUTTHROUGH_OUTSI
100
AcDbVertex
100
AcDb2dVertex
 10
799.2058257613644
 20
189.5431476872182
 30
0.0
  0
VERTEX
  5
1E0
330
1A2
100
AcDbEntity
  8
4_ANYTOOL_CUTTHROUGH_OUTSI
100
AcDbVertex
100
AcDb2dVertex
 10
799.2058313162188
 20
105.8166795045181
 30
0.0
 42
0.4114512520671623
  0
VERTEX
  5
1E1
330
1A2
100
AcDbEntity
  8
4_ANYTOOL_CUTTHROUGH_OUTSI
100
AcDbVertex
100
AcDb2dVertex
 10
805.4555583171914
 20
99.62450824894044
 30
0.0
  0
VERTEX
  5
1E2
330
1A2
100
AcDbEntity
  8
4_ANYTOOL_CUTTHROUGH_OUTSI
100
AcDbVertex
100
AcDb2dVertex
 10
805.5381465149585
 20
99.63854386690225
 30
0.0
  0
VERTEX
  5
1E3
330
1A2
100
AcDbEntity
  8
4_ANYTOOL_CUTTHROUGH_OUTSI
100
AcDbVertex
100
AcDb2dVertex
 10
855.4976058167194
 20
117.1244952191337
 30
0.0
 42
-0.4120733481067841
  0
VERTEX
  5
1E4
330
1A2
100
AcDbEntity
  8
4_ANYTOOL_CUTTHROUGH_OUTSI
100
AcDbVertex
100
AcDb2dVertex
 10
861.2055583171816
 20
111.3746489596524
 30
0.0
  0
VERTEX
  5
1E5
330
1A2
100
AcDbEntity
  8
4_ANYTOOL_CUTTHROUGH_OUTSI
100
AcDbVertex
100
AcDb2dVertex
 10
861.2055583171932
 20
33.3746489596524
 30
0.0
 42
-0.4120733481073857
  0
VERTEX
  5
1E6
330
1A2
100
AcDbEntity
  8
4_ANYTOOL_CUTTHROUGH_OUTSI
100
AcDbVertex
100
AcDb2dVertex
 10
855.4976058167094
 20
27.62480270016125
 30
0.0
  0
VERTEX
  5
1E7
330
1A2
100
AcDbEntity
  8
4_ANYTOOL_CUTTHROUGH_OUTSI
100
AcDbVertex
100
AcDb2dVertex
 10
805.5381465149603
 20
45.11075405239535
 30
0.0
  0
VERTEX
  5
1E8
330
1A2
100
AcDbEntity
  8
4_ANYTOOL_CUTTHROUGH_OUTSI
100
AcDbVertex
100
AcDb2dVertex
 10
805.4555583171932
 20
45.12478967035725
 30
0.0
 42
0.4142135623730446
  0
VERTEX
  5
1E9
330
1A2
100
AcDbEntity
  8
4_ANYTOOL_CUTTHROUGH_OUTSI
100
AcDbVertex
100
AcDb2dVertex
 10
799.2055583171941
 20
38.87478967035713
 30
0.0
  0
VERTEX
  5
1EA
330
1A2
100
AcDbEntity
  8
4_ANYTOOL_CUTTHROUGH_OUTSI
100
AcDbVertex
100
AcDb2dVertex
 10
799.2055583171959
 20
-39.12521032964287
 30
0.0
 42
0.4142135623735259
  0
VERTEX
  5
1EB
330
1A2
100
AcDbEntity
  8
4_ANYTOOL_CUTTHROUGH_OUTSI
100
AcDbVertex
100
AcDb2dVertex
 10
805.4555583171905
 20
-45.37521032964287
 30
0.0
  0
VERTEX
  5
1EC
330
1A2
100
AcDbEntity
  8
4_ANYTOOL_CUTTHROUGH_OUTSI
100
AcDbVertex
100
AcDb2dVertex
 10
805.5381465149566
 20
-45.36117471168073
 30
0.0
  0
VERTEX
  5
1ED
330
1A2
100
AcDbEntity
  8
4_ANYTOOL_CUTTHROUGH_OUTSI
100
AcDbVertex
100
AcDb2dVertex
 10
855.4976058167258
 20
-27.87522335944959
 30
0.0
 42
-0.412073348106783
  0
VERTEX
  5
1EE
330
1A2
100
AcDbEntity
  8
4_ANYTOOL_CUTTHROUGH_OUTSI
100
AcDbVertex
100
AcDb2dVertex
 10
861.2055583171953
 20
-33.62506961893814
 30
0.0
  0
VERTEX
  5
1EF
330
1A2
100
AcDbEntity
  8
4_ANYTOOL_CUTTHROUGH_OUTSI
100
AcDbVertex
100
AcDb2dVertex
 10
861.2055583171905
 20
-111.6250696189381
 30
0.0
 42
-0.4120733481060034
  0
VERTEX
  5
1F0
330
1A2
100
AcDbEntity
  8
4_ANYTOOL_CUTTHROUGH_OUTSI
100
AcDbVertex
100
AcDb2dVertex
 10
855.4976058167067
 20
-117.3749158784274
 30
0.0
  0
VERTEX
  5
1F1
330
1A2
100
AcDbEntity
  8
4_ANYTOOL_CUTTHROUGH_OUTSI
100
AcDbVertex
100
AcDb2dVertex
 10
805.5381465149585
 20
-99.8889645261952
 30
0.0
  0
VERTEX
  5
1F2
330
1A2
100
AcDbEntity
  8
4_ANYTOOL_CUTTHROUGH_OUTSI
100
AcDbVertex
100
AcDb2dVertex
 10
805.4555583171914
 20
-99.87492890823358
 30
0.0
 42
0.4114512518313759
  0
VERTEX
  5
1F3
330
1A2
100
AcDbEntity
  8
4_ANYTOOL_CUTTHROUGH_OUTSI
100
AcDbVertex
100
AcDb2dVertex
 10
799.2058313162497
 20
-106.0671001588198
 30
0.0
  0
VERTEX
  5
1F4
330
1A2
100
AcDbEntity
  8
4_ANYTOOL_CUTTHROUGH_OUTSI
100
AcDbVertex
100
AcDb2dVertex
 10
799.2058257613962
 20
-189.9568523143025
 30
0.0
  0
VERTEX
  5
1F5
330
1A2
100
AcDbEntity
  8
4_ANYTOOL_CUTTHROUGH_OUTSI
100
AcDbVertex
100
AcDb2dVertex
 10
-718.294174359482
 20
-189.9568523131311
 30
0.0
  0
VERTEX
  5
1F6
330
1A2
100
AcDbEntity
  8
4_ANYTOOL_CUTTHROUGH_OUTSI
100
AcDbVertex
100
AcDb2dVertex
 10
-718.2941743594838
 20
-52.45685231281095
 30
0.0
  0
VERTEX
  5
1F7
330
1A2
100
AcDbEntity
  8
4_ANYTOOL_CUTTHROUGH_OUTSI
100
AcDbVertex
100
AcDb2dVertex
 10
-712.544174359482
 20
-52.45685231281095
 30
0.0
 42
0.4142135623772812
  0
VERTEX
  5
1F8
330
1A2
100
AcDbEntity
  8
4_ANYTOOL_CUTTHROUGH_OUTSI
100
AcDbVertex
100
AcDb2dVertex
 10
-712.2941743594783
 20
-52.20685231281095
 30
0.0
  0
VERTEX
  5
1F9
330
1A2
100
AcDbEntity
  8
4_ANYTOOL_CUTTHROUGH_OUTSI
100
AcDbVertex
100
AcDb2dVertex
 10
-712.2941743594829
 20
-40.20685231281095
 30
0.0
 42
0.4142135623741169
  0
VERTEX
  5
1FA
330
1A2
100
AcDbEntity
  8
4_ANYTOOL_CUTTHROUGH_OUTSI
100
AcDbVertex
100
AcDb2dVertex
 10
-712.5441743594829
 20
-39.95685231281186
 30
0.0
  0
VERTEX
  5
1FB
330
1A2
100
AcDbEntity
  8
4_ANYTOOL_CUTTHROUGH_OUTSI
100
AcDbVertex
100
AcDb2dVertex
 10
-868.294174359
 20
-39.95685231288371
 30
0.0
  0
VERTEX
  5
1FC
330
1A2
100
AcDbEntity
  8
4_ANYTOOL_CUTTHROUGH_OUTSI
100
AcDbVertex
100
AcDb2dVertex
 10
-868.2941743595129
 20
47.54314768826589
 30
0.0
  0
VERTEX
  5
1FD
330
1A2
100
AcDbEntity
  8
4_ANYTOOL_CUTTHROUGH_OUTSI
100
AcDbVertex
100
AcDb2dVertex
 10
-862.5441743595138
 20
47.54314768826589
 30
0.0
 42
0.4142135623762001
  0
VERTEX
  5
1FE
330
1A2
100
AcDbEntity
  8
4_ANYTOOL_CUTTHROUGH_OUTSI
100
AcDbVertex
100
AcDb2dVertex
 10
-862.2941743595111
 20
47.79314768826589
 30
0.0
  0
VERTEX
  5
1FF
330
1A2
100
AcDbEntity
  8
4_ANYTOOL_CUTTHROUGH_OUTSI
100
AcDbVertex
100
AcDb2dVertex
 10
-862.2941743595156
 20
59.79314768826589
 30
0.0
 42
0.414213562384893
  0
VERTEX
  5
200
330
1A2
100
AcDbEntity
  8
4_ANYTOOL_CUTTHROUGH_OUTSI
100
AcDbVertex
100
AcDb2dVertex
 10
-862.5441743595156
 20
60.04314768827044
 30
0.0
  0
VERTEX
  5
201
330
1A2
100
AcDbEntity
  8
4_ANYTOOL_CUTTHROUGH_OUTSI
100
AcDbVertex
100
AcDb2dVertex
 10
-886.2941743595156
 20
60.04314768826589
 30
0.0
  0
VERTEX
  5
202
330
1A2
100
AcDbEntity
  8
4_ANYTOOL_CUTTHROUGH_OUTSI
100
AcDbVertex
100
AcDb2dVertex
 10
-886.2941743595011
 20
189.5431476882513
 30
0.0
  0
VERTEX
  5
203
330
1A2
100
AcDbEntity
  8
4_ANYTOOL_CUTTHROUGH_OUTSI
100
AcDbVertex
100
AcDb2dVertex
 10
-864.7941743598194
 20
189.5431476893282
 30
0.0
  0
VERTEX
  5
204
330
1A2
100
AcDbEntity
  8
4_ANYTOOL_CUTTHROUGH_OUTSI
100
AcDbVertex
100
AcDb2dVertex
 10
-864.7941743595356
 20
183.7931476899248
 30
0.0
 42
0.414213562340032
  0
VERTEX
  5
205
330
1A2
100
AcDbEntity
  8
4_ANYTOOL_CUTTHROUGH_OUTSI
100
AcDbVertex
100
AcDb2dVertex
 10
-864.5441743595356
 20
183.5431476899403
 30
0.0
  0
VERTEX
  5
206
330
1A2
100
AcDbEntity
  8
4_ANYTOOL_CUTTHROUGH_OUTSI
100
AcDbVertex
100
AcDb2dVertex
 10
-852.5441743595356
 20
183.5431476899394
 30
0.0
 42
0.4142135623496642
  0
VERTEX
  5
207
330
1A2
100
AcDbEntity
  8
4_ANYTOOL_CUTTHROUGH_OUTSI
100
AcDbVertex
100
AcDb2dVertex
 10
-852.2941743595411
 20
183.7931476899394
 30
0.0
  0
VERTEX
  5
208
330
1A2
100
AcDbEntity
  8
4_ANYTOOL_CUTTHROUGH_OUTSI
100
AcDbVertex
100
AcDb2dVertex
 10
-852.2941743595366
 20
207.5431476899248
 30
0.0
  0
VERTEX
  5
209
330
1A2
100
AcDbEntity
  8
4_ANYTOOL_CUTTHROUGH_OUTSI
100
AcDbVertex
100
AcDb2dVertex
 10
-820.7051743595885
 20
207.5431476899394
 30
0.0
  0
VERTEX
  5
20A
330
1A2
100
AcDbEntity
  8
4_ANYTOOL_CUTTHROUGH_OUTSI
100
AcDbVertex
100
AcDb2dVertex
 10
-820.7051743595866
 20
183.7931476901431
 30
0.0
 42
0.4142135623859428
  0
VERTEX
  5
20B
330
1A2
100
AcDbEntity
  8
4_ANYTOOL_CUTTHROUGH_OUTSI
100
AcDbVertex
100
AcDb2dVertex
 10
-820.4551743595866
 20
183.5431476901394
 30
0.0
  0
VERTEX
  5
20C
330
1A2
100
AcDbEntity
  8
4_ANYTOOL_CUTTHROUGH_OUTSI
100
AcDbVertex
100
AcDb2dVertex
 10
-808.4551743595866
 20
183.5431476901431
 30
0.0
 42
0.4142135623731186
  0
VERTEX
  5
20D
330
1A2
100
AcDbEntity
  8
4_ANYTOOL_CUTTHROUGH_OUTSI
100
AcDbVertex
100
AcDb2dVertex
 10
-808.2051743595866
 20
183.7931476901431
 30
0.0
  0
VERTEX
  5
20E
330
1A2
100
AcDbEntity
  8
4_ANYTOOL_CUTTHROUGH_OUTSI
100
AcDbVertex
100
AcDb2dVertex
 10
-808.2051743595866
 20
189.5431476901867
 30
0.0
  0
VERTEX
  5
20F
330
1A2
100
AcDbEntity
  8
4_ANYTOOL_CUTTHROUGH_OUTSI
100
AcDbVertex
100
AcDb2dVertex
 10
-794.7941743596293
 20
189.5431476902304
 30
0.0
  0
VERTEX
  5
210
330
1A2
100
AcDbEntity
  8
4_ANYTOOL_CUTTHROUGH_OUTSI
100
AcDbVertex
100
AcDb2dVertex
 10
-794.7941743596284
 20
183.793147690245
 30
0.0
 42
0.414213562374131
  0
VERTEX
  5
211
330
1A2
100
AcDbEntity
  8
4_ANYTOOL_CUTTHROUGH_OUTSI
100
AcDbVertex
100
AcDb2dVertex
 10
-794.5441743596284
 20
183.5431476902459
 30
0.0
  0
VERTEX
  5
212
330
1A2
100
AcDbEntity
  8
4_ANYTOOL_CUTTHROUGH_OUTSI
100
AcDbVertex
100
AcDb2dVertex
 10
-782.5441743596284
 20
183.543147690245
 30
0.0
 42
0.4142135623731186
  0
VERTEX
  5
213
330
1A2
100
AcDbEntity
  8
4_ANYTOOL_CUTTHROUGH_OUTSI
100
AcDbVertex
100
AcDb2dVertex
 10
-782.2941743596284
 20
183.793147690245
 30
0.0
  0
VERTEX
  5
214
330
1A2
100
AcDbEntity
  8
4_ANYTOOL_CUTTHROUGH_OUTSI
100
AcDbVertex
100
AcDb2dVertex
 10
-782.2941743596275
 20
207.5431476899539
 30
0.0
  0
VERTEX
  5
215
330
1A2
100
AcDbEntity
  8
4_ANYTOOL_CUTTHROUGH_OUTSI
100
AcDbVertex
100
AcDb2dVertex
 10
-747.7941743596712
 20
207.5431476899539
 30
0.0
  0
VERTEX
  5
216
330
1A2
100
AcDbEntity
  8
4_ANYTOOL_CUTTHROUGH_OUTSI
100
AcDbVertex
100
AcDb2dVertex
 10
-747.7941743596703
 20
183.7931476900412
 30
0.0
 42
0.4142135623529385
  0
VERTEX
  5
217
330
1A2
100
AcDbEntity
  8
4_ANYTOOL_CUTTHROUGH_OUTSI
100
AcDbVertex
100
AcDb2dVertex
 10
-747.5441743596703
 20
183.5431476900385
 30
0.0
  0
VERTEX
  5
218
330
1A2
100
AcDbEntity
  8
4_ANYTOOL_CUTTHROUGH_OUTSI
100
AcDbVertex
100
AcDb2dVertex
 10
-735.5441743596703
 20
183.5431476900412
 30
0.0
 42
0.4142135623560855
  0
VERTEX
  5
219
330
1A2
100
AcDbEntity
  8
4_ANYTOOL_CUTTHROUGH_OUTSI
100
AcDbVertex
100
AcDb2dVertex
 10
-735.2941743596703
 20
183.7931476900412
 30
0.0
  0
VERTEX
  5
21A
330
1A2
100
AcDbEntity
  8
4_ANYTOOL_CUTTHROUGH_OUTSI
100
AcDbVertex
100
AcDb2dVertex
 10
-735.2941743596703
 20
189.543147689852
 30
0.0
  0
VERTEX
  5
21B
330
1A2
100
AcDbEntity
  8
4_ANYTOOL_CUTTHROUGH_OUTSI
100
AcDbVertex
100
AcDb2dVertex
 10
-668.7941743594547
 20
189.5431476888843
 30
0.0
  0
VERTEX
  5
21C
330
1A2
100
AcDbEntity
  8
4_ANYTOOL_CUTTHROUGH_OUTSI
100
AcDbVertex
100
AcDb2dVertex
 10
-668.7941743594538
 20
184.0431476888916
 30
0.0
  0
VERTEX
  5
21D
330
1A2
100
AcDbEntity
  8
4_ANYTOOL_CUTTHROUGH_OUTSI
100
AcDbVertex
100
AcDb2dVertex
 10
-674.5441743594547
 20
184.0431476888771
 30
0.0
 42
0.4142135624135509
  0
VERTEX
  5
21E
330
1A2
100
AcDbEntity
  8
4_ANYTOOL_CUTTHROUGH_OUTSI
100
AcDbVertex
100
AcDb2dVertex
 10
-674.7941743594602
 20
183.7931476888771
 30
0.0
  0
VERTEX
  5
21F
330
1A2
100
AcDbEntity
  8
4_ANYTOOL_CUTTHROUGH_OUTSI
100
AcDbVertex
100
AcDb2dVertex
 10
-674.7941743594547
 20
171.7931476888916
 30
0.0
 42
0.4142135623848696
  0
VERTEX
  5
220
330
1A2
100
AcDbEntity
  8
4_ANYTOOL_CUTTHROUGH_OUTSI
100
AcDbVertex
100
AcDb2dVertex
 10
-674.5441743594547
 20
171.5431476888871
 30
0.0
  0
VERTEX
  5
221
330
1A2
100
AcDbEntity
  8
4_ANYTOOL_CUTTHROUGH_OUTSI
100
AcDbVertex
100
AcDb2dVertex
 10
-637.5441743594529
 20
171.5431476889062
 30
0.0
 42
0.4142135623645227
  0
VERTEX
  5
222
330
1A2
100
AcDbEntity
  8
4_ANYTOOL_CUTTHROUGH_OUTSI
100
AcDbVertex
100
AcDb2dVertex
 10
-637.2941743594602
 20
171.7931476889062
 30
0.0
  0
VERTEX
  5
223
330
1A2
100
AcDbEntity
  8
4_ANYTOOL_CUTTHROUGH_OUTSI
100
AcDbVertex
100
AcDb2dVertex
 10
-637.2941743594538
 20
183.7931476889207
 30
0.0
 42
0.4142135623644285
  0
VERTEX
  5
224
330
1A2
100
AcDbEntity
  8
4_ANYTOOL_CUTTHROUGH_OUTSI
100
AcDbVertex
100
AcDb2dVertex
 10
-637.5441743594547
 20
184.0431476889144
 30
0.0
  0
VERTEX
  5
225
330
1A2
100
AcDbEntity
  8
4_ANYTOOL_CUTTHROUGH_OUTSI
100
AcDbVertex
100
AcDb2dVertex
 10
-643.2941743594538
 20
184.0431476888916
 30
0.0
  0
VERTEX
  5
226
330
1A2
100
AcDbEntity
  8
4_ANYTOOL_CUTTHROUGH_OUTSI
100
AcDbVertex
100
AcDb2dVertex
 10
-643.2941743594565
 20
189.5431476885351
 30
0.0
  0
SEQEND
  5
227
330
1A2
100
AcDbEntity
  8
4_ANYTOOL_CUTTHROUGH_OUTSI
  0
ENDSEC
  0
SECTION
  2
OBJECTS
  0
DICTIONARY
  5
C
330
0
100
AcDbDictionary
  3
ACAD_GROUP
350
D
  3
ACAD_LAYOUT
350
1A
  3
ACAD_MATERIAL
350
43
  3
ACAD_MLEADERSTYLE
350
5B
  3
ACAD_MLINESTYLE
350
17
  3
ACAD_PLOTSETTINGS
350
19
  3
ACAD_SCALELIST
350
47
  3
ACAD_VISUALSTYLE
350
2A
  3
ACDBHEADERROUNDTRIPXREC
350
228
  3
ACDBVARIABLEDICTIONARY
350
249
  3
DWGPROPS
350
250
  0
DICTIONARY
  5
251
330
8
100
AcDbDictionary
280
     1
  3
ACAD_XREC_ROUNDTRIP
360
252
  0
DICTIONARY
  5
D
102
{ACAD_REACTORS
330
C
102
}
330
C
100
AcDbDictionary
  0
DICTIONARY
  5
1A
102
{ACAD_REACTORS
330
C
102
}
330
C
100
AcDbDictionary
  0
DICTIONARY
  5
43
102
{ACAD_REACTORS
330
C
102
}
330
C
100
AcDbDictionary
  3
BYBLOCK
350
45
  3
BYLAYER
350
44
  3
GLOBAL
350
46
  0
DICTIONARY
  5
5B
102
{ACAD_REACTORS
330
C
102
}
330
C
100
AcDbDictionary
  3
STANDARD
350
5C
  0
DICTIONARY
  5
17
102
{ACAD_REACTORS
330
C
102
}
330
C
100
AcDbDictionary
  3
STANDARD
350
18
  0
DICTIONARY
  5
19
102
{ACAD_REACTORS
330
C
102
}
330
C
100
AcDbDictionary
  0
DICTIONARY
  5
47
102
{ACAD_REACTORS
330
C
102
}
330
C
100
AcDbDictionary
  3
A0
350
48
  3
A1
350
49
  3
A2
350
4A
  3
A3
350
4B
  3
A4
350
4C
  3
A5
350
4D
  3
A6
350
4E
  3
A7
350
4F
  3
A8
350
50
  3
A9
350
51
  3
B1
350
52
  3
B2
350
53
  3
B3
350
54
  3
B4
350
55
  3
B5
350
56
  3
B6
350
57
  3
B7
350
58
  0
DICTIONARY
  5
2A
102
{ACAD_REACTORS
330
C
102
}
330
C
100
AcDbDictionary
  3
2DWIREFRAME
350
2F
  3
BASIC
350
32
  3
BRIGHTEN
350
36
  3
COLORCHANGE
350
3A
  3
CONCEPTUAL
350
34
  3
DIM
350
35
  3
EDGECOLOROFF
350
3D
  3
FACEPATTERN
350
39
  3
FLAT
350
2B
  3
FLATWITHEDGES
350
2C
  3
GOURAUD
350
2D
  3
GOURAUDWITHEDGES
350
2E
  3
HIDDEN
350
31
  3
JITTEROFF
350
3B
  3
LINEPATTERN
350
38
  3
OVERHANGOFF
350
3C
  3
REALISTIC
350
33
  3
SHADED
350
42
  3
SHADED_WITH_EDGES
350
41
  3
SHADES_OF_GRAY
350
3E
  3
SKETCHY
350
3F
  3
THICKEN
350
37
  3
WIREFRAME
350
30
  3
X-RAY
350
40
  0
DICTIONARY
  5
228
102
{ACAD_REACTORS
330
C
102
}
330
C
100
AcDbDictionary
  3
CEPSNID
350
232
  3
CEPSNTYPE
350
231
  3
DIMSTYLEDATA
350
248
  3
FINGERPRINTGUID
350
233
  3
HYPERLINKBASE
350
22B
  3
INSUNITS
350
230
  3
LAYOUTDICT
350
22D
  3
LWETCUNION
350
22F
  3
PLOTSETDICT
350
22E
  3
PSVPSCALE
350
235
  3
PUCSBASE
350
238
  3
PUCSORGBACK
350
23E
  3
PUCSORGBOTTOM
350
23A
  3
PUCSORGFRONT
350
23D
  3
PUCSORGLEFT
350
23B
  3
PUCSORGRIGHT
350
23C
  3
PUCSORGTOP
350
239
  3
PUCSORTHOREF
350
236
  3
PUCSORTHOVIEW
350
237
  3
STYLESHEET
350
22C
  3
TSTACKALIGN
350
229
  3
TSTACKSIZE
350
22A
  3
UCSBASE
350
241
  3
UCSORGBACK
350
247
  3
UCSORGBOTTOM
350
243
  3
UCSORGFRONT
350
246
  3
UCSORGLEFT
350
244
  3
UCSORGRIGHT
350
245
  3
UCSORGTOP
350
242
  3
UCSORTHOREF
350
23F
  3
UCSORTHOVIEW
350
240
  3
VERSIONGUID
350
234
  0
DICTIONARY
  5
249
102
{ACAD_REACTORS
330
C
102
}
330
C
100
AcDbDictionary
  3
CANNOSCALE
350
253
  3
CMLEADERSTYLE
350
24B
  3
CTABLESTYLE
350
24A
  3
DIMASSOC
350
24E
  3
HIDETEXT
350
24F
  3
MSLTSCALE
350
254
  0
XRECORD
  5
250
102
{ACAD_REACTORS
330
C
102
}
330
C
100
AcDbXrecord
  1
DWGPROPS COOKIE
  2

  3

  4

  6

  7

  8
clayt
  9

300
=
301
=
302
=
303
=
304
=
305
=
306
=
307
=
308
=
309
=
 40
0.0
 41
2461249.395556806
 42
2461249.395556864
  1

 90
        0
  0
XRECORD
  5
252
102
{ACAD_REACTORS
330
251
102
}
330
251
100
AcDbXrecord
102
VTR_0.000_0.000_1.000_1.000_VISUALSTYLE
340
2F
102
VTR_0.000_0.000_1.000_1.000_GRIDDISPLAY
 70
     3
102
VTR_0.000_0.000_1.000_1.000_GRIDMAJOR
 70
     5
102
VTR_0.000_0.000_1.000_1.000_DEFAULTLIGHTING
280
     1
102
VTR_0.000_0.000_1.000_1.000_DEFAULTLIGHTINGTYPE
 70
     1
102
VTR_0.000_0.000_1.000_1.000_BRIGHTNESS
141
0.0
102
VTR_0.000_0.000_1.000_1.000_CONTRAST
142
0.0
  0
MATERIAL
  5
45
102
{ACAD_REACTORS
330
43
102
}
102
{ACAD_XDICTIONARY
360
257
102
}
330
43
100
AcDbMaterial
  1
BYBLOCK
  0
MATERIAL
  5
44
102
{ACAD_REACTORS
330
43
102
}
102
{ACAD_XDICTIONARY
360
255
102
}
330
43
100
AcDbMaterial
  1
BYLAYER
  0
MATERIAL
  5
46
102
{ACAD_REACTORS
330
43
102
}
102
{ACAD_XDICTIONARY
360
259
102
}
330
43
100
AcDbMaterial
  1
GLOBAL
  0
ACAD_PROXY_OBJECT
  5
5C
102
{ACAD_REACTORS
330
5B
102
}
330
5B
100
AcDbProxyObject
 90
      499
 91
      505
 93
      610
310
40901902A4063FBFFFFFE056BD1B81E855B9FC0AD7A3703D0AD73F4214DD185B99185C9900AD7A3703D0AC73F90141901A02B5E8DC0F42B1CFC02B5E8DC0F42B1CFE5764000000000000300FC0
340
14
340
0
340
11
340
0
 94
        0
1001
ACAD_MLEADERVER
1070
     2
  0
MLINESTYLE
  5
18
102
{ACAD_REACTORS
330
17
102
}
330
17
100
AcDbMlineStyle
  2
Standard
 70
     0
  3

 62
   256
 51
90.0
 52
90.0
 71
     2
 49
0.5
 62
   256
  6
BYLAYER
 49
-0.5
 62
   256
  6
BYLAYER
  0
ACAD_PROXY_OBJECT
  5
48
102
{ACAD_REACTORS
330
47
102
}
330
47
100
AcDbProxyObject
 90
      499
 91
      503
 93
       41
310
903313A31580
  0
ACAD_PROXY_OBJECT
  5
49
102
{ACAD_REACTORS
330
47
102
}
330
47
100
AcDbProxyObject
 90
      499
 91
      503
 93
      257
310
90E312F31323822203D2031272D3022000000000000200FC000000000000284000
  0
ACAD_PROXY_OBJECT
  5
4A
102
{ACAD_REACTORS
330
47
102
}
330
47
100
AcDbProxyObject
 90
      499
 91
      503
 93
      249
310
90D312F363422203D2031272D3022000000000000240FC000000000000284000
  0
ACAD_PROXY_OBJECT
  5
4B
102
{ACAD_REACTORS
330
47
102
}
330
47
100
AcDbProxyObject
 90
      499
 91
      503
 93
      249
310
90D312F333222203D2031272D3022000000000000280FC000000000000284000
  0
ACAD_PROXY_OBJECT
  5
4C
102
{ACAD_REACTORS
330
47
102
}
330
47
100
AcDbProxyObject
 90
      499
 91
      503
 93
      249
310
90D312F313622203D2031272D30220000000000002C0FC000000000000284000
  0
ACAD_PROXY_OBJECT
  5
4D
102
{ACAD_REACTORS
330
47
102
}
330
47
100
AcDbProxyObject
 90
      499
 91
      503
 93
      249
310
90D332F333222203D2031272D30220000000000002E0FC000000000000284000
  0
ACAD_PROXY_OBJECT
  5
4E
102
{ACAD_REACTORS
330
47
102
}
330
47
100
AcDbProxyObject
 90
      499
 91
      503
 93
      241
310
90C312F3822203D2031272D3022000000000000300FC000000000000284000
  0
ACAD_PROXY_OBJECT
  5
4F
102
{ACAD_REACTORS
330
47
102
}
330
47
100
AcDbProxyObject
 90
      499
 91
      503
 93
      249
310
90D332F313622203D2031272D3022000000000000320FC000000000000284000
  0
ACAD_PROXY_OBJECT
  5
50
102
{ACAD_REACTORS
330
47
102
}
330
47
100
AcDbProxyObject
 90
      499
 91
      503
 93
      241
310
90C312F3422203D2031272D3022000000000000340FC000000000000284000
  0
ACAD_PROXY_OBJECT
  5
51
102
{ACAD_REACTORS
330
47
102
}
330
47
100
AcDbProxyObject
 90
      499
 91
      503
 93
      241
310
90C332F3822203D2031272D3022000000000000360FC000000000000284000
  0
ACAD_PROXY_OBJECT
  5
52
102
{ACAD_REACTORS
330
47
102
}
330
47
100
AcDbProxyObject
 90
      499
 91
      503
 93
      241
310
90C312F3222203D2031272D3022000000000000380FC000000000000284000
  0
ACAD_PROXY_OBJECT
  5
53
102
{ACAD_REACTORS
330
47
102
}
330
47
100
AcDbProxyObject
 90
      499
 91
      503
 93
      241
310
90C332F3422203D2031272D30220000000000003A0FC000000000000284000
  0
ACAD_PROXY_OBJECT
  5
54
102
{ACAD_REACTORS
330
47
102
}
330
47
100
AcDbProxyObject
 90
      499
 91
      503
 93
      161
310
90A3122203D2031272D30224000000000000284000
  0
ACAD_PROXY_OBJECT
  5
55
102
{ACAD_REACTORS
330
47
102
}
330
47
100
AcDbProxyObject
 90
      499
 91
      503
 93
      257
310
90E312D312F3222203D2031272D30220000000000003E0FC000000000000284000
  0
ACAD_PROXY_OBJECT
  5
56
102
{ACAD_REACTORS
330
47
102
}
330
47
100
AcDbProxyObject
 90
      499
 91
      503
 93
      225
310
90A3322203D2031272D302200000000000002100000000000000284000
  0
ACAD_PROXY_OBJECT
  5
57
102
{ACAD_REACTORS
330
47
102
}
330
47
100
AcDbProxyObject
 90
      499
 91
      503
 93
      225
310
90A3622203D2031272D302200000000000006100000000000000284000
  0
ACAD_PROXY_OBJECT
  5
58
102
{ACAD_REACTORS
330
47
102
}
330
47
100
AcDbProxyObject
 90
      499
 91
      503
 93
      249
310
90D31272D3022203D2031272D30220000000000000A100000000000000284000
  0
ACAD_PROXY_OBJECT
  5
2F
102
{ACAD_REACTORS
330
2A
102
}
330
2A
100
AcDbProxyObject
 90
      499
 91
      501
 93
      436
310
42CC9915DA5C99599C985B595049028333333333333E33F0000000000000F90107901411070040501600405405064090741402480A0340
1001
ACAD
1000
AcDbSavedByObjectVersion
1070
     0
  0
ACAD_PROXY_OBJECT
  5
32
102
{ACAD_REACTORS
330
2A
102
}
330
2A
100
AcDbProxyObject
 90
      499
 91
      501
 93
      388
310
4150985CDA58D07406404333333333333E33F0000000000000F90107A41107004050150841D405064090741402480A0350
1001
ACAD
1000
AcDbSavedByObjectVersion
1070
     0
  0
ACAD_PROXY_OBJECT
  5
36
102
{ACAD_REACTORS
330
2A
102
}
330
2A
100
AcDbProxyObject
 90
      499
 91
      501
 93
      428
310
42109C9A59DA1D195B90C409028333333333333E33F0000000000000F9010790141107004050150841D405064090741402480A029950
1001
ACAD
1000
AcDbSavedByObjectVersion
1070
     0
  0
ACAD_PROXY_OBJECT
  5
3A
102
{ACAD_REACTORS
330
2A
102
}
330
2A
100
AcDbProxyObject
 90
      499
 91
      501
 93
      452
310
42D0DBDB1BDC90DA185B99D95104090240C333333333333E33F0000000000000F90108901411070040501508421405064090741402480A0350
1001
ACAD
1000
AcDbSavedByObjectVersion
1070
     0
  0
ACAD_PROXY_OBJECT
  5
34
102
{ACAD_REACTORS
330
2A
102
}
330
2A
100
AcDbProxyObject
 90
      499
 91
      501
 93
      500
310
4290DBDB98D95C1D1D585B10940D028333333333333E33F0000000000000F90107902409070040501000000000018199010841D405064090740C02480A0340
1001
ACAD
1000
AcDbSavedByObjectVersion
1070
     0
  0
ACAD_PROXY_OBJECT
  5
35
102
{ACAD_REACTORS
330
2A
102
}
330
2A
100
AcDbProxyObject
 90
      499
 91
      501
 93
      412
310
40D11A5B50B409028333333333333E33F0000000000000F9010790141107004050150841D405064090741402480A02677FFFFFD0
1001
ACAD
1000
AcDbSavedByObjectVersion
1070
     0
  0
ACAD_PROXY_OBJECT
  5
3D
102
{ACAD_REACTORS
330
2A
102
}
330
2A
100
AcDbProxyObject
 90
      499
 91
      501
 93
      452
310
43115919D950DBDB1BDC93D999916409028333333333333E33F0000000000000F9010790141107004050150841D405064090741402480A0350
1001
ACAD
1000
AcDbSavedByObjectVersion
1070
     0
  0
ACAD_PROXY_OBJECT
  5
39
102
{ACAD_REACTORS
330
2A
102
}
330
2A
100
AcDbProxyObject
 90
      499
 91
      501
 93
      444
310
42D19858D95C185D1D195C9B90F409028333333333333E33F0000000000000F9010790141107004050150841D405064090741402480A0350
1001
ACAD
1000
AcDbSavedByObjectVersion
1070
     0
  0
ACAD_PROXY_OBJECT
  5
2B
102
{ACAD_REACTORS
330
2A
102
}
330
2A
100
AcDbProxyObject
 90
      499
 91
      501
 93
      380
310
41119B185D240901404333333333333E33F0000000000000F9010740A907004050150841D405064090741402480A1B50
1001
ACAD
1000
AcDbSavedByObjectVersion
1070
     0
  0
ACAD_PROXY_OBJECT
  5
2C
102
{ACAD_REACTORS
330
2A
102
}
330
2A
100
AcDbProxyObject
 90
      499
 91
      501
 93
      468
310
43519B185D15DA5D1A115919D95CD0140901404333333333333E33F0000000000000F90107409019070040501600405405064090741402480A1B50
1001
ACAD
1000
AcDbSavedByObjectVersion
1070
     0
  0
ACAD_PROXY_OBJECT
  5
2D
102
{ACAD_REACTORS
330
2A
102
}
330
2A
100
AcDbProxyObject
 90
      499
 91
      501
 93
      404
310
41D1DBDD5C985D5910240902404333333333333E33F0000000000000F9010740A9070040501641D405064090741402480A1B50
1001
ACAD
1000
AcDbSavedByObjectVersion
1070
     0
  0
ACAD_PROXY_OBJECT
  5
2E
102
{ACAD_REACTORS
330
2A
102
}
330
2A
100
AcDbProxyObject
 90
      499
 91
      501
 93
      492
310
4411DBDD5C985D5915DA5D1A115919D95CD0340902404333333333333E33F0000000000000F90107409019070040501600405405064090741402480A1B50
1001
ACAD
1000
AcDbSavedByObjectVersion
1070
     0
  0
ACAD_PROXY_OBJECT
  5
31
102
{ACAD_REACTORS
330
2A
102
}
330
2A
100
AcDbProxyObject
 90
      499
 91
      501
 93
      476
310
41921A5919195B90640502408333333333333E33F0000000000000F901079024090700405020000000000001110200405405064090740C02480A0340
1001
ACAD
1000
AcDbSavedByObjectVersion
1070
     0
  0
ACAD_PROXY_OBJECT
  5
3B
102
{ACAD_REACTORS
330
2A
102
}
330
2A
100
AcDbProxyObject
 90
      499
 91
      501
 93
      428
310
42529A5D1D195C93D999914409028333333333333E33F0000000000000F9010790141107004050150A41D405064090741402480A0350
1001
ACAD
1000
AcDbSavedByObjectVersion
1070
     0
  0
ACAD_PROXY_OBJECT
  5
38
102
{ACAD_REACTORS
330
2A
102
}
330
2A
100
AcDbProxyObject
 90
      499
 91
      501
 93
      444
310
42D31A5B995C185D1D195C9B90E409028333333333333E33F0000000000000F9010790141107004050750841D405064090741402483A0350
1001
ACAD
1000
AcDbSavedByObjectVersion
1070
     0
  0
ACAD_PROXY_OBJECT
  5
3C
102
{ACAD_REACTORS
330
2A
102
}
330
2A
100
AcDbProxyObject
 90
      499
 91
      501
 93
      444
310
42D3DD995C9A185B99D3D999915409028333333333333E33F0000000000000F9010790141107004050150941D405064090741402480A0350
1001
ACAD
1000
AcDbSavedByObjectVersion
1070
     0
  0
ACAD_PROXY_OBJECT
  5
33
102
{ACAD_REACTORS
330
2A
102
}
330
2A
100
AcDbProxyObject
 90
      499
 91
      501
 93
      428
310
425499585B1A5CDD1A58D08409038333333333333E33F0000000000000F9010740A907004050150800405405064090740C02480A1B40
1001
ACAD
1000
AcDbSavedByObjectVersion
1070
     0
  0
ACAD_PROXY_OBJECT
  5
42
102
{ACAD_REACTORS
330
2A
102
}
330
2A
100
AcDbProxyObject
 90
      499
 91
      501
 93
      420
310
4194DA1859195911B40902404333333333333E33F0000000000000F9010740A41107004050150800405405064090840C02480A0B40
1001
ACAD
1000
AcDbSavedByObjectVersion
1070
     0
  0
ACAD_PROXY_OBJECT
  5
41
102
{ACAD_REACTORS
330
2A
102
}
330
2A
100
AcDbProxyObject
 90
      499
 91
      501
 93
      516
310
4454DA18591959081DDA5D1A08195919D95CD1A40902404333333333333E33F0000000000000F901074090142907004050250800405405064090740C02480A0B40
1001
ACAD
1000
AcDbSavedByObjectVersion
1070
     0
  0
ACAD_PROXY_OBJECT
  5
3E
102
{ACAD_REACTORS
330
2A
102
}
330
2A
100
AcDbProxyObject
 90
      499
 91
      501
 93
      532
310
4394DA1859195CC81BD98811DC985E5174090240C333333333333E33F0000000000000F901079024090741D01000000000000111010841D405064090740C02480A0340
1001
ACAD
1000
AcDbSavedByObjectVersion
1070
     0
  0
ACAD_PROXY_OBJECT
  5
3F
102
{ACAD_REACTORS
330
2A
102
}
330
2A
100
AcDbProxyObject
 90
      499
 91
      501
 93
      476
310
41D4DAD95D18DA1E51840502408333333333333E33F0000000000000F901079024090741D01000000000000111010B41D405064090741802480A0340
1001
ACAD
1000
AcDbSavedByObjectVersion
1070
     0
  0
ACAD_PROXY_OBJECT
  5
37
102
{ACAD_REACTORS
330
2A
102
}
330
2A
100
AcDbProxyObject
 90
      499
 91
      501
 93
      412
310
41D51A1A58DAD95B90D409028333333333333E33F0000000000000F9010790141107004050150C41D405064090741402480A0350
1001
ACAD
1000
AcDbSavedByObjectVersion
1070
     0
  0
ACAD_PROXY_OBJECT
  5
30
102
{ACAD_REACTORS
330
2A
102
}
330
2A
100
AcDbProxyObject
 90
      499
 91
      501
 93
      420
310
4255DA5C99599C985B595059028333333333333E33F0000000000000F90107901411070040501600405405064090740C02480A0340
1001
ACAD
1000
AcDbSavedByObjectVersion
1070
     0
  0
ACAD_PROXY_OBJECT
  5
40
102
{ACAD_REACTORS
330
2A
102
}
330
2A
100
AcDbProxyObject
 90
      499
 91
      501
 93
      404
310
41560B54985E51940902404000000000000E03F0000000000000F9010740501907004050150841D405064090740C02480A1B40
1001
ACAD
1000
AcDbSavedByObjectVersion
1070
     0
  0
XRECORD
  5
232
102
{ACAD_REACTORS
330
228
102
}
330
228
100
AcDbXrecord
340
0
  0
XRECORD
  5
231
102
{ACAD_REACTORS
330
228
102
}
330
228
100
AcDbXrecord
 90
        0
  0
XRECORD
  5
248
102
{ACAD_REACTORS
330
228
102
}
330
228
100
AcDbXrecord
1000
DSTYLE
1002
{
1070
   171
 70
     2
1070
   143
 40
25.4
1070
   274
 70
     2
1070
    41
 40
0.18
1070
   141
 40
0.09
1070
   271
 70
     4
1070
    43
 40
0.38
1070
   278
 70
    46
1070
    44
 40
0.18
1070
    42
 40
0.0625
1070
   147
 40
0.09
1070
    77
 70
     0
1070
   272
 70
     4
1070
    73
 70
     1
1070
   279
 70
     2
1070
   172
 70
     0
1070
    74
 70
     1
1070
   283
 70
     1
1070
   340
340
11
1070
   140
 40
0.18
1070
   284
 70
     0
1070
    78
 70
     0
1002
}
  0
XRECORD
  5
233
102
{ACAD_REACTORS
330
228
102
}
330
228
100
AcDbXrecord
  1
{9864b44d-f5da-42ab-94bc-36e98b98ba92}
  0
XRECORD
  5
22B
102
{ACAD_REACTORS
330
228
102
}
330
228
100
AcDbXrecord
  1

  0
XRECORD
  5
230
102
{ACAD_REACTORS
330
228
102
}
330
228
100
AcDbXrecord
 90
        4
  0
XRECORD
  5
22D
102
{ACAD_REACTORS
330
228
102
}
330
228
100
AcDbXrecord
340
1A
  0
XRECORD
  5
22F
102
{ACAD_REACTORS
330
228
102
}
330
228
100
AcDbXrecord
 90
    10781
  0
XRECORD
  5
22E
102
{ACAD_REACTORS
330
228
102
}
330
228
100
AcDbXrecord
340
19
  0
XRECORD
  5
235
102
{ACAD_REACTORS
330
228
102
}
330
228
100
AcDbXrecord
 40
0.0
  0
XRECORD
  5
238
102
{ACAD_REACTORS
330
228
102
}
330
228
100
AcDbXrecord
340
0
  0
XRECORD
  5
23E
102
{ACAD_REACTORS
330
228
102
}
330
228
100
AcDbXrecord
 10
0.0
 20
0.0
 30
0.0
  0
XRECORD
  5
23A
102
{ACAD_REACTORS
330
228
102
}
330
228
100
AcDbXrecord
 10
0.0
 20
0.0
 30
0.0
  0
XRECORD
  5
23D
102
{ACAD_REACTORS
330
228
102
}
330
228
100
AcDbXrecord
 10
0.0
 20
0.0
 30
0.0
  0
XRECORD
  5
23B
102
{ACAD_REACTORS
330
228
102
}
330
228
100
AcDbXrecord
 10
0.0
 20
0.0
 30
0.0
  0
XRECORD
  5
23C
102
{ACAD_REACTORS
330
228
102
}
330
228
100
AcDbXrecord
 10
0.0
 20
0.0
 30
0.0
  0
XRECORD
  5
239
102
{ACAD_REACTORS
330
228
102
}
330
228
100
AcDbXrecord
 10
0.0
 20
0.0
 30
0.0
  0
XRECORD
  5
236
102
{ACAD_REACTORS
330
228
102
}
330
228
100
AcDbXrecord
340
0
  0
XRECORD
  5
237
102
{ACAD_REACTORS
330
228
102
}
330
228
100
AcDbXrecord
 70
     0
  0
XRECORD
  5
22C
102
{ACAD_REACTORS
330
228
102
}
330
228
100
AcDbXrecord
  1

  0
XRECORD
  5
229
102
{ACAD_REACTORS
330
228
102
}
330
228
100
AcDbXrecord
 90
        1
  0
XRECORD
  5
22A
102
{ACAD_REACTORS
330
228
102
}
330
228
100
AcDbXrecord
 90
       70
  0
XRECORD
  5
241
102
{ACAD_REACTORS
330
228
102
}
330
228
100
AcDbXrecord
340
0
  0
XRECORD
  5
247
102
{ACAD_REACTORS
330
228
102
}
330
228
100
AcDbXrecord
 10
0.0
 20
0.0
 30
0.0
  0
XRECORD
  5
243
102
{ACAD_REACTORS
330
228
102
}
330
228
100
AcDbXrecord
 10
0.0
 20
0.0
 30
0.0
  0
XRECORD
  5
246
102
{ACAD_REACTORS
330
228
102
}
330
228
100
AcDbXrecord
 10
0.0
 20
0.0
 30
0.0
  0
XRECORD
  5
244
102
{ACAD_REACTORS
330
228
102
}
330
228
100
AcDbXrecord
 10
0.0
 20
0.0
 30
0.0
  0
XRECORD
  5
245
102
{ACAD_REACTORS
330
228
102
}
330
228
100
AcDbXrecord
 10
0.0
 20
0.0
 30
0.0
  0
XRECORD
  5
242
102
{ACAD_REACTORS
330
228
102
}
330
228
100
AcDbXrecord
 10
0.0
 20
0.0
 30
0.0
  0
XRECORD
  5
23F
102
{ACAD_REACTORS
330
228
102
}
330
228
100
AcDbXrecord
340
0
  0
XRECORD
  5
240
102
{ACAD_REACTORS
330
228
102
}
330
228
100
AcDbXrecord
 70
     0
  0
XRECORD
  5
234
102
{ACAD_REACTORS
330
228
102
}
330
228
100
AcDbXrecord
  1
{FAEB1C32-E019-11D5-929B-00C0DF256EC4}
  0
DICTIONARYVAR
  5
253
102
{ACAD_REACTORS
330
249
102
}
330
249
100
DictionaryVariables
280
     0
  1
1:1
  0
DICTIONARYVAR
  5
24B
102
{ACAD_REACTORS
330
249
102
}
330
249
100
DictionaryVariables
280
     0
  1
Standard
  0
DICTIONARYVAR
  5
24A
102
{ACAD_REACTORS
330
249
102
}
330
249
100
DictionaryVariables
280
     0
  1
Standard
  0
DICTIONARYVAR
  5
24E
102
{ACAD_REACTORS
330
249
102
}
330
249
100
DictionaryVariables
280
     0
  1
2
  0
DICTIONARYVAR
  5
24F
102
{ACAD_REACTORS
330
249
102
}
330
249
100
DictionaryVariables
280
     0
  1
1
  0
DICTIONARYVAR
  5
254
102
{ACAD_REACTORS
330
249
102
}
330
249
100
DictionaryVariables
280
     0
  1
1
  0
DICTIONARY
  5
257
330
45
100
AcDbDictionary
280
     1
  3
ACAD_XREC_ROUNDTRIP
360
258
  0
DICTIONARY
  5
255
330
44
100
AcDbDictionary
280
     1
  3
ACAD_XREC_ROUNDTRIP
360
256
  0
DICTIONARY
  5
259
330
46
100
AcDbDictionary
280
     1
  3
ACAD_XREC_ROUNDTRIP
360
25A
  0
XRECORD
  5
258
102
{ACAD_REACTORS
330
257
102
}
330
257
100
AcDbXrecord
102
MATERIAL
148
0.0
149
0.0
149
0.0
 93
        0
 94
      127
282
     0
 72
     1
 77
     1
171
     1
175
     1
179
     1
273
     0
  0
XRECORD
  5
256
102
{ACAD_REACTORS
330
255
102
}
330
255
100
AcDbXrecord
102
MATERIAL
148
0.0
149
0.0
149
0.0
 93
        0
 94
      127
282
     0
 72
     1
 77
     1
171
     1
175
     1
179
     1
273
     0
  0
XRECORD
  5
25A
102
{ACAD_REACTORS
330
259
102
}
330
259
100
AcDbXrecord
102
MATERIAL
148
0.0
149
0.0
149
0.0
 93
        0
 94
      127
282
     0
 72
     1
 77
     1
171
     1
175
     1
179
     1
273
     0
  0
ENDSEC
  0
EOF
