  0
SECTION
  2
HEADER
  9
$ACADVER
  1
AC1014
  9
$ACADMAINTVER
 70
     9
  9
$DWGCODEPAGE
  3
ANSI_1252
  9
$INSBASE
 10
0.0
 20
0.0
 30
0.0
  9
$EXTMIN
 10
-876.4757331351211
 20
-182.8526428489204
 30
-0.0000000000497522
  9
$EXTMAX
 10
871.023999436592
 20
214.6473571545939
 30
0.0000934350687913
  9
$LIMMIN
 10
0.0
 20
0.0
  9
$LIMMAX
 10
12.0
 20
9.0
  9
$ORTHOMODE
 70
     0
  9
$REGENMODE
 70
     1
  9
$FILLMODE
 70
     1
  9
$QTEXTMODE
 70
     0
  9
$MIRRTEXT
 70
     1
  9
$DRAGMODE
 70
     2
  9
$LTSCALE
 40
1.0
  9
$OSMODE
 70
    37
  9
$ATTMODE
 70
     1
  9
$TEXTSIZE
 40
0.2
  9
$TRACEWID
 40
0.05
  9
$TEXTSTYLE
  7
STANDARD
  9
$CLAYER
  8
0
  9
$CELTYPE
  6
BYLAYER
  9
$CECOLOR
 62
   256
  9
$CELTSCALE
 40
1.0
  9
$DELOBJ
 70
     1
  9
$DISPSILH
 70
     0
  9
$DIMSCALE
 40
1.0
  9
$DIMASZ
 40
0.18
  9
$DIMEXO
 40
0.0625
  9
$DIMDLI
 40
0.38
  9
$DIMRND
 40
0.0
  9
$DIMDLE
 40
0.0
  9
$DIMEXE
 40
0.18
  9
$DIMTP
 40
0.0
  9
$DIMTM
 40
0.0
  9
$DIMTXT
 40
0.18
  9
$DIMCEN
 40
0.09
  9
$DIMTSZ
 40
0.0
  9
$DIMTOL
 70
     0
  9
$DIMLIM
 70
     0
  9
$DIMTIH
 70
     1
  9
$DIMTOH
 70
     1
  9
$DIMSE1
 70
     0
  9
$DIMSE2
 70
     0
  9
$DIMTAD
 70
     0
  9
$DIMZIN
 70
     0
  9
$DIMBLK
  1

  9
$DIMASO
 70
     1
  9
$DIMSHO
 70
     1
  9
$DIMPOST
  1

  9
$DIMAPOST
  1

  9
$DIMALT
 70
     0
  9
$DIMALTD
 70
     2
  9
$DIMALTF
 40
25.4
  9
$DIMLFAC
 40
1.0
  9
$DIMTOFL
 70
     0
  9
$DIMTVP
 40
0.0
  9
$DIMTIX
 70
     0
  9
$DIMSOXD
 70
     0
  9
$DIMSAH
 70
     0
  9
$DIMBLK1
  1

  9
$DIMBLK2
  1

  9
$DIMSTYLE
  2
STANDARD_ACAD
  9
$DIMCLRD
 70
     0
  9
$DIMCLRE
 70
     0
  9
$DIMCLRT
 70
     0
  9
$DIMTFAC
 40
1.0
  9
$DIMGAP
 40
0.09
  9
$DIMJUST
 70
     0
  9
$DIMSD1
 70
     0
  9
$DIMSD2
 70
     0
  9
$DIMTOLJ
 70
     1
  9
$DIMTZIN
 70
     0
  9
$DIMALTZ
 70
     0
  9
$DIMALTTZ
 70
     0
  9
$DIMFIT
 70
     5
  9
$DIMUPT
 70
     0
  9
$DIMUNIT
 70
     2
  9
$DIMDEC
 70
     4
  9
$DIMTDEC
 70
     4
  9
$DIMALTU
 70
     2
  9
$DIMALTTD
 70
     2
  9
$DIMTXSTY
  7
STANDARD
  9
$DIMAUNIT
 70
     0
  9
$LUNITS
 70
     2
  9
$LUPREC
 70
     2
  9
$SKETCHINC
 40
0.1
  9
$FILLETRAD
 40
0.0
  9
$AUNITS
 70
     0
  9
$AUPREC
 70
     0
  9
$MENU
  1
.
  9
$ELEVATION
 40
0.0
  9
$PELEVATION
 40
0.0
  9
$THICKNESS
 40
0.0
  9
$LIMCHECK
 70
     0
  9
$CHAMFERA
 40
0.0
  9
$CHAMFERB
 40
0.0
  9
$CHAMFERC
 40
0.0
  9
$CHAMFERD
 40
0.0
  9
$SKPOLY
 70
     0
  9
$TDCREATE
 40
2461249.437259514
  9
$TDUPDATE
 40
2461249.437259607
  9
$TDINDWG
 40
0.0000000116
  9
$TDUSRTIMER
 40
0.0000000116
  9
$USRTIMER
 70
     1
  9
$ANGBASE
 50
0.0
  9
$ANGDIR
 70
     0
  9
$PDMODE
 70
     0
  9
$PDSIZE
 40
0.0
  9
$PLINEWID
 40
0.0
  9
$COORDS
 70
     1
  9
$SPLFRAME
 70
     0
  9
$SPLINETYPE
 70
     6
  9
$SPLINESEGS
 70
     8
  9
$ATTDIA
 70
     0
  9
$ATTREQ
 70
     1
  9
$HANDLING
 70
     1
  9
$HANDSEED
  5
24F
  9
$SURFTAB1
 70
     6
  9
$SURFTAB2
 70
     6
  9
$SURFTYPE
 70
     6
  9
$SURFU
 70
     6
  9
$SURFV
 70
     6
  9
$UCSNAME
  2

  9
$UCSORG
 10
0.0
 20
0.0
 30
0.0
  9
$UCSXDIR
 10
1.0
 20
0.0
 30
0.0
  9
$UCSYDIR
 10
0.0
 20
1.0
 30
0.0
  9
$PUCSNAME
  2

  9
$PUCSORG
 10
0.0
 20
0.0
 30
0.0
  9
$PUCSXDIR
 10
1.0
 20
0.0
 30
0.0
  9
$PUCSYDIR
 10
0.0
 20
1.0
 30
0.0
  9
$USERI1
 70
     0
  9
$USERI2
 70
     0
  9
$USERI3
 70
     0
  9
$USERI4
 70
     0
  9
$USERI5
 70
     0
  9
$USERR1
 40
0.0
  9
$USERR2
 40
0.0
  9
$USERR3
 40
0.0
  9
$USERR4
 40
0.0
  9
$USERR5
 40
0.0
  9
$WORLDVIEW
 70
     1
  9
$SHADEDGE
 70
     3
  9
$SHADEDIF
 70
    70
  9
$TILEMODE
 70
     1
  9
$MAXACTVP
 70
    64
  9
$PINSBASE
 10
0.0
 20
0.0
 30
0.0
  9
$PLIMCHECK
 70
     0
  9
$PEXTMIN
 10
1.000000000000000E+20
 20
1.000000000000000E+20
 30
1.000000000000000E+20
  9
$PEXTMAX
 10
-1.000000000000000E+20
 20
-1.000000000000000E+20
 30
-1.000000000000000E+20
  9
$PLIMMIN
 10
0.0
 20
0.0
  9
$PLIMMAX
 10
12.0
 20
9.0
  9
$UNITMODE
 70
     0
  9
$VISRETAIN
 70
     1
  9
$PLINEGEN
 70
     0
  9
$PSLTSCALE
 70
     1
  9
$TREEDEPTH
 70
  3020
  9
$PICKSTYLE
 70
     1
  9
$CMLSTYLE
  2
STANDARD
  9
$CMLJUST
 70
     0
  9
$CMLSCALE
 40
1.0
  9
$PROXYGRAPHICS
 70
     1
  9
$MEASUREMENT
 70
     1
  0
ENDSEC
  0
SECTION
  2
CLASSES
  0
CLASS
  1
ACDBDICTIONARYWDFLT
  2
AcDbDictionaryWithDefault
  3
ObjectDBX Classes
 90
        0
280
     0
281
     0
  0
CLASS
  1
VISUALSTYLE
  2
AcDbVisualStyle
  3
ObjectDBX Classes
 90
     4095
280
     0
281
     0
  0
CLASS
  1
MATERIAL
  2
AcDbMaterial
  3
ObjectDBX Classes
 90
     1153
280
     0
281
     0
  0
CLASS
  1
SCALE
  2
AcDbScale
  3
ObjectDBX Classes
 90
     1153
280
     0
281
     0
  0
CLASS
  1
TABLESTYLE
  2
AcDbTableStyle
  3
ObjectDBX Classes
 90
     4095
280
     0
281
     0
  0
CLASS
  1
MLEADERSTYLE
  2
AcDbMLeaderStyle
  3
ACDB_MLEADERSTYLE_CLASS
 90
     4095
280
     0
281
     0
  0
CLASS
  1
SUN
  2
AcDbSun
  3
SCENEOE
 90
     1153
280
     0
281
     0
  0
CLASS
  1
DICTIONARYVAR
  2
AcDbDictionaryVar
  3
ObjectDBX Classes
 90
        0
280
     0
281
     0
  0
CLASS
  1
XRECORD
  2
AcDbXrecord
  3
ObjectDBX Classes
 90
        0
280
     0
281
     0
  0
CLASS
  1
LWPOLYLINE
  2
AcDbPolyline
  3
ObjectDBX Classes
 90
        0
280
     0
281
     1
  0
CLASS
  1
HATCH
  2
AcDbHatch
  3
ObjectDBX Classes
 90
        0
280
     0
281
     1
  0
CLASS
  1
ACDBPLACEHOLDER
  2
AcDbPlaceHolder
  3
ObjectDBX Classes
 90
        0
280
     0
281
     0
  0
CLASS
  1
LAYOUT
  2
AcDbLayout
  3
ObjectDBX Classes
 90
        0
280
     0
281
     0
  0
ENDSEC
  0
SECTION
  2
TABLES
  0
TABLE
  2
VPORT
  5
8
102
{ACAD_XDICTIONARY
360
244
102
}
330
0
100
AcDbSymbolTable
 70
     1
  0
VPORT
  5
29
330
8
100
AcDbSymbolTableRecord
100
AcDbViewportTableRecord
  2
*ACTIVE
 70
     0
 10
0.0
 20
0.0
 11
1.0
 21
1.0
 12
10.42990654205607
 22
4.5
 13
0.0
 23
0.0
 14
0.5
 24
0.5
 15
0.5
 25
0.5
 16
0.0
 26
0.0
 36
1.0
 17
0.0
 27
0.0
 37
0.0
 40
9.0
 41
1.972972972850329
 42
50.0
 43
0.0
 44
0.0
 50
0.0
 51
0.0
 71
     0
 72
   100
 73
     1
 74
     3
 75
     0
 76
     0
 77
     0
 78
     0
  0
ENDTAB
  0
TABLE
  2
LTYPE
  5
5
330
0
100
AcDbSymbolTable
 70
     1
  0
LTYPE
  5
14
330
5
100
AcDbSymbolTableRecord
100
AcDbLinetypeTableRecord
  2
BYBLOCK
 70
     0
  3

 72
    65
 73
     0
 40
0.0
  0
LTYPE
  5
15
330
5
100
AcDbSymbolTableRecord
100
AcDbLinetypeTableRecord
  2
BYLAYER
 70
     0
  3

 72
    65
 73
     0
 40
0.0
  0
LTYPE
  5
16
330
5
100
AcDbSymbolTableRecord
100
AcDbLinetypeTableRecord
  2
CONTINUOUS
 70
     0
  3
Solid line
 72
    65
 73
     0
 40
0.0
  0
ENDTAB
  0
TABLE
  2
LAYER
  5
2
330
0
100
AcDbSymbolTable
 70
     5
  0
LAYER
  5
10
330
2
100
AcDbSymbolTableRecord
100
AcDbLayerTableRecord
  2
0
 70
     0
 62
     7
  6
CONTINUOUS
  0
LAYER
  5
5F
330
2
100
AcDbSymbolTableRecord
100
AcDbLayerTableRecord
  2
1_ANYTOOL_1MMDEEP_LABELS_S
 70
     0
 62
     2
  6
CONTINUOUS
  0
LAYER
  5
74
330
2
100
AcDbSymbolTableRecord
100
AcDbLayerTableRecord
  2
5_ANYTOOL_HALF_MILL_9MM_IN
 70
     0
 62
     3
  6
CONTINUOUS
  0
LAYER
  5
9F
330
2
100
AcDbSymbolTableRecord
100
AcDbLayerTableRecord
  2
3_ANYTOOL_CUTTHROUGH_INSID
 70
     0
 62
     4
  6
CONTINUOUS
  0
LAYER
  5
11E
330
2
100
AcDbSymbolTableRecord
100
AcDbLayerTableRecord
  2
4_ANYTOOL_CUTTHROUGH_OUTSI
 70
     0
 62
     5
  6
CONTINUOUS
  0
ENDTAB
  0
TABLE
  2
STYLE
  5
3
330
0
100
AcDbSymbolTable
 70
     1
  0
STYLE
  5
11
330
3
100
AcDbSymbolTableRecord
100
AcDbTextStyleTableRecord
  2
STANDARD
 70
     0
 40
0.0
 41
1.0
 50
0.0
 71
     0
 42
0.2
  3
txt
  4

  0
ENDTAB
  0
TABLE
  2
VIEW
  5
6
330
0
100
AcDbSymbolTable
 70
     0
  0
ENDTAB
  0
TABLE
  2
UCS
  5
7
330
0
100
AcDbSymbolTable
 70
     0
  0
ENDTAB
  0
TABLE
  2
APPID
  5
9
330
0
100
AcDbSymbolTable
 70
     3
  0
APPID
  5
12
330
9
100
AcDbSymbolTableRecord
100
AcDbRegAppTableRecord
  2
ACAD
 70
     0
  0
APPID
  5
5E
330
9
100
AcDbSymbolTableRecord
100
AcDbRegAppTableRecord
  2
RHINO
 70
     0
  0
APPID
  5
24E
330
9
100
AcDbSymbolTableRecord
100
AcDbRegAppTableRecord
  2
ACAD_MLEADERVER
 70
     0
  0
ENDTAB
  0
TABLE
  2
DIMSTYLE
  5
A
330
0
100
AcDbSymbolTable
 70
     1
  0
DIMSTYLE
105
27
330
A
100
AcDbSymbolTableRecord
100
AcDbDimStyleTableRecord
  2
STANDARD_ACAD
 70
     0
  3

  4

  5

  6

  7

 40
1.0
 41
0.18
 42
0.0625
 43
0.38
 44
0.18
 45
0.0
 46
0.0
 47
0.0
 48
0.0
140
0.18
141
0.09
142
0.0
143
25.4
144
1.0
145
0.0
146
1.0
147
0.09
 71
     0
 72
     0
 73
     1
 74
     1
 75
     0
 76
     0
 77
     0
 78
     0
170
     0
171
     2
172
     0
173
     0
174
     0
175
     0
176
     0
177
     0
178
     0
270
     2
271
     4
272
     4
273
     2
274
     2
340
11
275
     0
280
     0
281
     0
282
     0
283
     1
284
     0
285
     0
286
     0
287
     3
288
     0
  0
ENDTAB
  0
TABLE
  2
BLOCK_RECORD
  5
1
330
0
100
AcDbSymbolTable
 70
     0
  0
BLOCK_RECORD
  5
1F
330
1
100
AcDbSymbolTableRecord
100
AcDbBlockTableRecord
  2
*MODEL_SPACE
  0
BLOCK_RECORD
  5
1B
330
1
100
AcDbSymbolTableRecord
100
AcDbBlockTableRecord
  2
*PAPER_SPACE
  0
ENDTAB
  0
ENDSEC
  0
SECTION
  2
BLOCKS
  0
BLOCK
  5
20
330
1F
100
AcDbEntity
  8
0
100
AcDbBlockBegin
  2
*MODEL_SPACE
 70
     0
 10
0.0
 20
0.0
 30
0.0
  3
*MODEL_SPACE
  1

  0
ENDBLK
  5
21
330
1F
100
AcDbEntity
  8
0
100
AcDbBlockEnd
  0
BLOCK
  5
1C
330
1B
100
AcDbEntity
 67
     1
  8
0
100
AcDbBlockBegin
  2
*PAPER_SPACE
 70
     0
 10
0.0
 20
0.0
 30
0.0
  3
*PAPER_SPACE
  1

  0
ENDBLK
  5
1D
330
1B
100
AcDbEntity
 67
     1
  8
0
100
AcDbBlockEnd
  0
ENDSEC
  0
SECTION
  2
ENTITIES
  0
POLYLINE
  5
60
330
1F
100
AcDbEntity
  8
1_ANYTOOL_1MMDEEP_LABELS_S
100
AcDb2dPolyline
 66
     1
 10
0.0
 20
0.0
 30
0.0
  0
VERTEX
  5
61
330
60
100
AcDbEntity
  8
1_ANYTOOL_1MMDEEP_LABELS_S
100
AcDbVertex
100
AcDb2dVertex
 10
21.94285714285888
 20
-30.0
 30
0.0
  0
VERTEX
  5
62
330
60
100
AcDbEntity
  8
1_ANYTOOL_1MMDEEP_LABELS_S
100
AcDbVertex
100
AcDb2dVertex
 10
3.000000000001819
 20
-30.0
 30
0.0
  0
VERTEX
  5
63
330
60
100
AcDbEntity
  8
1_ANYTOOL_1MMDEEP_LABELS_S
100
AcDbVertex
100
AcDb2dVertex
 10
3.000000000001819
 20
0.0
 30
0.0
  0
VERTEX
  5
64
330
60
100
AcDbEntity
  8
1_ANYTOOL_1MMDEEP_LABELS_S
100
AcDbVertex
100
AcDb2dVertex
 10
20.82857142857301
 20
0.0
 30
0.0
  0
SEQEND
  5
65
330
60
100
AcDbEntity
  8
1_ANYTOOL_1MMDEEP_LABELS_S
  0
LINE
  5
66
330
1F
100
AcDbEntity
  8
1_ANYTOOL_1MMDEEP_LABELS_S
100
AcDbLine
 10
17.65714285714512
 20
-13.92857142857247
 30
0.0
 11
3.000000000001819
 21
-13.92857142857247
 31
0.0
  0
LINE
  5
67
330
1F
100
AcDbEntity
  8
1_ANYTOOL_1MMDEEP_LABELS_S
100
AcDbLine
 10
34.15714285714512
 20
-16.11428571428405
 30
0.0
 11
25.37142857143044
 21
-16.19999999999709
 31
0.0
  0
POLYLINE
  5
68
330
1F
100
AcDbEntity
  8
1_ANYTOOL_1MMDEEP_LABELS_S
100
AcDb2dPolyline
 66
     1
 10
0.0
 20
0.0
 30
0.0
  0
VERTEX
  5
69
330
68
100
AcDbEntity
  8
1_ANYTOOL_1MMDEEP_LABELS_S
100
AcDbVertex
100
AcDb2dVertex
 10
39.300000000002
 20
0.0
 30
0.0
  0
VERTEX
  5
6A
330
68
100
AcDbEntity
  8
1_ANYTOOL_1MMDEEP_LABELS_S
100
AcDbVertex
100
AcDb2dVertex
 10
39.300000000002
 20
-30.0
 30
0.0
  0
VERTEX
  5
6B
330
68
100
AcDbEntity
  8
1_ANYTOOL_1MMDEEP_LABELS_S
100
AcDbVertex
100
AcDb2dVertex
 10
56.40000000000146
 20
-30.0
 30
0.0
  0
SEQEND
  5
6C
330
68
100
AcDbEntity
  8
1_ANYTOOL_1MMDEEP_LABELS_S
  0
LINE
  5
6D
330
1F
100
AcDbEntity
  8
1_ANYTOOL_1MMDEEP_LABELS_S
100
AcDbLine
 10
76.54285714285925
 20
-0.4714285714289872
 30
0.0
 11
59.35714285714494
 21
-31.24285714285361
 31
0.0
  0
POLYLINE
  5
6E
330
1F
100
AcDbEntity
  8
1_ANYTOOL_1MMDEEP_LABELS_S
100
AcDb2dPolyline
 66
     1
 10
0.0
 20
0.0
 30
0.0
  0
VERTEX
  5
6F
330
6E
100
AcDbEntity
  8
1_ANYTOOL_1MMDEEP_LABELS_S
100
AcDbVertex
100
AcDb2dVertex
 10
78.25714285714457
 20
-30.0
 30
0.0
  0
VERTEX
  5
70
330
6E
100
AcDbEntity
  8
1_ANYTOOL_1MMDEEP_LABELS_S
100
AcDbVertex
100
AcDb2dVertex
 10
89.1428571428587
 20
0.0
 30
0.0
  0
VERTEX
  5
71
330
6E
100
AcDbEntity
  8
1_ANYTOOL_1MMDEEP_LABELS_S
100
AcDbVertex
100
AcDb2dVertex
 10
100.2000000000016
 20
-30.0
 30
0.0
  0
SEQEND
  5
72
330
6E
100
AcDbEntity
  8
1_ANYTOOL_1MMDEEP_LABELS_S
  0
LINE
  5
73
330
1F
100
AcDbEntity
  8
1_ANYTOOL_1MMDEEP_LABELS_S
100
AcDbLine
 10
81.72857142857356
 20
-20.44285714285797
 30
0.0
 11
96.6428571428587
 21
-20.44285714285797
 31
0.0
  0
POLYLINE
  5
75
330
1F
100
AcDbEntity
  8
5_ANYTOOL_HALF_MILL_9MM_IN
100
AcDb2dPolyline
 66
     1
 10
0.0
 20
0.0
 30
-0.0000000000490244
 70
     1
  0
VERTEX
  5
76
330
75
100
AcDbEntity
  8
5_ANYTOOL_HALF_MILL_9MM_IN
100
AcDbVertex
100
AcDb2dVertex
 10
-606.875733134325
 20
140.8973571513197
 30
-0.0000000000490244
 42
1.000000000000171
  0
VERTEX
  5
77
330
75
100
AcDbEntity
  8
5_ANYTOOL_HALF_MILL_9MM_IN
100
AcDbVertex
100
AcDb2dVertex
 10
-564.3757331343268
 20
140.8973571513125
 30
-0.0000000000490244
  0
VERTEX
  5
78
330
75
100
AcDbEntity
  8
5_ANYTOOL_HALF_MILL_9MM_IN
100
AcDbVertex
100
AcDb2dVertex
 10
-564.3757331343222
 20
147.1473571513125
 30
-0.0000000000490244
  0
VERTEX
  5
79
330
75
100
AcDbEntity
  8
5_ANYTOOL_HALF_MILL_9MM_IN
100
AcDbVertex
100
AcDb2dVertex
 10
-606.8757331343222
 20
147.1473571513197
 30
-0.0000000000490244
  0
SEQEND
  5
7A
330
75
100
AcDbEntity
  8
5_ANYTOOL_HALF_MILL_9MM_IN
  0
POLYLINE
  5
7B
330
1F
100
AcDbEntity
  8
5_ANYTOOL_HALF_MILL_9MM_IN
100
AcDb2dPolyline
 66
     1
 10
0.0
 20
0.0
 30
0.0000000000213269
 70
     1
  0
VERTEX
  5
7C
330
7B
100
AcDbEntity
  8
5_ANYTOOL_HALF_MILL_9MM_IN
100
AcDbVertex
100
AcDb2dVertex
 10
-6.875733134700567
 20
140.8973571513561
 30
0.0000000000213269
 42
1.000000000000171
  0
VERTEX
  5
7D
330
7B
100
AcDbEntity
  8
5_ANYTOOL_HALF_MILL_9MM_IN
100
AcDbVertex
100
AcDb2dVertex
 10
35.62426686530671
 20
140.8973571513488
 30
0.0000000000213269
  0
VERTEX
  5
7E
330
7B
100
AcDbEntity
  8
5_ANYTOOL_HALF_MILL_9MM_IN
100
AcDbVertex
100
AcDb2dVertex
 10
35.62426686530216
 20
147.1473571513488
 30
0.0000000000213269
  0
VERTEX
  5
7F
330
7B
100
AcDbEntity
  8
5_ANYTOOL_HALF_MILL_9MM_IN
100
AcDbVertex
100
AcDb2dVertex
 10
-6.875733134703296
 20
147.1473571513561
 30
0.0000000000213269
  0
SEQEND
  5
80
330
7B
100
AcDbEntity
  8
5_ANYTOOL_HALF_MILL_9MM_IN
  0
POLYLINE
  5
81
330
1F
100
AcDbEntity
  8
5_ANYTOOL_HALF_MILL_9MM_IN
100
AcDb2dPolyline
 66
     1
 10
0.0
 20
0.0
 30
0.0000934350687913
 70
     1
  0
VERTEX
  5
82
330
81
100
AcDbEntity
  8
5_ANYTOOL_HALF_MILL_9MM_IN
100
AcDbVertex
100
AcDb2dVertex
 10
-369.475733134298
 20
140.897357151196
 30
0.0000934350687913
 42
-0.9999999999914434
  0
VERTEX
  5
83
330
81
100
AcDbEntity
  8
5_ANYTOOL_HALF_MILL_9MM_IN
100
AcDbVertex
100
AcDb2dVertex
 10
-411.9757331350193
 20
140.8973571511815
 30
0.0000934350687913
  0
VERTEX
  5
84
330
81
100
AcDbEntity
  8
5_ANYTOOL_HALF_MILL_9MM_IN
100
AcDbVertex
100
AcDb2dVertex
 10
-411.975733135032
 20
147.1473571511815
 30
0.0000934350687913
  0
VERTEX
  5
85
330
81
100
AcDbEntity
  8
5_ANYTOOL_HALF_MILL_9MM_IN
100
AcDbVertex
100
AcDb2dVertex
 10
-369.4757331343053
 20
147.147357151196
 30
0.0000934350687913
  0
SEQEND
  5
86
330
81
100
AcDbEntity
  8
5_ANYTOOL_HALF_MILL_9MM_IN
  0
POLYLINE
  5
87
330
1F
100
AcDbEntity
  8
5_ANYTOOL_HALF_MILL_9MM_IN
100
AcDb2dPolyline
 66
     1
 10
0.0
 20
0.0
 30
-0.0000000000108658
 70
     1
  0
VERTEX
  5
88
330
87
100
AcDbEntity
  8
5_ANYTOOL_HALF_MILL_9MM_IN
100
AcDbVertex
100
AcDb2dVertex
 10
425.4242668646202
 20
140.8973571512761
 30
-0.0000000000108658
 42
-0.9999999999998287
  0
VERTEX
  5
89
330
87
100
AcDbEntity
  8
5_ANYTOOL_HALF_MILL_9MM_IN
100
AcDbVertex
100
AcDb2dVertex
 10
382.9242668646239
 20
140.8973571512834
 30
-0.0000000000108658
  0
VERTEX
  5
8A
330
87
100
AcDbEntity
  8
5_ANYTOOL_HALF_MILL_9MM_IN
100
AcDbVertex
100
AcDb2dVertex
 10
382.9242668646157
 20
147.1473571512834
 30
-0.0000000000108658
  0
VERTEX
  5
8B
330
87
100
AcDbEntity
  8
5_ANYTOOL_HALF_MILL_9MM_IN
100
AcDbVertex
100
AcDb2dVertex
 10
425.424266864622
 20
147.1473571512761
 30
-0.0000000000108658
  0
SEQEND
  5
8C
330
87
100
AcDbEntity
  8
5_ANYTOOL_HALF_MILL_9MM_IN
  0
POLYLINE
  5
8D
330
1F
100
AcDbEntity
  8
5_ANYTOOL_HALF_MILL_9MM_IN
100
AcDb2dPolyline
 66
     1
 10
0.0
 20
0.0
 30
0.0000000000183238
 70
     1
  0
VERTEX
  5
8E
330
8D
100
AcDbEntity
  8
5_ANYTOOL_HALF_MILL_9MM_IN
100
AcDbVertex
100
AcDb2dVertex
 10
593.1242668645846
 20
140.8973571512324
 30
0.0000000000183238
 42
0.9999999999999999
  0
VERTEX
  5
8F
330
8D
100
AcDbEntity
  8
5_ANYTOOL_HALF_MILL_9MM_IN
100
AcDbVertex
100
AcDb2dVertex
 10
635.6242668645937
 20
140.8973571512324
 30
0.0000000000183238
  0
VERTEX
  5
90
330
8D
100
AcDbEntity
  8
5_ANYTOOL_HALF_MILL_9MM_IN
100
AcDbVertex
100
AcDb2dVertex
 10
635.6242668645909
 20
147.1473571512324
 30
0.0000000000183238
  0
VERTEX
  5
91
330
8D
100
AcDbEntity
  8
5_ANYTOOL_HALF_MILL_9MM_IN
100
AcDbVertex
100
AcDb2dVertex
 10
593.1242668645837
 20
147.1473571512324
 30
0.0000000000183238
  0
SEQEND
  5
92
330
8D
100
AcDbEntity
  8
5_ANYTOOL_HALF_MILL_9MM_IN
  0
POLYLINE
  5
93
330
1F
100
AcDbEntity
  8
5_ANYTOOL_HALF_MILL_9MM_IN
100
AcDb2dPolyline
 66
     1
 10
0.0
 20
0.0
 30
0.0000934350687913
 70
     1
  0
VERTEX
  5
94
330
93
100
AcDbEntity
  8
5_ANYTOOL_HALF_MILL_9MM_IN
100
AcDbVertex
100
AcDb2dVertex
 10
230.5242668653163
 20
140.8973571512106
 30
0.0000934350687913
 42
-0.999999999991957
  0
VERTEX
  5
95
330
93
100
AcDbEntity
  8
5_ANYTOOL_HALF_MILL_9MM_IN
100
AcDbVertex
100
AcDb2dVertex
 10
188.024266864596
 20
140.8973571512179
 30
0.0000934350687913
  0
VERTEX
  5
96
330
93
100
AcDbEntity
  8
5_ANYTOOL_HALF_MILL_9MM_IN
100
AcDbVertex
100
AcDb2dVertex
 10
188.0242668645997
 20
147.1473571512179
 30
0.0000934350687913
  0
VERTEX
  5
97
330
93
100
AcDbEntity
  8
5_ANYTOOL_HALF_MILL_9MM_IN
100
AcDbVertex
100
AcDb2dVertex
 10
230.5242668653163
 20
147.1473571512106
 30
0.0000934350687913
  0
SEQEND
  5
98
330
93
100
AcDbEntity
  8
5_ANYTOOL_HALF_MILL_9MM_IN
  0
POLYLINE
  5
99
330
1F
100
AcDbEntity
  8
5_ANYTOOL_HALF_MILL_9MM_IN
100
AcDb2dPolyline
 66
     1
 10
0.0
 20
0.0
 30
-0.0000000000053968
 70
     1
  0
VERTEX
  5
9A
330
99
100
AcDbEntity
  8
5_ANYTOOL_HALF_MILL_9MM_IN
100
AcDbVertex
100
AcDb2dVertex
 10
-174.5757331350078
 20
140.8973571512688
 30
-0.0000000000053968
 42
-0.9999999999998287
  0
VERTEX
  5
9B
330
99
100
AcDbEntity
  8
5_ANYTOOL_HALF_MILL_9MM_IN
100
AcDbVertex
100
AcDb2dVertex
 10
-217.075733135006
 20
140.8973571512761
 30
-0.0000000000053968
  0
VERTEX
  5
9C
330
99
100
AcDbEntity
  8
5_ANYTOOL_HALF_MILL_9MM_IN
100
AcDbVertex
100
AcDb2dVertex
 10
-217.0757331350178
 20
147.1473571512761
 30
-0.0000000000053968
  0
VERTEX
  5
9D
330
99
100
AcDbEntity
  8
5_ANYTOOL_HALF_MILL_9MM_IN
100
AcDbVertex
100
AcDb2dVertex
 10
-174.5757331350105
 20
147.1473571512688
 30
-0.0000000000053968
  0
SEQEND
  5
9E
330
99
100
AcDbEntity
  8
5_ANYTOOL_HALF_MILL_9MM_IN
  0
POLYLINE
  5
A0
330
1F
100
AcDbEntity
  8
3_ANYTOOL_CUTTHROUGH_INSID
100
AcDb2dPolyline
 66
     1
 10
0.0
 20
0.0
 30
0.0000000000005258
 70
     1
  0
VERTEX
  5
A1
330
A0
100
AcDbEntity
  8
3_ANYTOOL_CUTTHROUGH_INSID
100
AcDbVertex
100
AcDb2dVertex
 10
-115.9757331402743
 20
-94.85264284713048
 30
0.0000000000005258
  0
VERTEX
  5
A2
330
A0
100
AcDbEntity
  8
3_ANYTOOL_CUTTHROUGH_INSID
100
AcDbVertex
100
AcDb2dVertex
 10
-115.9757331402825
 20
-88.85264284713048
 30
0.0000000000005258
  0
VERTEX
  5
A3
330
A0
100
AcDbEntity
  8
3_ANYTOOL_CUTTHROUGH_INSID
100
AcDbVertex
100
AcDb2dVertex
 10
-128.4757331402834
 20
-88.85264284714503
 30
0.0000000000005258
  0
VERTEX
  5
A4
330
A0
100
AcDbEntity
  8
3_ANYTOOL_CUTTHROUGH_INSID
100
AcDbVertex
100
AcDb2dVertex
 10
-128.4757331402934
 20
-119.3526428471159
 30
0.0000000000005258
  0
VERTEX
  5
A5
330
A0
100
AcDbEntity
  8
3_ANYTOOL_CUTTHROUGH_INSID
100
AcDbVertex
100
AcDb2dVertex
 10
-115.9757331402989
 20
-119.3526428470941
 30
0.0000000000005258
  0
VERTEX
  5
A6
330
A0
100
AcDbEntity
  8
3_ANYTOOL_CUTTHROUGH_INSID
100
AcDbVertex
100
AcDb2dVertex
 10
-115.9757331402989
 20
-113.3526428471014
 30
0.0000000000005258
  0
VERTEX
  5
A7
330
A0
100
AcDbEntity
  8
3_ANYTOOL_CUTTHROUGH_INSID
100
AcDbVertex
100
AcDb2dVertex
 10
-65.47573312170243
 20
-113.3526428470213
 30
0.0000000000005258
  0
VERTEX
  5
A8
330
A0
100
AcDbEntity
  8
3_ANYTOOL_CUTTHROUGH_INSID
100
AcDbVertex
100
AcDb2dVertex
 10
-65.47573312170243
 20
-119.3526428470213
 30
0.0000000000005258
  0
VERTEX
  5
A9
330
A0
100
AcDbEntity
  8
3_ANYTOOL_CUTTHROUGH_INSID
100
AcDbVertex
100
AcDb2dVertex
 10
-52.9757331216997
 20
-119.3526428470068
 30
0.0000000000005258
  0
VERTEX
  5
AA
330
A0
100
AcDbEntity
  8
3_ANYTOOL_CUTTHROUGH_INSID
100
AcDbVertex
100
AcDb2dVertex
 10
-52.97573312170243
 20
-88.85264284705045
 30
0.0000000000005258
  0
VERTEX
  5
AB
330
A0
100
AcDbEntity
  8
3_ANYTOOL_CUTTHROUGH_INSID
100
AcDbVertex
100
AcDb2dVertex
 10
-65.47573312170425
 20
-88.85264284705772
 30
0.0000000000005258
  0
VERTEX
  5
AC
330
A0
100
AcDbEntity
  8
3_ANYTOOL_CUTTHROUGH_INSID
100
AcDbVertex
100
AcDb2dVertex
 10
-65.47573312167515
 20
-94.85264284705772
 30
0.0000000000005258
  0
SEQEND
  5
AD
330
A0
100
AcDbEntity
  8
3_ANYTOOL_CUTTHROUGH_INSID
  0
POLYLINE
  5
AE
330
1F
100
AcDbEntity
  8
3_ANYTOOL_CUTTHROUGH_INSID
100
AcDb2dPolyline
 66
     1
 10
0.0
 20
0.0
 30
-0.0000000000146336
 70
     1
  0
VERTEX
  5
AF
330
AE
100
AcDbEntity
  8
3_ANYTOOL_CUTTHROUGH_INSID
100
AcDbVertex
100
AcDb2dVertex
 10
-265.9757331402334
 20
-94.85264284666482
 30
-0.0000000000146336
  0
VERTEX
  5
B0
330
AE
100
AcDbEntity
  8
3_ANYTOOL_CUTTHROUGH_INSID
100
AcDbVertex
100
AcDb2dVertex
 10
-265.9757331402679
 20
-88.85264284666482
 30
-0.0000000000146336
  0
VERTEX
  5
B1
330
AE
100
AcDbEntity
  8
3_ANYTOOL_CUTTHROUGH_INSID
100
AcDbVertex
100
AcDb2dVertex
 10
-278.4757331402607
 20
-88.85264284667937
 30
-0.0000000000146336
  0
VERTEX
  5
B2
330
AE
100
AcDbEntity
  8
3_ANYTOOL_CUTTHROUGH_INSID
100
AcDbVertex
100
AcDb2dVertex
 10
-278.4757331402543
 20
-119.3526428466357
 30
-0.0000000000146336
  0
VERTEX
  5
B3
330
AE
100
AcDbEntity
  8
3_ANYTOOL_CUTTHROUGH_INSID
100
AcDbVertex
100
AcDb2dVertex
 10
-265.975733140257
 20
-119.3526428466357
 30
-0.0000000000146336
  0
VERTEX
  5
B4
330
AE
100
AcDbEntity
  8
3_ANYTOOL_CUTTHROUGH_INSID
100
AcDbVertex
100
AcDb2dVertex
 10
-265.975733140288
 20
-113.3526428466357
 30
-0.0000000000146336
  0
VERTEX
  5
B5
330
AE
100
AcDbEntity
  8
3_ANYTOOL_CUTTHROUGH_INSID
100
AcDbVertex
100
AcDb2dVertex
 10
-215.475733140278
 20
-113.352642846985
 30
-0.0000000000146336
  0
VERTEX
  5
B6
330
AE
100
AcDbEntity
  8
3_ANYTOOL_CUTTHROUGH_INSID
100
AcDbVertex
100
AcDb2dVertex
 10
-215.475733140278
 20
-119.352642846985
 30
-0.0000000000146336
  0
VERTEX
  5
B7
330
AE
100
AcDbEntity
  8
3_ANYTOOL_CUTTHROUGH_INSID
100
AcDbVertex
100
AcDb2dVertex
 10
-202.9757331402834
 20
-119.352642846985
 30
-0.0000000000146336
  0
VERTEX
  5
B8
330
AE
100
AcDbEntity
  8
3_ANYTOOL_CUTTHROUGH_INSID
100
AcDbVertex
100
AcDb2dVertex
 10
-202.975733140288
 20
-88.85264284701407
 30
-0.0000000000146336
  0
VERTEX
  5
B9
330
AE
100
AcDbEntity
  8
3_ANYTOOL_CUTTHROUGH_INSID
100
AcDbVertex
100
AcDb2dVertex
 10
-215.4757331402889
 20
-88.85264284701407
 30
-0.0000000000146336
  0
VERTEX
  5
BA
330
AE
100
AcDbEntity
  8
3_ANYTOOL_CUTTHROUGH_INSID
100
AcDbVertex
100
AcDb2dVertex
 10
-215.4757331402516
 20
-94.85264284701407
 30
-0.0000000000146336
  0
SEQEND
  5
BB
330
AE
100
AcDbEntity
  8
3_ANYTOOL_CUTTHROUGH_INSID
  0
POLYLINE
  5
BC
330
1F
100
AcDbEntity
  8
3_ANYTOOL_CUTTHROUGH_INSID
100
AcDb2dPolyline
 66
     1
 10
0.0
 20
0.0
 30
-0.000000000029786
 70
     1
  0
VERTEX
  5
BD
330
BC
100
AcDbEntity
  8
3_ANYTOOL_CUTTHROUGH_INSID
100
AcDbVertex
100
AcDb2dVertex
 10
-415.9757331402734
 20
-94.85264284649747
 30
-0.000000000029786
  0
VERTEX
  5
BE
330
BC
100
AcDbEntity
  8
3_ANYTOOL_CUTTHROUGH_INSID
100
AcDbVertex
100
AcDb2dVertex
 10
-415.9757331402834
 20
-88.85264284649747
 30
-0.000000000029786
  0
VERTEX
  5
BF
330
BC
100
AcDbEntity
  8
3_ANYTOOL_CUTTHROUGH_INSID
100
AcDbVertex
100
AcDb2dVertex
 10
-428.4757331402834
 20
-88.85264284651203
 30
-0.000000000029786
  0
VERTEX
  5
C0
330
BC
100
AcDbEntity
  8
3_ANYTOOL_CUTTHROUGH_INSID
100
AcDbVertex
100
AcDb2dVertex
 10
-428.4757331402925
 20
-119.3526428464829
 30
-0.000000000029786
  0
VERTEX
  5
C1
330
BC
100
AcDbEntity
  8
3_ANYTOOL_CUTTHROUGH_INSID
100
AcDbVertex
100
AcDb2dVertex
 10
-415.9757331402989
 20
-119.3526428464684
 30
-0.000000000029786
  0
VERTEX
  5
C2
330
BC
100
AcDbEntity
  8
3_ANYTOOL_CUTTHROUGH_INSID
100
AcDbVertex
100
AcDb2dVertex
 10
-415.9757331403025
 20
-113.3526428464684
 30
-0.000000000029786
  0
VERTEX
  5
C3
330
BC
100
AcDbEntity
  8
3_ANYTOOL_CUTTHROUGH_INSID
100
AcDbVertex
100
AcDb2dVertex
 10
-365.4757331402698
 20
-113.3526428465266
 30
-0.000000000029786
  0
VERTEX
  5
C4
330
BC
100
AcDbEntity
  8
3_ANYTOOL_CUTTHROUGH_INSID
100
AcDbVertex
100
AcDb2dVertex
 10
-365.4757331402698
 20
-119.3526428465266
 30
-0.000000000029786
  0
VERTEX
  5
C5
330
BC
100
AcDbEntity
  8
3_ANYTOOL_CUTTHROUGH_INSID
100
AcDbVertex
100
AcDb2dVertex
 10
-352.9757331402661
 20
-119.3526428465048
 30
-0.000000000029786
  0
VERTEX
  5
C6
330
BC
100
AcDbEntity
  8
3_ANYTOOL_CUTTHROUGH_INSID
100
AcDbVertex
100
AcDb2dVertex
 10
-352.9757331402761
 20
-88.85264284654113
 30
-0.000000000029786
  0
VERTEX
  5
C7
330
BC
100
AcDbEntity
  8
3_ANYTOOL_CUTTHROUGH_INSID
100
AcDbVertex
100
AcDb2dVertex
 10
-365.4757331402807
 20
-88.85264284655568
 30
-0.000000000029786
  0
VERTEX
  5
C8
330
BC
100
AcDbEntity
  8
3_ANYTOOL_CUTTHROUGH_INSID
100
AcDbVertex
100
AcDb2dVertex
 10
-365.4757331402398
 20
-94.85264284655568
 30
-0.000000000029786
  0
SEQEND
  5
C9
330
BC
100
AcDbEntity
  8
3_ANYTOOL_CUTTHROUGH_INSID
  0
POLYLINE
  5
CA
330
1F
100
AcDbEntity
  8
3_ANYTOOL_CUTTHROUGH_INSID
100
AcDb2dPolyline
 66
     1
 10
0.0
 20
0.0
 30
-0.0000000000497522
 70
     1
  0
VERTEX
  5
CB
330
CA
100
AcDbEntity
  8
3_ANYTOOL_CUTTHROUGH_INSID
100
AcDbVertex
100
AcDb2dVertex
 10
-566.4757331628789
 20
6.727294987162168
 30
-0.0000000000497522
  0
VERTEX
  5
CC
330
CA
100
AcDbEntity
  8
3_ANYTOOL_CUTTHROUGH_INSID
100
AcDbVertex
100
AcDb2dVertex
 10
-566.4757331628798
 20
19.22729498716217
 30
-0.0000000000497522
  0
VERTEX
  5
CD
330
CA
100
AcDbEntity
  8
3_ANYTOOL_CUTTHROUGH_INSID
100
AcDbVertex
100
AcDb2dVertex
 10
-572.4757331628853
 20
19.22729498714762
 30
-0.0000000000497522
  0
VERTEX
  5
CE
330
CA
100
AcDbEntity
  8
3_ANYTOOL_CUTTHROUGH_INSID
100
AcDbVertex
100
AcDb2dVertex
 10
-572.4757331628834
 20
64.72729498716217
 30
-0.0000000000497522
  0
VERTEX
  5
CF
330
CA
100
AcDbEntity
  8
3_ANYTOOL_CUTTHROUGH_INSID
100
AcDbVertex
100
AcDb2dVertex
 10
-566.4757331628816
 20
64.72729498716217
 30
-0.0000000000497522
  0
VERTEX
  5
D0
330
CA
100
AcDbEntity
  8
3_ANYTOOL_CUTTHROUGH_INSID
100
AcDbVertex
100
AcDb2dVertex
 10
-566.4757331628825
 20
77.22729498719127
 30
-0.0000000000497522
  0
VERTEX
  5
D1
330
CA
100
AcDbEntity
  8
3_ANYTOOL_CUTTHROUGH_INSID
100
AcDbVertex
100
AcDb2dVertex
 10
-596.9757331628953
 20
77.22729498719127
 30
-0.0000000000497522
  0
VERTEX
  5
D2
330
CA
100
AcDbEntity
  8
3_ANYTOOL_CUTTHROUGH_INSID
100
AcDbVertex
100
AcDb2dVertex
 10
-596.9757331628962
 20
64.72729498716217
 30
-0.0000000000497522
  0
VERTEX
  5
D3
330
CA
100
AcDbEntity
  8
3_ANYTOOL_CUTTHROUGH_INSID
100
AcDbVertex
100
AcDb2dVertex
 10
-590.9757331628944
 20
64.72729498716217
 30
-0.0000000000497522
  0
VERTEX
  5
D4
330
CA
100
AcDbEntity
  8
3_ANYTOOL_CUTTHROUGH_INSID
100
AcDbVertex
100
AcDb2dVertex
 10
-590.9757331628925
 20
19.22729498716217
 30
-0.0000000000497522
  0
VERTEX
  5
D5
330
CA
100
AcDbEntity
  8
3_ANYTOOL_CUTTHROUGH_INSID
100
AcDbVertex
100
AcDb2dVertex
 10
-596.9757331628916
 20
19.22729498716217
 30
-0.0000000000497522
  0
VERTEX
  5
D6
330
CA
100
AcDbEntity
  8
3_ANYTOOL_CUTTHROUGH_INSID
100
AcDbVertex
100
AcDb2dVertex
 10
-596.9757331628916
 20
6.727294987162168
 30
-0.0000000000497522
  0
SEQEND
  5
D7
330
CA
100
AcDbEntity
  8
3_ANYTOOL_CUTTHROUGH_INSID
  0
POLYLINE
  5
D8
330
1F
100
AcDbEntity
  8
3_ANYTOOL_CUTTHROUGH_INSID
100
AcDb2dPolyline
 66
     1
 10
0.0
 20
0.0
 30
0.0000000000187157
 70
     1
  0
VERTEX
  5
D9
330
D8
100
AcDbEntity
  8
3_ANYTOOL_CUTTHROUGH_INSID
100
AcDbVertex
100
AcDb2dVertex
 10
34.02426693534562
 20
-94.8526428470359
 30
0.0000000000187157
  0
VERTEX
  5
DA
330
D8
100
AcDbEntity
  8
3_ANYTOOL_CUTTHROUGH_INSID
100
AcDbVertex
100
AcDb2dVertex
 10
34.02426693534562
 20
-88.8526428470359
 30
0.0000000000187157
  0
VERTEX
  5
DB
330
D8
100
AcDbEntity
  8
3_ANYTOOL_CUTTHROUGH_INSID
100
AcDbVertex
100
AcDb2dVertex
 10
21.5242669353438
 20
-88.852642847065
 30
0.0000000000187157
  0
VERTEX
  5
DC
330
D8
100
AcDbEntity
  8
3_ANYTOOL_CUTTHROUGH_INSID
100
AcDbVertex
100
AcDb2dVertex
 10
21.52426693531925
 20
-119.3526428470141
 30
0.0000000000187157
  0
VERTEX
  5
DD
330
D8
100
AcDbEntity
  8
3_ANYTOOL_CUTTHROUGH_INSID
100
AcDbVertex
100
AcDb2dVertex
 10
34.02426693531834
 20
-119.3526428469995
 30
0.0000000000187157
  0
VERTEX
  5
DE
330
D8
100
AcDbEntity
  8
3_ANYTOOL_CUTTHROUGH_INSID
100
AcDbVertex
100
AcDb2dVertex
 10
34.02426693531743
 20
-113.3526428469995
 30
0.0000000000187157
  0
VERTEX
  5
DF
330
D8
100
AcDbEntity
  8
3_ANYTOOL_CUTTHROUGH_INSID
100
AcDbVertex
100
AcDb2dVertex
 10
84.52426693535836
 20
-113.352642847065
 30
0.0000000000187157
  0
VERTEX
  5
E0
330
D8
100
AcDbEntity
  8
3_ANYTOOL_CUTTHROUGH_INSID
100
AcDbVertex
100
AcDb2dVertex
 10
84.52426693535836
 20
-119.352642847065
 30
0.0000000000187157
  0
VERTEX
  5
E1
330
D8
100
AcDbEntity
  8
3_ANYTOOL_CUTTHROUGH_INSID
100
AcDbVertex
100
AcDb2dVertex
 10
97.02426693535381
 20
-119.3526428470504
 30
0.0000000000187157
  0
VERTEX
  5
E2
330
D8
100
AcDbEntity
  8
3_ANYTOOL_CUTTHROUGH_INSID
100
AcDbVertex
100
AcDb2dVertex
 10
97.02426693534835
 20
-88.8526428470941
 30
0.0000000000187157
  0
VERTEX
  5
E3
330
D8
100
AcDbEntity
  8
3_ANYTOOL_CUTTHROUGH_INSID
100
AcDbVertex
100
AcDb2dVertex
 10
84.52426693535199
 20
-88.85264284710138
 30
0.0000000000187157
  0
VERTEX
  5
E4
330
D8
100
AcDbEntity
  8
3_ANYTOOL_CUTTHROUGH_INSID
100
AcDbVertex
100
AcDb2dVertex
 10
84.524266935382
 20
-94.85264284710138
 30
0.0000000000187157
  0
SEQEND
  5
E5
330
D8
100
AcDbEntity
  8
3_ANYTOOL_CUTTHROUGH_INSID
  0
POLYLINE
  5
E6
330
1F
100
AcDbEntity
  8
3_ANYTOOL_CUTTHROUGH_INSID
100
AcDb2dPolyline
 66
     1
 10
0.0
 20
0.0
 30
-0.0000000000074536
 70
     1
  0
VERTEX
  5
E7
330
E6
100
AcDbEntity
  8
3_ANYTOOL_CUTTHROUGH_INSID
100
AcDbVertex
100
AcDb2dVertex
 10
384.5242670494126
 20
-94.85264284710865
 30
-0.0000000000074536
  0
VERTEX
  5
E8
330
E6
100
AcDbEntity
  8
3_ANYTOOL_CUTTHROUGH_INSID
100
AcDbVertex
100
AcDb2dVertex
 10
334.0242670493781
 20
-94.85264284715231
 30
-0.0000000000074536
  0
VERTEX
  5
E9
330
E6
100
AcDbEntity
  8
3_ANYTOOL_CUTTHROUGH_INSID
100
AcDbVertex
100
AcDb2dVertex
 10
334.0242670494072
 20
-88.85264284715231
 30
-0.0000000000074536
  0
VERTEX
  5
EA
330
E6
100
AcDbEntity
  8
3_ANYTOOL_CUTTHROUGH_INSID
100
AcDbVertex
100
AcDb2dVertex
 10
321.5242670494017
 20
-88.85264284713776
 30
-0.0000000000074536
  0
VERTEX
  5
EB
330
E6
100
AcDbEntity
  8
3_ANYTOOL_CUTTHROUGH_INSID
100
AcDbVertex
100
AcDb2dVertex
 10
321.524267049399
 20
-119.3526428470941
 30
-0.0000000000074536
  0
VERTEX
  5
EC
330
E6
100
AcDbEntity
  8
3_ANYTOOL_CUTTHROUGH_INSID
100
AcDbVertex
100
AcDb2dVertex
 10
334.0242670494072
 20
-119.3526428471087
 30
-0.0000000000074536
  0
VERTEX
  5
ED
330
E6
100
AcDbEntity
  8
3_ANYTOOL_CUTTHROUGH_INSID
100
AcDbVertex
100
AcDb2dVertex
 10
334.0242670494072
 20
-113.3526428471159
 30
-0.0000000000074536
  0
VERTEX
  5
EE
330
E6
100
AcDbEntity
  8
3_ANYTOOL_CUTTHROUGH_INSID
100
AcDbVertex
100
AcDb2dVertex
 10
384.5242670494417
 20
-113.3526428470723
 30
-0.0000000000074536
  0
VERTEX
  5
EF
330
E6
100
AcDbEntity
  8
3_ANYTOOL_CUTTHROUGH_INSID
100
AcDbVertex
100
AcDb2dVertex
 10
384.5242670494426
 20
-119.3526428470723
 30
-0.0000000000074536
  0
VERTEX
  5
F0
330
E6
100
AcDbEntity
  8
3_ANYTOOL_CUTTHROUGH_INSID
100
AcDbVertex
100
AcDb2dVertex
 10
397.0242670494436
 20
-119.3526428470868
 30
-0.0000000000074536
  0
VERTEX
  5
F1
330
E6
100
AcDbEntity
  8
3_ANYTOOL_CUTTHROUGH_INSID
100
AcDbVertex
100
AcDb2dVertex
 10
397.0242670494154
 20
-88.85264284713048
 30
-0.0000000000074536
  0
VERTEX
  5
F2
330
E6
100
AcDbEntity
  8
3_ANYTOOL_CUTTHROUGH_INSID
100
AcDbVertex
100
AcDb2dVertex
 10
384.5242670494117
 20
-88.85264284710865
 30
-0.0000000000074536
  0
SEQEND
  5
F3
330
E6
100
AcDbEntity
  8
3_ANYTOOL_CUTTHROUGH_INSID
  0
POLYLINE
  5
F4
330
1F
100
AcDbEntity
  8
3_ANYTOOL_CUTTHROUGH_INSID
100
AcDb2dPolyline
 66
     1
 10
0.0
 20
0.0
 30
0.0000000000075353
 70
     1
  0
VERTEX
  5
F5
330
F4
100
AcDbEntity
  8
3_ANYTOOL_CUTTHROUGH_INSID
100
AcDbVertex
100
AcDb2dVertex
 10
184.0242669923891
 20
-94.85264284572622
 30
0.0000000000075353
  0
VERTEX
  5
F6
330
F4
100
AcDbEntity
  8
3_ANYTOOL_CUTTHROUGH_INSID
100
AcDbVertex
100
AcDb2dVertex
 10
184.0242669923891
 20
-88.85264284572622
 30
0.0000000000075353
  0
VERTEX
  5
F7
330
F4
100
AcDbEntity
  8
3_ANYTOOL_CUTTHROUGH_INSID
100
AcDbVertex
100
AcDb2dVertex
 10
171.5242669923864
 20
-88.85264284574805
 30
0.0000000000075353
  0
VERTEX
  5
F8
330
F4
100
AcDbEntity
  8
3_ANYTOOL_CUTTHROUGH_INSID
100
AcDbVertex
100
AcDb2dVertex
 10
171.5242669923564
 20
-119.3526428457044
 30
0.0000000000075353
  0
VERTEX
  5
F9
330
F4
100
AcDbEntity
  8
3_ANYTOOL_CUTTHROUGH_INSID
100
AcDbVertex
100
AcDb2dVertex
 10
184.0242669923646
 20
-119.3526428456898
 30
0.0000000000075353
  0
VERTEX
  5
FA
330
F4
100
AcDbEntity
  8
3_ANYTOOL_CUTTHROUGH_INSID
100
AcDbVertex
100
AcDb2dVertex
 10
184.0242669923646
 20
-113.3526428456898
 30
0.0000000000075353
  0
VERTEX
  5
FB
330
F4
100
AcDbEntity
  8
3_ANYTOOL_CUTTHROUGH_INSID
100
AcDbVertex
100
AcDb2dVertex
 10
234.5242669924
 20
-113.3526428457553
 30
0.0000000000075353
  0
VERTEX
  5
FC
330
F4
100
AcDbEntity
  8
3_ANYTOOL_CUTTHROUGH_INSID
100
AcDbVertex
100
AcDb2dVertex
 10
234.5242669924
 20
-119.3526428457553
 30
0.0000000000075353
  0
VERTEX
  5
FD
330
F4
100
AcDbEntity
  8
3_ANYTOOL_CUTTHROUGH_INSID
100
AcDbVertex
100
AcDb2dVertex
 10
247.0242669923973
 20
-119.3526428457335
 30
0.0000000000075353
  0
VERTEX
  5
FE
330
F4
100
AcDbEntity
  8
3_ANYTOOL_CUTTHROUGH_INSID
100
AcDbVertex
100
AcDb2dVertex
 10
247.0242669923982
 20
-88.85264284578443
 30
0.0000000000075353
  0
VERTEX
  5
FF
330
F4
100
AcDbEntity
  8
3_ANYTOOL_CUTTHROUGH_INSID
100
AcDbVertex
100
AcDb2dVertex
 10
234.5242669923982
 20
-88.8526428457917
 30
0.0000000000075353
  0
VERTEX
  5
100
330
F4
100
AcDbEntity
  8
3_ANYTOOL_CUTTHROUGH_INSID
100
AcDbVertex
100
AcDb2dVertex
 10
234.5242669924282
 20
-94.8526428457917
 30
0.0000000000075353
  0
SEQEND
  5
101
330
F4
100
AcDbEntity
  8
3_ANYTOOL_CUTTHROUGH_INSID
  0
POLYLINE
  5
102
330
1F
100
AcDbEntity
  8
3_ANYTOOL_CUTTHROUGH_INSID
100
AcDb2dPolyline
 66
     1
 10
0.0
 20
0.0
 30
-0.0000000000148397
 70
     1
  0
VERTEX
  5
103
330
102
100
AcDbEntity
  8
3_ANYTOOL_CUTTHROUGH_INSID
100
AcDbVertex
100
AcDb2dVertex
 10
484.0242669923973
 20
-88.85264284639561
 30
-0.0000000000148397
  0
VERTEX
  5
104
330
102
100
AcDbEntity
  8
3_ANYTOOL_CUTTHROUGH_INSID
100
AcDbVertex
100
AcDb2dVertex
 10
484.0242669923982
 20
-94.85264284639561
 30
-0.0000000000148397
  0
VERTEX
  5
105
330
102
100
AcDbEntity
  8
3_ANYTOOL_CUTTHROUGH_INSID
100
AcDbVertex
100
AcDb2dVertex
 10
534.5242667368393
 20
-94.85264284641744
 30
-0.0000000000148397
  0
VERTEX
  5
106
330
102
100
AcDbEntity
  8
3_ANYTOOL_CUTTHROUGH_INSID
100
AcDbVertex
100
AcDb2dVertex
 10
534.5242667368393
 20
-88.85264284642471
 30
-0.0000000000148397
  0
VERTEX
  5
107
330
102
100
AcDbEntity
  8
3_ANYTOOL_CUTTHROUGH_INSID
100
AcDbVertex
100
AcDb2dVertex
 10
547.0242667368348
 20
-88.85264284644654
 30
-0.0000000000148397
  0
VERTEX
  5
108
330
102
100
AcDbEntity
  8
3_ANYTOOL_CUTTHROUGH_INSID
100
AcDbVertex
100
AcDb2dVertex
 10
547.0242667368648
 20
-119.3526428464029
 30
-0.0000000000148397
  0
VERTEX
  5
109
330
102
100
AcDbEntity
  8
3_ANYTOOL_CUTTHROUGH_INSID
100
AcDbVertex
100
AcDb2dVertex
 10
534.524266736872
 20
-119.3526428463811
 30
-0.0000000000148397
  0
VERTEX
  5
10A
330
102
100
AcDbEntity
  8
3_ANYTOOL_CUTTHROUGH_INSID
100
AcDbVertex
100
AcDb2dVertex
 10
534.5242667368684
 20
-113.3526428463811
 30
-0.0000000000148397
  0
VERTEX
  5
10B
330
102
100
AcDbEntity
  8
3_ANYTOOL_CUTTHROUGH_INSID
100
AcDbVertex
100
AcDb2dVertex
 10
484.02426699237
 20
-113.3526428463592
 30
-0.0000000000148397
  0
VERTEX
  5
10C
330
102
100
AcDbEntity
  8
3_ANYTOOL_CUTTHROUGH_INSID
100
AcDbVertex
100
AcDb2dVertex
 10
484.02426699237
 20
-119.352642846352
 30
-0.0000000000148397
  0
VERTEX
  5
10D
330
102
100
AcDbEntity
  8
3_ANYTOOL_CUTTHROUGH_INSID
100
AcDbVertex
100
AcDb2dVertex
 10
471.5242669923628
 20
-119.3526428463738
 30
-0.0000000000148397
  0
VERTEX
  5
10E
330
102
100
AcDbEntity
  8
3_ANYTOOL_CUTTHROUGH_INSID
100
AcDbVertex
100
AcDb2dVertex
 10
471.5242669923955
 20
-88.85264284641744
 30
-0.0000000000148397
  0
SEQEND
  5
10F
330
102
100
AcDbEntity
  8
3_ANYTOOL_CUTTHROUGH_INSID
  0
POLYLINE
  5
110
330
1F
100
AcDbEntity
  8
3_ANYTOOL_CUTTHROUGH_INSID
100
AcDb2dPolyline
 66
     1
 10
0.0
 20
0.0
 30
0.0000000000161045
 70
     1
  0
VERTEX
  5
111
330
110
100
AcDbEntity
  8
3_ANYTOOL_CUTTHROUGH_INSID
100
AcDbVertex
100
AcDb2dVertex
 10
634.0242666798158
 20
-94.85264284715959
 30
0.0000000000161045
  0
VERTEX
  5
112
330
110
100
AcDbEntity
  8
3_ANYTOOL_CUTTHROUGH_INSID
100
AcDbVertex
100
AcDb2dVertex
 10
684.524266679854
 20
-94.8526428472178
 30
0.0000000000161045
  0
VERTEX
  5
113
330
110
100
AcDbEntity
  8
3_ANYTOOL_CUTTHROUGH_INSID
100
AcDbVertex
100
AcDb2dVertex
 10
684.5242666798249
 20
-88.8526428472178
 30
0.0000000000161045
  0
VERTEX
  5
114
330
110
100
AcDbEntity
  8
3_ANYTOOL_CUTTHROUGH_INSID
100
AcDbVertex
100
AcDb2dVertex
 10
697.0242666798258
 20
-88.8526428472178
 30
0.0000000000161045
  0
VERTEX
  5
115
330
110
100
AcDbEntity
  8
3_ANYTOOL_CUTTHROUGH_INSID
100
AcDbVertex
100
AcDb2dVertex
 10
697.0242666798222
 20
-119.3526428471741
 30
0.0000000000161045
  0
VERTEX
  5
116
330
110
100
AcDbEntity
  8
3_ANYTOOL_CUTTHROUGH_INSID
100
AcDbVertex
100
AcDb2dVertex
 10
684.5242666798295
 20
-119.3526428471814
 30
0.0000000000161045
  0
VERTEX
  5
117
330
110
100
AcDbEntity
  8
3_ANYTOOL_CUTTHROUGH_INSID
100
AcDbVertex
100
AcDb2dVertex
 10
684.5242666798295
 20
-113.3526428471814
 30
0.0000000000161045
  0
VERTEX
  5
118
330
110
100
AcDbEntity
  8
3_ANYTOOL_CUTTHROUGH_INSID
100
AcDbVertex
100
AcDb2dVertex
 10
634.024266679794
 20
-113.3526428471232
 30
0.0000000000161045
  0
VERTEX
  5
119
330
110
100
AcDbEntity
  8
3_ANYTOOL_CUTTHROUGH_INSID
100
AcDbVertex
100
AcDb2dVertex
 10
634.024266679794
 20
-119.3526428471232
 30
0.0000000000161045
  0
VERTEX
  5
11A
330
110
100
AcDbEntity
  8
3_ANYTOOL_CUTTHROUGH_INSID
100
AcDbVertex
100
AcDb2dVertex
 10
621.5242666797849
 20
-119.3526428471378
 30
0.0000000000161045
  0
VERTEX
  5
11B
330
110
100
AcDbEntity
  8
3_ANYTOOL_CUTTHROUGH_INSID
100
AcDbVertex
100
AcDb2dVertex
 10
621.5242666798149
 20
-88.85264284718141
 30
0.0000000000161045
  0
VERTEX
  5
11C
330
110
100
AcDbEntity
  8
3_ANYTOOL_CUTTHROUGH_INSID
100
AcDbVertex
100
AcDb2dVertex
 10
634.0242666798158
 20
-88.85264284715959
 30
0.0000000000161045
  0
SEQEND
  5
11D
330
110
100
AcDbEntity
  8
3_ANYTOOL_CUTTHROUGH_INSID
  0
POLYLINE
  5
11F
330
1F
100
AcDbEntity
  8
4_ANYTOOL_CUTTHROUGH_OUTSI
100
AcDb2dPolyline
 66
     1
 10
0.0
 20
0.0
 30
0.0
 70
     1
  0
VERTEX
  5
120
330
11F
100
AcDbEntity
  8
4_ANYTOOL_CUTTHROUGH_OUTSI
100
AcDbVertex
100
AcDb2dVertex
 10
-121.3801703864974
 20
196.6473571512106
 30
0.0
  0
VERTEX
  5
121
330
11F
100
AcDbEntity
  8
4_ANYTOOL_CUTTHROUGH_OUTSI
100
AcDbVertex
100
AcDb2dVertex
 10
-108.9757331349801
 20
196.647357151196
 30
0.0
  0
VERTEX
  5
122
330
11F
100
AcDbEntity
  8
4_ANYTOOL_CUTTHROUGH_OUTSI
100
AcDbVertex
100
AcDb2dVertex
 10
-108.9757331349756
 20
119.147357151196
 30
0.0
  0
VERTEX
  5
123
330
11F
100
AcDbEntity
  8
4_ANYTOOL_CUTTHROUGH_OUTSI
100
AcDbVertex
100
AcDb2dVertex
 10
-114.7257331349865
 20
119.147357151196
 30
0.0
 42
0.4142135623869526
  0
VERTEX
  5
124
330
11F
100
AcDbEntity
  8
4_ANYTOOL_CUTTHROUGH_OUTSI
100
AcDbVertex
100
AcDb2dVertex
 10
-114.9757331349838
 20
118.897357151196
 30
0.0
  0
VERTEX
  5
125
330
11F
100
AcDbEntity
  8
4_ANYTOOL_CUTTHROUGH_OUTSI
100
AcDbVertex
100
AcDb2dVertex
 10
-114.9757331349801
 20
106.897357151196
 30
0.0
 42
0.41421353758121
  0
VERTEX
  5
126
330
11F
100
AcDbEntity
  8
4_ANYTOOL_CUTTHROUGH_OUTSI
100
AcDbVertex
100
AcDb2dVertex
 10
-114.7257331561132
 20
106.647357151197
 30
0.0
  0
VERTEX
  5
127
330
11F
100
AcDbEntity
  8
4_ANYTOOL_CUTTHROUGH_OUTSI
100
AcDbVertex
100
AcDb2dVertex
 10
-66.72573315680165
 20
106.6473530937146
 30
0.0
 42
0.4142135871010517
  0
VERTEX
  5
128
330
11F
100
AcDbEntity
  8
4_ANYTOOL_CUTTHROUGH_OUTSI
100
AcDbVertex
100
AcDb2dVertex
 10
-66.4757331356659
 20
106.8973530937146
 30
0.0
  0
VERTEX
  5
129
330
11F
100
AcDbEntity
  8
4_ANYTOOL_CUTTHROUGH_OUTSI
100
AcDbVertex
100
AcDb2dVertex
 10
-66.47573313569865
 20
118.8973530937219
 30
0.0
 42
0.4142135623762688
  0
VERTEX
  5
12A
330
11F
100
AcDbEntity
  8
4_ANYTOOL_CUTTHROUGH_OUTSI
100
AcDbVertex
100
AcDb2dVertex
 10
-66.72573313569956
 20
119.1473530937201
 30
0.0
  0
VERTEX
  5
12B
330
11F
100
AcDbEntity
  8
4_ANYTOOL_CUTTHROUGH_OUTSI
100
AcDbVertex
100
AcDb2dVertex
 10
-72.4757331357032
 20
119.1473530937074
 30
0.0
  0
VERTEX
  5
12C
330
11F
100
AcDbEntity
  8
4_ANYTOOL_CUTTHROUGH_OUTSI
100
AcDbVertex
100
AcDb2dVertex
 10
-72.47573313473458
 20
196.6473571513197
 30
0.0
  0
VERTEX
  5
12D
330
11F
100
AcDbEntity
  8
4_ANYTOOL_CUTTHROUGH_OUTSI
100
AcDbVertex
100
AcDb2dVertex
 10
-60.07129588321277
 20
196.647357151327
 30
0.0
 42
0.3178372452004364
  0
VERTEX
  5
12E
330
11F
100
AcDbEntity
  8
4_ANYTOOL_CUTTHROUGH_OUTSI
100
AcDbVertex
100
AcDb2dVertex
 10
-54.17873937332492
 20
200.8140238179976
 30
0.0
 42
-0.7071067811846359
  0
VERTEX
  5
12F
330
11F
100
AcDbEntity
  8
4_ANYTOOL_CUTTHROUGH_OUTSI
100
AcDbVertex
100
AcDb2dVertex
 10
-32.02272689613983
 20
200.8140238179985
 30
0.0
 42
0.3178372451973481
  0
VERTEX
  5
130
330
11F
100
AcDbEntity
  8
4_ANYTOOL_CUTTHROUGH_OUTSI
100
AcDbVertex
100
AcDb2dVertex
 10
-26.13017038625457
 20
196.647357151342
 30
0.0
  0
VERTEX
  5
131
330
11F
100
AcDbEntity
  8
4_ANYTOOL_CUTTHROUGH_OUTSI
100
AcDbVertex
100
AcDb2dVertex
 10
-13.73117048816493
 20
196.6473571513634
 30
0.0
  0
VERTEX
  5
132
330
11F
100
AcDbEntity
  8
4_ANYTOOL_CUTTHROUGH_OUTSI
100
AcDbVertex
100
AcDb2dVertex
 10
-13.96616449711768
 20
195.2524869510404
 30
0.0
  0
VERTEX
  5
133
330
11F
100
AcDbEntity
  8
4_ANYTOOL_CUTTHROUGH_OUTSI
100
AcDbVertex
100
AcDb2dVertex
 10
-30.86169772378253
 20
146.9799447575497
 30
0.0
  0
VERTEX
  5
134
330
11F
100
AcDbEntity
  8
4_ANYTOOL_CUTTHROUGH_OUTSI
100
AcDbVertex
100
AcDb2dVertex
 10
-30.87573313469113
 20
146.8973571513707
 30
0.0
 42
0.4142135623757544
  0
VERTEX
  5
135
330
11F
100
AcDbEntity
  8
4_ANYTOOL_CUTTHROUGH_OUTSI
100
AcDbVertex
100
AcDb2dVertex
 10
-24.62573313467419
 20
140.6473571513679
 30
0.0
  0
VERTEX
  5
136
330
11F
100
AcDbEntity
  8
4_ANYTOOL_CUTTHROUGH_OUTSI
100
AcDbVertex
100
AcDb2dVertex
 10
53.37426686528943
 20
140.6473571513488
 30
0.0
 42
0.4142135623726313
  0
VERTEX
  5
137
330
11F
100
AcDbEntity
  8
4_ANYTOOL_CUTTHROUGH_OUTSI
100
AcDbVertex
100
AcDb2dVertex
 10
59.62426686532308
 20
146.8973571513634
 30
0.0
  0
VERTEX
  5
138
330
11F
100
AcDbEntity
  8
4_ANYTOOL_CUTTHROUGH_OUTSI
100
AcDbVertex
100
AcDb2dVertex
 10
59.61023145440875
 20
146.9799447575418
 30
0.0
  0
VERTEX
  5
139
330
11F
100
AcDbEntity
  8
4_ANYTOOL_CUTTHROUGH_OUTSI
100
AcDbVertex
100
AcDb2dVertex
 10
42.71111845997075
 20
195.2635519304167
 30
0.0
  0
VERTEX
  5
13A
330
11F
100
AcDbEntity
  8
4_ANYTOOL_CUTTHROUGH_OUTSI
100
AcDbVertex
100
AcDb2dVertex
 10
42.47970421875802
 20
196.6473571513467
 30
0.0
  0
VERTEX
  5
13B
330
11F
100
AcDbEntity
  8
4_ANYTOOL_CUTTHROUGH_OUTSI
100
AcDbVertex
100
AcDb2dVertex
 10
81.57426686494728
 20
196.6473571512906
 30
0.0
  0
VERTEX
  5
13C
330
11F
100
AcDbEntity
  8
4_ANYTOOL_CUTTHROUGH_OUTSI
100
AcDbVertex
100
AcDb2dVertex
 10
81.57426686494819
 20
172.8973571512834
 30
0.0
 42
0.4142135623752141
  0
VERTEX
  5
13D
330
11F
100
AcDbEntity
  8
4_ANYTOOL_CUTTHROUGH_OUTSI
100
AcDbVertex
100
AcDb2dVertex
 10
81.82426686494819
 20
172.6473571512852
 30
0.0
  0
VERTEX
  5
13E
330
11F
100
AcDbEntity
  8
4_ANYTOOL_CUTTHROUGH_OUTSI
100
AcDbVertex
100
AcDb2dVertex
 10
93.82426686494819
 20
172.6473571512834
 30
0.0
 42
0.4142135623720284
  0
VERTEX
  5
13F
330
11F
100
AcDbEntity
  8
4_ANYTOOL_CUTTHROUGH_OUTSI
100
AcDbVertex
100
AcDb2dVertex
 10
94.07426686494728
 20
172.8973571512834
 30
0.0
  0
VERTEX
  5
140
330
11F
100
AcDbEntity
  8
4_ANYTOOL_CUTTHROUGH_OUTSI
100
AcDbVertex
100
AcDb2dVertex
 10
94.07426686494819
 20
178.6473571512834
 30
0.0
  0
VERTEX
  5
141
330
11F
100
AcDbEntity
  8
4_ANYTOOL_CUTTHROUGH_OUTSI
100
AcDbVertex
100
AcDb2dVertex
 10
129.5742668649555
 20
178.6473571512761
 30
0.0
  0
VERTEX
  5
142
330
11F
100
AcDbEntity
  8
4_ANYTOOL_CUTTHROUGH_OUTSI
100
AcDbVertex
100
AcDb2dVertex
 10
129.5742668649518
 20
172.8973571512761
 30
0.0
 42
0.4142135623869415
  0
VERTEX
  5
143
330
11F
100
AcDbEntity
  8
4_ANYTOOL_CUTTHROUGH_OUTSI
100
AcDbVertex
100
AcDb2dVertex
 10
129.8242668649518
 20
172.6473571512734
 30
0.0
  0
VERTEX
  5
144
330
11F
100
AcDbEntity
  8
4_ANYTOOL_CUTTHROUGH_OUTSI
100
AcDbVertex
100
AcDb2dVertex
 10
141.8242668649582
 20
172.6473571512761
 30
0.0
 42
0.4142135623763194
  0
VERTEX
  5
145
330
11F
100
AcDbEntity
  8
4_ANYTOOL_CUTTHROUGH_OUTSI
100
AcDbVertex
100
AcDb2dVertex
 10
142.0742668649609
 20
172.8973571512761
 30
0.0
  0
VERTEX
  5
146
330
11F
100
AcDbEntity
  8
4_ANYTOOL_CUTTHROUGH_OUTSI
100
AcDbVertex
100
AcDb2dVertex
 10
142.0742668649564
 20
196.6473571512688
 30
0.0
  0
VERTEX
  5
147
330
11F
100
AcDbEntity
  8
4_ANYTOOL_CUTTHROUGH_OUTSI
100
AcDbVertex
100
AcDb2dVertex
 10
181.1688295111335
 20
196.6473571512179
 30
0.0
  0
VERTEX
  5
148
330
11F
100
AcDbEntity
  8
4_ANYTOOL_CUTTHROUGH_OUTSI
100
AcDbVertex
100
AcDb2dVertex
 10
180.9338355021863
 20
195.2524869508919
 30
0.0
  0
VERTEX
  5
149
330
11F
100
AcDbEntity
  8
4_ANYTOOL_CUTTHROUGH_OUTSI
100
AcDbVertex
100
AcDb2dVertex
 10
164.0383022755123
 20
146.9799447574042
 30
0.0
  0
VERTEX
  5
14A
330
11F
100
AcDbEntity
  8
4_ANYTOOL_CUTTHROUGH_OUTSI
100
AcDbVertex
100
AcDb2dVertex
 10
164.0242668646017
 20
146.8973571512252
 30
0.0
 42
0.4142135623755785
  0
VERTEX
  5
14B
330
11F
100
AcDbEntity
  8
4_ANYTOOL_CUTTHROUGH_OUTSI
100
AcDbVertex
100
AcDb2dVertex
 10
170.2742668646206
 20
140.6473571512188
 30
0.0
  0
VERTEX
  5
14C
330
11F
100
AcDbEntity
  8
4_ANYTOOL_CUTTHROUGH_OUTSI
100
AcDbVertex
100
AcDb2dVertex
 10
248.2742668652945
 20
140.6473571512106
 30
0.0
 42
0.4142135623743743
  0
VERTEX
  5
14D
330
11F
100
AcDbEntity
  8
4_ANYTOOL_CUTTHROUGH_OUTSI
100
AcDbVertex
100
AcDb2dVertex
 10
254.5242668653218
 20
146.8973571512106
 30
0.0
  0
VERTEX
  5
14E
330
11F
100
AcDbEntity
  8
4_ANYTOOL_CUTTHROUGH_OUTSI
100
AcDbVertex
100
AcDb2dVertex
 10
254.5102314544161
 20
146.9799447573901
 30
0.0
  0
VERTEX
  5
14F
330
11F
100
AcDbEntity
  8
4_ANYTOOL_CUTTHROUGH_OUTSI
100
AcDbVertex
100
AcDb2dVertex
 10
237.6111184599886
 20
195.2635519302712
 30
0.0
  0
VERTEX
  5
150
330
11F
100
AcDbEntity
  8
4_ANYTOOL_CUTTHROUGH_OUTSI
100
AcDbVertex
100
AcDb2dVertex
 10
237.3797042187722
 20
196.6473571512221
 30
0.0
  0
VERTEX
  5
151
330
11F
100
AcDbEntity
  8
4_ANYTOOL_CUTTHROUGH_OUTSI
100
AcDbVertex
100
AcDb2dVertex
 10
276.4742668649606
 20
196.6473571512324
 30
0.0
  0
VERTEX
  5
152
330
11F
100
AcDbEntity
  8
4_ANYTOOL_CUTTHROUGH_OUTSI
100
AcDbVertex
100
AcDb2dVertex
 10
276.474266864956
 20
172.8973571512543
 30
0.0
 42
0.4142135623858957
  0
VERTEX
  5
153
330
11F
100
AcDbEntity
  8
4_ANYTOOL_CUTTHROUGH_OUTSI
100
AcDbVertex
100
AcDb2dVertex
 10
276.724266864956
 20
172.6473571512506
 30
0.0
  0
VERTEX
  5
154
330
11F
100
AcDbEntity
  8
4_ANYTOOL_CUTTHROUGH_OUTSI
100
AcDbVertex
100
AcDb2dVertex
 10
288.7242668649596
 20
172.6473571512543
 30
0.0
 42
0.4142135623783627
  0
VERTEX
  5
155
330
11F
100
AcDbEntity
  8
4_ANYTOOL_CUTTHROUGH_OUTSI
100
AcDbVertex
100
AcDb2dVertex
 10
288.9742668649642
 20
172.8973571512543
 30
0.0
  0
VERTEX
  5
156
330
11F
100
AcDbEntity
  8
4_ANYTOOL_CUTTHROUGH_OUTSI
100
AcDbVertex
100
AcDb2dVertex
 10
288.9742668649596
 20
178.647357151247
 30
0.0
  0
VERTEX
  5
157
330
11F
100
AcDbEntity
  8
4_ANYTOOL_CUTTHROUGH_OUTSI
100
AcDbVertex
100
AcDb2dVertex
 10
324.4742668649587
 20
178.6473571512397
 30
0.0
  0
VERTEX
  5
158
330
11F
100
AcDbEntity
  8
4_ANYTOOL_CUTTHROUGH_OUTSI
100
AcDbVertex
100
AcDb2dVertex
 10
324.4742668649596
 20
172.8973571512397
 30
0.0
 42
0.4142135623453177
  0
VERTEX
  5
159
330
11F
100
AcDbEntity
  8
4_ANYTOOL_CUTTHROUGH_OUTSI
100
AcDbVertex
100
AcDb2dVertex
 10
324.7242668649596
 20
172.6473571512452
 30
0.0
  0
VERTEX
  5
15A
330
11F
100
AcDbEntity
  8
4_ANYTOOL_CUTTHROUGH_OUTSI
100
AcDbVertex
100
AcDb2dVertex
 10
336.724266864966
 20
172.6473571512397
 30
0.0
 42
0.4142135623411133
  0
VERTEX
  5
15B
330
11F
100
AcDbEntity
  8
4_ANYTOOL_CUTTHROUGH_OUTSI
100
AcDbVertex
100
AcDb2dVertex
 10
336.9742668649678
 20
172.8973571512397
 30
0.0
  0
VERTEX
  5
15C
330
11F
100
AcDbEntity
  8
4_ANYTOOL_CUTTHROUGH_OUTSI
100
AcDbVertex
100
AcDb2dVertex
 10
336.9742668649633
 20
196.647357151247
 30
0.0
  0
VERTEX
  5
15D
330
11F
100
AcDbEntity
  8
4_ANYTOOL_CUTTHROUGH_OUTSI
100
AcDbVertex
100
AcDb2dVertex
 10
376.0688295111495
 20
196.6473571512615
 30
0.0
  0
VERTEX
  5
15E
330
11F
100
AcDbEntity
  8
4_ANYTOOL_CUTTHROUGH_OUTSI
100
AcDbVertex
100
AcDb2dVertex
 10
375.8338355022065
 20
195.2524869509574
 30
0.0
  0
VERTEX
  5
15F
330
11F
100
AcDbEntity
  8
4_ANYTOOL_CUTTHROUGH_OUTSI
100
AcDbVertex
100
AcDb2dVertex
 10
358.9383022755101
 20
146.9799447574769
 30
0.0
  0
VERTEX
  5
160
330
11F
100
AcDbEntity
  8
4_ANYTOOL_CUTTHROUGH_OUTSI
100
AcDbVertex
100
AcDb2dVertex
 10
358.9242668646011
 20
146.8973571512979
 30
0.0
 42
0.4142135623758338
  0
VERTEX
  5
161
330
11F
100
AcDbEntity
  8
4_ANYTOOL_CUTTHROUGH_OUTSI
100
AcDbVertex
100
AcDb2dVertex
 10
365.174266864633
 20
140.6473571512806
 30
0.0
  0
VERTEX
  5
162
330
11F
100
AcDbEntity
  8
4_ANYTOOL_CUTTHROUGH_OUTSI
100
AcDbVertex
100
AcDb2dVertex
 10
443.1742668645957
 20
140.6473571512761
 30
0.0
 42
0.4142135623766318
  0
VERTEX
  5
163
330
11F
100
AcDbEntity
  8
4_ANYTOOL_CUTTHROUGH_OUTSI
100
AcDbVertex
100
AcDb2dVertex
 10
449.4242668646057
 20
146.8973571512688
 30
0.0
  0
VERTEX
  5
164
330
11F
100
AcDbEntity
  8
4_ANYTOOL_CUTTHROUGH_OUTSI
100
AcDbVertex
100
AcDb2dVertex
 10
449.4102314537049
 20
146.9799447574478
 30
0.0
  0
VERTEX
  5
165
330
11F
100
AcDbEntity
  8
4_ANYTOOL_CUTTHROUGH_OUTSI
100
AcDbVertex
100
AcDb2dVertex
 10
432.5111184596544
 20
195.2635519291071
 30
0.0
  0
VERTEX
  5
166
330
11F
100
AcDbEntity
  8
4_ANYTOOL_CUTTHROUGH_OUTSI
100
AcDbVertex
100
AcDb2dVertex
 10
432.2797042181655
 20
196.6473571513027
 30
0.0
  0
VERTEX
  5
167
330
11F
100
AcDbEntity
  8
4_ANYTOOL_CUTTHROUGH_OUTSI
100
AcDbVertex
100
AcDb2dVertex
 10
444.6787041163789
 20
196.6473571513343
 30
0.0
 42
0.3178372451974855
  0
VERTEX
  5
168
330
11F
100
AcDbEntity
  8
4_ANYTOOL_CUTTHROUGH_OUTSI
100
AcDbVertex
100
AcDb2dVertex
 10
450.5712606262817
 20
200.8140238180054
 30
0.0
 42
-0.7071067811848423
  0
VERTEX
  5
169
330
11F
100
AcDbEntity
  8
4_ANYTOOL_CUTTHROUGH_OUTSI
100
AcDbVertex
100
AcDb2dVertex
 10
472.7272731034672
 20
200.8140238179985
 30
0.0
 42
0.3178372451970713
  0
VERTEX
  5
16A
330
11F
100
AcDbEntity
  8
4_ANYTOOL_CUTTHROUGH_OUTSI
100
AcDbVertex
100
AcDb2dVertex
 10
478.619829613348
 20
196.6473571513291
 30
0.0
  0
VERTEX
  5
16B
330
11F
100
AcDbEntity
  8
4_ANYTOOL_CUTTHROUGH_OUTSI
100
AcDbVertex
100
AcDb2dVertex
 10
491.024266864847
 20
196.6473571512761
 30
0.0
  0
VERTEX
  5
16C
330
11F
100
AcDbEntity
  8
4_ANYTOOL_CUTTHROUGH_OUTSI
100
AcDbVertex
100
AcDb2dVertex
 10
491.0242668656101
 20
119.1473530935909
 30
0.0
  0
VERTEX
  5
16D
330
11F
100
AcDbEntity
  8
4_ANYTOOL_CUTTHROUGH_OUTSI
100
AcDbVertex
100
AcDb2dVertex
 10
485.2742668656083
 20
119.1473530936055
 30
0.0
 42
0.4142135623774008
  0
VERTEX
  5
16E
330
11F
100
AcDbEntity
  8
4_ANYTOOL_CUTTHROUGH_OUTSI
100
AcDbVertex
100
AcDb2dVertex
 10
485.0242668656047
 20
118.8973530936055
 30
0.0
  0
VERTEX
  5
16F
330
11F
100
AcDbEntity
  8
4_ANYTOOL_CUTTHROUGH_OUTSI
100
AcDbVertex
100
AcDb2dVertex
 10
485.0242668655792
 20
106.8973530935982
 30
0.0
 42
0.4142135623549349
  0
VERTEX
  5
170
330
11F
100
AcDbEntity
  8
4_ANYTOOL_CUTTHROUGH_OUTSI
100
AcDbVertex
100
AcDb2dVertex
 10
485.2742668655792
 20
106.6473530935973
 30
0.0
  0
VERTEX
  5
171
330
11F
100
AcDbEntity
  8
4_ANYTOOL_CUTTHROUGH_OUTSI
100
AcDbVertex
100
AcDb2dVertex
 10
533.2742668636301
 20
106.6473530935837
 30
0.0
 42
0.4142135623879653
  0
VERTEX
  5
172
330
11F
100
AcDbEntity
  8
4_ANYTOOL_CUTTHROUGH_OUTSI
100
AcDbVertex
100
AcDb2dVertex
 10
533.5242668636283
 20
106.8973530935837
 30
0.0
  0
VERTEX
  5
173
330
11F
100
AcDbEntity
  8
4_ANYTOOL_CUTTHROUGH_OUTSI
100
AcDbVertex
100
AcDb2dVertex
 10
533.524266863601
 20
118.8973530935837
 30
0.0
 42
0.4142135623881188
  0
VERTEX
  5
174
330
11F
100
AcDbEntity
  8
4_ANYTOOL_CUTTHROUGH_OUTSI
100
AcDbVertex
100
AcDb2dVertex
 10
533.2742668636001
 20
119.1473530935864
 30
0.0
  0
VERTEX
  5
175
330
11F
100
AcDbEntity
  8
4_ANYTOOL_CUTTHROUGH_OUTSI
100
AcDbVertex
100
AcDb2dVertex
 10
527.5242668635983
 20
119.1473530935691
 30
0.0
  0
VERTEX
  5
176
330
11F
100
AcDbEntity
  8
4_ANYTOOL_CUTTHROUGH_OUTSI
100
AcDbVertex
100
AcDb2dVertex
 10
527.5242668645578
 20
196.6473571511742
 30
0.0
  0
VERTEX
  5
177
330
11F
100
AcDbEntity
  8
4_ANYTOOL_CUTTHROUGH_OUTSI
100
AcDbVertex
100
AcDb2dVertex
 10
539.9287041160806
 20
196.647357151196
 30
0.0
 42
0.3178372451970872
  0
VERTEX
  5
178
330
11F
100
AcDbEntity
  8
4_ANYTOOL_CUTTHROUGH_OUTSI
100
AcDbVertex
100
AcDb2dVertex
 10
545.8212606259631
 20
200.814023817854
 30
0.0
 42
-0.707106781184935
  0
VERTEX
  5
179
330
11F
100
AcDbEntity
  8
4_ANYTOOL_CUTTHROUGH_OUTSI
100
AcDbVertex
100
AcDb2dVertex
 10
567.977273103148
 20
200.814023817853
 30
0.0
 42
0.317837245196929
  0
VERTEX
  5
17A
330
11F
100
AcDbEntity
  8
4_ANYTOOL_CUTTHROUGH_OUTSI
100
AcDbVertex
100
AcDb2dVertex
 10
573.869829613036
 20
196.6473571511862
 30
0.0
  0
VERTEX
  5
17B
330
11F
100
AcDbEntity
  8
4_ANYTOOL_CUTTHROUGH_OUTSI
100
AcDbVertex
100
AcDb2dVertex
 10
586.2688295111066
 20
196.6473571512106
 30
0.0
  0
VERTEX
  5
17C
330
11F
100
AcDbEntity
  8
4_ANYTOOL_CUTTHROUGH_OUTSI
100
AcDbVertex
100
AcDb2dVertex
 10
586.0338355021673
 20
195.252486950924
 30
0.0
  0
VERTEX
  5
17D
330
11F
100
AcDbEntity
  8
4_ANYTOOL_CUTTHROUGH_OUTSI
100
AcDbVertex
100
AcDb2dVertex
 10
569.1383022754944
 20
146.9799447574187
 30
0.0
  0
VERTEX
  5
17E
330
11F
100
AcDbEntity
  8
4_ANYTOOL_CUTTHROUGH_OUTSI
100
AcDbVertex
100
AcDb2dVertex
 10
569.1242668645857
 20
146.8973571512397
 30
0.0
 42
0.4142135623744852
  0
VERTEX
  5
17F
330
11F
100
AcDbEntity
  8
4_ANYTOOL_CUTTHROUGH_OUTSI
100
AcDbVertex
100
AcDb2dVertex
 10
575.3742668646064
 20
140.6473571512342
 30
0.0
  0
VERTEX
  5
180
330
11F
100
AcDbEntity
  8
4_ANYTOOL_CUTTHROUGH_OUTSI
100
AcDbVertex
100
AcDb2dVertex
 10
653.3742668645682
 20
140.6473571512324
 30
0.0
 42
0.4142135623729237
  0
VERTEX
  5
181
330
11F
100
AcDbEntity
  8
4_ANYTOOL_CUTTHROUGH_OUTSI
100
AcDbVertex
100
AcDb2dVertex
 10
659.6242668646009
 20
146.8973571512397
 30
0.0
  0
VERTEX
  5
182
330
11F
100
AcDbEntity
  8
4_ANYTOOL_CUTTHROUGH_OUTSI
100
AcDbVertex
100
AcDb2dVertex
 10
659.6102314536903
 20
146.979944757419
 30
0.0
  0
VERTEX
  5
183
330
11F
100
AcDbEntity
  8
4_ANYTOOL_CUTTHROUGH_OUTSI
100
AcDbVertex
100
AcDb2dVertex
 10
642.711118459526
 20
195.2635519293326
 30
0.0
  0
VERTEX
  5
184
330
11F
100
AcDbEntity
  8
4_ANYTOOL_CUTTHROUGH_OUTSI
100
AcDbVertex
100
AcDb2dVertex
 10
642.479704218044
 20
196.6473571512142
 30
0.0
  0
VERTEX
  5
185
330
11F
100
AcDbEntity
  8
4_ANYTOOL_CUTTHROUGH_OUTSI
100
AcDbVertex
100
AcDb2dVertex
 10
681.5742668642279
 20
196.6473571511815
 30
0.0
  0
VERTEX
  5
186
330
11F
100
AcDbEntity
  8
4_ANYTOOL_CUTTHROUGH_OUTSI
100
AcDbVertex
100
AcDb2dVertex
 10
681.5742668642306
 20
172.8973571511742
 30
0.0
 42
0.4142135623773333
  0
VERTEX
  5
187
330
11F
100
AcDbEntity
  8
4_ANYTOOL_CUTTHROUGH_OUTSI
100
AcDbVertex
100
AcDb2dVertex
 10
681.8242668642306
 20
172.6473571511779
 30
0.0
  0
VERTEX
  5
188
330
11F
100
AcDbEntity
  8
4_ANYTOOL_CUTTHROUGH_OUTSI
100
AcDbVertex
100
AcDb2dVertex
 10
693.8242668642342
 20
172.6473571511742
 30
0.0
 42
0.4142135623624286
  0
VERTEX
  5
189
330
11F
100
AcDbEntity
  8
4_ANYTOOL_CUTTHROUGH_OUTSI
100
AcDbVertex
100
AcDb2dVertex
 10
694.0742668642397
 20
172.8973571511742
 30
0.0
  0
VERTEX
  5
18A
330
11F
100
AcDbEntity
  8
4_ANYTOOL_CUTTHROUGH_OUTSI
100
AcDbVertex
100
AcDb2dVertex
 10
694.0742668642342
 20
178.6473571511742
 30
0.0
  0
VERTEX
  5
18B
330
11F
100
AcDbEntity
  8
4_ANYTOOL_CUTTHROUGH_OUTSI
100
AcDbVertex
100
AcDb2dVertex
 10
729.5742668642342
 20
178.6473571511597
 30
0.0
  0
VERTEX
  5
18C
330
11F
100
AcDbEntity
  8
4_ANYTOOL_CUTTHROUGH_OUTSI
100
AcDbVertex
100
AcDb2dVertex
 10
729.5742668642342
 20
172.8973571511597
 30
0.0
 42
0.4142135623773333
  0
VERTEX
  5
18D
330
11F
100
AcDbEntity
  8
4_ANYTOOL_CUTTHROUGH_OUTSI
100
AcDbVertex
100
AcDb2dVertex
 10
729.8242668642342
 20
172.6473571511633
 30
0.0
  0
VERTEX
  5
18E
330
11F
100
AcDbEntity
  8
4_ANYTOOL_CUTTHROUGH_OUTSI
100
AcDbVertex
100
AcDb2dVertex
 10
741.8242668642379
 20
172.6473571511597
 30
0.0
 42
0.4142135623731186
  0
VERTEX
  5
18F
330
11F
100
AcDbEntity
  8
4_ANYTOOL_CUTTHROUGH_OUTSI
100
AcDbVertex
100
AcDb2dVertex
 10
742.0742668642379
 20
172.8973571511597
 30
0.0
  0
VERTEX
  5
190
330
11F
100
AcDbEntity
  8
4_ANYTOOL_CUTTHROUGH_OUTSI
100
AcDbVertex
100
AcDb2dVertex
 10
742.0742668642288
 20
196.6473571511378
 30
0.0
  0
VERTEX
  5
191
330
11F
100
AcDbEntity
  8
4_ANYTOOL_CUTTHROUGH_OUTSI
100
AcDbVertex
100
AcDb2dVertex
 10
781.168829510415
 20
196.6473571511233
 30
0.0
  0
VERTEX
  5
192
330
11F
100
AcDbEntity
  8
4_ANYTOOL_CUTTHROUGH_OUTSI
100
AcDbVertex
100
AcDb2dVertex
 10
780.933835501462
 20
195.2524869508033
 30
0.0
  0
VERTEX
  5
193
330
11F
100
AcDbEntity
  8
4_ANYTOOL_CUTTHROUGH_OUTSI
100
AcDbVertex
100
AcDb2dVertex
 10
764.0383022747828
 20
146.9799447573023
 30
0.0
  0
VERTEX
  5
194
330
11F
100
AcDbEntity
  8
4_ANYTOOL_CUTTHROUGH_OUTSI
100
AcDbVertex
100
AcDb2dVertex
 10
764.0242668638716
 20
146.8973571511233
 30
0.0
 42
0.4142135623730295
  0
VERTEX
  5
195
330
11F
100
AcDbEntity
  8
4_ANYTOOL_CUTTHROUGH_OUTSI
100
AcDbVertex
100
AcDb2dVertex
 10
770.2742668638984
 20
140.6473571511142
 30
0.0
  0
VERTEX
  5
196
330
11F
100
AcDbEntity
  8
4_ANYTOOL_CUTTHROUGH_OUTSI
100
AcDbVertex
100
AcDb2dVertex
 10
809.0242668796791
 20
140.647357151116
 30
0.0
  0
VERTEX
  5
197
330
11F
100
AcDbEntity
  8
4_ANYTOOL_CUTTHROUGH_OUTSI
100
AcDbVertex
100
AcDb2dVertex
 10
809.0242724355976
 20
50.9208889701622
 30
0.0
 42
0.4114512520668232
  0
VERTEX
  5
198
330
11F
100
AcDbEntity
  8
4_ANYTOOL_CUTTHROUGH_OUTSI
100
AcDbVertex
100
AcDb2dVertex
 10
815.2739994365747
 20
44.7287177145917
 30
0.0
  0
VERTEX
  5
199
330
11F
100
AcDbEntity
  8
4_ANYTOOL_CUTTHROUGH_OUTSI
100
AcDbVertex
100
AcDb2dVertex
 10
815.3565876343408
 20
44.74275333255382
 30
0.0
  0
VERTEX
  5
19A
330
11F
100
AcDbEntity
  8
4_ANYTOOL_CUTTHROUGH_OUTSI
100
AcDbVertex
100
AcDb2dVertex
 10
865.3160469361092
 20
62.22870468477055
 30
0.0
 42
-0.4120733481059476
  0
VERTEX
  5
19B
330
11F
100
AcDbEntity
  8
4_ANYTOOL_CUTTHROUGH_OUTSI
100
AcDbVertex
100
AcDb2dVertex
 10
871.0239994365768
 20
56.47885842528194
 30
0.0
  0
VERTEX
  5
19C
330
11F
100
AcDbEntity
  8
4_ANYTOOL_CUTTHROUGH_OUTSI
100
AcDbVertex
100
AcDb2dVertex
 10
871.023999436592
 20
-21.52114157471806
 30
0.0
 42
-0.4120733481063204
  0
VERTEX
  5
19D
330
11F
100
AcDbEntity
  8
4_ANYTOOL_CUTTHROUGH_OUTSI
100
AcDbVertex
100
AcDb2dVertex
 10
865.3160469361046
 20
-27.27098783420462
 30
0.0
  0
VERTEX
  5
19E
330
11F
100
AcDbEntity
  8
4_ANYTOOL_CUTTHROUGH_OUTSI
100
AcDbVertex
100
AcDb2dVertex
 10
815.3565876343519
 20
-9.78503648196056
 30
0.0
  0
VERTEX
  5
19F
330
11F
100
AcDbEntity
  8
4_ANYTOOL_CUTTHROUGH_OUTSI
100
AcDbVertex
100
AcDb2dVertex
 10
815.2739994365857
 20
-9.771000863998601
 30
0.0
 42
0.4142135623732358
  0
VERTEX
  5
1A0
330
11F
100
AcDbEntity
  8
4_ANYTOOL_CUTTHROUGH_OUTSI
100
AcDbVertex
100
AcDb2dVertex
 10
809.0239994365872
 20
-16.02100128671009
 30
0.0
  0
VERTEX
  5
1A1
330
11F
100
AcDbEntity
  8
4_ANYTOOL_CUTTHROUGH_OUTSI
100
AcDbVertex
100
AcDb2dVertex
 10
809.0242660188342
 20
-94.85264284586447
 30
0.0
  0
VERTEX
  5
1A2
330
11F
100
AcDbEntity
  8
4_ANYTOOL_CUTTHROUGH_OUTSI
100
AcDbVertex
100
AcDb2dVertex
 10
784.0242667367966
 20
-94.8526428458863
 30
0.0
  0
VERTEX
  5
1A3
330
11F
100
AcDbEntity
  8
4_ANYTOOL_CUTTHROUGH_OUTSI
100
AcDbVertex
100
AcDb2dVertex
 10
784.0242667368266
 20
-89.1026428458863
 30
0.0
 42
0.4142135623539087
  0
VERTEX
  5
1A4
330
11F
100
AcDbEntity
  8
4_ANYTOOL_CUTTHROUGH_OUTSI
100
AcDbVertex
100
AcDb2dVertex
 10
783.7742667368266
 20
-88.85264284588447
 30
0.0
  0
VERTEX
  5
1A5
330
11F
100
AcDbEntity
  8
4_ANYTOOL_CUTTHROUGH_OUTSI
100
AcDbVertex
100
AcDb2dVertex
 10
771.7742667368257
 20
-88.85264284587902
 30
0.0
 42
0.4142135623772871
  0
VERTEX
  5
1A6
330
11F
100
AcDbEntity
  8
4_ANYTOOL_CUTTHROUGH_OUTSI
100
AcDbVertex
100
AcDb2dVertex
 10
771.524266736822
 20
-89.10264284587902
 30
0.0
  0
VERTEX
  5
1A7
330
11F
100
AcDbEntity
  8
4_ANYTOOL_CUTTHROUGH_OUTSI
100
AcDbVertex
100
AcDb2dVertex
 10
771.5242667368275
 20
-119.1026428458354
 30
0.0
 42
0.414213562342247
  0
VERTEX
  5
1A8
330
11F
100
AcDbEntity
  8
4_ANYTOOL_CUTTHROUGH_OUTSI
100
AcDbVertex
100
AcDb2dVertex
 10
771.7742667368275
 20
-119.3526428458326
 30
0.0
  0
VERTEX
  5
1A9
330
11F
100
AcDbEntity
  8
4_ANYTOOL_CUTTHROUGH_OUTSI
100
AcDbVertex
100
AcDb2dVertex
 10
783.7742667368248
 20
-119.3526428458499
 30
0.0
 42
0.414213562369857
  0
VERTEX
  5
1AA
330
11F
100
AcDbEntity
  8
4_ANYTOOL_CUTTHROUGH_OUTSI
100
AcDbVertex
100
AcDb2dVertex
 10
784.024266736822
 20
-119.1026428458499
 30
0.0
  0
VERTEX
  5
1AB
330
11F
100
AcDbEntity
  8
4_ANYTOOL_CUTTHROUGH_OUTSI
100
AcDbVertex
100
AcDb2dVertex
 10
784.0242667368266
 20
-113.3526428458499
 30
0.0
  0
VERTEX
  5
1AC
330
11F
100
AcDbEntity
  8
4_ANYTOOL_CUTTHROUGH_OUTSI
100
AcDbVertex
100
AcDb2dVertex
 10
809.0242668642541
 20
-113.3526428458208
 30
0.0
  0
VERTEX
  5
1AD
330
11F
100
AcDbEntity
  8
4_ANYTOOL_CUTTHROUGH_OUTSI
100
AcDbVertex
100
AcDb2dVertex
 10
809.0242668642686
 20
-182.8526428486657
 30
0.0
  0
VERTEX
  5
1AE
330
11F
100
AcDbEntity
  8
4_ANYTOOL_CUTTHROUGH_OUTSI
100
AcDbVertex
100
AcDb2dVertex
 10
-708.4757331350384
 20
-182.8526428489204
 30
0.0
  0
VERTEX
  5
1AF
330
11F
100
AcDbEntity
  8
4_ANYTOOL_CUTTHROUGH_OUTSI
100
AcDbVertex
100
AcDb2dVertex
 10
-708.4757331350611
 20
-45.35264284864388
 30
0.0
  0
VERTEX
  5
1B0
330
11F
100
AcDbEntity
  8
4_ANYTOOL_CUTTHROUGH_OUTSI
100
AcDbVertex
100
AcDb2dVertex
 10
-702.7257331350602
 20
-45.35264284861478
 30
0.0
 42
0.4142135623742232
  0
VERTEX
  5
1B1
330
11F
100
AcDbEntity
  8
4_ANYTOOL_CUTTHROUGH_OUTSI
100
AcDbVertex
100
AcDb2dVertex
 10
-702.4757331350593
 20
-45.10264284861478
 30
0.0
  0
VERTEX
  5
1B2
330
11F
100
AcDbEntity
  8
4_ANYTOOL_CUTTHROUGH_OUTSI
100
AcDbVertex
100
AcDb2dVertex
 10
-702.475733135062
 20
-33.10264284865843
 30
0.0
 42
0.4142135623196888
  0
VERTEX
  5
1B3
330
11F
100
AcDbEntity
  8
4_ANYTOOL_CUTTHROUGH_OUTSI
100
AcDbVertex
100
AcDb2dVertex
 10
-702.7257331350611
 20
-32.85264284865752
 30
0.0
  0
VERTEX
  5
1B4
330
11F
100
AcDbEntity
  8
4_ANYTOOL_CUTTHROUGH_OUTSI
100
AcDbVertex
100
AcDb2dVertex
 10
-858.4757331350884
 20
-32.85264284863661
 30
0.0
  0
VERTEX
  5
1B5
330
11F
100
AcDbEntity
  8
4_ANYTOOL_CUTTHROUGH_OUTSI
100
AcDbVertex
100
AcDb2dVertex
 10
-858.4757331351066
 20
39.64735715294955
 30
0.0
  0
VERTEX
  5
1B6
330
11F
100
AcDbEntity
  8
4_ANYTOOL_CUTTHROUGH_OUTSI
100
AcDbVertex
100
AcDb2dVertex
 10
-852.7257331351066
 20
39.64735715294955
 30
0.0
 42
0.4142135623422359
  0
VERTEX
  5
1B7
330
11F
100
AcDbEntity
  8
4_ANYTOOL_CUTTHROUGH_OUTSI
100
AcDbVertex
100
AcDb2dVertex
 10
-852.4757331351038
 20
39.89735715294955
 30
0.0
  0
VERTEX
  5
1B8
330
11F
100
AcDbEntity
  8
4_ANYTOOL_CUTTHROUGH_OUTSI
100
AcDbVertex
100
AcDb2dVertex
 10
-852.4757331350993
 20
51.89735715294955
 30
0.0
 42
0.4142135623741169
  0
VERTEX
  5
1B9
330
11F
100
AcDbEntity
  8
4_ANYTOOL_CUTTHROUGH_OUTSI
100
AcDbVertex
100
AcDb2dVertex
 10
-852.7257331350993
 20
52.14735715294864
 30
0.0
  0
VERTEX
  5
1BA
330
11F
100
AcDbEntity
  8
4_ANYTOOL_CUTTHROUGH_OUTSI
100
AcDbVertex
100
AcDb2dVertex
 10
-876.4757331351075
 20
52.1473571529641
 30
0.0
  0
VERTEX
  5
1BB
330
11F
100
AcDbEntity
  8
4_ANYTOOL_CUTTHROUGH_OUTSI
100
AcDbVertex
100
AcDb2dVertex
 10
-876.4757331351211
 20
196.6473571529204
 30
0.0
  0
VERTEX
  5
1BC
330
11F
100
AcDbEntity
  8
4_ANYTOOL_CUTTHROUGH_OUTSI
100
AcDbVertex
100
AcDb2dVertex
 10
-842.725733135143
 20
196.6473571545939
 30
0.0
 42
0.4142135623453465
  0
VERTEX
  5
1BD
330
11F
100
AcDbEntity
  8
4_ANYTOOL_CUTTHROUGH_OUTSI
100
AcDbVertex
100
AcDb2dVertex
 10
-842.475733135152
 20
196.8973571545939
 30
0.0
  0
VERTEX
  5
1BE
330
11F
100
AcDbEntity
  8
4_ANYTOOL_CUTTHROUGH_OUTSI
100
AcDbVertex
100
AcDb2dVertex
 10
-842.4757331351566
 20
214.6473571545794
 30
0.0
  0
VERTEX
  5
1BF
330
11F
100
AcDbEntity
  8
4_ANYTOOL_CUTTHROUGH_OUTSI
100
AcDbVertex
100
AcDb2dVertex
 10
-810.8867331352076
 20
214.6473571545939
 30
0.0
  0
VERTEX
  5
1C0
330
11F
100
AcDbEntity
  8
4_ANYTOOL_CUTTHROUGH_OUTSI
100
AcDbVertex
100
AcDb2dVertex
 10
-810.8867331352067
 20
190.8973571547831
 30
0.0
 42
0.4142135623516768
  0
VERTEX
  5
1C1
330
11F
100
AcDbEntity
  8
4_ANYTOOL_CUTTHROUGH_OUTSI
100
AcDbVertex
100
AcDb2dVertex
 10
-810.6367331352067
 20
190.6473571547795
 30
0.0
  0
VERTEX
  5
1C2
330
11F
100
AcDbEntity
  8
4_ANYTOOL_CUTTHROUGH_OUTSI
100
AcDbVertex
100
AcDb2dVertex
 10
-798.6367331352048
 20
190.6473571547831
 30
0.0
 42
0.4142135623516897
  0
VERTEX
  5
1C3
330
11F
100
AcDbEntity
  8
4_ANYTOOL_CUTTHROUGH_OUTSI
100
AcDbVertex
100
AcDb2dVertex
 10
-798.3867331352085
 20
190.8973571547831
 30
0.0
  0
VERTEX
  5
1C4
330
11F
100
AcDbEntity
  8
4_ANYTOOL_CUTTHROUGH_OUTSI
100
AcDbVertex
100
AcDb2dVertex
 10
-798.3867331352048
 20
196.6473571548413
 30
0.0
  0
VERTEX
  5
1C5
330
11F
100
AcDbEntity
  8
4_ANYTOOL_CUTTHROUGH_OUTSI
100
AcDbVertex
100
AcDb2dVertex
 10
-784.9757331352484
 20
196.6473571548704
 30
0.0
  0
VERTEX
  5
1C6
330
11F
100
AcDbEntity
  8
4_ANYTOOL_CUTTHROUGH_OUTSI
100
AcDbVertex
100
AcDb2dVertex
 10
-784.9757331352484
 20
190.8973571548704
 30
0.0
 42
0.4142135623516768
  0
VERTEX
  5
1C7
330
11F
100
AcDbEntity
  8
4_ANYTOOL_CUTTHROUGH_OUTSI
100
AcDbVertex
100
AcDb2dVertex
 10
-784.7257331352484
 20
190.6473571548668
 30
0.0
  0
VERTEX
  5
1C8
330
11F
100
AcDbEntity
  8
4_ANYTOOL_CUTTHROUGH_OUTSI
100
AcDbVertex
100
AcDb2dVertex
 10
-772.7257331352466
 20
190.6473571548559
 30
0.0
 42
0.414213562375191
  0
VERTEX
  5
1C9
330
11F
100
AcDbEntity
  8
4_ANYTOOL_CUTTHROUGH_OUTSI
100
AcDbVertex
100
AcDb2dVertex
 10
-772.4757331352448
 20
190.8973571548559
 30
0.0
  0
VERTEX
  5
1CA
330
11F
100
AcDbEntity
  8
4_ANYTOOL_CUTTHROUGH_OUTSI
100
AcDbVertex
100
AcDb2dVertex
 10
-772.4757331352466
 20
214.6473571545794
 30
0.0
  0
VERTEX
  5
1CB
330
11F
100
AcDbEntity
  8
4_ANYTOOL_CUTTHROUGH_OUTSI
100
AcDbVertex
100
AcDb2dVertex
 10
-737.9757331352866
 20
214.6473571545794
 30
0.0
  0
VERTEX
  5
1CC
330
11F
100
AcDbEntity
  8
4_ANYTOOL_CUTTHROUGH_OUTSI
100
AcDbVertex
100
AcDb2dVertex
 10
-737.9757331352857
 20
190.8973571546376
 30
0.0
 42
0.414213562374131
  0
VERTEX
  5
1CD
330
11F
100
AcDbEntity
  8
4_ANYTOOL_CUTTHROUGH_OUTSI
100
AcDbVertex
100
AcDb2dVertex
 10
-737.7257331352857
 20
190.6473571546385
 30
0.0
  0
VERTEX
  5
1CE
330
11F
100
AcDbEntity
  8
4_ANYTOOL_CUTTHROUGH_OUTSI
100
AcDbVertex
100
AcDb2dVertex
 10
-725.7257331352876
 20
190.6473571546376
 30
0.0
 42
0.4142135623720551
  0
VERTEX
  5
1CF
330
11F
100
AcDbEntity
  8
4_ANYTOOL_CUTTHROUGH_OUTSI
100
AcDbVertex
100
AcDb2dVertex
 10
-725.4757331352885
 20
190.8973571546376
 30
0.0
  0
VERTEX
  5
1D0
330
11F
100
AcDbEntity
  8
4_ANYTOOL_CUTTHROUGH_OUTSI
100
AcDbVertex
100
AcDb2dVertex
 10
-725.4757331352885
 20
196.6473571544193
 30
0.0
  0
VERTEX
  5
1D1
330
11F
100
AcDbEntity
  8
4_ANYTOOL_CUTTHROUGH_OUTSI
100
AcDbVertex
100
AcDb2dVertex
 10
-708.9757331323563
 20
196.6473571515671
 30
0.0
  0
VERTEX
  5
1D2
330
11F
100
AcDbEntity
  8
4_ANYTOOL_CUTTHROUGH_OUTSI
100
AcDbVertex
100
AcDb2dVertex
 10
-708.9757331343271
 20
94.14735715123243
 30
0.0
  0
VERTEX
  5
1D3
330
11F
100
AcDbEntity
  8
4_ANYTOOL_CUTTHROUGH_OUTSI
100
AcDbVertex
100
AcDb2dVertex
 10
-714.7257331343344
 20
94.14735715124698
 30
0.0
 42
0.4142135623869136
  0
VERTEX
  5
1D4
330
11F
100
AcDbEntity
  8
4_ANYTOOL_CUTTHROUGH_OUTSI
100
AcDbVertex
100
AcDb2dVertex
 10
-714.9757331343317
 20
93.89735715124698
 30
0.0
  0
VERTEX
  5
1D5
330
11F
100
AcDbEntity
  8
4_ANYTOOL_CUTTHROUGH_OUTSI
100
AcDbVertex
100
AcDb2dVertex
 10
-714.9757331343435
 20
81.89735715124698
 30
0.0
 42
0.4142135623859526
  0
VERTEX
  5
1D6
330
11F
100
AcDbEntity
  8
4_ANYTOOL_CUTTHROUGH_OUTSI
100
AcDbVertex
100
AcDb2dVertex
 10
-714.7257331343435
 20
81.64735715124334
 30
0.0
  0
VERTEX
  5
1D7
330
11F
100
AcDbEntity
  8
4_ANYTOOL_CUTTHROUGH_OUTSI
100
AcDbVertex
100
AcDb2dVertex
 10
-684.7257331343417
 20
81.64735715125425
 30
0.0
 42
0.4142135623463808
  0
VERTEX
  5
1D8
330
11F
100
AcDbEntity
  8
4_ANYTOOL_CUTTHROUGH_OUTSI
100
AcDbVertex
100
AcDb2dVertex
 10
-684.4757331343353
 20
81.89735715125425
 30
0.0
  0
VERTEX
  5
1D9
330
11F
100
AcDbEntity
  8
4_ANYTOOL_CUTTHROUGH_OUTSI
100
AcDbVertex
100
AcDb2dVertex
 10
-684.4757331343408
 20
93.8973571512397
 30
0.0
 42
0.4142135623741026
  0
VERTEX
  5
1DA
330
11F
100
AcDbEntity
  8
4_ANYTOOL_CUTTHROUGH_OUTSI
100
AcDbVertex
100
AcDb2dVertex
 10
-684.7257331343408
 20
94.1473571512388
 30
0.0
  0
VERTEX
  5
1DB
330
11F
100
AcDbEntity
  8
4_ANYTOOL_CUTTHROUGH_OUTSI
100
AcDbVertex
100
AcDb2dVertex
 10
-690.4757331343408
 20
94.1473571512397
 30
0.0
  0
VERTEX
  5
1DC
330
11F
100
AcDbEntity
  8
4_ANYTOOL_CUTTHROUGH_OUTSI
100
AcDbVertex
100
AcDb2dVertex
 10
-690.4757331343426
 20
196.647357151247
 30
0.0
  0
VERTEX
  5
1DD
330
11F
100
AcDbEntity
  8
4_ANYTOOL_CUTTHROUGH_OUTSI
100
AcDbVertex
100
AcDb2dVertex
 10
-660.0712958830336
 20
196.6473571512033
 30
0.0
 42
0.3178372452028561
  0
VERTEX
  5
1DE
330
11F
100
AcDbEntity
  8
4_ANYTOOL_CUTTHROUGH_OUTSI
100
AcDbVertex
100
AcDb2dVertex
 10
-654.1787393731478
 20
200.8140238178674
 30
0.0
 42
-0.7071067811840839
  0
VERTEX
  5
1DF
330
11F
100
AcDbEntity
  8
4_ANYTOOL_CUTTHROUGH_OUTSI
100
AcDbVertex
100
AcDb2dVertex
 10
-632.0227268959676
 20
200.8140238178822
 30
0.0
 42
0.3178372451992805
  0
VERTEX
  5
1E0
330
11F
100
AcDbEntity
  8
4_ANYTOOL_CUTTHROUGH_OUTSI
100
AcDbVertex
100
AcDb2dVertex
 10
-626.1301703860654
 20
196.6473571512265
 30
0.0
  0
VERTEX
  5
1E1
330
11F
100
AcDbEntity
  8
4_ANYTOOL_CUTTHROUGH_OUTSI
100
AcDbVertex
100
AcDb2dVertex
 10
-613.7311704878584
 20
196.6473571512761
 30
0.0
  0
VERTEX
  5
1E2
330
11F
100
AcDbEntity
  8
4_ANYTOOL_CUTTHROUGH_OUTSI
100
AcDbVertex
100
AcDb2dVertex
 10
-613.9661644967238
 20
195.2524869509895
 30
0.0
  0
VERTEX
  5
1E3
330
11F
100
AcDbEntity
  8
4_ANYTOOL_CUTTHROUGH_OUTSI
100
AcDbVertex
100
AcDb2dVertex
 10
-630.8616977233978
 20
146.979944757506
 30
0.0
  0
VERTEX
  5
1E4
330
11F
100
AcDbEntity
  8
4_ANYTOOL_CUTTHROUGH_OUTSI
100
AcDbVertex
100
AcDb2dVertex
 10
-630.8757331343056
 20
146.897357151327
 30
0.0
 42
0.4142135623766215
  0
VERTEX
  5
1E5
330
11F
100
AcDbEntity
  8
4_ANYTOOL_CUTTHROUGH_OUTSI
100
AcDbVertex
100
AcDb2dVertex
 10
-624.6257331342995
 20
140.6473571513234
 30
0.0
  0
VERTEX
  5
1E6
330
11F
100
AcDbEntity
  8
4_ANYTOOL_CUTTHROUGH_OUTSI
100
AcDbVertex
100
AcDb2dVertex
 10
-546.6257331343304
 20
140.6473571513125
 30
0.0
 42
0.4142135623759082
  0
VERTEX
  5
1E7
330
11F
100
AcDbEntity
  8
4_ANYTOOL_CUTTHROUGH_OUTSI
100
AcDbVertex
100
AcDb2dVertex
 10
-540.3757331342995
 20
146.897357151327
 30
0.0
  0
VERTEX
  5
1E8
330
11F
100
AcDbEntity
  8
4_ANYTOOL_CUTTHROUGH_OUTSI
100
AcDbVertex
100
AcDb2dVertex
 10
-540.3897685452072
 20
146.9799447575064
 30
0.0
  0
VERTEX
  5
1E9
330
11F
100
AcDbEntity
  8
4_ANYTOOL_CUTTHROUGH_OUTSI
100
AcDbVertex
100
AcDb2dVertex
 10
-557.2888815396464
 20
195.2635519303731
 30
0.0
  0
VERTEX
  5
1EA
330
11F
100
AcDbEntity
  8
4_ANYTOOL_CUTTHROUGH_OUTSI
100
AcDbVertex
100
AcDb2dVertex
 10
-557.5202957808534
 20
196.647357151278
 30
0.0
  0
VERTEX
  5
1EB
330
11F
100
AcDbEntity
  8
4_ANYTOOL_CUTTHROUGH_OUTSI
100
AcDbVertex
100
AcDb2dVertex
 10
-518.4257331346635
 20
196.6473571512397
 30
0.0
  0
VERTEX
  5
1EC
330
11F
100
AcDbEntity
  8
4_ANYTOOL_CUTTHROUGH_OUTSI
100
AcDbVertex
100
AcDb2dVertex
 10
-518.4257331346735
 20
172.8973571512397
 30
0.0
 42
0.4142135623433301
  0
VERTEX
  5
1ED
330
11F
100
AcDbEntity
  8
4_ANYTOOL_CUTTHROUGH_OUTSI
100
AcDbVertex
100
AcDb2dVertex
 10
-518.1757331346735
 20
172.6473571512433
 30
0.0
  0
VERTEX
  5
1EE
330
11F
100
AcDbEntity
  8
4_ANYTOOL_CUTTHROUGH_OUTSI
100
AcDbVertex
100
AcDb2dVertex
 10
-506.1757331346644
 20
172.6473571512252
 30
0.0
 42
0.4142135624050963
  0
VERTEX
  5
1EF
330
11F
100
AcDbEntity
  8
4_ANYTOOL_CUTTHROUGH_OUTSI
100
AcDbVertex
100
AcDb2dVertex
 10
-505.9257331346662
 20
172.8973571512252
 30
0.0
  0
VERTEX
  5
1F0
330
11F
100
AcDbEntity
  8
4_ANYTOOL_CUTTHROUGH_OUTSI
100
AcDbVertex
100
AcDb2dVertex
 10
-505.9257331346671
 20
178.6473571512252
 30
0.0
  0
VERTEX
  5
1F1
330
11F
100
AcDbEntity
  8
4_ANYTOOL_CUTTHROUGH_OUTSI
100
AcDbVertex
100
AcDb2dVertex
 10
-470.4257331346689
 20
178.6473571512106
 30
0.0
  0
VERTEX
  5
1F2
330
11F
100
AcDbEntity
  8
4_ANYTOOL_CUTTHROUGH_OUTSI
100
AcDbVertex
100
AcDb2dVertex
 10
-470.4257331346653
 20
172.8973571512106
 30
0.0
 42
0.414213562374084
  0
VERTEX
  5
1F3
330
11F
100
AcDbEntity
  8
4_ANYTOOL_CUTTHROUGH_OUTSI
100
AcDbVertex
100
AcDb2dVertex
 10
-470.1757331346653
 20
172.6473571512115
 30
0.0
  0
VERTEX
  5
1F4
330
11F
100
AcDbEntity
  8
4_ANYTOOL_CUTTHROUGH_OUTSI
100
AcDbVertex
100
AcDb2dVertex
 10
-458.1757331346671
 20
172.6473571512106
 30
0.0
 42
0.4142135623859282
  0
VERTEX
  5
1F5
330
11F
100
AcDbEntity
  8
4_ANYTOOL_CUTTHROUGH_OUTSI
100
AcDbVertex
100
AcDb2dVertex
 10
-457.9257331346707
 20
172.8973571512106
 30
0.0
  0
VERTEX
  5
1F6
330
11F
100
AcDbEntity
  8
4_ANYTOOL_CUTTHROUGH_OUTSI
100
AcDbVertex
100
AcDb2dVertex
 10
-457.9257331346653
 20
196.6473571512106
 30
0.0
  0
VERTEX
  5
1F7
330
11F
100
AcDbEntity
  8
4_ANYTOOL_CUTTHROUGH_OUTSI
100
AcDbVertex
100
AcDb2dVertex
 10
-418.8311704884818
 20
196.6473571511815
 30
0.0
  0
VERTEX
  5
1F8
330
11F
100
AcDbEntity
  8
4_ANYTOOL_CUTTHROUGH_OUTSI
100
AcDbVertex
100
AcDb2dVertex
 10
-419.0661644974302
 20
195.2524869508628
 30
0.0
  0
VERTEX
  5
1F9
330
11F
100
AcDbEntity
  8
4_ANYTOOL_CUTTHROUGH_OUTSI
100
AcDbVertex
100
AcDb2dVertex
 10
-435.9616977241076
 20
146.9799447573751
 30
0.0
  0
VERTEX
  5
1FA
330
11F
100
AcDbEntity
  8
4_ANYTOOL_CUTTHROUGH_OUTSI
100
AcDbVertex
100
AcDb2dVertex
 10
-435.9757331350164
 20
146.897357151196
 30
0.0
 42
0.414213562375104
  0
VERTEX
  5
1FB
330
11F
100
AcDbEntity
  8
4_ANYTOOL_CUTTHROUGH_OUTSI
100
AcDbVertex
100
AcDb2dVertex
 10
-429.7257331349992
 20
140.6473571511797
 30
0.0
  0
VERTEX
  5
1FC
330
11F
100
AcDbEntity
  8
4_ANYTOOL_CUTTHROUGH_OUTSI
100
AcDbVertex
100
AcDb2dVertex
 10
-351.7257331343235
 20
140.6473571512033
 30
0.0
 42
0.4142135623748829
  0
VERTEX
  5
1FD
330
11F
100
AcDbEntity
  8
4_ANYTOOL_CUTTHROUGH_OUTSI
100
AcDbVertex
100
AcDb2dVertex
 10
-345.4757331342998
 20
146.8973571511888
 30
0.0
  0
VERTEX
  5
1FE
330
11F
100
AcDbEntity
  8
4_ANYTOOL_CUTTHROUGH_OUTSI
100
AcDbVertex
100
AcDb2dVertex
 10
-345.4897685452144
 20
146.9799447573674
 30
0.0
  0
VERTEX
  5
1FF
330
11F
100
AcDbEntity
  8
4_ANYTOOL_CUTTHROUGH_OUTSI
100
AcDbVertex
100
AcDb2dVertex
 10
-362.3888815396267
 20
195.2635519302494
 30
0.0
  0
VERTEX
  5
200
330
11F
100
AcDbEntity
  8
4_ANYTOOL_CUTTHROUGH_OUTSI
100
AcDbVertex
100
AcDb2dVertex
 10
-362.6202957808426
 20
196.6473571511733
 30
0.0
  0
VERTEX
  5
201
330
11F
100
AcDbEntity
  8
4_ANYTOOL_CUTTHROUGH_OUTSI
100
AcDbVertex
100
AcDb2dVertex
 10
-323.5257331346575
 20
196.6473571512033
 30
0.0
  0
VERTEX
  5
202
330
11F
100
AcDbEntity
  8
4_ANYTOOL_CUTTHROUGH_OUTSI
100
AcDbVertex
100
AcDb2dVertex
 10
-323.525733134672
 20
172.8973571512324
 30
0.0
 42
0.4142135623751671
  0
VERTEX
  5
203
330
11F
100
AcDbEntity
  8
4_ANYTOOL_CUTTHROUGH_OUTSI
100
AcDbVertex
100
AcDb2dVertex
 10
-323.275733134672
 20
172.6473571512342
 30
0.0
  0
VERTEX
  5
204
330
11F
100
AcDbEntity
  8
4_ANYTOOL_CUTTHROUGH_OUTSI
100
AcDbVertex
100
AcDb2dVertex
 10
-311.2757331346684
 20
172.6473571512179
 30
0.0
 42
0.4142135623741902
  0
VERTEX
  5
205
330
11F
100
AcDbEntity
  8
4_ANYTOOL_CUTTHROUGH_OUTSI
100
AcDbVertex
100
AcDb2dVertex
 10
-311.0257331346675
 20
172.8973571512179
 30
0.0
  0
VERTEX
  5
206
330
11F
100
AcDbEntity
  8
4_ANYTOOL_CUTTHROUGH_OUTSI
100
AcDbVertex
100
AcDb2dVertex
 10
-311.0257331346638
 20
178.6473571512179
 30
0.0
  0
VERTEX
  5
207
330
11F
100
AcDbEntity
  8
4_ANYTOOL_CUTTHROUGH_OUTSI
100
AcDbVertex
100
AcDb2dVertex
 10
-275.5257331346565
 20
178.6473571512033
 30
0.0
  0
VERTEX
  5
208
330
11F
100
AcDbEntity
  8
4_ANYTOOL_CUTTHROUGH_OUTSI
100
AcDbVertex
100
AcDb2dVertex
 10
-275.5257331346611
 20
172.8973571512033
 30
0.0
 42
0.4142135623751671
  0
VERTEX
  5
209
330
11F
100
AcDbEntity
  8
4_ANYTOOL_CUTTHROUGH_OUTSI
100
AcDbVertex
100
AcDb2dVertex
 10
-275.2757331346611
 20
172.6473571512051
 30
0.0
  0
VERTEX
  5
20A
330
11F
100
AcDbEntity
  8
4_ANYTOOL_CUTTHROUGH_OUTSI
100
AcDbVertex
100
AcDb2dVertex
 10
-263.2757331346593
 20
172.6473571512179
 30
0.0
 42
0.4142135623997151
  0
VERTEX
  5
20B
330
11F
100
AcDbEntity
  8
4_ANYTOOL_CUTTHROUGH_OUTSI
100
AcDbVertex
100
AcDb2dVertex
 10
-263.0257331346656
 20
172.8973571512179
 30
0.0
  0
VERTEX
  5
20C
330
11F
100
AcDbEntity
  8
4_ANYTOOL_CUTTHROUGH_OUTSI
100
AcDbVertex
100
AcDb2dVertex
 10
-263.0257331346602
 20
196.6473571512033
 30
0.0
  0
VERTEX
  5
20D
330
11F
100
AcDbEntity
  8
4_ANYTOOL_CUTTHROUGH_OUTSI
100
AcDbVertex
100
AcDb2dVertex
 10
-223.9311704884758
 20
196.6473571512615
 30
0.0
  0
VERTEX
  5
20E
330
11F
100
AcDbEntity
  8
4_ANYTOOL_CUTTHROUGH_OUTSI
100
AcDbVertex
100
AcDb2dVertex
 10
-224.1661644974161
 20
195.2524869509313
 30
0.0
  0
VERTEX
  5
20F
330
11F
100
AcDbEntity
  8
4_ANYTOOL_CUTTHROUGH_OUTSI
100
AcDbVertex
100
AcDb2dVertex
 10
-241.0616977241098
 20
146.9799447574551
 30
0.0
  0
VERTEX
  5
210
330
11F
100
AcDbEntity
  8
4_ANYTOOL_CUTTHROUGH_OUTSI
100
AcDbVertex
100
AcDb2dVertex
 10
-241.0757331350193
 20
146.8973571512761
 30
0.0
 42
0.4142135623752355
  0
VERTEX
  5
211
330
11F
100
AcDbEntity
  8
4_ANYTOOL_CUTTHROUGH_OUTSI
100
AcDbVertex
100
AcDb2dVertex
 10
-234.8257331349905
 20
140.6473571512797
 30
0.0
  0
VERTEX
  5
212
330
11F
100
AcDbEntity
  8
4_ANYTOOL_CUTTHROUGH_OUTSI
100
AcDbVertex
100
AcDb2dVertex
 10
-156.8257331350251
 20
140.6473571512688
 30
0.0
 42
0.414213562377483
  0
VERTEX
  5
213
330
11F
100
AcDbEntity
  8
4_ANYTOOL_CUTTHROUGH_OUTSI
100
AcDbVertex
100
AcDb2dVertex
 10
-150.5757331350187
 20
146.8973571512543
 30
0.0
  0
VERTEX
  5
214
330
11F
100
AcDbEntity
  8
4_ANYTOOL_CUTTHROUGH_OUTSI
100
AcDbVertex
100
AcDb2dVertex
 10
-150.5897685459219
 20
146.9799447574337
 30
0.0
  0
VERTEX
  5
215
330
11F
100
AcDbEntity
  8
4_ANYTOOL_CUTTHROUGH_OUTSI
100
AcDbVertex
100
AcDb2dVertex
 10
-167.4888816582725
 20
195.2635519014657
 30
0.0
  0
VERTEX
  5
216
330
11F
100
AcDbEntity
  8
4_ANYTOOL_CUTTHROUGH_OUTSI
100
AcDbVertex
100
AcDb2dVertex
 10
-167.7203785654406
 20
196.6473571512447
 30
0.0
  0
VERTEX
  5
217
330
11F
100
AcDbEntity
  8
4_ANYTOOL_CUTTHROUGH_OUTSI
100
AcDbVertex
100
AcDb2dVertex
 10
-155.3212958834565
 20
196.6473571512033
 30
0.0
 42
0.317837245201414
  0
VERTEX
  5
218
330
11F
100
AcDbEntity
  8
4_ANYTOOL_CUTTHROUGH_OUTSI
100
AcDbVertex
100
AcDb2dVertex
 10
-149.4287393735683
 20
200.8140238178757
 30
0.0
 42
-0.7071067811845105
  0
VERTEX
  5
219
330
11F
100
AcDbEntity
  8
4_ANYTOOL_CUTTHROUGH_OUTSI
100
AcDbVertex
100
AcDb2dVertex
 10
-127.2727268963853
 20
200.8140238178746
 30
0.0
 42
0.3178372451982071
  0
SEQEND
  5
21A
330
11F
100
AcDbEntity
  8
4_ANYTOOL_CUTTHROUGH_OUTSI
  0
ENDSEC
  0
SECTION
  2
OBJECTS
  0
DICTIONARY
  5
C
330
0
100
AcDbDictionary
  3
ACAD_GROUP
350
D
  3
ACAD_LAYOUT
350
1A
  3
ACAD_MATERIAL
350
43
  3
ACAD_MLEADERSTYLE
350
5B
  3
ACAD_MLINESTYLE
350
17
  3
ACAD_PLOTSETTINGS
350
19
  3
ACAD_SCALELIST
350
47
  3
ACAD_VISUALSTYLE
350
2A
  3
ACDBHEADERROUNDTRIPXREC
350
21B
  3
ACDBVARIABLEDICTIONARY
350
23C
  3
DWGPROPS
350
243
  0
DICTIONARY
  5
244
330
8
100
AcDbDictionary
280
     1
  3
ACAD_XREC_ROUNDTRIP
360
245
  0
DICTIONARY
  5
D
102
{ACAD_REACTORS
330
C
102
}
330
C
100
AcDbDictionary
  0
DICTIONARY
  5
1A
102
{ACAD_REACTORS
330
C
102
}
330
C
100
AcDbDictionary
  0
DICTIONARY
  5
43
102
{ACAD_REACTORS
330
C
102
}
330
C
100
AcDbDictionary
  3
BYBLOCK
350
45
  3
BYLAYER
350
44
  3
GLOBAL
350
46
  0
DICTIONARY
  5
5B
102
{ACAD_REACTORS
330
C
102
}
330
C
100
AcDbDictionary
  3
STANDARD
350
5C
  0
DICTIONARY
  5
17
102
{ACAD_REACTORS
330
C
102
}
330
C
100
AcDbDictionary
  3
STANDARD
350
18
  0
DICTIONARY
  5
19
102
{ACAD_REACTORS
330
C
102
}
330
C
100
AcDbDictionary
  0
DICTIONARY
  5
47
102
{ACAD_REACTORS
330
C
102
}
330
C
100
AcDbDictionary
  3
A0
350
48
  3
A1
350
49
  3
A2
350
4A
  3
A3
350
4B
  3
A4
350
4C
  3
A5
350
4D
  3
A6
350
4E
  3
A7
350
4F
  3
A8
350
50
  3
A9
350
51
  3
B1
350
52
  3
B2
350
53
  3
B3
350
54
  3
B4
350
55
  3
B5
350
56
  3
B6
350
57
  3
B7
350
58
  0
DICTIONARY
  5
2A
102
{ACAD_REACTORS
330
C
102
}
330
C
100
AcDbDictionary
  3
2DWIREFRAME
350
2F
  3
BASIC
350
32
  3
BRIGHTEN
350
36
  3
COLORCHANGE
350
3A
  3
CONCEPTUAL
350
34
  3
DIM
350
35
  3
EDGECOLOROFF
350
3D
  3
FACEPATTERN
350
39
  3
FLAT
350
2B
  3
FLATWITHEDGES
350
2C
  3
GOURAUD
350
2D
  3
GOURAUDWITHEDGES
350
2E
  3
HIDDEN
350
31
  3
JITTEROFF
350
3B
  3
LINEPATTERN
350
38
  3
OVERHANGOFF
350
3C
  3
REALISTIC
350
33
  3
SHADED
350
42
  3
SHADED_WITH_EDGES
350
41
  3
SHADES_OF_GRAY
350
3E
  3
SKETCHY
350
3F
  3
THICKEN
350
37
  3
WIREFRAME
350
30
  3
X-RAY
350
40
  0
DICTIONARY
  5
21B
102
{ACAD_REACTORS
330
C
102
}
330
C
100
AcDbDictionary
  3
CEPSNID
350
225
  3
CEPSNTYPE
350
224
  3
DIMSTYLEDATA
350
23B
  3
FINGERPRINTGUID
350
226
  3
HYPERLINKBASE
350
21E
  3
INSUNITS
350
223
  3
LAYOUTDICT
350
220
  3
LWETCUNION
350
222
  3
PLOTSETDICT
350
221
  3
PSVPSCALE
350
228
  3
PUCSBASE
350
22B
  3
PUCSORGBACK
350
231
  3
PUCSORGBOTTOM
350
22D
  3
PUCSORGFRONT
350
230
  3
PUCSORGLEFT
350
22E
  3
PUCSORGRIGHT
350
22F
  3
PUCSORGTOP
350
22C
  3
PUCSORTHOREF
350
229
  3
PUCSORTHOVIEW
350
22A
  3
STYLESHEET
350
21F
  3
TSTACKALIGN
350
21C
  3
TSTACKSIZE
350
21D
  3
UCSBASE
350
234
  3
UCSORGBACK
350
23A
  3
UCSORGBOTTOM
350
236
  3
UCSORGFRONT
350
239
  3
UCSORGLEFT
350
237
  3
UCSORGRIGHT
350
238
  3
UCSORGTOP
350
235
  3
UCSORTHOREF
350
232
  3
UCSORTHOVIEW
350
233
  3
VERSIONGUID
350
227
  0
DICTIONARY
  5
23C
102
{ACAD_REACTORS
330
C
102
}
330
C
100
AcDbDictionary
  3
CANNOSCALE
350
246
  3
CMLEADERSTYLE
350
23E
  3
CTABLESTYLE
350
23D
  3
DIMASSOC
350
241
  3
HIDETEXT
350
242
  3
MSLTSCALE
350
247
  0
XRECORD
  5
243
102
{ACAD_REACTORS
330
C
102
}
330
C
100
AcDbXrecord
  1
DWGPROPS COOKIE
  2

  3

  4

  6

  7

  8
clayt
  9

300
=
301
=
302
=
303
=
304
=
305
=
306
=
307
=
308
=
309
=
 40
0.0
 41
2461249.395592848
 42
2461249.39559294
  1

 90
        0
  0
XRECORD
  5
245
102
{ACAD_REACTORS
330
244
102
}
330
244
100
AcDbXrecord
102
VTR_0.000_0.000_1.000_1.000_VISUALSTYLE
340
2F
102
VTR_0.000_0.000_1.000_1.000_GRIDDISPLAY
 70
     3
102
VTR_0.000_0.000_1.000_1.000_GRIDMAJOR
 70
     5
102
VTR_0.000_0.000_1.000_1.000_DEFAULTLIGHTING
280
     1
102
VTR_0.000_0.000_1.000_1.000_DEFAULTLIGHTINGTYPE
 70
     1
102
VTR_0.000_0.000_1.000_1.000_BRIGHTNESS
141
0.0
102
VTR_0.000_0.000_1.000_1.000_CONTRAST
142
0.0
  0
MATERIAL
  5
45
102
{ACAD_REACTORS
330
43
102
}
102
{ACAD_XDICTIONARY
360
24A
102
}
330
43
100
AcDbMaterial
  1
BYBLOCK
  0
MATERIAL
  5
44
102
{ACAD_REACTORS
330
43
102
}
102
{ACAD_XDICTIONARY
360
248
102
}
330
43
100
AcDbMaterial
  1
BYLAYER
  0
MATERIAL
  5
46
102
{ACAD_REACTORS
330
43
102
}
102
{ACAD_XDICTIONARY
360
24C
102
}
330
43
100
AcDbMaterial
  1
GLOBAL
  0
ACAD_PROXY_OBJECT
  5
5C
102
{ACAD_REACTORS
330
5B
102
}
330
5B
100
AcDbProxyObject
 90
      499
 91
      505
 93
      610
310
40901902A4063FBFFFFFE056BD1B81E855B9FC0AD7A3703D0AD73F4214DD185B99185C9900AD7A3703D0AC73F90141901A02B5E8DC0F42B1CFC02B5E8DC0F42B1CFE5764000000000000300FC0
340
14
340
0
340
11
340
0
 94
        0
1001
ACAD_MLEADERVER
1070
     2
  0
MLINESTYLE
  5
18
102
{ACAD_REACTORS
330
17
102
}
330
17
100
AcDbMlineStyle
  2
Standard
 70
     0
  3

 62
   256
 51
90.0
 52
90.0
 71
     2
 49
0.5
 62
   256
  6
BYLAYER
 49
-0.5
 62
   256
  6
BYLAYER
  0
ACAD_PROXY_OBJECT
  5
48
102
{ACAD_REACTORS
330
47
102
}
330
47
100
AcDbProxyObject
 90
      499
 91
      503
 93
       41
310
903313A31580
  0
ACAD_PROXY_OBJECT
  5
49
102
{ACAD_REACTORS
330
47
102
}
330
47
100
AcDbProxyObject
 90
      499
 91
      503
 93
      257
310
90E312F31323822203D2031272D3022000000000000200FC000000000000284000
  0
ACAD_PROXY_OBJECT
  5
4A
102
{ACAD_REACTORS
330
47
102
}
330
47
100
AcDbProxyObject
 90
      499
 91
      503
 93
      249
310
90D312F363422203D2031272D3022000000000000240FC000000000000284000
  0
ACAD_PROXY_OBJECT
  5
4B
102
{ACAD_REACTORS
330
47
102
}
330
47
100
AcDbProxyObject
 90
      499
 91
      503
 93
      249
310
90D312F333222203D2031272D3022000000000000280FC000000000000284000
  0
ACAD_PROXY_OBJECT
  5
4C
102
{ACAD_REACTORS
330
47
102
}
330
47
100
AcDbProxyObject
 90
      499
 91
      503
 93
      249
310
90D312F313622203D2031272D30220000000000002C0FC000000000000284000
  0
ACAD_PROXY_OBJECT
  5
4D
102
{ACAD_REACTORS
330
47
102
}
330
47
100
AcDbProxyObject
 90
      499
 91
      503
 93
      249
310
90D332F333222203D2031272D30220000000000002E0FC000000000000284000
  0
ACAD_PROXY_OBJECT
  5
4E
102
{ACAD_REACTORS
330
47
102
}
330
47
100
AcDbProxyObject
 90
      499
 91
      503
 93
      241
310
90C312F3822203D2031272D3022000000000000300FC000000000000284000
  0
ACAD_PROXY_OBJECT
  5
4F
102
{ACAD_REACTORS
330
47
102
}
330
47
100
AcDbProxyObject
 90
      499
 91
      503
 93
      249
310
90D332F313622203D2031272D3022000000000000320FC000000000000284000
  0
ACAD_PROXY_OBJECT
  5
50
102
{ACAD_REACTORS
330
47
102
}
330
47
100
AcDbProxyObject
 90
      499
 91
      503
 93
      241
310
90C312F3422203D2031272D3022000000000000340FC000000000000284000
  0
ACAD_PROXY_OBJECT
  5
51
102
{ACAD_REACTORS
330
47
102
}
330
47
100
AcDbProxyObject
 90
      499
 91
      503
 93
      241
310
90C332F3822203D2031272D3022000000000000360FC000000000000284000
  0
ACAD_PROXY_OBJECT
  5
52
102
{ACAD_REACTORS
330
47
102
}
330
47
100
AcDbProxyObject
 90
      499
 91
      503
 93
      241
310
90C312F3222203D2031272D3022000000000000380FC000000000000284000
  0
ACAD_PROXY_OBJECT
  5
53
102
{ACAD_REACTORS
330
47
102
}
330
47
100
AcDbProxyObject
 90
      499
 91
      503
 93
      241
310
90C332F3422203D2031272D30220000000000003A0FC000000000000284000
  0
ACAD_PROXY_OBJECT
  5
54
102
{ACAD_REACTORS
330
47
102
}
330
47
100
AcDbProxyObject
 90
      499
 91
      503
 93
      161
310
90A3122203D2031272D30224000000000000284000
  0
ACAD_PROXY_OBJECT
  5
55
102
{ACAD_REACTORS
330
47
102
}
330
47
100
AcDbProxyObject
 90
      499
 91
      503
 93
      257
310
90E312D312F3222203D2031272D30220000000000003E0FC000000000000284000
  0
ACAD_PROXY_OBJECT
  5
56
102
{ACAD_REACTORS
330
47
102
}
330
47
100
AcDbProxyObject
 90
      499
 91
      503
 93
      225
310
90A3322203D2031272D302200000000000002100000000000000284000
  0
ACAD_PROXY_OBJECT
  5
57
102
{ACAD_REACTORS
330
47
102
}
330
47
100
AcDbProxyObject
 90
      499
 91
      503
 93
      225
310
90A3622203D2031272D302200000000000006100000000000000284000
  0
ACAD_PROXY_OBJECT
  5
58
102
{ACAD_REACTORS
330
47
102
}
330
47
100
AcDbProxyObject
 90
      499
 91
      503
 93
      249
310
90D31272D3022203D2031272D30220000000000000A100000000000000284000
  0
ACAD_PROXY_OBJECT
  5
2F
102
{ACAD_REACTORS
330
2A
102
}
330
2A
100
AcDbProxyObject
 90
      499
 91
      501
 93
      436
310
42CC9915DA5C99599C985B595049028333333333333E33F0000000000000F90107901411070040501600405405064090741402480A0340
1001
ACAD
1000
AcDbSavedByObjectVersion
1070
     0
  0
ACAD_PROXY_OBJECT
  5
32
102
{ACAD_REACTORS
330
2A
102
}
330
2A
100
AcDbProxyObject
 90
      499
 91
      501
 93
      388
310
4150985CDA58D07406404333333333333E33F0000000000000F90107A41107004050150841D405064090741402480A0350
1001
ACAD
1000
AcDbSavedByObjectVersion
1070
     0
  0
ACAD_PROXY_OBJECT
  5
36
102
{ACAD_REACTORS
330
2A
102
}
330
2A
100
AcDbProxyObject
 90
      499
 91
      501
 93
      428
310
42109C9A59DA1D195B90C409028333333333333E33F0000000000000F9010790141107004050150841D405064090741402480A029950
1001
ACAD
1000
AcDbSavedByObjectVersion
1070
     0
  0
ACAD_PROXY_OBJECT
  5
3A
102
{ACAD_REACTORS
330
2A
102
}
330
2A
100
AcDbProxyObject
 90
      499
 91
      501
 93
      452
310
42D0DBDB1BDC90DA185B99D95104090240C333333333333E33F0000000000000F90108901411070040501508421405064090741402480A0350
1001
ACAD
1000
AcDbSavedByObjectVersion
1070
     0
  0
ACAD_PROXY_OBJECT
  5
34
102
{ACAD_REACTORS
330
2A
102
}
330
2A
100
AcDbProxyObject
 90
      499
 91
      501
 93
      500
310
4290DBDB98D95C1D1D585B10940D028333333333333E33F0000000000000F90107902409070040501000000000018199010841D405064090740C02480A0340
1001
ACAD
1000
AcDbSavedByObjectVersion
1070
     0
  0
ACAD_PROXY_OBJECT
  5
35
102
{ACAD_REACTORS
330
2A
102
}
330
2A
100
AcDbProxyObject
 90
      499
 91
      501
 93
      412
310
40D11A5B50B409028333333333333E33F0000000000000F9010790141107004050150841D405064090741402480A02677FFFFFD0
1001
ACAD
1000
AcDbSavedByObjectVersion
1070
     0
  0
ACAD_PROXY_OBJECT
  5
3D
102
{ACAD_REACTORS
330
2A
102
}
330
2A
100
AcDbProxyObject
 90
      499
 91
      501
 93
      452
310
43115919D950DBDB1BDC93D999916409028333333333333E33F0000000000000F9010790141107004050150841D405064090741402480A0350
1001
ACAD
1000
AcDbSavedByObjectVersion
1070
     0
  0
ACAD_PROXY_OBJECT
  5
39
102
{ACAD_REACTORS
330
2A
102
}
330
2A
100
AcDbProxyObject
 90
      499
 91
      501
 93
      444
310
42D19858D95C185D1D195C9B90F409028333333333333E33F0000000000000F9010790141107004050150841D405064090741402480A0350
1001
ACAD
1000
AcDbSavedByObjectVersion
1070
     0
  0
ACAD_PROXY_OBJECT
  5
2B
102
{ACAD_REACTORS
330
2A
102
}
330
2A
100
AcDbProxyObject
 90
      499
 91
      501
 93
      380
310
41119B185D240901404333333333333E33F0000000000000F9010740A907004050150841D405064090741402480A1B50
1001
ACAD
1000
AcDbSavedByObjectVersion
1070
     0
  0
ACAD_PROXY_OBJECT
  5
2C
102
{ACAD_REACTORS
330
2A
102
}
330
2A
100
AcDbProxyObject
 90
      499
 91
      501
 93
      468
310
43519B185D15DA5D1A115919D95CD0140901404333333333333E33F0000000000000F90107409019070040501600405405064090741402480A1B50
1001
ACAD
1000
AcDbSavedByObjectVersion
1070
     0
  0
ACAD_PROXY_OBJECT
  5
2D
102
{ACAD_REACTORS
330
2A
102
}
330
2A
100
AcDbProxyObject
 90
      499
 91
      501
 93
      404
310
41D1DBDD5C985D5910240902404333333333333E33F0000000000000F9010740A9070040501641D405064090741402480A1B50
1001
ACAD
1000
AcDbSavedByObjectVersion
1070
     0
  0
ACAD_PROXY_OBJECT
  5
2E
102
{ACAD_REACTORS
330
2A
102
}
330
2A
100
AcDbProxyObject
 90
      499
 91
      501
 93
      492
310
4411DBDD5C985D5915DA5D1A115919D95CD0340902404333333333333E33F0000000000000F90107409019070040501600405405064090741402480A1B50
1001
ACAD
1000
AcDbSavedByObjectVersion
1070
     0
  0
ACAD_PROXY_OBJECT
  5
31
102
{ACAD_REACTORS
330
2A
102
}
330
2A
100
AcDbProxyObject
 90
      499
 91
      501
 93
      476
310
41921A5919195B90640502408333333333333E33F0000000000000F901079024090700405020000000000001110200405405064090740C02480A0340
1001
ACAD
1000
AcDbSavedByObjectVersion
1070
     0
  0
ACAD_PROXY_OBJECT
  5
3B
102
{ACAD_REACTORS
330
2A
102
}
330
2A
100
AcDbProxyObject
 90
      499
 91
      501
 93
      428
310
42529A5D1D195C93D999914409028333333333333E33F0000000000000F9010790141107004050150A41D405064090741402480A0350
1001
ACAD
1000
AcDbSavedByObjectVersion
1070
     0
  0
ACAD_PROXY_OBJECT
  5
38
102
{ACAD_REACTORS
330
2A
102
}
330
2A
100
AcDbProxyObject
 90
      499
 91
      501
 93
      444
310
42D31A5B995C185D1D195C9B90E409028333333333333E33F0000000000000F9010790141107004050750841D405064090741402483A0350
1001
ACAD
1000
AcDbSavedByObjectVersion
1070
     0
  0
ACAD_PROXY_OBJECT
  5
3C
102
{ACAD_REACTORS
330
2A
102
}
330
2A
100
AcDbProxyObject
 90
      499
 91
      501
 93
      444
310
42D3DD995C9A185B99D3D999915409028333333333333E33F0000000000000F9010790141107004050150941D405064090741402480A0350
1001
ACAD
1000
AcDbSavedByObjectVersion
1070
     0
  0
ACAD_PROXY_OBJECT
  5
33
102
{ACAD_REACTORS
330
2A
102
}
330
2A
100
AcDbProxyObject
 90
      499
 91
      501
 93
      428
310
425499585B1A5CDD1A58D08409038333333333333E33F0000000000000F9010740A907004050150800405405064090740C02480A1B40
1001
ACAD
1000
AcDbSavedByObjectVersion
1070
     0
  0
ACAD_PROXY_OBJECT
  5
42
102
{ACAD_REACTORS
330
2A
102
}
330
2A
100
AcDbProxyObject
 90
      499
 91
      501
 93
      420
310
4194DA1859195911B40902404333333333333E33F0000000000000F9010740A41107004050150800405405064090840C02480A0B40
1001
ACAD
1000
AcDbSavedByObjectVersion
1070
     0
  0
ACAD_PROXY_OBJECT
  5
41
102
{ACAD_REACTORS
330
2A
102
}
330
2A
100
AcDbProxyObject
 90
      499
 91
      501
 93
      516
310
4454DA18591959081DDA5D1A08195919D95CD1A40902404333333333333E33F0000000000000F901074090142907004050250800405405064090740C02480A0B40
1001
ACAD
1000
AcDbSavedByObjectVersion
1070
     0
  0
ACAD_PROXY_OBJECT
  5
3E
102
{ACAD_REACTORS
330
2A
102
}
330
2A
100
AcDbProxyObject
 90
      499
 91
      501
 93
      532
310
4394DA1859195CC81BD98811DC985E5174090240C333333333333E33F0000000000000F901079024090741D01000000000000111010841D405064090740C02480A0340
1001
ACAD
1000
AcDbSavedByObjectVersion
1070
     0
  0
ACAD_PROXY_OBJECT
  5
3F
102
{ACAD_REACTORS
330
2A
102
}
330
2A
100
AcDbProxyObject
 90
      499
 91
      501
 93
      476
310
41D4DAD95D18DA1E51840502408333333333333E33F0000000000000F901079024090741D01000000000000111010B41D405064090741802480A0340
1001
ACAD
1000
AcDbSavedByObjectVersion
1070
     0
  0
ACAD_PROXY_OBJECT
  5
37
102
{ACAD_REACTORS
330
2A
102
}
330
2A
100
AcDbProxyObject
 90
      499
 91
      501
 93
      412
310
41D51A1A58DAD95B90D409028333333333333E33F0000000000000F9010790141107004050150C41D405064090741402480A0350
1001
ACAD
1000
AcDbSavedByObjectVersion
1070
     0
  0
ACAD_PROXY_OBJECT
  5
30
102
{ACAD_REACTORS
330
2A
102
}
330
2A
100
AcDbProxyObject
 90
      499
 91
      501
 93
      420
310
4255DA5C99599C985B595059028333333333333E33F0000000000000F90107901411070040501600405405064090740C02480A0340
1001
ACAD
1000
AcDbSavedByObjectVersion
1070
     0
  0
ACAD_PROXY_OBJECT
  5
40
102
{ACAD_REACTORS
330
2A
102
}
330
2A
100
AcDbProxyObject
 90
      499
 91
      501
 93
      404
310
41560B54985E51940902404000000000000E03F0000000000000F9010740501907004050150841D405064090740C02480A1B40
1001
ACAD
1000
AcDbSavedByObjectVersion
1070
     0
  0
XRECORD
  5
225
102
{ACAD_REACTORS
330
21B
102
}
330
21B
100
AcDbXrecord
340
0
  0
XRECORD
  5
224
102
{ACAD_REACTORS
330
21B
102
}
330
21B
100
AcDbXrecord
 90
        0
  0
XRECORD
  5
23B
102
{ACAD_REACTORS
330
21B
102
}
330
21B
100
AcDbXrecord
1000
DSTYLE
1002
{
1070
   171
 70
     2
1070
   143
 40
25.4
1070
   274
 70
     2
1070
    41
 40
0.18
1070
   141
 40
0.09
1070
   271
 70
     4
1070
    43
 40
0.38
1070
   278
 70
    46
1070
    44
 40
0.18
1070
    42
 40
0.0625
1070
   147
 40
0.09
1070
    77
 70
     0
1070
   272
 70
     4
1070
    73
 70
     1
1070
   279
 70
     2
1070
   172
 70
     0
1070
    74
 70
     1
1070
   283
 70
     1
1070
   340
340
11
1070
   140
 40
0.18
1070
   284
 70
     0
1070
    78
 70
     0
1002
}
  0
XRECORD
  5
226
102
{ACAD_REACTORS
330
21B
102
}
330
21B
100
AcDbXrecord
  1
{27a10600-f208-4129-ac40-b381b4871a66}
  0
XRECORD
  5
21E
102
{ACAD_REACTORS
330
21B
102
}
330
21B
100
AcDbXrecord
  1

  0
XRECORD
  5
223
102
{ACAD_REACTORS
330
21B
102
}
330
21B
100
AcDbXrecord
 90
        4
  0
XRECORD
  5
220
102
{ACAD_REACTORS
330
21B
102
}
330
21B
100
AcDbXrecord
340
1A
  0
XRECORD
  5
222
102
{ACAD_REACTORS
330
21B
102
}
330
21B
100
AcDbXrecord
 90
    10781
  0
XRECORD
  5
221
102
{ACAD_REACTORS
330
21B
102
}
330
21B
100
AcDbXrecord
340
19
  0
XRECORD
  5
228
102
{ACAD_REACTORS
330
21B
102
}
330
21B
100
AcDbXrecord
 40
0.0
  0
XRECORD
  5
22B
102
{ACAD_REACTORS
330
21B
102
}
330
21B
100
AcDbXrecord
340
0
  0
XRECORD
  5
231
102
{ACAD_REACTORS
330
21B
102
}
330
21B
100
AcDbXrecord
 10
0.0
 20
0.0
 30
0.0
  0
XRECORD
  5
22D
102
{ACAD_REACTORS
330
21B
102
}
330
21B
100
AcDbXrecord
 10
0.0
 20
0.0
 30
0.0
  0
XRECORD
  5
230
102
{ACAD_REACTORS
330
21B
102
}
330
21B
100
AcDbXrecord
 10
0.0
 20
0.0
 30
0.0
  0
XRECORD
  5
22E
102
{ACAD_REACTORS
330
21B
102
}
330
21B
100
AcDbXrecord
 10
0.0
 20
0.0
 30
0.0
  0
XRECORD
  5
22F
102
{ACAD_REACTORS
330
21B
102
}
330
21B
100
AcDbXrecord
 10
0.0
 20
0.0
 30
0.0
  0
XRECORD
  5
22C
102
{ACAD_REACTORS
330
21B
102
}
330
21B
100
AcDbXrecord
 10
0.0
 20
0.0
 30
0.0
  0
XRECORD
  5
229
102
{ACAD_REACTORS
330
21B
102
}
330
21B
100
AcDbXrecord
340
0
  0
XRECORD
  5
22A
102
{ACAD_REACTORS
330
21B
102
}
330
21B
100
AcDbXrecord
 70
     0
  0
XRECORD
  5
21F
102
{ACAD_REACTORS
330
21B
102
}
330
21B
100
AcDbXrecord
  1

  0
XRECORD
  5
21C
102
{ACAD_REACTORS
330
21B
102
}
330
21B
100
AcDbXrecord
 90
        1
  0
XRECORD
  5
21D
102
{ACAD_REACTORS
330
21B
102
}
330
21B
100
AcDbXrecord
 90
       70
  0
XRECORD
  5
234
102
{ACAD_REACTORS
330
21B
102
}
330
21B
100
AcDbXrecord
340
0
  0
XRECORD
  5
23A
102
{ACAD_REACTORS
330
21B
102
}
330
21B
100
AcDbXrecord
 10
0.0
 20
0.0
 30
0.0
  0
XRECORD
  5
236
102
{ACAD_REACTORS
330
21B
102
}
330
21B
100
AcDbXrecord
 10
0.0
 20
0.0
 30
0.0
  0
XRECORD
  5
239
102
{ACAD_REACTORS
330
21B
102
}
330
21B
100
AcDbXrecord
 10
0.0
 20
0.0
 30
0.0
  0
XRECORD
  5
237
102
{ACAD_REACTORS
330
21B
102
}
330
21B
100
AcDbXrecord
 10
0.0
 20
0.0
 30
0.0
  0
XRECORD
  5
238
102
{ACAD_REACTORS
330
21B
102
}
330
21B
100
AcDbXrecord
 10
0.0
 20
0.0
 30
0.0
  0
XRECORD
  5
235
102
{ACAD_REACTORS
330
21B
102
}
330
21B
100
AcDbXrecord
 10
0.0
 20
0.0
 30
0.0
  0
XRECORD
  5
232
102
{ACAD_REACTORS
330
21B
102
}
330
21B
100
AcDbXrecord
340
0
  0
XRECORD
  5
233
102
{ACAD_REACTORS
330
21B
102
}
330
21B
100
AcDbXrecord
 70
     0
  0
XRECORD
  5
227
102
{ACAD_REACTORS
330
21B
102
}
330
21B
100
AcDbXrecord
  1
{FAEB1C32-E019-11D5-929B-00C0DF256EC4}
  0
DICTIONARYVAR
  5
246
102
{ACAD_REACTORS
330
23C
102
}
330
23C
100
DictionaryVariables
280
     0
  1
1:1
  0
DICTIONARYVAR
  5
23E
102
{ACAD_REACTORS
330
23C
102
}
330
23C
100
DictionaryVariables
280
     0
  1
Standard
  0
DICTIONARYVAR
  5
23D
102
{ACAD_REACTORS
330
23C
102
}
330
23C
100
DictionaryVariables
280
     0
  1
Standard
  0
DICTIONARYVAR
  5
241
102
{ACAD_REACTORS
330
23C
102
}
330
23C
100
DictionaryVariables
280
     0
  1
2
  0
DICTIONARYVAR
  5
242
102
{ACAD_REACTORS
330
23C
102
}
330
23C
100
DictionaryVariables
280
     0
  1
1
  0
DICTIONARYVAR
  5
247
102
{ACAD_REACTORS
330
23C
102
}
330
23C
100
DictionaryVariables
280
     0
  1
1
  0
DICTIONARY
  5
24A
330
45
100
AcDbDictionary
280
     1
  3
ACAD_XREC_ROUNDTRIP
360
24B
  0
DICTIONARY
  5
248
330
44
100
AcDbDictionary
280
     1
  3
ACAD_XREC_ROUNDTRIP
360
249
  0
DICTIONARY
  5
24C
330
46
100
AcDbDictionary
280
     1
  3
ACAD_XREC_ROUNDTRIP
360
24D
  0
XRECORD
  5
24B
102
{ACAD_REACTORS
330
24A
102
}
330
24A
100
AcDbXrecord
102
MATERIAL
148
0.0
149
0.0
149
0.0
 93
        0
 94
      127
282
     0
 72
     1
 77
     1
171
     1
175
     1
179
     1
273
     0
  0
XRECORD
  5
249
102
{ACAD_REACTORS
330
248
102
}
330
248
100
AcDbXrecord
102
MATERIAL
148
0.0
149
0.0
149
0.0
 93
        0
 94
      127
282
     0
 72
     1
 77
     1
171
     1
175
     1
179
     1
273
     0
  0
XRECORD
  5
24D
102
{ACAD_REACTORS
330
24C
102
}
330
24C
100
AcDbXrecord
102
MATERIAL
148
0.0
149
0.0
149
0.0
 93
        0
 94
      127
282
     0
 72
     1
 77
     1
171
     1
175
     1
179
     1
273
     0
  0
ENDSEC
  0
EOF
