  0
SECTION
  2
HEADER
  9
$ACADVER
  1
AC1014
  9
$ACADMAINTVER
 70
     9
  9
$DWGCODEPAGE
  3
ANSI_1252
  9
$INSBASE
 10
0.0
 20
0.0
 30
0.0
  9
$EXTMIN
 10
-861.2055583173379
 20
-189.9568523144771
 30
-0.0000000000609148
  9
$EXTMAX
 10
886.294174359371
 20
207.5431476900121
 30
0.0
  9
$LIMMIN
 10
0.0
 20
0.0
  9
$LIMMAX
 10
12.0
 20
9.0
  9
$ORTHOMODE
 70
     0
  9
$REGENMODE
 70
     1
  9
$FILLMODE
 70
     1
  9
$QTEXTMODE
 70
     0
  9
$MIRRTEXT
 70
     1
  9
$DRAGMODE
 70
     2
  9
$LTSCALE
 40
1.0
  9
$OSMODE
 70
    37
  9
$ATTMODE
 70
     1
  9
$TEXTSIZE
 40
0.2
  9
$TRACEWID
 40
0.05
  9
$TEXTSTYLE
  7
STANDARD
  9
$CLAYER
  8
0
  9
$CELTYPE
  6
BYLAYER
  9
$CECOLOR
 62
   256
  9
$CELTSCALE
 40
1.0
  9
$DELOBJ
 70
     1
  9
$DISPSILH
 70
     0
  9
$DIMSCALE
 40
1.0
  9
$DIMASZ
 40
0.18
  9
$DIMEXO
 40
0.0625
  9
$DIMDLI
 40
0.38
  9
$DIMRND
 40
0.0
  9
$DIMDLE
 40
0.0
  9
$DIMEXE
 40
0.18
  9
$DIMTP
 40
0.0
  9
$DIMTM
 40
0.0
  9
$DIMTXT
 40
0.18
  9
$DIMCEN
 40
0.09
  9
$DIMTSZ
 40
0.0
  9
$DIMTOL
 70
     0
  9
$DIMLIM
 70
     0
  9
$DIMTIH
 70
     1
  9
$DIMTOH
 70
     1
  9
$DIMSE1
 70
     0
  9
$DIMSE2
 70
     0
  9
$DIMTAD
 70
     0
  9
$DIMZIN
 70
     0
  9
$DIMBLK
  1

  9
$DIMASO
 70
     1
  9
$DIMSHO
 70
     1
  9
$DIMPOST
  1

  9
$DIMAPOST
  1

  9
$DIMALT
 70
     0
  9
$DIMALTD
 70
     2
  9
$DIMALTF
 40
25.4
  9
$DIMLFAC
 40
1.0
  9
$DIMTOFL
 70
     0
  9
$DIMTVP
 40
0.0
  9
$DIMTIX
 70
     0
  9
$DIMSOXD
 70
     0
  9
$DIMSAH
 70
     0
  9
$DIMBLK1
  1

  9
$DIMBLK2
  1

  9
$DIMSTYLE
  2
STANDARD_ACAD
  9
$DIMCLRD
 70
     0
  9
$DIMCLRE
 70
     0
  9
$DIMCLRT
 70
     0
  9
$DIMTFAC
 40
1.0
  9
$DIMGAP
 40
0.09
  9
$DIMJUST
 70
     0
  9
$DIMSD1
 70
     0
  9
$DIMSD2
 70
     0
  9
$DIMTOLJ
 70
     1
  9
$DIMTZIN
 70
     0
  9
$DIMALTZ
 70
     0
  9
$DIMALTTZ
 70
     0
  9
$DIMFIT
 70
     5
  9
$DIMUPT
 70
     0
  9
$DIMUNIT
 70
     2
  9
$DIMDEC
 70
     4
  9
$DIMTDEC
 70
     4
  9
$DIMALTU
 70
     2
  9
$DIMALTTD
 70
     2
  9
$DIMTXSTY
  7
STANDARD
  9
$DIMAUNIT
 70
     0
  9
$LUNITS
 70
     2
  9
$LUPREC
 70
     2
  9
$SKETCHINC
 40
0.1
  9
$FILLETRAD
 40
0.0
  9
$AUNITS
 70
     0
  9
$AUPREC
 70
     0
  9
$MENU
  1
.
  9
$ELEVATION
 40
0.0
  9
$PELEVATION
 40
0.0
  9
$THICKNESS
 40
0.0
  9
$LIMCHECK
 70
     0
  9
$CHAMFERA
 40
0.0
  9
$CHAMFERB
 40
0.0
  9
$CHAMFERC
 40
0.0
  9
$CHAMFERD
 40
0.0
  9
$SKPOLY
 70
     0
  9
$TDCREATE
 40
2461249.437226308
  9
$TDUPDATE
 40
2461249.437226389
  9
$TDINDWG
 40
0.0000000116
  9
$TDUSRTIMER
 40
0.0000000116
  9
$USRTIMER
 70
     1
  9
$ANGBASE
 50
0.0
  9
$ANGDIR
 70
     0
  9
$PDMODE
 70
     0
  9
$PDSIZE
 40
0.0
  9
$PLINEWID
 40
0.0
  9
$COORDS
 70
     1
  9
$SPLFRAME
 70
     0
  9
$SPLINETYPE
 70
     6
  9
$SPLINESEGS
 70
     8
  9
$ATTDIA
 70
     0
  9
$ATTREQ
 70
     1
  9
$HANDLING
 70
     1
  9
$HANDSEED
  5
1DB
  9
$SURFTAB1
 70
     6
  9
$SURFTAB2
 70
     6
  9
$SURFTYPE
 70
     6
  9
$SURFU
 70
     6
  9
$SURFV
 70
     6
  9
$UCSNAME
  2

  9
$UCSORG
 10
0.0
 20
0.0
 30
0.0
  9
$UCSXDIR
 10
1.0
 20
0.0
 30
0.0
  9
$UCSYDIR
 10
0.0
 20
1.0
 30
0.0
  9
$PUCSNAME
  2

  9
$PUCSORG
 10
0.0
 20
0.0
 30
0.0
  9
$PUCSXDIR
 10
1.0
 20
0.0
 30
0.0
  9
$PUCSYDIR
 10
0.0
 20
1.0
 30
0.0
  9
$USERI1
 70
     0
  9
$USERI2
 70
     0
  9
$USERI3
 70
     0
  9
$USERI4
 70
     0
  9
$USERI5
 70
     0
  9
$USERR1
 40
0.0
  9
$USERR2
 40
0.0
  9
$USERR3
 40
0.0
  9
$USERR4
 40
0.0
  9
$USERR5
 40
0.0
  9
$WORLDVIEW
 70
     1
  9
$SHADEDGE
 70
     3
  9
$SHADEDIF
 70
    70
  9
$TILEMODE
 70
     1
  9
$MAXACTVP
 70
    64
  9
$PINSBASE
 10
0.0
 20
0.0
 30
0.0
  9
$PLIMCHECK
 70
     0
  9
$PEXTMIN
 10
1.000000000000000E+20
 20
1.000000000000000E+20
 30
1.000000000000000E+20
  9
$PEXTMAX
 10
-1.000000000000000E+20
 20
-1.000000000000000E+20
 30
-1.000000000000000E+20
  9
$PLIMMIN
 10
0.0
 20
0.0
  9
$PLIMMAX
 10
12.0
 20
9.0
  9
$UNITMODE
 70
     0
  9
$VISRETAIN
 70
     1
  9
$PLINEGEN
 70
     0
  9
$PSLTSCALE
 70
     1
  9
$TREEDEPTH
 70
  3020
  9
$PICKSTYLE
 70
     1
  9
$CMLSTYLE
  2
STANDARD
  9
$CMLJUST
 70
     0
  9
$CMLSCALE
 40
1.0
  9
$PROXYGRAPHICS
 70
     1
  9
$MEASUREMENT
 70
     1
  0
ENDSEC
  0
SECTION
  2
CLASSES
  0
CLASS
  1
ACDBDICTIONARYWDFLT
  2
AcDbDictionaryWithDefault
  3
ObjectDBX Classes
 90
        0
280
     0
281
     0
  0
CLASS
  1
VISUALSTYLE
  2
AcDbVisualStyle
  3
ObjectDBX Classes
 90
     4095
280
     0
281
     0
  0
CLASS
  1
MATERIAL
  2
AcDbMaterial
  3
ObjectDBX Classes
 90
     1153
280
     0
281
     0
  0
CLASS
  1
SCALE
  2
AcDbScale
  3
ObjectDBX Classes
 90
     1153
280
     0
281
     0
  0
CLASS
  1
TABLESTYLE
  2
AcDbTableStyle
  3
ObjectDBX Classes
 90
     4095
280
     0
281
     0
  0
CLASS
  1
MLEADERSTYLE
  2
AcDbMLeaderStyle
  3
ACDB_MLEADERSTYLE_CLASS
 90
     4095
280
     0
281
     0
  0
CLASS
  1
SUN
  2
AcDbSun
  3
SCENEOE
 90
     1153
280
     0
281
     0
  0
CLASS
  1
DICTIONARYVAR
  2
AcDbDictionaryVar
  3
ObjectDBX Classes
 90
        0
280
     0
281
     0
  0
CLASS
  1
XRECORD
  2
AcDbXrecord
  3
ObjectDBX Classes
 90
        0
280
     0
281
     0
  0
CLASS
  1
LWPOLYLINE
  2
AcDbPolyline
  3
ObjectDBX Classes
 90
        0
280
     0
281
     1
  0
CLASS
  1
HATCH
  2
AcDbHatch
  3
ObjectDBX Classes
 90
        0
280
     0
281
     1
  0
CLASS
  1
ACDBPLACEHOLDER
  2
AcDbPlaceHolder
  3
ObjectDBX Classes
 90
        0
280
     0
281
     0
  0
CLASS
  1
LAYOUT
  2
AcDbLayout
  3
ObjectDBX Classes
 90
        0
280
     0
281
     0
  0
ENDSEC
  0
SECTION
  2
TABLES
  0
TABLE
  2
VPORT
  5
8
102
{ACAD_XDICTIONARY
360
1D0
102
}
330
0
100
AcDbSymbolTable
 70
     1
  0
VPORT
  5
29
330
8
100
AcDbSymbolTableRecord
100
AcDbViewportTableRecord
  2
*ACTIVE
 70
     0
 10
0.0
 20
0.0
 11
1.0
 21
1.0
 12
10.42990654205607
 22
4.5
 13
0.0
 23
0.0
 14
0.5
 24
0.5
 15
0.5
 25
0.5
 16
0.0
 26
0.0
 36
1.0
 17
0.0
 27
0.0
 37
0.0
 40
9.0
 41
1.972972972850329
 42
50.0
 43
0.0
 44
0.0
 50
0.0
 51
0.0
 71
     0
 72
   100
 73
     1
 74
     3
 75
     0
 76
     0
 77
     0
 78
     0
  0
ENDTAB
  0
TABLE
  2
LTYPE
  5
5
330
0
100
AcDbSymbolTable
 70
     1
  0
LTYPE
  5
14
330
5
100
AcDbSymbolTableRecord
100
AcDbLinetypeTableRecord
  2
BYBLOCK
 70
     0
  3

 72
    65
 73
     0
 40
0.0
  0
LTYPE
  5
15
330
5
100
AcDbSymbolTableRecord
100
AcDbLinetypeTableRecord
  2
BYLAYER
 70
     0
  3

 72
    65
 73
     0
 40
0.0
  0
LTYPE
  5
16
330
5
100
AcDbSymbolTableRecord
100
AcDbLinetypeTableRecord
  2
CONTINUOUS
 70
     0
  3
Solid line
 72
    65
 73
     0
 40
0.0
  0
ENDTAB
  0
TABLE
  2
LAYER
  5
2
330
0
100
AcDbSymbolTable
 70
     4
  0
LAYER
  5
10
330
2
100
AcDbSymbolTableRecord
100
AcDbLayerTableRecord
  2
0
 70
     0
 62
     7
  6
CONTINUOUS
  0
LAYER
  5
5F
330
2
100
AcDbSymbolTableRecord
100
AcDbLayerTableRecord
  2
1_ANYTOOL_1MMDEEP_LABELS_S
 70
     0
 62
     2
  6
CONTINUOUS
  0
LAYER
  5
71
330
2
100
AcDbSymbolTableRecord
100
AcDbLayerTableRecord
  2
3_ANYTOOL_CUTTHROUGH_INSID
 70
     0
 62
     4
  6
CONTINUOUS
  0
LAYER
  5
120
330
2
100
AcDbSymbolTableRecord
100
AcDbLayerTableRecord
  2
4_ANYTOOL_CUTTHROUGH_OUTSI
 70
     0
 62
     5
  6
CONTINUOUS
  0
ENDTAB
  0
TABLE
  2
STYLE
  5
3
330
0
100
AcDbSymbolTable
 70
     1
  0
STYLE
  5
11
330
3
100
AcDbSymbolTableRecord
100
AcDbTextStyleTableRecord
  2
STANDARD
 70
     0
 40
0.0
 41
1.0
 50
0.0
 71
     0
 42
0.2
  3
txt
  4

  0
ENDTAB
  0
TABLE
  2
VIEW
  5
6
330
0
100
AcDbSymbolTable
 70
     0
  0
ENDTAB
  0
TABLE
  2
UCS
  5
7
330
0
100
AcDbSymbolTable
 70
     0
  0
ENDTAB
  0
TABLE
  2
APPID
  5
9
330
0
100
AcDbSymbolTable
 70
     3
  0
APPID
  5
12
330
9
100
AcDbSymbolTableRecord
100
AcDbRegAppTableRecord
  2
ACAD
 70
     0
  0
APPID
  5
5E
330
9
100
AcDbSymbolTableRecord
100
AcDbRegAppTableRecord
  2
RHINO
 70
     0
  0
APPID
  5
1DA
330
9
100
AcDbSymbolTableRecord
100
AcDbRegAppTableRecord
  2
ACAD_MLEADERVER
 70
     0
  0
ENDTAB
  0
TABLE
  2
DIMSTYLE
  5
A
330
0
100
AcDbSymbolTable
 70
     1
  0
DIMSTYLE
105
27
330
A
100
AcDbSymbolTableRecord
100
AcDbDimStyleTableRecord
  2
STANDARD_ACAD
 70
     0
  3

  4

  5

  6

  7

 40
1.0
 41
0.18
 42
0.0625
 43
0.38
 44
0.18
 45
0.0
 46
0.0
 47
0.0
 48
0.0
140
0.18
141
0.09
142
0.0
143
25.4
144
1.0
145
0.0
146
1.0
147
0.09
 71
     0
 72
     0
 73
     1
 74
     1
 75
     0
 76
     0
 77
     0
 78
     0
170
     0
171
     2
172
     0
173
     0
174
     0
175
     0
176
     0
177
     0
178
     0
270
     2
271
     4
272
     4
273
     2
274
     2
340
11
275
     0
280
     0
281
     0
282
     0
283
     1
284
     0
285
     0
286
     0
287
     3
288
     0
  0
ENDTAB
  0
TABLE
  2
BLOCK_RECORD
  5
1
330
0
100
AcDbSymbolTable
 70
     0
  0
BLOCK_RECORD
  5
1F
330
1
100
AcDbSymbolTableRecord
100
AcDbBlockTableRecord
  2
*MODEL_SPACE
  0
BLOCK_RECORD
  5
1B
330
1
100
AcDbSymbolTableRecord
100
AcDbBlockTableRecord
  2
*PAPER_SPACE
  0
ENDTAB
  0
ENDSEC
  0
SECTION
  2
BLOCKS
  0
BLOCK
  5
20
330
1F
100
AcDbEntity
  8
0
100
AcDbBlockBegin
  2
*MODEL_SPACE
 70
     0
 10
0.0
 20
0.0
 30
0.0
  3
*MODEL_SPACE
  1

  0
ENDBLK
  5
21
330
1F
100
AcDbEntity
  8
0
100
AcDbBlockEnd
  0
BLOCK
  5
1C
330
1B
100
AcDbEntity
 67
     1
  8
0
100
AcDbBlockBegin
  2
*PAPER_SPACE
 70
     0
 10
0.0
 20
0.0
 30
0.0
  3
*PAPER_SPACE
  1

  0
ENDBLK
  5
1D
330
1B
100
AcDbEntity
 67
     1
  8
0
100
AcDbBlockEnd
  0
ENDSEC
  0
SECTION
  2
ENTITIES
  0
POLYLINE
  5
60
330
1F
100
AcDbEntity
  8
1_ANYTOOL_1MMDEEP_LABELS_S
100
AcDb2dPolyline
 66
     1
 10
0.0
 20
0.0
 30
0.0
  0
VERTEX
  5
61
330
60
100
AcDbEntity
  8
1_ANYTOOL_1MMDEEP_LABELS_S
100
AcDbVertex
100
AcDb2dVertex
 10
21.94285714284342
 20
-30.0
 30
0.0
  0
VERTEX
  5
62
330
60
100
AcDbEntity
  8
1_ANYTOOL_1MMDEEP_LABELS_S
100
AcDbVertex
100
AcDb2dVertex
 10
2.999999999986358
 20
-30.0
 30
0.0
  0
VERTEX
  5
63
330
60
100
AcDbEntity
  8
1_ANYTOOL_1MMDEEP_LABELS_S
100
AcDbVertex
100
AcDb2dVertex
 10
2.999999999986358
 20
0.0
 30
0.0
  0
VERTEX
  5
64
330
60
100
AcDbEntity
  8
1_ANYTOOL_1MMDEEP_LABELS_S
100
AcDbVertex
100
AcDb2dVertex
 10
20.82857142855755
 20
0.0
 30
0.0
  0
SEQEND
  5
65
330
60
100
AcDbEntity
  8
1_ANYTOOL_1MMDEEP_LABELS_S
  0
LINE
  5
66
330
1F
100
AcDbEntity
  8
1_ANYTOOL_1MMDEEP_LABELS_S
100
AcDbLine
 10
17.65714285712966
 20
-13.92857142857247
 30
0.0
 11
2.999999999986358
 21
-13.92857142857247
 31
0.0
  0
LINE
  5
67
330
1F
100
AcDbEntity
  8
1_ANYTOOL_1MMDEEP_LABELS_S
100
AcDbLine
 10
34.15714285712966
 20
-16.11428571428405
 30
0.0
 11
25.37142857141498
 21
-16.19999999999709
 31
0.0
  0
POLYLINE
  5
68
330
1F
100
AcDbEntity
  8
1_ANYTOOL_1MMDEEP_LABELS_S
100
AcDb2dPolyline
 66
     1
 10
0.0
 20
0.0
 30
0.0
  0
VERTEX
  5
69
330
68
100
AcDbEntity
  8
1_ANYTOOL_1MMDEEP_LABELS_S
100
AcDbVertex
100
AcDb2dVertex
 10
39.29999999998654
 20
0.0
 30
0.0
  0
VERTEX
  5
6A
330
68
100
AcDbEntity
  8
1_ANYTOOL_1MMDEEP_LABELS_S
100
AcDbVertex
100
AcDb2dVertex
 10
39.29999999998654
 20
-30.0
 30
0.0
  0
VERTEX
  5
6B
330
68
100
AcDbEntity
  8
1_ANYTOOL_1MMDEEP_LABELS_S
100
AcDbVertex
100
AcDb2dVertex
 10
56.39999999998599
 20
-30.0
 30
0.0
  0
SEQEND
  5
6C
330
68
100
AcDbEntity
  8
1_ANYTOOL_1MMDEEP_LABELS_S
  0
LINE
  5
6D
330
1F
100
AcDbEntity
  8
1_ANYTOOL_1MMDEEP_LABELS_S
100
AcDbLine
 10
76.54285714284379
 20
-0.4714285714289872
 30
0.0
 11
59.35714285712947
 21
-31.24285714285361
 31
0.0
  0
LINE
  5
6E
330
1F
100
AcDbEntity
  8
1_ANYTOOL_1MMDEEP_LABELS_S
100
AcDbLine
 10
80.01428571427186
 20
0.0
 30
0.0
 11
80.01428571427186
 21
-30.0
 31
0.0
  0
LINE
  5
6F
330
1F
100
AcDbEntity
  8
1_ANYTOOL_1MMDEEP_LABELS_S
100
AcDbLine
 10
98.31428571427205
 20
-30.0
 30
0.0
 11
98.31428571427205
 21
0.0
 31
0.0
  0
LINE
  5
70
330
1F
100
AcDbEntity
  8
1_ANYTOOL_1MMDEEP_LABELS_S
100
AcDbLine
 10
98.31428571427205
 20
-14.69999999999709
 30
0.0
 11
80.01428571427186
 21
-14.69999999999709
 31
0.0
  0
POLYLINE
  5
72
330
1F
100
AcDbEntity
  8
3_ANYTOOL_CUTTHROUGH_INSID
100
AcDb2dPolyline
 66
     1
 10
0.0
 20
0.0
 30
0.0
 70
     1
  0
VERTEX
  5
73
330
72
100
AcDbEntity
  8
3_ANYTOOL_CUTTHROUGH_INSID
100
AcDbVertex
100
AcDb2dVertex
 10
712.7941743593537
 20
76.04314768746553
 30
0.0
  0
VERTEX
  5
74
330
72
100
AcDbEntity
  8
3_ANYTOOL_CUTTHROUGH_INSID
100
AcDbVertex
100
AcDb2dVertex
 10
700.2941743593519
 20
76.04314768743643
 30
0.0
  0
VERTEX
  5
75
330
72
100
AcDbEntity
  8
3_ANYTOOL_CUTTHROUGH_INSID
100
AcDbVertex
100
AcDb2dVertex
 10
700.2941743593665
 20
-6.456852312578121
 30
0.0
  0
VERTEX
  5
76
330
72
100
AcDbEntity
  8
3_ANYTOOL_CUTTHROUGH_INSID
100
AcDbVertex
100
AcDb2dVertex
 10
712.7941743593674
 20
-6.456852312549017
 30
0.0
  0
VERTEX
  5
77
330
72
100
AcDbEntity
  8
3_ANYTOOL_CUTTHROUGH_INSID
100
AcDbVertex
100
AcDb2dVertex
 10
712.7941743593547
 20
-0.4568523125490174
 30
0.0
  0
VERTEX
  5
78
330
72
100
AcDbEntity
  8
3_ANYTOOL_CUTTHROUGH_INSID
100
AcDbVertex
100
AcDb2dVertex
 10
724.7941743593537
 20
-0.4568523125490174
 30
0.0
  0
VERTEX
  5
79
330
72
100
AcDbEntity
  8
3_ANYTOOL_CUTTHROUGH_INSID
100
AcDbVertex
100
AcDb2dVertex
 10
724.7941743593537
 20
12.04314768745098
 30
0.0
  0
VERTEX
  5
7A
330
72
100
AcDbEntity
  8
3_ANYTOOL_CUTTHROUGH_INSID
100
AcDbVertex
100
AcDb2dVertex
 10
718.7941743593537
 20
12.04314768742188
 30
0.0
  0
VERTEX
  5
7B
330
72
100
AcDbEntity
  8
3_ANYTOOL_CUTTHROUGH_INSID
100
AcDbVertex
100
AcDb2dVertex
 10
718.7941743593392
 20
57.54314768743643
 30
0.0
  0
VERTEX
  5
7C
330
72
100
AcDbEntity
  8
3_ANYTOOL_CUTTHROUGH_INSID
100
AcDbVertex
100
AcDb2dVertex
 10
724.7941743593392
 20
57.54314768745098
 30
0.0
  0
VERTEX
  5
7D
330
72
100
AcDbEntity
  8
3_ANYTOOL_CUTTHROUGH_INSID
100
AcDbVertex
100
AcDb2dVertex
 10
724.7941743593537
 20
70.04314768745098
 30
0.0
  0
VERTEX
  5
7E
330
72
100
AcDbEntity
  8
3_ANYTOOL_CUTTHROUGH_INSID
100
AcDbVertex
100
AcDb2dVertex
 10
712.7941743593537
 20
70.04314768746553
 30
0.0
  0
SEQEND
  5
7F
330
72
100
AcDbEntity
  8
3_ANYTOOL_CUTTHROUGH_INSID
  0
POLYLINE
  5
80
330
1F
100
AcDbEntity
  8
3_ANYTOOL_CUTTHROUGH_INSID
100
AcDb2dPolyline
 66
     1
 10
0.0
 20
0.0
 30
0.0
 70
     1
  0
VERTEX
  5
81
330
80
100
AcDbEntity
  8
3_ANYTOOL_CUTTHROUGH_INSID
100
AcDbVertex
100
AcDb2dVertex
 10
868.294174359371
 20
149.7931389049554
 30
0.0
  0
VERTEX
  5
82
330
80
100
AcDbEntity
  8
3_ANYTOOL_CUTTHROUGH_INSID
100
AcDbVertex
100
AcDb2dVertex
 10
868.2941743593617
 20
99.79314874066768
 30
0.0
 42
1.000001459681169
  0
VERTEX
  5
83
330
80
100
AcDbEntity
  8
3_ANYTOOL_CUTTHROUGH_INSID
100
AcDbVertex
100
AcDb2dVertex
 10
877.7941743593548
 20
99.79314786117178
 30
0.0
  0
VERTEX
  5
84
330
80
100
AcDbEntity
  8
3_ANYTOOL_CUTTHROUGH_INSID
100
AcDbVertex
100
AcDb2dVertex
 10
877.7941743593638
 20
149.7931476883386
 30
0.0
 42
1.000000924537995
  0
SEQEND
  5
85
330
80
100
AcDbEntity
  8
3_ANYTOOL_CUTTHROUGH_INSID
  0
POLYLINE
  5
86
330
1F
100
AcDbEntity
  8
3_ANYTOOL_CUTTHROUGH_INSID
100
AcDb2dPolyline
 66
     1
 10
0.0
 20
0.0
 30
0.0
 70
     1
  0
VERTEX
  5
87
330
86
100
AcDbEntity
  8
3_ANYTOOL_CUTTHROUGH_INSID
100
AcDbVertex
100
AcDb2dVertex
 10
594.7941743593092
 20
76.04314768750919
 30
0.0
  0
VERTEX
  5
88
330
86
100
AcDbEntity
  8
3_ANYTOOL_CUTTHROUGH_INSID
100
AcDbVertex
100
AcDb2dVertex
 10
582.2941743593074
 20
76.04314768746553
 30
0.0
  0
VERTEX
  5
89
330
86
100
AcDbEntity
  8
3_ANYTOOL_CUTTHROUGH_INSID
100
AcDbVertex
100
AcDb2dVertex
 10
582.2941743592974
 20
-6.456852312549017
 30
0.0
  0
VERTEX
  5
8A
330
86
100
AcDbEntity
  8
3_ANYTOOL_CUTTHROUGH_INSID
100
AcDbVertex
100
AcDb2dVertex
 10
594.7941743593001
 20
-6.456852312505362
 30
0.0
  0
VERTEX
  5
8B
330
86
100
AcDbEntity
  8
3_ANYTOOL_CUTTHROUGH_INSID
100
AcDbVertex
100
AcDb2dVertex
 10
594.7941743593037
 20
-0.4568523125053616
 30
0.0
  0
VERTEX
  5
8C
330
86
100
AcDbEntity
  8
3_ANYTOOL_CUTTHROUGH_INSID
100
AcDbVertex
100
AcDb2dVertex
 10
606.7941743593046
 20
-0.4568523125199135
 30
0.0
  0
VERTEX
  5
8D
330
86
100
AcDbEntity
  8
3_ANYTOOL_CUTTHROUGH_INSID
100
AcDbVertex
100
AcDb2dVertex
 10
606.7941743593028
 20
12.04314768748009
 30
0.0
  0
VERTEX
  5
8E
330
86
100
AcDbEntity
  8
3_ANYTOOL_CUTTHROUGH_INSID
100
AcDbVertex
100
AcDb2dVertex
 10
600.7941743593028
 20
12.04314768746553
 30
0.0
  0
VERTEX
  5
8F
330
86
100
AcDbEntity
  8
3_ANYTOOL_CUTTHROUGH_INSID
100
AcDbVertex
100
AcDb2dVertex
 10
600.7941743592783
 20
57.54314768745098
 30
0.0
  0
VERTEX
  5
90
330
86
100
AcDbEntity
  8
3_ANYTOOL_CUTTHROUGH_INSID
100
AcDbVertex
100
AcDb2dVertex
 10
606.7941743592928
 20
57.54314768746553
 30
0.0
  0
VERTEX
  5
91
330
86
100
AcDbEntity
  8
3_ANYTOOL_CUTTHROUGH_INSID
100
AcDbVertex
100
AcDb2dVertex
 10
606.7941743593092
 20
70.04314768746553
 30
0.0
  0
VERTEX
  5
92
330
86
100
AcDbEntity
  8
3_ANYTOOL_CUTTHROUGH_INSID
100
AcDbVertex
100
AcDb2dVertex
 10
594.7941743593074
 20
70.04314768750919
 30
0.0
  0
SEQEND
  5
93
330
86
100
AcDbEntity
  8
3_ANYTOOL_CUTTHROUGH_INSID
  0
POLYLINE
  5
94
330
1F
100
AcDbEntity
  8
3_ANYTOOL_CUTTHROUGH_INSID
100
AcDb2dPolyline
 66
     1
 10
0.0
 20
0.0
 30
-0.0000000000222933
 70
     1
  0
VERTEX
  5
95
330
94
100
AcDbEntity
  8
3_ANYTOOL_CUTTHROUGH_INSID
100
AcDbVertex
100
AcDb2dVertex
 10
275.7941743645906
 20
-101.9568523113048
 30
-0.0000000000222933
  0
VERTEX
  5
96
330
94
100
AcDbEntity
  8
3_ANYTOOL_CUTTHROUGH_INSID
100
AcDbVertex
100
AcDb2dVertex
 10
275.7941743646197
 20
-95.95685231130483
 30
-0.0000000000222933
  0
VERTEX
  5
97
330
94
100
AcDbEntity
  8
3_ANYTOOL_CUTTHROUGH_INSID
100
AcDbVertex
100
AcDb2dVertex
 10
288.2941743646188
 20
-95.95685231132666
 30
-0.0000000000222933
  0
VERTEX
  5
98
330
94
100
AcDbEntity
  8
3_ANYTOOL_CUTTHROUGH_INSID
100
AcDbVertex
100
AcDb2dVertex
 10
288.2941743646197
 20
-126.456852311283
 30
-0.0000000000222933
  0
VERTEX
  5
99
330
94
100
AcDbEntity
  8
3_ANYTOOL_CUTTHROUGH_INSID
100
AcDbVertex
100
AcDb2dVertex
 10
275.7941743646197
 20
-126.4568523112684
 30
-0.0000000000222933
  0
VERTEX
  5
9A
330
94
100
AcDbEntity
  8
3_ANYTOOL_CUTTHROUGH_INSID
100
AcDbVertex
100
AcDb2dVertex
 10
275.7941743646488
 20
-120.4568523112684
 30
-0.0000000000222933
  0
VERTEX
  5
9B
330
94
100
AcDbEntity
  8
3_ANYTOOL_CUTTHROUGH_INSID
100
AcDbVertex
100
AcDb2dVertex
 10
225.2941743646534
 20
-120.4568523116395
 30
-0.0000000000222933
  0
VERTEX
  5
9C
330
94
100
AcDbEntity
  8
3_ANYTOOL_CUTTHROUGH_INSID
100
AcDbVertex
100
AcDb2dVertex
 10
225.2941743646534
 20
-126.4568523116395
 30
-0.0000000000222933
  0
VERTEX
  5
9D
330
94
100
AcDbEntity
  8
3_ANYTOOL_CUTTHROUGH_INSID
100
AcDbVertex
100
AcDb2dVertex
 10
212.7941743646534
 20
-126.456852311625
 30
-0.0000000000222933
  0
VERTEX
  5
9E
330
94
100
AcDbEntity
  8
3_ANYTOOL_CUTTHROUGH_INSID
100
AcDbVertex
100
AcDb2dVertex
 10
212.7941743646525
 20
-95.95685231166863
 30
-0.0000000000222933
  0
VERTEX
  5
9F
330
94
100
AcDbEntity
  8
3_ANYTOOL_CUTTHROUGH_INSID
100
AcDbVertex
100
AcDb2dVertex
 10
225.2941743646525
 20
-95.9568523116759
 30
-0.0000000000222933
  0
VERTEX
  5
A0
330
94
100
AcDbEntity
  8
3_ANYTOOL_CUTTHROUGH_INSID
100
AcDbVertex
100
AcDb2dVertex
 10
225.2941743646234
 20
-101.9568523116759
 30
-0.0000000000222933
  0
SEQEND
  5
A1
330
94
100
AcDbEntity
  8
3_ANYTOOL_CUTTHROUGH_INSID
  0
POLYLINE
  5
A2
330
1F
100
AcDbEntity
  8
3_ANYTOOL_CUTTHROUGH_INSID
100
AcDb2dPolyline
 66
     1
 10
0.0
 20
0.0
 30
-0.000000000020087
 70
     1
  0
VERTEX
  5
A3
330
A2
100
AcDbEntity
  8
3_ANYTOOL_CUTTHROUGH_INSID
100
AcDbVertex
100
AcDb2dVertex
 10
425.794174364617
 20
-101.9568523111302
 30
-0.000000000020087
  0
VERTEX
  5
A4
330
A2
100
AcDbEntity
  8
3_ANYTOOL_CUTTHROUGH_INSID
100
AcDbVertex
100
AcDb2dVertex
 10
425.794174364617
 20
-95.9568523111302
 30
-0.000000000020087
  0
VERTEX
  5
A5
330
A2
100
AcDbEntity
  8
3_ANYTOOL_CUTTHROUGH_INSID
100
AcDbVertex
100
AcDb2dVertex
 10
438.2941743646161
 20
-95.95685231115203
 30
-0.000000000020087
  0
VERTEX
  5
A6
330
A2
100
AcDbEntity
  8
3_ANYTOOL_CUTTHROUGH_INSID
100
AcDbVertex
100
AcDb2dVertex
 10
438.2941743646479
 20
-126.4568523111084
 30
-0.000000000020087
  0
VERTEX
  5
A7
330
A2
100
AcDbEntity
  8
3_ANYTOOL_CUTTHROUGH_INSID
100
AcDbVertex
100
AcDb2dVertex
 10
425.7941743646479
 20
-126.4568523110938
 30
-0.000000000020087
  0
VERTEX
  5
A8
330
A2
100
AcDbEntity
  8
3_ANYTOOL_CUTTHROUGH_INSID
100
AcDbVertex
100
AcDb2dVertex
 10
425.7941743646479
 20
-120.4568523110938
 30
-0.000000000020087
  0
VERTEX
  5
A9
330
A2
100
AcDbEntity
  8
3_ANYTOOL_CUTTHROUGH_INSID
100
AcDbVertex
100
AcDb2dVertex
 10
375.2941743646188
 20
-120.4568523111448
 30
-0.000000000020087
  0
VERTEX
  5
AA
330
A2
100
AcDbEntity
  8
3_ANYTOOL_CUTTHROUGH_INSID
100
AcDbVertex
100
AcDb2dVertex
 10
375.2941743646188
 20
-126.4568523111448
 30
-0.000000000020087
  0
VERTEX
  5
AB
330
A2
100
AcDbEntity
  8
3_ANYTOOL_CUTTHROUGH_INSID
100
AcDbVertex
100
AcDb2dVertex
 10
362.7941743646188
 20
-126.4568523111375
 30
-0.000000000020087
  0
VERTEX
  5
AC
330
A2
100
AcDbEntity
  8
3_ANYTOOL_CUTTHROUGH_INSID
100
AcDbVertex
100
AcDb2dVertex
 10
362.7941743646179
 20
-95.95685231118114
 30
-0.000000000020087
  0
VERTEX
  5
AD
330
A2
100
AcDbEntity
  8
3_ANYTOOL_CUTTHROUGH_INSID
100
AcDbVertex
100
AcDb2dVertex
 10
375.2941743646179
 20
-95.95685231118841
 30
-0.000000000020087
  0
VERTEX
  5
AE
330
A2
100
AcDbEntity
  8
3_ANYTOOL_CUTTHROUGH_INSID
100
AcDbVertex
100
AcDb2dVertex
 10
375.2941743645888
 20
-101.9568523111884
 30
-0.000000000020087
  0
SEQEND
  5
AF
330
A2
100
AcDbEntity
  8
3_ANYTOOL_CUTTHROUGH_INSID
  0
POLYLINE
  5
B0
330
1F
100
AcDbEntity
  8
3_ANYTOOL_CUTTHROUGH_INSID
100
AcDb2dPolyline
 66
     1
 10
0.0
 20
0.0
 30
-0.0000000000339533
 70
     1
  0
VERTEX
  5
B1
330
B0
100
AcDbEntity
  8
3_ANYTOOL_CUTTHROUGH_INSID
100
AcDbVertex
100
AcDb2dVertex
 10
-24.20582563534299
 20
-101.9568523119597
 30
-0.0000000000339533
  0
VERTEX
  5
B2
330
B0
100
AcDbEntity
  8
3_ANYTOOL_CUTTHROUGH_INSID
100
AcDbVertex
100
AcDb2dVertex
 10
-24.20582563534299
 20
-95.95685231196694
 30
-0.0000000000339533
  0
VERTEX
  5
B3
330
B0
100
AcDbEntity
  8
3_ANYTOOL_CUTTHROUGH_INSID
100
AcDbVertex
100
AcDb2dVertex
 10
-11.70582563534572
 20
-95.95685231198877
 30
-0.0000000000339533
  0
VERTEX
  5
B4
330
B0
100
AcDbEntity
  8
3_ANYTOOL_CUTTHROUGH_INSID
100
AcDbVertex
100
AcDb2dVertex
 10
-11.70582563531389
 20
-126.4568523119451
 30
-0.0000000000339533
  0
VERTEX
  5
B5
330
B0
100
AcDbEntity
  8
3_ANYTOOL_CUTTHROUGH_INSID
100
AcDbVertex
100
AcDb2dVertex
 10
-24.20582563531207
 20
-126.4568523119306
 30
-0.0000000000339533
  0
VERTEX
  5
B6
330
B0
100
AcDbEntity
  8
3_ANYTOOL_CUTTHROUGH_INSID
100
AcDbVertex
100
AcDb2dVertex
 10
-24.20582563531389
 20
-120.4568523119233
 30
-0.0000000000339533
  0
VERTEX
  5
B7
330
B0
100
AcDbEntity
  8
3_ANYTOOL_CUTTHROUGH_INSID
100
AcDbVertex
100
AcDb2dVertex
 10
-74.70582574940545
 20
-120.4568523103299
 30
-0.0000000000339533
  0
VERTEX
  5
B8
330
B0
100
AcDbEntity
  8
3_ANYTOOL_CUTTHROUGH_INSID
100
AcDbVertex
100
AcDb2dVertex
 10
-74.70582574943455
 20
-126.4568523103226
 30
-0.0000000000339533
  0
VERTEX
  5
B9
330
B0
100
AcDbEntity
  8
3_ANYTOOL_CUTTHROUGH_INSID
100
AcDbVertex
100
AcDb2dVertex
 10
-87.20582574943455
 20
-126.456852310308
 30
-0.0000000000339533
  0
VERTEX
  5
BA
330
B0
100
AcDbEntity
  8
3_ANYTOOL_CUTTHROUGH_INSID
100
AcDbVertex
100
AcDb2dVertex
 10
-87.20582574943546
 20
-95.95685231035895
 30
-0.0000000000339533
  0
VERTEX
  5
BB
330
B0
100
AcDbEntity
  8
3_ANYTOOL_CUTTHROUGH_INSID
100
AcDbVertex
100
AcDb2dVertex
 10
-74.70582574943546
 20
-95.95685231035895
 30
-0.0000000000339533
  0
VERTEX
  5
BC
330
B0
100
AcDbEntity
  8
3_ANYTOOL_CUTTHROUGH_INSID
100
AcDbVertex
100
AcDb2dVertex
 10
-74.70582574943546
 20
-101.9568523103662
 30
-0.0000000000339533
  0
SEQEND
  5
BD
330
B0
100
AcDbEntity
  8
3_ANYTOOL_CUTTHROUGH_INSID
  0
POLYLINE
  5
BE
330
1F
100
AcDbEntity
  8
3_ANYTOOL_CUTTHROUGH_INSID
100
AcDb2dPolyline
 66
     1
 10
0.0
 20
0.0
 30
-0.000000000031747
 70
     1
  0
VERTEX
  5
BF
330
BE
100
AcDbEntity
  8
3_ANYTOOL_CUTTHROUGH_INSID
100
AcDbVertex
100
AcDb2dVertex
 10
125.7941743646534
 20
-101.9568523117778
 30
-0.000000000031747
  0
VERTEX
  5
C0
330
BE
100
AcDbEntity
  8
3_ANYTOOL_CUTTHROUGH_INSID
100
AcDbVertex
100
AcDb2dVertex
 10
125.7941743646534
 20
-95.95685231177777
 30
-0.000000000031747
  0
VERTEX
  5
C1
330
BE
100
AcDbEntity
  8
3_ANYTOOL_CUTTHROUGH_INSID
100
AcDbVertex
100
AcDb2dVertex
 10
138.2941743646525
 20
-95.9568523117996
 30
-0.000000000031747
  0
VERTEX
  5
C2
330
BE
100
AcDbEntity
  8
3_ANYTOOL_CUTTHROUGH_INSID
100
AcDbVertex
100
AcDb2dVertex
 10
138.2941743646843
 20
-126.4568523117559
 30
-0.000000000031747
  0
VERTEX
  5
C3
330
BE
100
AcDbEntity
  8
3_ANYTOOL_CUTTHROUGH_INSID
100
AcDbVertex
100
AcDb2dVertex
 10
125.7941743646843
 20
-126.4568523117414
 30
-0.000000000031747
  0
VERTEX
  5
C4
330
BE
100
AcDbEntity
  8
3_ANYTOOL_CUTTHROUGH_INSID
100
AcDbVertex
100
AcDb2dVertex
 10
125.7941743646843
 20
-120.4568523117414
 30
-0.000000000031747
  0
VERTEX
  5
C5
330
BE
100
AcDbEntity
  8
3_ANYTOOL_CUTTHROUGH_INSID
100
AcDbVertex
100
AcDb2dVertex
 10
75.29417436465519
 20
-120.4568523117996
 30
-0.000000000031747
  0
VERTEX
  5
C6
330
BE
100
AcDbEntity
  8
3_ANYTOOL_CUTTHROUGH_INSID
100
AcDbVertex
100
AcDb2dVertex
 10
75.29417436465701
 20
-126.4568523117996
 30
-0.000000000031747
  0
VERTEX
  5
C7
330
BE
100
AcDbEntity
  8
3_ANYTOOL_CUTTHROUGH_INSID
100
AcDbVertex
100
AcDb2dVertex
 10
62.79417436465701
 20
-126.456852311785
 30
-0.000000000031747
  0
VERTEX
  5
C8
330
BE
100
AcDbEntity
  8
3_ANYTOOL_CUTTHROUGH_INSID
100
AcDbVertex
100
AcDb2dVertex
 10
62.7941743646561
 20
-95.9568523118287
 30
-0.000000000031747
  0
VERTEX
  5
C9
330
BE
100
AcDbEntity
  8
3_ANYTOOL_CUTTHROUGH_INSID
100
AcDbVertex
100
AcDb2dVertex
 10
75.2941743646561
 20
-95.95685231183597
 30
-0.000000000031747
  0
VERTEX
  5
CA
330
BE
100
AcDbEntity
  8
3_ANYTOOL_CUTTHROUGH_INSID
100
AcDbVertex
100
AcDb2dVertex
 10
75.294174364627
 20
-101.956852311836
 30
-0.000000000031747
  0
SEQEND
  5
CB
330
BE
100
AcDbEntity
  8
3_ANYTOOL_CUTTHROUGH_INSID
  0
POLYLINE
  5
CC
330
1F
100
AcDbEntity
  8
3_ANYTOOL_CUTTHROUGH_INSID
100
AcDb2dPolyline
 66
     1
 10
0.0
 20
0.0
 30
-0.0000000000316298
 70
     1
  0
VERTEX
  5
CD
330
CC
100
AcDbEntity
  8
3_ANYTOOL_CUTTHROUGH_INSID
100
AcDbVertex
100
AcDb2dVertex
 10
76.29417435940832
 20
51.54314768678887
 30
-0.0000000000316298
  0
VERTEX
  5
CE
330
CC
100
AcDbEntity
  8
3_ANYTOOL_CUTTHROUGH_INSID
100
AcDbVertex
100
AcDb2dVertex
 10
76.2941743594065
 20
64.04314768678887
 30
-0.0000000000316298
  0
VERTEX
  5
CF
330
CC
100
AcDbEntity
  8
3_ANYTOOL_CUTTHROUGH_INSID
100
AcDbVertex
100
AcDb2dVertex
 10
82.2941743594065
 20
64.04314768677432
 30
-0.0000000000316298
  0
VERTEX
  5
D0
330
CC
100
AcDbEntity
  8
3_ANYTOOL_CUTTHROUGH_INSID
100
AcDbVertex
100
AcDb2dVertex
 10
82.29417435936193
 20
109.5431476868034
 30
-0.0000000000316298
  0
VERTEX
  5
D1
330
CC
100
AcDbEntity
  8
3_ANYTOOL_CUTTHROUGH_INSID
100
AcDbVertex
100
AcDb2dVertex
 10
76.29417435936193
 20
109.543147686818
 30
-0.0000000000316298
  0
VERTEX
  5
D2
330
CC
100
AcDbEntity
  8
3_ANYTOOL_CUTTHROUGH_INSID
100
AcDbVertex
100
AcDb2dVertex
 10
76.29417435937648
 20
122.043147686818
 30
-0.0000000000316298
  0
VERTEX
  5
D3
330
CC
100
AcDbEntity
  8
3_ANYTOOL_CUTTHROUGH_INSID
100
AcDbVertex
100
AcDb2dVertex
 10
124.794174359331
 20
122.043147686818
 30
-0.0000000000316298
  0
VERTEX
  5
D4
330
CC
100
AcDbEntity
  8
3_ANYTOOL_CUTTHROUGH_INSID
100
AcDbVertex
100
AcDb2dVertex
 10
124.7941743593165
 20
109.543147686818
 30
-0.0000000000316298
  0
VERTEX
  5
D5
330
CC
100
AcDbEntity
  8
3_ANYTOOL_CUTTHROUGH_INSID
100
AcDbVertex
100
AcDb2dVertex
 10
118.7941743593183
 20
109.5431476868325
 30
-0.0000000000316298
  0
VERTEX
  5
D6
330
CC
100
AcDbEntity
  8
3_ANYTOOL_CUTTHROUGH_INSID
100
AcDbVertex
100
AcDb2dVertex
 10
118.7941743593774
 20
64.04314768681797
 30
-0.0000000000316298
  0
VERTEX
  5
D7
330
CC
100
AcDbEntity
  8
3_ANYTOOL_CUTTHROUGH_INSID
100
AcDbVertex
100
AcDb2dVertex
 10
124.7941743593783
 20
64.04314768680342
 30
-0.0000000000316298
  0
VERTEX
  5
D8
330
CC
100
AcDbEntity
  8
3_ANYTOOL_CUTTHROUGH_INSID
100
AcDbVertex
100
AcDb2dVertex
 10
124.7941743593474
 20
51.54314768680342
 30
-0.0000000000316298
  0
SEQEND
  5
D9
330
CC
100
AcDbEntity
  8
3_ANYTOOL_CUTTHROUGH_INSID
  0
POLYLINE
  5
DA
330
1F
100
AcDbEntity
  8
3_ANYTOOL_CUTTHROUGH_INSID
100
AcDb2dPolyline
 66
     1
 10
0.0
 20
0.0
 30
-0.0000000000492548
 70
     1
  0
VERTEX
  5
DB
330
DA
100
AcDbEntity
  8
3_ANYTOOL_CUTTHROUGH_INSID
100
AcDbVertex
100
AcDb2dVertex
 10
-324.2058257494309
 20
-101.95685231065
 30
-0.0000000000492548
  0
VERTEX
  5
DC
330
DA
100
AcDbEntity
  8
3_ANYTOOL_CUTTHROUGH_INSID
100
AcDbVertex
100
AcDb2dVertex
 10
-324.2058257494018
 20
-95.95685231064999
 30
-0.0000000000492548
  0
VERTEX
  5
DD
330
DA
100
AcDbEntity
  8
3_ANYTOOL_CUTTHROUGH_INSID
100
AcDbVertex
100
AcDb2dVertex
 10
-311.7058257494027
 20
-95.95685231067182
 30
-0.0000000000492548
  0
VERTEX
  5
DE
330
DA
100
AcDbEntity
  8
3_ANYTOOL_CUTTHROUGH_INSID
100
AcDbVertex
100
AcDb2dVertex
 10
-311.7058257494018
 20
-126.4568523106282
 30
-0.0000000000492548
  0
VERTEX
  5
DF
330
DA
100
AcDbEntity
  8
3_ANYTOOL_CUTTHROUGH_INSID
100
AcDbVertex
100
AcDb2dVertex
 10
-324.2058257494018
 20
-126.4568523106136
 30
-0.0000000000492548
  0
VERTEX
  5
E0
330
DA
100
AcDbEntity
  8
3_ANYTOOL_CUTTHROUGH_INSID
100
AcDbVertex
100
AcDb2dVertex
 10
-324.2058257493727
 20
-120.4568523106136
 30
-0.0000000000492548
  0
VERTEX
  5
E1
330
DA
100
AcDbEntity
  8
3_ANYTOOL_CUTTHROUGH_INSID
100
AcDbVertex
100
AcDb2dVertex
 10
-374.7058257493682
 20
-120.4568523109774
 30
-0.0000000000492548
  0
VERTEX
  5
E2
330
DA
100
AcDbEntity
  8
3_ANYTOOL_CUTTHROUGH_INSID
100
AcDbVertex
100
AcDb2dVertex
 10
-374.7058257493682
 20
-126.4568523109774
 30
-0.0000000000492548
  0
VERTEX
  5
E3
330
DA
100
AcDbEntity
  8
3_ANYTOOL_CUTTHROUGH_INSID
100
AcDbVertex
100
AcDb2dVertex
 10
-387.2058257493682
 20
-126.4568523109629
 30
-0.0000000000492548
  0
VERTEX
  5
E4
330
DA
100
AcDbEntity
  8
3_ANYTOOL_CUTTHROUGH_INSID
100
AcDbVertex
100
AcDb2dVertex
 10
-387.2058257493691
 20
-95.95685231100651
 30
-0.0000000000492548
  0
VERTEX
  5
E5
330
DA
100
AcDbEntity
  8
3_ANYTOOL_CUTTHROUGH_INSID
100
AcDbVertex
100
AcDb2dVertex
 10
-374.7058257493691
 20
-95.95685231101379
 30
-0.0000000000492548
  0
VERTEX
  5
E6
330
DA
100
AcDbEntity
  8
3_ANYTOOL_CUTTHROUGH_INSID
100
AcDbVertex
100
AcDb2dVertex
 10
-374.7058257493982
 20
-101.9568523110138
 30
-0.0000000000492548
  0
SEQEND
  5
E7
330
DA
100
AcDbEntity
  8
3_ANYTOOL_CUTTHROUGH_INSID
  0
POLYLINE
  5
E8
330
1F
100
AcDbEntity
  8
3_ANYTOOL_CUTTHROUGH_INSID
100
AcDb2dPolyline
 66
     1
 10
0.0
 20
0.0
 30
-0.0000000000470486
 70
     1
  0
VERTEX
  5
E9
330
E8
100
AcDbEntity
  8
3_ANYTOOL_CUTTHROUGH_INSID
100
AcDbVertex
100
AcDb2dVertex
 10
-174.2058257494045
 20
-101.9568523104754
 30
-0.0000000000470486
  0
VERTEX
  5
EA
330
E8
100
AcDbEntity
  8
3_ANYTOOL_CUTTHROUGH_INSID
100
AcDbVertex
100
AcDb2dVertex
 10
-174.2058257494045
 20
-95.95685231047537
 30
-0.0000000000470486
  0
VERTEX
  5
EB
330
E8
100
AcDbEntity
  8
3_ANYTOOL_CUTTHROUGH_INSID
100
AcDbVertex
100
AcDb2dVertex
 10
-161.7058257494054
 20
-95.9568523104972
 30
-0.0000000000470486
  0
VERTEX
  5
EC
330
E8
100
AcDbEntity
  8
3_ANYTOOL_CUTTHROUGH_INSID
100
AcDbVertex
100
AcDb2dVertex
 10
-161.7058257493736
 20
-126.4568523104535
 30
-0.0000000000470486
  0
VERTEX
  5
ED
330
E8
100
AcDbEntity
  8
3_ANYTOOL_CUTTHROUGH_INSID
100
AcDbVertex
100
AcDb2dVertex
 10
-174.2058257493736
 20
-126.456852310439
 30
-0.0000000000470486
  0
VERTEX
  5
EE
330
E8
100
AcDbEntity
  8
3_ANYTOOL_CUTTHROUGH_INSID
100
AcDbVertex
100
AcDb2dVertex
 10
-174.2058257493736
 20
-120.456852310439
 30
-0.0000000000470486
  0
VERTEX
  5
EF
330
E8
100
AcDbEntity
  8
3_ANYTOOL_CUTTHROUGH_INSID
100
AcDbVertex
100
AcDb2dVertex
 10
-224.7058257494027
 20
-120.4568523104899
 30
-0.0000000000470486
  0
VERTEX
  5
F0
330
E8
100
AcDbEntity
  8
3_ANYTOOL_CUTTHROUGH_INSID
100
AcDbVertex
100
AcDb2dVertex
 10
-224.7058257494027
 20
-126.4568523104899
 30
-0.0000000000470486
  0
VERTEX
  5
F1
330
E8
100
AcDbEntity
  8
3_ANYTOOL_CUTTHROUGH_INSID
100
AcDbVertex
100
AcDb2dVertex
 10
-237.2058257494027
 20
-126.4568523104826
 30
-0.0000000000470486
  0
VERTEX
  5
F2
330
E8
100
AcDbEntity
  8
3_ANYTOOL_CUTTHROUGH_INSID
100
AcDbVertex
100
AcDb2dVertex
 10
-237.2058257494036
 20
-95.9568523105263
 30
-0.0000000000470486
  0
VERTEX
  5
F3
330
E8
100
AcDbEntity
  8
3_ANYTOOL_CUTTHROUGH_INSID
100
AcDbVertex
100
AcDb2dVertex
 10
-224.7058257494036
 20
-95.95685231053358
 30
-0.0000000000470486
  0
VERTEX
  5
F4
330
E8
100
AcDbEntity
  8
3_ANYTOOL_CUTTHROUGH_INSID
100
AcDbVertex
100
AcDb2dVertex
 10
-224.7058257494327
 20
-101.9568523105336
 30
-0.0000000000470486
  0
SEQEND
  5
F5
330
E8
100
AcDbEntity
  8
3_ANYTOOL_CUTTHROUGH_INSID
  0
POLYLINE
  5
F6
330
1F
100
AcDbEntity
  8
3_ANYTOOL_CUTTHROUGH_INSID
100
AcDb2dPolyline
 66
     1
 10
0.0
 20
0.0
 30
-0.0000000000609148
 70
     1
  0
VERTEX
  5
F7
330
F6
100
AcDbEntity
  8
3_ANYTOOL_CUTTHROUGH_INSID
100
AcDbVertex
100
AcDb2dVertex
 10
-624.2058257493645
 20
-101.9568523113121
 30
-0.0000000000609148
  0
VERTEX
  5
F8
330
F6
100
AcDbEntity
  8
3_ANYTOOL_CUTTHROUGH_INSID
100
AcDbVertex
100
AcDb2dVertex
 10
-624.2058257493645
 20
-95.95685231130483
 30
-0.0000000000609148
  0
VERTEX
  5
F9
330
F6
100
AcDbEntity
  8
3_ANYTOOL_CUTTHROUGH_INSID
100
AcDbVertex
100
AcDb2dVertex
 10
-611.7058257493672
 20
-95.95685231132666
 30
-0.0000000000609148
  0
VERTEX
  5
FA
330
F6
100
AcDbEntity
  8
3_ANYTOOL_CUTTHROUGH_INSID
100
AcDbVertex
100
AcDb2dVertex
 10
-611.7058257493354
 20
-126.456852311283
 30
-0.0000000000609148
  0
VERTEX
  5
FB
330
F6
100
AcDbEntity
  8
3_ANYTOOL_CUTTHROUGH_INSID
100
AcDbVertex
100
AcDb2dVertex
 10
-624.2058257493336
 20
-126.4568523112684
 30
-0.0000000000609148
  0
VERTEX
  5
FC
330
F6
100
AcDbEntity
  8
3_ANYTOOL_CUTTHROUGH_INSID
100
AcDbVertex
100
AcDb2dVertex
 10
-624.2058257493354
 20
-120.4568523112757
 30
-0.0000000000609148
  0
VERTEX
  5
FD
330
F6
100
AcDbEntity
  8
3_ANYTOOL_CUTTHROUGH_INSID
100
AcDbVertex
100
AcDb2dVertex
 10
-674.7058257448834
 20
-120.4568523121561
 30
-0.0000000000609148
  0
VERTEX
  5
FE
330
F6
100
AcDbEntity
  8
3_ANYTOOL_CUTTHROUGH_INSID
100
AcDbVertex
100
AcDb2dVertex
 10
-674.7058257449107
 20
-126.4568523121707
 30
-0.0000000000609148
  0
VERTEX
  5
FF
330
F6
100
AcDbEntity
  8
3_ANYTOOL_CUTTHROUGH_INSID
100
AcDbVertex
100
AcDb2dVertex
 10
-687.2058257449107
 20
-126.4568523121561
 30
-0.0000000000609148
  0
VERTEX
  5
100
330
F6
100
AcDbEntity
  8
3_ANYTOOL_CUTTHROUGH_INSID
100
AcDbVertex
100
AcDb2dVertex
 10
-687.2058257449116
 20
-95.95685231219977
 30
-0.0000000000609148
  0
VERTEX
  5
101
330
F6
100
AcDbEntity
  8
3_ANYTOOL_CUTTHROUGH_INSID
100
AcDbVertex
100
AcDb2dVertex
 10
-674.7058257449116
 20
-95.95685231219977
 30
-0.0000000000609148
  0
VERTEX
  5
102
330
F6
100
AcDbEntity
  8
3_ANYTOOL_CUTTHROUGH_INSID
100
AcDbVertex
100
AcDb2dVertex
 10
-674.7058257449116
 20
-101.9568523121925
 30
-0.0000000000609148
  0
SEQEND
  5
103
330
F6
100
AcDbEntity
  8
3_ANYTOOL_CUTTHROUGH_INSID
  0
POLYLINE
  5
104
330
1F
100
AcDbEntity
  8
3_ANYTOOL_CUTTHROUGH_INSID
100
AcDb2dPolyline
 66
     1
 10
0.0
 20
0.0
 30
-0.0000000000587086
 70
     1
  0
VERTEX
  5
105
330
104
100
AcDbEntity
  8
3_ANYTOOL_CUTTHROUGH_INSID
100
AcDbVertex
100
AcDb2dVertex
 10
-474.2058257493682
 20
-101.9568523111157
 30
-0.0000000000587086
  0
VERTEX
  5
106
330
104
100
AcDbEntity
  8
3_ANYTOOL_CUTTHROUGH_INSID
100
AcDbVertex
100
AcDb2dVertex
 10
-474.2058257493682
 20
-95.95685231111565
 30
-0.0000000000587086
  0
VERTEX
  5
107
330
104
100
AcDbEntity
  8
3_ANYTOOL_CUTTHROUGH_INSID
100
AcDbVertex
100
AcDb2dVertex
 10
-461.7058257493691
 20
-95.95685231113748
 30
-0.0000000000587086
  0
VERTEX
  5
108
330
104
100
AcDbEntity
  8
3_ANYTOOL_CUTTHROUGH_INSID
100
AcDbVertex
100
AcDb2dVertex
 10
-461.7058257493372
 20
-126.4568523110938
 30
-0.0000000000587086
  0
VERTEX
  5
109
330
104
100
AcDbEntity
  8
3_ANYTOOL_CUTTHROUGH_INSID
100
AcDbVertex
100
AcDb2dVertex
 10
-474.2058257493372
 20
-126.4568523110793
 30
-0.0000000000587086
  0
VERTEX
  5
10A
330
104
100
AcDbEntity
  8
3_ANYTOOL_CUTTHROUGH_INSID
100
AcDbVertex
100
AcDb2dVertex
 10
-474.2058257493372
 20
-120.4568523110793
 30
-0.0000000000587086
  0
VERTEX
  5
10B
330
104
100
AcDbEntity
  8
3_ANYTOOL_CUTTHROUGH_INSID
100
AcDbVertex
100
AcDb2dVertex
 10
-524.7058257493663
 20
-120.4568523111375
 30
-0.0000000000587086
  0
VERTEX
  5
10C
330
104
100
AcDbEntity
  8
3_ANYTOOL_CUTTHROUGH_INSID
100
AcDbVertex
100
AcDb2dVertex
 10
-524.7058257493645
 20
-126.4568523111375
 30
-0.0000000000587086
  0
VERTEX
  5
10D
330
104
100
AcDbEntity
  8
3_ANYTOOL_CUTTHROUGH_INSID
100
AcDbVertex
100
AcDb2dVertex
 10
-537.2058257493645
 20
-126.4568523111229
 30
-0.0000000000587086
  0
VERTEX
  5
10E
330
104
100
AcDbEntity
  8
3_ANYTOOL_CUTTHROUGH_INSID
100
AcDbVertex
100
AcDb2dVertex
 10
-537.2058257493654
 20
-95.95685231116659
 30
-0.0000000000587086
  0
VERTEX
  5
10F
330
104
100
AcDbEntity
  8
3_ANYTOOL_CUTTHROUGH_INSID
100
AcDbVertex
100
AcDb2dVertex
 10
-524.7058257493654
 20
-95.95685231117386
 30
-0.0000000000587086
  0
VERTEX
  5
110
330
104
100
AcDbEntity
  8
3_ANYTOOL_CUTTHROUGH_INSID
100
AcDbVertex
100
AcDb2dVertex
 10
-524.7058257493945
 20
-101.9568523111739
 30
-0.0000000000587086
  0
SEQEND
  5
111
330
104
100
AcDbEntity
  8
3_ANYTOOL_CUTTHROUGH_INSID
  0
POLYLINE
  5
112
330
1F
100
AcDbEntity
  8
3_ANYTOOL_CUTTHROUGH_INSID
100
AcDb2dPolyline
 66
     1
 10
0.0
 20
0.0
 30
-0.0000000000585914
 70
     1
  0
VERTEX
  5
113
330
112
100
AcDbEntity
  8
3_ANYTOOL_CUTTHROUGH_INSID
100
AcDbVertex
100
AcDb2dVertex
 10
-523.7058257546132
 20
51.54314768745098
 30
-0.0000000000585914
  0
VERTEX
  5
114
330
112
100
AcDbEntity
  8
3_ANYTOOL_CUTTHROUGH_INSID
100
AcDbVertex
100
AcDb2dVertex
 10
-523.705825754615
 20
64.04314768745098
 30
-0.0000000000585914
  0
VERTEX
  5
115
330
112
100
AcDbEntity
  8
3_ANYTOOL_CUTTHROUGH_INSID
100
AcDbVertex
100
AcDb2dVertex
 10
-517.705825754615
 20
64.04314768743643
 30
-0.0000000000585914
  0
VERTEX
  5
116
330
112
100
AcDbEntity
  8
3_ANYTOOL_CUTTHROUGH_INSID
100
AcDbVertex
100
AcDb2dVertex
 10
-517.7058257546596
 20
109.5431476874655
 30
-0.0000000000585914
  0
VERTEX
  5
117
330
112
100
AcDbEntity
  8
3_ANYTOOL_CUTTHROUGH_INSID
100
AcDbVertex
100
AcDb2dVertex
 10
-523.7058257546596
 20
109.5431476874801
 30
-0.0000000000585914
  0
VERTEX
  5
118
330
112
100
AcDbEntity
  8
3_ANYTOOL_CUTTHROUGH_INSID
100
AcDbVertex
100
AcDb2dVertex
 10
-523.705825754645
 20
122.0431476874801
 30
-0.0000000000585914
  0
VERTEX
  5
119
330
112
100
AcDbEntity
  8
3_ANYTOOL_CUTTHROUGH_INSID
100
AcDbVertex
100
AcDb2dVertex
 10
-475.2058257546905
 20
122.0431476874801
 30
-0.0000000000585914
  0
VERTEX
  5
11A
330
112
100
AcDbEntity
  8
3_ANYTOOL_CUTTHROUGH_INSID
100
AcDbVertex
100
AcDb2dVertex
 10
-475.2058257547051
 20
109.5431476874801
 30
-0.0000000000585914
  0
VERTEX
  5
11B
330
112
100
AcDbEntity
  8
3_ANYTOOL_CUTTHROUGH_INSID
100
AcDbVertex
100
AcDb2dVertex
 10
-481.2058257547033
 20
109.5431476874946
 30
-0.0000000000585914
  0
VERTEX
  5
11C
330
112
100
AcDbEntity
  8
3_ANYTOOL_CUTTHROUGH_INSID
100
AcDbVertex
100
AcDb2dVertex
 10
-481.2058257546441
 20
64.04314768748009
 30
-0.0000000000585914
  0
VERTEX
  5
11D
330
112
100
AcDbEntity
  8
3_ANYTOOL_CUTTHROUGH_INSID
100
AcDbVertex
100
AcDb2dVertex
 10
-475.2058257546432
 20
64.04314768746553
 30
-0.0000000000585914
  0
VERTEX
  5
11E
330
112
100
AcDbEntity
  8
3_ANYTOOL_CUTTHROUGH_INSID
100
AcDbVertex
100
AcDb2dVertex
 10
-475.2058257546742
 20
51.54314768746553
 30
-0.0000000000585914
  0
SEQEND
  5
11F
330
112
100
AcDbEntity
  8
3_ANYTOOL_CUTTHROUGH_INSID
  0
POLYLINE
  5
121
330
1F
100
AcDbEntity
  8
4_ANYTOOL_CUTTHROUGH_OUTSI
100
AcDb2dPolyline
 66
     1
 10
0.0
 20
0.0
 30
0.0
 70
     1
  0
VERTEX
  5
122
330
121
100
AcDbEntity
  8
4_ANYTOOL_CUTTHROUGH_OUTSI
100
AcDbVertex
100
AcDb2dVertex
 10
563.2941743601423
 20
165.7931476875237
 30
0.0
  0
VERTEX
  5
123
330
121
100
AcDbEntity
  8
4_ANYTOOL_CUTTHROUGH_OUTSI
100
AcDbVertex
100
AcDb2dVertex
 10
563.2941743601141
 20
171.5431476875237
 30
0.0
  0
VERTEX
  5
124
330
121
100
AcDbEntity
  8
4_ANYTOOL_CUTTHROUGH_OUTSI
100
AcDbVertex
100
AcDb2dVertex
 10
442.7941743645797
 20
171.5431476873127
 30
0.0
  0
VERTEX
  5
125
330
121
100
AcDbEntity
  8
4_ANYTOOL_CUTTHROUGH_OUTSI
100
AcDbVertex
100
AcDb2dVertex
 10
442.7941743645661
 20
165.7931476873127
 30
0.0
 42
-0.4142135623284006
  0
VERTEX
  5
126
330
121
100
AcDbEntity
  8
4_ANYTOOL_CUTTHROUGH_OUTSI
100
AcDbVertex
100
AcDb2dVertex
 10
442.5441743645661
 20
165.5431476873182
 30
0.0
  0
VERTEX
  5
127
330
121
100
AcDbEntity
  8
4_ANYTOOL_CUTTHROUGH_OUTSI
100
AcDbVertex
100
AcDb2dVertex
 10
430.5441743645661
 20
165.5431476873127
 30
0.0
 42
-0.414213562355022
  0
VERTEX
  5
128
330
121
100
AcDbEntity
  8
4_ANYTOOL_CUTTHROUGH_OUTSI
100
AcDbVertex
100
AcDb2dVertex
 10
430.294174364567
 20
165.7931476873127
 30
0.0
  0
VERTEX
  5
129
330
121
100
AcDbEntity
  8
4_ANYTOOL_CUTTHROUGH_OUTSI
100
AcDbVertex
100
AcDb2dVertex
 10
430.2941743645788
 20
189.5431476873127
 30
0.0
  0
VERTEX
  5
12A
330
121
100
AcDbEntity
  8
4_ANYTOOL_CUTTHROUGH_OUTSI
100
AcDbVertex
100
AcDb2dVertex
 10
370.7941743645806
 20
189.5431476873346
 30
0.0
  0
VERTEX
  5
12B
330
121
100
AcDbEntity
  8
4_ANYTOOL_CUTTHROUGH_OUTSI
100
AcDbVertex
100
AcDb2dVertex
 10
370.7941743645679
 20
165.7931476873346
 30
0.0
 42
-0.4142135623624899
  0
VERTEX
  5
12C
330
121
100
AcDbEntity
  8
4_ANYTOOL_CUTTHROUGH_OUTSI
100
AcDbVertex
100
AcDb2dVertex
 10
370.544174364567
 20
165.5431476873246
 30
0.0
  0
VERTEX
  5
12D
330
121
100
AcDbEntity
  8
4_ANYTOOL_CUTTHROUGH_OUTSI
100
AcDbVertex
100
AcDb2dVertex
 10
358.5441743645679
 20
165.5431476873564
 30
0.0
 42
-0.4142135623411133
  0
VERTEX
  5
12E
330
121
100
AcDbEntity
  8
4_ANYTOOL_CUTTHROUGH_OUTSI
100
AcDbVertex
100
AcDb2dVertex
 10
358.2941743645661
 20
165.7931476873564
 30
0.0
  0
VERTEX
  5
12F
330
121
100
AcDbEntity
  8
4_ANYTOOL_CUTTHROUGH_OUTSI
100
AcDbVertex
100
AcDb2dVertex
 10
358.2941743645815
 20
171.5431476873564
 30
0.0
  0
VERTEX
  5
130
330
121
100
AcDbEntity
  8
4_ANYTOOL_CUTTHROUGH_OUTSI
100
AcDbVertex
100
AcDb2dVertex
 10
212.7941743645879
 20
171.5431476872836
 30
0.0
  0
VERTEX
  5
131
330
121
100
AcDbEntity
  8
4_ANYTOOL_CUTTHROUGH_OUTSI
100
AcDbVertex
100
AcDb2dVertex
 10
212.7941743645879
 20
165.7931476872836
 30
0.0
 42
-0.4142135623688706
  0
VERTEX
  5
132
330
121
100
AcDbEntity
  8
4_ANYTOOL_CUTTHROUGH_OUTSI
100
AcDbVertex
100
AcDb2dVertex
 10
212.544174364587
 20
165.5431476872791
 30
0.0
  0
VERTEX
  5
133
330
121
100
AcDbEntity
  8
4_ANYTOOL_CUTTHROUGH_OUTSI
100
AcDbVertex
100
AcDb2dVertex
 10
200.5441743645879
 20
165.5431476873055
 30
0.0
 42
-0.4142135623507455
  0
VERTEX
  5
134
330
121
100
AcDbEntity
  8
4_ANYTOOL_CUTTHROUGH_OUTSI
100
AcDbVertex
100
AcDb2dVertex
 10
200.2941743645924
 20
165.7931476873055
 30
0.0
  0
VERTEX
  5
135
330
121
100
AcDbEntity
  8
4_ANYTOOL_CUTTHROUGH_OUTSI
100
AcDbVertex
100
AcDb2dVertex
 10
200.2941743645861
 20
189.5431476873055
 30
0.0
  0
VERTEX
  5
136
330
121
100
AcDbEntity
  8
4_ANYTOOL_CUTTHROUGH_OUTSI
100
AcDbVertex
100
AcDb2dVertex
 10
0.7941743645897077
 20
189.5431476872764
 30
0.0
  0
VERTEX
  5
137
330
121
100
AcDbEntity
  8
4_ANYTOOL_CUTTHROUGH_OUTSI
100
AcDbVertex
100
AcDb2dVertex
 10
0.7941743645915267
 20
165.7931476872836
 30
0.0
 42
-0.4142135623720172
  0
VERTEX
  5
138
330
121
100
AcDbEntity
  8
4_ANYTOOL_CUTTHROUGH_OUTSI
100
AcDbVertex
100
AcDb2dVertex
 10
0.5441743645915267
 20
165.5431476872827
 30
0.0
  0
VERTEX
  5
139
330
121
100
AcDbEntity
  8
4_ANYTOOL_CUTTHROUGH_OUTSI
100
AcDbVertex
100
AcDb2dVertex
 10
-11.45582563540847
 20
165.5431476872836
 30
0.0
 42
-0.4142135623858893
  0
VERTEX
  5
13A
330
121
100
AcDbEntity
  8
4_ANYTOOL_CUTTHROUGH_OUTSI
100
AcDbVertex
100
AcDb2dVertex
 10
-11.70582563540484
 20
165.7931476872836
 30
0.0
  0
VERTEX
  5
13B
330
121
100
AcDbEntity
  8
4_ANYTOOL_CUTTHROUGH_OUTSI
100
AcDbVertex
100
AcDb2dVertex
 10
-11.70582563540847
 20
171.5431476872836
 30
0.0
  0
VERTEX
  5
13C
330
121
100
AcDbEntity
  8
4_ANYTOOL_CUTTHROUGH_OUTSI
100
AcDbVertex
100
AcDb2dVertex
 10
-157.2058257494418
 20
171.5431476879676
 30
0.0
  0
VERTEX
  5
13D
330
121
100
AcDbEntity
  8
4_ANYTOOL_CUTTHROUGH_OUTSI
100
AcDbVertex
100
AcDb2dVertex
 10
-157.2058257494555
 20
165.7931476879676
 30
0.0
 42
-0.4142135623720354
  0
VERTEX
  5
13E
330
121
100
AcDbEntity
  8
4_ANYTOOL_CUTTHROUGH_OUTSI
100
AcDbVertex
100
AcDb2dVertex
 10
-157.4558257494555
 20
165.5431476879667
 30
0.0
  0
VERTEX
  5
13F
330
121
100
AcDbEntity
  8
4_ANYTOOL_CUTTHROUGH_OUTSI
100
AcDbVertex
100
AcDb2dVertex
 10
-169.4558257494555
 20
165.5431476879676
 30
0.0
 42
-0.4142135623869526
  0
VERTEX
  5
140
330
121
100
AcDbEntity
  8
4_ANYTOOL_CUTTHROUGH_OUTSI
100
AcDbVertex
100
AcDb2dVertex
 10
-169.7058257494527
 20
165.7931476879676
 30
0.0
  0
VERTEX
  5
141
330
121
100
AcDbEntity
  8
4_ANYTOOL_CUTTHROUGH_OUTSI
100
AcDbVertex
100
AcDb2dVertex
 10
-169.7058257494427
 20
189.5431476879676
 30
0.0
  0
VERTEX
  5
142
330
121
100
AcDbEntity
  8
4_ANYTOOL_CUTTHROUGH_OUTSI
100
AcDbVertex
100
AcDb2dVertex
 10
-229.2058257494409
 20
189.5431476879894
 30
0.0
  0
VERTEX
  5
143
330
121
100
AcDbEntity
  8
4_ANYTOOL_CUTTHROUGH_OUTSI
100
AcDbVertex
100
AcDb2dVertex
 10
-229.2058257494537
 20
165.7931476879894
 30
0.0
 42
-0.4142135623730951
  0
VERTEX
  5
144
330
121
100
AcDbEntity
  8
4_ANYTOOL_CUTTHROUGH_OUTSI
100
AcDbVertex
100
AcDb2dVertex
 10
-229.4558257494546
 20
165.5431476879885
 30
0.0
  0
VERTEX
  5
145
330
121
100
AcDbEntity
  8
4_ANYTOOL_CUTTHROUGH_OUTSI
100
AcDbVertex
100
AcDb2dVertex
 10
-241.4558257494537
 20
165.5431476880112
 30
0.0
 42
-0.414213562343284
  0
VERTEX
  5
146
330
121
100
AcDbEntity
  8
4_ANYTOOL_CUTTHROUGH_OUTSI
100
AcDbVertex
100
AcDb2dVertex
 10
-241.7058257494573
 20
165.7931476880112
 30
0.0
  0
VERTEX
  5
147
330
121
100
AcDbEntity
  8
4_ANYTOOL_CUTTHROUGH_OUTSI
100
AcDbVertex
100
AcDb2dVertex
 10
-241.70582574944
 20
171.5431476880112
 30
0.0
  0
VERTEX
  5
148
330
121
100
AcDbEntity
  8
4_ANYTOOL_CUTTHROUGH_OUTSI
100
AcDbVertex
100
AcDb2dVertex
 10
-387.2058257494336
 20
171.5431476879457
 30
0.0
  0
VERTEX
  5
149
330
121
100
AcDbEntity
  8
4_ANYTOOL_CUTTHROUGH_OUTSI
100
AcDbVertex
100
AcDb2dVertex
 10
-387.2058257494336
 20
165.7931476879457
 30
0.0
 42
-0.4142135623923098
  0
VERTEX
  5
14A
330
121
100
AcDbEntity
  8
4_ANYTOOL_CUTTHROUGH_OUTSI
100
AcDbVertex
100
AcDb2dVertex
 10
-387.4558257494346
 20
165.5431476879467
 30
0.0
  0
VERTEX
  5
14B
330
121
100
AcDbEntity
  8
4_ANYTOOL_CUTTHROUGH_OUTSI
100
AcDbVertex
100
AcDb2dVertex
 10
-399.4558257494336
 20
165.5431476879676
 30
0.0
 42
-0.4142135623763372
  0
VERTEX
  5
14C
330
121
100
AcDbEntity
  8
4_ANYTOOL_CUTTHROUGH_OUTSI
100
AcDbVertex
100
AcDb2dVertex
 10
-399.7058257494364
 20
165.7931476879676
 30
0.0
  0
VERTEX
  5
14D
330
121
100
AcDbEntity
  8
4_ANYTOOL_CUTTHROUGH_OUTSI
100
AcDbVertex
100
AcDb2dVertex
 10
-399.7058257494355
 20
189.5431476879676
 30
0.0
  0
VERTEX
  5
14E
330
121
100
AcDbEntity
  8
4_ANYTOOL_CUTTHROUGH_OUTSI
100
AcDbVertex
100
AcDb2dVertex
 10
-599.2058257494318
 20
189.5431476879385
 30
0.0
  0
VERTEX
  5
14F
330
121
100
AcDbEntity
  8
4_ANYTOOL_CUTTHROUGH_OUTSI
100
AcDbVertex
100
AcDb2dVertex
 10
-599.20582574943
 20
165.7931476879457
 30
0.0
 42
-0.414213562374131
  0
VERTEX
  5
150
330
121
100
AcDbEntity
  8
4_ANYTOOL_CUTTHROUGH_OUTSI
100
AcDbVertex
100
AcDb2dVertex
 10
-599.45582574943
 20
165.5431476879467
 30
0.0
  0
VERTEX
  5
151
330
121
100
AcDbEntity
  8
4_ANYTOOL_CUTTHROUGH_OUTSI
100
AcDbVertex
100
AcDb2dVertex
 10
-611.45582574943
 20
165.5431476879457
 30
0.0
 42
-0.4142135623762235
  0
VERTEX
  5
152
330
121
100
AcDbEntity
  8
4_ANYTOOL_CUTTHROUGH_OUTSI
100
AcDbVertex
100
AcDb2dVertex
 10
-611.7058257494327
 20
165.7931476879457
 30
0.0
  0
VERTEX
  5
153
330
121
100
AcDbEntity
  8
4_ANYTOOL_CUTTHROUGH_OUTSI
100
AcDbVertex
100
AcDb2dVertex
 10
-611.70582574943
 20
171.5431476879457
 30
0.0
  0
VERTEX
  5
154
330
121
100
AcDbEntity
  8
4_ANYTOOL_CUTTHROUGH_OUTSI
100
AcDbVertex
100
AcDb2dVertex
 10
-757.2058257449316
 20
171.5431476870363
 30
0.0
  0
VERTEX
  5
155
330
121
100
AcDbEntity
  8
4_ANYTOOL_CUTTHROUGH_OUTSI
100
AcDbVertex
100
AcDb2dVertex
 10
-757.2058257449316
 20
165.7931476870363
 30
0.0
 42
-0.414213562374131
  0
VERTEX
  5
156
330
121
100
AcDbEntity
  8
4_ANYTOOL_CUTTHROUGH_OUTSI
100
AcDbVertex
100
AcDb2dVertex
 10
-757.4558257449316
 20
165.5431476870372
 30
0.0
  0
VERTEX
  5
157
330
121
100
AcDbEntity
  8
4_ANYTOOL_CUTTHROUGH_OUTSI
100
AcDbVertex
100
AcDb2dVertex
 10
-769.4558257449316
 20
165.5431476870363
 30
0.0
 42
-0.4142135623720551
  0
VERTEX
  5
158
330
121
100
AcDbEntity
  8
4_ANYTOOL_CUTTHROUGH_OUTSI
100
AcDbVertex
100
AcDb2dVertex
 10
-769.7058257449307
 20
165.7931476870363
 30
0.0
  0
VERTEX
  5
159
330
121
100
AcDbEntity
  8
4_ANYTOOL_CUTTHROUGH_OUTSI
100
AcDbVertex
100
AcDb2dVertex
 10
-769.7058257449335
 20
189.5431476870363
 30
0.0
  0
VERTEX
  5
15A
330
121
100
AcDbEntity
  8
4_ANYTOOL_CUTTHROUGH_OUTSI
100
AcDbVertex
100
AcDb2dVertex
 10
-799.2058257615199
 20
189.543147687029
 30
0.0
  0
VERTEX
  5
15B
330
121
100
AcDbEntity
  8
4_ANYTOOL_CUTTHROUGH_OUTSI
100
AcDbVertex
100
AcDb2dVertex
 10
-799.2058313163661
 20
105.8166795043362
 30
0.0
 42
-0.4114512520672656
  0
VERTEX
  5
15C
330
121
100
AcDbEntity
  8
4_ANYTOOL_CUTTHROUGH_OUTSI
100
AcDbVertex
100
AcDb2dVertex
 10
-805.4555583173396
 20
99.62450824875846
 30
0.0
  0
VERTEX
  5
15D
330
121
100
AcDbEntity
  8
4_ANYTOOL_CUTTHROUGH_OUTSI
100
AcDbVertex
100
AcDb2dVertex
 10
-805.538146515106
 20
99.63854386672018
 30
0.0
  0
VERTEX
  5
15E
330
121
100
AcDbEntity
  8
4_ANYTOOL_CUTTHROUGH_OUTSI
100
AcDbVertex
100
AcDb2dVertex
 10
-855.4976058168695
 20
117.1244952189446
 30
0.0
 42
0.4120733481078346
  0
VERTEX
  5
15F
330
121
100
AcDbEntity
  8
4_ANYTOOL_CUTTHROUGH_OUTSI
100
AcDbVertex
100
AcDb2dVertex
 10
-861.2055583173379
 20
111.3746489594632
 30
0.0
  0
VERTEX
  5
160
330
121
100
AcDbEntity
  8
4_ANYTOOL_CUTTHROUGH_OUTSI
100
AcDbVertex
100
AcDb2dVertex
 10
-861.2055583173342
 20
33.37464895946323
 30
0.0
 42
0.412073348110243
  0
VERTEX
  5
161
330
121
100
AcDbEntity
  8
4_ANYTOOL_CUTTHROUGH_OUTSI
100
AcDbVertex
100
AcDb2dVertex
 10
-855.4976058168504
 20
27.62480269997006
 30
0.0
  0
VERTEX
  5
162
330
121
100
AcDbEntity
  8
4_ANYTOOL_CUTTHROUGH_OUTSI
100
AcDbVertex
100
AcDb2dVertex
 10
-805.5381465151031
 20
45.11075405221345
 30
0.0
  0
VERTEX
  5
163
330
121
100
AcDbEntity
  8
4_ANYTOOL_CUTTHROUGH_OUTSI
100
AcDbVertex
100
AcDb2dVertex
 10
-805.4555583173369
 20
45.12478967017512
 30
0.0
 42
-0.4142135623730995
  0
VERTEX
  5
164
330
121
100
AcDbEntity
  8
4_ANYTOOL_CUTTHROUGH_OUTSI
100
AcDbVertex
100
AcDb2dVertex
 10
-799.2055583173369
 20
38.87478967017523
 30
0.0
  0
VERTEX
  5
165
330
121
100
AcDbEntity
  8
4_ANYTOOL_CUTTHROUGH_OUTSI
100
AcDbVertex
100
AcDb2dVertex
 10
-799.2055583173305
 20
-39.12521032982477
 30
0.0
 42
-0.4142135623722857
  0
VERTEX
  5
166
330
121
100
AcDbEntity
  8
4_ANYTOOL_CUTTHROUGH_OUTSI
100
AcDbVertex
100
AcDb2dVertex
 10
-805.4555583173242
 20
-45.37521032982113
 30
0.0
  0
VERTEX
  5
167
330
121
100
AcDbEntity
  8
4_ANYTOOL_CUTTHROUGH_OUTSI
100
AcDbVertex
100
AcDb2dVertex
 10
-805.5381465150904
 20
-45.36117471186294
 30
0.0
  0
VERTEX
  5
168
330
121
100
AcDbEntity
  8
4_ANYTOOL_CUTTHROUGH_OUTSI
100
AcDbVertex
100
AcDb2dVertex
 10
-855.4976058168613
 20
-27.87522335963871
 30
0.0
 42
0.4120733481073807
  0
VERTEX
  5
169
330
121
100
AcDbEntity
  8
4_ANYTOOL_CUTTHROUGH_OUTSI
100
AcDbVertex
100
AcDb2dVertex
 10
-861.2055583173279
 20
-33.62506961912732
 30
0.0
  0
VERTEX
  5
16A
330
121
100
AcDbEntity
  8
4_ANYTOOL_CUTTHROUGH_OUTSI
100
AcDbVertex
100
AcDb2dVertex
 10
-861.2055583173187
 20
-111.6250696191273
 30
0.0
 42
0.4120733481063039
  0
VERTEX
  5
16B
330
121
100
AcDbEntity
  8
4_ANYTOOL_CUTTHROUGH_OUTSI
100
AcDbVertex
100
AcDb2dVertex
 10
-855.497605816835
 20
-117.3749158786111
 30
0.0
  0
VERTEX
  5
16C
330
121
100
AcDbEntity
  8
4_ANYTOOL_CUTTHROUGH_OUTSI
100
AcDbVertex
100
AcDb2dVertex
 10
-805.5381465150876
 20
-99.8889645263771
 30
0.0
  0
VERTEX
  5
16D
330
121
100
AcDbEntity
  8
4_ANYTOOL_CUTTHROUGH_OUTSI
100
AcDbVertex
100
AcDb2dVertex
 10
-805.4555583173205
 20
-99.87492890841506
 30
0.0
 42
-0.411451251831516
  0
VERTEX
  5
16E
330
121
100
AcDbEntity
  8
4_ANYTOOL_CUTTHROUGH_OUTSI
100
AcDbVertex
100
AcDb2dVertex
 10
-799.2058313163778
 20
-106.0671001589944
 30
0.0
  0
VERTEX
  5
16F
330
121
100
AcDbEntity
  8
4_ANYTOOL_CUTTHROUGH_OUTSI
100
AcDbVertex
100
AcDb2dVertex
 10
-799.2058257615172
 20
-189.9568523144771
 30
0.0
  0
VERTEX
  5
170
330
121
100
AcDbEntity
  8
4_ANYTOOL_CUTTHROUGH_OUTSI
100
AcDbVertex
100
AcDb2dVertex
 10
718.2941743593374
 20
-189.9568523130729
 30
0.0
  0
VERTEX
  5
171
330
121
100
AcDbEntity
  8
4_ANYTOOL_CUTTHROUGH_OUTSI
100
AcDbVertex
100
AcDb2dVertex
 10
718.2941743593392
 20
-52.45685231275274
 30
0.0
  0
VERTEX
  5
172
330
121
100
AcDbEntity
  8
4_ANYTOOL_CUTTHROUGH_OUTSI
100
AcDbVertex
100
AcDb2dVertex
 10
712.5441743593374
 20
-52.45685231275274
 30
0.0
 42
-0.4142135623742232
  0
VERTEX
  5
173
330
121
100
AcDbEntity
  8
4_ANYTOOL_CUTTHROUGH_OUTSI
100
AcDbVertex
100
AcDb2dVertex
 10
712.2941743593365
 20
-52.20685231275274
 30
0.0
  0
VERTEX
  5
174
330
121
100
AcDbEntity
  8
4_ANYTOOL_CUTTHROUGH_OUTSI
100
AcDbVertex
100
AcDb2dVertex
 10
712.2941743593383
 20
-40.20685231275274
 30
0.0
 42
-0.4142135623889807
  0
VERTEX
  5
175
330
121
100
AcDbEntity
  8
4_ANYTOOL_CUTTHROUGH_OUTSI
100
AcDbVertex
100
AcDb2dVertex
 10
712.5441743593383
 20
-39.95685231275183
 30
0.0
  0
VERTEX
  5
176
330
121
100
AcDbEntity
  8
4_ANYTOOL_CUTTHROUGH_OUTSI
100
AcDbVertex
100
AcDb2dVertex
 10
868.2941743588553
 20
-39.9568523128255
 30
0.0
  0
VERTEX
  5
177
330
121
100
AcDbEntity
  8
4_ANYTOOL_CUTTHROUGH_OUTSI
100
AcDbVertex
100
AcDb2dVertex
 10
868.2941743593692
 20
47.5431476883241
 30
0.0
  0
VERTEX
  5
178
330
121
100
AcDbEntity
  8
4_ANYTOOL_CUTTHROUGH_OUTSI
100
AcDbVertex
100
AcDb2dVertex
 10
862.5441743593692
 20
47.5431476883241
 30
0.0
 42
-0.4142135623869136
  0
VERTEX
  5
179
330
121
100
AcDbEntity
  8
4_ANYTOOL_CUTTHROUGH_OUTSI
100
AcDbVertex
100
AcDb2dVertex
 10
862.2941743593719
 20
47.7931476883241
 30
0.0
  0
VERTEX
  5
17A
330
121
100
AcDbEntity
  8
4_ANYTOOL_CUTTHROUGH_OUTSI
100
AcDbVertex
100
AcDb2dVertex
 10
862.294174359371
 20
59.7931476883241
 30
0.0
 42
-0.4142135623634254
  0
VERTEX
  5
17B
330
121
100
AcDbEntity
  8
4_ANYTOOL_CUTTHROUGH_OUTSI
100
AcDbVertex
100
AcDb2dVertex
 10
862.544174359371
 20
60.04314768831773
 30
0.0
  0
VERTEX
  5
17C
330
121
100
AcDbEntity
  8
4_ANYTOOL_CUTTHROUGH_OUTSI
100
AcDbVertex
100
AcDb2dVertex
 10
886.294174359371
 20
60.0431476883241
 30
0.0
  0
VERTEX
  5
17D
330
121
100
AcDbEntity
  8
4_ANYTOOL_CUTTHROUGH_OUTSI
100
AcDbVertex
100
AcDb2dVertex
 10
886.2941743593565
 20
189.5431476883095
 30
0.0
  0
VERTEX
  5
17E
330
121
100
AcDbEntity
  8
4_ANYTOOL_CUTTHROUGH_OUTSI
100
AcDbVertex
100
AcDb2dVertex
 10
864.7941743596757
 20
189.5431476893864
 30
0.0
  0
VERTEX
  5
17F
330
121
100
AcDbEntity
  8
4_ANYTOOL_CUTTHROUGH_OUTSI
100
AcDbVertex
100
AcDb2dVertex
 10
864.794174359391
 20
183.793147689983
 30
0.0
 42
-0.41421356233796
  0
VERTEX
  5
180
330
121
100
AcDbEntity
  8
4_ANYTOOL_CUTTHROUGH_OUTSI
100
AcDbVertex
100
AcDb2dVertex
 10
864.544174359391
 20
183.5431476899967
 30
0.0
  0
VERTEX
  5
181
330
121
100
AcDbEntity
  8
4_ANYTOOL_CUTTHROUGH_OUTSI
100
AcDbVertex
100
AcDb2dVertex
 10
852.544174359391
 20
183.5431476899976
 30
0.0
 42
-0.4142135623399597
  0
VERTEX
  5
182
330
121
100
AcDbEntity
  8
4_ANYTOOL_CUTTHROUGH_OUTSI
100
AcDbVertex
100
AcDb2dVertex
 10
852.2941743593901
 20
183.7931476899976
 30
0.0
  0
VERTEX
  5
183
330
121
100
AcDbEntity
  8
4_ANYTOOL_CUTTHROUGH_OUTSI
100
AcDbVertex
100
AcDb2dVertex
 10
852.294174359392
 20
207.543147689983
 30
0.0
  0
VERTEX
  5
184
330
121
100
AcDbEntity
  8
4_ANYTOOL_CUTTHROUGH_OUTSI
100
AcDbVertex
100
AcDb2dVertex
 10
820.7051743594438
 20
207.5431476899976
 30
0.0
  0
VERTEX
  5
185
330
121
100
AcDbEntity
  8
4_ANYTOOL_CUTTHROUGH_OUTSI
100
AcDbVertex
100
AcDb2dVertex
 10
820.705174359442
 20
183.7931476902013
 30
0.0
 42
-0.4142135623665397
  0
VERTEX
  5
186
330
121
100
AcDbEntity
  8
4_ANYTOOL_CUTTHROUGH_OUTSI
100
AcDbVertex
100
AcDb2dVertex
 10
820.455174359442
 20
183.5431476901958
 30
0.0
  0
VERTEX
  5
187
330
121
100
AcDbEntity
  8
4_ANYTOOL_CUTTHROUGH_OUTSI
100
AcDbVertex
100
AcDb2dVertex
 10
808.455174359442
 20
183.5431476902013
 30
0.0
 42
-0.414213562367808
  0
VERTEX
  5
188
330
121
100
AcDbEntity
  8
4_ANYTOOL_CUTTHROUGH_OUTSI
100
AcDbVertex
100
AcDb2dVertex
 10
808.2051743594466
 20
183.7931476902013
 30
0.0
  0
VERTEX
  5
189
330
121
100
AcDbEntity
  8
4_ANYTOOL_CUTTHROUGH_OUTSI
100
AcDbVertex
100
AcDb2dVertex
 10
808.205174359442
 20
189.543147690245
 30
0.0
  0
VERTEX
  5
18A
330
121
100
AcDbEntity
  8
4_ANYTOOL_CUTTHROUGH_OUTSI
100
AcDbVertex
100
AcDb2dVertex
 10
794.7941743594847
 20
189.5431476902886
 30
0.0
  0
VERTEX
  5
18B
330
121
100
AcDbEntity
  8
4_ANYTOOL_CUTTHROUGH_OUTSI
100
AcDbVertex
100
AcDb2dVertex
 10
794.7941743594838
 20
183.7931476903032
 30
0.0
 42
-0.414213562391217
  0
VERTEX
  5
18C
330
121
100
AcDbEntity
  8
4_ANYTOOL_CUTTHROUGH_OUTSI
100
AcDbVertex
100
AcDb2dVertex
 10
794.5441743594838
 20
183.5431476903041
 30
0.0
  0
VERTEX
  5
18D
330
121
100
AcDbEntity
  8
4_ANYTOOL_CUTTHROUGH_OUTSI
100
AcDbVertex
100
AcDb2dVertex
 10
782.5441743594838
 20
183.5431476903032
 30
0.0
 42
-0.4142135623987142
  0
VERTEX
  5
18E
330
121
100
AcDbEntity
  8
4_ANYTOOL_CUTTHROUGH_OUTSI
100
AcDbVertex
100
AcDb2dVertex
 10
782.2941743594911
 20
183.7931476903032
 30
0.0
  0
VERTEX
  5
18F
330
121
100
AcDbEntity
  8
4_ANYTOOL_CUTTHROUGH_OUTSI
100
AcDbVertex
100
AcDb2dVertex
 10
782.2941743594829
 20
207.5431476900121
 30
0.0
  0
VERTEX
  5
190
330
121
100
AcDbEntity
  8
4_ANYTOOL_CUTTHROUGH_OUTSI
100
AcDbVertex
100
AcDb2dVertex
 10
747.7941743595266
 20
207.5431476900121
 30
0.0
  0
VERTEX
  5
191
330
121
100
AcDbEntity
  8
4_ANYTOOL_CUTTHROUGH_OUTSI
100
AcDbVertex
100
AcDb2dVertex
 10
747.7941743595256
 20
183.7931476900994
 30
0.0
 42
-0.4142135623433301
  0
VERTEX
  5
192
330
121
100
AcDbEntity
  8
4_ANYTOOL_CUTTHROUGH_OUTSI
100
AcDbVertex
100
AcDb2dVertex
 10
747.5441743595256
 20
183.5431476901031
 30
0.0
  0
VERTEX
  5
193
330
121
100
AcDbEntity
  8
4_ANYTOOL_CUTTHROUGH_OUTSI
100
AcDbVertex
100
AcDb2dVertex
 10
735.5441743595256
 20
183.5431476900994
 30
0.0
 42
-0.414213562343245
  0
VERTEX
  5
194
330
121
100
AcDbEntity
  8
4_ANYTOOL_CUTTHROUGH_OUTSI
100
AcDbVertex
100
AcDb2dVertex
 10
735.294174359522
 20
183.7931476900994
 30
0.0
  0
VERTEX
  5
195
330
121
100
AcDbEntity
  8
4_ANYTOOL_CUTTHROUGH_OUTSI
100
AcDbVertex
100
AcDb2dVertex
 10
735.2941743595256
 20
189.5431476899103
 30
0.0
  0
VERTEX
  5
196
330
121
100
AcDbEntity
  8
4_ANYTOOL_CUTTHROUGH_OUTSI
100
AcDbVertex
100
AcDb2dVertex
 10
668.7941743593092
 20
189.5431476889426
 30
0.0
  0
VERTEX
  5
197
330
121
100
AcDbEntity
  8
4_ANYTOOL_CUTTHROUGH_OUTSI
100
AcDbVertex
100
AcDb2dVertex
 10
668.7941743593092
 20
184.0431476889498
 30
0.0
  0
VERTEX
  5
198
330
121
100
AcDbEntity
  8
4_ANYTOOL_CUTTHROUGH_OUTSI
100
AcDbVertex
100
AcDb2dVertex
 10
674.5441743593101
 20
184.0431476889353
 30
0.0
 42
-0.4142135623869136
  0
VERTEX
  5
199
330
121
100
AcDbEntity
  8
4_ANYTOOL_CUTTHROUGH_OUTSI
100
AcDbVertex
100
AcDb2dVertex
 10
674.7941743593074
 20
183.7931476889353
 30
0.0
  0
VERTEX
  5
19A
330
121
100
AcDbEntity
  8
4_ANYTOOL_CUTTHROUGH_OUTSI
100
AcDbVertex
100
AcDb2dVertex
 10
674.7941743593101
 20
171.7931476889498
 30
0.0
 42
-0.4142135623442719
  0
VERTEX
  5
19B
330
121
100
AcDbEntity
  8
4_ANYTOOL_CUTTHROUGH_OUTSI
100
AcDbVertex
100
AcDb2dVertex
 10
674.5441743593101
 20
171.5431476889544
 30
0.0
  0
VERTEX
  5
19C
330
121
100
AcDbEntity
  8
4_ANYTOOL_CUTTHROUGH_OUTSI
100
AcDbVertex
100
AcDb2dVertex
 10
637.5441743593083
 20
171.5431476889644
 30
0.0
 42
-0.4142135623859282
  0
VERTEX
  5
19D
330
121
100
AcDbEntity
  8
4_ANYTOOL_CUTTHROUGH_OUTSI
100
AcDbVertex
100
AcDb2dVertex
 10
637.2941743593119
 20
171.7931476889644
 30
0.0
  0
VERTEX
  5
19E
330
121
100
AcDbEntity
  8
4_ANYTOOL_CUTTHROUGH_OUTSI
100
AcDbVertex
100
AcDb2dVertex
 10
637.2941743593092
 20
183.7931476889789
 30
0.0
 42
-0.4142135623846439
  0
VERTEX
  5
19F
330
121
100
AcDbEntity
  8
4_ANYTOOL_CUTTHROUGH_OUTSI
100
AcDbVertex
100
AcDb2dVertex
 10
637.5441743593101
 20
184.0431476889844
 30
0.0
  0
VERTEX
  5
1A0
330
121
100
AcDbEntity
  8
4_ANYTOOL_CUTTHROUGH_OUTSI
100
AcDbVertex
100
AcDb2dVertex
 10
643.2941743593092
 20
184.0431476889498
 30
0.0
  0
VERTEX
  5
1A1
330
121
100
AcDbEntity
  8
4_ANYTOOL_CUTTHROUGH_OUTSI
100
AcDbVertex
100
AcDb2dVertex
 10
643.2941743593119
 20
189.5431476885933
 30
0.0
  0
VERTEX
  5
1A2
330
121
100
AcDbEntity
  8
4_ANYTOOL_CUTTHROUGH_OUTSI
100
AcDbVertex
100
AcDb2dVertex
 10
575.7941743601195
 20
189.5431476875019
 30
0.0
  0
VERTEX
  5
1A3
330
121
100
AcDbEntity
  8
4_ANYTOOL_CUTTHROUGH_OUTSI
100
AcDbVertex
100
AcDb2dVertex
 10
575.7941743601368
 20
165.7931476875383
 30
0.0
 42
-0.4142135624017868
  0
VERTEX
  5
1A4
330
121
100
AcDbEntity
  8
4_ANYTOOL_CUTTHROUGH_OUTSI
100
AcDbVertex
100
AcDb2dVertex
 10
575.5441743601368
 20
165.5431476875337
 30
0.0
  0
VERTEX
  5
1A5
330
121
100
AcDbEntity
  8
4_ANYTOOL_CUTTHROUGH_OUTSI
100
AcDbVertex
100
AcDb2dVertex
 10
563.5441743601423
 20
165.5431476875237
 30
0.0
 42
-0.4142135623261647
  0
SEQEND
  5
1A6
330
121
100
AcDbEntity
  8
4_ANYTOOL_CUTTHROUGH_OUTSI
  0
ENDSEC
  0
SECTION
  2
OBJECTS
  0
DICTIONARY
  5
C
330
0
100
AcDbDictionary
  3
ACAD_GROUP
350
D
  3
ACAD_LAYOUT
350
1A
  3
ACAD_MATERIAL
350
43
  3
ACAD_MLEADERSTYLE
350
5B
  3
ACAD_MLINESTYLE
350
17
  3
ACAD_PLOTSETTINGS
350
19
  3
ACAD_SCALELIST
350
47
  3
ACAD_VISUALSTYLE
350
2A
  3
ACDBHEADERROUNDTRIPXREC
350
1A7
  3
ACDBVARIABLEDICTIONARY
350
1C8
  3
DWGPROPS
350
1CF
  0
DICTIONARY
  5
1D0
330
8
100
AcDbDictionary
280
     1
  3
ACAD_XREC_ROUNDTRIP
360
1D1
  0
DICTIONARY
  5
D
102
{ACAD_REACTORS
330
C
102
}
330
C
100
AcDbDictionary
  0
DICTIONARY
  5
1A
102
{ACAD_REACTORS
330
C
102
}
330
C
100
AcDbDictionary
  0
DICTIONARY
  5
43
102
{ACAD_REACTORS
330
C
102
}
330
C
100
AcDbDictionary
  3
BYBLOCK
350
45
  3
BYLAYER
350
44
  3
GLOBAL
350
46
  0
DICTIONARY
  5
5B
102
{ACAD_REACTORS
330
C
102
}
330
C
100
AcDbDictionary
  3
STANDARD
350
5C
  0
DICTIONARY
  5
17
102
{ACAD_REACTORS
330
C
102
}
330
C
100
AcDbDictionary
  3
STANDARD
350
18
  0
DICTIONARY
  5
19
102
{ACAD_REACTORS
330
C
102
}
330
C
100
AcDbDictionary
  0
DICTIONARY
  5
47
102
{ACAD_REACTORS
330
C
102
}
330
C
100
AcDbDictionary
  3
A0
350
48
  3
A1
350
49
  3
A2
350
4A
  3
A3
350
4B
  3
A4
350
4C
  3
A5
350
4D
  3
A6
350
4E
  3
A7
350
4F
  3
A8
350
50
  3
A9
350
51
  3
B1
350
52
  3
B2
350
53
  3
B3
350
54
  3
B4
350
55
  3
B5
350
56
  3
B6
350
57
  3
B7
350
58
  0
DICTIONARY
  5
2A
102
{ACAD_REACTORS
330
C
102
}
330
C
100
AcDbDictionary
  3
2DWIREFRAME
350
2F
  3
BASIC
350
32
  3
BRIGHTEN
350
36
  3
COLORCHANGE
350
3A
  3
CONCEPTUAL
350
34
  3
DIM
350
35
  3
EDGECOLOROFF
350
3D
  3
FACEPATTERN
350
39
  3
FLAT
350
2B
  3
FLATWITHEDGES
350
2C
  3
GOURAUD
350
2D
  3
GOURAUDWITHEDGES
350
2E
  3
HIDDEN
350
31
  3
JITTEROFF
350
3B
  3
LINEPATTERN
350
38
  3
OVERHANGOFF
350
3C
  3
REALISTIC
350
33
  3
SHADED
350
42
  3
SHADED_WITH_EDGES
350
41
  3
SHADES_OF_GRAY
350
3E
  3
SKETCHY
350
3F
  3
THICKEN
350
37
  3
WIREFRAME
350
30
  3
X-RAY
350
40
  0
DICTIONARY
  5
1A7
102
{ACAD_REACTORS
330
C
102
}
330
C
100
AcDbDictionary
  3
CEPSNID
350
1B1
  3
CEPSNTYPE
350
1B0
  3
DIMSTYLEDATA
350
1C7
  3
FINGERPRINTGUID
350
1B2
  3
HYPERLINKBASE
350
1AA
  3
INSUNITS
350
1AF
  3
LAYOUTDICT
350
1AC
  3
LWETCUNION
350
1AE
  3
PLOTSETDICT
350
1AD
  3
PSVPSCALE
350
1B4
  3
PUCSBASE
350
1B7
  3
PUCSORGBACK
350
1BD
  3
PUCSORGBOTTOM
350
1B9
  3
PUCSORGFRONT
350
1BC
  3
PUCSORGLEFT
350
1BA
  3
PUCSORGRIGHT
350
1BB
  3
PUCSORGTOP
350
1B8
  3
PUCSORTHOREF
350
1B5
  3
PUCSORTHOVIEW
350
1B6
  3
STYLESHEET
350
1AB
  3
TSTACKALIGN
350
1A8
  3
TSTACKSIZE
350
1A9
  3
UCSBASE
350
1C0
  3
UCSORGBACK
350
1C6
  3
UCSORGBOTTOM
350
1C2
  3
UCSORGFRONT
350
1C5
  3
UCSORGLEFT
350
1C3
  3
UCSORGRIGHT
350
1C4
  3
UCSORGTOP
350
1C1
  3
UCSORTHOREF
350
1BE
  3
UCSORTHOVIEW
350
1BF
  3
VERSIONGUID
350
1B3
  0
DICTIONARY
  5
1C8
102
{ACAD_REACTORS
330
C
102
}
330
C
100
AcDbDictionary
  3
CANNOSCALE
350
1D2
  3
CMLEADERSTYLE
350
1CA
  3
CTABLESTYLE
350
1C9
  3
DIMASSOC
350
1CD
  3
HIDETEXT
350
1CE
  3
MSLTSCALE
350
1D3
  0
XRECORD
  5
1CF
102
{ACAD_REACTORS
330
C
102
}
330
C
100
AcDbXrecord
  1
DWGPROPS COOKIE
  2

  3

  4

  6

  7

  8
clayt
  9

300
=
301
=
302
=
303
=
304
=
305
=
306
=
307
=
308
=
309
=
 40
0.0
 41
2461249.395559641
 42
2461249.395559722
  1

 90
        0
  0
XRECORD
  5
1D1
102
{ACAD_REACTORS
330
1D0
102
}
330
1D0
100
AcDbXrecord
102
VTR_0.000_0.000_1.000_1.000_VISUALSTYLE
340
2F
102
VTR_0.000_0.000_1.000_1.000_GRIDDISPLAY
 70
     3
102
VTR_0.000_0.000_1.000_1.000_GRIDMAJOR
 70
     5
102
VTR_0.000_0.000_1.000_1.000_DEFAULTLIGHTING
280
     1
102
VTR_0.000_0.000_1.000_1.000_DEFAULTLIGHTINGTYPE
 70
     1
102
VTR_0.000_0.000_1.000_1.000_BRIGHTNESS
141
0.0
102
VTR_0.000_0.000_1.000_1.000_CONTRAST
142
0.0
  0
MATERIAL
  5
45
102
{ACAD_REACTORS
330
43
102
}
102
{ACAD_XDICTIONARY
360
1D6
102
}
330
43
100
AcDbMaterial
  1
BYBLOCK
  0
MATERIAL
  5
44
102
{ACAD_REACTORS
330
43
102
}
102
{ACAD_XDICTIONARY
360
1D4
102
}
330
43
100
AcDbMaterial
  1
BYLAYER
  0
MATERIAL
  5
46
102
{ACAD_REACTORS
330
43
102
}
102
{ACAD_XDICTIONARY
360
1D8
102
}
330
43
100
AcDbMaterial
  1
GLOBAL
  0
ACAD_PROXY_OBJECT
  5
5C
102
{ACAD_REACTORS
330
5B
102
}
330
5B
100
AcDbProxyObject
 90
      499
 91
      505
 93
      610
310
40901902A4063FBFFFFFE056BD1B81E855B9FC0AD7A3703D0AD73F4214DD185B99185C9900AD7A3703D0AC73F90141901A02B5E8DC0F42B1CFC02B5E8DC0F42B1CFE5764000000000000300FC0
340
14
340
0
340
11
340
0
 94
        0
1001
ACAD_MLEADERVER
1070
     2
  0
MLINESTYLE
  5
18
102
{ACAD_REACTORS
330
17
102
}
330
17
100
AcDbMlineStyle
  2
Standard
 70
     0
  3

 62
   256
 51
90.0
 52
90.0
 71
     2
 49
0.5
 62
   256
  6
BYLAYER
 49
-0.5
 62
   256
  6
BYLAYER
  0
ACAD_PROXY_OBJECT
  5
48
102
{ACAD_REACTORS
330
47
102
}
330
47
100
AcDbProxyObject
 90
      499
 91
      503
 93
       41
310
903313A31580
  0
ACAD_PROXY_OBJECT
  5
49
102
{ACAD_REACTORS
330
47
102
}
330
47
100
AcDbProxyObject
 90
      499
 91
      503
 93
      257
310
90E312F31323822203D2031272D3022000000000000200FC000000000000284000
  0
ACAD_PROXY_OBJECT
  5
4A
102
{ACAD_REACTORS
330
47
102
}
330
47
100
AcDbProxyObject
 90
      499
 91
      503
 93
      249
310
90D312F363422203D2031272D3022000000000000240FC000000000000284000
  0
ACAD_PROXY_OBJECT
  5
4B
102
{ACAD_REACTORS
330
47
102
}
330
47
100
AcDbProxyObject
 90
      499
 91
      503
 93
      249
310
90D312F333222203D2031272D3022000000000000280FC000000000000284000
  0
ACAD_PROXY_OBJECT
  5
4C
102
{ACAD_REACTORS
330
47
102
}
330
47
100
AcDbProxyObject
 90
      499
 91
      503
 93
      249
310
90D312F313622203D2031272D30220000000000002C0FC000000000000284000
  0
ACAD_PROXY_OBJECT
  5
4D
102
{ACAD_REACTORS
330
47
102
}
330
47
100
AcDbProxyObject
 90
      499
 91
      503
 93
      249
310
90D332F333222203D2031272D30220000000000002E0FC000000000000284000
  0
ACAD_PROXY_OBJECT
  5
4E
102
{ACAD_REACTORS
330
47
102
}
330
47
100
AcDbProxyObject
 90
      499
 91
      503
 93
      241
310
90C312F3822203D2031272D3022000000000000300FC000000000000284000
  0
ACAD_PROXY_OBJECT
  5
4F
102
{ACAD_REACTORS
330
47
102
}
330
47
100
AcDbProxyObject
 90
      499
 91
      503
 93
      249
310
90D332F313622203D2031272D3022000000000000320FC000000000000284000
  0
ACAD_PROXY_OBJECT
  5
50
102
{ACAD_REACTORS
330
47
102
}
330
47
100
AcDbProxyObject
 90
      499
 91
      503
 93
      241
310
90C312F3422203D2031272D3022000000000000340FC000000000000284000
  0
ACAD_PROXY_OBJECT
  5
51
102
{ACAD_REACTORS
330
47
102
}
330
47
100
AcDbProxyObject
 90
      499
 91
      503
 93
      241
310
90C332F3822203D2031272D3022000000000000360FC000000000000284000
  0
ACAD_PROXY_OBJECT
  5
52
102
{ACAD_REACTORS
330
47
102
}
330
47
100
AcDbProxyObject
 90
      499
 91
      503
 93
      241
310
90C312F3222203D2031272D3022000000000000380FC000000000000284000
  0
ACAD_PROXY_OBJECT
  5
53
102
{ACAD_REACTORS
330
47
102
}
330
47
100
AcDbProxyObject
 90
      499
 91
      503
 93
      241
310
90C332F3422203D2031272D30220000000000003A0FC000000000000284000
  0
ACAD_PROXY_OBJECT
  5
54
102
{ACAD_REACTORS
330
47
102
}
330
47
100
AcDbProxyObject
 90
      499
 91
      503
 93
      161
310
90A3122203D2031272D30224000000000000284000
  0
ACAD_PROXY_OBJECT
  5
55
102
{ACAD_REACTORS
330
47
102
}
330
47
100
AcDbProxyObject
 90
      499
 91
      503
 93
      257
310
90E312D312F3222203D2031272D30220000000000003E0FC000000000000284000
  0
ACAD_PROXY_OBJECT
  5
56
102
{ACAD_REACTORS
330
47
102
}
330
47
100
AcDbProxyObject
 90
      499
 91
      503
 93
      225
310
90A3322203D2031272D302200000000000002100000000000000284000
  0
ACAD_PROXY_OBJECT
  5
57
102
{ACAD_REACTORS
330
47
102
}
330
47
100
AcDbProxyObject
 90
      499
 91
      503
 93
      225
310
90A3622203D2031272D302200000000000006100000000000000284000
  0
ACAD_PROXY_OBJECT
  5
58
102
{ACAD_REACTORS
330
47
102
}
330
47
100
AcDbProxyObject
 90
      499
 91
      503
 93
      249
310
90D31272D3022203D2031272D30220000000000000A100000000000000284000
  0
ACAD_PROXY_OBJECT
  5
2F
102
{ACAD_REACTORS
330
2A
102
}
330
2A
100
AcDbProxyObject
 90
      499
 91
      501
 93
      436
310
42CC9915DA5C99599C985B595049028333333333333E33F0000000000000F90107901411070040501600405405064090741402480A0340
1001
ACAD
1000
AcDbSavedByObjectVersion
1070
     0
  0
ACAD_PROXY_OBJECT
  5
32
102
{ACAD_REACTORS
330
2A
102
}
330
2A
100
AcDbProxyObject
 90
      499
 91
      501
 93
      388
310
4150985CDA58D07406404333333333333E33F0000000000000F90107A41107004050150841D405064090741402480A0350
1001
ACAD
1000
AcDbSavedByObjectVersion
1070
     0
  0
ACAD_PROXY_OBJECT
  5
36
102
{ACAD_REACTORS
330
2A
102
}
330
2A
100
AcDbProxyObject
 90
      499
 91
      501
 93
      428
310
42109C9A59DA1D195B90C409028333333333333E33F0000000000000F9010790141107004050150841D405064090741402480A029950
1001
ACAD
1000
AcDbSavedByObjectVersion
1070
     0
  0
ACAD_PROXY_OBJECT
  5
3A
102
{ACAD_REACTORS
330
2A
102
}
330
2A
100
AcDbProxyObject
 90
      499
 91
      501
 93
      452
310
42D0DBDB1BDC90DA185B99D95104090240C333333333333E33F0000000000000F90108901411070040501508421405064090741402480A0350
1001
ACAD
1000
AcDbSavedByObjectVersion
1070
     0
  0
ACAD_PROXY_OBJECT
  5
34
102
{ACAD_REACTORS
330
2A
102
}
330
2A
100
AcDbProxyObject
 90
      499
 91
      501
 93
      500
310
4290DBDB98D95C1D1D585B10940D028333333333333E33F0000000000000F90107902409070040501000000000018199010841D405064090740C02480A0340
1001
ACAD
1000
AcDbSavedByObjectVersion
1070
     0
  0
ACAD_PROXY_OBJECT
  5
35
102
{ACAD_REACTORS
330
2A
102
}
330
2A
100
AcDbProxyObject
 90
      499
 91
      501
 93
      412
310
40D11A5B50B409028333333333333E33F0000000000000F9010790141107004050150841D405064090741402480A02677FFFFFD0
1001
ACAD
1000
AcDbSavedByObjectVersion
1070
     0
  0
ACAD_PROXY_OBJECT
  5
3D
102
{ACAD_REACTORS
330
2A
102
}
330
2A
100
AcDbProxyObject
 90
      499
 91
      501
 93
      452
310
43115919D950DBDB1BDC93D999916409028333333333333E33F0000000000000F9010790141107004050150841D405064090741402480A0350
1001
ACAD
1000
AcDbSavedByObjectVersion
1070
     0
  0
ACAD_PROXY_OBJECT
  5
39
102
{ACAD_REACTORS
330
2A
102
}
330
2A
100
AcDbProxyObject
 90
      499
 91
      501
 93
      444
310
42D19858D95C185D1D195C9B90F409028333333333333E33F0000000000000F9010790141107004050150841D405064090741402480A0350
1001
ACAD
1000
AcDbSavedByObjectVersion
1070
     0
  0
ACAD_PROXY_OBJECT
  5
2B
102
{ACAD_REACTORS
330
2A
102
}
330
2A
100
AcDbProxyObject
 90
      499
 91
      501
 93
      380
310
41119B185D240901404333333333333E33F0000000000000F9010740A907004050150841D405064090741402480A1B50
1001
ACAD
1000
AcDbSavedByObjectVersion
1070
     0
  0
ACAD_PROXY_OBJECT
  5
2C
102
{ACAD_REACTORS
330
2A
102
}
330
2A
100
AcDbProxyObject
 90
      499
 91
      501
 93
      468
310
43519B185D15DA5D1A115919D95CD0140901404333333333333E33F0000000000000F90107409019070040501600405405064090741402480A1B50
1001
ACAD
1000
AcDbSavedByObjectVersion
1070
     0
  0
ACAD_PROXY_OBJECT
  5
2D
102
{ACAD_REACTORS
330
2A
102
}
330
2A
100
AcDbProxyObject
 90
      499
 91
      501
 93
      404
310
41D1DBDD5C985D5910240902404333333333333E33F0000000000000F9010740A9070040501641D405064090741402480A1B50
1001
ACAD
1000
AcDbSavedByObjectVersion
1070
     0
  0
ACAD_PROXY_OBJECT
  5
2E
102
{ACAD_REACTORS
330
2A
102
}
330
2A
100
AcDbProxyObject
 90
      499
 91
      501
 93
      492
310
4411DBDD5C985D5915DA5D1A115919D95CD0340902404333333333333E33F0000000000000F90107409019070040501600405405064090741402480A1B50
1001
ACAD
1000
AcDbSavedByObjectVersion
1070
     0
  0
ACAD_PROXY_OBJECT
  5
31
102
{ACAD_REACTORS
330
2A
102
}
330
2A
100
AcDbProxyObject
 90
      499
 91
      501
 93
      476
310
41921A5919195B90640502408333333333333E33F0000000000000F901079024090700405020000000000001110200405405064090740C02480A0340
1001
ACAD
1000
AcDbSavedByObjectVersion
1070
     0
  0
ACAD_PROXY_OBJECT
  5
3B
102
{ACAD_REACTORS
330
2A
102
}
330
2A
100
AcDbProxyObject
 90
      499
 91
      501
 93
      428
310
42529A5D1D195C93D999914409028333333333333E33F0000000000000F9010790141107004050150A41D405064090741402480A0350
1001
ACAD
1000
AcDbSavedByObjectVersion
1070
     0
  0
ACAD_PROXY_OBJECT
  5
38
102
{ACAD_REACTORS
330
2A
102
}
330
2A
100
AcDbProxyObject
 90
      499
 91
      501
 93
      444
310
42D31A5B995C185D1D195C9B90E409028333333333333E33F0000000000000F9010790141107004050750841D405064090741402483A0350
1001
ACAD
1000
AcDbSavedByObjectVersion
1070
     0
  0
ACAD_PROXY_OBJECT
  5
3C
102
{ACAD_REACTORS
330
2A
102
}
330
2A
100
AcDbProxyObject
 90
      499
 91
      501
 93
      444
310
42D3DD995C9A185B99D3D999915409028333333333333E33F0000000000000F9010790141107004050150941D405064090741402480A0350
1001
ACAD
1000
AcDbSavedByObjectVersion
1070
     0
  0
ACAD_PROXY_OBJECT
  5
33
102
{ACAD_REACTORS
330
2A
102
}
330
2A
100
AcDbProxyObject
 90
      499
 91
      501
 93
      428
310
425499585B1A5CDD1A58D08409038333333333333E33F0000000000000F9010740A907004050150800405405064090740C02480A1B40
1001
ACAD
1000
AcDbSavedByObjectVersion
1070
     0
  0
ACAD_PROXY_OBJECT
  5
42
102
{ACAD_REACTORS
330
2A
102
}
330
2A
100
AcDbProxyObject
 90
      499
 91
      501
 93
      420
310
4194DA1859195911B40902404333333333333E33F0000000000000F9010740A41107004050150800405405064090840C02480A0B40
1001
ACAD
1000
AcDbSavedByObjectVersion
1070
     0
  0
ACAD_PROXY_OBJECT
  5
41
102
{ACAD_REACTORS
330
2A
102
}
330
2A
100
AcDbProxyObject
 90
      499
 91
      501
 93
      516
310
4454DA18591959081DDA5D1A08195919D95CD1A40902404333333333333E33F0000000000000F901074090142907004050250800405405064090740C02480A0B40
1001
ACAD
1000
AcDbSavedByObjectVersion
1070
     0
  0
ACAD_PROXY_OBJECT
  5
3E
102
{ACAD_REACTORS
330
2A
102
}
330
2A
100
AcDbProxyObject
 90
      499
 91
      501
 93
      532
310
4394DA1859195CC81BD98811DC985E5174090240C333333333333E33F0000000000000F901079024090741D01000000000000111010841D405064090740C02480A0340
1001
ACAD
1000
AcDbSavedByObjectVersion
1070
     0
  0
ACAD_PROXY_OBJECT
  5
3F
102
{ACAD_REACTORS
330
2A
102
}
330
2A
100
AcDbProxyObject
 90
      499
 91
      501
 93
      476
310
41D4DAD95D18DA1E51840502408333333333333E33F0000000000000F901079024090741D01000000000000111010B41D405064090741802480A0340
1001
ACAD
1000
AcDbSavedByObjectVersion
1070
     0
  0
ACAD_PROXY_OBJECT
  5
37
102
{ACAD_REACTORS
330
2A
102
}
330
2A
100
AcDbProxyObject
 90
      499
 91
      501
 93
      412
310
41D51A1A58DAD95B90D409028333333333333E33F0000000000000F9010790141107004050150C41D405064090741402480A0350
1001
ACAD
1000
AcDbSavedByObjectVersion
1070
     0
  0
ACAD_PROXY_OBJECT
  5
30
102
{ACAD_REACTORS
330
2A
102
}
330
2A
100
AcDbProxyObject
 90
      499
 91
      501
 93
      420
310
4255DA5C99599C985B595059028333333333333E33F0000000000000F90107901411070040501600405405064090740C02480A0340
1001
ACAD
1000
AcDbSavedByObjectVersion
1070
     0
  0
ACAD_PROXY_OBJECT
  5
40
102
{ACAD_REACTORS
330
2A
102
}
330
2A
100
AcDbProxyObject
 90
      499
 91
      501
 93
      404
310
41560B54985E51940902404000000000000E03F0000000000000F9010740501907004050150841D405064090740C02480A1B40
1001
ACAD
1000
AcDbSavedByObjectVersion
1070
     0
  0
XRECORD
  5
1B1
102
{ACAD_REACTORS
330
1A7
102
}
330
1A7
100
AcDbXrecord
340
0
  0
XRECORD
  5
1B0
102
{ACAD_REACTORS
330
1A7
102
}
330
1A7
100
AcDbXrecord
 90
        0
  0
XRECORD
  5
1C7
102
{ACAD_REACTORS
330
1A7
102
}
330
1A7
100
AcDbXrecord
1000
DSTYLE
1002
{
1070
   171
 70
     2
1070
   143
 40
25.4
1070
   274
 70
     2
1070
    41
 40
0.18
1070
   141
 40
0.09
1070
   271
 70
     4
1070
    43
 40
0.38
1070
   278
 70
    46
1070
    44
 40
0.18
1070
    42
 40
0.0625
1070
   147
 40
0.09
1070
    77
 70
     0
1070
   272
 70
     4
1070
    73
 70
     1
1070
   279
 70
     2
1070
   172
 70
     0
1070
    74
 70
     1
1070
   283
 70
     1
1070
   340
340
11
1070
   140
 40
0.18
1070
   284
 70
     0
1070
    78
 70
     0
1002
}
  0
XRECORD
  5
1B2
102
{ACAD_REACTORS
330
1A7
102
}
330
1A7
100
AcDbXrecord
  1
{71b956f0-4544-44e1-ab64-b6c87dcea723}
  0
XRECORD
  5
1AA
102
{ACAD_REACTORS
330
1A7
102
}
330
1A7
100
AcDbXrecord
  1

  0
XRECORD
  5
1AF
102
{ACAD_REACTORS
330
1A7
102
}
330
1A7
100
AcDbXrecord
 90
        4
  0
XRECORD
  5
1AC
102
{ACAD_REACTORS
330
1A7
102
}
330
1A7
100
AcDbXrecord
340
1A
  0
XRECORD
  5
1AE
102
{ACAD_REACTORS
330
1A7
102
}
330
1A7
100
AcDbXrecord
 90
    10781
  0
XRECORD
  5
1AD
102
{ACAD_REACTORS
330
1A7
102
}
330
1A7
100
AcDbXrecord
340
19
  0
XRECORD
  5
1B4
102
{ACAD_REACTORS
330
1A7
102
}
330
1A7
100
AcDbXrecord
 40
0.0
  0
XRECORD
  5
1B7
102
{ACAD_REACTORS
330
1A7
102
}
330
1A7
100
AcDbXrecord
340
0
  0
XRECORD
  5
1BD
102
{ACAD_REACTORS
330
1A7
102
}
330
1A7
100
AcDbXrecord
 10
0.0
 20
0.0
 30
0.0
  0
XRECORD
  5
1B9
102
{ACAD_REACTORS
330
1A7
102
}
330
1A7
100
AcDbXrecord
 10
0.0
 20
0.0
 30
0.0
  0
XRECORD
  5
1BC
102
{ACAD_REACTORS
330
1A7
102
}
330
1A7
100
AcDbXrecord
 10
0.0
 20
0.0
 30
0.0
  0
XRECORD
  5
1BA
102
{ACAD_REACTORS
330
1A7
102
}
330
1A7
100
AcDbXrecord
 10
0.0
 20
0.0
 30
0.0
  0
XRECORD
  5
1BB
102
{ACAD_REACTORS
330
1A7
102
}
330
1A7
100
AcDbXrecord
 10
0.0
 20
0.0
 30
0.0
  0
XRECORD
  5
1B8
102
{ACAD_REACTORS
330
1A7
102
}
330
1A7
100
AcDbXrecord
 10
0.0
 20
0.0
 30
0.0
  0
XRECORD
  5
1B5
102
{ACAD_REACTORS
330
1A7
102
}
330
1A7
100
AcDbXrecord
340
0
  0
XRECORD
  5
1B6
102
{ACAD_REACTORS
330
1A7
102
}
330
1A7
100
AcDbXrecord
 70
     0
  0
XRECORD
  5
1AB
102
{ACAD_REACTORS
330
1A7
102
}
330
1A7
100
AcDbXrecord
  1

  0
XRECORD
  5
1A8
102
{ACAD_REACTORS
330
1A7
102
}
330
1A7
100
AcDbXrecord
 90
        1
  0
XRECORD
  5
1A9
102
{ACAD_REACTORS
330
1A7
102
}
330
1A7
100
AcDbXrecord
 90
       70
  0
XRECORD
  5
1C0
102
{ACAD_REACTORS
330
1A7
102
}
330
1A7
100
AcDbXrecord
340
0
  0
XRECORD
  5
1C6
102
{ACAD_REACTORS
330
1A7
102
}
330
1A7
100
AcDbXrecord
 10
0.0
 20
0.0
 30
0.0
  0
XRECORD
  5
1C2
102
{ACAD_REACTORS
330
1A7
102
}
330
1A7
100
AcDbXrecord
 10
0.0
 20
0.0
 30
0.0
  0
XRECORD
  5
1C5
102
{ACAD_REACTORS
330
1A7
102
}
330
1A7
100
AcDbXrecord
 10
0.0
 20
0.0
 30
0.0
  0
XRECORD
  5
1C3
102
{ACAD_REACTORS
330
1A7
102
}
330
1A7
100
AcDbXrecord
 10
0.0
 20
0.0
 30
0.0
  0
XRECORD
  5
1C4
102
{ACAD_REACTORS
330
1A7
102
}
330
1A7
100
AcDbXrecord
 10
0.0
 20
0.0
 30
0.0
  0
XRECORD
  5
1C1
102
{ACAD_REACTORS
330
1A7
102
}
330
1A7
100
AcDbXrecord
 10
0.0
 20
0.0
 30
0.0
  0
XRECORD
  5
1BE
102
{ACAD_REACTORS
330
1A7
102
}
330
1A7
100
AcDbXrecord
340
0
  0
XRECORD
  5
1BF
102
{ACAD_REACTORS
330
1A7
102
}
330
1A7
100
AcDbXrecord
 70
     0
  0
XRECORD
  5
1B3
102
{ACAD_REACTORS
330
1A7
102
}
330
1A7
100
AcDbXrecord
  1
{FAEB1C32-E019-11D5-929B-00C0DF256EC4}
  0
DICTIONARYVAR
  5
1D2
102
{ACAD_REACTORS
330
1C8
102
}
330
1C8
100
DictionaryVariables
280
     0
  1
1:1
  0
DICTIONARYVAR
  5
1CA
102
{ACAD_REACTORS
330
1C8
102
}
330
1C8
100
DictionaryVariables
280
     0
  1
Standard
  0
DICTIONARYVAR
  5
1C9
102
{ACAD_REACTORS
330
1C8
102
}
330
1C8
100
DictionaryVariables
280
     0
  1
Standard
  0
DICTIONARYVAR
  5
1CD
102
{ACAD_REACTORS
330
1C8
102
}
330
1C8
100
DictionaryVariables
280
     0
  1
2
  0
DICTIONARYVAR
  5
1CE
102
{ACAD_REACTORS
330
1C8
102
}
330
1C8
100
DictionaryVariables
280
     0
  1
1
  0
DICTIONARYVAR
  5
1D3
102
{ACAD_REACTORS
330
1C8
102
}
330
1C8
100
DictionaryVariables
280
     0
  1
1
  0
DICTIONARY
  5
1D6
330
45
100
AcDbDictionary
280
     1
  3
ACAD_XREC_ROUNDTRIP
360
1D7
  0
DICTIONARY
  5
1D4
330
44
100
AcDbDictionary
280
     1
  3
ACAD_XREC_ROUNDTRIP
360
1D5
  0
DICTIONARY
  5
1D8
330
46
100
AcDbDictionary
280
     1
  3
ACAD_XREC_ROUNDTRIP
360
1D9
  0
XRECORD
  5
1D7
102
{ACAD_REACTORS
330
1D6
102
}
330
1D6
100
AcDbXrecord
102
MATERIAL
148
0.0
149
0.0
149
0.0
 93
        0
 94
      127
282
     0
 72
     1
 77
     1
171
     1
175
     1
179
     1
273
     0
  0
XRECORD
  5
1D5
102
{ACAD_REACTORS
330
1D4
102
}
330
1D4
100
AcDbXrecord
102
MATERIAL
148
0.0
149
0.0
149
0.0
 93
        0
 94
      127
282
     0
 72
     1
 77
     1
171
     1
175
     1
179
     1
273
     0
  0
XRECORD
  5
1D9
102
{ACAD_REACTORS
330
1D8
102
}
330
1D8
100
AcDbXrecord
102
MATERIAL
148
0.0
149
0.0
149
0.0
 93
        0
 94
      127
282
     0
 72
     1
 77
     1
171
     1
175
     1
179
     1
273
     0
  0
ENDSEC
  0
EOF
