  0
SECTION
  2
HEADER
  9
$ACADVER
  1
AC1014
  9
$ACADMAINTVER
 70
     9
  9
$DWGCODEPAGE
  3
ANSI_1252
  9
$INSBASE
 10
0.0
 20
0.0
 30
0.0
  9
$EXTMIN
 10
-1199.750273968496
 20
-178.1845010431862
 30
-0.0000000038257184
  9
$EXTMAX
 10
1199.750260884515
 20
213.3154989568523
 30
0.0000000006682578
  9
$LIMMIN
 10
0.0
 20
0.0
  9
$LIMMAX
 10
12.0
 20
9.0
  9
$ORTHOMODE
 70
     0
  9
$REGENMODE
 70
     1
  9
$FILLMODE
 70
     1
  9
$QTEXTMODE
 70
     0
  9
$MIRRTEXT
 70
     1
  9
$DRAGMODE
 70
     2
  9
$LTSCALE
 40
1.0
  9
$OSMODE
 70
    37
  9
$ATTMODE
 70
     1
  9
$TEXTSIZE
 40
0.2
  9
$TRACEWID
 40
0.05
  9
$TEXTSTYLE
  7
STANDARD
  9
$CLAYER
  8
0
  9
$CELTYPE
  6
BYLAYER
  9
$CECOLOR
 62
   256
  9
$CELTSCALE
 40
1.0
  9
$DELOBJ
 70
     1
  9
$DISPSILH
 70
     0
  9
$DIMSCALE
 40
1.0
  9
$DIMASZ
 40
0.18
  9
$DIMEXO
 40
0.0625
  9
$DIMDLI
 40
0.38
  9
$DIMRND
 40
0.0
  9
$DIMDLE
 40
0.0
  9
$DIMEXE
 40
0.18
  9
$DIMTP
 40
0.0
  9
$DIMTM
 40
0.0
  9
$DIMTXT
 40
0.18
  9
$DIMCEN
 40
0.09
  9
$DIMTSZ
 40
0.0
  9
$DIMTOL
 70
     0
  9
$DIMLIM
 70
     0
  9
$DIMTIH
 70
     1
  9
$DIMTOH
 70
     1
  9
$DIMSE1
 70
     0
  9
$DIMSE2
 70
     0
  9
$DIMTAD
 70
     0
  9
$DIMZIN
 70
     0
  9
$DIMBLK
  1

  9
$DIMASO
 70
     1
  9
$DIMSHO
 70
     1
  9
$DIMPOST
  1

  9
$DIMAPOST
  1

  9
$DIMALT
 70
     0
  9
$DIMALTD
 70
     2
  9
$DIMALTF
 40
25.4
  9
$DIMLFAC
 40
1.0
  9
$DIMTOFL
 70
     0
  9
$DIMTVP
 40
0.0
  9
$DIMTIX
 70
     0
  9
$DIMSOXD
 70
     0
  9
$DIMSAH
 70
     0
  9
$DIMBLK1
  1

  9
$DIMBLK2
  1

  9
$DIMSTYLE
  2
STANDARD_ACAD
  9
$DIMCLRD
 70
     0
  9
$DIMCLRE
 70
     0
  9
$DIMCLRT
 70
     0
  9
$DIMTFAC
 40
1.0
  9
$DIMGAP
 40
0.09
  9
$DIMJUST
 70
     0
  9
$DIMSD1
 70
     0
  9
$DIMSD2
 70
     0
  9
$DIMTOLJ
 70
     1
  9
$DIMTZIN
 70
     0
  9
$DIMALTZ
 70
     0
  9
$DIMALTTZ
 70
     0
  9
$DIMFIT
 70
     5
  9
$DIMUPT
 70
     0
  9
$DIMUNIT
 70
     2
  9
$DIMDEC
 70
     4
  9
$DIMTDEC
 70
     4
  9
$DIMALTU
 70
     2
  9
$DIMALTTD
 70
     2
  9
$DIMTXSTY
  7
STANDARD
  9
$DIMAUNIT
 70
     0
  9
$LUNITS
 70
     2
  9
$LUPREC
 70
     2
  9
$SKETCHINC
 40
0.1
  9
$FILLETRAD
 40
0.0
  9
$AUNITS
 70
     0
  9
$AUPREC
 70
     0
  9
$MENU
  1
.
  9
$ELEVATION
 40
0.0
  9
$PELEVATION
 40
0.0
  9
$THICKNESS
 40
0.0
  9
$LIMCHECK
 70
     0
  9
$CHAMFERA
 40
0.0
  9
$CHAMFERB
 40
0.0
  9
$CHAMFERC
 40
0.0
  9
$CHAMFERD
 40
0.0
  9
$SKPOLY
 70
     0
  9
$TDCREATE
 40
2461249.437229387
  9
$TDUPDATE
 40
2461249.437229468
  9
$TDINDWG
 40
0.0000000116
  9
$TDUSRTIMER
 40
0.0000000116
  9
$USRTIMER
 70
     1
  9
$ANGBASE
 50
0.0
  9
$ANGDIR
 70
     0
  9
$PDMODE
 70
     0
  9
$PDSIZE
 40
0.0
  9
$PLINEWID
 40
0.0
  9
$COORDS
 70
     1
  9
$SPLFRAME
 70
     0
  9
$SPLINETYPE
 70
     6
  9
$SPLINESEGS
 70
     8
  9
$ATTDIA
 70
     0
  9
$ATTREQ
 70
     1
  9
$HANDLING
 70
     1
  9
$HANDSEED
  5
206
  9
$SURFTAB1
 70
     6
  9
$SURFTAB2
 70
     6
  9
$SURFTYPE
 70
     6
  9
$SURFU
 70
     6
  9
$SURFV
 70
     6
  9
$UCSNAME
  2

  9
$UCSORG
 10
0.0
 20
0.0
 30
0.0
  9
$UCSXDIR
 10
1.0
 20
0.0
 30
0.0
  9
$UCSYDIR
 10
0.0
 20
1.0
 30
0.0
  9
$PUCSNAME
  2

  9
$PUCSORG
 10
0.0
 20
0.0
 30
0.0
  9
$PUCSXDIR
 10
1.0
 20
0.0
 30
0.0
  9
$PUCSYDIR
 10
0.0
 20
1.0
 30
0.0
  9
$USERI1
 70
     0
  9
$USERI2
 70
     0
  9
$USERI3
 70
     0
  9
$USERI4
 70
     0
  9
$USERI5
 70
     0
  9
$USERR1
 40
0.0
  9
$USERR2
 40
0.0
  9
$USERR3
 40
0.0
  9
$USERR4
 40
0.0
  9
$USERR5
 40
0.0
  9
$WORLDVIEW
 70
     1
  9
$SHADEDGE
 70
     3
  9
$SHADEDIF
 70
    70
  9
$TILEMODE
 70
     1
  9
$MAXACTVP
 70
    64
  9
$PINSBASE
 10
0.0
 20
0.0
 30
0.0
  9
$PLIMCHECK
 70
     0
  9
$PEXTMIN
 10
1.000000000000000E+20
 20
1.000000000000000E+20
 30
1.000000000000000E+20
  9
$PEXTMAX
 10
-1.000000000000000E+20
 20
-1.000000000000000E+20
 30
-1.000000000000000E+20
  9
$PLIMMIN
 10
0.0
 20
0.0
  9
$PLIMMAX
 10
12.0
 20
9.0
  9
$UNITMODE
 70
     0
  9
$VISRETAIN
 70
     1
  9
$PLINEGEN
 70
     0
  9
$PSLTSCALE
 70
     1
  9
$TREEDEPTH
 70
  3020
  9
$PICKSTYLE
 70
     1
  9
$CMLSTYLE
  2
STANDARD
  9
$CMLJUST
 70
     0
  9
$CMLSCALE
 40
1.0
  9
$PROXYGRAPHICS
 70
     1
  9
$MEASUREMENT
 70
     1
  0
ENDSEC
  0
SECTION
  2
CLASSES
  0
CLASS
  1
ACDBDICTIONARYWDFLT
  2
AcDbDictionaryWithDefault
  3
ObjectDBX Classes
 90
        0
280
     0
281
     0
  0
CLASS
  1
VISUALSTYLE
  2
AcDbVisualStyle
  3
ObjectDBX Classes
 90
     4095
280
     0
281
     0
  0
CLASS
  1
MATERIAL
  2
AcDbMaterial
  3
ObjectDBX Classes
 90
     1153
280
     0
281
     0
  0
CLASS
  1
SCALE
  2
AcDbScale
  3
ObjectDBX Classes
 90
     1153
280
     0
281
     0
  0
CLASS
  1
TABLESTYLE
  2
AcDbTableStyle
  3
ObjectDBX Classes
 90
     4095
280
     0
281
     0
  0
CLASS
  1
MLEADERSTYLE
  2
AcDbMLeaderStyle
  3
ACDB_MLEADERSTYLE_CLASS
 90
     4095
280
     0
281
     0
  0
CLASS
  1
SUN
  2
AcDbSun
  3
SCENEOE
 90
     1153
280
     0
281
     0
  0
CLASS
  1
DICTIONARYVAR
  2
AcDbDictionaryVar
  3
ObjectDBX Classes
 90
        0
280
     0
281
     0
  0
CLASS
  1
XRECORD
  2
AcDbXrecord
  3
ObjectDBX Classes
 90
        0
280
     0
281
     0
  0
CLASS
  1
LWPOLYLINE
  2
AcDbPolyline
  3
ObjectDBX Classes
 90
        0
280
     0
281
     1
  0
CLASS
  1
HATCH
  2
AcDbHatch
  3
ObjectDBX Classes
 90
        0
280
     0
281
     1
  0
CLASS
  1
ACDBPLACEHOLDER
  2
AcDbPlaceHolder
  3
ObjectDBX Classes
 90
        0
280
     0
281
     0
  0
CLASS
  1
LAYOUT
  2
AcDbLayout
  3
ObjectDBX Classes
 90
        0
280
     0
281
     0
  0
ENDSEC
  0
SECTION
  2
TABLES
  0
TABLE
  2
VPORT
  5
8
102
{ACAD_XDICTIONARY
360
1FB
102
}
330
0
100
AcDbSymbolTable
 70
     1
  0
VPORT
  5
29
330
8
100
AcDbSymbolTableRecord
100
AcDbViewportTableRecord
  2
*ACTIVE
 70
     0
 10
0.0
 20
0.0
 11
1.0
 21
1.0
 12
10.42990654205607
 22
4.5
 13
0.0
 23
0.0
 14
0.5
 24
0.5
 15
0.5
 25
0.5
 16
0.0
 26
0.0
 36
1.0
 17
0.0
 27
0.0
 37
0.0
 40
9.0
 41
1.972972972850329
 42
50.0
 43
0.0
 44
0.0
 50
0.0
 51
0.0
 71
     0
 72
   100
 73
     1
 74
     3
 75
     0
 76
     0
 77
     0
 78
     0
  0
ENDTAB
  0
TABLE
  2
LTYPE
  5
5
330
0
100
AcDbSymbolTable
 70
     1
  0
LTYPE
  5
14
330
5
100
AcDbSymbolTableRecord
100
AcDbLinetypeTableRecord
  2
BYBLOCK
 70
     0
  3

 72
    65
 73
     0
 40
0.0
  0
LTYPE
  5
15
330
5
100
AcDbSymbolTableRecord
100
AcDbLinetypeTableRecord
  2
BYLAYER
 70
     0
  3

 72
    65
 73
     0
 40
0.0
  0
LTYPE
  5
16
330
5
100
AcDbSymbolTableRecord
100
AcDbLinetypeTableRecord
  2
CONTINUOUS
 70
     0
  3
Solid line
 72
    65
 73
     0
 40
0.0
  0
ENDTAB
  0
TABLE
  2
LAYER
  5
2
330
0
100
AcDbSymbolTable
 70
     5
  0
LAYER
  5
10
330
2
100
AcDbSymbolTableRecord
100
AcDbLayerTableRecord
  2
0
 70
     0
 62
     7
  6
CONTINUOUS
  0
LAYER
  5
5F
330
2
100
AcDbSymbolTableRecord
100
AcDbLayerTableRecord
  2
1_ANYTOOL_1MMDEEP_LABELS_S
 70
     0
 62
     2
  6
CONTINUOUS
  0
LAYER
  5
73
330
2
100
AcDbSymbolTableRecord
100
AcDbLayerTableRecord
  2
5_ANYTOOL_HALF_MILL_9MM_IN
 70
     0
 62
     3
  6
CONTINUOUS
  0
LAYER
  5
B6
330
2
100
AcDbSymbolTableRecord
100
AcDbLayerTableRecord
  2
3_ANYTOOL_CUTTHROUGH_INSID
 70
     0
 62
     4
  6
CONTINUOUS
  0
LAYER
  5
EF
330
2
100
AcDbSymbolTableRecord
100
AcDbLayerTableRecord
  2
4_ANYTOOL_CUTTHROUGH_OUTSI
 70
     0
 62
     5
  6
CONTINUOUS
  0
ENDTAB
  0
TABLE
  2
STYLE
  5
3
330
0
100
AcDbSymbolTable
 70
     1
  0
STYLE
  5
11
330
3
100
AcDbSymbolTableRecord
100
AcDbTextStyleTableRecord
  2
STANDARD
 70
     0
 40
0.0
 41
1.0
 50
0.0
 71
     0
 42
0.2
  3
txt
  4

  0
ENDTAB
  0
TABLE
  2
VIEW
  5
6
330
0
100
AcDbSymbolTable
 70
     0
  0
ENDTAB
  0
TABLE
  2
UCS
  5
7
330
0
100
AcDbSymbolTable
 70
     0
  0
ENDTAB
  0
TABLE
  2
APPID
  5
9
330
0
100
AcDbSymbolTable
 70
     3
  0
APPID
  5
12
330
9
100
AcDbSymbolTableRecord
100
AcDbRegAppTableRecord
  2
ACAD
 70
     0
  0
APPID
  5
5E
330
9
100
AcDbSymbolTableRecord
100
AcDbRegAppTableRecord
  2
RHINO
 70
     0
  0
APPID
  5
205
330
9
100
AcDbSymbolTableRecord
100
AcDbRegAppTableRecord
  2
ACAD_MLEADERVER
 70
     0
  0
ENDTAB
  0
TABLE
  2
DIMSTYLE
  5
A
330
0
100
AcDbSymbolTable
 70
     1
  0
DIMSTYLE
105
27
330
A
100
AcDbSymbolTableRecord
100
AcDbDimStyleTableRecord
  2
STANDARD_ACAD
 70
     0
  3

  4

  5

  6

  7

 40
1.0
 41
0.18
 42
0.0625
 43
0.38
 44
0.18
 45
0.0
 46
0.0
 47
0.0
 48
0.0
140
0.18
141
0.09
142
0.0
143
25.4
144
1.0
145
0.0
146
1.0
147
0.09
 71
     0
 72
     0
 73
     1
 74
     1
 75
     0
 76
     0
 77
     0
 78
     0
170
     0
171
     2
172
     0
173
     0
174
     0
175
     0
176
     0
177
     0
178
     0
270
     2
271
     4
272
     4
273
     2
274
     2
340
11
275
     0
280
     0
281
     0
282
     0
283
     1
284
     0
285
     0
286
     0
287
     3
288
     0
  0
ENDTAB
  0
TABLE
  2
BLOCK_RECORD
  5
1
330
0
100
AcDbSymbolTable
 70
     0
  0
BLOCK_RECORD
  5
1F
330
1
100
AcDbSymbolTableRecord
100
AcDbBlockTableRecord
  2
*MODEL_SPACE
  0
BLOCK_RECORD
  5
1B
330
1
100
AcDbSymbolTableRecord
100
AcDbBlockTableRecord
  2
*PAPER_SPACE
  0
ENDTAB
  0
ENDSEC
  0
SECTION
  2
BLOCKS
  0
BLOCK
  5
20
330
1F
100
AcDbEntity
  8
0
100
AcDbBlockBegin
  2
*MODEL_SPACE
 70
     0
 10
0.0
 20
0.0
 30
0.0
  3
*MODEL_SPACE
  1

  0
ENDBLK
  5
21
330
1F
100
AcDbEntity
  8
0
100
AcDbBlockEnd
  0
BLOCK
  5
1C
330
1B
100
AcDbEntity
 67
     1
  8
0
100
AcDbBlockBegin
  2
*PAPER_SPACE
 70
     0
 10
0.0
 20
0.0
 30
0.0
  3
*PAPER_SPACE
  1

  0
ENDBLK
  5
1D
330
1B
100
AcDbEntity
 67
     1
  8
0
100
AcDbBlockEnd
  0
ENDSEC
  0
SECTION
  2
ENTITIES
  0
POLYLINE
  5
60
330
1F
100
AcDbEntity
  8
1_ANYTOOL_1MMDEEP_LABELS_S
100
AcDb2dPolyline
 66
     1
 10
0.0
 20
0.0
 30
0.0
  0
VERTEX
  5
61
330
60
100
AcDbEntity
  8
1_ANYTOOL_1MMDEEP_LABELS_S
100
AcDbVertex
100
AcDb2dVertex
 10
21.94285714276702
 20
-30.00000000001455
 30
0.0
  0
VERTEX
  5
62
330
60
100
AcDbEntity
  8
1_ANYTOOL_1MMDEEP_LABELS_S
100
AcDbVertex
100
AcDb2dVertex
 10
2.99999999990996
 20
-30.00000000001455
 30
0.0
  0
VERTEX
  5
63
330
60
100
AcDbEntity
  8
1_ANYTOOL_1MMDEEP_LABELS_S
100
AcDbVertex
100
AcDb2dVertex
 10
2.99999999990996
 20
-0.0000000000145519
 30
0.0
  0
VERTEX
  5
64
330
60
100
AcDbEntity
  8
1_ANYTOOL_1MMDEEP_LABELS_S
100
AcDbVertex
100
AcDb2dVertex
 10
20.82857142848115
 20
-0.0000000000145519
 30
0.0
  0
SEQEND
  5
65
330
60
100
AcDbEntity
  8
1_ANYTOOL_1MMDEEP_LABELS_S
  0
LINE
  5
66
330
1F
100
AcDbEntity
  8
1_ANYTOOL_1MMDEEP_LABELS_S
100
AcDbLine
 10
17.65714285705326
 20
-13.92857142858702
 30
0.0
 11
2.99999999990996
 21
-13.92857142858702
 31
0.0
  0
LINE
  5
67
330
1F
100
AcDbEntity
  8
1_ANYTOOL_1MMDEEP_LABELS_S
100
AcDbLine
 10
34.15714285705326
 20
-16.1142857142986
 30
0.0
 11
25.37142857133858
 21
-16.20000000001164
 31
0.0
  0
POLYLINE
  5
68
330
1F
100
AcDbEntity
  8
1_ANYTOOL_1MMDEEP_LABELS_S
100
AcDb2dPolyline
 66
     1
 10
0.0
 20
0.0
 30
0.0
  0
VERTEX
  5
69
330
68
100
AcDbEntity
  8
1_ANYTOOL_1MMDEEP_LABELS_S
100
AcDbVertex
100
AcDb2dVertex
 10
39.29999999991014
 20
-0.0000000000145519
 30
0.0
  0
VERTEX
  5
6A
330
68
100
AcDbEntity
  8
1_ANYTOOL_1MMDEEP_LABELS_S
100
AcDbVertex
100
AcDb2dVertex
 10
39.29999999991014
 20
-30.00000000001455
 30
0.0
  0
VERTEX
  5
6B
330
68
100
AcDbEntity
  8
1_ANYTOOL_1MMDEEP_LABELS_S
100
AcDbVertex
100
AcDb2dVertex
 10
56.3999999999096
 20
-30.00000000001455
 30
0.0
  0
SEQEND
  5
6C
330
68
100
AcDbEntity
  8
1_ANYTOOL_1MMDEEP_LABELS_S
  0
LINE
  5
6D
330
1F
100
AcDbEntity
  8
1_ANYTOOL_1MMDEEP_LABELS_S
100
AcDbLine
 10
76.54285714276739
 20
-0.4714285714435391
 30
0.0
 11
59.35714285705308
 21
-31.24285714286816
 31
0.0
  0
POLYLINE
  5
6E
330
1F
100
AcDbEntity
  8
1_ANYTOOL_1MMDEEP_LABELS_S
100
AcDb2dPolyline
 66
     1
 10
0.0
 20
0.0
 30
0.0
  0
VERTEX
  5
6F
330
6E
100
AcDbEntity
  8
1_ANYTOOL_1MMDEEP_LABELS_S
100
AcDbVertex
100
AcDb2dVertex
 10
79.97142857133895
 20
-0.0000000000145519
 30
0.0
  0
VERTEX
  5
70
330
6E
100
AcDbEntity
  8
1_ANYTOOL_1MMDEEP_LABELS_S
100
AcDbVertex
100
AcDb2dVertex
 10
79.97142857133895
 20
-30.00000000001455
 30
0.0
  0
VERTEX
  5
71
330
6E
100
AcDbEntity
  8
1_ANYTOOL_1MMDEEP_LABELS_S
100
AcDbVertex
100
AcDb2dVertex
 10
97.0714285713384
 20
-30.00000000001455
 30
0.0
  0
SEQEND
  5
72
330
6E
100
AcDbEntity
  8
1_ANYTOOL_1MMDEEP_LABELS_S
  0
POLYLINE
  5
74
330
1F
100
AcDbEntity
  8
5_ANYTOOL_HALF_MILL_9MM_IN
100
AcDb2dPolyline
 66
     1
 10
0.0
 20
0.0
 30
0.000000000131258
 70
     1
  0
VERTEX
  5
75
330
74
100
AcDbEntity
  8
5_ANYTOOL_HALF_MILL_9MM_IN
100
AcDbVertex
100
AcDb2dVertex
 10
383.8499934576803
 20
145.5654989568211
 30
0.000000000131258
 42
0.9999999999998287
  0
VERTEX
  5
76
330
74
100
AcDbEntity
  8
5_ANYTOOL_HALF_MILL_9MM_IN
100
AcDbVertex
100
AcDb2dVertex
 10
426.3499934576948
 20
145.5654989568138
 30
0.000000000131258
  0
VERTEX
  5
77
330
74
100
AcDbEntity
  8
5_ANYTOOL_HALF_MILL_9MM_IN
100
AcDbVertex
100
AcDb2dVertex
 10
426.3499934576876
 20
151.8154989568138
 30
0.000000000131258
  0
VERTEX
  5
78
330
74
100
AcDbEntity
  8
5_ANYTOOL_HALF_MILL_9MM_IN
100
AcDbVertex
100
AcDb2dVertex
 10
383.8499934576794
 20
151.8154989568211
 30
0.000000000131258
  0
SEQEND
  5
79
330
74
100
AcDbEntity
  8
5_ANYTOOL_HALF_MILL_9MM_IN
  0
POLYLINE
  5
7A
330
1F
100
AcDbEntity
  8
5_ANYTOOL_HALF_MILL_9MM_IN
100
AcDb2dPolyline
 66
     1
 10
0.0
 20
0.0
 30
-0.0000000002136569
 70
     1
  0
VERTEX
  5
7B
330
7A
100
AcDbEntity
  8
5_ANYTOOL_HALF_MILL_9MM_IN
100
AcDbVertex
100
AcDb2dVertex
 10
983.8499934571246
 20
145.5654989567192
 30
-0.0000000002136569
 42
0.9999999999994863
  0
VERTEX
  5
7C
330
7A
100
AcDbEntity
  8
5_ANYTOOL_HALF_MILL_9MM_IN
100
AcDbVertex
100
AcDb2dVertex
 10
1026.349993457125
 20
145.565498956712
 30
-0.0000000002136569
  0
VERTEX
  5
7D
330
7A
100
AcDbEntity
  8
5_ANYTOOL_HALF_MILL_9MM_IN
100
AcDbVertex
100
AcDb2dVertex
 10
1026.349993457136
 20
151.815498956712
 30
-0.0000000002136569
  0
VERTEX
  5
7E
330
7A
100
AcDbEntity
  8
5_ANYTOOL_HALF_MILL_9MM_IN
100
AcDbVertex
100
AcDb2dVertex
 10
983.8499934571282
 20
151.8154989567192
 30
-0.0000000002136569
  0
SEQEND
  5
7F
330
7A
100
AcDbEntity
  8
5_ANYTOOL_HALF_MILL_9MM_IN
  0
POLYLINE
  5
80
330
1F
100
AcDbEntity
  8
5_ANYTOOL_HALF_MILL_9MM_IN
100
AcDb2dPolyline
 66
     1
 10
0.0
 20
0.0
 30
0.0000000000145738
 70
     1
  0
VERTEX
  5
81
330
80
100
AcDbEntity
  8
5_ANYTOOL_HALF_MILL_9MM_IN
100
AcDbVertex
100
AcDb2dVertex
 10
816.1499934570811
 20
145.5654989567629
 30
0.0000000000145738
 42
-0.9999999999994863
  0
VERTEX
  5
82
330
80
100
AcDbEntity
  8
5_ANYTOOL_HALF_MILL_9MM_IN
100
AcDbVertex
100
AcDb2dVertex
 10
773.6499934570738
 20
145.5654989567702
 30
0.0000000000145738
  0
VERTEX
  5
83
330
80
100
AcDbEntity
  8
5_ANYTOOL_HALF_MILL_9MM_IN
100
AcDbVertex
100
AcDb2dVertex
 10
773.6499934570729
 20
151.8154989567702
 30
0.0000000000145738
  0
VERTEX
  5
84
330
80
100
AcDbEntity
  8
5_ANYTOOL_HALF_MILL_9MM_IN
100
AcDbVertex
100
AcDb2dVertex
 10
816.149993457082
 20
151.8154989567629
 30
0.0000000000145738
  0
SEQEND
  5
85
330
80
100
AcDbEntity
  8
5_ANYTOOL_HALF_MILL_9MM_IN
  0
POLYLINE
  5
86
330
1F
100
AcDbEntity
  8
5_ANYTOOL_HALF_MILL_9MM_IN
100
AcDb2dPolyline
 66
     1
 10
0.0
 20
0.0
 30
0.0000000003677835
 70
     1
  0
VERTEX
  5
87
330
86
100
AcDbEntity
  8
5_ANYTOOL_HALF_MILL_9MM_IN
100
AcDbVertex
100
AcDb2dVertex
 10
-216.1500065416831
 20
145.5654989568648
 30
0.0000000003677835
 42
0.9999999999994863
  0
VERTEX
  5
88
330
86
100
AcDbEntity
  8
5_ANYTOOL_HALF_MILL_9MM_IN
100
AcDbVertex
100
AcDb2dVertex
 10
-173.6500065416849
 20
145.5654989568575
 30
0.0000000003677835
  0
VERTEX
  5
89
330
86
100
AcDbEntity
  8
5_ANYTOOL_HALF_MILL_9MM_IN
100
AcDbVertex
100
AcDb2dVertex
 10
-173.6500065416703
 20
151.8154989568575
 30
0.0000000003677835
  0
VERTEX
  5
8A
330
86
100
AcDbEntity
  8
5_ANYTOOL_HALF_MILL_9MM_IN
100
AcDbVertex
100
AcDb2dVertex
 10
-216.1500065416785
 20
151.8154989568648
 30
0.0000000003677835
  0
SEQEND
  5
8B
330
86
100
AcDbEntity
  8
5_ANYTOOL_HALF_MILL_9MM_IN
  0
POLYLINE
  5
8C
330
1F
100
AcDbEntity
  8
5_ANYTOOL_HALF_MILL_9MM_IN
100
AcDb2dPolyline
 66
     1
 10
0.0
 20
0.0
 30
-0.0000000038257184
 70
     1
  0
VERTEX
  5
8D
330
8C
100
AcDbEntity
  8
5_ANYTOOL_HALF_MILL_9MM_IN
100
AcDbVertex
100
AcDb2dVertex
 10
21.24999345837568
 20
145.5654989567265
 30
-0.0000000038257184
 42
-0.9999999999996595
  0
VERTEX
  5
8E
330
8C
100
AcDbEntity
  8
5_ANYTOOL_HALF_MILL_9MM_IN
100
AcDbVertex
100
AcDb2dVertex
 10
-21.25000654234464
 20
145.5654989567265
 30
-0.0000000038257184
  0
VERTEX
  5
8F
330
8C
100
AcDbEntity
  8
5_ANYTOOL_HALF_MILL_9MM_IN
100
AcDbVertex
100
AcDb2dVertex
 10
-21.25000654241921
 20
151.8154989567338
 30
-0.0000000038257184
  0
VERTEX
  5
90
330
8C
100
AcDbEntity
  8
5_ANYTOOL_HALF_MILL_9MM_IN
100
AcDbVertex
100
AcDb2dVertex
 10
21.24999345830292
 20
151.8154989567265
 30
-0.0000000038257184
  0
SEQEND
  5
91
330
8C
100
AcDbEntity
  8
5_ANYTOOL_HALF_MILL_9MM_IN
  0
POLYLINE
  5
92
330
1F
100
AcDbEntity
  8
5_ANYTOOL_HALF_MILL_9MM_IN
100
AcDb2dPolyline
 66
     1
 10
0.0
 20
0.0
 30
0.0000000006005573
 70
     1
  0
VERTEX
  5
93
330
92
100
AcDbEntity
  8
5_ANYTOOL_HALF_MILL_9MM_IN
100
AcDbVertex
100
AcDb2dVertex
 10
-816.1500065410501
 20
145.5654989569157
 30
0.0000000006005573
 42
0.9999999999994863
  0
VERTEX
  5
94
330
92
100
AcDbEntity
  8
5_ANYTOOL_HALF_MILL_9MM_IN
100
AcDbVertex
100
AcDb2dVertex
 10
-773.6500065410282
 20
145.5654989569084
 30
0.0000000006005573
  0
VERTEX
  5
95
330
92
100
AcDbEntity
  8
5_ANYTOOL_HALF_MILL_9MM_IN
100
AcDbVertex
100
AcDb2dVertex
 10
-773.6500065410428
 20
151.8154989569084
 30
0.0000000006005573
  0
VERTEX
  5
96
330
92
100
AcDbEntity
  8
5_ANYTOOL_HALF_MILL_9MM_IN
100
AcDbVertex
100
AcDb2dVertex
 10
-816.150006541051
 20
151.8154989569157
 30
0.0000000006005573
  0
SEQEND
  5
97
330
92
100
AcDbEntity
  8
5_ANYTOOL_HALF_MILL_9MM_IN
  0
POLYLINE
  5
98
330
1F
100
AcDbEntity
  8
5_ANYTOOL_HALF_MILL_9MM_IN
100
AcDb2dPolyline
 66
     1
 10
0.0
 20
0.0
 30
0.0000000002510992
 70
     1
  0
VERTEX
  5
99
330
98
100
AcDbEntity
  8
5_ANYTOOL_HALF_MILL_9MM_IN
100
AcDbVertex
100
AcDb2dVertex
 10
216.1499934577178
 20
145.5654989568066
 30
0.0000000002510992
 42
-0.9999999999991439
  0
VERTEX
  5
9A
330
98
100
AcDbEntity
  8
5_ANYTOOL_HALF_MILL_9MM_IN
100
AcDbVertex
100
AcDb2dVertex
 10
173.6499934577178
 20
145.5654989568138
 30
0.0000000002510992
  0
VERTEX
  5
9B
330
98
100
AcDbEntity
  8
5_ANYTOOL_HALF_MILL_9MM_IN
100
AcDbVertex
100
AcDb2dVertex
 10
173.6499934577078
 20
151.8154989568138
 30
0.0000000002510992
  0
VERTEX
  5
9C
330
98
100
AcDbEntity
  8
5_ANYTOOL_HALF_MILL_9MM_IN
100
AcDbVertex
100
AcDb2dVertex
 10
216.1499934577168
 20
151.8154989568066
 30
0.0000000002510992
  0
SEQEND
  5
9D
330
98
100
AcDbEntity
  8
5_ANYTOOL_HALF_MILL_9MM_IN
  0
POLYLINE
  5
9E
330
1F
100
AcDbEntity
  8
5_ANYTOOL_HALF_MILL_9MM_IN
100
AcDb2dPolyline
 66
     1
 10
0.0
 20
0.0
 30
-0.0000000038257184
 70
     1
  0
VERTEX
  5
9F
330
9E
100
AcDbEntity
  8
5_ANYTOOL_HALF_MILL_9MM_IN
100
AcDbVertex
100
AcDb2dVertex
 10
-578.7500065409913
 20
145.5654989567774
 30
-0.0000000038257184
 42
-0.9999999999994885
  0
VERTEX
  5
A0
330
9E
100
AcDbEntity
  8
5_ANYTOOL_HALF_MILL_9MM_IN
100
AcDbVertex
100
AcDb2dVertex
 10
-621.2500065417089
 20
145.5654989567702
 30
-0.0000000038257184
  0
VERTEX
  5
A1
330
9E
100
AcDbEntity
  8
5_ANYTOOL_HALF_MILL_9MM_IN
100
AcDbVertex
100
AcDb2dVertex
 10
-621.2500065417889
 20
151.8154989567774
 30
-0.0000000038257184
  0
VERTEX
  5
A2
330
9E
100
AcDbEntity
  8
5_ANYTOOL_HALF_MILL_9MM_IN
100
AcDbVertex
100
AcDb2dVertex
 10
-578.7500065410668
 20
151.8154989567774
 30
-0.0000000038257184
  0
SEQEND
  5
A3
330
9E
100
AcDbEntity
  8
5_ANYTOOL_HALF_MILL_9MM_IN
  0
POLYLINE
  5
A4
330
1F
100
AcDbEntity
  8
5_ANYTOOL_HALF_MILL_9MM_IN
100
AcDb2dPolyline
 66
     1
 10
0.0
 20
0.0
 30
0.000000000483873
 70
     1
  0
VERTEX
  5
A5
330
A4
100
AcDbEntity
  8
5_ANYTOOL_HALF_MILL_9MM_IN
100
AcDbVertex
100
AcDb2dVertex
 10
-383.8500065416492
 20
145.5654989568575
 30
0.000000000483873
 42
-0.9999999999994863
  0
VERTEX
  5
A6
330
A4
100
AcDbEntity
  8
5_ANYTOOL_HALF_MILL_9MM_IN
100
AcDbVertex
100
AcDb2dVertex
 10
-426.3500065416638
 20
145.5654989568648
 30
0.000000000483873
  0
VERTEX
  5
A7
330
A4
100
AcDbEntity
  8
5_ANYTOOL_HALF_MILL_9MM_IN
100
AcDbVertex
100
AcDb2dVertex
 10
-426.3500065416547
 20
151.8154989568648
 30
0.000000000483873
  0
VERTEX
  5
A8
330
A4
100
AcDbEntity
  8
5_ANYTOOL_HALF_MILL_9MM_IN
100
AcDbVertex
100
AcDb2dVertex
 10
-383.8500065416456
 20
151.8154989568575
 30
0.000000000483873
  0
SEQEND
  5
A9
330
A4
100
AcDbEntity
  8
5_ANYTOOL_HALF_MILL_9MM_IN
  0
POLYLINE
  5
AA
330
1F
100
AcDbEntity
  8
5_ANYTOOL_HALF_MILL_9MM_IN
100
AcDb2dPolyline
 66
     1
 10
0.0
 20
0.0
 30
0.0000000006682578
 70
     1
  0
VERTEX
  5
AB
330
AA
100
AcDbEntity
  8
5_ANYTOOL_HALF_MILL_9MM_IN
100
AcDbVertex
100
AcDb2dVertex
 10
-983.8500065411099
 20
145.565498956872
 30
0.0000000006682578
 42
-0.9999999999996575
  0
VERTEX
  5
AC
330
AA
100
AcDbEntity
  8
5_ANYTOOL_HALF_MILL_9MM_IN
100
AcDbVertex
100
AcDb2dVertex
 10
-1026.350006541115
 20
145.5654989568575
 30
0.0000000006682578
  0
VERTEX
  5
AD
330
AA
100
AcDbEntity
  8
5_ANYTOOL_HALF_MILL_9MM_IN
100
AcDbVertex
100
AcDb2dVertex
 10
-1026.350006541125
 20
151.8154989568575
 30
0.0000000006682578
  0
VERTEX
  5
AE
330
AA
100
AcDbEntity
  8
5_ANYTOOL_HALF_MILL_9MM_IN
100
AcDbVertex
100
AcDb2dVertex
 10
-983.8500065411145
 20
151.815498956872
 30
0.0000000006682578
  0
SEQEND
  5
AF
330
AA
100
AcDbEntity
  8
5_ANYTOOL_HALF_MILL_9MM_IN
  0
POLYLINE
  5
B0
330
1F
100
AcDbEntity
  8
5_ANYTOOL_HALF_MILL_9MM_IN
100
AcDb2dPolyline
 66
     1
 10
0.0
 20
0.0
 30
-0.0000000038257184
 70
     1
  0
VERTEX
  5
B1
330
B0
100
AcDbEntity
  8
5_ANYTOOL_HALF_MILL_9MM_IN
100
AcDbVertex
100
AcDb2dVertex
 10
621.249993457739
 20
145.5654989566829
 30
-0.0000000038257184
 42
-0.9999999999988048
  0
VERTEX
  5
B2
330
B0
100
AcDbEntity
  8
5_ANYTOOL_HALF_MILL_9MM_IN
100
AcDbVertex
100
AcDb2dVertex
 10
578.7499934570133
 20
145.5654989566756
 30
-0.0000000038257184
  0
VERTEX
  5
B3
330
B0
100
AcDbEntity
  8
5_ANYTOOL_HALF_MILL_9MM_IN
100
AcDbVertex
100
AcDb2dVertex
 10
578.749993456945
 20
151.8154989566829
 30
-0.0000000038257184
  0
VERTEX
  5
B4
330
B0
100
AcDbEntity
  8
5_ANYTOOL_HALF_MILL_9MM_IN
100
AcDbVertex
100
AcDb2dVertex
 10
621.2499934576672
 20
151.8154989566829
 30
-0.0000000038257184
  0
SEQEND
  5
B5
330
B0
100
AcDbEntity
  8
5_ANYTOOL_HALF_MILL_9MM_IN
  0
POLYLINE
  5
B7
330
1F
100
AcDbEntity
  8
3_ANYTOOL_CUTTHROUGH_INSID
100
AcDb2dPolyline
 66
     1
 10
0.0
 20
0.0
 30
-0.0000000000014388
 70
     1
  0
VERTEX
  5
B8
330
B7
100
AcDbEntity
  8
3_ANYTOOL_CUTTHROUGH_INSID
100
AcDbVertex
100
AcDb2dVertex
 10
875.7499934568095
 20
51.81549895838543
 30
-0.0000000000014388
  0
VERTEX
  5
B9
330
B7
100
AcDbEntity
  8
3_ANYTOOL_CUTTHROUGH_INSID
100
AcDbVertex
100
AcDb2dVertex
 10
875.7499934568095
 20
39.31549895838543
 30
-0.0000000000014388
  0
VERTEX
  5
BA
330
B7
100
AcDbEntity
  8
3_ANYTOOL_CUTTHROUGH_INSID
100
AcDbVertex
100
AcDb2dVertex
 10
881.7499934568123
 20
39.31549895838543
 30
-0.0000000000014388
  0
VERTEX
  5
BB
330
B7
100
AcDbEntity
  8
3_ANYTOOL_CUTTHROUGH_INSID
100
AcDbVertex
100
AcDb2dVertex
 10
881.7499934568132
 20
3.815498958385433
 30
-0.0000000000014388
  0
VERTEX
  5
BC
330
B7
100
AcDbEntity
  8
3_ANYTOOL_CUTTHROUGH_INSID
100
AcDbVertex
100
AcDb2dVertex
 10
875.7499934568095
 20
3.815498958385433
 30
-0.0000000000014388
  0
VERTEX
  5
BD
330
B7
100
AcDbEntity
  8
3_ANYTOOL_CUTTHROUGH_INSID
100
AcDbVertex
100
AcDb2dVertex
 10
875.7499934568104
 20
-8.684501041614567
 30
-0.0000000000014388
  0
VERTEX
  5
BE
330
B7
100
AcDbEntity
  8
3_ANYTOOL_CUTTHROUGH_INSID
100
AcDbVertex
100
AcDb2dVertex
 10
924.2499934571242
 20
-8.684501041672775
 30
-0.0000000000014388
  0
VERTEX
  5
BF
330
B7
100
AcDbEntity
  8
3_ANYTOOL_CUTTHROUGH_INSID
100
AcDbVertex
100
AcDb2dVertex
 10
924.2499934571242
 20
3.815498958327225
 30
-0.0000000000014388
  0
VERTEX
  5
C0
330
B7
100
AcDbEntity
  8
3_ANYTOOL_CUTTHROUGH_INSID
100
AcDbVertex
100
AcDb2dVertex
 10
918.2499934571206
 20
3.815498958319949
 30
-0.0000000000014388
  0
VERTEX
  5
C1
330
B7
100
AcDbEntity
  8
3_ANYTOOL_CUTTHROUGH_INSID
100
AcDbVertex
100
AcDb2dVertex
 10
918.2499934571206
 20
39.31549895829085
 30
-0.0000000000014388
  0
VERTEX
  5
C2
330
B7
100
AcDbEntity
  8
3_ANYTOOL_CUTTHROUGH_INSID
100
AcDbVertex
100
AcDb2dVertex
 10
924.2499934571233
 20
39.31549895829085
 30
-0.0000000000014388
  0
VERTEX
  5
C3
330
B7
100
AcDbEntity
  8
3_ANYTOOL_CUTTHROUGH_INSID
100
AcDbVertex
100
AcDb2dVertex
 10
924.2499934571251
 20
51.81549895829085
 30
-0.0000000000014388
  0
SEQEND
  5
C4
330
B7
100
AcDbEntity
  8
3_ANYTOOL_CUTTHROUGH_INSID
  0
POLYLINE
  5
C5
330
1F
100
AcDbEntity
  8
3_ANYTOOL_CUTTHROUGH_INSID
100
AcDb2dPolyline
 66
     1
 10
0.0
 20
0.0
 30
0.0000000001478604
 70
     1
  0
VERTEX
  5
C6
330
C5
100
AcDbEntity
  8
3_ANYTOOL_CUTTHROUGH_INSID
100
AcDbVertex
100
AcDb2dVertex
 10
324.2499934573634
 20
-8.684501044044737
 30
0.0000000001478604
  0
VERTEX
  5
C7
330
C5
100
AcDbEntity
  8
3_ANYTOOL_CUTTHROUGH_INSID
100
AcDbVertex
100
AcDb2dVertex
 10
324.2499934573634
 20
3.815498955969815
 30
0.0000000001478604
  0
VERTEX
  5
C8
330
C5
100
AcDbEntity
  8
3_ANYTOOL_CUTTHROUGH_INSID
100
AcDbVertex
100
AcDb2dVertex
 10
318.2499934573607
 20
3.815498955969815
 30
0.0000000001478604
  0
VERTEX
  5
C9
330
C5
100
AcDbEntity
  8
3_ANYTOOL_CUTTHROUGH_INSID
100
AcDbVertex
100
AcDb2dVertex
 10
318.2499934571115
 20
39.31549895596254
 30
0.0000000001478604
  0
VERTEX
  5
CA
330
C5
100
AcDbEntity
  8
3_ANYTOOL_CUTTHROUGH_INSID
100
AcDbVertex
100
AcDb2dVertex
 10
324.2499934571124
 20
39.31549895596254
 30
0.0000000001478604
  0
VERTEX
  5
CB
330
C5
100
AcDbEntity
  8
3_ANYTOOL_CUTTHROUGH_INSID
100
AcDbVertex
100
AcDb2dVertex
 10
324.2499934571124
 20
51.81549895594799
 30
0.0000000001478604
  0
VERTEX
  5
CC
330
C5
100
AcDbEntity
  8
3_ANYTOOL_CUTTHROUGH_INSID
100
AcDbVertex
100
AcDb2dVertex
 10
275.7499934574462
 20
51.81549895844364
 30
0.0000000001478604
  0
VERTEX
  5
CD
330
C5
100
AcDbEntity
  8
3_ANYTOOL_CUTTHROUGH_INSID
100
AcDbVertex
100
AcDb2dVertex
 10
275.7499934574462
 20
39.31549895842909
 30
0.0000000001478604
  0
VERTEX
  5
CE
330
C5
100
AcDbEntity
  8
3_ANYTOOL_CUTTHROUGH_INSID
100
AcDbVertex
100
AcDb2dVertex
 10
281.7499934574489
 20
39.31549895842909
 30
0.0000000001478604
  0
VERTEX
  5
CF
330
C5
100
AcDbEntity
  8
3_ANYTOOL_CUTTHROUGH_INSID
100
AcDbVertex
100
AcDb2dVertex
 10
281.7499934574498
 20
3.815498958429089
 30
0.0000000001478604
  0
VERTEX
  5
D0
330
C5
100
AcDbEntity
  8
3_ANYTOOL_CUTTHROUGH_INSID
100
AcDbVertex
100
AcDb2dVertex
 10
275.7499934574462
 20
3.815498958429089
 30
0.0000000001478604
  0
VERTEX
  5
D1
330
C5
100
AcDbEntity
  8
3_ANYTOOL_CUTTHROUGH_INSID
100
AcDbVertex
100
AcDb2dVertex
 10
275.7499934574471
 20
-8.68450104155636
 30
0.0000000001478604
  0
SEQEND
  5
D2
330
C5
100
AcDbEntity
  8
3_ANYTOOL_CUTTHROUGH_INSID
  0
POLYLINE
  5
D3
330
1F
100
AcDbEntity
  8
3_ANYTOOL_CUTTHROUGH_INSID
100
AcDb2dPolyline
 66
     1
 10
0.0
 20
0.0
 30
0.0000000003843859
 70
     1
  0
VERTEX
  5
D4
330
D3
100
AcDbEntity
  8
3_ANYTOOL_CUTTHROUGH_INSID
100
AcDbVertex
100
AcDb2dVertex
 10
-275.7500065419999
 20
-8.684501044001081
 30
0.0000000003843859
  0
VERTEX
  5
D5
330
D3
100
AcDbEntity
  8
3_ANYTOOL_CUTTHROUGH_INSID
100
AcDbVertex
100
AcDb2dVertex
 10
-275.7500065419999
 20
3.815498956013471
 30
0.0000000003843859
  0
VERTEX
  5
D6
330
D3
100
AcDbEntity
  8
3_ANYTOOL_CUTTHROUGH_INSID
100
AcDbVertex
100
AcDb2dVertex
 10
-281.7500065420027
 20
3.815498956013471
 30
0.0000000003843859
  0
VERTEX
  5
D7
330
D3
100
AcDbEntity
  8
3_ANYTOOL_CUTTHROUGH_INSID
100
AcDbVertex
100
AcDb2dVertex
 10
-281.7500065422519
 20
39.31549895600619
 30
0.0000000003843859
  0
VERTEX
  5
D8
330
D3
100
AcDbEntity
  8
3_ANYTOOL_CUTTHROUGH_INSID
100
AcDbVertex
100
AcDb2dVertex
 10
-275.750006542251
 20
39.31549895600619
 30
0.0000000003843859
  0
VERTEX
  5
D9
330
D3
100
AcDbEntity
  8
3_ANYTOOL_CUTTHROUGH_INSID
100
AcDbVertex
100
AcDb2dVertex
 10
-275.750006542251
 20
51.81549895599164
 30
0.0000000003843859
  0
VERTEX
  5
DA
330
D3
100
AcDbEntity
  8
3_ANYTOOL_CUTTHROUGH_INSID
100
AcDbVertex
100
AcDb2dVertex
 10
-324.2500065419208
 20
51.81549895849457
 30
0.0000000003843859
  0
VERTEX
  5
DB
330
D3
100
AcDbEntity
  8
3_ANYTOOL_CUTTHROUGH_INSID
100
AcDbVertex
100
AcDb2dVertex
 10
-324.2500065419208
 20
39.31549895848002
 30
0.0000000003843859
  0
VERTEX
  5
DC
330
D3
100
AcDbEntity
  8
3_ANYTOOL_CUTTHROUGH_INSID
100
AcDbVertex
100
AcDb2dVertex
 10
-318.2500065419181
 20
39.31549895848002
 30
0.0000000003843859
  0
VERTEX
  5
DD
330
D3
100
AcDbEntity
  8
3_ANYTOOL_CUTTHROUGH_INSID
100
AcDbVertex
100
AcDb2dVertex
 10
-318.2500065419172
 20
3.815498958480021
 30
0.0000000003843859
  0
VERTEX
  5
DE
330
D3
100
AcDbEntity
  8
3_ANYTOOL_CUTTHROUGH_INSID
100
AcDbVertex
100
AcDb2dVertex
 10
-324.2500065419208
 20
3.815498958480021
 30
0.0000000003843859
  0
VERTEX
  5
DF
330
D3
100
AcDbEntity
  8
3_ANYTOOL_CUTTHROUGH_INSID
100
AcDbVertex
100
AcDb2dVertex
 10
-324.2500065419199
 20
-8.684501041505428
 30
0.0000000003843859
  0
SEQEND
  5
E0
330
D3
100
AcDbEntity
  8
3_ANYTOOL_CUTTHROUGH_INSID
  0
POLYLINE
  5
E1
330
1F
100
AcDbEntity
  8
3_ANYTOOL_CUTTHROUGH_INSID
100
AcDb2dPolyline
 66
     1
 10
0.0
 20
0.0
 30
0.0000000006171312
 70
     1
  0
VERTEX
  5
E2
330
E1
100
AcDbEntity
  8
3_ANYTOOL_CUTTHROUGH_INSID
100
AcDbVertex
100
AcDb2dVertex
 10
-875.7500065413669
 20
3.815498956064403
 30
0.0000000006171312
  0
VERTEX
  5
E3
330
E1
100
AcDbEntity
  8
3_ANYTOOL_CUTTHROUGH_INSID
100
AcDbVertex
100
AcDb2dVertex
 10
-875.7500065413669
 20
-8.68450104395015
 30
0.0000000006171312
  0
VERTEX
  5
E4
330
E1
100
AcDbEntity
  8
3_ANYTOOL_CUTTHROUGH_INSID
100
AcDbVertex
100
AcDb2dVertex
 10
-924.250006541105
 20
-8.684501041505428
 30
0.0000000006171312
  0
VERTEX
  5
E5
330
E1
100
AcDbEntity
  8
3_ANYTOOL_CUTTHROUGH_INSID
100
AcDbVertex
100
AcDb2dVertex
 10
-924.250006541105
 20
3.815498958480021
 30
0.0000000006171312
  0
VERTEX
  5
E6
330
E1
100
AcDbEntity
  8
3_ANYTOOL_CUTTHROUGH_INSID
100
AcDbVertex
100
AcDb2dVertex
 10
-918.2500065411014
 20
3.815498958472745
 30
0.0000000006171312
  0
VERTEX
  5
E7
330
E1
100
AcDbEntity
  8
3_ANYTOOL_CUTTHROUGH_INSID
100
AcDbVertex
100
AcDb2dVertex
 10
-918.2500065411014
 20
39.31549895844364
 30
0.0000000006171312
  0
VERTEX
  5
E8
330
E1
100
AcDbEntity
  8
3_ANYTOOL_CUTTHROUGH_INSID
100
AcDbVertex
100
AcDb2dVertex
 10
-924.250006541105
 20
39.31549895844364
 30
0.0000000006171312
  0
VERTEX
  5
E9
330
E1
100
AcDbEntity
  8
3_ANYTOOL_CUTTHROUGH_INSID
100
AcDbVertex
100
AcDb2dVertex
 10
-924.2500065411068
 20
51.81549895845819
 30
0.0000000006171312
  0
VERTEX
  5
EA
330
E1
100
AcDbEntity
  8
3_ANYTOOL_CUTTHROUGH_INSID
100
AcDbVertex
100
AcDb2dVertex
 10
-875.750006541618
 20
51.81549895604257
 30
0.0000000006171312
  0
VERTEX
  5
EB
330
E1
100
AcDbEntity
  8
3_ANYTOOL_CUTTHROUGH_INSID
100
AcDbVertex
100
AcDb2dVertex
 10
-875.750006541618
 20
39.31549895605713
 30
0.0000000006171312
  0
VERTEX
  5
EC
330
E1
100
AcDbEntity
  8
3_ANYTOOL_CUTTHROUGH_INSID
100
AcDbVertex
100
AcDb2dVertex
 10
-881.7500065416189
 20
39.31549895605713
 30
0.0000000006171312
  0
VERTEX
  5
ED
330
E1
100
AcDbEntity
  8
3_ANYTOOL_CUTTHROUGH_INSID
100
AcDbVertex
100
AcDb2dVertex
 10
-881.7500065413697
 20
3.815498956064403
 30
0.0000000006171312
  0
SEQEND
  5
EE
330
E1
100
AcDbEntity
  8
3_ANYTOOL_CUTTHROUGH_INSID
  0
POLYLINE
  5
F0
330
1F
100
AcDbEntity
  8
4_ANYTOOL_CUTTHROUGH_OUTSI
100
AcDb2dPolyline
 66
     1
 10
0.0
 20
0.0
 30
0.0
 70
     1
  0
VERTEX
  5
F1
330
F0
100
AcDbEntity
  8
4_ANYTOOL_CUTTHROUGH_OUTSI
100
AcDbVertex
100
AcDb2dVertex
 10
869.3455562056506
 20
201.3154989567629
 30
0.0
  0
VERTEX
  5
F2
330
F0
100
AcDbEntity
  8
4_ANYTOOL_CUTTHROUGH_OUTSI
100
AcDbVertex
100
AcDb2dVertex
 10
881.7499934571179
 20
201.3154989566974
 30
0.0
  0
VERTEX
  5
F3
330
F0
100
AcDbEntity
  8
4_ANYTOOL_CUTTHROUGH_OUTSI
100
AcDbVertex
100
AcDb2dVertex
 10
881.7499934580828
 20
123.8154948990923
 30
0.0
  0
VERTEX
  5
F4
330
F0
100
AcDbEntity
  8
4_ANYTOOL_CUTTHROUGH_OUTSI
100
AcDbVertex
100
AcDb2dVertex
 10
875.9999934580828
 20
123.8154948991069
 30
0.0
 42
0.4142135623890758
  0
VERTEX
  5
F5
330
F0
100
AcDbEntity
  8
4_ANYTOOL_CUTTHROUGH_OUTSI
100
AcDbVertex
100
AcDb2dVertex
 10
875.7499934580837
 20
123.5654948991069
 30
0.0
  0
VERTEX
  5
F6
330
F0
100
AcDbEntity
  8
4_ANYTOOL_CUTTHROUGH_OUTSI
100
AcDbVertex
100
AcDb2dVertex
 10
875.7499934580528
 20
111.5654948991069
 30
0.0
 42
0.4142135623751013
  0
VERTEX
  5
F7
330
F0
100
AcDbEntity
  8
4_ANYTOOL_CUTTHROUGH_OUTSI
100
AcDbVertex
100
AcDb2dVertex
 10
875.9999934580528
 20
111.3154948991087
 30
0.0
  0
VERTEX
  5
F8
330
F0
100
AcDbEntity
  8
4_ANYTOOL_CUTTHROUGH_OUTSI
100
AcDbVertex
100
AcDb2dVertex
 10
923.9999934561338
 20
111.3154948990777
 30
0.0
 42
0.4142135623752028
  0
VERTEX
  5
F9
330
F0
100
AcDbEntity
  8
4_ANYTOOL_CUTTHROUGH_OUTSI
100
AcDbVertex
100
AcDb2dVertex
 10
924.2499934561356
 20
111.5654948990777
 30
0.0
  0
VERTEX
  5
FA
330
F0
100
AcDbEntity
  8
4_ANYTOOL_CUTTHROUGH_OUTSI
100
AcDbVertex
100
AcDb2dVertex
 10
924.2499934561047
 20
123.5654948990777
 30
0.0
 42
0.4142135623753083
  0
VERTEX
  5
FB
330
F0
100
AcDbEntity
  8
4_ANYTOOL_CUTTHROUGH_OUTSI
100
AcDbVertex
100
AcDb2dVertex
 10
923.9999934561038
 20
123.8154948990768
 30
0.0
  0
VERTEX
  5
FC
330
F0
100
AcDbEntity
  8
4_ANYTOOL_CUTTHROUGH_OUTSI
100
AcDbVertex
100
AcDb2dVertex
 10
918.2499934561038
 20
123.8154948990632
 30
0.0
  0
VERTEX
  5
FD
330
F0
100
AcDbEntity
  8
4_ANYTOOL_CUTTHROUGH_OUTSI
100
AcDbVertex
100
AcDb2dVertex
 10
918.2499934570724
 20
201.3154989566756
 30
0.0
  0
VERTEX
  5
FE
330
F0
100
AcDbEntity
  8
4_ANYTOOL_CUTTHROUGH_OUTSI
100
AcDbVertex
100
AcDb2dVertex
 10
930.6544307085933
 20
201.3154989566756
 30
0.0
 42
0.3178372451957703
  0
VERTEX
  5
FF
330
F0
100
AcDbEntity
  8
4_ANYTOOL_CUTTHROUGH_OUTSI
100
AcDbVertex
100
AcDb2dVertex
 10
936.5469872184774
 20
205.4821656233472
 30
0.0
 42
-0.7071067811845878
  0
VERTEX
  5
100
330
F0
100
AcDbEntity
  8
4_ANYTOOL_CUTTHROUGH_OUTSI
100
AcDbVertex
100
AcDb2dVertex
 10
958.7029996956618
 20
205.4821656233468
 30
0.0
 42
0.3178372451973727
  0
VERTEX
  5
101
330
F0
100
AcDbEntity
  8
4_ANYTOOL_CUTTHROUGH_OUTSI
100
AcDbVertex
100
AcDb2dVertex
 10
964.5955562055506
 20
201.3154989566848
 30
0.0
  0
VERTEX
  5
102
330
F0
100
AcDbEntity
  8
4_ANYTOOL_CUTTHROUGH_OUTSI
100
AcDbVertex
100
AcDb2dVertex
 10
976.9945561036575
 20
201.3154989567192
 30
0.0
  0
VERTEX
  5
103
330
F0
100
AcDbEntity
  8
4_ANYTOOL_CUTTHROUGH_OUTSI
100
AcDbVertex
100
AcDb2dVertex
 10
976.7595620947064
 20
199.9206287564088
 30
0.0
  0
VERTEX
  5
104
330
F0
100
AcDbEntity
  8
4_ANYTOOL_CUTTHROUGH_OUTSI
100
AcDbVertex
100
AcDb2dVertex
 10
959.8640288680344
 20
151.6480865628982
 30
0.0
  0
VERTEX
  5
105
330
F0
100
AcDbEntity
  8
4_ANYTOOL_CUTTHROUGH_OUTSI
100
AcDbVertex
100
AcDb2dVertex
 10
959.8499934571269
 20
151.5654989567192
 30
0.0
 42
0.4142135623761404
  0
VERTEX
  5
106
330
F0
100
AcDbEntity
  8
4_ANYTOOL_CUTTHROUGH_OUTSI
100
AcDbVertex
100
AcDb2dVertex
 10
966.0999934571419
 20
145.3154989567101
 30
0.0
  0
VERTEX
  5
107
330
F0
100
AcDbEntity
  8
4_ANYTOOL_CUTTHROUGH_OUTSI
100
AcDbVertex
100
AcDb2dVertex
 10
1044.099993457133
 20
145.315498956712
 30
0.0
 42
0.4142135623742134
  0
VERTEX
  5
108
330
F0
100
AcDbEntity
  8
4_ANYTOOL_CUTTHROUGH_OUTSI
100
AcDbVertex
100
AcDb2dVertex
 10
1050.349993457164
 20
151.5654989567192
 30
0.0
  0
VERTEX
  5
109
330
F0
100
AcDbEntity
  8
4_ANYTOOL_CUTTHROUGH_OUTSI
100
AcDbVertex
100
AcDb2dVertex
 10
1050.335958046259
 20
151.6480865628986
 30
0.0
  0
VERTEX
  5
10A
330
F0
100
AcDbEntity
  8
4_ANYTOOL_CUTTHROUGH_OUTSI
100
AcDbVertex
100
AcDb2dVertex
 10
1033.436845051808
 20
199.9316937357798
 30
0.0
  0
VERTEX
  5
10B
330
F0
100
AcDbEntity
  8
4_ANYTOOL_CUTTHROUGH_OUTSI
100
AcDbVertex
100
AcDb2dVertex
 10
1033.205430810601
 20
201.3154989566995
 30
0.0
  0
VERTEX
  5
10C
330
F0
100
AcDbEntity
  8
4_ANYTOOL_CUTTHROUGH_OUTSI
100
AcDbVertex
100
AcDb2dVertex
 10
1171.89455610302
 20
201.3154989565955
 30
0.0
  0
VERTEX
  5
10D
330
F0
100
AcDbEntity
  8
4_ANYTOOL_CUTTHROUGH_OUTSI
100
AcDbVertex
100
AcDb2dVertex
 10
1171.659562094069
 20
199.9206287562728
 30
0.0
  0
VERTEX
  5
10E
330
F0
100
AcDbEntity
  8
4_ANYTOOL_CUTTHROUGH_OUTSI
100
AcDbVertex
100
AcDb2dVertex
 10
1154.764028867387
 20
151.6480865627746
 30
0.0
  0
VERTEX
  5
10F
330
F0
100
AcDbEntity
  8
4_ANYTOOL_CUTTHROUGH_OUTSI
100
AcDbVertex
100
AcDb2dVertex
 10
1154.749993456478
 20
151.5654989565955
 30
0.0
 42
0.414213562374229
  0
VERTEX
  5
110
330
F0
100
AcDbEntity
  8
4_ANYTOOL_CUTTHROUGH_OUTSI
100
AcDbVertex
100
AcDb2dVertex
 10
1160.999993456495
 20
145.3154989565901
 30
0.0
  0
VERTEX
  5
111
330
F0
100
AcDbEntity
  8
4_ANYTOOL_CUTTHROUGH_OUTSI
100
AcDbVertex
100
AcDb2dVertex
 10
1199.749993472364
 20
145.3154989565883
 30
0.0
  0
VERTEX
  5
112
330
F0
100
AcDbEntity
  8
4_ANYTOOL_CUTTHROUGH_OUTSI
100
AcDbVertex
100
AcDb2dVertex
 10
1199.749999028311
 20
55.59139113254787
 30
0.0
 42
-0.4093150900882098
  0
VERTEX
  5
113
330
F0
100
AcDbEntity
  8
4_ANYTOOL_CUTTHROUGH_OUTSI
100
AcDbVertex
100
AcDb2dVertex
 10
1194.042308473199
 20
49.89701322936359
 30
0.0
  0
VERTEX
  5
114
330
F0
100
AcDbEntity
  8
4_ANYTOOL_CUTTHROUGH_OUTSI
100
AcDbVertex
100
AcDb2dVertex
 10
1144.082849082264
 20
67.38296461281425
 30
0.0
  0
VERTEX
  5
115
330
F0
100
AcDbEntity
  8
4_ANYTOOL_CUTTHROUGH_OUTSI
100
AcDbVertex
100
AcDb2dVertex
 10
1144.000260884497
 20
67.39700023077604
 30
0.0
 42
0.4142135623736107
  0
VERTEX
  5
116
330
F0
100
AcDbEntity
  8
4_ANYTOOL_CUTTHROUGH_OUTSI
100
AcDbVertex
100
AcDb2dVertex
 10
1137.750260884501
 20
61.14700023077603
 30
0.0
  0
VERTEX
  5
117
330
F0
100
AcDbEntity
  8
4_ANYTOOL_CUTTHROUGH_OUTSI
100
AcDbVertex
100
AcDb2dVertex
 10
1137.750260884484
 20
-16.85299976922397
 30
0.0
 42
0.4142135623736106
  0
VERTEX
  5
118
330
F0
100
AcDbEntity
  8
4_ANYTOOL_CUTTHROUGH_OUTSI
100
AcDbVertex
100
AcDb2dVertex
 10
1144.000260884504
 20
-23.10299976921851
 30
0.0
  0
VERTEX
  5
119
330
F0
100
AcDbEntity
  8
4_ANYTOOL_CUTTHROUGH_OUTSI
100
AcDbVertex
100
AcDb2dVertex
 10
1144.08284908227
 20
-23.08896415126287
 30
0.0
  0
VERTEX
  5
11A
330
F0
100
AcDbEntity
  8
4_ANYTOOL_CUTTHROUGH_OUTSI
100
AcDbVertex
100
AcDb2dVertex
 10
1194.042308384053
 20
-5.603012799030672
 30
0.0
 42
-0.4120733482197073
  0
VERTEX
  5
11B
330
F0
100
AcDbEntity
  8
4_ANYTOOL_CUTTHROUGH_OUTSI
100
AcDbVertex
100
AcDb2dVertex
 10
1199.750260884515
 20
-11.35285885845224
 30
0.0
  0
VERTEX
  5
11C
330
F0
100
AcDbEntity
  8
4_ANYTOOL_CUTTHROUGH_OUTSI
100
AcDbVertex
100
AcDb2dVertex
 10
1199.749993856991
 20
-178.1845010431862
 30
0.0
  0
VERTEX
  5
11D
330
F0
100
AcDbEntity
  8
4_ANYTOOL_CUTTHROUGH_OUTSI
100
AcDbVertex
100
AcDb2dVertex
 10
-1199.75000694097
 20
-178.1845010430407
 30
0.0
  0
VERTEX
  5
11E
330
F0
100
AcDbEntity
  8
4_ANYTOOL_CUTTHROUGH_OUTSI
100
AcDbVertex
100
AcDb2dVertex
 10
-1199.750273968496
 20
-11.35285885830672
 30
0.0
 42
-0.4120733482197997
  0
VERTEX
  5
11F
330
F0
100
AcDbEntity
  8
4_ANYTOOL_CUTTHROUGH_OUTSI
100
AcDbVertex
100
AcDb2dVertex
 10
-1194.042321468034
 20
-5.603012798888147
 30
0.0
  0
VERTEX
  5
120
330
F0
100
AcDbEntity
  8
4_ANYTOOL_CUTTHROUGH_OUTSI
100
AcDbVertex
100
AcDb2dVertex
 10
-1144.082862166251
 20
-23.08896415111667
 30
0.0
  0
VERTEX
  5
121
330
F0
100
AcDbEntity
  8
4_ANYTOOL_CUTTHROUGH_OUTSI
100
AcDbVertex
100
AcDb2dVertex
 10
-1144.000273968484
 20
-23.10299976907846
 30
0.0
 42
0.4142135623734789
  0
VERTEX
  5
122
330
F0
100
AcDbEntity
  8
4_ANYTOOL_CUTTHROUGH_OUTSI
100
AcDbVertex
100
AcDb2dVertex
 10
-1137.750273968462
 20
-16.85299976907845
 30
0.0
  0
VERTEX
  5
123
330
F0
100
AcDbEntity
  8
4_ANYTOOL_CUTTHROUGH_OUTSI
100
AcDbVertex
100
AcDb2dVertex
 10
-1137.750273968474
 20
61.14700023092155
 30
0.0
 42
0.4142135623722709
  0
VERTEX
  5
124
330
F0
100
AcDbEntity
  8
4_ANYTOOL_CUTTHROUGH_OUTSI
100
AcDbVertex
100
AcDb2dVertex
 10
-1144.000273968477
 20
67.397000230927
 30
0.0
  0
VERTEX
  5
125
330
F0
100
AcDbEntity
  8
4_ANYTOOL_CUTTHROUGH_OUTSI
100
AcDbVertex
100
AcDb2dVertex
 10
-1144.082862166245
 20
67.38296461296024
 30
0.0
  0
VERTEX
  5
126
330
F0
100
AcDbEntity
  8
4_ANYTOOL_CUTTHROUGH_OUTSI
100
AcDbVertex
100
AcDb2dVertex
 10
-1194.042321557179
 20
49.89701322950714
 30
0.0
 42
-0.4093150900882654
  0
VERTEX
  5
127
330
F0
100
AcDbEntity
  8
4_ANYTOOL_CUTTHROUGH_OUTSI
100
AcDbVertex
100
AcDb2dVertex
 10
-1199.750012112292
 20
55.59139113269339
 30
0.0
  0
VERTEX
  5
128
330
F0
100
AcDbEntity
  8
4_ANYTOOL_CUTTHROUGH_OUTSI
100
AcDbVertex
100
AcDb2dVertex
 10
-1199.750006556348
 20
145.3154989567338
 30
0.0
  0
VERTEX
  5
129
330
F0
100
AcDbEntity
  8
4_ANYTOOL_CUTTHROUGH_OUTSI
100
AcDbVertex
100
AcDb2dVertex
 10
-1161.000006540478
 20
145.3154989567338
 30
0.0
 42
0.4142135623743267
  0
VERTEX
  5
12A
330
F0
100
AcDbEntity
  8
4_ANYTOOL_CUTTHROUGH_OUTSI
100
AcDbVertex
100
AcDb2dVertex
 10
-1154.750006540459
 20
151.5654989567411
 30
0.0
  0
VERTEX
  5
12B
330
F0
100
AcDbEntity
  8
4_ANYTOOL_CUTTHROUGH_OUTSI
100
AcDbVertex
100
AcDb2dVertex
 10
-1154.76404195137
 20
151.6480865629271
 30
0.0
  0
VERTEX
  5
12C
330
F0
100
AcDbEntity
  8
4_ANYTOOL_CUTTHROUGH_OUTSI
100
AcDbVertex
100
AcDb2dVertex
 10
-1171.663154945524
 20
199.9316937348849
 30
0.0
  0
VERTEX
  5
12D
330
F0
100
AcDbEntity
  8
4_ANYTOOL_CUTTHROUGH_OUTSI
100
AcDbVertex
100
AcDb2dVertex
 10
-1171.894569186992
 20
201.3154989567407
 30
0.0
  0
VERTEX
  5
12E
330
F0
100
AcDbEntity
  8
4_ANYTOOL_CUTTHROUGH_OUTSI
100
AcDbVertex
100
AcDb2dVertex
 10
-1033.205443894584
 20
201.3154989568502
 30
0.0
  0
VERTEX
  5
12F
330
F0
100
AcDbEntity
  8
4_ANYTOOL_CUTTHROUGH_OUTSI
100
AcDbVertex
100
AcDb2dVertex
 10
-1033.440437903532
 20
199.9206287565537
 30
0.0
  0
VERTEX
  5
130
330
F0
100
AcDbEntity
  8
4_ANYTOOL_CUTTHROUGH_OUTSI
100
AcDbVertex
100
AcDb2dVertex
 10
-1050.33597113024
 20
151.6480865630438
 30
0.0
  0
VERTEX
  5
131
330
F0
100
AcDbEntity
  8
4_ANYTOOL_CUTTHROUGH_OUTSI
100
AcDbVertex
100
AcDb2dVertex
 10
-1050.35000654115
 20
151.5654989568648
 30
0.0
 42
0.4142135623729348
  0
VERTEX
  5
132
330
F0
100
AcDbEntity
  8
4_ANYTOOL_CUTTHROUGH_OUTSI
100
AcDbVertex
100
AcDb2dVertex
 10
-1044.100006541115
 20
145.3154989568584
 30
0.0
  0
VERTEX
  5
133
330
F0
100
AcDbEntity
  8
4_ANYTOOL_CUTTHROUGH_OUTSI
100
AcDbVertex
100
AcDb2dVertex
 10
-966.1000065411245
 20
145.315498956872
 30
0.0
 42
0.4142135623754006
  0
VERTEX
  5
134
330
F0
100
AcDbEntity
  8
4_ANYTOOL_CUTTHROUGH_OUTSI
100
AcDbVertex
100
AcDb2dVertex
 10
-959.8500065411044
 20
151.565498956872
 30
0.0
  0
VERTEX
  5
135
330
F0
100
AcDbEntity
  8
4_ANYTOOL_CUTTHROUGH_OUTSI
100
AcDbVertex
100
AcDb2dVertex
 10
-959.8640419520175
 20
151.6480865630585
 30
0.0
  0
VERTEX
  5
136
330
F0
100
AcDbEntity
  8
4_ANYTOOL_CUTTHROUGH_OUTSI
100
AcDbVertex
100
AcDb2dVertex
 10
-976.7631549464331
 20
199.9316937359399
 30
0.0
  0
VERTEX
  5
137
330
F0
100
AcDbEntity
  8
4_ANYTOOL_CUTTHROUGH_OUTSI
100
AcDbVertex
100
AcDb2dVertex
 10
-976.9945691876394
 20
201.3154989568762
 30
0.0
  0
VERTEX
  5
138
330
F0
100
AcDbEntity
  8
4_ANYTOOL_CUTTHROUGH_OUTSI
100
AcDbVertex
100
AcDb2dVertex
 10
-964.5955692895332
 20
201.3154989568429
 30
0.0
 42
0.3178372451954434
  0
VERTEX
  5
139
330
F0
100
AcDbEntity
  8
4_ANYTOOL_CUTTHROUGH_OUTSI
100
AcDbVertex
100
AcDb2dVertex
 10
-958.7030127796455
 20
205.482165623499
 30
0.0
 42
-0.7071067811846592
  0
VERTEX
  5
13A
330
F0
100
AcDbEntity
  8
4_ANYTOOL_CUTTHROUGH_OUTSI
100
AcDbVertex
100
AcDb2dVertex
 10
-936.5470003024584
 20
205.4821656235002
 30
0.0
 42
0.3178372451983751
  0
VERTEX
  5
13B
330
F0
100
AcDbEntity
  8
4_ANYTOOL_CUTTHROUGH_OUTSI
100
AcDbVertex
100
AcDb2dVertex
 10
-930.6544437925768
 20
201.3154989568339
 30
0.0
  0
VERTEX
  5
13C
330
F0
100
AcDbEntity
  8
4_ANYTOOL_CUTTHROUGH_OUTSI
100
AcDbVertex
100
AcDb2dVertex
 10
-918.2500065410559
 20
201.3154989568284
 30
0.0
  0
VERTEX
  5
13D
330
F0
100
AcDbEntity
  8
4_ANYTOOL_CUTTHROUGH_OUTSI
100
AcDbVertex
100
AcDb2dVertex
 10
-918.2500065400855
 20
123.815494899216
 30
0.0
  0
VERTEX
  5
13E
330
F0
100
AcDbEntity
  8
4_ANYTOOL_CUTTHROUGH_OUTSI
100
AcDbVertex
100
AcDb2dVertex
 10
-924.0000065400855
 20
123.8154948992305
 30
0.0
 42
0.4142135623742173
  0
VERTEX
  5
13F
330
F0
100
AcDbEntity
  8
4_ANYTOOL_CUTTHROUGH_OUTSI
100
AcDbVertex
100
AcDb2dVertex
 10
-924.2500065400864
 20
123.5654948992305
 30
0.0
  0
VERTEX
  5
140
330
F0
100
AcDbEntity
  8
4_ANYTOOL_CUTTHROUGH_OUTSI
100
AcDbVertex
100
AcDb2dVertex
 10
-924.2500065401155
 20
111.5654948992305
 30
0.0
 42
0.4142135623751013
  0
VERTEX
  5
141
330
F0
100
AcDbEntity
  8
4_ANYTOOL_CUTTHROUGH_OUTSI
100
AcDbVertex
100
AcDb2dVertex
 10
-924.0000065401155
 20
111.3154948992324
 30
0.0
  0
VERTEX
  5
142
330
F0
100
AcDbEntity
  8
4_ANYTOOL_CUTTHROUGH_OUTSI
100
AcDbVertex
100
AcDb2dVertex
 10
-876.0000065420336
 20
111.3154948992596
 30
0.0
 42
0.4142135623869136
  0
VERTEX
  5
143
330
F0
100
AcDbEntity
  8
4_ANYTOOL_CUTTHROUGH_OUTSI
100
AcDbVertex
100
AcDb2dVertex
 10
-875.7500065420363
 20
111.5654948992596
 30
0.0
  0
VERTEX
  5
144
330
F0
100
AcDbEntity
  8
4_ANYTOOL_CUTTHROUGH_OUTSI
100
AcDbVertex
100
AcDb2dVertex
 10
-875.7500065420627
 20
123.5654948992596
 30
0.0
 42
0.4142135623859055
  0
VERTEX
  5
145
330
F0
100
AcDbEntity
  8
4_ANYTOOL_CUTTHROUGH_OUTSI
100
AcDbVertex
100
AcDb2dVertex
 10
-876.0000065420636
 20
123.8154948992642
 30
0.0
  0
VERTEX
  5
146
330
F0
100
AcDbEntity
  8
4_ANYTOOL_CUTTHROUGH_OUTSI
100
AcDbVertex
100
AcDb2dVertex
 10
-881.7500065420609
 20
123.8154948992451
 30
0.0
  0
VERTEX
  5
147
330
F0
100
AcDbEntity
  8
4_ANYTOOL_CUTTHROUGH_OUTSI
100
AcDbVertex
100
AcDb2dVertex
 10
-881.7500065410932
 20
201.3154989568648
 30
0.0
  0
VERTEX
  5
148
330
F0
100
AcDbEntity
  8
4_ANYTOOL_CUTTHROUGH_OUTSI
100
AcDbVertex
100
AcDb2dVertex
 10
-869.3455692895741
 20
201.315498956872
 30
0.0
 42
0.3178372451969517
  0
VERTEX
  5
149
330
F0
100
AcDbEntity
  8
4_ANYTOOL_CUTTHROUGH_OUTSI
100
AcDbVertex
100
AcDb2dVertex
 10
-863.4530127796894
 20
205.4821656235372
 30
0.0
 42
-0.7071067811845179
  0
VERTEX
  5
14A
330
F0
100
AcDbEntity
  8
4_ANYTOOL_CUTTHROUGH_OUTSI
100
AcDbVertex
100
AcDb2dVertex
 10
-841.2970003025031
 20
205.4821656235366
 30
0.0
 42
0.3178372451954158
  0
VERTEX
  5
14B
330
F0
100
AcDbEntity
  8
4_ANYTOOL_CUTTHROUGH_OUTSI
100
AcDbVertex
100
AcDb2dVertex
 10
-835.4044437926204
 20
201.3154989568786
 30
0.0
  0
VERTEX
  5
14C
330
F0
100
AcDbEntity
  8
4_ANYTOOL_CUTTHROUGH_OUTSI
100
AcDbVertex
100
AcDb2dVertex
 10
-823.0054438945326
 20
201.3154989568939
 30
0.0
  0
VERTEX
  5
14D
330
F0
100
AcDbEntity
  8
4_ANYTOOL_CUTTHROUGH_OUTSI
100
AcDbVertex
100
AcDb2dVertex
 10
-823.2404379034617
 20
199.9206287565929
 30
0.0
  0
VERTEX
  5
14E
330
F0
100
AcDbEntity
  8
4_ANYTOOL_CUTTHROUGH_OUTSI
100
AcDbVertex
100
AcDb2dVertex
 10
-840.1359711301384
 20
151.6480865630947
 30
0.0
  0
VERTEX
  5
14F
330
F0
100
AcDbEntity
  8
4_ANYTOOL_CUTTHROUGH_OUTSI
100
AcDbVertex
100
AcDb2dVertex
 10
-840.1500065410482
 20
151.5654989569157
 30
0.0
 42
0.4142135623766917
  0
VERTEX
  5
150
330
F0
100
AcDbEntity
  8
4_ANYTOOL_CUTTHROUGH_OUTSI
100
AcDbVertex
100
AcDb2dVertex
 10
-833.9000065410264
 20
145.3154989569139
 30
0.0
  0
VERTEX
  5
151
330
F0
100
AcDbEntity
  8
4_ANYTOOL_CUTTHROUGH_OUTSI
100
AcDbVertex
100
AcDb2dVertex
 10
-755.9000065410464
 20
145.3154989569011
 30
0.0
 42
0.414213562372199
  0
VERTEX
  5
152
330
F0
100
AcDbEntity
  8
4_ANYTOOL_CUTTHROUGH_OUTSI
100
AcDbVertex
100
AcDb2dVertex
 10
-749.6500065410146
 20
151.5654989569084
 30
0.0
  0
VERTEX
  5
153
330
F0
100
AcDbEntity
  8
4_ANYTOOL_CUTTHROUGH_OUTSI
100
AcDbVertex
100
AcDb2dVertex
 10
-749.6640419519252
 20
151.6480865630872
 30
0.0
  0
VERTEX
  5
154
330
F0
100
AcDbEntity
  8
4_ANYTOOL_CUTTHROUGH_OUTSI
100
AcDbVertex
100
AcDb2dVertex
 10
-766.5631549463706
 20
199.9316937359617
 30
0.0
  0
VERTEX
  5
155
330
F0
100
AcDbEntity
  8
4_ANYTOOL_CUTTHROUGH_OUTSI
100
AcDbVertex
100
AcDb2dVertex
 10
-766.7945691875643
 20
201.3154989568892
 30
0.0
  0
VERTEX
  5
156
330
F0
100
AcDbEntity
  8
4_ANYTOOL_CUTTHROUGH_OUTSI
100
AcDbVertex
100
AcDb2dVertex
 10
-628.1054438951605
 20
201.3154989567774
 30
0.0
  0
VERTEX
  5
157
330
F0
100
AcDbEntity
  8
4_ANYTOOL_CUTTHROUGH_OUTSI
100
AcDbVertex
100
AcDb2dVertex
 10
-628.3404379041244
 20
199.920628756462
 30
0.0
  0
VERTEX
  5
158
330
F0
100
AcDbEntity
  8
4_ANYTOOL_CUTTHROUGH_OUTSI
100
AcDbVertex
100
AcDb2dVertex
 10
-645.2359711308045
 20
151.6480865629637
 30
0.0
  0
VERTEX
  5
159
330
F0
100
AcDbEntity
  8
4_ANYTOOL_CUTTHROUGH_OUTSI
100
AcDbVertex
100
AcDb2dVertex
 10
-645.2500065417116
 20
151.5654989567847
 30
0.0
 42
0.4142135623765684
  0
VERTEX
  5
15A
330
F0
100
AcDbEntity
  8
4_ANYTOOL_CUTTHROUGH_OUTSI
100
AcDbVertex
100
AcDb2dVertex
 10
-639.0000065416971
 20
145.315498956782
 30
0.0
  0
VERTEX
  5
15B
330
F0
100
AcDbEntity
  8
4_ANYTOOL_CUTTHROUGH_OUTSI
100
AcDbVertex
100
AcDb2dVertex
 10
-561.0000065410013
 20
145.3154989567774
 30
0.0
 42
0.4142135623747557
  0
VERTEX
  5
15C
330
F0
100
AcDbEntity
  8
4_ANYTOOL_CUTTHROUGH_OUTSI
100
AcDbVertex
100
AcDb2dVertex
 10
-554.7500065409804
 20
151.5654989567774
 30
0.0
  0
VERTEX
  5
15D
330
F0
100
AcDbEntity
  8
4_ANYTOOL_CUTTHROUGH_OUTSI
100
AcDbVertex
100
AcDb2dVertex
 10
-554.7640419518877
 20
151.648086562956
 30
0.0
  0
VERTEX
  5
15E
330
F0
100
AcDbEntity
  8
4_ANYTOOL_CUTTHROUGH_OUTSI
100
AcDbVertex
100
AcDb2dVertex
 10
-571.66315494631
 20
199.9316937358381
 30
0.0
  0
VERTEX
  5
15F
330
F0
100
AcDbEntity
  8
4_ANYTOOL_CUTTHROUGH_OUTSI
100
AcDbVertex
100
AcDb2dVertex
 10
-571.8945691875329
 20
201.3154989567782
 30
0.0
  0
VERTEX
  5
160
330
F0
100
AcDbEntity
  8
4_ANYTOOL_CUTTHROUGH_OUTSI
100
AcDbVertex
100
AcDb2dVertex
 10
-433.2054438951309
 20
201.3154989568429
 30
0.0
  0
VERTEX
  5
161
330
F0
100
AcDbEntity
  8
4_ANYTOOL_CUTTHROUGH_OUTSI
100
AcDbVertex
100
AcDb2dVertex
 10
-433.4404379040668
 20
199.920628756542
 30
0.0
  0
VERTEX
  5
162
330
F0
100
AcDbEntity
  8
4_ANYTOOL_CUTTHROUGH_OUTSI
100
AcDbVertex
100
AcDb2dVertex
 10
-450.3359711307694
 20
151.648086563051
 30
0.0
  0
VERTEX
  5
163
330
F0
100
AcDbEntity
  8
4_ANYTOOL_CUTTHROUGH_OUTSI
100
AcDbVertex
100
AcDb2dVertex
 10
-450.3500065416767
 20
151.565498956872
 30
0.0
 42
0.4142135623723084
  0
VERTEX
  5
164
330
F0
100
AcDbEntity
  8
4_ANYTOOL_CUTTHROUGH_OUTSI
100
AcDbVertex
100
AcDb2dVertex
 10
-444.1000065416447
 20
145.3154989568657
 30
0.0
  0
VERTEX
  5
165
330
F0
100
AcDbEntity
  8
4_ANYTOOL_CUTTHROUGH_OUTSI
100
AcDbVertex
100
AcDb2dVertex
 10
-366.1000065416638
 20
145.3154989568575
 30
0.0
 42
0.4142135623756115
  0
VERTEX
  5
166
330
F0
100
AcDbEntity
  8
4_ANYTOOL_CUTTHROUGH_OUTSI
100
AcDbVertex
100
AcDb2dVertex
 10
-359.8500065416465
 20
151.5654989568648
 30
0.0
  0
VERTEX
  5
167
330
F0
100
AcDbEntity
  8
4_ANYTOOL_CUTTHROUGH_OUTSI
100
AcDbVertex
100
AcDb2dVertex
 10
-359.8640419525553
 20
151.6480865630441
 30
0.0
  0
VERTEX
  5
168
330
F0
100
AcDbEntity
  8
4_ANYTOOL_CUTTHROUGH_OUTSI
100
AcDbVertex
100
AcDb2dVertex
 10
-376.7631549465568
 20
199.9316937345284
 30
0.0
  0
VERTEX
  5
169
330
F0
100
AcDbEntity
  8
4_ANYTOOL_CUTTHROUGH_OUTSI
100
AcDbVertex
100
AcDb2dVertex
 10
-376.9945691881525
 20
201.3154989568717
 30
0.0
  0
VERTEX
  5
16A
330
F0
100
AcDbEntity
  8
4_ANYTOOL_CUTTHROUGH_OUTSI
100
AcDbVertex
100
AcDb2dVertex
 10
-364.5955692900452
 20
201.3154989568648
 30
0.0
 42
0.3178372451953444
  0
VERTEX
  5
16B
330
F0
100
AcDbEntity
  8
4_ANYTOOL_CUTTHROUGH_OUTSI
100
AcDbVertex
100
AcDb2dVertex
 10
-358.7030127801451
 20
205.4821656235292
 30
0.0
 42
-0.7071067811851645
  0
VERTEX
  5
16C
330
F0
100
AcDbEntity
  8
4_ANYTOOL_CUTTHROUGH_OUTSI
100
AcDbVertex
100
AcDb2dVertex
 10
-336.5470003029651
 20
205.4821656235217
 30
0.0
 42
0.317837245196147
  0
VERTEX
  5
16D
330
F0
100
AcDbEntity
  8
4_ANYTOOL_CUTTHROUGH_OUTSI
100
AcDbVertex
100
AcDb2dVertex
 10
-330.6544437930797
 20
201.3154989568586
 30
0.0
  0
VERTEX
  5
16E
330
F0
100
AcDbEntity
  8
4_ANYTOOL_CUTTHROUGH_OUTSI
100
AcDbVertex
100
AcDb2dVertex
 10
-318.2500065416125
 20
201.3154989567993
 30
0.0
  0
VERTEX
  5
16F
330
F0
100
AcDbEntity
  8
4_ANYTOOL_CUTTHROUGH_OUTSI
100
AcDbVertex
100
AcDb2dVertex
 10
-318.2500065406475
 20
123.8154948991869
 30
0.0
  0
VERTEX
  5
170
330
F0
100
AcDbEntity
  8
4_ANYTOOL_CUTTHROUGH_OUTSI
100
AcDbVertex
100
AcDb2dVertex
 10
-324.0000065406475
 20
123.8154948992014
 30
0.0
 42
0.4142135623879653
  0
VERTEX
  5
171
330
F0
100
AcDbEntity
  8
4_ANYTOOL_CUTTHROUGH_OUTSI
100
AcDbVertex
100
AcDb2dVertex
 10
-324.2500065406457
 20
123.5654948992014
 30
0.0
  0
VERTEX
  5
172
330
F0
100
AcDbEntity
  8
4_ANYTOOL_CUTTHROUGH_OUTSI
100
AcDbVertex
100
AcDb2dVertex
 10
-324.2500065406775
 20
111.5654948992014
 30
0.0
 42
0.414213562411355
  0
VERTEX
  5
173
330
F0
100
AcDbEntity
  8
4_ANYTOOL_CUTTHROUGH_OUTSI
100
AcDbVertex
100
AcDb2dVertex
 10
-324.0000065406775
 20
111.3154948992051
 30
0.0
  0
VERTEX
  5
174
330
F0
100
AcDbEntity
  8
4_ANYTOOL_CUTTHROUGH_OUTSI
100
AcDbVertex
100
AcDb2dVertex
 10
-276.0000065426666
 20
111.3154948992087
 30
0.0
 42
0.414213562357059
  0
VERTEX
  5
175
330
F0
100
AcDbEntity
  8
4_ANYTOOL_CUTTHROUGH_OUTSI
100
AcDbVertex
100
AcDb2dVertex
 10
-275.7500065426657
 20
111.5654948992087
 30
0.0
  0
VERTEX
  5
176
330
F0
100
AcDbEntity
  8
4_ANYTOOL_CUTTHROUGH_OUTSI
100
AcDbVertex
100
AcDb2dVertex
 10
-275.7500065426957
 20
123.5654948992087
 30
0.0
 42
0.4142135623891548
  0
VERTEX
  5
177
330
F0
100
AcDbEntity
  8
4_ANYTOOL_CUTTHROUGH_OUTSI
100
AcDbVertex
100
AcDb2dVertex
 10
-276.0000065426966
 20
123.8154948992105
 30
0.0
  0
VERTEX
  5
178
330
F0
100
AcDbEntity
  8
4_ANYTOOL_CUTTHROUGH_OUTSI
100
AcDbVertex
100
AcDb2dVertex
 10
-281.7500065426939
 20
123.8154948991942
 30
0.0
  0
VERTEX
  5
179
330
F0
100
AcDbEntity
  8
4_ANYTOOL_CUTTHROUGH_OUTSI
100
AcDbVertex
100
AcDb2dVertex
 10
-281.7500065417262
 20
201.3154989568138
 30
0.0
  0
VERTEX
  5
17A
330
F0
100
AcDbEntity
  8
4_ANYTOOL_CUTTHROUGH_OUTSI
100
AcDbVertex
100
AcDb2dVertex
 10
-269.3455692902062
 20
201.3154989568211
 30
0.0
 42
0.3178372451955365
  0
VERTEX
  5
17B
330
F0
100
AcDbEntity
  8
4_ANYTOOL_CUTTHROUGH_OUTSI
100
AcDbVertex
100
AcDb2dVertex
 10
-263.4530127803226
 20
205.4821656234859
 30
0.0
 42
-0.7071067811845496
  0
VERTEX
  5
17C
330
F0
100
AcDbEntity
  8
4_ANYTOOL_CUTTHROUGH_OUTSI
100
AcDbVertex
100
AcDb2dVertex
 10
-241.2970003031369
 20
205.4821656234853
 30
0.0
 42
0.3178372451953905
  0
VERTEX
  5
17D
330
F0
100
AcDbEntity
  8
4_ANYTOOL_CUTTHROUGH_OUTSI
100
AcDbVertex
100
AcDb2dVertex
 10
-235.4044437932534
 20
201.3154989568293
 30
0.0
  0
VERTEX
  5
17E
330
F0
100
AcDbEntity
  8
4_ANYTOOL_CUTTHROUGH_OUTSI
100
AcDbVertex
100
AcDb2dVertex
 10
-223.0054438951656
 20
201.3154989568429
 30
0.0
  0
VERTEX
  5
17F
330
F0
100
AcDbEntity
  8
4_ANYTOOL_CUTTHROUGH_OUTSI
100
AcDbVertex
100
AcDb2dVertex
 10
-223.2404379040949
 20
199.920628756542
 30
0.0
  0
VERTEX
  5
180
330
F0
100
AcDbEntity
  8
4_ANYTOOL_CUTTHROUGH_OUTSI
100
AcDbVertex
100
AcDb2dVertex
 10
-240.1359711307714
 20
151.6480865630438
 30
0.0
  0
VERTEX
  5
181
330
F0
100
AcDbEntity
  8
4_ANYTOOL_CUTTHROUGH_OUTSI
100
AcDbVertex
100
AcDb2dVertex
 10
-240.1500065416832
 20
151.5654989568648
 30
0.0
 42
0.41421356237607
  0
VERTEX
  5
182
330
F0
100
AcDbEntity
  8
4_ANYTOOL_CUTTHROUGH_OUTSI
100
AcDbVertex
100
AcDb2dVertex
 10
-233.9000065416594
 20
145.3154989568666
 30
0.0
  0
VERTEX
  5
183
330
F0
100
AcDbEntity
  8
4_ANYTOOL_CUTTHROUGH_OUTSI
100
AcDbVertex
100
AcDb2dVertex
 10
-155.9000065416794
 20
145.3154989568502
 30
0.0
 42
0.4142135623724132
  0
VERTEX
  5
184
330
F0
100
AcDbEntity
  8
4_ANYTOOL_CUTTHROUGH_OUTSI
100
AcDbVertex
100
AcDb2dVertex
 10
-149.6500065416431
 20
151.5654989568575
 30
0.0
  0
VERTEX
  5
185
330
F0
100
AcDbEntity
  8
4_ANYTOOL_CUTTHROUGH_OUTSI
100
AcDbVertex
100
AcDb2dVertex
 10
-149.6640419525546
 20
151.6480865630375
 30
0.0
  0
VERTEX
  5
186
330
F0
100
AcDbEntity
  8
4_ANYTOOL_CUTTHROUGH_OUTSI
100
AcDbVertex
100
AcDb2dVertex
 10
-166.5631549470036
 20
199.9316937359108
 30
0.0
  0
VERTEX
  5
187
330
F0
100
AcDbEntity
  8
4_ANYTOOL_CUTTHROUGH_OUTSI
100
AcDbVertex
100
AcDb2dVertex
 10
-166.79456918822
 20
201.3154989568381
 30
0.0
  0
VERTEX
  5
188
330
F0
100
AcDbEntity
  8
4_ANYTOOL_CUTTHROUGH_OUTSI
100
AcDbVertex
100
AcDb2dVertex
 10
-28.10544389581628
 20
201.3154989567265
 30
0.0
  0
VERTEX
  5
189
330
F0
100
AcDbEntity
  8
4_ANYTOOL_CUTTHROUGH_OUTSI
100
AcDbVertex
100
AcDb2dVertex
 10
-28.34043790475758
 20
199.920628756411
 30
0.0
  0
VERTEX
  5
18A
330
F0
100
AcDbEntity
  8
4_ANYTOOL_CUTTHROUGH_OUTSI
100
AcDbVertex
100
AcDb2dVertex
 10
-45.23597113143751
 20
151.6480865629128
 30
0.0
  0
VERTEX
  5
18B
330
F0
100
AcDbEntity
  8
4_ANYTOOL_CUTTHROUGH_OUTSI
100
AcDbVertex
100
AcDb2dVertex
 10
-45.250006542346
 20
151.5654989567338
 30
0.0
 42
0.4142135623763989
  0
VERTEX
  5
18C
330
F0
100
AcDbEntity
  8
4_ANYTOOL_CUTTHROUGH_OUTSI
100
AcDbVertex
100
AcDb2dVertex
 10
-39.00000654233008
 20
145.3154989567292
 30
0.0
  0
VERTEX
  5
18D
330
F0
100
AcDbEntity
  8
4_ANYTOOL_CUTTHROUGH_OUTSI
100
AcDbVertex
100
AcDb2dVertex
 10
38.99999345836568
 20
145.3154989567265
 30
0.0
 42
0.4142135623742453
  0
VERTEX
  5
18E
330
F0
100
AcDbEntity
  8
4_ANYTOOL_CUTTHROUGH_OUTSI
100
AcDbVertex
100
AcDb2dVertex
 10
45.24999345839024
 20
151.5654989567265
 30
0.0
  0
VERTEX
  5
18F
330
F0
100
AcDbEntity
  8
4_ANYTOOL_CUTTHROUGH_OUTSI
100
AcDbVertex
100
AcDb2dVertex
 10
45.23595804748423
 20
151.6480865629069
 30
0.0
  0
VERTEX
  5
190
330
F0
100
AcDbEntity
  8
4_ANYTOOL_CUTTHROUGH_OUTSI
100
AcDbVertex
100
AcDb2dVertex
 10
28.33684505345809
 20
199.9316937344338
 30
0.0
  0
VERTEX
  5
191
330
F0
100
AcDbEntity
  8
4_ANYTOOL_CUTTHROUGH_OUTSI
100
AcDbVertex
100
AcDb2dVertex
 10
28.10543081183351
 20
201.3154989567271
 30
0.0
  0
VERTEX
  5
192
330
F0
100
AcDbEntity
  8
4_ANYTOOL_CUTTHROUGH_OUTSI
100
AcDbVertex
100
AcDb2dVertex
 10
166.7945561042588
 20
201.3154989567993
 30
0.0
  0
VERTEX
  5
193
330
F0
100
AcDbEntity
  8
4_ANYTOOL_CUTTHROUGH_OUTSI
100
AcDbVertex
100
AcDb2dVertex
 10
166.5595620953001
 20
199.9206287564955
 30
0.0
  0
VERTEX
  5
194
330
F0
100
AcDbEntity
  8
4_ANYTOOL_CUTTHROUGH_OUTSI
100
AcDbVertex
100
AcDb2dVertex
 10
149.6640288685976
 20
151.6480865630001
 30
0.0
  0
VERTEX
  5
195
330
F0
100
AcDbEntity
  8
4_ANYTOOL_CUTTHROUGH_OUTSI
100
AcDbVertex
100
AcDb2dVertex
 10
149.6499934576903
 20
151.5654989568211
 30
0.0
 42
0.4142135623723255
  0
VERTEX
  5
196
330
F0
100
AcDbEntity
  8
4_ANYTOOL_CUTTHROUGH_OUTSI
100
AcDbVertex
100
AcDb2dVertex
 10
155.8999934577223
 20
145.3154989568147
 30
0.0
  0
VERTEX
  5
197
330
F0
100
AcDbEntity
  8
4_ANYTOOL_CUTTHROUGH_OUTSI
100
AcDbVertex
100
AcDb2dVertex
 10
233.8999934577032
 20
145.3154989568066
 30
0.0
 42
0.414213562374758
  0
VERTEX
  5
198
330
F0
100
AcDbEntity
  8
4_ANYTOOL_CUTTHROUGH_OUTSI
100
AcDbVertex
100
AcDb2dVertex
 10
240.1499934577168
 20
151.5654989568138
 30
0.0
  0
VERTEX
  5
199
330
F0
100
AcDbEntity
  8
4_ANYTOOL_CUTTHROUGH_OUTSI
100
AcDbVertex
100
AcDb2dVertex
 10
240.1359580468106
 20
151.6480865629928
 30
0.0
  0
VERTEX
  5
19A
330
F0
100
AcDbEntity
  8
4_ANYTOOL_CUTTHROUGH_OUTSI
100
AcDbVertex
100
AcDb2dVertex
 10
223.2368450523954
 20
199.9316937358744
 30
0.0
  0
VERTEX
  5
19B
330
F0
100
AcDbEntity
  8
4_ANYTOOL_CUTTHROUGH_OUTSI
100
AcDbVertex
100
AcDb2dVertex
 10
223.0054308112144
 20
201.3154989568237
 30
0.0
  0
VERTEX
  5
19C
330
F0
100
AcDbEntity
  8
4_ANYTOOL_CUTTHROUGH_OUTSI
100
AcDbVertex
100
AcDb2dVertex
 10
235.4044307093218
 20
201.3154989568138
 30
0.0
 42
0.3178372451957415
  0
VERTEX
  5
19D
330
F0
100
AcDbEntity
  8
4_ANYTOOL_CUTTHROUGH_OUTSI
100
AcDbVertex
100
AcDb2dVertex
 10
241.2969872192205
 20
205.4821656234784
 30
0.0
 42
-0.7071067811904109
  0
VERTEX
  5
19E
330
F0
100
AcDbEntity
  8
4_ANYTOOL_CUTTHROUGH_OUTSI
100
AcDbVertex
100
AcDb2dVertex
 10
263.4529996964025
 20
205.4821656234713
 30
0.0
 42
0.3178372451975202
  0
VERTEX
  5
19F
330
F0
100
AcDbEntity
  8
4_ANYTOOL_CUTTHROUGH_OUTSI
100
AcDbVertex
100
AcDb2dVertex
 10
269.3455562062873
 20
201.315498956806
 30
0.0
  0
VERTEX
  5
1A0
330
F0
100
AcDbEntity
  8
4_ANYTOOL_CUTTHROUGH_OUTSI
100
AcDbVertex
100
AcDb2dVertex
 10
281.7499934577545
 20
201.3154989567411
 30
0.0
  0
VERTEX
  5
1A1
330
F0
100
AcDbEntity
  8
4_ANYTOOL_CUTTHROUGH_OUTSI
100
AcDbVertex
100
AcDb2dVertex
 10
281.7499934587195
 20
123.815494899136
 30
0.0
  0
VERTEX
  5
1A2
330
F0
100
AcDbEntity
  8
4_ANYTOOL_CUTTHROUGH_OUTSI
100
AcDbVertex
100
AcDb2dVertex
 10
275.9999934587195
 20
123.8154948991505
 30
0.0
 42
0.4142135623720312
  0
VERTEX
  5
1A3
330
F0
100
AcDbEntity
  8
4_ANYTOOL_CUTTHROUGH_OUTSI
100
AcDbVertex
100
AcDb2dVertex
 10
275.7499934587204
 20
123.5654948991505
 30
0.0
  0
VERTEX
  5
1A4
330
F0
100
AcDbEntity
  8
4_ANYTOOL_CUTTHROUGH_OUTSI
100
AcDbVertex
100
AcDb2dVertex
 10
275.7499934586895
 20
111.5654948991505
 30
0.0
 42
0.4142135624083412
  0
VERTEX
  5
1A5
330
F0
100
AcDbEntity
  8
4_ANYTOOL_CUTTHROUGH_OUTSI
100
AcDbVertex
100
AcDb2dVertex
 10
275.9999934586895
 20
111.3154948991514
 30
0.0
  0
VERTEX
  5
1A6
330
F0
100
AcDbEntity
  8
4_ANYTOOL_CUTTHROUGH_OUTSI
100
AcDbVertex
100
AcDb2dVertex
 10
323.9999934566968
 20
111.3154948991651
 30
0.0
 42
0.4142135624050846
  0
VERTEX
  5
1A7
330
F0
100
AcDbEntity
  8
4_ANYTOOL_CUTTHROUGH_OUTSI
100
AcDbVertex
100
AcDb2dVertex
 10
324.2499934566949
 20
111.5654948991651
 30
0.0
  0
VERTEX
  5
1A8
330
F0
100
AcDbEntity
  8
4_ANYTOOL_CUTTHROUGH_OUTSI
100
AcDbVertex
100
AcDb2dVertex
 10
324.2499934566677
 20
123.5654948991651
 30
0.0
 42
0.4142135623752611
  0
VERTEX
  5
1A9
330
F0
100
AcDbEntity
  8
4_ANYTOOL_CUTTHROUGH_OUTSI
100
AcDbVertex
100
AcDb2dVertex
 10
323.9999934566667
 20
123.8154948991642
 30
0.0
  0
VERTEX
  5
1AA
330
F0
100
AcDbEntity
  8
4_ANYTOOL_CUTTHROUGH_OUTSI
100
AcDbVertex
100
AcDb2dVertex
 10
318.2499934566695
 20
123.8154948991505
 30
0.0
  0
VERTEX
  5
1AB
330
F0
100
AcDbEntity
  8
4_ANYTOOL_CUTTHROUGH_OUTSI
100
AcDbVertex
100
AcDb2dVertex
 10
318.2499934576372
 20
201.3154989567702
 30
0.0
  0
VERTEX
  5
1AC
330
F0
100
AcDbEntity
  8
4_ANYTOOL_CUTTHROUGH_OUTSI
100
AcDbVertex
100
AcDb2dVertex
 10
330.6544307091572
 20
201.3154989567774
 30
0.0
 42
0.3178372451952622
  0
VERTEX
  5
1AD
330
F0
100
AcDbEntity
  8
4_ANYTOOL_CUTTHROUGH_OUTSI
100
AcDbVertex
100
AcDb2dVertex
 10
336.5469872190462
 20
205.4821656234404
 30
0.0
 42
-0.7071067811845678
  0
VERTEX
  5
1AE
330
F0
100
AcDbEntity
  8
4_ANYTOOL_CUTTHROUGH_OUTSI
100
AcDbVertex
100
AcDb2dVertex
 10
358.7029996962229
 20
205.4821656234417
 30
0.0
 42
0.3178372451966929
  0
VERTEX
  5
1AF
330
F0
100
AcDbEntity
  8
4_ANYTOOL_CUTTHROUGH_OUTSI
100
AcDbVertex
100
AcDb2dVertex
 10
364.5955562061099
 20
201.3154989567866
 30
0.0
  0
VERTEX
  5
1B0
330
F0
100
AcDbEntity
  8
4_ANYTOOL_CUTTHROUGH_OUTSI
100
AcDbVertex
100
AcDb2dVertex
 10
376.9945561041977
 20
201.3154989567993
 30
0.0
  0
VERTEX
  5
1B1
330
F0
100
AcDbEntity
  8
4_ANYTOOL_CUTTHROUGH_OUTSI
100
AcDbVertex
100
AcDb2dVertex
 10
376.7595620952692
 20
199.9206287564983
 30
0.0
  0
VERTEX
  5
1B2
330
F0
100
AcDbEntity
  8
4_ANYTOOL_CUTTHROUGH_OUTSI
100
AcDbVertex
100
AcDb2dVertex
 10
359.864028868591
 20
151.6480865630001
 30
0.0
  0
VERTEX
  5
1B3
330
F0
100
AcDbEntity
  8
4_ANYTOOL_CUTTHROUGH_OUTSI
100
AcDbVertex
100
AcDb2dVertex
 10
359.8499934576836
 20
151.5654989568211
 30
0.0
 42
0.41421356237673
  0
VERTEX
  5
1B4
330
F0
100
AcDbEntity
  8
4_ANYTOOL_CUTTHROUGH_OUTSI
100
AcDbVertex
100
AcDb2dVertex
 10
366.0999934577039
 20
145.3154989568193
 30
0.0
  0
VERTEX
  5
1B5
330
F0
100
AcDbEntity
  8
4_ANYTOOL_CUTTHROUGH_OUTSI
100
AcDbVertex
100
AcDb2dVertex
 10
444.0999934576839
 20
145.3154989568066
 30
0.0
 42
0.4142135623724132
  0
VERTEX
  5
1B6
330
F0
100
AcDbEntity
  8
4_ANYTOOL_CUTTHROUGH_OUTSI
100
AcDbVertex
100
AcDb2dVertex
 10
450.3499934577203
 20
151.5654989568138
 30
0.0
  0
VERTEX
  5
1B7
330
F0
100
AcDbEntity
  8
4_ANYTOOL_CUTTHROUGH_OUTSI
100
AcDbVertex
100
AcDb2dVertex
 10
450.3359580468041
 20
151.6480865629922
 30
0.0
  0
VERTEX
  5
1B8
330
F0
100
AcDbEntity
  8
4_ANYTOOL_CUTTHROUGH_OUTSI
100
AcDbVertex
100
AcDb2dVertex
 10
433.4368450525089
 20
199.9316937353651
 30
0.0
  0
VERTEX
  5
1B9
330
F0
100
AcDbEntity
  8
4_ANYTOOL_CUTTHROUGH_OUTSI
100
AcDbVertex
100
AcDb2dVertex
 10
433.2054308111431
 20
201.3154989567985
 30
0.0
  0
VERTEX
  5
1BA
330
F0
100
AcDbEntity
  8
4_ANYTOOL_CUTTHROUGH_OUTSI
100
AcDbVertex
100
AcDb2dVertex
 10
571.8945561035698
 20
201.3154989566829
 30
0.0
  0
VERTEX
  5
1BB
330
F0
100
AcDbEntity
  8
4_ANYTOOL_CUTTHROUGH_OUTSI
100
AcDbVertex
100
AcDb2dVertex
 10
571.6595620946057
 20
199.9206287563674
 30
0.0
  0
VERTEX
  5
1BC
330
F0
100
AcDbEntity
  8
4_ANYTOOL_CUTTHROUGH_OUTSI
100
AcDbVertex
100
AcDb2dVertex
 10
554.7640288679249
 20
151.6480865628691
 30
0.0
  0
VERTEX
  5
1BD
330
F0
100
AcDbEntity
  8
4_ANYTOOL_CUTTHROUGH_OUTSI
100
AcDbVertex
100
AcDb2dVertex
 10
554.7499934570174
 20
151.5654989566901
 30
0.0
 42
0.4142135623756553
  0
VERTEX
  5
1BE
330
F0
100
AcDbEntity
  8
4_ANYTOOL_CUTTHROUGH_OUTSI
100
AcDbVertex
100
AcDb2dVertex
 10
560.9999934570333
 20
145.3154989566838
 30
0.0
  0
VERTEX
  5
1BF
330
F0
100
AcDbEntity
  8
4_ANYTOOL_CUTTHROUGH_OUTSI
100
AcDbVertex
100
AcDb2dVertex
 10
638.999993457729
 20
145.3154989566829
 30
0.0
 42
0.4142135623737317
  0
VERTEX
  5
1C0
330
F0
100
AcDbEntity
  8
4_ANYTOOL_CUTTHROUGH_OUTSI
100
AcDbVertex
100
AcDb2dVertex
 10
645.2499934577572
 20
151.5654989566829
 30
0.0
  0
VERTEX
  5
1C1
330
F0
100
AcDbEntity
  8
4_ANYTOOL_CUTTHROUGH_OUTSI
100
AcDbVertex
100
AcDb2dVertex
 10
645.235958046843
 20
151.6480865628616
 30
0.0
  0
VERTEX
  5
1C2
330
F0
100
AcDbEntity
  8
4_ANYTOOL_CUTTHROUGH_OUTSI
100
AcDbVertex
100
AcDb2dVertex
 10
628.3368450524204
 20
199.9316937357435
 30
0.0
  0
VERTEX
  5
1C3
330
F0
100
AcDbEntity
  8
4_ANYTOOL_CUTTHROUGH_OUTSI
100
AcDbVertex
100
AcDb2dVertex
 10
628.105430811197
 20
201.3154989566833
 30
0.0
  0
VERTEX
  5
1C4
330
F0
100
AcDbEntity
  8
4_ANYTOOL_CUTTHROUGH_OUTSI
100
AcDbVertex
100
AcDb2dVertex
 10
766.7945561035995
 20
201.3154989567556
 30
0.0
  0
VERTEX
  5
1C5
330
F0
100
AcDbEntity
  8
4_ANYTOOL_CUTTHROUGH_OUTSI
100
AcDbVertex
100
AcDb2dVertex
 10
766.5595620946633
 20
199.9206287564474
 30
0.0
  0
VERTEX
  5
1C6
330
F0
100
AcDbEntity
  8
4_ANYTOOL_CUTTHROUGH_OUTSI
100
AcDbVertex
100
AcDb2dVertex
 10
749.6640288679619
 20
151.6480865629565
 30
0.0
  0
VERTEX
  5
1C7
330
F0
100
AcDbEntity
  8
4_ANYTOOL_CUTTHROUGH_OUTSI
100
AcDbVertex
100
AcDb2dVertex
 10
749.649993457055
 20
151.5654989567774
 30
0.0
 42
0.4142135623735081
  0
VERTEX
  5
1C8
330
F0
100
AcDbEntity
  8
4_ANYTOOL_CUTTHROUGH_OUTSI
100
AcDbVertex
100
AcDb2dVertex
 10
755.8999934570857
 20
145.3154989567665
 30
0.0
  0
VERTEX
  5
1C9
330
F0
100
AcDbEntity
  8
4_ANYTOOL_CUTTHROUGH_OUTSI
100
AcDbVertex
100
AcDb2dVertex
 10
833.8999934570666
 20
145.3154989567629
 30
0.0
 42
0.41421356237493
  0
VERTEX
  5
1CA
330
F0
100
AcDbEntity
  8
4_ANYTOOL_CUTTHROUGH_OUTSI
100
AcDbVertex
100
AcDb2dVertex
 10
840.1499934570838
 20
151.5654989567702
 30
0.0
  0
VERTEX
  5
1CB
330
F0
100
AcDbEntity
  8
4_ANYTOOL_CUTTHROUGH_OUTSI
100
AcDbVertex
100
AcDb2dVertex
 10
840.1359580461728
 20
151.6480865629485
 30
0.0
  0
VERTEX
  5
1CC
330
F0
100
AcDbEntity
  8
4_ANYTOOL_CUTTHROUGH_OUTSI
100
AcDbVertex
100
AcDb2dVertex
 10
823.2368450517588
 20
199.9316937358308
 30
0.0
  0
VERTEX
  5
1CD
330
F0
100
AcDbEntity
  8
4_ANYTOOL_CUTTHROUGH_OUTSI
100
AcDbVertex
100
AcDb2dVertex
 10
823.0054308105779
 20
201.3154989567799
 30
0.0
  0
VERTEX
  5
1CE
330
F0
100
AcDbEntity
  8
4_ANYTOOL_CUTTHROUGH_OUTSI
100
AcDbVertex
100
AcDb2dVertex
 10
835.404430708686
 20
201.3154989567702
 30
0.0
 42
0.3178372451949094
  0
VERTEX
  5
1CF
330
F0
100
AcDbEntity
  8
4_ANYTOOL_CUTTHROUGH_OUTSI
100
AcDbVertex
100
AcDb2dVertex
 10
841.2969872185873
 20
205.4821656234335
 30
0.0
 42
-0.7071067811852313
  0
VERTEX
  5
1D0
330
F0
100
AcDbEntity
  8
4_ANYTOOL_CUTTHROUGH_OUTSI
100
AcDbVertex
100
AcDb2dVertex
 10
863.4529996957662
 20
205.4821656234271
 30
0.0
 42
0.3178372451994793
  0
SEQEND
  5
1D1
330
F0
100
AcDbEntity
  8
4_ANYTOOL_CUTTHROUGH_OUTSI
  0
ENDSEC
  0
SECTION
  2
OBJECTS
  0
DICTIONARY
  5
C
330
0
100
AcDbDictionary
  3
ACAD_GROUP
350
D
  3
ACAD_LAYOUT
350
1A
  3
ACAD_MATERIAL
350
43
  3
ACAD_MLEADERSTYLE
350
5B
  3
ACAD_MLINESTYLE
350
17
  3
ACAD_PLOTSETTINGS
350
19
  3
ACAD_SCALELIST
350
47
  3
ACAD_VISUALSTYLE
350
2A
  3
ACDBHEADERROUNDTRIPXREC
350
1D2
  3
ACDBVARIABLEDICTIONARY
350
1F3
  3
DWGPROPS
350
1FA
  0
DICTIONARY
  5
1FB
330
8
100
AcDbDictionary
280
     1
  3
ACAD_XREC_ROUNDTRIP
360
1FC
  0
DICTIONARY
  5
D
102
{ACAD_REACTORS
330
C
102
}
330
C
100
AcDbDictionary
  0
DICTIONARY
  5
1A
102
{ACAD_REACTORS
330
C
102
}
330
C
100
AcDbDictionary
  0
DICTIONARY
  5
43
102
{ACAD_REACTORS
330
C
102
}
330
C
100
AcDbDictionary
  3
BYBLOCK
350
45
  3
BYLAYER
350
44
  3
GLOBAL
350
46
  0
DICTIONARY
  5
5B
102
{ACAD_REACTORS
330
C
102
}
330
C
100
AcDbDictionary
  3
STANDARD
350
5C
  0
DICTIONARY
  5
17
102
{ACAD_REACTORS
330
C
102
}
330
C
100
AcDbDictionary
  3
STANDARD
350
18
  0
DICTIONARY
  5
19
102
{ACAD_REACTORS
330
C
102
}
330
C
100
AcDbDictionary
  0
DICTIONARY
  5
47
102
{ACAD_REACTORS
330
C
102
}
330
C
100
AcDbDictionary
  3
A0
350
48
  3
A1
350
49
  3
A2
350
4A
  3
A3
350
4B
  3
A4
350
4C
  3
A5
350
4D
  3
A6
350
4E
  3
A7
350
4F
  3
A8
350
50
  3
A9
350
51
  3
B1
350
52
  3
B2
350
53
  3
B3
350
54
  3
B4
350
55
  3
B5
350
56
  3
B6
350
57
  3
B7
350
58
  0
DICTIONARY
  5
2A
102
{ACAD_REACTORS
330
C
102
}
330
C
100
AcDbDictionary
  3
2DWIREFRAME
350
2F
  3
BASIC
350
32
  3
BRIGHTEN
350
36
  3
COLORCHANGE
350
3A
  3
CONCEPTUAL
350
34
  3
DIM
350
35
  3
EDGECOLOROFF
350
3D
  3
FACEPATTERN
350
39
  3
FLAT
350
2B
  3
FLATWITHEDGES
350
2C
  3
GOURAUD
350
2D
  3
GOURAUDWITHEDGES
350
2E
  3
HIDDEN
350
31
  3
JITTEROFF
350
3B
  3
LINEPATTERN
350
38
  3
OVERHANGOFF
350
3C
  3
REALISTIC
350
33
  3
SHADED
350
42
  3
SHADED_WITH_EDGES
350
41
  3
SHADES_OF_GRAY
350
3E
  3
SKETCHY
350
3F
  3
THICKEN
350
37
  3
WIREFRAME
350
30
  3
X-RAY
350
40
  0
DICTIONARY
  5
1D2
102
{ACAD_REACTORS
330
C
102
}
330
C
100
AcDbDictionary
  3
CEPSNID
350
1DC
  3
CEPSNTYPE
350
1DB
  3
DIMSTYLEDATA
350
1F2
  3
FINGERPRINTGUID
350
1DD
  3
HYPERLINKBASE
350
1D5
  3
INSUNITS
350
1DA
  3
LAYOUTDICT
350
1D7
  3
LWETCUNION
350
1D9
  3
PLOTSETDICT
350
1D8
  3
PSVPSCALE
350
1DF
  3
PUCSBASE
350
1E2
  3
PUCSORGBACK
350
1E8
  3
PUCSORGBOTTOM
350
1E4
  3
PUCSORGFRONT
350
1E7
  3
PUCSORGLEFT
350
1E5
  3
PUCSORGRIGHT
350
1E6
  3
PUCSORGTOP
350
1E3
  3
PUCSORTHOREF
350
1E0
  3
PUCSORTHOVIEW
350
1E1
  3
STYLESHEET
350
1D6
  3
TSTACKALIGN
350
1D3
  3
TSTACKSIZE
350
1D4
  3
UCSBASE
350
1EB
  3
UCSORGBACK
350
1F1
  3
UCSORGBOTTOM
350
1ED
  3
UCSORGFRONT
350
1F0
  3
UCSORGLEFT
350
1EE
  3
UCSORGRIGHT
350
1EF
  3
UCSORGTOP
350
1EC
  3
UCSORTHOREF
350
1E9
  3
UCSORTHOVIEW
350
1EA
  3
VERSIONGUID
350
1DE
  0
DICTIONARY
  5
1F3
102
{ACAD_REACTORS
330
C
102
}
330
C
100
AcDbDictionary
  3
CANNOSCALE
350
1FD
  3
CMLEADERSTYLE
350
1F5
  3
CTABLESTYLE
350
1F4
  3
DIMASSOC
350
1F8
  3
HIDETEXT
350
1F9
  3
MSLTSCALE
350
1FE
  0
XRECORD
  5
1FA
102
{ACAD_REACTORS
330
C
102
}
330
C
100
AcDbXrecord
  1
DWGPROPS COOKIE
  2

  3

  4

  6

  7

  8
clayt
  9

300
=
301
=
302
=
303
=
304
=
305
=
306
=
307
=
308
=
309
=
 40
0.0
 41
2461249.39556272
 42
2461249.395562801
  1

 90
        0
  0
XRECORD
  5
1FC
102
{ACAD_REACTORS
330
1FB
102
}
330
1FB
100
AcDbXrecord
102
VTR_0.000_0.000_1.000_1.000_VISUALSTYLE
340
2F
102
VTR_0.000_0.000_1.000_1.000_GRIDDISPLAY
 70
     3
102
VTR_0.000_0.000_1.000_1.000_GRIDMAJOR
 70
     5
102
VTR_0.000_0.000_1.000_1.000_DEFAULTLIGHTING
280
     1
102
VTR_0.000_0.000_1.000_1.000_DEFAULTLIGHTINGTYPE
 70
     1
102
VTR_0.000_0.000_1.000_1.000_BRIGHTNESS
141
0.0
102
VTR_0.000_0.000_1.000_1.000_CONTRAST
142
0.0
  0
MATERIAL
  5
45
102
{ACAD_REACTORS
330
43
102
}
102
{ACAD_XDICTIONARY
360
201
102
}
330
43
100
AcDbMaterial
  1
BYBLOCK
  0
MATERIAL
  5
44
102
{ACAD_REACTORS
330
43
102
}
102
{ACAD_XDICTIONARY
360
1FF
102
}
330
43
100
AcDbMaterial
  1
BYLAYER
  0
MATERIAL
  5
46
102
{ACAD_REACTORS
330
43
102
}
102
{ACAD_XDICTIONARY
360
203
102
}
330
43
100
AcDbMaterial
  1
GLOBAL
  0
ACAD_PROXY_OBJECT
  5
5C
102
{ACAD_REACTORS
330
5B
102
}
330
5B
100
AcDbProxyObject
 90
      499
 91
      505
 93
      610
310
40901902A4063FBFFFFFE056BD1B81E855B9FC0AD7A3703D0AD73F4214DD185B99185C9900AD7A3703D0AC73F90141901A02B5E8DC0F42B1CFC02B5E8DC0F42B1CFE5764000000000000300FC0
340
14
340
0
340
11
340
0
 94
        0
1001
ACAD_MLEADERVER
1070
     2
  0
MLINESTYLE
  5
18
102
{ACAD_REACTORS
330
17
102
}
330
17
100
AcDbMlineStyle
  2
Standard
 70
     0
  3

 62
   256
 51
90.0
 52
90.0
 71
     2
 49
0.5
 62
   256
  6
BYLAYER
 49
-0.5
 62
   256
  6
BYLAYER
  0
ACAD_PROXY_OBJECT
  5
48
102
{ACAD_REACTORS
330
47
102
}
330
47
100
AcDbProxyObject
 90
      499
 91
      503
 93
       41
310
903313A31580
  0
ACAD_PROXY_OBJECT
  5
49
102
{ACAD_REACTORS
330
47
102
}
330
47
100
AcDbProxyObject
 90
      499
 91
      503
 93
      257
310
90E312F31323822203D2031272D3022000000000000200FC000000000000284000
  0
ACAD_PROXY_OBJECT
  5
4A
102
{ACAD_REACTORS
330
47
102
}
330
47
100
AcDbProxyObject
 90
      499
 91
      503
 93
      249
310
90D312F363422203D2031272D3022000000000000240FC000000000000284000
  0
ACAD_PROXY_OBJECT
  5
4B
102
{ACAD_REACTORS
330
47
102
}
330
47
100
AcDbProxyObject
 90
      499
 91
      503
 93
      249
310
90D312F333222203D2031272D3022000000000000280FC000000000000284000
  0
ACAD_PROXY_OBJECT
  5
4C
102
{ACAD_REACTORS
330
47
102
}
330
47
100
AcDbProxyObject
 90
      499
 91
      503
 93
      249
310
90D312F313622203D2031272D30220000000000002C0FC000000000000284000
  0
ACAD_PROXY_OBJECT
  5
4D
102
{ACAD_REACTORS
330
47
102
}
330
47
100
AcDbProxyObject
 90
      499
 91
      503
 93
      249
310
90D332F333222203D2031272D30220000000000002E0FC000000000000284000
  0
ACAD_PROXY_OBJECT
  5
4E
102
{ACAD_REACTORS
330
47
102
}
330
47
100
AcDbProxyObject
 90
      499
 91
      503
 93
      241
310
90C312F3822203D2031272D3022000000000000300FC000000000000284000
  0
ACAD_PROXY_OBJECT
  5
4F
102
{ACAD_REACTORS
330
47
102
}
330
47
100
AcDbProxyObject
 90
      499
 91
      503
 93
      249
310
90D332F313622203D2031272D3022000000000000320FC000000000000284000
  0
ACAD_PROXY_OBJECT
  5
50
102
{ACAD_REACTORS
330
47
102
}
330
47
100
AcDbProxyObject
 90
      499
 91
      503
 93
      241
310
90C312F3422203D2031272D3022000000000000340FC000000000000284000
  0
ACAD_PROXY_OBJECT
  5
51
102
{ACAD_REACTORS
330
47
102
}
330
47
100
AcDbProxyObject
 90
      499
 91
      503
 93
      241
310
90C332F3822203D2031272D3022000000000000360FC000000000000284000
  0
ACAD_PROXY_OBJECT
  5
52
102
{ACAD_REACTORS
330
47
102
}
330
47
100
AcDbProxyObject
 90
      499
 91
      503
 93
      241
310
90C312F3222203D2031272D3022000000000000380FC000000000000284000
  0
ACAD_PROXY_OBJECT
  5
53
102
{ACAD_REACTORS
330
47
102
}
330
47
100
AcDbProxyObject
 90
      499
 91
      503
 93
      241
310
90C332F3422203D2031272D30220000000000003A0FC000000000000284000
  0
ACAD_PROXY_OBJECT
  5
54
102
{ACAD_REACTORS
330
47
102
}
330
47
100
AcDbProxyObject
 90
      499
 91
      503
 93
      161
310
90A3122203D2031272D30224000000000000284000
  0
ACAD_PROXY_OBJECT
  5
55
102
{ACAD_REACTORS
330
47
102
}
330
47
100
AcDbProxyObject
 90
      499
 91
      503
 93
      257
310
90E312D312F3222203D2031272D30220000000000003E0FC000000000000284000
  0
ACAD_PROXY_OBJECT
  5
56
102
{ACAD_REACTORS
330
47
102
}
330
47
100
AcDbProxyObject
 90
      499
 91
      503
 93
      225
310
90A3322203D2031272D302200000000000002100000000000000284000
  0
ACAD_PROXY_OBJECT
  5
57
102
{ACAD_REACTORS
330
47
102
}
330
47
100
AcDbProxyObject
 90
      499
 91
      503
 93
      225
310
90A3622203D2031272D302200000000000006100000000000000284000
  0
ACAD_PROXY_OBJECT
  5
58
102
{ACAD_REACTORS
330
47
102
}
330
47
100
AcDbProxyObject
 90
      499
 91
      503
 93
      249
310
90D31272D3022203D2031272D30220000000000000A100000000000000284000
  0
ACAD_PROXY_OBJECT
  5
2F
102
{ACAD_REACTORS
330
2A
102
}
330
2A
100
AcDbProxyObject
 90
      499
 91
      501
 93
      436
310
42CC9915DA5C99599C985B595049028333333333333E33F0000000000000F90107901411070040501600405405064090741402480A0340
1001
ACAD
1000
AcDbSavedByObjectVersion
1070
     0
  0
ACAD_PROXY_OBJECT
  5
32
102
{ACAD_REACTORS
330
2A
102
}
330
2A
100
AcDbProxyObject
 90
      499
 91
      501
 93
      388
310
4150985CDA58D07406404333333333333E33F0000000000000F90107A41107004050150841D405064090741402480A0350
1001
ACAD
1000
AcDbSavedByObjectVersion
1070
     0
  0
ACAD_PROXY_OBJECT
  5
36
102
{ACAD_REACTORS
330
2A
102
}
330
2A
100
AcDbProxyObject
 90
      499
 91
      501
 93
      428
310
42109C9A59DA1D195B90C409028333333333333E33F0000000000000F9010790141107004050150841D405064090741402480A029950
1001
ACAD
1000
AcDbSavedByObjectVersion
1070
     0
  0
ACAD_PROXY_OBJECT
  5
3A
102
{ACAD_REACTORS
330
2A
102
}
330
2A
100
AcDbProxyObject
 90
      499
 91
      501
 93
      452
310
42D0DBDB1BDC90DA185B99D95104090240C333333333333E33F0000000000000F90108901411070040501508421405064090741402480A0350
1001
ACAD
1000
AcDbSavedByObjectVersion
1070
     0
  0
ACAD_PROXY_OBJECT
  5
34
102
{ACAD_REACTORS
330
2A
102
}
330
2A
100
AcDbProxyObject
 90
      499
 91
      501
 93
      500
310
4290DBDB98D95C1D1D585B10940D028333333333333E33F0000000000000F90107902409070040501000000000018199010841D405064090740C02480A0340
1001
ACAD
1000
AcDbSavedByObjectVersion
1070
     0
  0
ACAD_PROXY_OBJECT
  5
35
102
{ACAD_REACTORS
330
2A
102
}
330
2A
100
AcDbProxyObject
 90
      499
 91
      501
 93
      412
310
40D11A5B50B409028333333333333E33F0000000000000F9010790141107004050150841D405064090741402480A02677FFFFFD0
1001
ACAD
1000
AcDbSavedByObjectVersion
1070
     0
  0
ACAD_PROXY_OBJECT
  5
3D
102
{ACAD_REACTORS
330
2A
102
}
330
2A
100
AcDbProxyObject
 90
      499
 91
      501
 93
      452
310
43115919D950DBDB1BDC93D999916409028333333333333E33F0000000000000F9010790141107004050150841D405064090741402480A0350
1001
ACAD
1000
AcDbSavedByObjectVersion
1070
     0
  0
ACAD_PROXY_OBJECT
  5
39
102
{ACAD_REACTORS
330
2A
102
}
330
2A
100
AcDbProxyObject
 90
      499
 91
      501
 93
      444
310
42D19858D95C185D1D195C9B90F409028333333333333E33F0000000000000F9010790141107004050150841D405064090741402480A0350
1001
ACAD
1000
AcDbSavedByObjectVersion
1070
     0
  0
ACAD_PROXY_OBJECT
  5
2B
102
{ACAD_REACTORS
330
2A
102
}
330
2A
100
AcDbProxyObject
 90
      499
 91
      501
 93
      380
310
41119B185D240901404333333333333E33F0000000000000F9010740A907004050150841D405064090741402480A1B50
1001
ACAD
1000
AcDbSavedByObjectVersion
1070
     0
  0
ACAD_PROXY_OBJECT
  5
2C
102
{ACAD_REACTORS
330
2A
102
}
330
2A
100
AcDbProxyObject
 90
      499
 91
      501
 93
      468
310
43519B185D15DA5D1A115919D95CD0140901404333333333333E33F0000000000000F90107409019070040501600405405064090741402480A1B50
1001
ACAD
1000
AcDbSavedByObjectVersion
1070
     0
  0
ACAD_PROXY_OBJECT
  5
2D
102
{ACAD_REACTORS
330
2A
102
}
330
2A
100
AcDbProxyObject
 90
      499
 91
      501
 93
      404
310
41D1DBDD5C985D5910240902404333333333333E33F0000000000000F9010740A9070040501641D405064090741402480A1B50
1001
ACAD
1000
AcDbSavedByObjectVersion
1070
     0
  0
ACAD_PROXY_OBJECT
  5
2E
102
{ACAD_REACTORS
330
2A
102
}
330
2A
100
AcDbProxyObject
 90
      499
 91
      501
 93
      492
310
4411DBDD5C985D5915DA5D1A115919D95CD0340902404333333333333E33F0000000000000F90107409019070040501600405405064090741402480A1B50
1001
ACAD
1000
AcDbSavedByObjectVersion
1070
     0
  0
ACAD_PROXY_OBJECT
  5
31
102
{ACAD_REACTORS
330
2A
102
}
330
2A
100
AcDbProxyObject
 90
      499
 91
      501
 93
      476
310
41921A5919195B90640502408333333333333E33F0000000000000F901079024090700405020000000000001110200405405064090740C02480A0340
1001
ACAD
1000
AcDbSavedByObjectVersion
1070
     0
  0
ACAD_PROXY_OBJECT
  5
3B
102
{ACAD_REACTORS
330
2A
102
}
330
2A
100
AcDbProxyObject
 90
      499
 91
      501
 93
      428
310
42529A5D1D195C93D999914409028333333333333E33F0000000000000F9010790141107004050150A41D405064090741402480A0350
1001
ACAD
1000
AcDbSavedByObjectVersion
1070
     0
  0
ACAD_PROXY_OBJECT
  5
38
102
{ACAD_REACTORS
330
2A
102
}
330
2A
100
AcDbProxyObject
 90
      499
 91
      501
 93
      444
310
42D31A5B995C185D1D195C9B90E409028333333333333E33F0000000000000F9010790141107004050750841D405064090741402483A0350
1001
ACAD
1000
AcDbSavedByObjectVersion
1070
     0
  0
ACAD_PROXY_OBJECT
  5
3C
102
{ACAD_REACTORS
330
2A
102
}
330
2A
100
AcDbProxyObject
 90
      499
 91
      501
 93
      444
310
42D3DD995C9A185B99D3D999915409028333333333333E33F0000000000000F9010790141107004050150941D405064090741402480A0350
1001
ACAD
1000
AcDbSavedByObjectVersion
1070
     0
  0
ACAD_PROXY_OBJECT
  5
33
102
{ACAD_REACTORS
330
2A
102
}
330
2A
100
AcDbProxyObject
 90
      499
 91
      501
 93
      428
310
425499585B1A5CDD1A58D08409038333333333333E33F0000000000000F9010740A907004050150800405405064090740C02480A1B40
1001
ACAD
1000
AcDbSavedByObjectVersion
1070
     0
  0
ACAD_PROXY_OBJECT
  5
42
102
{ACAD_REACTORS
330
2A
102
}
330
2A
100
AcDbProxyObject
 90
      499
 91
      501
 93
      420
310
4194DA1859195911B40902404333333333333E33F0000000000000F9010740A41107004050150800405405064090840C02480A0B40
1001
ACAD
1000
AcDbSavedByObjectVersion
1070
     0
  0
ACAD_PROXY_OBJECT
  5
41
102
{ACAD_REACTORS
330
2A
102
}
330
2A
100
AcDbProxyObject
 90
      499
 91
      501
 93
      516
310
4454DA18591959081DDA5D1A08195919D95CD1A40902404333333333333E33F0000000000000F901074090142907004050250800405405064090740C02480A0B40
1001
ACAD
1000
AcDbSavedByObjectVersion
1070
     0
  0
ACAD_PROXY_OBJECT
  5
3E
102
{ACAD_REACTORS
330
2A
102
}
330
2A
100
AcDbProxyObject
 90
      499
 91
      501
 93
      532
310
4394DA1859195CC81BD98811DC985E5174090240C333333333333E33F0000000000000F901079024090741D01000000000000111010841D405064090740C02480A0340
1001
ACAD
1000
AcDbSavedByObjectVersion
1070
     0
  0
ACAD_PROXY_OBJECT
  5
3F
102
{ACAD_REACTORS
330
2A
102
}
330
2A
100
AcDbProxyObject
 90
      499
 91
      501
 93
      476
310
41D4DAD95D18DA1E51840502408333333333333E33F0000000000000F901079024090741D01000000000000111010B41D405064090741802480A0340
1001
ACAD
1000
AcDbSavedByObjectVersion
1070
     0
  0
ACAD_PROXY_OBJECT
  5
37
102
{ACAD_REACTORS
330
2A
102
}
330
2A
100
AcDbProxyObject
 90
      499
 91
      501
 93
      412
310
41D51A1A58DAD95B90D409028333333333333E33F0000000000000F9010790141107004050150C41D405064090741402480A0350
1001
ACAD
1000
AcDbSavedByObjectVersion
1070
     0
  0
ACAD_PROXY_OBJECT
  5
30
102
{ACAD_REACTORS
330
2A
102
}
330
2A
100
AcDbProxyObject
 90
      499
 91
      501
 93
      420
310
4255DA5C99599C985B595059028333333333333E33F0000000000000F90107901411070040501600405405064090740C02480A0340
1001
ACAD
1000
AcDbSavedByObjectVersion
1070
     0
  0
ACAD_PROXY_OBJECT
  5
40
102
{ACAD_REACTORS
330
2A
102
}
330
2A
100
AcDbProxyObject
 90
      499
 91
      501
 93
      404
310
41560B54985E51940902404000000000000E03F0000000000000F9010740501907004050150841D405064090740C02480A1B40
1001
ACAD
1000
AcDbSavedByObjectVersion
1070
     0
  0
XRECORD
  5
1DC
102
{ACAD_REACTORS
330
1D2
102
}
330
1D2
100
AcDbXrecord
340
0
  0
XRECORD
  5
1DB
102
{ACAD_REACTORS
330
1D2
102
}
330
1D2
100
AcDbXrecord
 90
        0
  0
XRECORD
  5
1F2
102
{ACAD_REACTORS
330
1D2
102
}
330
1D2
100
AcDbXrecord
1000
DSTYLE
1002
{
1070
   171
 70
     2
1070
   143
 40
25.4
1070
   274
 70
     2
1070
    41
 40
0.18
1070
   141
 40
0.09
1070
   271
 70
     4
1070
    43
 40
0.38
1070
   278
 70
    46
1070
    44
 40
0.18
1070
    42
 40
0.0625
1070
   147
 40
0.09
1070
    77
 70
     0
1070
   272
 70
     4
1070
    73
 70
     1
1070
   279
 70
     2
1070
   172
 70
     0
1070
    74
 70
     1
1070
   283
 70
     1
1070
   340
340
11
1070
   140
 40
0.18
1070
   284
 70
     0
1070
    78
 70
     0
1002
}
  0
XRECORD
  5
1DD
102
{ACAD_REACTORS
330
1D2
102
}
330
1D2
100
AcDbXrecord
  1
{29255f8a-f331-4011-93a5-9b5e362062a1}
  0
XRECORD
  5
1D5
102
{ACAD_REACTORS
330
1D2
102
}
330
1D2
100
AcDbXrecord
  1

  0
XRECORD
  5
1DA
102
{ACAD_REACTORS
330
1D2
102
}
330
1D2
100
AcDbXrecord
 90
        4
  0
XRECORD
  5
1D7
102
{ACAD_REACTORS
330
1D2
102
}
330
1D2
100
AcDbXrecord
340
1A
  0
XRECORD
  5
1D9
102
{ACAD_REACTORS
330
1D2
102
}
330
1D2
100
AcDbXrecord
 90
    10781
  0
XRECORD
  5
1D8
102
{ACAD_REACTORS
330
1D2
102
}
330
1D2
100
AcDbXrecord
340
19
  0
XRECORD
  5
1DF
102
{ACAD_REACTORS
330
1D2
102
}
330
1D2
100
AcDbXrecord
 40
0.0
  0
XRECORD
  5
1E2
102
{ACAD_REACTORS
330
1D2
102
}
330
1D2
100
AcDbXrecord
340
0
  0
XRECORD
  5
1E8
102
{ACAD_REACTORS
330
1D2
102
}
330
1D2
100
AcDbXrecord
 10
0.0
 20
0.0
 30
0.0
  0
XRECORD
  5
1E4
102
{ACAD_REACTORS
330
1D2
102
}
330
1D2
100
AcDbXrecord
 10
0.0
 20
0.0
 30
0.0
  0
XRECORD
  5
1E7
102
{ACAD_REACTORS
330
1D2
102
}
330
1D2
100
AcDbXrecord
 10
0.0
 20
0.0
 30
0.0
  0
XRECORD
  5
1E5
102
{ACAD_REACTORS
330
1D2
102
}
330
1D2
100
AcDbXrecord
 10
0.0
 20
0.0
 30
0.0
  0
XRECORD
  5
1E6
102
{ACAD_REACTORS
330
1D2
102
}
330
1D2
100
AcDbXrecord
 10
0.0
 20
0.0
 30
0.0
  0
XRECORD
  5
1E3
102
{ACAD_REACTORS
330
1D2
102
}
330
1D2
100
AcDbXrecord
 10
0.0
 20
0.0
 30
0.0
  0
XRECORD
  5
1E0
102
{ACAD_REACTORS
330
1D2
102
}
330
1D2
100
AcDbXrecord
340
0
  0
XRECORD
  5
1E1
102
{ACAD_REACTORS
330
1D2
102
}
330
1D2
100
AcDbXrecord
 70
     0
  0
XRECORD
  5
1D6
102
{ACAD_REACTORS
330
1D2
102
}
330
1D2
100
AcDbXrecord
  1

  0
XRECORD
  5
1D3
102
{ACAD_REACTORS
330
1D2
102
}
330
1D2
100
AcDbXrecord
 90
        1
  0
XRECORD
  5
1D4
102
{ACAD_REACTORS
330
1D2
102
}
330
1D2
100
AcDbXrecord
 90
       70
  0
XRECORD
  5
1EB
102
{ACAD_REACTORS
330
1D2
102
}
330
1D2
100
AcDbXrecord
340
0
  0
XRECORD
  5
1F1
102
{ACAD_REACTORS
330
1D2
102
}
330
1D2
100
AcDbXrecord
 10
0.0
 20
0.0
 30
0.0
  0
XRECORD
  5
1ED
102
{ACAD_REACTORS
330
1D2
102
}
330
1D2
100
AcDbXrecord
 10
0.0
 20
0.0
 30
0.0
  0
XRECORD
  5
1F0
102
{ACAD_REACTORS
330
1D2
102
}
330
1D2
100
AcDbXrecord
 10
0.0
 20
0.0
 30
0.0
  0
XRECORD
  5
1EE
102
{ACAD_REACTORS
330
1D2
102
}
330
1D2
100
AcDbXrecord
 10
0.0
 20
0.0
 30
0.0
  0
XRECORD
  5
1EF
102
{ACAD_REACTORS
330
1D2
102
}
330
1D2
100
AcDbXrecord
 10
0.0
 20
0.0
 30
0.0
  0
XRECORD
  5
1EC
102
{ACAD_REACTORS
330
1D2
102
}
330
1D2
100
AcDbXrecord
 10
0.0
 20
0.0
 30
0.0
  0
XRECORD
  5
1E9
102
{ACAD_REACTORS
330
1D2
102
}
330
1D2
100
AcDbXrecord
340
0
  0
XRECORD
  5
1EA
102
{ACAD_REACTORS
330
1D2
102
}
330
1D2
100
AcDbXrecord
 70
     0
  0
XRECORD
  5
1DE
102
{ACAD_REACTORS
330
1D2
102
}
330
1D2
100
AcDbXrecord
  1
{FAEB1C32-E019-11D5-929B-00C0DF256EC4}
  0
DICTIONARYVAR
  5
1FD
102
{ACAD_REACTORS
330
1F3
102
}
330
1F3
100
DictionaryVariables
280
     0
  1
1:1
  0
DICTIONARYVAR
  5
1F5
102
{ACAD_REACTORS
330
1F3
102
}
330
1F3
100
DictionaryVariables
280
     0
  1
Standard
  0
DICTIONARYVAR
  5
1F4
102
{ACAD_REACTORS
330
1F3
102
}
330
1F3
100
DictionaryVariables
280
     0
  1
Standard
  0
DICTIONARYVAR
  5
1F8
102
{ACAD_REACTORS
330
1F3
102
}
330
1F3
100
DictionaryVariables
280
     0
  1
2
  0
DICTIONARYVAR
  5
1F9
102
{ACAD_REACTORS
330
1F3
102
}
330
1F3
100
DictionaryVariables
280
     0
  1
1
  0
DICTIONARYVAR
  5
1FE
102
{ACAD_REACTORS
330
1F3
102
}
330
1F3
100
DictionaryVariables
280
     0
  1
1
  0
DICTIONARY
  5
201
330
45
100
AcDbDictionary
280
     1
  3
ACAD_XREC_ROUNDTRIP
360
202
  0
DICTIONARY
  5
1FF
330
44
100
AcDbDictionary
280
     1
  3
ACAD_XREC_ROUNDTRIP
360
200
  0
DICTIONARY
  5
203
330
46
100
AcDbDictionary
280
     1
  3
ACAD_XREC_ROUNDTRIP
360
204
  0
XRECORD
  5
202
102
{ACAD_REACTORS
330
201
102
}
330
201
100
AcDbXrecord
102
MATERIAL
148
0.0
149
0.0
149
0.0
 93
        0
 94
      127
282
     0
 72
     1
 77
     1
171
     1
175
     1
179
     1
273
     0
  0
XRECORD
  5
200
102
{ACAD_REACTORS
330
1FF
102
}
330
1FF
100
AcDbXrecord
102
MATERIAL
148
0.0
149
0.0
149
0.0
 93
        0
 94
      127
282
     0
 72
     1
 77
     1
171
     1
175
     1
179
     1
273
     0
  0
XRECORD
  5
204
102
{ACAD_REACTORS
330
203
102
}
330
203
100
AcDbXrecord
102
MATERIAL
148
0.0
149
0.0
149
0.0
 93
        0
 94
      127
282
     0
 72
     1
 77
     1
171
     1
175
     1
179
     1
273
     0
  0
ENDSEC
  0
EOF
