  0
SECTION
  2
HEADER
  9
$ACADVER
  1
AC1014
  9
$ACADMAINTVER
 70
     9
  9
$DWGCODEPAGE
  3
ANSI_1252
  9
$INSBASE
 10
0.0
 20
0.0
 30
0.0
  9
$EXTMIN
 10
-869.8629034158485
 20
-182.6992606309868
 30
-0.0000000001220073
  9
$EXTMAX
 10
877.6368291559729
 20
214.8007393725493
 30
0.0
  9
$LIMMIN
 10
0.0
 20
0.0
  9
$LIMMAX
 10
12.0
 20
9.0
  9
$ORTHOMODE
 70
     0
  9
$REGENMODE
 70
     1
  9
$FILLMODE
 70
     1
  9
$QTEXTMODE
 70
     0
  9
$MIRRTEXT
 70
     1
  9
$DRAGMODE
 70
     2
  9
$LTSCALE
 40
1.0
  9
$OSMODE
 70
    37
  9
$ATTMODE
 70
     1
  9
$TEXTSIZE
 40
0.2
  9
$TRACEWID
 40
0.05
  9
$TEXTSTYLE
  7
STANDARD
  9
$CLAYER
  8
0
  9
$CELTYPE
  6
BYLAYER
  9
$CECOLOR
 62
   256
  9
$CELTSCALE
 40
1.0
  9
$DELOBJ
 70
     1
  9
$DISPSILH
 70
     0
  9
$DIMSCALE
 40
1.0
  9
$DIMASZ
 40
0.18
  9
$DIMEXO
 40
0.0625
  9
$DIMDLI
 40
0.38
  9
$DIMRND
 40
0.0
  9
$DIMDLE
 40
0.0
  9
$DIMEXE
 40
0.18
  9
$DIMTP
 40
0.0
  9
$DIMTM
 40
0.0
  9
$DIMTXT
 40
0.18
  9
$DIMCEN
 40
0.09
  9
$DIMTSZ
 40
0.0
  9
$DIMTOL
 70
     0
  9
$DIMLIM
 70
     0
  9
$DIMTIH
 70
     1
  9
$DIMTOH
 70
     1
  9
$DIMSE1
 70
     0
  9
$DIMSE2
 70
     0
  9
$DIMTAD
 70
     0
  9
$DIMZIN
 70
     0
  9
$DIMBLK
  1

  9
$DIMASO
 70
     1
  9
$DIMSHO
 70
     1
  9
$DIMPOST
  1

  9
$DIMAPOST
  1

  9
$DIMALT
 70
     0
  9
$DIMALTD
 70
     2
  9
$DIMALTF
 40
25.4
  9
$DIMLFAC
 40
1.0
  9
$DIMTOFL
 70
     0
  9
$DIMTVP
 40
0.0
  9
$DIMTIX
 70
     0
  9
$DIMSOXD
 70
     0
  9
$DIMSAH
 70
     0
  9
$DIMBLK1
  1

  9
$DIMBLK2
  1

  9
$DIMSTYLE
  2
STANDARD_ACAD
  9
$DIMCLRD
 70
     0
  9
$DIMCLRE
 70
     0
  9
$DIMCLRT
 70
     0
  9
$DIMTFAC
 40
1.0
  9
$DIMGAP
 40
0.09
  9
$DIMJUST
 70
     0
  9
$DIMSD1
 70
     0
  9
$DIMSD2
 70
     0
  9
$DIMTOLJ
 70
     1
  9
$DIMTZIN
 70
     0
  9
$DIMALTZ
 70
     0
  9
$DIMALTTZ
 70
     0
  9
$DIMFIT
 70
     5
  9
$DIMUPT
 70
     0
  9
$DIMUNIT
 70
     2
  9
$DIMDEC
 70
     4
  9
$DIMTDEC
 70
     4
  9
$DIMALTU
 70
     2
  9
$DIMALTTD
 70
     2
  9
$DIMTXSTY
  7
STANDARD
  9
$DIMAUNIT
 70
     0
  9
$LUNITS
 70
     2
  9
$LUPREC
 70
     2
  9
$SKETCHINC
 40
0.1
  9
$FILLETRAD
 40
0.0
  9
$AUNITS
 70
     0
  9
$AUPREC
 70
     0
  9
$MENU
  1
.
  9
$ELEVATION
 40
0.0
  9
$PELEVATION
 40
0.0
  9
$THICKNESS
 40
0.0
  9
$LIMCHECK
 70
     0
  9
$CHAMFERA
 40
0.0
  9
$CHAMFERB
 40
0.0
  9
$CHAMFERC
 40
0.0
  9
$CHAMFERD
 40
0.0
  9
$SKPOLY
 70
     0
  9
$TDCREATE
 40
2461249.437198959
  9
$TDUPDATE
 40
2461249.437199086
  9
$TDINDWG
 40
0.0000000116
  9
$TDUSRTIMER
 40
0.0000000116
  9
$USRTIMER
 70
     1
  9
$ANGBASE
 50
0.0
  9
$ANGDIR
 70
     0
  9
$PDMODE
 70
     0
  9
$PDSIZE
 40
0.0
  9
$PLINEWID
 40
0.0
  9
$COORDS
 70
     1
  9
$SPLFRAME
 70
     0
  9
$SPLINETYPE
 70
     6
  9
$SPLINESEGS
 70
     8
  9
$ATTDIA
 70
     0
  9
$ATTREQ
 70
     1
  9
$HANDLING
 70
     1
  9
$HANDSEED
  5
2CE
  9
$SURFTAB1
 70
     6
  9
$SURFTAB2
 70
     6
  9
$SURFTYPE
 70
     6
  9
$SURFU
 70
     6
  9
$SURFV
 70
     6
  9
$UCSNAME
  2

  9
$UCSORG
 10
0.0
 20
0.0
 30
0.0
  9
$UCSXDIR
 10
1.0
 20
0.0
 30
0.0
  9
$UCSYDIR
 10
0.0
 20
1.0
 30
0.0
  9
$PUCSNAME
  2

  9
$PUCSORG
 10
0.0
 20
0.0
 30
0.0
  9
$PUCSXDIR
 10
1.0
 20
0.0
 30
0.0
  9
$PUCSYDIR
 10
0.0
 20
1.0
 30
0.0
  9
$USERI1
 70
     0
  9
$USERI2
 70
     0
  9
$USERI3
 70
     0
  9
$USERI4
 70
     0
  9
$USERI5
 70
     0
  9
$USERR1
 40
0.0
  9
$USERR2
 40
0.0
  9
$USERR3
 40
0.0
  9
$USERR4
 40
0.0
  9
$USERR5
 40
0.0
  9
$WORLDVIEW
 70
     1
  9
$SHADEDGE
 70
     3
  9
$SHADEDIF
 70
    70
  9
$TILEMODE
 70
     1
  9
$MAXACTVP
 70
    64
  9
$PINSBASE
 10
0.0
 20
0.0
 30
0.0
  9
$PLIMCHECK
 70
     0
  9
$PEXTMIN
 10
1.000000000000000E+20
 20
1.000000000000000E+20
 30
1.000000000000000E+20
  9
$PEXTMAX
 10
-1.000000000000000E+20
 20
-1.000000000000000E+20
 30
-1.000000000000000E+20
  9
$PLIMMIN
 10
0.0
 20
0.0
  9
$PLIMMAX
 10
12.0
 20
9.0
  9
$UNITMODE
 70
     0
  9
$VISRETAIN
 70
     1
  9
$PLINEGEN
 70
     0
  9
$PSLTSCALE
 70
     1
  9
$TREEDEPTH
 70
  3020
  9
$PICKSTYLE
 70
     1
  9
$CMLSTYLE
  2
STANDARD
  9
$CMLJUST
 70
     0
  9
$CMLSCALE
 40
1.0
  9
$PROXYGRAPHICS
 70
     1
  9
$MEASUREMENT
 70
     1
  0
ENDSEC
  0
SECTION
  2
CLASSES
  0
CLASS
  1
ACDBDICTIONARYWDFLT
  2
AcDbDictionaryWithDefault
  3
ObjectDBX Classes
 90
        0
280
     0
281
     0
  0
CLASS
  1
VISUALSTYLE
  2
AcDbVisualStyle
  3
ObjectDBX Classes
 90
     4095
280
     0
281
     0
  0
CLASS
  1
MATERIAL
  2
AcDbMaterial
  3
ObjectDBX Classes
 90
     1153
280
     0
281
     0
  0
CLASS
  1
SCALE
  2
AcDbScale
  3
ObjectDBX Classes
 90
     1153
280
     0
281
     0
  0
CLASS
  1
TABLESTYLE
  2
AcDbTableStyle
  3
ObjectDBX Classes
 90
     4095
280
     0
281
     0
  0
CLASS
  1
MLEADERSTYLE
  2
AcDbMLeaderStyle
  3
ACDB_MLEADERSTYLE_CLASS
 90
     4095
280
     0
281
     0
  0
CLASS
  1
SUN
  2
AcDbSun
  3
SCENEOE
 90
     1153
280
     0
281
     0
  0
CLASS
  1
DICTIONARYVAR
  2
AcDbDictionaryVar
  3
ObjectDBX Classes
 90
        0
280
     0
281
     0
  0
CLASS
  1
XRECORD
  2
AcDbXrecord
  3
ObjectDBX Classes
 90
        0
280
     0
281
     0
  0
CLASS
  1
LWPOLYLINE
  2
AcDbPolyline
  3
ObjectDBX Classes
 90
        0
280
     0
281
     1
  0
CLASS
  1
HATCH
  2
AcDbHatch
  3
ObjectDBX Classes
 90
        0
280
     0
281
     1
  0
CLASS
  1
ACDBPLACEHOLDER
  2
AcDbPlaceHolder
  3
ObjectDBX Classes
 90
        0
280
     0
281
     0
  0
CLASS
  1
LAYOUT
  2
AcDbLayout
  3
ObjectDBX Classes
 90
        0
280
     0
281
     0
  0
ENDSEC
  0
SECTION
  2
TABLES
  0
TABLE
  2
VPORT
  5
8
102
{ACAD_XDICTIONARY
360
2C3
102
}
330
0
100
AcDbSymbolTable
 70
     1
  0
VPORT
  5
29
330
8
100
AcDbSymbolTableRecord
100
AcDbViewportTableRecord
  2
*ACTIVE
 70
     0
 10
0.0
 20
0.0
 11
1.0
 21
1.0
 12
10.42990654205607
 22
4.5
 13
0.0
 23
0.0
 14
0.5
 24
0.5
 15
0.5
 25
0.5
 16
0.0
 26
0.0
 36
1.0
 17
0.0
 27
0.0
 37
0.0
 40
9.0
 41
1.972972972850329
 42
50.0
 43
0.0
 44
0.0
 50
0.0
 51
0.0
 71
     0
 72
   100
 73
     1
 74
     3
 75
     0
 76
     0
 77
     0
 78
     0
  0
ENDTAB
  0
TABLE
  2
LTYPE
  5
5
330
0
100
AcDbSymbolTable
 70
     1
  0
LTYPE
  5
14
330
5
100
AcDbSymbolTableRecord
100
AcDbLinetypeTableRecord
  2
BYBLOCK
 70
     0
  3

 72
    65
 73
     0
 40
0.0
  0
LTYPE
  5
15
330
5
100
AcDbSymbolTableRecord
100
AcDbLinetypeTableRecord
  2
BYLAYER
 70
     0
  3

 72
    65
 73
     0
 40
0.0
  0
LTYPE
  5
16
330
5
100
AcDbSymbolTableRecord
100
AcDbLinetypeTableRecord
  2
CONTINUOUS
 70
     0
  3
Solid line
 72
    65
 73
     0
 40
0.0
  0
ENDTAB
  0
TABLE
  2
LAYER
  5
2
330
0
100
AcDbSymbolTable
 70
     4
  0
LAYER
  5
10
330
2
100
AcDbSymbolTableRecord
100
AcDbLayerTableRecord
  2
0
 70
     0
 62
     7
  6
CONTINUOUS
  0
LAYER
  5
5F
330
2
100
AcDbSymbolTableRecord
100
AcDbLayerTableRecord
  2
1_ANYTOOL_1MMDEEP_LABELS_S
 70
     0
 62
     2
  6
CONTINUOUS
  0
LAYER
  5
12A
330
2
100
AcDbSymbolTableRecord
100
AcDbLayerTableRecord
  2
3_ANYTOOL_CUTTHROUGH_INSID
 70
     0
 62
     4
  6
CONTINUOUS
  0
LAYER
  5
1A9
330
2
100
AcDbSymbolTableRecord
100
AcDbLayerTableRecord
  2
4_ANYTOOL_CUTTHROUGH_OUTSI
 70
     0
 62
     5
  6
CONTINUOUS
  0
ENDTAB
  0
TABLE
  2
STYLE
  5
3
330
0
100
AcDbSymbolTable
 70
     1
  0
STYLE
  5
11
330
3
100
AcDbSymbolTableRecord
100
AcDbTextStyleTableRecord
  2
STANDARD
 70
     0
 40
0.0
 41
1.0
 50
0.0
 71
     0
 42
0.2
  3
txt
  4

  0
ENDTAB
  0
TABLE
  2
VIEW
  5
6
330
0
100
AcDbSymbolTable
 70
     0
  0
ENDTAB
  0
TABLE
  2
UCS
  5
7
330
0
100
AcDbSymbolTable
 70
     0
  0
ENDTAB
  0
TABLE
  2
APPID
  5
9
330
0
100
AcDbSymbolTable
 70
     3
  0
APPID
  5
12
330
9
100
AcDbSymbolTableRecord
100
AcDbRegAppTableRecord
  2
ACAD
 70
     0
  0
APPID
  5
5E
330
9
100
AcDbSymbolTableRecord
100
AcDbRegAppTableRecord
  2
RHINO
 70
     0
  0
APPID
  5
2CD
330
9
100
AcDbSymbolTableRecord
100
AcDbRegAppTableRecord
  2
ACAD_MLEADERVER
 70
     0
  0
ENDTAB
  0
TABLE
  2
DIMSTYLE
  5
A
330
0
100
AcDbSymbolTable
 70
     1
  0
DIMSTYLE
105
27
330
A
100
AcDbSymbolTableRecord
100
AcDbDimStyleTableRecord
  2
STANDARD_ACAD
 70
     0
  3

  4

  5

  6

  7

 40
1.0
 41
0.18
 42
0.0625
 43
0.38
 44
0.18
 45
0.0
 46
0.0
 47
0.0
 48
0.0
140
0.18
141
0.09
142
0.0
143
25.4
144
1.0
145
0.0
146
1.0
147
0.09
 71
     0
 72
     0
 73
     1
 74
     1
 75
     0
 76
     0
 77
     0
 78
     0
170
     0
171
     2
172
     0
173
     0
174
     0
175
     0
176
     0
177
     0
178
     0
270
     2
271
     4
272
     4
273
     2
274
     2
340
11
275
     0
280
     0
281
     0
282
     0
283
     1
284
     0
285
     0
286
     0
287
     3
288
     0
  0
ENDTAB
  0
TABLE
  2
BLOCK_RECORD
  5
1
330
0
100
AcDbSymbolTable
 70
     0
  0
BLOCK_RECORD
  5
1F
330
1
100
AcDbSymbolTableRecord
100
AcDbBlockTableRecord
  2
*MODEL_SPACE
  0
BLOCK_RECORD
  5
1B
330
1
100
AcDbSymbolTableRecord
100
AcDbBlockTableRecord
  2
*PAPER_SPACE
  0
ENDTAB
  0
ENDSEC
  0
SECTION
  2
BLOCKS
  0
BLOCK
  5
20
330
1F
100
AcDbEntity
  8
0
100
AcDbBlockBegin
  2
*MODEL_SPACE
 70
     0
 10
0.0
 20
0.0
 30
0.0
  3
*MODEL_SPACE
  1

  0
ENDBLK
  5
21
330
1F
100
AcDbEntity
  8
0
100
AcDbBlockEnd
  0
BLOCK
  5
1C
330
1B
100
AcDbEntity
 67
     1
  8
0
100
AcDbBlockBegin
  2
*PAPER_SPACE
 70
     0
 10
0.0
 20
0.0
 30
0.0
  3
*PAPER_SPACE
  1

  0
ENDBLK
  5
1D
330
1B
100
AcDbEntity
 67
     1
  8
0
100
AcDbBlockEnd
  0
ENDSEC
  0
SECTION
  2
ENTITIES
  0
POLYLINE
  5
60
330
1F
100
AcDbEntity
  8
1_ANYTOOL_1MMDEEP_LABELS_S
100
AcDb2dPolyline
 66
     1
 10
0.0
 20
0.0
 30
0.0
  0
VERTEX
  5
61
330
60
100
AcDbEntity
  8
1_ANYTOOL_1MMDEEP_LABELS_S
100
AcDbVertex
100
AcDb2dVertex
 10
23.10395316365702
 20
-29.84661778218288
 30
0.0
  0
VERTEX
  5
62
330
60
100
AcDbEntity
  8
1_ANYTOOL_1MMDEEP_LABELS_S
100
AcDbVertex
100
AcDb2dVertex
 10
4.16109602079996
 20
-29.84661778218288
 30
0.0
  0
VERTEX
  5
63
330
60
100
AcDbEntity
  8
1_ANYTOOL_1MMDEEP_LABELS_S
100
AcDbVertex
100
AcDb2dVertex
 10
4.16109602079996
 20
0.1533822178171249
 30
0.0
  0
VERTEX
  5
64
330
60
100
AcDbEntity
  8
1_ANYTOOL_1MMDEEP_LABELS_S
100
AcDbVertex
100
AcDb2dVertex
 10
21.98966744937115
 20
0.1533822178171249
 30
0.0
  0
SEQEND
  5
65
330
60
100
AcDbEntity
  8
1_ANYTOOL_1MMDEEP_LABELS_S
  0
LINE
  5
66
330
1F
100
AcDbEntity
  8
1_ANYTOOL_1MMDEEP_LABELS_S
100
AcDbLine
 10
18.81823887794326
 20
-13.77518921075534
 30
0.0
 11
4.16109602079996
 21
-13.77518921075534
 31
0.0
  0
LINE
  5
67
330
1F
100
AcDbEntity
  8
1_ANYTOOL_1MMDEEP_LABELS_S
100
AcDbLine
 10
35.31823887794326
 20
-15.96090349646693
 30
0.0
 11
26.53252459222858
 21
-16.04661778217996
 31
0.0
  0
POLYLINE
  5
68
330
1F
100
AcDbEntity
  8
1_ANYTOOL_1MMDEEP_LABELS_S
100
AcDb2dPolyline
 66
     1
 10
0.0
 20
0.0
 30
0.0
  0
VERTEX
  5
69
330
68
100
AcDbEntity
  8
1_ANYTOOL_1MMDEEP_LABELS_S
100
AcDbVertex
100
AcDb2dVertex
 10
40.46109602080014
 20
0.1533822178171249
 30
0.0
  0
VERTEX
  5
6A
330
68
100
AcDbEntity
  8
1_ANYTOOL_1MMDEEP_LABELS_S
100
AcDbVertex
100
AcDb2dVertex
 10
40.46109602080014
 20
-29.84661778218288
 30
0.0
  0
VERTEX
  5
6B
330
68
100
AcDbEntity
  8
1_ANYTOOL_1MMDEEP_LABELS_S
100
AcDbVertex
100
AcDb2dVertex
 10
57.5610960207996
 20
-29.84661778218288
 30
0.0
  0
SEQEND
  5
6C
330
68
100
AcDbEntity
  8
1_ANYTOOL_1MMDEEP_LABELS_S
  0
LINE
  5
6D
330
1F
100
AcDbEntity
  8
1_ANYTOOL_1MMDEEP_LABELS_S
100
AcDbLine
 10
77.70395316365739
 20
-0.3180463536118623
 30
0.0
 11
60.51823887794308
 21
-31.08947492503648
 31
0.0
  0
POLYLINE
  5
6E
330
1F
100
AcDbEntity
  8
1_ANYTOOL_1MMDEEP_LABELS_S
100
AcDb2dPolyline
 66
     1
 10
0.0
 20
0.0
 30
0.0
  0
VERTEX
  5
6F
330
6E
100
AcDbEntity
  8
1_ANYTOOL_1MMDEEP_LABELS_S
100
AcDbVertex
100
AcDb2dVertex
 10
101.3182388779433
 20
-7.346617782182875
 30
0.0
 42
0.131102951867704
  0
VERTEX
  5
70
330
6E
100
AcDbEntity
  8
1_ANYTOOL_1MMDEEP_LABELS_S
100
AcDbVertex
100
AcDb2dVertex
 10
97.54681030651409
 20
-1.989474925037941
 30
0.0
  0
VERTEX
  5
71
330
6E
100
AcDbEntity
  8
1_ANYTOOL_1MMDEEP_LABELS_S
100
AcDbVertex
100
AcDb2dVertex
 10
97.39036499401408
 20
-1.857638987538069
 30
0.0
  0
VERTEX
  5
72
330
6E
100
AcDbEntity
  8
1_ANYTOOL_1MMDEEP_LABELS_S
100
AcDbVertex
100
AcDb2dVertex
 10
97.23174334222836
 20
-1.729988317895335
 30
0.0
  0
VERTEX
  5
73
330
6E
100
AcDbEntity
  8
1_ANYTOOL_1MMDEEP_LABELS_S
100
AcDbVertex
100
AcDb2dVertex
 10
97.07094535115692
 20
-1.606522916109741
 30
0.0
  0
VERTEX
  5
74
330
6E
100
AcDbEntity
  8
1_ANYTOOL_1MMDEEP_LABELS_S
100
AcDbVertex
100
AcDb2dVertex
 10
96.90797102079976
 20
-1.487242782181285
 30
0.0
  0
VERTEX
  5
75
330
6E
100
AcDbEntity
  8
1_ANYTOOL_1MMDEEP_LABELS_S
100
AcDbVertex
100
AcDb2dVertex
 10
96.7428203511569
 20
-1.372147916109968
 30
0.0
  0
VERTEX
  5
76
330
6E
100
AcDbEntity
  8
1_ANYTOOL_1MMDEEP_LABELS_S
100
AcDbVertex
100
AcDb2dVertex
 10
96.57549334222833
 20
-1.26123831789579
 30
0.0
  0
VERTEX
  5
77
330
6E
100
AcDbEntity
  8
1_ANYTOOL_1MMDEEP_LABELS_S
100
AcDbVertex
100
AcDb2dVertex
 10
96.40598999401404
 20
-1.15451398753875
 30
0.0
  0
VERTEX
  5
78
330
6E
100
AcDbEntity
  8
1_ANYTOOL_1MMDEEP_LABELS_S
100
AcDbVertex
100
AcDb2dVertex
 10
96.23431030651403
 20
-1.051974925038849
 30
0.0
  0
VERTEX
  5
79
330
6E
100
AcDbEntity
  8
1_ANYTOOL_1MMDEEP_LABELS_S
100
AcDbVertex
100
AcDb2dVertex
 10
96.06045427972832
 20
-0.9536211303960878
 30
0.0
  0
VERTEX
  5
7A
330
6E
100
AcDbEntity
  8
1_ANYTOOL_1MMDEEP_LABELS_S
100
AcDbVertex
100
AcDb2dVertex
 10
95.8844219136569
 20
-0.8594526036104647
 30
0.0
  0
VERTEX
  5
7B
330
6E
100
AcDbEntity
  8
1_ANYTOOL_1MMDEEP_LABELS_S
100
AcDbVertex
100
AcDb2dVertex
 10
95.70621320829974
 20
-0.7694693446819805
 30
0.0
  0
VERTEX
  5
7C
330
6E
100
AcDbEntity
  8
1_ANYTOOL_1MMDEEP_LABELS_S
100
AcDbVertex
100
AcDb2dVertex
 10
95.5258281636569
 20
-0.6836713536106351
 30
0.0
  0
VERTEX
  5
7D
330
6E
100
AcDbEntity
  8
1_ANYTOOL_1MMDEEP_LABELS_S
100
AcDbVertex
100
AcDb2dVertex
 10
95.34326677972834
 20
-0.6020586303964286
 30
0.0
  0
VERTEX
  5
7E
330
6E
100
AcDbEntity
  8
1_ANYTOOL_1MMDEEP_LABELS_S
100
AcDbVertex
100
AcDb2dVertex
 10
95.15852905651406
 20
-0.5246311750393607
 30
0.0
  0
VERTEX
  5
7F
330
6E
100
AcDbEntity
  8
1_ANYTOOL_1MMDEEP_LABELS_S
100
AcDbVertex
100
AcDb2dVertex
 10
94.97161499401406
 20
-0.4513889875394317
 30
0.0
  0
VERTEX
  5
80
330
6E
100
AcDbEntity
  8
1_ANYTOOL_1MMDEEP_LABELS_S
100
AcDbVertex
100
AcDb2dVertex
 10
94.78252459222836
 20
-0.3823320678966415
 30
0.0
  0
VERTEX
  5
81
330
6E
100
AcDbEntity
  8
1_ANYTOOL_1MMDEEP_LABELS_S
100
AcDbVertex
100
AcDb2dVertex
 10
94.59125785115694
 20
-0.3174604161109901
 30
0.0
  0
VERTEX
  5
82
330
6E
100
AcDbEntity
  8
1_ANYTOOL_1MMDEEP_LABELS_S
100
AcDbVertex
100
AcDb2dVertex
 10
94.39781477079981
 20
-0.2567740321824775
 30
0.0
  0
VERTEX
  5
83
330
6E
100
AcDbEntity
  8
1_ANYTOOL_1MMDEEP_LABELS_S
100
AcDbVertex
100
AcDb2dVertex
 10
94.20219535115697
 20
-0.2002729161111037
 30
0.0
  0
VERTEX
  5
84
330
6E
100
AcDbEntity
  8
1_ANYTOOL_1MMDEEP_LABELS_S
100
AcDbVertex
100
AcDb2dVertex
 10
94.00439959222841
 20
-0.1479570678968687
 30
0.0
  0
VERTEX
  5
85
330
6E
100
AcDbEntity
  8
1_ANYTOOL_1MMDEEP_LABELS_S
100
AcDbVertex
100
AcDb2dVertex
 10
93.80442749401413
 20
-0.0998264875397725
 30
0.0
  0
VERTEX
  5
86
330
6E
100
AcDbEntity
  8
1_ANYTOOL_1MMDEEP_LABELS_S
100
AcDbVertex
100
AcDb2dVertex
 10
93.60227905651416
 20
-0.0558811750398151
 30
0.0
  0
VERTEX
  5
87
330
6E
100
AcDbEntity
  8
1_ANYTOOL_1MMDEEP_LABELS_S
100
AcDbVertex
100
AcDb2dVertex
 10
93.39795427972847
 20
-0.0161211303969965
 30
0.0
  0
VERTEX
  5
88
330
6E
100
AcDbEntity
  8
1_ANYTOOL_1MMDEEP_LABELS_S
100
AcDbVertex
100
AcDb2dVertex
 10
93.19145316365706
 20
0.0194536463886833
 30
0.0
  0
VERTEX
  5
89
330
6E
100
AcDbEntity
  8
1_ANYTOOL_1MMDEEP_LABELS_S
100
AcDbVertex
100
AcDb2dVertex
 10
92.98277570829994
 20
0.0508431553172243
 30
0.0
  0
VERTEX
  5
8A
330
6E
100
AcDbEntity
  8
1_ANYTOOL_1MMDEEP_LABELS_S
100
AcDbVertex
100
AcDb2dVertex
 10
92.77192191365711
 20
0.0780473963886265
 30
0.0
  0
VERTEX
  5
8B
330
6E
100
AcDbEntity
  8
1_ANYTOOL_1MMDEEP_LABELS_S
100
AcDbVertex
100
AcDb2dVertex
 10
92.55889177972855
 20
0.1010663696028899
 30
0.0
  0
VERTEX
  5
8C
330
6E
100
AcDbEntity
  8
1_ANYTOOL_1MMDEEP_LABELS_S
100
AcDbVertex
100
AcDb2dVertex
 10
92.3436853065143
 20
0.1199000749600145
 30
0.0
  0
VERTEX
  5
8D
330
6E
100
AcDbEntity
  8
1_ANYTOOL_1MMDEEP_LABELS_S
100
AcDbVertex
100
AcDb2dVertex
 10
92.12630249401434
 20
0.1345485124600003
 30
0.0
  0
VERTEX
  5
8E
330
6E
100
AcDbEntity
  8
1_ANYTOOL_1MMDEEP_LABELS_S
100
AcDbVertex
100
AcDb2dVertex
 10
91.90674334222865
 20
0.1450116821028473
 30
0.0
  0
VERTEX
  5
8F
330
6E
100
AcDbEntity
  8
1_ANYTOOL_1MMDEEP_LABELS_S
100
AcDbVertex
100
AcDb2dVertex
 10
91.68500785115725
 20
0.1512895838885555
 30
0.0
  0
VERTEX
  5
90
330
6E
100
AcDbEntity
  8
1_ANYTOOL_1MMDEEP_LABELS_S
100
AcDbVertex
100
AcDb2dVertex
 10
91.46109602080014
 20
0.1533822178171249
 30
0.0
  0
VERTEX
  5
91
330
6E
100
AcDbEntity
  8
1_ANYTOOL_1MMDEEP_LABELS_S
100
AcDbVertex
100
AcDb2dVertex
 10
91.1181970252644
 20
0.1487784231742708
 30
0.0
  0
VERTEX
  5
92
330
6E
100
AcDbEntity
  8
1_ANYTOOL_1MMDEEP_LABELS_S
100
AcDbVertex
100
AcDb2dVertex
 10
90.78057146722865
 20
0.1349670392457085
 30
0.0
  0
VERTEX
  5
93
330
6E
100
AcDbEntity
  8
1_ANYTOOL_1MMDEEP_LABELS_S
100
AcDbVertex
100
AcDb2dVertex
 10
90.44821934669292
 20
0.111948066031438
 30
0.0
  0
VERTEX
  5
94
330
6E
100
AcDbEntity
  8
1_ANYTOOL_1MMDEEP_LABELS_S
100
AcDbVertex
100
AcDb2dVertex
 10
90.12114066365717
 20
0.0797215035314593
 30
0.0
  0
VERTEX
  5
95
330
6E
100
AcDbEntity
  8
1_ANYTOOL_1MMDEEP_LABELS_S
100
AcDbVertex
100
AcDb2dVertex
 10
89.79933541812144
 20
0.0382873517457725
 30
0.0
  0
VERTEX
  5
96
330
6E
100
AcDbEntity
  8
1_ANYTOOL_1MMDEEP_LABELS_S
100
AcDbVertex
100
AcDb2dVertex
 10
89.4828036100857
 20
-0.0123543893256226
 30
0.0
  0
VERTEX
  5
97
330
6E
100
AcDbEntity
  8
1_ANYTOOL_1MMDEEP_LABELS_S
100
AcDbVertex
100
AcDb2dVertex
 10
89.17154523954996
 20
-0.0722037196827259
 30
0.0
  0
VERTEX
  5
98
330
6E
100
AcDbEntity
  8
1_ANYTOOL_1MMDEEP_LABELS_S
100
AcDbVertex
100
AcDb2dVertex
 10
88.86556030651423
 20
-0.1412606393255373
 30
0.0
  0
VERTEX
  5
99
330
6E
100
AcDbEntity
  8
1_ANYTOOL_1MMDEEP_LABELS_S
100
AcDbVertex
100
AcDb2dVertex
 10
88.56484881097849
 20
-0.219525148254057
 30
0.0
  0
VERTEX
  5
9A
330
6E
100
AcDbEntity
  8
1_ANYTOOL_1MMDEEP_LABELS_S
100
AcDbVertex
100
AcDb2dVertex
 10
88.26941075294276
 20
-0.3069972464682849
 30
0.0
  0
VERTEX
  5
9B
330
6E
100
AcDbEntity
  8
1_ANYTOOL_1MMDEEP_LABELS_S
100
AcDbVertex
100
AcDb2dVertex
 10
87.97924613240704
 20
-0.4036769339682209
 30
0.0
  0
VERTEX
  5
9C
330
6E
100
AcDbEntity
  8
1_ANYTOOL_1MMDEEP_LABELS_S
100
AcDbVertex
100
AcDb2dVertex
 10
87.6943549493713
 20
-0.5095642107538652
 30
0.0
  0
VERTEX
  5
9D
330
6E
100
AcDbEntity
  8
1_ANYTOOL_1MMDEEP_LABELS_S
100
AcDbVertex
100
AcDb2dVertex
 10
87.41473720383559
 20
-0.6246590768252176
 30
0.0
  0
VERTEX
  5
9E
330
6E
100
AcDbEntity
  8
1_ANYTOOL_1MMDEEP_LABELS_S
100
AcDbVertex
100
AcDb2dVertex
 10
87.27690587013022
 20
-0.6856593558430344
 30
0.0
  0
VERTEX
  5
9F
330
6E
100
AcDbEntity
  8
1_ANYTOOL_1MMDEEP_LABELS_S
100
AcDbVertex
100
AcDb2dVertex
 10
87.14039289579985
 20
-0.7489615321822782
 30
0.0
  0
VERTEX
  5
A0
330
6E
100
AcDbEntity
  8
1_ANYTOOL_1MMDEEP_LABELS_S
100
AcDbVertex
100
AcDb2dVertex
 10
87.00519828084448
 20
-0.8145656058429491
 30
0.0
  0
VERTEX
  5
A1
330
6E
100
AcDbEntity
  8
1_ANYTOOL_1MMDEEP_LABELS_S
100
AcDbVertex
100
AcDb2dVertex
 10
86.87132202526412
 20
-0.8824715768250471
 30
0.0
  0
VERTEX
  5
A2
330
6E
100
AcDbEntity
  8
1_ANYTOOL_1MMDEEP_LABELS_S
100
AcDbVertex
100
AcDb2dVertex
 10
86.73876412905875
 20
-0.9526794451285721
 30
0.0
  0
VERTEX
  5
A3
330
6E
100
AcDbEntity
  8
1_ANYTOOL_1MMDEEP_LABELS_S
100
AcDbVertex
100
AcDb2dVertex
 10
86.6075245922284
 20
-1.025189210753524
 30
0.0
  0
VERTEX
  5
A4
330
6E
100
AcDbEntity
  8
1_ANYTOOL_1MMDEEP_LABELS_S
100
AcDbVertex
100
AcDb2dVertex
 10
86.47760341477303
 20
-1.100000873699903
 30
0.0
  0
VERTEX
  5
A5
330
6E
100
AcDbEntity
  8
1_ANYTOOL_1MMDEEP_LABELS_S
100
AcDbVertex
100
AcDb2dVertex
 10
86.34900059669268
 20
-1.177114433967709
 30
0.0
  0
VERTEX
  5
A6
330
6E
100
AcDbEntity
  8
1_ANYTOOL_1MMDEEP_LABELS_S
100
AcDbVertex
100
AcDb2dVertex
 10
86.22171613798731
 20
-1.256529891556943
 30
0.0
  0
VERTEX
  5
A7
330
6E
100
AcDbEntity
  8
1_ANYTOOL_1MMDEEP_LABELS_S
100
AcDbVertex
100
AcDb2dVertex
 10
86.09575003865696
 20
-1.338247246467603
 30
0.0
  0
VERTEX
  5
A8
330
6E
100
AcDbEntity
  8
1_ANYTOOL_1MMDEEP_LABELS_S
100
AcDbVertex
100
AcDb2dVertex
 10
85.97110229870161
 20
-1.42226649869969
 30
0.0
  0
VERTEX
  5
A9
330
6E
100
AcDbEntity
  8
1_ANYTOOL_1MMDEEP_LABELS_S
100
AcDbVertex
100
AcDb2dVertex
 10
85.84777291812125
 20
-1.508587648253204
 30
0.0
  0
VERTEX
  5
AA
330
6E
100
AcDbEntity
  8
1_ANYTOOL_1MMDEEP_LABELS_S
100
AcDbVertex
100
AcDb2dVertex
 10
85.60506923508552
 20
-1.688135639324514
 30
0.0
  0
VERTEX
  5
AB
330
6E
100
AcDbEntity
  8
1_ANYTOOL_1MMDEEP_LABELS_S
100
AcDbVertex
100
AcDb2dVertex
 10
85.36763898954982
 20
-1.876891219681532
 30
0.0
  0
VERTEX
  5
AC
330
6E
100
AcDbEntity
  8
1_ANYTOOL_1MMDEEP_LABELS_S
100
AcDbVertex
100
AcDb2dVertex
 10
85.13548218151409
 20
-2.074854389324258
 30
0.0
  0
VERTEX
  5
AD
330
6E
100
AcDbEntity
  8
1_ANYTOOL_1MMDEEP_LABELS_S
100
AcDbVertex
100
AcDb2dVertex
 10
84.90859881097838
 20
-2.282025148252693
 30
0.0
  0
VERTEX
  5
AE
330
6E
100
AcDbEntity
  8
1_ANYTOOL_1MMDEEP_LABELS_S
100
AcDbVertex
100
AcDb2dVertex
 10
84.68698887794267
 20
-2.498403496466835
 30
0.0
  0
VERTEX
  5
AF
330
6E
100
AcDbEntity
  8
1_ANYTOOL_1MMDEEP_LABELS_S
100
AcDbVertex
100
AcDb2dVertex
 10
84.47065238240695
 20
-2.723989433966686
 30
0.0
  0
VERTEX
  5
B0
330
6E
100
AcDbEntity
  8
1_ANYTOOL_1MMDEEP_LABELS_S
100
AcDbVertex
100
AcDb2dVertex
 10
84.25958932437125
 20
-2.958782960752245
 30
0.0
  0
VERTEX
  5
B1
330
6E
100
AcDbEntity
  8
1_ANYTOOL_1MMDEEP_LABELS_S
100
AcDbVertex
100
AcDb2dVertex
 10
84.05379970383555
 20
-3.202784076823512
 30
0.0
  0
VERTEX
  5
B2
330
6E
100
AcDbEntity
  8
1_ANYTOOL_1MMDEEP_LABELS_S
100
AcDbVertex
100
AcDb2dVertex
 10
83.85328352079983
 20
-3.455992782180488
 30
0.0
  0
VERTEX
  5
B3
330
6E
100
AcDbEntity
  8
1_ANYTOOL_1MMDEEP_LABELS_S
100
AcDbVertex
100
AcDb2dVertex
 10
83.65804077526414
 20
-3.718409076823171
 30
0.0
  0
VERTEX
  5
B4
330
6E
100
AcDbEntity
  8
1_ANYTOOL_1MMDEEP_LABELS_S
100
AcDbVertex
100
AcDb2dVertex
 10
83.46807146722843
 20
-3.990032960751563
 30
0.0
  0
VERTEX
  5
B5
330
6E
100
AcDbEntity
  8
1_ANYTOOL_1MMDEEP_LABELS_S
100
AcDbVertex
100
AcDb2dVertex
 10
83.28337559669272
 20
-4.270864433965663
 30
0.0
  0
VERTEX
  5
B6
330
6E
100
AcDbEntity
  8
1_ANYTOOL_1MMDEEP_LABELS_S
100
AcDbVertex
100
AcDb2dVertex
 10
83.10395316365702
 20
-4.560903496465471
 30
0.0
  0
VERTEX
  5
B7
330
6E
100
AcDbEntity
  8
1_ANYTOOL_1MMDEEP_LABELS_S
100
AcDbVertex
100
AcDb2dVertex
 10
82.76662057437137
 20
-5.148515103608901
 30
0.0
  0
VERTEX
  5
B8
330
6E
100
AcDbEntity
  8
1_ANYTOOL_1MMDEEP_LABELS_S
100
AcDbVertex
100
AcDb2dVertex
 10
82.45105137794286
 20
-5.743492782180851
 30
0.0
  0
VERTEX
  5
B9
330
6E
100
AcDbEntity
  8
1_ANYTOOL_1MMDEEP_LABELS_S
100
AcDbVertex
100
AcDb2dVertex
 10
82.15724557437149
 20
-6.345836532181323
 30
0.0
  0
VERTEX
  5
BA
330
6E
100
AcDbEntity
  8
1_ANYTOOL_1MMDEEP_LABELS_S
100
AcDbVertex
100
AcDb2dVertex
 10
81.88520316365725
 20
-6.955546353610316
 30
0.0
  0
VERTEX
  5
BB
330
6E
100
AcDbEntity
  8
1_ANYTOOL_1MMDEEP_LABELS_S
100
AcDbVertex
100
AcDb2dVertex
 10
81.63492414580016
 20
-7.57262224646783
 30
0.0
  0
VERTEX
  5
BC
330
6E
100
AcDbEntity
  8
1_ANYTOOL_1MMDEEP_LABELS_S
100
AcDbVertex
100
AcDb2dVertex
 10
81.4064085208002
 20
-8.197064210753865
 30
0.0
  0
VERTEX
  5
BD
330
6E
100
AcDbEntity
  8
1_ANYTOOL_1MMDEEP_LABELS_S
100
AcDbVertex
100
AcDb2dVertex
 10
81.19965628865738
 20
-8.828872246468421
 30
0.0
  0
VERTEX
  5
BE
330
6E
100
AcDbEntity
  8
1_ANYTOOL_1MMDEEP_LABELS_S
100
AcDbVertex
100
AcDb2dVertex
 10
81.0146674493717
 20
-9.468046353611498
 30
0.0
  0
VERTEX
  5
BF
330
6E
100
AcDbEntity
  8
1_ANYTOOL_1MMDEEP_LABELS_S
100
AcDbVertex
100
AcDb2dVertex
 10
80.85144200294316
 20
-10.1145865321831
 30
0.0
  0
VERTEX
  5
C0
330
6E
100
AcDbEntity
  8
1_ANYTOOL_1MMDEEP_LABELS_S
100
AcDbVertex
100
AcDb2dVertex
 10
80.70997994937176
 20
-10.76849278218322
 30
0.0
  0
VERTEX
  5
C1
330
6E
100
AcDbEntity
  8
1_ANYTOOL_1MMDEEP_LABELS_S
100
AcDbVertex
100
AcDb2dVertex
 10
80.5902812886575
 20
-11.42976510361186
 30
0.0
  0
VERTEX
  5
C2
330
6E
100
AcDbEntity
  8
1_ANYTOOL_1MMDEEP_LABELS_S
100
AcDbVertex
100
AcDb2dVertex
 10
80.49234602080037
 20
-12.09840349646902
 30
0.0
  0
VERTEX
  5
C3
330
6E
100
AcDbEntity
  8
1_ANYTOOL_1MMDEEP_LABELS_S
100
AcDbVertex
100
AcDb2dVertex
 10
80.41617414580038
 20
-12.7744079607547
 30
0.0
  0
VERTEX
  5
C4
330
6E
100
AcDbEntity
  8
1_ANYTOOL_1MMDEEP_LABELS_S
100
AcDbVertex
100
AcDb2dVertex
 10
80.36176566365754
 20
-13.4577784964689
 30
0.0
  0
VERTEX
  5
C5
330
6E
100
AcDbEntity
  8
1_ANYTOOL_1MMDEEP_LABELS_S
100
AcDbVertex
100
AcDb2dVertex
 10
80.32912057437183
 20
-14.14851510361163
 30
0.0
  0
VERTEX
  5
C6
330
6E
100
AcDbEntity
  8
1_ANYTOOL_1MMDEEP_LABELS_S
100
AcDbVertex
100
AcDb2dVertex
 10
80.31823887794326
 20
-14.84661778218288
 30
0.0
  0
VERTEX
  5
C7
330
6E
100
AcDbEntity
  8
1_ANYTOOL_1MMDEEP_LABELS_S
100
AcDbVertex
100
AcDb2dVertex
 10
80.32928798508611
 20
-15.5448878714684
 30
0.0
  0
VERTEX
  5
C8
330
6E
100
AcDbEntity
  8
1_ANYTOOL_1MMDEEP_LABELS_S
100
AcDbVertex
100
AcDb2dVertex
 10
80.36243530651468
 20
-16.23612671075398
 30
0.0
  0
VERTEX
  5
C9
330
6E
100
AcDbEntity
  8
1_ANYTOOL_1MMDEEP_LABELS_S
100
AcDbVertex
100
AcDb2dVertex
 10
80.41768084222898
 20
-16.9203343000396
 30
0.0
  0
VERTEX
  5
CA
330
6E
100
AcDbEntity
  8
1_ANYTOOL_1MMDEEP_LABELS_S
100
AcDbVertex
100
AcDb2dVertex
 10
80.49502459222896
 20
-17.59751063932526
 30
0.0
  0
VERTEX
  5
CB
330
6E
100
AcDbEntity
  8
1_ANYTOOL_1MMDEEP_LABELS_S
100
AcDbVertex
100
AcDb2dVertex
 10
80.59446655651467
 20
-18.26765572861098
 30
0.0
  0
VERTEX
  5
CC
330
6E
100
AcDbEntity
  8
1_ANYTOOL_1MMDEEP_LABELS_S
100
AcDbVertex
100
AcDb2dVertex
 10
80.71600673508608
 20
-18.93076956789673
 30
0.0
  0
VERTEX
  5
CD
330
6E
100
AcDbEntity
  8
1_ANYTOOL_1MMDEEP_LABELS_S
100
AcDbVertex
100
AcDb2dVertex
 10
80.85964512794321
 20
-19.58685215718253
 30
0.0
  0
VERTEX
  5
CE
330
6E
100
AcDbEntity
  8
1_ANYTOOL_1MMDEEP_LABELS_S
100
AcDbVertex
100
AcDb2dVertex
 10
81.02538173508606
 20
-20.23590349646838
 30
0.0
  0
VERTEX
  5
CF
330
6E
100
AcDbEntity
  8
1_ANYTOOL_1MMDEEP_LABELS_S
100
AcDbVertex
100
AcDb2dVertex
 10
81.21321655651461
 20
-20.87792358575427
 30
0.0
  0
VERTEX
  5
D0
330
6E
100
AcDbEntity
  8
1_ANYTOOL_1MMDEEP_LABELS_S
100
AcDbVertex
100
AcDb2dVertex
 10
81.42314959222888
 20
-21.51291242504021
 30
0.0
  0
VERTEX
  5
D1
330
6E
100
AcDbEntity
  8
1_ANYTOOL_1MMDEEP_LABELS_S
100
AcDbVertex
100
AcDb2dVertex
 10
81.65518084222887
 20
-22.1408700143262
 30
0.0
  0
VERTEX
  5
D2
330
6E
100
AcDbEntity
  8
1_ANYTOOL_1MMDEEP_LABELS_S
100
AcDbVertex
100
AcDb2dVertex
 10
81.90931030651456
 20
-22.76179635361223
 30
0.0
  0
VERTEX
  5
D3
330
6E
100
AcDbEntity
  8
1_ANYTOOL_1MMDEEP_LABELS_S
100
AcDbVertex
100
AcDb2dVertex
 10
82.18553798508597
 20
-23.3756914428983
 30
0.0
  0
VERTEX
  5
D4
330
6E
100
AcDbEntity
  8
1_ANYTOOL_1MMDEEP_LABELS_S
100
AcDbVertex
100
AcDb2dVertex
 10
82.48386387794308
 20
-23.98255528218442
 30
0.0
  0
VERTEX
  5
D5
330
6E
100
AcDbEntity
  8
1_ANYTOOL_1MMDEEP_LABELS_S
100
AcDbVertex
100
AcDb2dVertex
 10
82.8042879850859
 20
-24.58238787147059
 30
0.0
  0
VERTEX
  5
D6
330
6E
100
AcDbEntity
  8
1_ANYTOOL_1MMDEEP_LABELS_S
100
AcDbVertex
100
AcDb2dVertex
 10
83.14681030651445
 20
-25.1751892107568
 30
0.0
  0
VERTEX
  5
D7
330
6E
100
AcDbEntity
  8
1_ANYTOOL_1MMDEEP_LABELS_S
100
AcDbVertex
100
AcDb2dVertex
 10
83.3291205743716
 20
-25.46259155450664
 30
0.0
  0
VERTEX
  5
D8
330
6E
100
AcDbEntity
  8
1_ANYTOOL_1MMDEEP_LABELS_S
100
AcDbVertex
100
AcDb2dVertex
 10
83.51712280651446
 20
-25.74087001432792
 30
0.0
  0
VERTEX
  5
D9
330
6E
100
AcDbEntity
  8
1_ANYTOOL_1MMDEEP_LABELS_S
100
AcDbVertex
100
AcDb2dVertex
 10
83.71081700294303
 20
-26.01002459022064
 30
0.0
  0
VERTEX
  5
DA
330
6E
100
AcDbEntity
  8
1_ANYTOOL_1MMDEEP_LABELS_S
100
AcDbVertex
100
AcDb2dVertex
 10
83.91020316365731
 20
-26.27005528218479
 30
0.0
  0
VERTEX
  5
DB
330
6E
100
AcDbEntity
  8
1_ANYTOOL_1MMDEEP_LABELS_S
100
AcDbVertex
100
AcDb2dVertex
 10
84.11528128865731
 20
-26.52096209022037
 30
0.0
  0
VERTEX
  5
DC
330
6E
100
AcDbEntity
  8
1_ANYTOOL_1MMDEEP_LABELS_S
100
AcDbVertex
100
AcDb2dVertex
 10
84.32605137794303
 20
-26.76274501432738
 30
0.0
  0
VERTEX
  5
DD
330
6E
100
AcDbEntity
  8
1_ANYTOOL_1MMDEEP_LABELS_S
100
AcDbVertex
100
AcDb2dVertex
 10
84.54251343151445
 20
-26.99540405450583
 30
0.0
  0
VERTEX
  5
DE
330
6E
100
AcDbEntity
  8
1_ANYTOOL_1MMDEEP_LABELS_S
100
AcDbVertex
100
AcDb2dVertex
 10
84.76466744937159
 20
-27.21893921075571
 30
0.0
  0
VERTEX
  5
DF
330
6E
100
AcDbEntity
  8
1_ANYTOOL_1MMDEEP_LABELS_S
100
AcDbVertex
100
AcDb2dVertex
 10
84.99251343151444
 20
-27.43335048307702
 30
0.0
  0
VERTEX
  5
E0
330
6E
100
AcDbEntity
  8
1_ANYTOOL_1MMDEEP_LABELS_S
100
AcDbVertex
100
AcDb2dVertex
 10
85.22605137794301
 20
-27.63863787146977
 30
0.0
  0
VERTEX
  5
E1
330
6E
100
AcDbEntity
  8
1_ANYTOOL_1MMDEEP_LABELS_S
100
AcDbVertex
100
AcDb2dVertex
 10
85.46528128865728
 20
-27.83480137593395
 30
0.0
  0
VERTEX
  5
E2
330
6E
100
AcDbEntity
  8
1_ANYTOOL_1MMDEEP_LABELS_S
100
AcDbVertex
100
AcDb2dVertex
 10
85.71020316365727
 20
-28.02184099646956
 30
0.0
  0
VERTEX
  5
E3
330
6E
100
AcDbEntity
  8
1_ANYTOOL_1MMDEEP_LABELS_S
100
AcDbVertex
100
AcDb2dVertex
 10
85.8347985877644
 20
-28.11193935026416
 30
0.0
  0
VERTEX
  5
E4
330
6E
100
AcDbEntity
  8
1_ANYTOOL_1MMDEEP_LABELS_S
100
AcDbVertex
100
AcDb2dVertex
 10
85.96081700294297
 20
-28.19975673307661
 30
0.0
  0
VERTEX
  5
E5
330
6E
100
AcDbEntity
  8
1_ANYTOOL_1MMDEEP_LABELS_S
100
AcDbVertex
100
AcDb2dVertex
 10
86.08825840919297
 20
-28.28529314490692
 30
0.0
  0
VERTEX
  5
E6
330
6E
100
AcDbEntity
  8
1_ANYTOOL_1MMDEEP_LABELS_S
100
AcDbVertex
100
AcDb2dVertex
 10
86.2171228065144
 20
-28.36854858575509
 30
0.0
  0
VERTEX
  5
E7
330
6E
100
AcDbEntity
  8
1_ANYTOOL_1MMDEEP_LABELS_S
100
AcDbVertex
100
AcDb2dVertex
 10
86.34741019490724
 20
-28.44952305562112
 30
0.0
  0
VERTEX
  5
E8
330
6E
100
AcDbEntity
  8
1_ANYTOOL_1MMDEEP_LABELS_S
100
AcDbVertex
100
AcDb2dVertex
 10
86.47912057437152
 20
-28.52821655450501
 30
0.0
  0
VERTEX
  5
E9
330
6E
100
AcDbEntity
  8
1_ANYTOOL_1MMDEEP_LABELS_S
100
AcDbVertex
100
AcDb2dVertex
 10
86.61225394490722
 20
-28.60462908240675
 30
0.0
  0
VERTEX
  5
EA
330
6E
100
AcDbEntity
  8
1_ANYTOOL_1MMDEEP_LABELS_S
100
AcDbVertex
100
AcDb2dVertex
 10
86.74681030651436
 20
-28.67876063932636
 30
0.0
  0
VERTEX
  5
EB
330
6E
100
AcDbEntity
  8
1_ANYTOOL_1MMDEEP_LABELS_S
100
AcDbVertex
100
AcDb2dVertex
 10
87.02019200294292
 20
-28.82018084021914
 30
0.0
  0
VERTEX
  5
EC
330
6E
100
AcDbEntity
  8
1_ANYTOOL_1MMDEEP_LABELS_S
100
AcDbVertex
100
AcDb2dVertex
 10
87.2992656636572
 20
-28.95247715718335
 30
0.0
  0
VERTEX
  5
ED
330
6E
100
AcDbEntity
  8
1_ANYTOOL_1MMDEEP_LABELS_S
100
AcDbVertex
100
AcDb2dVertex
 10
87.58403128865717
 20
-29.075649590219
 30
0.0
  0
VERTEX
  5
EE
330
6E
100
AcDbEntity
  8
1_ANYTOOL_1MMDEEP_LABELS_S
100
AcDbVertex
100
AcDb2dVertex
 10
87.87448887794287
 20
-29.18969813932608
 30
0.0
  0
VERTEX
  5
EF
330
6E
100
AcDbEntity
  8
1_ANYTOOL_1MMDEEP_LABELS_S
100
AcDbVertex
100
AcDb2dVertex
 10
88.17063843151428
 20
-29.2946228045046
 30
0.0
  0
VERTEX
  5
F0
330
6E
100
AcDbEntity
  8
1_ANYTOOL_1MMDEEP_LABELS_S
100
AcDbVertex
100
AcDb2dVertex
 10
88.4724799493714
 20
-29.39042358575455
 30
0.0
  0
VERTEX
  5
F1
330
6E
100
AcDbEntity
  8
1_ANYTOOL_1MMDEEP_LABELS_S
100
AcDbVertex
100
AcDb2dVertex
 10
88.78001343151423
 20
-29.47710048307593
 30
0.0
  0
VERTEX
  5
F2
330
6E
100
AcDbEntity
  8
1_ANYTOOL_1MMDEEP_LABELS_S
100
AcDbVertex
100
AcDb2dVertex
 10
89.09323887794278
 20
-29.55465349646875
 30
0.0
  0
VERTEX
  5
F3
330
6E
100
AcDbEntity
  8
1_ANYTOOL_1MMDEEP_LABELS_S
100
AcDbVertex
100
AcDb2dVertex
 10
89.41215628865704
 20
-29.62308262593299
 30
0.0
  0
VERTEX
  5
F4
330
6E
100
AcDbEntity
  8
1_ANYTOOL_1MMDEEP_LABELS_S
100
AcDbVertex
100
AcDb2dVertex
 10
89.73676566365702
 20
-29.68238787146868
 30
0.0
  0
VERTEX
  5
F5
330
6E
100
AcDbEntity
  8
1_ANYTOOL_1MMDEEP_LABELS_S
100
AcDbVertex
100
AcDb2dVertex
 10
90.06706700294271
 20
-29.73256923307579
 30
0.0
  0
VERTEX
  5
F6
330
6E
100
AcDbEntity
  8
1_ANYTOOL_1MMDEEP_LABELS_S
100
AcDbVertex
100
AcDb2dVertex
 10
90.4030603065141
 20
-29.77362671075434
 30
0.0
  0
VERTEX
  5
F7
330
6E
100
AcDbEntity
  8
1_ANYTOOL_1MMDEEP_LABELS_S
100
AcDbVertex
100
AcDb2dVertex
 10
90.74474557437122
 20
-29.80556030450433
 30
0.0
  0
VERTEX
  5
F8
330
6E
100
AcDbEntity
  8
1_ANYTOOL_1MMDEEP_LABELS_S
100
AcDbVertex
100
AcDb2dVertex
 10
91.09212280651406
 20
-29.82837001432574
 30
0.0
  0
VERTEX
  5
F9
330
6E
100
AcDbEntity
  8
1_ANYTOOL_1MMDEEP_LABELS_S
100
AcDbVertex
100
AcDb2dVertex
 10
91.44519200294259
 20
-29.84205584021859
 30
0.0
  0
VERTEX
  5
FA
330
6E
100
AcDbEntity
  8
1_ANYTOOL_1MMDEEP_LABELS_S
100
AcDbVertex
100
AcDb2dVertex
 10
91.80395316365684
 20
-29.84661778218288
 30
0.0
  0
VERTEX
  5
FB
330
6E
100
AcDbEntity
  8
1_ANYTOOL_1MMDEEP_LABELS_S
100
AcDbVertex
100
AcDb2dVertex
 10
92.18598441365691
 20
-29.84025617504003
 30
0.0
  0
VERTEX
  5
FC
330
6E
100
AcDbEntity
  8
1_ANYTOOL_1MMDEEP_LABELS_S
100
AcDbVertex
100
AcDb2dVertex
 10
92.5606495922284
 20
-29.82117135361148
 30
0.0
  0
VERTEX
  5
FD
330
6E
100
AcDbEntity
  8
1_ANYTOOL_1MMDEEP_LABELS_S
100
AcDbVertex
100
AcDb2dVertex
 10
92.74521990472843
 20
-29.80685773754006
 30
0.0
  0
VERTEX
  5
FE
330
6E
100
AcDbEntity
  8
1_ANYTOOL_1MMDEEP_LABELS_S
100
AcDbVertex
100
AcDb2dVertex
 10
92.92794869937131
 20
-29.78936331789723
 30
0.0
  0
VERTEX
  5
FF
330
6E
100
AcDbEntity
  8
1_ANYTOOL_1MMDEEP_LABELS_S
100
AcDbVertex
100
AcDb2dVertex
 10
93.10883597615705
 20
-29.76868809468296
 30
0.0
  0
VERTEX
  5
100
330
6E
100
AcDbEntity
  8
1_ANYTOOL_1MMDEEP_LABELS_S
100
AcDbVertex
100
AcDb2dVertex
 10
93.28788173508565
 20
-29.74483206789728
 30
0.0
  0
VERTEX
  5
101
330
6E
100
AcDbEntity
  8
1_ANYTOOL_1MMDEEP_LABELS_S
100
AcDbVertex
100
AcDb2dVertex
 10
93.4650859761571
 20
-29.71779523754017
 30
0.0
  0
VERTEX
  5
102
330
6E
100
AcDbEntity
  8
1_ANYTOOL_1MMDEEP_LABELS_S
100
AcDbVertex
100
AcDb2dVertex
 10
93.6404486993714
 20
-29.68757760361163
 30
0.0
  0
VERTEX
  5
103
330
6E
100
AcDbEntity
  8
1_ANYTOOL_1MMDEEP_LABELS_S
100
AcDbVertex
100
AcDb2dVertex
 10
93.81396990472857
 20
-29.65417916611167
 30
0.0
  0
VERTEX
  5
104
330
6E
100
AcDbEntity
  8
1_ANYTOOL_1MMDEEP_LABELS_S
100
AcDbVertex
100
AcDb2dVertex
 10
93.98564959222858
 20
-29.61759992504028
 30
0.0
  0
VERTEX
  5
105
330
6E
100
AcDbEntity
  8
1_ANYTOOL_1MMDEEP_LABELS_S
100
AcDbVertex
100
AcDb2dVertex
 10
94.15548776187146
 20
-29.57783988039747
 30
0.0
  0
VERTEX
  5
106
330
6E
100
AcDbEntity
  8
1_ANYTOOL_1MMDEEP_LABELS_S
100
AcDbVertex
100
AcDb2dVertex
 10
94.32348441365718
 20
-29.53489903218323
 30
0.0
  0
VERTEX
  5
107
330
6E
100
AcDbEntity
  8
1_ANYTOOL_1MMDEEP_LABELS_S
100
AcDbVertex
100
AcDb2dVertex
 10
94.48963954758577
 20
-29.48877738039757
 30
0.0
  0
VERTEX
  5
108
330
6E
100
AcDbEntity
  8
1_ANYTOOL_1MMDEEP_LABELS_S
100
AcDbVertex
100
AcDb2dVertex
 10
94.6539531636572
 20
-29.43947492504049
 30
0.0
  0
VERTEX
  5
109
330
6E
100
AcDbEntity
  8
1_ANYTOOL_1MMDEEP_LABELS_S
100
AcDbVertex
100
AcDb2dVertex
 10
94.8164252618715
 20
-29.38699166611197
 30
0.0
  0
VERTEX
  5
10A
330
6E
100
AcDbEntity
  8
1_ANYTOOL_1MMDEEP_LABELS_S
100
AcDbVertex
100
AcDb2dVertex
 10
94.97705584222865
 20
-29.33132760361204
 30
0.0
  0
VERTEX
  5
10B
330
6E
100
AcDbEntity
  8
1_ANYTOOL_1MMDEEP_LABELS_S
100
AcDbVertex
100
AcDb2dVertex
 10
95.13584490472866
 20
-29.27248273754068
 30
0.0
  0
VERTEX
  5
10C
330
6E
100
AcDbEntity
  8
1_ANYTOOL_1MMDEEP_LABELS_S
100
AcDbVertex
100
AcDb2dVertex
 10
95.29279244937152
 20
-29.21045706789789
 30
0.0
  0
VERTEX
  5
10D
330
6E
100
AcDbEntity
  8
1_ANYTOOL_1MMDEEP_LABELS_S
100
AcDbVertex
100
AcDb2dVertex
 10
95.44789847615723
 20
-29.14525059468368
 30
0.0
  0
VERTEX
  5
10E
330
6E
100
AcDbEntity
  8
1_ANYTOOL_1MMDEEP_LABELS_S
100
AcDbVertex
100
AcDb2dVertex
 10
95.60116298508581
 20
-29.07686331789805
 30
0.0
  0
VERTEX
  5
10F
330
6E
100
AcDbEntity
  8
1_ANYTOOL_1MMDEEP_LABELS_S
100
AcDbVertex
100
AcDb2dVertex
 10
95.75258597615723
 20
-29.00529523754098
 30
0.0
  0
VERTEX
  5
110
330
6E
100
AcDbEntity
  8
1_ANYTOOL_1MMDEEP_LABELS_S
100
AcDbVertex
100
AcDb2dVertex
 10
95.90216744937152
 20
-28.9305463536125
 30
0.0
  0
VERTEX
  5
111
330
6E
100
AcDbEntity
  8
1_ANYTOOL_1MMDEEP_LABELS_S
100
AcDbVertex
100
AcDb2dVertex
 10
96.04990740472866
 20
-28.85261666611259
 30
0.0
  0
VERTEX
  5
112
330
6E
100
AcDbEntity
  8
1_ANYTOOL_1MMDEEP_LABELS_S
100
AcDbVertex
100
AcDb2dVertex
 10
96.19580584222865
 20
-28.77150617504125
 30
0.0
  0
VERTEX
  5
113
330
6E
100
AcDbEntity
  8
1_ANYTOOL_1MMDEEP_LABELS_S
100
AcDbVertex
100
AcDb2dVertex
 10
96.3398627618715
 20
-28.68721488039849
 30
0.0
  0
VERTEX
  5
114
330
6E
100
AcDbEntity
  8
1_ANYTOOL_1MMDEEP_LABELS_S
100
AcDbVertex
100
AcDb2dVertex
 10
96.4820781636572
 20
-28.59974278218431
 30
0.0
  0
VERTEX
  5
115
330
6E
100
AcDbEntity
  8
1_ANYTOOL_1MMDEEP_LABELS_S
100
AcDbVertex
100
AcDb2dVertex
 10
96.62245204758577
 20
-28.5090898803987
 30
0.0
  0
VERTEX
  5
116
330
6E
100
AcDbEntity
  8
1_ANYTOOL_1MMDEEP_LABELS_S
100
AcDbVertex
100
AcDb2dVertex
 10
96.76098441365718
 20
-28.41525617504166
 30
0.0
  0
VERTEX
  5
117
330
6E
100
AcDbEntity
  8
1_ANYTOOL_1MMDEEP_LABELS_S
100
AcDbVertex
100
AcDb2dVertex
 10
96.89767526187146
 20
-28.3182416661132
 30
0.0
  0
VERTEX
  5
118
330
6E
100
AcDbEntity
  8
1_ANYTOOL_1MMDEEP_LABELS_S
100
AcDbVertex
100
AcDb2dVertex
 10
97.03252459222858
 20
-28.21804635361332
 30
0.0
  0
VERTEX
  5
119
330
6E
100
AcDbEntity
  8
1_ANYTOOL_1MMDEEP_LABELS_S
100
AcDbVertex
100
AcDb2dVertex
 10
97.29770316365713
 20
-28.01079188932695
 30
0.0
  0
VERTEX
  5
11A
330
6E
100
AcDbEntity
  8
1_ANYTOOL_1MMDEEP_LABELS_S
100
AcDbVertex
100
AcDb2dVertex
 10
97.55752459222853
 20
-27.79617135361207
 30
0.0
  0
VERTEX
  5
11B
330
6E
100
AcDbEntity
  8
1_ANYTOOL_1MMDEEP_LABELS_S
100
AcDbVertex
100
AcDb2dVertex
 10
97.81198887794281
 20
-27.57418474646866
 30
0.0
  0
VERTEX
  5
11C
330
6E
100
AcDbEntity
  8
1_ANYTOOL_1MMDEEP_LABELS_S
100
AcDbVertex
100
AcDb2dVertex
 10
98.06109602079994
 20
-27.34483206789673
 30
0.0
  0
VERTEX
  5
11D
330
6E
100
AcDbEntity
  8
1_ANYTOOL_1MMDEEP_LABELS_S
100
AcDbVertex
100
AcDb2dVertex
 10
98.30484602079994
 20
-27.10811331789628
 30
0.0
  0
VERTEX
  5
11E
330
6E
100
AcDbEntity
  8
1_ANYTOOL_1MMDEEP_LABELS_S
100
AcDbVertex
100
AcDb2dVertex
 10
98.5432388779428
 20
-26.86402849646731
 30
0.0
  0
VERTEX
  5
11F
330
6E
100
AcDbEntity
  8
1_ANYTOOL_1MMDEEP_LABELS_S
100
AcDbVertex
100
AcDb2dVertex
 10
98.77627459222853
 20
-26.61257760360982
 30
0.0
  0
VERTEX
  5
120
330
6E
100
AcDbEntity
  8
1_ANYTOOL_1MMDEEP_LABELS_S
100
AcDbVertex
100
AcDb2dVertex
 10
99.00395316365712
 20
-26.35376063932381
 30
0.0
  0
VERTEX
  5
121
330
6E
100
AcDbEntity
  8
1_ANYTOOL_1MMDEEP_LABELS_S
100
AcDbVertex
100
AcDb2dVertex
 10
99.22627459222858
 20
-26.08757760360928
 30
0.0
  0
VERTEX
  5
122
330
6E
100
AcDbEntity
  8
1_ANYTOOL_1MMDEEP_LABELS_S
100
AcDbVertex
100
AcDb2dVertex
 10
99.44323887794289
 20
-25.81402849646622
 30
0.0
  0
VERTEX
  5
123
330
6E
100
AcDbEntity
  8
1_ANYTOOL_1MMDEEP_LABELS_S
100
AcDbVertex
100
AcDb2dVertex
 10
99.65484602080008
 20
-25.53311331789465
 30
0.0
  0
VERTEX
  5
124
330
6E
100
AcDbEntity
  8
1_ANYTOOL_1MMDEEP_LABELS_S
100
AcDbVertex
100
AcDb2dVertex
 10
99.86109602080012
 20
-25.24483206789455
 30
0.0
  0
VERTEX
  5
125
330
6E
100
AcDbEntity
  8
1_ANYTOOL_1MMDEEP_LABELS_S
100
AcDbVertex
100
AcDb2dVertex
 10
100.061988877943
 20
-24.94918474646593
 30
0.0
  0
VERTEX
  5
126
330
6E
100
AcDbEntity
  8
1_ANYTOOL_1MMDEEP_LABELS_S
100
AcDbVertex
100
AcDb2dVertex
 10
100.2575245922288
 20
-24.64617135360879
 30
0.0
  0
VERTEX
  5
127
330
6E
100
AcDbEntity
  8
1_ANYTOOL_1MMDEEP_LABELS_S
100
AcDbVertex
100
AcDb2dVertex
 10
100.4477031636575
 20
-24.33579188932313
 30
0.0
  0
VERTEX
  5
128
330
6E
100
AcDbEntity
  8
1_ANYTOOL_1MMDEEP_LABELS_S
100
AcDbVertex
100
AcDb2dVertex
 10
100.6325245922289
 20
-24.01804635360895
 30
0.0
  0
SEQEND
  5
129
330
6E
100
AcDbEntity
  8
1_ANYTOOL_1MMDEEP_LABELS_S
  0
POLYLINE
  5
12B
330
1F
100
AcDbEntity
  8
3_ANYTOOL_CUTTHROUGH_INSID
100
AcDb2dPolyline
 66
     1
 10
0.0
 20
0.0
 30
0.0
 70
     1
  0
VERTEX
  5
12C
330
12B
100
AcDbEntity
  8
3_ANYTOOL_CUTTHROUGH_INSID
100
AcDbVertex
100
AcDb2dVertex
 10
-632.8631706590577
 20
-94.69926062942977
 30
0.0
  0
VERTEX
  5
12D
330
12B
100
AcDbEntity
  8
3_ANYTOOL_CUTTHROUGH_INSID
100
AcDbVertex
100
AcDb2dVertex
 10
-683.3631706591004
 20
-94.69926062950253
 30
0.0
  0
VERTEX
  5
12E
330
12B
100
AcDbEntity
  8
3_ANYTOOL_CUTTHROUGH_INSID
100
AcDbVertex
100
AcDb2dVertex
 10
-683.3631706590713
 20
-88.69926062950253
 30
0.0
  0
VERTEX
  5
12F
330
12B
100
AcDbEntity
  8
3_ANYTOOL_CUTTHROUGH_INSID
100
AcDbVertex
100
AcDb2dVertex
 10
-695.8631706590731
 20
-88.69926062950253
 30
0.0
  0
VERTEX
  5
130
330
12B
100
AcDbEntity
  8
3_ANYTOOL_CUTTHROUGH_INSID
100
AcDbVertex
100
AcDb2dVertex
 10
-695.8631706590713
 20
-119.1992606294589
 30
0.0
  0
VERTEX
  5
131
330
12B
100
AcDbEntity
  8
3_ANYTOOL_CUTTHROUGH_INSID
100
AcDbVertex
100
AcDb2dVertex
 10
-683.3631706590777
 20
-119.1992606294662
 30
0.0
  0
VERTEX
  5
132
330
12B
100
AcDbEntity
  8
3_ANYTOOL_CUTTHROUGH_INSID
100
AcDbVertex
100
AcDb2dVertex
 10
-683.3631706590768
 20
-113.1992606294662
 30
0.0
  0
VERTEX
  5
133
330
12B
100
AcDbEntity
  8
3_ANYTOOL_CUTTHROUGH_INSID
100
AcDbVertex
100
AcDb2dVertex
 10
-632.8631706590368
 20
-113.1992606293934
 30
0.0
  0
VERTEX
  5
134
330
12B
100
AcDbEntity
  8
3_ANYTOOL_CUTTHROUGH_INSID
100
AcDbVertex
100
AcDb2dVertex
 10
-632.8631706590377
 20
-119.1992606293934
 30
0.0
  0
VERTEX
  5
135
330
12B
100
AcDbEntity
  8
3_ANYTOOL_CUTTHROUGH_INSID
100
AcDbVertex
100
AcDb2dVertex
 10
-620.3631706590277
 20
-119.1992606294079
 30
0.0
  0
VERTEX
  5
136
330
12B
100
AcDbEntity
  8
3_ANYTOOL_CUTTHROUGH_INSID
100
AcDbVertex
100
AcDb2dVertex
 10
-620.363170659055
 20
-88.6992606294516
 30
0.0
  0
VERTEX
  5
137
330
12B
100
AcDbEntity
  8
3_ANYTOOL_CUTTHROUGH_INSID
100
AcDbVertex
100
AcDb2dVertex
 10
-632.8631706590568
 20
-88.69926062942977
 30
0.0
  0
SEQEND
  5
138
330
12B
100
AcDbEntity
  8
3_ANYTOOL_CUTTHROUGH_INSID
  0
POLYLINE
  5
139
330
1F
100
AcDbEntity
  8
3_ANYTOOL_CUTTHROUGH_INSID
100
AcDb2dPolyline
 66
     1
 10
0.0
 20
0.0
 30
-0.0000000000500933
 70
     1
  0
VERTEX
  5
13A
330
139
100
AcDbEntity
  8
3_ANYTOOL_CUTTHROUGH_INSID
100
AcDbVertex
100
AcDb2dVertex
 10
117.1368291610779
 20
-94.69926062929153
 30
-0.0000000000500933
  0
VERTEX
  5
13B
330
139
100
AcDbEntity
  8
3_ANYTOOL_CUTTHROUGH_INSID
100
AcDbVertex
100
AcDb2dVertex
 10
117.1368291610852
 20
-88.69926062929153
 30
-0.0000000000500933
  0
VERTEX
  5
13C
330
139
100
AcDbEntity
  8
3_ANYTOOL_CUTTHROUGH_INSID
100
AcDbVertex
100
AcDb2dVertex
 10
129.6368291610879
 20
-88.69926062930608
 30
-0.0000000000500933
  0
VERTEX
  5
13D
330
139
100
AcDbEntity
  8
3_ANYTOOL_CUTTHROUGH_INSID
100
AcDbVertex
100
AcDb2dVertex
 10
129.6368291610988
 20
-119.1992606292697
 30
-0.0000000000500933
  0
VERTEX
  5
13E
330
139
100
AcDbEntity
  8
3_ANYTOOL_CUTTHROUGH_INSID
100
AcDbVertex
100
AcDb2dVertex
 10
117.1368291611034
 20
-119.1992606292624
 30
-0.0000000000500933
  0
VERTEX
  5
13F
330
139
100
AcDbEntity
  8
3_ANYTOOL_CUTTHROUGH_INSID
100
AcDbVertex
100
AcDb2dVertex
 10
117.1368291611034
 20
-113.1992606292624
 30
-0.0000000000500933
  0
VERTEX
  5
140
330
139
100
AcDbEntity
  8
3_ANYTOOL_CUTTHROUGH_INSID
100
AcDbVertex
100
AcDb2dVertex
 10
66.63682914251058
 20
-113.1992606291897
 30
-0.0000000000500933
  0
VERTEX
  5
141
330
139
100
AcDbEntity
  8
3_ANYTOOL_CUTTHROUGH_INSID
100
AcDbVertex
100
AcDb2dVertex
 10
66.63682914251058
 20
-119.1992606291897
 30
-0.0000000000500933
  0
VERTEX
  5
142
330
139
100
AcDbEntity
  8
3_ANYTOOL_CUTTHROUGH_INSID
100
AcDbVertex
100
AcDb2dVertex
 10
54.13682914250694
 20
-119.1992606291751
 30
-0.0000000000500933
  0
VERTEX
  5
143
330
139
100
AcDbEntity
  8
3_ANYTOOL_CUTTHROUGH_INSID
100
AcDbVertex
100
AcDb2dVertex
 10
54.13682914250785
 20
-88.69926062921877
 30
-0.0000000000500933
  0
VERTEX
  5
144
330
139
100
AcDbEntity
  8
3_ANYTOOL_CUTTHROUGH_INSID
100
AcDbVertex
100
AcDb2dVertex
 10
66.63682914251149
 20
-88.69926062922605
 30
-0.0000000000500933
  0
VERTEX
  5
145
330
139
100
AcDbEntity
  8
3_ANYTOOL_CUTTHROUGH_INSID
100
AcDbVertex
100
AcDb2dVertex
 10
66.63682914248238
 20
-94.69926062922605
 30
-0.0000000000500933
  0
SEQEND
  5
146
330
139
100
AcDbEntity
  8
3_ANYTOOL_CUTTHROUGH_INSID
  0
POLYLINE
  5
147
330
1F
100
AcDbEntity
  8
3_ANYTOOL_CUTTHROUGH_INSID
100
AcDb2dPolyline
 66
     1
 10
0.0
 20
0.0
 30
-0.000000000072415
 70
     1
  0
VERTEX
  5
148
330
147
100
AcDbEntity
  8
3_ANYTOOL_CUTTHROUGH_INSID
100
AcDbVertex
100
AcDb2dVertex
 10
267.1368291610488
 20
-94.69926062880404
 30
-0.000000000072415
  0
VERTEX
  5
149
330
147
100
AcDbEntity
  8
3_ANYTOOL_CUTTHROUGH_INSID
100
AcDbVertex
100
AcDb2dVertex
 10
267.1368291610834
 20
-88.69926062880404
 30
-0.000000000072415
  0
VERTEX
  5
14A
330
147
100
AcDbEntity
  8
3_ANYTOOL_CUTTHROUGH_INSID
100
AcDbVertex
100
AcDb2dVertex
 10
279.636829161077
 20
-88.69926062881859
 30
-0.000000000072415
  0
VERTEX
  5
14B
330
147
100
AcDbEntity
  8
3_ANYTOOL_CUTTHROUGH_INSID
100
AcDbVertex
100
AcDb2dVertex
 10
279.6368291610725
 20
-119.1992606287749
 30
-0.000000000072415
  0
VERTEX
  5
14C
330
147
100
AcDbEntity
  8
3_ANYTOOL_CUTTHROUGH_INSID
100
AcDbVertex
100
AcDb2dVertex
 10
267.1368291610734
 20
-119.1992606287749
 30
-0.000000000072415
  0
VERTEX
  5
14D
330
147
100
AcDbEntity
  8
3_ANYTOOL_CUTTHROUGH_INSID
100
AcDbVertex
100
AcDb2dVertex
 10
267.1368291611043
 20
-113.1992606287749
 30
-0.000000000072415
  0
VERTEX
  5
14E
330
147
100
AcDbEntity
  8
3_ANYTOOL_CUTTHROUGH_INSID
100
AcDbVertex
100
AcDb2dVertex
 10
216.6368291610906
 20
-113.1992606291315
 30
-0.000000000072415
  0
VERTEX
  5
14F
330
147
100
AcDbEntity
  8
3_ANYTOOL_CUTTHROUGH_INSID
100
AcDbVertex
100
AcDb2dVertex
 10
216.6368291610906
 20
-119.1992606291315
 30
-0.000000000072415
  0
VERTEX
  5
150
330
147
100
AcDbEntity
  8
3_ANYTOOL_CUTTHROUGH_INSID
100
AcDbVertex
100
AcDb2dVertex
 10
204.1368291610952
 20
-119.1992606291315
 30
-0.000000000072415
  0
VERTEX
  5
151
330
147
100
AcDbEntity
  8
3_ANYTOOL_CUTTHROUGH_INSID
100
AcDbVertex
100
AcDb2dVertex
 10
204.1368291610979
 20
-88.69926062916056
 30
-0.000000000072415
  0
VERTEX
  5
152
330
147
100
AcDbEntity
  8
3_ANYTOOL_CUTTHROUGH_INSID
100
AcDbVertex
100
AcDb2dVertex
 10
216.6368291610997
 20
-88.69926062916056
 30
-0.000000000072415
  0
VERTEX
  5
153
330
147
100
AcDbEntity
  8
3_ANYTOOL_CUTTHROUGH_INSID
100
AcDbVertex
100
AcDb2dVertex
 10
216.6368291610634
 20
-94.69926062916056
 30
-0.000000000072415
  0
SEQEND
  5
154
330
147
100
AcDbEntity
  8
3_ANYTOOL_CUTTHROUGH_INSID
  0
POLYLINE
  5
155
330
1F
100
AcDbEntity
  8
3_ANYTOOL_CUTTHROUGH_INSID
100
AcDb2dPolyline
 66
     1
 10
0.0
 20
0.0
 30
-0.0000000000947296
 70
     1
  0
VERTEX
  5
156
330
155
100
AcDbEntity
  8
3_ANYTOOL_CUTTHROUGH_INSID
100
AcDbVertex
100
AcDb2dVertex
 10
417.1368291611006
 20
-94.69926062860759
 30
-0.0000000000947296
  0
VERTEX
  5
157
330
155
100
AcDbEntity
  8
3_ANYTOOL_CUTTHROUGH_INSID
100
AcDbVertex
100
AcDb2dVertex
 10
417.1368291611125
 20
-88.69926062860759
 30
-0.0000000000947296
  0
VERTEX
  5
158
330
155
100
AcDbEntity
  8
3_ANYTOOL_CUTTHROUGH_INSID
100
AcDbVertex
100
AcDb2dVertex
 10
429.6368291611125
 20
-88.69926062862214
 30
-0.0000000000947296
  0
VERTEX
  5
159
330
155
100
AcDbEntity
  8
3_ANYTOOL_CUTTHROUGH_INSID
100
AcDbVertex
100
AcDb2dVertex
 10
429.6368291611234
 20
-119.199260628593
 30
-0.0000000000947296
  0
VERTEX
  5
15A
330
155
100
AcDbEntity
  8
3_ANYTOOL_CUTTHROUGH_INSID
100
AcDbVertex
100
AcDb2dVertex
 10
417.1368291611279
 20
-119.1992606285785
 30
-0.0000000000947296
  0
VERTEX
  5
15B
330
155
100
AcDbEntity
  8
3_ANYTOOL_CUTTHROUGH_INSID
100
AcDbVertex
100
AcDb2dVertex
 10
417.1368291611316
 20
-113.1992606285785
 30
-0.0000000000947296
  0
VERTEX
  5
15C
330
155
100
AcDbEntity
  8
3_ANYTOOL_CUTTHROUGH_INSID
100
AcDbVertex
100
AcDb2dVertex
 10
366.6368291610952
 20
-113.199260628644
 30
-0.0000000000947296
  0
VERTEX
  5
15D
330
155
100
AcDbEntity
  8
3_ANYTOOL_CUTTHROUGH_INSID
100
AcDbVertex
100
AcDb2dVertex
 10
366.6368291610952
 20
-119.199260628644
 30
-0.0000000000947296
  0
VERTEX
  5
15E
330
155
100
AcDbEntity
  8
3_ANYTOOL_CUTTHROUGH_INSID
100
AcDbVertex
100
AcDb2dVertex
 10
354.1368291610906
 20
-119.1992606286294
 30
-0.0000000000947296
  0
VERTEX
  5
15F
330
155
100
AcDbEntity
  8
3_ANYTOOL_CUTTHROUGH_INSID
100
AcDbVertex
100
AcDb2dVertex
 10
354.1368291610988
 20
-88.69926062865852
 30
-0.0000000000947296
  0
VERTEX
  5
160
330
155
100
AcDbEntity
  8
3_ANYTOOL_CUTTHROUGH_INSID
100
AcDbVertex
100
AcDb2dVertex
 10
366.6368291611043
 20
-88.69926062867307
 30
-0.0000000000947296
  0
VERTEX
  5
161
330
155
100
AcDbEntity
  8
3_ANYTOOL_CUTTHROUGH_INSID
100
AcDbVertex
100
AcDb2dVertex
 10
366.6368291610643
 20
-94.69926062867307
 30
-0.0000000000947296
  0
SEQEND
  5
162
330
155
100
AcDbEntity
  8
3_ANYTOOL_CUTTHROUGH_INSID
  0
POLYLINE
  5
163
330
1F
100
AcDbEntity
  8
3_ANYTOOL_CUTTHROUGH_INSID
100
AcDb2dPolyline
 66
     1
 10
0.0
 20
0.0
 30
-0.0000000001220073
 70
     1
  0
VERTEX
  5
164
330
163
100
AcDbEntity
  8
3_ANYTOOL_CUTTHROUGH_INSID
100
AcDbVertex
100
AcDb2dVertex
 10
567.6368291837143
 20
6.88067720507388
 30
-0.0000000001220073
  0
VERTEX
  5
165
330
163
100
AcDbEntity
  8
3_ANYTOOL_CUTTHROUGH_INSID
100
AcDbVertex
100
AcDb2dVertex
 10
567.6368291837143
 20
19.38067720507388
 30
-0.0000000001220073
  0
VERTEX
  5
166
330
163
100
AcDbEntity
  8
3_ANYTOOL_CUTTHROUGH_INSID
100
AcDbVertex
100
AcDb2dVertex
 10
573.6368291837207
 20
19.3806772050666
 30
-0.0000000001220073
  0
VERTEX
  5
167
330
163
100
AcDbEntity
  8
3_ANYTOOL_CUTTHROUGH_INSID
100
AcDbVertex
100
AcDb2dVertex
 10
573.636829183717
 20
64.88067720507388
 30
-0.0000000001220073
  0
VERTEX
  5
168
330
163
100
AcDbEntity
  8
3_ANYTOOL_CUTTHROUGH_INSID
100
AcDbVertex
100
AcDb2dVertex
 10
567.6368291837143
 20
64.88067720507388
 30
-0.0000000001220073
  0
VERTEX
  5
169
330
163
100
AcDbEntity
  8
3_ANYTOOL_CUTTHROUGH_INSID
100
AcDbVertex
100
AcDb2dVertex
 10
567.6368291837143
 20
77.38067720510298
 30
-0.0000000001220073
  0
VERTEX
  5
16A
330
163
100
AcDbEntity
  8
3_ANYTOOL_CUTTHROUGH_INSID
100
AcDbVertex
100
AcDb2dVertex
 10
598.1368291837298
 20
77.38067720511026
 30
-0.0000000001220073
  0
VERTEX
  5
16B
330
163
100
AcDbEntity
  8
3_ANYTOOL_CUTTHROUGH_INSID
100
AcDbVertex
100
AcDb2dVertex
 10
598.1368291837316
 20
64.88067720508116
 30
-0.0000000001220073
  0
VERTEX
  5
16C
330
163
100
AcDbEntity
  8
3_ANYTOOL_CUTTHROUGH_INSID
100
AcDbVertex
100
AcDb2dVertex
 10
592.1368291837289
 20
64.88067720508116
 30
-0.0000000001220073
  0
VERTEX
  5
16D
330
163
100
AcDbEntity
  8
3_ANYTOOL_CUTTHROUGH_INSID
100
AcDbVertex
100
AcDb2dVertex
 10
592.1368291837289
 20
19.38067720508116
 30
-0.0000000001220073
  0
VERTEX
  5
16E
330
163
100
AcDbEntity
  8
3_ANYTOOL_CUTTHROUGH_INSID
100
AcDbVertex
100
AcDb2dVertex
 10
598.1368291837298
 20
19.38067720508116
 30
-0.0000000001220073
  0
VERTEX
  5
16F
330
163
100
AcDbEntity
  8
3_ANYTOOL_CUTTHROUGH_INSID
100
AcDbVertex
100
AcDb2dVertex
 10
598.1368291837298
 20
6.880677205081156
 30
-0.0000000001220073
  0
SEQEND
  5
170
330
163
100
AcDbEntity
  8
3_ANYTOOL_CUTTHROUGH_INSID
  0
POLYLINE
  5
171
330
1F
100
AcDbEntity
  8
3_ANYTOOL_CUTTHROUGH_INSID
100
AcDb2dPolyline
 66
     1
 10
0.0
 20
0.0
 30
0.0
 70
     1
  0
VERTEX
  5
172
330
171
100
AcDbEntity
  8
3_ANYTOOL_CUTTHROUGH_INSID
100
AcDbVertex
100
AcDb2dVertex
 10
-533.3631707160739
 20
-94.69926062868035
 30
0.0
  0
VERTEX
  5
173
330
171
100
AcDbEntity
  8
3_ANYTOOL_CUTTHROUGH_INSID
100
AcDbVertex
100
AcDb2dVertex
 10
-533.363170716073
 20
-88.69926062868763
 30
0.0
  0
VERTEX
  5
174
330
171
100
AcDbEntity
  8
3_ANYTOOL_CUTTHROUGH_INSID
100
AcDbVertex
100
AcDb2dVertex
 10
-545.8631707160694
 20
-88.69926062870945
 30
0.0
  0
VERTEX
  5
175
330
171
100
AcDbEntity
  8
3_ANYTOOL_CUTTHROUGH_INSID
100
AcDbVertex
100
AcDb2dVertex
 10
-545.8631707161012
 20
-119.1992606286658
 30
0.0
  0
VERTEX
  5
176
330
171
100
AcDbEntity
  8
3_ANYTOOL_CUTTHROUGH_INSID
100
AcDbVertex
100
AcDb2dVertex
 10
-533.3631707161076
 20
-119.199260628644
 30
0.0
  0
VERTEX
  5
177
330
171
100
AcDbEntity
  8
3_ANYTOOL_CUTTHROUGH_INSID
100
AcDbVertex
100
AcDb2dVertex
 10
-533.3631707161039
 20
-113.199260628644
 30
0.0
  0
VERTEX
  5
178
330
171
100
AcDbEntity
  8
3_ANYTOOL_CUTTHROUGH_INSID
100
AcDbVertex
100
AcDb2dVertex
 10
-482.8631709716074
 20
-113.1992606286149
 30
0.0
  0
VERTEX
  5
179
330
171
100
AcDbEntity
  8
3_ANYTOOL_CUTTHROUGH_INSID
100
AcDbVertex
100
AcDb2dVertex
 10
-482.8631709716074
 20
-119.1992606286149
 30
0.0
  0
VERTEX
  5
17A
330
171
100
AcDbEntity
  8
3_ANYTOOL_CUTTHROUGH_INSID
100
AcDbVertex
100
AcDb2dVertex
 10
-470.3631709715992
 20
-119.1992606286221
 30
0.0
  0
VERTEX
  5
17B
330
171
100
AcDbEntity
  8
3_ANYTOOL_CUTTHROUGH_INSID
100
AcDbVertex
100
AcDb2dVertex
 10
-470.3631709716328
 20
-88.6992606286658
 30
0.0
  0
VERTEX
  5
17C
330
171
100
AcDbEntity
  8
3_ANYTOOL_CUTTHROUGH_INSID
100
AcDbVertex
100
AcDb2dVertex
 10
-482.8631709716365
 20
-88.69926062865125
 30
0.0
  0
VERTEX
  5
17D
330
171
100
AcDbEntity
  8
3_ANYTOOL_CUTTHROUGH_INSID
100
AcDbVertex
100
AcDb2dVertex
 10
-482.8631709716365
 20
-94.69926062865125
 30
0.0
  0
SEQEND
  5
17E
330
171
100
AcDbEntity
  8
3_ANYTOOL_CUTTHROUGH_INSID
  0
POLYLINE
  5
17F
330
1F
100
AcDbEntity
  8
3_ANYTOOL_CUTTHROUGH_INSID
100
AcDb2dPolyline
 66
     1
 10
0.0
 20
0.0
 30
-0.0000000000260627
 70
     1
  0
VERTEX
  5
180
330
17F
100
AcDbEntity
  8
3_ANYTOOL_CUTTHROUGH_INSID
100
AcDbVertex
100
AcDb2dVertex
 10
-32.86317091454748
 20
-94.69926062921877
 30
-0.0000000000260627
  0
VERTEX
  5
181
330
17F
100
AcDbEntity
  8
3_ANYTOOL_CUTTHROUGH_INSID
100
AcDbVertex
100
AcDb2dVertex
 10
-32.86317091454748
 20
-88.69926062921877
 30
-0.0000000000260627
  0
VERTEX
  5
182
330
17F
100
AcDbEntity
  8
3_ANYTOOL_CUTTHROUGH_INSID
100
AcDbVertex
100
AcDb2dVertex
 10
-20.36317091454475
 20
-88.6992606292406
 30
-0.0000000000260627
  0
VERTEX
  5
183
330
17F
100
AcDbEntity
  8
3_ANYTOOL_CUTTHROUGH_INSID
100
AcDbVertex
100
AcDb2dVertex
 10
-20.36317091451838
 20
-119.1992606291969
 30
-0.0000000000260627
  0
VERTEX
  5
184
330
17F
100
AcDbEntity
  8
3_ANYTOOL_CUTTHROUGH_INSID
100
AcDbVertex
100
AcDb2dVertex
 10
-32.86317091451838
 20
-119.1992606291824
 30
-0.0000000000260627
  0
VERTEX
  5
185
330
17F
100
AcDbEntity
  8
3_ANYTOOL_CUTTHROUGH_INSID
100
AcDbVertex
100
AcDb2dVertex
 10
-32.86317091451838
 20
-113.1992606291824
 30
-0.0000000000260627
  0
VERTEX
  5
186
330
17F
100
AcDbEntity
  8
3_ANYTOOL_CUTTHROUGH_INSID
100
AcDbVertex
100
AcDb2dVertex
 10
-83.36317091456294
 20
-113.1992606292551
 30
-0.0000000000260627
  0
VERTEX
  5
187
330
17F
100
AcDbEntity
  8
3_ANYTOOL_CUTTHROUGH_INSID
100
AcDbVertex
100
AcDb2dVertex
 10
-83.36317091456294
 20
-119.1992606292551
 30
-0.0000000000260627
  0
VERTEX
  5
188
330
17F
100
AcDbEntity
  8
3_ANYTOOL_CUTTHROUGH_INSID
100
AcDbVertex
100
AcDb2dVertex
 10
-95.8631709145593
 20
-119.1992606292479
 30
-0.0000000000260627
  0
VERTEX
  5
189
330
17F
100
AcDbEntity
  8
3_ANYTOOL_CUTTHROUGH_INSID
100
AcDbVertex
100
AcDb2dVertex
 10
-95.86317091455567
 20
-88.69926062929153
 30
-0.0000000000260627
  0
VERTEX
  5
18A
330
17F
100
AcDbEntity
  8
3_ANYTOOL_CUTTHROUGH_INSID
100
AcDbVertex
100
AcDb2dVertex
 10
-83.3631709145584
 20
-88.69926062929153
 30
-0.0000000000260627
  0
VERTEX
  5
18B
330
17F
100
AcDbEntity
  8
3_ANYTOOL_CUTTHROUGH_INSID
100
AcDbVertex
100
AcDb2dVertex
 10
-83.3631709145875
 20
-94.69926062929153
 30
-0.0000000000260627
  0
SEQEND
  5
18C
330
17F
100
AcDbEntity
  8
3_ANYTOOL_CUTTHROUGH_INSID
  0
POLYLINE
  5
18D
330
1F
100
AcDbEntity
  8
3_ANYTOOL_CUTTHROUGH_INSID
100
AcDb2dPolyline
 66
     1
 10
0.0
 20
0.0
 30
-0.0000000000354703
 70
     1
  0
VERTEX
  5
18E
330
18D
100
AcDbEntity
  8
3_ANYTOOL_CUTTHROUGH_INSID
100
AcDbVertex
100
AcDb2dVertex
 10
-383.3631710286427
 20
-94.69926062934974
 30
-0.0000000000354703
  0
VERTEX
  5
18F
330
18D
100
AcDbEntity
  8
3_ANYTOOL_CUTTHROUGH_INSID
100
AcDbVertex
100
AcDb2dVertex
 10
-332.8631710286045
 20
-94.69926062938612
 30
-0.0000000000354703
  0
VERTEX
  5
190
330
18D
100
AcDbEntity
  8
3_ANYTOOL_CUTTHROUGH_INSID
100
AcDbVertex
100
AcDb2dVertex
 10
-332.8631710286336
 20
-88.69926062938612
 30
-0.0000000000354703
  0
VERTEX
  5
191
330
18D
100
AcDbEntity
  8
3_ANYTOOL_CUTTHROUGH_INSID
100
AcDbVertex
100
AcDb2dVertex
 10
-320.3631710286272
 20
-88.69926062937157
 30
-0.0000000000354703
  0
VERTEX
  5
192
330
18D
100
AcDbEntity
  8
3_ANYTOOL_CUTTHROUGH_INSID
100
AcDbVertex
100
AcDb2dVertex
 10
-320.3631710286236
 20
-119.1992606293279
 30
-0.0000000000354703
  0
VERTEX
  5
193
330
18D
100
AcDbEntity
  8
3_ANYTOOL_CUTTHROUGH_INSID
100
AcDbVertex
100
AcDb2dVertex
 10
-332.8631710286327
 20
-119.1992606293425
 30
-0.0000000000354703
  0
VERTEX
  5
194
330
18D
100
AcDbEntity
  8
3_ANYTOOL_CUTTHROUGH_INSID
100
AcDbVertex
100
AcDb2dVertex
 10
-332.8631710286327
 20
-113.1992606293497
 30
-0.0000000000354703
  0
VERTEX
  5
195
330
18D
100
AcDbEntity
  8
3_ANYTOOL_CUTTHROUGH_INSID
100
AcDbVertex
100
AcDb2dVertex
 10
-383.3631710286718
 20
-113.1992606293134
 30
-0.0000000000354703
  0
VERTEX
  5
196
330
18D
100
AcDbEntity
  8
3_ANYTOOL_CUTTHROUGH_INSID
100
AcDbVertex
100
AcDb2dVertex
 10
-383.3631710286718
 20
-119.1992606293134
 30
-0.0000000000354703
  0
VERTEX
  5
197
330
18D
100
AcDbEntity
  8
3_ANYTOOL_CUTTHROUGH_INSID
100
AcDbVertex
100
AcDb2dVertex
 10
-395.8631710286736
 20
-119.1992606293279
 30
-0.0000000000354703
  0
VERTEX
  5
198
330
18D
100
AcDbEntity
  8
3_ANYTOOL_CUTTHROUGH_INSID
100
AcDbVertex
100
AcDb2dVertex
 10
-395.8631710286472
 20
-88.69926062937157
 30
-0.0000000000354703
  0
VERTEX
  5
199
330
18D
100
AcDbEntity
  8
3_ANYTOOL_CUTTHROUGH_INSID
100
AcDbVertex
100
AcDb2dVertex
 10
-383.3631710286427
 20
-88.69926062934974
 30
-0.0000000000354703
  0
SEQEND
  5
19A
330
18D
100
AcDbEntity
  8
3_ANYTOOL_CUTTHROUGH_INSID
  0
POLYLINE
  5
19B
330
1F
100
AcDbEntity
  8
3_ANYTOOL_CUTTHROUGH_INSID
100
AcDb2dPolyline
 66
     1
 10
0.0
 20
0.0
 30
-0.0000000000300808
 70
     1
  0
VERTEX
  5
19C
330
19B
100
AcDbEntity
  8
3_ANYTOOL_CUTTHROUGH_INSID
100
AcDbVertex
100
AcDb2dVertex
 10
-182.8631709716028
 20
-94.69926062793093
 30
-0.0000000000300808
  0
VERTEX
  5
19D
330
19B
100
AcDbEntity
  8
3_ANYTOOL_CUTTHROUGH_INSID
100
AcDbVertex
100
AcDb2dVertex
 10
-182.8631709716028
 20
-88.69926062793093
 30
-0.0000000000300808
  0
VERTEX
  5
19E
330
19B
100
AcDbEntity
  8
3_ANYTOOL_CUTTHROUGH_INSID
100
AcDbVertex
100
AcDb2dVertex
 10
-170.3631709715992
 20
-88.69926062795275
 30
-0.0000000000300808
  0
VERTEX
  5
19F
330
19B
100
AcDbEntity
  8
3_ANYTOOL_CUTTHROUGH_INSID
100
AcDbVertex
100
AcDb2dVertex
 10
-170.3631709715683
 20
-119.1992606279091
 30
-0.0000000000300808
  0
VERTEX
  5
1A0
330
19B
100
AcDbEntity
  8
3_ANYTOOL_CUTTHROUGH_INSID
100
AcDbVertex
100
AcDb2dVertex
 10
-182.8631709715773
 20
-119.1992606278945
 30
-0.0000000000300808
  0
VERTEX
  5
1A1
330
19B
100
AcDbEntity
  8
3_ANYTOOL_CUTTHROUGH_INSID
100
AcDbVertex
100
AcDb2dVertex
 10
-182.8631709715773
 20
-113.1992606278945
 30
-0.0000000000300808
  0
VERTEX
  5
1A2
330
19B
100
AcDbEntity
  8
3_ANYTOOL_CUTTHROUGH_INSID
100
AcDbVertex
100
AcDb2dVertex
 10
-233.3631709716165
 20
-113.1992606279673
 30
-0.0000000000300808
  0
VERTEX
  5
1A3
330
19B
100
AcDbEntity
  8
3_ANYTOOL_CUTTHROUGH_INSID
100
AcDbVertex
100
AcDb2dVertex
 10
-233.3631709716165
 20
-119.1992606279673
 30
-0.0000000000300808
  0
VERTEX
  5
1A4
330
19B
100
AcDbEntity
  8
3_ANYTOOL_CUTTHROUGH_INSID
100
AcDbVertex
100
AcDb2dVertex
 10
-245.8631709716146
 20
-119.1992606279528
 30
-0.0000000000300808
  0
VERTEX
  5
1A5
330
19B
100
AcDbEntity
  8
3_ANYTOOL_CUTTHROUGH_INSID
100
AcDbVertex
100
AcDb2dVertex
 10
-245.8631709716174
 20
-88.69926062799641
 30
-0.0000000000300808
  0
VERTEX
  5
1A6
330
19B
100
AcDbEntity
  8
3_ANYTOOL_CUTTHROUGH_INSID
100
AcDbVertex
100
AcDb2dVertex
 10
-233.3631709716165
 20
-88.69926062800369
 30
-0.0000000000300808
  0
VERTEX
  5
1A7
330
19B
100
AcDbEntity
  8
3_ANYTOOL_CUTTHROUGH_INSID
100
AcDbVertex
100
AcDb2dVertex
 10
-233.3631709716456
 20
-94.69926062800369
 30
-0.0000000000300808
  0
SEQEND
  5
1A8
330
19B
100
AcDbEntity
  8
3_ANYTOOL_CUTTHROUGH_INSID
  0
POLYLINE
  5
1AA
330
1F
100
AcDbEntity
  8
4_ANYTOOL_CUTTHROUGH_OUTSI
100
AcDb2dPolyline
 66
     1
 10
0.0
 20
0.0
 30
0.0
 70
     1
  0
VERTEX
  5
1AB
330
1AA
100
AcDbEntity
  8
4_ANYTOOL_CUTTHROUGH_OUTSI
100
AcDbVertex
100
AcDb2dVertex
 10
-526.3631708437733
 20
196.8007393689113
 30
0.0
  0
VERTEX
  5
1AC
330
1AA
100
AcDbEntity
  8
4_ANYTOOL_CUTTHROUGH_OUTSI
100
AcDbVertex
100
AcDb2dVertex
 10
-538.767608095297
 20
196.8007393689259
 30
0.0
 42
-0.317837245196146
  0
VERTEX
  5
1AD
330
1AA
100
AcDbEntity
  8
4_ANYTOOL_CUTTHROUGH_OUTSI
100
AcDbVertex
100
AcDb2dVertex
 10
-544.6601646051822
 20
200.9674060355756
 30
0.0
 42
0.7071067811846502
  0
VERTEX
  5
1AE
330
1AA
100
AcDbEntity
  8
4_ANYTOOL_CUTTHROUGH_OUTSI
100
AcDbVertex
100
AcDb2dVertex
 10
-566.8161770823654
 20
200.9674060355756
 30
0.0
 42
-0.3178372451951208
  0
VERTEX
  5
1AF
330
1AA
100
AcDbEntity
  8
4_ANYTOOL_CUTTHROUGH_OUTSI
100
AcDbVertex
100
AcDb2dVertex
 10
-572.7087335922515
 20
196.8007393689185
 30
0.0
  0
VERTEX
  5
1B0
330
1AA
100
AcDbEntity
  8
4_ANYTOOL_CUTTHROUGH_OUTSI
100
AcDbVertex
100
AcDb2dVertex
 10
-585.1077334903248
 20
196.8007393689404
 30
0.0
  0
VERTEX
  5
1B1
330
1AA
100
AcDbEntity
  8
4_ANYTOOL_CUTTHROUGH_OUTSI
100
AcDbVertex
100
AcDb2dVertex
 10
-584.8727394813861
 20
195.4058691686482
 30
0.0
  0
VERTEX
  5
1B2
330
1AA
100
AcDbEntity
  8
4_ANYTOOL_CUTTHROUGH_OUTSI
100
AcDbVertex
100
AcDb2dVertex
 10
-567.9772062547136
 20
147.1333269751485
 30
0.0
  0
VERTEX
  5
1B3
330
1AA
100
AcDbEntity
  8
4_ANYTOOL_CUTTHROUGH_OUTSI
100
AcDbVertex
100
AcDb2dVertex
 10
-567.9631708438046
 20
147.0507393689695
 30
0.0
 42
-0.4142135623744798
  0
VERTEX
  5
1B4
330
1AA
100
AcDbEntity
  8
4_ANYTOOL_CUTTHROUGH_OUTSI
100
AcDbVertex
100
AcDb2dVertex
 10
-574.2131708438274
 20
140.8007393689621
 30
0.0
  0
VERTEX
  5
1B5
330
1AA
100
AcDbEntity
  8
4_ANYTOOL_CUTTHROUGH_OUTSI
100
AcDbVertex
100
AcDb2dVertex
 10
-652.2131708437955
 20
140.800739368955
 30
0.0
 42
-0.4142135623735019
  0
VERTEX
  5
1B6
330
1AA
100
AcDbEntity
  8
4_ANYTOOL_CUTTHROUGH_OUTSI
100
AcDbVertex
100
AcDb2dVertex
 10
-658.4631708438246
 20
147.0507393689622
 30
0.0
  0
VERTEX
  5
1B7
330
1AA
100
AcDbEntity
  8
4_ANYTOOL_CUTTHROUGH_OUTSI
100
AcDbVertex
100
AcDb2dVertex
 10
-658.4491354329166
 20
147.1333269751412
 30
0.0
  0
VERTEX
  5
1B8
330
1AA
100
AcDbEntity
  8
4_ANYTOOL_CUTTHROUGH_OUTSI
100
AcDbVertex
100
AcDb2dVertex
 10
-641.5500224384641
 20
195.4169341480156
 30
0.0
  0
VERTEX
  5
1B9
330
1AA
100
AcDbEntity
  8
4_ANYTOOL_CUTTHROUGH_OUTSI
100
AcDbVertex
100
AcDb2dVertex
 10
-641.3186081972672
 20
196.8007393689378
 30
0.0
  0
VERTEX
  5
1BA
330
1AA
100
AcDbEntity
  8
4_ANYTOOL_CUTTHROUGH_OUTSI
100
AcDbVertex
100
AcDb2dVertex
 10
-680.4131708434525
 20
196.800739368904
 30
0.0
  0
VERTEX
  5
1BB
330
1AA
100
AcDbEntity
  8
4_ANYTOOL_CUTTHROUGH_OUTSI
100
AcDbVertex
100
AcDb2dVertex
 10
-680.4131708434579
 20
173.0507393688968
 30
0.0
 42
-0.4142135623824186
  0
VERTEX
  5
1BC
330
1AA
100
AcDbEntity
  8
4_ANYTOOL_CUTTHROUGH_OUTSI
100
AcDbVertex
100
AcDb2dVertex
 10
-680.6631708434579
 20
172.8007393688968
 30
0.0
  0
VERTEX
  5
1BD
330
1AA
100
AcDbEntity
  8
4_ANYTOOL_CUTTHROUGH_OUTSI
100
AcDbVertex
100
AcDb2dVertex
 10
-692.6631708434625
 20
172.8007393688968
 30
0.0
 42
-0.4142135623773101
  0
VERTEX
  5
1BE
330
1AA
100
AcDbEntity
  8
4_ANYTOOL_CUTTHROUGH_OUTSI
100
AcDbVertex
100
AcDb2dVertex
 10
-692.9131708434625
 20
173.0507393688968
 30
0.0
  0
VERTEX
  5
1BF
330
1AA
100
AcDbEntity
  8
4_ANYTOOL_CUTTHROUGH_OUTSI
100
AcDbVertex
100
AcDb2dVertex
 10
-692.9131708434625
 20
178.8007393688968
 30
0.0
  0
VERTEX
  5
1C0
330
1AA
100
AcDbEntity
  8
4_ANYTOOL_CUTTHROUGH_OUTSI
100
AcDbVertex
100
AcDb2dVertex
 10
-728.4131708434652
 20
178.8007393688749
 30
0.0
  0
VERTEX
  5
1C1
330
1AA
100
AcDbEntity
  8
4_ANYTOOL_CUTTHROUGH_OUTSI
100
AcDbVertex
100
AcDb2dVertex
 10
-728.4131708434652
 20
173.0507393688749
 30
0.0
 42
-0.4142135623948818
  0
VERTEX
  5
1C2
330
1AA
100
AcDbEntity
  8
4_ANYTOOL_CUTTHROUGH_OUTSI
100
AcDbVertex
100
AcDb2dVertex
 10
-728.6631708434652
 20
172.8007393688749
 30
0.0
  0
VERTEX
  5
1C3
330
1AA
100
AcDbEntity
  8
4_ANYTOOL_CUTTHROUGH_OUTSI
100
AcDbVertex
100
AcDb2dVertex
 10
-740.6631708434697
 20
172.8007393688749
 30
0.0
 42
-0.4142135623734691
  0
VERTEX
  5
1C4
330
1AA
100
AcDbEntity
  8
4_ANYTOOL_CUTTHROUGH_OUTSI
100
AcDbVertex
100
AcDb2dVertex
 10
-740.9131708434707
 20
173.0507393688749
 30
0.0
  0
VERTEX
  5
1C5
330
1AA
100
AcDbEntity
  8
4_ANYTOOL_CUTTHROUGH_OUTSI
100
AcDbVertex
100
AcDb2dVertex
 10
-740.9131708434606
 20
196.8007393688531
 30
0.0
  0
VERTEX
  5
1C6
330
1AA
100
AcDbEntity
  8
4_ANYTOOL_CUTTHROUGH_OUTSI
100
AcDbVertex
100
AcDb2dVertex
 10
-780.0077334896496
 20
196.8007393688313
 30
0.0
  0
VERTEX
  5
1C7
330
1AA
100
AcDbEntity
  8
4_ANYTOOL_CUTTHROUGH_OUTSI
100
AcDbVertex
100
AcDb2dVertex
 10
-779.7727394806959
 20
195.4058691685105
 30
0.0
  0
VERTEX
  5
1C8
330
1AA
100
AcDbEntity
  8
4_ANYTOOL_CUTTHROUGH_OUTSI
100
AcDbVertex
100
AcDb2dVertex
 10
-762.8772062540193
 20
147.1333269750103
 30
0.0
  0
VERTEX
  5
1C9
330
1AA
100
AcDbEntity
  8
4_ANYTOOL_CUTTHROUGH_OUTSI
100
AcDbVertex
100
AcDb2dVertex
 10
-762.8631708431094
 20
147.0507393688313
 30
0.0
 42
-0.4142135623735212
  0
VERTEX
  5
1CA
330
1AA
100
AcDbEntity
  8
4_ANYTOOL_CUTTHROUGH_OUTSI
100
AcDbVertex
100
AcDb2dVertex
 10
-769.1131708431358
 20
140.8007393688241
 30
0.0
  0
VERTEX
  5
1CB
330
1AA
100
AcDbEntity
  8
4_ANYTOOL_CUTTHROUGH_OUTSI
100
AcDbVertex
100
AcDb2dVertex
 10
-807.8631708589182
 20
140.800739368824
 30
0.0
  0
VERTEX
  5
1CC
330
1AA
100
AcDbEntity
  8
4_ANYTOOL_CUTTHROUGH_OUTSI
100
AcDbVertex
100
AcDb2dVertex
 10
-807.863176414844
 20
51.07427118787018
 30
0.0
 42
-0.411451252067029
  0
VERTEX
  5
1CD
330
1AA
100
AcDbEntity
  8
4_ANYTOOL_CUTTHROUGH_OUTSI
100
AcDbVertex
100
AcDb2dVertex
 10
-814.1129034158221
 20
44.88209993229957
 30
0.0
  0
VERTEX
  5
1CE
330
1AA
100
AcDbEntity
  8
4_ANYTOOL_CUTTHROUGH_OUTSI
100
AcDbVertex
100
AcDb2dVertex
 10
-814.1954916135883
 20
44.89613555026153
 30
0.0
  0
VERTEX
  5
1CF
330
1AA
100
AcDbEntity
  8
4_ANYTOOL_CUTTHROUGH_OUTSI
100
AcDbVertex
100
AcDb2dVertex
 10
-864.1549509153592
 20
62.3820869024712
 30
0.0
 42
0.412073348107776
  0
VERTEX
  5
1D0
330
1AA
100
AcDbEntity
  8
4_ANYTOOL_CUTTHROUGH_OUTSI
100
AcDbVertex
100
AcDb2dVertex
 10
-869.8629034158275
 20
56.63224064298265
 30
0.0
  0
VERTEX
  5
1D1
330
1AA
100
AcDbEntity
  8
4_ANYTOOL_CUTTHROUGH_OUTSI
100
AcDbVertex
100
AcDb2dVertex
 10
-869.8629034158485
 20
-21.36775935701735
 30
0.0
 42
0.4120733481063792
  0
VERTEX
  5
1D2
330
1AA
100
AcDbEntity
  8
4_ANYTOOL_CUTTHROUGH_OUTSI
100
AcDbVertex
100
AcDb2dVertex
 10
-864.154950915361
 20
-27.1176056165059
 30
0.0
  0
VERTEX
  5
1D3
330
1AA
100
AcDbEntity
  8
4_ANYTOOL_CUTTHROUGH_OUTSI
100
AcDbVertex
100
AcDb2dVertex
 10
-814.1954916136028
 20
-9.631654264252575
 30
0.0
  0
VERTEX
  5
1D4
330
1AA
100
AcDbEntity
  8
4_ANYTOOL_CUTTHROUGH_OUTSI
100
AcDbVertex
100
AcDb2dVertex
 10
-814.1129034158366
 20
-9.617618646290794
 30
0.0
 42
-0.4142135623730949
  0
VERTEX
  5
1D5
330
1AA
100
AcDbEntity
  8
4_ANYTOOL_CUTTHROUGH_OUTSI
100
AcDbVertex
100
AcDb2dVertex
 10
-807.8629034158382
 20
-15.8676190690021
 30
0.0
  0
VERTEX
  5
1D6
330
1AA
100
AcDbEntity
  8
4_ANYTOOL_CUTTHROUGH_OUTSI
100
AcDbVertex
100
AcDb2dVertex
 10
-807.8631708435314
 20
-182.6992606309577
 30
0.0
  0
VERTEX
  5
1D7
330
1AA
100
AcDbEntity
  8
4_ANYTOOL_CUTTHROUGH_OUTSI
100
AcDbVertex
100
AcDb2dVertex
 10
709.6368291558947
 20
-182.6992606309868
 30
0.0
  0
VERTEX
  5
1D8
330
1AA
100
AcDbEntity
  8
4_ANYTOOL_CUTTHROUGH_OUTSI
100
AcDbVertex
100
AcDb2dVertex
 10
709.6368291559111
 20
-45.19926063071034
 30
0.0
  0
VERTEX
  5
1D9
330
1AA
100
AcDbEntity
  8
4_ANYTOOL_CUTTHROUGH_OUTSI
100
AcDbVertex
100
AcDb2dVertex
 10
703.8868291559102
 20
-45.19926063068124
 30
0.0
 42
-0.4142135624033838
  0
VERTEX
  5
1DA
330
1AA
100
AcDbEntity
  8
4_ANYTOOL_CUTTHROUGH_OUTSI
100
AcDbVertex
100
AcDb2dVertex
 10
703.6368291559138
 20
-44.94926063068124
 30
0.0
  0
VERTEX
  5
1DB
330
1AA
100
AcDbEntity
  8
4_ANYTOOL_CUTTHROUGH_OUTSI
100
AcDbVertex
100
AcDb2dVertex
 10
703.6368291559111
 20
-32.94926063072489
 30
0.0
 42
-0.4142135623822316
  0
VERTEX
  5
1DC
330
1AA
100
AcDbEntity
  8
4_ANYTOOL_CUTTHROUGH_OUTSI
100
AcDbVertex
100
AcDb2dVertex
 10
703.8868291559102
 20
-32.69926063072498
 30
0.0
  0
VERTEX
  5
1DD
330
1AA
100
AcDbEntity
  8
4_ANYTOOL_CUTTHROUGH_OUTSI
100
AcDbVertex
100
AcDb2dVertex
 10
859.6368291559502
 20
-32.69926063067396
 30
0.0
  0
VERTEX
  5
1DE
330
1AA
100
AcDbEntity
  8
4_ANYTOOL_CUTTHROUGH_OUTSI
100
AcDbVertex
100
AcDb2dVertex
 10
859.6368291559647
 20
39.8007393709122
 30
0.0
  0
VERTEX
  5
1DF
330
1AA
100
AcDbEntity
  8
4_ANYTOOL_CUTTHROUGH_OUTSI
100
AcDbVertex
100
AcDb2dVertex
 10
853.8868291559638
 20
39.8007393709122
 30
0.0
 42
-0.4142135623860359
  0
VERTEX
  5
1E0
330
1AA
100
AcDbEntity
  8
4_ANYTOOL_CUTTHROUGH_OUTSI
100
AcDbVertex
100
AcDb2dVertex
 10
853.6368291559656
 20
40.0507393709122
 30
0.0
  0
VERTEX
  5
1E1
330
1AA
100
AcDbEntity
  8
4_ANYTOOL_CUTTHROUGH_OUTSI
100
AcDbVertex
100
AcDb2dVertex
 10
853.6368291559565
 20
52.0507393709122
 30
0.0
 42
-0.4142135623799834
  0
VERTEX
  5
1E2
330
1AA
100
AcDbEntity
  8
4_ANYTOOL_CUTTHROUGH_OUTSI
100
AcDbVertex
100
AcDb2dVertex
 10
853.8868291559565
 20
52.30073937091219
 30
0.0
  0
VERTEX
  5
1E3
330
1AA
100
AcDbEntity
  8
4_ANYTOOL_CUTTHROUGH_OUTSI
100
AcDbVertex
100
AcDb2dVertex
 10
877.6368291559656
 20
52.30073937092675
 30
0.0
  0
VERTEX
  5
1E4
330
1AA
100
AcDbEntity
  8
4_ANYTOOL_CUTTHROUGH_OUTSI
100
AcDbVertex
100
AcDb2dVertex
 10
877.6368291559729
 20
196.8007393708976
 30
0.0
  0
VERTEX
  5
1E5
330
1AA
100
AcDbEntity
  8
4_ANYTOOL_CUTTHROUGH_OUTSI
100
AcDbVertex
100
AcDb2dVertex
 10
843.886829155992
 20
196.8007393725493
 30
0.0
 42
-0.4142135623541765
  0
VERTEX
  5
1E6
330
1AA
100
AcDbEntity
  8
4_ANYTOOL_CUTTHROUGH_OUTSI
100
AcDbVertex
100
AcDb2dVertex
 10
843.6368291560048
 20
197.0507393725493
 30
0.0
  0
VERTEX
  5
1E7
330
1AA
100
AcDbEntity
  8
4_ANYTOOL_CUTTHROUGH_OUTSI
100
AcDbVertex
100
AcDb2dVertex
 10
843.6368291560048
 20
214.8007393725347
 30
0.0
  0
VERTEX
  5
1E8
330
1AA
100
AcDbEntity
  8
4_ANYTOOL_CUTTHROUGH_OUTSI
100
AcDbVertex
100
AcDb2dVertex
 10
812.0478291560539
 20
214.8007393725493
 30
0.0
  0
VERTEX
  5
1E9
330
1AA
100
AcDbEntity
  8
4_ANYTOOL_CUTTHROUGH_OUTSI
100
AcDbVertex
100
AcDb2dVertex
 10
812.0478291560539
 20
191.0507393727385
 30
0.0
 42
-0.4142135623145221
  0
VERTEX
  5
1EA
330
1AA
100
AcDbEntity
  8
4_ANYTOOL_CUTTHROUGH_OUTSI
100
AcDbVertex
100
AcDb2dVertex
 10
811.7978291560539
 20
190.8007393727456
 30
0.0
  0
VERTEX
  5
1EB
330
1AA
100
AcDbEntity
  8
4_ANYTOOL_CUTTHROUGH_OUTSI
100
AcDbVertex
100
AcDb2dVertex
 10
799.7978291560512
 20
190.8007393727312
 30
0.0
 42
-0.4142135623800171
  0
VERTEX
  5
1EC
330
1AA
100
AcDbEntity
  8
4_ANYTOOL_CUTTHROUGH_OUTSI
100
AcDbVertex
100
AcDb2dVertex
 10
799.547829156053
 20
191.0507393727312
 30
0.0
  0
VERTEX
  5
1ED
330
1AA
100
AcDbEntity
  8
4_ANYTOOL_CUTTHROUGH_OUTSI
100
AcDbVertex
100
AcDb2dVertex
 10
799.5478291560512
 20
196.8007393727894
 30
0.0
  0
VERTEX
  5
1EE
330
1AA
100
AcDbEntity
  8
4_ANYTOOL_CUTTHROUGH_OUTSI
100
AcDbVertex
100
AcDb2dVertex
 10
786.1368291560939
 20
196.8007393728185
 30
0.0
  0
VERTEX
  5
1EF
330
1AA
100
AcDbEntity
  8
4_ANYTOOL_CUTTHROUGH_OUTSI
100
AcDbVertex
100
AcDb2dVertex
 10
786.1368291560939
 20
191.0507393728185
 30
0.0
 42
-0.4142135623848339
  0
VERTEX
  5
1F0
330
1AA
100
AcDbEntity
  8
4_ANYTOOL_CUTTHROUGH_OUTSI
100
AcDbVertex
100
AcDb2dVertex
 10
785.8868291560939
 20
190.8007393728186
 30
0.0
  0
VERTEX
  5
1F1
330
1AA
100
AcDbEntity
  8
4_ANYTOOL_CUTTHROUGH_OUTSI
100
AcDbVertex
100
AcDb2dVertex
 10
773.8868291560912
 20
190.8007393728039
 30
0.0
 42
-0.4142135623757294
  0
VERTEX
  5
1F2
330
1AA
100
AcDbEntity
  8
4_ANYTOOL_CUTTHROUGH_OUTSI
100
AcDbVertex
100
AcDb2dVertex
 10
773.6368291560921
 20
191.0507393728039
 30
0.0
  0
VERTEX
  5
1F3
330
1AA
100
AcDbEntity
  8
4_ANYTOOL_CUTTHROUGH_OUTSI
100
AcDbVertex
100
AcDb2dVertex
 10
773.6368291560893
 20
214.8007393725275
 30
0.0
  0
VERTEX
  5
1F4
330
1AA
100
AcDbEntity
  8
4_ANYTOOL_CUTTHROUGH_OUTSI
100
AcDbVertex
100
AcDb2dVertex
 10
739.1368291561266
 20
214.8007393725202
 30
0.0
  0
VERTEX
  5
1F5
330
1AA
100
AcDbEntity
  8
4_ANYTOOL_CUTTHROUGH_OUTSI
100
AcDbVertex
100
AcDb2dVertex
 10
739.1368291561266
 20
191.0507393725784
 30
0.0
 42
-0.4142135623780696
  0
VERTEX
  5
1F6
330
1AA
100
AcDbEntity
  8
4_ANYTOOL_CUTTHROUGH_OUTSI
100
AcDbVertex
100
AcDb2dVertex
 10
738.8868291561266
 20
190.8007393725712
 30
0.0
  0
VERTEX
  5
1F7
330
1AA
100
AcDbEntity
  8
4_ANYTOOL_CUTTHROUGH_OUTSI
100
AcDbVertex
100
AcDb2dVertex
 10
726.8868291561275
 20
190.8007393725784
 30
0.0
 42
-0.4142135623788202
  0
VERTEX
  5
1F8
330
1AA
100
AcDbEntity
  8
4_ANYTOOL_CUTTHROUGH_OUTSI
100
AcDbVertex
100
AcDb2dVertex
 10
726.6368291561266
 20
191.0507393725784
 30
0.0
  0
VERTEX
  5
1F9
330
1AA
100
AcDbEntity
  8
4_ANYTOOL_CUTTHROUGH_OUTSI
100
AcDbVertex
100
AcDb2dVertex
 10
726.6368291561275
 20
196.8007393723601
 30
0.0
  0
VERTEX
  5
1FA
330
1AA
100
AcDbEntity
  8
4_ANYTOOL_CUTTHROUGH_OUTSI
100
AcDbVertex
100
AcDb2dVertex
 10
710.1368291531944
 20
196.8007393695079
 30
0.0
  0
VERTEX
  5
1FB
330
1AA
100
AcDbEntity
  8
4_ANYTOOL_CUTTHROUGH_OUTSI
100
AcDbVertex
100
AcDb2dVertex
 10
710.1368291551698
 20
94.30073936917324
 30
0.0
  0
VERTEX
  5
1FC
330
1AA
100
AcDbEntity
  8
4_ANYTOOL_CUTTHROUGH_OUTSI
100
AcDbVertex
100
AcDb2dVertex
 10
715.886829155178
 20
94.3007393691878
 30
0.0
 42
-0.4142135623765132
  0
VERTEX
  5
1FD
330
1AA
100
AcDbEntity
  8
4_ANYTOOL_CUTTHROUGH_OUTSI
100
AcDbVertex
100
AcDb2dVertex
 10
716.1368291551789
 20
94.0507393691878
 30
0.0
  0
VERTEX
  5
1FE
330
1AA
100
AcDbEntity
  8
4_ANYTOOL_CUTTHROUGH_OUTSI
100
AcDbVertex
100
AcDb2dVertex
 10
716.136829155188
 20
82.0507393691878
 30
0.0
 42
-0.4142135623775562
  0
VERTEX
  5
1FF
330
1AA
100
AcDbEntity
  8
4_ANYTOOL_CUTTHROUGH_OUTSI
100
AcDbVertex
100
AcDb2dVertex
 10
715.886829155188
 20
81.80073936918785
 30
0.0
  0
VERTEX
  5
200
330
1AA
100
AcDbEntity
  8
4_ANYTOOL_CUTTHROUGH_OUTSI
100
AcDbVertex
100
AcDb2dVertex
 10
685.8868291551835
 20
81.80073936918052
 30
0.0
 42
-0.414213562375471
  0
VERTEX
  5
201
330
1AA
100
AcDbEntity
  8
4_ANYTOOL_CUTTHROUGH_OUTSI
100
AcDbVertex
100
AcDb2dVertex
 10
685.6368291551844
 20
82.05073936918052
 30
0.0
  0
VERTEX
  5
202
330
1AA
100
AcDbEntity
  8
4_ANYTOOL_CUTTHROUGH_OUTSI
100
AcDbVertex
100
AcDb2dVertex
 10
685.6368291551817
 20
94.05073936916597
 30
0.0
 42
-0.4142135623792724
  0
VERTEX
  5
203
330
1AA
100
AcDbEntity
  8
4_ANYTOOL_CUTTHROUGH_OUTSI
100
AcDbVertex
100
AcDb2dVertex
 10
685.8868291551817
 20
94.30073936916611
 30
0.0
  0
VERTEX
  5
204
330
1AA
100
AcDbEntity
  8
4_ANYTOOL_CUTTHROUGH_OUTSI
100
AcDbVertex
100
AcDb2dVertex
 10
691.6368291551826
 20
94.30073936917324
 30
0.0
  0
VERTEX
  5
205
330
1AA
100
AcDbEntity
  8
4_ANYTOOL_CUTTHROUGH_OUTSI
100
AcDbVertex
100
AcDb2dVertex
 10
691.6368291551789
 20
196.8007393691805
 30
0.0
  0
VERTEX
  5
206
330
1AA
100
AcDbEntity
  8
4_ANYTOOL_CUTTHROUGH_OUTSI
100
AcDbVertex
100
AcDb2dVertex
 10
661.2323919038672
 20
196.8007393691369
 30
0.0
 42
-0.31783724520475
  0
VERTEX
  5
207
330
1AA
100
AcDbEntity
  8
4_ANYTOOL_CUTTHROUGH_OUTSI
100
AcDbVertex
100
AcDb2dVertex
 10
655.3398353939818
 20
200.9674060358011
 30
0.0
 42
0.7071067811843827
  0
VERTEX
  5
208
330
1AA
100
AcDbEntity
  8
4_ANYTOOL_CUTTHROUGH_OUTSI
100
AcDbVertex
100
AcDb2dVertex
 10
633.1838229168008
 20
200.9674060358084
 30
0.0
 42
-0.3178372451975323
  0
VERTEX
  5
209
330
1AA
100
AcDbEntity
  8
4_ANYTOOL_CUTTHROUGH_OUTSI
100
AcDbVertex
100
AcDb2dVertex
 10
627.2912664068972
 20
196.8007393691441
 30
0.0
  0
VERTEX
  5
20A
330
1AA
100
AcDbEntity
  8
4_ANYTOOL_CUTTHROUGH_OUTSI
100
AcDbVertex
100
AcDb2dVertex
 10
614.8922665086884
 20
196.8007393691951
 30
0.0
  0
VERTEX
  5
20B
330
1AA
100
AcDbEntity
  8
4_ANYTOOL_CUTTHROUGH_OUTSI
100
AcDbVertex
100
AcDb2dVertex
 10
615.1272605175529
 20
195.4058691689117
 30
0.0
  0
VERTEX
  5
20C
330
1AA
100
AcDbEntity
  8
4_ANYTOOL_CUTTHROUGH_OUTSI
100
AcDbVertex
100
AcDb2dVertex
 10
632.0227937442332
 20
147.133326975425
 30
0.0
  0
VERTEX
  5
20D
330
1AA
100
AcDbEntity
  8
4_ANYTOOL_CUTTHROUGH_OUTSI
100
AcDbVertex
100
AcDb2dVertex
 10
632.0368291551404
 20
147.050739369246
 30
0.0
 42
-0.414213562376835
  0
VERTEX
  5
20E
330
1AA
100
AcDbEntity
  8
4_ANYTOOL_CUTTHROUGH_OUTSI
100
AcDbVertex
100
AcDb2dVertex
 10
625.7868291551322
 20
140.800739369246
 30
0.0
  0
VERTEX
  5
20F
330
1AA
100
AcDbEntity
  8
4_ANYTOOL_CUTTHROUGH_OUTSI
100
AcDbVertex
100
AcDb2dVertex
 10
547.7868291551604
 20
140.8007393692242
 30
0.0
 42
-0.4142135623772134
  0
VERTEX
  5
210
330
1AA
100
AcDbEntity
  8
4_ANYTOOL_CUTTHROUGH_OUTSI
100
AcDbVertex
100
AcDb2dVertex
 10
541.5368291551258
 20
147.0507393692387
 30
0.0
  0
VERTEX
  5
211
330
1AA
100
AcDbEntity
  8
4_ANYTOOL_CUTTHROUGH_OUTSI
100
AcDbVertex
100
AcDb2dVertex
 10
541.5508645660357
 20
147.1333269754177
 30
0.0
  0
VERTEX
  5
212
330
1AA
100
AcDbEntity
  8
4_ANYTOOL_CUTTHROUGH_OUTSI
100
AcDbVertex
100
AcDb2dVertex
 10
558.4499775601635
 20
195.416934147237
 30
0.0
  0
VERTEX
  5
213
330
1AA
100
AcDbEntity
  8
4_ANYTOOL_CUTTHROUGH_OUTSI
100
AcDbVertex
100
AcDb2dVertex
 10
558.6813918016793
 20
196.8007393691892
 30
0.0
  0
VERTEX
  5
214
330
1AA
100
AcDbEntity
  8
4_ANYTOOL_CUTTHROUGH_OUTSI
100
AcDbVertex
100
AcDb2dVertex
 10
519.5868291554871
 20
196.8007393691441
 30
0.0
  0
VERTEX
  5
215
330
1AA
100
AcDbEntity
  8
4_ANYTOOL_CUTTHROUGH_OUTSI
100
AcDbVertex
100
AcDb2dVertex
 10
519.5868291554971
 20
173.0507393691441
 30
0.0
 42
-0.4142135623909624
  0
VERTEX
  5
216
330
1AA
100
AcDbEntity
  8
4_ANYTOOL_CUTTHROUGH_OUTSI
100
AcDbVertex
100
AcDb2dVertex
 10
519.3368291554971
 20
172.8007393691441
 30
0.0
  0
VERTEX
  5
217
330
1AA
100
AcDbEntity
  8
4_ANYTOOL_CUTTHROUGH_OUTSI
100
AcDbVertex
100
AcDb2dVertex
 10
507.3368291554871
 20
172.8007393691296
 30
0.0
 42
-0.4142135623427156
  0
VERTEX
  5
218
330
1AA
100
AcDbEntity
  8
4_ANYTOOL_CUTTHROUGH_OUTSI
100
AcDbVertex
100
AcDb2dVertex
 10
507.0868291554853
 20
173.0507393691296
 30
0.0
  0
VERTEX
  5
219
330
1AA
100
AcDbEntity
  8
4_ANYTOOL_CUTTHROUGH_OUTSI
100
AcDbVertex
100
AcDb2dVertex
 10
507.0868291554889
 20
178.8007393691296
 30
0.0
  0
VERTEX
  5
21A
330
1AA
100
AcDbEntity
  8
4_ANYTOOL_CUTTHROUGH_OUTSI
100
AcDbVertex
100
AcDb2dVertex
 10
471.586829155488
 20
178.8007393691078
 30
0.0
  0
VERTEX
  5
21B
330
1AA
100
AcDbEntity
  8
4_ANYTOOL_CUTTHROUGH_OUTSI
100
AcDbVertex
100
AcDb2dVertex
 10
471.5868291554843
 20
173.0507393691078
 30
0.0
 42
-0.4142135623725054
  0
VERTEX
  5
21C
330
1AA
100
AcDbEntity
  8
4_ANYTOOL_CUTTHROUGH_OUTSI
100
AcDbVertex
100
AcDb2dVertex
 10
471.3368291554843
 20
172.8007393691077
 30
0.0
  0
VERTEX
  5
21D
330
1AA
100
AcDbEntity
  8
4_ANYTOOL_CUTTHROUGH_OUTSI
100
AcDbVertex
100
AcDb2dVertex
 10
459.3368291554852
 20
172.8007393691078
 30
0.0
 42
-0.4142135623500547
  0
VERTEX
  5
21E
330
1AA
100
AcDbEntity
  8
4_ANYTOOL_CUTTHROUGH_OUTSI
100
AcDbVertex
100
AcDb2dVertex
 10
459.0868291554843
 20
173.0507393691078
 30
0.0
  0
VERTEX
  5
21F
330
1AA
100
AcDbEntity
  8
4_ANYTOOL_CUTTHROUGH_OUTSI
100
AcDbVertex
100
AcDb2dVertex
 10
459.0868291554816
 20
196.8007393691078
 30
0.0
  0
VERTEX
  5
220
330
1AA
100
AcDbEntity
  8
4_ANYTOOL_CUTTHROUGH_OUTSI
100
AcDbVertex
100
AcDb2dVertex
 10
419.9922665092945
 20
196.8007393690714
 30
0.0
  0
VERTEX
  5
221
330
1AA
100
AcDbEntity
  8
4_ANYTOOL_CUTTHROUGH_OUTSI
100
AcDbVertex
100
AcDb2dVertex
 10
420.2272605182452
 20
195.4058691687527
 30
0.0
  0
VERTEX
  5
222
330
1AA
100
AcDbEntity
  8
4_ANYTOOL_CUTTHROUGH_OUTSI
100
AcDbVertex
100
AcDb2dVertex
 10
437.1227937449266
 20
147.1333269752722
 30
0.0
  0
VERTEX
  5
223
330
1AA
100
AcDbEntity
  8
4_ANYTOOL_CUTTHROUGH_OUTSI
100
AcDbVertex
100
AcDb2dVertex
 10
437.1368291558347
 20
147.0507393690932
 30
0.0
 42
-0.4142135623766846
  0
VERTEX
  5
224
330
1AA
100
AcDbEntity
  8
4_ANYTOOL_CUTTHROUGH_OUTSI
100
AcDbVertex
100
AcDb2dVertex
 10
430.8868291558165
 20
140.8007393690786
 30
0.0
  0
VERTEX
  5
225
330
1AA
100
AcDbEntity
  8
4_ANYTOOL_CUTTHROUGH_OUTSI
100
AcDbVertex
100
AcDb2dVertex
 10
352.8868291551371
 20
140.8007393690787
 30
0.0
 42
-0.4142135623750918
  0
VERTEX
  5
226
330
1AA
100
AcDbEntity
  8
4_ANYTOOL_CUTTHROUGH_OUTSI
100
AcDbVertex
100
AcDb2dVertex
 10
346.6368291551171
 20
147.0507393690641
 30
0.0
  0
VERTEX
  5
227
330
1AA
100
AcDbEntity
  8
4_ANYTOOL_CUTTHROUGH_OUTSI
100
AcDbVertex
100
AcDb2dVertex
 10
346.650864566026
 20
147.1333269752431
 30
0.0
  0
VERTEX
  5
228
330
1AA
100
AcDbEntity
  8
4_ANYTOOL_CUTTHROUGH_OUTSI
100
AcDbVertex
100
AcDb2dVertex
 10
363.5499775600219
 20
195.4169341467277
 30
0.0
  0
VERTEX
  5
229
330
1AA
100
AcDbEntity
  8
4_ANYTOOL_CUTTHROUGH_OUTSI
100
AcDbVertex
100
AcDb2dVertex
 10
363.7813918016512
 20
196.800739369045
 30
0.0
  0
VERTEX
  5
22A
330
1AA
100
AcDbEntity
  8
4_ANYTOOL_CUTTHROUGH_OUTSI
100
AcDbVertex
100
AcDb2dVertex
 10
324.6868291554647
 20
196.8007393690787
 30
0.0
  0
VERTEX
  5
22B
330
1AA
100
AcDbEntity
  8
4_ANYTOOL_CUTTHROUGH_OUTSI
100
AcDbVertex
100
AcDb2dVertex
 10
324.6868291554792
 20
173.0507393691078
 30
0.0
 42
-0.4142135623570847
  0
VERTEX
  5
22C
330
1AA
100
AcDbEntity
  8
4_ANYTOOL_CUTTHROUGH_OUTSI
100
AcDbVertex
100
AcDb2dVertex
 10
324.4368291554802
 20
172.8007393691078
 30
0.0
  0
VERTEX
  5
22D
330
1AA
100
AcDbEntity
  8
4_ANYTOOL_CUTTHROUGH_OUTSI
100
AcDbVertex
100
AcDb2dVertex
 10
312.4368291554747
 20
172.8007393690859
 30
0.0
 42
-0.4142135623850858
  0
VERTEX
  5
22E
330
1AA
100
AcDbEntity
  8
4_ANYTOOL_CUTTHROUGH_OUTSI
100
AcDbVertex
100
AcDb2dVertex
 10
312.1868291554765
 20
173.0507393690859
 30
0.0
  0
VERTEX
  5
22F
330
1AA
100
AcDbEntity
  8
4_ANYTOOL_CUTTHROUGH_OUTSI
100
AcDbVertex
100
AcDb2dVertex
 10
312.1868291554692
 20
178.8007393690859
 30
0.0
  0
VERTEX
  5
230
330
1AA
100
AcDbEntity
  8
4_ANYTOOL_CUTTHROUGH_OUTSI
100
AcDbVertex
100
AcDb2dVertex
 10
276.6868291554592
 20
178.8007393690714
 30
0.0
  0
VERTEX
  5
231
330
1AA
100
AcDbEntity
  8
4_ANYTOOL_CUTTHROUGH_OUTSI
100
AcDbVertex
100
AcDb2dVertex
 10
276.6868291554647
 20
173.0507393690714
 30
0.0
 42
-0.4142135623899716
  0
VERTEX
  5
232
330
1AA
100
AcDbEntity
  8
4_ANYTOOL_CUTTHROUGH_OUTSI
100
AcDbVertex
100
AcDb2dVertex
 10
276.4368291554647
 20
172.8007393690714
 30
0.0
  0
VERTEX
  5
233
330
1AA
100
AcDbEntity
  8
4_ANYTOOL_CUTTHROUGH_OUTSI
100
AcDbVertex
100
AcDb2dVertex
 10
264.436829155462
 20
172.8007393690859
 30
0.0
 42
-0.4142135623745231
  0
VERTEX
  5
234
330
1AA
100
AcDbEntity
  8
4_ANYTOOL_CUTTHROUGH_OUTSI
100
AcDbVertex
100
AcDb2dVertex
 10
264.1868291554611
 20
173.0507393690859
 30
0.0
  0
VERTEX
  5
235
330
1AA
100
AcDbEntity
  8
4_ANYTOOL_CUTTHROUGH_OUTSI
100
AcDbVertex
100
AcDb2dVertex
 10
264.1868291554611
 20
196.8007393690714
 30
0.0
  0
VERTEX
  5
236
330
1AA
100
AcDbEntity
  8
4_ANYTOOL_CUTTHROUGH_OUTSI
100
AcDbVertex
100
AcDb2dVertex
 10
225.0922665092712
 20
196.8007393691223
 30
0.0
  0
VERTEX
  5
237
330
1AA
100
AcDbEntity
  8
4_ANYTOOL_CUTTHROUGH_OUTSI
100
AcDbVertex
100
AcDb2dVertex
 10
225.3272605182142
 20
195.4058691687921
 30
0.0
  0
VERTEX
  5
238
330
1AA
100
AcDbEntity
  8
4_ANYTOOL_CUTTHROUGH_OUTSI
100
AcDbVertex
100
AcDb2dVertex
 10
242.2227937449143
 20
147.1333269753159
 30
0.0
  0
VERTEX
  5
239
330
1AA
100
AcDbEntity
  8
4_ANYTOOL_CUTTHROUGH_OUTSI
100
AcDbVertex
100
AcDb2dVertex
 10
242.2368291558232
 20
147.0507393691369
 30
0.0
 42
-0.4142135623742865
  0
VERTEX
  5
23A
330
1AA
100
AcDbEntity
  8
4_ANYTOOL_CUTTHROUGH_OUTSI
100
AcDbVertex
100
AcDb2dVertex
 10
235.9868291557923
 20
140.8007393691368
 30
0.0
  0
VERTEX
  5
23B
330
1AA
100
AcDbEntity
  8
4_ANYTOOL_CUTTHROUGH_OUTSI
100
AcDbVertex
100
AcDb2dVertex
 10
157.9868291558223
 20
140.800739369115
 30
0.0
 42
-0.4142135623772201
  0
VERTEX
  5
23C
330
1AA
100
AcDbEntity
  8
4_ANYTOOL_CUTTHROUGH_OUTSI
100
AcDbVertex
100
AcDb2dVertex
 10
151.7368291558105
 20
147.0507393690932
 30
0.0
  0
VERTEX
  5
23D
330
1AA
100
AcDbEntity
  8
4_ANYTOOL_CUTTHROUGH_OUTSI
100
AcDbVertex
100
AcDb2dVertex
 10
151.7508645667185
 20
147.1333269752795
 30
0.0
  0
VERTEX
  5
23E
330
1AA
100
AcDbEntity
  8
4_ANYTOOL_CUTTHROUGH_OUTSI
100
AcDbVertex
100
AcDb2dVertex
 10
168.6499776790679
 20
195.4169341193192
 30
0.0
  0
VERTEX
  5
23F
330
1AA
100
AcDbEntity
  8
4_ANYTOOL_CUTTHROUGH_OUTSI
100
AcDbVertex
100
AcDb2dVertex
 10
168.8814745862334
 20
196.8007393691019
 30
0.0
  0
VERTEX
  5
240
330
1AA
100
AcDbEntity
  8
4_ANYTOOL_CUTTHROUGH_OUTSI
100
AcDbVertex
100
AcDb2dVertex
 10
156.4823919042501
 20
196.8007393690641
 30
0.0
 42
-0.317837245203605
  0
VERTEX
  5
241
330
1AA
100
AcDbEntity
  8
4_ANYTOOL_CUTTHROUGH_OUTSI
100
AcDbVertex
100
AcDb2dVertex
 10
150.5898353943594
 20
200.9674060357211
 30
0.0
 42
0.7071067811846529
  0
VERTEX
  5
242
330
1AA
100
AcDbEntity
  8
4_ANYTOOL_CUTTHROUGH_OUTSI
100
AcDbVertex
100
AcDb2dVertex
 10
128.4338229171762
 20
200.9674060357211
 30
0.0
 42
-0.3178372452008142
  0
VERTEX
  5
243
330
1AA
100
AcDbEntity
  8
4_ANYTOOL_CUTTHROUGH_OUTSI
100
AcDbVertex
100
AcDb2dVertex
 10
122.5412664072855
 20
196.8007393690496
 30
0.0
  0
VERTEX
  5
244
330
1AA
100
AcDbEntity
  8
4_ANYTOOL_CUTTHROUGH_OUTSI
100
AcDbVertex
100
AcDb2dVertex
 10
110.1368291557692
 20
196.800739369035
 30
0.0
  0
VERTEX
  5
245
330
1AA
100
AcDbEntity
  8
4_ANYTOOL_CUTTHROUGH_OUTSI
100
AcDbVertex
100
AcDb2dVertex
 10
110.1368291557674
 20
119.300739369035
 30
0.0
  0
VERTEX
  5
246
330
1AA
100
AcDbEntity
  8
4_ANYTOOL_CUTTHROUGH_OUTSI
100
AcDbVertex
100
AcDb2dVertex
 10
115.8868291557792
 20
119.300739369035
 30
0.0
 42
-0.4142135623834603
  0
VERTEX
  5
247
330
1AA
100
AcDbEntity
  8
4_ANYTOOL_CUTTHROUGH_OUTSI
100
AcDbVertex
100
AcDb2dVertex
 10
116.1368291557774
 20
119.050739369035
 30
0.0
  0
VERTEX
  5
248
330
1AA
100
AcDbEntity
  8
4_ANYTOOL_CUTTHROUGH_OUTSI
100
AcDbVertex
100
AcDb2dVertex
 10
116.1368291557737
 20
107.050739369035
 30
0.0
 42
-0.4142135376113558
  0
VERTEX
  5
249
330
1AA
100
AcDbEntity
  8
4_ANYTOOL_CUTTHROUGH_OUTSI
100
AcDbVertex
100
AcDb2dVertex
 10
115.8868291769068
 20
106.800739369035
 30
0.0
  0
VERTEX
  5
24A
330
1AA
100
AcDbEntity
  8
4_ANYTOOL_CUTTHROUGH_OUTSI
100
AcDbVertex
100
AcDb2dVertex
 10
67.88682917759888
 20
106.8007353115463
 30
0.0
 42
-0.4142135871020668
  0
VERTEX
  5
24B
330
1AA
100
AcDbEntity
  8
4_ANYTOOL_CUTTHROUGH_OUTSI
100
AcDbVertex
100
AcDb2dVertex
 10
67.63682915646677
 20
107.0507353115463
 30
0.0
  0
VERTEX
  5
24C
330
1AA
100
AcDbEntity
  8
4_ANYTOOL_CUTTHROUGH_OUTSI
100
AcDbVertex
100
AcDb2dVertex
 10
67.63682915649497
 20
119.0507353115536
 30
0.0
 42
-0.4142135623609617
  0
VERTEX
  5
24D
330
1AA
100
AcDbEntity
  8
4_ANYTOOL_CUTTHROUGH_OUTSI
100
AcDbVertex
100
AcDb2dVertex
 10
67.88682915649588
 20
119.3007353115536
 30
0.0
  0
VERTEX
  5
24E
330
1AA
100
AcDbEntity
  8
4_ANYTOOL_CUTTHROUGH_OUTSI
100
AcDbVertex
100
AcDb2dVertex
 10
73.63682915650043
 20
119.300735311539
 30
0.0
  0
VERTEX
  5
24F
330
1AA
100
AcDbEntity
  8
4_ANYTOOL_CUTTHROUGH_OUTSI
100
AcDbVertex
100
AcDb2dVertex
 10
73.63682915552636
 20
196.8007393691587
 30
0.0
  0
VERTEX
  5
250
330
1AA
100
AcDbEntity
  8
4_ANYTOOL_CUTTHROUGH_OUTSI
100
AcDbVertex
100
AcDb2dVertex
 10
61.23239190400363
 20
196.800739369166
 30
0.0
 42
-0.3178372451971411
  0
VERTEX
  5
251
330
1AA
100
AcDbEntity
  8
4_ANYTOOL_CUTTHROUGH_OUTSI
100
AcDbVertex
100
AcDb2dVertex
 10
55.3398353941193
 20
200.9674060358302
 30
0.0
 42
0.7071067811847744
  0
VERTEX
  5
252
330
1AA
100
AcDbEntity
  8
4_ANYTOOL_CUTTHROUGH_OUTSI
100
AcDbVertex
100
AcDb2dVertex
 10
33.18382291692977
 20
200.967406035823
 30
0.0
 42
-0.3178372451970018
  0
VERTEX
  5
253
330
1AA
100
AcDbEntity
  8
4_ANYTOOL_CUTTHROUGH_OUTSI
100
AcDbVertex
100
AcDb2dVertex
 10
27.29126640704453
 20
196.800739369166
 30
0.0
  0
VERTEX
  5
254
330
1AA
100
AcDbEntity
  8
4_ANYTOOL_CUTTHROUGH_OUTSI
100
AcDbVertex
100
AcDb2dVertex
 10
14.89226650895125
 20
196.8007393691878
 30
0.0
  0
VERTEX
  5
255
330
1AA
100
AcDbEntity
  8
4_ANYTOOL_CUTTHROUGH_OUTSI
100
AcDbVertex
100
AcDb2dVertex
 10
15.12726051790394
 20
195.405869168866
 30
0.0
  0
VERTEX
  5
256
330
1AA
100
AcDbEntity
  8
4_ANYTOOL_CUTTHROUGH_OUTSI
100
AcDbVertex
100
AcDb2dVertex
 10
32.02279374457339
 20
147.1333269753741
 30
0.0
  0
VERTEX
  5
257
330
1AA
100
AcDbEntity
  8
4_ANYTOOL_CUTTHROUGH_OUTSI
100
AcDbVertex
100
AcDb2dVertex
 10
32.03682915548052
 20
147.0507393691951
 30
0.0
 42
-0.4142135623749747
  0
VERTEX
  5
258
330
1AA
100
AcDbEntity
  8
4_ANYTOOL_CUTTHROUGH_OUTSI
100
AcDbVertex
100
AcDb2dVertex
 10
25.78682915546597
 20
140.8007393691878
 30
0.0
  0
VERTEX
  5
259
330
1AA
100
AcDbEntity
  8
4_ANYTOOL_CUTTHROUGH_OUTSI
100
AcDbVertex
100
AcDb2dVertex
 10
-52.21317084450493
 20
140.800739369166
 30
0.0
 42
-0.4142135623732683
  0
VERTEX
  5
25A
330
1AA
100
AcDbEntity
  8
4_ANYTOOL_CUTTHROUGH_OUTSI
100
AcDbVertex
100
AcDb2dVertex
 10
-58.46317084453676
 20
147.0507393691805
 30
0.0
  0
VERTEX
  5
25B
330
1AA
100
AcDbEntity
  8
4_ANYTOOL_CUTTHROUGH_OUTSI
100
AcDbVertex
100
AcDb2dVertex
 10
-58.44913543362782
 20
147.1333269753595
 30
0.0
  0
VERTEX
  5
25C
330
1AA
100
AcDbEntity
  8
4_ANYTOOL_CUTTHROUGH_OUTSI
100
AcDbVertex
100
AcDb2dVertex
 10
-41.55002243949821
 20
195.4169341471861
 30
0.0
  0
VERTEX
  5
25D
330
1AA
100
AcDbEntity
  8
4_ANYTOOL_CUTTHROUGH_OUTSI
100
AcDbVertex
100
AcDb2dVertex
 10
-41.31860819797662
 20
196.8007393691643
 30
0.0
  0
VERTEX
  5
25E
330
1AA
100
AcDbEntity
  8
4_ANYTOOL_CUTTHROUGH_OUTSI
100
AcDbVertex
100
AcDb2dVertex
 10
-80.41317084416733
 20
196.8007393691005
 30
0.0
  0
VERTEX
  5
25F
330
1AA
100
AcDbEntity
  8
4_ANYTOOL_CUTTHROUGH_OUTSI
100
AcDbVertex
100
AcDb2dVertex
 10
-80.41317084416642
 20
173.0507393690932
 30
0.0
 42
-0.4142135623759371
  0
VERTEX
  5
260
330
1AA
100
AcDbEntity
  8
4_ANYTOOL_CUTTHROUGH_OUTSI
100
AcDbVertex
100
AcDb2dVertex
 10
-80.66317084416642
 20
172.8007393690932
 30
0.0
  0
VERTEX
  5
261
330
1AA
100
AcDbEntity
  8
4_ANYTOOL_CUTTHROUGH_OUTSI
100
AcDbVertex
100
AcDb2dVertex
 10
-92.66317084416823
 20
172.8007393690932
 30
0.0
 42
-0.4142135623867151
  0
VERTEX
  5
262
330
1AA
100
AcDbEntity
  8
4_ANYTOOL_CUTTHROUGH_OUTSI
100
AcDbVertex
100
AcDb2dVertex
 10
-92.91317084416914
 20
173.0507393690932
 30
0.0
  0
VERTEX
  5
263
330
1AA
100
AcDbEntity
  8
4_ANYTOOL_CUTTHROUGH_OUTSI
100
AcDbVertex
100
AcDb2dVertex
 10
-92.91317084416823
 20
178.8007393690932
 30
0.0
  0
VERTEX
  5
264
330
1AA
100
AcDbEntity
  8
4_ANYTOOL_CUTTHROUGH_OUTSI
100
AcDbVertex
100
AcDb2dVertex
 10
-128.4131708441782
 20
178.8007393690787
 30
0.0
  0
VERTEX
  5
265
330
1AA
100
AcDbEntity
  8
4_ANYTOOL_CUTTHROUGH_OUTSI
100
AcDbVertex
100
AcDb2dVertex
 10
-128.4131708441746
 20
173.0507393690787
 30
0.0
 42
-0.4142135623725054
  0
VERTEX
  5
266
330
1AA
100
AcDbEntity
  8
4_ANYTOOL_CUTTHROUGH_OUTSI
100
AcDbVertex
100
AcDb2dVertex
 10
-128.6631708441746
 20
172.8007393690786
 30
0.0
  0
VERTEX
  5
267
330
1AA
100
AcDbEntity
  8
4_ANYTOOL_CUTTHROUGH_OUTSI
100
AcDbVertex
100
AcDb2dVertex
 10
-140.6631708441819
 20
172.8007393690787
 30
0.0
 42
-0.4142135623727288
  0
VERTEX
  5
268
330
1AA
100
AcDbEntity
  8
4_ANYTOOL_CUTTHROUGH_OUTSI
100
AcDbVertex
100
AcDb2dVertex
 10
-140.9131708441819
 20
173.0507393690787
 30
0.0
  0
VERTEX
  5
269
330
1AA
100
AcDbEntity
  8
4_ANYTOOL_CUTTHROUGH_OUTSI
100
AcDbVertex
100
AcDb2dVertex
 10
-140.9131708441801
 20
196.8007393690714
 30
0.0
  0
VERTEX
  5
26A
330
1AA
100
AcDbEntity
  8
4_ANYTOOL_CUTTHROUGH_OUTSI
100
AcDbVertex
100
AcDb2dVertex
 10
-180.0077334903663
 20
196.8007393690132
 30
0.0
  0
VERTEX
  5
26B
330
1AA
100
AcDbEntity
  8
4_ANYTOOL_CUTTHROUGH_OUTSI
100
AcDbVertex
100
AcDb2dVertex
 10
-179.7727394814158
 20
195.4058691686913
 30
0.0
  0
VERTEX
  5
26C
330
1AA
100
AcDbEntity
  8
4_ANYTOOL_CUTTHROUGH_OUTSI
100
AcDbVertex
100
AcDb2dVertex
 10
-162.8772062547359
 20
147.1333269752067
 30
0.0
  0
VERTEX
  5
26D
330
1AA
100
AcDbEntity
  8
4_ANYTOOL_CUTTHROUGH_OUTSI
100
AcDbVertex
100
AcDb2dVertex
 10
-162.8631708438279
 20
147.0507393690277
 30
0.0
 42
-0.4142135623738523
  0
VERTEX
  5
26E
330
1AA
100
AcDbEntity
  8
4_ANYTOOL_CUTTHROUGH_OUTSI
100
AcDbVertex
100
AcDb2dVertex
 10
-169.1131708438434
 20
140.8007393690204
 30
0.0
  0
VERTEX
  5
26F
330
1AA
100
AcDbEntity
  8
4_ANYTOOL_CUTTHROUGH_OUTSI
100
AcDbVertex
100
AcDb2dVertex
 10
-247.1131708445246
 20
140.8007393689913
 30
0.0
 42
-0.4142135623766746
  0
VERTEX
  5
270
330
1AA
100
AcDbEntity
  8
4_ANYTOOL_CUTTHROUGH_OUTSI
100
AcDbVertex
100
AcDb2dVertex
 10
-253.3631708445519
 20
147.0507393689913
 30
0.0
  0
VERTEX
  5
271
330
1AA
100
AcDbEntity
  8
4_ANYTOOL_CUTTHROUGH_OUTSI
100
AcDbVertex
100
AcDb2dVertex
 10
-253.3491354336493
 20
147.1333269751703
 30
0.0
  0
VERTEX
  5
272
330
1AA
100
AcDbEntity
  8
4_ANYTOOL_CUTTHROUGH_OUTSI
100
AcDbVertex
100
AcDb2dVertex
 10
-236.4500224392204
 20
195.416934148052
 30
0.0
  0
VERTEX
  5
273
330
1AA
100
AcDbEntity
  8
4_ANYTOOL_CUTTHROUGH_OUTSI
100
AcDbVertex
100
AcDb2dVertex
 10
-236.2186081980101
 20
196.8007393690019
 30
0.0
  0
VERTEX
  5
274
330
1AA
100
AcDbEntity
  8
4_ANYTOOL_CUTTHROUGH_OUTSI
100
AcDbVertex
100
AcDb2dVertex
 10
-275.3131708441988
 20
196.8007393690132
 30
0.0
  0
VERTEX
  5
275
330
1AA
100
AcDbEntity
  8
4_ANYTOOL_CUTTHROUGH_OUTSI
100
AcDbVertex
100
AcDb2dVertex
 10
-275.3131708441906
 20
173.050739369035
 30
0.0
 42
-0.414213562379917
  0
VERTEX
  5
276
330
1AA
100
AcDbEntity
  8
4_ANYTOOL_CUTTHROUGH_OUTSI
100
AcDbVertex
100
AcDb2dVertex
 10
-275.5631708441906
 20
172.800739369035
 30
0.0
  0
VERTEX
  5
277
330
1AA
100
AcDbEntity
  8
4_ANYTOOL_CUTTHROUGH_OUTSI
100
AcDbVertex
100
AcDb2dVertex
 10
-287.5631708441952
 20
172.800739369035
 30
0.0
 42
-0.4142135623791844
  0
VERTEX
  5
278
330
1AA
100
AcDbEntity
  8
4_ANYTOOL_CUTTHROUGH_OUTSI
100
AcDbVertex
100
AcDb2dVertex
 10
-287.8131708441924
 20
173.050739369035
 30
0.0
  0
VERTEX
  5
279
330
1AA
100
AcDbEntity
  8
4_ANYTOOL_CUTTHROUGH_OUTSI
100
AcDbVertex
100
AcDb2dVertex
 10
-287.8131708441952
 20
178.8007393690204
 30
0.0
  0
VERTEX
  5
27A
330
1AA
100
AcDbEntity
  8
4_ANYTOOL_CUTTHROUGH_OUTSI
100
AcDbVertex
100
AcDb2dVertex
 10
-323.3131708441979
 20
178.8007393690132
 30
0.0
  0
VERTEX
  5
27B
330
1AA
100
AcDbEntity
  8
4_ANYTOOL_CUTTHROUGH_OUTSI
100
AcDbVertex
100
AcDb2dVertex
 10
-323.3131708441979
 20
173.0507393690132
 30
0.0
 42
-0.4142135623541808
  0
VERTEX
  5
27C
330
1AA
100
AcDbEntity
  8
4_ANYTOOL_CUTTHROUGH_OUTSI
100
AcDbVertex
100
AcDb2dVertex
 10
-323.5631708441979
 20
172.8007393690204
 30
0.0
  0
VERTEX
  5
27D
330
1AA
100
AcDbEntity
  8
4_ANYTOOL_CUTTHROUGH_OUTSI
100
AcDbVertex
100
AcDb2dVertex
 10
-335.5631708442052
 20
172.8007393690132
 30
0.0
 42
-0.4142135623621187
  0
VERTEX
  5
27E
330
1AA
100
AcDbEntity
  8
4_ANYTOOL_CUTTHROUGH_OUTSI
100
AcDbVertex
100
AcDb2dVertex
 10
-335.813170844207
 20
173.0507393690132
 30
0.0
  0
VERTEX
  5
27F
330
1AA
100
AcDbEntity
  8
4_ANYTOOL_CUTTHROUGH_OUTSI
100
AcDbVertex
100
AcDb2dVertex
 10
-335.8131708442043
 20
196.8007393690204
 30
0.0
  0
VERTEX
  5
280
330
1AA
100
AcDbEntity
  8
4_ANYTOOL_CUTTHROUGH_OUTSI
100
AcDbVertex
100
AcDb2dVertex
 10
-374.9077334903941
 20
196.8007393690277
 30
0.0
  0
VERTEX
  5
281
330
1AA
100
AcDbEntity
  8
4_ANYTOOL_CUTTHROUGH_OUTSI
100
AcDbVertex
100
AcDb2dVertex
 10
-374.6727394814513
 20
195.4058691687277
 30
0.0
  0
VERTEX
  5
282
330
1AA
100
AcDbEntity
  8
4_ANYTOOL_CUTTHROUGH_OUTSI
100
AcDbVertex
100
AcDb2dVertex
 10
-357.7772062547501
 20
147.1333269752431
 30
0.0
  0
VERTEX
  5
283
330
1AA
100
AcDbEntity
  8
4_ANYTOOL_CUTTHROUGH_OUTSI
100
AcDbVertex
100
AcDb2dVertex
 10
-357.7631708438421
 20
147.0507393690641
 30
0.0
 42
-0.4142135623749683
  0
VERTEX
  5
284
330
1AA
100
AcDbEntity
  8
4_ANYTOOL_CUTTHROUGH_OUTSI
100
AcDbVertex
100
AcDb2dVertex
 10
-364.013170843873
 20
140.8007393690496
 30
0.0
  0
VERTEX
  5
285
330
1AA
100
AcDbEntity
  8
4_ANYTOOL_CUTTHROUGH_OUTSI
100
AcDbVertex
100
AcDb2dVertex
 10
-442.013170843843
 20
140.8007393690277
 30
0.0
 42
-0.4142135623788056
  0
VERTEX
  5
286
330
1AA
100
AcDbEntity
  8
4_ANYTOOL_CUTTHROUGH_OUTSI
100
AcDbVertex
100
AcDb2dVertex
 10
-448.2631708438612
 20
147.0507393690204
 30
0.0
  0
VERTEX
  5
287
330
1AA
100
AcDbEntity
  8
4_ANYTOOL_CUTTHROUGH_OUTSI
100
AcDbVertex
100
AcDb2dVertex
 10
-448.249135432955
 20
147.1333269751995
 30
0.0
  0
VERTEX
  5
288
330
1AA
100
AcDbEntity
  8
4_ANYTOOL_CUTTHROUGH_OUTSI
100
AcDbVertex
100
AcDb2dVertex
 10
-431.3500224385398
 20
195.4169341480883
 30
0.0
  0
VERTEX
  5
289
330
1AA
100
AcDbEntity
  8
4_ANYTOOL_CUTTHROUGH_OUTSI
100
AcDbVertex
100
AcDb2dVertex
 10
-431.1186081974175
 20
196.8007393690664
 30
0.0
  0
VERTEX
  5
28A
330
1AA
100
AcDbEntity
  8
4_ANYTOOL_CUTTHROUGH_OUTSI
100
AcDbVertex
100
AcDb2dVertex
 10
-443.5176080956289
 20
196.8007393690932
 30
0.0
 42
-0.3178372452004016
  0
VERTEX
  5
28B
330
1AA
100
AcDbEntity
  8
4_ANYTOOL_CUTTHROUGH_OUTSI
100
AcDbVertex
100
AcDb2dVertex
 10
-449.4101646055332
 20
200.9674060357429
 30
0.0
 42
0.7071067811850025
  0
VERTEX
  5
28C
330
1AA
100
AcDbEntity
  8
4_ANYTOOL_CUTTHROUGH_OUTSI
100
AcDbVertex
100
AcDb2dVertex
 10
-471.5661770827155
 20
200.9674060357356
 30
0.0
 42
-0.3178372452003735
  0
VERTEX
  5
28D
330
1AA
100
AcDbEntity
  8
4_ANYTOOL_CUTTHROUGH_OUTSI
100
AcDbVertex
100
AcDb2dVertex
 10
-477.4587335926008
 20
196.8007393690714
 30
0.0
  0
VERTEX
  5
28E
330
1AA
100
AcDbEntity
  8
4_ANYTOOL_CUTTHROUGH_OUTSI
100
AcDbVertex
100
AcDb2dVertex
 10
-489.863170844098
 20
196.8007393690277
 30
0.0
  0
VERTEX
  5
28F
330
1AA
100
AcDbEntity
  8
4_ANYTOOL_CUTTHROUGH_OUTSI
100
AcDbVertex
100
AcDb2dVertex
 10
-489.8631708448602
 20
119.3007353113353
 30
0.0
  0
VERTEX
  5
290
330
1AA
100
AcDbEntity
  8
4_ANYTOOL_CUTTHROUGH_OUTSI
100
AcDbVertex
100
AcDb2dVertex
 10
-484.1131708448574
 20
119.3007353113499
 30
0.0
 42
-0.4142135623756745
  0
VERTEX
  5
291
330
1AA
100
AcDbEntity
  8
4_ANYTOOL_CUTTHROUGH_OUTSI
100
AcDbVertex
100
AcDb2dVertex
 10
-483.8631708448584
 20
119.0507353113499
 30
0.0
  0
VERTEX
  5
292
330
1AA
100
AcDbEntity
  8
4_ANYTOOL_CUTTHROUGH_OUTSI
100
AcDbVertex
100
AcDb2dVertex
 10
-483.8631708448274
 20
107.0507353113426
 30
0.0
 42
-0.4142135623756931
  0
VERTEX
  5
293
330
1AA
100
AcDbEntity
  8
4_ANYTOOL_CUTTHROUGH_OUTSI
100
AcDbVertex
100
AcDb2dVertex
 10
-484.1131708448274
 20
106.8007353113353
 30
0.0
  0
VERTEX
  5
294
330
1AA
100
AcDbEntity
  8
4_ANYTOOL_CUTTHROUGH_OUTSI
100
AcDbVertex
100
AcDb2dVertex
 10
-532.1131708428502
 20
106.8007353113135
 30
0.0
 42
-0.4142135623924137
  0
VERTEX
  5
295
330
1AA
100
AcDbEntity
  8
4_ANYTOOL_CUTTHROUGH_OUTSI
100
AcDbVertex
100
AcDb2dVertex
 10
-532.3631708428493
 20
107.0507353113135
 30
0.0
  0
VERTEX
  5
296
330
1AA
100
AcDbEntity
  8
4_ANYTOOL_CUTTHROUGH_OUTSI
100
AcDbVertex
100
AcDb2dVertex
 10
-532.3631708428202
 20
119.0507353113135
 30
0.0
 42
-0.4142135623766527
  0
VERTEX
  5
297
330
1AA
100
AcDbEntity
  8
4_ANYTOOL_CUTTHROUGH_OUTSI
100
AcDbVertex
100
AcDb2dVertex
 10
-532.1131708428193
 20
119.3007353113062
 30
0.0
  0
VERTEX
  5
298
330
1AA
100
AcDbEntity
  8
4_ANYTOOL_CUTTHROUGH_OUTSI
100
AcDbVertex
100
AcDb2dVertex
 10
-526.3631708428175
 20
119.3007353112989
 30
0.0
  0
SEQEND
  5
299
330
1AA
100
AcDbEntity
  8
4_ANYTOOL_CUTTHROUGH_OUTSI
  0
ENDSEC
  0
SECTION
  2
OBJECTS
  0
DICTIONARY
  5
C
330
0
100
AcDbDictionary
  3
ACAD_GROUP
350
D
  3
ACAD_LAYOUT
350
1A
  3
ACAD_MATERIAL
350
43
  3
ACAD_MLEADERSTYLE
350
5B
  3
ACAD_MLINESTYLE
350
17
  3
ACAD_PLOTSETTINGS
350
19
  3
ACAD_SCALELIST
350
47
  3
ACAD_VISUALSTYLE
350
2A
  3
ACDBHEADERROUNDTRIPXREC
350
29A
  3
ACDBVARIABLEDICTIONARY
350
2BB
  3
DWGPROPS
350
2C2
  0
DICTIONARY
  5
2C3
330
8
100
AcDbDictionary
280
     1
  3
ACAD_XREC_ROUNDTRIP
360
2C4
  0
DICTIONARY
  5
D
102
{ACAD_REACTORS
330
C
102
}
330
C
100
AcDbDictionary
  0
DICTIONARY
  5
1A
102
{ACAD_REACTORS
330
C
102
}
330
C
100
AcDbDictionary
  0
DICTIONARY
  5
43
102
{ACAD_REACTORS
330
C
102
}
330
C
100
AcDbDictionary
  3
BYBLOCK
350
45
  3
BYLAYER
350
44
  3
GLOBAL
350
46
  0
DICTIONARY
  5
5B
102
{ACAD_REACTORS
330
C
102
}
330
C
100
AcDbDictionary
  3
STANDARD
350
5C
  0
DICTIONARY
  5
17
102
{ACAD_REACTORS
330
C
102
}
330
C
100
AcDbDictionary
  3
STANDARD
350
18
  0
DICTIONARY
  5
19
102
{ACAD_REACTORS
330
C
102
}
330
C
100
AcDbDictionary
  0
DICTIONARY
  5
47
102
{ACAD_REACTORS
330
C
102
}
330
C
100
AcDbDictionary
  3
A0
350
48
  3
A1
350
49
  3
A2
350
4A
  3
A3
350
4B
  3
A4
350
4C
  3
A5
350
4D
  3
A6
350
4E
  3
A7
350
4F
  3
A8
350
50
  3
A9
350
51
  3
B1
350
52
  3
B2
350
53
  3
B3
350
54
  3
B4
350
55
  3
B5
350
56
  3
B6
350
57
  3
B7
350
58
  0
DICTIONARY
  5
2A
102
{ACAD_REACTORS
330
C
102
}
330
C
100
AcDbDictionary
  3
2DWIREFRAME
350
2F
  3
BASIC
350
32
  3
BRIGHTEN
350
36
  3
COLORCHANGE
350
3A
  3
CONCEPTUAL
350
34
  3
DIM
350
35
  3
EDGECOLOROFF
350
3D
  3
FACEPATTERN
350
39
  3
FLAT
350
2B
  3
FLATWITHEDGES
350
2C
  3
GOURAUD
350
2D
  3
GOURAUDWITHEDGES
350
2E
  3
HIDDEN
350
31
  3
JITTEROFF
350
3B
  3
LINEPATTERN
350
38
  3
OVERHANGOFF
350
3C
  3
REALISTIC
350
33
  3
SHADED
350
42
  3
SHADED_WITH_EDGES
350
41
  3
SHADES_OF_GRAY
350
3E
  3
SKETCHY
350
3F
  3
THICKEN
350
37
  3
WIREFRAME
350
30
  3
X-RAY
350
40
  0
DICTIONARY
  5
29A
102
{ACAD_REACTORS
330
C
102
}
330
C
100
AcDbDictionary
  3
CEPSNID
350
2A4
  3
CEPSNTYPE
350
2A3
  3
DIMSTYLEDATA
350
2BA
  3
FINGERPRINTGUID
350
2A5
  3
HYPERLINKBASE
350
29D
  3
INSUNITS
350
2A2
  3
LAYOUTDICT
350
29F
  3
LWETCUNION
350
2A1
  3
PLOTSETDICT
350
2A0
  3
PSVPSCALE
350
2A7
  3
PUCSBASE
350
2AA
  3
PUCSORGBACK
350
2B0
  3
PUCSORGBOTTOM
350
2AC
  3
PUCSORGFRONT
350
2AF
  3
PUCSORGLEFT
350
2AD
  3
PUCSORGRIGHT
350
2AE
  3
PUCSORGTOP
350
2AB
  3
PUCSORTHOREF
350
2A8
  3
PUCSORTHOVIEW
350
2A9
  3
STYLESHEET
350
29E
  3
TSTACKALIGN
350
29B
  3
TSTACKSIZE
350
29C
  3
UCSBASE
350
2B3
  3
UCSORGBACK
350
2B9
  3
UCSORGBOTTOM
350
2B5
  3
UCSORGFRONT
350
2B8
  3
UCSORGLEFT
350
2B6
  3
UCSORGRIGHT
350
2B7
  3
UCSORGTOP
350
2B4
  3
UCSORTHOREF
350
2B1
  3
UCSORTHOVIEW
350
2B2
  3
VERSIONGUID
350
2A6
  0
DICTIONARY
  5
2BB
102
{ACAD_REACTORS
330
C
102
}
330
C
100
AcDbDictionary
  3
CANNOSCALE
350
2C5
  3
CMLEADERSTYLE
350
2BD
  3
CTABLESTYLE
350
2BC
  3
DIMASSOC
350
2C0
  3
HIDETEXT
350
2C1
  3
MSLTSCALE
350
2C6
  0
XRECORD
  5
2C2
102
{ACAD_REACTORS
330
C
102
}
330
C
100
AcDbXrecord
  1
DWGPROPS COOKIE
  2

  3

  4

  6

  7

  8
clayt
  9

300
=
301
=
302
=
303
=
304
=
305
=
306
=
307
=
308
=
309
=
 40
0.0
 41
2461249.395532292
 42
2461249.395532419
  1

 90
        0
  0
XRECORD
  5
2C4
102
{ACAD_REACTORS
330
2C3
102
}
330
2C3
100
AcDbXrecord
102
VTR_0.000_0.000_1.000_1.000_VISUALSTYLE
340
2F
102
VTR_0.000_0.000_1.000_1.000_GRIDDISPLAY
 70
     3
102
VTR_0.000_0.000_1.000_1.000_GRIDMAJOR
 70
     5
102
VTR_0.000_0.000_1.000_1.000_DEFAULTLIGHTING
280
     1
102
VTR_0.000_0.000_1.000_1.000_DEFAULTLIGHTINGTYPE
 70
     1
102
VTR_0.000_0.000_1.000_1.000_BRIGHTNESS
141
0.0
102
VTR_0.000_0.000_1.000_1.000_CONTRAST
142
0.0
  0
MATERIAL
  5
45
102
{ACAD_REACTORS
330
43
102
}
102
{ACAD_XDICTIONARY
360
2C9
102
}
330
43
100
AcDbMaterial
  1
BYBLOCK
  0
MATERIAL
  5
44
102
{ACAD_REACTORS
330
43
102
}
102
{ACAD_XDICTIONARY
360
2C7
102
}
330
43
100
AcDbMaterial
  1
BYLAYER
  0
MATERIAL
  5
46
102
{ACAD_REACTORS
330
43
102
}
102
{ACAD_XDICTIONARY
360
2CB
102
}
330
43
100
AcDbMaterial
  1
GLOBAL
  0
ACAD_PROXY_OBJECT
  5
5C
102
{ACAD_REACTORS
330
5B
102
}
330
5B
100
AcDbProxyObject
 90
      499
 91
      505
 93
      610
310
40901902A4063FBFFFFFE056BD1B81E855B9FC0AD7A3703D0AD73F4214DD185B99185C9900AD7A3703D0AC73F90141901A02B5E8DC0F42B1CFC02B5E8DC0F42B1CFE5764000000000000300FC0
340
14
340
0
340
11
340
0
 94
        0
1001
ACAD_MLEADERVER
1070
     2
  0
MLINESTYLE
  5
18
102
{ACAD_REACTORS
330
17
102
}
330
17
100
AcDbMlineStyle
  2
Standard
 70
     0
  3

 62
   256
 51
90.0
 52
90.0
 71
     2
 49
0.5
 62
   256
  6
BYLAYER
 49
-0.5
 62
   256
  6
BYLAYER
  0
ACAD_PROXY_OBJECT
  5
48
102
{ACAD_REACTORS
330
47
102
}
330
47
100
AcDbProxyObject
 90
      499
 91
      503
 93
       41
310
903313A31580
  0
ACAD_PROXY_OBJECT
  5
49
102
{ACAD_REACTORS
330
47
102
}
330
47
100
AcDbProxyObject
 90
      499
 91
      503
 93
      257
310
90E312F31323822203D2031272D3022000000000000200FC000000000000284000
  0
ACAD_PROXY_OBJECT
  5
4A
102
{ACAD_REACTORS
330
47
102
}
330
47
100
AcDbProxyObject
 90
      499
 91
      503
 93
      249
310
90D312F363422203D2031272D3022000000000000240FC000000000000284000
  0
ACAD_PROXY_OBJECT
  5
4B
102
{ACAD_REACTORS
330
47
102
}
330
47
100
AcDbProxyObject
 90
      499
 91
      503
 93
      249
310
90D312F333222203D2031272D3022000000000000280FC000000000000284000
  0
ACAD_PROXY_OBJECT
  5
4C
102
{ACAD_REACTORS
330
47
102
}
330
47
100
AcDbProxyObject
 90
      499
 91
      503
 93
      249
310
90D312F313622203D2031272D30220000000000002C0FC000000000000284000
  0
ACAD_PROXY_OBJECT
  5
4D
102
{ACAD_REACTORS
330
47
102
}
330
47
100
AcDbProxyObject
 90
      499
 91
      503
 93
      249
310
90D332F333222203D2031272D30220000000000002E0FC000000000000284000
  0
ACAD_PROXY_OBJECT
  5
4E
102
{ACAD_REACTORS
330
47
102
}
330
47
100
AcDbProxyObject
 90
      499
 91
      503
 93
      241
310
90C312F3822203D2031272D3022000000000000300FC000000000000284000
  0
ACAD_PROXY_OBJECT
  5
4F
102
{ACAD_REACTORS
330
47
102
}
330
47
100
AcDbProxyObject
 90
      499
 91
      503
 93
      249
310
90D332F313622203D2031272D3022000000000000320FC000000000000284000
  0
ACAD_PROXY_OBJECT
  5
50
102
{ACAD_REACTORS
330
47
102
}
330
47
100
AcDbProxyObject
 90
      499
 91
      503
 93
      241
310
90C312F3422203D2031272D3022000000000000340FC000000000000284000
  0
ACAD_PROXY_OBJECT
  5
51
102
{ACAD_REACTORS
330
47
102
}
330
47
100
AcDbProxyObject
 90
      499
 91
      503
 93
      241
310
90C332F3822203D2031272D3022000000000000360FC000000000000284000
  0
ACAD_PROXY_OBJECT
  5
52
102
{ACAD_REACTORS
330
47
102
}
330
47
100
AcDbProxyObject
 90
      499
 91
      503
 93
      241
310
90C312F3222203D2031272D3022000000000000380FC000000000000284000
  0
ACAD_PROXY_OBJECT
  5
53
102
{ACAD_REACTORS
330
47
102
}
330
47
100
AcDbProxyObject
 90
      499
 91
      503
 93
      241
310
90C332F3422203D2031272D30220000000000003A0FC000000000000284000
  0
ACAD_PROXY_OBJECT
  5
54
102
{ACAD_REACTORS
330
47
102
}
330
47
100
AcDbProxyObject
 90
      499
 91
      503
 93
      161
310
90A3122203D2031272D30224000000000000284000
  0
ACAD_PROXY_OBJECT
  5
55
102
{ACAD_REACTORS
330
47
102
}
330
47
100
AcDbProxyObject
 90
      499
 91
      503
 93
      257
310
90E312D312F3222203D2031272D30220000000000003E0FC000000000000284000
  0
ACAD_PROXY_OBJECT
  5
56
102
{ACAD_REACTORS
330
47
102
}
330
47
100
AcDbProxyObject
 90
      499
 91
      503
 93
      225
310
90A3322203D2031272D302200000000000002100000000000000284000
  0
ACAD_PROXY_OBJECT
  5
57
102
{ACAD_REACTORS
330
47
102
}
330
47
100
AcDbProxyObject
 90
      499
 91
      503
 93
      225
310
90A3622203D2031272D302200000000000006100000000000000284000
  0
ACAD_PROXY_OBJECT
  5
58
102
{ACAD_REACTORS
330
47
102
}
330
47
100
AcDbProxyObject
 90
      499
 91
      503
 93
      249
310
90D31272D3022203D2031272D30220000000000000A100000000000000284000
  0
ACAD_PROXY_OBJECT
  5
2F
102
{ACAD_REACTORS
330
2A
102
}
330
2A
100
AcDbProxyObject
 90
      499
 91
      501
 93
      436
310
42CC9915DA5C99599C985B595049028333333333333E33F0000000000000F90107901411070040501600405405064090741402480A0340
1001
ACAD
1000
AcDbSavedByObjectVersion
1070
     0
  0
ACAD_PROXY_OBJECT
  5
32
102
{ACAD_REACTORS
330
2A
102
}
330
2A
100
AcDbProxyObject
 90
      499
 91
      501
 93
      388
310
4150985CDA58D07406404333333333333E33F0000000000000F90107A41107004050150841D405064090741402480A0350
1001
ACAD
1000
AcDbSavedByObjectVersion
1070
     0
  0
ACAD_PROXY_OBJECT
  5
36
102
{ACAD_REACTORS
330
2A
102
}
330
2A
100
AcDbProxyObject
 90
      499
 91
      501
 93
      428
310
42109C9A59DA1D195B90C409028333333333333E33F0000000000000F9010790141107004050150841D405064090741402480A029950
1001
ACAD
1000
AcDbSavedByObjectVersion
1070
     0
  0
ACAD_PROXY_OBJECT
  5
3A
102
{ACAD_REACTORS
330
2A
102
}
330
2A
100
AcDbProxyObject
 90
      499
 91
      501
 93
      452
310
42D0DBDB1BDC90DA185B99D95104090240C333333333333E33F0000000000000F90108901411070040501508421405064090741402480A0350
1001
ACAD
1000
AcDbSavedByObjectVersion
1070
     0
  0
ACAD_PROXY_OBJECT
  5
34
102
{ACAD_REACTORS
330
2A
102
}
330
2A
100
AcDbProxyObject
 90
      499
 91
      501
 93
      500
310
4290DBDB98D95C1D1D585B10940D028333333333333E33F0000000000000F90107902409070040501000000000018199010841D405064090740C02480A0340
1001
ACAD
1000
AcDbSavedByObjectVersion
1070
     0
  0
ACAD_PROXY_OBJECT
  5
35
102
{ACAD_REACTORS
330
2A
102
}
330
2A
100
AcDbProxyObject
 90
      499
 91
      501
 93
      412
310
40D11A5B50B409028333333333333E33F0000000000000F9010790141107004050150841D405064090741402480A02677FFFFFD0
1001
ACAD
1000
AcDbSavedByObjectVersion
1070
     0
  0
ACAD_PROXY_OBJECT
  5
3D
102
{ACAD_REACTORS
330
2A
102
}
330
2A
100
AcDbProxyObject
 90
      499
 91
      501
 93
      452
310
43115919D950DBDB1BDC93D999916409028333333333333E33F0000000000000F9010790141107004050150841D405064090741402480A0350
1001
ACAD
1000
AcDbSavedByObjectVersion
1070
     0
  0
ACAD_PROXY_OBJECT
  5
39
102
{ACAD_REACTORS
330
2A
102
}
330
2A
100
AcDbProxyObject
 90
      499
 91
      501
 93
      444
310
42D19858D95C185D1D195C9B90F409028333333333333E33F0000000000000F9010790141107004050150841D405064090741402480A0350
1001
ACAD
1000
AcDbSavedByObjectVersion
1070
     0
  0
ACAD_PROXY_OBJECT
  5
2B
102
{ACAD_REACTORS
330
2A
102
}
330
2A
100
AcDbProxyObject
 90
      499
 91
      501
 93
      380
310
41119B185D240901404333333333333E33F0000000000000F9010740A907004050150841D405064090741402480A1B50
1001
ACAD
1000
AcDbSavedByObjectVersion
1070
     0
  0
ACAD_PROXY_OBJECT
  5
2C
102
{ACAD_REACTORS
330
2A
102
}
330
2A
100
AcDbProxyObject
 90
      499
 91
      501
 93
      468
310
43519B185D15DA5D1A115919D95CD0140901404333333333333E33F0000000000000F90107409019070040501600405405064090741402480A1B50
1001
ACAD
1000
AcDbSavedByObjectVersion
1070
     0
  0
ACAD_PROXY_OBJECT
  5
2D
102
{ACAD_REACTORS
330
2A
102
}
330
2A
100
AcDbProxyObject
 90
      499
 91
      501
 93
      404
310
41D1DBDD5C985D5910240902404333333333333E33F0000000000000F9010740A9070040501641D405064090741402480A1B50
1001
ACAD
1000
AcDbSavedByObjectVersion
1070
     0
  0
ACAD_PROXY_OBJECT
  5
2E
102
{ACAD_REACTORS
330
2A
102
}
330
2A
100
AcDbProxyObject
 90
      499
 91
      501
 93
      492
310
4411DBDD5C985D5915DA5D1A115919D95CD0340902404333333333333E33F0000000000000F90107409019070040501600405405064090741402480A1B50
1001
ACAD
1000
AcDbSavedByObjectVersion
1070
     0
  0
ACAD_PROXY_OBJECT
  5
31
102
{ACAD_REACTORS
330
2A
102
}
330
2A
100
AcDbProxyObject
 90
      499
 91
      501
 93
      476
310
41921A5919195B90640502408333333333333E33F0000000000000F901079024090700405020000000000001110200405405064090740C02480A0340
1001
ACAD
1000
AcDbSavedByObjectVersion
1070
     0
  0
ACAD_PROXY_OBJECT
  5
3B
102
{ACAD_REACTORS
330
2A
102
}
330
2A
100
AcDbProxyObject
 90
      499
 91
      501
 93
      428
310
42529A5D1D195C93D999914409028333333333333E33F0000000000000F9010790141107004050150A41D405064090741402480A0350
1001
ACAD
1000
AcDbSavedByObjectVersion
1070
     0
  0
ACAD_PROXY_OBJECT
  5
38
102
{ACAD_REACTORS
330
2A
102
}
330
2A
100
AcDbProxyObject
 90
      499
 91
      501
 93
      444
310
42D31A5B995C185D1D195C9B90E409028333333333333E33F0000000000000F9010790141107004050750841D405064090741402483A0350
1001
ACAD
1000
AcDbSavedByObjectVersion
1070
     0
  0
ACAD_PROXY_OBJECT
  5
3C
102
{ACAD_REACTORS
330
2A
102
}
330
2A
100
AcDbProxyObject
 90
      499
 91
      501
 93
      444
310
42D3DD995C9A185B99D3D999915409028333333333333E33F0000000000000F9010790141107004050150941D405064090741402480A0350
1001
ACAD
1000
AcDbSavedByObjectVersion
1070
     0
  0
ACAD_PROXY_OBJECT
  5
33
102
{ACAD_REACTORS
330
2A
102
}
330
2A
100
AcDbProxyObject
 90
      499
 91
      501
 93
      428
310
425499585B1A5CDD1A58D08409038333333333333E33F0000000000000F9010740A907004050150800405405064090740C02480A1B40
1001
ACAD
1000
AcDbSavedByObjectVersion
1070
     0
  0
ACAD_PROXY_OBJECT
  5
42
102
{ACAD_REACTORS
330
2A
102
}
330
2A
100
AcDbProxyObject
 90
      499
 91
      501
 93
      420
310
4194DA1859195911B40902404333333333333E33F0000000000000F9010740A41107004050150800405405064090840C02480A0B40
1001
ACAD
1000
AcDbSavedByObjectVersion
1070
     0
  0
ACAD_PROXY_OBJECT
  5
41
102
{ACAD_REACTORS
330
2A
102
}
330
2A
100
AcDbProxyObject
 90
      499
 91
      501
 93
      516
310
4454DA18591959081DDA5D1A08195919D95CD1A40902404333333333333E33F0000000000000F901074090142907004050250800405405064090740C02480A0B40
1001
ACAD
1000
AcDbSavedByObjectVersion
1070
     0
  0
ACAD_PROXY_OBJECT
  5
3E
102
{ACAD_REACTORS
330
2A
102
}
330
2A
100
AcDbProxyObject
 90
      499
 91
      501
 93
      532
310
4394DA1859195CC81BD98811DC985E5174090240C333333333333E33F0000000000000F901079024090741D01000000000000111010841D405064090740C02480A0340
1001
ACAD
1000
AcDbSavedByObjectVersion
1070
     0
  0
ACAD_PROXY_OBJECT
  5
3F
102
{ACAD_REACTORS
330
2A
102
}
330
2A
100
AcDbProxyObject
 90
      499
 91
      501
 93
      476
310
41D4DAD95D18DA1E51840502408333333333333E33F0000000000000F901079024090741D01000000000000111010B41D405064090741802480A0340
1001
ACAD
1000
AcDbSavedByObjectVersion
1070
     0
  0
ACAD_PROXY_OBJECT
  5
37
102
{ACAD_REACTORS
330
2A
102
}
330
2A
100
AcDbProxyObject
 90
      499
 91
      501
 93
      412
310
41D51A1A58DAD95B90D409028333333333333E33F0000000000000F9010790141107004050150C41D405064090741402480A0350
1001
ACAD
1000
AcDbSavedByObjectVersion
1070
     0
  0
ACAD_PROXY_OBJECT
  5
30
102
{ACAD_REACTORS
330
2A
102
}
330
2A
100
AcDbProxyObject
 90
      499
 91
      501
 93
      420
310
4255DA5C99599C985B595059028333333333333E33F0000000000000F90107901411070040501600405405064090740C02480A0340
1001
ACAD
1000
AcDbSavedByObjectVersion
1070
     0
  0
ACAD_PROXY_OBJECT
  5
40
102
{ACAD_REACTORS
330
2A
102
}
330
2A
100
AcDbProxyObject
 90
      499
 91
      501
 93
      404
310
41560B54985E51940902404000000000000E03F0000000000000F9010740501907004050150841D405064090740C02480A1B40
1001
ACAD
1000
AcDbSavedByObjectVersion
1070
     0
  0
XRECORD
  5
2A4
102
{ACAD_REACTORS
330
29A
102
}
330
29A
100
AcDbXrecord
340
0
  0
XRECORD
  5
2A3
102
{ACAD_REACTORS
330
29A
102
}
330
29A
100
AcDbXrecord
 90
        0
  0
XRECORD
  5
2BA
102
{ACAD_REACTORS
330
29A
102
}
330
29A
100
AcDbXrecord
1000
DSTYLE
1002
{
1070
   171
 70
     2
1070
   143
 40
25.4
1070
   274
 70
     2
1070
    41
 40
0.18
1070
   141
 40
0.09
1070
   271
 70
     4
1070
    43
 40
0.38
1070
   278
 70
    46
1070
    44
 40
0.18
1070
    42
 40
0.0625
1070
   147
 40
0.09
1070
    77
 70
     0
1070
   272
 70
     4
1070
    73
 70
     1
1070
   279
 70
     2
1070
   172
 70
     0
1070
    74
 70
     1
1070
   283
 70
     1
1070
   340
340
11
1070
   140
 40
0.18
1070
   284
 70
     0
1070
    78
 70
     0
1002
}
  0
XRECORD
  5
2A5
102
{ACAD_REACTORS
330
29A
102
}
330
29A
100
AcDbXrecord
  1
{8cbd662f-ce27-4b44-9ee9-f9c6f95d5378}
  0
XRECORD
  5
29D
102
{ACAD_REACTORS
330
29A
102
}
330
29A
100
AcDbXrecord
  1

  0
XRECORD
  5
2A2
102
{ACAD_REACTORS
330
29A
102
}
330
29A
100
AcDbXrecord
 90
        4
  0
XRECORD
  5
29F
102
{ACAD_REACTORS
330
29A
102
}
330
29A
100
AcDbXrecord
340
1A
  0
XRECORD
  5
2A1
102
{ACAD_REACTORS
330
29A
102
}
330
29A
100
AcDbXrecord
 90
    10781
  0
XRECORD
  5
2A0
102
{ACAD_REACTORS
330
29A
102
}
330
29A
100
AcDbXrecord
340
19
  0
XRECORD
  5
2A7
102
{ACAD_REACTORS
330
29A
102
}
330
29A
100
AcDbXrecord
 40
0.0
  0
XRECORD
  5
2AA
102
{ACAD_REACTORS
330
29A
102
}
330
29A
100
AcDbXrecord
340
0
  0
XRECORD
  5
2B0
102
{ACAD_REACTORS
330
29A
102
}
330
29A
100
AcDbXrecord
 10
0.0
 20
0.0
 30
0.0
  0
XRECORD
  5
2AC
102
{ACAD_REACTORS
330
29A
102
}
330
29A
100
AcDbXrecord
 10
0.0
 20
0.0
 30
0.0
  0
XRECORD
  5
2AF
102
{ACAD_REACTORS
330
29A
102
}
330
29A
100
AcDbXrecord
 10
0.0
 20
0.0
 30
0.0
  0
XRECORD
  5
2AD
102
{ACAD_REACTORS
330
29A
102
}
330
29A
100
AcDbXrecord
 10
0.0
 20
0.0
 30
0.0
  0
XRECORD
  5
2AE
102
{ACAD_REACTORS
330
29A
102
}
330
29A
100
AcDbXrecord
 10
0.0
 20
0.0
 30
0.0
  0
XRECORD
  5
2AB
102
{ACAD_REACTORS
330
29A
102
}
330
29A
100
AcDbXrecord
 10
0.0
 20
0.0
 30
0.0
  0
XRECORD
  5
2A8
102
{ACAD_REACTORS
330
29A
102
}
330
29A
100
AcDbXrecord
340
0
  0
XRECORD
  5
2A9
102
{ACAD_REACTORS
330
29A
102
}
330
29A
100
AcDbXrecord
 70
     0
  0
XRECORD
  5
29E
102
{ACAD_REACTORS
330
29A
102
}
330
29A
100
AcDbXrecord
  1

  0
XRECORD
  5
29B
102
{ACAD_REACTORS
330
29A
102
}
330
29A
100
AcDbXrecord
 90
        1
  0
XRECORD
  5
29C
102
{ACAD_REACTORS
330
29A
102
}
330
29A
100
AcDbXrecord
 90
       70
  0
XRECORD
  5
2B3
102
{ACAD_REACTORS
330
29A
102
}
330
29A
100
AcDbXrecord
340
0
  0
XRECORD
  5
2B9
102
{ACAD_REACTORS
330
29A
102
}
330
29A
100
AcDbXrecord
 10
0.0
 20
0.0
 30
0.0
  0
XRECORD
  5
2B5
102
{ACAD_REACTORS
330
29A
102
}
330
29A
100
AcDbXrecord
 10
0.0
 20
0.0
 30
0.0
  0
XRECORD
  5
2B8
102
{ACAD_REACTORS
330
29A
102
}
330
29A
100
AcDbXrecord
 10
0.0
 20
0.0
 30
0.0
  0
XRECORD
  5
2B6
102
{ACAD_REACTORS
330
29A
102
}
330
29A
100
AcDbXrecord
 10
0.0
 20
0.0
 30
0.0
  0
XRECORD
  5
2B7
102
{ACAD_REACTORS
330
29A
102
}
330
29A
100
AcDbXrecord
 10
0.0
 20
0.0
 30
0.0
  0
XRECORD
  5
2B4
102
{ACAD_REACTORS
330
29A
102
}
330
29A
100
AcDbXrecord
 10
0.0
 20
0.0
 30
0.0
  0
XRECORD
  5
2B1
102
{ACAD_REACTORS
330
29A
102
}
330
29A
100
AcDbXrecord
340
0
  0
XRECORD
  5
2B2
102
{ACAD_REACTORS
330
29A
102
}
330
29A
100
AcDbXrecord
 70
     0
  0
XRECORD
  5
2A6
102
{ACAD_REACTORS
330
29A
102
}
330
29A
100
AcDbXrecord
  1
{FAEB1C32-E019-11D5-929B-00C0DF256EC4}
  0
DICTIONARYVAR
  5
2C5
102
{ACAD_REACTORS
330
2BB
102
}
330
2BB
100
DictionaryVariables
280
     0
  1
1:1
  0
DICTIONARYVAR
  5
2BD
102
{ACAD_REACTORS
330
2BB
102
}
330
2BB
100
DictionaryVariables
280
     0
  1
Standard
  0
DICTIONARYVAR
  5
2BC
102
{ACAD_REACTORS
330
2BB
102
}
330
2BB
100
DictionaryVariables
280
     0
  1
Standard
  0
DICTIONARYVAR
  5
2C0
102
{ACAD_REACTORS
330
2BB
102
}
330
2BB
100
DictionaryVariables
280
     0
  1
2
  0
DICTIONARYVAR
  5
2C1
102
{ACAD_REACTORS
330
2BB
102
}
330
2BB
100
DictionaryVariables
280
     0
  1
1
  0
DICTIONARYVAR
  5
2C6
102
{ACAD_REACTORS
330
2BB
102
}
330
2BB
100
DictionaryVariables
280
     0
  1
1
  0
DICTIONARY
  5
2C9
330
45
100
AcDbDictionary
280
     1
  3
ACAD_XREC_ROUNDTRIP
360
2CA
  0
DICTIONARY
  5
2C7
330
44
100
AcDbDictionary
280
     1
  3
ACAD_XREC_ROUNDTRIP
360
2C8
  0
DICTIONARY
  5
2CB
330
46
100
AcDbDictionary
280
     1
  3
ACAD_XREC_ROUNDTRIP
360
2CC
  0
XRECORD
  5
2CA
102
{ACAD_REACTORS
330
2C9
102
}
330
2C9
100
AcDbXrecord
102
MATERIAL
148
0.0
149
0.0
149
0.0
 93
        0
 94
      127
282
     0
 72
     1
 77
     1
171
     1
175
     1
179
     1
273
     0
  0
XRECORD
  5
2C8
102
{ACAD_REACTORS
330
2C7
102
}
330
2C7
100
AcDbXrecord
102
MATERIAL
148
0.0
149
0.0
149
0.0
 93
        0
 94
      127
282
     0
 72
     1
 77
     1
171
     1
175
     1
179
     1
273
     0
  0
XRECORD
  5
2CC
102
{ACAD_REACTORS
330
2CB
102
}
330
2CB
100
AcDbXrecord
102
MATERIAL
148
0.0
149
0.0
149
0.0
 93
        0
 94
      127
282
     0
 72
     1
 77
     1
171
     1
175
     1
179
     1
273
     0
  0
ENDSEC
  0
EOF
