  0
SECTION
  2
HEADER
  9
$ACADVER
  1
AC1014
  9
$ACADMAINTVER
 70
     9
  9
$DWGCODEPAGE
  3
ANSI_1252
  9
$INSBASE
 10
0.0
 20
0.0
 30
0.0
  9
$EXTMIN
 10
-1180.789790365437
 20
-298.4013066544212
 30
-0.0000000000182582
  9
$EXTMAX
 10
1209.323296948034
 20
310.0986933462773
 30
0.0000000010009913
  9
$LIMMIN
 10
0.0
 20
0.0
  9
$LIMMAX
 10
12.0
 20
9.0
  9
$ORTHOMODE
 70
     0
  9
$REGENMODE
 70
     1
  9
$FILLMODE
 70
     1
  9
$QTEXTMODE
 70
     0
  9
$MIRRTEXT
 70
     1
  9
$DRAGMODE
 70
     2
  9
$LTSCALE
 40
1.0
  9
$OSMODE
 70
    37
  9
$ATTMODE
 70
     1
  9
$TEXTSIZE
 40
0.2
  9
$TRACEWID
 40
0.05
  9
$TEXTSTYLE
  7
STANDARD
  9
$CLAYER
  8
0
  9
$CELTYPE
  6
BYLAYER
  9
$CECOLOR
 62
   256
  9
$CELTSCALE
 40
1.0
  9
$DELOBJ
 70
     1
  9
$DISPSILH
 70
     0
  9
$DIMSCALE
 40
1.0
  9
$DIMASZ
 40
0.18
  9
$DIMEXO
 40
0.0625
  9
$DIMDLI
 40
0.38
  9
$DIMRND
 40
0.0
  9
$DIMDLE
 40
0.0
  9
$DIMEXE
 40
0.18
  9
$DIMTP
 40
0.0
  9
$DIMTM
 40
0.0
  9
$DIMTXT
 40
0.18
  9
$DIMCEN
 40
0.09
  9
$DIMTSZ
 40
0.0
  9
$DIMTOL
 70
     0
  9
$DIMLIM
 70
     0
  9
$DIMTIH
 70
     1
  9
$DIMTOH
 70
     1
  9
$DIMSE1
 70
     0
  9
$DIMSE2
 70
     0
  9
$DIMTAD
 70
     0
  9
$DIMZIN
 70
     0
  9
$DIMBLK
  1

  9
$DIMASO
 70
     1
  9
$DIMSHO
 70
     1
  9
$DIMPOST
  1

  9
$DIMAPOST
  1

  9
$DIMALT
 70
     0
  9
$DIMALTD
 70
     2
  9
$DIMALTF
 40
25.4
  9
$DIMLFAC
 40
1.0
  9
$DIMTOFL
 70
     0
  9
$DIMTVP
 40
0.0
  9
$DIMTIX
 70
     0
  9
$DIMSOXD
 70
     0
  9
$DIMSAH
 70
     0
  9
$DIMBLK1
  1

  9
$DIMBLK2
  1

  9
$DIMSTYLE
  2
STANDARD_ACAD
  9
$DIMCLRD
 70
     0
  9
$DIMCLRE
 70
     0
  9
$DIMCLRT
 70
     0
  9
$DIMTFAC
 40
1.0
  9
$DIMGAP
 40
0.09
  9
$DIMJUST
 70
     0
  9
$DIMSD1
 70
     0
  9
$DIMSD2
 70
     0
  9
$DIMTOLJ
 70
     1
  9
$DIMTZIN
 70
     0
  9
$DIMALTZ
 70
     0
  9
$DIMALTTZ
 70
     0
  9
$DIMFIT
 70
     5
  9
$DIMUPT
 70
     0
  9
$DIMUNIT
 70
     2
  9
$DIMDEC
 70
     4
  9
$DIMTDEC
 70
     4
  9
$DIMALTU
 70
     2
  9
$DIMALTTD
 70
     2
  9
$DIMTXSTY
  7
STANDARD
  9
$DIMAUNIT
 70
     0
  9
$LUNITS
 70
     2
  9
$LUPREC
 70
     2
  9
$SKETCHINC
 40
0.1
  9
$FILLETRAD
 40
0.0
  9
$AUNITS
 70
     0
  9
$AUPREC
 70
     0
  9
$MENU
  1
.
  9
$ELEVATION
 40
0.0
  9
$PELEVATION
 40
0.0
  9
$THICKNESS
 40
0.0
  9
$LIMCHECK
 70
     0
  9
$CHAMFERA
 40
0.0
  9
$CHAMFERB
 40
0.0
  9
$CHAMFERC
 40
0.0
  9
$CHAMFERD
 40
0.0
  9
$SKPOLY
 70
     0
  9
$TDCREATE
 40
2461249.437211655
  9
$TDUPDATE
 40
2461249.437211771
  9
$TDINDWG
 40
0.0000000116
  9
$TDUSRTIMER
 40
0.0000000116
  9
$USRTIMER
 70
     1
  9
$ANGBASE
 50
0.0
  9
$ANGDIR
 70
     0
  9
$PDMODE
 70
     0
  9
$PDSIZE
 40
0.0
  9
$PLINEWID
 40
0.0
  9
$COORDS
 70
     1
  9
$SPLFRAME
 70
     0
  9
$SPLINETYPE
 70
     6
  9
$SPLINESEGS
 70
     8
  9
$ATTDIA
 70
     0
  9
$ATTREQ
 70
     1
  9
$HANDLING
 70
     1
  9
$HANDSEED
  5
320
  9
$SURFTAB1
 70
     6
  9
$SURFTAB2
 70
     6
  9
$SURFTYPE
 70
     6
  9
$SURFU
 70
     6
  9
$SURFV
 70
     6
  9
$UCSNAME
  2

  9
$UCSORG
 10
0.0
 20
0.0
 30
0.0
  9
$UCSXDIR
 10
1.0
 20
0.0
 30
0.0
  9
$UCSYDIR
 10
0.0
 20
1.0
 30
0.0
  9
$PUCSNAME
  2

  9
$PUCSORG
 10
0.0
 20
0.0
 30
0.0
  9
$PUCSXDIR
 10
1.0
 20
0.0
 30
0.0
  9
$PUCSYDIR
 10
0.0
 20
1.0
 30
0.0
  9
$USERI1
 70
     0
  9
$USERI2
 70
     0
  9
$USERI3
 70
     0
  9
$USERI4
 70
     0
  9
$USERI5
 70
     0
  9
$USERR1
 40
0.0
  9
$USERR2
 40
0.0
  9
$USERR3
 40
0.0
  9
$USERR4
 40
0.0
  9
$USERR5
 40
0.0
  9
$WORLDVIEW
 70
     1
  9
$SHADEDGE
 70
     3
  9
$SHADEDIF
 70
    70
  9
$TILEMODE
 70
     1
  9
$MAXACTVP
 70
    64
  9
$PINSBASE
 10
0.0
 20
0.0
 30
0.0
  9
$PLIMCHECK
 70
     0
  9
$PEXTMIN
 10
1.000000000000000E+20
 20
1.000000000000000E+20
 30
1.000000000000000E+20
  9
$PEXTMAX
 10
-1.000000000000000E+20
 20
-1.000000000000000E+20
 30
-1.000000000000000E+20
  9
$PLIMMIN
 10
0.0
 20
0.0
  9
$PLIMMAX
 10
12.0
 20
9.0
  9
$UNITMODE
 70
     0
  9
$VISRETAIN
 70
     1
  9
$PLINEGEN
 70
     0
  9
$PSLTSCALE
 70
     1
  9
$TREEDEPTH
 70
  3020
  9
$PICKSTYLE
 70
     1
  9
$CMLSTYLE
  2
STANDARD
  9
$CMLJUST
 70
     0
  9
$CMLSCALE
 40
1.0
  9
$PROXYGRAPHICS
 70
     1
  9
$MEASUREMENT
 70
     1
  0
ENDSEC
  0
SECTION
  2
CLASSES
  0
CLASS
  1
ACDBDICTIONARYWDFLT
  2
AcDbDictionaryWithDefault
  3
ObjectDBX Classes
 90
        0
280
     0
281
     0
  0
CLASS
  1
VISUALSTYLE
  2
AcDbVisualStyle
  3
ObjectDBX Classes
 90
     4095
280
     0
281
     0
  0
CLASS
  1
MATERIAL
  2
AcDbMaterial
  3
ObjectDBX Classes
 90
     1153
280
     0
281
     0
  0
CLASS
  1
SCALE
  2
AcDbScale
  3
ObjectDBX Classes
 90
     1153
280
     0
281
     0
  0
CLASS
  1
TABLESTYLE
  2
AcDbTableStyle
  3
ObjectDBX Classes
 90
     4095
280
     0
281
     0
  0
CLASS
  1
MLEADERSTYLE
  2
AcDbMLeaderStyle
  3
ACDB_MLEADERSTYLE_CLASS
 90
     4095
280
     0
281
     0
  0
CLASS
  1
SUN
  2
AcDbSun
  3
SCENEOE
 90
     1153
280
     0
281
     0
  0
CLASS
  1
DICTIONARYVAR
  2
AcDbDictionaryVar
  3
ObjectDBX Classes
 90
        0
280
     0
281
     0
  0
CLASS
  1
XRECORD
  2
AcDbXrecord
  3
ObjectDBX Classes
 90
        0
280
     0
281
     0
  0
CLASS
  1
LWPOLYLINE
  2
AcDbPolyline
  3
ObjectDBX Classes
 90
        0
280
     0
281
     1
  0
CLASS
  1
HATCH
  2
AcDbHatch
  3
ObjectDBX Classes
 90
        0
280
     0
281
     1
  0
CLASS
  1
ACDBPLACEHOLDER
  2
AcDbPlaceHolder
  3
ObjectDBX Classes
 90
        0
280
     0
281
     0
  0
CLASS
  1
LAYOUT
  2
AcDbLayout
  3
ObjectDBX Classes
 90
        0
280
     0
281
     0
  0
ENDSEC
  0
SECTION
  2
TABLES
  0
TABLE
  2
VPORT
  5
8
102
{ACAD_XDICTIONARY
360
315
102
}
330
0
100
AcDbSymbolTable
 70
     1
  0
VPORT
  5
29
330
8
100
AcDbSymbolTableRecord
100
AcDbViewportTableRecord
  2
*ACTIVE
 70
     0
 10
0.0
 20
0.0
 11
1.0
 21
1.0
 12
10.42990654205607
 22
4.5
 13
0.0
 23
0.0
 14
0.5
 24
0.5
 15
0.5
 25
0.5
 16
0.0
 26
0.0
 36
1.0
 17
0.0
 27
0.0
 37
0.0
 40
9.0
 41
1.972972972850329
 42
50.0
 43
0.0
 44
0.0
 50
0.0
 51
0.0
 71
     0
 72
   100
 73
     1
 74
     3
 75
     0
 76
     0
 77
     0
 78
     0
  0
ENDTAB
  0
TABLE
  2
LTYPE
  5
5
330
0
100
AcDbSymbolTable
 70
     1
  0
LTYPE
  5
14
330
5
100
AcDbSymbolTableRecord
100
AcDbLinetypeTableRecord
  2
BYBLOCK
 70
     0
  3

 72
    65
 73
     0
 40
0.0
  0
LTYPE
  5
15
330
5
100
AcDbSymbolTableRecord
100
AcDbLinetypeTableRecord
  2
BYLAYER
 70
     0
  3

 72
    65
 73
     0
 40
0.0
  0
LTYPE
  5
16
330
5
100
AcDbSymbolTableRecord
100
AcDbLinetypeTableRecord
  2
CONTINUOUS
 70
     0
  3
Solid line
 72
    65
 73
     0
 40
0.0
  0
ENDTAB
  0
TABLE
  2
LAYER
  5
2
330
0
100
AcDbSymbolTable
 70
     5
  0
LAYER
  5
10
330
2
100
AcDbSymbolTableRecord
100
AcDbLayerTableRecord
  2
0
 70
     0
 62
     7
  6
CONTINUOUS
  0
LAYER
  5
5F
330
2
100
AcDbSymbolTableRecord
100
AcDbLayerTableRecord
  2
1_ANYTOOL_1MMDEEP_LABELS_S
 70
     0
 62
     2
  6
CONTINUOUS
  0
LAYER
  5
168
330
2
100
AcDbSymbolTableRecord
100
AcDbLayerTableRecord
  2
5_ANYTOOL_HALF_MILL_9MM_IN
 70
     0
 62
     3
  6
CONTINUOUS
  0
LAYER
  5
193
330
2
100
AcDbSymbolTableRecord
100
AcDbLayerTableRecord
  2
3_ANYTOOL_CUTTHROUGH_INSID
 70
     0
 62
     4
  6
CONTINUOUS
  0
LAYER
  5
1A2
330
2
100
AcDbSymbolTableRecord
100
AcDbLayerTableRecord
  2
4_ANYTOOL_CUTTHROUGH_OUTSI
 70
     0
 62
     5
  6
CONTINUOUS
  0
ENDTAB
  0
TABLE
  2
STYLE
  5
3
330
0
100
AcDbSymbolTable
 70
     1
  0
STYLE
  5
11
330
3
100
AcDbSymbolTableRecord
100
AcDbTextStyleTableRecord
  2
STANDARD
 70
     0
 40
0.0
 41
1.0
 50
0.0
 71
     0
 42
0.2
  3
txt
  4

  0
ENDTAB
  0
TABLE
  2
VIEW
  5
6
330
0
100
AcDbSymbolTable
 70
     0
  0
ENDTAB
  0
TABLE
  2
UCS
  5
7
330
0
100
AcDbSymbolTable
 70
     0
  0
ENDTAB
  0
TABLE
  2
APPID
  5
9
330
0
100
AcDbSymbolTable
 70
     3
  0
APPID
  5
12
330
9
100
AcDbSymbolTableRecord
100
AcDbRegAppTableRecord
  2
ACAD
 70
     0
  0
APPID
  5
5E
330
9
100
AcDbSymbolTableRecord
100
AcDbRegAppTableRecord
  2
RHINO
 70
     0
  0
APPID
  5
31F
330
9
100
AcDbSymbolTableRecord
100
AcDbRegAppTableRecord
  2
ACAD_MLEADERVER
 70
     0
  0
ENDTAB
  0
TABLE
  2
DIMSTYLE
  5
A
330
0
100
AcDbSymbolTable
 70
     1
  0
DIMSTYLE
105
27
330
A
100
AcDbSymbolTableRecord
100
AcDbDimStyleTableRecord
  2
STANDARD_ACAD
 70
     0
  3

  4

  5

  6

  7

 40
1.0
 41
0.18
 42
0.0625
 43
0.38
 44
0.18
 45
0.0
 46
0.0
 47
0.0
 48
0.0
140
0.18
141
0.09
142
0.0
143
25.4
144
1.0
145
0.0
146
1.0
147
0.09
 71
     0
 72
     0
 73
     1
 74
     1
 75
     0
 76
     0
 77
     0
 78
     0
170
     0
171
     2
172
     0
173
     0
174
     0
175
     0
176
     0
177
     0
178
     0
270
     2
271
     4
272
     4
273
     2
274
     2
340
11
275
     0
280
     0
281
     0
282
     0
283
     1
284
     0
285
     0
286
     0
287
     3
288
     0
  0
ENDTAB
  0
TABLE
  2
BLOCK_RECORD
  5
1
330
0
100
AcDbSymbolTable
 70
     0
  0
BLOCK_RECORD
  5
1F
330
1
100
AcDbSymbolTableRecord
100
AcDbBlockTableRecord
  2
*MODEL_SPACE
  0
BLOCK_RECORD
  5
1B
330
1
100
AcDbSymbolTableRecord
100
AcDbBlockTableRecord
  2
*PAPER_SPACE
  0
ENDTAB
  0
ENDSEC
  0
SECTION
  2
BLOCKS
  0
BLOCK
  5
20
330
1F
100
AcDbEntity
  8
0
100
AcDbBlockBegin
  2
*MODEL_SPACE
 70
     0
 10
0.0
 20
0.0
 30
0.0
  3
*MODEL_SPACE
  1

  0
ENDBLK
  5
21
330
1F
100
AcDbEntity
  8
0
100
AcDbBlockEnd
  0
BLOCK
  5
1C
330
1B
100
AcDbEntity
 67
     1
  8
0
100
AcDbBlockBegin
  2
*PAPER_SPACE
 70
     0
 10
0.0
 20
0.0
 30
0.0
  3
*PAPER_SPACE
  1

  0
ENDBLK
  5
1D
330
1B
100
AcDbEntity
 67
     1
  8
0
100
AcDbBlockEnd
  0
ENDSEC
  0
SECTION
  2
ENTITIES
  0
POLYLINE
  5
60
330
1F
100
AcDbEntity
  8
1_ANYTOOL_1MMDEEP_LABELS_S
100
AcDb2dPolyline
 66
     1
 10
0.0
 20
0.0
 30
0.0
  0
VERTEX
  5
61
330
60
100
AcDbEntity
  8
1_ANYTOOL_1MMDEEP_LABELS_S
100
AcDbVertex
100
AcDb2dVertex
 10
21.94285714283706
 20
-30.0
 30
0.0
  0
VERTEX
  5
62
330
60
100
AcDbEntity
  8
1_ANYTOOL_1MMDEEP_LABELS_S
100
AcDbVertex
100
AcDb2dVertex
 10
2.999999999979991
 20
-30.0
 30
0.0
  0
VERTEX
  5
63
330
60
100
AcDbEntity
  8
1_ANYTOOL_1MMDEEP_LABELS_S
100
AcDbVertex
100
AcDb2dVertex
 10
2.999999999979991
 20
0.0
 30
0.0
  0
VERTEX
  5
64
330
60
100
AcDbEntity
  8
1_ANYTOOL_1MMDEEP_LABELS_S
100
AcDbVertex
100
AcDb2dVertex
 10
20.82857142855119
 20
0.0
 30
0.0
  0
SEQEND
  5
65
330
60
100
AcDbEntity
  8
1_ANYTOOL_1MMDEEP_LABELS_S
  0
LINE
  5
66
330
1F
100
AcDbEntity
  8
1_ANYTOOL_1MMDEEP_LABELS_S
100
AcDbLine
 10
17.65714285712329
 20
-13.92857142857247
 30
0.0
 11
2.999999999979991
 21
-13.92857142857247
 31
0.0
  0
LINE
  5
67
330
1F
100
AcDbEntity
  8
1_ANYTOOL_1MMDEEP_LABELS_S
100
AcDbLine
 10
34.15714285712329
 20
-16.11428571428405
 30
0.0
 11
25.37142857140861
 21
-16.19999999999709
 31
0.0
  0
POLYLINE
  5
68
330
1F
100
AcDbEntity
  8
1_ANYTOOL_1MMDEEP_LABELS_S
100
AcDb2dPolyline
 66
     1
 10
0.0
 20
0.0
 30
0.0
  0
VERTEX
  5
69
330
68
100
AcDbEntity
  8
1_ANYTOOL_1MMDEEP_LABELS_S
100
AcDbVertex
100
AcDb2dVertex
 10
39.29999999998017
 20
0.0
 30
0.0
  0
VERTEX
  5
6A
330
68
100
AcDbEntity
  8
1_ANYTOOL_1MMDEEP_LABELS_S
100
AcDbVertex
100
AcDb2dVertex
 10
39.29999999998017
 20
-30.0
 30
0.0
  0
VERTEX
  5
6B
330
68
100
AcDbEntity
  8
1_ANYTOOL_1MMDEEP_LABELS_S
100
AcDbVertex
100
AcDb2dVertex
 10
56.39999999997963
 20
-30.0
 30
0.0
  0
SEQEND
  5
6C
330
68
100
AcDbEntity
  8
1_ANYTOOL_1MMDEEP_LABELS_S
  0
LINE
  5
6D
330
1F
100
AcDbEntity
  8
1_ANYTOOL_1MMDEEP_LABELS_S
100
AcDbLine
 10
76.54285714283742
 20
-0.4714285714289872
 30
0.0
 11
59.35714285712311
 21
-31.24285714285361
 31
0.0
  0
POLYLINE
  5
6E
330
1F
100
AcDbEntity
  8
1_ANYTOOL_1MMDEEP_LABELS_S
100
AcDb2dPolyline
 66
     1
 10
0.0
 20
0.0
 30
0.0
 70
     1
  0
VERTEX
  5
6F
330
6E
100
AcDbEntity
  8
1_ANYTOOL_1MMDEEP_LABELS_S
100
AcDbVertex
100
AcDb2dVertex
 10
90.89999999997963
 20
0.3428571428594296
 30
0.0
  0
VERTEX
  5
70
330
6E
100
AcDbEntity
  8
1_ANYTOOL_1MMDEEP_LABELS_S
100
AcDbVertex
100
AcDb2dVertex
 10
91.27148437497962
 20
0.3369977678594296
 30
0.0
  0
VERTEX
  5
71
330
6E
100
AcDbEntity
  8
1_ANYTOOL_1MMDEEP_LABELS_S
100
AcDbVertex
100
AcDb2dVertex
 10
91.63593749997963
 20
0.3194196428594296
 30
0.0
  0
VERTEX
  5
72
330
6E
100
AcDbEntity
  8
1_ANYTOOL_1MMDEEP_LABELS_S
100
AcDbVertex
100
AcDb2dVertex
 10
91.99335937497963
 20
0.2901227678594296
 30
0.0
  0
VERTEX
  5
73
330
6E
100
AcDbEntity
  8
1_ANYTOOL_1MMDEEP_LABELS_S
100
AcDbVertex
100
AcDb2dVertex
 10
92.16943359372965
 20
0.2710797991094296
 30
0.0
  0
VERTEX
  5
74
330
6E
100
AcDbEntity
  8
1_ANYTOOL_1MMDEEP_LABELS_S
100
AcDbVertex
100
AcDb2dVertex
 10
92.34374999997965
 20
0.2491071428594296
 30
0.0
  0
VERTEX
  5
75
330
6E
100
AcDbEntity
  8
1_ANYTOOL_1MMDEEP_LABELS_S
100
AcDbVertex
100
AcDb2dVertex
 10
92.51630859372966
 20
0.2242047991094296
 30
0.0
  0
VERTEX
  5
76
330
6E
100
AcDbEntity
  8
1_ANYTOOL_1MMDEEP_LABELS_S
100
AcDbVertex
100
AcDb2dVertex
 10
92.68710937497966
 20
0.1963727678594296
 30
0.0
  0
VERTEX
  5
77
330
6E
100
AcDbEntity
  8
1_ANYTOOL_1MMDEEP_LABELS_S
100
AcDbVertex
100
AcDb2dVertex
 10
92.85615234372966
 20
0.1656110491094296
 30
0.0
  0
VERTEX
  5
78
330
6E
100
AcDbEntity
  8
1_ANYTOOL_1MMDEEP_LABELS_S
100
AcDbVertex
100
AcDb2dVertex
 10
93.02343749997968
 20
0.1319196428594296
 30
0.0
  0
VERTEX
  5
79
330
6E
100
AcDbEntity
  8
1_ANYTOOL_1MMDEEP_LABELS_S
100
AcDbVertex
100
AcDb2dVertex
 10
93.18896484372969
 20
0.0952985491094296
 30
0.0
  0
VERTEX
  5
7A
330
6E
100
AcDbEntity
  8
1_ANYTOOL_1MMDEEP_LABELS_S
100
AcDbVertex
100
AcDb2dVertex
 10
93.35273437497969
 20
0.0557477678594296
 30
0.0
  0
VERTEX
  5
7B
330
6E
100
AcDbEntity
  8
1_ANYTOOL_1MMDEEP_LABELS_S
100
AcDbVertex
100
AcDb2dVertex
 10
93.51474609372971
 20
0.0132672991094296
 30
0.0
  0
VERTEX
  5
7C
330
6E
100
AcDbEntity
  8
1_ANYTOOL_1MMDEEP_LABELS_S
100
AcDbVertex
100
AcDb2dVertex
 10
93.67499999997972
 20
-0.0321428571405704
 30
0.0
  0
VERTEX
  5
7D
330
6E
100
AcDbEntity
  8
1_ANYTOOL_1MMDEEP_LABELS_S
100
AcDbVertex
100
AcDb2dVertex
 10
93.83349609372974
 20
-0.0804827008905704
 30
0.0
  0
VERTEX
  5
7E
330
6E
100
AcDbEntity
  8
1_ANYTOOL_1MMDEEP_LABELS_S
100
AcDbVertex
100
AcDb2dVertex
 10
93.99023437497974
 20
-0.1317522321405704
 30
0.0
  0
VERTEX
  5
7F
330
6E
100
AcDbEntity
  8
1_ANYTOOL_1MMDEEP_LABELS_S
100
AcDbVertex
100
AcDb2dVertex
 10
94.14521484372976
 20
-0.1859514508905704
 30
0.0
  0
VERTEX
  5
80
330
6E
100
AcDbEntity
  8
1_ANYTOOL_1MMDEEP_LABELS_S
100
AcDbVertex
100
AcDb2dVertex
 10
94.29843749997977
 20
-0.2430803571405704
 30
0.0
  0
VERTEX
  5
81
330
6E
100
AcDbEntity
  8
1_ANYTOOL_1MMDEEP_LABELS_S
100
AcDbVertex
100
AcDb2dVertex
 10
94.44990234372978
 20
-0.3031389508905704
 30
0.0
  0
VERTEX
  5
82
330
6E
100
AcDbEntity
  8
1_ANYTOOL_1MMDEEP_LABELS_S
100
AcDbVertex
100
AcDb2dVertex
 10
94.59960937497979
 20
-0.3661272321405704
 30
0.0
  0
VERTEX
  5
83
330
6E
100
AcDbEntity
  8
1_ANYTOOL_1MMDEEP_LABELS_S
100
AcDbVertex
100
AcDb2dVertex
 10
94.74755859372982
 20
-0.4320452008905704
 30
0.0
  0
VERTEX
  5
84
330
6E
100
AcDbEntity
  8
1_ANYTOOL_1MMDEEP_LABELS_S
100
AcDbVertex
100
AcDb2dVertex
 10
94.89374999997983
 20
-0.5008928571405704
 30
0.0
  0
VERTEX
  5
85
330
6E
100
AcDbEntity
  8
1_ANYTOOL_1MMDEEP_LABELS_S
100
AcDbVertex
100
AcDb2dVertex
 10
95.03818359372985
 20
-0.5726702008905704
 30
0.0
  0
VERTEX
  5
86
330
6E
100
AcDbEntity
  8
1_ANYTOOL_1MMDEEP_LABELS_S
100
AcDbVertex
100
AcDb2dVertex
 10
95.18085937497986
 20
-0.6473772321405704
 30
0.0
  0
VERTEX
  5
87
330
6E
100
AcDbEntity
  8
1_ANYTOOL_1MMDEEP_LABELS_S
100
AcDbVertex
100
AcDb2dVertex
 10
95.32177734372988
 20
-0.7250139508905704
 30
0.0
  0
VERTEX
  5
88
330
6E
100
AcDbEntity
  8
1_ANYTOOL_1MMDEEP_LABELS_S
100
AcDbVertex
100
AcDb2dVertex
 10
95.4609374999799
 20
-0.8055803571405704
 30
0.0
  0
VERTEX
  5
89
330
6E
100
AcDbEntity
  8
1_ANYTOOL_1MMDEEP_LABELS_S
100
AcDbVertex
100
AcDb2dVertex
 10
95.59833984372993
 20
-0.8890764508905704
 30
0.0
  0
VERTEX
  5
8A
330
6E
100
AcDbEntity
  8
1_ANYTOOL_1MMDEEP_LABELS_S
100
AcDbVertex
100
AcDb2dVertex
 10
95.73398437497994
 20
-0.9755022321405704
 30
0.0
  0
VERTEX
  5
8B
330
6E
100
AcDbEntity
  8
1_ANYTOOL_1MMDEEP_LABELS_S
100
AcDbVertex
100
AcDb2dVertex
 10
95.86787109372997
 20
-1.06485770089057
 30
0.0
  0
VERTEX
  5
8C
330
6E
100
AcDbEntity
  8
1_ANYTOOL_1MMDEEP_LABELS_S
100
AcDbVertex
100
AcDb2dVertex
 10
96.2594866071229
 20
-1.342466517854945
 30
0.0
  0
VERTEX
  5
8D
330
6E
100
AcDbEntity
  8
1_ANYTOOL_1MMDEEP_LABELS_S
100
AcDbVertex
100
AcDb2dVertex
 10
96.5129464285515
 20
-1.534151785712197
 30
0.0
  0
VERTEX
  5
8E
330
6E
100
AcDbEntity
  8
1_ANYTOOL_1MMDEEP_LABELS_S
100
AcDbVertex
100
AcDb2dVertex
 10
96.76037946426581
 20
-1.732198660712328
 30
0.0
  0
VERTEX
  5
8F
330
6E
100
AcDbEntity
  8
1_ANYTOOL_1MMDEEP_LABELS_S
100
AcDbVertex
100
AcDb2dVertex
 10
97.00178571426585
 20
-1.936607142855337
 30
0.0
  0
VERTEX
  5
90
330
6E
100
AcDbEntity
  8
1_ANYTOOL_1MMDEEP_LABELS_S
100
AcDbVertex
100
AcDb2dVertex
 10
97.23716517855158
 20
-2.147377232141224
 30
0.0
  0
VERTEX
  5
91
330
6E
100
AcDbEntity
  8
1_ANYTOOL_1MMDEEP_LABELS_S
100
AcDbVertex
100
AcDb2dVertex
 10
97.46651785712304
 20
-2.36450892856999
 30
0.0
  0
VERTEX
  5
92
330
6E
100
AcDbEntity
  8
1_ANYTOOL_1MMDEEP_LABELS_S
100
AcDbVertex
100
AcDb2dVertex
 10
97.6898437499802
 20
-2.588002232141633
 30
0.0
  0
VERTEX
  5
93
330
6E
100
AcDbEntity
  8
1_ANYTOOL_1MMDEEP_LABELS_S
100
AcDbVertex
100
AcDb2dVertex
 10
97.90714285712306
 20
-2.817857142856155
 30
0.0
  0
VERTEX
  5
94
330
6E
100
AcDbEntity
  8
1_ANYTOOL_1MMDEEP_LABELS_S
100
AcDbVertex
100
AcDb2dVertex
 10
98.11841517855164
 20
-3.054073660713556
 30
0.0
  0
VERTEX
  5
95
330
6E
100
AcDbEntity
  8
1_ANYTOOL_1MMDEEP_LABELS_S
100
AcDbVertex
100
AcDb2dVertex
 10
98.32366071426593
 20
-3.296651785713834
 30
0.0
  0
VERTEX
  5
96
330
6E
100
AcDbEntity
  8
1_ANYTOOL_1MMDEEP_LABELS_S
100
AcDbVertex
100
AcDb2dVertex
 10
98.52287946426591
 20
-3.545591517856991
 30
0.0
  0
VERTEX
  5
97
330
6E
100
AcDbEntity
  8
1_ANYTOOL_1MMDEEP_LABELS_S
100
AcDbVertex
100
AcDb2dVertex
 10
98.71607142855163
 20
-3.800892857143026
 30
0.0
  0
VERTEX
  5
98
330
6E
100
AcDbEntity
  8
1_ANYTOOL_1MMDEEP_LABELS_S
100
AcDbVertex
100
AcDb2dVertex
 10
98.90323660712303
 20
-4.062555803571939
 30
0.0
  0
VERTEX
  5
99
330
6E
100
AcDbEntity
  8
1_ANYTOOL_1MMDEEP_LABELS_S
100
AcDbVertex
100
AcDb2dVertex
 10
99.08437499998017
 20
-4.330580357143731
 30
0.0
  0
VERTEX
  5
9A
330
6E
100
AcDbEntity
  8
1_ANYTOOL_1MMDEEP_LABELS_S
100
AcDbVertex
100
AcDb2dVertex
 10
99.25948660712301
 20
-4.604966517858401
 30
0.0
  0
VERTEX
  5
9B
330
6E
100
AcDbEntity
  8
1_ANYTOOL_1MMDEEP_LABELS_S
100
AcDbVertex
100
AcDb2dVertex
 10
99.59698660712299
 20
-5.171484375001199
 30
0.0
  0
VERTEX
  5
9C
330
6E
100
AcDbEntity
  8
1_ANYTOOL_1MMDEEP_LABELS_S
100
AcDbVertex
100
AcDb2dVertex
 10
99.75937499998012
 20
-5.460937500000796
 30
0.0
  0
VERTEX
  5
9D
330
6E
100
AcDbEntity
  8
1_ANYTOOL_1MMDEEP_LABELS_S
100
AcDbVertex
100
AcDb2dVertex
 10
99.91573660712297
 20
-5.754073660714738
 30
0.0
  0
VERTEX
  5
9E
330
6E
100
AcDbEntity
  8
1_ANYTOOL_1MMDEEP_LABELS_S
100
AcDbVertex
100
AcDb2dVertex
 10
100.0660714285515
 20
-6.050892857143026
 30
0.0
  0
VERTEX
  5
9F
330
6E
100
AcDbEntity
  8
1_ANYTOOL_1MMDEEP_LABELS_S
100
AcDbVertex
100
AcDb2dVertex
 10
100.2103794642658
 20
-6.35139508928566
 30
0.0
  0
VERTEX
  5
A0
330
6E
100
AcDbEntity
  8
1_ANYTOOL_1MMDEEP_LABELS_S
100
AcDbVertex
100
AcDb2dVertex
 10
100.3486607142658
 20
-6.65558035714264
 30
0.0
  0
VERTEX
  5
A1
330
6E
100
AcDbEntity
  8
1_ANYTOOL_1MMDEEP_LABELS_S
100
AcDbVertex
100
AcDb2dVertex
 10
100.4809151785515
 20
-6.963448660713965
 30
0.0
  0
VERTEX
  5
A2
330
6E
100
AcDbEntity
  8
1_ANYTOOL_1MMDEEP_LABELS_S
100
AcDbVertex
100
AcDb2dVertex
 10
100.6071428571229
 20
-7.274999999999636
 30
0.0
  0
VERTEX
  5
A3
330
6E
100
AcDbEntity
  8
1_ANYTOOL_1MMDEEP_LABELS_S
100
AcDbVertex
100
AcDb2dVertex
 10
100.72734374998
 20
-7.590234374999653
 30
0.0
  0
VERTEX
  5
A4
330
6E
100
AcDbEntity
  8
1_ANYTOOL_1MMDEEP_LABELS_S
100
AcDbVertex
100
AcDb2dVertex
 10
100.8415178571228
 20
-7.909151785714016
 30
0.0
  0
VERTEX
  5
A5
330
6E
100
AcDbEntity
  8
1_ANYTOOL_1MMDEEP_LABELS_S
100
AcDbVertex
100
AcDb2dVertex
 10
100.9496651785513
 20
-8.231752232142725
 30
0.0
  0
VERTEX
  5
A6
330
6E
100
AcDbEntity
  8
1_ANYTOOL_1MMDEEP_LABELS_S
100
AcDbVertex
100
AcDb2dVertex
 10
101.0517857142656
 20
-8.55803571428578
 30
0.0
  0
VERTEX
  5
A7
330
6E
100
AcDbEntity
  8
1_ANYTOOL_1MMDEEP_LABELS_S
100
AcDbVertex
100
AcDb2dVertex
 10
101.1478794642655
 20
-8.88800223214318
 30
0.0
  0
VERTEX
  5
A8
330
6E
100
AcDbEntity
  8
1_ANYTOOL_1MMDEEP_LABELS_S
100
AcDbVertex
100
AcDb2dVertex
 10
101.2379464285512
 20
-9.221651785714926
 30
0.0
  0
VERTEX
  5
A9
330
6E
100
AcDbEntity
  8
1_ANYTOOL_1MMDEEP_LABELS_S
100
AcDbVertex
100
AcDb2dVertex
 10
101.3219866071226
 20
-9.558984375001017
 30
0.0
  0
VERTEX
  5
AA
330
6E
100
AcDbEntity
  8
1_ANYTOOL_1MMDEEP_LABELS_S
100
AcDbVertex
100
AcDb2dVertex
 10
101.5506696428369
 20
-10.58236607142919
 30
0.0
  0
VERTEX
  5
AB
330
6E
100
AcDbEntity
  8
1_ANYTOOL_1MMDEEP_LABELS_S
100
AcDbVertex
100
AcDb2dVertex
 10
101.6812499999799
 20
-11.2580357142856
 30
0.0
  0
VERTEX
  5
AC
330
6E
100
AcDbEntity
  8
1_ANYTOOL_1MMDEEP_LABELS_S
100
AcDbVertex
100
AcDb2dVertex
 10
101.7917410714086
 20
-11.92700892857067
 30
0.0
  0
VERTEX
  5
AD
330
6E
100
AcDbEntity
  8
1_ANYTOOL_1MMDEEP_LABELS_S
100
AcDbVertex
100
AcDb2dVertex
 10
101.882142857123
 20
-12.58928571428442
 30
0.0
  0
VERTEX
  5
AE
330
6E
100
AcDbEntity
  8
1_ANYTOOL_1MMDEEP_LABELS_S
100
AcDbVertex
100
AcDb2dVertex
 10
101.952455357123
 20
-13.24486607142683
 30
0.0
  0
VERTEX
  5
AF
330
6E
100
AcDbEntity
  8
1_ANYTOOL_1MMDEEP_LABELS_S
100
AcDbVertex
100
AcDb2dVertex
 10
102.0026785714088
 20
-13.89374999999791
 30
0.0
  0
VERTEX
  5
B0
330
6E
100
AcDbEntity
  8
1_ANYTOOL_1MMDEEP_LABELS_S
100
AcDbVertex
100
AcDb2dVertex
 10
102.0328124999803
 20
-14.53593749999766
 30
0.0
  0
VERTEX
  5
B1
330
6E
100
AcDbEntity
  8
1_ANYTOOL_1MMDEEP_LABELS_S
100
AcDbVertex
100
AcDb2dVertex
 10
102.0428571428374
 20
-15.17142857142608
 30
0.0
  0
VERTEX
  5
B2
330
6E
100
AcDbEntity
  8
1_ANYTOOL_1MMDEEP_LABELS_S
100
AcDbVertex
100
AcDb2dVertex
 10
102.0319754464089
 20
-15.80892857142678
 30
0.0
  0
VERTEX
  5
B3
330
6E
100
AcDbEntity
  8
1_ANYTOOL_1MMDEEP_LABELS_S
100
AcDbVertex
100
AcDb2dVertex
 10
101.9993303571231
 20
-16.44642857142742
 30
0.0
  0
VERTEX
  5
B4
330
6E
100
AcDbEntity
  8
1_ANYTOOL_1MMDEEP_LABELS_S
100
AcDbVertex
100
AcDb2dVertex
 10
101.9449218749803
 20
-17.083928571428
 30
0.0
  0
VERTEX
  5
B5
330
6E
100
AcDbEntity
  8
1_ANYTOOL_1MMDEEP_LABELS_S
100
AcDbVertex
100
AcDb2dVertex
 10
101.8687499999803
 20
-17.72142857142853
 30
0.0
  0
VERTEX
  5
B6
330
6E
100
AcDbEntity
  8
1_ANYTOOL_1MMDEEP_LABELS_S
100
AcDbVertex
100
AcDb2dVertex
 10
101.7708147321231
 20
-18.358928571429
 30
0.0
  0
VERTEX
  5
B7
330
6E
100
AcDbEntity
  8
1_ANYTOOL_1MMDEEP_LABELS_S
100
AcDbVertex
100
AcDb2dVertex
 10
101.6511160714088
 20
-18.99642857142942
 30
0.0
  0
VERTEX
  5
B8
330
6E
100
AcDbEntity
  8
1_ANYTOOL_1MMDEEP_LABELS_S
100
AcDbVertex
100
AcDb2dVertex
 10
101.5096540178373
 20
-19.63392857142978
 30
0.0
  0
VERTEX
  5
B9
330
6E
100
AcDbEntity
  8
1_ANYTOOL_1MMDEEP_LABELS_S
100
AcDbVertex
100
AcDb2dVertex
 10
101.3464285714088
 20
-20.27142857143008
 30
0.0
  0
VERTEX
  5
BA
330
6E
100
AcDbEntity
  8
1_ANYTOOL_1MMDEEP_LABELS_S
100
AcDbVertex
100
AcDb2dVertex
 10
101.161439732123
 20
-20.90892857143032
 30
0.0
  0
VERTEX
  5
BB
330
6E
100
AcDbEntity
  8
1_ANYTOOL_1MMDEEP_LABELS_S
100
AcDbVertex
100
AcDb2dVertex
 10
100.9546874999801
 20
-21.54642857143051
 30
0.0
  0
VERTEX
  5
BC
330
6E
100
AcDbEntity
  8
1_ANYTOOL_1MMDEEP_LABELS_S
100
AcDbVertex
100
AcDb2dVertex
 10
100.7261718749801
 20
-22.18392857143064
 30
0.0
  0
VERTEX
  5
BD
330
6E
100
AcDbEntity
  8
1_ANYTOOL_1MMDEEP_LABELS_S
100
AcDbVertex
100
AcDb2dVertex
 10
100.4758928571229
 20
-22.82142857143072
 30
0.0
  0
VERTEX
  5
BE
330
6E
100
AcDbEntity
  8
1_ANYTOOL_1MMDEEP_LABELS_S
100
AcDbVertex
100
AcDb2dVertex
 10
100.2038504464086
 20
-23.45892857143073
 30
0.0
  0
VERTEX
  5
BF
330
6E
100
AcDbEntity
  8
1_ANYTOOL_1MMDEEP_LABELS_S
100
AcDbVertex
100
AcDb2dVertex
 10
99.91004464283712
 20
-24.09642857143069
 30
0.0
  0
VERTEX
  5
C0
330
6E
100
AcDbEntity
  8
1_ANYTOOL_1MMDEEP_LABELS_S
100
AcDbVertex
100
AcDb2dVertex
 10
99.59447544640851
 20
-24.7339285714306
 30
0.0
  0
VERTEX
  5
C1
330
6E
100
AcDbEntity
  8
1_ANYTOOL_1MMDEEP_LABELS_S
100
AcDbVertex
100
AcDb2dVertex
 10
99.25714285712274
 20
-25.37142857143044
 30
0.0
  0
VERTEX
  5
C2
330
6E
100
AcDbEntity
  8
1_ANYTOOL_1MMDEEP_LABELS_S
100
AcDbVertex
100
AcDb2dVertex
 10
99.0825753348013
 20
-25.68519810268035
 30
0.0
  0
VERTEX
  5
C3
330
6E
100
AcDbEntity
  8
1_ANYTOOL_1MMDEEP_LABELS_S
100
AcDbVertex
100
AcDb2dVertex
 10
98.90172991069416
 20
-25.98900669643027
 30
0.0
  0
VERTEX
  5
C4
330
6E
100
AcDbEntity
  8
1_ANYTOOL_1MMDEEP_LABELS_S
100
AcDbVertex
100
AcDb2dVertex
 10
98.7146065848013
 20
-26.28285435268018
 30
0.0
  0
VERTEX
  5
C5
330
6E
100
AcDbEntity
  8
1_ANYTOOL_1MMDEEP_LABELS_S
100
AcDbVertex
100
AcDb2dVertex
 10
98.52120535712272
 20
-26.5667410714301
 30
0.0
  0
VERTEX
  5
C6
330
6E
100
AcDbEntity
  8
1_ANYTOOL_1MMDEEP_LABELS_S
100
AcDbVertex
100
AcDb2dVertex
 10
98.32152622765844
 20
-26.84066685268002
 30
0.0
  0
VERTEX
  5
C7
330
6E
100
AcDbEntity
  8
1_ANYTOOL_1MMDEEP_LABELS_S
100
AcDbVertex
100
AcDb2dVertex
 10
98.11556919640844
 20
-27.10463169642995
 30
0.0
  0
VERTEX
  5
C8
330
6E
100
AcDbEntity
  8
1_ANYTOOL_1MMDEEP_LABELS_S
100
AcDbVertex
100
AcDb2dVertex
 10
97.90333426337273
 20
-27.35863560267988
 30
0.0
  0
VERTEX
  5
C9
330
6E
100
AcDbEntity
  8
1_ANYTOOL_1MMDEEP_LABELS_S
100
AcDbVertex
100
AcDb2dVertex
 10
97.68482142855129
 20
-27.60267857142981
 30
0.0
  0
VERTEX
  5
CA
330
6E
100
AcDbEntity
  8
1_ANYTOOL_1MMDEEP_LABELS_S
100
AcDbVertex
100
AcDb2dVertex
 10
97.57321079797092
 20
-27.72096470424227
 30
0.0
  0
VERTEX
  5
CB
330
6E
100
AcDbEntity
  8
1_ANYTOOL_1MMDEEP_LABELS_S
100
AcDbVertex
100
AcDb2dVertex
 10
97.46003069194414
 20
-27.83676060267974
 30
0.0
  0
VERTEX
  5
CC
330
6E
100
AcDbEntity
  8
1_ANYTOOL_1MMDEEP_LABELS_S
100
AcDbVertex
100
AcDb2dVertex
 10
97.34528111047094
 20
-27.9500662667422
 30
0.0
  0
VERTEX
  5
CD
330
6E
100
AcDbEntity
  8
1_ANYTOOL_1MMDEEP_LABELS_S
100
AcDbVertex
100
AcDb2dVertex
 10
97.2289620535513
 20
-28.06088169642968
 30
0.0
  0
VERTEX
  5
CE
330
6E
100
AcDbEntity
  8
1_ANYTOOL_1MMDEEP_LABELS_S
100
AcDbVertex
100
AcDb2dVertex
 10
97.11107352118523
 20
-28.16920689174214
 30
0.0
  0
VERTEX
  5
CF
330
6E
100
AcDbEntity
  8
1_ANYTOOL_1MMDEEP_LABELS_S
100
AcDbVertex
100
AcDb2dVertex
 10
96.99161551337272
 20
-28.27504185267961
 30
0.0
  0
VERTEX
  5
D0
330
6E
100
AcDbEntity
  8
1_ANYTOOL_1MMDEEP_LABELS_S
100
AcDbVertex
100
AcDb2dVertex
 10
96.8705880301138
 20
-28.37838657924208
 30
0.0
  0
VERTEX
  5
D1
330
6E
100
AcDbEntity
  8
1_ANYTOOL_1MMDEEP_LABELS_S
100
AcDbVertex
100
AcDb2dVertex
 10
96.74799107140844
 20
-28.47924107142956
 30
0.0
  0
VERTEX
  5
D2
330
6E
100
AcDbEntity
  8
1_ANYTOOL_1MMDEEP_LABELS_S
100
AcDbVertex
100
AcDb2dVertex
 10
96.62382463725663
 20
-28.57760532924203
 30
0.0
  0
VERTEX
  5
D3
330
6E
100
AcDbEntity
  8
1_ANYTOOL_1MMDEEP_LABELS_S
100
AcDbVertex
100
AcDb2dVertex
 10
96.49808872765843
 20
-28.6734793526795
 30
0.0
  0
VERTEX
  5
D4
330
6E
100
AcDbEntity
  8
1_ANYTOOL_1MMDEEP_LABELS_S
100
AcDbVertex
100
AcDb2dVertex
 10
96.37078334261378
 20
-28.76686314174197
 30
0.0
  0
VERTEX
  5
D5
330
6E
100
AcDbEntity
  8
1_ANYTOOL_1MMDEEP_LABELS_S
100
AcDbVertex
100
AcDb2dVertex
 10
96.24190848212272
 20
-28.85775669642945
 30
0.0
  0
VERTEX
  5
D6
330
6E
100
AcDbEntity
  8
1_ANYTOOL_1MMDEEP_LABELS_S
100
AcDbVertex
100
AcDb2dVertex
 10
96.11146414618523
 20
-28.94616001674192
 30
0.0
  0
VERTEX
  5
D7
330
6E
100
AcDbEntity
  8
1_ANYTOOL_1MMDEEP_LABELS_S
100
AcDbVertex
100
AcDb2dVertex
 10
95.9794503348013
 20
-29.0320731026794
 30
0.0
  0
VERTEX
  5
D8
330
6E
100
AcDbEntity
  8
1_ANYTOOL_1MMDEEP_LABELS_S
100
AcDbVertex
100
AcDb2dVertex
 10
95.84586704797096
 20
-29.11549595424187
 30
0.0
  0
VERTEX
  5
D9
330
6E
100
AcDbEntity
  8
1_ANYTOOL_1MMDEEP_LABELS_S
100
AcDbVertex
100
AcDb2dVertex
 10
95.71071428569417
 20
-29.19642857142935
 30
0.0
  0
VERTEX
  5
DA
330
6E
100
AcDbEntity
  8
1_ANYTOOL_1MMDEEP_LABELS_S
100
AcDbVertex
100
AcDb2dVertex
 10
95.57399204797095
 20
-29.27487095424183
 30
0.0
  0
VERTEX
  5
DB
330
6E
100
AcDbEntity
  8
1_ANYTOOL_1MMDEEP_LABELS_S
100
AcDbVertex
100
AcDb2dVertex
 10
95.43570033480131
 20
-29.35082310267931
 30
0.0
  0
VERTEX
  5
DC
330
6E
100
AcDbEntity
  8
1_ANYTOOL_1MMDEEP_LABELS_S
100
AcDbVertex
100
AcDb2dVertex
 10
95.29583914618524
 20
-29.42428501674178
 30
0.0
  0
VERTEX
  5
DD
330
6E
100
AcDbEntity
  8
1_ANYTOOL_1MMDEEP_LABELS_S
100
AcDbVertex
100
AcDb2dVertex
 10
95.15440848212275
 20
-29.49525669642927
 30
0.0
  0
VERTEX
  5
DE
330
6E
100
AcDbEntity
  8
1_ANYTOOL_1MMDEEP_LABELS_S
100
AcDbVertex
100
AcDb2dVertex
 10
95.01140834261382
 20
-29.56373814174174
 30
0.0
  0
VERTEX
  5
DF
330
6E
100
AcDbEntity
  8
1_ANYTOOL_1MMDEEP_LABELS_S
100
AcDbVertex
100
AcDb2dVertex
 10
94.86683872765846
 20
-29.62972935267923
 30
0.0
  0
VERTEX
  5
E0
330
6E
100
AcDbEntity
  8
1_ANYTOOL_1MMDEEP_LABELS_S
100
AcDbVertex
100
AcDb2dVertex
 10
94.72069963725669
 20
-29.69323032924171
 30
0.0
  0
VERTEX
  5
E1
330
6E
100
AcDbEntity
  8
1_ANYTOOL_1MMDEEP_LABELS_S
100
AcDbVertex
100
AcDb2dVertex
 10
94.57299107140848
 20
-29.75424107142919
 30
0.0
  0
VERTEX
  5
E2
330
6E
100
AcDbEntity
  8
1_ANYTOOL_1MMDEEP_LABELS_S
100
AcDbVertex
100
AcDb2dVertex
 10
94.42371303011384
 20
-29.81276157924167
 30
0.0
  0
VERTEX
  5
E3
330
6E
100
AcDbEntity
  8
1_ANYTOOL_1MMDEEP_LABELS_S
100
AcDbVertex
100
AcDb2dVertex
 10
94.27286551337278
 20
-29.86879185267916
 30
0.0
  0
VERTEX
  5
E4
330
6E
100
AcDbEntity
  8
1_ANYTOOL_1MMDEEP_LABELS_S
100
AcDbVertex
100
AcDb2dVertex
 10
94.12044852118528
 20
-29.92233189174164
 30
0.0
  0
VERTEX
  5
E5
330
6E
100
AcDbEntity
  8
1_ANYTOOL_1MMDEEP_LABELS_S
100
AcDbVertex
100
AcDb2dVertex
 10
93.96646205355137
 20
-29.97338169642913
 30
0.0
  0
VERTEX
  5
E6
330
6E
100
AcDbEntity
  8
1_ANYTOOL_1MMDEEP_LABELS_S
100
AcDbVertex
100
AcDb2dVertex
 10
93.65378069194422
 20
-30.0680106026791
 30
0.0
  0
VERTEX
  5
E7
330
6E
100
AcDbEntity
  8
1_ANYTOOL_1MMDEEP_LABELS_S
100
AcDbVertex
100
AcDb2dVertex
 10
93.33482142855138
 20
-30.15267857142908
 30
0.0
  0
VERTEX
  5
E8
330
6E
100
AcDbEntity
  8
1_ANYTOOL_1MMDEEP_LABELS_S
100
AcDbVertex
100
AcDb2dVertex
 10
93.00958426337283
 20
-30.22738560267906
 30
0.0
  0
VERTEX
  5
E9
330
6E
100
AcDbEntity
  8
1_ANYTOOL_1MMDEEP_LABELS_S
100
AcDbVertex
100
AcDb2dVertex
 10
92.67806919640856
 20
-30.29213169642904
 30
0.0
  0
VERTEX
  5
EA
330
6E
100
AcDbEntity
  8
1_ANYTOOL_1MMDEEP_LABELS_S
100
AcDbVertex
100
AcDb2dVertex
 10
92.34027622765856
 20
-30.34691685267902
 30
0.0
  0
VERTEX
  5
EB
330
6E
100
AcDbEntity
  8
1_ANYTOOL_1MMDEEP_LABELS_S
100
AcDbVertex
100
AcDb2dVertex
 10
91.99620535712286
 20
-30.39174107142901
 30
0.0
  0
VERTEX
  5
EC
330
6E
100
AcDbEntity
  8
1_ANYTOOL_1MMDEEP_LABELS_S
100
AcDbVertex
100
AcDb2dVertex
 10
91.64585658480145
 20
-30.426604352679
 30
0.0
  0
VERTEX
  5
ED
330
6E
100
AcDbEntity
  8
1_ANYTOOL_1MMDEEP_LABELS_S
100
AcDbVertex
100
AcDb2dVertex
 10
91.28922991069432
 20
-30.45150669642899
 30
0.0
  0
VERTEX
  5
EE
330
6E
100
AcDbEntity
  8
1_ANYTOOL_1MMDEEP_LABELS_S
100
AcDbVertex
100
AcDb2dVertex
 10
90.92632533480148
 20
-30.46644810267899
 30
0.0
  0
VERTEX
  5
EF
330
6E
100
AcDbEntity
  8
1_ANYTOOL_1MMDEEP_LABELS_S
100
AcDbVertex
100
AcDb2dVertex
 10
90.55714285712293
 20
-30.47142857142899
 30
0.0
  0
VERTEX
  5
F0
330
6E
100
AcDbEntity
  8
1_ANYTOOL_1MMDEEP_LABELS_S
100
AcDbVertex
100
AcDb2dVertex
 10
90.17473493301577
 20
-30.46636439732185
 30
0.0
  0
VERTEX
  5
F1
330
6E
100
AcDbEntity
  8
1_ANYTOOL_1MMDEEP_LABELS_S
100
AcDbVertex
100
AcDb2dVertex
 10
89.7989397321229
 20
-30.45117187500043
 30
0.0
  0
VERTEX
  5
F2
330
6E
100
AcDbEntity
  8
1_ANYTOOL_1MMDEEP_LABELS_S
100
AcDbVertex
100
AcDb2dVertex
 10
89.42975725444433
 20
-30.42585100446473
 30
0.0
  0
VERTEX
  5
F3
330
6E
100
AcDbEntity
  8
1_ANYTOOL_1MMDEEP_LABELS_S
100
AcDbVertex
100
AcDb2dVertex
 10
89.06718749998002
 20
-30.39040178571474
 30
0.0
  0
VERTEX
  5
F4
330
6E
100
AcDbEntity
  8
1_ANYTOOL_1MMDEEP_LABELS_S
100
AcDbVertex
100
AcDb2dVertex
 10
88.71123046873001
 20
-30.34482421875048
 30
0.0
  0
VERTEX
  5
F5
330
6E
100
AcDbEntity
  8
1_ANYTOOL_1MMDEEP_LABELS_S
100
AcDbVertex
100
AcDb2dVertex
 10
88.3618861606943
 20
-30.28911830357194
 30
0.0
  0
VERTEX
  5
F6
330
6E
100
AcDbEntity
  8
1_ANYTOOL_1MMDEEP_LABELS_S
100
AcDbVertex
100
AcDb2dVertex
 10
88.01915457587286
 20
-30.22328404017912
 30
0.0
  0
VERTEX
  5
F7
330
6E
100
AcDbEntity
  8
1_ANYTOOL_1MMDEEP_LABELS_S
100
AcDbVertex
100
AcDb2dVertex
 10
87.68303571426571
 20
-30.14732142857201
 30
0.0
  0
VERTEX
  5
F8
330
6E
100
AcDbEntity
  8
1_ANYTOOL_1MMDEEP_LABELS_S
100
AcDbVertex
100
AcDb2dVertex
 10
87.35352957587286
 20
-30.06123046875063
 30
0.0
  0
VERTEX
  5
F9
330
6E
100
AcDbEntity
  8
1_ANYTOOL_1MMDEEP_LABELS_S
100
AcDbVertex
100
AcDb2dVertex
 10
87.03063616069429
 20
-29.96501116071497
 30
0.0
  0
VERTEX
  5
FA
330
6E
100
AcDbEntity
  8
1_ANYTOOL_1MMDEEP_LABELS_S
100
AcDbVertex
100
AcDb2dVertex
 10
86.87166922431035
 20
-29.91310337611678
 30
0.0
  0
VERTEX
  5
FB
330
6E
100
AcDbEntity
  8
1_ANYTOOL_1MMDEEP_LABELS_S
100
AcDbVertex
100
AcDb2dVertex
 10
86.71435546872999
 20
-29.85866350446502
 30
0.0
  0
VERTEX
  5
FC
330
6E
100
AcDbEntity
  8
1_ANYTOOL_1MMDEEP_LABELS_S
100
AcDbVertex
100
AcDb2dVertex
 10
86.5586948939532
 20
-29.8016915457597
 30
0.0
  0
VERTEX
  5
FD
330
6E
100
AcDbEntity
  8
1_ANYTOOL_1MMDEEP_LABELS_S
100
AcDbVertex
100
AcDb2dVertex
 10
86.40468749998
 20
-29.7421875000008
 30
0.0
  0
VERTEX
  5
FE
330
6E
100
AcDbEntity
  8
1_ANYTOOL_1MMDEEP_LABELS_S
100
AcDbVertex
100
AcDb2dVertex
 10
86.25233328681037
 20
-29.68015136718833
 30
0.0
  0
VERTEX
  5
FF
330
6E
100
AcDbEntity
  8
1_ANYTOOL_1MMDEEP_LABELS_S
100
AcDbVertex
100
AcDb2dVertex
 10
86.1016322544443
 20
-29.61558314732229
 30
0.0
  0
VERTEX
  5
100
330
6E
100
AcDbEntity
  8
1_ANYTOOL_1MMDEEP_LABELS_S
100
AcDbVertex
100
AcDb2dVertex
 10
85.9525844028818
 20
-29.54848284040268
 30
0.0
  0
VERTEX
  5
101
330
6E
100
AcDbEntity
  8
1_ANYTOOL_1MMDEEP_LABELS_S
100
AcDbVertex
100
AcDb2dVertex
 10
85.80518973212287
 20
-29.4788504464295
 30
0.0
  0
VERTEX
  5
102
330
6E
100
AcDbEntity
  8
1_ANYTOOL_1MMDEEP_LABELS_S
100
AcDbVertex
100
AcDb2dVertex
 10
85.65944824216751
 20
-29.40668596540276
 30
0.0
  0
VERTEX
  5
103
330
6E
100
AcDbEntity
  8
1_ANYTOOL_1MMDEEP_LABELS_S
100
AcDbVertex
100
AcDb2dVertex
 10
85.51535993301573
 20
-29.33198939732244
 30
0.0
  0
VERTEX
  5
104
330
6E
100
AcDbEntity
  8
1_ANYTOOL_1MMDEEP_LABELS_S
100
AcDbVertex
100
AcDb2dVertex
 10
85.37292480466752
 20
-29.25476074218855
 30
0.0
  0
VERTEX
  5
105
330
6E
100
AcDbEntity
  8
1_ANYTOOL_1MMDEEP_LABELS_S
100
AcDbVertex
100
AcDb2dVertex
 10
85.23214285712288
 20
-29.17500000000109
 30
0.0
  0
VERTEX
  5
106
330
6E
100
AcDbEntity
  8
1_ANYTOOL_1MMDEEP_LABELS_S
100
AcDbVertex
100
AcDb2dVertex
 10
85.09301409038181
 20
-29.09270717076006
 30
0.0
  0
VERTEX
  5
107
330
6E
100
AcDbEntity
  8
1_ANYTOOL_1MMDEEP_LABELS_S
100
AcDbVertex
100
AcDb2dVertex
 10
84.95553850444432
 20
-29.00788225446546
 30
0.0
  0
VERTEX
  5
108
330
6E
100
AcDbEntity
  8
1_ANYTOOL_1MMDEEP_LABELS_S
100
AcDbVertex
100
AcDb2dVertex
 10
84.8197160993104
 20
-28.9205252511173
 30
0.0
  0
VERTEX
  5
109
330
6E
100
AcDbEntity
  8
1_ANYTOOL_1MMDEEP_LABELS_S
100
AcDbVertex
100
AcDb2dVertex
 10
84.68554687498005
 20
-28.83063616071556
 30
0.0
  0
VERTEX
  5
10A
330
6E
100
AcDbEntity
  8
1_ANYTOOL_1MMDEEP_LABELS_S
100
AcDbVertex
100
AcDb2dVertex
 10
84.55303083145327
 20
-28.73821498326025
 30
0.0
  0
VERTEX
  5
10B
330
6E
100
AcDbEntity
  8
1_ANYTOOL_1MMDEEP_LABELS_S
100
AcDbVertex
100
AcDb2dVertex
 10
84.42216796873007
 20
-28.64326171875137
 30
0.0
  0
VERTEX
  5
10C
330
6E
100
AcDbEntity
  8
1_ANYTOOL_1MMDEEP_LABELS_S
100
AcDbVertex
100
AcDb2dVertex
 10
84.29295828681042
 20
-28.54577636718892
 30
0.0
  0
VERTEX
  5
10D
330
6E
100
AcDbEntity
  8
1_ANYTOOL_1MMDEEP_LABELS_S
100
AcDbVertex
100
AcDb2dVertex
 10
84.16540178569436
 20
-28.4457589285729
 30
0.0
  0
VERTEX
  5
10E
330
6E
100
AcDbEntity
  8
1_ANYTOOL_1MMDEEP_LABELS_S
100
AcDbVertex
100
AcDb2dVertex
 10
84.03949846538187
 20
-28.34320940290331
 30
0.0
  0
VERTEX
  5
10F
330
6E
100
AcDbEntity
  8
1_ANYTOOL_1MMDEEP_LABELS_S
100
AcDbVertex
100
AcDb2dVertex
 10
83.91524832587294
 20
-28.23812779018015
 30
0.0
  0
VERTEX
  5
110
330
6E
100
AcDbEntity
  8
1_ANYTOOL_1MMDEEP_LABELS_S
100
AcDbVertex
100
AcDb2dVertex
 10
83.7926513671676
 20
-28.13051409040342
 30
0.0
  0
VERTEX
  5
111
330
6E
100
AcDbEntity
  8
1_ANYTOOL_1MMDEEP_LABELS_S
100
AcDbVertex
100
AcDb2dVertex
 10
83.67170758926582
 20
-28.02036830357312
 30
0.0
  0
VERTEX
  5
112
330
6E
100
AcDbEntity
  8
1_ANYTOOL_1MMDEEP_LABELS_S
100
AcDbVertex
100
AcDb2dVertex
 10
83.55241699216761
 20
-27.90769042968925
 30
0.0
  0
VERTEX
  5
113
330
6E
100
AcDbEntity
  8
1_ANYTOOL_1MMDEEP_LABELS_S
100
AcDbVertex
100
AcDb2dVertex
 10
83.43477957587298
 20
-27.79248046875181
 30
0.0
  0
VERTEX
  5
114
330
6E
100
AcDbEntity
  8
1_ANYTOOL_1MMDEEP_LABELS_S
100
AcDbVertex
100
AcDb2dVertex
 10
83.31879534038193
 20
-27.6747384207608
 30
0.0
  0
VERTEX
  5
115
330
6E
100
AcDbEntity
  8
1_ANYTOOL_1MMDEEP_LABELS_S
100
AcDbVertex
100
AcDb2dVertex
 10
83.20446428569443
 20
-27.55446428571622
 30
0.0
  0
VERTEX
  5
116
330
6E
100
AcDbEntity
  8
1_ANYTOOL_1MMDEEP_LABELS_S
100
AcDbVertex
100
AcDb2dVertex
 10
83.0917864118105
 20
-27.43165806361807
 30
0.0
  0
VERTEX
  5
117
330
6E
100
AcDbEntity
  8
1_ANYTOOL_1MMDEEP_LABELS_S
100
AcDbVertex
100
AcDb2dVertex
 10
82.98076171873016
 20
-27.30631975446635
 30
0.0
  0
VERTEX
  5
118
330
6E
100
AcDbEntity
  8
1_ANYTOOL_1MMDEEP_LABELS_S
100
AcDbVertex
100
AcDb2dVertex
 10
82.76367187498019
 20
-27.0480468750022
 30
0.0
  0
VERTEX
  5
119
330
6E
100
AcDbEntity
  8
1_ANYTOOL_1MMDEEP_LABELS_S
100
AcDbVertex
100
AcDb2dVertex
 10
82.55319475444449
 20
-26.77964564732377
 30
0.0
  0
VERTEX
  5
11A
330
6E
100
AcDbEntity
  8
1_ANYTOOL_1MMDEEP_LABELS_S
100
AcDbVertex
100
AcDb2dVertex
 10
82.3493303571231
 20
-26.50111607143106
 30
0.0
  0
VERTEX
  5
11B
330
6E
100
AcDbEntity
  8
1_ANYTOOL_1MMDEEP_LABELS_S
100
AcDbVertex
100
AcDb2dVertex
 10
82.15207868301599
 20
-26.21245814732406
 30
0.0
  0
VERTEX
  5
11C
330
6E
100
AcDbEntity
  8
1_ANYTOOL_1MMDEEP_LABELS_S
100
AcDbVertex
100
AcDb2dVertex
 10
81.96143973212315
 20
-25.91367187500279
 30
0.0
  0
VERTEX
  5
11D
330
6E
100
AcDbEntity
  8
1_ANYTOOL_1MMDEEP_LABELS_S
100
AcDbVertex
100
AcDb2dVertex
 10
81.77741350444461
 20
-25.60475725446724
 30
0.0
  0
VERTEX
  5
11E
330
6E
100
AcDbEntity
  8
1_ANYTOOL_1MMDEEP_LABELS_S
100
AcDbVertex
100
AcDb2dVertex
 10
81.59999999998035
 20
-25.2857142857174
 30
0.0
  0
VERTEX
  5
11F
330
6E
100
AcDbEntity
  8
1_ANYTOOL_1MMDEEP_LABELS_S
100
AcDbVertex
100
AcDb2dVertex
 10
81.26785714283749
 20
-24.63733258928829
 30
0.0
  0
VERTEX
  5
120
330
6E
100
AcDbEntity
  8
1_ANYTOOL_1MMDEEP_LABELS_S
100
AcDbVertex
100
AcDb2dVertex
 10
80.95714285712319
 20
-23.98861607143067
 30
0.0
  0
VERTEX
  5
121
330
6E
100
AcDbEntity
  8
1_ANYTOOL_1MMDEEP_LABELS_S
100
AcDbVertex
100
AcDb2dVertex
 10
80.66785714283746
 20
-23.33956473214454
 30
0.0
  0
VERTEX
  5
122
330
6E
100
AcDbEntity
  8
1_ANYTOOL_1MMDEEP_LABELS_S
100
AcDbVertex
100
AcDb2dVertex
 10
80.39999999998031
 20
-22.6901785714299
 30
0.0
  0
VERTEX
  5
123
330
6E
100
AcDbEntity
  8
1_ANYTOOL_1MMDEEP_LABELS_S
100
AcDbVertex
100
AcDb2dVertex
 10
80.15357142855173
 20
-22.04045758928675
 30
0.0
  0
VERTEX
  5
124
330
6E
100
AcDbEntity
  8
1_ANYTOOL_1MMDEEP_LABELS_S
100
AcDbVertex
100
AcDb2dVertex
 10
79.92857142855172
 20
-21.39040178571508
 30
0.0
  0
VERTEX
  5
125
330
6E
100
AcDbEntity
  8
1_ANYTOOL_1MMDEEP_LABELS_S
100
AcDbVertex
100
AcDb2dVertex
 10
79.72499999998028
 20
-20.74001116071491
 30
0.0
  0
VERTEX
  5
126
330
6E
100
AcDbEntity
  8
1_ANYTOOL_1MMDEEP_LABELS_S
100
AcDbVertex
100
AcDb2dVertex
 10
79.54285714283742
 20
-20.08928571428623
 30
0.0
  0
VERTEX
  5
127
330
6E
100
AcDbEntity
  8
1_ANYTOOL_1MMDEEP_LABELS_S
100
AcDbVertex
100
AcDb2dVertex
 10
79.38214285712313
 20
-19.43822544642904
 30
0.0
  0
VERTEX
  5
128
330
6E
100
AcDbEntity
  8
1_ANYTOOL_1MMDEEP_LABELS_S
100
AcDbVertex
100
AcDb2dVertex
 10
79.24285714283741
 20
-18.78683035714334
 30
0.0
  0
VERTEX
  5
129
330
6E
100
AcDbEntity
  8
1_ANYTOOL_1MMDEEP_LABELS_S
100
AcDbVertex
100
AcDb2dVertex
 10
79.12499999998026
 20
-18.13510044642913
 30
0.0
  0
VERTEX
  5
12A
330
6E
100
AcDbEntity
  8
1_ANYTOOL_1MMDEEP_LABELS_S
100
AcDbVertex
100
AcDb2dVertex
 10
79.02857142855169
 20
-17.48303571428642
 30
0.0
  0
VERTEX
  5
12B
330
6E
100
AcDbEntity
  8
1_ANYTOOL_1MMDEEP_LABELS_S
100
AcDbVertex
100
AcDb2dVertex
 10
78.95357142855168
 20
-16.83063616071519
 30
0.0
  0
VERTEX
  5
12C
330
6E
100
AcDbEntity
  8
1_ANYTOOL_1MMDEEP_LABELS_S
100
AcDbVertex
100
AcDb2dVertex
 10
78.89999999998025
 20
-16.17790178571545
 30
0.0
  0
VERTEX
  5
12D
330
6E
100
AcDbEntity
  8
1_ANYTOOL_1MMDEEP_LABELS_S
100
AcDbVertex
100
AcDb2dVertex
 10
78.8678571428374
 20
-15.5248325892872
 30
0.0
  0
VERTEX
  5
12E
330
6E
100
AcDbEntity
  8
1_ANYTOOL_1MMDEEP_LABELS_S
100
AcDbVertex
100
AcDb2dVertex
 10
78.85714285712311
 20
-14.87142857143044
 30
0.0
  0
VERTEX
  5
12F
330
6E
100
AcDbEntity
  8
1_ANYTOOL_1MMDEEP_LABELS_S
100
AcDbVertex
100
AcDb2dVertex
 10
78.86835937498026
 20
-14.17801339285913
 30
0.0
  0
VERTEX
  5
130
330
6E
100
AcDbEntity
  8
1_ANYTOOL_1MMDEEP_LABELS_S
100
AcDbVertex
100
AcDb2dVertex
 10
78.90200892855168
 20
-13.49062500000207
 30
0.0
  0
VERTEX
  5
131
330
6E
100
AcDbEntity
  8
1_ANYTOOL_1MMDEEP_LABELS_S
100
AcDbVertex
100
AcDb2dVertex
 10
78.9580915178374
 20
-12.80926339285926
 30
0.0
  0
VERTEX
  5
132
330
6E
100
AcDbEntity
  8
1_ANYTOOL_1MMDEEP_LABELS_S
100
AcDbVertex
100
AcDb2dVertex
 10
79.0366071428374
 20
-12.13392857143072
 30
0.0
  0
VERTEX
  5
133
330
6E
100
AcDbEntity
  8
1_ANYTOOL_1MMDEEP_LABELS_S
100
AcDbVertex
100
AcDb2dVertex
 10
79.13755580355169
 20
-11.46462053571642
 30
0.0
  0
VERTEX
  5
134
330
6E
100
AcDbEntity
  8
1_ANYTOOL_1MMDEEP_LABELS_S
100
AcDbVertex
100
AcDb2dVertex
 10
79.26093749998026
 20
-10.80133928571638
 30
0.0
  0
VERTEX
  5
135
330
6E
100
AcDbEntity
  8
1_ANYTOOL_1MMDEEP_LABELS_S
100
AcDbVertex
100
AcDb2dVertex
 10
79.40675223212313
 20
-10.1440848214306
 30
0.0
  0
VERTEX
  5
136
330
6E
100
AcDbEntity
  8
1_ANYTOOL_1MMDEEP_LABELS_S
100
AcDbVertex
100
AcDb2dVertex
 10
79.57499999998026
 20
-9.492857142859066
 30
0.0
  0
VERTEX
  5
137
330
6E
100
AcDbEntity
  8
1_ANYTOOL_1MMDEEP_LABELS_S
100
AcDbVertex
100
AcDb2dVertex
 10
79.7656808035517
 20
-8.84765625000179
 30
0.0
  0
VERTEX
  5
138
330
6E
100
AcDbEntity
  8
1_ANYTOOL_1MMDEEP_LABELS_S
100
AcDbVertex
100
AcDb2dVertex
 10
79.97879464283741
 20
-8.20848214285877
 30
0.0
  0
VERTEX
  5
139
330
6E
100
AcDbEntity
  8
1_ANYTOOL_1MMDEEP_LABELS_S
100
AcDbVertex
100
AcDb2dVertex
 10
80.21434151783743
 20
-7.575334821430005
 30
0.0
  0
VERTEX
  5
13A
330
6E
100
AcDbEntity
  8
1_ANYTOOL_1MMDEEP_LABELS_S
100
AcDbVertex
100
AcDb2dVertex
 10
80.47232142855171
 20
-6.948214285715494
 30
0.0
  0
VERTEX
  5
13B
330
6E
100
AcDbEntity
  8
1_ANYTOOL_1MMDEEP_LABELS_S
100
AcDbVertex
100
AcDb2dVertex
 10
80.75273437498029
 20
-6.327120535715238
 30
0.0
  0
VERTEX
  5
13C
330
6E
100
AcDbEntity
  8
1_ANYTOOL_1MMDEEP_LABELS_S
100
AcDbVertex
100
AcDb2dVertex
 10
81.05558035712315
 20
-5.712053571429237
 30
0.0
  0
VERTEX
  5
13D
330
6E
100
AcDbEntity
  8
1_ANYTOOL_1MMDEEP_LABELS_S
100
AcDbVertex
100
AcDb2dVertex
 10
81.3808593749803
 20
-5.103013392857491
 30
0.0
  0
VERTEX
  5
13E
330
6E
100
AcDbEntity
  8
1_ANYTOOL_1MMDEEP_LABELS_S
100
AcDbVertex
100
AcDb2dVertex
 10
81.72857142855173
 20
-4.5
 30
0.0
  0
VERTEX
  5
13F
330
6E
100
AcDbEntity
  8
1_ANYTOOL_1MMDEEP_LABELS_S
100
AcDbVertex
100
AcDb2dVertex
 10
81.91397879462312
 20
-4.202050781249859
 30
0.0
  0
VERTEX
  5
140
330
6E
100
AcDbEntity
  8
1_ANYTOOL_1MMDEEP_LABELS_S
100
AcDbVertex
100
AcDb2dVertex
 10
82.10591517855167
 20
-3.913560267856866
 30
0.0
  0
VERTEX
  5
141
330
6E
100
AcDbEntity
  8
1_ANYTOOL_1MMDEEP_LABELS_S
100
AcDbVertex
100
AcDb2dVertex
 10
82.30438058033734
 20
-3.63452845982102
 30
0.0
  0
VERTEX
  5
142
330
6E
100
AcDbEntity
  8
1_ANYTOOL_1MMDEEP_LABELS_S
100
AcDbVertex
100
AcDb2dVertex
 10
82.50937499998017
 20
-3.364955357142321
 30
0.0
  0
VERTEX
  5
143
330
6E
100
AcDbEntity
  8
1_ANYTOOL_1MMDEEP_LABELS_S
100
AcDbVertex
100
AcDb2dVertex
 10
82.72089843748014
 20
-3.10484095982077
 30
0.0
  0
VERTEX
  5
144
330
6E
100
AcDbEntity
  8
1_ANYTOOL_1MMDEEP_LABELS_S
100
AcDbVertex
100
AcDb2dVertex
 10
82.93895089283725
 20
-2.854185267856366
 30
0.0
  0
VERTEX
  5
145
330
6E
100
AcDbEntity
  8
1_ANYTOOL_1MMDEEP_LABELS_S
100
AcDbVertex
100
AcDb2dVertex
 10
83.1635323660515
 20
-2.612988281249109
 30
0.0
  0
VERTEX
  5
146
330
6E
100
AcDbEntity
  8
1_ANYTOOL_1MMDEEP_LABELS_S
100
AcDbVertex
100
AcDb2dVertex
 10
83.3946428571229
 20
-2.381249999999
 30
0.0
  0
VERTEX
  5
147
330
6E
100
AcDbEntity
  8
1_ANYTOOL_1MMDEEP_LABELS_S
100
AcDbVertex
100
AcDb2dVertex
 10
83.51264648435503
 20
-2.268927873882875
 30
0.0
  0
VERTEX
  5
148
330
6E
100
AcDbEntity
  8
1_ANYTOOL_1MMDEEP_LABELS_S
100
AcDbVertex
100
AcDb2dVertex
 10
83.63228236605144
 20
-2.158970424106037
 30
0.0
  0
VERTEX
  5
149
330
6E
100
AcDbEntity
  8
1_ANYTOOL_1MMDEEP_LABELS_S
100
AcDbVertex
100
AcDb2dVertex
 10
83.75355050221215
 20
-2.051377650668487
 30
0.0
  0
VERTEX
  5
14A
330
6E
100
AcDbEntity
  8
1_ANYTOOL_1MMDEEP_LABELS_S
100
AcDbVertex
100
AcDb2dVertex
 10
83.87645089283714
 20
-1.946149553570223
 30
0.0
  0
VERTEX
  5
14B
330
6E
100
AcDbEntity
  8
1_ANYTOOL_1MMDEEP_LABELS_S
100
AcDbVertex
100
AcDb2dVertex
 10
84.00098353792642
 20
-1.843286132811246
 30
0.0
  0
VERTEX
  5
14C
330
6E
100
AcDbEntity
  8
1_ANYTOOL_1MMDEEP_LABELS_S
100
AcDbVertex
100
AcDb2dVertex
 10
84.12714843747997
 20
-1.742787388391555
 30
0.0
  0
VERTEX
  5
14D
330
6E
100
AcDbEntity
  8
1_ANYTOOL_1MMDEEP_LABELS_S
100
AcDbVertex
100
AcDb2dVertex
 10
84.25494559149782
 20
-1.644653320311152
 30
0.0
  0
VERTEX
  5
14E
330
6E
100
AcDbEntity
  8
1_ANYTOOL_1MMDEEP_LABELS_S
100
AcDbVertex
100
AcDb2dVertex
 10
84.38437499997994
 20
-1.548883928570035
 30
0.0
  0
VERTEX
  5
14F
330
6E
100
AcDbEntity
  8
1_ANYTOOL_1MMDEEP_LABELS_S
100
AcDbVertex
100
AcDb2dVertex
 10
84.51543666292635
 20
-1.455479213168205
 30
0.0
  0
VERTEX
  5
150
330
6E
100
AcDbEntity
  8
1_ANYTOOL_1MMDEEP_LABELS_S
100
AcDbVertex
100
AcDb2dVertex
 10
84.64813058033705
 20
-1.364439174105662
 30
0.0
  0
VERTEX
  5
151
330
6E
100
AcDbEntity
  8
1_ANYTOOL_1MMDEEP_LABELS_S
100
AcDbVertex
100
AcDb2dVertex
 10
84.78245675221206
 20
-1.275763811382406
 30
0.0
  0
VERTEX
  5
152
330
6E
100
AcDbEntity
  8
1_ANYTOOL_1MMDEEP_LABELS_S
100
AcDbVertex
100
AcDb2dVertex
 10
84.91841517855133
 20
-1.189453124998437
 30
0.0
  0
VERTEX
  5
153
330
6E
100
AcDbEntity
  8
1_ANYTOOL_1MMDEEP_LABELS_S
100
AcDbVertex
100
AcDb2dVertex
 10
85.05600585935488
 20
-1.105507114953754
 30
0.0
  0
VERTEX
  5
154
330
6E
100
AcDbEntity
  8
1_ANYTOOL_1MMDEEP_LABELS_S
100
AcDbVertex
100
AcDb2dVertex
 10
85.19522879462272
 20
-1.023925781248359
 30
0.0
  0
VERTEX
  5
155
330
6E
100
AcDbEntity
  8
1_ANYTOOL_1MMDEEP_LABELS_S
100
AcDbVertex
100
AcDb2dVertex
 10
85.33608398435486
 20
-0.9447091238822498
 30
0.0
  0
VERTEX
  5
156
330
6E
100
AcDbEntity
  8
1_ANYTOOL_1MMDEEP_LABELS_S
100
AcDbVertex
100
AcDb2dVertex
 10
85.47857142855128
 20
-0.8678571428554278
 30
0.0
  0
VERTEX
  5
157
330
6E
100
AcDbEntity
  8
1_ANYTOOL_1MMDEEP_LABELS_S
100
AcDbVertex
100
AcDb2dVertex
 10
85.62269112721198
 20
-0.7933698381678926
 30
0.0
  0
VERTEX
  5
158
330
6E
100
AcDbEntity
  8
1_ANYTOOL_1MMDEEP_LABELS_S
100
AcDbVertex
100
AcDb2dVertex
 10
85.76844308033697
 20
-0.7212472098196443
 30
0.0
  0
VERTEX
  5
159
330
6E
100
AcDbEntity
  8
1_ANYTOOL_1MMDEEP_LABELS_S
100
AcDbVertex
100
AcDb2dVertex
 10
86.06484374997981
 20
-0.5840959821410081
 30
0.0
  0
VERTEX
  5
15A
330
6E
100
AcDbEntity
  8
1_ANYTOOL_1MMDEEP_LABELS_S
100
AcDbVertex
100
AcDb2dVertex
 10
86.36777343747978
 20
-0.4564034598195192
 30
0.0
  0
VERTEX
  5
15B
330
6E
100
AcDbEntity
  8
1_ANYTOOL_1MMDEEP_LABELS_S
100
AcDbVertex
100
AcDb2dVertex
 10
86.67723214283691
 20
-0.3381696428551777
 30
0.0
  0
VERTEX
  5
15C
330
6E
100
AcDbEntity
  8
1_ANYTOOL_1MMDEEP_LABELS_S
100
AcDbVertex
100
AcDb2dVertex
 10
86.99321986605119
 20
-0.2293945312479835
 30
0.0
  0
VERTEX
  5
15D
330
6E
100
AcDbEntity
  8
1_ANYTOOL_1MMDEEP_LABELS_S
100
AcDbVertex
100
AcDb2dVertex
 10
87.3157366071226
 20
-0.1300781249979366
 30
0.0
  0
VERTEX
  5
15E
330
6E
100
AcDbEntity
  8
1_ANYTOOL_1MMDEEP_LABELS_S
100
AcDbVertex
100
AcDb2dVertex
 10
87.64478236605115
 20
-0.040220424105037
 30
0.0
  0
VERTEX
  5
15F
330
6E
100
AcDbEntity
  8
1_ANYTOOL_1MMDEEP_LABELS_S
100
AcDbVertex
100
AcDb2dVertex
 10
87.98035714283685
 20
0.0401785714307152
 30
0.0
  0
VERTEX
  5
160
330
6E
100
AcDbEntity
  8
1_ANYTOOL_1MMDEEP_LABELS_S
100
AcDbVertex
100
AcDb2dVertex
 10
88.32246093747969
 20
0.1111188616093202
 30
0.0
  0
VERTEX
  5
161
330
6E
100
AcDbEntity
  8
1_ANYTOOL_1MMDEEP_LABELS_S
100
AcDbVertex
100
AcDb2dVertex
 10
88.67109374997969
 20
0.1726004464307778
 30
0.0
  0
VERTEX
  5
162
330
6E
100
AcDbEntity
  8
1_ANYTOOL_1MMDEEP_LABELS_S
100
AcDbVertex
100
AcDb2dVertex
 10
89.02625558033682
 20
0.224623325895088
 30
0.0
  0
VERTEX
  5
163
330
6E
100
AcDbEntity
  8
1_ANYTOOL_1MMDEEP_LABELS_S
100
AcDbVertex
100
AcDb2dVertex
 10
89.38794642855109
 20
0.267187500002251
 30
0.0
  0
VERTEX
  5
164
330
6E
100
AcDbEntity
  8
1_ANYTOOL_1MMDEEP_LABELS_S
100
AcDbVertex
100
AcDb2dVertex
 10
89.7561662946225
 20
0.3002929687522666
 30
0.0
  0
VERTEX
  5
165
330
6E
100
AcDbEntity
  8
1_ANYTOOL_1MMDEEP_LABELS_S
100
AcDbVertex
100
AcDb2dVertex
 10
90.13091517855108
 20
0.3239397321451349
 30
0.0
  0
VERTEX
  5
166
330
6E
100
AcDbEntity
  8
1_ANYTOOL_1MMDEEP_LABELS_S
100
AcDbVertex
100
AcDb2dVertex
 10
90.51219308033677
 20
0.3381277901808559
 30
0.0
  0
SEQEND
  5
167
330
6E
100
AcDbEntity
  8
1_ANYTOOL_1MMDEEP_LABELS_S
  0
POLYLINE
  5
169
330
1F
100
AcDbEntity
  8
5_ANYTOOL_HALF_MILL_9MM_IN
100
AcDb2dPolyline
 66
     1
 10
0.0
 20
0.0
 30
0.0000000000252516
 70
     1
  0
VERTEX
  5
16A
330
169
100
AcDbEntity
  8
5_ANYTOOL_HALF_MILL_9MM_IN
100
AcDbVertex
100
AcDb2dVertex
 10
1005.66320963607
 20
254.3486933461973
 30
0.0000000000252516
 42
-0.9999999999996575
  0
VERTEX
  5
16B
330
169
100
AcDbEntity
  8
5_ANYTOOL_HALF_MILL_9MM_IN
100
AcDbVertex
100
AcDb2dVertex
 10
963.1632096360718
 20
254.3486933461827
 30
0.0000000000252516
  0
VERTEX
  5
16C
330
169
100
AcDbEntity
  8
5_ANYTOOL_HALF_MILL_9MM_IN
100
AcDbVertex
100
AcDb2dVertex
 10
963.1632096360509
 20
260.5986933461827
 30
0.0000000000252516
  0
VERTEX
  5
16D
330
169
100
AcDbEntity
  8
5_ANYTOOL_HALF_MILL_9MM_IN
100
AcDbVertex
100
AcDb2dVertex
 10
1005.663209636064
 20
260.5986933461973
 30
0.0000000000252516
  0
SEQEND
  5
16E
330
169
100
AcDbEntity
  8
5_ANYTOOL_HALF_MILL_9MM_IN
  0
POLYLINE
  5
16F
330
1F
100
AcDbEntity
  8
5_ANYTOOL_HALF_MILL_9MM_IN
100
AcDb2dPolyline
 66
     1
 10
0.0
 20
0.0
 30
0.0000000000324139
 70
     1
  0
VERTEX
  5
170
330
16F
100
AcDbEntity
  8
5_ANYTOOL_HALF_MILL_9MM_IN
100
AcDbVertex
100
AcDb2dVertex
 10
405.6632096359581
 20
254.3486933460154
 30
0.0000000000324139
 42
-0.9999999999996575
  0
VERTEX
  5
171
330
16F
100
AcDbEntity
  8
5_ANYTOOL_HALF_MILL_9MM_IN
100
AcDbVertex
100
AcDb2dVertex
 10
363.1632096359363
 20
254.3486933460008
 30
0.0000000000324139
  0
VERTEX
  5
172
330
16F
100
AcDbEntity
  8
5_ANYTOOL_HALF_MILL_9MM_IN
100
AcDbVertex
100
AcDb2dVertex
 10
363.1632096359453
 20
260.5986933460008
 30
0.0000000000324139
  0
VERTEX
  5
173
330
16F
100
AcDbEntity
  8
5_ANYTOOL_HALF_MILL_9MM_IN
100
AcDbVertex
100
AcDb2dVertex
 10
405.6632096359581
 20
260.5986933460154
 30
0.0000000000324139
  0
SEQEND
  5
174
330
16F
100
AcDbEntity
  8
5_ANYTOOL_HALF_MILL_9MM_IN
  0
POLYLINE
  5
175
330
1F
100
AcDbEntity
  8
5_ANYTOOL_HALF_MILL_9MM_IN
100
AcDb2dPolyline
 66
     1
 10
0.0
 20
0.0
 30
-0.0000000000110959
 70
     1
  0
VERTEX
  5
176
330
175
100
AcDbEntity
  8
5_ANYTOOL_HALF_MILL_9MM_IN
100
AcDbVertex
100
AcDb2dVertex
 10
168.2572096349804
 20
254.3486933459353
 30
-0.0000000000110959
 42
0.9999999999998287
  0
VERTEX
  5
177
330
175
100
AcDbEntity
  8
5_ANYTOOL_HALF_MILL_9MM_IN
100
AcDbVertex
100
AcDb2dVertex
 10
210.7572096349913
 20
254.3486933459571
 30
-0.0000000000110959
  0
VERTEX
  5
178
330
175
100
AcDbEntity
  8
5_ANYTOOL_HALF_MILL_9MM_IN
100
AcDbVertex
100
AcDb2dVertex
 10
210.7572096349923
 20
260.5986933459571
 30
-0.0000000000110959
  0
VERTEX
  5
179
330
175
100
AcDbEntity
  8
5_ANYTOOL_HALF_MILL_9MM_IN
100
AcDbVertex
100
AcDb2dVertex
 10
168.2572096349777
 20
260.5986933459353
 30
-0.0000000000110959
  0
SEQEND
  5
17A
330
175
100
AcDbEntity
  8
5_ANYTOOL_HALF_MILL_9MM_IN
  0
POLYLINE
  5
17B
330
1F
100
AcDbEntity
  8
5_ANYTOOL_HALF_MILL_9MM_IN
100
AcDb2dPolyline
 66
     1
 10
0.0
 20
0.0
 30
0.00000000100016
 70
     1
  0
VERTEX
  5
17C
330
17B
100
AcDbEntity
  8
5_ANYTOOL_HALF_MILL_9MM_IN
100
AcDbVertex
100
AcDb2dVertex
 10
-794.3367903651942
 20
254.3486933453751
 30
0.00000000100016
 42
-0.9999999999993153
  0
VERTEX
  5
17D
330
17B
100
AcDbEntity
  8
5_ANYTOOL_HALF_MILL_9MM_IN
100
AcDbVertex
100
AcDb2dVertex
 10
-836.836790365207
 20
254.3486933453896
 30
0.00000000100016
  0
VERTEX
  5
17E
330
17B
100
AcDbEntity
  8
5_ANYTOOL_HALF_MILL_9MM_IN
100
AcDbVertex
100
AcDb2dVertex
 10
-836.8367903652097
 20
260.5986933453896
 30
0.00000000100016
  0
VERTEX
  5
17F
330
17B
100
AcDbEntity
  8
5_ANYTOOL_HALF_MILL_9MM_IN
100
AcDbVertex
100
AcDb2dVertex
 10
-794.3367903651933
 20
260.5986933453751
 30
0.00000000100016
  0
SEQEND
  5
180
330
17B
100
AcDbEntity
  8
5_ANYTOOL_HALF_MILL_9MM_IN
  0
POLYLINE
  5
181
330
1F
100
AcDbEntity
  8
5_ANYTOOL_HALF_MILL_9MM_IN
100
AcDb2dPolyline
 66
     1
 10
0.0
 20
0.0
 30
0.0000000000395193
 70
     1
  0
VERTEX
  5
182
330
181
100
AcDbEntity
  8
5_ANYTOOL_HALF_MILL_9MM_IN
100
AcDbVertex
100
AcDb2dVertex
 10
-194.3367903641583
 20
254.3486933458407
 30
0.0000000000395193
 42
-0.9999999999996575
  0
VERTEX
  5
183
330
181
100
AcDbEntity
  8
5_ANYTOOL_HALF_MILL_9MM_IN
100
AcDbVertex
100
AcDb2dVertex
 10
-236.8367903641802
 20
254.3486933458262
 30
0.0000000000395193
  0
VERTEX
  5
184
330
181
100
AcDbEntity
  8
5_ANYTOOL_HALF_MILL_9MM_IN
100
AcDbVertex
100
AcDb2dVertex
 10
-236.8367903641711
 20
260.5986933458262
 30
0.0000000000395193
  0
VERTEX
  5
185
330
181
100
AcDbEntity
  8
5_ANYTOOL_HALF_MILL_9MM_IN
100
AcDbVertex
100
AcDb2dVertex
 10
-194.3367903641583
 20
260.5986933458407
 30
0.0000000000395193
  0
SEQEND
  5
186
330
181
100
AcDbEntity
  8
5_ANYTOOL_HALF_MILL_9MM_IN
  0
POLYLINE
  5
187
330
1F
100
AcDbEntity
  8
5_ANYTOOL_HALF_MILL_9MM_IN
100
AcDb2dPolyline
 66
     1
 10
0.0
 20
0.0
 30
-0.0000000000039905
 70
     1
  0
VERTEX
  5
188
330
187
100
AcDbEntity
  8
5_ANYTOOL_HALF_MILL_9MM_IN
100
AcDbVertex
100
AcDb2dVertex
 10
-431.742790365136
 20
254.3486933457607
 30
-0.0000000000039905
 42
0.9999999999998287
  0
VERTEX
  5
189
330
187
100
AcDbEntity
  8
5_ANYTOOL_HALF_MILL_9MM_IN
100
AcDbVertex
100
AcDb2dVertex
 10
-389.2427903651251
 20
254.3486933457825
 30
-0.0000000000039905
  0
VERTEX
  5
18A
330
187
100
AcDbEntity
  8
5_ANYTOOL_HALF_MILL_9MM_IN
100
AcDbVertex
100
AcDb2dVertex
 10
-389.2427903651251
 20
260.5986933457825
 30
-0.0000000000039905
  0
VERTEX
  5
18B
330
187
100
AcDbEntity
  8
5_ANYTOOL_HALF_MILL_9MM_IN
100
AcDbVertex
100
AcDb2dVertex
 10
-431.7427903651396
 20
260.5986933457607
 30
-0.0000000000039905
  0
SEQEND
  5
18C
330
187
100
AcDbEntity
  8
5_ANYTOOL_HALF_MILL_9MM_IN
  0
POLYLINE
  5
18D
330
1F
100
AcDbEntity
  8
5_ANYTOOL_HALF_MILL_9MM_IN
100
AcDb2dPolyline
 66
     1
 10
0.0
 20
0.0
 30
-0.0000000000182582
 70
     1
  0
VERTEX
  5
18E
330
18D
100
AcDbEntity
  8
5_ANYTOOL_HALF_MILL_9MM_IN
100
AcDbVertex
100
AcDb2dVertex
 10
768.2572096350923
 20
254.3486933461172
 30
-0.0000000000182582
 42
0.9999999999994863
  0
VERTEX
  5
18F
330
18D
100
AcDbEntity
  8
5_ANYTOOL_HALF_MILL_9MM_IN
100
AcDbVertex
100
AcDb2dVertex
 10
810.7572096350978
 20
254.348693346139
 30
-0.0000000000182582
  0
VERTEX
  5
190
330
18D
100
AcDbEntity
  8
5_ANYTOOL_HALF_MILL_9MM_IN
100
AcDbVertex
100
AcDb2dVertex
 10
810.7572096351059
 20
260.598693346139
 30
-0.0000000000182582
  0
VERTEX
  5
191
330
18D
100
AcDbEntity
  8
5_ANYTOOL_HALF_MILL_9MM_IN
100
AcDbVertex
100
AcDb2dVertex
 10
768.2572096350914
 20
260.5986933461172
 30
-0.0000000000182582
  0
SEQEND
  5
192
330
18D
100
AcDbEntity
  8
5_ANYTOOL_HALF_MILL_9MM_IN
  0
POLYLINE
  5
194
330
1F
100
AcDbEntity
  8
3_ANYTOOL_CUTTHROUGH_INSID
100
AcDb2dPolyline
 66
     1
 10
0.0
 20
0.0
 30
0.0000000010009913
 70
     1
  0
VERTEX
  5
195
330
194
100
AcDbEntity
  8
3_ANYTOOL_CUTTHROUGH_INSID
100
AcDbVertex
100
AcDb2dVertex
 10
-1113.289790365376
 20
89.098693345004
 30
0.0000000010009913
  0
VERTEX
  5
196
330
194
100
AcDbEntity
  8
3_ANYTOOL_CUTTHROUGH_INSID
100
AcDbVertex
100
AcDb2dVertex
 10
-1113.289790365377
 20
-86.40130665390461
 30
0.0000000010009913
  0
VERTEX
  5
197
330
194
100
AcDbEntity
  8
3_ANYTOOL_CUTTHROUGH_INSID
100
AcDbVertex
100
AcDb2dVertex
 10
-1119.289790365378
 20
-86.40130665389006
 30
0.0000000010009913
  0
VERTEX
  5
198
330
194
100
AcDbEntity
  8
3_ANYTOOL_CUTTHROUGH_INSID
100
AcDbVertex
100
AcDb2dVertex
 10
-1119.289790365378
 20
-98.90130665389006
 30
0.0000000010009913
  0
VERTEX
  5
199
330
194
100
AcDbEntity
  8
3_ANYTOOL_CUTTHROUGH_INSID
100
AcDbVertex
100
AcDb2dVertex
 10
-1088.789790365349
 20
-98.90130665388278
 30
0.0000000010009913
  0
VERTEX
  5
19A
330
194
100
AcDbEntity
  8
3_ANYTOOL_CUTTHROUGH_INSID
100
AcDbVertex
100
AcDb2dVertex
 10
-1088.789790365347
 20
-86.40130665388278
 30
0.0000000010009913
  0
VERTEX
  5
19B
330
194
100
AcDbEntity
  8
3_ANYTOOL_CUTTHROUGH_INSID
100
AcDbVertex
100
AcDb2dVertex
 10
-1094.789790365354
 20
-86.40130665389734
 30
0.0000000010009913
  0
VERTEX
  5
19C
330
194
100
AcDbEntity
  8
3_ANYTOOL_CUTTHROUGH_INSID
100
AcDbVertex
100
AcDb2dVertex
 10
-1094.789790365368
 20
89.098693345004
 30
0.0000000010009913
  0
VERTEX
  5
19D
330
194
100
AcDbEntity
  8
3_ANYTOOL_CUTTHROUGH_INSID
100
AcDbVertex
100
AcDb2dVertex
 10
-1088.789790365364
 20
89.09869334498217
 30
0.0000000010009913
  0
VERTEX
  5
19E
330
194
100
AcDbEntity
  8
3_ANYTOOL_CUTTHROUGH_INSID
100
AcDbVertex
100
AcDb2dVertex
 10
-1088.78979036536
 20
101.5986933449822
 30
0.0000000010009913
  0
VERTEX
  5
19F
330
194
100
AcDbEntity
  8
3_ANYTOOL_CUTTHROUGH_INSID
100
AcDbVertex
100
AcDb2dVertex
 10
-1119.289790365377
 20
101.598693345004
 30
0.0000000010009913
  0
VERTEX
  5
1A0
330
194
100
AcDbEntity
  8
3_ANYTOOL_CUTTHROUGH_INSID
100
AcDbVertex
100
AcDb2dVertex
 10
-1119.289790365377
 20
89.098693345004
 30
0.0000000010009913
  0
SEQEND
  5
1A1
330
194
100
AcDbEntity
  8
3_ANYTOOL_CUTTHROUGH_INSID
  0
POLYLINE
  5
1A3
330
1F
100
AcDbEntity
  8
4_ANYTOOL_CUTTHROUGH_OUTSI
100
AcDb2dPolyline
 66
     1
 10
0.0
 20
0.0
 30
0.0
 70
     1
  0
VERTEX
  5
1A4
330
1A3
100
AcDbEntity
  8
4_ANYTOOL_CUTTHROUGH_OUTSI
100
AcDbVertex
100
AcDb2dVertex
 10
687.2102096356066
 20
286.3486933460663
 30
0.0
  0
VERTEX
  5
1A5
330
1A3
100
AcDbEntity
  8
4_ANYTOOL_CUTTHROUGH_OUTSI
100
AcDbVertex
100
AcDb2dVertex
 10
687.2102096356211
 20
310.0986933460736
 30
0.0
  0
VERTEX
  5
1A6
330
1A3
100
AcDbEntity
  8
4_ANYTOOL_CUTTHROUGH_OUTSI
100
AcDbVertex
100
AcDb2dVertex
 10
761.4016886304053
 20
310.0986933461318
 30
0.0
  0
VERTEX
  5
1A7
330
1A3
100
AcDbEntity
  8
4_ANYTOOL_CUTTHROUGH_OUTSI
100
AcDbVertex
100
AcDb2dVertex
 10
761.1667782727664
 20
308.7038231458203
 30
0.0
  0
VERTEX
  5
1A8
330
1A3
100
AcDbEntity
  8
4_ANYTOOL_CUTTHROUGH_OUTSI
100
AcDbVertex
100
AcDb2dVertex
 10
744.2712450460012
 20
260.4312809523108
 30
0.0
  0
VERTEX
  5
1A9
330
1A3
100
AcDbEntity
  8
4_ANYTOOL_CUTTHROUGH_OUTSI
100
AcDbVertex
100
AcDb2dVertex
 10
744.2572096350916
 20
260.3486933461318
 30
0.0
 42
0.414213562374666
  0
VERTEX
  5
1AA
330
1A3
100
AcDbEntity
  8
4_ANYTOOL_CUTTHROUGH_OUTSI
100
AcDbVertex
100
AcDb2dVertex
 10
750.507209635115
 20
254.0986933461145
 30
0.0
  0
VERTEX
  5
1AB
330
1A3
100
AcDbEntity
  8
4_ANYTOOL_CUTTHROUGH_OUTSI
100
AcDbVertex
100
AcDb2dVertex
 10
828.5072096350887
 20
254.0986933461463
 30
0.0
 42
0.4142135623725871
  0
VERTEX
  5
1AC
330
1A3
100
AcDbEntity
  8
4_ANYTOOL_CUTTHROUGH_OUTSI
100
AcDbVertex
100
AcDb2dVertex
 10
834.7572096351141
 20
260.3486933461536
 30
0.0
  0
VERTEX
  5
1AD
330
1A3
100
AcDbEntity
  8
4_ANYTOOL_CUTTHROUGH_OUTSI
100
AcDbVertex
100
AcDb2dVertex
 10
834.7431742242038
 20
260.4312809523319
 30
0.0
  0
VERTEX
  5
1AE
330
1A3
100
AcDbEntity
  8
4_ANYTOOL_CUTTHROUGH_OUTSI
100
AcDbVertex
100
AcDb2dVertex
 10
817.84406122983
 20
308.714888125236
 30
0.0
  0
VERTEX
  5
1AF
330
1A3
100
AcDbEntity
  8
4_ANYTOOL_CUTTHROUGH_OUTSI
100
AcDbVertex
100
AcDb2dVertex
 10
817.612646988646
 20
310.0986933461405
 30
0.0
  0
VERTEX
  5
1B0
330
1A3
100
AcDbEntity
  8
4_ANYTOOL_CUTTHROUGH_OUTSI
100
AcDbVertex
100
AcDb2dVertex
 10
856.7102096351828
 20
310.0986933461681
 30
0.0
  0
VERTEX
  5
1B1
330
1A3
100
AcDbEntity
  8
4_ANYTOOL_CUTTHROUGH_OUTSI
100
AcDbVertex
100
AcDb2dVertex
 10
856.7102096351464
 20
286.3486933461609
 30
0.0
 42
0.4142135623729814
  0
VERTEX
  5
1B2
330
1A3
100
AcDbEntity
  8
4_ANYTOOL_CUTTHROUGH_OUTSI
100
AcDbVertex
100
AcDb2dVertex
 10
856.9602096351464
 20
286.0986933461609
 30
0.0
  0
VERTEX
  5
1B3
330
1A3
100
AcDbEntity
  8
4_ANYTOOL_CUTTHROUGH_OUTSI
100
AcDbVertex
100
AcDb2dVertex
 10
868.9602096351582
 20
286.0986933461609
 30
0.0
 42
0.4142135623879536
  0
VERTEX
  5
1B4
330
1A3
100
AcDbEntity
  8
4_ANYTOOL_CUTTHROUGH_OUTSI
100
AcDbVertex
100
AcDb2dVertex
 10
869.2102096351564
 20
286.3486933461609
 30
0.0
  0
VERTEX
  5
1B5
330
1A3
100
AcDbEntity
  8
4_ANYTOOL_CUTTHROUGH_OUTSI
100
AcDbVertex
100
AcDb2dVertex
 10
869.2102096351591
 20
292.0986933461536
 30
0.0
  0
VERTEX
  5
1B6
330
1A3
100
AcDbEntity
  8
4_ANYTOOL_CUTTHROUGH_OUTSI
100
AcDbVertex
100
AcDb2dVertex
 10
904.7102096352
 20
292.0986933461681
 30
0.0
  0
VERTEX
  5
1B7
330
1A3
100
AcDbEntity
  8
4_ANYTOOL_CUTTHROUGH_OUTSI
100
AcDbVertex
100
AcDb2dVertex
 10
904.7102096351919
 20
286.3486933461681
 30
0.0
 42
0.4142135623763719
  0
VERTEX
  5
1B8
330
1A3
100
AcDbEntity
  8
4_ANYTOOL_CUTTHROUGH_OUTSI
100
AcDbVertex
100
AcDb2dVertex
 10
904.9602096351919
 20
286.0986933461709
 30
0.0
  0
VERTEX
  5
1B9
330
1A3
100
AcDbEntity
  8
4_ANYTOOL_CUTTHROUGH_OUTSI
100
AcDbVertex
100
AcDb2dVertex
 10
916.9602096351946
 20
286.0986933461754
 30
0.0
 42
0.4142135624007631
  0
VERTEX
  5
1BA
330
1A3
100
AcDbEntity
  8
4_ANYTOOL_CUTTHROUGH_OUTSI
100
AcDbVertex
100
AcDb2dVertex
 10
917.2102096351891
 20
286.3486933461754
 30
0.0
  0
VERTEX
  5
1BB
330
1A3
100
AcDbEntity
  8
4_ANYTOOL_CUTTHROUGH_OUTSI
100
AcDbVertex
100
AcDb2dVertex
 10
917.2102096352328
 20
310.0986933461827
 30
0.0
  0
VERTEX
  5
1BC
330
1A3
100
AcDbEntity
  8
4_ANYTOOL_CUTTHROUGH_OUTSI
100
AcDbVertex
100
AcDb2dVertex
 10
956.3076886304816
 20
310.09869334619
 30
0.0
  0
VERTEX
  5
1BD
330
1A3
100
AcDbEntity
  8
4_ANYTOOL_CUTTHROUGH_OUTSI
100
AcDbVertex
100
AcDb2dVertex
 10
956.0727782728404
 20
308.7038231458897
 30
0.0
  0
VERTEX
  5
1BE
330
1A3
100
AcDbEntity
  8
4_ANYTOOL_CUTTHROUGH_OUTSI
100
AcDbVertex
100
AcDb2dVertex
 10
939.1772450460785
 20
260.4312809523544
 30
0.0
  0
VERTEX
  5
1BF
330
1A3
100
AcDbEntity
  8
4_ANYTOOL_CUTTHROUGH_OUTSI
100
AcDbVertex
100
AcDb2dVertex
 10
939.1632096351709
 20
260.3486933461754
 30
0.0
 42
0.4142135623765257
  0
VERTEX
  5
1C0
330
1A3
100
AcDbEntity
  8
4_ANYTOOL_CUTTHROUGH_OUTSI
100
AcDbVertex
100
AcDb2dVertex
 10
945.4132096351805
 20
254.0986933461636
 30
0.0
  0
VERTEX
  5
1C1
330
1A3
100
AcDbEntity
  8
4_ANYTOOL_CUTTHROUGH_OUTSI
100
AcDbVertex
100
AcDb2dVertex
 10
1023.413209635157
 20
254.0986933462045
 30
0.0
 42
0.4142135623709188
  0
VERTEX
  5
1C2
330
1A3
100
AcDbEntity
  8
4_ANYTOOL_CUTTHROUGH_OUTSI
100
AcDbVertex
100
AcDb2dVertex
 10
1029.663209635183
 20
260.3486933462191
 30
0.0
  0
VERTEX
  5
1C3
330
1A3
100
AcDbEntity
  8
4_ANYTOOL_CUTTHROUGH_OUTSI
100
AcDbVertex
100
AcDb2dVertex
 10
1029.649174224284
 20
260.4312809523983
 30
0.0
  0
VERTEX
  5
1C4
330
1A3
100
AcDbEntity
  8
4_ANYTOOL_CUTTHROUGH_OUTSI
100
AcDbVertex
100
AcDb2dVertex
 10
1012.750061229916
 20
308.7148881252942
 30
0.0
  0
VERTEX
  5
1C5
330
1A3
100
AcDbEntity
  8
4_ANYTOOL_CUTTHROUGH_OUTSI
100
AcDbVertex
100
AcDb2dVertex
 10
1012.518646988728
 20
310.09869334622
 30
0.0
  0
VERTEX
  5
1C6
330
1A3
100
AcDbEntity
  8
4_ANYTOOL_CUTTHROUGH_OUTSI
100
AcDbVertex
100
AcDb2dVertex
 10
1086.710209635721
 20
310.0986933462773
 30
0.0
  0
VERTEX
  5
1C7
330
1A3
100
AcDbEntity
  8
4_ANYTOOL_CUTTHROUGH_OUTSI
100
AcDbVertex
100
AcDb2dVertex
 10
1086.710209635714
 20
286.3486933462773
 30
0.0
 42
0.4142135624197949
  0
VERTEX
  5
1C8
330
1A3
100
AcDbEntity
  8
4_ANYTOOL_CUTTHROUGH_OUTSI
100
AcDbVertex
100
AcDb2dVertex
 10
1086.960209635714
 20
286.0986933462736
 30
0.0
  0
VERTEX
  5
1C9
330
1A3
100
AcDbEntity
  8
4_ANYTOOL_CUTTHROUGH_OUTSI
100
AcDbVertex
100
AcDb2dVertex
 10
1098.960209635716
 20
286.0986933462846
 30
0.0
 42
0.4142135624047828
  0
VERTEX
  5
1CA
330
1A3
100
AcDbEntity
  8
4_ANYTOOL_CUTTHROUGH_OUTSI
100
AcDbVertex
100
AcDb2dVertex
 10
1099.210209635714
 20
286.3486933462846
 30
0.0
  0
VERTEX
  5
1CB
330
1A3
100
AcDbEntity
  8
4_ANYTOOL_CUTTHROUGH_OUTSI
100
AcDbVertex
100
AcDb2dVertex
 10
1099.210209635714
 20
292.0986933462773
 30
0.0
  0
VERTEX
  5
1CC
330
1A3
100
AcDbEntity
  8
4_ANYTOOL_CUTTHROUGH_OUTSI
100
AcDbVertex
100
AcDb2dVertex
 10
1209.321017985059
 20
292.0986933469103
 30
0.0
  0
VERTEX
  5
1CD
330
1A3
100
AcDbEntity
  8
4_ANYTOOL_CUTTHROUGH_OUTSI
100
AcDbVertex
100
AcDb2dVertex
 10
1209.321017985018
 20
246.5960739266884
 30
0.0
 42
-0.5019765309747982
  0
VERTEX
  5
1CE
330
1A3
100
AcDbEntity
  8
4_ANYTOOL_CUTTHROUGH_OUTSI
100
AcDbVertex
100
AcDb2dVertex
 10
1201.926164536794
 20
241.0863591306308
 30
0.0
  0
VERTEX
  5
1CF
330
1A3
100
AcDbEntity
  8
4_ANYTOOL_CUTTHROUGH_OUTSI
100
AcDbVertex
100
AcDb2dVertex
 10
1172.15765025295
 20
252.0833998295639
 30
0.0
 42
0.0156041602501665
  0
VERTEX
  5
1D0
330
1A3
100
AcDbEntity
  8
4_ANYTOOL_CUTTHROUGH_OUTSI
100
AcDbVertex
100
AcDb2dVertex
 10
1172.14285495641
 20
252.0883465926453
 30
0.0
 42
0.5023969467383799
  0
VERTEX
  5
1D1
330
1A3
100
AcDbEntity
  8
4_ANYTOOL_CUTTHROUGH_OUTSI
100
AcDbVertex
100
AcDb2dVertex
 10
1164.096930671636
 20
246.1019311354321
 30
0.0
  0
VERTEX
  5
1D2
330
1A3
100
AcDbEntity
  8
4_ANYTOOL_CUTTHROUGH_OUTSI
100
AcDbVertex
100
AcDb2dVertex
 10
1164.097386464237
 20
197.5958465615477
 30
0.0
 42
0.5023913917581461
  0
VERTEX
  5
1D3
330
1A3
100
AcDbEntity
  8
4_ANYTOOL_CUTTHROUGH_OUTSI
100
AcDbVertex
100
AcDb2dVertex
 10
1172.14316419179
 20
191.6094327855243
 30
0.0
 42
0.0156106746326993
  0
VERTEX
  5
1D4
330
1A3
100
AcDbEntity
  8
4_ANYTOOL_CUTTHROUGH_OUTSI
100
AcDbVertex
100
AcDb2dVertex
 10
1172.157965643668
 20
191.614381668216
 30
0.0
  0
VERTEX
  5
1D5
330
1A3
100
AcDbEntity
  8
4_ANYTOOL_CUTTHROUGH_OUTSI
100
AcDbVertex
100
AcDb2dVertex
 10
1201.926166525938
 20
202.6118738939184
 30
0.0
 42
-0.501976481915838
  0
VERTEX
  5
1D6
330
1A3
100
AcDbEntity
  8
4_ANYTOOL_CUTTHROUGH_OUTSI
100
AcDbVertex
100
AcDb2dVertex
 10
1209.321017985023
 20
197.1021573294638
 30
0.0
  0
VERTEX
  5
1D7
330
1A3
100
AcDbEntity
  8
4_ANYTOOL_CUTTHROUGH_OUTSI
100
AcDbVertex
100
AcDb2dVertex
 10
1209.32147377762
 20
148.5960727555575
 30
0.0
 42
-0.5019765309805793
  0
VERTEX
  5
1D8
330
1A3
100
AcDbEntity
  8
4_ANYTOOL_CUTTHROUGH_OUTSI
100
AcDbVertex
100
AcDb2dVertex
 10
1201.926620329398
 20
143.0863591340916
 30
0.0
  0
VERTEX
  5
1D9
330
1A3
100
AcDbEntity
  8
4_ANYTOOL_CUTTHROUGH_OUTSI
100
AcDbVertex
100
AcDb2dVertex
 10
1172.158106045545
 20
154.0833998330127
 30
0.0
 42
0.0156041594039458
  0
VERTEX
  5
1DA
330
1A3
100
AcDbEntity
  8
4_ANYTOOL_CUTTHROUGH_OUTSI
100
AcDbVertex
100
AcDb2dVertex
 10
1172.143310749003
 20
154.0883465960941
 30
0.0
 42
0.5023969467375942
  0
VERTEX
  5
1DB
330
1A3
100
AcDbEntity
  8
4_ANYTOOL_CUTTHROUGH_OUTSI
100
AcDbVertex
100
AcDb2dVertex
 10
1164.097386464229
 20
148.1019311388882
 30
0.0
  0
VERTEX
  5
1DC
330
1A3
100
AcDbEntity
  8
4_ANYTOOL_CUTTHROUGH_OUTSI
100
AcDbVertex
100
AcDb2dVertex
 10
1164.097842256839
 20
99.59584656500374
 30
0.0
 42
0.5023913917589465
  0
VERTEX
  5
1DD
330
1A3
100
AcDbEntity
  8
4_ANYTOOL_CUTTHROUGH_OUTSI
100
AcDbVertex
100
AcDb2dVertex
 10
1172.143619984394
 20
93.60943278898048
 30
0.0
 42
0.0156106737400594
  0
VERTEX
  5
1DE
330
1A3
100
AcDbEntity
  8
4_ANYTOOL_CUTTHROUGH_OUTSI
100
AcDbVertex
100
AcDb2dVertex
 10
1172.158421436276
 20
93.61438167167216
 30
0.0
  0
VERTEX
  5
1DF
330
1A3
100
AcDbEntity
  8
4_ANYTOOL_CUTTHROUGH_OUTSI
100
AcDbVertex
100
AcDb2dVertex
 10
1201.926622318548
 20
104.6118738973674
 30
0.0
 42
-0.5019764819179761
  0
VERTEX
  5
1E0
330
1A3
100
AcDbEntity
  8
4_ANYTOOL_CUTTHROUGH_OUTSI
100
AcDbVertex
100
AcDb2dVertex
 10
1209.321473777624
 20
99.1021573329126
 30
0.0
  0
VERTEX
  5
1E1
330
1A3
100
AcDbEntity
  8
4_ANYTOOL_CUTTHROUGH_OUTSI
100
AcDbVertex
100
AcDb2dVertex
 10
1209.321929570228
 20
50.5960727590209
 30
0.0
 42
-0.501976530976486
  0
VERTEX
  5
1E2
330
1A3
100
AcDbEntity
  8
4_ANYTOOL_CUTTHROUGH_OUTSI
100
AcDbVertex
100
AcDb2dVertex
 10
1201.927076121999
 20
45.08635913753736
 30
0.0
  0
VERTEX
  5
1E3
330
1A3
100
AcDbEntity
  8
4_ANYTOOL_CUTTHROUGH_OUTSI
100
AcDbVertex
100
AcDb2dVertex
 10
1172.158561838152
 20
56.08339983647602
 30
0.0
 42
0.0156041594063565
  0
VERTEX
  5
1E4
330
1A3
100
AcDbEntity
  8
4_ANYTOOL_CUTTHROUGH_OUTSI
100
AcDbVertex
100
AcDb2dVertex
 10
1172.143766541611
 20
56.08834659955743
 30
0.0
 42
0.5023969467345808
  0
VERTEX
  5
1E5
330
1A3
100
AcDbEntity
  8
4_ANYTOOL_CUTTHROUGH_OUTSI
100
AcDbVertex
100
AcDb2dVertex
 10
1164.097842256842
 20
50.10193114234426
 30
0.0
  0
VERTEX
  5
1E6
330
1A3
100
AcDbEntity
  8
4_ANYTOOL_CUTTHROUGH_OUTSI
100
AcDbVertex
100
AcDb2dVertex
 10
1164.098298049443
 20
1.595846568452544
 30
0.0
 42
0.5023913917544883
  0
VERTEX
  5
1E7
330
1A3
100
AcDbEntity
  8
4_ANYTOOL_CUTTHROUGH_OUTSI
100
AcDbVertex
100
AcDb2dVertex
 10
1172.144075777004
 20
-4.390567207563684
 30
0.0
 42
0.0156106746569164
  0
VERTEX
  5
1E8
330
1A3
100
AcDbEntity
  8
4_ANYTOOL_CUTTHROUGH_OUTSI
100
AcDbVertex
100
AcDb2dVertex
 10
1172.158877228883
 20
-4.385618324871762
 30
0.0
  0
VERTEX
  5
1E9
330
1A3
100
AcDbEntity
  8
4_ANYTOOL_CUTTHROUGH_OUTSI
100
AcDbVertex
100
AcDb2dVertex
 10
1201.927078111141
 20
6.611873900816136
 30
0.0
 42
-0.5019764819187634
  0
VERTEX
  5
1EA
330
1A3
100
AcDbEntity
  8
4_ANYTOOL_CUTTHROUGH_OUTSI
100
AcDbVertex
100
AcDb2dVertex
 10
1209.321929570228
 20
1.102157336368691
 30
0.0
  0
VERTEX
  5
1EB
330
1A3
100
AcDbEntity
  8
4_ANYTOOL_CUTTHROUGH_OUTSI
100
AcDbVertex
100
AcDb2dVertex
 10
1209.32238536283
 20
-47.4039272375303
 30
0.0
 42
-0.501976530978747
  0
VERTEX
  5
1EC
330
1A3
100
AcDbEntity
  8
4_ANYTOOL_CUTTHROUGH_OUTSI
100
AcDbVertex
100
AcDb2dVertex
 10
1201.927531914606
 20
-52.91364085899899
 30
0.0
  0
VERTEX
  5
1ED
330
1A3
100
AcDbEntity
  8
4_ANYTOOL_CUTTHROUGH_OUTSI
100
AcDbVertex
100
AcDb2dVertex
 10
1172.159017630756
 20
-41.91660016007518
 30
0.0
 42
0.0156041593662404
  0
VERTEX
  5
1EE
330
1A3
100
AcDbEntity
  8
4_ANYTOOL_CUTTHROUGH_OUTSI
100
AcDbVertex
100
AcDb2dVertex
 10
1172.144222334216
 20
-41.91165339699377
 30
0.0
 42
0.5023969467439529
  0
VERTEX
  5
1EF
330
1A3
100
AcDbEntity
  8
4_ANYTOOL_CUTTHROUGH_OUTSI
100
AcDbVertex
100
AcDb2dVertex
 10
1164.098298049443
 20
-47.89806885419966
 30
0.0
  0
VERTEX
  5
1F0
330
1A3
100
AcDbEntity
  8
4_ANYTOOL_CUTTHROUGH_OUTSI
100
AcDbVertex
100
AcDb2dVertex
 10
1164.098753842043
 20
-96.40415342809865
 30
0.0
 42
0.5023913917576178
  0
VERTEX
  5
1F1
330
1A3
100
AcDbEntity
  8
4_ANYTOOL_CUTTHROUGH_OUTSI
100
AcDbVertex
100
AcDb2dVertex
 10
1172.144531569597
 20
-102.390567204122
 30
0.0
 42
0.015610673741302
  0
VERTEX
  5
1F2
330
1A3
100
AcDbEntity
  8
4_ANYTOOL_CUTTHROUGH_OUTSI
100
AcDbVertex
100
AcDb2dVertex
 10
1172.159333021478
 20
-102.3856183214303
 30
0.0
  0
VERTEX
  5
1F3
330
1A3
100
AcDbEntity
  8
4_ANYTOOL_CUTTHROUGH_OUTSI
100
AcDbVertex
100
AcDb2dVertex
 10
1201.927533903747
 20
-91.38812609572035
 30
0.0
 42
-0.5019764819219341
  0
VERTEX
  5
1F4
330
1A3
100
AcDbEntity
  8
4_ANYTOOL_CUTTHROUGH_OUTSI
100
AcDbVertex
100
AcDb2dVertex
 10
1209.32238536283
 20
-96.8978426601825
 30
0.0
  0
VERTEX
  5
1F5
330
1A3
100
AcDbEntity
  8
4_ANYTOOL_CUTTHROUGH_OUTSI
100
AcDbVertex
100
AcDb2dVertex
 10
1209.32284115543
 20
-145.4039272340742
 30
0.0
 42
-0.5019765309785305
  0
VERTEX
  5
1F6
330
1A3
100
AcDbEntity
  8
4_ANYTOOL_CUTTHROUGH_OUTSI
100
AcDbVertex
100
AcDb2dVertex
 10
1201.927987707206
 20
-150.913640855542
 30
0.0
  0
VERTEX
  5
1F7
330
1A3
100
AcDbEntity
  8
4_ANYTOOL_CUTTHROUGH_OUTSI
100
AcDbVertex
100
AcDb2dVertex
 10
1172.159473423355
 20
-139.9166001566191
 30
0.0
 42
0.0156041603618861
  0
VERTEX
  5
1F8
330
1A3
100
AcDbEntity
  8
4_ANYTOOL_CUTTHROUGH_OUTSI
100
AcDbVertex
100
AcDb2dVertex
 10
1172.144678126813
 20
-139.9116533935375
 30
0.0
 42
0.5023969467363696
  0
VERTEX
  5
1F9
330
1A3
100
AcDbEntity
  8
4_ANYTOOL_CUTTHROUGH_OUTSI
100
AcDbVertex
100
AcDb2dVertex
 10
1164.098753842043
 20
-145.8980688507581
 30
0.0
  0
VERTEX
  5
1FA
330
1A3
100
AcDbEntity
  8
4_ANYTOOL_CUTTHROUGH_OUTSI
100
AcDbVertex
100
AcDb2dVertex
 10
1164.099209634646
 20
-194.4041534246353
 30
0.0
 42
0.5023913917575624
  0
VERTEX
  5
1FB
330
1A3
100
AcDbEntity
  8
4_ANYTOOL_CUTTHROUGH_OUTSI
100
AcDbVertex
100
AcDb2dVertex
 10
1172.144987362204
 20
-200.3905672006516
 30
0.0
 42
0.0156106738196666
  0
VERTEX
  5
1FC
330
1A3
100
AcDbEntity
  8
4_ANYTOOL_CUTTHROUGH_OUTSI
100
AcDbVertex
100
AcDb2dVertex
 10
1172.159788814086
 20
-200.3856183179595
 30
0.0
  0
VERTEX
  5
1FD
330
1A3
100
AcDbEntity
  8
4_ANYTOOL_CUTTHROUGH_OUTSI
100
AcDbVertex
100
AcDb2dVertex
 10
1201.927989696353
 20
-189.3881260922717
 30
0.0
 42
-0.5019764819121568
  0
VERTEX
  5
1FE
330
1A3
100
AcDbEntity
  8
4_ANYTOOL_CUTTHROUGH_OUTSI
100
AcDbVertex
100
AcDb2dVertex
 10
1209.32284115543
 20
-194.8978426567191
 30
0.0
  0
VERTEX
  5
1FF
330
1A3
100
AcDbEntity
  8
4_ANYTOOL_CUTTHROUGH_OUTSI
100
AcDbVertex
100
AcDb2dVertex
 10
1209.323296948034
 20
-243.4039272306254
 30
0.0
 42
-0.5019765309757304
  0
VERTEX
  5
200
330
1A3
100
AcDbEntity
  8
4_ANYTOOL_CUTTHROUGH_OUTSI
100
AcDbVertex
100
AcDb2dVertex
 10
1201.928443499808
 20
-248.9136408521013
 30
0.0
  0
VERTEX
  5
201
330
1A3
100
AcDbEntity
  8
4_ANYTOOL_CUTTHROUGH_OUTSI
100
AcDbVertex
100
AcDb2dVertex
 10
1172.159929215959
 20
-237.9166001531704
 30
0.0
 42
0.0156041585513624
  0
VERTEX
  5
202
330
1A3
100
AcDbEntity
  8
4_ANYTOOL_CUTTHROUGH_OUTSI
100
AcDbVertex
100
AcDb2dVertex
 10
1172.145133919419
 20
-237.9116533900888
 30
0.0
 42
0.502396887903415
  0
VERTEX
  5
203
330
1A3
100
AcDbEntity
  8
4_ANYTOOL_CUTTHROUGH_OUTSI
100
AcDbVertex
100
AcDb2dVertex
 10
1164.099209634649
 20
-243.8980676727224
 30
0.0
  0
VERTEX
  5
204
330
1A3
100
AcDbEntity
  8
4_ANYTOOL_CUTTHROUGH_OUTSI
100
AcDbVertex
100
AcDb2dVertex
 10
1164.099209634616
 20
-289.4013066531988
 30
0.0
  0
VERTEX
  5
205
330
1A3
100
AcDbEntity
  8
4_ANYTOOL_CUTTHROUGH_OUTSI
100
AcDbVertex
100
AcDb2dVertex
 10
1026.710209634211
 20
-289.4013066535772
 30
0.0
  0
VERTEX
  5
206
330
1A3
100
AcDbEntity
  8
4_ANYTOOL_CUTTHROUGH_OUTSI
100
AcDbVertex
100
AcDb2dVertex
 10
1026.710209634217
 20
-283.6513066535845
 30
0.0
 42
0.4142135624113363
  0
VERTEX
  5
207
330
1A3
100
AcDbEntity
  8
4_ANYTOOL_CUTTHROUGH_OUTSI
100
AcDbVertex
100
AcDb2dVertex
 10
1026.460209634217
 20
-283.4013066535881
 30
0.0
  0
VERTEX
  5
208
330
1A3
100
AcDbEntity
  8
4_ANYTOOL_CUTTHROUGH_OUTSI
100
AcDbVertex
100
AcDb2dVertex
 10
1014.460209634211
 20
-283.4013066535917
 30
0.0
 42
0.4142135623570473
  0
VERTEX
  5
209
330
1A3
100
AcDbEntity
  8
4_ANYTOOL_CUTTHROUGH_OUTSI
100
AcDbVertex
100
AcDb2dVertex
 10
1014.21020963421
 20
-283.6513066535917
 30
0.0
  0
VERTEX
  5
20A
330
1A3
100
AcDbEntity
  8
4_ANYTOOL_CUTTHROUGH_OUTSI
100
AcDbVertex
100
AcDb2dVertex
 10
1014.210209634201
 20
-298.401306653599
 30
0.0
  0
VERTEX
  5
20B
330
1A3
100
AcDbEntity
  8
4_ANYTOOL_CUTTHROUGH_OUTSI
100
AcDbVertex
100
AcDb2dVertex
 10
954.710209634185
 20
-298.4013066536208
 30
0.0
  0
VERTEX
  5
20C
330
1A3
100
AcDbEntity
  8
4_ANYTOOL_CUTTHROUGH_OUTSI
100
AcDbVertex
100
AcDb2dVertex
 10
954.7102096341996
 20
-283.6513066536136
 30
0.0
 42
0.4142135623729814
  0
VERTEX
  5
20D
330
1A3
100
AcDbEntity
  8
4_ANYTOOL_CUTTHROUGH_OUTSI
100
AcDbVertex
100
AcDb2dVertex
 10
954.4602096341996
 20
-283.4013066536136
 30
0.0
  0
VERTEX
  5
20E
330
1A3
100
AcDbEntity
  8
4_ANYTOOL_CUTTHROUGH_OUTSI
100
AcDbVertex
100
AcDb2dVertex
 10
942.460209634195
 20
-283.4013066536281
 30
0.0
 42
0.4142135623677609
  0
VERTEX
  5
20F
330
1A3
100
AcDbEntity
  8
4_ANYTOOL_CUTTHROUGH_OUTSI
100
AcDbVertex
100
AcDb2dVertex
 10
942.2102096341996
 20
-283.6513066536281
 30
0.0
  0
VERTEX
  5
210
330
1A3
100
AcDbEntity
  8
4_ANYTOOL_CUTTHROUGH_OUTSI
100
AcDbVertex
100
AcDb2dVertex
 10
942.2102096341941
 20
-289.4013066537009
 30
0.0
  0
VERTEX
  5
211
330
1A3
100
AcDbEntity
  8
4_ANYTOOL_CUTTHROUGH_OUTSI
100
AcDbVertex
100
AcDb2dVertex
 10
831.7102096354001
 20
-289.4013066538027
 30
0.0
  0
VERTEX
  5
212
330
1A3
100
AcDbEntity
  8
4_ANYTOOL_CUTTHROUGH_OUTSI
100
AcDbVertex
100
AcDb2dVertex
 10
831.7102096354229
 20
-283.6513066536718
 30
0.0
 42
0.4142135623773527
  0
VERTEX
  5
213
330
1A3
100
AcDbEntity
  8
4_ANYTOOL_CUTTHROUGH_OUTSI
100
AcDbVertex
100
AcDb2dVertex
 10
831.4602096354229
 20
-283.4013066536754
 30
0.0
  0
VERTEX
  5
214
330
1A3
100
AcDbEntity
  8
4_ANYTOOL_CUTTHROUGH_OUTSI
100
AcDbVertex
100
AcDb2dVertex
 10
819.4602096354183
 20
-283.4013066536791
 30
0.0
 42
0.4142135623348057
  0
VERTEX
  5
215
330
1A3
100
AcDbEntity
  8
4_ANYTOOL_CUTTHROUGH_OUTSI
100
AcDbVertex
100
AcDb2dVertex
 10
819.210209635422
 20
-283.6513066536791
 30
0.0
  0
VERTEX
  5
216
330
1A3
100
AcDbEntity
  8
4_ANYTOOL_CUTTHROUGH_OUTSI
100
AcDbVertex
100
AcDb2dVertex
 10
819.2102096354047
 20
-298.4013066536863
 30
0.0
  0
VERTEX
  5
217
330
1A3
100
AcDbEntity
  8
4_ANYTOOL_CUTTHROUGH_OUTSI
100
AcDbVertex
100
AcDb2dVertex
 10
759.7102096353892
 20
-298.4013066537154
 30
0.0
  0
VERTEX
  5
218
330
1A3
100
AcDbEntity
  8
4_ANYTOOL_CUTTHROUGH_OUTSI
100
AcDbVertex
100
AcDb2dVertex
 10
759.710209635402
 20
-283.6513066537082
 30
0.0
 42
0.414213562388994
  0
VERTEX
  5
219
330
1A3
100
AcDbEntity
  8
4_ANYTOOL_CUTTHROUGH_OUTSI
100
AcDbVertex
100
AcDb2dVertex
 10
759.460209635402
 20
-283.4013066537073
 30
0.0
  0
VERTEX
  5
21A
330
1A3
100
AcDbEntity
  8
4_ANYTOOL_CUTTHROUGH_OUTSI
100
AcDbVertex
100
AcDb2dVertex
 10
747.4602096353983
 20
-283.4013066537154
 30
0.0
 42
0.4142135623550455
  0
VERTEX
  5
21B
330
1A3
100
AcDbEntity
  8
4_ANYTOOL_CUTTHROUGH_OUTSI
100
AcDbVertex
100
AcDb2dVertex
 10
747.2102096353992
 20
-283.6513066537154
 30
0.0
  0
VERTEX
  5
21C
330
1A3
100
AcDbEntity
  8
4_ANYTOOL_CUTTHROUGH_OUTSI
100
AcDbVertex
100
AcDb2dVertex
 10
747.2102096353901
 20
-289.4013066538464
 30
0.0
  0
VERTEX
  5
21D
330
1A3
100
AcDbEntity
  8
4_ANYTOOL_CUTTHROUGH_OUTSI
100
AcDbVertex
100
AcDb2dVertex
 10
426.7102096340996
 20
-289.4013066537591
 30
0.0
  0
VERTEX
  5
21E
330
1A3
100
AcDbEntity
  8
4_ANYTOOL_CUTTHROUGH_OUTSI
100
AcDbVertex
100
AcDb2dVertex
 10
426.710209634105
 20
-283.6513066537664
 30
0.0
 42
0.4142135623421999
  0
VERTEX
  5
21F
330
1A3
100
AcDbEntity
  8
4_ANYTOOL_CUTTHROUGH_OUTSI
100
AcDbVertex
100
AcDb2dVertex
 10
426.460209634105
 20
-283.4013066537691
 30
0.0
  0
VERTEX
  5
220
330
1A3
100
AcDbEntity
  8
4_ANYTOOL_CUTTHROUGH_OUTSI
100
AcDbVertex
100
AcDb2dVertex
 10
414.4602096340986
 20
-283.4013066537736
 30
0.0
 42
0.4142135624092689
  0
VERTEX
  5
221
330
1A3
100
AcDbEntity
  8
4_ANYTOOL_CUTTHROUGH_OUTSI
100
AcDbVertex
100
AcDb2dVertex
 10
414.2102096340968
 20
-283.6513066537736
 30
0.0
  0
VERTEX
  5
222
330
1A3
100
AcDbEntity
  8
4_ANYTOOL_CUTTHROUGH_OUTSI
100
AcDbVertex
100
AcDb2dVertex
 10
414.2102096340896
 20
-298.4013066537809
 30
0.0
  0
VERTEX
  5
223
330
1A3
100
AcDbEntity
  8
4_ANYTOOL_CUTTHROUGH_OUTSI
100
AcDbVertex
100
AcDb2dVertex
 10
354.7102096340732
 20
-298.4013066538027
 30
0.0
  0
VERTEX
  5
224
330
1A3
100
AcDbEntity
  8
4_ANYTOOL_CUTTHROUGH_OUTSI
100
AcDbVertex
100
AcDb2dVertex
 10
354.7102096340877
 20
-283.6513066537955
 30
0.0
 42
0.4142135623538998
  0
VERTEX
  5
225
330
1A3
100
AcDbEntity
  8
4_ANYTOOL_CUTTHROUGH_OUTSI
100
AcDbVertex
100
AcDb2dVertex
 10
354.4602096340877
 20
-283.4013066537937
 30
0.0
  0
VERTEX
  5
226
330
1A3
100
AcDbEntity
  8
4_ANYTOOL_CUTTHROUGH_OUTSI
100
AcDbVertex
100
AcDb2dVertex
 10
342.4602096340832
 20
-283.40130665381
 30
0.0
 42
0.4142135623902103
  0
VERTEX
  5
227
330
1A3
100
AcDbEntity
  8
4_ANYTOOL_CUTTHROUGH_OUTSI
100
AcDbVertex
100
AcDb2dVertex
 10
342.2102096340832
 20
-283.65130665381
 30
0.0
  0
VERTEX
  5
228
330
1A3
100
AcDbEntity
  8
4_ANYTOOL_CUTTHROUGH_OUTSI
100
AcDbVertex
100
AcDb2dVertex
 10
342.2102096340823
 20
-289.4013066538828
 30
0.0
  0
VERTEX
  5
229
330
1A3
100
AcDbEntity
  8
4_ANYTOOL_CUTTHROUGH_OUTSI
100
AcDbVertex
100
AcDb2dVertex
 10
231.7102096352883
 20
-289.4013066539846
 30
0.0
  0
VERTEX
  5
22A
330
1A3
100
AcDbEntity
  8
4_ANYTOOL_CUTTHROUGH_OUTSI
100
AcDbVertex
100
AcDb2dVertex
 10
231.710209635311
 20
-283.6513066538537
 30
0.0
 42
0.4142135623742016
  0
VERTEX
  5
22B
330
1A3
100
AcDbEntity
  8
4_ANYTOOL_CUTTHROUGH_OUTSI
100
AcDbVertex
100
AcDb2dVertex
 10
231.460209635311
 20
-283.4013066538546
 30
0.0
  0
VERTEX
  5
22C
330
1A3
100
AcDbEntity
  8
4_ANYTOOL_CUTTHROUGH_OUTSI
100
AcDbVertex
100
AcDb2dVertex
 10
219.4602096353065
 20
-283.401306653861
 30
0.0
 42
0.4142135623549886
  0
VERTEX
  5
22D
330
1A3
100
AcDbEntity
  8
4_ANYTOOL_CUTTHROUGH_OUTSI
100
AcDbVertex
100
AcDb2dVertex
 10
219.2102096353074
 20
-283.651306653861
 30
0.0
  0
VERTEX
  5
22E
330
1A3
100
AcDbEntity
  8
4_ANYTOOL_CUTTHROUGH_OUTSI
100
AcDbVertex
100
AcDb2dVertex
 10
219.2102096352919
 20
-298.4013066538682
 30
0.0
  0
VERTEX
  5
22F
330
1A3
100
AcDbEntity
  8
4_ANYTOOL_CUTTHROUGH_OUTSI
100
AcDbVertex
100
AcDb2dVertex
 10
159.7102096352774
 20
-298.4013066538973
 30
0.0
  0
VERTEX
  5
230
330
1A3
100
AcDbEntity
  8
4_ANYTOOL_CUTTHROUGH_OUTSI
100
AcDbVertex
100
AcDb2dVertex
 10
159.7102096352901
 20
-283.6513066538901
 30
0.0
 42
0.4142135623763483
  0
VERTEX
  5
231
330
1A3
100
AcDbEntity
  8
4_ANYTOOL_CUTTHROUGH_OUTSI
100
AcDbVertex
100
AcDb2dVertex
 10
159.4602096352901
 20
-283.4013066538928
 30
0.0
  0
VERTEX
  5
232
330
1A3
100
AcDbEntity
  8
4_ANYTOOL_CUTTHROUGH_OUTSI
100
AcDbVertex
100
AcDb2dVertex
 10
147.4602096352864
 20
-283.4013066538973
 30
0.0
 42
0.414213562344332
  0
VERTEX
  5
233
330
1A3
100
AcDbEntity
  8
4_ANYTOOL_CUTTHROUGH_OUTSI
100
AcDbVertex
100
AcDb2dVertex
 10
147.2102096352819
 20
-283.6513066538973
 30
0.0
  0
VERTEX
  5
234
330
1A3
100
AcDbEntity
  8
4_ANYTOOL_CUTTHROUGH_OUTSI
100
AcDbVertex
100
AcDb2dVertex
 10
147.2102096352792
 20
-289.4013066540283
 30
0.0
  0
VERTEX
  5
235
330
1A3
100
AcDbEntity
  8
4_ANYTOOL_CUTTHROUGH_OUTSI
100
AcDbVertex
100
AcDb2dVertex
 10
-173.2897903660169
 20
-289.4013066539337
 30
0.0
  0
VERTEX
  5
236
330
1A3
100
AcDbEntity
  8
4_ANYTOOL_CUTTHROUGH_OUTSI
100
AcDbVertex
100
AcDb2dVertex
 10
-173.2897903660114
 20
-283.651306653941
 30
0.0
 42
0.414213562372055
  0
VERTEX
  5
237
330
1A3
100
AcDbEntity
  8
4_ANYTOOL_CUTTHROUGH_OUTSI
100
AcDbVertex
100
AcDb2dVertex
 10
-173.5397903660114
 20
-283.4013066539401
 30
0.0
  0
VERTEX
  5
238
330
1A3
100
AcDbEntity
  8
4_ANYTOOL_CUTTHROUGH_OUTSI
100
AcDbVertex
100
AcDb2dVertex
 10
-185.5397903660178
 20
-283.4013066539483
 30
0.0
 42
0.4142135623635317
  0
VERTEX
  5
239
330
1A3
100
AcDbEntity
  8
4_ANYTOOL_CUTTHROUGH_OUTSI
100
AcDbVertex
100
AcDb2dVertex
 10
-185.7897903660096
 20
-283.6513066539483
 30
0.0
  0
VERTEX
  5
23A
330
1A3
100
AcDbEntity
  8
4_ANYTOOL_CUTTHROUGH_OUTSI
100
AcDbVertex
100
AcDb2dVertex
 10
-185.7897903660269
 20
-298.4013066539555
 30
0.0
  0
VERTEX
  5
23B
330
1A3
100
AcDbEntity
  8
4_ANYTOOL_CUTTHROUGH_OUTSI
100
AcDbVertex
100
AcDb2dVertex
 10
-245.2897903660432
 20
-298.4013066539774
 30
0.0
  0
VERTEX
  5
23C
330
1A3
100
AcDbEntity
  8
4_ANYTOOL_CUTTHROUGH_OUTSI
100
AcDbVertex
100
AcDb2dVertex
 10
-245.2897903660287
 20
-283.6513066539701
 30
0.0
 42
0.4142135624220553
  0
VERTEX
  5
23D
330
1A3
100
AcDbEntity
  8
4_ANYTOOL_CUTTHROUGH_OUTSI
100
AcDbVertex
100
AcDb2dVertex
 10
-245.5397903660287
 20
-283.4013066539683
 30
0.0
  0
VERTEX
  5
23E
330
1A3
100
AcDbEntity
  8
4_ANYTOOL_CUTTHROUGH_OUTSI
100
AcDbVertex
100
AcDb2dVertex
 10
-257.5397903660332
 20
-283.4013066539846
 30
0.0
 42
0.4142135623538287
  0
VERTEX
  5
23F
330
1A3
100
AcDbEntity
  8
4_ANYTOOL_CUTTHROUGH_OUTSI
100
AcDbVertex
100
AcDb2dVertex
 10
-257.7897903660314
 20
-283.6513066539846
 30
0.0
  0
VERTEX
  5
240
330
1A3
100
AcDbEntity
  8
4_ANYTOOL_CUTTHROUGH_OUTSI
100
AcDbVertex
100
AcDb2dVertex
 10
-257.7897903660341
 20
-289.4013066540574
 30
0.0
  0
VERTEX
  5
241
330
1A3
100
AcDbEntity
  8
4_ANYTOOL_CUTTHROUGH_OUTSI
100
AcDbVertex
100
AcDb2dVertex
 10
-368.2897903648227
 20
-289.4013066541593
 30
0.0
  0
VERTEX
  5
242
330
1A3
100
AcDbEntity
  8
4_ANYTOOL_CUTTHROUGH_OUTSI
100
AcDbVertex
100
AcDb2dVertex
 10
-368.2897903648054
 20
-283.6513066540283
 30
0.0
 42
0.4142135623326387
  0
VERTEX
  5
243
330
1A3
100
AcDbEntity
  8
4_ANYTOOL_CUTTHROUGH_OUTSI
100
AcDbVertex
100
AcDb2dVertex
 10
-368.5397903648054
 20
-283.4013066540374
 30
0.0
  0
VERTEX
  5
244
330
1A3
100
AcDbEntity
  8
4_ANYTOOL_CUTTHROUGH_OUTSI
100
AcDbVertex
100
AcDb2dVertex
 10
-380.53979036481
 20
-283.4013066540356
 30
0.0
 42
0.4142135623518269
  0
VERTEX
  5
245
330
1A3
100
AcDbEntity
  8
4_ANYTOOL_CUTTHROUGH_OUTSI
100
AcDbVertex
100
AcDb2dVertex
 10
-380.7897903648063
 20
-283.6513066540356
 30
0.0
  0
VERTEX
  5
246
330
1A3
100
AcDbEntity
  8
4_ANYTOOL_CUTTHROUGH_OUTSI
100
AcDbVertex
100
AcDb2dVertex
 10
-380.7897903648245
 20
-298.4013066540429
 30
0.0
  0
VERTEX
  5
247
330
1A3
100
AcDbEntity
  8
4_ANYTOOL_CUTTHROUGH_OUTSI
100
AcDbVertex
100
AcDb2dVertex
 10
-440.2897903648391
 20
-298.401306654072
 30
0.0
  0
VERTEX
  5
248
330
1A3
100
AcDbEntity
  8
4_ANYTOOL_CUTTHROUGH_OUTSI
100
AcDbVertex
100
AcDb2dVertex
 10
-440.2897903648263
 20
-283.6513066540647
 30
0.0
 42
0.4142135623869415
  0
VERTEX
  5
249
330
1A3
100
AcDbEntity
  8
4_ANYTOOL_CUTTHROUGH_OUTSI
100
AcDbVertex
100
AcDb2dVertex
 10
-440.5397903648263
 20
-283.401306654062
 30
0.0
  0
VERTEX
  5
24A
330
1A3
100
AcDbEntity
  8
4_ANYTOOL_CUTTHROUGH_OUTSI
100
AcDbVertex
100
AcDb2dVertex
 10
-452.53979036483
 20
-283.401306654072
 30
0.0
 42
0.414213562360266
  0
VERTEX
  5
24B
330
1A3
100
AcDbEntity
  8
4_ANYTOOL_CUTTHROUGH_OUTSI
100
AcDbVertex
100
AcDb2dVertex
 10
-452.7897903648336
 20
-283.651306654072
 30
0.0
  0
VERTEX
  5
24C
330
1A3
100
AcDbEntity
  8
4_ANYTOOL_CUTTHROUGH_OUTSI
100
AcDbVertex
100
AcDb2dVertex
 10
-452.7897903648382
 20
-289.4013066542029
 30
0.0
  0
VERTEX
  5
24D
330
1A3
100
AcDbEntity
  8
4_ANYTOOL_CUTTHROUGH_OUTSI
100
AcDbVertex
100
AcDb2dVertex
 10
-773.289790367041
 20
-289.4013066543921
 30
0.0
  0
VERTEX
  5
24E
330
1A3
100
AcDbEntity
  8
4_ANYTOOL_CUTTHROUGH_OUTSI
100
AcDbVertex
100
AcDb2dVertex
 10
-773.28979036704
 20
-283.6513066544067
 30
0.0
 42
0.4142135623750728
  0
VERTEX
  5
24F
330
1A3
100
AcDbEntity
  8
4_ANYTOOL_CUTTHROUGH_OUTSI
100
AcDbVertex
100
AcDb2dVertex
 10
-773.53979036704
 20
-283.4013066544085
 30
0.0
  0
VERTEX
  5
250
330
1A3
100
AcDbEntity
  8
4_ANYTOOL_CUTTHROUGH_OUTSI
100
AcDbVertex
100
AcDb2dVertex
 10
-785.5397903670491
 20
-283.4013066544067
 30
0.0
 42
0.4142135623731422
  0
VERTEX
  5
251
330
1A3
100
AcDbEntity
  8
4_ANYTOOL_CUTTHROUGH_OUTSI
100
AcDbVertex
100
AcDb2dVertex
 10
-785.7897903670491
 20
-283.6513066544067
 30
0.0
  0
VERTEX
  5
252
330
1A3
100
AcDbEntity
  8
4_ANYTOOL_CUTTHROUGH_OUTSI
100
AcDbVertex
100
AcDb2dVertex
 10
-785.7897903670546
 20
-298.4013066544212
 30
0.0
  0
VERTEX
  5
253
330
1A3
100
AcDbEntity
  8
4_ANYTOOL_CUTTHROUGH_OUTSI
100
AcDbVertex
100
AcDb2dVertex
 10
-845.2897903670837
 20
-298.4013066544067
 30
0.0
  0
VERTEX
  5
254
330
1A3
100
AcDbEntity
  8
4_ANYTOOL_CUTTHROUGH_OUTSI
100
AcDbVertex
100
AcDb2dVertex
 10
-845.2897903670682
 20
-283.6513066543921
 30
0.0
 42
0.4142135623859997
  0
VERTEX
  5
255
330
1A3
100
AcDbEntity
  8
4_ANYTOOL_CUTTHROUGH_OUTSI
100
AcDbVertex
100
AcDb2dVertex
 10
-845.5397903670682
 20
-283.4013066543885
 30
0.0
  0
VERTEX
  5
256
330
1A3
100
AcDbEntity
  8
4_ANYTOOL_CUTTHROUGH_OUTSI
100
AcDbVertex
100
AcDb2dVertex
 10
-857.5397903670755
 20
-283.4013066544067
 30
0.0
 42
0.4142135623463808
  0
VERTEX
  5
257
330
1A3
100
AcDbEntity
  8
4_ANYTOOL_CUTTHROUGH_OUTSI
100
AcDbVertex
100
AcDb2dVertex
 10
-857.7897903670819
 20
-283.6513066544067
 30
0.0
  0
VERTEX
  5
258
330
1A3
100
AcDbEntity
  8
4_ANYTOOL_CUTTHROUGH_OUTSI
100
AcDbVertex
100
AcDb2dVertex
 10
-857.7897903670819
 20
-289.4013066544649
 30
0.0
  0
VERTEX
  5
259
330
1A3
100
AcDbEntity
  8
4_ANYTOOL_CUTTHROUGH_OUTSI
100
AcDbVertex
100
AcDb2dVertex
 10
-968.2897903658886
 20
-289.4013066545158
 30
0.0
  0
VERTEX
  5
25A
330
1A3
100
AcDbEntity
  8
4_ANYTOOL_CUTTHROUGH_OUTSI
100
AcDbVertex
100
AcDb2dVertex
 10
-968.2897903658695
 20
-283.6513066543848
 30
0.0
 42
0.4142135623496422
  0
VERTEX
  5
25B
330
1A3
100
AcDbEntity
  8
4_ANYTOOL_CUTTHROUGH_OUTSI
100
AcDbVertex
100
AcDb2dVertex
 10
-968.5397903658695
 20
-283.4013066543794
 30
0.0
  0
VERTEX
  5
25C
330
1A3
100
AcDbEntity
  8
4_ANYTOOL_CUTTHROUGH_OUTSI
100
AcDbVertex
100
AcDb2dVertex
 10
-980.5397903658759
 20
-283.4013066543848
 30
0.0
 42
0.4142135623900967
  0
VERTEX
  5
25D
330
1A3
100
AcDbEntity
  8
4_ANYTOOL_CUTTHROUGH_OUTSI
100
AcDbVertex
100
AcDb2dVertex
 10
-980.7897903658759
 20
-283.6513066543848
 30
0.0
  0
VERTEX
  5
25E
330
1A3
100
AcDbEntity
  8
4_ANYTOOL_CUTTHROUGH_OUTSI
100
AcDbVertex
100
AcDb2dVertex
 10
-980.7897903658913
 20
-298.4013066543848
 30
0.0
  0
VERTEX
  5
25F
330
1A3
100
AcDbEntity
  8
4_ANYTOOL_CUTTHROUGH_OUTSI
100
AcDbVertex
100
AcDb2dVertex
 10
-1040.289790365918
 20
-298.4013066543775
 30
0.0
  0
VERTEX
  5
260
330
1A3
100
AcDbEntity
  8
4_ANYTOOL_CUTTHROUGH_OUTSI
100
AcDbVertex
100
AcDb2dVertex
 10
-1040.289790365904
 20
-283.651306654363
 30
0.0
 42
0.4142135623642596
  0
VERTEX
  5
261
330
1A3
100
AcDbEntity
  8
4_ANYTOOL_CUTTHROUGH_OUTSI
100
AcDbVertex
100
AcDb2dVertex
 10
-1040.539790365904
 20
-283.4013066543703
 30
0.0
  0
VERTEX
  5
262
330
1A3
100
AcDbEntity
  8
4_ANYTOOL_CUTTHROUGH_OUTSI
100
AcDbVertex
100
AcDb2dVertex
 10
-1052.539790365911
 20
-283.401306654363
 30
0.0
 42
0.4142135623764744
  0
VERTEX
  5
263
330
1A3
100
AcDbEntity
  8
4_ANYTOOL_CUTTHROUGH_OUTSI
100
AcDbVertex
100
AcDb2dVertex
 10
-1052.789790365914
 20
-283.651306654363
 30
0.0
  0
VERTEX
  5
264
330
1A3
100
AcDbEntity
  8
4_ANYTOOL_CUTTHROUGH_OUTSI
100
AcDbVertex
100
AcDb2dVertex
 10
-1052.789790365916
 20
-289.401306654494
 30
0.0
  0
VERTEX
  5
265
330
1A3
100
AcDbEntity
  8
4_ANYTOOL_CUTTHROUGH_OUTSI
100
AcDbVertex
100
AcDb2dVertex
 10
-1180.789790365419
 20
-289.4013066544067
 30
0.0
  0
VERTEX
  5
266
330
1A3
100
AcDbEntity
  8
4_ANYTOOL_CUTTHROUGH_OUTSI
100
AcDbVertex
100
AcDb2dVertex
 10
-1180.789790365437
 20
310.0986933455497
 30
0.0
  0
VERTEX
  5
267
330
1A3
100
AcDbEntity
  8
4_ANYTOOL_CUTTHROUGH_OUTSI
100
AcDbVertex
100
AcDb2dVertex
 10
-1156.289790365428
 20
310.098693345557
 30
0.0
  0
VERTEX
  5
268
330
1A3
100
AcDbEntity
  8
4_ANYTOOL_CUTTHROUGH_OUTSI
100
AcDbVertex
100
AcDb2dVertex
 10
-1156.289790365429
 20
286.348693345557
 30
0.0
 42
0.4142135623859997
  0
VERTEX
  5
269
330
1A3
100
AcDbEntity
  8
4_ANYTOOL_CUTTHROUGH_OUTSI
100
AcDbVertex
100
AcDb2dVertex
 10
-1156.039790365429
 20
286.0986933455533
 30
0.0
  0
VERTEX
  5
26A
330
1A3
100
AcDbEntity
  8
4_ANYTOOL_CUTTHROUGH_OUTSI
100
AcDbVertex
100
AcDb2dVertex
 10
-1144.039790365423
 20
286.0986933455424
 30
0.0
 42
0.4142135623718278
  0
VERTEX
  5
26B
330
1A3
100
AcDbEntity
  8
4_ANYTOOL_CUTTHROUGH_OUTSI
100
AcDbVertex
100
AcDb2dVertex
 10
-1143.789790365424
 20
286.3486933455424
 30
0.0
  0
VERTEX
  5
26C
330
1A3
100
AcDbEntity
  8
4_ANYTOOL_CUTTHROUGH_OUTSI
100
AcDbVertex
100
AcDb2dVertex
 10
-1143.789790365425
 20
292.098693345557
 30
0.0
  0
VERTEX
  5
26D
330
1A3
100
AcDbEntity
  8
4_ANYTOOL_CUTTHROUGH_OUTSI
100
AcDbVertex
100
AcDb2dVertex
 10
-1100.289790366232
 20
292.098693345557
 30
0.0
  0
VERTEX
  5
26E
330
1A3
100
AcDbEntity
  8
4_ANYTOOL_CUTTHROUGH_OUTSI
100
AcDbVertex
100
AcDb2dVertex
 10
-1100.289790366232
 20
286.348693345557
 30
0.0
 42
0.4142135623847559
  0
VERTEX
  5
26F
330
1A3
100
AcDbEntity
  8
4_ANYTOOL_CUTTHROUGH_OUTSI
100
AcDbVertex
100
AcDb2dVertex
 10
-1100.039790366234
 20
286.0986933455551
 30
0.0
  0
VERTEX
  5
270
330
1A3
100
AcDbEntity
  8
4_ANYTOOL_CUTTHROUGH_OUTSI
100
AcDbVertex
100
AcDb2dVertex
 10
-1088.039790366224
 20
286.0986933454114
 30
0.0
 42
0.4142135623879536
  0
VERTEX
  5
271
330
1A3
100
AcDbEntity
  8
4_ANYTOOL_CUTTHROUGH_OUTSI
100
AcDbVertex
100
AcDb2dVertex
 10
-1087.789790366226
 20
286.3486933454114
 30
0.0
  0
VERTEX
  5
272
330
1A3
100
AcDbEntity
  8
4_ANYTOOL_CUTTHROUGH_OUTSI
100
AcDbVertex
100
AcDb2dVertex
 10
-1087.789790366217
 20
310.098693345426
 30
0.0
  0
VERTEX
  5
273
330
1A3
100
AcDbEntity
  8
4_ANYTOOL_CUTTHROUGH_OUTSI
100
AcDbVertex
100
AcDb2dVertex
 10
-943.2897903661251
 20
310.0986933454406
 30
0.0
  0
VERTEX
  5
274
330
1A3
100
AcDbEntity
  8
4_ANYTOOL_CUTTHROUGH_OUTSI
100
AcDbVertex
100
AcDb2dVertex
 10
-943.2897903661597
 20
286.3486933454406
 30
0.0
 42
0.4142135623750728
  0
VERTEX
  5
275
330
1A3
100
AcDbEntity
  8
4_ANYTOOL_CUTTHROUGH_OUTSI
100
AcDbVertex
100
AcDb2dVertex
 10
-943.0397903661597
 20
286.0986933454424
 30
0.0
  0
VERTEX
  5
276
330
1A3
100
AcDbEntity
  8
4_ANYTOOL_CUTTHROUGH_OUTSI
100
AcDbVertex
100
AcDb2dVertex
 10
-931.0397903661487
 20
286.098693345426
 30
0.0
 42
0.4142135623890405
  0
VERTEX
  5
277
330
1A3
100
AcDbEntity
  8
4_ANYTOOL_CUTTHROUGH_OUTSI
100
AcDbVertex
100
AcDb2dVertex
 10
-930.7897903661496
 20
286.348693345426
 30
0.0
  0
VERTEX
  5
278
330
1A3
100
AcDbEntity
  8
4_ANYTOOL_CUTTHROUGH_OUTSI
100
AcDbVertex
100
AcDb2dVertex
 10
-930.7897903661469
 20
292.098693345426
 30
0.0
  0
VERTEX
  5
279
330
1A3
100
AcDbEntity
  8
4_ANYTOOL_CUTTHROUGH_OUTSI
100
AcDbVertex
100
AcDb2dVertex
 10
-895.2897903660969
 20
292.0986933454114
 30
0.0
  0
VERTEX
  5
27A
330
1A3
100
AcDbEntity
  8
4_ANYTOOL_CUTTHROUGH_OUTSI
100
AcDbVertex
100
AcDb2dVertex
 10
-895.289790366106
 20
286.3486933454114
 30
0.0
 42
0.4142135623869415
  0
VERTEX
  5
27B
330
1A3
100
AcDbEntity
  8
4_ANYTOOL_CUTTHROUGH_OUTSI
100
AcDbVertex
100
AcDb2dVertex
 10
-895.039790366106
 20
286.0986933454087
 30
0.0
  0
VERTEX
  5
27C
330
1A3
100
AcDbEntity
  8
4_ANYTOOL_CUTTHROUGH_OUTSI
100
AcDbVertex
100
AcDb2dVertex
 10
-883.0397903661005
 20
286.0986933454114
 30
0.0
 42
0.4142135623772871
  0
VERTEX
  5
27D
330
1A3
100
AcDbEntity
  8
4_ANYTOOL_CUTTHROUGH_OUTSI
100
AcDbVertex
100
AcDb2dVertex
 10
-882.7897903660969
 20
286.3486933454114
 30
0.0
  0
VERTEX
  5
27E
330
1A3
100
AcDbEntity
  8
4_ANYTOOL_CUTTHROUGH_OUTSI
100
AcDbVertex
100
AcDb2dVertex
 10
-882.7897903660651
 20
310.098693345426
 30
0.0
  0
VERTEX
  5
27F
330
1A3
100
AcDbEntity
  8
4_ANYTOOL_CUTTHROUGH_OUTSI
100
AcDbVertex
100
AcDb2dVertex
 10
-843.692311370808
 20
310.0986933454042
 30
0.0
  0
VERTEX
  5
280
330
1A3
100
AcDbEntity
  8
4_ANYTOOL_CUTTHROUGH_OUTSI
100
AcDbVertex
100
AcDb2dVertex
 10
-843.9272217284499
 20
308.7038231450877
 30
0.0
  0
VERTEX
  5
281
330
1A3
100
AcDbEntity
  8
4_ANYTOOL_CUTTHROUGH_OUTSI
100
AcDbVertex
100
AcDb2dVertex
 10
-860.8227549552121
 20
260.4312809515686
 30
0.0
  0
VERTEX
  5
282
330
1A3
100
AcDbEntity
  8
4_ANYTOOL_CUTTHROUGH_OUTSI
100
AcDbVertex
100
AcDb2dVertex
 10
-860.8367903661215
 20
260.3486933453896
 30
0.0
 42
0.4142135623769659
  0
VERTEX
  5
283
330
1A3
100
AcDbEntity
  8
4_ANYTOOL_CUTTHROUGH_OUTSI
100
AcDbVertex
100
AcDb2dVertex
 10
-854.5867903661074
 20
254.0986933453869
 30
0.0
  0
VERTEX
  5
284
330
1A3
100
AcDbEntity
  8
4_ANYTOOL_CUTTHROUGH_OUTSI
100
AcDbVertex
100
AcDb2dVertex
 10
-776.5867903661165
 20
254.0986933453751
 30
0.0
 42
0.4142135623707064
  0
VERTEX
  5
285
330
1A3
100
AcDbEntity
  8
4_ANYTOOL_CUTTHROUGH_OUTSI
100
AcDbVertex
100
AcDb2dVertex
 10
-770.3367903660801
 20
260.3486933453896
 30
0.0
  0
VERTEX
  5
286
330
1A3
100
AcDbEntity
  8
4_ANYTOOL_CUTTHROUGH_OUTSI
100
AcDbVertex
100
AcDb2dVertex
 10
-770.3508257769928
 20
260.4312809515683
 30
0.0
  0
VERTEX
  5
287
330
1A3
100
AcDbEntity
  8
4_ANYTOOL_CUTTHROUGH_OUTSI
100
AcDbVertex
100
AcDb2dVertex
 10
-787.2499387709513
 20
308.7148881230823
 30
0.0
  0
VERTEX
  5
288
330
1A3
100
AcDbEntity
  8
4_ANYTOOL_CUTTHROUGH_OUTSI
100
AcDbVertex
100
AcDb2dVertex
 10
-787.481353012551
 20
310.0986933454029
 30
0.0
  0
VERTEX
  5
289
330
1A3
100
AcDbEntity
  8
4_ANYTOOL_CUTTHROUGH_OUTSI
100
AcDbVertex
100
AcDb2dVertex
 10
-713.2897903649573
 20
310.0986933456516
 30
0.0
  0
VERTEX
  5
28A
330
1A3
100
AcDbEntity
  8
4_ANYTOOL_CUTTHROUGH_OUTSI
100
AcDbVertex
100
AcDb2dVertex
 10
-713.2897903650055
 20
286.3486933456734
 30
0.0
 42
0.4142135623750728
  0
VERTEX
  5
28B
330
1A3
100
AcDbEntity
  8
4_ANYTOOL_CUTTHROUGH_OUTSI
100
AcDbVertex
100
AcDb2dVertex
 10
-713.0397903650055
 20
286.0986933456752
 30
0.0
  0
VERTEX
  5
28C
330
1A3
100
AcDbEntity
  8
4_ANYTOOL_CUTTHROUGH_OUTSI
100
AcDbVertex
100
AcDb2dVertex
 10
-701.0397903650055
 20
286.0986933457098
 30
0.0
 42
0.4142135623772871
  0
VERTEX
  5
28D
330
1A3
100
AcDbEntity
  8
4_ANYTOOL_CUTTHROUGH_OUTSI
100
AcDbVertex
100
AcDb2dVertex
 10
-700.7897903650019
 20
286.3486933457098
 30
0.0
  0
VERTEX
  5
28E
330
1A3
100
AcDbEntity
  8
4_ANYTOOL_CUTTHROUGH_OUTSI
100
AcDbVertex
100
AcDb2dVertex
 10
-700.7897903649819
 20
292.098693345506
 30
0.0
  0
VERTEX
  5
28F
330
1A3
100
AcDbEntity
  8
4_ANYTOOL_CUTTHROUGH_OUTSI
100
AcDbVertex
100
AcDb2dVertex
 10
-525.2897903649518
 20
292.0986933455715
 30
0.0
  0
VERTEX
  5
290
330
1A3
100
AcDbEntity
  8
4_ANYTOOL_CUTTHROUGH_OUTSI
100
AcDbVertex
100
AcDb2dVertex
 10
-525.2897903649773
 20
286.3486933457825
 30
0.0
 42
0.4142135623732087
  0
VERTEX
  5
291
330
1A3
100
AcDbEntity
  8
4_ANYTOOL_CUTTHROUGH_OUTSI
100
AcDbVertex
100
AcDb2dVertex
 10
-525.0397903649791
 20
286.0986933457843
 30
0.0
  0
VERTEX
  5
292
330
1A3
100
AcDbEntity
  8
4_ANYTOOL_CUTTHROUGH_OUTSI
100
AcDbVertex
100
AcDb2dVertex
 10
-513.0397903649764
 20
286.0986933456952
 30
0.0
 42
0.414213562345419
  0
VERTEX
  5
293
330
1A3
100
AcDbEntity
  8
4_ANYTOOL_CUTTHROUGH_OUTSI
100
AcDbVertex
100
AcDb2dVertex
 10
-512.7897903649709
 20
286.3486933456952
 30
0.0
  0
VERTEX
  5
294
330
1A3
100
AcDbEntity
  8
4_ANYTOOL_CUTTHROUGH_OUTSI
100
AcDbVertex
100
AcDb2dVertex
 10
-512.78979036496
 20
310.0986933457025
 30
0.0
  0
VERTEX
  5
295
330
1A3
100
AcDbEntity
  8
4_ANYTOOL_CUTTHROUGH_OUTSI
100
AcDbVertex
100
AcDb2dVertex
 10
-438.598311369823
 20
310.0986933457752
 30
0.0
  0
VERTEX
  5
296
330
1A3
100
AcDbEntity
  8
4_ANYTOOL_CUTTHROUGH_OUTSI
100
AcDbVertex
100
AcDb2dVertex
 10
-438.8332217274617
 20
308.7038231454592
 30
0.0
  0
VERTEX
  5
297
330
1A3
100
AcDbEntity
  8
4_ANYTOOL_CUTTHROUGH_OUTSI
100
AcDbVertex
100
AcDb2dVertex
 10
-455.728754954227
 20
260.4312809519542
 30
0.0
  0
VERTEX
  5
298
330
1A3
100
AcDbEntity
  8
4_ANYTOOL_CUTTHROUGH_OUTSI
100
AcDbVertex
100
AcDb2dVertex
 10
-455.7427903651349
 20
260.3486933457752
 30
0.0
 42
0.4142135623765662
  0
VERTEX
  5
299
330
1A3
100
AcDbEntity
  8
4_ANYTOOL_CUTTHROUGH_OUTSI
100
AcDbVertex
100
AcDb2dVertex
 10
-449.4927903651133
 20
254.0986933457525
 30
0.0
  0
VERTEX
  5
29A
330
1A3
100
AcDbEntity
  8
4_ANYTOOL_CUTTHROUGH_OUTSI
100
AcDbVertex
100
AcDb2dVertex
 10
-371.4927903651396
 20
254.0986933457898
 30
0.0
 42
0.4142135623736923
  0
VERTEX
  5
29B
330
1A3
100
AcDbEntity
  8
4_ANYTOOL_CUTTHROUGH_OUTSI
100
AcDbVertex
100
AcDb2dVertex
 10
-365.2427903651196
 20
260.3486933457971
 30
0.0
  0
VERTEX
  5
29C
330
1A3
100
AcDbEntity
  8
4_ANYTOOL_CUTTHROUGH_OUTSI
100
AcDbVertex
100
AcDb2dVertex
 10
-365.2568257760216
 20
260.4312809519766
 30
0.0
  0
VERTEX
  5
29D
330
1A3
100
AcDbEntity
  8
4_ANYTOOL_CUTTHROUGH_OUTSI
100
AcDbVertex
100
AcDb2dVertex
 10
-382.1559387703992
 20
308.7148881248795
 30
0.0
  0
VERTEX
  5
29E
330
1A3
100
AcDbEntity
  8
4_ANYTOOL_CUTTHROUGH_OUTSI
100
AcDbVertex
100
AcDb2dVertex
 10
-382.3873530115825
 20
310.098693345784
 30
0.0
  0
VERTEX
  5
29F
330
1A3
100
AcDbEntity
  8
4_ANYTOOL_CUTTHROUGH_OUTSI
100
AcDbVertex
100
AcDb2dVertex
 10
-343.2897903650455
 20
310.0986933458116
 30
0.0
  0
VERTEX
  5
2A0
330
1A3
100
AcDbEntity
  8
4_ANYTOOL_CUTTHROUGH_OUTSI
100
AcDbVertex
100
AcDb2dVertex
 10
-343.289790365081
 20
286.3486933458043
 30
0.0
 42
0.4142135623421999
  0
VERTEX
  5
2A1
330
1A3
100
AcDbEntity
  8
4_ANYTOOL_CUTTHROUGH_OUTSI
100
AcDbVertex
100
AcDb2dVertex
 10
-343.039790365081
 20
286.0986933458071
 30
0.0
  0
VERTEX
  5
2A2
330
1A3
100
AcDbEntity
  8
4_ANYTOOL_CUTTHROUGH_OUTSI
100
AcDbVertex
100
AcDb2dVertex
 10
-331.0397903650701
 20
286.0986933458043
 30
0.0
 42
0.4142135623528829
  0
VERTEX
  5
2A3
330
1A3
100
AcDbEntity
  8
4_ANYTOOL_CUTTHROUGH_OUTSI
100
AcDbVertex
100
AcDb2dVertex
 10
-330.7897903650728
 20
286.3486933458043
 30
0.0
  0
VERTEX
  5
2A4
330
1A3
100
AcDbEntity
  8
4_ANYTOOL_CUTTHROUGH_OUTSI
100
AcDbVertex
100
AcDb2dVertex
 10
-330.7897903650692
 20
292.0986933457971
 30
0.0
  0
VERTEX
  5
2A5
330
1A3
100
AcDbEntity
  8
4_ANYTOOL_CUTTHROUGH_OUTSI
100
AcDbVertex
100
AcDb2dVertex
 10
-295.2897903650282
 20
292.0986933458116
 30
0.0
  0
VERTEX
  5
2A6
330
1A3
100
AcDbEntity
  8
4_ANYTOOL_CUTTHROUGH_OUTSI
100
AcDbVertex
100
AcDb2dVertex
 10
-295.2897903650364
 20
286.3486933458116
 30
0.0
 42
0.4142135623614618
  0
VERTEX
  5
2A7
330
1A3
100
AcDbEntity
  8
4_ANYTOOL_CUTTHROUGH_OUTSI
100
AcDbVertex
100
AcDb2dVertex
 10
-295.0397903650364
 20
286.0986933458162
 30
0.0
  0
VERTEX
  5
2A8
330
1A3
100
AcDbEntity
  8
4_ANYTOOL_CUTTHROUGH_OUTSI
100
AcDbVertex
100
AcDb2dVertex
 10
-283.0397903650337
 20
286.0986933458189
 30
0.0
 42
0.4142135623828271
  0
VERTEX
  5
2A9
330
1A3
100
AcDbEntity
  8
4_ANYTOOL_CUTTHROUGH_OUTSI
100
AcDbVertex
100
AcDb2dVertex
 10
-282.7897903650401
 20
286.3486933458189
 30
0.0
  0
VERTEX
  5
2AA
330
1A3
100
AcDbEntity
  8
4_ANYTOOL_CUTTHROUGH_OUTSI
100
AcDbVertex
100
AcDb2dVertex
 10
-282.7897903649955
 20
310.0986933458262
 30
0.0
  0
VERTEX
  5
2AB
330
1A3
100
AcDbEntity
  8
4_ANYTOOL_CUTTHROUGH_OUTSI
100
AcDbVertex
100
AcDb2dVertex
 10
-243.6923113697467
 20
310.0986933458335
 30
0.0
  0
VERTEX
  5
2AC
330
1A3
100
AcDbEntity
  8
4_ANYTOOL_CUTTHROUGH_OUTSI
100
AcDbVertex
100
AcDb2dVertex
 10
-243.9272217273873
 20
308.703823145532
 30
0.0
  0
VERTEX
  5
2AD
330
1A3
100
AcDbEntity
  8
4_ANYTOOL_CUTTHROUGH_OUTSI
100
AcDbVertex
100
AcDb2dVertex
 10
-260.8227549541498
 20
260.4312809519979
 30
0.0
  0
VERTEX
  5
2AE
330
1A3
100
AcDbEntity
  8
4_ANYTOOL_CUTTHROUGH_OUTSI
100
AcDbVertex
100
AcDb2dVertex
 10
-260.8367903650562
 20
260.3486933458189
 30
0.0
 42
0.4142135623755166
  0
VERTEX
  5
2AF
330
1A3
100
AcDbEntity
  8
4_ANYTOOL_CUTTHROUGH_OUTSI
100
AcDbVertex
100
AcDb2dVertex
 10
-254.5867903650469
 20
254.0986933458125
 30
0.0
  0
VERTEX
  5
2B0
330
1A3
100
AcDbEntity
  8
4_ANYTOOL_CUTTHROUGH_OUTSI
100
AcDbVertex
100
AcDb2dVertex
 10
-176.5867903650715
 20
254.098693345848
 30
0.0
 42
0.414213562370964
  0
VERTEX
  5
2B1
330
1A3
100
AcDbEntity
  8
4_ANYTOOL_CUTTHROUGH_OUTSI
100
AcDbVertex
100
AcDb2dVertex
 10
-170.3367903650296
 20
260.3486933458626
 30
0.0
  0
VERTEX
  5
2B2
330
1A3
100
AcDbEntity
  8
4_ANYTOOL_CUTTHROUGH_OUTSI
100
AcDbVertex
100
AcDb2dVertex
 10
-170.3508257759453
 20
260.4312809520414
 30
0.0
  0
VERTEX
  5
2B3
330
1A3
100
AcDbEntity
  8
4_ANYTOOL_CUTTHROUGH_OUTSI
100
AcDbVertex
100
AcDb2dVertex
 10
-187.2499387703119
 20
308.7148881249377
 30
0.0
  0
VERTEX
  5
2B4
330
1A3
100
AcDbEntity
  8
4_ANYTOOL_CUTTHROUGH_OUTSI
100
AcDbVertex
100
AcDb2dVertex
 10
-187.4813530114996
 20
310.0986933458698
 30
0.0
  0
VERTEX
  5
2B5
330
1A3
100
AcDbEntity
  8
4_ANYTOOL_CUTTHROUGH_OUTSI
100
AcDbVertex
100
AcDb2dVertex
 10
-113.2897903646663
 20
310.0986933458407
 30
0.0
  0
VERTEX
  5
2B6
330
1A3
100
AcDbEntity
  8
4_ANYTOOL_CUTTHROUGH_OUTSI
100
AcDbVertex
100
AcDb2dVertex
 10
-113.2897903647145
 20
286.3486933458626
 30
0.0
 42
0.4142135623879776
  0
VERTEX
  5
2B7
330
1A3
100
AcDbEntity
  8
4_ANYTOOL_CUTTHROUGH_OUTSI
100
AcDbVertex
100
AcDb2dVertex
 10
-113.0397903647145
 20
286.0986933458607
 30
0.0
  0
VERTEX
  5
2B8
330
1A3
100
AcDbEntity
  8
4_ANYTOOL_CUTTHROUGH_OUTSI
100
AcDbVertex
100
AcDb2dVertex
 10
-101.0397903647145
 20
286.0986933458989
 30
0.0
 42
0.4142135623837144
  0
VERTEX
  5
2B9
330
1A3
100
AcDbEntity
  8
4_ANYTOOL_CUTTHROUGH_OUTSI
100
AcDbVertex
100
AcDb2dVertex
 10
-100.7897903647199
 20
286.3486933458989
 30
0.0
  0
VERTEX
  5
2BA
330
1A3
100
AcDbEntity
  8
4_ANYTOOL_CUTTHROUGH_OUTSI
100
AcDbVertex
100
AcDb2dVertex
 10
-100.7897903646908
 20
292.0986933456952
 30
0.0
  0
VERTEX
  5
2BB
330
1A3
100
AcDbEntity
  8
4_ANYTOOL_CUTTHROUGH_OUTSI
100
AcDbVertex
100
AcDb2dVertex
 10
74.7102096353392
 20
292.0986933457607
 30
0.0
  0
VERTEX
  5
2BC
330
1A3
100
AcDbEntity
  8
4_ANYTOOL_CUTTHROUGH_OUTSI
100
AcDbVertex
100
AcDb2dVertex
 10
74.71020963531373
 20
286.3486933459717
 30
0.0
 42
0.4142135623752612
  0
VERTEX
  5
2BD
330
1A3
100
AcDbEntity
  8
4_ANYTOOL_CUTTHROUGH_OUTSI
100
AcDbVertex
100
AcDb2dVertex
 10
74.96020963531191
 20
286.0986933459753
 30
0.0
  0
VERTEX
  5
2BE
330
1A3
100
AcDbEntity
  8
4_ANYTOOL_CUTTHROUGH_OUTSI
100
AcDbVertex
100
AcDb2dVertex
 10
86.96020963531464
 20
286.0986933458844
 30
0.0
 42
0.4142135623795714
  0
VERTEX
  5
2BF
330
1A3
100
AcDbEntity
  8
4_ANYTOOL_CUTTHROUGH_OUTSI
100
AcDbVertex
100
AcDb2dVertex
 10
87.2102096353201
 20
286.3486933458844
 30
0.0
  0
VERTEX
  5
2C0
330
1A3
100
AcDbEntity
  8
4_ANYTOOL_CUTTHROUGH_OUTSI
100
AcDbVertex
100
AcDb2dVertex
 10
87.21020963533101
 20
310.0986933458917
 30
0.0
  0
VERTEX
  5
2C1
330
1A3
100
AcDbEntity
  8
4_ANYTOOL_CUTTHROUGH_OUTSI
100
AcDbVertex
100
AcDb2dVertex
 10
161.4016886302934
 20
310.0986933459499
 30
0.0
  0
VERTEX
  5
2C2
330
1A3
100
AcDbEntity
  8
4_ANYTOOL_CUTTHROUGH_OUTSI
100
AcDbVertex
100
AcDb2dVertex
 10
161.1667782726547
 20
308.7038231456339
 30
0.0
  0
VERTEX
  5
2C3
330
1A3
100
AcDbEntity
  8
4_ANYTOOL_CUTTHROUGH_OUTSI
100
AcDbVertex
100
AcDb2dVertex
 10
144.2712450458894
 20
260.4312809521289
 30
0.0
  0
VERTEX
  5
2C4
330
1A3
100
AcDbEntity
  8
4_ANYTOOL_CUTTHROUGH_OUTSI
100
AcDbVertex
100
AcDb2dVertex
 10
144.2572096349805
 20
260.3486933459499
 30
0.0
 42
0.414213562376936
  0
VERTEX
  5
2C5
330
1A3
100
AcDbEntity
  8
4_ANYTOOL_CUTTHROUGH_OUTSI
100
AcDbVertex
100
AcDb2dVertex
 10
150.5072096350032
 20
254.0986933459217
 30
0.0
  0
VERTEX
  5
2C6
330
1A3
100
AcDbEntity
  8
4_ANYTOOL_CUTTHROUGH_OUTSI
100
AcDbVertex
100
AcDb2dVertex
 10
228.5072096349768
 20
254.0986933459644
 30
0.0
 42
0.4142135623729669
  0
VERTEX
  5
2C7
330
1A3
100
AcDbEntity
  8
4_ANYTOOL_CUTTHROUGH_OUTSI
100
AcDbVertex
100
AcDb2dVertex
 10
234.7572096349959
 20
260.3486933459717
 30
0.0
  0
VERTEX
  5
2C8
330
1A3
100
AcDbEntity
  8
4_ANYTOOL_CUTTHROUGH_OUTSI
100
AcDbVertex
100
AcDb2dVertex
 10
234.7431742240958
 20
260.4312809521513
 30
0.0
  0
VERTEX
  5
2C9
330
1A3
100
AcDbEntity
  8
4_ANYTOOL_CUTTHROUGH_OUTSI
100
AcDbVertex
100
AcDb2dVertex
 10
217.8440612297172
 20
308.7148881250541
 30
0.0
  0
VERTEX
  5
2CA
330
1A3
100
AcDbEntity
  8
4_ANYTOOL_CUTTHROUGH_OUTSI
100
AcDbVertex
100
AcDb2dVertex
 10
217.6126469885333
 20
310.0986933459675
 30
0.0
  0
VERTEX
  5
2CB
330
1A3
100
AcDbEntity
  8
4_ANYTOOL_CUTTHROUGH_OUTSI
100
AcDbVertex
100
AcDb2dVertex
 10
256.7102096350709
 20
310.0986933459862
 30
0.0
  0
VERTEX
  5
2CC
330
1A3
100
AcDbEntity
  8
4_ANYTOOL_CUTTHROUGH_OUTSI
100
AcDbVertex
100
AcDb2dVertex
 10
256.7102096350354
 20
286.348693345979
 30
0.0
 42
0.4142135623751671
  0
VERTEX
  5
2CD
330
1A3
100
AcDbEntity
  8
4_ANYTOOL_CUTTHROUGH_OUTSI
100
AcDbVertex
100
AcDb2dVertex
 10
256.9602096350354
 20
286.0986933459808
 30
0.0
  0
VERTEX
  5
2CE
330
1A3
100
AcDbEntity
  8
4_ANYTOOL_CUTTHROUGH_OUTSI
100
AcDbVertex
100
AcDb2dVertex
 10
268.9602096350463
 20
286.098693345979
 30
0.0
 42
0.4142135623848291
  0
VERTEX
  5
2CF
330
1A3
100
AcDbEntity
  8
4_ANYTOOL_CUTTHROUGH_OUTSI
100
AcDbVertex
100
AcDb2dVertex
 10
269.2102096350418
 20
286.348693345979
 30
0.0
  0
VERTEX
  5
2D0
330
1A3
100
AcDbEntity
  8
4_ANYTOOL_CUTTHROUGH_OUTSI
100
AcDbVertex
100
AcDb2dVertex
 10
269.2102096350472
 20
292.0986933459717
 30
0.0
  0
VERTEX
  5
2D1
330
1A3
100
AcDbEntity
  8
4_ANYTOOL_CUTTHROUGH_OUTSI
100
AcDbVertex
100
AcDb2dVertex
 10
304.7102096350882
 20
292.0986933459862
 30
0.0
  0
VERTEX
  5
2D2
330
1A3
100
AcDbEntity
  8
4_ANYTOOL_CUTTHROUGH_OUTSI
100
AcDbVertex
100
AcDb2dVertex
 10
304.71020963508
 20
286.3486933459862
 30
0.0
 42
0.4142135623634396
  0
VERTEX
  5
2D3
330
1A3
100
AcDbEntity
  8
4_ANYTOOL_CUTTHROUGH_OUTSI
100
AcDbVertex
100
AcDb2dVertex
 10
304.96020963508
 20
286.0986933459926
 30
0.0
  0
VERTEX
  5
2D4
330
1A3
100
AcDbEntity
  8
4_ANYTOOL_CUTTHROUGH_OUTSI
100
AcDbVertex
100
AcDb2dVertex
 10
316.9602096350827
 20
286.0986933459935
 30
0.0
 42
0.4142135623592099
  0
VERTEX
  5
2D5
330
1A3
100
AcDbEntity
  8
4_ANYTOOL_CUTTHROUGH_OUTSI
100
AcDbVertex
100
AcDb2dVertex
 10
317.2102096350854
 20
286.3486933459935
 30
0.0
  0
VERTEX
  5
2D6
330
1A3
100
AcDbEntity
  8
4_ANYTOOL_CUTTHROUGH_OUTSI
100
AcDbVertex
100
AcDb2dVertex
 10
317.2102096351209
 20
310.0986933460008
 30
0.0
  0
VERTEX
  5
2D7
330
1A3
100
AcDbEntity
  8
4_ANYTOOL_CUTTHROUGH_OUTSI
100
AcDbVertex
100
AcDb2dVertex
 10
356.3076886303697
 20
310.0986933460081
 30
0.0
  0
VERTEX
  5
2D8
330
1A3
100
AcDbEntity
  8
4_ANYTOOL_CUTTHROUGH_OUTSI
100
AcDbVertex
100
AcDb2dVertex
 10
356.0727782727292
 20
308.7038231457066
 30
0.0
  0
VERTEX
  5
2D9
330
1A3
100
AcDbEntity
  8
4_ANYTOOL_CUTTHROUGH_OUTSI
100
AcDbVertex
100
AcDb2dVertex
 10
339.1772450459666
 20
260.4312809521725
 30
0.0
  0
VERTEX
  5
2DA
330
1A3
100
AcDbEntity
  8
4_ANYTOOL_CUTTHROUGH_OUTSI
100
AcDbVertex
100
AcDb2dVertex
 10
339.1632096350576
 20
260.3486933459935
 30
0.0
 42
0.4142135623767115
  0
VERTEX
  5
2DB
330
1A3
100
AcDbEntity
  8
4_ANYTOOL_CUTTHROUGH_OUTSI
100
AcDbVertex
100
AcDb2dVertex
 10
345.4132096350695
 20
254.0986933459862
 30
0.0
  0
VERTEX
  5
2DC
330
1A3
100
AcDbEntity
  8
4_ANYTOOL_CUTTHROUGH_OUTSI
100
AcDbVertex
100
AcDb2dVertex
 10
423.413209635045
 20
254.0986933460226
 30
0.0
 42
0.4142135623711332
  0
VERTEX
  5
2DD
330
1A3
100
AcDbEntity
  8
4_ANYTOOL_CUTTHROUGH_OUTSI
100
AcDbVertex
100
AcDb2dVertex
 10
429.6632096350759
 20
260.3486933460372
 30
0.0
  0
VERTEX
  5
2DE
330
1A3
100
AcDbEntity
  8
4_ANYTOOL_CUTTHROUGH_OUTSI
100
AcDbVertex
100
AcDb2dVertex
 10
429.6491742241714
 20
260.4312809522162
 30
0.0
  0
VERTEX
  5
2DF
330
1A3
100
AcDbEntity
  8
4_ANYTOOL_CUTTHROUGH_OUTSI
100
AcDbVertex
100
AcDb2dVertex
 10
412.7500612298036
 20
308.7148881251123
 30
0.0
  0
VERTEX
  5
2E0
330
1A3
100
AcDbEntity
  8
4_ANYTOOL_CUTTHROUGH_OUTSI
100
AcDbVertex
100
AcDb2dVertex
 10
412.5186469886151
 20
310.0986933460447
 30
0.0
  0
VERTEX
  5
2E1
330
1A3
100
AcDbEntity
  8
4_ANYTOOL_CUTTHROUGH_OUTSI
100
AcDbVertex
100
AcDb2dVertex
 10
486.7102096356248
 20
310.0986933460226
 30
0.0
  0
VERTEX
  5
2E2
330
1A3
100
AcDbEntity
  8
4_ANYTOOL_CUTTHROUGH_OUTSI
100
AcDbVertex
100
AcDb2dVertex
 10
486.7102096355757
 20
286.3486933460445
 30
0.0
 42
0.4142135624051203
  0
VERTEX
  5
2E3
330
1A3
100
AcDbEntity
  8
4_ANYTOOL_CUTTHROUGH_OUTSI
100
AcDbVertex
100
AcDb2dVertex
 10
486.9602096355757
 20
286.0986933460426
 30
0.0
  0
VERTEX
  5
2E4
330
1A3
100
AcDbEntity
  8
4_ANYTOOL_CUTTHROUGH_OUTSI
100
AcDbVertex
100
AcDb2dVertex
 10
498.9602096355757
 20
286.0986933460808
 30
0.0
 42
0.4142135623592099
  0
VERTEX
  5
2E5
330
1A3
100
AcDbEntity
  8
4_ANYTOOL_CUTTHROUGH_OUTSI
100
AcDbVertex
100
AcDb2dVertex
 10
499.2102096355784
 20
286.3486933460808
 30
0.0
  0
VERTEX
  5
2E6
330
1A3
100
AcDbEntity
  8
4_ANYTOOL_CUTTHROUGH_OUTSI
100
AcDbVertex
100
AcDb2dVertex
 10
499.2102096355993
 20
292.0986933458771
 30
0.0
  0
VERTEX
  5
2E7
330
1A3
100
AcDbEntity
  8
4_ANYTOOL_CUTTHROUGH_OUTSI
100
AcDbVertex
100
AcDb2dVertex
 10
674.7102096356257
 20
292.0986933459426
 30
0.0
  0
VERTEX
  5
2E8
330
1A3
100
AcDbEntity
  8
4_ANYTOOL_CUTTHROUGH_OUTSI
100
AcDbVertex
100
AcDb2dVertex
 10
674.7102096356039
 20
286.3486933461536
 30
0.0
 42
0.4142135623732087
  0
VERTEX
  5
2E9
330
1A3
100
AcDbEntity
  8
4_ANYTOOL_CUTTHROUGH_OUTSI
100
AcDbVertex
100
AcDb2dVertex
 10
674.960209635602
 20
286.0986933461554
 30
0.0
  0
VERTEX
  5
2EA
330
1A3
100
AcDbEntity
  8
4_ANYTOOL_CUTTHROUGH_OUTSI
100
AcDbVertex
100
AcDb2dVertex
 10
686.9602096356048
 20
286.0986933460663
 30
0.0
 42
0.4142135623772871
  0
SEQEND
  5
2EB
330
1A3
100
AcDbEntity
  8
4_ANYTOOL_CUTTHROUGH_OUTSI
  0
ENDSEC
  0
SECTION
  2
OBJECTS
  0
DICTIONARY
  5
C
330
0
100
AcDbDictionary
  3
ACAD_GROUP
350
D
  3
ACAD_LAYOUT
350
1A
  3
ACAD_MATERIAL
350
43
  3
ACAD_MLEADERSTYLE
350
5B
  3
ACAD_MLINESTYLE
350
17
  3
ACAD_PLOTSETTINGS
350
19
  3
ACAD_SCALELIST
350
47
  3
ACAD_VISUALSTYLE
350
2A
  3
ACDBHEADERROUNDTRIPXREC
350
2EC
  3
ACDBVARIABLEDICTIONARY
350
30D
  3
DWGPROPS
350
314
  0
DICTIONARY
  5
315
330
8
100
AcDbDictionary
280
     1
  3
ACAD_XREC_ROUNDTRIP
360
316
  0
DICTIONARY
  5
D
102
{ACAD_REACTORS
330
C
102
}
330
C
100
AcDbDictionary
  0
DICTIONARY
  5
1A
102
{ACAD_REACTORS
330
C
102
}
330
C
100
AcDbDictionary
  0
DICTIONARY
  5
43
102
{ACAD_REACTORS
330
C
102
}
330
C
100
AcDbDictionary
  3
BYBLOCK
350
45
  3
BYLAYER
350
44
  3
GLOBAL
350
46
  0
DICTIONARY
  5
5B
102
{ACAD_REACTORS
330
C
102
}
330
C
100
AcDbDictionary
  3
STANDARD
350
5C
  0
DICTIONARY
  5
17
102
{ACAD_REACTORS
330
C
102
}
330
C
100
AcDbDictionary
  3
STANDARD
350
18
  0
DICTIONARY
  5
19
102
{ACAD_REACTORS
330
C
102
}
330
C
100
AcDbDictionary
  0
DICTIONARY
  5
47
102
{ACAD_REACTORS
330
C
102
}
330
C
100
AcDbDictionary
  3
A0
350
48
  3
A1
350
49
  3
A2
350
4A
  3
A3
350
4B
  3
A4
350
4C
  3
A5
350
4D
  3
A6
350
4E
  3
A7
350
4F
  3
A8
350
50
  3
A9
350
51
  3
B1
350
52
  3
B2
350
53
  3
B3
350
54
  3
B4
350
55
  3
B5
350
56
  3
B6
350
57
  3
B7
350
58
  0
DICTIONARY
  5
2A
102
{ACAD_REACTORS
330
C
102
}
330
C
100
AcDbDictionary
  3
2DWIREFRAME
350
2F
  3
BASIC
350
32
  3
BRIGHTEN
350
36
  3
COLORCHANGE
350
3A
  3
CONCEPTUAL
350
34
  3
DIM
350
35
  3
EDGECOLOROFF
350
3D
  3
FACEPATTERN
350
39
  3
FLAT
350
2B
  3
FLATWITHEDGES
350
2C
  3
GOURAUD
350
2D
  3
GOURAUDWITHEDGES
350
2E
  3
HIDDEN
350
31
  3
JITTEROFF
350
3B
  3
LINEPATTERN
350
38
  3
OVERHANGOFF
350
3C
  3
REALISTIC
350
33
  3
SHADED
350
42
  3
SHADED_WITH_EDGES
350
41
  3
SHADES_OF_GRAY
350
3E
  3
SKETCHY
350
3F
  3
THICKEN
350
37
  3
WIREFRAME
350
30
  3
X-RAY
350
40
  0
DICTIONARY
  5
2EC
102
{ACAD_REACTORS
330
C
102
}
330
C
100
AcDbDictionary
  3
CEPSNID
350
2F6
  3
CEPSNTYPE
350
2F5
  3
DIMSTYLEDATA
350
30C
  3
FINGERPRINTGUID
350
2F7
  3
HYPERLINKBASE
350
2EF
  3
INSUNITS
350
2F4
  3
LAYOUTDICT
350
2F1
  3
LWETCUNION
350
2F3
  3
PLOTSETDICT
350
2F2
  3
PSVPSCALE
350
2F9
  3
PUCSBASE
350
2FC
  3
PUCSORGBACK
350
302
  3
PUCSORGBOTTOM
350
2FE
  3
PUCSORGFRONT
350
301
  3
PUCSORGLEFT
350
2FF
  3
PUCSORGRIGHT
350
300
  3
PUCSORGTOP
350
2FD
  3
PUCSORTHOREF
350
2FA
  3
PUCSORTHOVIEW
350
2FB
  3
STYLESHEET
350
2F0
  3
TSTACKALIGN
350
2ED
  3
TSTACKSIZE
350
2EE
  3
UCSBASE
350
305
  3
UCSORGBACK
350
30B
  3
UCSORGBOTTOM
350
307
  3
UCSORGFRONT
350
30A
  3
UCSORGLEFT
350
308
  3
UCSORGRIGHT
350
309
  3
UCSORGTOP
350
306
  3
UCSORTHOREF
350
303
  3
UCSORTHOVIEW
350
304
  3
VERSIONGUID
350
2F8
  0
DICTIONARY
  5
30D
102
{ACAD_REACTORS
330
C
102
}
330
C
100
AcDbDictionary
  3
CANNOSCALE
350
317
  3
CMLEADERSTYLE
350
30F
  3
CTABLESTYLE
350
30E
  3
DIMASSOC
350
312
  3
HIDETEXT
350
313
  3
MSLTSCALE
350
318
  0
XRECORD
  5
314
102
{ACAD_REACTORS
330
C
102
}
330
C
100
AcDbXrecord
  1
DWGPROPS COOKIE
  2

  3

  4

  6

  7

  8
clayt
  9

300
=
301
=
302
=
303
=
304
=
305
=
306
=
307
=
308
=
309
=
 40
0.0
 41
2461249.395544989
 42
2461249.395545104
  1

 90
        0
  0
XRECORD
  5
316
102
{ACAD_REACTORS
330
315
102
}
330
315
100
AcDbXrecord
102
VTR_0.000_0.000_1.000_1.000_VISUALSTYLE
340
2F
102
VTR_0.000_0.000_1.000_1.000_GRIDDISPLAY
 70
     3
102
VTR_0.000_0.000_1.000_1.000_GRIDMAJOR
 70
     5
102
VTR_0.000_0.000_1.000_1.000_DEFAULTLIGHTING
280
     1
102
VTR_0.000_0.000_1.000_1.000_DEFAULTLIGHTINGTYPE
 70
     1
102
VTR_0.000_0.000_1.000_1.000_BRIGHTNESS
141
0.0
102
VTR_0.000_0.000_1.000_1.000_CONTRAST
142
0.0
  0
MATERIAL
  5
45
102
{ACAD_REACTORS
330
43
102
}
102
{ACAD_XDICTIONARY
360
31B
102
}
330
43
100
AcDbMaterial
  1
BYBLOCK
  0
MATERIAL
  5
44
102
{ACAD_REACTORS
330
43
102
}
102
{ACAD_XDICTIONARY
360
319
102
}
330
43
100
AcDbMaterial
  1
BYLAYER
  0
MATERIAL
  5
46
102
{ACAD_REACTORS
330
43
102
}
102
{ACAD_XDICTIONARY
360
31D
102
}
330
43
100
AcDbMaterial
  1
GLOBAL
  0
ACAD_PROXY_OBJECT
  5
5C
102
{ACAD_REACTORS
330
5B
102
}
330
5B
100
AcDbProxyObject
 90
      499
 91
      505
 93
      610
310
40901902A4063FBFFFFFE056BD1B81E855B9FC0AD7A3703D0AD73F4214DD185B99185C9900AD7A3703D0AC73F90141901A02B5E8DC0F42B1CFC02B5E8DC0F42B1CFE5764000000000000300FC0
340
14
340
0
340
11
340
0
 94
        0
1001
ACAD_MLEADERVER
1070
     2
  0
MLINESTYLE
  5
18
102
{ACAD_REACTORS
330
17
102
}
330
17
100
AcDbMlineStyle
  2
Standard
 70
     0
  3

 62
   256
 51
90.0
 52
90.0
 71
     2
 49
0.5
 62
   256
  6
BYLAYER
 49
-0.5
 62
   256
  6
BYLAYER
  0
ACAD_PROXY_OBJECT
  5
48
102
{ACAD_REACTORS
330
47
102
}
330
47
100
AcDbProxyObject
 90
      499
 91
      503
 93
       41
310
903313A31580
  0
ACAD_PROXY_OBJECT
  5
49
102
{ACAD_REACTORS
330
47
102
}
330
47
100
AcDbProxyObject
 90
      499
 91
      503
 93
      257
310
90E312F31323822203D2031272D3022000000000000200FC000000000000284000
  0
ACAD_PROXY_OBJECT
  5
4A
102
{ACAD_REACTORS
330
47
102
}
330
47
100
AcDbProxyObject
 90
      499
 91
      503
 93
      249
310
90D312F363422203D2031272D3022000000000000240FC000000000000284000
  0
ACAD_PROXY_OBJECT
  5
4B
102
{ACAD_REACTORS
330
47
102
}
330
47
100
AcDbProxyObject
 90
      499
 91
      503
 93
      249
310
90D312F333222203D2031272D3022000000000000280FC000000000000284000
  0
ACAD_PROXY_OBJECT
  5
4C
102
{ACAD_REACTORS
330
47
102
}
330
47
100
AcDbProxyObject
 90
      499
 91
      503
 93
      249
310
90D312F313622203D2031272D30220000000000002C0FC000000000000284000
  0
ACAD_PROXY_OBJECT
  5
4D
102
{ACAD_REACTORS
330
47
102
}
330
47
100
AcDbProxyObject
 90
      499
 91
      503
 93
      249
310
90D332F333222203D2031272D30220000000000002E0FC000000000000284000
  0
ACAD_PROXY_OBJECT
  5
4E
102
{ACAD_REACTORS
330
47
102
}
330
47
100
AcDbProxyObject
 90
      499
 91
      503
 93
      241
310
90C312F3822203D2031272D3022000000000000300FC000000000000284000
  0
ACAD_PROXY_OBJECT
  5
4F
102
{ACAD_REACTORS
330
47
102
}
330
47
100
AcDbProxyObject
 90
      499
 91
      503
 93
      249
310
90D332F313622203D2031272D3022000000000000320FC000000000000284000
  0
ACAD_PROXY_OBJECT
  5
50
102
{ACAD_REACTORS
330
47
102
}
330
47
100
AcDbProxyObject
 90
      499
 91
      503
 93
      241
310
90C312F3422203D2031272D3022000000000000340FC000000000000284000
  0
ACAD_PROXY_OBJECT
  5
51
102
{ACAD_REACTORS
330
47
102
}
330
47
100
AcDbProxyObject
 90
      499
 91
      503
 93
      241
310
90C332F3822203D2031272D3022000000000000360FC000000000000284000
  0
ACAD_PROXY_OBJECT
  5
52
102
{ACAD_REACTORS
330
47
102
}
330
47
100
AcDbProxyObject
 90
      499
 91
      503
 93
      241
310
90C312F3222203D2031272D3022000000000000380FC000000000000284000
  0
ACAD_PROXY_OBJECT
  5
53
102
{ACAD_REACTORS
330
47
102
}
330
47
100
AcDbProxyObject
 90
      499
 91
      503
 93
      241
310
90C332F3422203D2031272D30220000000000003A0FC000000000000284000
  0
ACAD_PROXY_OBJECT
  5
54
102
{ACAD_REACTORS
330
47
102
}
330
47
100
AcDbProxyObject
 90
      499
 91
      503
 93
      161
310
90A3122203D2031272D30224000000000000284000
  0
ACAD_PROXY_OBJECT
  5
55
102
{ACAD_REACTORS
330
47
102
}
330
47
100
AcDbProxyObject
 90
      499
 91
      503
 93
      257
310
90E312D312F3222203D2031272D30220000000000003E0FC000000000000284000
  0
ACAD_PROXY_OBJECT
  5
56
102
{ACAD_REACTORS
330
47
102
}
330
47
100
AcDbProxyObject
 90
      499
 91
      503
 93
      225
310
90A3322203D2031272D302200000000000002100000000000000284000
  0
ACAD_PROXY_OBJECT
  5
57
102
{ACAD_REACTORS
330
47
102
}
330
47
100
AcDbProxyObject
 90
      499
 91
      503
 93
      225
310
90A3622203D2031272D302200000000000006100000000000000284000
  0
ACAD_PROXY_OBJECT
  5
58
102
{ACAD_REACTORS
330
47
102
}
330
47
100
AcDbProxyObject
 90
      499
 91
      503
 93
      249
310
90D31272D3022203D2031272D30220000000000000A100000000000000284000
  0
ACAD_PROXY_OBJECT
  5
2F
102
{ACAD_REACTORS
330
2A
102
}
330
2A
100
AcDbProxyObject
 90
      499
 91
      501
 93
      436
310
42CC9915DA5C99599C985B595049028333333333333E33F0000000000000F90107901411070040501600405405064090741402480A0340
1001
ACAD
1000
AcDbSavedByObjectVersion
1070
     0
  0
ACAD_PROXY_OBJECT
  5
32
102
{ACAD_REACTORS
330
2A
102
}
330
2A
100
AcDbProxyObject
 90
      499
 91
      501
 93
      388
310
4150985CDA58D07406404333333333333E33F0000000000000F90107A41107004050150841D405064090741402480A0350
1001
ACAD
1000
AcDbSavedByObjectVersion
1070
     0
  0
ACAD_PROXY_OBJECT
  5
36
102
{ACAD_REACTORS
330
2A
102
}
330
2A
100
AcDbProxyObject
 90
      499
 91
      501
 93
      428
310
42109C9A59DA1D195B90C409028333333333333E33F0000000000000F9010790141107004050150841D405064090741402480A029950
1001
ACAD
1000
AcDbSavedByObjectVersion
1070
     0
  0
ACAD_PROXY_OBJECT
  5
3A
102
{ACAD_REACTORS
330
2A
102
}
330
2A
100
AcDbProxyObject
 90
      499
 91
      501
 93
      452
310
42D0DBDB1BDC90DA185B99D95104090240C333333333333E33F0000000000000F90108901411070040501508421405064090741402480A0350
1001
ACAD
1000
AcDbSavedByObjectVersion
1070
     0
  0
ACAD_PROXY_OBJECT
  5
34
102
{ACAD_REACTORS
330
2A
102
}
330
2A
100
AcDbProxyObject
 90
      499
 91
      501
 93
      500
310
4290DBDB98D95C1D1D585B10940D028333333333333E33F0000000000000F90107902409070040501000000000018199010841D405064090740C02480A0340
1001
ACAD
1000
AcDbSavedByObjectVersion
1070
     0
  0
ACAD_PROXY_OBJECT
  5
35
102
{ACAD_REACTORS
330
2A
102
}
330
2A
100
AcDbProxyObject
 90
      499
 91
      501
 93
      412
310
40D11A5B50B409028333333333333E33F0000000000000F9010790141107004050150841D405064090741402480A02677FFFFFD0
1001
ACAD
1000
AcDbSavedByObjectVersion
1070
     0
  0
ACAD_PROXY_OBJECT
  5
3D
102
{ACAD_REACTORS
330
2A
102
}
330
2A
100
AcDbProxyObject
 90
      499
 91
      501
 93
      452
310
43115919D950DBDB1BDC93D999916409028333333333333E33F0000000000000F9010790141107004050150841D405064090741402480A0350
1001
ACAD
1000
AcDbSavedByObjectVersion
1070
     0
  0
ACAD_PROXY_OBJECT
  5
39
102
{ACAD_REACTORS
330
2A
102
}
330
2A
100
AcDbProxyObject
 90
      499
 91
      501
 93
      444
310
42D19858D95C185D1D195C9B90F409028333333333333E33F0000000000000F9010790141107004050150841D405064090741402480A0350
1001
ACAD
1000
AcDbSavedByObjectVersion
1070
     0
  0
ACAD_PROXY_OBJECT
  5
2B
102
{ACAD_REACTORS
330
2A
102
}
330
2A
100
AcDbProxyObject
 90
      499
 91
      501
 93
      380
310
41119B185D240901404333333333333E33F0000000000000F9010740A907004050150841D405064090741402480A1B50
1001
ACAD
1000
AcDbSavedByObjectVersion
1070
     0
  0
ACAD_PROXY_OBJECT
  5
2C
102
{ACAD_REACTORS
330
2A
102
}
330
2A
100
AcDbProxyObject
 90
      499
 91
      501
 93
      468
310
43519B185D15DA5D1A115919D95CD0140901404333333333333E33F0000000000000F90107409019070040501600405405064090741402480A1B50
1001
ACAD
1000
AcDbSavedByObjectVersion
1070
     0
  0
ACAD_PROXY_OBJECT
  5
2D
102
{ACAD_REACTORS
330
2A
102
}
330
2A
100
AcDbProxyObject
 90
      499
 91
      501
 93
      404
310
41D1DBDD5C985D5910240902404333333333333E33F0000000000000F9010740A9070040501641D405064090741402480A1B50
1001
ACAD
1000
AcDbSavedByObjectVersion
1070
     0
  0
ACAD_PROXY_OBJECT
  5
2E
102
{ACAD_REACTORS
330
2A
102
}
330
2A
100
AcDbProxyObject
 90
      499
 91
      501
 93
      492
310
4411DBDD5C985D5915DA5D1A115919D95CD0340902404333333333333E33F0000000000000F90107409019070040501600405405064090741402480A1B50
1001
ACAD
1000
AcDbSavedByObjectVersion
1070
     0
  0
ACAD_PROXY_OBJECT
  5
31
102
{ACAD_REACTORS
330
2A
102
}
330
2A
100
AcDbProxyObject
 90
      499
 91
      501
 93
      476
310
41921A5919195B90640502408333333333333E33F0000000000000F901079024090700405020000000000001110200405405064090740C02480A0340
1001
ACAD
1000
AcDbSavedByObjectVersion
1070
     0
  0
ACAD_PROXY_OBJECT
  5
3B
102
{ACAD_REACTORS
330
2A
102
}
330
2A
100
AcDbProxyObject
 90
      499
 91
      501
 93
      428
310
42529A5D1D195C93D999914409028333333333333E33F0000000000000F9010790141107004050150A41D405064090741402480A0350
1001
ACAD
1000
AcDbSavedByObjectVersion
1070
     0
  0
ACAD_PROXY_OBJECT
  5
38
102
{ACAD_REACTORS
330
2A
102
}
330
2A
100
AcDbProxyObject
 90
      499
 91
      501
 93
      444
310
42D31A5B995C185D1D195C9B90E409028333333333333E33F0000000000000F9010790141107004050750841D405064090741402483A0350
1001
ACAD
1000
AcDbSavedByObjectVersion
1070
     0
  0
ACAD_PROXY_OBJECT
  5
3C
102
{ACAD_REACTORS
330
2A
102
}
330
2A
100
AcDbProxyObject
 90
      499
 91
      501
 93
      444
310
42D3DD995C9A185B99D3D999915409028333333333333E33F0000000000000F9010790141107004050150941D405064090741402480A0350
1001
ACAD
1000
AcDbSavedByObjectVersion
1070
     0
  0
ACAD_PROXY_OBJECT
  5
33
102
{ACAD_REACTORS
330
2A
102
}
330
2A
100
AcDbProxyObject
 90
      499
 91
      501
 93
      428
310
425499585B1A5CDD1A58D08409038333333333333E33F0000000000000F9010740A907004050150800405405064090740C02480A1B40
1001
ACAD
1000
AcDbSavedByObjectVersion
1070
     0
  0
ACAD_PROXY_OBJECT
  5
42
102
{ACAD_REACTORS
330
2A
102
}
330
2A
100
AcDbProxyObject
 90
      499
 91
      501
 93
      420
310
4194DA1859195911B40902404333333333333E33F0000000000000F9010740A41107004050150800405405064090840C02480A0B40
1001
ACAD
1000
AcDbSavedByObjectVersion
1070
     0
  0
ACAD_PROXY_OBJECT
  5
41
102
{ACAD_REACTORS
330
2A
102
}
330
2A
100
AcDbProxyObject
 90
      499
 91
      501
 93
      516
310
4454DA18591959081DDA5D1A08195919D95CD1A40902404333333333333E33F0000000000000F901074090142907004050250800405405064090740C02480A0B40
1001
ACAD
1000
AcDbSavedByObjectVersion
1070
     0
  0
ACAD_PROXY_OBJECT
  5
3E
102
{ACAD_REACTORS
330
2A
102
}
330
2A
100
AcDbProxyObject
 90
      499
 91
      501
 93
      532
310
4394DA1859195CC81BD98811DC985E5174090240C333333333333E33F0000000000000F901079024090741D01000000000000111010841D405064090740C02480A0340
1001
ACAD
1000
AcDbSavedByObjectVersion
1070
     0
  0
ACAD_PROXY_OBJECT
  5
3F
102
{ACAD_REACTORS
330
2A
102
}
330
2A
100
AcDbProxyObject
 90
      499
 91
      501
 93
      476
310
41D4DAD95D18DA1E51840502408333333333333E33F0000000000000F901079024090741D01000000000000111010B41D405064090741802480A0340
1001
ACAD
1000
AcDbSavedByObjectVersion
1070
     0
  0
ACAD_PROXY_OBJECT
  5
37
102
{ACAD_REACTORS
330
2A
102
}
330
2A
100
AcDbProxyObject
 90
      499
 91
      501
 93
      412
310
41D51A1A58DAD95B90D409028333333333333E33F0000000000000F9010790141107004050150C41D405064090741402480A0350
1001
ACAD
1000
AcDbSavedByObjectVersion
1070
     0
  0
ACAD_PROXY_OBJECT
  5
30
102
{ACAD_REACTORS
330
2A
102
}
330
2A
100
AcDbProxyObject
 90
      499
 91
      501
 93
      420
310
4255DA5C99599C985B595059028333333333333E33F0000000000000F90107901411070040501600405405064090740C02480A0340
1001
ACAD
1000
AcDbSavedByObjectVersion
1070
     0
  0
ACAD_PROXY_OBJECT
  5
40
102
{ACAD_REACTORS
330
2A
102
}
330
2A
100
AcDbProxyObject
 90
      499
 91
      501
 93
      404
310
41560B54985E51940902404000000000000E03F0000000000000F9010740501907004050150841D405064090740C02480A1B40
1001
ACAD
1000
AcDbSavedByObjectVersion
1070
     0
  0
XRECORD
  5
2F6
102
{ACAD_REACTORS
330
2EC
102
}
330
2EC
100
AcDbXrecord
340
0
  0
XRECORD
  5
2F5
102
{ACAD_REACTORS
330
2EC
102
}
330
2EC
100
AcDbXrecord
 90
        0
  0
XRECORD
  5
30C
102
{ACAD_REACTORS
330
2EC
102
}
330
2EC
100
AcDbXrecord
1000
DSTYLE
1002
{
1070
   171
 70
     2
1070
   143
 40
25.4
1070
   274
 70
     2
1070
    41
 40
0.18
1070
   141
 40
0.09
1070
   271
 70
     4
1070
    43
 40
0.38
1070
   278
 70
    46
1070
    44
 40
0.18
1070
    42
 40
0.0625
1070
   147
 40
0.09
1070
    77
 70
     0
1070
   272
 70
     4
1070
    73
 70
     1
1070
   279
 70
     2
1070
   172
 70
     0
1070
    74
 70
     1
1070
   283
 70
     1
1070
   340
340
11
1070
   140
 40
0.18
1070
   284
 70
     0
1070
    78
 70
     0
1002
}
  0
XRECORD
  5
2F7
102
{ACAD_REACTORS
330
2EC
102
}
330
2EC
100
AcDbXrecord
  1
{b17e91a1-190f-4a71-abd8-065451457102}
  0
XRECORD
  5
2EF
102
{ACAD_REACTORS
330
2EC
102
}
330
2EC
100
AcDbXrecord
  1

  0
XRECORD
  5
2F4
102
{ACAD_REACTORS
330
2EC
102
}
330
2EC
100
AcDbXrecord
 90
        4
  0
XRECORD
  5
2F1
102
{ACAD_REACTORS
330
2EC
102
}
330
2EC
100
AcDbXrecord
340
1A
  0
XRECORD
  5
2F3
102
{ACAD_REACTORS
330
2EC
102
}
330
2EC
100
AcDbXrecord
 90
    10781
  0
XRECORD
  5
2F2
102
{ACAD_REACTORS
330
2EC
102
}
330
2EC
100
AcDbXrecord
340
19
  0
XRECORD
  5
2F9
102
{ACAD_REACTORS
330
2EC
102
}
330
2EC
100
AcDbXrecord
 40
0.0
  0
XRECORD
  5
2FC
102
{ACAD_REACTORS
330
2EC
102
}
330
2EC
100
AcDbXrecord
340
0
  0
XRECORD
  5
302
102
{ACAD_REACTORS
330
2EC
102
}
330
2EC
100
AcDbXrecord
 10
0.0
 20
0.0
 30
0.0
  0
XRECORD
  5
2FE
102
{ACAD_REACTORS
330
2EC
102
}
330
2EC
100
AcDbXrecord
 10
0.0
 20
0.0
 30
0.0
  0
XRECORD
  5
301
102
{ACAD_REACTORS
330
2EC
102
}
330
2EC
100
AcDbXrecord
 10
0.0
 20
0.0
 30
0.0
  0
XRECORD
  5
2FF
102
{ACAD_REACTORS
330
2EC
102
}
330
2EC
100
AcDbXrecord
 10
0.0
 20
0.0
 30
0.0
  0
XRECORD
  5
300
102
{ACAD_REACTORS
330
2EC
102
}
330
2EC
100
AcDbXrecord
 10
0.0
 20
0.0
 30
0.0
  0
XRECORD
  5
2FD
102
{ACAD_REACTORS
330
2EC
102
}
330
2EC
100
AcDbXrecord
 10
0.0
 20
0.0
 30
0.0
  0
XRECORD
  5
2FA
102
{ACAD_REACTORS
330
2EC
102
}
330
2EC
100
AcDbXrecord
340
0
  0
XRECORD
  5
2FB
102
{ACAD_REACTORS
330
2EC
102
}
330
2EC
100
AcDbXrecord
 70
     0
  0
XRECORD
  5
2F0
102
{ACAD_REACTORS
330
2EC
102
}
330
2EC
100
AcDbXrecord
  1

  0
XRECORD
  5
2ED
102
{ACAD_REACTORS
330
2EC
102
}
330
2EC
100
AcDbXrecord
 90
        1
  0
XRECORD
  5
2EE
102
{ACAD_REACTORS
330
2EC
102
}
330
2EC
100
AcDbXrecord
 90
       70
  0
XRECORD
  5
305
102
{ACAD_REACTORS
330
2EC
102
}
330
2EC
100
AcDbXrecord
340
0
  0
XRECORD
  5
30B
102
{ACAD_REACTORS
330
2EC
102
}
330
2EC
100
AcDbXrecord
 10
0.0
 20
0.0
 30
0.0
  0
XRECORD
  5
307
102
{ACAD_REACTORS
330
2EC
102
}
330
2EC
100
AcDbXrecord
 10
0.0
 20
0.0
 30
0.0
  0
XRECORD
  5
30A
102
{ACAD_REACTORS
330
2EC
102
}
330
2EC
100
AcDbXrecord
 10
0.0
 20
0.0
 30
0.0
  0
XRECORD
  5
308
102
{ACAD_REACTORS
330
2EC
102
}
330
2EC
100
AcDbXrecord
 10
0.0
 20
0.0
 30
0.0
  0
XRECORD
  5
309
102
{ACAD_REACTORS
330
2EC
102
}
330
2EC
100
AcDbXrecord
 10
0.0
 20
0.0
 30
0.0
  0
XRECORD
  5
306
102
{ACAD_REACTORS
330
2EC
102
}
330
2EC
100
AcDbXrecord
 10
0.0
 20
0.0
 30
0.0
  0
XRECORD
  5
303
102
{ACAD_REACTORS
330
2EC
102
}
330
2EC
100
AcDbXrecord
340
0
  0
XRECORD
  5
304
102
{ACAD_REACTORS
330
2EC
102
}
330
2EC
100
AcDbXrecord
 70
     0
  0
XRECORD
  5
2F8
102
{ACAD_REACTORS
330
2EC
102
}
330
2EC
100
AcDbXrecord
  1
{FAEB1C32-E019-11D5-929B-00C0DF256EC4}
  0
DICTIONARYVAR
  5
317
102
{ACAD_REACTORS
330
30D
102
}
330
30D
100
DictionaryVariables
280
     0
  1
1:1
  0
DICTIONARYVAR
  5
30F
102
{ACAD_REACTORS
330
30D
102
}
330
30D
100
DictionaryVariables
280
     0
  1
Standard
  0
DICTIONARYVAR
  5
30E
102
{ACAD_REACTORS
330
30D
102
}
330
30D
100
DictionaryVariables
280
     0
  1
Standard
  0
DICTIONARYVAR
  5
312
102
{ACAD_REACTORS
330
30D
102
}
330
30D
100
DictionaryVariables
280
     0
  1
2
  0
DICTIONARYVAR
  5
313
102
{ACAD_REACTORS
330
30D
102
}
330
30D
100
DictionaryVariables
280
     0
  1
1
  0
DICTIONARYVAR
  5
318
102
{ACAD_REACTORS
330
30D
102
}
330
30D
100
DictionaryVariables
280
     0
  1
1
  0
DICTIONARY
  5
31B
330
45
100
AcDbDictionary
280
     1
  3
ACAD_XREC_ROUNDTRIP
360
31C
  0
DICTIONARY
  5
319
330
44
100
AcDbDictionary
280
     1
  3
ACAD_XREC_ROUNDTRIP
360
31A
  0
DICTIONARY
  5
31D
330
46
100
AcDbDictionary
280
     1
  3
ACAD_XREC_ROUNDTRIP
360
31E
  0
XRECORD
  5
31C
102
{ACAD_REACTORS
330
31B
102
}
330
31B
100
AcDbXrecord
102
MATERIAL
148
0.0
149
0.0
149
0.0
 93
        0
 94
      127
282
     0
 72
     1
 77
     1
171
     1
175
     1
179
     1
273
     0
  0
XRECORD
  5
31A
102
{ACAD_REACTORS
330
319
102
}
330
319
100
AcDbXrecord
102
MATERIAL
148
0.0
149
0.0
149
0.0
 93
        0
 94
      127
282
     0
 72
     1
 77
     1
171
     1
175
     1
179
     1
273
     0
  0
XRECORD
  5
31E
102
{ACAD_REACTORS
330
31D
102
}
330
31D
100
AcDbXrecord
102
MATERIAL
148
0.0
149
0.0
149
0.0
 93
        0
 94
      127
282
     0
 72
     1
 77
     1
171
     1
175
     1
179
     1
273
     0
  0
ENDSEC
  0
EOF
