  0
SECTION
  2
HEADER
  9
$ACADVER
  1
AC1014
  9
$ACADMAINTVER
 70
     9
  9
$DWGCODEPAGE
  3
ANSI_1252
  9
$INSBASE
 10
0.0
 20
0.0
 30
0.0
  9
$EXTMIN
 10
-600.2500099753634
 20
-69.85377314549987
 30
-0.0000000000054747
  9
$EXTMAX
 10
600.2499900272378
 20
80.1462268577452
 30
0.0000000004657785
  9
$LIMMIN
 10
0.0
 20
0.0
  9
$LIMMAX
 10
12.0
 20
9.0
  9
$ORTHOMODE
 70
     0
  9
$REGENMODE
 70
     1
  9
$FILLMODE
 70
     1
  9
$QTEXTMODE
 70
     0
  9
$MIRRTEXT
 70
     1
  9
$DRAGMODE
 70
     2
  9
$LTSCALE
 40
1.0
  9
$OSMODE
 70
    37
  9
$ATTMODE
 70
     1
  9
$TEXTSIZE
 40
0.2
  9
$TRACEWID
 40
0.05
  9
$TEXTSTYLE
  7
STANDARD
  9
$CLAYER
  8
0
  9
$CELTYPE
  6
BYLAYER
  9
$CECOLOR
 62
   256
  9
$CELTSCALE
 40
1.0
  9
$DELOBJ
 70
     1
  9
$DISPSILH
 70
     0
  9
$DIMSCALE
 40
1.0
  9
$DIMASZ
 40
0.18
  9
$DIMEXO
 40
0.0625
  9
$DIMDLI
 40
0.38
  9
$DIMRND
 40
0.0
  9
$DIMDLE
 40
0.0
  9
$DIMEXE
 40
0.18
  9
$DIMTP
 40
0.0
  9
$DIMTM
 40
0.0
  9
$DIMTXT
 40
0.18
  9
$DIMCEN
 40
0.09
  9
$DIMTSZ
 40
0.0
  9
$DIMTOL
 70
     0
  9
$DIMLIM
 70
     0
  9
$DIMTIH
 70
     1
  9
$DIMTOH
 70
     1
  9
$DIMSE1
 70
     0
  9
$DIMSE2
 70
     0
  9
$DIMTAD
 70
     0
  9
$DIMZIN
 70
     0
  9
$DIMBLK
  1

  9
$DIMASO
 70
     1
  9
$DIMSHO
 70
     1
  9
$DIMPOST
  1

  9
$DIMAPOST
  1

  9
$DIMALT
 70
     0
  9
$DIMALTD
 70
     2
  9
$DIMALTF
 40
25.4
  9
$DIMLFAC
 40
1.0
  9
$DIMTOFL
 70
     0
  9
$DIMTVP
 40
0.0
  9
$DIMTIX
 70
     0
  9
$DIMSOXD
 70
     0
  9
$DIMSAH
 70
     0
  9
$DIMBLK1
  1

  9
$DIMBLK2
  1

  9
$DIMSTYLE
  2
STANDARD_ACAD
  9
$DIMCLRD
 70
     0
  9
$DIMCLRE
 70
     0
  9
$DIMCLRT
 70
     0
  9
$DIMTFAC
 40
1.0
  9
$DIMGAP
 40
0.09
  9
$DIMJUST
 70
     0
  9
$DIMSD1
 70
     0
  9
$DIMSD2
 70
     0
  9
$DIMTOLJ
 70
     1
  9
$DIMTZIN
 70
     0
  9
$DIMALTZ
 70
     0
  9
$DIMALTTZ
 70
     0
  9
$DIMFIT
 70
     5
  9
$DIMUPT
 70
     0
  9
$DIMUNIT
 70
     2
  9
$DIMDEC
 70
     4
  9
$DIMTDEC
 70
     4
  9
$DIMALTU
 70
     2
  9
$DIMALTTD
 70
     2
  9
$DIMTXSTY
  7
STANDARD
  9
$DIMAUNIT
 70
     0
  9
$LUNITS
 70
     2
  9
$LUPREC
 70
     3
  9
$SKETCHINC
 40
0.1
  9
$FILLETRAD
 40
0.0
  9
$AUNITS
 70
     0
  9
$AUPREC
 70
     0
  9
$MENU
  1
.
  9
$ELEVATION
 40
0.0
  9
$PELEVATION
 40
0.0
  9
$THICKNESS
 40
0.0
  9
$LIMCHECK
 70
     0
  9
$CHAMFERA
 40
0.0
  9
$CHAMFERB
 40
0.0
  9
$CHAMFERC
 40
0.0
  9
$CHAMFERD
 40
0.0
  9
$SKPOLY
 70
     0
  9
$TDCREATE
 40
2461243.661202836
  9
$TDUPDATE
 40
2461243.661202987
  9
$TDINDWG
 40
0.0000000116
  9
$TDUSRTIMER
 40
0.0000000116
  9
$USRTIMER
 70
     1
  9
$ANGBASE
 50
0.0
  9
$ANGDIR
 70
     0
  9
$PDMODE
 70
     0
  9
$PDSIZE
 40
0.0
  9
$PLINEWID
 40
0.0
  9
$COORDS
 70
     1
  9
$SPLFRAME
 70
     0
  9
$SPLINETYPE
 70
     6
  9
$SPLINESEGS
 70
     8
  9
$ATTDIA
 70
     0
  9
$ATTREQ
 70
     1
  9
$HANDLING
 70
     1
  9
$HANDSEED
  5
402
  9
$SURFTAB1
 70
     6
  9
$SURFTAB2
 70
     6
  9
$SURFTYPE
 70
     6
  9
$SURFU
 70
     6
  9
$SURFV
 70
     6
  9
$UCSNAME
  2

  9
$UCSORG
 10
0.0
 20
0.0
 30
0.0
  9
$UCSXDIR
 10
1.0
 20
0.0
 30
0.0
  9
$UCSYDIR
 10
0.0
 20
1.0
 30
0.0
  9
$PUCSNAME
  2

  9
$PUCSORG
 10
0.0
 20
0.0
 30
0.0
  9
$PUCSXDIR
 10
1.0
 20
0.0
 30
0.0
  9
$PUCSYDIR
 10
0.0
 20
1.0
 30
0.0
  9
$USERI1
 70
     0
  9
$USERI2
 70
     0
  9
$USERI3
 70
     0
  9
$USERI4
 70
     0
  9
$USERI5
 70
     0
  9
$USERR1
 40
0.0
  9
$USERR2
 40
0.0
  9
$USERR3
 40
0.0
  9
$USERR4
 40
0.0
  9
$USERR5
 40
0.0
  9
$WORLDVIEW
 70
     1
  9
$SHADEDGE
 70
     3
  9
$SHADEDIF
 70
    70
  9
$TILEMODE
 70
     1
  9
$MAXACTVP
 70
    64
  9
$PINSBASE
 10
0.0
 20
0.0
 30
0.0
  9
$PLIMCHECK
 70
     0
  9
$PEXTMIN
 10
1.000000000000000E+20
 20
1.000000000000000E+20
 30
1.000000000000000E+20
  9
$PEXTMAX
 10
-1.000000000000000E+20
 20
-1.000000000000000E+20
 30
-1.000000000000000E+20
  9
$PLIMMIN
 10
0.0
 20
0.0
  9
$PLIMMAX
 10
12.0
 20
9.0
  9
$UNITMODE
 70
     0
  9
$VISRETAIN
 70
     1
  9
$PLINEGEN
 70
     0
  9
$PSLTSCALE
 70
     1
  9
$TREEDEPTH
 70
  3020
  9
$PICKSTYLE
 70
     1
  9
$CMLSTYLE
  2
STANDARD
  9
$CMLJUST
 70
     0
  9
$CMLSCALE
 40
1.0
  9
$PROXYGRAPHICS
 70
     1
  9
$MEASUREMENT
 70
     1
  0
ENDSEC
  0
SECTION
  2
CLASSES
  0
CLASS
  1
ACDBDICTIONARYWDFLT
  2
AcDbDictionaryWithDefault
  3
ObjectDBX Classes
 90
        0
280
     0
281
     0
  0
CLASS
  1
VISUALSTYLE
  2
AcDbVisualStyle
  3
ObjectDBX Classes
 90
     4095
280
     0
281
     0
  0
CLASS
  1
MATERIAL
  2
AcDbMaterial
  3
ObjectDBX Classes
 90
     1153
280
     0
281
     0
  0
CLASS
  1
SCALE
  2
AcDbScale
  3
ObjectDBX Classes
 90
     1153
280
     0
281
     0
  0
CLASS
  1
TABLESTYLE
  2
AcDbTableStyle
  3
ObjectDBX Classes
 90
     4095
280
     0
281
     0
  0
CLASS
  1
MLEADERSTYLE
  2
AcDbMLeaderStyle
  3
ACDB_MLEADERSTYLE_CLASS
 90
     4095
280
     0
281
     0
  0
CLASS
  1
SUN
  2
AcDbSun
  3
SCENEOE
 90
     1153
280
     0
281
     0
  0
CLASS
  1
DICTIONARYVAR
  2
AcDbDictionaryVar
  3
ObjectDBX Classes
 90
        0
280
     0
281
     0
  0
CLASS
  1
XRECORD
  2
AcDbXrecord
  3
ObjectDBX Classes
 90
        0
280
     0
281
     0
  0
CLASS
  1
LWPOLYLINE
  2
AcDbPolyline
  3
ObjectDBX Classes
 90
        0
280
     0
281
     1
  0
CLASS
  1
HATCH
  2
AcDbHatch
  3
ObjectDBX Classes
 90
        0
280
     0
281
     1
  0
CLASS
  1
ACDBPLACEHOLDER
  2
AcDbPlaceHolder
  3
ObjectDBX Classes
 90
        0
280
     0
281
     0
  0
CLASS
  1
LAYOUT
  2
AcDbLayout
  3
ObjectDBX Classes
 90
        0
280
     0
281
     0
  0
ENDSEC
  0
SECTION
  2
TABLES
  0
TABLE
  2
VPORT
  5
8
102
{ACAD_XDICTIONARY
360
3F7
102
}
330
0
100
AcDbSymbolTable
 70
     1
  0
VPORT
  5
29
330
8
100
AcDbSymbolTableRecord
100
AcDbViewportTableRecord
  2
*ACTIVE
 70
     0
 10
0.0
 20
0.0
 11
1.0
 21
1.0
 12
10.42990654205607
 22
4.5
 13
0.0
 23
0.0
 14
0.5
 24
0.5
 15
0.5
 25
0.5
 16
0.0
 26
0.0
 36
1.0
 17
0.0
 27
0.0
 37
0.0
 40
9.0
 41
1.972972972850329
 42
50.0
 43
0.0
 44
0.0
 50
0.0
 51
0.0
 71
     0
 72
   100
 73
     1
 74
     3
 75
     0
 76
     0
 77
     0
 78
     0
  0
ENDTAB
  0
TABLE
  2
LTYPE
  5
5
330
0
100
AcDbSymbolTable
 70
     1
  0
LTYPE
  5
14
330
5
100
AcDbSymbolTableRecord
100
AcDbLinetypeTableRecord
  2
BYBLOCK
 70
     0
  3

 72
    65
 73
     0
 40
0.0
  0
LTYPE
  5
15
330
5
100
AcDbSymbolTableRecord
100
AcDbLinetypeTableRecord
  2
BYLAYER
 70
     0
  3

 72
    65
 73
     0
 40
0.0
  0
LTYPE
  5
16
330
5
100
AcDbSymbolTableRecord
100
AcDbLinetypeTableRecord
  2
CONTINUOUS
 70
     0
  3
Solid line
 72
    65
 73
     0
 40
0.0
  0
ENDTAB
  0
TABLE
  2
LAYER
  5
2
330
0
100
AcDbSymbolTable
 70
     4
  0
LAYER
  5
10
330
2
100
AcDbSymbolTableRecord
100
AcDbLayerTableRecord
  2
0
 70
     0
 62
     7
  6
CONTINUOUS
  0
LAYER
  5
5F
330
2
100
AcDbSymbolTableRecord
100
AcDbLayerTableRecord
  2
1_ANYTOOL_1MMDEEP_LABELS_S
 70
     0
 62
     2
  6
CONTINUOUS
  0
LAYER
  5
274
330
2
100
AcDbSymbolTableRecord
100
AcDbLayerTableRecord
  2
5_ANYTOOL_HALF_MILL_9MM_IN
 70
     0
 62
     3
  6
CONTINUOUS
  0
LAYER
  5
2DF
330
2
100
AcDbSymbolTableRecord
100
AcDbLayerTableRecord
  2
4_ANYTOOL_CUTTHROUGH_OUTSI
 70
     0
 62
     5
  6
CONTINUOUS
  0
ENDTAB
  0
TABLE
  2
STYLE
  5
3
330
0
100
AcDbSymbolTable
 70
     1
  0
STYLE
  5
11
330
3
100
AcDbSymbolTableRecord
100
AcDbTextStyleTableRecord
  2
STANDARD
 70
     0
 40
0.0
 41
1.0
 50
0.0
 71
     0
 42
0.2
  3
txt
  4

  0
ENDTAB
  0
TABLE
  2
VIEW
  5
6
330
0
100
AcDbSymbolTable
 70
     0
  0
ENDTAB
  0
TABLE
  2
UCS
  5
7
330
0
100
AcDbSymbolTable
 70
     0
  0
ENDTAB
  0
TABLE
  2
APPID
  5
9
330
0
100
AcDbSymbolTable
 70
     3
  0
APPID
  5
12
330
9
100
AcDbSymbolTableRecord
100
AcDbRegAppTableRecord
  2
ACAD
 70
     0
  0
APPID
  5
5E
330
9
100
AcDbSymbolTableRecord
100
AcDbRegAppTableRecord
  2
RHINO
 70
     0
  0
APPID
  5
401
330
9
100
AcDbSymbolTableRecord
100
AcDbRegAppTableRecord
  2
ACAD_MLEADERVER
 70
     0
  0
ENDTAB
  0
TABLE
  2
DIMSTYLE
  5
A
330
0
100
AcDbSymbolTable
 70
     1
  0
DIMSTYLE
105
27
330
A
100
AcDbSymbolTableRecord
100
AcDbDimStyleTableRecord
  2
STANDARD_ACAD
 70
     0
  3

  4

  5

  6

  7

 40
1.0
 41
0.18
 42
0.0625
 43
0.38
 44
0.18
 45
0.0
 46
0.0
 47
0.0
 48
0.0
140
0.18
141
0.09
142
0.0
143
25.4
144
1.0
145
0.0
146
1.0
147
0.09
 71
     0
 72
     0
 73
     1
 74
     1
 75
     0
 76
     0
 77
     0
 78
     0
170
     0
171
     2
172
     0
173
     0
174
     0
175
     0
176
     0
177
     0
178
     0
270
     2
271
     4
272
     4
273
     2
274
     2
340
11
275
     0
280
     0
281
     0
282
     0
283
     1
284
     0
285
     0
286
     0
287
     3
288
     0
  0
ENDTAB
  0
TABLE
  2
BLOCK_RECORD
  5
1
330
0
100
AcDbSymbolTable
 70
     0
  0
BLOCK_RECORD
  5
1F
330
1
100
AcDbSymbolTableRecord
100
AcDbBlockTableRecord
  2
*MODEL_SPACE
  0
BLOCK_RECORD
  5
1B
330
1
100
AcDbSymbolTableRecord
100
AcDbBlockTableRecord
  2
*PAPER_SPACE
  0
ENDTAB
  0
ENDSEC
  0
SECTION
  2
BLOCKS
  0
BLOCK
  5
20
330
1F
100
AcDbEntity
  8
0
100
AcDbBlockBegin
  2
*MODEL_SPACE
 70
     0
 10
0.0
 20
0.0
 30
0.0
  3
*MODEL_SPACE
  1

  0
ENDBLK
  5
21
330
1F
100
AcDbEntity
  8
0
100
AcDbBlockEnd
  0
BLOCK
  5
1C
330
1B
100
AcDbEntity
 67
     1
  8
0
100
AcDbBlockBegin
  2
*PAPER_SPACE
 70
     0
 10
0.0
 20
0.0
 30
0.0
  3
*PAPER_SPACE
  1

  0
ENDBLK
  5
1D
330
1B
100
AcDbEntity
 67
     1
  8
0
100
AcDbBlockEnd
  0
ENDSEC
  0
SECTION
  2
ENTITIES
  0
POLYLINE
  5
60
330
1F
100
AcDbEntity
  8
1_ANYTOOL_1MMDEEP_LABELS_S
100
AcDb2dPolyline
 66
     1
 10
0.0
 20
0.0
 30
0.0
  0
VERTEX
  5
61
330
60
100
AcDbEntity
  8
1_ANYTOOL_1MMDEEP_LABELS_S
100
AcDbVertex
100
AcDb2dVertex
 10
1.285714285673748
 20
0.0
 30
0.0
  0
VERTEX
  5
62
330
60
100
AcDbEntity
  8
1_ANYTOOL_1MMDEEP_LABELS_S
100
AcDbVertex
100
AcDb2dVertex
 10
8.999999999959982
 20
-30.0
 30
0.0
  0
VERTEX
  5
63
330
60
100
AcDbEntity
  8
1_ANYTOOL_1MMDEEP_LABELS_S
100
AcDbVertex
100
AcDb2dVertex
 10
17.44285714281796
 20
-0.9000000000014552
 30
0.0
  0
VERTEX
  5
64
330
60
100
AcDbEntity
  8
1_ANYTOOL_1MMDEEP_LABELS_S
100
AcDbVertex
100
AcDb2dVertex
 10
25.92857142853245
 20
-30.0
 30
0.0
  0
VERTEX
  5
65
330
60
100
AcDbEntity
  8
1_ANYTOOL_1MMDEEP_LABELS_S
100
AcDbVertex
100
AcDb2dVertex
 10
33.42857142853245
 20
0.0
 30
0.0
  0
SEQEND
  5
66
330
60
100
AcDbEntity
  8
1_ANYTOOL_1MMDEEP_LABELS_S
  0
LINE
  5
67
330
1F
100
AcDbEntity
  8
1_ANYTOOL_1MMDEEP_LABELS_S
100
AcDbLine
 10
45.64285714281868
 20
-16.11428571428405
 30
0.0
 11
36.85714285710128
 21
-16.19999999999709
 31
0.0
  0
POLYLINE
  5
68
330
1F
100
AcDbEntity
  8
1_ANYTOOL_1MMDEEP_LABELS_S
100
AcDb2dPolyline
 66
     1
 10
0.0
 20
0.0
 30
0.0
 70
     1
  0
VERTEX
  5
69
330
68
100
AcDbEntity
  8
1_ANYTOOL_1MMDEEP_LABELS_S
100
AcDbVertex
100
AcDb2dVertex
 10
61.71428571424622
 20
0.3428571428594296
 30
0.0
  0
VERTEX
  5
6A
330
68
100
AcDbEntity
  8
1_ANYTOOL_1MMDEEP_LABELS_S
100
AcDbVertex
100
AcDb2dVertex
 10
62.08577008924621
 20
0.3369977678594296
 30
0.0
  0
VERTEX
  5
6B
330
68
100
AcDbEntity
  8
1_ANYTOOL_1MMDEEP_LABELS_S
100
AcDbVertex
100
AcDb2dVertex
 10
62.45022321424619
 20
0.3194196428594296
 30
0.0
  0
VERTEX
  5
6C
330
68
100
AcDbEntity
  8
1_ANYTOOL_1MMDEEP_LABELS_S
100
AcDbVertex
100
AcDb2dVertex
 10
62.80764508924617
 20
0.2901227678594296
 30
0.0
  0
VERTEX
  5
6D
330
68
100
AcDbEntity
  8
1_ANYTOOL_1MMDEEP_LABELS_S
100
AcDbVertex
100
AcDb2dVertex
 10
62.98371930799615
 20
0.2710797991094296
 30
0.0
  0
VERTEX
  5
6E
330
68
100
AcDbEntity
  8
1_ANYTOOL_1MMDEEP_LABELS_S
100
AcDbVertex
100
AcDb2dVertex
 10
63.15803571424613
 20
0.2491071428594296
 30
0.0
  0
VERTEX
  5
6F
330
68
100
AcDbEntity
  8
1_ANYTOOL_1MMDEEP_LABELS_S
100
AcDbVertex
100
AcDb2dVertex
 10
63.3305943079961
 20
0.2242047991094296
 30
0.0
  0
VERTEX
  5
70
330
68
100
AcDbEntity
  8
1_ANYTOOL_1MMDEEP_LABELS_S
100
AcDbVertex
100
AcDb2dVertex
 10
63.50139508924607
 20
0.1963727678594296
 30
0.0
  0
VERTEX
  5
71
330
68
100
AcDbEntity
  8
1_ANYTOOL_1MMDEEP_LABELS_S
100
AcDbVertex
100
AcDb2dVertex
 10
63.67043805799604
 20
0.1656110491094296
 30
0.0
  0
VERTEX
  5
72
330
68
100
AcDbEntity
  8
1_ANYTOOL_1MMDEEP_LABELS_S
100
AcDbVertex
100
AcDb2dVertex
 10
63.83772321424601
 20
0.1319196428594296
 30
0.0
  0
VERTEX
  5
73
330
68
100
AcDbEntity
  8
1_ANYTOOL_1MMDEEP_LABELS_S
100
AcDbVertex
100
AcDb2dVertex
 10
64.00325055799598
 20
0.0952985491094296
 30
0.0
  0
VERTEX
  5
74
330
68
100
AcDbEntity
  8
1_ANYTOOL_1MMDEEP_LABELS_S
100
AcDbVertex
100
AcDb2dVertex
 10
64.16702008924594
 20
0.0557477678594296
 30
0.0
  0
VERTEX
  5
75
330
68
100
AcDbEntity
  8
1_ANYTOOL_1MMDEEP_LABELS_S
100
AcDbVertex
100
AcDb2dVertex
 10
64.3290318079959
 20
0.0132672991094296
 30
0.0
  0
VERTEX
  5
76
330
68
100
AcDbEntity
  8
1_ANYTOOL_1MMDEEP_LABELS_S
100
AcDbVertex
100
AcDb2dVertex
 10
64.48928571424585
 20
-0.0321428571405704
 30
0.0
  0
VERTEX
  5
77
330
68
100
AcDbEntity
  8
1_ANYTOOL_1MMDEEP_LABELS_S
100
AcDbVertex
100
AcDb2dVertex
 10
64.64778180799581
 20
-0.0804827008905704
 30
0.0
  0
VERTEX
  5
78
330
68
100
AcDbEntity
  8
1_ANYTOOL_1MMDEEP_LABELS_S
100
AcDbVertex
100
AcDb2dVertex
 10
64.80452008924576
 20
-0.1317522321405704
 30
0.0
  0
VERTEX
  5
79
330
68
100
AcDbEntity
  8
1_ANYTOOL_1MMDEEP_LABELS_S
100
AcDbVertex
100
AcDb2dVertex
 10
64.95950055799571
 20
-0.1859514508905704
 30
0.0
  0
VERTEX
  5
7A
330
68
100
AcDbEntity
  8
1_ANYTOOL_1MMDEEP_LABELS_S
100
AcDbVertex
100
AcDb2dVertex
 10
65.11272321424565
 20
-0.2430803571405704
 30
0.0
  0
VERTEX
  5
7B
330
68
100
AcDbEntity
  8
1_ANYTOOL_1MMDEEP_LABELS_S
100
AcDbVertex
100
AcDb2dVertex
 10
65.2641880579956
 20
-0.3031389508905704
 30
0.0
  0
VERTEX
  5
7C
330
68
100
AcDbEntity
  8
1_ANYTOOL_1MMDEEP_LABELS_S
100
AcDbVertex
100
AcDb2dVertex
 10
65.41389508924553
 20
-0.3661272321405704
 30
0.0
  0
VERTEX
  5
7D
330
68
100
AcDbEntity
  8
1_ANYTOOL_1MMDEEP_LABELS_S
100
AcDbVertex
100
AcDb2dVertex
 10
65.56184430799547
 20
-0.4320452008905704
 30
0.0
  0
VERTEX
  5
7E
330
68
100
AcDbEntity
  8
1_ANYTOOL_1MMDEEP_LABELS_S
100
AcDbVertex
100
AcDb2dVertex
 10
65.7080357142454
 20
-0.5008928571405704
 30
0.0
  0
VERTEX
  5
7F
330
68
100
AcDbEntity
  8
1_ANYTOOL_1MMDEEP_LABELS_S
100
AcDbVertex
100
AcDb2dVertex
 10
65.85246930799534
 20
-0.5726702008905704
 30
0.0
  0
VERTEX
  5
80
330
68
100
AcDbEntity
  8
1_ANYTOOL_1MMDEEP_LABELS_S
100
AcDbVertex
100
AcDb2dVertex
 10
65.99514508924526
 20
-0.6473772321405704
 30
0.0
  0
VERTEX
  5
81
330
68
100
AcDbEntity
  8
1_ANYTOOL_1MMDEEP_LABELS_S
100
AcDbVertex
100
AcDb2dVertex
 10
66.13606305799519
 20
-0.7250139508905704
 30
0.0
  0
VERTEX
  5
82
330
68
100
AcDbEntity
  8
1_ANYTOOL_1MMDEEP_LABELS_S
100
AcDbVertex
100
AcDb2dVertex
 10
66.2752232142451
 20
-0.8055803571405704
 30
0.0
  0
VERTEX
  5
83
330
68
100
AcDbEntity
  8
1_ANYTOOL_1MMDEEP_LABELS_S
100
AcDbVertex
100
AcDb2dVertex
 10
66.41262555799503
 20
-0.8890764508905704
 30
0.0
  0
VERTEX
  5
84
330
68
100
AcDbEntity
  8
1_ANYTOOL_1MMDEEP_LABELS_S
100
AcDbVertex
100
AcDb2dVertex
 10
66.54827008924494
 20
-0.9755022321405704
 30
0.0
  0
VERTEX
  5
85
330
68
100
AcDbEntity
  8
1_ANYTOOL_1MMDEEP_LABELS_S
100
AcDbVertex
100
AcDb2dVertex
 10
66.68215680799486
 20
-1.06485770089057
 30
0.0
  0
VERTEX
  5
86
330
68
100
AcDbEntity
  8
1_ANYTOOL_1MMDEEP_LABELS_S
100
AcDbVertex
100
AcDb2dVertex
 10
67.07377232138788
 20
-1.342466517854945
 30
0.0
  0
VERTEX
  5
87
330
68
100
AcDbEntity
  8
1_ANYTOOL_1MMDEEP_LABELS_S
100
AcDbVertex
100
AcDb2dVertex
 10
67.32723214281668
 20
-1.534151785712197
 30
0.0
  0
VERTEX
  5
88
330
68
100
AcDbEntity
  8
1_ANYTOOL_1MMDEEP_LABELS_S
100
AcDbVertex
100
AcDb2dVertex
 10
67.57466517853118
 20
-1.732198660712328
 30
0.0
  0
VERTEX
  5
89
330
68
100
AcDbEntity
  8
1_ANYTOOL_1MMDEEP_LABELS_S
100
AcDbVertex
100
AcDb2dVertex
 10
67.81607142853136
 20
-1.936607142855337
 30
0.0
  0
VERTEX
  5
8A
330
68
100
AcDbEntity
  8
1_ANYTOOL_1MMDEEP_LABELS_S
100
AcDbVertex
100
AcDb2dVertex
 10
68.05145089281723
 20
-2.147377232141224
 30
0.0
  0
VERTEX
  5
8B
330
68
100
AcDbEntity
  8
1_ANYTOOL_1MMDEEP_LABELS_S
100
AcDbVertex
100
AcDb2dVertex
 10
68.28080357138879
 20
-2.36450892856999
 30
0.0
  0
VERTEX
  5
8C
330
68
100
AcDbEntity
  8
1_ANYTOOL_1MMDEEP_LABELS_S
100
AcDbVertex
100
AcDb2dVertex
 10
68.50412946424603
 20
-2.588002232141633
 30
0.0
  0
VERTEX
  5
8D
330
68
100
AcDbEntity
  8
1_ANYTOOL_1MMDEEP_LABELS_S
100
AcDbVertex
100
AcDb2dVertex
 10
68.72142857138897
 20
-2.817857142856155
 30
0.0
  0
VERTEX
  5
8E
330
68
100
AcDbEntity
  8
1_ANYTOOL_1MMDEEP_LABELS_S
100
AcDbVertex
100
AcDb2dVertex
 10
68.93270089281759
 20
-3.054073660713556
 30
0.0
  0
VERTEX
  5
8F
330
68
100
AcDbEntity
  8
1_ANYTOOL_1MMDEEP_LABELS_S
100
AcDbVertex
100
AcDb2dVertex
 10
69.1379464285319
 20
-3.296651785713834
 30
0.0
  0
VERTEX
  5
90
330
68
100
AcDbEntity
  8
1_ANYTOOL_1MMDEEP_LABELS_S
100
AcDbVertex
100
AcDb2dVertex
 10
69.3371651785319
 20
-3.545591517856991
 30
0.0
  0
VERTEX
  5
91
330
68
100
AcDbEntity
  8
1_ANYTOOL_1MMDEEP_LABELS_S
100
AcDbVertex
100
AcDb2dVertex
 10
69.53035714281759
 20
-3.800892857143026
 30
0.0
  0
VERTEX
  5
92
330
68
100
AcDbEntity
  8
1_ANYTOOL_1MMDEEP_LABELS_S
100
AcDbVertex
100
AcDb2dVertex
 10
69.71752232138897
 20
-4.062555803571939
 30
0.0
  0
VERTEX
  5
93
330
68
100
AcDbEntity
  8
1_ANYTOOL_1MMDEEP_LABELS_S
100
AcDbVertex
100
AcDb2dVertex
 10
69.89866071424603
 20
-4.330580357143731
 30
0.0
  0
VERTEX
  5
94
330
68
100
AcDbEntity
  8
1_ANYTOOL_1MMDEEP_LABELS_S
100
AcDbVertex
100
AcDb2dVertex
 10
70.07377232138879
 20
-4.604966517858401
 30
0.0
  0
VERTEX
  5
95
330
68
100
AcDbEntity
  8
1_ANYTOOL_1MMDEEP_LABELS_S
100
AcDbVertex
100
AcDb2dVertex
 10
70.41127232138845
 20
-5.171484375001199
 30
0.0
  0
VERTEX
  5
96
330
68
100
AcDbEntity
  8
1_ANYTOOL_1MMDEEP_LABELS_S
100
AcDbVertex
100
AcDb2dVertex
 10
70.57366071424542
 20
-5.460937500000796
 30
0.0
  0
VERTEX
  5
97
330
68
100
AcDbEntity
  8
1_ANYTOOL_1MMDEEP_LABELS_S
100
AcDbVertex
100
AcDb2dVertex
 10
70.73002232138813
 20
-5.754073660714738
 30
0.0
  0
VERTEX
  5
98
330
68
100
AcDbEntity
  8
1_ANYTOOL_1MMDEEP_LABELS_S
100
AcDbVertex
100
AcDb2dVertex
 10
70.88035714281659
 20
-6.050892857143026
 30
0.0
  0
VERTEX
  5
99
330
68
100
AcDbEntity
  8
1_ANYTOOL_1MMDEEP_LABELS_S
100
AcDbVertex
100
AcDb2dVertex
 10
71.0246651785308
 20
-6.35139508928566
 30
0.0
  0
VERTEX
  5
9A
330
68
100
AcDbEntity
  8
1_ANYTOOL_1MMDEEP_LABELS_S
100
AcDbVertex
100
AcDb2dVertex
 10
71.16294642853074
 20
-6.65558035714264
 30
0.0
  0
VERTEX
  5
9B
330
68
100
AcDbEntity
  8
1_ANYTOOL_1MMDEEP_LABELS_S
100
AcDbVertex
100
AcDb2dVertex
 10
71.29520089281644
 20
-6.963448660713965
 30
0.0
  0
VERTEX
  5
9C
330
68
100
AcDbEntity
  8
1_ANYTOOL_1MMDEEP_LABELS_S
100
AcDbVertex
100
AcDb2dVertex
 10
71.42142857138788
 20
-7.274999999999636
 30
0.0
  0
VERTEX
  5
9D
330
68
100
AcDbEntity
  8
1_ANYTOOL_1MMDEEP_LABELS_S
100
AcDbVertex
100
AcDb2dVertex
 10
71.54162946424506
 20
-7.590234374999653
 30
0.0
  0
VERTEX
  5
9E
330
68
100
AcDbEntity
  8
1_ANYTOOL_1MMDEEP_LABELS_S
100
AcDbVertex
100
AcDb2dVertex
 10
71.65580357138799
 20
-7.909151785714016
 30
0.0
  0
VERTEX
  5
9F
330
68
100
AcDbEntity
  8
1_ANYTOOL_1MMDEEP_LABELS_S
100
AcDbVertex
100
AcDb2dVertex
 10
71.76395089281667
 20
-8.231752232142725
 30
0.0
  0
VERTEX
  5
A0
330
68
100
AcDbEntity
  8
1_ANYTOOL_1MMDEEP_LABELS_S
100
AcDbVertex
100
AcDb2dVertex
 10
71.86607142853109
 20
-8.55803571428578
 30
0.0
  0
VERTEX
  5
A1
330
68
100
AcDbEntity
  8
1_ANYTOOL_1MMDEEP_LABELS_S
100
AcDbVertex
100
AcDb2dVertex
 10
71.96216517853125
 20
-8.88800223214318
 30
0.0
  0
VERTEX
  5
A2
330
68
100
AcDbEntity
  8
1_ANYTOOL_1MMDEEP_LABELS_S
100
AcDbVertex
100
AcDb2dVertex
 10
72.05223214281716
 20
-9.221651785714926
 30
0.0
  0
VERTEX
  5
A3
330
68
100
AcDbEntity
  8
1_ANYTOOL_1MMDEEP_LABELS_S
100
AcDbVertex
100
AcDb2dVertex
 10
72.13627232138882
 20
-9.558984375001017
 30
0.0
  0
VERTEX
  5
A4
330
68
100
AcDbEntity
  8
1_ANYTOOL_1MMDEEP_LABELS_S
100
AcDbVertex
100
AcDb2dVertex
 10
72.36495535710287
 20
-10.58236607142919
 30
0.0
  0
VERTEX
  5
A5
330
68
100
AcDbEntity
  8
1_ANYTOOL_1MMDEEP_LABELS_S
100
AcDbVertex
100
AcDb2dVertex
 10
72.4955357142453
 20
-11.2580357142856
 30
0.0
  0
VERTEX
  5
A6
330
68
100
AcDbEntity
  8
1_ANYTOOL_1MMDEEP_LABELS_S
100
AcDbVertex
100
AcDb2dVertex
 10
72.60602678567352
 20
-11.92700892857067
 30
0.0
  0
VERTEX
  5
A7
330
68
100
AcDbEntity
  8
1_ANYTOOL_1MMDEEP_LABELS_S
100
AcDbVertex
100
AcDb2dVertex
 10
72.69642857138751
 20
-12.58928571428442
 30
0.0
  0
VERTEX
  5
A8
330
68
100
AcDbEntity
  8
1_ANYTOOL_1MMDEEP_LABELS_S
100
AcDbVertex
100
AcDb2dVertex
 10
72.76674107138729
 20
-13.24486607142683
 30
0.0
  0
VERTEX
  5
A9
330
68
100
AcDbEntity
  8
1_ANYTOOL_1MMDEEP_LABELS_S
100
AcDbVertex
100
AcDb2dVertex
 10
72.81696428567284
 20
-13.89374999999791
 30
0.0
  0
VERTEX
  5
AA
330
68
100
AcDbEntity
  8
1_ANYTOOL_1MMDEEP_LABELS_S
100
AcDbVertex
100
AcDb2dVertex
 10
72.84709821424417
 20
-14.53593749999766
 30
0.0
  0
VERTEX
  5
AB
330
68
100
AcDbEntity
  8
1_ANYTOOL_1MMDEEP_LABELS_S
100
AcDbVertex
100
AcDb2dVertex
 10
72.85714285710128
 20
-15.17142857142608
 30
0.0
  0
VERTEX
  5
AC
330
68
100
AcDbEntity
  8
1_ANYTOOL_1MMDEEP_LABELS_S
100
AcDbVertex
100
AcDb2dVertex
 10
72.84626116067271
 20
-15.80892857142678
 30
0.0
  0
VERTEX
  5
AD
330
68
100
AcDbEntity
  8
1_ANYTOOL_1MMDEEP_LABELS_S
100
AcDbVertex
100
AcDb2dVertex
 10
72.813616071387
 20
-16.44642857142742
 30
0.0
  0
VERTEX
  5
AE
330
68
100
AcDbEntity
  8
1_ANYTOOL_1MMDEEP_LABELS_S
100
AcDbVertex
100
AcDb2dVertex
 10
72.75920758924416
 20
-17.083928571428
 30
0.0
  0
VERTEX
  5
AF
330
68
100
AcDbEntity
  8
1_ANYTOOL_1MMDEEP_LABELS_S
100
AcDbVertex
100
AcDb2dVertex
 10
72.68303571424417
 20
-17.72142857142853
 30
0.0
  0
VERTEX
  5
B0
330
68
100
AcDbEntity
  8
1_ANYTOOL_1MMDEEP_LABELS_S
100
AcDbVertex
100
AcDb2dVertex
 10
72.58510044638705
 20
-18.358928571429
 30
0.0
  0
VERTEX
  5
B1
330
68
100
AcDbEntity
  8
1_ANYTOOL_1MMDEEP_LABELS_S
100
AcDbVertex
100
AcDb2dVertex
 10
72.46540178567278
 20
-18.99642857142942
 30
0.0
  0
VERTEX
  5
B2
330
68
100
AcDbEntity
  8
1_ANYTOOL_1MMDEEP_LABELS_S
100
AcDbVertex
100
AcDb2dVertex
 10
72.32393973210138
 20
-19.63392857142978
 30
0.0
  0
VERTEX
  5
B3
330
68
100
AcDbEntity
  8
1_ANYTOOL_1MMDEEP_LABELS_S
100
AcDbVertex
100
AcDb2dVertex
 10
72.16071428567284
 20
-20.27142857143008
 30
0.0
  0
VERTEX
  5
B4
330
68
100
AcDbEntity
  8
1_ANYTOOL_1MMDEEP_LABELS_S
100
AcDbVertex
100
AcDb2dVertex
 10
71.97572544638716
 20
-20.90892857143032
 30
0.0
  0
VERTEX
  5
B5
330
68
100
AcDbEntity
  8
1_ANYTOOL_1MMDEEP_LABELS_S
100
AcDbVertex
100
AcDb2dVertex
 10
71.76897321424434
 20
-21.54642857143051
 30
0.0
  0
VERTEX
  5
B6
330
68
100
AcDbEntity
  8
1_ANYTOOL_1MMDEEP_LABELS_S
100
AcDbVertex
100
AcDb2dVertex
 10
71.54045758924438
 20
-22.18392857143064
 30
0.0
  0
VERTEX
  5
B7
330
68
100
AcDbEntity
  8
1_ANYTOOL_1MMDEEP_LABELS_S
100
AcDbVertex
100
AcDb2dVertex
 10
71.29017857138729
 20
-22.82142857143072
 30
0.0
  0
VERTEX
  5
B8
330
68
100
AcDbEntity
  8
1_ANYTOOL_1MMDEEP_LABELS_S
100
AcDbVertex
100
AcDb2dVertex
 10
71.01813616067305
 20
-23.45892857143073
 30
0.0
  0
VERTEX
  5
B9
330
68
100
AcDbEntity
  8
1_ANYTOOL_1MMDEEP_LABELS_S
100
AcDbVertex
100
AcDb2dVertex
 10
70.72433035710168
 20
-24.09642857143069
 30
0.0
  0
VERTEX
  5
BA
330
68
100
AcDbEntity
  8
1_ANYTOOL_1MMDEEP_LABELS_S
100
AcDbVertex
100
AcDb2dVertex
 10
70.40876116067317
 20
-24.7339285714306
 30
0.0
  0
VERTEX
  5
BB
330
68
100
AcDbEntity
  8
1_ANYTOOL_1MMDEEP_LABELS_S
100
AcDbVertex
100
AcDb2dVertex
 10
70.07142857138751
 20
-25.37142857143044
 30
0.0
  0
VERTEX
  5
BC
330
68
100
AcDbEntity
  8
1_ANYTOOL_1MMDEEP_LABELS_S
100
AcDbVertex
100
AcDb2dVertex
 10
69.89686104906608
 20
-25.68519810268035
 30
0.0
  0
VERTEX
  5
BD
330
68
100
AcDbEntity
  8
1_ANYTOOL_1MMDEEP_LABELS_S
100
AcDbVertex
100
AcDb2dVertex
 10
69.71601562495893
 20
-25.98900669643027
 30
0.0
  0
VERTEX
  5
BE
330
68
100
AcDbEntity
  8
1_ANYTOOL_1MMDEEP_LABELS_S
100
AcDbVertex
100
AcDb2dVertex
 10
69.52889229906606
 20
-26.28285435268018
 30
0.0
  0
VERTEX
  5
BF
330
68
100
AcDbEntity
  8
1_ANYTOOL_1MMDEEP_LABELS_S
100
AcDbVertex
100
AcDb2dVertex
 10
69.33549107138748
 20
-26.5667410714301
 30
0.0
  0
VERTEX
  5
C0
330
68
100
AcDbEntity
  8
1_ANYTOOL_1MMDEEP_LABELS_S
100
AcDbVertex
100
AcDb2dVertex
 10
69.13581194192318
 20
-26.84066685268002
 30
0.0
  0
VERTEX
  5
C1
330
68
100
AcDbEntity
  8
1_ANYTOOL_1MMDEEP_LABELS_S
100
AcDbVertex
100
AcDb2dVertex
 10
68.92985491067317
 20
-27.10463169642995
 30
0.0
  0
VERTEX
  5
C2
330
68
100
AcDbEntity
  8
1_ANYTOOL_1MMDEEP_LABELS_S
100
AcDbVertex
100
AcDb2dVertex
 10
68.71761997763744
 20
-27.35863560267988
 30
0.0
  0
VERTEX
  5
C3
330
68
100
AcDbEntity
  8
1_ANYTOOL_1MMDEEP_LABELS_S
100
AcDbVertex
100
AcDb2dVertex
 10
68.499107142816
 20
-27.60267857142981
 30
0.0
  0
VERTEX
  5
C4
330
68
100
AcDbEntity
  8
1_ANYTOOL_1MMDEEP_LABELS_S
100
AcDbVertex
100
AcDb2dVertex
 10
68.38749651223563
 20
-27.72096470424227
 30
0.0
  0
VERTEX
  5
C5
330
68
100
AcDbEntity
  8
1_ANYTOOL_1MMDEEP_LABELS_S
100
AcDbVertex
100
AcDb2dVertex
 10
68.27431640620884
 20
-27.83676060267974
 30
0.0
  0
VERTEX
  5
C6
330
68
100
AcDbEntity
  8
1_ANYTOOL_1MMDEEP_LABELS_S
100
AcDbVertex
100
AcDb2dVertex
 10
68.15956682473562
 20
-27.9500662667422
 30
0.0
  0
VERTEX
  5
C7
330
68
100
AcDbEntity
  8
1_ANYTOOL_1MMDEEP_LABELS_S
100
AcDbVertex
100
AcDb2dVertex
 10
68.04324776781597
 20
-28.06088169642968
 30
0.0
  0
VERTEX
  5
C8
330
68
100
AcDbEntity
  8
1_ANYTOOL_1MMDEEP_LABELS_S
100
AcDbVertex
100
AcDb2dVertex
 10
67.92535923544989
 20
-28.16920689174214
 30
0.0
  0
VERTEX
  5
C9
330
68
100
AcDbEntity
  8
1_ANYTOOL_1MMDEEP_LABELS_S
100
AcDbVertex
100
AcDb2dVertex
 10
67.80590122763738
 20
-28.27504185267961
 30
0.0
  0
VERTEX
  5
CA
330
68
100
AcDbEntity
  8
1_ANYTOOL_1MMDEEP_LABELS_S
100
AcDbVertex
100
AcDb2dVertex
 10
67.68487374437844
 20
-28.37838657924208
 30
0.0
  0
VERTEX
  5
CB
330
68
100
AcDbEntity
  8
1_ANYTOOL_1MMDEEP_LABELS_S
100
AcDbVertex
100
AcDb2dVertex
 10
67.56227678567308
 20
-28.47924107142956
 30
0.0
  0
VERTEX
  5
CC
330
68
100
AcDbEntity
  8
1_ANYTOOL_1MMDEEP_LABELS_S
100
AcDbVertex
100
AcDb2dVertex
 10
67.43811035152129
 20
-28.57760532924203
 30
0.0
  0
VERTEX
  5
CD
330
68
100
AcDbEntity
  8
1_ANYTOOL_1MMDEEP_LABELS_S
100
AcDbVertex
100
AcDb2dVertex
 10
67.31237444192305
 20
-28.6734793526795
 30
0.0
  0
VERTEX
  5
CE
330
68
100
AcDbEntity
  8
1_ANYTOOL_1MMDEEP_LABELS_S
100
AcDbVertex
100
AcDb2dVertex
 10
67.1850690568784
 20
-28.76686314174197
 30
0.0
  0
VERTEX
  5
CF
330
68
100
AcDbEntity
  8
1_ANYTOOL_1MMDEEP_LABELS_S
100
AcDbVertex
100
AcDb2dVertex
 10
67.05619419638732
 20
-28.85775669642945
 30
0.0
  0
VERTEX
  5
D0
330
68
100
AcDbEntity
  8
1_ANYTOOL_1MMDEEP_LABELS_S
100
AcDbVertex
100
AcDb2dVertex
 10
66.9257498604498
 20
-28.94616001674192
 30
0.0
  0
VERTEX
  5
D1
330
68
100
AcDbEntity
  8
1_ANYTOOL_1MMDEEP_LABELS_S
100
AcDbVertex
100
AcDb2dVertex
 10
66.79373604906587
 20
-29.0320731026794
 30
0.0
  0
VERTEX
  5
D2
330
68
100
AcDbEntity
  8
1_ANYTOOL_1MMDEEP_LABELS_S
100
AcDbVertex
100
AcDb2dVertex
 10
66.6601527622355
 20
-29.11549595424187
 30
0.0
  0
VERTEX
  5
D3
330
68
100
AcDbEntity
  8
1_ANYTOOL_1MMDEEP_LABELS_S
100
AcDbVertex
100
AcDb2dVertex
 10
66.52499999995871
 20
-29.19642857142935
 30
0.0
  0
VERTEX
  5
D4
330
68
100
AcDbEntity
  8
1_ANYTOOL_1MMDEEP_LABELS_S
100
AcDbVertex
100
AcDb2dVertex
 10
66.38827776223548
 20
-29.27487095424183
 30
0.0
  0
VERTEX
  5
D5
330
68
100
AcDbEntity
  8
1_ANYTOOL_1MMDEEP_LABELS_S
100
AcDbVertex
100
AcDb2dVertex
 10
66.24998604906583
 20
-29.35082310267931
 30
0.0
  0
VERTEX
  5
D6
330
68
100
AcDbEntity
  8
1_ANYTOOL_1MMDEEP_LABELS_S
100
AcDbVertex
100
AcDb2dVertex
 10
66.11012486044973
 20
-29.42428501674178
 30
0.0
  0
VERTEX
  5
D7
330
68
100
AcDbEntity
  8
1_ANYTOOL_1MMDEEP_LABELS_S
100
AcDbVertex
100
AcDb2dVertex
 10
65.96869419638723
 20
-29.49525669642927
 30
0.0
  0
VERTEX
  5
D8
330
68
100
AcDbEntity
  8
1_ANYTOOL_1MMDEEP_LABELS_S
100
AcDbVertex
100
AcDb2dVertex
 10
65.82569405687829
 20
-29.56373814174174
 30
0.0
  0
VERTEX
  5
D9
330
68
100
AcDbEntity
  8
1_ANYTOOL_1MMDEEP_LABELS_S
100
AcDbVertex
100
AcDb2dVertex
 10
65.68112444192292
 20
-29.62972935267923
 30
0.0
  0
VERTEX
  5
DA
330
68
100
AcDbEntity
  8
1_ANYTOOL_1MMDEEP_LABELS_S
100
AcDbVertex
100
AcDb2dVertex
 10
65.53498535152113
 20
-29.69323032924171
 30
0.0
  0
VERTEX
  5
DB
330
68
100
AcDbEntity
  8
1_ANYTOOL_1MMDEEP_LABELS_S
100
AcDbVertex
100
AcDb2dVertex
 10
65.3872767856729
 20
-29.75424107142919
 30
0.0
  0
VERTEX
  5
DC
330
68
100
AcDbEntity
  8
1_ANYTOOL_1MMDEEP_LABELS_S
100
AcDbVertex
100
AcDb2dVertex
 10
65.23799874437823
 20
-29.81276157924167
 30
0.0
  0
VERTEX
  5
DD
330
68
100
AcDbEntity
  8
1_ANYTOOL_1MMDEEP_LABELS_S
100
AcDbVertex
100
AcDb2dVertex
 10
65.08715122763715
 20
-29.86879185267916
 30
0.0
  0
VERTEX
  5
DE
330
68
100
AcDbEntity
  8
1_ANYTOOL_1MMDEEP_LABELS_S
100
AcDbVertex
100
AcDb2dVertex
 10
64.93473423544964
 20
-29.92233189174164
 30
0.0
  0
VERTEX
  5
DF
330
68
100
AcDbEntity
  8
1_ANYTOOL_1MMDEEP_LABELS_S
100
AcDbVertex
100
AcDb2dVertex
 10
64.7807477678157
 20
-29.97338169642913
 30
0.0
  0
VERTEX
  5
E0
330
68
100
AcDbEntity
  8
1_ANYTOOL_1MMDEEP_LABELS_S
100
AcDbVertex
100
AcDb2dVertex
 10
64.46806640620852
 20
-30.0680106026791
 30
0.0
  0
VERTEX
  5
E1
330
68
100
AcDbEntity
  8
1_ANYTOOL_1MMDEEP_LABELS_S
100
AcDbVertex
100
AcDb2dVertex
 10
64.14910714281564
 20
-30.15267857142908
 30
0.0
  0
VERTEX
  5
E2
330
68
100
AcDbEntity
  8
1_ANYTOOL_1MMDEEP_LABELS_S
100
AcDbVertex
100
AcDb2dVertex
 10
63.82386997763703
 20
-30.22738560267906
 30
0.0
  0
VERTEX
  5
E3
330
68
100
AcDbEntity
  8
1_ANYTOOL_1MMDEEP_LABELS_S
100
AcDbVertex
100
AcDb2dVertex
 10
63.49235491067272
 20
-30.29213169642904
 30
0.0
  0
VERTEX
  5
E4
330
68
100
AcDbEntity
  8
1_ANYTOOL_1MMDEEP_LABELS_S
100
AcDbVertex
100
AcDb2dVertex
 10
63.15456194192268
 20
-30.34691685267902
 30
0.0
  0
VERTEX
  5
E5
330
68
100
AcDbEntity
  8
1_ANYTOOL_1MMDEEP_LABELS_S
100
AcDbVertex
100
AcDb2dVertex
 10
62.81049107138693
 20
-30.39174107142901
 30
0.0
  0
VERTEX
  5
E6
330
68
100
AcDbEntity
  8
1_ANYTOOL_1MMDEEP_LABELS_S
100
AcDbVertex
100
AcDb2dVertex
 10
62.46014229906547
 20
-30.426604352679
 30
0.0
  0
VERTEX
  5
E7
330
68
100
AcDbEntity
  8
1_ANYTOOL_1MMDEEP_LABELS_S
100
AcDbVertex
100
AcDb2dVertex
 10
62.10351562495829
 20
-30.45150669642899
 30
0.0
  0
VERTEX
  5
E8
330
68
100
AcDbEntity
  8
1_ANYTOOL_1MMDEEP_LABELS_S
100
AcDbVertex
100
AcDb2dVertex
 10
61.74061104906539
 20
-30.46644810267899
 30
0.0
  0
VERTEX
  5
E9
330
68
100
AcDbEntity
  8
1_ANYTOOL_1MMDEEP_LABELS_S
100
AcDbVertex
100
AcDb2dVertex
 10
61.37142857138679
 20
-30.47142857142899
 30
0.0
  0
VERTEX
  5
EA
330
68
100
AcDbEntity
  8
1_ANYTOOL_1MMDEEP_LABELS_S
100
AcDbVertex
100
AcDb2dVertex
 10
60.9890206472798
 20
-30.46636439732185
 30
0.0
  0
VERTEX
  5
EB
330
68
100
AcDbEntity
  8
1_ANYTOOL_1MMDEEP_LABELS_S
100
AcDbVertex
100
AcDb2dVertex
 10
60.61322544638709
 20
-30.45117187500043
 30
0.0
  0
VERTEX
  5
EC
330
68
100
AcDbEntity
  8
1_ANYTOOL_1MMDEEP_LABELS_S
100
AcDbVertex
100
AcDb2dVertex
 10
60.24404296870867
 20
-30.42585100446473
 30
0.0
  0
VERTEX
  5
ED
330
68
100
AcDbEntity
  8
1_ANYTOOL_1MMDEEP_LABELS_S
100
AcDbVertex
100
AcDb2dVertex
 10
59.88147321424452
 20
-30.39040178571474
 30
0.0
  0
VERTEX
  5
EE
330
68
100
AcDbEntity
  8
1_ANYTOOL_1MMDEEP_LABELS_S
100
AcDbVertex
100
AcDb2dVertex
 10
59.52551618299466
 20
-30.34482421875048
 30
0.0
  0
VERTEX
  5
EF
330
68
100
AcDbEntity
  8
1_ANYTOOL_1MMDEEP_LABELS_S
100
AcDbVertex
100
AcDb2dVertex
 10
59.17617187495908
 20
-30.28911830357194
 30
0.0
  0
VERTEX
  5
F0
330
68
100
AcDbEntity
  8
1_ANYTOOL_1MMDEEP_LABELS_S
100
AcDbVertex
100
AcDb2dVertex
 10
58.83344029013779
 20
-30.22328404017912
 30
0.0
  0
VERTEX
  5
F1
330
68
100
AcDbEntity
  8
1_ANYTOOL_1MMDEEP_LABELS_S
100
AcDbVertex
100
AcDb2dVertex
 10
58.49732142853077
 20
-30.14732142857201
 30
0.0
  0
VERTEX
  5
F2
330
68
100
AcDbEntity
  8
1_ANYTOOL_1MMDEEP_LABELS_S
100
AcDbVertex
100
AcDb2dVertex
 10
58.16781529013804
 20
-30.06123046875063
 30
0.0
  0
VERTEX
  5
F3
330
68
100
AcDbEntity
  8
1_ANYTOOL_1MMDEEP_LABELS_S
100
AcDbVertex
100
AcDb2dVertex
 10
57.84492187495958
 20
-29.96501116071497
 30
0.0
  0
VERTEX
  5
F4
330
68
100
AcDbEntity
  8
1_ANYTOOL_1MMDEEP_LABELS_S
100
AcDbVertex
100
AcDb2dVertex
 10
57.68595493857571
 20
-29.91310337611678
 30
0.0
  0
VERTEX
  5
F5
330
68
100
AcDbEntity
  8
1_ANYTOOL_1MMDEEP_LABELS_S
100
AcDbVertex
100
AcDb2dVertex
 10
57.52864118299541
 20
-29.85866350446502
 30
0.0
  0
VERTEX
  5
F6
330
68
100
AcDbEntity
  8
1_ANYTOOL_1MMDEEP_LABELS_S
100
AcDbVertex
100
AcDb2dVertex
 10
57.37298060821868
 20
-29.8016915457597
 30
0.0
  0
VERTEX
  5
F7
330
68
100
AcDbEntity
  8
1_ANYTOOL_1MMDEEP_LABELS_S
100
AcDbVertex
100
AcDb2dVertex
 10
57.21897321424552
 20
-29.7421875000008
 30
0.0
  0
VERTEX
  5
F8
330
68
100
AcDbEntity
  8
1_ANYTOOL_1MMDEEP_LABELS_S
100
AcDbVertex
100
AcDb2dVertex
 10
57.06661900107594
 20
-29.68015136718833
 30
0.0
  0
VERTEX
  5
F9
330
68
100
AcDbEntity
  8
1_ANYTOOL_1MMDEEP_LABELS_S
100
AcDbVertex
100
AcDb2dVertex
 10
56.91591796870992
 20
-29.61558314732229
 30
0.0
  0
VERTEX
  5
FA
330
68
100
AcDbEntity
  8
1_ANYTOOL_1MMDEEP_LABELS_S
100
AcDbVertex
100
AcDb2dVertex
 10
56.76687011714747
 20
-29.54848284040268
 30
0.0
  0
VERTEX
  5
FB
330
68
100
AcDbEntity
  8
1_ANYTOOL_1MMDEEP_LABELS_S
100
AcDbVertex
100
AcDb2dVertex
 10
56.61947544638859
 20
-29.4788504464295
 30
0.0
  0
VERTEX
  5
FC
330
68
100
AcDbEntity
  8
1_ANYTOOL_1MMDEEP_LABELS_S
100
AcDbVertex
100
AcDb2dVertex
 10
56.47373395643329
 20
-29.40668596540276
 30
0.0
  0
VERTEX
  5
FD
330
68
100
AcDbEntity
  8
1_ANYTOOL_1MMDEEP_LABELS_S
100
AcDbVertex
100
AcDb2dVertex
 10
56.32964564728155
 20
-29.33198939732244
 30
0.0
  0
VERTEX
  5
FE
330
68
100
AcDbEntity
  8
1_ANYTOOL_1MMDEEP_LABELS_S
100
AcDbVertex
100
AcDb2dVertex
 10
56.18721051893338
 20
-29.25476074218855
 30
0.0
  0
VERTEX
  5
FF
330
68
100
AcDbEntity
  8
1_ANYTOOL_1MMDEEP_LABELS_S
100
AcDbVertex
100
AcDb2dVertex
 10
56.04642857138879
 20
-29.17500000000109
 30
0.0
  0
VERTEX
  5
100
330
68
100
AcDbEntity
  8
1_ANYTOOL_1MMDEEP_LABELS_S
100
AcDbVertex
100
AcDb2dVertex
 10
55.90729980464776
 20
-29.09270717076006
 30
0.0
  0
VERTEX
  5
101
330
68
100
AcDbEntity
  8
1_ANYTOOL_1MMDEEP_LABELS_S
100
AcDbVertex
100
AcDb2dVertex
 10
55.76982421871031
 20
-29.00788225446546
 30
0.0
  0
VERTEX
  5
102
330
68
100
AcDbEntity
  8
1_ANYTOOL_1MMDEEP_LABELS_S
100
AcDbVertex
100
AcDb2dVertex
 10
55.63400181357643
 20
-28.9205252511173
 30
0.0
  0
VERTEX
  5
103
330
68
100
AcDbEntity
  8
1_ANYTOOL_1MMDEEP_LABELS_S
100
AcDbVertex
100
AcDb2dVertex
 10
55.49983258924611
 20
-28.83063616071556
 30
0.0
  0
VERTEX
  5
104
330
68
100
AcDbEntity
  8
1_ANYTOOL_1MMDEEP_LABELS_S
100
AcDbVertex
100
AcDb2dVertex
 10
55.36731654571937
 20
-28.73821498326025
 30
0.0
  0
VERTEX
  5
105
330
68
100
AcDbEntity
  8
1_ANYTOOL_1MMDEEP_LABELS_S
100
AcDbVertex
100
AcDb2dVertex
 10
55.2364536829962
 20
-28.64326171875137
 30
0.0
  0
VERTEX
  5
106
330
68
100
AcDbEntity
  8
1_ANYTOOL_1MMDEEP_LABELS_S
100
AcDbVertex
100
AcDb2dVertex
 10
55.10724400107659
 20
-28.54577636718892
 30
0.0
  0
VERTEX
  5
107
330
68
100
AcDbEntity
  8
1_ANYTOOL_1MMDEEP_LABELS_S
100
AcDbVertex
100
AcDb2dVertex
 10
54.97968749996056
 20
-28.4457589285729
 30
0.0
  0
VERTEX
  5
108
330
68
100
AcDbEntity
  8
1_ANYTOOL_1MMDEEP_LABELS_S
100
AcDbVertex
100
AcDb2dVertex
 10
54.8537841796481
 20
-28.34320940290331
 30
0.0
  0
VERTEX
  5
109
330
68
100
AcDbEntity
  8
1_ANYTOOL_1MMDEEP_LABELS_S
100
AcDbVertex
100
AcDb2dVertex
 10
54.72953404013921
 20
-28.23812779018015
 30
0.0
  0
VERTEX
  5
10A
330
68
100
AcDbEntity
  8
1_ANYTOOL_1MMDEEP_LABELS_S
100
AcDbVertex
100
AcDb2dVertex
 10
54.60693708143389
 20
-28.13051409040342
 30
0.0
  0
VERTEX
  5
10B
330
68
100
AcDbEntity
  8
1_ANYTOOL_1MMDEEP_LABELS_S
100
AcDbVertex
100
AcDb2dVertex
 10
54.48599330353214
 20
-28.02036830357312
 30
0.0
  0
VERTEX
  5
10C
330
68
100
AcDbEntity
  8
1_ANYTOOL_1MMDEEP_LABELS_S
100
AcDbVertex
100
AcDb2dVertex
 10
54.36670270643396
 20
-27.90769042968925
 30
0.0
  0
VERTEX
  5
10D
330
68
100
AcDbEntity
  8
1_ANYTOOL_1MMDEEP_LABELS_S
100
AcDbVertex
100
AcDb2dVertex
 10
54.24906529013936
 20
-27.79248046875181
 30
0.0
  0
VERTEX
  5
10E
330
68
100
AcDbEntity
  8
1_ANYTOOL_1MMDEEP_LABELS_S
100
AcDbVertex
100
AcDb2dVertex
 10
54.13308105464831
 20
-27.6747384207608
 30
0.0
  0
VERTEX
  5
10F
330
68
100
AcDbEntity
  8
1_ANYTOOL_1MMDEEP_LABELS_S
100
AcDbVertex
100
AcDb2dVertex
 10
54.01874999996085
 20
-27.55446428571622
 30
0.0
  0
VERTEX
  5
110
330
68
100
AcDbEntity
  8
1_ANYTOOL_1MMDEEP_LABELS_S
100
AcDbVertex
100
AcDb2dVertex
 10
53.90607212607695
 20
-27.43165806361807
 30
0.0
  0
VERTEX
  5
111
330
68
100
AcDbEntity
  8
1_ANYTOOL_1MMDEEP_LABELS_S
100
AcDbVertex
100
AcDb2dVertex
 10
53.79504743299663
 20
-27.30631975446635
 30
0.0
  0
VERTEX
  5
112
330
68
100
AcDbEntity
  8
1_ANYTOOL_1MMDEEP_LABELS_S
100
AcDbVertex
100
AcDb2dVertex
 10
53.57795758924668
 20
-27.0480468750022
 30
0.0
  0
VERTEX
  5
113
330
68
100
AcDbEntity
  8
1_ANYTOOL_1MMDEEP_LABELS_S
100
AcDbVertex
100
AcDb2dVertex
 10
53.36748046871102
 20
-26.77964564732377
 30
0.0
  0
VERTEX
  5
114
330
68
100
AcDbEntity
  8
1_ANYTOOL_1MMDEEP_LABELS_S
100
AcDbVertex
100
AcDb2dVertex
 10
53.16361607138964
 20
-26.50111607143106
 30
0.0
  0
VERTEX
  5
115
330
68
100
AcDbEntity
  8
1_ANYTOOL_1MMDEEP_LABELS_S
100
AcDbVertex
100
AcDb2dVertex
 10
52.96636439728255
 20
-26.21245814732406
 30
0.0
  0
VERTEX
  5
116
330
68
100
AcDbEntity
  8
1_ANYTOOL_1MMDEEP_LABELS_S
100
AcDbVertex
100
AcDb2dVertex
 10
52.77572544638973
 20
-25.91367187500279
 30
0.0
  0
VERTEX
  5
117
330
68
100
AcDbEntity
  8
1_ANYTOOL_1MMDEEP_LABELS_S
100
AcDbVertex
100
AcDb2dVertex
 10
52.5916992187112
 20
-25.60475725446724
 30
0.0
  0
VERTEX
  5
118
330
68
100
AcDbEntity
  8
1_ANYTOOL_1MMDEEP_LABELS_S
100
AcDbVertex
100
AcDb2dVertex
 10
52.41428571424694
 20
-25.2857142857174
 30
0.0
  0
VERTEX
  5
119
330
68
100
AcDbEntity
  8
1_ANYTOOL_1MMDEEP_LABELS_S
100
AcDbVertex
100
AcDb2dVertex
 10
52.08214285710407
 20
-24.63733258928829
 30
0.0
  0
VERTEX
  5
11A
330
68
100
AcDbEntity
  8
1_ANYTOOL_1MMDEEP_LABELS_S
100
AcDbVertex
100
AcDb2dVertex
 10
51.77142857138978
 20
-23.98861607143067
 30
0.0
  0
VERTEX
  5
11B
330
68
100
AcDbEntity
  8
1_ANYTOOL_1MMDEEP_LABELS_S
100
AcDbVertex
100
AcDb2dVertex
 10
51.48214285710405
 20
-23.33956473214454
 30
0.0
  0
VERTEX
  5
11C
330
68
100
AcDbEntity
  8
1_ANYTOOL_1MMDEEP_LABELS_S
100
AcDbVertex
100
AcDb2dVertex
 10
51.2142857142469
 20
-22.6901785714299
 30
0.0
  0
VERTEX
  5
11D
330
68
100
AcDbEntity
  8
1_ANYTOOL_1MMDEEP_LABELS_S
100
AcDbVertex
100
AcDb2dVertex
 10
50.96785714281832
 20
-22.04045758928675
 30
0.0
  0
VERTEX
  5
11E
330
68
100
AcDbEntity
  8
1_ANYTOOL_1MMDEEP_LABELS_S
100
AcDbVertex
100
AcDb2dVertex
 10
50.74285714281831
 20
-21.39040178571508
 30
0.0
  0
VERTEX
  5
11F
330
68
100
AcDbEntity
  8
1_ANYTOOL_1MMDEEP_LABELS_S
100
AcDbVertex
100
AcDb2dVertex
 10
50.53928571424687
 20
-20.74001116071491
 30
0.0
  0
VERTEX
  5
120
330
68
100
AcDbEntity
  8
1_ANYTOOL_1MMDEEP_LABELS_S
100
AcDbVertex
100
AcDb2dVertex
 10
50.35714285710401
 20
-20.08928571428623
 30
0.0
  0
VERTEX
  5
121
330
68
100
AcDbEntity
  8
1_ANYTOOL_1MMDEEP_LABELS_S
100
AcDbVertex
100
AcDb2dVertex
 10
50.19642857138972
 20
-19.43822544642904
 30
0.0
  0
VERTEX
  5
122
330
68
100
AcDbEntity
  8
1_ANYTOOL_1MMDEEP_LABELS_S
100
AcDbVertex
100
AcDb2dVertex
 10
50.057142857104
 20
-18.78683035714334
 30
0.0
  0
VERTEX
  5
123
330
68
100
AcDbEntity
  8
1_ANYTOOL_1MMDEEP_LABELS_S
100
AcDbVertex
100
AcDb2dVertex
 10
49.93928571424685
 20
-18.13510044642913
 30
0.0
  0
VERTEX
  5
124
330
68
100
AcDbEntity
  8
1_ANYTOOL_1MMDEEP_LABELS_S
100
AcDbVertex
100
AcDb2dVertex
 10
49.84285714281827
 20
-17.48303571428642
 30
0.0
  0
VERTEX
  5
125
330
68
100
AcDbEntity
  8
1_ANYTOOL_1MMDEEP_LABELS_S
100
AcDbVertex
100
AcDb2dVertex
 10
49.76785714281827
 20
-16.83063616071519
 30
0.0
  0
VERTEX
  5
126
330
68
100
AcDbEntity
  8
1_ANYTOOL_1MMDEEP_LABELS_S
100
AcDbVertex
100
AcDb2dVertex
 10
49.71428571424684
 20
-16.17790178571545
 30
0.0
  0
VERTEX
  5
127
330
68
100
AcDbEntity
  8
1_ANYTOOL_1MMDEEP_LABELS_S
100
AcDbVertex
100
AcDb2dVertex
 10
49.68214285710398
 20
-15.5248325892872
 30
0.0
  0
VERTEX
  5
128
330
68
100
AcDbEntity
  8
1_ANYTOOL_1MMDEEP_LABELS_S
100
AcDbVertex
100
AcDb2dVertex
 10
49.6714285713897
 20
-14.87142857143044
 30
0.0
  0
VERTEX
  5
129
330
68
100
AcDbEntity
  8
1_ANYTOOL_1MMDEEP_LABELS_S
100
AcDbVertex
100
AcDb2dVertex
 10
49.68264508924683
 20
-14.17801339285913
 30
0.0
  0
VERTEX
  5
12A
330
68
100
AcDbEntity
  8
1_ANYTOOL_1MMDEEP_LABELS_S
100
AcDbVertex
100
AcDb2dVertex
 10
49.71629464281824
 20
-13.49062500000207
 30
0.0
  0
VERTEX
  5
12B
330
68
100
AcDbEntity
  8
1_ANYTOOL_1MMDEEP_LABELS_S
100
AcDbVertex
100
AcDb2dVertex
 10
49.77237723210392
 20
-12.80926339285926
 30
0.0
  0
VERTEX
  5
12C
330
68
100
AcDbEntity
  8
1_ANYTOOL_1MMDEEP_LABELS_S
100
AcDbVertex
100
AcDb2dVertex
 10
49.85089285710387
 20
-12.13392857143072
 30
0.0
  0
VERTEX
  5
12D
330
68
100
AcDbEntity
  8
1_ANYTOOL_1MMDEEP_LABELS_S
100
AcDbVertex
100
AcDb2dVertex
 10
49.9518415178181
 20
-11.46462053571642
 30
0.0
  0
VERTEX
  5
12E
330
68
100
AcDbEntity
  8
1_ANYTOOL_1MMDEEP_LABELS_S
100
AcDbVertex
100
AcDb2dVertex
 10
50.07522321424659
 20
-10.80133928571638
 30
0.0
  0
VERTEX
  5
12F
330
68
100
AcDbEntity
  8
1_ANYTOOL_1MMDEEP_LABELS_S
100
AcDbVertex
100
AcDb2dVertex
 10
50.22103794638936
 20
-10.1440848214306
 30
0.0
  0
VERTEX
  5
130
330
68
100
AcDbEntity
  8
1_ANYTOOL_1MMDEEP_LABELS_S
100
AcDbVertex
100
AcDb2dVertex
 10
50.3892857142464
 20
-9.492857142859066
 30
0.0
  0
VERTEX
  5
131
330
68
100
AcDbEntity
  8
1_ANYTOOL_1MMDEEP_LABELS_S
100
AcDbVertex
100
AcDb2dVertex
 10
50.57996651781771
 20
-8.84765625000179
 30
0.0
  0
VERTEX
  5
132
330
68
100
AcDbEntity
  8
1_ANYTOOL_1MMDEEP_LABELS_S
100
AcDbVertex
100
AcDb2dVertex
 10
50.79308035710329
 20
-8.20848214285877
 30
0.0
  0
VERTEX
  5
133
330
68
100
AcDbEntity
  8
1_ANYTOOL_1MMDEEP_LABELS_S
100
AcDbVertex
100
AcDb2dVertex
 10
51.02862723210315
 20
-7.575334821430005
 30
0.0
  0
VERTEX
  5
134
330
68
100
AcDbEntity
  8
1_ANYTOOL_1MMDEEP_LABELS_S
100
AcDbVertex
100
AcDb2dVertex
 10
51.28660714281727
 20
-6.948214285715494
 30
0.0
  0
VERTEX
  5
135
330
68
100
AcDbEntity
  8
1_ANYTOOL_1MMDEEP_LABELS_S
100
AcDbVertex
100
AcDb2dVertex
 10
51.56702008924567
 20
-6.327120535715238
 30
0.0
  0
VERTEX
  5
136
330
68
100
AcDbEntity
  8
1_ANYTOOL_1MMDEEP_LABELS_S
100
AcDbVertex
100
AcDb2dVertex
 10
51.86986607138834
 20
-5.712053571429237
 30
0.0
  0
VERTEX
  5
137
330
68
100
AcDbEntity
  8
1_ANYTOOL_1MMDEEP_LABELS_S
100
AcDbVertex
100
AcDb2dVertex
 10
52.19514508924529
 20
-5.103013392857491
 30
0.0
  0
VERTEX
  5
138
330
68
100
AcDbEntity
  8
1_ANYTOOL_1MMDEEP_LABELS_S
100
AcDbVertex
100
AcDb2dVertex
 10
52.5428571428165
 20
-4.5
 30
0.0
  0
VERTEX
  5
139
330
68
100
AcDbEntity
  8
1_ANYTOOL_1MMDEEP_LABELS_S
100
AcDbVertex
100
AcDb2dVertex
 10
52.728264508888
 20
-4.202050781249859
 30
0.0
  0
VERTEX
  5
13A
330
68
100
AcDbEntity
  8
1_ANYTOOL_1MMDEEP_LABELS_S
100
AcDbVertex
100
AcDb2dVertex
 10
52.92020089281665
 20
-3.913560267856866
 30
0.0
  0
VERTEX
  5
13B
330
68
100
AcDbEntity
  8
1_ANYTOOL_1MMDEEP_LABELS_S
100
AcDbVertex
100
AcDb2dVertex
 10
53.11866629460243
 20
-3.63452845982102
 30
0.0
  0
VERTEX
  5
13C
330
68
100
AcDbEntity
  8
1_ANYTOOL_1MMDEEP_LABELS_S
100
AcDbVertex
100
AcDb2dVertex
 10
53.32366071424536
 20
-3.364955357142321
 30
0.0
  0
VERTEX
  5
13D
330
68
100
AcDbEntity
  8
1_ANYTOOL_1MMDEEP_LABELS_S
100
AcDbVertex
100
AcDb2dVertex
 10
53.53518415174543
 20
-3.10484095982077
 30
0.0
  0
VERTEX
  5
13E
330
68
100
AcDbEntity
  8
1_ANYTOOL_1MMDEEP_LABELS_S
100
AcDbVertex
100
AcDb2dVertex
 10
53.75323660710264
 20
-2.854185267856366
 30
0.0
  0
VERTEX
  5
13F
330
68
100
AcDbEntity
  8
1_ANYTOOL_1MMDEEP_LABELS_S
100
AcDbVertex
100
AcDb2dVertex
 10
53.97781808031698
 20
-2.612988281249109
 30
0.0
  0
VERTEX
  5
140
330
68
100
AcDbEntity
  8
1_ANYTOOL_1MMDEEP_LABELS_S
100
AcDbVertex
100
AcDb2dVertex
 10
54.20892857138847
 20
-2.381249999999
 30
0.0
  0
VERTEX
  5
141
330
68
100
AcDbEntity
  8
1_ANYTOOL_1MMDEEP_LABELS_S
100
AcDbVertex
100
AcDb2dVertex
 10
54.32693219862064
 20
-2.268927873882875
 30
0.0
  0
VERTEX
  5
142
330
68
100
AcDbEntity
  8
1_ANYTOOL_1MMDEEP_LABELS_S
100
AcDbVertex
100
AcDb2dVertex
 10
54.44656808031709
 20
-2.158970424106037
 30
0.0
  0
VERTEX
  5
143
330
68
100
AcDbEntity
  8
1_ANYTOOL_1MMDEEP_LABELS_S
100
AcDbVertex
100
AcDb2dVertex
 10
54.56783621647784
 20
-2.051377650668487
 30
0.0
  0
VERTEX
  5
144
330
68
100
AcDbEntity
  8
1_ANYTOOL_1MMDEEP_LABELS_S
100
AcDbVertex
100
AcDb2dVertex
 10
54.69073660710286
 20
-1.946149553570223
 30
0.0
  0
VERTEX
  5
145
330
68
100
AcDbEntity
  8
1_ANYTOOL_1MMDEEP_LABELS_S
100
AcDbVertex
100
AcDb2dVertex
 10
54.81526925219217
 20
-1.843286132811246
 30
0.0
  0
VERTEX
  5
146
330
68
100
AcDbEntity
  8
1_ANYTOOL_1MMDEEP_LABELS_S
100
AcDbVertex
100
AcDb2dVertex
 10
54.94143415174577
 20
-1.742787388391555
 30
0.0
  0
VERTEX
  5
147
330
68
100
AcDbEntity
  8
1_ANYTOOL_1MMDEEP_LABELS_S
100
AcDbVertex
100
AcDb2dVertex
 10
55.06923130576365
 20
-1.644653320311152
 30
0.0
  0
VERTEX
  5
148
330
68
100
AcDbEntity
  8
1_ANYTOOL_1MMDEEP_LABELS_S
100
AcDbVertex
100
AcDb2dVertex
 10
55.19866071424582
 20
-1.548883928570035
 30
0.0
  0
VERTEX
  5
149
330
68
100
AcDbEntity
  8
1_ANYTOOL_1MMDEEP_LABELS_S
100
AcDbVertex
100
AcDb2dVertex
 10
55.32972237719227
 20
-1.455479213168205
 30
0.0
  0
VERTEX
  5
14A
330
68
100
AcDbEntity
  8
1_ANYTOOL_1MMDEEP_LABELS_S
100
AcDbVertex
100
AcDb2dVertex
 10
55.462416294603
 20
-1.364439174105662
 30
0.0
  0
VERTEX
  5
14B
330
68
100
AcDbEntity
  8
1_ANYTOOL_1MMDEEP_LABELS_S
100
AcDbVertex
100
AcDb2dVertex
 10
55.59674246647803
 20
-1.275763811382406
 30
0.0
  0
VERTEX
  5
14C
330
68
100
AcDbEntity
  8
1_ANYTOOL_1MMDEEP_LABELS_S
100
AcDbVertex
100
AcDb2dVertex
 10
55.73270089281733
 20
-1.189453124998437
 30
0.0
  0
VERTEX
  5
14D
330
68
100
AcDbEntity
  8
1_ANYTOOL_1MMDEEP_LABELS_S
100
AcDbVertex
100
AcDb2dVertex
 10
55.87029157362092
 20
-1.105507114953754
 30
0.0
  0
VERTEX
  5
14E
330
68
100
AcDbEntity
  8
1_ANYTOOL_1MMDEEP_LABELS_S
100
AcDbVertex
100
AcDb2dVertex
 10
56.0095145088888
 20
-1.023925781248359
 30
0.0
  0
VERTEX
  5
14F
330
68
100
AcDbEntity
  8
1_ANYTOOL_1MMDEEP_LABELS_S
100
AcDbVertex
100
AcDb2dVertex
 10
56.15036969862096
 20
-0.9447091238822498
 30
0.0
  0
VERTEX
  5
150
330
68
100
AcDbEntity
  8
1_ANYTOOL_1MMDEEP_LABELS_S
100
AcDbVertex
100
AcDb2dVertex
 10
56.29285714281741
 20
-0.8678571428554278
 30
0.0
  0
VERTEX
  5
151
330
68
100
AcDbEntity
  8
1_ANYTOOL_1MMDEEP_LABELS_S
100
AcDbVertex
100
AcDb2dVertex
 10
56.43697684147814
 20
-0.7933698381678926
 30
0.0
  0
VERTEX
  5
152
330
68
100
AcDbEntity
  8
1_ANYTOOL_1MMDEEP_LABELS_S
100
AcDbVertex
100
AcDb2dVertex
 10
56.58272879460316
 20
-0.7212472098196443
 30
0.0
  0
VERTEX
  5
153
330
68
100
AcDbEntity
  8
1_ANYTOOL_1MMDEEP_LABELS_S
100
AcDbVertex
100
AcDb2dVertex
 10
56.87912946424605
 20
-0.5840959821410081
 30
0.0
  0
VERTEX
  5
154
330
68
100
AcDbEntity
  8
1_ANYTOOL_1MMDEEP_LABELS_S
100
AcDbVertex
100
AcDb2dVertex
 10
57.18205915174607
 20
-0.4564034598195192
 30
0.0
  0
VERTEX
  5
155
330
68
100
AcDbEntity
  8
1_ANYTOOL_1MMDEEP_LABELS_S
100
AcDbVertex
100
AcDb2dVertex
 10
57.49151785710325
 20
-0.3381696428551777
 30
0.0
  0
VERTEX
  5
156
330
68
100
AcDbEntity
  8
1_ANYTOOL_1MMDEEP_LABELS_S
100
AcDbVertex
100
AcDb2dVertex
 10
57.80750558031755
 20
-0.2293945312479835
 30
0.0
  0
VERTEX
  5
157
330
68
100
AcDbEntity
  8
1_ANYTOOL_1MMDEEP_LABELS_S
100
AcDbVertex
100
AcDb2dVertex
 10
58.13002232138901
 20
-0.1300781249979366
 30
0.0
  0
VERTEX
  5
158
330
68
100
AcDbEntity
  8
1_ANYTOOL_1MMDEEP_LABELS_S
100
AcDbVertex
100
AcDb2dVertex
 10
58.45906808031759
 20
-0.040220424105037
 30
0.0
  0
VERTEX
  5
159
330
68
100
AcDbEntity
  8
1_ANYTOOL_1MMDEEP_LABELS_S
100
AcDbVertex
100
AcDb2dVertex
 10
58.79464285710333
 20
0.0401785714307152
 30
0.0
  0
VERTEX
  5
15A
330
68
100
AcDbEntity
  8
1_ANYTOOL_1MMDEEP_LABELS_S
100
AcDbVertex
100
AcDb2dVertex
 10
59.13674665174619
 20
0.1111188616093202
 30
0.0
  0
VERTEX
  5
15B
330
68
100
AcDbEntity
  8
1_ANYTOOL_1MMDEEP_LABELS_S
100
AcDbVertex
100
AcDb2dVertex
 10
59.48537946424621
 20
0.1726004464307778
 30
0.0
  0
VERTEX
  5
15C
330
68
100
AcDbEntity
  8
1_ANYTOOL_1MMDEEP_LABELS_S
100
AcDbVertex
100
AcDb2dVertex
 10
59.84054129460336
 20
0.224623325895088
 30
0.0
  0
VERTEX
  5
15D
330
68
100
AcDbEntity
  8
1_ANYTOOL_1MMDEEP_LABELS_S
100
AcDbVertex
100
AcDb2dVertex
 10
60.20223214281765
 20
0.267187500002251
 30
0.0
  0
VERTEX
  5
15E
330
68
100
AcDbEntity
  8
1_ANYTOOL_1MMDEEP_LABELS_S
100
AcDbVertex
100
AcDb2dVertex
 10
60.57045200888908
 20
0.3002929687522666
 30
0.0
  0
VERTEX
  5
15F
330
68
100
AcDbEntity
  8
1_ANYTOOL_1MMDEEP_LABELS_S
100
AcDbVertex
100
AcDb2dVertex
 10
60.94520089281765
 20
0.3239397321451349
 30
0.0
  0
VERTEX
  5
160
330
68
100
AcDbEntity
  8
1_ANYTOOL_1MMDEEP_LABELS_S
100
AcDbVertex
100
AcDb2dVertex
 10
61.32647879460336
 20
0.3381277901808559
 30
0.0
  0
SEQEND
  5
161
330
68
100
AcDbEntity
  8
1_ANYTOOL_1MMDEEP_LABELS_S
  0
LINE
  5
162
330
1F
100
AcDbEntity
  8
1_ANYTOOL_1MMDEEP_LABELS_S
100
AcDbLine
 10
85.6714285713897
 20
-16.11428571428405
 30
0.0
 11
76.88571428567593
 21
-16.19999999999709
 31
0.0
  0
POLYLINE
  5
163
330
1F
100
AcDbEntity
  8
1_ANYTOOL_1MMDEEP_LABELS_S
100
AcDb2dPolyline
 66
     1
 10
0.0
 20
0.0
 30
0.0
  0
VERTEX
  5
164
330
163
100
AcDbEntity
  8
1_ANYTOOL_1MMDEEP_LABELS_S
100
AcDbVertex
100
AcDb2dVertex
 10
90.81428571424476
 20
0.0
 30
0.0
  0
VERTEX
  5
165
330
163
100
AcDbEntity
  8
1_ANYTOOL_1MMDEEP_LABELS_S
100
AcDbVertex
100
AcDb2dVertex
 10
90.81428571424476
 20
-30.0
 30
0.0
  0
VERTEX
  5
166
330
163
100
AcDbEntity
  8
1_ANYTOOL_1MMDEEP_LABELS_S
100
AcDbVertex
100
AcDb2dVertex
 10
107.9142857142469
 20
-30.0
 30
0.0
  0
SEQEND
  5
167
330
163
100
AcDbEntity
  8
1_ANYTOOL_1MMDEEP_LABELS_S
  0
LINE
  5
168
330
1F
100
AcDbEntity
  8
1_ANYTOOL_1MMDEEP_LABELS_S
100
AcDbLine
 10
120.557142857102
 20
-16.11428571428405
 30
0.0
 11
111.7714285713882
 21
-16.19999999999709
 31
0.0
  0
POLYLINE
  5
169
330
1F
100
AcDbEntity
  8
1_ANYTOOL_1MMDEEP_LABELS_S
100
AcDb2dPolyline
 66
     1
 10
0.0
 20
0.0
 30
0.0
  0
VERTEX
  5
16A
330
169
100
AcDbEntity
  8
1_ANYTOOL_1MMDEEP_LABELS_S
100
AcDbVertex
100
AcDb2dVertex
 10
140.8285714285303
 20
-30.0
 30
0.0
  0
VERTEX
  5
16B
330
169
100
AcDbEntity
  8
1_ANYTOOL_1MMDEEP_LABELS_S
100
AcDbVertex
100
AcDb2dVertex
 10
140.8714285713868
 20
0.0428571428565192
 30
0.0
  0
VERTEX
  5
16C
330
169
100
AcDbEntity
  8
1_ANYTOOL_1MMDEEP_LABELS_S
100
AcDbVertex
100
AcDb2dVertex
 10
124.8428571428158
 20
-21.34285714285943
 30
0.0
  0
SEQEND
  5
16D
330
169
100
AcDbEntity
  8
1_ANYTOOL_1MMDEEP_LABELS_S
  0
LINE
  5
16E
330
1F
100
AcDbEntity
  8
1_ANYTOOL_1MMDEEP_LABELS_S
100
AcDbLine
 10
124.8428571428158
 20
-21.34285714285943
 30
0.0
 11
146.614285714244
 21
-21.34285714285943
 31
0.0
  0
LINE
  5
16F
330
1F
100
AcDbEntity
  8
1_ANYTOOL_1MMDEEP_LABELS_S
100
AcDbLine
 10
169.028571428531
 20
-0.4714285714289872
 30
0.0
 11
151.8428571428158
 21
-31.24285714285361
 31
0.0
  0
POLYLINE
  5
170
330
1F
100
AcDbEntity
  8
1_ANYTOOL_1MMDEEP_LABELS_S
100
AcDb2dPolyline
 66
     1
 10
0.0
 20
0.0
 30
0.0
  0
VERTEX
  5
171
330
170
100
AcDbEntity
  8
1_ANYTOOL_1MMDEEP_LABELS_S
100
AcDbVertex
100
AcDb2dVertex
 10
172.4571428571035
 20
0.0
 30
0.0
  0
VERTEX
  5
172
330
170
100
AcDbEntity
  8
1_ANYTOOL_1MMDEEP_LABELS_S
100
AcDbVertex
100
AcDb2dVertex
 10
172.4571428571035
 20
-30.0
 30
0.0
  0
VERTEX
  5
173
330
170
100
AcDbEntity
  8
1_ANYTOOL_1MMDEEP_LABELS_S
100
AcDbVertex
100
AcDb2dVertex
 10
182.1428571428187
 20
-30.0
 30
0.0
  0
VERTEX
  5
174
330
170
100
AcDbEntity
  8
1_ANYTOOL_1MMDEEP_LABELS_S
100
AcDbVertex
100
AcDb2dVertex
 10
184.6714285713897
 20
-30.08571428571304
 30
0.0
  0
VERTEX
  5
175
330
170
100
AcDbEntity
  8
1_ANYTOOL_1MMDEEP_LABELS_S
100
AcDbVertex
100
AcDb2dVertex
 10
184.900195312461
 20
-30.09098772321293
 30
0.0
  0
VERTEX
  5
176
330
170
100
AcDbEntity
  8
1_ANYTOOL_1MMDEEP_LABELS_S
100
AcDbVertex
100
AcDb2dVertex
 10
185.1257812499608
 20
-30.09073660714139
 30
0.0
  0
VERTEX
  5
177
330
170
100
AcDbEntity
  8
1_ANYTOOL_1MMDEEP_LABELS_S
100
AcDbVertex
100
AcDb2dVertex
 10
185.3481863838892
 20
-30.08496093749844
 30
0.0
  0
VERTEX
  5
178
330
170
100
AcDbEntity
  8
1_ANYTOOL_1MMDEEP_LABELS_S
100
AcDbVertex
100
AcDb2dVertex
 10
185.5674107142463
 20
-30.07366071428407
 30
0.0
  0
VERTEX
  5
179
330
170
100
AcDbEntity
  8
1_ANYTOOL_1MMDEEP_LABELS_S
100
AcDbVertex
100
AcDb2dVertex
 10
185.7834542410318
 20
-30.05683593749828
 30
0.0
  0
VERTEX
  5
17A
330
170
100
AcDbEntity
  8
1_ANYTOOL_1MMDEEP_LABELS_S
100
AcDbVertex
100
AcDb2dVertex
 10
185.996316964246
 20
-30.03448660714108
 30
0.0
  0
VERTEX
  5
17B
330
170
100
AcDbEntity
  8
1_ANYTOOL_1MMDEEP_LABELS_S
100
AcDbVertex
100
AcDb2dVertex
 10
186.2059988838888
 20
-30.00661272321245
 30
0.0
  0
VERTEX
  5
17C
330
170
100
AcDbEntity
  8
1_ANYTOOL_1MMDEEP_LABELS_S
100
AcDbVertex
100
AcDb2dVertex
 10
186.4124999999601
 20
-29.9732142857124
 30
0.0
  0
VERTEX
  5
17D
330
170
100
AcDbEntity
  8
1_ANYTOOL_1MMDEEP_LABELS_S
100
AcDbVertex
100
AcDb2dVertex
 10
186.61582031246
 20
-29.93429129464094
 30
0.0
  0
VERTEX
  5
17E
330
170
100
AcDbEntity
  8
1_ANYTOOL_1MMDEEP_LABELS_S
100
AcDbVertex
100
AcDb2dVertex
 10
186.8159598213886
 20
-29.88984374999805
 30
0.0
  0
VERTEX
  5
17F
330
170
100
AcDbEntity
  8
1_ANYTOOL_1MMDEEP_LABELS_S
100
AcDbVertex
100
AcDb2dVertex
 10
187.0129185267456
 20
-29.83987165178375
 30
0.0
  0
VERTEX
  5
180
330
170
100
AcDbEntity
  8
1_ANYTOOL_1MMDEEP_LABELS_S
100
AcDbVertex
100
AcDb2dVertex
 10
187.2066964285313
 20
-29.78437499999802
 30
0.0
  0
VERTEX
  5
181
330
170
100
AcDbEntity
  8
1_ANYTOOL_1MMDEEP_LABELS_S
100
AcDbVertex
100
AcDb2dVertex
 10
187.3972935267456
 20
-29.72335379464088
 30
0.0
  0
VERTEX
  5
182
330
170
100
AcDbEntity
  8
1_ANYTOOL_1MMDEEP_LABELS_S
100
AcDbVertex
100
AcDb2dVertex
 10
187.5847098213884
 20
-29.65680803571232
 30
0.0
  0
VERTEX
  5
183
330
170
100
AcDbEntity
  8
1_ANYTOOL_1MMDEEP_LABELS_S
100
AcDbVertex
100
AcDb2dVertex
 10
187.7689453124598
 20
-29.58473772321233
 30
0.0
  0
VERTEX
  5
184
330
170
100
AcDbEntity
  8
1_ANYTOOL_1MMDEEP_LABELS_S
100
AcDbVertex
100
AcDb2dVertex
 10
187.9499999999598
 20
-29.50714285714093
 30
0.0
  0
VERTEX
  5
185
330
170
100
AcDbEntity
  8
1_ANYTOOL_1MMDEEP_LABELS_S
100
AcDbVertex
100
AcDb2dVertex
 10
188.1278738838884
 20
-29.42402343749811
 30
0.0
  0
VERTEX
  5
186
330
170
100
AcDbEntity
  8
1_ANYTOOL_1MMDEEP_LABELS_S
100
AcDbVertex
100
AcDb2dVertex
 10
188.3025669642456
 20
-29.33537946428387
 30
0.0
  0
VERTEX
  5
187
330
170
100
AcDbEntity
  8
1_ANYTOOL_1MMDEEP_LABELS_S
100
AcDbVertex
100
AcDb2dVertex
 10
188.4740792410313
 20
-29.24121093749822
 30
0.0
  0
VERTEX
  5
188
330
170
100
AcDbEntity
  8
1_ANYTOOL_1MMDEEP_LABELS_S
100
AcDbVertex
100
AcDb2dVertex
 10
188.6424107142456
 20
-29.14151785714114
 30
0.0
  0
VERTEX
  5
189
330
170
100
AcDbEntity
  8
1_ANYTOOL_1MMDEEP_LABELS_S
100
AcDbVertex
100
AcDb2dVertex
 10
188.8075613838885
 20
-29.03630022321264
 30
0.0
  0
VERTEX
  5
18A
330
170
100
AcDbEntity
  8
1_ANYTOOL_1MMDEEP_LABELS_S
100
AcDbVertex
100
AcDb2dVertex
 10
188.96953124996
 20
-28.92555803571273
 30
0.0
  0
VERTEX
  5
18B
330
170
100
AcDbEntity
  8
1_ANYTOOL_1MMDEEP_LABELS_S
100
AcDbVertex
100
AcDb2dVertex
 10
189.1283203124601
 20
-28.80929129464139
 30
0.0
  0
VERTEX
  5
18C
330
170
100
AcDbEntity
  8
1_ANYTOOL_1MMDEEP_LABELS_S
100
AcDbVertex
100
AcDb2dVertex
 10
189.2839285713887
 20
-28.68749999999864
 30
0.0
  0
VERTEX
  5
18D
330
170
100
AcDbEntity
  8
1_ANYTOOL_1MMDEEP_LABELS_S
100
AcDbVertex
100
AcDb2dVertex
 10
189.436356026746
 20
-28.56018415178446
 30
0.0
  0
VERTEX
  5
18E
330
170
100
AcDbEntity
  8
1_ANYTOOL_1MMDEEP_LABELS_S
100
AcDbVertex
100
AcDb2dVertex
 10
189.5856026785318
 20
-28.42734374999887
 30
0.0
  0
VERTEX
  5
18F
330
170
100
AcDbEntity
  8
1_ANYTOOL_1MMDEEP_LABELS_S
100
AcDbVertex
100
AcDb2dVertex
 10
189.7316685267462
 20
-28.28897879464186
 30
0.0
  0
VERTEX
  5
190
330
170
100
AcDbEntity
  8
1_ANYTOOL_1MMDEEP_LABELS_S
100
AcDbVertex
100
AcDb2dVertex
 10
189.8745535713892
 20
-28.14508928571342
 30
0.0
  0
VERTEX
  5
191
330
170
100
AcDbEntity
  8
1_ANYTOOL_1MMDEEP_LABELS_S
100
AcDbVertex
100
AcDb2dVertex
 10
190.0142578124608
 20
-27.99567522321357
 30
0.0
  0
VERTEX
  5
192
330
170
100
AcDbEntity
  8
1_ANYTOOL_1MMDEEP_LABELS_S
100
AcDbVertex
100
AcDb2dVertex
 10
190.1507812499609
 20
-27.8407366071423
 30
0.0
  0
VERTEX
  5
193
330
170
100
AcDbEntity
  8
1_ANYTOOL_1MMDEEP_LABELS_S
100
AcDbVertex
100
AcDb2dVertex
 10
190.2841238838896
 20
-27.68027343749961
 30
0.0
  0
VERTEX
  5
194
330
170
100
AcDbEntity
  8
1_ANYTOOL_1MMDEEP_LABELS_S
100
AcDbVertex
100
AcDb2dVertex
 10
190.4142857142469
 20
-27.51428571428551
 30
0.0
  0
VERTEX
  5
195
330
170
100
AcDbEntity
  8
1_ANYTOOL_1MMDEEP_LABELS_S
100
AcDbVertex
100
AcDb2dVertex
 10
190.6685825892468
 20
-27.16925223214307
 30
0.0
  0
VERTEX
  5
196
330
170
100
AcDbEntity
  8
1_ANYTOOL_1MMDEEP_LABELS_S
100
AcDbVertex
100
AcDb2dVertex
 10
190.7895786829967
 20
-26.99510323660754
 30
0.0
  0
VERTEX
  5
197
330
170
100
AcDbEntity
  8
1_ANYTOOL_1MMDEEP_LABELS_S
100
AcDbVertex
100
AcDb2dVertex
 10
190.9064732142466
 20
-26.81986607142915
 30
0.0
  0
VERTEX
  5
198
330
170
100
AcDbEntity
  8
1_ANYTOOL_1MMDEEP_LABELS_S
100
AcDbVertex
100
AcDb2dVertex
 10
191.0192661829965
 20
-26.64354073660788
 30
0.0
  0
VERTEX
  5
199
330
170
100
AcDbEntity
  8
1_ANYTOOL_1MMDEEP_LABELS_S
100
AcDbVertex
100
AcDb2dVertex
 10
191.1279575892464
 20
-26.46612723214375
 30
0.0
  0
VERTEX
  5
19A
330
170
100
AcDbEntity
  8
1_ANYTOOL_1MMDEEP_LABELS_S
100
AcDbVertex
100
AcDb2dVertex
 10
191.2325474329964
 20
-26.28762555803674
 30
0.0
  0
VERTEX
  5
19B
330
170
100
AcDbEntity
  8
1_ANYTOOL_1MMDEEP_LABELS_S
100
AcDbVertex
100
AcDb2dVertex
 10
191.3330357142463
 20
-26.10803571428687
 30
0.0
  0
VERTEX
  5
19C
330
170
100
AcDbEntity
  8
1_ANYTOOL_1MMDEEP_LABELS_S
100
AcDbVertex
100
AcDb2dVertex
 10
191.4294224329962
 20
-25.92735770089413
 30
0.0
  0
VERTEX
  5
19D
330
170
100
AcDbEntity
  8
1_ANYTOOL_1MMDEEP_LABELS_S
100
AcDbVertex
100
AcDb2dVertex
 10
191.5217075892462
 20
-25.74559151785851
 30
0.0
  0
VERTEX
  5
19E
330
170
100
AcDbEntity
  8
1_ANYTOOL_1MMDEEP_LABELS_S
100
AcDbVertex
100
AcDb2dVertex
 10
191.6098911829961
 20
-25.56273716518003
 30
0.0
  0
VERTEX
  5
19F
330
170
100
AcDbEntity
  8
1_ANYTOOL_1MMDEEP_LABELS_S
100
AcDbVertex
100
AcDb2dVertex
 10
191.6939732142461
 20
-25.37879464285868
 30
0.0
  0
VERTEX
  5
1A0
330
170
100
AcDbEntity
  8
1_ANYTOOL_1MMDEEP_LABELS_S
100
AcDbVertex
100
AcDb2dVertex
 10
191.773953682996
 20
-25.19376395089446
 30
0.0
  0
VERTEX
  5
1A1
330
170
100
AcDbEntity
  8
1_ANYTOOL_1MMDEEP_LABELS_S
100
AcDbVertex
100
AcDb2dVertex
 10
191.8498325892459
 20
-25.00764508928737
 30
0.0
  0
VERTEX
  5
1A2
330
170
100
AcDbEntity
  8
1_ANYTOOL_1MMDEEP_LABELS_S
100
AcDbVertex
100
AcDb2dVertex
 10
191.9216099329959
 20
-24.8204380580374
 30
0.0
  0
VERTEX
  5
1A3
330
170
100
AcDbEntity
  8
1_ANYTOOL_1MMDEEP_LABELS_S
100
AcDbVertex
100
AcDb2dVertex
 10
191.9892857142459
 20
-24.63214285714457
 30
0.0
  0
VERTEX
  5
1A4
330
170
100
AcDbEntity
  8
1_ANYTOOL_1MMDEEP_LABELS_S
100
AcDbVertex
100
AcDb2dVertex
 10
192.0528599329958
 20
-24.44275948660887
 30
0.0
  0
VERTEX
  5
1A5
330
170
100
AcDbEntity
  8
1_ANYTOOL_1MMDEEP_LABELS_S
100
AcDbVertex
100
AcDb2dVertex
 10
192.1123325892458
 20
-24.2522879464303
 30
0.0
  0
VERTEX
  5
1A6
330
170
100
AcDbEntity
  8
1_ANYTOOL_1MMDEEP_LABELS_S
100
AcDbVertex
100
AcDb2dVertex
 10
192.1677036829958
 20
-24.06072823660886
 30
0.0
  0
VERTEX
  5
1A7
330
170
100
AcDbEntity
  8
1_ANYTOOL_1MMDEEP_LABELS_S
100
AcDbVertex
100
AcDb2dVertex
 10
192.2189732142457
 20
-23.86808035714455
 30
0.0
  0
VERTEX
  5
1A8
330
170
100
AcDbEntity
  8
1_ANYTOOL_1MMDEEP_LABELS_S
100
AcDbVertex
100
AcDb2dVertex
 10
192.2661411829957
 20
-23.67434430803737
 30
0.0
  0
VERTEX
  5
1A9
330
170
100
AcDbEntity
  8
1_ANYTOOL_1MMDEEP_LABELS_S
100
AcDbVertex
100
AcDb2dVertex
 10
192.3092075892456
 20
-23.47952008928732
 30
0.0
  0
VERTEX
  5
1AA
330
170
100
AcDbEntity
  8
1_ANYTOOL_1MMDEEP_LABELS_S
100
AcDbVertex
100
AcDb2dVertex
 10
192.3481724329956
 20
-23.2836077008944
 30
0.0
  0
VERTEX
  5
1AB
330
170
100
AcDbEntity
  8
1_ANYTOOL_1MMDEEP_LABELS_S
100
AcDbVertex
100
AcDb2dVertex
 10
192.3830357142456
 20
-23.08660714285861
 30
0.0
  0
VERTEX
  5
1AC
330
170
100
AcDbEntity
  8
1_ANYTOOL_1MMDEEP_LABELS_S
100
AcDbVertex
100
AcDb2dVertex
 10
192.4137974329956
 20
-22.88851841517995
 30
0.0
  0
VERTEX
  5
1AD
330
170
100
AcDbEntity
  8
1_ANYTOOL_1MMDEEP_LABELS_S
100
AcDbVertex
100
AcDb2dVertex
 10
192.4404575892455
 20
-22.68934151785842
 30
0.0
  0
VERTEX
  5
1AE
330
170
100
AcDbEntity
  8
1_ANYTOOL_1MMDEEP_LABELS_S
100
AcDbVertex
100
AcDb2dVertex
 10
192.4630161829955
 20
-22.48907645089403
 30
0.0
  0
VERTEX
  5
1AF
330
170
100
AcDbEntity
  8
1_ANYTOOL_1MMDEEP_LABELS_S
100
AcDbVertex
100
AcDb2dVertex
 10
192.4814732142455
 20
-22.28772321428676
 30
0.0
  0
VERTEX
  5
1B0
330
170
100
AcDbEntity
  8
1_ANYTOOL_1MMDEEP_LABELS_S
100
AcDbVertex
100
AcDb2dVertex
 10
192.4958286829955
 20
-22.08528180803662
 30
0.0
  0
VERTEX
  5
1B1
330
170
100
AcDbEntity
  8
1_ANYTOOL_1MMDEEP_LABELS_S
100
AcDbVertex
100
AcDb2dVertex
 10
192.5060825892455
 20
-21.88175223214361
 30
0.0
  0
VERTEX
  5
1B2
330
170
100
AcDbEntity
  8
1_ANYTOOL_1MMDEEP_LABELS_S
100
AcDbVertex
100
AcDb2dVertex
 10
192.5122349329955
 20
-21.67713448660773
 30
0.0
  0
VERTEX
  5
1B3
330
170
100
AcDbEntity
  8
1_ANYTOOL_1MMDEEP_LABELS_S
100
AcDbVertex
100
AcDb2dVertex
 10
192.5142857142455
 20
-21.47142857142899
 30
0.0
  0
VERTEX
  5
1B4
330
170
100
AcDbEntity
  8
1_ANYTOOL_1MMDEEP_LABELS_S
100
AcDbVertex
100
AcDb2dVertex
 10
192.5114397321026
 20
-21.21922433035762
 30
0.0
  0
VERTEX
  5
1B5
330
170
100
AcDbEntity
  8
1_ANYTOOL_1MMDEEP_LABELS_S
100
AcDbVertex
100
AcDb2dVertex
 10
192.5029017856741
 20
-20.97154017857196
 30
0.0
  0
VERTEX
  5
1B6
330
170
100
AcDbEntity
  8
1_ANYTOOL_1MMDEEP_LABELS_S
100
AcDbVertex
100
AcDb2dVertex
 10
192.4886718749598
 20
-20.728376116072
 30
0.0
  0
VERTEX
  5
1B7
330
170
100
AcDbEntity
  8
1_ANYTOOL_1MMDEEP_LABELS_S
100
AcDbVertex
100
AcDb2dVertex
 10
192.4687499999598
 20
-20.48973214285775
 30
0.0
  0
VERTEX
  5
1B8
330
170
100
AcDbEntity
  8
1_ANYTOOL_1MMDEEP_LABELS_S
100
AcDbVertex
100
AcDb2dVertex
 10
192.443136160674
 20
-20.2556082589292
 30
0.0
  0
VERTEX
  5
1B9
330
170
100
AcDbEntity
  8
1_ANYTOOL_1MMDEEP_LABELS_S
100
AcDbVertex
100
AcDb2dVertex
 10
192.4118303571026
 20
-20.02600446428636
 30
0.0
  0
VERTEX
  5
1BA
330
170
100
AcDbEntity
  8
1_ANYTOOL_1MMDEEP_LABELS_S
100
AcDbVertex
100
AcDb2dVertex
 10
192.3748325892454
 20
-19.80092075892922
 30
0.0
  0
VERTEX
  5
1BB
330
170
100
AcDbEntity
  8
1_ANYTOOL_1MMDEEP_LABELS_S
100
AcDbVertex
100
AcDb2dVertex
 10
192.3321428571026
 20
-19.58035714285779
 30
0.0
  0
VERTEX
  5
1BC
330
170
100
AcDbEntity
  8
1_ANYTOOL_1MMDEEP_LABELS_S
100
AcDbVertex
100
AcDb2dVertex
 10
192.283761160674
 20
-19.36431361607207
 30
0.0
  0
VERTEX
  5
1BD
330
170
100
AcDbEntity
  8
1_ANYTOOL_1MMDEEP_LABELS_S
100
AcDbVertex
100
AcDb2dVertex
 10
192.2296874999597
 20
-19.15279017857205
 30
0.0
  0
VERTEX
  5
1BE
330
170
100
AcDbEntity
  8
1_ANYTOOL_1MMDEEP_LABELS_S
100
AcDbVertex
100
AcDb2dVertex
 10
192.1699218749596
 20
-18.94578683035773
 30
0.0
  0
VERTEX
  5
1BF
330
170
100
AcDbEntity
  8
1_ANYTOOL_1MMDEEP_LABELS_S
100
AcDbVertex
100
AcDb2dVertex
 10
192.1044642856739
 20
-18.74330357142912
 30
0.0
  0
VERTEX
  5
1C0
330
170
100
AcDbEntity
  8
1_ANYTOOL_1MMDEEP_LABELS_S
100
AcDbVertex
100
AcDb2dVertex
 10
192.0333147321024
 20
-18.54534040178622
 30
0.0
  0
VERTEX
  5
1C1
330
170
100
AcDbEntity
  8
1_ANYTOOL_1MMDEEP_LABELS_S
100
AcDbVertex
100
AcDb2dVertex
 10
191.9564732142452
 20
-18.35189732142902
 30
0.0
  0
VERTEX
  5
1C2
330
170
100
AcDbEntity
  8
1_ANYTOOL_1MMDEEP_LABELS_S
100
AcDbVertex
100
AcDb2dVertex
 10
191.8739397321024
 20
-18.16297433035753
 30
0.0
  0
VERTEX
  5
1C3
330
170
100
AcDbEntity
  8
1_ANYTOOL_1MMDEEP_LABELS_S
100
AcDbVertex
100
AcDb2dVertex
 10
191.7857142856737
 20
-17.97857142857174
 30
0.0
  0
VERTEX
  5
1C4
330
170
100
AcDbEntity
  8
1_ANYTOOL_1MMDEEP_LABELS_S
100
AcDbVertex
100
AcDb2dVertex
 10
191.7394670758523
 20
-17.88806501116099
 30
0.0
  0
VERTEX
  5
1C5
330
170
100
AcDbEntity
  8
1_ANYTOOL_1MMDEEP_LABELS_S
100
AcDbVertex
100
AcDb2dVertex
 10
191.6917968749594
 20
-17.79868861607166
 30
0.0
  0
VERTEX
  5
1C6
330
170
100
AcDbEntity
  8
1_ANYTOOL_1MMDEEP_LABELS_S
100
AcDbVertex
100
AcDb2dVertex
 10
191.6427036829951
 20
-17.71044224330376
 30
0.0
  0
VERTEX
  5
1C7
330
170
100
AcDbEntity
  8
1_ANYTOOL_1MMDEEP_LABELS_S
100
AcDbVertex
100
AcDb2dVertex
 10
191.5921874999594
 20
-17.62332589285728
 30
0.0
  0
VERTEX
  5
1C8
330
170
100
AcDbEntity
  8
1_ANYTOOL_1MMDEEP_LABELS_S
100
AcDbVertex
100
AcDb2dVertex
 10
191.5402483258522
 20
-17.53733956473223
 30
0.0
  0
VERTEX
  5
1C9
330
170
100
AcDbEntity
  8
1_ANYTOOL_1MMDEEP_LABELS_S
100
AcDbVertex
100
AcDb2dVertex
 10
191.4868861606736
 20
-17.45248325892861
 30
0.0
  0
VERTEX
  5
1CA
330
170
100
AcDbEntity
  8
1_ANYTOOL_1MMDEEP_LABELS_S
100
AcDbVertex
100
AcDb2dVertex
 10
191.4321010044236
 20
-17.36875697544641
 30
0.0
  0
VERTEX
  5
1CB
330
170
100
AcDbEntity
  8
1_ANYTOOL_1MMDEEP_LABELS_S
100
AcDbVertex
100
AcDb2dVertex
 10
191.3758928571021
 20
-17.28616071428564
 30
0.0
  0
VERTEX
  5
1CC
330
170
100
AcDbEntity
  8
1_ANYTOOL_1MMDEEP_LABELS_S
100
AcDbVertex
100
AcDb2dVertex
 10
191.3182617187093
 20
-17.2046944754463
 30
0.0
  0
VERTEX
  5
1CD
330
170
100
AcDbEntity
  8
1_ANYTOOL_1MMDEEP_LABELS_S
100
AcDbVertex
100
AcDb2dVertex
 10
191.259207589245
 20
-17.12435825892838
 30
0.0
  0
VERTEX
  5
1CE
330
170
100
AcDbEntity
  8
1_ANYTOOL_1MMDEEP_LABELS_S
100
AcDbVertex
100
AcDb2dVertex
 10
191.1987304687092
 20
-17.04515206473189
 30
0.0
  0
VERTEX
  5
1CF
330
170
100
AcDbEntity
  8
1_ANYTOOL_1MMDEEP_LABELS_S
100
AcDbVertex
100
AcDb2dVertex
 10
191.136830357102
 20
-16.96707589285683
 30
0.0
  0
VERTEX
  5
1D0
330
170
100
AcDbEntity
  8
1_ANYTOOL_1MMDEEP_LABELS_S
100
AcDbVertex
100
AcDb2dVertex
 10
191.0735072544234
 20
-16.89012974330319
 30
0.0
  0
VERTEX
  5
1D1
330
170
100
AcDbEntity
  8
1_ANYTOOL_1MMDEEP_LABELS_S
100
AcDbVertex
100
AcDb2dVertex
 10
191.0087611606734
 20
-16.81431361607098
 30
0.0
  0
VERTEX
  5
1D2
330
170
100
AcDbEntity
  8
1_ANYTOOL_1MMDEEP_LABELS_S
100
AcDbVertex
100
AcDb2dVertex
 10
190.942592075852
 20
-16.73962751116019
 30
0.0
  0
VERTEX
  5
1D3
330
170
100
AcDbEntity
  8
1_ANYTOOL_1MMDEEP_LABELS_S
100
AcDbVertex
100
AcDb2dVertex
 10
190.8749999999591
 20
-16.66607142857083
 30
0.0
  0
VERTEX
  5
1D4
330
170
100
AcDbEntity
  8
1_ANYTOOL_1MMDEEP_LABELS_S
100
AcDbVertex
100
AcDb2dVertex
 10
190.8059849329948
 20
-16.5936453683029
 30
0.0
  0
VERTEX
  5
1D5
330
170
100
AcDbEntity
  8
1_ANYTOOL_1MMDEEP_LABELS_S
100
AcDbVertex
100
AcDb2dVertex
 10
190.735546874959
 20
-16.52234933035639
 30
0.0
  0
VERTEX
  5
1D6
330
170
100
AcDbEntity
  8
1_ANYTOOL_1MMDEEP_LABELS_S
100
AcDbVertex
100
AcDb2dVertex
 10
190.6636858258518
 20
-16.45218331473131
 30
0.0
  0
VERTEX
  5
1D7
330
170
100
AcDbEntity
  8
1_ANYTOOL_1MMDEEP_LABELS_S
100
AcDbVertex
100
AcDb2dVertex
 10
190.5904017856732
 20
-16.38314732142766
 30
0.0
  0
VERTEX
  5
1D8
330
170
100
AcDbEntity
  8
1_ANYTOOL_1MMDEEP_LABELS_S
100
AcDbVertex
100
AcDb2dVertex
 10
190.5156947544232
 20
-16.31524135044543
 30
0.0
  0
VERTEX
  5
1D9
330
170
100
AcDbEntity
  8
1_ANYTOOL_1MMDEEP_LABELS_S
100
AcDbVertex
100
AcDb2dVertex
 10
190.4395647321018
 20
-16.24846540178463
 30
0.0
  0
VERTEX
  5
1DA
330
170
100
AcDbEntity
  8
1_ANYTOOL_1MMDEEP_LABELS_S
100
AcDbVertex
100
AcDb2dVertex
 10
190.3620117187089
 20
-16.18281947544525
 30
0.0
  0
VERTEX
  5
1DB
330
170
100
AcDbEntity
  8
1_ANYTOOL_1MMDEEP_LABELS_S
100
AcDbVertex
100
AcDb2dVertex
 10
190.2830357142445
 20
-16.1183035714273
 30
0.0
  0
VERTEX
  5
1DC
330
170
100
AcDbEntity
  8
1_ANYTOOL_1MMDEEP_LABELS_S
100
AcDbVertex
100
AcDb2dVertex
 10
190.1208147321016
 20
-15.99266183035569
 30
0.0
  0
VERTEX
  5
1DD
330
170
100
AcDbEntity
  8
1_ANYTOOL_1MMDEEP_LABELS_S
100
AcDbVertex
100
AcDb2dVertex
 10
189.952901785673
 20
-15.87154017856977
 30
0.0
  0
VERTEX
  5
1DE
330
170
100
AcDbEntity
  8
1_ANYTOOL_1MMDEEP_LABELS_S
100
AcDbVertex
100
AcDb2dVertex
 10
189.7792968749586
 20
-15.75493861606957
 30
0.0
  0
VERTEX
  5
1DF
330
170
100
AcDbEntity
  8
1_ANYTOOL_1MMDEEP_LABELS_S
100
AcDbVertex
100
AcDb2dVertex
 10
189.5999999999585
 20
-15.64285714285506
 30
0.0
  0
VERTEX
  5
1E0
330
170
100
AcDbEntity
  8
1_ANYTOOL_1MMDEEP_LABELS_S
100
AcDbVertex
100
AcDb2dVertex
 10
189.232700892816
 20
-15.42371651785558
 30
0.0
  0
VERTEX
  5
1E1
330
170
100
AcDbEntity
  8
1_ANYTOOL_1MMDEEP_LABELS_S
100
AcDbVertex
100
AcDb2dVertex
 10
188.8593749999591
 20
-15.21629464285604
 30
0.0
  0
VERTEX
  5
1E2
330
170
100
AcDbEntity
  8
1_ANYTOOL_1MMDEEP_LABELS_S
100
AcDbVertex
100
AcDb2dVertex
 10
188.4800223213879
 20
-15.02059151785645
 30
0.0
  0
VERTEX
  5
1E3
330
170
100
AcDbEntity
  8
1_ANYTOOL_1MMDEEP_LABELS_S
100
AcDbVertex
100
AcDb2dVertex
 10
188.0946428571024
 20
-14.83660714285679
 30
0.0
  0
VERTEX
  5
1E4
330
170
100
AcDbEntity
  8
1_ANYTOOL_1MMDEEP_LABELS_S
100
AcDbVertex
100
AcDb2dVertex
 10
187.7032366071026
 20
-14.66434151785708
 30
0.0
  0
VERTEX
  5
1E5
330
170
100
AcDbEntity
  8
1_ANYTOOL_1MMDEEP_LABELS_S
100
AcDbVertex
100
AcDb2dVertex
 10
187.3058035713884
 20
-14.50379464285732
 30
0.0
  0
VERTEX
  5
1E6
330
170
100
AcDbEntity
  8
1_ANYTOOL_1MMDEEP_LABELS_S
100
AcDbVertex
100
AcDb2dVertex
 10
186.90234374996
 20
-14.35496651785749
 30
0.0
  0
VERTEX
  5
1E7
330
170
100
AcDbEntity
  8
1_ANYTOOL_1MMDEEP_LABELS_S
100
AcDbVertex
100
AcDb2dVertex
 10
186.4928571428172
 20
-14.21785714285761
 30
0.0
  0
VERTEX
  5
1E8
330
170
100
AcDbEntity
  8
1_ANYTOOL_1MMDEEP_LABELS_S
100
AcDbVertex
100
AcDb2dVertex
 10
186.0773437499602
 20
-14.09246651785767
 30
0.0
  0
VERTEX
  5
1E9
330
170
100
AcDbEntity
  8
1_ANYTOOL_1MMDEEP_LABELS_S
100
AcDbVertex
100
AcDb2dVertex
 10
185.6558035713888
 20
-13.97879464285768
 30
0.0
  0
VERTEX
  5
1EA
330
170
100
AcDbEntity
  8
1_ANYTOOL_1MMDEEP_LABELS_S
100
AcDbVertex
100
AcDb2dVertex
 10
185.2282366071031
 20
-13.87684151785763
 30
0.0
  0
VERTEX
  5
1EB
330
170
100
AcDbEntity
  8
1_ANYTOOL_1MMDEEP_LABELS_S
100
AcDbVertex
100
AcDb2dVertex
 10
184.7946428571031
 20
-13.78660714285752
 30
0.0
  0
VERTEX
  5
1EC
330
170
100
AcDbEntity
  8
1_ANYTOOL_1MMDEEP_LABELS_S
100
AcDbVertex
100
AcDb2dVertex
 10
184.3550223213888
 20
-13.70809151785735
 30
0.0
  0
VERTEX
  5
1ED
330
170
100
AcDbEntity
  8
1_ANYTOOL_1MMDEEP_LABELS_S
100
AcDbVertex
100
AcDb2dVertex
 10
183.9093749999602
 20
-13.64129464285713
 30
0.0
  0
VERTEX
  5
1EE
330
170
100
AcDbEntity
  8
1_ANYTOOL_1MMDEEP_LABELS_S
100
AcDbVertex
100
AcDb2dVertex
 10
183.4577008928172
 20
-13.58621651785685
 30
0.0
  0
VERTEX
  5
1EF
330
170
100
AcDbEntity
  8
1_ANYTOOL_1MMDEEP_LABELS_S
100
AcDbVertex
100
AcDb2dVertex
 10
182.99999999996
 20
-13.54285714285652
 30
0.0
  0
SEQEND
  5
1F0
330
170
100
AcDbEntity
  8
1_ANYTOOL_1MMDEEP_LABELS_S
  0
POLYLINE
  5
1F1
330
1F
100
AcDbEntity
  8
1_ANYTOOL_1MMDEEP_LABELS_S
100
AcDb2dPolyline
 66
     1
 10
0.0
 20
0.0
 30
0.0
  0
VERTEX
  5
1F2
330
1F1
100
AcDbEntity
  8
1_ANYTOOL_1MMDEEP_LABELS_S
100
AcDbVertex
100
AcDb2dVertex
 10
172.4571428571035
 20
-13.67142857142608
 30
0.0
  0
VERTEX
  5
1F3
330
1F1
100
AcDbEntity
  8
1_ANYTOOL_1MMDEEP_LABELS_S
100
AcDbVertex
100
AcDb2dVertex
 10
182.99999999996
 20
-13.54285714285652
 30
0.0
  0
VERTEX
  5
1F4
330
1F1
100
AcDbEntity
  8
1_ANYTOOL_1MMDEEP_LABELS_S
100
AcDbVertex
100
AcDb2dVertex
 10
183.3989397321029
 20
-13.51171874999974
 30
0.0
  0
VERTEX
  5
1F5
330
1F1
100
AcDbEntity
  8
1_ANYTOOL_1MMDEEP_LABELS_S
100
AcDbVertex
100
AcDb2dVertex
 10
183.7921874999601
 20
-13.47187500000007
 30
0.0
  0
VERTEX
  5
1F6
330
1F1
100
AcDbEntity
  8
1_ANYTOOL_1MMDEEP_LABELS_S
100
AcDbVertex
100
AcDb2dVertex
 10
184.1797433035316
 20
-13.42332589285749
 30
0.0
  0
VERTEX
  5
1F7
330
1F1
100
AcDbEntity
  8
1_ANYTOOL_1MMDEEP_LABELS_S
100
AcDbVertex
100
AcDb2dVertex
 10
184.5616071428174
 20
-13.36607142857201
 30
0.0
  0
VERTEX
  5
1F8
330
1F1
100
AcDbEntity
  8
1_ANYTOOL_1MMDEEP_LABELS_S
100
AcDbVertex
100
AcDb2dVertex
 10
184.9377790178174
 20
-13.30011160714363
 30
0.0
  0
VERTEX
  5
1F9
330
1F1
100
AcDbEntity
  8
1_ANYTOOL_1MMDEEP_LABELS_S
100
AcDbVertex
100
AcDb2dVertex
 10
185.3082589285318
 20
-13.22544642857235
 30
0.0
  0
VERTEX
  5
1FA
330
1F1
100
AcDbEntity
  8
1_ANYTOOL_1MMDEEP_LABELS_S
100
AcDbVertex
100
AcDb2dVertex
 10
185.6730468749604
 20
-13.14207589285817
 30
0.0
  0
VERTEX
  5
1FB
330
1F1
100
AcDbEntity
  8
1_ANYTOOL_1MMDEEP_LABELS_S
100
AcDbVertex
100
AcDb2dVertex
 10
186.0321428571033
 20
-13.05000000000109
 30
0.0
  0
VERTEX
  5
1FC
330
1F1
100
AcDbEntity
  8
1_ANYTOOL_1MMDEEP_LABELS_S
100
AcDbVertex
100
AcDb2dVertex
 10
186.3855468749605
 20
-12.94921875000111
 30
0.0
  0
VERTEX
  5
1FD
330
1F1
100
AcDbEntity
  8
1_ANYTOOL_1MMDEEP_LABELS_S
100
AcDbVertex
100
AcDb2dVertex
 10
186.7332589285319
 20
-12.83973214285822
 30
0.0
  0
VERTEX
  5
1FE
330
1F1
100
AcDbEntity
  8
1_ANYTOOL_1MMDEEP_LABELS_S
100
AcDbVertex
100
AcDb2dVertex
 10
187.0752790178177
 20
-12.72154017857244
 30
0.0
  0
VERTEX
  5
1FF
330
1F1
100
AcDbEntity
  8
1_ANYTOOL_1MMDEEP_LABELS_S
100
AcDbVertex
100
AcDb2dVertex
 10
187.4116071428177
 20
-12.59464285714375
 30
0.0
  0
VERTEX
  5
200
330
1F1
100
AcDbEntity
  8
1_ANYTOOL_1MMDEEP_LABELS_S
100
AcDbVertex
100
AcDb2dVertex
 10
187.7422433035321
 20
-12.45904017857217
 30
0.0
  0
VERTEX
  5
201
330
1F1
100
AcDbEntity
  8
1_ANYTOOL_1MMDEEP_LABELS_S
100
AcDbVertex
100
AcDb2dVertex
 10
188.0671874999607
 20
-12.31473214285768
 30
0.0
  0
VERTEX
  5
202
330
1F1
100
AcDbEntity
  8
1_ANYTOOL_1MMDEEP_LABELS_S
100
AcDbVertex
100
AcDb2dVertex
 10
188.3864397321036
 20
-12.16171875000029
 30
0.0
  0
VERTEX
  5
203
330
1F1
100
AcDbEntity
  8
1_ANYTOOL_1MMDEEP_LABELS_S
100
AcDbVertex
100
AcDb2dVertex
 10
188.6999999999607
 20
-12.0
 30
0.0
  0
VERTEX
  5
204
330
1F1
100
AcDbEntity
  8
1_ANYTOOL_1MMDEEP_LABELS_S
100
AcDbVertex
100
AcDb2dVertex
 10
188.7784005300946
 20
-11.95646275111601
 30
0.0
  0
VERTEX
  5
205
330
1F1
100
AcDbEntity
  8
1_ANYTOOL_1MMDEEP_LABELS_S
100
AcDbVertex
100
AcDb2dVertex
 10
188.8555664062107
 20
-11.91156529017846
 30
0.0
  0
VERTEX
  5
206
330
1F1
100
AcDbEntity
  8
1_ANYTOOL_1MMDEEP_LABELS_S
100
AcDbVertex
100
AcDb2dVertex
 10
188.9314976283089
 20
-11.86530761718733
 30
0.0
  0
VERTEX
  5
207
330
1F1
100
AcDbEntity
  8
1_ANYTOOL_1MMDEEP_LABELS_S
100
AcDbVertex
100
AcDb2dVertex
 10
189.0061941963892
 20
-11.81768973214264
 30
0.0
  0
VERTEX
  5
208
330
1F1
100
AcDbEntity
  8
1_ANYTOOL_1MMDEEP_LABELS_S
100
AcDbVertex
100
AcDb2dVertex
 10
189.0796561104517
 20
-11.76871163504438
 30
0.0
  0
VERTEX
  5
209
330
1F1
100
AcDbEntity
  8
1_ANYTOOL_1MMDEEP_LABELS_S
100
AcDbVertex
100
AcDb2dVertex
 10
189.1518833704964
 20
-11.71837332589254
 30
0.0
  0
VERTEX
  5
20A
330
1F1
100
AcDbEntity
  8
1_ANYTOOL_1MMDEEP_LABELS_S
100
AcDbVertex
100
AcDb2dVertex
 10
189.2228759765231
 20
-11.66667480468714
 30
0.0
  0
VERTEX
  5
20B
330
1F1
100
AcDbEntity
  8
1_ANYTOOL_1MMDEEP_LABELS_S
100
AcDbVertex
100
AcDb2dVertex
 10
189.292633928532
 20
-11.61361607142817
 30
0.0
  0
VERTEX
  5
20C
330
1F1
100
AcDbEntity
  8
1_ANYTOOL_1MMDEEP_LABELS_S
100
AcDbVertex
100
AcDb2dVertex
 10
189.3611572265231
 20
-11.55919712611563
 30
0.0
  0
VERTEX
  5
20D
330
1F1
100
AcDbEntity
  8
1_ANYTOOL_1MMDEEP_LABELS_S
100
AcDbVertex
100
AcDb2dVertex
 10
189.4284458704963
 20
-11.50341796874952
 30
0.0
  0
VERTEX
  5
20E
330
1F1
100
AcDbEntity
  8
1_ANYTOOL_1MMDEEP_LABELS_S
100
AcDbVertex
100
AcDb2dVertex
 10
189.4944998604517
 20
-11.44627859932984
 30
0.0
  0
VERTEX
  5
20F
330
1F1
100
AcDbEntity
  8
1_ANYTOOL_1MMDEEP_LABELS_S
100
AcDbVertex
100
AcDb2dVertex
 10
189.5593191963891
 20
-11.38777901785659
 30
0.0
  0
VERTEX
  5
210
330
1F1
100
AcDbEntity
  8
1_ANYTOOL_1MMDEEP_LABELS_S
100
AcDbVertex
100
AcDb2dVertex
 10
189.6229038783088
 20
-11.32791922432977
 30
0.0
  0
VERTEX
  5
211
330
1F1
100
AcDbEntity
  8
1_ANYTOOL_1MMDEEP_LABELS_S
100
AcDbVertex
100
AcDb2dVertex
 10
189.6852539062106
 20
-11.26669921874938
 30
0.0
  0
VERTEX
  5
212
330
1F1
100
AcDbEntity
  8
1_ANYTOOL_1MMDEEP_LABELS_S
100
AcDbVertex
100
AcDb2dVertex
 10
189.7463692800945
 20
-11.20411900111542
 30
0.0
  0
VERTEX
  5
213
330
1F1
100
AcDbEntity
  8
1_ANYTOOL_1MMDEEP_LABELS_S
100
AcDbVertex
100
AcDb2dVertex
 10
189.8062499999605
 20
-11.1401785714279
 30
0.0
  0
VERTEX
  5
214
330
1F1
100
AcDbEntity
  8
1_ANYTOOL_1MMDEEP_LABELS_S
100
AcDbVertex
100
AcDb2dVertex
 10
189.8648960658088
 20
-11.0748779296868
 30
0.0
  0
VERTEX
  5
215
330
1F1
100
AcDbEntity
  8
1_ANYTOOL_1MMDEEP_LABELS_S
100
AcDbVertex
100
AcDb2dVertex
 10
189.9223074776391
 20
-11.00821707589213
 30
0.0
  0
VERTEX
  5
216
330
1F1
100
AcDbEntity
  8
1_ANYTOOL_1MMDEEP_LABELS_S
100
AcDbVertex
100
AcDb2dVertex
 10
189.9784842354516
 20
-10.9401960100439
 30
0.0
  0
VERTEX
  5
217
330
1F1
100
AcDbEntity
  8
1_ANYTOOL_1MMDEEP_LABELS_S
100
AcDbVertex
100
AcDb2dVertex
 10
190.0334263392462
 20
-10.87081473214209
 30
0.0
  0
VERTEX
  5
218
330
1F1
100
AcDbEntity
  8
1_ANYTOOL_1MMDEEP_LABELS_S
100
AcDbVertex
100
AcDb2dVertex
 10
190.087133789023
 20
-10.80007324218672
 30
0.0
  0
VERTEX
  5
219
330
1F1
100
AcDbEntity
  8
1_ANYTOOL_1MMDEEP_LABELS_S
100
AcDbVertex
100
AcDb2dVertex
 10
190.1396065847819
 20
-10.72797154017778
 30
0.0
  0
VERTEX
  5
21A
330
1F1
100
AcDbEntity
  8
1_ANYTOOL_1MMDEEP_LABELS_S
100
AcDbVertex
100
AcDb2dVertex
 10
190.190844726523
 20
-10.65450962611526
 30
0.0
  0
VERTEX
  5
21B
330
1F1
100
AcDbEntity
  8
1_ANYTOOL_1MMDEEP_LABELS_S
100
AcDbVertex
100
AcDb2dVertex
 10
190.2408482142462
 20
-10.57968749999918
 30
0.0
  0
VERTEX
  5
21C
330
1F1
100
AcDbEntity
  8
1_ANYTOOL_1MMDEEP_LABELS_S
100
AcDbVertex
100
AcDb2dVertex
 10
190.2896170479515
 20
-10.50350516182953
 30
0.0
  0
VERTEX
  5
21D
330
1F1
100
AcDbEntity
  8
1_ANYTOOL_1MMDEEP_LABELS_S
100
AcDbVertex
100
AcDb2dVertex
 10
190.337151227639
 20
-10.42596261160631
 30
0.0
  0
VERTEX
  5
21E
330
1F1
100
AcDbEntity
  8
1_ANYTOOL_1MMDEEP_LABELS_S
100
AcDbVertex
100
AcDb2dVertex
 10
190.3834507533087
 20
-10.34705984932952
 30
0.0
  0
VERTEX
  5
21F
330
1F1
100
AcDbEntity
  8
1_ANYTOOL_1MMDEEP_LABELS_S
100
AcDbVertex
100
AcDb2dVertex
 10
190.4285156249604
 20
-10.26679687499916
 30
0.0
  0
VERTEX
  5
220
330
1F1
100
AcDbEntity
  8
1_ANYTOOL_1MMDEEP_LABELS_S
100
AcDbVertex
100
AcDb2dVertex
 10
190.4723458425943
 20
-10.18517368861523
 30
0.0
  0
VERTEX
  5
221
330
1F1
100
AcDbEntity
  8
1_ANYTOOL_1MMDEEP_LABELS_S
100
AcDbVertex
100
AcDb2dVertex
 10
190.5149414062104
 20
-10.10219029017773
 30
0.0
  0
VERTEX
  5
222
330
1F1
100
AcDbEntity
  8
1_ANYTOOL_1MMDEEP_LABELS_S
100
AcDbVertex
100
AcDb2dVertex
 10
190.5563023158086
 20
-10.01784667968666
 30
0.0
  0
VERTEX
  5
223
330
1F1
100
AcDbEntity
  8
1_ANYTOOL_1MMDEEP_LABELS_S
100
AcDbVertex
100
AcDb2dVertex
 10
190.596428571389
 20
-9.932142857142026
 30
0.0
  0
VERTEX
  5
224
330
1F1
100
AcDbEntity
  8
1_ANYTOOL_1MMDEEP_LABELS_S
100
AcDbVertex
100
AcDb2dVertex
 10
190.6353201729515
 20
-9.845078822543819
 30
0.0
  0
VERTEX
  5
225
330
1F1
100
AcDbEntity
  8
1_ANYTOOL_1MMDEEP_LABELS_S
100
AcDbVertex
100
AcDb2dVertex
 10
190.6729771204961
 20
-9.756654575892043
 30
0.0
  0
VERTEX
  5
226
330
1F1
100
AcDbEntity
  8
1_ANYTOOL_1MMDEEP_LABELS_S
100
AcDbVertex
100
AcDb2dVertex
 10
190.7445870535318
 20
-9.575725446427782
 30
0.0
  0
VERTEX
  5
227
330
1F1
100
AcDbEntity
  8
1_ANYTOOL_1MMDEEP_LABELS_S
100
AcDbVertex
100
AcDb2dVertex
 10
190.8112583704961
 20
-9.389355468749244
 30
0.0
  0
VERTEX
  5
228
330
1F1
100
AcDbEntity
  8
1_ANYTOOL_1MMDEEP_LABELS_S
100
AcDbVertex
100
AcDb2dVertex
 10
190.8729910713889
 20
-9.197544642856428
 30
0.0
  0
VERTEX
  5
229
330
1F1
100
AcDbEntity
  8
1_ANYTOOL_1MMDEEP_LABELS_S
100
AcDbVertex
100
AcDb2dVertex
 10
190.9297851562104
 20
-9.000292968749335
 30
0.0
  0
VERTEX
  5
22A
330
1F1
100
AcDbEntity
  8
1_ANYTOOL_1MMDEEP_LABELS_S
100
AcDbVertex
100
AcDb2dVertex
 10
190.9816406249603
 20
-8.797600446427964
 30
0.0
  0
VERTEX
  5
22B
330
1F1
100
AcDbEntity
  8
1_ANYTOOL_1MMDEEP_LABELS_S
100
AcDbVertex
100
AcDb2dVertex
 10
191.0285574776389
 20
-8.589467075892316
 30
0.0
  0
VERTEX
  5
22C
330
1F1
100
AcDbEntity
  8
1_ANYTOOL_1MMDEEP_LABELS_S
100
AcDbVertex
100
AcDb2dVertex
 10
191.070535714246
 20
-8.37589285714239
 30
0.0
  0
VERTEX
  5
22D
330
1F1
100
AcDbEntity
  8
1_ANYTOOL_1MMDEEP_LABELS_S
100
AcDbVertex
100
AcDb2dVertex
 10
191.1075753347818
 20
-8.156877790178186
 30
0.0
  0
VERTEX
  5
22E
330
1F1
100
AcDbEntity
  8
1_ANYTOOL_1MMDEEP_LABELS_S
100
AcDbVertex
100
AcDb2dVertex
 10
191.139676339246
 20
-7.932421874999704
 30
0.0
  0
VERTEX
  5
22F
330
1F1
100
AcDbEntity
  8
1_ANYTOOL_1MMDEEP_LABELS_S
100
AcDbVertex
100
AcDb2dVertex
 10
191.1668387276389
 20
-7.702525111606946
 30
0.0
  0
VERTEX
  5
230
330
1F1
100
AcDbEntity
  8
1_ANYTOOL_1MMDEEP_LABELS_S
100
AcDbVertex
100
AcDb2dVertex
 10
191.1890624999603
 20
-7.467187499999909
 30
0.0
  0
VERTEX
  5
231
330
1F1
100
AcDbEntity
  8
1_ANYTOOL_1MMDEEP_LABELS_S
100
AcDbVertex
100
AcDb2dVertex
 10
191.2063476562103
 20
-7.226409040178595
 30
0.0
  0
VERTEX
  5
232
330
1F1
100
AcDbEntity
  8
1_ANYTOOL_1MMDEEP_LABELS_S
100
AcDbVertex
100
AcDb2dVertex
 10
191.2186941963889
 20
-6.980189732143003
 30
0.0
  0
VERTEX
  5
233
330
1F1
100
AcDbEntity
  8
1_ANYTOOL_1MMDEEP_LABELS_S
100
AcDbVertex
100
AcDb2dVertex
 10
191.226102120496
 20
-6.728529575893134
 30
0.0
  0
VERTEX
  5
234
330
1F1
100
AcDbEntity
  8
1_ANYTOOL_1MMDEEP_LABELS_S
100
AcDbVertex
100
AcDb2dVertex
 10
191.2285714285317
 20
-6.471428571428987
 30
0.0
  0
VERTEX
  5
235
330
1F1
100
AcDbEntity
  8
1_ANYTOOL_1MMDEEP_LABELS_S
100
AcDbVertex
100
AcDb2dVertex
 10
191.2220424106746
 20
-6.073284040178962
 30
0.0
  0
VERTEX
  5
236
330
1F1
100
AcDbEntity
  8
1_ANYTOOL_1MMDEEP_LABELS_S
100
AcDbVertex
100
AcDb2dVertex
 10
191.2138811383531
 20
-5.878951590402163
 30
0.0
  0
VERTEX
  5
237
330
1F1
100
AcDbEntity
  8
1_ANYTOOL_1MMDEEP_LABELS_S
100
AcDbVertex
100
AcDb2dVertex
 10
191.2024553571031
 20
-5.687779017857508
 30
0.0
  0
VERTEX
  5
238
330
1F1
100
AcDbEntity
  8
1_ANYTOOL_1MMDEEP_LABELS_S
100
AcDbVertex
100
AcDb2dVertex
 10
191.1877650669246
 20
-5.499766322544996
 30
0.0
  0
VERTEX
  5
239
330
1F1
100
AcDbEntity
  8
1_ANYTOOL_1MMDEEP_LABELS_S
100
AcDbVertex
100
AcDb2dVertex
 10
191.1698102678174
 20
-5.314913504464627
 30
0.0
  0
VERTEX
  5
23A
330
1F1
100
AcDbEntity
  8
1_ANYTOOL_1MMDEEP_LABELS_S
100
AcDbVertex
100
AcDb2dVertex
 10
191.1485909597817
 20
-5.133220563616401
 30
0.0
  0
VERTEX
  5
23B
330
1F1
100
AcDbEntity
  8
1_ANYTOOL_1MMDEEP_LABELS_S
100
AcDbVertex
100
AcDb2dVertex
 10
191.1241071428174
 20
-4.954687500000318
 30
0.0
  0
VERTEX
  5
23C
330
1F1
100
AcDbEntity
  8
1_ANYTOOL_1MMDEEP_LABELS_S
100
AcDbVertex
100
AcDb2dVertex
 10
191.0963588169245
 20
-4.779314313616378
 30
0.0
  0
VERTEX
  5
23D
330
1F1
100
AcDbEntity
  8
1_ANYTOOL_1MMDEEP_LABELS_S
100
AcDbVertex
100
AcDb2dVertex
 10
191.0653459821031
 20
-4.607101004464582
 30
0.0
  0
VERTEX
  5
23E
330
1F1
100
AcDbEntity
  8
1_ANYTOOL_1MMDEEP_LABELS_S
100
AcDbVertex
100
AcDb2dVertex
 10
191.0310686383531
 20
-4.438047572544928
 30
0.0
  0
VERTEX
  5
23F
330
1F1
100
AcDbEntity
  8
1_ANYTOOL_1MMDEEP_LABELS_S
100
AcDbVertex
100
AcDb2dVertex
 10
190.9935267856745
 20
-4.272154017857417
 30
0.0
  0
VERTEX
  5
240
330
1F1
100
AcDbEntity
  8
1_ANYTOOL_1MMDEEP_LABELS_S
100
AcDbVertex
100
AcDb2dVertex
 10
190.9527204240674
 20
-4.10942034040205
 30
0.0
  0
VERTEX
  5
241
330
1F1
100
AcDbEntity
  8
1_ANYTOOL_1MMDEEP_LABELS_S
100
AcDbVertex
100
AcDb2dVertex
 10
190.9086495535317
 20
-3.949846540178825
 30
0.0
  0
VERTEX
  5
242
330
1F1
100
AcDbEntity
  8
1_ANYTOOL_1MMDEEP_LABELS_S
100
AcDbVertex
100
AcDb2dVertex
 10
190.8613141740674
 20
-3.793432617187744
 30
0.0
  0
VERTEX
  5
243
330
1F1
100
AcDbEntity
  8
1_ANYTOOL_1MMDEEP_LABELS_S
100
AcDbVertex
100
AcDb2dVertex
 10
190.8107142856745
 20
-3.640178571428805
 30
0.0
  0
VERTEX
  5
244
330
1F1
100
AcDbEntity
  8
1_ANYTOOL_1MMDEEP_LABELS_S
100
AcDbVertex
100
AcDb2dVertex
 10
190.7568498883531
 20
-3.49008440290201
 30
0.0
  0
VERTEX
  5
245
330
1F1
100
AcDbEntity
  8
1_ANYTOOL_1MMDEEP_LABELS_S
100
AcDbVertex
100
AcDb2dVertex
 10
190.6997209821031
 20
-3.343150111607358
 30
0.0
  0
VERTEX
  5
246
330
1F1
100
AcDbEntity
  8
1_ANYTOOL_1MMDEEP_LABELS_S
100
AcDbVertex
100
AcDb2dVertex
 10
190.6393275669245
 20
-3.199375697544848
 30
0.0
  0
VERTEX
  5
247
330
1F1
100
AcDbEntity
  8
1_ANYTOOL_1MMDEEP_LABELS_S
100
AcDbVertex
100
AcDb2dVertex
 10
190.5756696428173
 20
-3.058761160714482
 30
0.0
  0
VERTEX
  5
248
330
1F1
100
AcDbEntity
  8
1_ANYTOOL_1MMDEEP_LABELS_S
100
AcDbVertex
100
AcDb2dVertex
 10
190.5087472097816
 20
-2.921306501116259
 30
0.0
  0
VERTEX
  5
249
330
1F1
100
AcDbEntity
  8
1_ANYTOOL_1MMDEEP_LABELS_S
100
AcDbVertex
100
AcDb2dVertex
 10
190.4385602678173
 20
-2.787011718750179
 30
0.0
  0
VERTEX
  5
24A
330
1F1
100
AcDbEntity
  8
1_ANYTOOL_1MMDEEP_LABELS_S
100
AcDbVertex
100
AcDb2dVertex
 10
190.3651088169244
 20
-2.655876813616242
 30
0.0
  0
VERTEX
  5
24B
330
1F1
100
AcDbEntity
  8
1_ANYTOOL_1MMDEEP_LABELS_S
100
AcDbVertex
100
AcDb2dVertex
 10
190.288392857103
 20
-2.527901785714448
 30
0.0
  0
VERTEX
  5
24C
330
1F1
100
AcDbEntity
  8
1_ANYTOOL_1MMDEEP_LABELS_S
100
AcDbVertex
100
AcDb2dVertex
 10
190.208412388353
 20
-2.403086635044797
 30
0.0
  0
VERTEX
  5
24D
330
1F1
100
AcDbEntity
  8
1_ANYTOOL_1MMDEEP_LABELS_S
100
AcDbVertex
100
AcDb2dVertex
 10
190.1251674106744
 20
-2.281431361607289
 30
0.0
  0
VERTEX
  5
24E
330
1F1
100
AcDbEntity
  8
1_ANYTOOL_1MMDEEP_LABELS_S
100
AcDbVertex
100
AcDb2dVertex
 10
190.0386579240673
 20
-2.162935965401925
 30
0.0
  0
VERTEX
  5
24F
330
1F1
100
AcDbEntity
  8
1_ANYTOOL_1MMDEEP_LABELS_S
100
AcDbVertex
100
AcDb2dVertex
 10
189.9488839285315
 20
-2.047600446428703
 30
0.0
  0
VERTEX
  5
250
330
1F1
100
AcDbEntity
  8
1_ANYTOOL_1MMDEEP_LABELS_S
100
AcDbVertex
100
AcDb2dVertex
 10
189.8558454240672
 20
-1.935424804687624
 30
0.0
  0
VERTEX
  5
251
330
1F1
100
AcDbEntity
  8
1_ANYTOOL_1MMDEEP_LABELS_S
100
AcDbVertex
100
AcDb2dVertex
 10
189.7595424106744
 20
-1.826409040178689
 30
0.0
  0
VERTEX
  5
252
330
1F1
100
AcDbEntity
  8
1_ANYTOOL_1MMDEEP_LABELS_S
100
AcDbVertex
100
AcDb2dVertex
 10
189.6599748883529
 20
-1.720553152901896
 30
0.0
  0
VERTEX
  5
253
330
1F1
100
AcDbEntity
  8
1_ANYTOOL_1MMDEEP_LABELS_S
100
AcDbVertex
100
AcDb2dVertex
 10
189.5571428571029
 20
-1.617857142857247
 30
0.0
  0
VERTEX
  5
254
330
1F1
100
AcDbEntity
  8
1_ANYTOOL_1MMDEEP_LABELS_S
100
AcDbVertex
100
AcDb2dVertex
 10
189.4510463169243
 20
-1.51832101004474
 30
0.0
  0
VERTEX
  5
255
330
1F1
100
AcDbEntity
  8
1_ANYTOOL_1MMDEEP_LABELS_S
100
AcDbVertex
100
AcDb2dVertex
 10
189.3416852678172
 20
-1.421944754464377
 30
0.0
  0
VERTEX
  5
256
330
1F1
100
AcDbEntity
  8
1_ANYTOOL_1MMDEEP_LABELS_S
100
AcDbVertex
100
AcDb2dVertex
 10
189.2290597097814
 20
-1.328728376116157
 30
0.0
  0
VERTEX
  5
257
330
1F1
100
AcDbEntity
  8
1_ANYTOOL_1MMDEEP_LABELS_S
100
AcDbVertex
100
AcDb2dVertex
 10
189.1131696428171
 20
-1.23867187500008
 30
0.0
  0
VERTEX
  5
258
330
1F1
100
AcDbEntity
  8
1_ANYTOOL_1MMDEEP_LABELS_S
100
AcDbVertex
100
AcDb2dVertex
 10
188.9940150669242
 20
-1.151775251116145
 30
0.0
  0
VERTEX
  5
259
330
1F1
100
AcDbEntity
  8
1_ANYTOOL_1MMDEEP_LABELS_S
100
AcDbVertex
100
AcDb2dVertex
 10
188.8715959821028
 20
-1.068038504464354
 30
0.0
  0
VERTEX
  5
25A
330
1F1
100
AcDbEntity
  8
1_ANYTOOL_1MMDEEP_LABELS_S
100
AcDbVertex
100
AcDb2dVertex
 10
188.7459123883528
 20
-0.9874616350447063
 30
0.0
  0
VERTEX
  5
25B
330
1F1
100
AcDbEntity
  8
1_ANYTOOL_1MMDEEP_LABELS_S
100
AcDbVertex
100
AcDb2dVertex
 10
188.6169642856742
 20
-0.9100446428572013
 30
0.0
  0
VERTEX
  5
25C
330
1F1
100
AcDbEntity
  8
1_ANYTOOL_1MMDEEP_LABELS_S
100
AcDbVertex
100
AcDb2dVertex
 10
188.484751674067
 20
-0.8357875279018394
 30
0.0
  0
VERTEX
  5
25D
330
1F1
100
AcDbEntity
  8
1_ANYTOOL_1MMDEEP_LABELS_S
100
AcDbVertex
100
AcDb2dVertex
 10
188.3492745535313
 20
-0.7646902901786206
 30
0.0
  0
VERTEX
  5
25E
330
1F1
100
AcDbEntity
  8
1_ANYTOOL_1MMDEEP_LABELS_S
100
AcDbVertex
100
AcDb2dVertex
 10
188.210532924067
 20
-0.6967529296875448
 30
0.0
  0
VERTEX
  5
25F
330
1F1
100
AcDbEntity
  8
1_ANYTOOL_1MMDEEP_LABELS_S
100
AcDbVertex
100
AcDb2dVertex
 10
188.0685267856741
 20
-0.631975446428612
 30
0.0
  0
VERTEX
  5
260
330
1F1
100
AcDbEntity
  8
1_ANYTOOL_1MMDEEP_LABELS_S
100
AcDbVertex
100
AcDb2dVertex
 10
187.9232561383527
 20
-0.5703578404018224
 30
0.0
  0
VERTEX
  5
261
330
1F1
100
AcDbEntity
  8
1_ANYTOOL_1MMDEEP_LABELS_S
100
AcDbVertex
100
AcDb2dVertex
 10
187.7747209821027
 20
-0.5119001116071757
 30
0.0
  0
VERTEX
  5
262
330
1F1
100
AcDbEntity
  8
1_ANYTOOL_1MMDEEP_LABELS_S
100
AcDbVertex
100
AcDb2dVertex
 10
187.6229213169241
 20
-0.4566022600446722
 30
0.0
  0
VERTEX
  5
263
330
1F1
100
AcDbEntity
  8
1_ANYTOOL_1MMDEEP_LABELS_S
100
AcDbVertex
100
AcDb2dVertex
 10
187.4678571428169
 20
-0.4044642857143117
 30
0.0
  0
VERTEX
  5
264
330
1F1
100
AcDbEntity
  8
1_ANYTOOL_1MMDEEP_LABELS_S
100
AcDbVertex
100
AcDb2dVertex
 10
187.3095284597812
 20
-0.3554861886160943
 30
0.0
  0
VERTEX
  5
265
330
1F1
100
AcDbEntity
  8
1_ANYTOOL_1MMDEEP_LABELS_S
100
AcDbVertex
100
AcDb2dVertex
 10
187.1479352678169
 20
-0.3096679687500199
 30
0.0
  0
VERTEX
  5
266
330
1F1
100
AcDbEntity
  8
1_ANYTOOL_1MMDEEP_LABELS_S
100
AcDbVertex
100
AcDb2dVertex
 10
186.983077566924
 20
-0.2670096261160886
 30
0.0
  0
VERTEX
  5
267
330
1F1
100
AcDbEntity
  8
1_ANYTOOL_1MMDEEP_LABELS_S
100
AcDbVertex
100
AcDb2dVertex
 10
186.8149553571025
 20
-0.2275111607143003
 30
0.0
  0
VERTEX
  5
268
330
1F1
100
AcDbEntity
  8
1_ANYTOOL_1MMDEEP_LABELS_S
100
AcDbVertex
100
AcDb2dVertex
 10
186.6435686383525
 20
-0.1911725725446551
 30
0.0
  0
VERTEX
  5
269
330
1F1
100
AcDbEntity
  8
1_ANYTOOL_1MMDEEP_LABELS_S
100
AcDbVertex
100
AcDb2dVertex
 10
186.4689174106739
 20
-0.157993861607153
 30
0.0
  0
VERTEX
  5
26A
330
1F1
100
AcDbEntity
  8
1_ANYTOOL_1MMDEEP_LABELS_S
100
AcDbVertex
100
AcDb2dVertex
 10
186.2910016740667
 20
-0.1279750279017939
 30
0.0
  0
VERTEX
  5
26B
330
1F1
100
AcDbEntity
  8
1_ANYTOOL_1MMDEEP_LABELS_S
100
AcDbVertex
100
AcDb2dVertex
 10
186.109821428531
 20
-0.1011160714285779
 30
0.0
  0
VERTEX
  5
26C
330
1F1
100
AcDbEntity
  8
1_ANYTOOL_1MMDEEP_LABELS_S
100
AcDbVertex
100
AcDb2dVertex
 10
185.9253766740667
 20
-0.077416992187505
 30
0.0
  0
VERTEX
  5
26D
330
1F1
100
AcDbEntity
  8
1_ANYTOOL_1MMDEEP_LABELS_S
100
AcDbVertex
100
AcDb2dVertex
 10
185.7376674106738
 20
-0.0568777901785751
 30
0.0
  0
VERTEX
  5
26E
330
1F1
100
AcDbEntity
  8
1_ANYTOOL_1MMDEEP_LABELS_S
100
AcDbVertex
100
AcDb2dVertex
 10
185.5466936383524
 20
-0.0394984654017883
 30
0.0
  0
VERTEX
  5
26F
330
1F1
100
AcDbEntity
  8
1_ANYTOOL_1MMDEEP_LABELS_S
100
AcDbVertex
100
AcDb2dVertex
 10
185.3524553571023
 20
-0.0252790178571445
 30
0.0
  0
VERTEX
  5
270
330
1F1
100
AcDbEntity
  8
1_ANYTOOL_1MMDEEP_LABELS_S
100
AcDbVertex
100
AcDb2dVertex
 10
184.9541852678166
 20
-0.0063197544642861
 30
0.0
  0
VERTEX
  5
271
330
1F1
100
AcDbEntity
  8
1_ANYTOOL_1MMDEEP_LABELS_S
100
AcDbVertex
100
AcDb2dVertex
 10
184.5428571428165
 20
0.0
 30
0.0
  0
VERTEX
  5
272
330
1F1
100
AcDbEntity
  8
1_ANYTOOL_1MMDEEP_LABELS_S
100
AcDbVertex
100
AcDb2dVertex
 10
172.4571428571035
 20
0.0
 30
0.0
  0
SEQEND
  5
273
330
1F1
100
AcDbEntity
  8
1_ANYTOOL_1MMDEEP_LABELS_S
  0
POLYLINE
  5
275
330
1F
100
AcDbEntity
  8
5_ANYTOOL_HALF_MILL_9MM_IN
100
AcDb2dPolyline
 66
     1
 10
0.0
 20
0.0
 30
-0.0000000000054747
 70
     1
  0
VERTEX
  5
276
330
275
100
AcDbEntity
  8
5_ANYTOOL_HALF_MILL_9MM_IN
100
AcDbVertex
100
AcDb2dVertex
 10
-594.2500099753634
 20
47.02122685766517
 30
-0.0000000000054747
 42
0.4142135623732696
  0
VERTEX
  5
277
330
275
100
AcDbEntity
  8
5_ANYTOOL_HALF_MILL_9MM_IN
100
AcDbVertex
100
AcDb2dVertex
 10
-600.2500099753524
 20
41.02122685766517
 30
-0.0000000000054747
  0
VERTEX
  5
278
330
275
100
AcDbEntity
  8
5_ANYTOOL_HALF_MILL_9MM_IN
100
AcDbVertex
100
AcDb2dVertex
 10
-600.2500099753634
 20
14.77122685766517
 30
-0.0000000000054747
 42
0.4142135623723805
  0
VERTEX
  5
279
330
275
100
AcDbEntity
  8
5_ANYTOOL_HALF_MILL_9MM_IN
100
AcDbVertex
100
AcDb2dVertex
 10
-594.2500099753634
 20
8.77122685766517
 30
-0.0000000000054747
  0
VERTEX
  5
27A
330
275
100
AcDbEntity
  8
5_ANYTOOL_HALF_MILL_9MM_IN
100
AcDbVertex
100
AcDb2dVertex
 10
-587.7500099753343
 20
8.77122685766517
 30
-0.0000000000054747
 42
0.4142135623732696
  0
VERTEX
  5
27B
330
275
100
AcDbEntity
  8
5_ANYTOOL_HALF_MILL_9MM_IN
100
AcDbVertex
100
AcDb2dVertex
 10
-581.7500099753452
 20
14.77122685766517
 30
-0.0000000000054747
  0
VERTEX
  5
27C
330
275
100
AcDbEntity
  8
5_ANYTOOL_HALF_MILL_9MM_IN
100
AcDbVertex
100
AcDb2dVertex
 10
-581.7500099753343
 20
41.02122685766517
 30
-0.0000000000054747
 42
0.4142135623732747
  0
VERTEX
  5
27D
330
275
100
AcDbEntity
  8
5_ANYTOOL_HALF_MILL_9MM_IN
100
AcDbVertex
100
AcDb2dVertex
 10
-587.7500099753343
 20
47.02122685767608
 30
-0.0000000000054747
  0
SEQEND
  5
27E
330
275
100
AcDbEntity
  8
5_ANYTOOL_HALF_MILL_9MM_IN
  0
POLYLINE
  5
27F
330
1F
100
AcDbEntity
  8
5_ANYTOOL_HALF_MILL_9MM_IN
100
AcDb2dPolyline
 66
     1
 10
0.0
 20
0.0
 30
0.0000000002213625
 70
     1
  0
VERTEX
  5
280
330
27F
100
AcDbEntity
  8
5_ANYTOOL_HALF_MILL_9MM_IN
100
AcDbVertex
100
AcDb2dVertex
 10
-24.37500997439929
 20
-51.35377314432117
 30
0.0000000002213625
 42
0.414213562371319
  0
VERTEX
  5
281
330
27F
100
AcDbEntity
  8
5_ANYTOOL_HALF_MILL_9MM_IN
100
AcDbVertex
100
AcDb2dVertex
 10
-30.37500997440657
 20
-57.35377314432117
 30
0.0000000002213625
  0
VERTEX
  5
282
330
27F
100
AcDbEntity
  8
5_ANYTOOL_HALF_MILL_9MM_IN
100
AcDbVertex
100
AcDb2dVertex
 10
-30.37500997439929
 20
-63.8537731443721
 30
0.0000000002213625
 42
0.4142135623730952
  0
VERTEX
  5
283
330
27F
100
AcDbEntity
  8
5_ANYTOOL_HALF_MILL_9MM_IN
100
AcDbVertex
100
AcDb2dVertex
 10
-24.37500997439929
 20
-69.85377314438665
 30
0.0000000002213625
  0
VERTEX
  5
284
330
27F
100
AcDbEntity
  8
5_ANYTOOL_HALF_MILL_9MM_IN
100
AcDbVertex
100
AcDb2dVertex
 10
24.37499002566619
 20
-69.8537731443721
 30
0.0000000002213625
 42
0.4142135623732726
  0
VERTEX
  5
285
330
27F
100
AcDbEntity
  8
5_ANYTOOL_HALF_MILL_9MM_IN
100
AcDbVertex
100
AcDb2dVertex
 10
30.37499002565528
 20
-63.8537731443721
 30
0.0000000002213625
  0
VERTEX
  5
286
330
27F
100
AcDbEntity
  8
5_ANYTOOL_HALF_MILL_9MM_IN
100
AcDbVertex
100
AcDb2dVertex
 10
30.37499002566619
 20
-57.35377314432117
 30
0.0000000002213625
 42
0.4142135623725622
  0
VERTEX
  5
287
330
27F
100
AcDbEntity
  8
5_ANYTOOL_HALF_MILL_9MM_IN
100
AcDbVertex
100
AcDb2dVertex
 10
24.37499002566619
 20
-51.3537731443248
 30
0.0000000002213625
  0
SEQEND
  5
288
330
27F
100
AcDbEntity
  8
5_ANYTOOL_HALF_MILL_9MM_IN
  0
POLYLINE
  5
289
330
1F
100
AcDbEntity
  8
5_ANYTOOL_HALF_MILL_9MM_IN
100
AcDb2dPolyline
 66
     1
 10
0.0
 20
0.0
 30
0.0000000003850005
 70
     1
  0
VERTEX
  5
28A
330
289
100
AcDbEntity
  8
5_ANYTOOL_HALF_MILL_9MM_IN
100
AcDbVertex
100
AcDb2dVertex
 10
379.6249900260773
 20
-51.35377314544894
 30
0.0000000003850005
 42
0.4142135623730925
  0
VERTEX
  5
28B
330
289
100
AcDbEntity
  8
5_ANYTOOL_HALF_MILL_9MM_IN
100
AcDbVertex
100
AcDb2dVertex
 10
373.6249900260773
 20
-57.35377314544894
 30
0.0000000003850005
  0
VERTEX
  5
28C
330
289
100
AcDbEntity
  8
5_ANYTOOL_HALF_MILL_9MM_IN
100
AcDbVertex
100
AcDb2dVertex
 10
373.6249900260773
 20
-63.85377314549987
 30
0.0000000003850005
 42
0.4142135623725625
  0
VERTEX
  5
28D
330
289
100
AcDbEntity
  8
5_ANYTOOL_HALF_MILL_9MM_IN
100
AcDbVertex
100
AcDb2dVertex
 10
379.6249900260773
 20
-69.85377314549623
 30
0.0000000003850005
  0
VERTEX
  5
28E
330
289
100
AcDbEntity
  8
5_ANYTOOL_HALF_MILL_9MM_IN
100
AcDbVertex
100
AcDb2dVertex
 10
428.3749900261646
 20
-69.85377314549987
 30
0.0000000003850005
 42
0.4142135623722104
  0
VERTEX
  5
28F
330
289
100
AcDbEntity
  8
5_ANYTOOL_HALF_MILL_9MM_IN
100
AcDbVertex
100
AcDb2dVertex
 10
434.3749900261755
 20
-63.85377314549987
 30
0.0000000003850005
  0
VERTEX
  5
290
330
289
100
AcDbEntity
  8
5_ANYTOOL_HALF_MILL_9MM_IN
100
AcDbVertex
100
AcDb2dVertex
 10
434.3749900261646
 20
-57.35377314544894
 30
0.0000000003850005
 42
0.4142135623730945
  0
VERTEX
  5
291
330
289
100
AcDbEntity
  8
5_ANYTOOL_HALF_MILL_9MM_IN
100
AcDbVertex
100
AcDb2dVertex
 10
428.3749900261646
 20
-51.35377314544894
 30
0.0000000003850005
  0
SEQEND
  5
292
330
289
100
AcDbEntity
  8
5_ANYTOOL_HALF_MILL_9MM_IN
  0
POLYLINE
  5
293
330
1F
100
AcDbEntity
  8
5_ANYTOOL_HALF_MILL_9MM_IN
100
AcDb2dPolyline
 66
     1
 10
0.0
 20
0.0
 30
0.0000000003007514
 70
     1
  0
VERTEX
  5
294
330
293
100
AcDbEntity
  8
5_ANYTOOL_HALF_MILL_9MM_IN
100
AcDbVertex
100
AcDb2dVertex
 10
171.6249900258445
 20
-51.35377314520883
 30
0.0000000003007514
 42
0.4142135623727401
  0
VERTEX
  5
295
330
293
100
AcDbEntity
  8
5_ANYTOOL_HALF_MILL_9MM_IN
100
AcDbVertex
100
AcDb2dVertex
 10
165.6249900258372
 20
-57.35377314520883
 30
0.0000000003007514
  0
VERTEX
  5
296
330
293
100
AcDbEntity
  8
5_ANYTOOL_HALF_MILL_9MM_IN
100
AcDbVertex
100
AcDb2dVertex
 10
165.6249900258445
 20
-63.85377314529615
 30
0.0000000003007514
 42
0.4142135623732714
  0
VERTEX
  5
297
330
293
100
AcDbEntity
  8
5_ANYTOOL_HALF_MILL_9MM_IN
100
AcDbVertex
100
AcDb2dVertex
 10
171.6249900258445
 20
-69.85377314529251
 30
0.0000000003007514
  0
VERTEX
  5
298
330
293
100
AcDbEntity
  8
5_ANYTOOL_HALF_MILL_9MM_IN
100
AcDbVertex
100
AcDb2dVertex
 10
220.3749900259318
 20
-69.85377314529615
 30
0.0000000003007514
 42
0.4142135623732737
  0
VERTEX
  5
299
330
293
100
AcDbEntity
  8
5_ANYTOOL_HALF_MILL_9MM_IN
100
AcDbVertex
100
AcDb2dVertex
 10
226.3749900259354
 20
-63.85377314529615
 30
0.0000000003007514
  0
VERTEX
  5
29A
330
293
100
AcDbEntity
  8
5_ANYTOOL_HALF_MILL_9MM_IN
100
AcDbVertex
100
AcDb2dVertex
 10
226.3749900259318
 20
-57.35377314520883
 30
0.0000000003007514
 42
0.414213562372031
  0
VERTEX
  5
29B
330
293
100
AcDbEntity
  8
5_ANYTOOL_HALF_MILL_9MM_IN
100
AcDbVertex
100
AcDb2dVertex
 10
220.3749900259318
 20
-51.35377314521611
 30
0.0000000003007514
  0
SEQEND
  5
29C
330
293
100
AcDbEntity
  8
5_ANYTOOL_HALF_MILL_9MM_IN
  0
POLYLINE
  5
29D
330
1F
100
AcDbEntity
  8
5_ANYTOOL_HALF_MILL_9MM_IN
100
AcDb2dPolyline
 66
     1
 10
0.0
 20
0.0
 30
0.0000000001419735
 70
     1
  0
VERTEX
  5
29E
330
29D
100
AcDbEntity
  8
5_ANYTOOL_HALF_MILL_9MM_IN
100
AcDbVertex
100
AcDb2dVertex
 10
-220.3750099746612
 20
-51.35377314480138
 30
0.0000000001419735
 42
0.4142135623729174
  0
VERTEX
  5
29F
330
29D
100
AcDbEntity
  8
5_ANYTOOL_HALF_MILL_9MM_IN
100
AcDbVertex
100
AcDb2dVertex
 10
-226.3750099746576
 20
-57.35377314480138
 30
0.0000000001419735
  0
VERTEX
  5
2A0
330
29D
100
AcDbEntity
  8
5_ANYTOOL_HALF_MILL_9MM_IN
100
AcDbVertex
100
AcDb2dVertex
 10
-226.3750099746612
 20
-63.85377314488869
 30
0.0000000001419735
 42
0.4142135623729155
  0
VERTEX
  5
2A1
330
29D
100
AcDbEntity
  8
5_ANYTOOL_HALF_MILL_9MM_IN
100
AcDbVertex
100
AcDb2dVertex
 10
-220.3750099746612
 20
-69.85377314489233
 30
0.0000000001419735
  0
VERTEX
  5
2A2
330
29D
100
AcDbEntity
  8
5_ANYTOOL_HALF_MILL_9MM_IN
100
AcDbVertex
100
AcDb2dVertex
 10
-171.6250099745739
 20
-69.85377314488869
 30
0.0000000001419735
 42
0.4142135623732736
  0
VERTEX
  5
2A3
330
29D
100
AcDbEntity
  8
5_ANYTOOL_HALF_MILL_9MM_IN
100
AcDbVertex
100
AcDb2dVertex
 10
-165.6250099745848
 20
-63.85377314488869
 30
0.0000000001419735
  0
VERTEX
  5
2A4
330
29D
100
AcDbEntity
  8
5_ANYTOOL_HALF_MILL_9MM_IN
100
AcDbVertex
100
AcDb2dVertex
 10
-165.6250099745739
 20
-57.35377314480138
 30
0.0000000001419735
 42
0.4142135623732737
  0
VERTEX
  5
2A5
330
29D
100
AcDbEntity
  8
5_ANYTOOL_HALF_MILL_9MM_IN
100
AcDbVertex
100
AcDb2dVertex
 10
-171.6250099745739
 20
-51.35377314479047
 30
0.0000000001419735
  0
SEQEND
  5
2A6
330
29D
100
AcDbEntity
  8
5_ANYTOOL_HALF_MILL_9MM_IN
  0
POLYLINE
  5
2A7
330
1F
100
AcDbEntity
  8
5_ANYTOOL_HALF_MILL_9MM_IN
100
AcDb2dPolyline
 66
     1
 10
0.0
 20
0.0
 30
0.0000000000577245
 70
     1
  0
VERTEX
  5
2A8
330
2A7
100
AcDbEntity
  8
5_ANYTOOL_HALF_MILL_9MM_IN
100
AcDbVertex
100
AcDb2dVertex
 10
-428.3750099749013
 20
-51.35377314457583
 30
0.0000000000577245
 42
0.4142135623727423
  0
VERTEX
  5
2A9
330
2A7
100
AcDbEntity
  8
5_ANYTOOL_HALF_MILL_9MM_IN
100
AcDbVertex
100
AcDb2dVertex
 10
-434.3750099748941
 20
-57.35377314457583
 30
0.0000000000577245
  0
VERTEX
  5
2AA
330
2A7
100
AcDbEntity
  8
5_ANYTOOL_HALF_MILL_9MM_IN
100
AcDbVertex
100
AcDb2dVertex
 10
-434.3750099749013
 20
-63.85377314466314
 30
0.0000000000577245
 42
0.4142135623727388
  0
VERTEX
  5
2AB
330
2A7
100
AcDbEntity
  8
5_ANYTOOL_HALF_MILL_9MM_IN
100
AcDbVertex
100
AcDb2dVertex
 10
-428.3750099749013
 20
-69.85377314467041
 30
0.0000000000577245
  0
VERTEX
  5
2AC
330
2A7
100
AcDbEntity
  8
5_ANYTOOL_HALF_MILL_9MM_IN
100
AcDbVertex
100
AcDb2dVertex
 10
-379.6250099748067
 20
-69.85377314466314
 30
0.0000000000577245
 42
0.4142135623734501
  0
VERTEX
  5
2AD
330
2A7
100
AcDbEntity
  8
5_ANYTOOL_HALF_MILL_9MM_IN
100
AcDbVertex
100
AcDb2dVertex
 10
-373.625009974814
 20
-63.85377314466314
 30
0.0000000000577245
  0
VERTEX
  5
2AE
330
2A7
100
AcDbEntity
  8
5_ANYTOOL_HALF_MILL_9MM_IN
100
AcDbVertex
100
AcDb2dVertex
 10
-373.6250099748067
 20
-57.35377314457583
 30
0.0000000000577245
 42
0.4142135623729165
  0
VERTEX
  5
2AF
330
2A7
100
AcDbEntity
  8
5_ANYTOOL_HALF_MILL_9MM_IN
100
AcDbVertex
100
AcDb2dVertex
 10
-379.6250099748067
 20
-51.35377314457219
 30
0.0000000000577245
  0
SEQEND
  5
2B0
330
2A7
100
AcDbEntity
  8
5_ANYTOOL_HALF_MILL_9MM_IN
  0
POLYLINE
  5
2B1
330
1F
100
AcDbEntity
  8
5_ANYTOOL_HALF_MILL_9MM_IN
100
AcDb2dPolyline
 66
     1
 10
0.0
 20
0.0
 30
0.0000000000381704
 70
     1
  0
VERTEX
  5
2B2
330
2B1
100
AcDbEntity
  8
5_ANYTOOL_HALF_MILL_9MM_IN
100
AcDbVertex
100
AcDb2dVertex
 10
-473.6500099747536
 20
24.39622685756331
 30
0.0000000000381704
 42
-1.000000000000685
  0
VERTEX
  5
2B3
330
2B1
100
AcDbEntity
  8
5_ANYTOOL_HALF_MILL_9MM_IN
100
AcDbVertex
100
AcDb2dVertex
 10
-516.15000997479
 20
24.39622685762151
 30
0.0000000000381704
  0
VERTEX
  5
2B4
330
2B1
100
AcDbEntity
  8
5_ANYTOOL_HALF_MILL_9MM_IN
100
AcDbVertex
100
AcDb2dVertex
 10
-516.1500099747973
 20
30.64622685762151
 30
0.0000000000381704
  0
VERTEX
  5
2B5
330
2B1
100
AcDbEntity
  8
5_ANYTOOL_HALF_MILL_9MM_IN
100
AcDbVertex
100
AcDb2dVertex
 10
-473.6500099747464
 20
30.64622685756331
 30
0.0000000000381704
  0
SEQEND
  5
2B6
330
2B1
100
AcDbEntity
  8
5_ANYTOOL_HALF_MILL_9MM_IN
  0
POLYLINE
  5
2B7
330
1F
100
AcDbEntity
  8
5_ANYTOOL_HALF_MILL_9MM_IN
100
AcDb2dPolyline
 66
     1
 10
0.0
 20
0.0
 30
0.0000000001171152
 70
     1
  0
VERTEX
  5
2B8
330
2B7
100
AcDbEntity
  8
5_ANYTOOL_HALF_MILL_9MM_IN
100
AcDbVertex
100
AcDb2dVertex
 10
-278.7500099752688
 20
24.39622685735958
 30
0.0000000001171152
 42
-1.000000000001027
  0
VERTEX
  5
2B9
330
2B7
100
AcDbEntity
  8
5_ANYTOOL_HALF_MILL_9MM_IN
100
AcDbVertex
100
AcDb2dVertex
 10
-321.2500099752979
 20
24.39622685740323
 30
0.0000000001171152
  0
VERTEX
  5
2BA
330
2B7
100
AcDbEntity
  8
5_ANYTOOL_HALF_MILL_9MM_IN
100
AcDbVertex
100
AcDb2dVertex
 10
-321.2500099753124
 20
30.64622685740324
 30
0.0000000001171152
  0
VERTEX
  5
2BB
330
2B7
100
AcDbEntity
  8
5_ANYTOOL_HALF_MILL_9MM_IN
100
AcDbVertex
100
AcDb2dVertex
 10
-278.7500099752651
 20
30.64622685735958
 30
0.0000000001171152
  0
SEQEND
  5
2BC
330
2B7
100
AcDbEntity
  8
5_ANYTOOL_HALF_MILL_9MM_IN
  0
POLYLINE
  5
2BD
330
1F
100
AcDbEntity
  8
5_ANYTOOL_HALF_MILL_9MM_IN
100
AcDb2dPolyline
 66
     1
 10
0.0
 20
0.0
 30
0.0000000001960565
 70
     1
  0
VERTEX
  5
2BE
330
2BD
100
AcDbEntity
  8
5_ANYTOOL_HALF_MILL_9MM_IN
100
AcDbVertex
100
AcDb2dVertex
 10
-83.85000997473253
 20
24.39622685714858
 30
0.0000000001960565
 42
-1.000000000000685
  0
VERTEX
  5
2BF
330
2BD
100
AcDbEntity
  8
5_ANYTOOL_HALF_MILL_9MM_IN
100
AcDbVertex
100
AcDb2dVertex
 10
-126.3500099747835
 20
24.39622685719223
 30
0.0000000001960565
  0
VERTEX
  5
2C0
330
2BD
100
AcDbEntity
  8
5_ANYTOOL_HALF_MILL_9MM_IN
100
AcDbVertex
100
AcDb2dVertex
 10
-126.3500099747725
 20
30.64622685719223
 30
0.0000000001960565
  0
VERTEX
  5
2C1
330
2BD
100
AcDbEntity
  8
5_ANYTOOL_HALF_MILL_9MM_IN
100
AcDbVertex
100
AcDb2dVertex
 10
-83.85000997472889
 20
30.64622685714858
 30
0.0000000001960565
  0
SEQEND
  5
2C2
330
2BD
100
AcDbEntity
  8
5_ANYTOOL_HALF_MILL_9MM_IN
  0
POLYLINE
  5
2C3
330
1F
100
AcDbEntity
  8
5_ANYTOOL_HALF_MILL_9MM_IN
100
AcDb2dPolyline
 66
     1
 10
0.0
 20
0.0
 30
0.0000000002811973
 70
     1
  0
VERTEX
  5
2C4
330
2C3
100
AcDbEntity
  8
5_ANYTOOL_HALF_MILL_9MM_IN
100
AcDbVertex
100
AcDb2dVertex
 10
126.3499900259812
 20
24.39622685690119
 30
0.0000000002811973
 42
-0.9999999999993151
  0
VERTEX
  5
2C5
330
2C3
100
AcDbEntity
  8
5_ANYTOOL_HALF_MILL_9MM_IN
100
AcDbVertex
100
AcDb2dVertex
 10
83.84999002593759
 20
24.39622685694485
 30
0.0000000002811973
  0
VERTEX
  5
2C6
330
2C3
100
AcDbEntity
  8
5_ANYTOOL_HALF_MILL_9MM_IN
100
AcDbVertex
100
AcDb2dVertex
 10
83.84999002593759
 20
30.64622685694485
 30
0.0000000002811973
  0
VERTEX
  5
2C7
330
2C3
100
AcDbEntity
  8
5_ANYTOOL_HALF_MILL_9MM_IN
100
AcDbVertex
100
AcDb2dVertex
 10
126.3499900259849
 20
30.64622685690119
 30
0.0000000002811973
  0
SEQEND
  5
2C8
330
2C3
100
AcDbEntity
  8
5_ANYTOOL_HALF_MILL_9MM_IN
  0
POLYLINE
  5
2C9
330
1F
100
AcDbEntity
  8
5_ANYTOOL_HALF_MILL_9MM_IN
100
AcDb2dPolyline
 66
     1
 10
0.0
 20
0.0
 30
0.0000000003601421
 70
     1
  0
VERTEX
  5
2CA
330
2C9
100
AcDbEntity
  8
5_ANYTOOL_HALF_MILL_9MM_IN
100
AcDbVertex
100
AcDb2dVertex
 10
321.2499900254661
 20
24.39622685670474
 30
0.0000000003601421
 42
-0.9999999999989727
  0
VERTEX
  5
2CB
330
2C9
100
AcDbEntity
  8
5_ANYTOOL_HALF_MILL_9MM_IN
100
AcDbVertex
100
AcDb2dVertex
 10
278.7499900254152
 20
24.3962268567484
 30
0.0000000003601421
  0
VERTEX
  5
2CC
330
2C9
100
AcDbEntity
  8
5_ANYTOOL_HALF_MILL_9MM_IN
100
AcDbVertex
100
AcDb2dVertex
 10
278.7499900254297
 20
30.6462268567484
 30
0.0000000003601421
  0
VERTEX
  5
2CD
330
2C9
100
AcDbEntity
  8
5_ANYTOOL_HALF_MILL_9MM_IN
100
AcDbVertex
100
AcDb2dVertex
 10
321.249990025477
 20
30.64622685670474
 30
0.0000000003601421
  0
SEQEND
  5
2CE
330
2C9
100
AcDbEntity
  8
5_ANYTOOL_HALF_MILL_9MM_IN
  0
POLYLINE
  5
2CF
330
1F
100
AcDbEntity
  8
5_ANYTOOL_HALF_MILL_9MM_IN
100
AcDb2dPolyline
 66
     1
 10
0.0
 20
0.0
 30
0.0000000004390834
 70
     1
  0
VERTEX
  5
2D0
330
2CF
100
AcDbEntity
  8
5_ANYTOOL_HALF_MILL_9MM_IN
100
AcDbVertex
100
AcDb2dVertex
 10
516.149990026006
 20
24.39622685651557
 30
0.0000000004390834
 42
-0.9999999999993151
  0
VERTEX
  5
2D1
330
2CF
100
AcDbEntity
  8
5_ANYTOOL_HALF_MILL_9MM_IN
100
AcDbVertex
100
AcDb2dVertex
 10
473.6499900259478
 20
24.39622685655922
 30
0.0000000004390834
  0
VERTEX
  5
2D2
330
2CF
100
AcDbEntity
  8
5_ANYTOOL_HALF_MILL_9MM_IN
100
AcDbVertex
100
AcDb2dVertex
 10
473.6499900259623
 20
30.64622685655922
 30
0.0000000004390834
  0
VERTEX
  5
2D3
330
2CF
100
AcDbEntity
  8
5_ANYTOOL_HALF_MILL_9MM_IN
100
AcDbVertex
100
AcDb2dVertex
 10
516.1499900260096
 20
30.64622685651557
 30
0.0000000004390834
  0
SEQEND
  5
2D4
330
2CF
100
AcDbEntity
  8
5_ANYTOOL_HALF_MILL_9MM_IN
  0
POLYLINE
  5
2D5
330
1F
100
AcDbEntity
  8
5_ANYTOOL_HALF_MILL_9MM_IN
100
AcDb2dPolyline
 66
     1
 10
0.0
 20
0.0
 30
0.0000000004657785
 70
     1
  0
VERTEX
  5
2D6
330
2D5
100
AcDbEntity
  8
5_ANYTOOL_HALF_MILL_9MM_IN
100
AcDbVertex
100
AcDb2dVertex
 10
587.7499900271578
 20
47.0212268556279
 30
0.0000000004657785
 42
0.4142135623725652
  0
VERTEX
  5
2D7
330
2D5
100
AcDbEntity
  8
5_ANYTOOL_HALF_MILL_9MM_IN
100
AcDbVertex
100
AcDb2dVertex
 10
581.7499900271541
 20
41.0212268556279
 30
0.0000000004657785
  0
VERTEX
  5
2D8
330
2D5
100
AcDbEntity
  8
5_ANYTOOL_HALF_MILL_9MM_IN
100
AcDbVertex
100
AcDb2dVertex
 10
581.7499900271578
 20
14.77122685554059
 30
0.0000000004657785
 42
0.414213562371854
  0
VERTEX
  5
2D9
330
2D5
100
AcDbEntity
  8
5_ANYTOOL_HALF_MILL_9MM_IN
100
AcDbVertex
100
AcDb2dVertex
 10
587.7499900271578
 20
8.771226855544228
 30
0.0000000004657785
  0
VERTEX
  5
2DA
330
2D5
100
AcDbEntity
  8
5_ANYTOOL_HALF_MILL_9MM_IN
100
AcDbVertex
100
AcDb2dVertex
 10
594.2499900272342
 20
8.77122685554059
 30
0.0000000004657785
 42
0.4142135623732696
  0
VERTEX
  5
2DB
330
2D5
100
AcDbEntity
  8
5_ANYTOOL_HALF_MILL_9MM_IN
100
AcDbVertex
100
AcDb2dVertex
 10
600.2499900272378
 20
14.77122685554059
 30
0.0000000004657785
  0
VERTEX
  5
2DC
330
2D5
100
AcDbEntity
  8
5_ANYTOOL_HALF_MILL_9MM_IN
100
AcDbVertex
100
AcDb2dVertex
 10
600.2499900272342
 20
41.0212268556279
 30
0.0000000004657785
 42
0.4142135623727365
  0
VERTEX
  5
2DD
330
2D5
100
AcDbEntity
  8
5_ANYTOOL_HALF_MILL_9MM_IN
100
AcDbVertex
100
AcDb2dVertex
 10
594.2499900272342
 20
47.02122685562063
 30
0.0000000004657785
  0
SEQEND
  5
2DE
330
2D5
100
AcDbEntity
  8
5_ANYTOOL_HALF_MILL_9MM_IN
  0
POLYLINE
  5
2E0
330
1F
100
AcDbEntity
  8
4_ANYTOOL_CUTTHROUGH_OUTSI
100
AcDb2dPolyline
 66
     1
 10
0.0
 20
0.0
 30
0.0
 70
     1
  0
VERTEX
  5
2E1
330
2E0
100
AcDbEntity
  8
4_ANYTOOL_CUTTHROUGH_OUTSI
100
AcDbVertex
100
AcDb2dVertex
 10
-569.3455727233886
 20
80.1462268577452
 30
0.0
  0
VERTEX
  5
2E2
330
2E0
100
AcDbEntity
  8
4_ANYTOOL_CUTTHROUGH_OUTSI
100
AcDbVertex
100
AcDb2dVertex
 10
-581.7500099750832
 20
80.14622685758513
 30
0.0
  0
VERTEX
  5
2E3
330
2E0
100
AcDbEntity
  8
4_ANYTOOL_CUTTHROUGH_OUTSI
100
AcDbVertex
100
AcDb2dVertex
 10
-581.7500099754034
 20
52.64622685764334
 30
0.0
  0
VERTEX
  5
2E4
330
2E0
100
AcDbEntity
  8
4_ANYTOOL_CUTTHROUGH_OUTSI
100
AcDbVertex
100
AcDb2dVertex
 10
-576.000009975407
 20
52.64622685764334
 30
0.0
 42
-0.4142135623772812
  0
VERTEX
  5
2E5
330
2E0
100
AcDbEntity
  8
4_ANYTOOL_CUTTHROUGH_OUTSI
100
AcDbVertex
100
AcDb2dVertex
 10
-575.7500099754034
 20
52.39622685764334
 30
0.0
  0
VERTEX
  5
2E6
330
2E0
100
AcDbEntity
  8
4_ANYTOOL_CUTTHROUGH_OUTSI
100
AcDbVertex
100
AcDb2dVertex
 10
-575.7500099753161
 20
40.39622685765062
 30
0.0
 42
-0.4142135623602233
  0
VERTEX
  5
2E7
330
2E0
100
AcDbEntity
  8
4_ANYTOOL_CUTTHROUGH_OUTSI
100
AcDbVertex
100
AcDb2dVertex
 10
-576.0000099753161
 20
40.14622685765426
 30
0.0
  0
VERTEX
  5
2E8
330
2E0
100
AcDbEntity
  8
4_ANYTOOL_CUTTHROUGH_OUTSI
100
AcDbVertex
100
AcDb2dVertex
 10
-599.7500099753597
 20
40.14622685765789
 30
0.0
  0
VERTEX
  5
2E9
330
2E0
100
AcDbEntity
  8
4_ANYTOOL_CUTTHROUGH_OUTSI
100
AcDbVertex
100
AcDb2dVertex
 10
-599.750009975367
 20
15.64622685766517
 30
0.0
  0
VERTEX
  5
2EA
330
2E0
100
AcDbEntity
  8
4_ANYTOOL_CUTTHROUGH_OUTSI
100
AcDbVertex
100
AcDb2dVertex
 10
-576.000009975287
 20
15.64622685765062
 30
0.0
 42
-0.4142135624286055
  0
VERTEX
  5
2EB
330
2E0
100
AcDbEntity
  8
4_ANYTOOL_CUTTHROUGH_OUTSI
100
AcDbVertex
100
AcDb2dVertex
 10
-575.7500099752979
 20
15.39622685765062
 30
0.0
  0
VERTEX
  5
2EC
330
2E0
100
AcDbEntity
  8
4_ANYTOOL_CUTTHROUGH_OUTSI
100
AcDbVertex
100
AcDb2dVertex
 10
-575.7500099753779
 20
3.396226857657894
 30
0.0
 42
-0.414213562339044
  0
VERTEX
  5
2ED
330
2E0
100
AcDbEntity
  8
4_ANYTOOL_CUTTHROUGH_OUTSI
100
AcDbVertex
100
AcDb2dVertex
 10
-576.0000099753779
 20
3.146226857657894
 30
0.0
  0
VERTEX
  5
2EE
330
2E0
100
AcDbEntity
  8
4_ANYTOOL_CUTTHROUGH_OUTSI
100
AcDbVertex
100
AcDb2dVertex
 10
-581.750009975407
 20
3.146226857657894
 30
0.0
  0
VERTEX
  5
2EF
330
2E0
100
AcDbEntity
  8
4_ANYTOOL_CUTTHROUGH_OUTSI
100
AcDbVertex
100
AcDb2dVertex
 10
-581.7500099754034
 20
-7.353773142400314
 30
0.0
  0
VERTEX
  5
2F0
330
2E0
100
AcDbEntity
  8
4_ANYTOOL_CUTTHROUGH_OUTSI
100
AcDbVertex
100
AcDb2dVertex
 10
-576.0000099753925
 20
-7.353773142400314
 30
0.0
 42
-0.4142135623900525
  0
VERTEX
  5
2F1
330
2E0
100
AcDbEntity
  8
4_ANYTOOL_CUTTHROUGH_OUTSI
100
AcDbVertex
100
AcDb2dVertex
 10
-575.7500099753925
 20
-7.603773142400314
 30
0.0
  0
VERTEX
  5
2F2
330
2E0
100
AcDbEntity
  8
4_ANYTOOL_CUTTHROUGH_OUTSI
100
AcDbVertex
100
AcDb2dVertex
 10
-575.7500099753015
 20
-19.60377314239304
 30
0.0
 42
-0.4142135623261284
  0
VERTEX
  5
2F3
330
2E0
100
AcDbEntity
  8
4_ANYTOOL_CUTTHROUGH_OUTSI
100
AcDbVertex
100
AcDb2dVertex
 10
-576.0000099753015
 20
-19.8537731423894
 30
0.0
  0
VERTEX
  5
2F4
330
2E0
100
AcDbEntity
  8
4_ANYTOOL_CUTTHROUGH_OUTSI
100
AcDbVertex
100
AcDb2dVertex
 10
-599.750009975367
 20
-19.85377314237121
 30
0.0
  0
VERTEX
  5
2F5
330
2E0
100
AcDbEntity
  8
4_ANYTOOL_CUTTHROUGH_OUTSI
100
AcDbVertex
100
AcDb2dVertex
 10
-599.7500099751123
 20
-69.35377314372454
 30
0.0
  0
VERTEX
  5
2F6
330
2E0
100
AcDbEntity
  8
4_ANYTOOL_CUTTHROUGH_OUTSI
100
AcDbVertex
100
AcDb2dVertex
 10
-458.2500099749195
 20
-69.3537731445831
 30
0.0
  0
VERTEX
  5
2F7
330
2E0
100
AcDbEntity
  8
4_ANYTOOL_CUTTHROUGH_OUTSI
100
AcDbVertex
100
AcDb2dVertex
 10
-458.2500099749268
 20
-45.6037731445831
 30
0.0
 42
-0.4142135623987376
  0
VERTEX
  5
2F8
330
2E0
100
AcDbEntity
  8
4_ANYTOOL_CUTTHROUGH_OUTSI
100
AcDbVertex
100
AcDb2dVertex
 10
-458.0000099749268
 20
-45.35377314459038
 30
0.0
  0
VERTEX
  5
2F9
330
2E0
100
AcDbEntity
  8
4_ANYTOOL_CUTTHROUGH_OUTSI
100
AcDbVertex
100
AcDb2dVertex
 10
-446.0000099749122
 20
-45.35377314459765
 30
0.0
 42
-0.4142135623730285
  0
VERTEX
  5
2FA
330
2E0
100
AcDbEntity
  8
4_ANYTOOL_CUTTHROUGH_OUTSI
100
AcDbVertex
100
AcDb2dVertex
 10
-445.7500099749122
 20
-45.60377314459765
 30
0.0
  0
VERTEX
  5
2FB
330
2E0
100
AcDbEntity
  8
4_ANYTOOL_CUTTHROUGH_OUTSI
100
AcDbVertex
100
AcDb2dVertex
 10
-445.7500099749159
 20
-51.35377314459765
 30
0.0
  0
VERTEX
  5
2FC
330
2E0
100
AcDbEntity
  8
4_ANYTOOL_CUTTHROUGH_OUTSI
100
AcDbVertex
100
AcDb2dVertex
 10
-436.2500099749013
 20
-51.35377314461221
 30
0.0
  0
VERTEX
  5
2FD
330
2E0
100
AcDbEntity
  8
4_ANYTOOL_CUTTHROUGH_OUTSI
100
AcDbVertex
100
AcDb2dVertex
 10
-436.2500099749013
 20
-45.60377314461221
 30
0.0
 42
-0.4142135624029684
  0
VERTEX
  5
2FE
330
2E0
100
AcDbEntity
  8
4_ANYTOOL_CUTTHROUGH_OUTSI
100
AcDbVertex
100
AcDb2dVertex
 10
-436.0000099749013
 20
-45.35377314460857
 30
0.0
  0
VERTEX
  5
2FF
330
2E0
100
AcDbEntity
  8
4_ANYTOOL_CUTTHROUGH_OUTSI
100
AcDbVertex
100
AcDb2dVertex
 10
-424.0000099748868
 20
-45.35377314461948
 30
0.0
 42
-0.4142135623901632
  0
VERTEX
  5
300
330
2E0
100
AcDbEntity
  8
4_ANYTOOL_CUTTHROUGH_OUTSI
100
AcDbVertex
100
AcDb2dVertex
 10
-423.7500099748868
 20
-45.60377314461948
 30
0.0
  0
VERTEX
  5
301
330
2E0
100
AcDbEntity
  8
4_ANYTOOL_CUTTHROUGH_OUTSI
100
AcDbVertex
100
AcDb2dVertex
 10
-423.7500099748759
 20
-69.35377314462676
 30
0.0
  0
VERTEX
  5
302
330
2E0
100
AcDbEntity
  8
4_ANYTOOL_CUTTHROUGH_OUTSI
100
AcDbVertex
100
AcDb2dVertex
 10
-384.2500099748213
 20
-69.35377314467041
 30
0.0
  0
VERTEX
  5
303
330
2E0
100
AcDbEntity
  8
4_ANYTOOL_CUTTHROUGH_OUTSI
100
AcDbVertex
100
AcDb2dVertex
 10
-384.2500099748431
 20
-45.60377314466314
 30
0.0
 42
-0.4142135624029684
  0
VERTEX
  5
304
330
2E0
100
AcDbEntity
  8
4_ANYTOOL_CUTTHROUGH_OUTSI
100
AcDbVertex
100
AcDb2dVertex
 10
-384.0000099748431
 20
-45.3537731446595
 30
0.0
  0
VERTEX
  5
305
330
2E0
100
AcDbEntity
  8
4_ANYTOOL_CUTTHROUGH_OUTSI
100
AcDbVertex
100
AcDb2dVertex
 10
-372.0000099748286
 20
-45.35377314467769
 30
0.0
 42
-0.4142135623261805
  0
VERTEX
  5
306
330
2E0
100
AcDbEntity
  8
4_ANYTOOL_CUTTHROUGH_OUTSI
100
AcDbVertex
100
AcDb2dVertex
 10
-371.7500099748395
 20
-45.60377314467769
 30
0.0
  0
VERTEX
  5
307
330
2E0
100
AcDbEntity
  8
4_ANYTOOL_CUTTHROUGH_OUTSI
100
AcDbVertex
100
AcDb2dVertex
 10
-371.7500099748286
 20
-51.35377314467769
 30
0.0
  0
VERTEX
  5
308
330
2E0
100
AcDbEntity
  8
4_ANYTOOL_CUTTHROUGH_OUTSI
100
AcDbVertex
100
AcDb2dVertex
 10
-362.250009974814
 20
-51.35377314469224
 30
0.0
  0
VERTEX
  5
309
330
2E0
100
AcDbEntity
  8
4_ANYTOOL_CUTTHROUGH_OUTSI
100
AcDbVertex
100
AcDb2dVertex
 10
-362.2500099748177
 20
-45.60377314469224
 30
0.0
 42
-0.4142135623390449
  0
VERTEX
  5
30A
330
2E0
100
AcDbEntity
  8
4_ANYTOOL_CUTTHROUGH_OUTSI
100
AcDbVertex
100
AcDb2dVertex
 10
-362.0000099748177
 20
-45.35377314469224
 30
0.0
  0
VERTEX
  5
30B
330
2E0
100
AcDbEntity
  8
4_ANYTOOL_CUTTHROUGH_OUTSI
100
AcDbVertex
100
AcDb2dVertex
 10
-350.0000099748031
 20
-45.35377314469952
 30
0.0
 42
-0.4142135623859105
  0
VERTEX
  5
30C
330
2E0
100
AcDbEntity
  8
4_ANYTOOL_CUTTHROUGH_OUTSI
100
AcDbVertex
100
AcDb2dVertex
 10
-349.7500099748067
 20
-45.60377314469952
 30
0.0
  0
VERTEX
  5
30D
330
2E0
100
AcDbEntity
  8
4_ANYTOOL_CUTTHROUGH_OUTSI
100
AcDbVertex
100
AcDb2dVertex
 10
-349.7500099747922
 20
-69.35377314469224
 30
0.0
  0
VERTEX
  5
30E
330
2E0
100
AcDbEntity
  8
4_ANYTOOL_CUTTHROUGH_OUTSI
100
AcDbVertex
100
AcDb2dVertex
 10
-250.2500099746794
 20
-69.35377314480866
 30
0.0
  0
VERTEX
  5
30F
330
2E0
100
AcDbEntity
  8
4_ANYTOOL_CUTTHROUGH_OUTSI
100
AcDbVertex
100
AcDb2dVertex
 10
-250.2500099746903
 20
-45.60377314480866
 30
0.0
 42
-0.4142135623858727
  0
VERTEX
  5
310
330
2E0
100
AcDbEntity
  8
4_ANYTOOL_CUTTHROUGH_OUTSI
100
AcDbVertex
100
AcDb2dVertex
 10
-250.0000099746903
 20
-45.35377314480502
 30
0.0
  0
VERTEX
  5
311
330
2E0
100
AcDbEntity
  8
4_ANYTOOL_CUTTHROUGH_OUTSI
100
AcDbVertex
100
AcDb2dVertex
 10
-238.0000099746794
 20
-45.35377314481593
 30
0.0
 42
-0.4142135622921225
  0
VERTEX
  5
312
330
2E0
100
AcDbEntity
  8
4_ANYTOOL_CUTTHROUGH_OUTSI
100
AcDbVertex
100
AcDb2dVertex
 10
-237.7500099746758
 20
-45.60377314481593
 30
0.0
  0
VERTEX
  5
313
330
2E0
100
AcDbEntity
  8
4_ANYTOOL_CUTTHROUGH_OUTSI
100
AcDbVertex
100
AcDb2dVertex
 10
-237.7500099746721
 20
-51.35377314480866
 30
0.0
  0
VERTEX
  5
314
330
2E0
100
AcDbEntity
  8
4_ANYTOOL_CUTTHROUGH_OUTSI
100
AcDbVertex
100
AcDb2dVertex
 10
-228.2500099746685
 20
-51.35377314483048
 30
0.0
  0
VERTEX
  5
315
330
2E0
100
AcDbEntity
  8
4_ANYTOOL_CUTTHROUGH_OUTSI
100
AcDbVertex
100
AcDb2dVertex
 10
-228.2500099746649
 20
-45.60377314483048
 30
0.0
 42
-0.4142135623858708
  0
VERTEX
  5
316
330
2E0
100
AcDbEntity
  8
4_ANYTOOL_CUTTHROUGH_OUTSI
100
AcDbVertex
100
AcDb2dVertex
 10
-228.0000099746649
 20
-45.3537731448414
 30
0.0
  0
VERTEX
  5
317
330
2E0
100
AcDbEntity
  8
4_ANYTOOL_CUTTHROUGH_OUTSI
100
AcDbVertex
100
AcDb2dVertex
 10
-216.0000099746503
 20
-45.35377314484504
 30
0.0
 42
-0.414213562364556
  0
VERTEX
  5
318
330
2E0
100
AcDbEntity
  8
4_ANYTOOL_CUTTHROUGH_OUTSI
100
AcDbVertex
100
AcDb2dVertex
 10
-215.7500099746576
 20
-45.60377314484504
 30
0.0
  0
VERTEX
  5
319
330
2E0
100
AcDbEntity
  8
4_ANYTOOL_CUTTHROUGH_OUTSI
100
AcDbVertex
100
AcDb2dVertex
 10
-215.7500099746358
 20
-69.35377314484504
 30
0.0
  0
VERTEX
  5
31A
330
2E0
100
AcDbEntity
  8
4_ANYTOOL_CUTTHROUGH_OUTSI
100
AcDbVertex
100
AcDb2dVertex
 10
-176.2500099745921
 20
-69.35377314488869
 30
0.0
  0
VERTEX
  5
31B
330
2E0
100
AcDbEntity
  8
4_ANYTOOL_CUTTHROUGH_OUTSI
100
AcDbVertex
100
AcDb2dVertex
 10
-176.250009974603
 20
-45.60377314488142
 30
0.0
 42
-0.4142135623858727
  0
VERTEX
  5
31C
330
2E0
100
AcDbEntity
  8
4_ANYTOOL_CUTTHROUGH_OUTSI
100
AcDbVertex
100
AcDb2dVertex
 10
-176.000009974603
 20
-45.35377314487778
 30
0.0
  0
VERTEX
  5
31D
330
2E0
100
AcDbEntity
  8
4_ANYTOOL_CUTTHROUGH_OUTSI
100
AcDbVertex
100
AcDb2dVertex
 10
-164.0000099745921
 20
-45.35377314489597
 30
0.0
 42
-0.414213562364556
  0
VERTEX
  5
31E
330
2E0
100
AcDbEntity
  8
4_ANYTOOL_CUTTHROUGH_OUTSI
100
AcDbVertex
100
AcDb2dVertex
 10
-163.7500099745994
 20
-45.60377314489597
 30
0.0
  0
VERTEX
  5
31F
330
2E0
100
AcDbEntity
  8
4_ANYTOOL_CUTTHROUGH_OUTSI
100
AcDbVertex
100
AcDb2dVertex
 10
-163.7500099745921
 20
-51.35377314489597
 30
0.0
  0
VERTEX
  5
320
330
2E0
100
AcDbEntity
  8
4_ANYTOOL_CUTTHROUGH_OUTSI
100
AcDbVertex
100
AcDb2dVertex
 10
-154.2500099745812
 20
-51.35377314490324
 30
0.0
  0
VERTEX
  5
321
330
2E0
100
AcDbEntity
  8
4_ANYTOOL_CUTTHROUGH_OUTSI
100
AcDbVertex
100
AcDb2dVertex
 10
-154.2500099745776
 20
-45.60377314490324
 30
0.0
 42
-0.4142135624029449
  0
VERTEX
  5
322
330
2E0
100
AcDbEntity
  8
4_ANYTOOL_CUTTHROUGH_OUTSI
100
AcDbVertex
100
AcDb2dVertex
 10
-154.0000099745776
 20
-45.35377314489961
 30
0.0
  0
VERTEX
  5
323
330
2E0
100
AcDbEntity
  8
4_ANYTOOL_CUTTHROUGH_OUTSI
100
AcDbVertex
100
AcDb2dVertex
 10
-142.0000099745666
 20
-45.3537731449178
 30
0.0
 42
-0.4142135622878519
  0
VERTEX
  5
324
330
2E0
100
AcDbEntity
  8
4_ANYTOOL_CUTTHROUGH_OUTSI
100
AcDbVertex
100
AcDb2dVertex
 10
-141.7500099745666
 20
-45.6037731449178
 30
0.0
  0
VERTEX
  5
325
330
2E0
100
AcDbEntity
  8
4_ANYTOOL_CUTTHROUGH_OUTSI
100
AcDbVertex
100
AcDb2dVertex
 10
-141.7500099745594
 20
-69.35377314349171
 30
0.0
  0
VERTEX
  5
326
330
2E0
100
AcDbEntity
  8
4_ANYTOOL_CUTTHROUGH_OUTSI
100
AcDbVertex
100
AcDb2dVertex
 10
-54.25000997442839
 20
-69.35377314427751
 30
0.0
  0
VERTEX
  5
327
330
2E0
100
AcDbEntity
  8
4_ANYTOOL_CUTTHROUGH_OUTSI
100
AcDbVertex
100
AcDb2dVertex
 10
-54.25000997443931
 20
-45.60377314428479
 30
0.0
 42
-0.4142135623901437
  0
VERTEX
  5
328
330
2E0
100
AcDbEntity
  8
4_ANYTOOL_CUTTHROUGH_OUTSI
100
AcDbVertex
100
AcDb2dVertex
 10
-54.00000997443931
 20
-45.35377314428479
 30
0.0
  0
VERTEX
  5
329
330
2E0
100
AcDbEntity
  8
4_ANYTOOL_CUTTHROUGH_OUTSI
100
AcDbVertex
100
AcDb2dVertex
 10
-42.00000997442839
 20
-45.35377314429934
 30
0.0
 42
-0.4142135623773612
  0
VERTEX
  5
32A
330
2E0
100
AcDbEntity
  8
4_ANYTOOL_CUTTHROUGH_OUTSI
100
AcDbVertex
100
AcDb2dVertex
 10
-41.75000997442476
 20
-45.60377314429934
 30
0.0
  0
VERTEX
  5
32B
330
2E0
100
AcDbEntity
  8
4_ANYTOOL_CUTTHROUGH_OUTSI
100
AcDbVertex
100
AcDb2dVertex
 10
-41.75000997441748
 20
-51.35377314429206
 30
0.0
  0
VERTEX
  5
32C
330
2E0
100
AcDbEntity
  8
4_ANYTOOL_CUTTHROUGH_OUTSI
100
AcDbVertex
100
AcDb2dVertex
 10
-32.25000997441384
 20
-51.35377314430661
 30
0.0
  0
VERTEX
  5
32D
330
2E0
100
AcDbEntity
  8
4_ANYTOOL_CUTTHROUGH_OUTSI
100
AcDbVertex
100
AcDb2dVertex
 10
-32.2500099744102
 20
-45.60377314430661
 30
0.0
 42
-0.4142135623603115
  0
VERTEX
  5
32E
330
2E0
100
AcDbEntity
  8
4_ANYTOOL_CUTTHROUGH_OUTSI
100
AcDbVertex
100
AcDb2dVertex
 10
-32.0000099744102
 20
-45.35377314431025
 30
0.0
  0
VERTEX
  5
32F
330
2E0
100
AcDbEntity
  8
4_ANYTOOL_CUTTHROUGH_OUTSI
100
AcDbVertex
100
AcDb2dVertex
 10
-20.00000997439929
 20
-45.35377314432844
 30
0.0
 42
-0.4142135623773636
  0
VERTEX
  5
330
330
2E0
100
AcDbEntity
  8
4_ANYTOOL_CUTTHROUGH_OUTSI
100
AcDbVertex
100
AcDb2dVertex
 10
-19.75000997439565
 20
-45.60377314432844
 30
0.0
  0
VERTEX
  5
331
330
2E0
100
AcDbEntity
  8
4_ANYTOOL_CUTTHROUGH_OUTSI
100
AcDbVertex
100
AcDb2dVertex
 10
-19.75000997438474
 20
-69.35377314433572
 30
0.0
  0
VERTEX
  5
332
330
2E0
100
AcDbEntity
  8
4_ANYTOOL_CUTTHROUGH_OUTSI
100
AcDbVertex
100
AcDb2dVertex
 10
19.74999002565528
 20
-69.35377314437937
 30
0.0
  0
VERTEX
  5
333
330
2E0
100
AcDbEntity
  8
4_ANYTOOL_CUTTHROUGH_OUTSI
100
AcDbVertex
100
AcDb2dVertex
 10
19.749990025648
 20
-45.60377314436482
 30
0.0
 42
-0.4142135623603057
  0
VERTEX
  5
334
330
2E0
100
AcDbEntity
  8
4_ANYTOOL_CUTTHROUGH_OUTSI
100
AcDbVertex
100
AcDb2dVertex
 10
19.999990025648
 20
-45.35377314436846
 30
0.0
  0
VERTEX
  5
335
330
2E0
100
AcDbEntity
  8
4_ANYTOOL_CUTTHROUGH_OUTSI
100
AcDbVertex
100
AcDb2dVertex
 10
31.99999002565892
 20
-45.3537731443721
 30
0.0
 42
-0.4142135624029263
  0
VERTEX
  5
336
330
2E0
100
AcDbEntity
  8
4_ANYTOOL_CUTTHROUGH_OUTSI
100
AcDbVertex
100
AcDb2dVertex
 10
32.24999002565528
 20
-45.6037731443721
 30
0.0
  0
VERTEX
  5
337
330
2E0
100
AcDbEntity
  8
4_ANYTOOL_CUTTHROUGH_OUTSI
100
AcDbVertex
100
AcDb2dVertex
 10
32.24999002565892
 20
-51.3537731443721
 30
0.0
  0
VERTEX
  5
338
330
2E0
100
AcDbEntity
  8
4_ANYTOOL_CUTTHROUGH_OUTSI
100
AcDbVertex
100
AcDb2dVertex
 10
41.74999002566983
 20
-51.35377314438665
 30
0.0
  0
VERTEX
  5
339
330
2E0
100
AcDbEntity
  8
4_ANYTOOL_CUTTHROUGH_OUTSI
100
AcDbVertex
100
AcDb2dVertex
 10
41.74999002567347
 20
-45.60377314438665
 30
0.0
 42
-0.4142135624199758
  0
VERTEX
  5
33A
330
2E0
100
AcDbEntity
  8
4_ANYTOOL_CUTTHROUGH_OUTSI
100
AcDbVertex
100
AcDb2dVertex
 10
41.99999002567347
 20
-45.35377314438301
 30
0.0
  0
VERTEX
  5
33B
330
2E0
100
AcDbEntity
  8
4_ANYTOOL_CUTTHROUGH_OUTSI
100
AcDbVertex
100
AcDb2dVertex
 10
53.99999002568438
 20
-45.3537731444012
 30
0.0
 42
-0.4142135623432638
  0
VERTEX
  5
33C
330
2E0
100
AcDbEntity
  8
4_ANYTOOL_CUTTHROUGH_OUTSI
100
AcDbVertex
100
AcDb2dVertex
 10
54.24999002568802
 20
-45.6037731444012
 30
0.0
  0
VERTEX
  5
33D
330
2E0
100
AcDbEntity
  8
4_ANYTOOL_CUTTHROUGH_OUTSI
100
AcDbVertex
100
AcDb2dVertex
 10
54.24999002569166
 20
-69.35377314300422
 30
0.0
  0
VERTEX
  5
33E
330
2E0
100
AcDbEntity
  8
4_ANYTOOL_CUTTHROUGH_OUTSI
100
AcDbVertex
100
AcDb2dVertex
 10
141.7499900258154
 20
-69.35377314520883
 30
0.0
  0
VERTEX
  5
33F
330
2E0
100
AcDbEntity
  8
4_ANYTOOL_CUTTHROUGH_OUTSI
100
AcDbVertex
100
AcDb2dVertex
 10
141.7499900258154
 20
-45.60377314522339
 30
0.0
 42
-0.4142135624157175
  0
VERTEX
  5
340
330
2E0
100
AcDbEntity
  8
4_ANYTOOL_CUTTHROUGH_OUTSI
100
AcDbVertex
100
AcDb2dVertex
 10
141.9999900258154
 20
-45.35377314521611
 30
0.0
  0
VERTEX
  5
341
330
2E0
100
AcDbEntity
  8
4_ANYTOOL_CUTTHROUGH_OUTSI
100
AcDbVertex
100
AcDb2dVertex
 10
153.9999900258263
 20
-45.35377314523794
 30
0.0
 42
-0.4142135623688148
  0
VERTEX
  5
342
330
2E0
100
AcDbEntity
  8
4_ANYTOOL_CUTTHROUGH_OUTSI
100
AcDbVertex
100
AcDb2dVertex
 10
154.2499900258226
 20
-45.60377314523794
 30
0.0
  0
VERTEX
  5
343
330
2E0
100
AcDbEntity
  8
4_ANYTOOL_CUTTHROUGH_OUTSI
100
AcDbVertex
100
AcDb2dVertex
 10
154.2499900258335
 20
-51.35377314523794
 30
0.0
  0
VERTEX
  5
344
330
2E0
100
AcDbEntity
  8
4_ANYTOOL_CUTTHROUGH_OUTSI
100
AcDbVertex
100
AcDb2dVertex
 10
163.7499900258372
 20
-51.35377314524521
 30
0.0
  0
VERTEX
  5
345
330
2E0
100
AcDbEntity
  8
4_ANYTOOL_CUTTHROUGH_OUTSI
100
AcDbVertex
100
AcDb2dVertex
 10
163.7499900258408
 20
-45.60377314525249
 30
0.0
 42
-0.4142135623517754
  0
VERTEX
  5
346
330
2E0
100
AcDbEntity
  8
4_ANYTOOL_CUTTHROUGH_OUTSI
100
AcDbVertex
100
AcDb2dVertex
 10
163.9999900258408
 20
-45.35377314524885
 30
0.0
  0
VERTEX
  5
347
330
2E0
100
AcDbEntity
  8
4_ANYTOOL_CUTTHROUGH_OUTSI
100
AcDbVertex
100
AcDb2dVertex
 10
175.9999900258517
 20
-45.35377314525977
 30
0.0
 42
-0.414213562407202
  0
VERTEX
  5
348
330
2E0
100
AcDbEntity
  8
4_ANYTOOL_CUTTHROUGH_OUTSI
100
AcDbVertex
100
AcDb2dVertex
 10
176.2499900258517
 20
-45.60377314525977
 30
0.0
  0
VERTEX
  5
349
330
2E0
100
AcDbEntity
  8
4_ANYTOOL_CUTTHROUGH_OUTSI
100
AcDbVertex
100
AcDb2dVertex
 10
176.2499900258663
 20
-69.35377314526704
 30
0.0
  0
VERTEX
  5
34A
330
2E0
100
AcDbEntity
  8
4_ANYTOOL_CUTTHROUGH_OUTSI
100
AcDbVertex
100
AcDb2dVertex
 10
215.7499900259136
 20
-69.35377314530342
 30
0.0
  0
VERTEX
  5
34B
330
2E0
100
AcDbEntity
  8
4_ANYTOOL_CUTTHROUGH_OUTSI
100
AcDbVertex
100
AcDb2dVertex
 10
215.749990025899
 20
-45.60377314530342
 30
0.0
 42
-0.4142135624029449
  0
VERTEX
  5
34C
330
2E0
100
AcDbEntity
  8
4_ANYTOOL_CUTTHROUGH_OUTSI
100
AcDbVertex
100
AcDb2dVertex
 10
215.999990025899
 20
-45.35377314529978
 30
0.0
  0
VERTEX
  5
34D
330
2E0
100
AcDbEntity
  8
4_ANYTOOL_CUTTHROUGH_OUTSI
100
AcDbVertex
100
AcDb2dVertex
 10
227.9999900259099
 20
-45.35377314531797
 30
0.0
 42
-0.4142135624498071
  0
VERTEX
  5
34E
330
2E0
100
AcDbEntity
  8
4_ANYTOOL_CUTTHROUGH_OUTSI
100
AcDbVertex
100
AcDb2dVertex
 10
228.2499900259027
 20
-45.60377314531797
 30
0.0
  0
VERTEX
  5
34F
330
2E0
100
AcDbEntity
  8
4_ANYTOOL_CUTTHROUGH_OUTSI
100
AcDbVertex
100
AcDb2dVertex
 10
228.2499900259136
 20
-51.35377314531797
 30
0.0
  0
VERTEX
  5
350
330
2E0
100
AcDbEntity
  8
4_ANYTOOL_CUTTHROUGH_OUTSI
100
AcDbVertex
100
AcDb2dVertex
 10
237.7499900259209
 20
-51.35377314532525
 30
0.0
  0
VERTEX
  5
351
330
2E0
100
AcDbEntity
  8
4_ANYTOOL_CUTTHROUGH_OUTSI
100
AcDbVertex
100
AcDb2dVertex
 10
237.7499900259245
 20
-45.60377314532525
 30
0.0
 42
-0.4142135623432471
  0
VERTEX
  5
352
330
2E0
100
AcDbEntity
  8
4_ANYTOOL_CUTTHROUGH_OUTSI
100
AcDbVertex
100
AcDb2dVertex
 10
237.9999900259245
 20
-45.35377314531434
 30
0.0
  0
VERTEX
  5
353
330
2E0
100
AcDbEntity
  8
4_ANYTOOL_CUTTHROUGH_OUTSI
100
AcDbVertex
100
AcDb2dVertex
 10
249.9999900259318
 20
-45.3537731453107
 30
0.0
 42
-0.4142135623986356
  0
VERTEX
  5
354
330
2E0
100
AcDbEntity
  8
4_ANYTOOL_CUTTHROUGH_OUTSI
100
AcDbVertex
100
AcDb2dVertex
 10
250.249990025939
 20
-45.6037731453107
 30
0.0
  0
VERTEX
  5
355
330
2E0
100
AcDbEntity
  8
4_ANYTOOL_CUTTHROUGH_OUTSI
100
AcDbVertex
100
AcDb2dVertex
 10
250.2499900259427
 20
-69.35377314533253
 30
0.0
  0
VERTEX
  5
356
330
2E0
100
AcDbEntity
  8
4_ANYTOOL_CUTTHROUGH_OUTSI
100
AcDbVertex
100
AcDb2dVertex
 10
349.7499900260555
 20
-69.35377314540528
 30
0.0
  0
VERTEX
  5
357
330
2E0
100
AcDbEntity
  8
4_ANYTOOL_CUTTHROUGH_OUTSI
100
AcDbVertex
100
AcDb2dVertex
 10
349.7499900260482
 20
-45.60377314541256
 30
0.0
 42
-0.414213562317631
  0
VERTEX
  5
358
330
2E0
100
AcDbEntity
  8
4_ANYTOOL_CUTTHROUGH_OUTSI
100
AcDbVertex
100
AcDb2dVertex
 10
349.9999900260482
 20
-45.35377314540892
 30
0.0
  0
VERTEX
  5
359
330
2E0
100
AcDbEntity
  8
4_ANYTOOL_CUTTHROUGH_OUTSI
100
AcDbVertex
100
AcDb2dVertex
 10
361.9999900260664
 20
-45.35377314542711
 30
0.0
 42
-0.4142135623901632
  0
VERTEX
  5
35A
330
2E0
100
AcDbEntity
  8
4_ANYTOOL_CUTTHROUGH_OUTSI
100
AcDbVertex
100
AcDb2dVertex
 10
362.2499900260664
 20
-45.60377314542711
 30
0.0
  0
VERTEX
  5
35B
330
2E0
100
AcDbEntity
  8
4_ANYTOOL_CUTTHROUGH_OUTSI
100
AcDbVertex
100
AcDb2dVertex
 10
362.2499900260627
 20
-51.35377314542711
 30
0.0
  0
VERTEX
  5
35C
330
2E0
100
AcDbEntity
  8
4_ANYTOOL_CUTTHROUGH_OUTSI
100
AcDbVertex
100
AcDb2dVertex
 10
371.7499900260736
 20
-51.35377314543439
 30
0.0
  0
VERTEX
  5
35D
330
2E0
100
AcDbEntity
  8
4_ANYTOOL_CUTTHROUGH_OUTSI
100
AcDbVertex
100
AcDb2dVertex
 10
371.7499900260736
 20
-45.60377314543439
 30
0.0
 42
-0.4142135623560464
  0
VERTEX
  5
35E
330
2E0
100
AcDbEntity
  8
4_ANYTOOL_CUTTHROUGH_OUTSI
100
AcDbVertex
100
AcDb2dVertex
 10
371.9999900260736
 20
-45.35377314543439
 30
0.0
  0
VERTEX
  5
35F
330
2E0
100
AcDbEntity
  8
4_ANYTOOL_CUTTHROUGH_OUTSI
100
AcDbVertex
100
AcDb2dVertex
 10
383.9999900260846
 20
-45.35377314544894
 30
0.0
 42
-0.4142135623901632
  0
VERTEX
  5
360
330
2E0
100
AcDbEntity
  8
4_ANYTOOL_CUTTHROUGH_OUTSI
100
AcDbVertex
100
AcDb2dVertex
 10
384.2499900260846
 20
-45.60377314544894
 30
0.0
  0
VERTEX
  5
361
330
2E0
100
AcDbEntity
  8
4_ANYTOOL_CUTTHROUGH_OUTSI
100
AcDbVertex
100
AcDb2dVertex
 10
384.2499900261028
 20
-69.35377314546349
 30
0.0
  0
VERTEX
  5
362
330
2E0
100
AcDbEntity
  8
4_ANYTOOL_CUTTHROUGH_OUTSI
100
AcDbVertex
100
AcDb2dVertex
 10
423.74999002615
 20
-69.35377314550715
 30
0.0
  0
VERTEX
  5
363
330
2E0
100
AcDbEntity
  8
4_ANYTOOL_CUTTHROUGH_OUTSI
100
AcDbVertex
100
AcDb2dVertex
 10
423.7499900261355
 20
-45.60377314549987
 30
0.0
 42
-0.4142135623603173
  0
VERTEX
  5
364
330
2E0
100
AcDbEntity
  8
4_ANYTOOL_CUTTHROUGH_OUTSI
100
AcDbVertex
100
AcDb2dVertex
 10
423.9999900261355
 20
-45.35377314550351
 30
0.0
  0
VERTEX
  5
365
330
2E0
100
AcDbEntity
  8
4_ANYTOOL_CUTTHROUGH_OUTSI
100
AcDbVertex
100
AcDb2dVertex
 10
435.99999002615
 20
-45.35377314550715
 30
0.0
 42
-0.41421356234748
  0
VERTEX
  5
366
330
2E0
100
AcDbEntity
  8
4_ANYTOOL_CUTTHROUGH_OUTSI
100
AcDbVertex
100
AcDb2dVertex
 10
436.2499900261573
 20
-45.60377314550715
 30
0.0
  0
VERTEX
  5
367
330
2E0
100
AcDbEntity
  8
4_ANYTOOL_CUTTHROUGH_OUTSI
100
AcDbVertex
100
AcDb2dVertex
 10
436.2499900261428
 20
-51.35377314550715
 30
0.0
  0
VERTEX
  5
368
330
2E0
100
AcDbEntity
  8
4_ANYTOOL_CUTTHROUGH_OUTSI
100
AcDbVertex
100
AcDb2dVertex
 10
445.7499900261537
 20
-51.35377314551442
 30
0.0
  0
VERTEX
  5
369
330
2E0
100
AcDbEntity
  8
4_ANYTOOL_CUTTHROUGH_OUTSI
100
AcDbVertex
100
AcDb2dVertex
 10
445.7499900261573
 20
-45.6037731455217
 30
0.0
 42
-0.414213562373095
  0
VERTEX
  5
36A
330
2E0
100
AcDbEntity
  8
4_ANYTOOL_CUTTHROUGH_OUTSI
100
AcDbVertex
100
AcDb2dVertex
 10
445.9999900261573
 20
-45.3537731455217
 30
0.0
  0
VERTEX
  5
36B
330
2E0
100
AcDbEntity
  8
4_ANYTOOL_CUTTHROUGH_OUTSI
100
AcDbVertex
100
AcDb2dVertex
 10
457.9999900261682
 20
-45.35377314552898
 30
0.0
 42
-0.4142135623646129
  0
VERTEX
  5
36C
330
2E0
100
AcDbEntity
  8
4_ANYTOOL_CUTTHROUGH_OUTSI
100
AcDbVertex
100
AcDb2dVertex
 10
458.249990026161
 20
-45.60377314552898
 30
0.0
  0
VERTEX
  5
36D
330
2E0
100
AcDbEntity
  8
4_ANYTOOL_CUTTHROUGH_OUTSI
100
AcDbVertex
100
AcDb2dVertex
 10
458.2499900261755
 20
-69.35377314552898
 30
0.0
  0
VERTEX
  5
36E
330
2E0
100
AcDbEntity
  8
4_ANYTOOL_CUTTHROUGH_OUTSI
100
AcDbVertex
100
AcDb2dVertex
 10
599.7499900268849
 20
-69.35377314583457
 30
0.0
  0
VERTEX
  5
36F
330
2E0
100
AcDbEntity
  8
4_ANYTOOL_CUTTHROUGH_OUTSI
100
AcDbVertex
100
AcDb2dVertex
 10
599.749990027165
 20
-19.85377314447396
 30
0.0
  0
VERTEX
  5
370
330
2E0
100
AcDbEntity
  8
4_ANYTOOL_CUTTHROUGH_OUTSI
100
AcDbVertex
100
AcDb2dVertex
 10
575.9999900271068
 20
-19.85377314443758
 30
0.0
 42
-0.4142135623560855
  0
VERTEX
  5
371
330
2E0
100
AcDbEntity
  8
4_ANYTOOL_CUTTHROUGH_OUTSI
100
AcDbVertex
100
AcDb2dVertex
 10
575.7499900271068
 20
-19.60377314443758
 30
0.0
  0
VERTEX
  5
372
330
2E0
100
AcDbEntity
  8
4_ANYTOOL_CUTTHROUGH_OUTSI
100
AcDbVertex
100
AcDb2dVertex
 10
575.749990027216
 20
-7.603773144444858
 30
0.0
 42
-0.4142135623602239
  0
VERTEX
  5
373
330
2E0
100
AcDbEntity
  8
4_ANYTOOL_CUTTHROUGH_OUTSI
100
AcDbVertex
100
AcDb2dVertex
 10
575.999990027216
 20
-7.353773144448496
 30
0.0
  0
VERTEX
  5
374
330
2E0
100
AcDbEntity
  8
4_ANYTOOL_CUTTHROUGH_OUTSI
100
AcDbVertex
100
AcDb2dVertex
 10
581.7499900272196
 20
-7.353773144444858
 30
0.0
  0
VERTEX
  5
375
330
2E0
100
AcDbEntity
  8
4_ANYTOOL_CUTTHROUGH_OUTSI
100
AcDbVertex
100
AcDb2dVertex
 10
581.7499900272305
 20
3.146226855606074
 30
0.0
  0
VERTEX
  5
376
330
2E0
100
AcDbEntity
  8
4_ANYTOOL_CUTTHROUGH_OUTSI
100
AcDbVertex
100
AcDb2dVertex
 10
575.9999900272051
 20
3.146226855613349
 30
0.0
 42
-0.4142135623859197
  0
VERTEX
  5
377
330
2E0
100
AcDbEntity
  8
4_ANYTOOL_CUTTHROUGH_OUTSI
100
AcDbVertex
100
AcDb2dVertex
 10
575.7499900272087
 20
3.396226855613349
 30
0.0
  0
VERTEX
  5
378
330
2E0
100
AcDbEntity
  8
4_ANYTOOL_CUTTHROUGH_OUTSI
100
AcDbVertex
100
AcDb2dVertex
 10
575.7499900271214
 20
15.39622685561335
 30
0.0
 42
-0.4142135623390449
  0
VERTEX
  5
379
330
2E0
100
AcDbEntity
  8
4_ANYTOOL_CUTTHROUGH_OUTSI
100
AcDbVertex
100
AcDb2dVertex
 10
575.9999900271214
 20
15.64622685561335
 30
0.0
  0
VERTEX
  5
37A
330
2E0
100
AcDbEntity
  8
4_ANYTOOL_CUTTHROUGH_OUTSI
100
AcDbVertex
100
AcDb2dVertex
 10
599.7499900272196
 20
15.64622685555514
 30
0.0
  0
VERTEX
  5
37B
330
2E0
100
AcDbEntity
  8
4_ANYTOOL_CUTTHROUGH_OUTSI
100
AcDbVertex
100
AcDb2dVertex
 10
599.7499900272342
 20
40.14622685555514
 30
0.0
  0
VERTEX
  5
37C
330
2E0
100
AcDbEntity
  8
4_ANYTOOL_CUTTHROUGH_OUTSI
100
AcDbVertex
100
AcDb2dVertex
 10
575.999990027165
 20
40.14622685560607
 30
0.0
 42
-0.4142135624030452
  0
VERTEX
  5
37D
330
2E0
100
AcDbEntity
  8
4_ANYTOOL_CUTTHROUGH_OUTSI
100
AcDbVertex
100
AcDb2dVertex
 10
575.7499900271687
 20
40.39622685560607
 30
0.0
  0
VERTEX
  5
37E
330
2E0
100
AcDbEntity
  8
4_ANYTOOL_CUTTHROUGH_OUTSI
100
AcDbVertex
100
AcDb2dVertex
 10
575.7499900272633
 20
52.3962268555988
 30
0.0
 42
-0.41421356241997
  0
VERTEX
  5
37F
330
2E0
100
AcDbEntity
  8
4_ANYTOOL_CUTTHROUGH_OUTSI
100
AcDbVertex
100
AcDb2dVertex
 10
575.9999900272633
 20
52.64622685560244
 30
0.0
  0
VERTEX
  5
380
330
2E0
100
AcDbEntity
  8
4_ANYTOOL_CUTTHROUGH_OUTSI
100
AcDbVertex
100
AcDb2dVertex
 10
581.7499900272669
 20
52.6462268555988
 30
0.0
  0
VERTEX
  5
381
330
2E0
100
AcDbEntity
  8
4_ANYTOOL_CUTTHROUGH_OUTSI
100
AcDbVertex
100
AcDb2dVertex
 10
581.7499900266012
 20
80.14622685600625
 30
0.0
  0
VERTEX
  5
382
330
2E0
100
AcDbEntity
  8
4_ANYTOOL_CUTTHROUGH_OUTSI
100
AcDbVertex
100
AcDb2dVertex
 10
569.3455527745427
 20
80.14622685647919
 30
0.0
 42
0.3178372451949137
  0
VERTEX
  5
383
330
2E0
100
AcDbEntity
  8
4_ANYTOOL_CUTTHROUGH_OUTSI
100
AcDbVertex
100
AcDb2dVertex
 10
563.9244007854289
 20
76.31289352315189
 30
0.0
 42
-0.7071067811842494
  0
VERTEX
  5
384
330
2E0
100
AcDbEntity
  8
4_ANYTOOL_CUTTHROUGH_OUTSI
100
AcDbVertex
100
AcDb2dVertex
 10
540.8255792666334
 20
76.31289352313433
 30
0.0
 42
0.3178372451910659
  0
VERTEX
  5
385
330
2E0
100
AcDbEntity
  8
4_ANYTOOL_CUTTHROUGH_OUTSI
100
AcDbVertex
100
AcDb2dVertex
 10
535.40442727755
 20
80.14622685648591
 30
0.0
  0
VERTEX
  5
386
330
2E0
100
AcDbEntity
  8
4_ANYTOOL_CUTTHROUGH_OUTSI
100
AcDbVertex
100
AcDb2dVertex
 10
523.0055110307621
 20
80.14622685650102
 30
0.0
  0
VERTEX
  5
387
330
2E0
100
AcDbEntity
  8
4_ANYTOOL_CUTTHROUGH_OUTSI
100
AcDbVertex
100
AcDb2dVertex
 10
523.2404213883981
 20
78.75135665618299
 30
0.0
  0
VERTEX
  5
388
330
2E0
100
AcDbEntity
  8
4_ANYTOOL_CUTTHROUGH_OUTSI
100
AcDbVertex
100
AcDb2dVertex
 10
540.135954615118
 20
30.47881446267274
 30
0.0
  0
VERTEX
  5
389
330
2E0
100
AcDbEntity
  8
4_ANYTOOL_CUTTHROUGH_OUTSI
100
AcDbVertex
100
AcDb2dVertex
 10
540.1499900260292
 20
30.39622685649374
 30
0.0
 42
-0.4142135623796808
  0
VERTEX
  5
38A
330
2E0
100
AcDbEntity
  8
4_ANYTOOL_CUTTHROUGH_OUTSI
100
AcDbVertex
100
AcDb2dVertex
 10
533.8999900260133
 20
24.1462268564901
 30
0.0
  0
VERTEX
  5
38B
330
2E0
100
AcDbEntity
  8
4_ANYTOOL_CUTTHROUGH_OUTSI
100
AcDbVertex
100
AcDb2dVertex
 10
455.8999900259732
 20
24.14622685658105
 30
0.0
 42
-0.4142135623756498
  0
VERTEX
  5
38C
330
2E0
100
AcDbEntity
  8
4_ANYTOOL_CUTTHROUGH_OUTSI
100
AcDbVertex
100
AcDb2dVertex
 10
449.6499900259187
 20
30.39622685658105
 30
0.0
  0
VERTEX
  5
38D
330
2E0
100
AcDbEntity
  8
4_ANYTOOL_CUTTHROUGH_OUTSI
100
AcDbVertex
100
AcDb2dVertex
 10
449.6640254368339
 20
30.47881446275945
 30
0.0
  0
VERTEX
  5
38E
330
2E0
100
AcDbEntity
  8
4_ANYTOOL_CUTTHROUGH_OUTSI
100
AcDbVertex
100
AcDb2dVertex
 10
466.5631383108812
 20
78.76242166505108
 30
0.0
  0
VERTEX
  5
38F
330
2E0
100
AcDbEntity
  8
4_ANYTOOL_CUTTHROUGH_OUTSI
100
AcDbVertex
100
AcDb2dVertex
 10
466.7944690211892
 20
80.14622685656072
 30
0.0
  0
VERTEX
  5
390
330
2E0
100
AcDbEntity
  8
4_ANYTOOL_CUTTHROUGH_OUTSI
100
AcDbVertex
100
AcDb2dVertex
 10
328.1055110306079
 20
80.14622685669747
 30
0.0
  0
VERTEX
  5
391
330
2E0
100
AcDbEntity
  8
4_ANYTOOL_CUTTHROUGH_OUTSI
100
AcDbVertex
100
AcDb2dVertex
 10
328.3404213878617
 20
78.75135665636662
 30
0.0
  0
VERTEX
  5
392
330
2E0
100
AcDbEntity
  8
4_ANYTOOL_CUTTHROUGH_OUTSI
100
AcDbVertex
100
AcDb2dVertex
 10
345.235954614589
 20
30.47881446284737
 30
0.0
  0
VERTEX
  5
393
330
2E0
100
AcDbEntity
  8
4_ANYTOOL_CUTTHROUGH_OUTSI
100
AcDbVertex
100
AcDb2dVertex
 10
345.2499900254991
 20
30.39622685666836
 30
0.0
 42
-0.4142135623722417
  0
VERTEX
  5
394
330
2E0
100
AcDbEntity
  8
4_ANYTOOL_CUTTHROUGH_OUTSI
100
AcDbVertex
100
AcDb2dVertex
 10
338.999990025477
 20
24.146226856672
 30
0.0
  0
VERTEX
  5
395
330
2E0
100
AcDbEntity
  8
4_ANYTOOL_CUTTHROUGH_OUTSI
100
AcDbVertex
100
AcDb2dVertex
 10
260.9999900254334
 20
24.14622685675567
 30
0.0
 42
-0.414213562375139
  0
VERTEX
  5
396
330
2E0
100
AcDbEntity
  8
4_ANYTOOL_CUTTHROUGH_OUTSI
100
AcDbVertex
100
AcDb2dVertex
 10
254.7499900253897
 20
30.39622685675567
 30
0.0
  0
VERTEX
  5
397
330
2E0
100
AcDbEntity
  8
4_ANYTOOL_CUTTHROUGH_OUTSI
100
AcDbVertex
100
AcDb2dVertex
 10
254.7640254363049
 20
30.47881446293408
 30
0.0
  0
VERTEX
  5
398
330
2E0
100
AcDbEntity
  8
4_ANYTOOL_CUTTHROUGH_OUTSI
100
AcDbVertex
100
AcDb2dVertex
 10
271.6631383103486
 20
78.7624216652548
 30
0.0
  0
VERTEX
  5
399
330
2E0
100
AcDbEntity
  8
4_ANYTOOL_CUTTHROUGH_OUTSI
100
AcDbVertex
100
AcDb2dVertex
 10
271.8944690206601
 20
80.14622685674544
 30
0.0
  0
VERTEX
  5
39A
330
2E0
100
AcDbEntity
  8
4_ANYTOOL_CUTTHROUGH_OUTSI
100
AcDbVertex
100
AcDb2dVertex
 10
133.2055110307192
 20
80.14622685687937
 30
0.0
  0
VERTEX
  5
39B
330
2E0
100
AcDbEntity
  8
4_ANYTOOL_CUTTHROUGH_OUTSI
100
AcDbVertex
100
AcDb2dVertex
 10
133.4404213883572
 20
78.75135665654295
 30
0.0
  0
VERTEX
  5
39C
330
2E0
100
AcDbEntity
  8
4_ANYTOOL_CUTTHROUGH_OUTSI
100
AcDbVertex
100
AcDb2dVertex
 10
150.3359546150823
 20
30.47881446303654
 30
0.0
  0
VERTEX
  5
39D
330
2E0
100
AcDbEntity
  8
4_ANYTOOL_CUTTHROUGH_OUTSI
100
AcDbVertex
100
AcDb2dVertex
 10
150.3499900259936
 20
30.39622685685754
 30
0.0
 42
-0.4142135623760946
  0
VERTEX
  5
39E
330
2E0
100
AcDbEntity
  8
4_ANYTOOL_CUTTHROUGH_OUTSI
100
AcDbVertex
100
AcDb2dVertex
 10
144.099990025974
 20
24.14622685686118
 30
0.0
  0
VERTEX
  5
39F
330
2E0
100
AcDbEntity
  8
4_ANYTOOL_CUTTHROUGH_OUTSI
100
AcDbVertex
100
AcDb2dVertex
 10
66.09999002593031
 20
24.1462268569303
 30
0.0
 42
-0.4142135623736066
  0
VERTEX
  5
3A0
330
2E0
100
AcDbEntity
  8
4_ANYTOOL_CUTTHROUGH_OUTSI
100
AcDbVertex
100
AcDb2dVertex
 10
59.84999002589757
 20
30.39622685693757
 30
0.0
  0
VERTEX
  5
3A1
330
2E0
100
AcDbEntity
  8
4_ANYTOOL_CUTTHROUGH_OUTSI
100
AcDbVertex
100
AcDb2dVertex
 10
59.86402543680137
 20
30.47881446311742
 30
0.0
  0
VERTEX
  5
3A2
330
2E0
100
AcDbEntity
  8
4_ANYTOOL_CUTTHROUGH_OUTSI
100
AcDbVertex
100
AcDb2dVertex
 10
76.76313831084917
 20
78.7624216654367
 30
0.0
  0
VERTEX
  5
3A3
330
2E0
100
AcDbEntity
  8
4_ANYTOOL_CUTTHROUGH_OUTSI
100
AcDbVertex
100
AcDb2dVertex
 10
76.99446902115439
 20
80.14622685695268
 30
0.0
  0
VERTEX
  5
3A4
330
2E0
100
AcDbEntity
  8
4_ANYTOOL_CUTTHROUGH_OUTSI
100
AcDbVertex
100
AcDb2dVertex
 10
64.5955527743863
 20
80.14622685697395
 30
0.0
 42
0.31783724518983
  0
VERTEX
  5
3A5
330
2E0
100
AcDbEntity
  8
4_ANYTOOL_CUTTHROUGH_OUTSI
100
AcDbVertex
100
AcDb2dVertex
 10
59.17440078522964
 20
76.31289352362452
 30
0.0
 42
-0.7071067811858629
  0
VERTEX
  5
3A6
330
2E0
100
AcDbEntity
  8
4_ANYTOOL_CUTTHROUGH_OUTSI
100
AcDbVertex
100
AcDb2dVertex
 10
36.07557926643994
 20
76.31289352365066
 30
0.0
 42
0.3178372451929385
  0
VERTEX
  5
3A7
330
2E0
100
AcDbEntity
  8
4_ANYTOOL_CUTTHROUGH_OUTSI
100
AcDbVertex
100
AcDb2dVertex
 10
30.6544272773499
 20
80.1462268569989
 30
0.0
  0
VERTEX
  5
3A8
330
2E0
100
AcDbEntity
  8
4_ANYTOOL_CUTTHROUGH_OUTSI
100
AcDbVertex
100
AcDb2dVertex
 10
-30.65444722619213
 20
80.14622685707582
 30
0.0
 42
0.3178372451940438
  0
VERTEX
  5
3A9
330
2E0
100
AcDbEntity
  8
4_ANYTOOL_CUTTHROUGH_OUTSI
100
AcDbVertex
100
AcDb2dVertex
 10
-36.07559921531361
 20
76.3128935237559
 30
0.0
 42
-0.7071067811856606
  0
VERTEX
  5
3AA
330
2E0
100
AcDbEntity
  8
4_ANYTOOL_CUTTHROUGH_OUTSI
100
AcDbVertex
100
AcDb2dVertex
 10
-59.17442073409336
 20
76.31289352377743
 30
0.0
 42
0.3178372451947478
  0
VERTEX
  5
3AB
330
2E0
100
AcDbEntity
  8
4_ANYTOOL_CUTTHROUGH_OUTSI
100
AcDbVertex
100
AcDb2dVertex
 10
-64.59557272318489
 20
80.1462268571174
 30
0.0
  0
VERTEX
  5
3AC
330
2E0
100
AcDbEntity
  8
4_ANYTOOL_CUTTHROUGH_OUTSI
100
AcDbVertex
100
AcDb2dVertex
 10
-76.99448896995455
 20
80.1462268571413
 30
0.0
  0
VERTEX
  5
3AD
330
2E0
100
AcDbEntity
  8
4_ANYTOOL_CUTTHROUGH_OUTSI
100
AcDbVertex
100
AcDb2dVertex
 10
-76.75957861231186
 20
78.7513566568297
 30
0.0
  0
VERTEX
  5
3AE
330
2E0
100
AcDbEntity
  8
4_ANYTOOL_CUTTHROUGH_OUTSI
100
AcDbVertex
100
AcDb2dVertex
 10
-59.86404538558781
 20
30.47881446330575
 30
0.0
  0
VERTEX
  5
3AF
330
2E0
100
AcDbEntity
  8
4_ANYTOOL_CUTTHROUGH_OUTSI
100
AcDbVertex
100
AcDb2dVertex
 10
-59.85000997467887
 20
30.39622685712675
 30
0.0
 42
-0.4142135623763799
  0
VERTEX
  5
3B0
330
2E0
100
AcDbEntity
  8
4_ANYTOOL_CUTTHROUGH_OUTSI
100
AcDbVertex
100
AcDb2dVertex
 10
-66.10000997469979
 20
24.14622685713039
 30
0.0
  0
VERTEX
  5
3B1
330
2E0
100
AcDbEntity
  8
4_ANYTOOL_CUTTHROUGH_OUTSI
100
AcDbVertex
100
AcDb2dVertex
 10
-144.1000099747471
 20
24.14622685721406
 30
0.0
 42
-0.4142135623766744
  0
VERTEX
  5
3B2
330
2E0
100
AcDbEntity
  8
4_ANYTOOL_CUTTHROUGH_OUTSI
100
AcDbVertex
100
AcDb2dVertex
 10
-150.3500099747871
 20
30.39622685722134
 30
0.0
  0
VERTEX
  5
3B3
330
2E0
100
AcDbEntity
  8
4_ANYTOOL_CUTTHROUGH_OUTSI
100
AcDbVertex
100
AcDb2dVertex
 10
-150.3359745638736
 20
30.47881446340036
 30
0.0
  0
VERTEX
  5
3B4
330
2E0
100
AcDbEntity
  8
4_ANYTOOL_CUTTHROUGH_OUTSI
100
AcDbVertex
100
AcDb2dVertex
 10
-133.4368616898246
 20
78.76242166569864
 30
0.0
  0
VERTEX
  5
3B5
330
2E0
100
AcDbEntity
  8
4_ANYTOOL_CUTTHROUGH_OUTSI
100
AcDbVertex
100
AcDb2dVertex
 10
-133.205530979554
 20
80.14622685720504
 30
0.0
  0
VERTEX
  5
3B6
330
2E0
100
AcDbEntity
  8
4_ANYTOOL_CUTTHROUGH_OUTSI
100
AcDbVertex
100
AcDb2dVertex
 10
-271.8944889701052
 20
80.14622685734503
 30
0.0
  0
VERTEX
  5
3B7
330
2E0
100
AcDbEntity
  8
4_ANYTOOL_CUTTHROUGH_OUTSI
100
AcDbVertex
100
AcDb2dVertex
 10
-271.6595786128497
 20
78.7513566570116
 30
0.0
  0
VERTEX
  5
3B8
330
2E0
100
AcDbEntity
  8
4_ANYTOOL_CUTTHROUGH_OUTSI
100
AcDbVertex
100
AcDb2dVertex
 10
-254.7640453861241
 20
30.47881446348038
 30
0.0
  0
VERTEX
  5
3B9
330
2E0
100
AcDbEntity
  8
4_ANYTOOL_CUTTHROUGH_OUTSI
100
AcDbVertex
100
AcDb2dVertex
 10
-254.7500099752142
 20
30.39622685730137
 30
0.0
 42
-0.4142135623746293
  0
VERTEX
  5
3BA
330
2E0
100
AcDbEntity
  8
4_ANYTOOL_CUTTHROUGH_OUTSI
100
AcDbVertex
100
AcDb2dVertex
 10
-261.0000099752287
 20
24.14622685731956
 30
0.0
  0
VERTEX
  5
3BB
330
2E0
100
AcDbEntity
  8
4_ANYTOOL_CUTTHROUGH_OUTSI
100
AcDbVertex
100
AcDb2dVertex
 10
-339.000009975287
 20
24.14622685739596
 30
0.0
 42
-0.4142135623788916
  0
VERTEX
  5
3BC
330
2E0
100
AcDbEntity
  8
4_ANYTOOL_CUTTHROUGH_OUTSI
100
AcDbVertex
100
AcDb2dVertex
 10
-345.2500099753161
 20
30.39622685740324
 30
0.0
  0
VERTEX
  5
3BD
330
2E0
100
AcDbEntity
  8
4_ANYTOOL_CUTTHROUGH_OUTSI
100
AcDbVertex
100
AcDb2dVertex
 10
-345.2359745644115
 20
30.47881446358281
 30
0.0
  0
VERTEX
  5
3BE
330
2E0
100
AcDbEntity
  8
4_ANYTOOL_CUTTHROUGH_OUTSI
100
AcDbVertex
100
AcDb2dVertex
 10
-328.3368616903645
 20
78.76242166585871
 30
0.0
  0
VERTEX
  5
3BF
330
2E0
100
AcDbEntity
  8
4_ANYTOOL_CUTTHROUGH_OUTSI
100
AcDbVertex
100
AcDb2dVertex
 10
-328.10553098008
 20
80.14622685739819
 30
0.0
  0
VERTEX
  5
3C0
330
2E0
100
AcDbEntity
  8
4_ANYTOOL_CUTTHROUGH_OUTSI
100
AcDbVertex
100
AcDb2dVertex
 10
-466.7944889699756
 20
80.14622685754875
 30
0.0
  0
VERTEX
  5
3C1
330
2E0
100
AcDbEntity
  8
4_ANYTOOL_CUTTHROUGH_OUTSI
100
AcDbVertex
100
AcDb2dVertex
 10
-466.5595786123508
 20
78.75135665718622
 30
0.0
  0
VERTEX
  5
3C2
330
2E0
100
AcDbEntity
  8
4_ANYTOOL_CUTTHROUGH_OUTSI
100
AcDbVertex
100
AcDb2dVertex
 10
-449.6640453856307
 20
30.47881446366227
 30
0.0
  0
VERTEX
  5
3C3
330
2E0
100
AcDbEntity
  8
4_ANYTOOL_CUTTHROUGH_OUTSI
100
AcDbVertex
100
AcDb2dVertex
 10
-449.6500099747204
 20
30.39622685748327
 30
0.0
 42
-0.4142135623742785
  0
VERTEX
  5
3C4
330
2E0
100
AcDbEntity
  8
4_ANYTOOL_CUTTHROUGH_OUTSI
100
AcDbVertex
100
AcDb2dVertex
 10
-455.9000099747354
 20
24.14622685749418
 30
0.0
  0
VERTEX
  5
3C5
330
2E0
100
AcDbEntity
  8
4_ANYTOOL_CUTTHROUGH_OUTSI
100
AcDbVertex
100
AcDb2dVertex
 10
-533.9000099747755
 20
24.14622685757786
 30
0.0
 42
-0.4142135623771874
  0
VERTEX
  5
3C6
330
2E0
100
AcDbEntity
  8
4_ANYTOOL_CUTTHROUGH_OUTSI
100
AcDbVertex
100
AcDb2dVertex
 10
-540.1500099748191
 20
30.39622685757786
 30
0.0
  0
VERTEX
  5
3C7
330
2E0
100
AcDbEntity
  8
4_ANYTOOL_CUTTHROUGH_OUTSI
100
AcDbVertex
100
AcDb2dVertex
 10
-540.1359745639128
 20
30.47881446375682
 30
0.0
  0
VERTEX
  5
3C8
330
2E0
100
AcDbEntity
  8
4_ANYTOOL_CUTTHROUGH_OUTSI
100
AcDbVertex
100
AcDb2dVertex
 10
-523.2368616898675
 20
78.76242166605516
 30
0.0
  0
VERTEX
  5
3C9
330
2E0
100
AcDbEntity
  8
4_ANYTOOL_CUTTHROUGH_OUTSI
100
AcDbVertex
100
AcDb2dVertex
 10
-523.0055309795733
 20
80.14622685761452
 30
0.0
  0
VERTEX
  5
3CA
330
2E0
100
AcDbEntity
  8
4_ANYTOOL_CUTTHROUGH_OUTSI
100
AcDbVertex
100
AcDb2dVertex
 10
-535.4044472263595
 20
80.1462268577161
 30
0.0
 42
0.3178372451923221
  0
VERTEX
  5
3CB
330
2E0
100
AcDbEntity
  8
4_ANYTOOL_CUTTHROUGH_OUTSI
100
AcDbVertex
100
AcDb2dVertex
 10
-540.8255992154741
 20
76.3128935243647
 30
0.0
 42
-0.7071067811801174
  0
VERTEX
  5
3CC
330
2E0
100
AcDbEntity
  8
4_ANYTOOL_CUTTHROUGH_OUTSI
100
AcDbVertex
100
AcDb2dVertex
 10
-563.9244207342588
 20
76.31289352440383
 30
0.0
 42
0.3178372451936842
  0
SEQEND
  5
3CD
330
2E0
100
AcDbEntity
  8
4_ANYTOOL_CUTTHROUGH_OUTSI
  0
ENDSEC
  0
SECTION
  2
OBJECTS
  0
DICTIONARY
  5
C
330
0
100
AcDbDictionary
  3
ACAD_GROUP
350
D
  3
ACAD_LAYOUT
350
1A
  3
ACAD_MATERIAL
350
43
  3
ACAD_MLEADERSTYLE
350
5B
  3
ACAD_MLINESTYLE
350
17
  3
ACAD_PLOTSETTINGS
350
19
  3
ACAD_SCALELIST
350
47
  3
ACAD_VISUALSTYLE
350
2A
  3
ACDBHEADERROUNDTRIPXREC
350
3CE
  3
ACDBVARIABLEDICTIONARY
350
3EF
  3
DWGPROPS
350
3F6
  0
DICTIONARY
  5
3F7
330
8
100
AcDbDictionary
280
     1
  3
ACAD_XREC_ROUNDTRIP
360
3F8
  0
DICTIONARY
  5
D
102
{ACAD_REACTORS
330
C
102
}
330
C
100
AcDbDictionary
  0
DICTIONARY
  5
1A
102
{ACAD_REACTORS
330
C
102
}
330
C
100
AcDbDictionary
  0
DICTIONARY
  5
43
102
{ACAD_REACTORS
330
C
102
}
330
C
100
AcDbDictionary
  3
BYBLOCK
350
45
  3
BYLAYER
350
44
  3
GLOBAL
350
46
  0
DICTIONARY
  5
5B
102
{ACAD_REACTORS
330
C
102
}
330
C
100
AcDbDictionary
  3
STANDARD
350
5C
  0
DICTIONARY
  5
17
102
{ACAD_REACTORS
330
C
102
}
330
C
100
AcDbDictionary
  3
STANDARD
350
18
  0
DICTIONARY
  5
19
102
{ACAD_REACTORS
330
C
102
}
330
C
100
AcDbDictionary
  0
DICTIONARY
  5
47
102
{ACAD_REACTORS
330
C
102
}
330
C
100
AcDbDictionary
  3
A0
350
48
  3
A1
350
49
  3
A2
350
4A
  3
A3
350
4B
  3
A4
350
4C
  3
A5
350
4D
  3
A6
350
4E
  3
A7
350
4F
  3
A8
350
50
  3
A9
350
51
  3
B1
350
52
  3
B2
350
53
  3
B3
350
54
  3
B4
350
55
  3
B5
350
56
  3
B6
350
57
  3
B7
350
58
  0
DICTIONARY
  5
2A
102
{ACAD_REACTORS
330
C
102
}
330
C
100
AcDbDictionary
  3
2DWIREFRAME
350
2F
  3
BASIC
350
32
  3
BRIGHTEN
350
36
  3
COLORCHANGE
350
3A
  3
CONCEPTUAL
350
34
  3
DIM
350
35
  3
EDGECOLOROFF
350
3D
  3
FACEPATTERN
350
39
  3
FLAT
350
2B
  3
FLATWITHEDGES
350
2C
  3
GOURAUD
350
2D
  3
GOURAUDWITHEDGES
350
2E
  3
HIDDEN
350
31
  3
JITTEROFF
350
3B
  3
LINEPATTERN
350
38
  3
OVERHANGOFF
350
3C
  3
REALISTIC
350
33
  3
SHADED
350
42
  3
SHADED_WITH_EDGES
350
41
  3
SHADES_OF_GRAY
350
3E
  3
SKETCHY
350
3F
  3
THICKEN
350
37
  3
WIREFRAME
350
30
  3
X-RAY
350
40
  0
DICTIONARY
  5
3CE
102
{ACAD_REACTORS
330
C
102
}
330
C
100
AcDbDictionary
  3
CEPSNID
350
3D8
  3
CEPSNTYPE
350
3D7
  3
DIMSTYLEDATA
350
3EE
  3
FINGERPRINTGUID
350
3D9
  3
HYPERLINKBASE
350
3D1
  3
INSUNITS
350
3D6
  3
LAYOUTDICT
350
3D3
  3
LWETCUNION
350
3D5
  3
PLOTSETDICT
350
3D4
  3
PSVPSCALE
350
3DB
  3
PUCSBASE
350
3DE
  3
PUCSORGBACK
350
3E4
  3
PUCSORGBOTTOM
350
3E0
  3
PUCSORGFRONT
350
3E3
  3
PUCSORGLEFT
350
3E1
  3
PUCSORGRIGHT
350
3E2
  3
PUCSORGTOP
350
3DF
  3
PUCSORTHOREF
350
3DC
  3
PUCSORTHOVIEW
350
3DD
  3
STYLESHEET
350
3D2
  3
TSTACKALIGN
350
3CF
  3
TSTACKSIZE
350
3D0
  3
UCSBASE
350
3E7
  3
UCSORGBACK
350
3ED
  3
UCSORGBOTTOM
350
3E9
  3
UCSORGFRONT
350
3EC
  3
UCSORGLEFT
350
3EA
  3
UCSORGRIGHT
350
3EB
  3
UCSORGTOP
350
3E8
  3
UCSORTHOREF
350
3E5
  3
UCSORTHOVIEW
350
3E6
  3
VERSIONGUID
350
3DA
  0
DICTIONARY
  5
3EF
102
{ACAD_REACTORS
330
C
102
}
330
C
100
AcDbDictionary
  3
CANNOSCALE
350
3F9
  3
CMLEADERSTYLE
350
3F1
  3
CTABLESTYLE
350
3F0
  3
DIMASSOC
350
3F4
  3
HIDETEXT
350
3F5
  3
MSLTSCALE
350
3FA
  0
XRECORD
  5
3F6
102
{ACAD_REACTORS
330
C
102
}
330
C
100
AcDbXrecord
  1
DWGPROPS COOKIE
  2

  3

  4

  6

  7

  8
clayt
  9

300
=
301
=
302
=
303
=
304
=
305
=
306
=
307
=
308
=
309
=
 40
0.0
 41
2461243.619536169
 42
2461243.61953632
  1

 90
        0
  0
XRECORD
  5
3F8
102
{ACAD_REACTORS
330
3F7
102
}
330
3F7
100
AcDbXrecord
102
VTR_0.000_0.000_1.000_1.000_VISUALSTYLE
340
2F
102
VTR_0.000_0.000_1.000_1.000_GRIDDISPLAY
 70
     3
102
VTR_0.000_0.000_1.000_1.000_GRIDMAJOR
 70
     5
102
VTR_0.000_0.000_1.000_1.000_DEFAULTLIGHTING
280
     1
102
VTR_0.000_0.000_1.000_1.000_DEFAULTLIGHTINGTYPE
 70
     1
102
VTR_0.000_0.000_1.000_1.000_BRIGHTNESS
141
0.0
102
VTR_0.000_0.000_1.000_1.000_CONTRAST
142
0.0
  0
MATERIAL
  5
45
102
{ACAD_REACTORS
330
43
102
}
102
{ACAD_XDICTIONARY
360
3FD
102
}
330
43
100
AcDbMaterial
  1
BYBLOCK
  0
MATERIAL
  5
44
102
{ACAD_REACTORS
330
43
102
}
102
{ACAD_XDICTIONARY
360
3FB
102
}
330
43
100
AcDbMaterial
  1
BYLAYER
  0
MATERIAL
  5
46
102
{ACAD_REACTORS
330
43
102
}
102
{ACAD_XDICTIONARY
360
3FF
102
}
330
43
100
AcDbMaterial
  1
GLOBAL
  0
ACAD_PROXY_OBJECT
  5
5C
102
{ACAD_REACTORS
330
5B
102
}
330
5B
100
AcDbProxyObject
 90
      499
 91
      505
 93
      610
310
40901902A4063FBFFFFFE056BD1B81E855B9FC0AD7A3703D0AD73F4214DD185B99185C9900AD7A3703D0AC73F90141901A02B5E8DC0F42B1CFC02B5E8DC0F42B1CFE5764000000000000300FC0
340
14
340
0
340
11
340
0
 94
        0
1001
ACAD_MLEADERVER
1070
     2
  0
MLINESTYLE
  5
18
102
{ACAD_REACTORS
330
17
102
}
330
17
100
AcDbMlineStyle
  2
Standard
 70
     0
  3

 62
   256
 51
90.0
 52
90.0
 71
     2
 49
0.5
 62
   256
  6
BYLAYER
 49
-0.5
 62
   256
  6
BYLAYER
  0
ACAD_PROXY_OBJECT
  5
48
102
{ACAD_REACTORS
330
47
102
}
330
47
100
AcDbProxyObject
 90
      499
 91
      503
 93
       41
310
903313A31580
  0
ACAD_PROXY_OBJECT
  5
49
102
{ACAD_REACTORS
330
47
102
}
330
47
100
AcDbProxyObject
 90
      499
 91
      503
 93
      257
310
90E312F31323822203D2031272D3022000000000000200FC000000000000284000
  0
ACAD_PROXY_OBJECT
  5
4A
102
{ACAD_REACTORS
330
47
102
}
330
47
100
AcDbProxyObject
 90
      499
 91
      503
 93
      249
310
90D312F363422203D2031272D3022000000000000240FC000000000000284000
  0
ACAD_PROXY_OBJECT
  5
4B
102
{ACAD_REACTORS
330
47
102
}
330
47
100
AcDbProxyObject
 90
      499
 91
      503
 93
      249
310
90D312F333222203D2031272D3022000000000000280FC000000000000284000
  0
ACAD_PROXY_OBJECT
  5
4C
102
{ACAD_REACTORS
330
47
102
}
330
47
100
AcDbProxyObject
 90
      499
 91
      503
 93
      249
310
90D312F313622203D2031272D30220000000000002C0FC000000000000284000
  0
ACAD_PROXY_OBJECT
  5
4D
102
{ACAD_REACTORS
330
47
102
}
330
47
100
AcDbProxyObject
 90
      499
 91
      503
 93
      249
310
90D332F333222203D2031272D30220000000000002E0FC000000000000284000
  0
ACAD_PROXY_OBJECT
  5
4E
102
{ACAD_REACTORS
330
47
102
}
330
47
100
AcDbProxyObject
 90
      499
 91
      503
 93
      241
310
90C312F3822203D2031272D3022000000000000300FC000000000000284000
  0
ACAD_PROXY_OBJECT
  5
4F
102
{ACAD_REACTORS
330
47
102
}
330
47
100
AcDbProxyObject
 90
      499
 91
      503
 93
      249
310
90D332F313622203D2031272D3022000000000000320FC000000000000284000
  0
ACAD_PROXY_OBJECT
  5
50
102
{ACAD_REACTORS
330
47
102
}
330
47
100
AcDbProxyObject
 90
      499
 91
      503
 93
      241
310
90C312F3422203D2031272D3022000000000000340FC000000000000284000
  0
ACAD_PROXY_OBJECT
  5
51
102
{ACAD_REACTORS
330
47
102
}
330
47
100
AcDbProxyObject
 90
      499
 91
      503
 93
      241
310
90C332F3822203D2031272D3022000000000000360FC000000000000284000
  0
ACAD_PROXY_OBJECT
  5
52
102
{ACAD_REACTORS
330
47
102
}
330
47
100
AcDbProxyObject
 90
      499
 91
      503
 93
      241
310
90C312F3222203D2031272D3022000000000000380FC000000000000284000
  0
ACAD_PROXY_OBJECT
  5
53
102
{ACAD_REACTORS
330
47
102
}
330
47
100
AcDbProxyObject
 90
      499
 91
      503
 93
      241
310
90C332F3422203D2031272D30220000000000003A0FC000000000000284000
  0
ACAD_PROXY_OBJECT
  5
54
102
{ACAD_REACTORS
330
47
102
}
330
47
100
AcDbProxyObject
 90
      499
 91
      503
 93
      161
310
90A3122203D2031272D30224000000000000284000
  0
ACAD_PROXY_OBJECT
  5
55
102
{ACAD_REACTORS
330
47
102
}
330
47
100
AcDbProxyObject
 90
      499
 91
      503
 93
      257
310
90E312D312F3222203D2031272D30220000000000003E0FC000000000000284000
  0
ACAD_PROXY_OBJECT
  5
56
102
{ACAD_REACTORS
330
47
102
}
330
47
100
AcDbProxyObject
 90
      499
 91
      503
 93
      225
310
90A3322203D2031272D302200000000000002100000000000000284000
  0
ACAD_PROXY_OBJECT
  5
57
102
{ACAD_REACTORS
330
47
102
}
330
47
100
AcDbProxyObject
 90
      499
 91
      503
 93
      225
310
90A3622203D2031272D302200000000000006100000000000000284000
  0
ACAD_PROXY_OBJECT
  5
58
102
{ACAD_REACTORS
330
47
102
}
330
47
100
AcDbProxyObject
 90
      499
 91
      503
 93
      249
310
90D31272D3022203D2031272D30220000000000000A100000000000000284000
  0
ACAD_PROXY_OBJECT
  5
2F
102
{ACAD_REACTORS
330
2A
102
}
330
2A
100
AcDbProxyObject
 90
      499
 91
      501
 93
      436
310
42CC9915DA5C99599C985B595049028333333333333E33F0000000000000F90107901411070040501600405405064090741402480A0340
1001
ACAD
1000
AcDbSavedByObjectVersion
1070
     0
  0
ACAD_PROXY_OBJECT
  5
32
102
{ACAD_REACTORS
330
2A
102
}
330
2A
100
AcDbProxyObject
 90
      499
 91
      501
 93
      388
310
4150985CDA58D07406404333333333333E33F0000000000000F90107A41107004050150841D405064090741402480A0350
1001
ACAD
1000
AcDbSavedByObjectVersion
1070
     0
  0
ACAD_PROXY_OBJECT
  5
36
102
{ACAD_REACTORS
330
2A
102
}
330
2A
100
AcDbProxyObject
 90
      499
 91
      501
 93
      428
310
42109C9A59DA1D195B90C409028333333333333E33F0000000000000F9010790141107004050150841D405064090741402480A029950
1001
ACAD
1000
AcDbSavedByObjectVersion
1070
     0
  0
ACAD_PROXY_OBJECT
  5
3A
102
{ACAD_REACTORS
330
2A
102
}
330
2A
100
AcDbProxyObject
 90
      499
 91
      501
 93
      452
310
42D0DBDB1BDC90DA185B99D95104090240C333333333333E33F0000000000000F90108901411070040501508421405064090741402480A0350
1001
ACAD
1000
AcDbSavedByObjectVersion
1070
     0
  0
ACAD_PROXY_OBJECT
  5
34
102
{ACAD_REACTORS
330
2A
102
}
330
2A
100
AcDbProxyObject
 90
      499
 91
      501
 93
      500
310
4290DBDB98D95C1D1D585B10940D028333333333333E33F0000000000000F90107902409070040501000000000018199010841D405064090740C02480A0340
1001
ACAD
1000
AcDbSavedByObjectVersion
1070
     0
  0
ACAD_PROXY_OBJECT
  5
35
102
{ACAD_REACTORS
330
2A
102
}
330
2A
100
AcDbProxyObject
 90
      499
 91
      501
 93
      412
310
40D11A5B50B409028333333333333E33F0000000000000F9010790141107004050150841D405064090741402480A02677FFFFFD0
1001
ACAD
1000
AcDbSavedByObjectVersion
1070
     0
  0
ACAD_PROXY_OBJECT
  5
3D
102
{ACAD_REACTORS
330
2A
102
}
330
2A
100
AcDbProxyObject
 90
      499
 91
      501
 93
      452
310
43115919D950DBDB1BDC93D999916409028333333333333E33F0000000000000F9010790141107004050150841D405064090741402480A0350
1001
ACAD
1000
AcDbSavedByObjectVersion
1070
     0
  0
ACAD_PROXY_OBJECT
  5
39
102
{ACAD_REACTORS
330
2A
102
}
330
2A
100
AcDbProxyObject
 90
      499
 91
      501
 93
      444
310
42D19858D95C185D1D195C9B90F409028333333333333E33F0000000000000F9010790141107004050150841D405064090741402480A0350
1001
ACAD
1000
AcDbSavedByObjectVersion
1070
     0
  0
ACAD_PROXY_OBJECT
  5
2B
102
{ACAD_REACTORS
330
2A
102
}
330
2A
100
AcDbProxyObject
 90
      499
 91
      501
 93
      380
310
41119B185D240901404333333333333E33F0000000000000F9010740A907004050150841D405064090741402480A1B50
1001
ACAD
1000
AcDbSavedByObjectVersion
1070
     0
  0
ACAD_PROXY_OBJECT
  5
2C
102
{ACAD_REACTORS
330
2A
102
}
330
2A
100
AcDbProxyObject
 90
      499
 91
      501
 93
      468
310
43519B185D15DA5D1A115919D95CD0140901404333333333333E33F0000000000000F90107409019070040501600405405064090741402480A1B50
1001
ACAD
1000
AcDbSavedByObjectVersion
1070
     0
  0
ACAD_PROXY_OBJECT
  5
2D
102
{ACAD_REACTORS
330
2A
102
}
330
2A
100
AcDbProxyObject
 90
      499
 91
      501
 93
      404
310
41D1DBDD5C985D5910240902404333333333333E33F0000000000000F9010740A9070040501641D405064090741402480A1B50
1001
ACAD
1000
AcDbSavedByObjectVersion
1070
     0
  0
ACAD_PROXY_OBJECT
  5
2E
102
{ACAD_REACTORS
330
2A
102
}
330
2A
100
AcDbProxyObject
 90
      499
 91
      501
 93
      492
310
4411DBDD5C985D5915DA5D1A115919D95CD0340902404333333333333E33F0000000000000F90107409019070040501600405405064090741402480A1B50
1001
ACAD
1000
AcDbSavedByObjectVersion
1070
     0
  0
ACAD_PROXY_OBJECT
  5
31
102
{ACAD_REACTORS
330
2A
102
}
330
2A
100
AcDbProxyObject
 90
      499
 91
      501
 93
      476
310
41921A5919195B90640502408333333333333E33F0000000000000F901079024090700405020000000000001110200405405064090740C02480A0340
1001
ACAD
1000
AcDbSavedByObjectVersion
1070
     0
  0
ACAD_PROXY_OBJECT
  5
3B
102
{ACAD_REACTORS
330
2A
102
}
330
2A
100
AcDbProxyObject
 90
      499
 91
      501
 93
      428
310
42529A5D1D195C93D999914409028333333333333E33F0000000000000F9010790141107004050150A41D405064090741402480A0350
1001
ACAD
1000
AcDbSavedByObjectVersion
1070
     0
  0
ACAD_PROXY_OBJECT
  5
38
102
{ACAD_REACTORS
330
2A
102
}
330
2A
100
AcDbProxyObject
 90
      499
 91
      501
 93
      444
310
42D31A5B995C185D1D195C9B90E409028333333333333E33F0000000000000F9010790141107004050750841D405064090741402483A0350
1001
ACAD
1000
AcDbSavedByObjectVersion
1070
     0
  0
ACAD_PROXY_OBJECT
  5
3C
102
{ACAD_REACTORS
330
2A
102
}
330
2A
100
AcDbProxyObject
 90
      499
 91
      501
 93
      444
310
42D3DD995C9A185B99D3D999915409028333333333333E33F0000000000000F9010790141107004050150941D405064090741402480A0350
1001
ACAD
1000
AcDbSavedByObjectVersion
1070
     0
  0
ACAD_PROXY_OBJECT
  5
33
102
{ACAD_REACTORS
330
2A
102
}
330
2A
100
AcDbProxyObject
 90
      499
 91
      501
 93
      428
310
425499585B1A5CDD1A58D08409038333333333333E33F0000000000000F9010740A907004050150800405405064090740C02480A1B40
1001
ACAD
1000
AcDbSavedByObjectVersion
1070
     0
  0
ACAD_PROXY_OBJECT
  5
42
102
{ACAD_REACTORS
330
2A
102
}
330
2A
100
AcDbProxyObject
 90
      499
 91
      501
 93
      420
310
4194DA1859195911B40902404333333333333E33F0000000000000F9010740A41107004050150800405405064090840C02480A0B40
1001
ACAD
1000
AcDbSavedByObjectVersion
1070
     0
  0
ACAD_PROXY_OBJECT
  5
41
102
{ACAD_REACTORS
330
2A
102
}
330
2A
100
AcDbProxyObject
 90
      499
 91
      501
 93
      516
310
4454DA18591959081DDA5D1A08195919D95CD1A40902404333333333333E33F0000000000000F901074090142907004050250800405405064090740C02480A0B40
1001
ACAD
1000
AcDbSavedByObjectVersion
1070
     0
  0
ACAD_PROXY_OBJECT
  5
3E
102
{ACAD_REACTORS
330
2A
102
}
330
2A
100
AcDbProxyObject
 90
      499
 91
      501
 93
      532
310
4394DA1859195CC81BD98811DC985E5174090240C333333333333E33F0000000000000F901079024090741D01000000000000111010841D405064090740C02480A0340
1001
ACAD
1000
AcDbSavedByObjectVersion
1070
     0
  0
ACAD_PROXY_OBJECT
  5
3F
102
{ACAD_REACTORS
330
2A
102
}
330
2A
100
AcDbProxyObject
 90
      499
 91
      501
 93
      476
310
41D4DAD95D18DA1E51840502408333333333333E33F0000000000000F901079024090741D01000000000000111010B41D405064090741802480A0340
1001
ACAD
1000
AcDbSavedByObjectVersion
1070
     0
  0
ACAD_PROXY_OBJECT
  5
37
102
{ACAD_REACTORS
330
2A
102
}
330
2A
100
AcDbProxyObject
 90
      499
 91
      501
 93
      412
310
41D51A1A58DAD95B90D409028333333333333E33F0000000000000F9010790141107004050150C41D405064090741402480A0350
1001
ACAD
1000
AcDbSavedByObjectVersion
1070
     0
  0
ACAD_PROXY_OBJECT
  5
30
102
{ACAD_REACTORS
330
2A
102
}
330
2A
100
AcDbProxyObject
 90
      499
 91
      501
 93
      420
310
4255DA5C99599C985B595059028333333333333E33F0000000000000F90107901411070040501600405405064090740C02480A0340
1001
ACAD
1000
AcDbSavedByObjectVersion
1070
     0
  0
ACAD_PROXY_OBJECT
  5
40
102
{ACAD_REACTORS
330
2A
102
}
330
2A
100
AcDbProxyObject
 90
      499
 91
      501
 93
      404
310
41560B54985E51940902404000000000000E03F0000000000000F9010740501907004050150841D405064090740C02480A1B40
1001
ACAD
1000
AcDbSavedByObjectVersion
1070
     0
  0
XRECORD
  5
3D8
102
{ACAD_REACTORS
330
3CE
102
}
330
3CE
100
AcDbXrecord
340
0
  0
XRECORD
  5
3D7
102
{ACAD_REACTORS
330
3CE
102
}
330
3CE
100
AcDbXrecord
 90
        0
  0
XRECORD
  5
3EE
102
{ACAD_REACTORS
330
3CE
102
}
330
3CE
100
AcDbXrecord
1000
DSTYLE
1002
{
1070
   171
 70
     2
1070
   143
 40
25.4
1070
   274
 70
     2
1070
    41
 40
0.18
1070
   141
 40
0.09
1070
   271
 70
     4
1070
    43
 40
0.38
1070
   278
 70
    46
1070
    44
 40
0.18
1070
    42
 40
0.0625
1070
   147
 40
0.09
1070
    77
 70
     0
1070
   272
 70
     4
1070
    73
 70
     1
1070
   279
 70
     2
1070
   172
 70
     0
1070
    74
 70
     1
1070
   283
 70
     1
1070
   340
340
11
1070
   140
 40
0.18
1070
   284
 70
     0
1070
    78
 70
     0
1002
}
  0
XRECORD
  5
3D9
102
{ACAD_REACTORS
330
3CE
102
}
330
3CE
100
AcDbXrecord
  1
{4114ed8f-626c-4805-ad98-d7dc0bbf4732}
  0
XRECORD
  5
3D1
102
{ACAD_REACTORS
330
3CE
102
}
330
3CE
100
AcDbXrecord
  1

  0
XRECORD
  5
3D6
102
{ACAD_REACTORS
330
3CE
102
}
330
3CE
100
AcDbXrecord
 90
        4
  0
XRECORD
  5
3D3
102
{ACAD_REACTORS
330
3CE
102
}
330
3CE
100
AcDbXrecord
340
1A
  0
XRECORD
  5
3D5
102
{ACAD_REACTORS
330
3CE
102
}
330
3CE
100
AcDbXrecord
 90
    10781
  0
XRECORD
  5
3D4
102
{ACAD_REACTORS
330
3CE
102
}
330
3CE
100
AcDbXrecord
340
19
  0
XRECORD
  5
3DB
102
{ACAD_REACTORS
330
3CE
102
}
330
3CE
100
AcDbXrecord
 40
0.0
  0
XRECORD
  5
3DE
102
{ACAD_REACTORS
330
3CE
102
}
330
3CE
100
AcDbXrecord
340
0
  0
XRECORD
  5
3E4
102
{ACAD_REACTORS
330
3CE
102
}
330
3CE
100
AcDbXrecord
 10
0.0
 20
0.0
 30
0.0
  0
XRECORD
  5
3E0
102
{ACAD_REACTORS
330
3CE
102
}
330
3CE
100
AcDbXrecord
 10
0.0
 20
0.0
 30
0.0
  0
XRECORD
  5
3E3
102
{ACAD_REACTORS
330
3CE
102
}
330
3CE
100
AcDbXrecord
 10
0.0
 20
0.0
 30
0.0
  0
XRECORD
  5
3E1
102
{ACAD_REACTORS
330
3CE
102
}
330
3CE
100
AcDbXrecord
 10
0.0
 20
0.0
 30
0.0
  0
XRECORD
  5
3E2
102
{ACAD_REACTORS
330
3CE
102
}
330
3CE
100
AcDbXrecord
 10
0.0
 20
0.0
 30
0.0
  0
XRECORD
  5
3DF
102
{ACAD_REACTORS
330
3CE
102
}
330
3CE
100
AcDbXrecord
 10
0.0
 20
0.0
 30
0.0
  0
XRECORD
  5
3DC
102
{ACAD_REACTORS
330
3CE
102
}
330
3CE
100
AcDbXrecord
340
0
  0
XRECORD
  5
3DD
102
{ACAD_REACTORS
330
3CE
102
}
330
3CE
100
AcDbXrecord
 70
     0
  0
XRECORD
  5
3D2
102
{ACAD_REACTORS
330
3CE
102
}
330
3CE
100
AcDbXrecord
  1

  0
XRECORD
  5
3CF
102
{ACAD_REACTORS
330
3CE
102
}
330
3CE
100
AcDbXrecord
 90
        1
  0
XRECORD
  5
3D0
102
{ACAD_REACTORS
330
3CE
102
}
330
3CE
100
AcDbXrecord
 90
       70
  0
XRECORD
  5
3E7
102
{ACAD_REACTORS
330
3CE
102
}
330
3CE
100
AcDbXrecord
340
0
  0
XRECORD
  5
3ED
102
{ACAD_REACTORS
330
3CE
102
}
330
3CE
100
AcDbXrecord
 10
0.0
 20
0.0
 30
0.0
  0
XRECORD
  5
3E9
102
{ACAD_REACTORS
330
3CE
102
}
330
3CE
100
AcDbXrecord
 10
0.0
 20
0.0
 30
0.0
  0
XRECORD
  5
3EC
102
{ACAD_REACTORS
330
3CE
102
}
330
3CE
100
AcDbXrecord
 10
0.0
 20
0.0
 30
0.0
  0
XRECORD
  5
3EA
102
{ACAD_REACTORS
330
3CE
102
}
330
3CE
100
AcDbXrecord
 10
0.0
 20
0.0
 30
0.0
  0
XRECORD
  5
3EB
102
{ACAD_REACTORS
330
3CE
102
}
330
3CE
100
AcDbXrecord
 10
0.0
 20
0.0
 30
0.0
  0
XRECORD
  5
3E8
102
{ACAD_REACTORS
330
3CE
102
}
330
3CE
100
AcDbXrecord
 10
0.0
 20
0.0
 30
0.0
  0
XRECORD
  5
3E5
102
{ACAD_REACTORS
330
3CE
102
}
330
3CE
100
AcDbXrecord
340
0
  0
XRECORD
  5
3E6
102
{ACAD_REACTORS
330
3CE
102
}
330
3CE
100
AcDbXrecord
 70
     0
  0
XRECORD
  5
3DA
102
{ACAD_REACTORS
330
3CE
102
}
330
3CE
100
AcDbXrecord
  1
{FAEB1C32-E019-11D5-929B-00C0DF256EC4}
  0
DICTIONARYVAR
  5
3F9
102
{ACAD_REACTORS
330
3EF
102
}
330
3EF
100
DictionaryVariables
280
     0
  1
1:1
  0
DICTIONARYVAR
  5
3F1
102
{ACAD_REACTORS
330
3EF
102
}
330
3EF
100
DictionaryVariables
280
     0
  1
Standard
  0
DICTIONARYVAR
  5
3F0
102
{ACAD_REACTORS
330
3EF
102
}
330
3EF
100
DictionaryVariables
280
     0
  1
Standard
  0
DICTIONARYVAR
  5
3F4
102
{ACAD_REACTORS
330
3EF
102
}
330
3EF
100
DictionaryVariables
280
     0
  1
2
  0
DICTIONARYVAR
  5
3F5
102
{ACAD_REACTORS
330
3EF
102
}
330
3EF
100
DictionaryVariables
280
     0
  1
1
  0
DICTIONARYVAR
  5
3FA
102
{ACAD_REACTORS
330
3EF
102
}
330
3EF
100
DictionaryVariables
280
     0
  1
1
  0
DICTIONARY
  5
3FD
330
45
100
AcDbDictionary
280
     1
  3
ACAD_XREC_ROUNDTRIP
360
3FE
  0
DICTIONARY
  5
3FB
330
44
100
AcDbDictionary
280
     1
  3
ACAD_XREC_ROUNDTRIP
360
3FC
  0
DICTIONARY
  5
3FF
330
46
100
AcDbDictionary
280
     1
  3
ACAD_XREC_ROUNDTRIP
360
400
  0
XRECORD
  5
3FE
102
{ACAD_REACTORS
330
3FD
102
}
330
3FD
100
AcDbXrecord
102
MATERIAL
148
0.0
149
0.0
149
0.0
 93
        0
 94
      127
282
     0
 72
     1
 77
     1
171
     1
175
     1
179
     1
273
     0
  0
XRECORD
  5
3FC
102
{ACAD_REACTORS
330
3FB
102
}
330
3FB
100
AcDbXrecord
102
MATERIAL
148
0.0
149
0.0
149
0.0
 93
        0
 94
      127
282
     0
 72
     1
 77
     1
171
     1
175
     1
179
     1
273
     0
  0
XRECORD
  5
400
102
{ACAD_REACTORS
330
3FF
102
}
330
3FF
100
AcDbXrecord
102
MATERIAL
148
0.0
149
0.0
149
0.0
 93
        0
 94
      127
282
     0
 72
     1
 77
     1
171
     1
175
     1
179
     1
273
     0
  0
ENDSEC
  0
EOF
