  0
SECTION
  2
HEADER
  9
$ACADVER
  1
AC1014
  9
$ACADMAINTVER
 70
     9
  9
$DWGCODEPAGE
  3
ANSI_1252
  9
$INSBASE
 10
0.0
 20
0.0
 30
0.0
  9
$EXTMIN
 10
-175.505049099891
 20
-92.58404877208523
 30
0.0
  9
$EXTMAX
 10
161.49512943437
 20
92.91595122816943
 30
0.0
  9
$LIMMIN
 10
0.0
 20
0.0
  9
$LIMMAX
 10
12.0
 20
9.0
  9
$ORTHOMODE
 70
     0
  9
$REGENMODE
 70
     1
  9
$FILLMODE
 70
     1
  9
$QTEXTMODE
 70
     0
  9
$MIRRTEXT
 70
     1
  9
$DRAGMODE
 70
     2
  9
$LTSCALE
 40
1.0
  9
$OSMODE
 70
    37
  9
$ATTMODE
 70
     1
  9
$TEXTSIZE
 40
0.2
  9
$TRACEWID
 40
0.05
  9
$TEXTSTYLE
  7
STANDARD
  9
$CLAYER
  8
0
  9
$CELTYPE
  6
BYLAYER
  9
$CECOLOR
 62
   256
  9
$CELTSCALE
 40
1.0
  9
$DELOBJ
 70
     1
  9
$DISPSILH
 70
     0
  9
$DIMSCALE
 40
1.0
  9
$DIMASZ
 40
0.18
  9
$DIMEXO
 40
0.0625
  9
$DIMDLI
 40
0.38
  9
$DIMRND
 40
0.0
  9
$DIMDLE
 40
0.0
  9
$DIMEXE
 40
0.18
  9
$DIMTP
 40
0.0
  9
$DIMTM
 40
0.0
  9
$DIMTXT
 40
0.18
  9
$DIMCEN
 40
0.09
  9
$DIMTSZ
 40
0.0
  9
$DIMTOL
 70
     0
  9
$DIMLIM
 70
     0
  9
$DIMTIH
 70
     1
  9
$DIMTOH
 70
     1
  9
$DIMSE1
 70
     0
  9
$DIMSE2
 70
     0
  9
$DIMTAD
 70
     0
  9
$DIMZIN
 70
     0
  9
$DIMBLK
  1

  9
$DIMASO
 70
     1
  9
$DIMSHO
 70
     1
  9
$DIMPOST
  1

  9
$DIMAPOST
  1

  9
$DIMALT
 70
     0
  9
$DIMALTD
 70
     2
  9
$DIMALTF
 40
25.4
  9
$DIMLFAC
 40
1.0
  9
$DIMTOFL
 70
     0
  9
$DIMTVP
 40
0.0
  9
$DIMTIX
 70
     0
  9
$DIMSOXD
 70
     0
  9
$DIMSAH
 70
     0
  9
$DIMBLK1
  1

  9
$DIMBLK2
  1

  9
$DIMSTYLE
  2
STANDARD_ACAD
  9
$DIMCLRD
 70
     0
  9
$DIMCLRE
 70
     0
  9
$DIMCLRT
 70
     0
  9
$DIMTFAC
 40
1.0
  9
$DIMGAP
 40
0.09
  9
$DIMJUST
 70
     0
  9
$DIMSD1
 70
     0
  9
$DIMSD2
 70
     0
  9
$DIMTOLJ
 70
     1
  9
$DIMTZIN
 70
     0
  9
$DIMALTZ
 70
     0
  9
$DIMALTTZ
 70
     0
  9
$DIMFIT
 70
     5
  9
$DIMUPT
 70
     0
  9
$DIMUNIT
 70
     2
  9
$DIMDEC
 70
     4
  9
$DIMTDEC
 70
     4
  9
$DIMALTU
 70
     2
  9
$DIMALTTD
 70
     2
  9
$DIMTXSTY
  7
STANDARD
  9
$DIMAUNIT
 70
     0
  9
$LUNITS
 70
     2
  9
$LUPREC
 70
     3
  9
$SKETCHINC
 40
0.1
  9
$FILLETRAD
 40
0.0
  9
$AUNITS
 70
     0
  9
$AUPREC
 70
     0
  9
$MENU
  1
.
  9
$ELEVATION
 40
0.0
  9
$PELEVATION
 40
0.0
  9
$THICKNESS
 40
0.0
  9
$LIMCHECK
 70
     0
  9
$CHAMFERA
 40
0.0
  9
$CHAMFERB
 40
0.0
  9
$CHAMFERC
 40
0.0
  9
$CHAMFERD
 40
0.0
  9
$SKPOLY
 70
     0
  9
$TDCREATE
 40
2461243.661221285
  9
$TDUPDATE
 40
2461243.661221389
  9
$TDINDWG
 40
0.0000000116
  9
$TDUSRTIMER
 40
0.0000000116
  9
$USRTIMER
 70
     1
  9
$ANGBASE
 50
0.0
  9
$ANGDIR
 70
     0
  9
$PDMODE
 70
     0
  9
$PDSIZE
 40
0.0
  9
$PLINEWID
 40
0.0
  9
$COORDS
 70
     1
  9
$SPLFRAME
 70
     0
  9
$SPLINETYPE
 70
     6
  9
$SPLINESEGS
 70
     8
  9
$ATTDIA
 70
     0
  9
$ATTREQ
 70
     1
  9
$HANDLING
 70
     1
  9
$HANDSEED
  5
1DA
  9
$SURFTAB1
 70
     6
  9
$SURFTAB2
 70
     6
  9
$SURFTYPE
 70
     6
  9
$SURFU
 70
     6
  9
$SURFV
 70
     6
  9
$UCSNAME
  2

  9
$UCSORG
 10
0.0
 20
0.0
 30
0.0
  9
$UCSXDIR
 10
1.0
 20
0.0
 30
0.0
  9
$UCSYDIR
 10
0.0
 20
1.0
 30
0.0
  9
$PUCSNAME
  2

  9
$PUCSORG
 10
0.0
 20
0.0
 30
0.0
  9
$PUCSXDIR
 10
1.0
 20
0.0
 30
0.0
  9
$PUCSYDIR
 10
0.0
 20
1.0
 30
0.0
  9
$USERI1
 70
     0
  9
$USERI2
 70
     0
  9
$USERI3
 70
     0
  9
$USERI4
 70
     0
  9
$USERI5
 70
     0
  9
$USERR1
 40
0.0
  9
$USERR2
 40
0.0
  9
$USERR3
 40
0.0
  9
$USERR4
 40
0.0
  9
$USERR5
 40
0.0
  9
$WORLDVIEW
 70
     1
  9
$SHADEDGE
 70
     3
  9
$SHADEDIF
 70
    70
  9
$TILEMODE
 70
     1
  9
$MAXACTVP
 70
    64
  9
$PINSBASE
 10
0.0
 20
0.0
 30
0.0
  9
$PLIMCHECK
 70
     0
  9
$PEXTMIN
 10
1.000000000000000E+20
 20
1.000000000000000E+20
 30
1.000000000000000E+20
  9
$PEXTMAX
 10
-1.000000000000000E+20
 20
-1.000000000000000E+20
 30
-1.000000000000000E+20
  9
$PLIMMIN
 10
0.0
 20
0.0
  9
$PLIMMAX
 10
12.0
 20
9.0
  9
$UNITMODE
 70
     0
  9
$VISRETAIN
 70
     1
  9
$PLINEGEN
 70
     0
  9
$PSLTSCALE
 70
     1
  9
$TREEDEPTH
 70
  3020
  9
$PICKSTYLE
 70
     1
  9
$CMLSTYLE
  2
STANDARD
  9
$CMLJUST
 70
     0
  9
$CMLSCALE
 40
1.0
  9
$PROXYGRAPHICS
 70
     1
  9
$MEASUREMENT
 70
     1
  0
ENDSEC
  0
SECTION
  2
CLASSES
  0
CLASS
  1
ACDBDICTIONARYWDFLT
  2
AcDbDictionaryWithDefault
  3
ObjectDBX Classes
 90
        0
280
     0
281
     0
  0
CLASS
  1
VISUALSTYLE
  2
AcDbVisualStyle
  3
ObjectDBX Classes
 90
     4095
280
     0
281
     0
  0
CLASS
  1
MATERIAL
  2
AcDbMaterial
  3
ObjectDBX Classes
 90
     1153
280
     0
281
     0
  0
CLASS
  1
SCALE
  2
AcDbScale
  3
ObjectDBX Classes
 90
     1153
280
     0
281
     0
  0
CLASS
  1
TABLESTYLE
  2
AcDbTableStyle
  3
ObjectDBX Classes
 90
     4095
280
     0
281
     0
  0
CLASS
  1
MLEADERSTYLE
  2
AcDbMLeaderStyle
  3
ACDB_MLEADERSTYLE_CLASS
 90
     4095
280
     0
281
     0
  0
CLASS
  1
SUN
  2
AcDbSun
  3
SCENEOE
 90
     1153
280
     0
281
     0
  0
CLASS
  1
DICTIONARYVAR
  2
AcDbDictionaryVar
  3
ObjectDBX Classes
 90
        0
280
     0
281
     0
  0
CLASS
  1
XRECORD
  2
AcDbXrecord
  3
ObjectDBX Classes
 90
        0
280
     0
281
     0
  0
CLASS
  1
LWPOLYLINE
  2
AcDbPolyline
  3
ObjectDBX Classes
 90
        0
280
     0
281
     1
  0
CLASS
  1
HATCH
  2
AcDbHatch
  3
ObjectDBX Classes
 90
        0
280
     0
281
     1
  0
CLASS
  1
ACDBPLACEHOLDER
  2
AcDbPlaceHolder
  3
ObjectDBX Classes
 90
        0
280
     0
281
     0
  0
CLASS
  1
LAYOUT
  2
AcDbLayout
  3
ObjectDBX Classes
 90
        0
280
     0
281
     0
  0
ENDSEC
  0
SECTION
  2
TABLES
  0
TABLE
  2
VPORT
  5
8
102
{ACAD_XDICTIONARY
360
1CF
102
}
330
0
100
AcDbSymbolTable
 70
     1
  0
VPORT
  5
29
330
8
100
AcDbSymbolTableRecord
100
AcDbViewportTableRecord
  2
*ACTIVE
 70
     0
 10
0.0
 20
0.0
 11
1.0
 21
1.0
 12
10.42990654205607
 22
4.5
 13
0.0
 23
0.0
 14
0.5
 24
0.5
 15
0.5
 25
0.5
 16
0.0
 26
0.0
 36
1.0
 17
0.0
 27
0.0
 37
0.0
 40
9.0
 41
1.972972972850329
 42
50.0
 43
0.0
 44
0.0
 50
0.0
 51
0.0
 71
     0
 72
   100
 73
     1
 74
     3
 75
     0
 76
     0
 77
     0
 78
     0
  0
ENDTAB
  0
TABLE
  2
LTYPE
  5
5
330
0
100
AcDbSymbolTable
 70
     1
  0
LTYPE
  5
14
330
5
100
AcDbSymbolTableRecord
100
AcDbLinetypeTableRecord
  2
BYBLOCK
 70
     0
  3

 72
    65
 73
     0
 40
0.0
  0
LTYPE
  5
15
330
5
100
AcDbSymbolTableRecord
100
AcDbLinetypeTableRecord
  2
BYLAYER
 70
     0
  3

 72
    65
 73
     0
 40
0.0
  0
LTYPE
  5
16
330
5
100
AcDbSymbolTableRecord
100
AcDbLinetypeTableRecord
  2
CONTINUOUS
 70
     0
  3
Solid line
 72
    65
 73
     0
 40
0.0
  0
ENDTAB
  0
TABLE
  2
LAYER
  5
2
330
0
100
AcDbSymbolTable
 70
     3
  0
LAYER
  5
10
330
2
100
AcDbSymbolTableRecord
100
AcDbLayerTableRecord
  2
0
 70
     0
 62
     7
  6
CONTINUOUS
  0
LAYER
  5
5F
330
2
100
AcDbSymbolTableRecord
100
AcDbLayerTableRecord
  2
1_ANYTOOL_1MMDEEP_LABELS_S
 70
     0
 62
     2
  6
CONTINUOUS
  0
LAYER
  5
173
330
2
100
AcDbSymbolTableRecord
100
AcDbLayerTableRecord
  2
4_ANYTOOL_CUTTHROUGH_OUTSI
 70
     0
 62
     5
  6
CONTINUOUS
  0
ENDTAB
  0
TABLE
  2
STYLE
  5
3
330
0
100
AcDbSymbolTable
 70
     1
  0
STYLE
  5
11
330
3
100
AcDbSymbolTableRecord
100
AcDbTextStyleTableRecord
  2
STANDARD
 70
     0
 40
0.0
 41
1.0
 50
0.0
 71
     0
 42
0.2
  3
txt
  4

  0
ENDTAB
  0
TABLE
  2
VIEW
  5
6
330
0
100
AcDbSymbolTable
 70
     0
  0
ENDTAB
  0
TABLE
  2
UCS
  5
7
330
0
100
AcDbSymbolTable
 70
     0
  0
ENDTAB
  0
TABLE
  2
APPID
  5
9
330
0
100
AcDbSymbolTable
 70
     3
  0
APPID
  5
12
330
9
100
AcDbSymbolTableRecord
100
AcDbRegAppTableRecord
  2
ACAD
 70
     0
  0
APPID
  5
5E
330
9
100
AcDbSymbolTableRecord
100
AcDbRegAppTableRecord
  2
RHINO
 70
     0
  0
APPID
  5
1D9
330
9
100
AcDbSymbolTableRecord
100
AcDbRegAppTableRecord
  2
ACAD_MLEADERVER
 70
     0
  0
ENDTAB
  0
TABLE
  2
DIMSTYLE
  5
A
330
0
100
AcDbSymbolTable
 70
     1
  0
DIMSTYLE
105
27
330
A
100
AcDbSymbolTableRecord
100
AcDbDimStyleTableRecord
  2
STANDARD_ACAD
 70
     0
  3

  4

  5

  6

  7

 40
1.0
 41
0.18
 42
0.0625
 43
0.38
 44
0.18
 45
0.0
 46
0.0
 47
0.0
 48
0.0
140
0.18
141
0.09
142
0.0
143
25.4
144
1.0
145
0.0
146
1.0
147
0.09
 71
     0
 72
     0
 73
     1
 74
     1
 75
     0
 76
     0
 77
     0
 78
     0
170
     0
171
     2
172
     0
173
     0
174
     0
175
     0
176
     0
177
     0
178
     0
270
     2
271
     4
272
     4
273
     2
274
     2
340
11
275
     0
280
     0
281
     0
282
     0
283
     1
284
     0
285
     0
286
     0
287
     3
288
     0
  0
ENDTAB
  0
TABLE
  2
BLOCK_RECORD
  5
1
330
0
100
AcDbSymbolTable
 70
     0
  0
BLOCK_RECORD
  5
1F
330
1
100
AcDbSymbolTableRecord
100
AcDbBlockTableRecord
  2
*MODEL_SPACE
  0
BLOCK_RECORD
  5
1B
330
1
100
AcDbSymbolTableRecord
100
AcDbBlockTableRecord
  2
*PAPER_SPACE
  0
ENDTAB
  0
ENDSEC
  0
SECTION
  2
BLOCKS
  0
BLOCK
  5
20
330
1F
100
AcDbEntity
  8
0
100
AcDbBlockBegin
  2
*MODEL_SPACE
 70
     0
 10
0.0
 20
0.0
 30
0.0
  3
*MODEL_SPACE
  1

  0
ENDBLK
  5
21
330
1F
100
AcDbEntity
  8
0
100
AcDbBlockEnd
  0
BLOCK
  5
1C
330
1B
100
AcDbEntity
 67
     1
  8
0
100
AcDbBlockBegin
  2
*PAPER_SPACE
 70
     0
 10
0.0
 20
0.0
 30
0.0
  3
*PAPER_SPACE
  1

  0
ENDBLK
  5
1D
330
1B
100
AcDbEntity
 67
     1
  8
0
100
AcDbBlockEnd
  0
ENDSEC
  0
SECTION
  2
ENTITIES
  0
LINE
  5
60
330
1F
100
AcDbEntity
  8
1_ANYTOOL_1MMDEEP_LABELS_S
100
AcDbLine
 10
82.62833184032206
 20
-14.69999999998981
 30
0.0
 11
64.32833184032279
 21
-14.69999999998981
 31
0.0
  0
LINE
  5
61
330
1F
100
AcDbEntity
  8
1_ANYTOOL_1MMDEEP_LABELS_S
100
AcDbLine
 10
82.62833184032206
 20
-29.99999999999272
 30
0.0
 11
82.62833184032206
 21
0.000000000007276
 31
0.0
  0
LINE
  5
62
330
1F
100
AcDbEntity
  8
1_ANYTOOL_1MMDEEP_LABELS_S
100
AcDbLine
 10
64.32833184032279
 20
0.000000000007276
 30
0.0
 11
64.32833184032279
 21
-29.99999999999272
 31
0.0
  0
LINE
  5
63
330
1F
100
AcDbEntity
  8
1_ANYTOOL_1MMDEEP_LABELS_S
100
AcDbLine
 10
60.8569032688938
 20
-0.4714285714217112
 30
0.0
 11
43.67118898317858
 21
-31.24285714284633
 31
0.0
  0
LINE
  5
64
330
1F
100
AcDbEntity
  8
1_ANYTOOL_1MMDEEP_LABELS_S
100
AcDbLine
 10
16.67118898317858
 20
-21.34285714285215
 30
0.0
 11
38.44261755460684
 21
-21.34285714285215
 31
0.0
  0
POLYLINE
  5
65
330
1F
100
AcDbEntity
  8
1_ANYTOOL_1MMDEEP_LABELS_S
100
AcDb2dPolyline
 66
     1
 10
0.0
 20
0.0
 30
0.0
  0
VERTEX
  5
66
330
65
100
AcDbEntity
  8
1_ANYTOOL_1MMDEEP_LABELS_S
100
AcDbVertex
100
AcDb2dVertex
 10
32.65690326889307
 20
-29.99999999999272
 30
0.0
  0
VERTEX
  5
67
330
65
100
AcDbEntity
  8
1_ANYTOOL_1MMDEEP_LABELS_S
100
AcDbVertex
100
AcDb2dVertex
 10
32.69976041174959
 20
0.0428571428637952
 30
0.0
  0
VERTEX
  5
68
330
65
100
AcDbEntity
  8
1_ANYTOOL_1MMDEEP_LABELS_S
100
AcDbVertex
100
AcDb2dVertex
 10
16.67118898317858
 20
-21.34285714285215
 30
0.0
  0
SEQEND
  5
69
330
65
100
AcDbEntity
  8
1_ANYTOOL_1MMDEEP_LABELS_S
  0
LINE
  5
6A
330
1F
100
AcDbEntity
  8
1_ANYTOOL_1MMDEEP_LABELS_S
100
AcDbLine
 10
12.38547469746482
 20
-16.11428571427678
 30
0.0
 11
3.599760411751049
 21
-16.19999999998981
 31
0.0
  0
POLYLINE
  5
6B
330
1F
100
AcDbEntity
  8
1_ANYTOOL_1MMDEEP_LABELS_S
100
AcDb2dPolyline
 66
     1
 10
0.0
 20
0.0
 30
0.0
  0
VERTEX
  5
6C
330
6B
100
AcDbEntity
  8
1_ANYTOOL_1MMDEEP_LABELS_S
100
AcDbVertex
100
AcDb2dVertex
 10
-17.35738244539243
 20
0.000000000007276
 30
0.0
  0
VERTEX
  5
6D
330
6B
100
AcDbEntity
  8
1_ANYTOOL_1MMDEEP_LABELS_S
100
AcDbVertex
100
AcDb2dVertex
 10
-17.35738244539243
 20
-29.99999999999272
 30
0.0
  0
VERTEX
  5
6E
330
6B
100
AcDbEntity
  8
1_ANYTOOL_1MMDEEP_LABELS_S
100
AcDbVertex
100
AcDb2dVertex
 10
-0.2573824453902489
 20
-29.99999999999272
 30
0.0
  0
SEQEND
  5
6F
330
6B
100
AcDbEntity
  8
1_ANYTOOL_1MMDEEP_LABELS_S
  0
LINE
  5
70
330
1F
100
AcDbEntity
  8
1_ANYTOOL_1MMDEEP_LABELS_S
100
AcDbLine
 10
-22.5002395882475
 20
-16.11428571427678
 30
0.0
 11
-31.28595387396126
 21
-16.19999999998981
 31
0.0
  0
POLYLINE
  5
71
330
1F
100
AcDbEntity
  8
1_ANYTOOL_1MMDEEP_LABELS_S
100
AcDb2dPolyline
 66
     1
 10
0.0
 20
0.0
 30
0.0
 70
     1
  0
VERTEX
  5
72
330
71
100
AcDbEntity
  8
1_ANYTOOL_1MMDEEP_LABELS_S
100
AcDbVertex
100
AcDb2dVertex
 10
-46.45738244539098
 20
0.3428571428667055
 30
0.0
  0
VERTEX
  5
73
330
71
100
AcDbEntity
  8
1_ANYTOOL_1MMDEEP_LABELS_S
100
AcDbVertex
100
AcDb2dVertex
 10
-46.08589807039098
 20
0.3369977678667055
 30
0.0
  0
VERTEX
  5
74
330
71
100
AcDbEntity
  8
1_ANYTOOL_1MMDEEP_LABELS_S
100
AcDbVertex
100
AcDb2dVertex
 10
-45.721444945391
 20
0.3194196428667055
 30
0.0
  0
VERTEX
  5
75
330
71
100
AcDbEntity
  8
1_ANYTOOL_1MMDEEP_LABELS_S
100
AcDbVertex
100
AcDb2dVertex
 10
-45.36402307039103
 20
0.2901227678667055
 30
0.0
  0
VERTEX
  5
76
330
71
100
AcDbEntity
  8
1_ANYTOOL_1MMDEEP_LABELS_S
100
AcDbVertex
100
AcDb2dVertex
 10
-45.18794885164105
 20
0.2710797991167055
 30
0.0
  0
VERTEX
  5
77
330
71
100
AcDbEntity
  8
1_ANYTOOL_1MMDEEP_LABELS_S
100
AcDbVertex
100
AcDb2dVertex
 10
-45.01363244539107
 20
0.2491071428667055
 30
0.0
  0
VERTEX
  5
78
330
71
100
AcDbEntity
  8
1_ANYTOOL_1MMDEEP_LABELS_S
100
AcDbVertex
100
AcDb2dVertex
 10
-44.84107385164109
 20
0.2242047991167055
 30
0.0
  0
VERTEX
  5
79
330
71
100
AcDbEntity
  8
1_ANYTOOL_1MMDEEP_LABELS_S
100
AcDbVertex
100
AcDb2dVertex
 10
-44.67027307039112
 20
0.1963727678667055
 30
0.0
  0
VERTEX
  5
7A
330
71
100
AcDbEntity
  8
1_ANYTOOL_1MMDEEP_LABELS_S
100
AcDbVertex
100
AcDb2dVertex
 10
-44.50123010164115
 20
0.1656110491167055
 30
0.0
  0
VERTEX
  5
7B
330
71
100
AcDbEntity
  8
1_ANYTOOL_1MMDEEP_LABELS_S
100
AcDbVertex
100
AcDb2dVertex
 10
-44.33394494539118
 20
0.1319196428667055
 30
0.0
  0
VERTEX
  5
7C
330
71
100
AcDbEntity
  8
1_ANYTOOL_1MMDEEP_LABELS_S
100
AcDbVertex
100
AcDb2dVertex
 10
-44.16841760164122
 20
0.0952985491167055
 30
0.0
  0
VERTEX
  5
7D
330
71
100
AcDbEntity
  8
1_ANYTOOL_1MMDEEP_LABELS_S
100
AcDbVertex
100
AcDb2dVertex
 10
-44.00464807039126
 20
0.0557477678667055
 30
0.0
  0
VERTEX
  5
7E
330
71
100
AcDbEntity
  8
1_ANYTOOL_1MMDEEP_LABELS_S
100
AcDbVertex
100
AcDb2dVertex
 10
-43.8426363516413
 20
0.0132672991167055
 30
0.0
  0
VERTEX
  5
7F
330
71
100
AcDbEntity
  8
1_ANYTOOL_1MMDEEP_LABELS_S
100
AcDbVertex
100
AcDb2dVertex
 10
-43.68238244539134
 20
-0.0321428571332945
 30
0.0
  0
VERTEX
  5
80
330
71
100
AcDbEntity
  8
1_ANYTOOL_1MMDEEP_LABELS_S
100
AcDbVertex
100
AcDb2dVertex
 10
-43.52388635164139
 20
-0.0804827008832945
 30
0.0
  0
VERTEX
  5
81
330
71
100
AcDbEntity
  8
1_ANYTOOL_1MMDEEP_LABELS_S
100
AcDbVertex
100
AcDb2dVertex
 10
-43.36714807039144
 20
-0.1317522321332945
 30
0.0
  0
VERTEX
  5
82
330
71
100
AcDbEntity
  8
1_ANYTOOL_1MMDEEP_LABELS_S
100
AcDbVertex
100
AcDb2dVertex
 10
-43.21216760164149
 20
-0.1859514508832945
 30
0.0
  0
VERTEX
  5
83
330
71
100
AcDbEntity
  8
1_ANYTOOL_1MMDEEP_LABELS_S
100
AcDbVertex
100
AcDb2dVertex
 10
-43.05894494539154
 20
-0.2430803571332945
 30
0.0
  0
VERTEX
  5
84
330
71
100
AcDbEntity
  8
1_ANYTOOL_1MMDEEP_LABELS_S
100
AcDbVertex
100
AcDb2dVertex
 10
-42.9074801016416
 20
-0.3031389508832945
 30
0.0
  0
VERTEX
  5
85
330
71
100
AcDbEntity
  8
1_ANYTOOL_1MMDEEP_LABELS_S
100
AcDbVertex
100
AcDb2dVertex
 10
-42.75777307039166
 20
-0.3661272321332945
 30
0.0
  0
VERTEX
  5
86
330
71
100
AcDbEntity
  8
1_ANYTOOL_1MMDEEP_LABELS_S
100
AcDbVertex
100
AcDb2dVertex
 10
-42.60982385164173
 20
-0.4320452008832945
 30
0.0
  0
VERTEX
  5
87
330
71
100
AcDbEntity
  8
1_ANYTOOL_1MMDEEP_LABELS_S
100
AcDbVertex
100
AcDb2dVertex
 10
-42.4636324453918
 20
-0.5008928571332945
 30
0.0
  0
VERTEX
  5
88
330
71
100
AcDbEntity
  8
1_ANYTOOL_1MMDEEP_LABELS_S
100
AcDbVertex
100
AcDb2dVertex
 10
-42.31919885164186
 20
-0.5726702008832945
 30
0.0
  0
VERTEX
  5
89
330
71
100
AcDbEntity
  8
1_ANYTOOL_1MMDEEP_LABELS_S
100
AcDbVertex
100
AcDb2dVertex
 10
-42.17652307039194
 20
-0.6473772321332945
 30
0.0
  0
VERTEX
  5
8A
330
71
100
AcDbEntity
  8
1_ANYTOOL_1MMDEEP_LABELS_S
100
AcDbVertex
100
AcDb2dVertex
 10
-42.03560510164201
 20
-0.7250139508832945
 30
0.0
  0
VERTEX
  5
8B
330
71
100
AcDbEntity
  8
1_ANYTOOL_1MMDEEP_LABELS_S
100
AcDbVertex
100
AcDb2dVertex
 10
-41.89644494539209
 20
-0.8055803571332945
 30
0.0
  0
VERTEX
  5
8C
330
71
100
AcDbEntity
  8
1_ANYTOOL_1MMDEEP_LABELS_S
100
AcDbVertex
100
AcDb2dVertex
 10
-41.75904260164217
 20
-0.8890764508832945
 30
0.0
  0
VERTEX
  5
8D
330
71
100
AcDbEntity
  8
1_ANYTOOL_1MMDEEP_LABELS_S
100
AcDbVertex
100
AcDb2dVertex
 10
-41.62339807039226
 20
-0.9755022321332945
 30
0.0
  0
VERTEX
  5
8E
330
71
100
AcDbEntity
  8
1_ANYTOOL_1MMDEEP_LABELS_S
100
AcDbVertex
100
AcDb2dVertex
 10
-41.48951135164234
 20
-1.064857700883294
 30
0.0
  0
VERTEX
  5
8F
330
71
100
AcDbEntity
  8
1_ANYTOOL_1MMDEEP_LABELS_S
100
AcDbVertex
100
AcDb2dVertex
 10
-41.09789583824931
 20
-1.342466517847669
 30
0.0
  0
VERTEX
  5
90
330
71
100
AcDbEntity
  8
1_ANYTOOL_1MMDEEP_LABELS_S
100
AcDbVertex
100
AcDb2dVertex
 10
-40.84443601682051
 20
-1.534151785704921
 30
0.0
  0
VERTEX
  5
91
330
71
100
AcDbEntity
  8
1_ANYTOOL_1MMDEEP_LABELS_S
100
AcDbVertex
100
AcDb2dVertex
 10
-40.59700298110602
 20
-1.732198660705052
 30
0.0
  0
VERTEX
  5
92
330
71
100
AcDbEntity
  8
1_ANYTOOL_1MMDEEP_LABELS_S
100
AcDbVertex
100
AcDb2dVertex
 10
-40.35559673110583
 20
-1.936607142848061
 30
0.0
  0
VERTEX
  5
93
330
71
100
AcDbEntity
  8
1_ANYTOOL_1MMDEEP_LABELS_S
100
AcDbVertex
100
AcDb2dVertex
 10
-40.12021726681996
 20
-2.147377232133948
 30
0.0
  0
VERTEX
  5
94
330
71
100
AcDbEntity
  8
1_ANYTOOL_1MMDEEP_LABELS_S
100
AcDbVertex
100
AcDb2dVertex
 10
-39.89086458824841
 20
-2.364508928562714
 30
0.0
  0
VERTEX
  5
95
330
71
100
AcDbEntity
  8
1_ANYTOOL_1MMDEEP_LABELS_S
100
AcDbVertex
100
AcDb2dVertex
 10
-39.66753869539116
 20
-2.588002232134357
 30
0.0
  0
VERTEX
  5
96
330
71
100
AcDbEntity
  8
1_ANYTOOL_1MMDEEP_LABELS_S
100
AcDbVertex
100
AcDb2dVertex
 10
-39.45023958824822
 20
-2.817857142848879
 30
0.0
  0
VERTEX
  5
97
330
71
100
AcDbEntity
  8
1_ANYTOOL_1MMDEEP_LABELS_S
100
AcDbVertex
100
AcDb2dVertex
 10
-39.2389672668196
 20
-3.05407366070628
 30
0.0
  0
VERTEX
  5
98
330
71
100
AcDbEntity
  8
1_ANYTOOL_1MMDEEP_LABELS_S
100
AcDbVertex
100
AcDb2dVertex
 10
-39.03372173110529
 20
-3.296651785706558
 30
0.0
  0
VERTEX
  5
99
330
71
100
AcDbEntity
  8
1_ANYTOOL_1MMDEEP_LABELS_S
100
AcDbVertex
100
AcDb2dVertex
 10
-38.83450298110529
 20
-3.545591517849715
 30
0.0
  0
VERTEX
  5
9A
330
71
100
AcDbEntity
  8
1_ANYTOOL_1MMDEEP_LABELS_S
100
AcDbVertex
100
AcDb2dVertex
 10
-38.6413110168196
 20
-3.80089285713575
 30
0.0
  0
VERTEX
  5
9B
330
71
100
AcDbEntity
  8
1_ANYTOOL_1MMDEEP_LABELS_S
100
AcDbVertex
100
AcDb2dVertex
 10
-38.45414583824822
 20
-4.062555803564663
 30
0.0
  0
VERTEX
  5
9C
330
71
100
AcDbEntity
  8
1_ANYTOOL_1MMDEEP_LABELS_S
100
AcDbVertex
100
AcDb2dVertex
 10
-38.27300744539116
 20
-4.330580357136455
 30
0.0
  0
VERTEX
  5
9D
330
71
100
AcDbEntity
  8
1_ANYTOOL_1MMDEEP_LABELS_S
100
AcDbVertex
100
AcDb2dVertex
 10
-38.09789583824841
 20
-4.604966517851125
 30
0.0
  0
VERTEX
  5
9E
330
71
100
AcDbEntity
  8
1_ANYTOOL_1MMDEEP_LABELS_S
100
AcDbVertex
100
AcDb2dVertex
 10
-37.76039583824874
 20
-5.171484374993923
 30
0.0
  0
VERTEX
  5
9F
330
71
100
AcDbEntity
  8
1_ANYTOOL_1MMDEEP_LABELS_S
100
AcDbVertex
100
AcDb2dVertex
 10
-37.59800744539177
 20
-5.46093749999352
 30
0.0
  0
VERTEX
  5
A0
330
71
100
AcDbEntity
  8
1_ANYTOOL_1MMDEEP_LABELS_S
100
AcDbVertex
100
AcDb2dVertex
 10
-37.44164583824906
 20
-5.754073660707462
 30
0.0
  0
VERTEX
  5
A1
330
71
100
AcDbEntity
  8
1_ANYTOOL_1MMDEEP_LABELS_S
100
AcDbVertex
100
AcDb2dVertex
 10
-37.2913110168206
 20
-6.05089285713575
 30
0.0
  0
VERTEX
  5
A2
330
71
100
AcDbEntity
  8
1_ANYTOOL_1MMDEEP_LABELS_S
100
AcDbVertex
100
AcDb2dVertex
 10
-37.1470029811064
 20
-6.351395089278384
 30
0.0
  0
VERTEX
  5
A3
330
71
100
AcDbEntity
  8
1_ANYTOOL_1MMDEEP_LABELS_S
100
AcDbVertex
100
AcDb2dVertex
 10
-37.00872173110645
 20
-6.655580357135364
 30
0.0
  0
VERTEX
  5
A4
330
71
100
AcDbEntity
  8
1_ANYTOOL_1MMDEEP_LABELS_S
100
AcDbVertex
100
AcDb2dVertex
 10
-36.87646726682075
 20
-6.963448660706689
 30
0.0
  0
VERTEX
  5
A5
330
71
100
AcDbEntity
  8
1_ANYTOOL_1MMDEEP_LABELS_S
100
AcDbVertex
100
AcDb2dVertex
 10
-36.75023958824931
 20
-7.27499999999236
 30
0.0
  0
VERTEX
  5
A6
330
71
100
AcDbEntity
  8
1_ANYTOOL_1MMDEEP_LABELS_S
100
AcDbVertex
100
AcDb2dVertex
 10
-36.63003869539213
 20
-7.590234374992377
 30
0.0
  0
VERTEX
  5
A7
330
71
100
AcDbEntity
  8
1_ANYTOOL_1MMDEEP_LABELS_S
100
AcDbVertex
100
AcDb2dVertex
 10
-36.5158645882492
 20
-7.90915178570674
 30
0.0
  0
VERTEX
  5
A8
330
71
100
AcDbEntity
  8
1_ANYTOOL_1MMDEEP_LABELS_S
100
AcDbVertex
100
AcDb2dVertex
 10
-36.40771726682053
 20
-8.231752232135449
 30
0.0
  0
VERTEX
  5
A9
330
71
100
AcDbEntity
  8
1_ANYTOOL_1MMDEEP_LABELS_S
100
AcDbVertex
100
AcDb2dVertex
 10
-36.30559673110611
 20
-8.558035714278503
 30
0.0
  0
VERTEX
  5
AA
330
71
100
AcDbEntity
  8
1_ANYTOOL_1MMDEEP_LABELS_S
100
AcDbVertex
100
AcDb2dVertex
 10
-36.20950298110594
 20
-8.888002232135904
 30
0.0
  0
VERTEX
  5
AB
330
71
100
AcDbEntity
  8
1_ANYTOOL_1MMDEEP_LABELS_S
100
AcDbVertex
100
AcDb2dVertex
 10
-36.11943601682003
 20
-9.22165178570765
 30
0.0
  0
VERTEX
  5
AC
330
71
100
AcDbEntity
  8
1_ANYTOOL_1MMDEEP_LABELS_S
100
AcDbVertex
100
AcDb2dVertex
 10
-36.03539583824838
 20
-9.558984374993742
 30
0.0
  0
VERTEX
  5
AD
330
71
100
AcDbEntity
  8
1_ANYTOOL_1MMDEEP_LABELS_S
100
AcDbVertex
100
AcDb2dVertex
 10
-35.80671280253432
 20
-10.58236607142192
 30
0.0
  0
VERTEX
  5
AE
330
71
100
AcDbEntity
  8
1_ANYTOOL_1MMDEEP_LABELS_S
100
AcDbVertex
100
AcDb2dVertex
 10
-35.67613244539189
 20
-11.25803571427832
 30
0.0
  0
VERTEX
  5
AF
330
71
100
AcDbEntity
  8
1_ANYTOOL_1MMDEEP_LABELS_S
100
AcDbVertex
100
AcDb2dVertex
 10
-35.56564137396367
 20
-11.9270089285634
 30
0.0
  0
VERTEX
  5
B0
330
71
100
AcDbEntity
  8
1_ANYTOOL_1MMDEEP_LABELS_S
100
AcDbVertex
100
AcDb2dVertex
 10
-35.47523958824968
 20
-12.58928571427714
 30
0.0
  0
VERTEX
  5
B1
330
71
100
AcDbEntity
  8
1_ANYTOOL_1MMDEEP_LABELS_S
100
AcDbVertex
100
AcDb2dVertex
 10
-35.40492708824991
 20
-13.24486607141955
 30
0.0
  0
VERTEX
  5
B2
330
71
100
AcDbEntity
  8
1_ANYTOOL_1MMDEEP_LABELS_S
100
AcDbVertex
100
AcDb2dVertex
 10
-35.35470387396435
 20
-13.89374999999063
 30
0.0
  0
VERTEX
  5
B3
330
71
100
AcDbEntity
  8
1_ANYTOOL_1MMDEEP_LABELS_S
100
AcDbVertex
100
AcDb2dVertex
 10
-35.32456994539302
 20
-14.53593749999038
 30
0.0
  0
VERTEX
  5
B4
330
71
100
AcDbEntity
  8
1_ANYTOOL_1MMDEEP_LABELS_S
100
AcDbVertex
100
AcDb2dVertex
 10
-35.31452530253591
 20
-15.1714285714188
 30
0.0
  0
VERTEX
  5
B5
330
71
100
AcDbEntity
  8
1_ANYTOOL_1MMDEEP_LABELS_S
100
AcDbVertex
100
AcDb2dVertex
 10
-35.32540699896448
 20
-15.8089285714195
 30
0.0
  0
VERTEX
  5
B6
330
71
100
AcDbEntity
  8
1_ANYTOOL_1MMDEEP_LABELS_S
100
AcDbVertex
100
AcDb2dVertex
 10
-35.35805208825019
 20
-16.44642857142014
 30
0.0
  0
VERTEX
  5
B7
330
71
100
AcDbEntity
  8
1_ANYTOOL_1MMDEEP_LABELS_S
100
AcDbVertex
100
AcDb2dVertex
 10
-35.41246057039304
 20
-17.08392857142073
 30
0.0
  0
VERTEX
  5
B8
330
71
100
AcDbEntity
  8
1_ANYTOOL_1MMDEEP_LABELS_S
100
AcDbVertex
100
AcDb2dVertex
 10
-35.48863244539302
 20
-17.72142857142126
 30
0.0
  0
VERTEX
  5
B9
330
71
100
AcDbEntity
  8
1_ANYTOOL_1MMDEEP_LABELS_S
100
AcDbVertex
100
AcDb2dVertex
 10
-35.58656771325015
 20
-18.35892857142173
 30
0.0
  0
VERTEX
  5
BA
330
71
100
AcDbEntity
  8
1_ANYTOOL_1MMDEEP_LABELS_S
100
AcDbVertex
100
AcDb2dVertex
 10
-35.70626637396441
 20
-18.99642857142214
 30
0.0
  0
VERTEX
  5
BB
330
71
100
AcDbEntity
  8
1_ANYTOOL_1MMDEEP_LABELS_S
100
AcDbVertex
100
AcDb2dVertex
 10
-35.84772842753581
 20
-19.6339285714225
 30
0.0
  0
VERTEX
  5
BC
330
71
100
AcDbEntity
  8
1_ANYTOOL_1MMDEEP_LABELS_S
100
AcDbVertex
100
AcDb2dVertex
 10
-36.01095387396435
 20
-20.2714285714228
 30
0.0
  0
VERTEX
  5
BD
330
71
100
AcDbEntity
  8
1_ANYTOOL_1MMDEEP_LABELS_S
100
AcDbVertex
100
AcDb2dVertex
 10
-36.19594271325003
 20
-20.90892857142305
 30
0.0
  0
VERTEX
  5
BE
330
71
100
AcDbEntity
  8
1_ANYTOOL_1MMDEEP_LABELS_S
100
AcDbVertex
100
AcDb2dVertex
 10
-36.40269494539285
 20
-21.54642857142323
 30
0.0
  0
VERTEX
  5
BF
330
71
100
AcDbEntity
  8
1_ANYTOOL_1MMDEEP_LABELS_S
100
AcDbVertex
100
AcDb2dVertex
 10
-36.63121057039281
 20
-22.18392857142337
 30
0.0
  0
VERTEX
  5
C0
330
71
100
AcDbEntity
  8
1_ANYTOOL_1MMDEEP_LABELS_S
100
AcDbVertex
100
AcDb2dVertex
 10
-36.88148958824991
 20
-22.82142857142344
 30
0.0
  0
VERTEX
  5
C1
330
71
100
AcDbEntity
  8
1_ANYTOOL_1MMDEEP_LABELS_S
100
AcDbVertex
100
AcDb2dVertex
 10
-37.15353199896414
 20
-23.45892857142346
 30
0.0
  0
VERTEX
  5
C2
330
71
100
AcDbEntity
  8
1_ANYTOOL_1MMDEEP_LABELS_S
100
AcDbVertex
100
AcDb2dVertex
 10
-37.44733780253551
 20
-24.09642857142342
 30
0.0
  0
VERTEX
  5
C3
330
71
100
AcDbEntity
  8
1_ANYTOOL_1MMDEEP_LABELS_S
100
AcDbVertex
100
AcDb2dVertex
 10
-37.76290699896403
 20
-24.73392857142332
 30
0.0
  0
VERTEX
  5
C4
330
71
100
AcDbEntity
  8
1_ANYTOOL_1MMDEEP_LABELS_S
100
AcDbVertex
100
AcDb2dVertex
 10
-38.10023958824968
 20
-25.37142857142317
 30
0.0
  0
VERTEX
  5
C5
330
71
100
AcDbEntity
  8
1_ANYTOOL_1MMDEEP_LABELS_S
100
AcDbVertex
100
AcDb2dVertex
 10
-38.27480711057112
 20
-25.68519810267308
 30
0.0
  0
VERTEX
  5
C6
330
71
100
AcDbEntity
  8
1_ANYTOOL_1MMDEEP_LABELS_S
100
AcDbVertex
100
AcDb2dVertex
 10
-38.45565253467826
 20
-25.98900669642299
 30
0.0
  0
VERTEX
  5
C7
330
71
100
AcDbEntity
  8
1_ANYTOOL_1MMDEEP_LABELS_S
100
AcDbVertex
100
AcDb2dVertex
 10
-38.64277586057113
 20
-26.28285435267291
 30
0.0
  0
VERTEX
  5
C8
330
71
100
AcDbEntity
  8
1_ANYTOOL_1MMDEEP_LABELS_S
100
AcDbVertex
100
AcDb2dVertex
 10
-38.83617708824971
 20
-26.56674107142283
 30
0.0
  0
VERTEX
  5
C9
330
71
100
AcDbEntity
  8
1_ANYTOOL_1MMDEEP_LABELS_S
100
AcDbVertex
100
AcDb2dVertex
 10
-39.03585621771401
 20
-26.84066685267275
 30
0.0
  0
VERTEX
  5
CA
330
71
100
AcDbEntity
  8
1_ANYTOOL_1MMDEEP_LABELS_S
100
AcDbVertex
100
AcDb2dVertex
 10
-39.24181324896402
 20
-27.10463169642267
 30
0.0
  0
VERTEX
  5
CB
330
71
100
AcDbEntity
  8
1_ANYTOOL_1MMDEEP_LABELS_S
100
AcDbVertex
100
AcDb2dVertex
 10
-39.45404818199975
 20
-27.3586356026726
 30
0.0
  0
VERTEX
  5
CC
330
71
100
AcDbEntity
  8
1_ANYTOOL_1MMDEEP_LABELS_S
100
AcDbVertex
100
AcDb2dVertex
 10
-39.67256101682119
 20
-27.60267857142253
 30
0.0
  0
VERTEX
  5
CD
330
71
100
AcDbEntity
  8
1_ANYTOOL_1MMDEEP_LABELS_S
100
AcDbVertex
100
AcDb2dVertex
 10
-39.78417164740156
 20
-27.72096470423499
 30
0.0
  0
VERTEX
  5
CE
330
71
100
AcDbEntity
  8
1_ANYTOOL_1MMDEEP_LABELS_S
100
AcDbVertex
100
AcDb2dVertex
 10
-39.89735175342835
 20
-27.83676060267246
 30
0.0
  0
VERTEX
  5
CF
330
71
100
AcDbEntity
  8
1_ANYTOOL_1MMDEEP_LABELS_S
100
AcDbVertex
100
AcDb2dVertex
 10
-40.01210133490157
 20
-27.95006626673493
 30
0.0
  0
VERTEX
  5
D0
330
71
100
AcDbEntity
  8
1_ANYTOOL_1MMDEEP_LABELS_S
100
AcDbVertex
100
AcDb2dVertex
 10
-40.12842039182122
 20
-28.0608816964224
 30
0.0
  0
VERTEX
  5
D1
330
71
100
AcDbEntity
  8
1_ANYTOOL_1MMDEEP_LABELS_S
100
AcDbVertex
100
AcDb2dVertex
 10
-40.2463089241873
 20
-28.16920689173487
 30
0.0
  0
VERTEX
  5
D2
330
71
100
AcDbEntity
  8
1_ANYTOOL_1MMDEEP_LABELS_S
100
AcDbVertex
100
AcDb2dVertex
 10
-40.36576693199981
 20
-28.27504185267234
 30
0.0
  0
VERTEX
  5
D3
330
71
100
AcDbEntity
  8
1_ANYTOOL_1MMDEEP_LABELS_S
100
AcDbVertex
100
AcDb2dVertex
 10
-40.48679441525875
 20
-28.37838657923481
 30
0.0
  0
VERTEX
  5
D4
330
71
100
AcDbEntity
  8
1_ANYTOOL_1MMDEEP_LABELS_S
100
AcDbVertex
100
AcDb2dVertex
 10
-40.60939137396412
 20
-28.47924107142228
 30
0.0
  0
VERTEX
  5
D5
330
71
100
AcDbEntity
  8
1_ANYTOOL_1MMDEEP_LABELS_S
100
AcDbVertex
100
AcDb2dVertex
 10
-40.73355780811591
 20
-28.57760532923475
 30
0.0
  0
VERTEX
  5
D6
330
71
100
AcDbEntity
  8
1_ANYTOOL_1MMDEEP_LABELS_S
100
AcDbVertex
100
AcDb2dVertex
 10
-40.85929371771414
 20
-28.67347935267222
 30
0.0
  0
VERTEX
  5
D7
330
71
100
AcDbEntity
  8
1_ANYTOOL_1MMDEEP_LABELS_S
100
AcDbVertex
100
AcDb2dVertex
 10
-40.98659910275879
 20
-28.7668631417347
 30
0.0
  0
VERTEX
  5
D8
330
71
100
AcDbEntity
  8
1_ANYTOOL_1MMDEEP_LABELS_S
100
AcDbVertex
100
AcDb2dVertex
 10
-41.11547396324987
 20
-28.85775669642217
 30
0.0
  0
VERTEX
  5
D9
330
71
100
AcDbEntity
  8
1_ANYTOOL_1MMDEEP_LABELS_S
100
AcDbVertex
100
AcDb2dVertex
 10
-41.24591829918738
 20
-28.94616001673464
 30
0.0
  0
VERTEX
  5
DA
330
71
100
AcDbEntity
  8
1_ANYTOOL_1MMDEEP_LABELS_S
100
AcDbVertex
100
AcDb2dVertex
 10
-41.37793211057132
 20
-29.03207310267212
 30
0.0
  0
VERTEX
  5
DB
330
71
100
AcDbEntity
  8
1_ANYTOOL_1MMDEEP_LABELS_S
100
AcDbVertex
100
AcDb2dVertex
 10
-41.51151539740169
 20
-29.1154959542346
 30
0.0
  0
VERTEX
  5
DC
330
71
100
AcDbEntity
  8
1_ANYTOOL_1MMDEEP_LABELS_S
100
AcDbVertex
100
AcDb2dVertex
 10
-41.64666815967848
 20
-29.19642857142208
 30
0.0
  0
VERTEX
  5
DD
330
71
100
AcDbEntity
  8
1_ANYTOOL_1MMDEEP_LABELS_S
100
AcDbVertex
100
AcDb2dVertex
 10
-41.78339039740171
 20
-29.27487095423455
 30
0.0
  0
VERTEX
  5
DE
330
71
100
AcDbEntity
  8
1_ANYTOOL_1MMDEEP_LABELS_S
100
AcDbVertex
100
AcDb2dVertex
 10
-41.92168211057137
 20
-29.35082310267203
 30
0.0
  0
VERTEX
  5
DF
330
71
100
AcDbEntity
  8
1_ANYTOOL_1MMDEEP_LABELS_S
100
AcDbVertex
100
AcDb2dVertex
 10
-42.06154329918745
 20
-29.42428501673451
 30
0.0
  0
VERTEX
  5
E0
330
71
100
AcDbEntity
  8
1_ANYTOOL_1MMDEEP_LABELS_S
100
AcDbVertex
100
AcDb2dVertex
 10
-42.20297396324996
 20
-29.49525669642199
 30
0.0
  0
VERTEX
  5
E1
330
71
100
AcDbEntity
  8
1_ANYTOOL_1MMDEEP_LABELS_S
100
AcDbVertex
100
AcDb2dVertex
 10
-42.3459741027589
 20
-29.56373814173447
 30
0.0
  0
VERTEX
  5
E2
330
71
100
AcDbEntity
  8
1_ANYTOOL_1MMDEEP_LABELS_S
100
AcDbVertex
100
AcDb2dVertex
 10
-42.49054371771427
 20
-29.62972935267195
 30
0.0
  0
VERTEX
  5
E3
330
71
100
AcDbEntity
  8
1_ANYTOOL_1MMDEEP_LABELS_S
100
AcDbVertex
100
AcDb2dVertex
 10
-42.63668280811607
 20
-29.69323032923443
 30
0.0
  0
VERTEX
  5
E4
330
71
100
AcDbEntity
  8
1_ANYTOOL_1MMDEEP_LABELS_S
100
AcDbVertex
100
AcDb2dVertex
 10
-42.7843913739643
 20
-29.75424107142192
 30
0.0
  0
VERTEX
  5
E5
330
71
100
AcDbEntity
  8
1_ANYTOOL_1MMDEEP_LABELS_S
100
AcDbVertex
100
AcDb2dVertex
 10
-42.93366941525895
 20
-29.8127615792344
 30
0.0
  0
VERTEX
  5
E6
330
71
100
AcDbEntity
  8
1_ANYTOOL_1MMDEEP_LABELS_S
100
AcDbVertex
100
AcDb2dVertex
 10
-43.08451693200004
 20
-29.86879185267188
 30
0.0
  0
VERTEX
  5
E7
330
71
100
AcDbEntity
  8
1_ANYTOOL_1MMDEEP_LABELS_S
100
AcDbVertex
100
AcDb2dVertex
 10
-43.23693392418755
 20
-29.92233189173437
 30
0.0
  0
VERTEX
  5
E8
330
71
100
AcDbEntity
  8
1_ANYTOOL_1MMDEEP_LABELS_S
100
AcDbVertex
100
AcDb2dVertex
 10
-43.3909203918215
 20
-29.97338169642185
 30
0.0
  0
VERTEX
  5
E9
330
71
100
AcDbEntity
  8
1_ANYTOOL_1MMDEEP_LABELS_S
100
AcDbVertex
100
AcDb2dVertex
 10
-43.70360175342867
 20
-30.06801060267183
 30
0.0
  0
VERTEX
  5
EA
330
71
100
AcDbEntity
  8
1_ANYTOOL_1MMDEEP_LABELS_S
100
AcDbVertex
100
AcDb2dVertex
 10
-44.02256101682156
 20
-30.1526785714218
 30
0.0
  0
VERTEX
  5
EB
330
71
100
AcDbEntity
  8
1_ANYTOOL_1MMDEEP_LABELS_S
100
AcDbVertex
100
AcDb2dVertex
 10
-44.34779818200016
 20
-30.22738560267178
 30
0.0
  0
VERTEX
  5
EC
330
71
100
AcDbEntity
  8
1_ANYTOOL_1MMDEEP_LABELS_S
100
AcDbVertex
100
AcDb2dVertex
 10
-44.67931324896448
 20
-30.29213169642176
 30
0.0
  0
VERTEX
  5
ED
330
71
100
AcDbEntity
  8
1_ANYTOOL_1MMDEEP_LABELS_S
100
AcDbVertex
100
AcDb2dVertex
 10
-45.01710621771451
 20
-30.34691685267175
 30
0.0
  0
VERTEX
  5
EE
330
71
100
AcDbEntity
  8
1_ANYTOOL_1MMDEEP_LABELS_S
100
AcDbVertex
100
AcDb2dVertex
 10
-45.36117708825026
 20
-30.39174107142173
 30
0.0
  0
VERTEX
  5
EF
330
71
100
AcDbEntity
  8
1_ANYTOOL_1MMDEEP_LABELS_S
100
AcDbVertex
100
AcDb2dVertex
 10
-45.71152586057173
 20
-30.42660435267172
 30
0.0
  0
VERTEX
  5
F0
330
71
100
AcDbEntity
  8
1_ANYTOOL_1MMDEEP_LABELS_S
100
AcDbVertex
100
AcDb2dVertex
 10
-46.0681525346789
 20
-30.45150669642172
 30
0.0
  0
VERTEX
  5
F1
330
71
100
AcDbEntity
  8
1_ANYTOOL_1MMDEEP_LABELS_S
100
AcDbVertex
100
AcDb2dVertex
 10
-46.4310571105718
 20
-30.46644810267171
 30
0.0
  0
VERTEX
  5
F2
330
71
100
AcDbEntity
  8
1_ANYTOOL_1MMDEEP_LABELS_S
100
AcDbVertex
100
AcDb2dVertex
 10
-46.80023958825041
 20
-30.47142857142171
 30
0.0
  0
VERTEX
  5
F3
330
71
100
AcDbEntity
  8
1_ANYTOOL_1MMDEEP_LABELS_S
100
AcDbVertex
100
AcDb2dVertex
 10
-47.18264751235739
 20
-30.46636439731457
 30
0.0
  0
VERTEX
  5
F4
330
71
100
AcDbEntity
  8
1_ANYTOOL_1MMDEEP_LABELS_S
100
AcDbVertex
100
AcDb2dVertex
 10
-47.5584427132501
 20
-30.45117187499315
 30
0.0
  0
VERTEX
  5
F5
330
71
100
AcDbEntity
  8
1_ANYTOOL_1MMDEEP_LABELS_S
100
AcDbVertex
100
AcDb2dVertex
 10
-47.92762519092852
 20
-30.42585100445745
 30
0.0
  0
VERTEX
  5
F6
330
71
100
AcDbEntity
  8
1_ANYTOOL_1MMDEEP_LABELS_S
100
AcDbVertex
100
AcDb2dVertex
 10
-48.29019494539267
 20
-30.39040178570747
 30
0.0
  0
VERTEX
  5
F7
330
71
100
AcDbEntity
  8
1_ANYTOOL_1MMDEEP_LABELS_S
100
AcDbVertex
100
AcDb2dVertex
 10
-48.64615197664253
 20
-30.34482421874321
 30
0.0
  0
VERTEX
  5
F8
330
71
100
AcDbEntity
  8
1_ANYTOOL_1MMDEEP_LABELS_S
100
AcDbVertex
100
AcDb2dVertex
 10
-48.99549628467811
 20
-30.28911830356466
 30
0.0
  0
VERTEX
  5
F9
330
71
100
AcDbEntity
  8
1_ANYTOOL_1MMDEEP_LABELS_S
100
AcDbVertex
100
AcDb2dVertex
 10
-49.33822786949941
 20
-30.22328404017184
 30
0.0
  0
VERTEX
  5
FA
330
71
100
AcDbEntity
  8
1_ANYTOOL_1MMDEEP_LABELS_S
100
AcDbVertex
100
AcDb2dVertex
 10
-49.67434673110643
 20
-30.14732142856474
 30
0.0
  0
VERTEX
  5
FB
330
71
100
AcDbEntity
  8
1_ANYTOOL_1MMDEEP_LABELS_S
100
AcDbVertex
100
AcDb2dVertex
 10
-50.00385286949916
 20
-30.06123046874335
 30
0.0
  0
VERTEX
  5
FC
330
71
100
AcDbEntity
  8
1_ANYTOOL_1MMDEEP_LABELS_S
100
AcDbVertex
100
AcDb2dVertex
 10
-50.32674628467761
 20
-29.96501116070769
 30
0.0
  0
VERTEX
  5
FD
330
71
100
AcDbEntity
  8
1_ANYTOOL_1MMDEEP_LABELS_S
100
AcDbVertex
100
AcDb2dVertex
 10
-50.48571322106148
 20
-29.9131033761095
 30
0.0
  0
VERTEX
  5
FE
330
71
100
AcDbEntity
  8
1_ANYTOOL_1MMDEEP_LABELS_S
100
AcDbVertex
100
AcDb2dVertex
 10
-50.64302697664178
 20
-29.85866350445774
 30
0.0
  0
VERTEX
  5
FF
330
71
100
AcDbEntity
  8
1_ANYTOOL_1MMDEEP_LABELS_S
100
AcDbVertex
100
AcDb2dVertex
 10
-50.79868755141851
 20
-29.80169154575242
 30
0.0
  0
VERTEX
  5
100
330
71
100
AcDbEntity
  8
1_ANYTOOL_1MMDEEP_LABELS_S
100
AcDbVertex
100
AcDb2dVertex
 10
-50.95269494539167
 20
-29.74218749999352
 30
0.0
  0
VERTEX
  5
101
330
71
100
AcDbEntity
  8
1_ANYTOOL_1MMDEEP_LABELS_S
100
AcDbVertex
100
AcDb2dVertex
 10
-51.10504915856126
 20
-29.68015136718105
 30
0.0
  0
VERTEX
  5
102
330
71
100
AcDbEntity
  8
1_ANYTOOL_1MMDEEP_LABELS_S
100
AcDbVertex
100
AcDb2dVertex
 10
-51.25575019092727
 20
-29.61558314731501
 30
0.0
  0
VERTEX
  5
103
330
71
100
AcDbEntity
  8
1_ANYTOOL_1MMDEEP_LABELS_S
100
AcDbVertex
100
AcDb2dVertex
 10
-51.40479804248972
 20
-29.54848284039541
 30
0.0
  0
VERTEX
  5
104
330
71
100
AcDbEntity
  8
1_ANYTOOL_1MMDEEP_LABELS_S
100
AcDbVertex
100
AcDb2dVertex
 10
-51.5521927132486
 20
-29.47885044642223
 30
0.0
  0
VERTEX
  5
105
330
71
100
AcDbEntity
  8
1_ANYTOOL_1MMDEEP_LABELS_S
100
AcDbVertex
100
AcDb2dVertex
 10
-51.69793420320391
 20
-29.40668596539548
 30
0.0
  0
VERTEX
  5
106
330
71
100
AcDbEntity
  8
1_ANYTOOL_1MMDEEP_LABELS_S
100
AcDbVertex
100
AcDb2dVertex
 10
-51.84202251235564
 20
-29.33198939731516
 30
0.0
  0
VERTEX
  5
107
330
71
100
AcDbEntity
  8
1_ANYTOOL_1MMDEEP_LABELS_S
100
AcDbVertex
100
AcDb2dVertex
 10
-51.98445764070381
 20
-29.25476074218128
 30
0.0
  0
VERTEX
  5
108
330
71
100
AcDbEntity
  8
1_ANYTOOL_1MMDEEP_LABELS_S
100
AcDbVertex
100
AcDb2dVertex
 10
-52.12523958824841
 20
-29.17499999999382
 30
0.0
  0
VERTEX
  5
109
330
71
100
AcDbEntity
  8
1_ANYTOOL_1MMDEEP_LABELS_S
100
AcDbVertex
100
AcDb2dVertex
 10
-52.26436835498943
 20
-29.09270717075279
 30
0.0
  0
VERTEX
  5
10A
330
71
100
AcDbEntity
  8
1_ANYTOOL_1MMDEEP_LABELS_S
100
AcDbVertex
100
AcDb2dVertex
 10
-52.40184394092688
 20
-29.00788225445819
 30
0.0
  0
VERTEX
  5
10B
330
71
100
AcDbEntity
  8
1_ANYTOOL_1MMDEEP_LABELS_S
100
AcDbVertex
100
AcDb2dVertex
 10
-52.53766634606077
 20
-28.92052525111002
 30
0.0
  0
VERTEX
  5
10C
330
71
100
AcDbEntity
  8
1_ANYTOOL_1MMDEEP_LABELS_S
100
AcDbVertex
100
AcDb2dVertex
 10
-52.67183557039108
 20
-28.83063616070828
 30
0.0
  0
VERTEX
  5
10D
330
71
100
AcDbEntity
  8
1_ANYTOOL_1MMDEEP_LABELS_S
100
AcDbVertex
100
AcDb2dVertex
 10
-52.80435161391782
 20
-28.73821498325297
 30
0.0
  0
VERTEX
  5
10E
330
71
100
AcDbEntity
  8
1_ANYTOOL_1MMDEEP_LABELS_S
100
AcDbVertex
100
AcDb2dVertex
 10
-52.93521447664099
 20
-28.64326171874409
 30
0.0
  0
VERTEX
  5
10F
330
71
100
AcDbEntity
  8
1_ANYTOOL_1MMDEEP_LABELS_S
100
AcDbVertex
100
AcDb2dVertex
 10
-53.0644241585606
 20
-28.54577636718165
 30
0.0
  0
VERTEX
  5
110
330
71
100
AcDbEntity
  8
1_ANYTOOL_1MMDEEP_LABELS_S
100
AcDbVertex
100
AcDb2dVertex
 10
-53.19198065967663
 20
-28.44575892856562
 30
0.0
  0
VERTEX
  5
111
330
71
100
AcDbEntity
  8
1_ANYTOOL_1MMDEEP_LABELS_S
100
AcDbVertex
100
AcDb2dVertex
 10
-53.31788397998909
 20
-28.34320940289604
 30
0.0
  0
VERTEX
  5
112
330
71
100
AcDbEntity
  8
1_ANYTOOL_1MMDEEP_LABELS_S
100
AcDbVertex
100
AcDb2dVertex
 10
-53.44213411949798
 20
-28.23812779017288
 30
0.0
  0
VERTEX
  5
113
330
71
100
AcDbEntity
  8
1_ANYTOOL_1MMDEEP_LABELS_S
100
AcDbVertex
100
AcDb2dVertex
 10
-53.5647310782033
 20
-28.13051409039615
 30
0.0
  0
VERTEX
  5
114
330
71
100
AcDbEntity
  8
1_ANYTOOL_1MMDEEP_LABELS_S
100
AcDbVertex
100
AcDb2dVertex
 10
-53.68567485610505
 20
-28.02036830356585
 30
0.0
  0
VERTEX
  5
115
330
71
100
AcDbEntity
  8
1_ANYTOOL_1MMDEEP_LABELS_S
100
AcDbVertex
100
AcDb2dVertex
 10
-53.80496545320323
 20
-27.90769042968198
 30
0.0
  0
VERTEX
  5
116
330
71
100
AcDbEntity
  8
1_ANYTOOL_1MMDEEP_LABELS_S
100
AcDbVertex
100
AcDb2dVertex
 10
-53.92260286949784
 20
-27.79248046874454
 30
0.0
  0
VERTEX
  5
117
330
71
100
AcDbEntity
  8
1_ANYTOOL_1MMDEEP_LABELS_S
100
AcDbVertex
100
AcDb2dVertex
 10
-54.03858710498888
 20
-27.67473842075353
 30
0.0
  0
VERTEX
  5
118
330
71
100
AcDbEntity
  8
1_ANYTOOL_1MMDEEP_LABELS_S
100
AcDbVertex
100
AcDb2dVertex
 10
-54.15291815967635
 20
-27.55446428570895
 30
0.0
  0
VERTEX
  5
119
330
71
100
AcDbEntity
  8
1_ANYTOOL_1MMDEEP_LABELS_S
100
AcDbVertex
100
AcDb2dVertex
 10
-54.26559603356024
 20
-27.4316580636108
 30
0.0
  0
VERTEX
  5
11A
330
71
100
AcDbEntity
  8
1_ANYTOOL_1MMDEEP_LABELS_S
100
AcDbVertex
100
AcDb2dVertex
 10
-54.37662072664057
 20
-27.30631975445907
 30
0.0
  0
VERTEX
  5
11B
330
71
100
AcDbEntity
  8
1_ANYTOOL_1MMDEEP_LABELS_S
100
AcDbVertex
100
AcDb2dVertex
 10
-54.59371057039051
 20
-27.04804687499492
 30
0.0
  0
VERTEX
  5
11C
330
71
100
AcDbEntity
  8
1_ANYTOOL_1MMDEEP_LABELS_S
100
AcDbVertex
100
AcDb2dVertex
 10
-54.80418769092617
 20
-26.77964564731649
 30
0.0
  0
VERTEX
  5
11D
330
71
100
AcDbEntity
  8
1_ANYTOOL_1MMDEEP_LABELS_S
100
AcDbVertex
100
AcDb2dVertex
 10
-55.00805208824755
 20
-26.50111607142378
 30
0.0
  0
VERTEX
  5
11E
330
71
100
AcDbEntity
  8
1_ANYTOOL_1MMDEEP_LABELS_S
100
AcDbVertex
100
AcDb2dVertex
 10
-55.20530376235465
 20
-26.21245814731679
 30
0.0
  0
VERTEX
  5
11F
330
71
100
AcDbEntity
  8
1_ANYTOOL_1MMDEEP_LABELS_S
100
AcDbVertex
100
AcDb2dVertex
 10
-55.39594271324746
 20
-25.91367187499552
 30
0.0
  0
VERTEX
  5
120
330
71
100
AcDbEntity
  8
1_ANYTOOL_1MMDEEP_LABELS_S
100
AcDbVertex
100
AcDb2dVertex
 10
-55.57996894092599
 20
-25.60475725445996
 30
0.0
  0
VERTEX
  5
121
330
71
100
AcDbEntity
  8
1_ANYTOOL_1MMDEEP_LABELS_S
100
AcDbVertex
100
AcDb2dVertex
 10
-55.75738244539025
 20
-25.28571428571013
 30
0.0
  0
VERTEX
  5
122
330
71
100
AcDbEntity
  8
1_ANYTOOL_1MMDEEP_LABELS_S
100
AcDbVertex
100
AcDb2dVertex
 10
-56.08952530253312
 20
-24.63733258928102
 30
0.0
  0
VERTEX
  5
123
330
71
100
AcDbEntity
  8
1_ANYTOOL_1MMDEEP_LABELS_S
100
AcDbVertex
100
AcDb2dVertex
 10
-56.40023958824742
 20
-23.98861607142339
 30
0.0
  0
VERTEX
  5
124
330
71
100
AcDbEntity
  8
1_ANYTOOL_1MMDEEP_LABELS_S
100
AcDbVertex
100
AcDb2dVertex
 10
-56.68952530253314
 20
-23.33956473213726
 30
0.0
  0
VERTEX
  5
125
330
71
100
AcDbEntity
  8
1_ANYTOOL_1MMDEEP_LABELS_S
100
AcDbVertex
100
AcDb2dVertex
 10
-56.95738244539029
 20
-22.69017857142262
 30
0.0
  0
VERTEX
  5
126
330
71
100
AcDbEntity
  8
1_ANYTOOL_1MMDEEP_LABELS_S
100
AcDbVertex
100
AcDb2dVertex
 10
-57.20381101681888
 20
-22.04045758927947
 30
0.0
  0
VERTEX
  5
127
330
71
100
AcDbEntity
  8
1_ANYTOOL_1MMDEEP_LABELS_S
100
AcDbVertex
100
AcDb2dVertex
 10
-57.42881101681888
 20
-21.39040178570781
 30
0.0
  0
VERTEX
  5
128
330
71
100
AcDbEntity
  8
1_ANYTOOL_1MMDEEP_LABELS_S
100
AcDbVertex
100
AcDb2dVertex
 10
-57.63238244539032
 20
-20.74001116070764
 30
0.0
  0
VERTEX
  5
129
330
71
100
AcDbEntity
  8
1_ANYTOOL_1MMDEEP_LABELS_S
100
AcDbVertex
100
AcDb2dVertex
 10
-57.81452530253318
 20
-20.08928571427896
 30
0.0
  0
VERTEX
  5
12A
330
71
100
AcDbEntity
  8
1_ANYTOOL_1MMDEEP_LABELS_S
100
AcDbVertex
100
AcDb2dVertex
 10
-57.97523958824748
 20
-19.43822544642177
 30
0.0
  0
VERTEX
  5
12B
330
71
100
AcDbEntity
  8
1_ANYTOOL_1MMDEEP_LABELS_S
100
AcDbVertex
100
AcDb2dVertex
 10
-58.1145253025332
 20
-18.78683035713607
 30
0.0
  0
VERTEX
  5
12C
330
71
100
AcDbEntity
  8
1_ANYTOOL_1MMDEEP_LABELS_S
100
AcDbVertex
100
AcDb2dVertex
 10
-58.23238244539034
 20
-18.13510044642186
 30
0.0
  0
VERTEX
  5
12D
330
71
100
AcDbEntity
  8
1_ANYTOOL_1MMDEEP_LABELS_S
100
AcDbVertex
100
AcDb2dVertex
 10
-58.32881101681892
 20
-17.48303571427914
 30
0.0
  0
VERTEX
  5
12E
330
71
100
AcDbEntity
  8
1_ANYTOOL_1MMDEEP_LABELS_S
100
AcDbVertex
100
AcDb2dVertex
 10
-58.40381101681892
 20
-16.83063616070791
 30
0.0
  0
VERTEX
  5
12F
330
71
100
AcDbEntity
  8
1_ANYTOOL_1MMDEEP_LABELS_S
100
AcDbVertex
100
AcDb2dVertex
 10
-58.45738244539035
 20
-16.17790178570817
 30
0.0
  0
VERTEX
  5
130
330
71
100
AcDbEntity
  8
1_ANYTOOL_1MMDEEP_LABELS_S
100
AcDbVertex
100
AcDb2dVertex
 10
-58.48952530253321
 20
-15.52483258927992
 30
0.0
  0
VERTEX
  5
131
330
71
100
AcDbEntity
  8
1_ANYTOOL_1MMDEEP_LABELS_S
100
AcDbVertex
100
AcDb2dVertex
 10
-58.5002395882475
 20
-14.87142857142317
 30
0.0
  0
VERTEX
  5
132
330
71
100
AcDbEntity
  8
1_ANYTOOL_1MMDEEP_LABELS_S
100
AcDbVertex
100
AcDb2dVertex
 10
-58.48902307039036
 20
-14.17801339285185
 30
0.0
  0
VERTEX
  5
133
330
71
100
AcDbEntity
  8
1_ANYTOOL_1MMDEEP_LABELS_S
100
AcDbVertex
100
AcDb2dVertex
 10
-58.45537351681895
 20
-13.49062499999479
 30
0.0
  0
VERTEX
  5
134
330
71
100
AcDbEntity
  8
1_ANYTOOL_1MMDEEP_LABELS_S
100
AcDbVertex
100
AcDb2dVertex
 10
-58.39929092753327
 20
-12.80926339285199
 30
0.0
  0
VERTEX
  5
135
330
71
100
AcDbEntity
  8
1_ANYTOOL_1MMDEEP_LABELS_S
100
AcDbVertex
100
AcDb2dVertex
 10
-58.32077530253332
 20
-12.13392857142344
 30
0.0
  0
VERTEX
  5
136
330
71
100
AcDbEntity
  8
1_ANYTOOL_1MMDEEP_LABELS_S
100
AcDbVertex
100
AcDb2dVertex
 10
-58.2198266418191
 20
-11.46462053570914
 30
0.0
  0
VERTEX
  5
137
330
71
100
AcDbEntity
  8
1_ANYTOOL_1MMDEEP_LABELS_S
100
AcDbVertex
100
AcDb2dVertex
 10
-58.0964449453906
 20
-10.8013392857091
 30
0.0
  0
VERTEX
  5
138
330
71
100
AcDbEntity
  8
1_ANYTOOL_1MMDEEP_LABELS_S
100
AcDbVertex
100
AcDb2dVertex
 10
-57.95063021324783
 20
-10.14408482142332
 30
0.0
  0
VERTEX
  5
139
330
71
100
AcDbEntity
  8
1_ANYTOOL_1MMDEEP_LABELS_S
100
AcDbVertex
100
AcDb2dVertex
 10
-57.78238244539079
 20
-9.49285714285179
 30
0.0
  0
VERTEX
  5
13A
330
71
100
AcDbEntity
  8
1_ANYTOOL_1MMDEEP_LABELS_S
100
AcDbVertex
100
AcDb2dVertex
 10
-57.59170164181948
 20
-8.847656249994515
 30
0.0
  0
VERTEX
  5
13B
330
71
100
AcDbEntity
  8
1_ANYTOOL_1MMDEEP_LABELS_S
100
AcDbVertex
100
AcDb2dVertex
 10
-57.3785878025339
 20
-8.208482142851494
 30
0.0
  0
VERTEX
  5
13C
330
71
100
AcDbEntity
  8
1_ANYTOOL_1MMDEEP_LABELS_S
100
AcDbVertex
100
AcDb2dVertex
 10
-57.14304092753405
 20
-7.575334821422729
 30
0.0
  0
VERTEX
  5
13D
330
71
100
AcDbEntity
  8
1_ANYTOOL_1MMDEEP_LABELS_S
100
AcDbVertex
100
AcDb2dVertex
 10
-56.88506101681992
 20
-6.948214285708218
 30
0.0
  0
VERTEX
  5
13E
330
71
100
AcDbEntity
  8
1_ANYTOOL_1MMDEEP_LABELS_S
100
AcDbVertex
100
AcDb2dVertex
 10
-56.60464807039152
 20
-6.327120535707962
 30
0.0
  0
VERTEX
  5
13F
330
71
100
AcDbEntity
  8
1_ANYTOOL_1MMDEEP_LABELS_S
100
AcDbVertex
100
AcDb2dVertex
 10
-56.30180208824885
 20
-5.712053571421961
 30
0.0
  0
VERTEX
  5
140
330
71
100
AcDbEntity
  8
1_ANYTOOL_1MMDEEP_LABELS_S
100
AcDbVertex
100
AcDb2dVertex
 10
-55.97652307039191
 20
-5.103013392850215
 30
0.0
  0
VERTEX
  5
141
330
71
100
AcDbEntity
  8
1_ANYTOOL_1MMDEEP_LABELS_S
100
AcDbVertex
100
AcDb2dVertex
 10
-55.62881101682069
 20
-4.499999999992724
 30
0.0
  0
VERTEX
  5
142
330
71
100
AcDbEntity
  8
1_ANYTOOL_1MMDEEP_LABELS_S
100
AcDbVertex
100
AcDb2dVertex
 10
-55.44340365074919
 20
-4.202050781242583
 30
0.0
  0
VERTEX
  5
143
330
71
100
AcDbEntity
  8
1_ANYTOOL_1MMDEEP_LABELS_S
100
AcDbVertex
100
AcDb2dVertex
 10
-55.25146726682054
 20
-3.91356026784959
 30
0.0
  0
VERTEX
  5
144
330
71
100
AcDbEntity
  8
1_ANYTOOL_1MMDEEP_LABELS_S
100
AcDbVertex
100
AcDb2dVertex
 10
-55.05300186503476
 20
-3.634528459813744
 30
0.0
  0
VERTEX
  5
145
330
71
100
AcDbEntity
  8
1_ANYTOOL_1MMDEEP_LABELS_S
100
AcDbVertex
100
AcDb2dVertex
 10
-54.84800744539183
 20
-3.364955357135045
 30
0.0
  0
VERTEX
  5
146
330
71
100
AcDbEntity
  8
1_ANYTOOL_1MMDEEP_LABELS_S
100
AcDbVertex
100
AcDb2dVertex
 10
-54.63648400789177
 20
-3.104840959813494
 30
0.0
  0
VERTEX
  5
147
330
71
100
AcDbEntity
  8
1_ANYTOOL_1MMDEEP_LABELS_S
100
AcDbVertex
100
AcDb2dVertex
 10
-54.41843155253456
 20
-2.85418526784909
 30
0.0
  0
VERTEX
  5
148
330
71
100
AcDbEntity
  8
1_ANYTOOL_1MMDEEP_LABELS_S
100
AcDbVertex
100
AcDb2dVertex
 10
-54.19385007932021
 20
-2.612988281241833
 30
0.0
  0
VERTEX
  5
149
330
71
100
AcDbEntity
  8
1_ANYTOOL_1MMDEEP_LABELS_S
100
AcDbVertex
100
AcDb2dVertex
 10
-53.96273958824872
 20
-2.381249999991724
 30
0.0
  0
VERTEX
  5
14A
330
71
100
AcDbEntity
  8
1_ANYTOOL_1MMDEEP_LABELS_S
100
AcDbVertex
100
AcDb2dVertex
 10
-53.84473596101655
 20
-2.268927873875599
 30
0.0
  0
VERTEX
  5
14B
330
71
100
AcDbEntity
  8
1_ANYTOOL_1MMDEEP_LABELS_S
100
AcDbVertex
100
AcDb2dVertex
 10
-53.7251000793201
 20
-2.158970424098761
 30
0.0
  0
VERTEX
  5
14C
330
71
100
AcDbEntity
  8
1_ANYTOOL_1MMDEEP_LABELS_S
100
AcDbVertex
100
AcDb2dVertex
 10
-53.60383194315936
 20
-2.051377650661211
 30
0.0
  0
VERTEX
  5
14D
330
71
100
AcDbEntity
  8
1_ANYTOOL_1MMDEEP_LABELS_S
100
AcDbVertex
100
AcDb2dVertex
 10
-53.48093155253433
 20
-1.946149553562947
 30
0.0
  0
VERTEX
  5
14E
330
71
100
AcDbEntity
  8
1_ANYTOOL_1MMDEEP_LABELS_S
100
AcDbVertex
100
AcDb2dVertex
 10
-53.35639890744502
 20
-1.84328613280397
 30
0.0
  0
VERTEX
  5
14F
330
71
100
AcDbEntity
  8
1_ANYTOOL_1MMDEEP_LABELS_S
100
AcDbVertex
100
AcDb2dVertex
 10
-53.23023400789143
 20
-1.742787388384279
 30
0.0
  0
VERTEX
  5
150
330
71
100
AcDbEntity
  8
1_ANYTOOL_1MMDEEP_LABELS_S
100
AcDbVertex
100
AcDb2dVertex
 10
-53.10243685387354
 20
-1.644653320303876
 30
0.0
  0
VERTEX
  5
151
330
71
100
AcDbEntity
  8
1_ANYTOOL_1MMDEEP_LABELS_S
100
AcDbVertex
100
AcDb2dVertex
 10
-52.97300744539137
 20
-1.548883928562759
 30
0.0
  0
VERTEX
  5
152
330
71
100
AcDbEntity
  8
1_ANYTOOL_1MMDEEP_LABELS_S
100
AcDbVertex
100
AcDb2dVertex
 10
-52.84194578244492
 20
-1.455479213160929
 30
0.0
  0
VERTEX
  5
153
330
71
100
AcDbEntity
  8
1_ANYTOOL_1MMDEEP_LABELS_S
100
AcDbVertex
100
AcDb2dVertex
 10
-52.70925186503419
 20
-1.364439174098386
 30
0.0
  0
VERTEX
  5
154
330
71
100
AcDbEntity
  8
1_ANYTOOL_1MMDEEP_LABELS_S
100
AcDbVertex
100
AcDb2dVertex
 10
-52.57492569315917
 20
-1.27576381137513
 30
0.0
  0
VERTEX
  5
155
330
71
100
AcDbEntity
  8
1_ANYTOOL_1MMDEEP_LABELS_S
100
AcDbVertex
100
AcDb2dVertex
 10
-52.43896726681986
 20
-1.189453124991161
 30
0.0
  0
VERTEX
  5
156
330
71
100
AcDbEntity
  8
1_ANYTOOL_1MMDEEP_LABELS_S
100
AcDbVertex
100
AcDb2dVertex
 10
-52.30137658601627
 20
-1.105507114946478
 30
0.0
  0
VERTEX
  5
157
330
71
100
AcDbEntity
  8
1_ANYTOOL_1MMDEEP_LABELS_S
100
AcDbVertex
100
AcDb2dVertex
 10
-52.16215365074839
 20
-1.023925781241083
 30
0.0
  0
VERTEX
  5
158
330
71
100
AcDbEntity
  8
1_ANYTOOL_1MMDEEP_LABELS_S
100
AcDbVertex
100
AcDb2dVertex
 10
-52.02129846101623
 20
-0.9447091238749739
 30
0.0
  0
VERTEX
  5
159
330
71
100
AcDbEntity
  8
1_ANYTOOL_1MMDEEP_LABELS_S
100
AcDbVertex
100
AcDb2dVertex
 10
-51.87881101681978
 20
-0.8678571428481519
 30
0.0
  0
VERTEX
  5
15A
330
71
100
AcDbEntity
  8
1_ANYTOOL_1MMDEEP_LABELS_S
100
AcDbVertex
100
AcDb2dVertex
 10
-51.73469131815905
 20
-0.7933698381606167
 30
0.0
  0
VERTEX
  5
15B
330
71
100
AcDbEntity
  8
1_ANYTOOL_1MMDEEP_LABELS_S
100
AcDbVertex
100
AcDb2dVertex
 10
-51.58893936503404
 20
-0.7212472098123683
 30
0.0
  0
VERTEX
  5
15C
330
71
100
AcDbEntity
  8
1_ANYTOOL_1MMDEEP_LABELS_S
100
AcDbVertex
100
AcDb2dVertex
 10
-51.29253869539114
 20
-0.5840959821337322
 30
0.0
  0
VERTEX
  5
15D
330
71
100
AcDbEntity
  8
1_ANYTOOL_1MMDEEP_LABELS_S
100
AcDbVertex
100
AcDb2dVertex
 10
-50.98960900789112
 20
-0.4564034598122433
 30
0.0
  0
VERTEX
  5
15E
330
71
100
AcDbEntity
  8
1_ANYTOOL_1MMDEEP_LABELS_S
100
AcDbVertex
100
AcDb2dVertex
 10
-50.68015030253395
 20
-0.3381696428479017
 30
0.0
  0
VERTEX
  5
15F
330
71
100
AcDbEntity
  8
1_ANYTOOL_1MMDEEP_LABELS_S
100
AcDbVertex
100
AcDb2dVertex
 10
-50.36416257931964
 20
-0.2293945312407075
 30
0.0
  0
VERTEX
  5
160
330
71
100
AcDbEntity
  8
1_ANYTOOL_1MMDEEP_LABELS_S
100
AcDbVertex
100
AcDb2dVertex
 10
-50.04164583824819
 20
-0.1300781249906606
 30
0.0
  0
VERTEX
  5
161
330
71
100
AcDbEntity
  8
1_ANYTOOL_1MMDEEP_LABELS_S
100
AcDbVertex
100
AcDb2dVertex
 10
-49.7126000793196
 20
-0.0402204240977611
 30
0.0
  0
VERTEX
  5
162
330
71
100
AcDbEntity
  8
1_ANYTOOL_1MMDEEP_LABELS_S
100
AcDbVertex
100
AcDb2dVertex
 10
-49.37702530253387
 20
0.0401785714379912
 30
0.0
  0
VERTEX
  5
163
330
71
100
AcDbEntity
  8
1_ANYTOOL_1MMDEEP_LABELS_S
100
AcDbVertex
100
AcDb2dVertex
 10
-49.034921507891
 20
0.1111188616165961
 30
0.0
  0
VERTEX
  5
164
330
71
100
AcDbEntity
  8
1_ANYTOOL_1MMDEEP_LABELS_S
100
AcDbVertex
100
AcDb2dVertex
 10
-48.68628869539099
 20
0.1726004464380537
 30
0.0
  0
VERTEX
  5
165
330
71
100
AcDbEntity
  8
1_ANYTOOL_1MMDEEP_LABELS_S
100
AcDbVertex
100
AcDb2dVertex
 10
-48.33112686503384
 20
0.224623325902364
 30
0.0
  0
VERTEX
  5
166
330
71
100
AcDbEntity
  8
1_ANYTOOL_1MMDEEP_LABELS_S
100
AcDbVertex
100
AcDb2dVertex
 10
-47.96943601681954
 20
0.267187500009527
 30
0.0
  0
VERTEX
  5
167
330
71
100
AcDbEntity
  8
1_ANYTOOL_1MMDEEP_LABELS_S
100
AcDbVertex
100
AcDb2dVertex
 10
-47.60121615074812
 20
0.3002929687595426
 30
0.0
  0
VERTEX
  5
168
330
71
100
AcDbEntity
  8
1_ANYTOOL_1MMDEEP_LABELS_S
100
AcDbVertex
100
AcDb2dVertex
 10
-47.22646726681954
 20
0.3239397321524109
 30
0.0
  0
VERTEX
  5
169
330
71
100
AcDbEntity
  8
1_ANYTOOL_1MMDEEP_LABELS_S
100
AcDbVertex
100
AcDb2dVertex
 10
-46.84518936503383
 20
0.3381277901881319
 30
0.0
  0
SEQEND
  5
16A
330
71
100
AcDbEntity
  8
1_ANYTOOL_1MMDEEP_LABELS_S
  0
LINE
  5
16B
330
1F
100
AcDbEntity
  8
1_ANYTOOL_1MMDEEP_LABELS_S
100
AcDbLine
 10
-62.52881101681851
 20
-16.11428571427678
 30
0.0
 11
-71.31452530253591
 21
-16.19999999998981
 31
0.0
  0
POLYLINE
  5
16C
330
1F
100
AcDbEntity
  8
1_ANYTOOL_1MMDEEP_LABELS_S
100
AcDb2dPolyline
 66
     1
 10
0.0
 20
0.0
 30
0.0
  0
VERTEX
  5
16D
330
16C
100
AcDbEntity
  8
1_ANYTOOL_1MMDEEP_LABELS_S
100
AcDbVertex
100
AcDb2dVertex
 10
-106.8859538739634
 20
0.000000000007276
 30
0.0
  0
VERTEX
  5
16E
330
16C
100
AcDbEntity
  8
1_ANYTOOL_1MMDEEP_LABELS_S
100
AcDbVertex
100
AcDb2dVertex
 10
-99.17166815967721
 20
-29.99999999999272
 30
0.0
  0
VERTEX
  5
16F
330
16C
100
AcDbEntity
  8
1_ANYTOOL_1MMDEEP_LABELS_S
100
AcDbVertex
100
AcDb2dVertex
 10
-90.72881101681924
 20
-0.8999999999941792
 30
0.0
  0
VERTEX
  5
170
330
16C
100
AcDbEntity
  8
1_ANYTOOL_1MMDEEP_LABELS_S
100
AcDbVertex
100
AcDb2dVertex
 10
-82.24309673110474
 20
-29.99999999999272
 30
0.0
  0
VERTEX
  5
171
330
16C
100
AcDbEntity
  8
1_ANYTOOL_1MMDEEP_LABELS_S
100
AcDbVertex
100
AcDb2dVertex
 10
-74.74309673110474
 20
0.000000000007276
 30
0.0
  0
SEQEND
  5
172
330
16C
100
AcDbEntity
  8
1_ANYTOOL_1MMDEEP_LABELS_S
  0
POLYLINE
  5
174
330
1F
100
AcDbEntity
  8
4_ANYTOOL_CUTTHROUGH_OUTSI
100
AcDb2dPolyline
 66
     1
 10
0.0
 20
0.0
 30
0.0
 70
     1
  0
VERTEX
  5
175
330
174
100
AcDbEntity
  8
4_ANYTOOL_CUTTHROUGH_OUTSI
100
AcDbVertex
100
AcDb2dVertex
 10
-138.0048705655427
 20
-27.44668875318166
 30
0.0
  0
VERTEX
  5
176
330
174
100
AcDbEntity
  8
4_ANYTOOL_CUTTHROUGH_OUTSI
100
AcDbVertex
100
AcDb2dVertex
 10
-138.0048705655499
 20
-92.58404877208523
 30
0.0
  0
VERTEX
  5
177
330
174
100
AcDbEntity
  8
4_ANYTOOL_CUTTHROUGH_OUTSI
100
AcDbVertex
100
AcDb2dVertex
 10
143.4951294337188
 20
-92.58404877174326
 30
0.0
  0
VERTEX
  5
178
330
174
100
AcDbEntity
  8
4_ANYTOOL_CUTTHROUGH_OUTSI
100
AcDbVertex
100
AcDb2dVertex
 10
143.4951294337116
 20
-87.08404877171415
 30
0.0
  0
VERTEX
  5
179
330
174
100
AcDbEntity
  8
4_ANYTOOL_CUTTHROUGH_OUTSI
100
AcDbVertex
100
AcDb2dVertex
 10
137.7451294337116
 20
-87.08404877171415
 30
0.0
 42
-0.4142135623262098
  0
VERTEX
  5
17A
330
174
100
AcDbEntity
  8
4_ANYTOOL_CUTTHROUGH_OUTSI
100
AcDbVertex
100
AcDb2dVertex
 10
137.4951294337079
 20
-86.83404877171415
 30
0.0
  0
VERTEX
  5
17B
330
174
100
AcDbEntity
  8
4_ANYTOOL_CUTTHROUGH_OUTSI
100
AcDbVertex
100
AcDb2dVertex
 10
137.4951294337116
 20
-74.83404877171415
 30
0.0
 42
-0.4142135623390213
  0
VERTEX
  5
17C
330
174
100
AcDbEntity
  8
4_ANYTOOL_CUTTHROUGH_OUTSI
100
AcDbVertex
100
AcDb2dVertex
 10
137.7451294337116
 20
-74.58404877171415
 30
0.0
  0
VERTEX
  5
17D
330
174
100
AcDbEntity
  8
4_ANYTOOL_CUTTHROUGH_OUTSI
100
AcDbVertex
100
AcDb2dVertex
 10
161.4951294341772
 20
-74.58404877171415
 30
0.0
  0
VERTEX
  5
17E
330
174
100
AcDbEntity
  8
4_ANYTOOL_CUTTHROUGH_OUTSI
100
AcDbVertex
100
AcDb2dVertex
 10
161.4951294342754
 20
-46.08404877180146
 30
0.0
  0
VERTEX
  5
17F
330
174
100
AcDbEntity
  8
4_ANYTOOL_CUTTHROUGH_OUTSI
100
AcDbVertex
100
AcDb2dVertex
 10
137.7451294359817
 20
-46.08404877182329
 30
0.0
 42
-0.4142135623517759
  0
VERTEX
  5
180
330
174
100
AcDbEntity
  8
4_ANYTOOL_CUTTHROUGH_OUTSI
100
AcDbVertex
100
AcDb2dVertex
 10
137.4951294359853
 20
-45.83404877182329
 30
0.0
  0
VERTEX
  5
181
330
174
100
AcDbEntity
  8
4_ANYTOOL_CUTTHROUGH_OUTSI
100
AcDbVertex
100
AcDb2dVertex
 10
137.4951294359817
 20
-33.83404877185239
 30
0.0
 42
-0.4142135624157627
  0
VERTEX
  5
182
330
174
100
AcDbEntity
  8
4_ANYTOOL_CUTTHROUGH_OUTSI
100
AcDbVertex
100
AcDb2dVertex
 10
137.7451294359817
 20
-33.58404877185967
 30
0.0
  0
VERTEX
  5
183
330
174
100
AcDbEntity
  8
4_ANYTOOL_CUTTHROUGH_OUTSI
100
AcDbVertex
100
AcDb2dVertex
 10
143.495129433777
 20
-33.58404877183784
 30
0.0
  0
VERTEX
  5
184
330
174
100
AcDbEntity
  8
4_ANYTOOL_CUTTHROUGH_OUTSI
100
AcDbVertex
100
AcDb2dVertex
 10
143.495129435938
 20
-23.0840487718815
 30
0.0
  0
VERTEX
  5
185
330
174
100
AcDbEntity
  8
4_ANYTOOL_CUTTHROUGH_OUTSI
100
AcDbVertex
100
AcDb2dVertex
 10
137.7451294359889
 20
-23.08404877188877
 30
0.0
 42
-0.4142135623688206
  0
VERTEX
  5
186
330
174
100
AcDbEntity
  8
4_ANYTOOL_CUTTHROUGH_OUTSI
100
AcDbVertex
100
AcDb2dVertex
 10
137.4951294359926
 20
-22.83404877188877
 30
0.0
  0
VERTEX
  5
187
330
174
100
AcDbEntity
  8
4_ANYTOOL_CUTTHROUGH_OUTSI
100
AcDbVertex
100
AcDb2dVertex
 10
137.4951294359562
 20
-10.83404877190333
 30
0.0
 42
-0.4142135623773415
  0
VERTEX
  5
188
330
174
100
AcDbEntity
  8
4_ANYTOOL_CUTTHROUGH_OUTSI
100
AcDbVertex
100
AcDb2dVertex
 10
137.7451294359562
 20
-10.58404877190696
 30
0.0
  0
VERTEX
  5
189
330
174
100
AcDbEntity
  8
4_ANYTOOL_CUTTHROUGH_OUTSI
100
AcDbVertex
100
AcDb2dVertex
 10
161.4951294337079
 20
-10.5840487718815
 30
0.0
  0
VERTEX
  5
18A
330
174
100
AcDbEntity
  8
4_ANYTOOL_CUTTHROUGH_OUTSI
100
AcDbVertex
100
AcDb2dVertex
 10
161.4951294337152
 20
26.82695122803852
 30
0.0
  0
VERTEX
  5
18B
330
174
100
AcDbEntity
  8
4_ANYTOOL_CUTTHROUGH_OUTSI
100
AcDbVertex
100
AcDb2dVertex
 10
137.7451294337079
 20
26.82695122803125
 30
0.0
 42
-0.4142135623730853
  0
VERTEX
  5
18C
330
174
100
AcDbEntity
  8
4_ANYTOOL_CUTTHROUGH_OUTSI
100
AcDbVertex
100
AcDb2dVertex
 10
137.4951294337079
 20
27.07695122803125
 30
0.0
  0
VERTEX
  5
18D
330
174
100
AcDbEntity
  8
4_ANYTOOL_CUTTHROUGH_OUTSI
100
AcDbVertex
100
AcDb2dVertex
 10
137.4951294337079
 20
39.0769512280167
 30
0.0
 42
-0.4142135623730716
  0
VERTEX
  5
18E
330
174
100
AcDbEntity
  8
4_ANYTOOL_CUTTHROUGH_OUTSI
100
AcDbVertex
100
AcDb2dVertex
 10
137.7451294337079
 20
39.3269512280167
 30
0.0
  0
VERTEX
  5
18F
330
174
100
AcDbEntity
  8
4_ANYTOOL_CUTTHROUGH_OUTSI
100
AcDbVertex
100
AcDb2dVertex
 10
143.4951294337152
 20
39.3269512280167
 30
0.0
  0
VERTEX
  5
190
330
174
100
AcDbEntity
  8
4_ANYTOOL_CUTTHROUGH_OUTSI
100
AcDbVertex
100
AcDb2dVertex
 10
143.4951294337152
 20
46.91595122798026
 30
0.0
  0
VERTEX
  5
191
330
174
100
AcDbEntity
  8
4_ANYTOOL_CUTTHROUGH_OUTSI
100
AcDbVertex
100
AcDb2dVertex
 10
137.7451294337225
 20
46.91595122796571
 30
0.0
 42
-0.4142135623944337
  0
VERTEX
  5
192
330
174
100
AcDbEntity
  8
4_ANYTOOL_CUTTHROUGH_OUTSI
100
AcDbVertex
100
AcDb2dVertex
 10
137.4951294337188
 20
47.16595122796571
 30
0.0
  0
VERTEX
  5
193
330
174
100
AcDbEntity
  8
4_ANYTOOL_CUTTHROUGH_OUTSI
100
AcDbVertex
100
AcDb2dVertex
 10
137.4951294337225
 20
59.16595122795115
 30
0.0
 42
-0.4142135623730716
  0
VERTEX
  5
194
330
174
100
AcDbEntity
  8
4_ANYTOOL_CUTTHROUGH_OUTSI
100
AcDbVertex
100
AcDb2dVertex
 10
137.7451294337225
 20
59.41595122795115
 30
0.0
  0
VERTEX
  5
195
330
174
100
AcDbEntity
  8
4_ANYTOOL_CUTTHROUGH_OUTSI
100
AcDbVertex
100
AcDb2dVertex
 10
161.4951294340826
 20
59.41595122795843
 30
0.0
  0
VERTEX
  5
196
330
174
100
AcDbEntity
  8
4_ANYTOOL_CUTTHROUGH_OUTSI
100
AcDbVertex
100
AcDb2dVertex
 10
161.49512943437
 20
74.91595122750005
 30
0.0
  0
VERTEX
  5
197
330
174
100
AcDbEntity
  8
4_ANYTOOL_CUTTHROUGH_OUTSI
100
AcDbVertex
100
AcDb2dVertex
 10
137.7451294337079
 20
74.91595122750005
 30
0.0
 42
-0.4142135623730853
  0
VERTEX
  5
198
330
174
100
AcDbEntity
  8
4_ANYTOOL_CUTTHROUGH_OUTSI
100
AcDbVertex
100
AcDb2dVertex
 10
137.4951294337079
 20
75.16595122750005
 30
0.0
  0
VERTEX
  5
199
330
174
100
AcDbEntity
  8
4_ANYTOOL_CUTTHROUGH_OUTSI
100
AcDbVertex
100
AcDb2dVertex
 10
137.4951294337079
 20
87.16595122750005
 30
0.0
 42
-0.4142135623645885
  0
VERTEX
  5
19A
330
174
100
AcDbEntity
  8
4_ANYTOOL_CUTTHROUGH_OUTSI
100
AcDbVertex
100
AcDb2dVertex
 10
137.7451294337079
 20
87.41595122749277
 30
0.0
  0
VERTEX
  5
19B
330
174
100
AcDbEntity
  8
4_ANYTOOL_CUTTHROUGH_OUTSI
100
AcDbVertex
100
AcDb2dVertex
 10
143.4951294337079
 20
87.41595122750005
 30
0.0
  0
VERTEX
  5
19C
330
174
100
AcDbEntity
  8
4_ANYTOOL_CUTTHROUGH_OUTSI
100
AcDbVertex
100
AcDb2dVertex
 10
143.4951294337152
 20
92.91595122770377
 30
0.0
  0
VERTEX
  5
19D
330
174
100
AcDbEntity
  8
4_ANYTOOL_CUTTHROUGH_OUTSI
100
AcDbVertex
100
AcDb2dVertex
 10
-138.0048705655536
 20
92.91595122816943
 30
0.0
  0
VERTEX
  5
19E
330
174
100
AcDbEntity
  8
4_ANYTOOL_CUTTHROUGH_OUTSI
100
AcDbVertex
100
AcDb2dVertex
 10
-138.0048705655536
 20
27.77899753447855
 30
0.0
 42
-0.5220993284542162
  0
VERTEX
  5
19F
330
174
100
AcDbEntity
  8
4_ANYTOOL_CUTTHROUGH_OUTSI
100
AcDbVertex
100
AcDb2dVertex
 10
-146.4207755746948
 20
21.91628864766699
 30
0.0
  0
VERTEX
  5
1A0
330
174
100
AcDbEntity
  8
4_ANYTOOL_CUTTHROUGH_OUTSI
100
AcDbVertex
100
AcDb2dVertex
 10
-168.109885080059
 20
29.92906087099255
 30
0.0
 42
0.5019764255494746
  0
VERTEX
  5
1A1
330
174
100
AcDbEntity
  8
4_ANYTOOL_CUTTHROUGH_OUTSI
100
AcDbVertex
100
AcDb2dVertex
 10
-175.5045933072725
 20
24.41934471271088
 30
0.0
  0
VERTEX
  5
1A2
330
174
100
AcDbEntity
  8
4_ANYTOOL_CUTTHROUGH_OUTSI
100
AcDbVertex
100
AcDb2dVertex
 10
-175.505049099891
 20
-24.08673986118083
 30
0.0
 42
0.5019765309769003
  0
VERTEX
  5
1A3
330
174
100
AcDbEntity
  8
4_ANYTOOL_CUTTHROUGH_OUTSI
100
AcDbVertex
100
AcDb2dVertex
 10
-168.1101956516825
 20
-29.59645348266567
 30
0.0
  0
VERTEX
  5
1A4
330
174
100
AcDbEntity
  8
4_ANYTOOL_CUTTHROUGH_OUTSI
100
AcDbVertex
100
AcDb2dVertex
 10
-146.4206772638172
 20
-21.58394354758639
 30
0.0
 42
-0.5220939935253596
  0
SEQEND
  5
1A5
330
174
100
AcDbEntity
  8
4_ANYTOOL_CUTTHROUGH_OUTSI
  0
ENDSEC
  0
SECTION
  2
OBJECTS
  0
DICTIONARY
  5
C
330
0
100
AcDbDictionary
  3
ACAD_GROUP
350
D
  3
ACAD_LAYOUT
350
1A
  3
ACAD_MATERIAL
350
43
  3
ACAD_MLEADERSTYLE
350
5B
  3
ACAD_MLINESTYLE
350
17
  3
ACAD_PLOTSETTINGS
350
19
  3
ACAD_SCALELIST
350
47
  3
ACAD_VISUALSTYLE
350
2A
  3
ACDBHEADERROUNDTRIPXREC
350
1A6
  3
ACDBVARIABLEDICTIONARY
350
1C7
  3
DWGPROPS
350
1CE
  0
DICTIONARY
  5
1CF
330
8
100
AcDbDictionary
280
     1
  3
ACAD_XREC_ROUNDTRIP
360
1D0
  0
DICTIONARY
  5
D
102
{ACAD_REACTORS
330
C
102
}
330
C
100
AcDbDictionary
  0
DICTIONARY
  5
1A
102
{ACAD_REACTORS
330
C
102
}
330
C
100
AcDbDictionary
  0
DICTIONARY
  5
43
102
{ACAD_REACTORS
330
C
102
}
330
C
100
AcDbDictionary
  3
BYBLOCK
350
45
  3
BYLAYER
350
44
  3
GLOBAL
350
46
  0
DICTIONARY
  5
5B
102
{ACAD_REACTORS
330
C
102
}
330
C
100
AcDbDictionary
  3
STANDARD
350
5C
  0
DICTIONARY
  5
17
102
{ACAD_REACTORS
330
C
102
}
330
C
100
AcDbDictionary
  3
STANDARD
350
18
  0
DICTIONARY
  5
19
102
{ACAD_REACTORS
330
C
102
}
330
C
100
AcDbDictionary
  0
DICTIONARY
  5
47
102
{ACAD_REACTORS
330
C
102
}
330
C
100
AcDbDictionary
  3
A0
350
48
  3
A1
350
49
  3
A2
350
4A
  3
A3
350
4B
  3
A4
350
4C
  3
A5
350
4D
  3
A6
350
4E
  3
A7
350
4F
  3
A8
350
50
  3
A9
350
51
  3
B1
350
52
  3
B2
350
53
  3
B3
350
54
  3
B4
350
55
  3
B5
350
56
  3
B6
350
57
  3
B7
350
58
  0
DICTIONARY
  5
2A
102
{ACAD_REACTORS
330
C
102
}
330
C
100
AcDbDictionary
  3
2DWIREFRAME
350
2F
  3
BASIC
350
32
  3
BRIGHTEN
350
36
  3
COLORCHANGE
350
3A
  3
CONCEPTUAL
350
34
  3
DIM
350
35
  3
EDGECOLOROFF
350
3D
  3
FACEPATTERN
350
39
  3
FLAT
350
2B
  3
FLATWITHEDGES
350
2C
  3
GOURAUD
350
2D
  3
GOURAUDWITHEDGES
350
2E
  3
HIDDEN
350
31
  3
JITTEROFF
350
3B
  3
LINEPATTERN
350
38
  3
OVERHANGOFF
350
3C
  3
REALISTIC
350
33
  3
SHADED
350
42
  3
SHADED_WITH_EDGES
350
41
  3
SHADES_OF_GRAY
350
3E
  3
SKETCHY
350
3F
  3
THICKEN
350
37
  3
WIREFRAME
350
30
  3
X-RAY
350
40
  0
DICTIONARY
  5
1A6
102
{ACAD_REACTORS
330
C
102
}
330
C
100
AcDbDictionary
  3
CEPSNID
350
1B0
  3
CEPSNTYPE
350
1AF
  3
DIMSTYLEDATA
350
1C6
  3
FINGERPRINTGUID
350
1B1
  3
HYPERLINKBASE
350
1A9
  3
INSUNITS
350
1AE
  3
LAYOUTDICT
350
1AB
  3
LWETCUNION
350
1AD
  3
PLOTSETDICT
350
1AC
  3
PSVPSCALE
350
1B3
  3
PUCSBASE
350
1B6
  3
PUCSORGBACK
350
1BC
  3
PUCSORGBOTTOM
350
1B8
  3
PUCSORGFRONT
350
1BB
  3
PUCSORGLEFT
350
1B9
  3
PUCSORGRIGHT
350
1BA
  3
PUCSORGTOP
350
1B7
  3
PUCSORTHOREF
350
1B4
  3
PUCSORTHOVIEW
350
1B5
  3
STYLESHEET
350
1AA
  3
TSTACKALIGN
350
1A7
  3
TSTACKSIZE
350
1A8
  3
UCSBASE
350
1BF
  3
UCSORGBACK
350
1C5
  3
UCSORGBOTTOM
350
1C1
  3
UCSORGFRONT
350
1C4
  3
UCSORGLEFT
350
1C2
  3
UCSORGRIGHT
350
1C3
  3
UCSORGTOP
350
1C0
  3
UCSORTHOREF
350
1BD
  3
UCSORTHOVIEW
350
1BE
  3
VERSIONGUID
350
1B2
  0
DICTIONARY
  5
1C7
102
{ACAD_REACTORS
330
C
102
}
330
C
100
AcDbDictionary
  3
CANNOSCALE
350
1D1
  3
CMLEADERSTYLE
350
1C9
  3
CTABLESTYLE
350
1C8
  3
DIMASSOC
350
1CC
  3
HIDETEXT
350
1CD
  3
MSLTSCALE
350
1D2
  0
XRECORD
  5
1CE
102
{ACAD_REACTORS
330
C
102
}
330
C
100
AcDbXrecord
  1
DWGPROPS COOKIE
  2

  3

  4

  6

  7

  8
clayt
  9

300
=
301
=
302
=
303
=
304
=
305
=
306
=
307
=
308
=
309
=
 40
0.0
 41
2461243.619554618
 42
2461243.619554722
  1

 90
        0
  0
XRECORD
  5
1D0
102
{ACAD_REACTORS
330
1CF
102
}
330
1CF
100
AcDbXrecord
102
VTR_0.000_0.000_1.000_1.000_VISUALSTYLE
340
2F
102
VTR_0.000_0.000_1.000_1.000_GRIDDISPLAY
 70
     3
102
VTR_0.000_0.000_1.000_1.000_GRIDMAJOR
 70
     5
102
VTR_0.000_0.000_1.000_1.000_DEFAULTLIGHTING
280
     1
102
VTR_0.000_0.000_1.000_1.000_DEFAULTLIGHTINGTYPE
 70
     1
102
VTR_0.000_0.000_1.000_1.000_BRIGHTNESS
141
0.0
102
VTR_0.000_0.000_1.000_1.000_CONTRAST
142
0.0
  0
MATERIAL
  5
45
102
{ACAD_REACTORS
330
43
102
}
102
{ACAD_XDICTIONARY
360
1D5
102
}
330
43
100
AcDbMaterial
  1
BYBLOCK
  0
MATERIAL
  5
44
102
{ACAD_REACTORS
330
43
102
}
102
{ACAD_XDICTIONARY
360
1D3
102
}
330
43
100
AcDbMaterial
  1
BYLAYER
  0
MATERIAL
  5
46
102
{ACAD_REACTORS
330
43
102
}
102
{ACAD_XDICTIONARY
360
1D7
102
}
330
43
100
AcDbMaterial
  1
GLOBAL
  0
ACAD_PROXY_OBJECT
  5
5C
102
{ACAD_REACTORS
330
5B
102
}
330
5B
100
AcDbProxyObject
 90
      499
 91
      505
 93
      610
310
40901902A4063FBFFFFFE056BD1B81E855B9FC0AD7A3703D0AD73F4214DD185B99185C9900AD7A3703D0AC73F90141901A02B5E8DC0F42B1CFC02B5E8DC0F42B1CFE5764000000000000300FC0
340
14
340
0
340
11
340
0
 94
        0
1001
ACAD_MLEADERVER
1070
     2
  0
MLINESTYLE
  5
18
102
{ACAD_REACTORS
330
17
102
}
330
17
100
AcDbMlineStyle
  2
Standard
 70
     0
  3

 62
   256
 51
90.0
 52
90.0
 71
     2
 49
0.5
 62
   256
  6
BYLAYER
 49
-0.5
 62
   256
  6
BYLAYER
  0
ACAD_PROXY_OBJECT
  5
48
102
{ACAD_REACTORS
330
47
102
}
330
47
100
AcDbProxyObject
 90
      499
 91
      503
 93
       41
310
903313A31580
  0
ACAD_PROXY_OBJECT
  5
49
102
{ACAD_REACTORS
330
47
102
}
330
47
100
AcDbProxyObject
 90
      499
 91
      503
 93
      257
310
90E312F31323822203D2031272D3022000000000000200FC000000000000284000
  0
ACAD_PROXY_OBJECT
  5
4A
102
{ACAD_REACTORS
330
47
102
}
330
47
100
AcDbProxyObject
 90
      499
 91
      503
 93
      249
310
90D312F363422203D2031272D3022000000000000240FC000000000000284000
  0
ACAD_PROXY_OBJECT
  5
4B
102
{ACAD_REACTORS
330
47
102
}
330
47
100
AcDbProxyObject
 90
      499
 91
      503
 93
      249
310
90D312F333222203D2031272D3022000000000000280FC000000000000284000
  0
ACAD_PROXY_OBJECT
  5
4C
102
{ACAD_REACTORS
330
47
102
}
330
47
100
AcDbProxyObject
 90
      499
 91
      503
 93
      249
310
90D312F313622203D2031272D30220000000000002C0FC000000000000284000
  0
ACAD_PROXY_OBJECT
  5
4D
102
{ACAD_REACTORS
330
47
102
}
330
47
100
AcDbProxyObject
 90
      499
 91
      503
 93
      249
310
90D332F333222203D2031272D30220000000000002E0FC000000000000284000
  0
ACAD_PROXY_OBJECT
  5
4E
102
{ACAD_REACTORS
330
47
102
}
330
47
100
AcDbProxyObject
 90
      499
 91
      503
 93
      241
310
90C312F3822203D2031272D3022000000000000300FC000000000000284000
  0
ACAD_PROXY_OBJECT
  5
4F
102
{ACAD_REACTORS
330
47
102
}
330
47
100
AcDbProxyObject
 90
      499
 91
      503
 93
      249
310
90D332F313622203D2031272D3022000000000000320FC000000000000284000
  0
ACAD_PROXY_OBJECT
  5
50
102
{ACAD_REACTORS
330
47
102
}
330
47
100
AcDbProxyObject
 90
      499
 91
      503
 93
      241
310
90C312F3422203D2031272D3022000000000000340FC000000000000284000
  0
ACAD_PROXY_OBJECT
  5
51
102
{ACAD_REACTORS
330
47
102
}
330
47
100
AcDbProxyObject
 90
      499
 91
      503
 93
      241
310
90C332F3822203D2031272D3022000000000000360FC000000000000284000
  0
ACAD_PROXY_OBJECT
  5
52
102
{ACAD_REACTORS
330
47
102
}
330
47
100
AcDbProxyObject
 90
      499
 91
      503
 93
      241
310
90C312F3222203D2031272D3022000000000000380FC000000000000284000
  0
ACAD_PROXY_OBJECT
  5
53
102
{ACAD_REACTORS
330
47
102
}
330
47
100
AcDbProxyObject
 90
      499
 91
      503
 93
      241
310
90C332F3422203D2031272D30220000000000003A0FC000000000000284000
  0
ACAD_PROXY_OBJECT
  5
54
102
{ACAD_REACTORS
330
47
102
}
330
47
100
AcDbProxyObject
 90
      499
 91
      503
 93
      161
310
90A3122203D2031272D30224000000000000284000
  0
ACAD_PROXY_OBJECT
  5
55
102
{ACAD_REACTORS
330
47
102
}
330
47
100
AcDbProxyObject
 90
      499
 91
      503
 93
      257
310
90E312D312F3222203D2031272D30220000000000003E0FC000000000000284000
  0
ACAD_PROXY_OBJECT
  5
56
102
{ACAD_REACTORS
330
47
102
}
330
47
100
AcDbProxyObject
 90
      499
 91
      503
 93
      225
310
90A3322203D2031272D302200000000000002100000000000000284000
  0
ACAD_PROXY_OBJECT
  5
57
102
{ACAD_REACTORS
330
47
102
}
330
47
100
AcDbProxyObject
 90
      499
 91
      503
 93
      225
310
90A3622203D2031272D302200000000000006100000000000000284000
  0
ACAD_PROXY_OBJECT
  5
58
102
{ACAD_REACTORS
330
47
102
}
330
47
100
AcDbProxyObject
 90
      499
 91
      503
 93
      249
310
90D31272D3022203D2031272D30220000000000000A100000000000000284000
  0
ACAD_PROXY_OBJECT
  5
2F
102
{ACAD_REACTORS
330
2A
102
}
330
2A
100
AcDbProxyObject
 90
      499
 91
      501
 93
      436
310
42CC9915DA5C99599C985B595049028333333333333E33F0000000000000F90107901411070040501600405405064090741402480A0340
1001
ACAD
1000
AcDbSavedByObjectVersion
1070
     0
  0
ACAD_PROXY_OBJECT
  5
32
102
{ACAD_REACTORS
330
2A
102
}
330
2A
100
AcDbProxyObject
 90
      499
 91
      501
 93
      388
310
4150985CDA58D07406404333333333333E33F0000000000000F90107A41107004050150841D405064090741402480A0350
1001
ACAD
1000
AcDbSavedByObjectVersion
1070
     0
  0
ACAD_PROXY_OBJECT
  5
36
102
{ACAD_REACTORS
330
2A
102
}
330
2A
100
AcDbProxyObject
 90
      499
 91
      501
 93
      428
310
42109C9A59DA1D195B90C409028333333333333E33F0000000000000F9010790141107004050150841D405064090741402480A029950
1001
ACAD
1000
AcDbSavedByObjectVersion
1070
     0
  0
ACAD_PROXY_OBJECT
  5
3A
102
{ACAD_REACTORS
330
2A
102
}
330
2A
100
AcDbProxyObject
 90
      499
 91
      501
 93
      452
310
42D0DBDB1BDC90DA185B99D95104090240C333333333333E33F0000000000000F90108901411070040501508421405064090741402480A0350
1001
ACAD
1000
AcDbSavedByObjectVersion
1070
     0
  0
ACAD_PROXY_OBJECT
  5
34
102
{ACAD_REACTORS
330
2A
102
}
330
2A
100
AcDbProxyObject
 90
      499
 91
      501
 93
      500
310
4290DBDB98D95C1D1D585B10940D028333333333333E33F0000000000000F90107902409070040501000000000018199010841D405064090740C02480A0340
1001
ACAD
1000
AcDbSavedByObjectVersion
1070
     0
  0
ACAD_PROXY_OBJECT
  5
35
102
{ACAD_REACTORS
330
2A
102
}
330
2A
100
AcDbProxyObject
 90
      499
 91
      501
 93
      412
310
40D11A5B50B409028333333333333E33F0000000000000F9010790141107004050150841D405064090741402480A02677FFFFFD0
1001
ACAD
1000
AcDbSavedByObjectVersion
1070
     0
  0
ACAD_PROXY_OBJECT
  5
3D
102
{ACAD_REACTORS
330
2A
102
}
330
2A
100
AcDbProxyObject
 90
      499
 91
      501
 93
      452
310
43115919D950DBDB1BDC93D999916409028333333333333E33F0000000000000F9010790141107004050150841D405064090741402480A0350
1001
ACAD
1000
AcDbSavedByObjectVersion
1070
     0
  0
ACAD_PROXY_OBJECT
  5
39
102
{ACAD_REACTORS
330
2A
102
}
330
2A
100
AcDbProxyObject
 90
      499
 91
      501
 93
      444
310
42D19858D95C185D1D195C9B90F409028333333333333E33F0000000000000F9010790141107004050150841D405064090741402480A0350
1001
ACAD
1000
AcDbSavedByObjectVersion
1070
     0
  0
ACAD_PROXY_OBJECT
  5
2B
102
{ACAD_REACTORS
330
2A
102
}
330
2A
100
AcDbProxyObject
 90
      499
 91
      501
 93
      380
310
41119B185D240901404333333333333E33F0000000000000F9010740A907004050150841D405064090741402480A1B50
1001
ACAD
1000
AcDbSavedByObjectVersion
1070
     0
  0
ACAD_PROXY_OBJECT
  5
2C
102
{ACAD_REACTORS
330
2A
102
}
330
2A
100
AcDbProxyObject
 90
      499
 91
      501
 93
      468
310
43519B185D15DA5D1A115919D95CD0140901404333333333333E33F0000000000000F90107409019070040501600405405064090741402480A1B50
1001
ACAD
1000
AcDbSavedByObjectVersion
1070
     0
  0
ACAD_PROXY_OBJECT
  5
2D
102
{ACAD_REACTORS
330
2A
102
}
330
2A
100
AcDbProxyObject
 90
      499
 91
      501
 93
      404
310
41D1DBDD5C985D5910240902404333333333333E33F0000000000000F9010740A9070040501641D405064090741402480A1B50
1001
ACAD
1000
AcDbSavedByObjectVersion
1070
     0
  0
ACAD_PROXY_OBJECT
  5
2E
102
{ACAD_REACTORS
330
2A
102
}
330
2A
100
AcDbProxyObject
 90
      499
 91
      501
 93
      492
310
4411DBDD5C985D5915DA5D1A115919D95CD0340902404333333333333E33F0000000000000F90107409019070040501600405405064090741402480A1B50
1001
ACAD
1000
AcDbSavedByObjectVersion
1070
     0
  0
ACAD_PROXY_OBJECT
  5
31
102
{ACAD_REACTORS
330
2A
102
}
330
2A
100
AcDbProxyObject
 90
      499
 91
      501
 93
      476
310
41921A5919195B90640502408333333333333E33F0000000000000F901079024090700405020000000000001110200405405064090740C02480A0340
1001
ACAD
1000
AcDbSavedByObjectVersion
1070
     0
  0
ACAD_PROXY_OBJECT
  5
3B
102
{ACAD_REACTORS
330
2A
102
}
330
2A
100
AcDbProxyObject
 90
      499
 91
      501
 93
      428
310
42529A5D1D195C93D999914409028333333333333E33F0000000000000F9010790141107004050150A41D405064090741402480A0350
1001
ACAD
1000
AcDbSavedByObjectVersion
1070
     0
  0
ACAD_PROXY_OBJECT
  5
38
102
{ACAD_REACTORS
330
2A
102
}
330
2A
100
AcDbProxyObject
 90
      499
 91
      501
 93
      444
310
42D31A5B995C185D1D195C9B90E409028333333333333E33F0000000000000F9010790141107004050750841D405064090741402483A0350
1001
ACAD
1000
AcDbSavedByObjectVersion
1070
     0
  0
ACAD_PROXY_OBJECT
  5
3C
102
{ACAD_REACTORS
330
2A
102
}
330
2A
100
AcDbProxyObject
 90
      499
 91
      501
 93
      444
310
42D3DD995C9A185B99D3D999915409028333333333333E33F0000000000000F9010790141107004050150941D405064090741402480A0350
1001
ACAD
1000
AcDbSavedByObjectVersion
1070
     0
  0
ACAD_PROXY_OBJECT
  5
33
102
{ACAD_REACTORS
330
2A
102
}
330
2A
100
AcDbProxyObject
 90
      499
 91
      501
 93
      428
310
425499585B1A5CDD1A58D08409038333333333333E33F0000000000000F9010740A907004050150800405405064090740C02480A1B40
1001
ACAD
1000
AcDbSavedByObjectVersion
1070
     0
  0
ACAD_PROXY_OBJECT
  5
42
102
{ACAD_REACTORS
330
2A
102
}
330
2A
100
AcDbProxyObject
 90
      499
 91
      501
 93
      420
310
4194DA1859195911B40902404333333333333E33F0000000000000F9010740A41107004050150800405405064090840C02480A0B40
1001
ACAD
1000
AcDbSavedByObjectVersion
1070
     0
  0
ACAD_PROXY_OBJECT
  5
41
102
{ACAD_REACTORS
330
2A
102
}
330
2A
100
AcDbProxyObject
 90
      499
 91
      501
 93
      516
310
4454DA18591959081DDA5D1A08195919D95CD1A40902404333333333333E33F0000000000000F901074090142907004050250800405405064090740C02480A0B40
1001
ACAD
1000
AcDbSavedByObjectVersion
1070
     0
  0
ACAD_PROXY_OBJECT
  5
3E
102
{ACAD_REACTORS
330
2A
102
}
330
2A
100
AcDbProxyObject
 90
      499
 91
      501
 93
      532
310
4394DA1859195CC81BD98811DC985E5174090240C333333333333E33F0000000000000F901079024090741D01000000000000111010841D405064090740C02480A0340
1001
ACAD
1000
AcDbSavedByObjectVersion
1070
     0
  0
ACAD_PROXY_OBJECT
  5
3F
102
{ACAD_REACTORS
330
2A
102
}
330
2A
100
AcDbProxyObject
 90
      499
 91
      501
 93
      476
310
41D4DAD95D18DA1E51840502408333333333333E33F0000000000000F901079024090741D01000000000000111010B41D405064090741802480A0340
1001
ACAD
1000
AcDbSavedByObjectVersion
1070
     0
  0
ACAD_PROXY_OBJECT
  5
37
102
{ACAD_REACTORS
330
2A
102
}
330
2A
100
AcDbProxyObject
 90
      499
 91
      501
 93
      412
310
41D51A1A58DAD95B90D409028333333333333E33F0000000000000F9010790141107004050150C41D405064090741402480A0350
1001
ACAD
1000
AcDbSavedByObjectVersion
1070
     0
  0
ACAD_PROXY_OBJECT
  5
30
102
{ACAD_REACTORS
330
2A
102
}
330
2A
100
AcDbProxyObject
 90
      499
 91
      501
 93
      420
310
4255DA5C99599C985B595059028333333333333E33F0000000000000F90107901411070040501600405405064090740C02480A0340
1001
ACAD
1000
AcDbSavedByObjectVersion
1070
     0
  0
ACAD_PROXY_OBJECT
  5
40
102
{ACAD_REACTORS
330
2A
102
}
330
2A
100
AcDbProxyObject
 90
      499
 91
      501
 93
      404
310
41560B54985E51940902404000000000000E03F0000000000000F9010740501907004050150841D405064090740C02480A1B40
1001
ACAD
1000
AcDbSavedByObjectVersion
1070
     0
  0
XRECORD
  5
1B0
102
{ACAD_REACTORS
330
1A6
102
}
330
1A6
100
AcDbXrecord
340
0
  0
XRECORD
  5
1AF
102
{ACAD_REACTORS
330
1A6
102
}
330
1A6
100
AcDbXrecord
 90
        0
  0
XRECORD
  5
1C6
102
{ACAD_REACTORS
330
1A6
102
}
330
1A6
100
AcDbXrecord
1000
DSTYLE
1002
{
1070
   171
 70
     2
1070
   143
 40
25.4
1070
   274
 70
     2
1070
    41
 40
0.18
1070
   141
 40
0.09
1070
   271
 70
     4
1070
    43
 40
0.38
1070
   278
 70
    46
1070
    44
 40
0.18
1070
    42
 40
0.0625
1070
   147
 40
0.09
1070
    77
 70
     0
1070
   272
 70
     4
1070
    73
 70
     1
1070
   279
 70
     2
1070
   172
 70
     0
1070
    74
 70
     1
1070
   283
 70
     1
1070
   340
340
11
1070
   140
 40
0.18
1070
   284
 70
     0
1070
    78
 70
     0
1002
}
  0
XRECORD
  5
1B1
102
{ACAD_REACTORS
330
1A6
102
}
330
1A6
100
AcDbXrecord
  1
{1d3771d7-bbcd-48d7-bd73-69a33602de92}
  0
XRECORD
  5
1A9
102
{ACAD_REACTORS
330
1A6
102
}
330
1A6
100
AcDbXrecord
  1

  0
XRECORD
  5
1AE
102
{ACAD_REACTORS
330
1A6
102
}
330
1A6
100
AcDbXrecord
 90
        4
  0
XRECORD
  5
1AB
102
{ACAD_REACTORS
330
1A6
102
}
330
1A6
100
AcDbXrecord
340
1A
  0
XRECORD
  5
1AD
102
{ACAD_REACTORS
330
1A6
102
}
330
1A6
100
AcDbXrecord
 90
    10781
  0
XRECORD
  5
1AC
102
{ACAD_REACTORS
330
1A6
102
}
330
1A6
100
AcDbXrecord
340
19
  0
XRECORD
  5
1B3
102
{ACAD_REACTORS
330
1A6
102
}
330
1A6
100
AcDbXrecord
 40
0.0
  0
XRECORD
  5
1B6
102
{ACAD_REACTORS
330
1A6
102
}
330
1A6
100
AcDbXrecord
340
0
  0
XRECORD
  5
1BC
102
{ACAD_REACTORS
330
1A6
102
}
330
1A6
100
AcDbXrecord
 10
0.0
 20
0.0
 30
0.0
  0
XRECORD
  5
1B8
102
{ACAD_REACTORS
330
1A6
102
}
330
1A6
100
AcDbXrecord
 10
0.0
 20
0.0
 30
0.0
  0
XRECORD
  5
1BB
102
{ACAD_REACTORS
330
1A6
102
}
330
1A6
100
AcDbXrecord
 10
0.0
 20
0.0
 30
0.0
  0
XRECORD
  5
1B9
102
{ACAD_REACTORS
330
1A6
102
}
330
1A6
100
AcDbXrecord
 10
0.0
 20
0.0
 30
0.0
  0
XRECORD
  5
1BA
102
{ACAD_REACTORS
330
1A6
102
}
330
1A6
100
AcDbXrecord
 10
0.0
 20
0.0
 30
0.0
  0
XRECORD
  5
1B7
102
{ACAD_REACTORS
330
1A6
102
}
330
1A6
100
AcDbXrecord
 10
0.0
 20
0.0
 30
0.0
  0
XRECORD
  5
1B4
102
{ACAD_REACTORS
330
1A6
102
}
330
1A6
100
AcDbXrecord
340
0
  0
XRECORD
  5
1B5
102
{ACAD_REACTORS
330
1A6
102
}
330
1A6
100
AcDbXrecord
 70
     0
  0
XRECORD
  5
1AA
102
{ACAD_REACTORS
330
1A6
102
}
330
1A6
100
AcDbXrecord
  1

  0
XRECORD
  5
1A7
102
{ACAD_REACTORS
330
1A6
102
}
330
1A6
100
AcDbXrecord
 90
        1
  0
XRECORD
  5
1A8
102
{ACAD_REACTORS
330
1A6
102
}
330
1A6
100
AcDbXrecord
 90
       70
  0
XRECORD
  5
1BF
102
{ACAD_REACTORS
330
1A6
102
}
330
1A6
100
AcDbXrecord
340
0
  0
XRECORD
  5
1C5
102
{ACAD_REACTORS
330
1A6
102
}
330
1A6
100
AcDbXrecord
 10
0.0
 20
0.0
 30
0.0
  0
XRECORD
  5
1C1
102
{ACAD_REACTORS
330
1A6
102
}
330
1A6
100
AcDbXrecord
 10
0.0
 20
0.0
 30
0.0
  0
XRECORD
  5
1C4
102
{ACAD_REACTORS
330
1A6
102
}
330
1A6
100
AcDbXrecord
 10
0.0
 20
0.0
 30
0.0
  0
XRECORD
  5
1C2
102
{ACAD_REACTORS
330
1A6
102
}
330
1A6
100
AcDbXrecord
 10
0.0
 20
0.0
 30
0.0
  0
XRECORD
  5
1C3
102
{ACAD_REACTORS
330
1A6
102
}
330
1A6
100
AcDbXrecord
 10
0.0
 20
0.0
 30
0.0
  0
XRECORD
  5
1C0
102
{ACAD_REACTORS
330
1A6
102
}
330
1A6
100
AcDbXrecord
 10
0.0
 20
0.0
 30
0.0
  0
XRECORD
  5
1BD
102
{ACAD_REACTORS
330
1A6
102
}
330
1A6
100
AcDbXrecord
340
0
  0
XRECORD
  5
1BE
102
{ACAD_REACTORS
330
1A6
102
}
330
1A6
100
AcDbXrecord
 70
     0
  0
XRECORD
  5
1B2
102
{ACAD_REACTORS
330
1A6
102
}
330
1A6
100
AcDbXrecord
  1
{FAEB1C32-E019-11D5-929B-00C0DF256EC4}
  0
DICTIONARYVAR
  5
1D1
102
{ACAD_REACTORS
330
1C7
102
}
330
1C7
100
DictionaryVariables
280
     0
  1
1:1
  0
DICTIONARYVAR
  5
1C9
102
{ACAD_REACTORS
330
1C7
102
}
330
1C7
100
DictionaryVariables
280
     0
  1
Standard
  0
DICTIONARYVAR
  5
1C8
102
{ACAD_REACTORS
330
1C7
102
}
330
1C7
100
DictionaryVariables
280
     0
  1
Standard
  0
DICTIONARYVAR
  5
1CC
102
{ACAD_REACTORS
330
1C7
102
}
330
1C7
100
DictionaryVariables
280
     0
  1
2
  0
DICTIONARYVAR
  5
1CD
102
{ACAD_REACTORS
330
1C7
102
}
330
1C7
100
DictionaryVariables
280
     0
  1
1
  0
DICTIONARYVAR
  5
1D2
102
{ACAD_REACTORS
330
1C7
102
}
330
1C7
100
DictionaryVariables
280
     0
  1
1
  0
DICTIONARY
  5
1D5
330
45
100
AcDbDictionary
280
     1
  3
ACAD_XREC_ROUNDTRIP
360
1D6
  0
DICTIONARY
  5
1D3
330
44
100
AcDbDictionary
280
     1
  3
ACAD_XREC_ROUNDTRIP
360
1D4
  0
DICTIONARY
  5
1D7
330
46
100
AcDbDictionary
280
     1
  3
ACAD_XREC_ROUNDTRIP
360
1D8
  0
XRECORD
  5
1D6
102
{ACAD_REACTORS
330
1D5
102
}
330
1D5
100
AcDbXrecord
102
MATERIAL
148
0.0
149
0.0
149
0.0
 93
        0
 94
      127
282
     0
 72
     1
 77
     1
171
     1
175
     1
179
     1
273
     0
  0
XRECORD
  5
1D4
102
{ACAD_REACTORS
330
1D3
102
}
330
1D3
100
AcDbXrecord
102
MATERIAL
148
0.0
149
0.0
149
0.0
 93
        0
 94
      127
282
     0
 72
     1
 77
     1
171
     1
175
     1
179
     1
273
     0
  0
XRECORD
  5
1D8
102
{ACAD_REACTORS
330
1D7
102
}
330
1D7
100
AcDbXrecord
102
MATERIAL
148
0.0
149
0.0
149
0.0
 93
        0
 94
      127
282
     0
 72
     1
 77
     1
171
     1
175
     1
179
     1
273
     0
  0
ENDSEC
  0
EOF
