  0
SECTION
  2
HEADER
  9
$ACADVER
  1
AC1014
  9
$ACADMAINTVER
 70
     9
  9
$DWGCODEPAGE
  3
ANSI_1252
  9
$INSBASE
 10
0.0
 20
0.0
 30
0.0
  9
$EXTMIN
 10
-177.6475438529451
 20
-92.91359958691464
 30
0.0
  9
$EXTMAX
 10
159.3526346831495
 20
92.58640041338367
 30
0.0
  9
$LIMMIN
 10
0.0
 20
0.0
  9
$LIMMAX
 10
12.0
 20
9.0
  9
$ORTHOMODE
 70
     0
  9
$REGENMODE
 70
     1
  9
$FILLMODE
 70
     1
  9
$QTEXTMODE
 70
     0
  9
$MIRRTEXT
 70
     1
  9
$DRAGMODE
 70
     2
  9
$LTSCALE
 40
1.0
  9
$OSMODE
 70
    37
  9
$ATTMODE
 70
     1
  9
$TEXTSIZE
 40
0.2
  9
$TRACEWID
 40
0.05
  9
$TEXTSTYLE
  7
STANDARD
  9
$CLAYER
  8
0
  9
$CELTYPE
  6
BYLAYER
  9
$CECOLOR
 62
   256
  9
$CELTSCALE
 40
1.0
  9
$DELOBJ
 70
     1
  9
$DISPSILH
 70
     0
  9
$DIMSCALE
 40
1.0
  9
$DIMASZ
 40
0.18
  9
$DIMEXO
 40
0.0625
  9
$DIMDLI
 40
0.38
  9
$DIMRND
 40
0.0
  9
$DIMDLE
 40
0.0
  9
$DIMEXE
 40
0.18
  9
$DIMTP
 40
0.0
  9
$DIMTM
 40
0.0
  9
$DIMTXT
 40
0.18
  9
$DIMCEN
 40
0.09
  9
$DIMTSZ
 40
0.0
  9
$DIMTOL
 70
     0
  9
$DIMLIM
 70
     0
  9
$DIMTIH
 70
     1
  9
$DIMTOH
 70
     1
  9
$DIMSE1
 70
     0
  9
$DIMSE2
 70
     0
  9
$DIMTAD
 70
     0
  9
$DIMZIN
 70
     0
  9
$DIMBLK
  1

  9
$DIMASO
 70
     1
  9
$DIMSHO
 70
     1
  9
$DIMPOST
  1

  9
$DIMAPOST
  1

  9
$DIMALT
 70
     0
  9
$DIMALTD
 70
     2
  9
$DIMALTF
 40
25.4
  9
$DIMLFAC
 40
1.0
  9
$DIMTOFL
 70
     0
  9
$DIMTVP
 40
0.0
  9
$DIMTIX
 70
     0
  9
$DIMSOXD
 70
     0
  9
$DIMSAH
 70
     0
  9
$DIMBLK1
  1

  9
$DIMBLK2
  1

  9
$DIMSTYLE
  2
STANDARD_ACAD
  9
$DIMCLRD
 70
     0
  9
$DIMCLRE
 70
     0
  9
$DIMCLRT
 70
     0
  9
$DIMTFAC
 40
1.0
  9
$DIMGAP
 40
0.09
  9
$DIMJUST
 70
     0
  9
$DIMSD1
 70
     0
  9
$DIMSD2
 70
     0
  9
$DIMTOLJ
 70
     1
  9
$DIMTZIN
 70
     0
  9
$DIMALTZ
 70
     0
  9
$DIMALTTZ
 70
     0
  9
$DIMFIT
 70
     5
  9
$DIMUPT
 70
     0
  9
$DIMUNIT
 70
     2
  9
$DIMDEC
 70
     4
  9
$DIMTDEC
 70
     4
  9
$DIMALTU
 70
     2
  9
$DIMALTTD
 70
     2
  9
$DIMTXSTY
  7
STANDARD
  9
$DIMAUNIT
 70
     0
  9
$LUNITS
 70
     2
  9
$LUPREC
 70
     3
  9
$SKETCHINC
 40
0.1
  9
$FILLETRAD
 40
0.0
  9
$AUNITS
 70
     0
  9
$AUPREC
 70
     0
  9
$MENU
  1
.
  9
$ELEVATION
 40
0.0
  9
$PELEVATION
 40
0.0
  9
$THICKNESS
 40
0.0
  9
$LIMCHECK
 70
     0
  9
$CHAMFERA
 40
0.0
  9
$CHAMFERB
 40
0.0
  9
$CHAMFERC
 40
0.0
  9
$CHAMFERD
 40
0.0
  9
$SKPOLY
 70
     0
  9
$TDCREATE
 40
2461243.661227627
  9
$TDUPDATE
 40
2461243.661227767
  9
$TDINDWG
 40
0.0000000116
  9
$TDUSRTIMER
 40
0.0000000116
  9
$USRTIMER
 70
     1
  9
$ANGBASE
 50
0.0
  9
$ANGDIR
 70
     0
  9
$PDMODE
 70
     0
  9
$PDSIZE
 40
0.0
  9
$PLINEWID
 40
0.0
  9
$COORDS
 70
     1
  9
$SPLFRAME
 70
     0
  9
$SPLINETYPE
 70
     6
  9
$SPLINESEGS
 70
     8
  9
$ATTDIA
 70
     0
  9
$ATTREQ
 70
     1
  9
$HANDLING
 70
     1
  9
$HANDSEED
  5
1D2
  9
$SURFTAB1
 70
     6
  9
$SURFTAB2
 70
     6
  9
$SURFTYPE
 70
     6
  9
$SURFU
 70
     6
  9
$SURFV
 70
     6
  9
$UCSNAME
  2

  9
$UCSORG
 10
0.0
 20
0.0
 30
0.0
  9
$UCSXDIR
 10
1.0
 20
0.0
 30
0.0
  9
$UCSYDIR
 10
0.0
 20
1.0
 30
0.0
  9
$PUCSNAME
  2

  9
$PUCSORG
 10
0.0
 20
0.0
 30
0.0
  9
$PUCSXDIR
 10
1.0
 20
0.0
 30
0.0
  9
$PUCSYDIR
 10
0.0
 20
1.0
 30
0.0
  9
$USERI1
 70
     0
  9
$USERI2
 70
     0
  9
$USERI3
 70
     0
  9
$USERI4
 70
     0
  9
$USERI5
 70
     0
  9
$USERR1
 40
0.0
  9
$USERR2
 40
0.0
  9
$USERR3
 40
0.0
  9
$USERR4
 40
0.0
  9
$USERR5
 40
0.0
  9
$WORLDVIEW
 70
     1
  9
$SHADEDGE
 70
     3
  9
$SHADEDIF
 70
    70
  9
$TILEMODE
 70
     1
  9
$MAXACTVP
 70
    64
  9
$PINSBASE
 10
0.0
 20
0.0
 30
0.0
  9
$PLIMCHECK
 70
     0
  9
$PEXTMIN
 10
1.000000000000000E+20
 20
1.000000000000000E+20
 30
1.000000000000000E+20
  9
$PEXTMAX
 10
-1.000000000000000E+20
 20
-1.000000000000000E+20
 30
-1.000000000000000E+20
  9
$PLIMMIN
 10
0.0
 20
0.0
  9
$PLIMMAX
 10
12.0
 20
9.0
  9
$UNITMODE
 70
     0
  9
$VISRETAIN
 70
     1
  9
$PLINEGEN
 70
     0
  9
$PSLTSCALE
 70
     1
  9
$TREEDEPTH
 70
  3020
  9
$PICKSTYLE
 70
     1
  9
$CMLSTYLE
  2
STANDARD
  9
$CMLJUST
 70
     0
  9
$CMLSCALE
 40
1.0
  9
$PROXYGRAPHICS
 70
     1
  9
$MEASUREMENT
 70
     1
  0
ENDSEC
  0
SECTION
  2
CLASSES
  0
CLASS
  1
ACDBDICTIONARYWDFLT
  2
AcDbDictionaryWithDefault
  3
ObjectDBX Classes
 90
        0
280
     0
281
     0
  0
CLASS
  1
VISUALSTYLE
  2
AcDbVisualStyle
  3
ObjectDBX Classes
 90
     4095
280
     0
281
     0
  0
CLASS
  1
MATERIAL
  2
AcDbMaterial
  3
ObjectDBX Classes
 90
     1153
280
     0
281
     0
  0
CLASS
  1
SCALE
  2
AcDbScale
  3
ObjectDBX Classes
 90
     1153
280
     0
281
     0
  0
CLASS
  1
TABLESTYLE
  2
AcDbTableStyle
  3
ObjectDBX Classes
 90
     4095
280
     0
281
     0
  0
CLASS
  1
MLEADERSTYLE
  2
AcDbMLeaderStyle
  3
ACDB_MLEADERSTYLE_CLASS
 90
     4095
280
     0
281
     0
  0
CLASS
  1
SUN
  2
AcDbSun
  3
SCENEOE
 90
     1153
280
     0
281
     0
  0
CLASS
  1
DICTIONARYVAR
  2
AcDbDictionaryVar
  3
ObjectDBX Classes
 90
        0
280
     0
281
     0
  0
CLASS
  1
XRECORD
  2
AcDbXrecord
  3
ObjectDBX Classes
 90
        0
280
     0
281
     0
  0
CLASS
  1
LWPOLYLINE
  2
AcDbPolyline
  3
ObjectDBX Classes
 90
        0
280
     0
281
     1
  0
CLASS
  1
HATCH
  2
AcDbHatch
  3
ObjectDBX Classes
 90
        0
280
     0
281
     1
  0
CLASS
  1
ACDBPLACEHOLDER
  2
AcDbPlaceHolder
  3
ObjectDBX Classes
 90
        0
280
     0
281
     0
  0
CLASS
  1
LAYOUT
  2
AcDbLayout
  3
ObjectDBX Classes
 90
        0
280
     0
281
     0
  0
ENDSEC
  0
SECTION
  2
TABLES
  0
TABLE
  2
VPORT
  5
8
102
{ACAD_XDICTIONARY
360
1C7
102
}
330
0
100
AcDbSymbolTable
 70
     1
  0
VPORT
  5
29
330
8
100
AcDbSymbolTableRecord
100
AcDbViewportTableRecord
  2
*ACTIVE
 70
     0
 10
0.0
 20
0.0
 11
1.0
 21
1.0
 12
10.42990654205607
 22
4.5
 13
0.0
 23
0.0
 14
0.5
 24
0.5
 15
0.5
 25
0.5
 16
0.0
 26
0.0
 36
1.0
 17
0.0
 27
0.0
 37
0.0
 40
9.0
 41
1.972972972850329
 42
50.0
 43
0.0
 44
0.0
 50
0.0
 51
0.0
 71
     0
 72
   100
 73
     1
 74
     3
 75
     0
 76
     0
 77
     0
 78
     0
  0
ENDTAB
  0
TABLE
  2
LTYPE
  5
5
330
0
100
AcDbSymbolTable
 70
     1
  0
LTYPE
  5
14
330
5
100
AcDbSymbolTableRecord
100
AcDbLinetypeTableRecord
  2
BYBLOCK
 70
     0
  3

 72
    65
 73
     0
 40
0.0
  0
LTYPE
  5
15
330
5
100
AcDbSymbolTableRecord
100
AcDbLinetypeTableRecord
  2
BYLAYER
 70
     0
  3

 72
    65
 73
     0
 40
0.0
  0
LTYPE
  5
16
330
5
100
AcDbSymbolTableRecord
100
AcDbLinetypeTableRecord
  2
CONTINUOUS
 70
     0
  3
Solid line
 72
    65
 73
     0
 40
0.0
  0
ENDTAB
  0
TABLE
  2
LAYER
  5
2
330
0
100
AcDbSymbolTable
 70
     3
  0
LAYER
  5
10
330
2
100
AcDbSymbolTableRecord
100
AcDbLayerTableRecord
  2
0
 70
     0
 62
     7
  6
CONTINUOUS
  0
LAYER
  5
5F
330
2
100
AcDbSymbolTableRecord
100
AcDbLayerTableRecord
  2
1_ANYTOOL_1MMDEEP_LABELS_S
 70
     0
 62
     2
  6
CONTINUOUS
  0
LAYER
  5
177
330
2
100
AcDbSymbolTableRecord
100
AcDbLayerTableRecord
  2
4_ANYTOOL_CUTTHROUGH_OUTSI
 70
     0
 62
     5
  6
CONTINUOUS
  0
ENDTAB
  0
TABLE
  2
STYLE
  5
3
330
0
100
AcDbSymbolTable
 70
     1
  0
STYLE
  5
11
330
3
100
AcDbSymbolTableRecord
100
AcDbTextStyleTableRecord
  2
STANDARD
 70
     0
 40
0.0
 41
1.0
 50
0.0
 71
     0
 42
0.2
  3
txt
  4

  0
ENDTAB
  0
TABLE
  2
VIEW
  5
6
330
0
100
AcDbSymbolTable
 70
     0
  0
ENDTAB
  0
TABLE
  2
UCS
  5
7
330
0
100
AcDbSymbolTable
 70
     0
  0
ENDTAB
  0
TABLE
  2
APPID
  5
9
330
0
100
AcDbSymbolTable
 70
     3
  0
APPID
  5
12
330
9
100
AcDbSymbolTableRecord
100
AcDbRegAppTableRecord
  2
ACAD
 70
     0
  0
APPID
  5
5E
330
9
100
AcDbSymbolTableRecord
100
AcDbRegAppTableRecord
  2
RHINO
 70
     0
  0
APPID
  5
1D1
330
9
100
AcDbSymbolTableRecord
100
AcDbRegAppTableRecord
  2
ACAD_MLEADERVER
 70
     0
  0
ENDTAB
  0
TABLE
  2
DIMSTYLE
  5
A
330
0
100
AcDbSymbolTable
 70
     1
  0
DIMSTYLE
105
27
330
A
100
AcDbSymbolTableRecord
100
AcDbDimStyleTableRecord
  2
STANDARD_ACAD
 70
     0
  3

  4

  5

  6

  7

 40
1.0
 41
0.18
 42
0.0625
 43
0.38
 44
0.18
 45
0.0
 46
0.0
 47
0.0
 48
0.0
140
0.18
141
0.09
142
0.0
143
25.4
144
1.0
145
0.0
146
1.0
147
0.09
 71
     0
 72
     0
 73
     1
 74
     1
 75
     0
 76
     0
 77
     0
 78
     0
170
     0
171
     2
172
     0
173
     0
174
     0
175
     0
176
     0
177
     0
178
     0
270
     2
271
     4
272
     4
273
     2
274
     2
340
11
275
     0
280
     0
281
     0
282
     0
283
     1
284
     0
285
     0
286
     0
287
     3
288
     0
  0
ENDTAB
  0
TABLE
  2
BLOCK_RECORD
  5
1
330
0
100
AcDbSymbolTable
 70
     0
  0
BLOCK_RECORD
  5
1F
330
1
100
AcDbSymbolTableRecord
100
AcDbBlockTableRecord
  2
*MODEL_SPACE
  0
BLOCK_RECORD
  5
1B
330
1
100
AcDbSymbolTableRecord
100
AcDbBlockTableRecord
  2
*PAPER_SPACE
  0
ENDTAB
  0
ENDSEC
  0
SECTION
  2
BLOCKS
  0
BLOCK
  5
20
330
1F
100
AcDbEntity
  8
0
100
AcDbBlockBegin
  2
*MODEL_SPACE
 70
     0
 10
0.0
 20
0.0
 30
0.0
  3
*MODEL_SPACE
  1

  0
ENDBLK
  5
21
330
1F
100
AcDbEntity
  8
0
100
AcDbBlockEnd
  0
BLOCK
  5
1C
330
1B
100
AcDbEntity
 67
     1
  8
0
100
AcDbBlockBegin
  2
*PAPER_SPACE
 70
     0
 10
0.0
 20
0.0
 30
0.0
  3
*PAPER_SPACE
  1

  0
ENDBLK
  5
1D
330
1B
100
AcDbEntity
 67
     1
  8
0
100
AcDbBlockEnd
  0
ENDSEC
  0
SECTION
  2
ENTITIES
  0
LINE
  5
60
330
1F
100
AcDbEntity
  8
1_ANYTOOL_1MMDEEP_LABELS_S
100
AcDbLine
 10
76.18131465035185
 20
-13.92857142858702
 30
0.0
 11
61.52417179321128
 21
-13.92857142858702
 31
0.0
  0
POLYLINE
  5
61
330
1F
100
AcDbEntity
  8
1_ANYTOOL_1MMDEEP_LABELS_S
100
AcDb2dPolyline
 66
     1
 10
0.0
 20
0.0
 30
0.0
  0
VERTEX
  5
62
330
61
100
AcDbEntity
  8
1_ANYTOOL_1MMDEEP_LABELS_S
100
AcDbVertex
100
AcDb2dVertex
 10
80.46702893606925
 20
-30.00000000001455
 30
0.0
  0
VERTEX
  5
63
330
61
100
AcDbEntity
  8
1_ANYTOOL_1MMDEEP_LABELS_S
100
AcDbVertex
100
AcDb2dVertex
 10
61.52417179321128
 20
-30.00000000001455
 30
0.0
  0
VERTEX
  5
64
330
61
100
AcDbEntity
  8
1_ANYTOOL_1MMDEEP_LABELS_S
100
AcDbVertex
100
AcDb2dVertex
 10
61.52417179321128
 20
-0.0000000000145519
 30
0.0
  0
VERTEX
  5
65
330
61
100
AcDbEntity
  8
1_ANYTOOL_1MMDEEP_LABELS_S
100
AcDbVertex
100
AcDb2dVertex
 10
79.35274322178157
 20
-0.0000000000145519
 30
0.0
  0
SEQEND
  5
66
330
61
100
AcDbEntity
  8
1_ANYTOOL_1MMDEEP_LABELS_S
  0
LINE
  5
67
330
1F
100
AcDbEntity
  8
1_ANYTOOL_1MMDEEP_LABELS_S
100
AcDbLine
 10
58.09560036463881
 20
-0.4714285714435391
 30
0.0
 11
40.90988607892359
 21
-31.24285714286816
 31
0.0
  0
LINE
  5
68
330
1F
100
AcDbEntity
  8
1_ANYTOOL_1MMDEEP_LABELS_S
100
AcDbLine
 10
13.90988607892359
 20
-21.34285714287398
 30
0.0
 11
35.68131465035185
 21
-21.34285714287398
 31
0.0
  0
POLYLINE
  5
69
330
1F
100
AcDbEntity
  8
1_ANYTOOL_1MMDEEP_LABELS_S
100
AcDb2dPolyline
 66
     1
 10
0.0
 20
0.0
 30
0.0
  0
VERTEX
  5
6A
330
69
100
AcDbEntity
  8
1_ANYTOOL_1MMDEEP_LABELS_S
100
AcDbVertex
100
AcDb2dVertex
 10
29.89560036463809
 20
-30.00000000001455
 30
0.0
  0
VERTEX
  5
6B
330
69
100
AcDbEntity
  8
1_ANYTOOL_1MMDEEP_LABELS_S
100
AcDbVertex
100
AcDb2dVertex
 10
29.9384575074946
 20
0.0428571428419673
 30
0.0
  0
VERTEX
  5
6C
330
69
100
AcDbEntity
  8
1_ANYTOOL_1MMDEEP_LABELS_S
100
AcDbVertex
100
AcDb2dVertex
 10
13.90988607892359
 20
-21.34285714287398
 30
0.0
  0
SEQEND
  5
6D
330
69
100
AcDbEntity
  8
1_ANYTOOL_1MMDEEP_LABELS_S
  0
LINE
  5
6E
330
1F
100
AcDbEntity
  8
1_ANYTOOL_1MMDEEP_LABELS_S
100
AcDbLine
 10
9.624171793209825
 20
-16.1142857142986
 30
0.0
 11
0.8384575074960594
 21
-16.20000000001164
 31
0.0
  0
POLYLINE
  5
6F
330
1F
100
AcDbEntity
  8
1_ANYTOOL_1MMDEEP_LABELS_S
100
AcDb2dPolyline
 66
     1
 10
0.0
 20
0.0
 30
0.0
  0
VERTEX
  5
70
330
6F
100
AcDbEntity
  8
1_ANYTOOL_1MMDEEP_LABELS_S
100
AcDbVertex
100
AcDb2dVertex
 10
-20.11868534964742
 20
-0.0000000000145519
 30
0.0
  0
VERTEX
  5
71
330
6F
100
AcDbEntity
  8
1_ANYTOOL_1MMDEEP_LABELS_S
100
AcDbVertex
100
AcDb2dVertex
 10
-20.11868534964742
 20
-30.00000000001455
 30
0.0
  0
VERTEX
  5
72
330
6F
100
AcDbEntity
  8
1_ANYTOOL_1MMDEEP_LABELS_S
100
AcDbVertex
100
AcDb2dVertex
 10
-3.018685349645239
 20
-30.00000000001455
 30
0.0
  0
SEQEND
  5
73
330
6F
100
AcDbEntity
  8
1_ANYTOOL_1MMDEEP_LABELS_S
  0
LINE
  5
74
330
1F
100
AcDbEntity
  8
1_ANYTOOL_1MMDEEP_LABELS_S
100
AcDbLine
 10
-25.26154249250249
 20
-16.1142857142986
 30
0.0
 11
-34.04725677821625
 21
-16.20000000001164
 31
0.0
  0
POLYLINE
  5
75
330
1F
100
AcDbEntity
  8
1_ANYTOOL_1MMDEEP_LABELS_S
100
AcDb2dPolyline
 66
     1
 10
0.0
 20
0.0
 30
0.0
 70
     1
  0
VERTEX
  5
76
330
75
100
AcDbEntity
  8
1_ANYTOOL_1MMDEEP_LABELS_S
100
AcDbVertex
100
AcDb2dVertex
 10
-49.21868534964597
 20
0.3428571428448777
 30
0.0
  0
VERTEX
  5
77
330
75
100
AcDbEntity
  8
1_ANYTOOL_1MMDEEP_LABELS_S
100
AcDbVertex
100
AcDb2dVertex
 10
-48.84720097464597
 20
0.3369977678448777
 30
0.0
  0
VERTEX
  5
78
330
75
100
AcDbEntity
  8
1_ANYTOOL_1MMDEEP_LABELS_S
100
AcDbVertex
100
AcDb2dVertex
 10
-48.48274784964599
 20
0.3194196428448777
 30
0.0
  0
VERTEX
  5
79
330
75
100
AcDbEntity
  8
1_ANYTOOL_1MMDEEP_LABELS_S
100
AcDbVertex
100
AcDb2dVertex
 10
-48.12532597464602
 20
0.2901227678448777
 30
0.0
  0
VERTEX
  5
7A
330
75
100
AcDbEntity
  8
1_ANYTOOL_1MMDEEP_LABELS_S
100
AcDbVertex
100
AcDb2dVertex
 10
-47.94925175589604
 20
0.2710797990948777
 30
0.0
  0
VERTEX
  5
7B
330
75
100
AcDbEntity
  8
1_ANYTOOL_1MMDEEP_LABELS_S
100
AcDbVertex
100
AcDb2dVertex
 10
-47.77493534964606
 20
0.2491071428448777
 30
0.0
  0
VERTEX
  5
7C
330
75
100
AcDbEntity
  8
1_ANYTOOL_1MMDEEP_LABELS_S
100
AcDbVertex
100
AcDb2dVertex
 10
-47.60237675589608
 20
0.2242047990948777
 30
0.0
  0
VERTEX
  5
7D
330
75
100
AcDbEntity
  8
1_ANYTOOL_1MMDEEP_LABELS_S
100
AcDbVertex
100
AcDb2dVertex
 10
-47.43157597464611
 20
0.1963727678448777
 30
0.0
  0
VERTEX
  5
7E
330
75
100
AcDbEntity
  8
1_ANYTOOL_1MMDEEP_LABELS_S
100
AcDbVertex
100
AcDb2dVertex
 10
-47.26253300589614
 20
0.1656110490948777
 30
0.0
  0
VERTEX
  5
7F
330
75
100
AcDbEntity
  8
1_ANYTOOL_1MMDEEP_LABELS_S
100
AcDbVertex
100
AcDb2dVertex
 10
-47.09524784964617
 20
0.1319196428448777
 30
0.0
  0
VERTEX
  5
80
330
75
100
AcDbEntity
  8
1_ANYTOOL_1MMDEEP_LABELS_S
100
AcDbVertex
100
AcDb2dVertex
 10
-46.92972050589621
 20
0.0952985490948777
 30
0.0
  0
VERTEX
  5
81
330
75
100
AcDbEntity
  8
1_ANYTOOL_1MMDEEP_LABELS_S
100
AcDbVertex
100
AcDb2dVertex
 10
-46.76595097464624
 20
0.0557477678448777
 30
0.0
  0
VERTEX
  5
82
330
75
100
AcDbEntity
  8
1_ANYTOOL_1MMDEEP_LABELS_S
100
AcDbVertex
100
AcDb2dVertex
 10
-46.60393925589629
 20
0.0132672990948777
 30
0.0
  0
VERTEX
  5
83
330
75
100
AcDbEntity
  8
1_ANYTOOL_1MMDEEP_LABELS_S
100
AcDbVertex
100
AcDb2dVertex
 10
-46.44368534964633
 20
-0.0321428571551223
 30
0.0
  0
VERTEX
  5
84
330
75
100
AcDbEntity
  8
1_ANYTOOL_1MMDEEP_LABELS_S
100
AcDbVertex
100
AcDb2dVertex
 10
-46.28518925589638
 20
-0.0804827009051223
 30
0.0
  0
VERTEX
  5
85
330
75
100
AcDbEntity
  8
1_ANYTOOL_1MMDEEP_LABELS_S
100
AcDbVertex
100
AcDb2dVertex
 10
-46.12845097464643
 20
-0.1317522321551223
 30
0.0
  0
VERTEX
  5
86
330
75
100
AcDbEntity
  8
1_ANYTOOL_1MMDEEP_LABELS_S
100
AcDbVertex
100
AcDb2dVertex
 10
-45.97347050589648
 20
-0.1859514509051223
 30
0.0
  0
VERTEX
  5
87
330
75
100
AcDbEntity
  8
1_ANYTOOL_1MMDEEP_LABELS_S
100
AcDbVertex
100
AcDb2dVertex
 10
-45.82024784964653
 20
-0.2430803571551223
 30
0.0
  0
VERTEX
  5
88
330
75
100
AcDbEntity
  8
1_ANYTOOL_1MMDEEP_LABELS_S
100
AcDbVertex
100
AcDb2dVertex
 10
-45.66878300589659
 20
-0.3031389509051223
 30
0.0
  0
VERTEX
  5
89
330
75
100
AcDbEntity
  8
1_ANYTOOL_1MMDEEP_LABELS_S
100
AcDbVertex
100
AcDb2dVertex
 10
-45.51907597464665
 20
-0.3661272321551223
 30
0.0
  0
VERTEX
  5
8A
330
75
100
AcDbEntity
  8
1_ANYTOOL_1MMDEEP_LABELS_S
100
AcDbVertex
100
AcDb2dVertex
 10
-45.37112675589672
 20
-0.4320452009051223
 30
0.0
  0
VERTEX
  5
8B
330
75
100
AcDbEntity
  8
1_ANYTOOL_1MMDEEP_LABELS_S
100
AcDbVertex
100
AcDb2dVertex
 10
-45.22493534964678
 20
-0.5008928571551223
 30
0.0
  0
VERTEX
  5
8C
330
75
100
AcDbEntity
  8
1_ANYTOOL_1MMDEEP_LABELS_S
100
AcDbVertex
100
AcDb2dVertex
 10
-45.08050175589685
 20
-0.5726702009051223
 30
0.0
  0
VERTEX
  5
8D
330
75
100
AcDbEntity
  8
1_ANYTOOL_1MMDEEP_LABELS_S
100
AcDbVertex
100
AcDb2dVertex
 10
-44.93782597464693
 20
-0.6473772321551223
 30
0.0
  0
VERTEX
  5
8E
330
75
100
AcDbEntity
  8
1_ANYTOOL_1MMDEEP_LABELS_S
100
AcDbVertex
100
AcDb2dVertex
 10
-44.796908005897
 20
-0.7250139509051223
 30
0.0
  0
VERTEX
  5
8F
330
75
100
AcDbEntity
  8
1_ANYTOOL_1MMDEEP_LABELS_S
100
AcDbVertex
100
AcDb2dVertex
 10
-44.65774784964708
 20
-0.8055803571551223
 30
0.0
  0
VERTEX
  5
90
330
75
100
AcDbEntity
  8
1_ANYTOOL_1MMDEEP_LABELS_S
100
AcDbVertex
100
AcDb2dVertex
 10
-44.52034550589716
 20
-0.8890764509051223
 30
0.0
  0
VERTEX
  5
91
330
75
100
AcDbEntity
  8
1_ANYTOOL_1MMDEEP_LABELS_S
100
AcDbVertex
100
AcDb2dVertex
 10
-44.38470097464725
 20
-0.9755022321551223
 30
0.0
  0
VERTEX
  5
92
330
75
100
AcDbEntity
  8
1_ANYTOOL_1MMDEEP_LABELS_S
100
AcDbVertex
100
AcDb2dVertex
 10
-44.25081425589733
 20
-1.064857700905122
 30
0.0
  0
VERTEX
  5
93
330
75
100
AcDbEntity
  8
1_ANYTOOL_1MMDEEP_LABELS_S
100
AcDbVertex
100
AcDb2dVertex
 10
-43.8591987425043
 20
-1.342466517869497
 30
0.0
  0
VERTEX
  5
94
330
75
100
AcDbEntity
  8
1_ANYTOOL_1MMDEEP_LABELS_S
100
AcDbVertex
100
AcDb2dVertex
 10
-43.6057389210755
 20
-1.534151785726749
 30
0.0
  0
VERTEX
  5
95
330
75
100
AcDbEntity
  8
1_ANYTOOL_1MMDEEP_LABELS_S
100
AcDbVertex
100
AcDb2dVertex
 10
-43.35830588536101
 20
-1.73219866072688
 30
0.0
  0
VERTEX
  5
96
330
75
100
AcDbEntity
  8
1_ANYTOOL_1MMDEEP_LABELS_S
100
AcDbVertex
100
AcDb2dVertex
 10
-43.11689963536082
 20
-1.936607142869889
 30
0.0
  0
VERTEX
  5
97
330
75
100
AcDbEntity
  8
1_ANYTOOL_1MMDEEP_LABELS_S
100
AcDbVertex
100
AcDb2dVertex
 10
-42.88152017107495
 20
-2.147377232155776
 30
0.0
  0
VERTEX
  5
98
330
75
100
AcDbEntity
  8
1_ANYTOOL_1MMDEEP_LABELS_S
100
AcDbVertex
100
AcDb2dVertex
 10
-42.65216749250339
 20
-2.364508928584542
 30
0.0
  0
VERTEX
  5
99
330
75
100
AcDbEntity
  8
1_ANYTOOL_1MMDEEP_LABELS_S
100
AcDbVertex
100
AcDb2dVertex
 10
-42.42884159964615
 20
-2.588002232156185
 30
0.0
  0
VERTEX
  5
9A
330
75
100
AcDbEntity
  8
1_ANYTOOL_1MMDEEP_LABELS_S
100
AcDbVertex
100
AcDb2dVertex
 10
-42.21154249250321
 20
-2.817857142870707
 30
0.0
  0
VERTEX
  5
9B
330
75
100
AcDbEntity
  8
1_ANYTOOL_1MMDEEP_LABELS_S
100
AcDbVertex
100
AcDb2dVertex
 10
-42.00027017107459
 20
-3.054073660728108
 30
0.0
  0
VERTEX
  5
9C
330
75
100
AcDbEntity
  8
1_ANYTOOL_1MMDEEP_LABELS_S
100
AcDbVertex
100
AcDb2dVertex
 10
-41.79502463536028
 20
-3.296651785728386
 30
0.0
  0
VERTEX
  5
9D
330
75
100
AcDbEntity
  8
1_ANYTOOL_1MMDEEP_LABELS_S
100
AcDbVertex
100
AcDb2dVertex
 10
-41.59580588536028
 20
-3.545591517871543
 30
0.0
  0
VERTEX
  5
9E
330
75
100
AcDbEntity
  8
1_ANYTOOL_1MMDEEP_LABELS_S
100
AcDbVertex
100
AcDb2dVertex
 10
-41.40261392107459
 20
-3.800892857157578
 30
0.0
  0
VERTEX
  5
9F
330
75
100
AcDbEntity
  8
1_ANYTOOL_1MMDEEP_LABELS_S
100
AcDbVertex
100
AcDb2dVertex
 10
-41.21544874250321
 20
-4.062555803586491
 30
0.0
  0
VERTEX
  5
A0
330
75
100
AcDbEntity
  8
1_ANYTOOL_1MMDEEP_LABELS_S
100
AcDbVertex
100
AcDb2dVertex
 10
-41.03431034964615
 20
-4.330580357158283
 30
0.0
  0
VERTEX
  5
A1
330
75
100
AcDbEntity
  8
1_ANYTOOL_1MMDEEP_LABELS_S
100
AcDbVertex
100
AcDb2dVertex
 10
-40.85919874250339
 20
-4.604966517872953
 30
0.0
  0
VERTEX
  5
A2
330
75
100
AcDbEntity
  8
1_ANYTOOL_1MMDEEP_LABELS_S
100
AcDbVertex
100
AcDb2dVertex
 10
-40.52169874250373
 20
-5.171484375015751
 30
0.0
  0
VERTEX
  5
A3
330
75
100
AcDbEntity
  8
1_ANYTOOL_1MMDEEP_LABELS_S
100
AcDbVertex
100
AcDb2dVertex
 10
-40.35931034964676
 20
-5.460937500015348
 30
0.0
  0
VERTEX
  5
A4
330
75
100
AcDbEntity
  8
1_ANYTOOL_1MMDEEP_LABELS_S
100
AcDbVertex
100
AcDb2dVertex
 10
-40.20294874250405
 20
-5.75407366072929
 30
0.0
  0
VERTEX
  5
A5
330
75
100
AcDbEntity
  8
1_ANYTOOL_1MMDEEP_LABELS_S
100
AcDbVertex
100
AcDb2dVertex
 10
-40.05261392107559
 20
-6.050892857157578
 30
0.0
  0
VERTEX
  5
A6
330
75
100
AcDbEntity
  8
1_ANYTOOL_1MMDEEP_LABELS_S
100
AcDbVertex
100
AcDb2dVertex
 10
-39.90830588536139
 20
-6.351395089300212
 30
0.0
  0
VERTEX
  5
A7
330
75
100
AcDbEntity
  8
1_ANYTOOL_1MMDEEP_LABELS_S
100
AcDbVertex
100
AcDb2dVertex
 10
-39.77002463536144
 20
-6.655580357157191
 30
0.0
  0
VERTEX
  5
A8
330
75
100
AcDbEntity
  8
1_ANYTOOL_1MMDEEP_LABELS_S
100
AcDbVertex
100
AcDb2dVertex
 10
-39.63777017107574
 20
-6.963448660728517
 30
0.0
  0
VERTEX
  5
A9
330
75
100
AcDbEntity
  8
1_ANYTOOL_1MMDEEP_LABELS_S
100
AcDbVertex
100
AcDb2dVertex
 10
-39.5115424925043
 20
-7.275000000014188
 30
0.0
  0
VERTEX
  5
AA
330
75
100
AcDbEntity
  8
1_ANYTOOL_1MMDEEP_LABELS_S
100
AcDbVertex
100
AcDb2dVertex
 10
-39.39134159964712
 20
-7.590234375014205
 30
0.0
  0
VERTEX
  5
AB
330
75
100
AcDbEntity
  8
1_ANYTOOL_1MMDEEP_LABELS_S
100
AcDbVertex
100
AcDb2dVertex
 10
-39.27716749250419
 20
-7.909151785728568
 30
0.0
  0
VERTEX
  5
AC
330
75
100
AcDbEntity
  8
1_ANYTOOL_1MMDEEP_LABELS_S
100
AcDbVertex
100
AcDb2dVertex
 10
-39.16902017107552
 20
-8.231752232157277
 30
0.0
  0
VERTEX
  5
AD
330
75
100
AcDbEntity
  8
1_ANYTOOL_1MMDEEP_LABELS_S
100
AcDbVertex
100
AcDb2dVertex
 10
-39.0668996353611
 20
-8.558035714300331
 30
0.0
  0
VERTEX
  5
AE
330
75
100
AcDbEntity
  8
1_ANYTOOL_1MMDEEP_LABELS_S
100
AcDbVertex
100
AcDb2dVertex
 10
-38.97080588536093
 20
-8.888002232157731
 30
0.0
  0
VERTEX
  5
AF
330
75
100
AcDbEntity
  8
1_ANYTOOL_1MMDEEP_LABELS_S
100
AcDbVertex
100
AcDb2dVertex
 10
-38.88073892107502
 20
-9.221651785729478
 30
0.0
  0
VERTEX
  5
B0
330
75
100
AcDbEntity
  8
1_ANYTOOL_1MMDEEP_LABELS_S
100
AcDbVertex
100
AcDb2dVertex
 10
-38.79669874250337
 20
-9.55898437501557
 30
0.0
  0
VERTEX
  5
B1
330
75
100
AcDbEntity
  8
1_ANYTOOL_1MMDEEP_LABELS_S
100
AcDbVertex
100
AcDb2dVertex
 10
-38.56801570678931
 20
-10.58236607144374
 30
0.0
  0
VERTEX
  5
B2
330
75
100
AcDbEntity
  8
1_ANYTOOL_1MMDEEP_LABELS_S
100
AcDbVertex
100
AcDb2dVertex
 10
-38.43743534964688
 20
-11.25803571430015
 30
0.0
  0
VERTEX
  5
B3
330
75
100
AcDbEntity
  8
1_ANYTOOL_1MMDEEP_LABELS_S
100
AcDbVertex
100
AcDb2dVertex
 10
-38.32694427821866
 20
-11.92700892858522
 30
0.0
  0
VERTEX
  5
B4
330
75
100
AcDbEntity
  8
1_ANYTOOL_1MMDEEP_LABELS_S
100
AcDbVertex
100
AcDb2dVertex
 10
-38.23654249250467
 20
-12.58928571429897
 30
0.0
  0
VERTEX
  5
B5
330
75
100
AcDbEntity
  8
1_ANYTOOL_1MMDEEP_LABELS_S
100
AcDbVertex
100
AcDb2dVertex
 10
-38.1662299925049
 20
-13.24486607144138
 30
0.0
  0
VERTEX
  5
B6
330
75
100
AcDbEntity
  8
1_ANYTOOL_1MMDEEP_LABELS_S
100
AcDbVertex
100
AcDb2dVertex
 10
-38.11600677821934
 20
-13.89375000001246
 30
0.0
  0
VERTEX
  5
B7
330
75
100
AcDbEntity
  8
1_ANYTOOL_1MMDEEP_LABELS_S
100
AcDbVertex
100
AcDb2dVertex
 10
-38.08587284964801
 20
-14.53593750001221
 30
0.0
  0
VERTEX
  5
B8
330
75
100
AcDbEntity
  8
1_ANYTOOL_1MMDEEP_LABELS_S
100
AcDbVertex
100
AcDb2dVertex
 10
-38.0758282067909
 20
-15.17142857144063
 30
0.0
  0
VERTEX
  5
B9
330
75
100
AcDbEntity
  8
1_ANYTOOL_1MMDEEP_LABELS_S
100
AcDbVertex
100
AcDb2dVertex
 10
-38.08670990321947
 20
-15.80892857144133
 30
0.0
  0
VERTEX
  5
BA
330
75
100
AcDbEntity
  8
1_ANYTOOL_1MMDEEP_LABELS_S
100
AcDbVertex
100
AcDb2dVertex
 10
-38.11935499250518
 20
-16.44642857144197
 30
0.0
  0
VERTEX
  5
BB
330
75
100
AcDbEntity
  8
1_ANYTOOL_1MMDEEP_LABELS_S
100
AcDbVertex
100
AcDb2dVertex
 10
-38.17376347464803
 20
-17.08392857144256
 30
0.0
  0
VERTEX
  5
BC
330
75
100
AcDbEntity
  8
1_ANYTOOL_1MMDEEP_LABELS_S
100
AcDbVertex
100
AcDb2dVertex
 10
-38.24993534964801
 20
-17.72142857144308
 30
0.0
  0
VERTEX
  5
BD
330
75
100
AcDbEntity
  8
1_ANYTOOL_1MMDEEP_LABELS_S
100
AcDbVertex
100
AcDb2dVertex
 10
-38.34787061750514
 20
-18.35892857144356
 30
0.0
  0
VERTEX
  5
BE
330
75
100
AcDbEntity
  8
1_ANYTOOL_1MMDEEP_LABELS_S
100
AcDbVertex
100
AcDb2dVertex
 10
-38.4675692782194
 20
-18.99642857144397
 30
0.0
  0
VERTEX
  5
BF
330
75
100
AcDbEntity
  8
1_ANYTOOL_1MMDEEP_LABELS_S
100
AcDbVertex
100
AcDb2dVertex
 10
-38.6090313317908
 20
-19.63392857144433
 30
0.0
  0
VERTEX
  5
C0
330
75
100
AcDbEntity
  8
1_ANYTOOL_1MMDEEP_LABELS_S
100
AcDbVertex
100
AcDb2dVertex
 10
-38.77225677821934
 20
-20.27142857144463
 30
0.0
  0
VERTEX
  5
C1
330
75
100
AcDbEntity
  8
1_ANYTOOL_1MMDEEP_LABELS_S
100
AcDbVertex
100
AcDb2dVertex
 10
-38.95724561750502
 20
-20.90892857144487
 30
0.0
  0
VERTEX
  5
C2
330
75
100
AcDbEntity
  8
1_ANYTOOL_1MMDEEP_LABELS_S
100
AcDbVertex
100
AcDb2dVertex
 10
-39.16399784964784
 20
-21.54642857144506
 30
0.0
  0
VERTEX
  5
C3
330
75
100
AcDbEntity
  8
1_ANYTOOL_1MMDEEP_LABELS_S
100
AcDbVertex
100
AcDb2dVertex
 10
-39.3925134746478
 20
-22.18392857144519
 30
0.0
  0
VERTEX
  5
C4
330
75
100
AcDbEntity
  8
1_ANYTOOL_1MMDEEP_LABELS_S
100
AcDbVertex
100
AcDb2dVertex
 10
-39.6427924925049
 20
-22.82142857144527
 30
0.0
  0
VERTEX
  5
C5
330
75
100
AcDbEntity
  8
1_ANYTOOL_1MMDEEP_LABELS_S
100
AcDbVertex
100
AcDb2dVertex
 10
-39.91483490321913
 20
-23.45892857144528
 30
0.0
  0
VERTEX
  5
C6
330
75
100
AcDbEntity
  8
1_ANYTOOL_1MMDEEP_LABELS_S
100
AcDbVertex
100
AcDb2dVertex
 10
-40.2086407067905
 20
-24.09642857144524
 30
0.0
  0
VERTEX
  5
C7
330
75
100
AcDbEntity
  8
1_ANYTOOL_1MMDEEP_LABELS_S
100
AcDbVertex
100
AcDb2dVertex
 10
-40.52420990321902
 20
-24.73392857144515
 30
0.0
  0
VERTEX
  5
C8
330
75
100
AcDbEntity
  8
1_ANYTOOL_1MMDEEP_LABELS_S
100
AcDbVertex
100
AcDb2dVertex
 10
-40.86154249250467
 20
-25.37142857144499
 30
0.0
  0
VERTEX
  5
C9
330
75
100
AcDbEntity
  8
1_ANYTOOL_1MMDEEP_LABELS_S
100
AcDbVertex
100
AcDb2dVertex
 10
-41.03611001482611
 20
-25.6851981026949
 30
0.0
  0
VERTEX
  5
CA
330
75
100
AcDbEntity
  8
1_ANYTOOL_1MMDEEP_LABELS_S
100
AcDbVertex
100
AcDb2dVertex
 10
-41.21695543893325
 20
-25.98900669644482
 30
0.0
  0
VERTEX
  5
CB
330
75
100
AcDbEntity
  8
1_ANYTOOL_1MMDEEP_LABELS_S
100
AcDbVertex
100
AcDb2dVertex
 10
-41.40407876482612
 20
-26.28285435269473
 30
0.0
  0
VERTEX
  5
CC
330
75
100
AcDbEntity
  8
1_ANYTOOL_1MMDEEP_LABELS_S
100
AcDbVertex
100
AcDb2dVertex
 10
-41.5974799925047
 20
-26.56674107144465
 30
0.0
  0
VERTEX
  5
CD
330
75
100
AcDbEntity
  8
1_ANYTOOL_1MMDEEP_LABELS_S
100
AcDbVertex
100
AcDb2dVertex
 10
-41.797159121969
 20
-26.84066685269458
 30
0.0
  0
VERTEX
  5
CE
330
75
100
AcDbEntity
  8
1_ANYTOOL_1MMDEEP_LABELS_S
100
AcDbVertex
100
AcDb2dVertex
 10
-42.00311615321901
 20
-27.1046316964445
 30
0.0
  0
VERTEX
  5
CF
330
75
100
AcDbEntity
  8
1_ANYTOOL_1MMDEEP_LABELS_S
100
AcDbVertex
100
AcDb2dVertex
 10
-42.21535108625474
 20
-27.35863560269443
 30
0.0
  0
VERTEX
  5
D0
330
75
100
AcDbEntity
  8
1_ANYTOOL_1MMDEEP_LABELS_S
100
AcDbVertex
100
AcDb2dVertex
 10
-42.43386392107618
 20
-27.60267857144436
 30
0.0
  0
VERTEX
  5
D1
330
75
100
AcDbEntity
  8
1_ANYTOOL_1MMDEEP_LABELS_S
100
AcDbVertex
100
AcDb2dVertex
 10
-42.54547455165655
 20
-27.72096470425682
 30
0.0
  0
VERTEX
  5
D2
330
75
100
AcDbEntity
  8
1_ANYTOOL_1MMDEEP_LABELS_S
100
AcDbVertex
100
AcDb2dVertex
 10
-42.65865465768334
 20
-27.83676060269429
 30
0.0
  0
VERTEX
  5
D3
330
75
100
AcDbEntity
  8
1_ANYTOOL_1MMDEEP_LABELS_S
100
AcDbVertex
100
AcDb2dVertex
 10
-42.77340423915656
 20
-27.95006626675676
 30
0.0
  0
VERTEX
  5
D4
330
75
100
AcDbEntity
  8
1_ANYTOOL_1MMDEEP_LABELS_S
100
AcDbVertex
100
AcDb2dVertex
 10
-42.88972329607621
 20
-28.06088169644423
 30
0.0
  0
VERTEX
  5
D5
330
75
100
AcDbEntity
  8
1_ANYTOOL_1MMDEEP_LABELS_S
100
AcDbVertex
100
AcDb2dVertex
 10
-43.00761182844229
 20
-28.16920689175669
 30
0.0
  0
VERTEX
  5
D6
330
75
100
AcDbEntity
  8
1_ANYTOOL_1MMDEEP_LABELS_S
100
AcDbVertex
100
AcDb2dVertex
 10
-43.1270698362548
 20
-28.27504185269417
 30
0.0
  0
VERTEX
  5
D7
330
75
100
AcDbEntity
  8
1_ANYTOOL_1MMDEEP_LABELS_S
100
AcDbVertex
100
AcDb2dVertex
 10
-43.24809731951374
 20
-28.37838657925663
 30
0.0
  0
VERTEX
  5
D8
330
75
100
AcDbEntity
  8
1_ANYTOOL_1MMDEEP_LABELS_S
100
AcDbVertex
100
AcDb2dVertex
 10
-43.3706942782191
 20
-28.47924107144411
 30
0.0
  0
VERTEX
  5
D9
330
75
100
AcDbEntity
  8
1_ANYTOOL_1MMDEEP_LABELS_S
100
AcDbVertex
100
AcDb2dVertex
 10
-43.4948607123709
 20
-28.57760532925658
 30
0.0
  0
VERTEX
  5
DA
330
75
100
AcDbEntity
  8
1_ANYTOOL_1MMDEEP_LABELS_S
100
AcDbVertex
100
AcDb2dVertex
 10
-43.62059662196913
 20
-28.67347935269405
 30
0.0
  0
VERTEX
  5
DB
330
75
100
AcDbEntity
  8
1_ANYTOOL_1MMDEEP_LABELS_S
100
AcDbVertex
100
AcDb2dVertex
 10
-43.74790200701378
 20
-28.76686314175652
 30
0.0
  0
VERTEX
  5
DC
330
75
100
AcDbEntity
  8
1_ANYTOOL_1MMDEEP_LABELS_S
100
AcDbVertex
100
AcDb2dVertex
 10
-43.87677686750486
 20
-28.857756696444
 30
0.0
  0
VERTEX
  5
DD
330
75
100
AcDbEntity
  8
1_ANYTOOL_1MMDEEP_LABELS_S
100
AcDbVertex
100
AcDb2dVertex
 10
-44.00722120344237
 20
-28.94616001675647
 30
0.0
  0
VERTEX
  5
DE
330
75
100
AcDbEntity
  8
1_ANYTOOL_1MMDEEP_LABELS_S
100
AcDbVertex
100
AcDb2dVertex
 10
-44.13923501482631
 20
-29.03207310269395
 30
0.0
  0
VERTEX
  5
DF
330
75
100
AcDbEntity
  8
1_ANYTOOL_1MMDEEP_LABELS_S
100
AcDbVertex
100
AcDb2dVertex
 10
-44.27281830165668
 20
-29.11549595425642
 30
0.0
  0
VERTEX
  5
E0
330
75
100
AcDbEntity
  8
1_ANYTOOL_1MMDEEP_LABELS_S
100
AcDbVertex
100
AcDb2dVertex
 10
-44.40797106393347
 20
-29.1964285714439
 30
0.0
  0
VERTEX
  5
E1
330
75
100
AcDbEntity
  8
1_ANYTOOL_1MMDEEP_LABELS_S
100
AcDbVertex
100
AcDb2dVertex
 10
-44.5446933016567
 20
-29.27487095425638
 30
0.0
  0
VERTEX
  5
E2
330
75
100
AcDbEntity
  8
1_ANYTOOL_1MMDEEP_LABELS_S
100
AcDbVertex
100
AcDb2dVertex
 10
-44.68298501482636
 20
-29.35082310269386
 30
0.0
  0
VERTEX
  5
E3
330
75
100
AcDbEntity
  8
1_ANYTOOL_1MMDEEP_LABELS_S
100
AcDbVertex
100
AcDb2dVertex
 10
-44.82284620344244
 20
-29.42428501675634
 30
0.0
  0
VERTEX
  5
E4
330
75
100
AcDbEntity
  8
1_ANYTOOL_1MMDEEP_LABELS_S
100
AcDbVertex
100
AcDb2dVertex
 10
-44.96427686750495
 20
-29.49525669644382
 30
0.0
  0
VERTEX
  5
E5
330
75
100
AcDbEntity
  8
1_ANYTOOL_1MMDEEP_LABELS_S
100
AcDbVertex
100
AcDb2dVertex
 10
-45.10727700701389
 20
-29.5637381417563
 30
0.0
  0
VERTEX
  5
E6
330
75
100
AcDbEntity
  8
1_ANYTOOL_1MMDEEP_LABELS_S
100
AcDbVertex
100
AcDb2dVertex
 10
-45.25184662196926
 20
-29.62972935269378
 30
0.0
  0
VERTEX
  5
E7
330
75
100
AcDbEntity
  8
1_ANYTOOL_1MMDEEP_LABELS_S
100
AcDbVertex
100
AcDb2dVertex
 10
-45.39798571237106
 20
-29.69323032925626
 30
0.0
  0
VERTEX
  5
E8
330
75
100
AcDbEntity
  8
1_ANYTOOL_1MMDEEP_LABELS_S
100
AcDbVertex
100
AcDb2dVertex
 10
-45.54569427821929
 20
-29.75424107144374
 30
0.0
  0
VERTEX
  5
E9
330
75
100
AcDbEntity
  8
1_ANYTOOL_1MMDEEP_LABELS_S
100
AcDbVertex
100
AcDb2dVertex
 10
-45.69497231951394
 20
-29.81276157925623
 30
0.0
  0
VERTEX
  5
EA
330
75
100
AcDbEntity
  8
1_ANYTOOL_1MMDEEP_LABELS_S
100
AcDbVertex
100
AcDb2dVertex
 10
-45.84581983625503
 20
-29.86879185269371
 30
0.0
  0
VERTEX
  5
EB
330
75
100
AcDbEntity
  8
1_ANYTOOL_1MMDEEP_LABELS_S
100
AcDbVertex
100
AcDb2dVertex
 10
-45.99823682844254
 20
-29.92233189175619
 30
0.0
  0
VERTEX
  5
EC
330
75
100
AcDbEntity
  8
1_ANYTOOL_1MMDEEP_LABELS_S
100
AcDbVertex
100
AcDb2dVertex
 10
-46.15222329607649
 20
-29.97338169644368
 30
0.0
  0
VERTEX
  5
ED
330
75
100
AcDbEntity
  8
1_ANYTOOL_1MMDEEP_LABELS_S
100
AcDbVertex
100
AcDb2dVertex
 10
-46.46490465768366
 20
-30.06801060269365
 30
0.0
  0
VERTEX
  5
EE
330
75
100
AcDbEntity
  8
1_ANYTOOL_1MMDEEP_LABELS_S
100
AcDbVertex
100
AcDb2dVertex
 10
-46.78386392107655
 20
-30.15267857144363
 30
0.0
  0
VERTEX
  5
EF
330
75
100
AcDbEntity
  8
1_ANYTOOL_1MMDEEP_LABELS_S
100
AcDbVertex
100
AcDb2dVertex
 10
-47.10910108625515
 20
-30.22738560269361
 30
0.0
  0
VERTEX
  5
F0
330
75
100
AcDbEntity
  8
1_ANYTOOL_1MMDEEP_LABELS_S
100
AcDbVertex
100
AcDb2dVertex
 10
-47.44061615321947
 20
-30.29213169644359
 30
0.0
  0
VERTEX
  5
F1
330
75
100
AcDbEntity
  8
1_ANYTOOL_1MMDEEP_LABELS_S
100
AcDbVertex
100
AcDb2dVertex
 10
-47.7784091219695
 20
-30.34691685269357
 30
0.0
  0
VERTEX
  5
F2
330
75
100
AcDbEntity
  8
1_ANYTOOL_1MMDEEP_LABELS_S
100
AcDbVertex
100
AcDb2dVertex
 10
-48.12247999250525
 20
-30.39174107144356
 30
0.0
  0
VERTEX
  5
F3
330
75
100
AcDbEntity
  8
1_ANYTOOL_1MMDEEP_LABELS_S
100
AcDbVertex
100
AcDb2dVertex
 10
-48.47282876482672
 20
-30.42660435269355
 30
0.0
  0
VERTEX
  5
F4
330
75
100
AcDbEntity
  8
1_ANYTOOL_1MMDEEP_LABELS_S
100
AcDbVertex
100
AcDb2dVertex
 10
-48.82945543893389
 20
-30.45150669644354
 30
0.0
  0
VERTEX
  5
F5
330
75
100
AcDbEntity
  8
1_ANYTOOL_1MMDEEP_LABELS_S
100
AcDbVertex
100
AcDb2dVertex
 10
-49.19236001482679
 20
-30.46644810269354
 30
0.0
  0
VERTEX
  5
F6
330
75
100
AcDbEntity
  8
1_ANYTOOL_1MMDEEP_LABELS_S
100
AcDbVertex
100
AcDb2dVertex
 10
-49.5615424925054
 20
-30.47142857144354
 30
0.0
  0
VERTEX
  5
F7
330
75
100
AcDbEntity
  8
1_ANYTOOL_1MMDEEP_LABELS_S
100
AcDbVertex
100
AcDb2dVertex
 10
-49.94395041661238
 20
-30.4663643973364
 30
0.0
  0
VERTEX
  5
F8
330
75
100
AcDbEntity
  8
1_ANYTOOL_1MMDEEP_LABELS_S
100
AcDbVertex
100
AcDb2dVertex
 10
-50.31974561750509
 20
-30.45117187501498
 30
0.0
  0
VERTEX
  5
F9
330
75
100
AcDbEntity
  8
1_ANYTOOL_1MMDEEP_LABELS_S
100
AcDbVertex
100
AcDb2dVertex
 10
-50.68892809518351
 20
-30.42585100447928
 30
0.0
  0
VERTEX
  5
FA
330
75
100
AcDbEntity
  8
1_ANYTOOL_1MMDEEP_LABELS_S
100
AcDbVertex
100
AcDb2dVertex
 10
-51.05149784964766
 20
-30.3904017857293
 30
0.0
  0
VERTEX
  5
FB
330
75
100
AcDbEntity
  8
1_ANYTOOL_1MMDEEP_LABELS_S
100
AcDbVertex
100
AcDb2dVertex
 10
-51.40745488089752
 20
-30.34482421876503
 30
0.0
  0
VERTEX
  5
FC
330
75
100
AcDbEntity
  8
1_ANYTOOL_1MMDEEP_LABELS_S
100
AcDbVertex
100
AcDb2dVertex
 10
-51.7567991889331
 20
-30.28911830358649
 30
0.0
  0
VERTEX
  5
FD
330
75
100
AcDbEntity
  8
1_ANYTOOL_1MMDEEP_LABELS_S
100
AcDbVertex
100
AcDb2dVertex
 10
-52.0995307737544
 20
-30.22328404019367
 30
0.0
  0
VERTEX
  5
FE
330
75
100
AcDbEntity
  8
1_ANYTOOL_1MMDEEP_LABELS_S
100
AcDbVertex
100
AcDb2dVertex
 10
-52.43564963536141
 20
-30.14732142858657
 30
0.0
  0
VERTEX
  5
FF
330
75
100
AcDbEntity
  8
1_ANYTOOL_1MMDEEP_LABELS_S
100
AcDbVertex
100
AcDb2dVertex
 10
-52.76515577375415
 20
-30.06123046876518
 30
0.0
  0
VERTEX
  5
100
330
75
100
AcDbEntity
  8
1_ANYTOOL_1MMDEEP_LABELS_S
100
AcDbVertex
100
AcDb2dVertex
 10
-53.0880491889326
 20
-29.96501116072952
 30
0.0
  0
VERTEX
  5
101
330
75
100
AcDbEntity
  8
1_ANYTOOL_1MMDEEP_LABELS_S
100
AcDbVertex
100
AcDb2dVertex
 10
-53.24701612531647
 20
-29.91310337613133
 30
0.0
  0
VERTEX
  5
102
330
75
100
AcDbEntity
  8
1_ANYTOOL_1MMDEEP_LABELS_S
100
AcDbVertex
100
AcDb2dVertex
 10
-53.40432988089677
 20
-29.85866350447957
 30
0.0
  0
VERTEX
  5
103
330
75
100
AcDbEntity
  8
1_ANYTOOL_1MMDEEP_LABELS_S
100
AcDbVertex
100
AcDb2dVertex
 10
-53.5599904556735
 20
-29.80169154577425
 30
0.0
  0
VERTEX
  5
104
330
75
100
AcDbEntity
  8
1_ANYTOOL_1MMDEEP_LABELS_S
100
AcDbVertex
100
AcDb2dVertex
 10
-53.71399784964666
 20
-29.74218750001535
 30
0.0
  0
VERTEX
  5
105
330
75
100
AcDbEntity
  8
1_ANYTOOL_1MMDEEP_LABELS_S
100
AcDbVertex
100
AcDb2dVertex
 10
-53.86635206281625
 20
-29.68015136720288
 30
0.0
  0
VERTEX
  5
106
330
75
100
AcDbEntity
  8
1_ANYTOOL_1MMDEEP_LABELS_S
100
AcDbVertex
100
AcDb2dVertex
 10
-54.01705309518226
 20
-29.61558314733684
 30
0.0
  0
VERTEX
  5
107
330
75
100
AcDbEntity
  8
1_ANYTOOL_1MMDEEP_LABELS_S
100
AcDbVertex
100
AcDb2dVertex
 10
-54.16610094674471
 20
-29.54848284041724
 30
0.0
  0
VERTEX
  5
108
330
75
100
AcDbEntity
  8
1_ANYTOOL_1MMDEEP_LABELS_S
100
AcDbVertex
100
AcDb2dVertex
 10
-54.31349561750359
 20
-29.47885044644406
 30
0.0
  0
VERTEX
  5
109
330
75
100
AcDbEntity
  8
1_ANYTOOL_1MMDEEP_LABELS_S
100
AcDbVertex
100
AcDb2dVertex
 10
-54.4592371074589
 20
-29.40668596541731
 30
0.0
  0
VERTEX
  5
10A
330
75
100
AcDbEntity
  8
1_ANYTOOL_1MMDEEP_LABELS_S
100
AcDbVertex
100
AcDb2dVertex
 10
-54.60332541661063
 20
-29.33198939733699
 30
0.0
  0
VERTEX
  5
10B
330
75
100
AcDbEntity
  8
1_ANYTOOL_1MMDEEP_LABELS_S
100
AcDbVertex
100
AcDb2dVertex
 10
-54.7457605449588
 20
-29.2547607422031
 30
0.0
  0
VERTEX
  5
10C
330
75
100
AcDbEntity
  8
1_ANYTOOL_1MMDEEP_LABELS_S
100
AcDbVertex
100
AcDb2dVertex
 10
-54.88654249250339
 20
-29.17500000001564
 30
0.0
  0
VERTEX
  5
10D
330
75
100
AcDbEntity
  8
1_ANYTOOL_1MMDEEP_LABELS_S
100
AcDbVertex
100
AcDb2dVertex
 10
-55.02567125924442
 20
-29.09270717077462
 30
0.0
  0
VERTEX
  5
10E
330
75
100
AcDbEntity
  8
1_ANYTOOL_1MMDEEP_LABELS_S
100
AcDbVertex
100
AcDb2dVertex
 10
-55.16314684518187
 20
-29.00788225448002
 30
0.0
  0
VERTEX
  5
10F
330
75
100
AcDbEntity
  8
1_ANYTOOL_1MMDEEP_LABELS_S
100
AcDbVertex
100
AcDb2dVertex
 10
-55.29896925031576
 20
-28.92052525113185
 30
0.0
  0
VERTEX
  5
110
330
75
100
AcDbEntity
  8
1_ANYTOOL_1MMDEEP_LABELS_S
100
AcDbVertex
100
AcDb2dVertex
 10
-55.43313847464607
 20
-28.83063616073011
 30
0.0
  0
VERTEX
  5
111
330
75
100
AcDbEntity
  8
1_ANYTOOL_1MMDEEP_LABELS_S
100
AcDbVertex
100
AcDb2dVertex
 10
-55.56565451817281
 20
-28.7382149832748
 30
0.0
  0
VERTEX
  5
112
330
75
100
AcDbEntity
  8
1_ANYTOOL_1MMDEEP_LABELS_S
100
AcDbVertex
100
AcDb2dVertex
 10
-55.69651738089598
 20
-28.64326171876592
 30
0.0
  0
VERTEX
  5
113
330
75
100
AcDbEntity
  8
1_ANYTOOL_1MMDEEP_LABELS_S
100
AcDbVertex
100
AcDb2dVertex
 10
-55.82572706281559
 20
-28.54577636720347
 30
0.0
  0
VERTEX
  5
114
330
75
100
AcDbEntity
  8
1_ANYTOOL_1MMDEEP_LABELS_S
100
AcDbVertex
100
AcDb2dVertex
 10
-55.95328356393162
 20
-28.44575892858745
 30
0.0
  0
VERTEX
  5
115
330
75
100
AcDbEntity
  8
1_ANYTOOL_1MMDEEP_LABELS_S
100
AcDbVertex
100
AcDb2dVertex
 10
-56.07918688424408
 20
-28.34320940291786
 30
0.0
  0
VERTEX
  5
116
330
75
100
AcDbEntity
  8
1_ANYTOOL_1MMDEEP_LABELS_S
100
AcDbVertex
100
AcDb2dVertex
 10
-56.20343702375297
 20
-28.2381277901947
 30
0.0
  0
VERTEX
  5
117
330
75
100
AcDbEntity
  8
1_ANYTOOL_1MMDEEP_LABELS_S
100
AcDbVertex
100
AcDb2dVertex
 10
-56.32603398245829
 20
-28.13051409041798
 30
0.0
  0
VERTEX
  5
118
330
75
100
AcDbEntity
  8
1_ANYTOOL_1MMDEEP_LABELS_S
100
AcDbVertex
100
AcDb2dVertex
 10
-56.44697776036004
 20
-28.02036830358767
 30
0.0
  0
VERTEX
  5
119
330
75
100
AcDbEntity
  8
1_ANYTOOL_1MMDEEP_LABELS_S
100
AcDbVertex
100
AcDb2dVertex
 10
-56.56626835745822
 20
-27.90769042970381
 30
0.0
  0
VERTEX
  5
11A
330
75
100
AcDbEntity
  8
1_ANYTOOL_1MMDEEP_LABELS_S
100
AcDbVertex
100
AcDb2dVertex
 10
-56.68390577375283
 20
-27.79248046876636
 30
0.0
  0
VERTEX
  5
11B
330
75
100
AcDbEntity
  8
1_ANYTOOL_1MMDEEP_LABELS_S
100
AcDbVertex
100
AcDb2dVertex
 10
-56.79989000924387
 20
-27.67473842077536
 30
0.0
  0
VERTEX
  5
11C
330
75
100
AcDbEntity
  8
1_ANYTOOL_1MMDEEP_LABELS_S
100
AcDbVertex
100
AcDb2dVertex
 10
-56.91422106393134
 20
-27.55446428573077
 30
0.0
  0
VERTEX
  5
11D
330
75
100
AcDbEntity
  8
1_ANYTOOL_1MMDEEP_LABELS_S
100
AcDbVertex
100
AcDb2dVertex
 10
-57.02689893781523
 20
-27.43165806363263
 30
0.0
  0
VERTEX
  5
11E
330
75
100
AcDbEntity
  8
1_ANYTOOL_1MMDEEP_LABELS_S
100
AcDbVertex
100
AcDb2dVertex
 10
-57.13792363089556
 20
-27.3063197544809
 30
0.0
  0
VERTEX
  5
11F
330
75
100
AcDbEntity
  8
1_ANYTOOL_1MMDEEP_LABELS_S
100
AcDbVertex
100
AcDb2dVertex
 10
-57.3550134746455
 20
-27.04804687501675
 30
0.0
  0
VERTEX
  5
120
330
75
100
AcDbEntity
  8
1_ANYTOOL_1MMDEEP_LABELS_S
100
AcDbVertex
100
AcDb2dVertex
 10
-57.56549059518116
 20
-26.77964564733832
 30
0.0
  0
VERTEX
  5
121
330
75
100
AcDbEntity
  8
1_ANYTOOL_1MMDEEP_LABELS_S
100
AcDbVertex
100
AcDb2dVertex
 10
-57.76935499250254
 20
-26.50111607144561
 30
0.0
  0
VERTEX
  5
122
330
75
100
AcDbEntity
  8
1_ANYTOOL_1MMDEEP_LABELS_S
100
AcDbVertex
100
AcDb2dVertex
 10
-57.96660666660964
 20
-26.21245814733862
 30
0.0
  0
VERTEX
  5
123
330
75
100
AcDbEntity
  8
1_ANYTOOL_1MMDEEP_LABELS_S
100
AcDbVertex
100
AcDb2dVertex
 10
-58.15724561750245
 20
-25.91367187501734
 30
0.0
  0
VERTEX
  5
124
330
75
100
AcDbEntity
  8
1_ANYTOOL_1MMDEEP_LABELS_S
100
AcDbVertex
100
AcDb2dVertex
 10
-58.34127184518098
 20
-25.60475725448179
 30
0.0
  0
VERTEX
  5
125
330
75
100
AcDbEntity
  8
1_ANYTOOL_1MMDEEP_LABELS_S
100
AcDbVertex
100
AcDb2dVertex
 10
-58.51868534964524
 20
-25.28571428573196
 30
0.0
  0
VERTEX
  5
126
330
75
100
AcDbEntity
  8
1_ANYTOOL_1MMDEEP_LABELS_S
100
AcDbVertex
100
AcDb2dVertex
 10
-58.85082820678811
 20
-24.63733258930284
 30
0.0
  0
VERTEX
  5
127
330
75
100
AcDbEntity
  8
1_ANYTOOL_1MMDEEP_LABELS_S
100
AcDbVertex
100
AcDb2dVertex
 10
-59.16154249250241
 20
-23.98861607144522
 30
0.0
  0
VERTEX
  5
128
330
75
100
AcDbEntity
  8
1_ANYTOOL_1MMDEEP_LABELS_S
100
AcDbVertex
100
AcDb2dVertex
 10
-59.45082820678813
 20
-23.33956473215909
 30
0.0
  0
VERTEX
  5
129
330
75
100
AcDbEntity
  8
1_ANYTOOL_1MMDEEP_LABELS_S
100
AcDbVertex
100
AcDb2dVertex
 10
-59.71868534964528
 20
-22.69017857144445
 30
0.0
  0
VERTEX
  5
12A
330
75
100
AcDbEntity
  8
1_ANYTOOL_1MMDEEP_LABELS_S
100
AcDbVertex
100
AcDb2dVertex
 10
-59.96511392107386
 20
-22.0404575893013
 30
0.0
  0
VERTEX
  5
12B
330
75
100
AcDbEntity
  8
1_ANYTOOL_1MMDEEP_LABELS_S
100
AcDbVertex
100
AcDb2dVertex
 10
-60.19011392107387
 20
-21.39040178572964
 30
0.0
  0
VERTEX
  5
12C
330
75
100
AcDbEntity
  8
1_ANYTOOL_1MMDEEP_LABELS_S
100
AcDbVertex
100
AcDb2dVertex
 10
-60.39368534964531
 20
-20.74001116072947
 30
0.0
  0
VERTEX
  5
12D
330
75
100
AcDbEntity
  8
1_ANYTOOL_1MMDEEP_LABELS_S
100
AcDbVertex
100
AcDb2dVertex
 10
-60.57582820678817
 20
-20.08928571430079
 30
0.0
  0
VERTEX
  5
12E
330
75
100
AcDbEntity
  8
1_ANYTOOL_1MMDEEP_LABELS_S
100
AcDbVertex
100
AcDb2dVertex
 10
-60.73654249250247
 20
-19.4382254464436
 30
0.0
  0
VERTEX
  5
12F
330
75
100
AcDbEntity
  8
1_ANYTOOL_1MMDEEP_LABELS_S
100
AcDbVertex
100
AcDb2dVertex
 10
-60.87582820678819
 20
-18.7868303571579
 30
0.0
  0
VERTEX
  5
130
330
75
100
AcDbEntity
  8
1_ANYTOOL_1MMDEEP_LABELS_S
100
AcDbVertex
100
AcDb2dVertex
 10
-60.99368534964533
 20
-18.13510044644369
 30
0.0
  0
VERTEX
  5
131
330
75
100
AcDbEntity
  8
1_ANYTOOL_1MMDEEP_LABELS_S
100
AcDbVertex
100
AcDb2dVertex
 10
-61.09011392107391
 20
-17.48303571430097
 30
0.0
  0
VERTEX
  5
132
330
75
100
AcDbEntity
  8
1_ANYTOOL_1MMDEEP_LABELS_S
100
AcDbVertex
100
AcDb2dVertex
 10
-61.16511392107391
 20
-16.83063616072974
 30
0.0
  0
VERTEX
  5
133
330
75
100
AcDbEntity
  8
1_ANYTOOL_1MMDEEP_LABELS_S
100
AcDbVertex
100
AcDb2dVertex
 10
-61.21868534964534
 20
-16.17790178573
 30
0.0
  0
VERTEX
  5
134
330
75
100
AcDbEntity
  8
1_ANYTOOL_1MMDEEP_LABELS_S
100
AcDbVertex
100
AcDb2dVertex
 10
-61.2508282067882
 20
-15.52483258930175
 30
0.0
  0
VERTEX
  5
135
330
75
100
AcDbEntity
  8
1_ANYTOOL_1MMDEEP_LABELS_S
100
AcDbVertex
100
AcDb2dVertex
 10
-61.26154249250249
 20
-14.87142857144499
 30
0.0
  0
VERTEX
  5
136
330
75
100
AcDbEntity
  8
1_ANYTOOL_1MMDEEP_LABELS_S
100
AcDbVertex
100
AcDb2dVertex
 10
-61.25032597464535
 20
-14.17801339287368
 30
0.0
  0
VERTEX
  5
137
330
75
100
AcDbEntity
  8
1_ANYTOOL_1MMDEEP_LABELS_S
100
AcDbVertex
100
AcDb2dVertex
 10
-61.21667642107394
 20
-13.49062500001662
 30
0.0
  0
VERTEX
  5
138
330
75
100
AcDbEntity
  8
1_ANYTOOL_1MMDEEP_LABELS_S
100
AcDbVertex
100
AcDb2dVertex
 10
-61.16059383178826
 20
-12.80926339287382
 30
0.0
  0
VERTEX
  5
139
330
75
100
AcDbEntity
  8
1_ANYTOOL_1MMDEEP_LABELS_S
100
AcDbVertex
100
AcDb2dVertex
 10
-61.08207820678831
 20
-12.13392857144527
 30
0.0
  0
VERTEX
  5
13A
330
75
100
AcDbEntity
  8
1_ANYTOOL_1MMDEEP_LABELS_S
100
AcDbVertex
100
AcDb2dVertex
 10
-60.98112954607409
 20
-11.46462053573097
 30
0.0
  0
VERTEX
  5
13B
330
75
100
AcDbEntity
  8
1_ANYTOOL_1MMDEEP_LABELS_S
100
AcDbVertex
100
AcDb2dVertex
 10
-60.85774784964559
 20
-10.80133928573093
 30
0.0
  0
VERTEX
  5
13C
330
75
100
AcDbEntity
  8
1_ANYTOOL_1MMDEEP_LABELS_S
100
AcDbVertex
100
AcDb2dVertex
 10
-60.71193311750282
 20
-10.14408482144515
 30
0.0
  0
VERTEX
  5
13D
330
75
100
AcDbEntity
  8
1_ANYTOOL_1MMDEEP_LABELS_S
100
AcDbVertex
100
AcDb2dVertex
 10
-60.54368534964578
 20
-9.492857142873618
 30
0.0
  0
VERTEX
  5
13E
330
75
100
AcDbEntity
  8
1_ANYTOOL_1MMDEEP_LABELS_S
100
AcDbVertex
100
AcDb2dVertex
 10
-60.35300454607447
 20
-8.847656250016342
 30
0.0
  0
VERTEX
  5
13F
330
75
100
AcDbEntity
  8
1_ANYTOOL_1MMDEEP_LABELS_S
100
AcDbVertex
100
AcDb2dVertex
 10
-60.13989070678889
 20
-8.208482142873322
 30
0.0
  0
VERTEX
  5
140
330
75
100
AcDbEntity
  8
1_ANYTOOL_1MMDEEP_LABELS_S
100
AcDbVertex
100
AcDb2dVertex
 10
-59.90434383178903
 20
-7.575334821444557
 30
0.0
  0
VERTEX
  5
141
330
75
100
AcDbEntity
  8
1_ANYTOOL_1MMDEEP_LABELS_S
100
AcDbVertex
100
AcDb2dVertex
 10
-59.64636392107491
 20
-6.948214285730046
 30
0.0
  0
VERTEX
  5
142
330
75
100
AcDbEntity
  8
1_ANYTOOL_1MMDEEP_LABELS_S
100
AcDbVertex
100
AcDb2dVertex
 10
-59.36595097464651
 20
-6.32712053572979
 30
0.0
  0
VERTEX
  5
143
330
75
100
AcDbEntity
  8
1_ANYTOOL_1MMDEEP_LABELS_S
100
AcDbVertex
100
AcDb2dVertex
 10
-59.06310499250384
 20
-5.712053571443789
 30
0.0
  0
VERTEX
  5
144
330
75
100
AcDbEntity
  8
1_ANYTOOL_1MMDEEP_LABELS_S
100
AcDbVertex
100
AcDb2dVertex
 10
-58.7378259746469
 20
-5.103013392872043
 30
0.0
  0
VERTEX
  5
145
330
75
100
AcDbEntity
  8
1_ANYTOOL_1MMDEEP_LABELS_S
100
AcDbVertex
100
AcDb2dVertex
 10
-58.39011392107568
 20
-4.500000000014552
 30
0.0
  0
VERTEX
  5
146
330
75
100
AcDbEntity
  8
1_ANYTOOL_1MMDEEP_LABELS_S
100
AcDbVertex
100
AcDb2dVertex
 10
-58.20470655500418
 20
-4.202050781264411
 30
0.0
  0
VERTEX
  5
147
330
75
100
AcDbEntity
  8
1_ANYTOOL_1MMDEEP_LABELS_S
100
AcDbVertex
100
AcDb2dVertex
 10
-58.01277017107553
 20
-3.913560267871418
 30
0.0
  0
VERTEX
  5
148
330
75
100
AcDbEntity
  8
1_ANYTOOL_1MMDEEP_LABELS_S
100
AcDbVertex
100
AcDb2dVertex
 10
-57.81430476928975
 20
-3.634528459835572
 30
0.0
  0
VERTEX
  5
149
330
75
100
AcDbEntity
  8
1_ANYTOOL_1MMDEEP_LABELS_S
100
AcDbVertex
100
AcDb2dVertex
 10
-57.60931034964682
 20
-3.364955357156873
 30
0.0
  0
VERTEX
  5
14A
330
75
100
AcDbEntity
  8
1_ANYTOOL_1MMDEEP_LABELS_S
100
AcDbVertex
100
AcDb2dVertex
 10
-57.39778691214676
 20
-3.104840959835322
 30
0.0
  0
VERTEX
  5
14B
330
75
100
AcDbEntity
  8
1_ANYTOOL_1MMDEEP_LABELS_S
100
AcDbVertex
100
AcDb2dVertex
 10
-57.17973445678955
 20
-2.854185267870918
 30
0.0
  0
VERTEX
  5
14C
330
75
100
AcDbEntity
  8
1_ANYTOOL_1MMDEEP_LABELS_S
100
AcDbVertex
100
AcDb2dVertex
 10
-56.9551529835752
 20
-2.612988281263661
 30
0.0
  0
VERTEX
  5
14D
330
75
100
AcDbEntity
  8
1_ANYTOOL_1MMDEEP_LABELS_S
100
AcDbVertex
100
AcDb2dVertex
 10
-56.72404249250371
 20
-2.381250000013551
 30
0.0
  0
VERTEX
  5
14E
330
75
100
AcDbEntity
  8
1_ANYTOOL_1MMDEEP_LABELS_S
100
AcDbVertex
100
AcDb2dVertex
 10
-56.60603886527154
 20
-2.268927873897427
 30
0.0
  0
VERTEX
  5
14F
330
75
100
AcDbEntity
  8
1_ANYTOOL_1MMDEEP_LABELS_S
100
AcDbVertex
100
AcDb2dVertex
 10
-56.48640298357509
 20
-2.158970424120589
 30
0.0
  0
VERTEX
  5
150
330
75
100
AcDbEntity
  8
1_ANYTOOL_1MMDEEP_LABELS_S
100
AcDbVertex
100
AcDb2dVertex
 10
-56.36513484741435
 20
-2.051377650683039
 30
0.0
  0
VERTEX
  5
151
330
75
100
AcDbEntity
  8
1_ANYTOOL_1MMDEEP_LABELS_S
100
AcDbVertex
100
AcDb2dVertex
 10
-56.24223445678932
 20
-1.946149553584775
 30
0.0
  0
VERTEX
  5
152
330
75
100
AcDbEntity
  8
1_ANYTOOL_1MMDEEP_LABELS_S
100
AcDbVertex
100
AcDb2dVertex
 10
-56.11770181170001
 20
-1.843286132825797
 30
0.0
  0
VERTEX
  5
153
330
75
100
AcDbEntity
  8
1_ANYTOOL_1MMDEEP_LABELS_S
100
AcDbVertex
100
AcDb2dVertex
 10
-55.99153691214642
 20
-1.742787388406107
 30
0.0
  0
VERTEX
  5
154
330
75
100
AcDbEntity
  8
1_ANYTOOL_1MMDEEP_LABELS_S
100
AcDbVertex
100
AcDb2dVertex
 10
-55.86373975812853
 20
-1.644653320325704
 30
0.0
  0
VERTEX
  5
155
330
75
100
AcDbEntity
  8
1_ANYTOOL_1MMDEEP_LABELS_S
100
AcDbVertex
100
AcDb2dVertex
 10
-55.73431034964636
 20
-1.548883928584587
 30
0.0
  0
VERTEX
  5
156
330
75
100
AcDbEntity
  8
1_ANYTOOL_1MMDEEP_LABELS_S
100
AcDbVertex
100
AcDb2dVertex
 10
-55.60324868669991
 20
-1.455479213182757
 30
0.0
  0
VERTEX
  5
157
330
75
100
AcDbEntity
  8
1_ANYTOOL_1MMDEEP_LABELS_S
100
AcDbVertex
100
AcDb2dVertex
 10
-55.47055476928918
 20
-1.364439174120214
 30
0.0
  0
VERTEX
  5
158
330
75
100
AcDbEntity
  8
1_ANYTOOL_1MMDEEP_LABELS_S
100
AcDbVertex
100
AcDb2dVertex
 10
-55.33622859741416
 20
-1.275763811396958
 30
0.0
  0
VERTEX
  5
159
330
75
100
AcDbEntity
  8
1_ANYTOOL_1MMDEEP_LABELS_S
100
AcDbVertex
100
AcDb2dVertex
 10
-55.20027017107485
 20
-1.189453125012989
 30
0.0
  0
VERTEX
  5
15A
330
75
100
AcDbEntity
  8
1_ANYTOOL_1MMDEEP_LABELS_S
100
AcDbVertex
100
AcDb2dVertex
 10
-55.06267949027126
 20
-1.105507114968306
 30
0.0
  0
VERTEX
  5
15B
330
75
100
AcDbEntity
  8
1_ANYTOOL_1MMDEEP_LABELS_S
100
AcDbVertex
100
AcDb2dVertex
 10
-54.92345655500338
 20
-1.023925781262911
 30
0.0
  0
VERTEX
  5
15C
330
75
100
AcDbEntity
  8
1_ANYTOOL_1MMDEEP_LABELS_S
100
AcDbVertex
100
AcDb2dVertex
 10
-54.78260136527122
 20
-0.9447091238968017
 30
0.0
  0
VERTEX
  5
15D
330
75
100
AcDbEntity
  8
1_ANYTOOL_1MMDEEP_LABELS_S
100
AcDbVertex
100
AcDb2dVertex
 10
-54.64011392107477
 20
-0.8678571428699797
 30
0.0
  0
VERTEX
  5
15E
330
75
100
AcDbEntity
  8
1_ANYTOOL_1MMDEEP_LABELS_S
100
AcDbVertex
100
AcDb2dVertex
 10
-54.49599422241404
 20
-0.7933698381824446
 30
0.0
  0
VERTEX
  5
15F
330
75
100
AcDbEntity
  8
1_ANYTOOL_1MMDEEP_LABELS_S
100
AcDbVertex
100
AcDb2dVertex
 10
-54.35024226928903
 20
-0.7212472098341962
 30
0.0
  0
VERTEX
  5
160
330
75
100
AcDbEntity
  8
1_ANYTOOL_1MMDEEP_LABELS_S
100
AcDbVertex
100
AcDb2dVertex
 10
-54.05384159964613
 20
-0.58409598215556
 30
0.0
  0
VERTEX
  5
161
330
75
100
AcDbEntity
  8
1_ANYTOOL_1MMDEEP_LABELS_S
100
AcDbVertex
100
AcDb2dVertex
 10
-53.75091191214611
 20
-0.4564034598340712
 30
0.0
  0
VERTEX
  5
162
330
75
100
AcDbEntity
  8
1_ANYTOOL_1MMDEEP_LABELS_S
100
AcDbVertex
100
AcDb2dVertex
 10
-53.44145320678894
 20
-0.3381696428697296
 30
0.0
  0
VERTEX
  5
163
330
75
100
AcDbEntity
  8
1_ANYTOOL_1MMDEEP_LABELS_S
100
AcDbVertex
100
AcDb2dVertex
 10
-53.12546548357463
 20
-0.2293945312625354
 30
0.0
  0
VERTEX
  5
164
330
75
100
AcDbEntity
  8
1_ANYTOOL_1MMDEEP_LABELS_S
100
AcDbVertex
100
AcDb2dVertex
 10
-52.80294874250318
 20
-0.1300781250124885
 30
0.0
  0
VERTEX
  5
165
330
75
100
AcDbEntity
  8
1_ANYTOOL_1MMDEEP_LABELS_S
100
AcDbVertex
100
AcDb2dVertex
 10
-52.47390298357459
 20
-0.0402204241195889
 30
0.0
  0
VERTEX
  5
166
330
75
100
AcDbEntity
  8
1_ANYTOOL_1MMDEEP_LABELS_S
100
AcDbVertex
100
AcDb2dVertex
 10
-52.13832820678886
 20
0.0401785714161633
 30
0.0
  0
VERTEX
  5
167
330
75
100
AcDbEntity
  8
1_ANYTOOL_1MMDEEP_LABELS_S
100
AcDbVertex
100
AcDb2dVertex
 10
-51.79622441214599
 20
0.1111188615947682
 30
0.0
  0
VERTEX
  5
168
330
75
100
AcDbEntity
  8
1_ANYTOOL_1MMDEEP_LABELS_S
100
AcDbVertex
100
AcDb2dVertex
 10
-51.44759159964597
 20
0.1726004464162259
 30
0.0
  0
VERTEX
  5
169
330
75
100
AcDbEntity
  8
1_ANYTOOL_1MMDEEP_LABELS_S
100
AcDbVertex
100
AcDb2dVertex
 10
-51.09242976928883
 20
0.2246233258805361
 30
0.0
  0
VERTEX
  5
16A
330
75
100
AcDbEntity
  8
1_ANYTOOL_1MMDEEP_LABELS_S
100
AcDbVertex
100
AcDb2dVertex
 10
-50.73073892107453
 20
0.2671874999876991
 30
0.0
  0
VERTEX
  5
16B
330
75
100
AcDbEntity
  8
1_ANYTOOL_1MMDEEP_LABELS_S
100
AcDbVertex
100
AcDb2dVertex
 10
-50.3625190550031
 20
0.3002929687377147
 30
0.0
  0
VERTEX
  5
16C
330
75
100
AcDbEntity
  8
1_ANYTOOL_1MMDEEP_LABELS_S
100
AcDbVertex
100
AcDb2dVertex
 10
-49.98777017107453
 20
0.323939732130583
 30
0.0
  0
VERTEX
  5
16D
330
75
100
AcDbEntity
  8
1_ANYTOOL_1MMDEEP_LABELS_S
100
AcDbVertex
100
AcDb2dVertex
 10
-49.60649226928882
 20
0.338127790166304
 30
0.0
  0
SEQEND
  5
16E
330
75
100
AcDbEntity
  8
1_ANYTOOL_1MMDEEP_LABELS_S
  0
LINE
  5
16F
330
1F
100
AcDbEntity
  8
1_ANYTOOL_1MMDEEP_LABELS_S
100
AcDbLine
 10
-65.2901139210735
 20
-16.1142857142986
 30
0.0
 11
-74.0758282067909
 21
-16.20000000001164
 31
0.0
  0
POLYLINE
  5
170
330
1F
100
AcDbEntity
  8
1_ANYTOOL_1MMDEEP_LABELS_S
100
AcDb2dPolyline
 66
     1
 10
0.0
 20
0.0
 30
0.0
  0
VERTEX
  5
171
330
170
100
AcDbEntity
  8
1_ANYTOOL_1MMDEEP_LABELS_S
100
AcDbVertex
100
AcDb2dVertex
 10
-109.6472567782184
 20
-0.0000000000145519
 30
0.0
  0
VERTEX
  5
172
330
170
100
AcDbEntity
  8
1_ANYTOOL_1MMDEEP_LABELS_S
100
AcDbVertex
100
AcDb2dVertex
 10
-101.9329710639322
 20
-30.00000000001455
 30
0.0
  0
VERTEX
  5
173
330
170
100
AcDbEntity
  8
1_ANYTOOL_1MMDEEP_LABELS_S
100
AcDbVertex
100
AcDb2dVertex
 10
-93.49011392107423
 20
-0.9000000000160071
 30
0.0
  0
VERTEX
  5
174
330
170
100
AcDbEntity
  8
1_ANYTOOL_1MMDEEP_LABELS_S
100
AcDbVertex
100
AcDb2dVertex
 10
-85.00439963535973
 20
-30.00000000001455
 30
0.0
  0
VERTEX
  5
175
330
170
100
AcDbEntity
  8
1_ANYTOOL_1MMDEEP_LABELS_S
100
AcDbVertex
100
AcDb2dVertex
 10
-77.50439963535973
 20
-0.0000000000145519
 30
0.0
  0
SEQEND
  5
176
330
170
100
AcDbEntity
  8
1_ANYTOOL_1MMDEEP_LABELS_S
  0
POLYLINE
  5
178
330
1F
100
AcDbEntity
  8
4_ANYTOOL_CUTTHROUGH_OUTSI
100
AcDb2dPolyline
 66
     1
 10
0.0
 20
0.0
 30
0.0
 70
     1
  0
VERTEX
  5
179
330
178
100
AcDbEntity
  8
4_ANYTOOL_CUTTHROUGH_OUTSI
100
AcDbVertex
100
AcDb2dVertex
 10
-140.1473653185967
 20
-27.7762395680038
 30
0.0
 42
0.5220939935256844
  0
VERTEX
  5
17A
330
178
100
AcDbEntity
  8
4_ANYTOOL_CUTTHROUGH_OUTSI
100
AcDbVertex
100
AcDb2dVertex
 10
-148.5631720168724
 20
-21.91349436240553
 30
0.0
  0
VERTEX
  5
17B
330
178
100
AcDbEntity
  8
4_ANYTOOL_CUTTHROUGH_OUTSI
100
AcDbVertex
100
AcDb2dVertex
 10
-170.2526904047336
 20
-29.92600429749291
 30
0.0
 42
-0.5019764670369123
  0
VERTEX
  5
17C
330
178
100
AcDbEntity
  8
4_ANYTOOL_CUTTHROUGH_OUTSI
100
AcDbVertex
100
AcDb2dVertex
 10
-177.6475438529451
 20
-24.41629067600298
 30
0.0
  0
VERTEX
  5
17D
330
178
100
AcDbEntity
  8
4_ANYTOOL_CUTTHROUGH_OUTSI
100
AcDbVertex
100
AcDb2dVertex
 10
-177.6470880603301
 20
24.08979389788874
 30
0.0
 42
-0.5019706309334351
  0
VERTEX
  5
17E
330
178
100
AcDbEntity
  8
4_ANYTOOL_CUTTHROUGH_OUTSI
100
AcDbVertex
100
AcDb2dVertex
 10
-170.252379832995
 20
29.59951005613033
 30
0.0
  0
VERTEX
  5
17F
330
178
100
AcDbEntity
  8
4_ANYTOOL_CUTTHROUGH_OUTSI
100
AcDbVertex
100
AcDb2dVertex
 10
-148.5632703277515
 20
21.58673783285485
 30
0.0
 42
0.5220993284543892
  0
VERTEX
  5
180
330
178
100
AcDbEntity
  8
4_ANYTOOL_CUTTHROUGH_OUTSI
100
AcDbVertex
100
AcDb2dVertex
 10
-140.1473653186093
 20
27.44944671966368
 30
0.0
  0
VERTEX
  5
181
330
178
100
AcDbEntity
  8
4_ANYTOOL_CUTTHROUGH_OUTSI
100
AcDbVertex
100
AcDb2dVertex
 10
-140.1473653186113
 20
92.58640041335457
 30
0.0
  0
VERTEX
  5
182
330
178
100
AcDbEntity
  8
4_ANYTOOL_CUTTHROUGH_OUTSI
100
AcDbVertex
100
AcDb2dVertex
 10
159.3526346811304
 20
92.58640041338367
 30
0.0
  0
VERTEX
  5
183
330
178
100
AcDbEntity
  8
4_ANYTOOL_CUTTHROUGH_OUTSI
100
AcDbVertex
100
AcDb2dVertex
 10
159.3526346816798
 20
46.08640041347098
 30
0.0
  0
VERTEX
  5
184
330
178
100
AcDbEntity
  8
4_ANYTOOL_CUTTHROUGH_OUTSI
100
AcDbVertex
100
AcDb2dVertex
 10
135.602634683386
 20
46.08640041349281
 30
0.0
 42
0.4142135623858537
  0
VERTEX
  5
185
330
178
100
AcDbEntity
  8
4_ANYTOOL_CUTTHROUGH_OUTSI
100
AcDbVertex
100
AcDb2dVertex
 10
135.3526346833896
 20
45.83640041349281
 30
0.0
  0
VERTEX
  5
186
330
178
100
AcDbEntity
  8
4_ANYTOOL_CUTTHROUGH_OUTSI
100
AcDbVertex
100
AcDb2dVertex
 10
135.352634683386
 20
33.83640041352191
 30
0.0
 42
0.414213562347523
  0
VERTEX
  5
187
330
178
100
AcDbEntity
  8
4_ANYTOOL_CUTTHROUGH_OUTSI
100
AcDbVertex
100
AcDb2dVertex
 10
135.602634683386
 20
33.58640041351464
 30
0.0
  0
VERTEX
  5
188
330
178
100
AcDbEntity
  8
4_ANYTOOL_CUTTHROUGH_OUTSI
100
AcDbVertex
100
AcDb2dVertex
 10
141.3526346811814
 20
33.58640041350736
 30
0.0
  0
VERTEX
  5
189
330
178
100
AcDbEntity
  8
4_ANYTOOL_CUTTHROUGH_OUTSI
100
AcDbVertex
100
AcDb2dVertex
 10
141.3526346833423
 20
23.08640041355102
 30
0.0
  0
VERTEX
  5
18A
330
178
100
AcDbEntity
  8
4_ANYTOOL_CUTTHROUGH_OUTSI
100
AcDbVertex
100
AcDb2dVertex
 10
135.6026346833933
 20
23.08640041355829
 30
0.0
 42
0.4142135623432722
  0
VERTEX
  5
18B
330
178
100
AcDbEntity
  8
4_ANYTOOL_CUTTHROUGH_OUTSI
100
AcDbVertex
100
AcDb2dVertex
 10
135.3526346833896
 20
22.83640041355829
 30
0.0
  0
VERTEX
  5
18C
330
178
100
AcDbEntity
  8
4_ANYTOOL_CUTTHROUGH_OUTSI
100
AcDbVertex
100
AcDb2dVertex
 10
135.3526346833642
 20
10.83640041357285
 30
0.0
 42
0.4142135623091505
  0
VERTEX
  5
18D
330
178
100
AcDbEntity
  8
4_ANYTOOL_CUTTHROUGH_OUTSI
100
AcDbVertex
100
AcDb2dVertex
 10
135.6026346833642
 20
10.58640041357648
 30
0.0
  0
VERTEX
  5
18E
330
178
100
AcDbEntity
  8
4_ANYTOOL_CUTTHROUGH_OUTSI
100
AcDbVertex
100
AcDb2dVertex
 10
159.3526346811159
 20
10.58640041355102
 30
0.0
  0
VERTEX
  5
18F
330
178
100
AcDbEntity
  8
4_ANYTOOL_CUTTHROUGH_OUTSI
100
AcDbVertex
100
AcDb2dVertex
 10
159.3526346811232
 20
-26.824599586369
 30
0.0
  0
VERTEX
  5
190
330
178
100
AcDbEntity
  8
4_ANYTOOL_CUTTHROUGH_OUTSI
100
AcDbVertex
100
AcDb2dVertex
 10
135.6026346811159
 20
-26.82459958636173
 30
0.0
 42
0.4142135623773694
  0
VERTEX
  5
191
330
178
100
AcDbEntity
  8
4_ANYTOOL_CUTTHROUGH_OUTSI
100
AcDbVertex
100
AcDb2dVertex
 10
135.3526346811122
 20
-27.07459958636173
 30
0.0
  0
VERTEX
  5
192
330
178
100
AcDbEntity
  8
4_ANYTOOL_CUTTHROUGH_OUTSI
100
AcDbVertex
100
AcDb2dVertex
 10
135.3526346811159
 20
-39.07459958634718
 30
0.0
 42
0.4142135623816673
  0
VERTEX
  5
193
330
178
100
AcDbEntity
  8
4_ANYTOOL_CUTTHROUGH_OUTSI
100
AcDbVertex
100
AcDb2dVertex
 10
135.6026346811159
 20
-39.32459958635445
 30
0.0
  0
VERTEX
  5
194
330
178
100
AcDbEntity
  8
4_ANYTOOL_CUTTHROUGH_OUTSI
100
AcDbVertex
100
AcDb2dVertex
 10
141.3526346811232
 20
-39.32459958634718
 30
0.0
  0
VERTEX
  5
195
330
178
100
AcDbEntity
  8
4_ANYTOOL_CUTTHROUGH_OUTSI
100
AcDbVertex
100
AcDb2dVertex
 10
141.3526346811232
 20
-46.91359958631074
 30
0.0
  0
VERTEX
  5
196
330
178
100
AcDbEntity
  8
4_ANYTOOL_CUTTHROUGH_OUTSI
100
AcDbVertex
100
AcDb2dVertex
 10
135.6026346811304
 20
-46.91359958629619
 30
0.0
 42
0.4142135623688148
  0
VERTEX
  5
197
330
178
100
AcDbEntity
  8
4_ANYTOOL_CUTTHROUGH_OUTSI
100
AcDbVertex
100
AcDb2dVertex
 10
135.3526346811341
 20
-47.16359958629619
 30
0.0
  0
VERTEX
  5
198
330
178
100
AcDbEntity
  8
4_ANYTOOL_CUTTHROUGH_OUTSI
100
AcDbVertex
100
AcDb2dVertex
 10
135.3526346811304
 20
-59.16359958628163
 30
0.0
 42
0.4142135623816673
  0
VERTEX
  5
199
330
178
100
AcDbEntity
  8
4_ANYTOOL_CUTTHROUGH_OUTSI
100
AcDbVertex
100
AcDb2dVertex
 10
135.6026346811304
 20
-59.41359958628891
 30
0.0
  0
VERTEX
  5
19A
330
178
100
AcDbEntity
  8
4_ANYTOOL_CUTTHROUGH_OUTSI
100
AcDbVertex
100
AcDb2dVertex
 10
159.3526346814942
 20
-59.41359958628891
 30
0.0
  0
VERTEX
  5
19B
330
178
100
AcDbEntity
  8
4_ANYTOOL_CUTTHROUGH_OUTSI
100
AcDbVertex
100
AcDb2dVertex
 10
159.3526346831495
 20
-92.91359958622343
 30
0.0
  0
VERTEX
  5
19C
330
178
100
AcDbEntity
  8
4_ANYTOOL_CUTTHROUGH_OUTSI
100
AcDbVertex
100
AcDb2dVertex
 10
-140.147365318604
 20
-92.91359958691464
 30
0.0
  0
SEQEND
  5
19D
330
178
100
AcDbEntity
  8
4_ANYTOOL_CUTTHROUGH_OUTSI
  0
ENDSEC
  0
SECTION
  2
OBJECTS
  0
DICTIONARY
  5
C
330
0
100
AcDbDictionary
  3
ACAD_GROUP
350
D
  3
ACAD_LAYOUT
350
1A
  3
ACAD_MATERIAL
350
43
  3
ACAD_MLEADERSTYLE
350
5B
  3
ACAD_MLINESTYLE
350
17
  3
ACAD_PLOTSETTINGS
350
19
  3
ACAD_SCALELIST
350
47
  3
ACAD_VISUALSTYLE
350
2A
  3
ACDBHEADERROUNDTRIPXREC
350
19E
  3
ACDBVARIABLEDICTIONARY
350
1BF
  3
DWGPROPS
350
1C6
  0
DICTIONARY
  5
1C7
330
8
100
AcDbDictionary
280
     1
  3
ACAD_XREC_ROUNDTRIP
360
1C8
  0
DICTIONARY
  5
D
102
{ACAD_REACTORS
330
C
102
}
330
C
100
AcDbDictionary
  0
DICTIONARY
  5
1A
102
{ACAD_REACTORS
330
C
102
}
330
C
100
AcDbDictionary
  0
DICTIONARY
  5
43
102
{ACAD_REACTORS
330
C
102
}
330
C
100
AcDbDictionary
  3
BYBLOCK
350
45
  3
BYLAYER
350
44
  3
GLOBAL
350
46
  0
DICTIONARY
  5
5B
102
{ACAD_REACTORS
330
C
102
}
330
C
100
AcDbDictionary
  3
STANDARD
350
5C
  0
DICTIONARY
  5
17
102
{ACAD_REACTORS
330
C
102
}
330
C
100
AcDbDictionary
  3
STANDARD
350
18
  0
DICTIONARY
  5
19
102
{ACAD_REACTORS
330
C
102
}
330
C
100
AcDbDictionary
  0
DICTIONARY
  5
47
102
{ACAD_REACTORS
330
C
102
}
330
C
100
AcDbDictionary
  3
A0
350
48
  3
A1
350
49
  3
A2
350
4A
  3
A3
350
4B
  3
A4
350
4C
  3
A5
350
4D
  3
A6
350
4E
  3
A7
350
4F
  3
A8
350
50
  3
A9
350
51
  3
B1
350
52
  3
B2
350
53
  3
B3
350
54
  3
B4
350
55
  3
B5
350
56
  3
B6
350
57
  3
B7
350
58
  0
DICTIONARY
  5
2A
102
{ACAD_REACTORS
330
C
102
}
330
C
100
AcDbDictionary
  3
2DWIREFRAME
350
2F
  3
BASIC
350
32
  3
BRIGHTEN
350
36
  3
COLORCHANGE
350
3A
  3
CONCEPTUAL
350
34
  3
DIM
350
35
  3
EDGECOLOROFF
350
3D
  3
FACEPATTERN
350
39
  3
FLAT
350
2B
  3
FLATWITHEDGES
350
2C
  3
GOURAUD
350
2D
  3
GOURAUDWITHEDGES
350
2E
  3
HIDDEN
350
31
  3
JITTEROFF
350
3B
  3
LINEPATTERN
350
38
  3
OVERHANGOFF
350
3C
  3
REALISTIC
350
33
  3
SHADED
350
42
  3
SHADED_WITH_EDGES
350
41
  3
SHADES_OF_GRAY
350
3E
  3
SKETCHY
350
3F
  3
THICKEN
350
37
  3
WIREFRAME
350
30
  3
X-RAY
350
40
  0
DICTIONARY
  5
19E
102
{ACAD_REACTORS
330
C
102
}
330
C
100
AcDbDictionary
  3
CEPSNID
350
1A8
  3
CEPSNTYPE
350
1A7
  3
DIMSTYLEDATA
350
1BE
  3
FINGERPRINTGUID
350
1A9
  3
HYPERLINKBASE
350
1A1
  3
INSUNITS
350
1A6
  3
LAYOUTDICT
350
1A3
  3
LWETCUNION
350
1A5
  3
PLOTSETDICT
350
1A4
  3
PSVPSCALE
350
1AB
  3
PUCSBASE
350
1AE
  3
PUCSORGBACK
350
1B4
  3
PUCSORGBOTTOM
350
1B0
  3
PUCSORGFRONT
350
1B3
  3
PUCSORGLEFT
350
1B1
  3
PUCSORGRIGHT
350
1B2
  3
PUCSORGTOP
350
1AF
  3
PUCSORTHOREF
350
1AC
  3
PUCSORTHOVIEW
350
1AD
  3
STYLESHEET
350
1A2
  3
TSTACKALIGN
350
19F
  3
TSTACKSIZE
350
1A0
  3
UCSBASE
350
1B7
  3
UCSORGBACK
350
1BD
  3
UCSORGBOTTOM
350
1B9
  3
UCSORGFRONT
350
1BC
  3
UCSORGLEFT
350
1BA
  3
UCSORGRIGHT
350
1BB
  3
UCSORGTOP
350
1B8
  3
UCSORTHOREF
350
1B5
  3
UCSORTHOVIEW
350
1B6
  3
VERSIONGUID
350
1AA
  0
DICTIONARY
  5
1BF
102
{ACAD_REACTORS
330
C
102
}
330
C
100
AcDbDictionary
  3
CANNOSCALE
350
1C9
  3
CMLEADERSTYLE
350
1C1
  3
CTABLESTYLE
350
1C0
  3
DIMASSOC
350
1C4
  3
HIDETEXT
350
1C5
  3
MSLTSCALE
350
1CA
  0
XRECORD
  5
1C6
102
{ACAD_REACTORS
330
C
102
}
330
C
100
AcDbXrecord
  1
DWGPROPS COOKIE
  2

  3

  4

  6

  7

  8
clayt
  9

300
=
301
=
302
=
303
=
304
=
305
=
306
=
307
=
308
=
309
=
 40
0.0
 41
2461243.619560961
 42
2461243.6195611
  1

 90
        0
  0
XRECORD
  5
1C8
102
{ACAD_REACTORS
330
1C7
102
}
330
1C7
100
AcDbXrecord
102
VTR_0.000_0.000_1.000_1.000_VISUALSTYLE
340
2F
102
VTR_0.000_0.000_1.000_1.000_GRIDDISPLAY
 70
     3
102
VTR_0.000_0.000_1.000_1.000_GRIDMAJOR
 70
     5
102
VTR_0.000_0.000_1.000_1.000_DEFAULTLIGHTING
280
     1
102
VTR_0.000_0.000_1.000_1.000_DEFAULTLIGHTINGTYPE
 70
     1
102
VTR_0.000_0.000_1.000_1.000_BRIGHTNESS
141
0.0
102
VTR_0.000_0.000_1.000_1.000_CONTRAST
142
0.0
  0
MATERIAL
  5
45
102
{ACAD_REACTORS
330
43
102
}
102
{ACAD_XDICTIONARY
360
1CD
102
}
330
43
100
AcDbMaterial
  1
BYBLOCK
  0
MATERIAL
  5
44
102
{ACAD_REACTORS
330
43
102
}
102
{ACAD_XDICTIONARY
360
1CB
102
}
330
43
100
AcDbMaterial
  1
BYLAYER
  0
MATERIAL
  5
46
102
{ACAD_REACTORS
330
43
102
}
102
{ACAD_XDICTIONARY
360
1CF
102
}
330
43
100
AcDbMaterial
  1
GLOBAL
  0
ACAD_PROXY_OBJECT
  5
5C
102
{ACAD_REACTORS
330
5B
102
}
330
5B
100
AcDbProxyObject
 90
      499
 91
      505
 93
      610
310
40901902A4063FBFFFFFE056BD1B81E855B9FC0AD7A3703D0AD73F4214DD185B99185C9900AD7A3703D0AC73F90141901A02B5E8DC0F42B1CFC02B5E8DC0F42B1CFE5764000000000000300FC0
340
14
340
0
340
11
340
0
 94
        0
1001
ACAD_MLEADERVER
1070
     2
  0
MLINESTYLE
  5
18
102
{ACAD_REACTORS
330
17
102
}
330
17
100
AcDbMlineStyle
  2
Standard
 70
     0
  3

 62
   256
 51
90.0
 52
90.0
 71
     2
 49
0.5
 62
   256
  6
BYLAYER
 49
-0.5
 62
   256
  6
BYLAYER
  0
ACAD_PROXY_OBJECT
  5
48
102
{ACAD_REACTORS
330
47
102
}
330
47
100
AcDbProxyObject
 90
      499
 91
      503
 93
       41
310
903313A31580
  0
ACAD_PROXY_OBJECT
  5
49
102
{ACAD_REACTORS
330
47
102
}
330
47
100
AcDbProxyObject
 90
      499
 91
      503
 93
      257
310
90E312F31323822203D2031272D3022000000000000200FC000000000000284000
  0
ACAD_PROXY_OBJECT
  5
4A
102
{ACAD_REACTORS
330
47
102
}
330
47
100
AcDbProxyObject
 90
      499
 91
      503
 93
      249
310
90D312F363422203D2031272D3022000000000000240FC000000000000284000
  0
ACAD_PROXY_OBJECT
  5
4B
102
{ACAD_REACTORS
330
47
102
}
330
47
100
AcDbProxyObject
 90
      499
 91
      503
 93
      249
310
90D312F333222203D2031272D3022000000000000280FC000000000000284000
  0
ACAD_PROXY_OBJECT
  5
4C
102
{ACAD_REACTORS
330
47
102
}
330
47
100
AcDbProxyObject
 90
      499
 91
      503
 93
      249
310
90D312F313622203D2031272D30220000000000002C0FC000000000000284000
  0
ACAD_PROXY_OBJECT
  5
4D
102
{ACAD_REACTORS
330
47
102
}
330
47
100
AcDbProxyObject
 90
      499
 91
      503
 93
      249
310
90D332F333222203D2031272D30220000000000002E0FC000000000000284000
  0
ACAD_PROXY_OBJECT
  5
4E
102
{ACAD_REACTORS
330
47
102
}
330
47
100
AcDbProxyObject
 90
      499
 91
      503
 93
      241
310
90C312F3822203D2031272D3022000000000000300FC000000000000284000
  0
ACAD_PROXY_OBJECT
  5
4F
102
{ACAD_REACTORS
330
47
102
}
330
47
100
AcDbProxyObject
 90
      499
 91
      503
 93
      249
310
90D332F313622203D2031272D3022000000000000320FC000000000000284000
  0
ACAD_PROXY_OBJECT
  5
50
102
{ACAD_REACTORS
330
47
102
}
330
47
100
AcDbProxyObject
 90
      499
 91
      503
 93
      241
310
90C312F3422203D2031272D3022000000000000340FC000000000000284000
  0
ACAD_PROXY_OBJECT
  5
51
102
{ACAD_REACTORS
330
47
102
}
330
47
100
AcDbProxyObject
 90
      499
 91
      503
 93
      241
310
90C332F3822203D2031272D3022000000000000360FC000000000000284000
  0
ACAD_PROXY_OBJECT
  5
52
102
{ACAD_REACTORS
330
47
102
}
330
47
100
AcDbProxyObject
 90
      499
 91
      503
 93
      241
310
90C312F3222203D2031272D3022000000000000380FC000000000000284000
  0
ACAD_PROXY_OBJECT
  5
53
102
{ACAD_REACTORS
330
47
102
}
330
47
100
AcDbProxyObject
 90
      499
 91
      503
 93
      241
310
90C332F3422203D2031272D30220000000000003A0FC000000000000284000
  0
ACAD_PROXY_OBJECT
  5
54
102
{ACAD_REACTORS
330
47
102
}
330
47
100
AcDbProxyObject
 90
      499
 91
      503
 93
      161
310
90A3122203D2031272D30224000000000000284000
  0
ACAD_PROXY_OBJECT
  5
55
102
{ACAD_REACTORS
330
47
102
}
330
47
100
AcDbProxyObject
 90
      499
 91
      503
 93
      257
310
90E312D312F3222203D2031272D30220000000000003E0FC000000000000284000
  0
ACAD_PROXY_OBJECT
  5
56
102
{ACAD_REACTORS
330
47
102
}
330
47
100
AcDbProxyObject
 90
      499
 91
      503
 93
      225
310
90A3322203D2031272D302200000000000002100000000000000284000
  0
ACAD_PROXY_OBJECT
  5
57
102
{ACAD_REACTORS
330
47
102
}
330
47
100
AcDbProxyObject
 90
      499
 91
      503
 93
      225
310
90A3622203D2031272D302200000000000006100000000000000284000
  0
ACAD_PROXY_OBJECT
  5
58
102
{ACAD_REACTORS
330
47
102
}
330
47
100
AcDbProxyObject
 90
      499
 91
      503
 93
      249
310
90D31272D3022203D2031272D30220000000000000A100000000000000284000
  0
ACAD_PROXY_OBJECT
  5
2F
102
{ACAD_REACTORS
330
2A
102
}
330
2A
100
AcDbProxyObject
 90
      499
 91
      501
 93
      436
310
42CC9915DA5C99599C985B595049028333333333333E33F0000000000000F90107901411070040501600405405064090741402480A0340
1001
ACAD
1000
AcDbSavedByObjectVersion
1070
     0
  0
ACAD_PROXY_OBJECT
  5
32
102
{ACAD_REACTORS
330
2A
102
}
330
2A
100
AcDbProxyObject
 90
      499
 91
      501
 93
      388
310
4150985CDA58D07406404333333333333E33F0000000000000F90107A41107004050150841D405064090741402480A0350
1001
ACAD
1000
AcDbSavedByObjectVersion
1070
     0
  0
ACAD_PROXY_OBJECT
  5
36
102
{ACAD_REACTORS
330
2A
102
}
330
2A
100
AcDbProxyObject
 90
      499
 91
      501
 93
      428
310
42109C9A59DA1D195B90C409028333333333333E33F0000000000000F9010790141107004050150841D405064090741402480A029950
1001
ACAD
1000
AcDbSavedByObjectVersion
1070
     0
  0
ACAD_PROXY_OBJECT
  5
3A
102
{ACAD_REACTORS
330
2A
102
}
330
2A
100
AcDbProxyObject
 90
      499
 91
      501
 93
      452
310
42D0DBDB1BDC90DA185B99D95104090240C333333333333E33F0000000000000F90108901411070040501508421405064090741402480A0350
1001
ACAD
1000
AcDbSavedByObjectVersion
1070
     0
  0
ACAD_PROXY_OBJECT
  5
34
102
{ACAD_REACTORS
330
2A
102
}
330
2A
100
AcDbProxyObject
 90
      499
 91
      501
 93
      500
310
4290DBDB98D95C1D1D585B10940D028333333333333E33F0000000000000F90107902409070040501000000000018199010841D405064090740C02480A0340
1001
ACAD
1000
AcDbSavedByObjectVersion
1070
     0
  0
ACAD_PROXY_OBJECT
  5
35
102
{ACAD_REACTORS
330
2A
102
}
330
2A
100
AcDbProxyObject
 90
      499
 91
      501
 93
      412
310
40D11A5B50B409028333333333333E33F0000000000000F9010790141107004050150841D405064090741402480A02677FFFFFD0
1001
ACAD
1000
AcDbSavedByObjectVersion
1070
     0
  0
ACAD_PROXY_OBJECT
  5
3D
102
{ACAD_REACTORS
330
2A
102
}
330
2A
100
AcDbProxyObject
 90
      499
 91
      501
 93
      452
310
43115919D950DBDB1BDC93D999916409028333333333333E33F0000000000000F9010790141107004050150841D405064090741402480A0350
1001
ACAD
1000
AcDbSavedByObjectVersion
1070
     0
  0
ACAD_PROXY_OBJECT
  5
39
102
{ACAD_REACTORS
330
2A
102
}
330
2A
100
AcDbProxyObject
 90
      499
 91
      501
 93
      444
310
42D19858D95C185D1D195C9B90F409028333333333333E33F0000000000000F9010790141107004050150841D405064090741402480A0350
1001
ACAD
1000
AcDbSavedByObjectVersion
1070
     0
  0
ACAD_PROXY_OBJECT
  5
2B
102
{ACAD_REACTORS
330
2A
102
}
330
2A
100
AcDbProxyObject
 90
      499
 91
      501
 93
      380
310
41119B185D240901404333333333333E33F0000000000000F9010740A907004050150841D405064090741402480A1B50
1001
ACAD
1000
AcDbSavedByObjectVersion
1070
     0
  0
ACAD_PROXY_OBJECT
  5
2C
102
{ACAD_REACTORS
330
2A
102
}
330
2A
100
AcDbProxyObject
 90
      499
 91
      501
 93
      468
310
43519B185D15DA5D1A115919D95CD0140901404333333333333E33F0000000000000F90107409019070040501600405405064090741402480A1B50
1001
ACAD
1000
AcDbSavedByObjectVersion
1070
     0
  0
ACAD_PROXY_OBJECT
  5
2D
102
{ACAD_REACTORS
330
2A
102
}
330
2A
100
AcDbProxyObject
 90
      499
 91
      501
 93
      404
310
41D1DBDD5C985D5910240902404333333333333E33F0000000000000F9010740A9070040501641D405064090741402480A1B50
1001
ACAD
1000
AcDbSavedByObjectVersion
1070
     0
  0
ACAD_PROXY_OBJECT
  5
2E
102
{ACAD_REACTORS
330
2A
102
}
330
2A
100
AcDbProxyObject
 90
      499
 91
      501
 93
      492
310
4411DBDD5C985D5915DA5D1A115919D95CD0340902404333333333333E33F0000000000000F90107409019070040501600405405064090741402480A1B50
1001
ACAD
1000
AcDbSavedByObjectVersion
1070
     0
  0
ACAD_PROXY_OBJECT
  5
31
102
{ACAD_REACTORS
330
2A
102
}
330
2A
100
AcDbProxyObject
 90
      499
 91
      501
 93
      476
310
41921A5919195B90640502408333333333333E33F0000000000000F901079024090700405020000000000001110200405405064090740C02480A0340
1001
ACAD
1000
AcDbSavedByObjectVersion
1070
     0
  0
ACAD_PROXY_OBJECT
  5
3B
102
{ACAD_REACTORS
330
2A
102
}
330
2A
100
AcDbProxyObject
 90
      499
 91
      501
 93
      428
310
42529A5D1D195C93D999914409028333333333333E33F0000000000000F9010790141107004050150A41D405064090741402480A0350
1001
ACAD
1000
AcDbSavedByObjectVersion
1070
     0
  0
ACAD_PROXY_OBJECT
  5
38
102
{ACAD_REACTORS
330
2A
102
}
330
2A
100
AcDbProxyObject
 90
      499
 91
      501
 93
      444
310
42D31A5B995C185D1D195C9B90E409028333333333333E33F0000000000000F9010790141107004050750841D405064090741402483A0350
1001
ACAD
1000
AcDbSavedByObjectVersion
1070
     0
  0
ACAD_PROXY_OBJECT
  5
3C
102
{ACAD_REACTORS
330
2A
102
}
330
2A
100
AcDbProxyObject
 90
      499
 91
      501
 93
      444
310
42D3DD995C9A185B99D3D999915409028333333333333E33F0000000000000F9010790141107004050150941D405064090741402480A0350
1001
ACAD
1000
AcDbSavedByObjectVersion
1070
     0
  0
ACAD_PROXY_OBJECT
  5
33
102
{ACAD_REACTORS
330
2A
102
}
330
2A
100
AcDbProxyObject
 90
      499
 91
      501
 93
      428
310
425499585B1A5CDD1A58D08409038333333333333E33F0000000000000F9010740A907004050150800405405064090740C02480A1B40
1001
ACAD
1000
AcDbSavedByObjectVersion
1070
     0
  0
ACAD_PROXY_OBJECT
  5
42
102
{ACAD_REACTORS
330
2A
102
}
330
2A
100
AcDbProxyObject
 90
      499
 91
      501
 93
      420
310
4194DA1859195911B40902404333333333333E33F0000000000000F9010740A41107004050150800405405064090840C02480A0B40
1001
ACAD
1000
AcDbSavedByObjectVersion
1070
     0
  0
ACAD_PROXY_OBJECT
  5
41
102
{ACAD_REACTORS
330
2A
102
}
330
2A
100
AcDbProxyObject
 90
      499
 91
      501
 93
      516
310
4454DA18591959081DDA5D1A08195919D95CD1A40902404333333333333E33F0000000000000F901074090142907004050250800405405064090740C02480A0B40
1001
ACAD
1000
AcDbSavedByObjectVersion
1070
     0
  0
ACAD_PROXY_OBJECT
  5
3E
102
{ACAD_REACTORS
330
2A
102
}
330
2A
100
AcDbProxyObject
 90
      499
 91
      501
 93
      532
310
4394DA1859195CC81BD98811DC985E5174090240C333333333333E33F0000000000000F901079024090741D01000000000000111010841D405064090740C02480A0340
1001
ACAD
1000
AcDbSavedByObjectVersion
1070
     0
  0
ACAD_PROXY_OBJECT
  5
3F
102
{ACAD_REACTORS
330
2A
102
}
330
2A
100
AcDbProxyObject
 90
      499
 91
      501
 93
      476
310
41D4DAD95D18DA1E51840502408333333333333E33F0000000000000F901079024090741D01000000000000111010B41D405064090741802480A0340
1001
ACAD
1000
AcDbSavedByObjectVersion
1070
     0
  0
ACAD_PROXY_OBJECT
  5
37
102
{ACAD_REACTORS
330
2A
102
}
330
2A
100
AcDbProxyObject
 90
      499
 91
      501
 93
      412
310
41D51A1A58DAD95B90D409028333333333333E33F0000000000000F9010790141107004050150C41D405064090741402480A0350
1001
ACAD
1000
AcDbSavedByObjectVersion
1070
     0
  0
ACAD_PROXY_OBJECT
  5
30
102
{ACAD_REACTORS
330
2A
102
}
330
2A
100
AcDbProxyObject
 90
      499
 91
      501
 93
      420
310
4255DA5C99599C985B595059028333333333333E33F0000000000000F90107901411070040501600405405064090740C02480A0340
1001
ACAD
1000
AcDbSavedByObjectVersion
1070
     0
  0
ACAD_PROXY_OBJECT
  5
40
102
{ACAD_REACTORS
330
2A
102
}
330
2A
100
AcDbProxyObject
 90
      499
 91
      501
 93
      404
310
41560B54985E51940902404000000000000E03F0000000000000F9010740501907004050150841D405064090740C02480A1B40
1001
ACAD
1000
AcDbSavedByObjectVersion
1070
     0
  0
XRECORD
  5
1A8
102
{ACAD_REACTORS
330
19E
102
}
330
19E
100
AcDbXrecord
340
0
  0
XRECORD
  5
1A7
102
{ACAD_REACTORS
330
19E
102
}
330
19E
100
AcDbXrecord
 90
        0
  0
XRECORD
  5
1BE
102
{ACAD_REACTORS
330
19E
102
}
330
19E
100
AcDbXrecord
1000
DSTYLE
1002
{
1070
   171
 70
     2
1070
   143
 40
25.4
1070
   274
 70
     2
1070
    41
 40
0.18
1070
   141
 40
0.09
1070
   271
 70
     4
1070
    43
 40
0.38
1070
   278
 70
    46
1070
    44
 40
0.18
1070
    42
 40
0.0625
1070
   147
 40
0.09
1070
    77
 70
     0
1070
   272
 70
     4
1070
    73
 70
     1
1070
   279
 70
     2
1070
   172
 70
     0
1070
    74
 70
     1
1070
   283
 70
     1
1070
   340
340
11
1070
   140
 40
0.18
1070
   284
 70
     0
1070
    78
 70
     0
1002
}
  0
XRECORD
  5
1A9
102
{ACAD_REACTORS
330
19E
102
}
330
19E
100
AcDbXrecord
  1
{9f3364bd-453c-4b75-9d6c-63abbaf15226}
  0
XRECORD
  5
1A1
102
{ACAD_REACTORS
330
19E
102
}
330
19E
100
AcDbXrecord
  1

  0
XRECORD
  5
1A6
102
{ACAD_REACTORS
330
19E
102
}
330
19E
100
AcDbXrecord
 90
        4
  0
XRECORD
  5
1A3
102
{ACAD_REACTORS
330
19E
102
}
330
19E
100
AcDbXrecord
340
1A
  0
XRECORD
  5
1A5
102
{ACAD_REACTORS
330
19E
102
}
330
19E
100
AcDbXrecord
 90
    10781
  0
XRECORD
  5
1A4
102
{ACAD_REACTORS
330
19E
102
}
330
19E
100
AcDbXrecord
340
19
  0
XRECORD
  5
1AB
102
{ACAD_REACTORS
330
19E
102
}
330
19E
100
AcDbXrecord
 40
0.0
  0
XRECORD
  5
1AE
102
{ACAD_REACTORS
330
19E
102
}
330
19E
100
AcDbXrecord
340
0
  0
XRECORD
  5
1B4
102
{ACAD_REACTORS
330
19E
102
}
330
19E
100
AcDbXrecord
 10
0.0
 20
0.0
 30
0.0
  0
XRECORD
  5
1B0
102
{ACAD_REACTORS
330
19E
102
}
330
19E
100
AcDbXrecord
 10
0.0
 20
0.0
 30
0.0
  0
XRECORD
  5
1B3
102
{ACAD_REACTORS
330
19E
102
}
330
19E
100
AcDbXrecord
 10
0.0
 20
0.0
 30
0.0
  0
XRECORD
  5
1B1
102
{ACAD_REACTORS
330
19E
102
}
330
19E
100
AcDbXrecord
 10
0.0
 20
0.0
 30
0.0
  0
XRECORD
  5
1B2
102
{ACAD_REACTORS
330
19E
102
}
330
19E
100
AcDbXrecord
 10
0.0
 20
0.0
 30
0.0
  0
XRECORD
  5
1AF
102
{ACAD_REACTORS
330
19E
102
}
330
19E
100
AcDbXrecord
 10
0.0
 20
0.0
 30
0.0
  0
XRECORD
  5
1AC
102
{ACAD_REACTORS
330
19E
102
}
330
19E
100
AcDbXrecord
340
0
  0
XRECORD
  5
1AD
102
{ACAD_REACTORS
330
19E
102
}
330
19E
100
AcDbXrecord
 70
     0
  0
XRECORD
  5
1A2
102
{ACAD_REACTORS
330
19E
102
}
330
19E
100
AcDbXrecord
  1

  0
XRECORD
  5
19F
102
{ACAD_REACTORS
330
19E
102
}
330
19E
100
AcDbXrecord
 90
        1
  0
XRECORD
  5
1A0
102
{ACAD_REACTORS
330
19E
102
}
330
19E
100
AcDbXrecord
 90
       70
  0
XRECORD
  5
1B7
102
{ACAD_REACTORS
330
19E
102
}
330
19E
100
AcDbXrecord
340
0
  0
XRECORD
  5
1BD
102
{ACAD_REACTORS
330
19E
102
}
330
19E
100
AcDbXrecord
 10
0.0
 20
0.0
 30
0.0
  0
XRECORD
  5
1B9
102
{ACAD_REACTORS
330
19E
102
}
330
19E
100
AcDbXrecord
 10
0.0
 20
0.0
 30
0.0
  0
XRECORD
  5
1BC
102
{ACAD_REACTORS
330
19E
102
}
330
19E
100
AcDbXrecord
 10
0.0
 20
0.0
 30
0.0
  0
XRECORD
  5
1BA
102
{ACAD_REACTORS
330
19E
102
}
330
19E
100
AcDbXrecord
 10
0.0
 20
0.0
 30
0.0
  0
XRECORD
  5
1BB
102
{ACAD_REACTORS
330
19E
102
}
330
19E
100
AcDbXrecord
 10
0.0
 20
0.0
 30
0.0
  0
XRECORD
  5
1B8
102
{ACAD_REACTORS
330
19E
102
}
330
19E
100
AcDbXrecord
 10
0.0
 20
0.0
 30
0.0
  0
XRECORD
  5
1B5
102
{ACAD_REACTORS
330
19E
102
}
330
19E
100
AcDbXrecord
340
0
  0
XRECORD
  5
1B6
102
{ACAD_REACTORS
330
19E
102
}
330
19E
100
AcDbXrecord
 70
     0
  0
XRECORD
  5
1AA
102
{ACAD_REACTORS
330
19E
102
}
330
19E
100
AcDbXrecord
  1
{FAEB1C32-E019-11D5-929B-00C0DF256EC4}
  0
DICTIONARYVAR
  5
1C9
102
{ACAD_REACTORS
330
1BF
102
}
330
1BF
100
DictionaryVariables
280
     0
  1
1:1
  0
DICTIONARYVAR
  5
1C1
102
{ACAD_REACTORS
330
1BF
102
}
330
1BF
100
DictionaryVariables
280
     0
  1
Standard
  0
DICTIONARYVAR
  5
1C0
102
{ACAD_REACTORS
330
1BF
102
}
330
1BF
100
DictionaryVariables
280
     0
  1
Standard
  0
DICTIONARYVAR
  5
1C4
102
{ACAD_REACTORS
330
1BF
102
}
330
1BF
100
DictionaryVariables
280
     0
  1
2
  0
DICTIONARYVAR
  5
1C5
102
{ACAD_REACTORS
330
1BF
102
}
330
1BF
100
DictionaryVariables
280
     0
  1
1
  0
DICTIONARYVAR
  5
1CA
102
{ACAD_REACTORS
330
1BF
102
}
330
1BF
100
DictionaryVariables
280
     0
  1
1
  0
DICTIONARY
  5
1CD
330
45
100
AcDbDictionary
280
     1
  3
ACAD_XREC_ROUNDTRIP
360
1CE
  0
DICTIONARY
  5
1CB
330
44
100
AcDbDictionary
280
     1
  3
ACAD_XREC_ROUNDTRIP
360
1CC
  0
DICTIONARY
  5
1CF
330
46
100
AcDbDictionary
280
     1
  3
ACAD_XREC_ROUNDTRIP
360
1D0
  0
XRECORD
  5
1CE
102
{ACAD_REACTORS
330
1CD
102
}
330
1CD
100
AcDbXrecord
102
MATERIAL
148
0.0
149
0.0
149
0.0
 93
        0
 94
      127
282
     0
 72
     1
 77
     1
171
     1
175
     1
179
     1
273
     0
  0
XRECORD
  5
1CC
102
{ACAD_REACTORS
330
1CB
102
}
330
1CB
100
AcDbXrecord
102
MATERIAL
148
0.0
149
0.0
149
0.0
 93
        0
 94
      127
282
     0
 72
     1
 77
     1
171
     1
175
     1
179
     1
273
     0
  0
XRECORD
  5
1D0
102
{ACAD_REACTORS
330
1CF
102
}
330
1CF
100
AcDbXrecord
102
MATERIAL
148
0.0
149
0.0
149
0.0
 93
        0
 94
      127
282
     0
 72
     1
 77
     1
171
     1
175
     1
179
     1
273
     0
  0
ENDSEC
  0
EOF
