  0
SECTION
  2
HEADER
  9
$ACADVER
  1
AC1014
  9
$ACADMAINTVER
 70
     9
  9
$DWGCODEPAGE
  3
ANSI_1252
  9
$INSBASE
 10
0.0
 20
0.0
 30
0.0
  9
$EXTMIN
 10
-731.0850774606151
 20
-298.3666739989494
 30
-0.0000000000042783
  9
$EXTMAX
 10
759.0275540606981
 20
310.1333260016836
 30
0.0000000010007035
  9
$LIMMIN
 10
0.0
 20
0.0
  9
$LIMMAX
 10
12.0
 20
9.0
  9
$ORTHOMODE
 70
     0
  9
$REGENMODE
 70
     1
  9
$FILLMODE
 70
     1
  9
$QTEXTMODE
 70
     0
  9
$MIRRTEXT
 70
     1
  9
$DRAGMODE
 70
     2
  9
$LTSCALE
 40
1.0
  9
$OSMODE
 70
    37
  9
$ATTMODE
 70
     1
  9
$TEXTSIZE
 40
0.2
  9
$TRACEWID
 40
0.05
  9
$TEXTSTYLE
  7
STANDARD
  9
$CLAYER
  8
0
  9
$CELTYPE
  6
BYLAYER
  9
$CECOLOR
 62
   256
  9
$CELTSCALE
 40
1.0
  9
$DELOBJ
 70
     1
  9
$DISPSILH
 70
     0
  9
$DIMSCALE
 40
1.0
  9
$DIMASZ
 40
0.18
  9
$DIMEXO
 40
0.0625
  9
$DIMDLI
 40
0.38
  9
$DIMRND
 40
0.0
  9
$DIMDLE
 40
0.0
  9
$DIMEXE
 40
0.18
  9
$DIMTP
 40
0.0
  9
$DIMTM
 40
0.0
  9
$DIMTXT
 40
0.18
  9
$DIMCEN
 40
0.09
  9
$DIMTSZ
 40
0.0
  9
$DIMTOL
 70
     0
  9
$DIMLIM
 70
     0
  9
$DIMTIH
 70
     1
  9
$DIMTOH
 70
     1
  9
$DIMSE1
 70
     0
  9
$DIMSE2
 70
     0
  9
$DIMTAD
 70
     0
  9
$DIMZIN
 70
     0
  9
$DIMBLK
  1

  9
$DIMASO
 70
     1
  9
$DIMSHO
 70
     1
  9
$DIMPOST
  1

  9
$DIMAPOST
  1

  9
$DIMALT
 70
     0
  9
$DIMALTD
 70
     2
  9
$DIMALTF
 40
25.4
  9
$DIMLFAC
 40
1.0
  9
$DIMTOFL
 70
     0
  9
$DIMTVP
 40
0.0
  9
$DIMTIX
 70
     0
  9
$DIMSOXD
 70
     0
  9
$DIMSAH
 70
     0
  9
$DIMBLK1
  1

  9
$DIMBLK2
  1

  9
$DIMSTYLE
  2
STANDARD_ACAD
  9
$DIMCLRD
 70
     0
  9
$DIMCLRE
 70
     0
  9
$DIMCLRT
 70
     0
  9
$DIMTFAC
 40
1.0
  9
$DIMGAP
 40
0.09
  9
$DIMJUST
 70
     0
  9
$DIMSD1
 70
     0
  9
$DIMSD2
 70
     0
  9
$DIMTOLJ
 70
     1
  9
$DIMTZIN
 70
     0
  9
$DIMALTZ
 70
     0
  9
$DIMALTTZ
 70
     0
  9
$DIMFIT
 70
     5
  9
$DIMUPT
 70
     0
  9
$DIMUNIT
 70
     2
  9
$DIMDEC
 70
     4
  9
$DIMTDEC
 70
     4
  9
$DIMALTU
 70
     2
  9
$DIMALTTD
 70
     2
  9
$DIMTXSTY
  7
STANDARD
  9
$DIMAUNIT
 70
     0
  9
$LUNITS
 70
     2
  9
$LUPREC
 70
     2
  9
$SKETCHINC
 40
0.1
  9
$FILLETRAD
 40
0.0
  9
$AUNITS
 70
     0
  9
$AUPREC
 70
     0
  9
$MENU
  1
.
  9
$ELEVATION
 40
0.0
  9
$PELEVATION
 40
0.0
  9
$THICKNESS
 40
0.0
  9
$LIMCHECK
 70
     0
  9
$CHAMFERA
 40
0.0
  9
$CHAMFERB
 40
0.0
  9
$CHAMFERC
 40
0.0
  9
$CHAMFERD
 40
0.0
  9
$SKPOLY
 70
     0
  9
$TDCREATE
 40
2461249.516895128
  9
$TDUPDATE
 40
2461249.516895313
  9
$TDINDWG
 40
0.0000000116
  9
$TDUSRTIMER
 40
0.0000000116
  9
$USRTIMER
 70
     1
  9
$ANGBASE
 50
0.0
  9
$ANGDIR
 70
     0
  9
$PDMODE
 70
     0
  9
$PDSIZE
 40
0.0
  9
$PLINEWID
 40
0.0
  9
$COORDS
 70
     1
  9
$SPLFRAME
 70
     0
  9
$SPLINETYPE
 70
     6
  9
$SPLINESEGS
 70
     8
  9
$ATTDIA
 70
     0
  9
$ATTREQ
 70
     1
  9
$HANDLING
 70
     1
  9
$HANDSEED
  5
403
  9
$SURFTAB1
 70
     6
  9
$SURFTAB2
 70
     6
  9
$SURFTYPE
 70
     6
  9
$SURFU
 70
     6
  9
$SURFV
 70
     6
  9
$UCSNAME
  2

  9
$UCSORG
 10
0.0
 20
0.0
 30
0.0
  9
$UCSXDIR
 10
1.0
 20
0.0
 30
0.0
  9
$UCSYDIR
 10
0.0
 20
1.0
 30
0.0
  9
$PUCSNAME
  2

  9
$PUCSORG
 10
0.0
 20
0.0
 30
0.0
  9
$PUCSXDIR
 10
1.0
 20
0.0
 30
0.0
  9
$PUCSYDIR
 10
0.0
 20
1.0
 30
0.0
  9
$USERI1
 70
     0
  9
$USERI2
 70
     0
  9
$USERI3
 70
     0
  9
$USERI4
 70
     0
  9
$USERI5
 70
     0
  9
$USERR1
 40
0.0
  9
$USERR2
 40
0.0
  9
$USERR3
 40
0.0
  9
$USERR4
 40
0.0
  9
$USERR5
 40
0.0
  9
$WORLDVIEW
 70
     1
  9
$SHADEDGE
 70
     3
  9
$SHADEDIF
 70
    70
  9
$TILEMODE
 70
     1
  9
$MAXACTVP
 70
    64
  9
$PINSBASE
 10
0.0
 20
0.0
 30
0.0
  9
$PLIMCHECK
 70
     0
  9
$PEXTMIN
 10
1.000000000000000E+20
 20
1.000000000000000E+20
 30
1.000000000000000E+20
  9
$PEXTMAX
 10
-1.000000000000000E+20
 20
-1.000000000000000E+20
 30
-1.000000000000000E+20
  9
$PLIMMIN
 10
0.0
 20
0.0
  9
$PLIMMAX
 10
12.0
 20
9.0
  9
$UNITMODE
 70
     0
  9
$VISRETAIN
 70
     1
  9
$PLINEGEN
 70
     0
  9
$PSLTSCALE
 70
     1
  9
$TREEDEPTH
 70
  3020
  9
$PICKSTYLE
 70
     1
  9
$CMLSTYLE
  2
STANDARD
  9
$CMLJUST
 70
     0
  9
$CMLSCALE
 40
1.0
  9
$PROXYGRAPHICS
 70
     1
  9
$MEASUREMENT
 70
     1
  0
ENDSEC
  0
SECTION
  2
CLASSES
  0
CLASS
  1
ACDBDICTIONARYWDFLT
  2
AcDbDictionaryWithDefault
  3
ObjectDBX Classes
 90
        0
280
     0
281
     0
  0
CLASS
  1
VISUALSTYLE
  2
AcDbVisualStyle
  3
ObjectDBX Classes
 90
     4095
280
     0
281
     0
  0
CLASS
  1
MATERIAL
  2
AcDbMaterial
  3
ObjectDBX Classes
 90
     1153
280
     0
281
     0
  0
CLASS
  1
SCALE
  2
AcDbScale
  3
ObjectDBX Classes
 90
     1153
280
     0
281
     0
  0
CLASS
  1
TABLESTYLE
  2
AcDbTableStyle
  3
ObjectDBX Classes
 90
     4095
280
     0
281
     0
  0
CLASS
  1
MLEADERSTYLE
  2
AcDbMLeaderStyle
  3
ACDB_MLEADERSTYLE_CLASS
 90
     4095
280
     0
281
     0
  0
CLASS
  1
SUN
  2
AcDbSun
  3
SCENEOE
 90
     1153
280
     0
281
     0
  0
CLASS
  1
DICTIONARYVAR
  2
AcDbDictionaryVar
  3
ObjectDBX Classes
 90
        0
280
     0
281
     0
  0
CLASS
  1
XRECORD
  2
AcDbXrecord
  3
ObjectDBX Classes
 90
        0
280
     0
281
     0
  0
CLASS
  1
LWPOLYLINE
  2
AcDbPolyline
  3
ObjectDBX Classes
 90
        0
280
     0
281
     1
  0
CLASS
  1
HATCH
  2
AcDbHatch
  3
ObjectDBX Classes
 90
        0
280
     0
281
     1
  0
CLASS
  1
ACDBPLACEHOLDER
  2
AcDbPlaceHolder
  3
ObjectDBX Classes
 90
        0
280
     0
281
     0
  0
CLASS
  1
LAYOUT
  2
AcDbLayout
  3
ObjectDBX Classes
 90
        0
280
     0
281
     0
  0
ENDSEC
  0
SECTION
  2
TABLES
  0
TABLE
  2
VPORT
  5
8
102
{ACAD_XDICTIONARY
360
3F8
102
}
330
0
100
AcDbSymbolTable
 70
     1
  0
VPORT
  5
29
330
8
100
AcDbSymbolTableRecord
100
AcDbViewportTableRecord
  2
*ACTIVE
 70
     0
 10
0.0
 20
0.0
 11
1.0
 21
1.0
 12
10.42990654205607
 22
4.5
 13
0.0
 23
0.0
 14
0.5
 24
0.5
 15
0.5
 25
0.5
 16
0.0
 26
0.0
 36
1.0
 17
0.0
 27
0.0
 37
0.0
 40
9.0
 41
1.972972972850329
 42
50.0
 43
0.0
 44
0.0
 50
0.0
 51
0.0
 71
     0
 72
   100
 73
     1
 74
     3
 75
     0
 76
     0
 77
     0
 78
     0
  0
ENDTAB
  0
TABLE
  2
LTYPE
  5
5
330
0
100
AcDbSymbolTable
 70
     1
  0
LTYPE
  5
14
330
5
100
AcDbSymbolTableRecord
100
AcDbLinetypeTableRecord
  2
BYBLOCK
 70
     0
  3

 72
    65
 73
     0
 40
0.0
  0
LTYPE
  5
15
330
5
100
AcDbSymbolTableRecord
100
AcDbLinetypeTableRecord
  2
BYLAYER
 70
     0
  3

 72
    65
 73
     0
 40
0.0
  0
LTYPE
  5
16
330
5
100
AcDbSymbolTableRecord
100
AcDbLinetypeTableRecord
  2
CONTINUOUS
 70
     0
  3
Solid line
 72
    65
 73
     0
 40
0.0
  0
ENDTAB
  0
TABLE
  2
LAYER
  5
2
330
0
100
AcDbSymbolTable
 70
     5
  0
LAYER
  5
10
330
2
100
AcDbSymbolTableRecord
100
AcDbLayerTableRecord
  2
0
 70
     0
 62
     7
  6
CONTINUOUS
  0
LAYER
  5
5F
330
2
100
AcDbSymbolTableRecord
100
AcDbLayerTableRecord
  2
1_ANYTOOL_1MMDEEP_LABELS_S
 70
     0
 62
     2
  6
CONTINUOUS
  0
LAYER
  5
2C6
330
2
100
AcDbSymbolTableRecord
100
AcDbLayerTableRecord
  2
5_ANYTOOL_HALF_MILL_9MM_IN
 70
     0
 62
     3
  6
CONTINUOUS
  0
LAYER
  5
2DF
330
2
100
AcDbSymbolTableRecord
100
AcDbLayerTableRecord
  2
3_ANYTOOL_CUTTHROUGH_INSID
 70
     0
 62
     4
  6
CONTINUOUS
  0
LAYER
  5
2EE
330
2
100
AcDbSymbolTableRecord
100
AcDbLayerTableRecord
  2
4_ANYTOOL_CUTTHROUGH_OUTSI
 70
     0
 62
     5
  6
CONTINUOUS
  0
ENDTAB
  0
TABLE
  2
STYLE
  5
3
330
0
100
AcDbSymbolTable
 70
     1
  0
STYLE
  5
11
330
3
100
AcDbSymbolTableRecord
100
AcDbTextStyleTableRecord
  2
STANDARD
 70
     0
 40
0.0
 41
1.0
 50
0.0
 71
     0
 42
0.2
  3
txt
  4

  0
ENDTAB
  0
TABLE
  2
VIEW
  5
6
330
0
100
AcDbSymbolTable
 70
     0
  0
ENDTAB
  0
TABLE
  2
UCS
  5
7
330
0
100
AcDbSymbolTable
 70
     0
  0
ENDTAB
  0
TABLE
  2
APPID
  5
9
330
0
100
AcDbSymbolTable
 70
     3
  0
APPID
  5
12
330
9
100
AcDbSymbolTableRecord
100
AcDbRegAppTableRecord
  2
ACAD
 70
     0
  0
APPID
  5
5E
330
9
100
AcDbSymbolTableRecord
100
AcDbRegAppTableRecord
  2
RHINO
 70
     0
  0
APPID
  5
402
330
9
100
AcDbSymbolTableRecord
100
AcDbRegAppTableRecord
  2
ACAD_MLEADERVER
 70
     0
  0
ENDTAB
  0
TABLE
  2
DIMSTYLE
  5
A
330
0
100
AcDbSymbolTable
 70
     1
  0
DIMSTYLE
105
27
330
A
100
AcDbSymbolTableRecord
100
AcDbDimStyleTableRecord
  2
STANDARD_ACAD
 70
     0
  3

  4

  5

  6

  7

 40
1.0
 41
0.18
 42
0.0625
 43
0.38
 44
0.18
 45
0.0
 46
0.0
 47
0.0
 48
0.0
140
0.18
141
0.09
142
0.0
143
25.4
144
1.0
145
0.0
146
1.0
147
0.09
 71
     0
 72
     0
 73
     1
 74
     1
 75
     0
 76
     0
 77
     0
 78
     0
170
     0
171
     2
172
     0
173
     0
174
     0
175
     0
176
     0
177
     0
178
     0
270
     2
271
     4
272
     4
273
     2
274
     2
340
11
275
     0
280
     0
281
     0
282
     0
283
     1
284
     0
285
     0
286
     0
287
     3
288
     0
  0
ENDTAB
  0
TABLE
  2
BLOCK_RECORD
  5
1
330
0
100
AcDbSymbolTable
 70
     0
  0
BLOCK_RECORD
  5
1F
330
1
100
AcDbSymbolTableRecord
100
AcDbBlockTableRecord
  2
*MODEL_SPACE
  0
BLOCK_RECORD
  5
1B
330
1
100
AcDbSymbolTableRecord
100
AcDbBlockTableRecord
  2
*PAPER_SPACE
  0
ENDTAB
  0
ENDSEC
  0
SECTION
  2
BLOCKS
  0
BLOCK
  5
20
330
1F
100
AcDbEntity
  8
0
100
AcDbBlockBegin
  2
*MODEL_SPACE
 70
     0
 10
0.0
 20
0.0
 30
0.0
  3
*MODEL_SPACE
  1

  0
ENDBLK
  5
21
330
1F
100
AcDbEntity
  8
0
100
AcDbBlockEnd
  0
BLOCK
  5
1C
330
1B
100
AcDbEntity
 67
     1
  8
0
100
AcDbBlockBegin
  2
*PAPER_SPACE
 70
     0
 10
0.0
 20
0.0
 30
0.0
  3
*PAPER_SPACE
  1

  0
ENDBLK
  5
1D
330
1B
100
AcDbEntity
 67
     1
  8
0
100
AcDbBlockEnd
  0
ENDSEC
  0
SECTION
  2
ENTITIES
  0
POLYLINE
  5
60
330
1F
100
AcDbEntity
  8
1_ANYTOOL_1MMDEEP_LABELS_S
100
AcDb2dPolyline
 66
     1
 10
0.0
 20
0.0
 30
0.0
  0
VERTEX
  5
61
330
60
100
AcDbEntity
  8
1_ANYTOOL_1MMDEEP_LABELS_S
100
AcDbVertex
100
AcDb2dVertex
 10
21.94285714280704
 20
-30.00000000000728
 30
0.0
  0
VERTEX
  5
62
330
60
100
AcDbEntity
  8
1_ANYTOOL_1MMDEEP_LABELS_S
100
AcDbVertex
100
AcDb2dVertex
 10
2.999999999949068
 20
-30.00000000000728
 30
0.0
  0
VERTEX
  5
63
330
60
100
AcDbEntity
  8
1_ANYTOOL_1MMDEEP_LABELS_S
100
AcDbVertex
100
AcDb2dVertex
 10
2.999999999949068
 20
-0.000000000007276
 30
0.0
  0
VERTEX
  5
64
330
60
100
AcDbEntity
  8
1_ANYTOOL_1MMDEEP_LABELS_S
100
AcDbVertex
100
AcDb2dVertex
 10
20.82857142852117
 20
-0.000000000007276
 30
0.0
  0
SEQEND
  5
65
330
60
100
AcDbEntity
  8
1_ANYTOOL_1MMDEEP_LABELS_S
  0
LINE
  5
66
330
1F
100
AcDbEntity
  8
1_ANYTOOL_1MMDEEP_LABELS_S
100
AcDbLine
 10
17.65714285709146
 20
-13.92857142857974
 30
0.0
 11
2.999999999949068
 21
-13.92857142857974
 31
0.0
  0
LINE
  5
67
330
1F
100
AcDbEntity
  8
1_ANYTOOL_1MMDEEP_LABELS_S
100
AcDbLine
 10
34.15714285709146
 20
-16.11428571429133
 30
0.0
 11
25.37142857137769
 21
-16.20000000000437
 31
0.0
  0
POLYLINE
  5
68
330
1F
100
AcDbEntity
  8
1_ANYTOOL_1MMDEEP_LABELS_S
100
AcDb2dPolyline
 66
     1
 10
0.0
 20
0.0
 30
0.0
  0
VERTEX
  5
69
330
68
100
AcDbEntity
  8
1_ANYTOOL_1MMDEEP_LABELS_S
100
AcDbVertex
100
AcDb2dVertex
 10
56.3999999999487
 20
-4.585714285720314
 30
0.0
  0
VERTEX
  5
6A
330
68
100
AcDbEntity
  8
1_ANYTOOL_1MMDEEP_LABELS_S
100
AcDbVertex
100
AcDb2dVertex
 10
56.3967773436987
 20
-4.39758649554178
 30
0.0
  0
VERTEX
  5
6B
330
68
100
AcDbEntity
  8
1_ANYTOOL_1MMDEEP_LABELS_S
100
AcDbVertex
100
AcDb2dVertex
 10
56.39274902338621
 20
-4.305060686390012
 30
0.0
  0
VERTEX
  5
6C
330
68
100
AcDbEntity
  8
1_ANYTOOL_1MMDEEP_LABELS_S
100
AcDbVertex
100
AcDb2dVertex
 10
56.38710937494871
 20
-4.213560267863244
 30
0.0
  0
VERTEX
  5
6D
330
68
100
AcDbEntity
  8
1_ANYTOOL_1MMDEEP_LABELS_S
100
AcDbVertex
100
AcDb2dVertex
 10
56.3798583983862
 20
-4.123085239961474
 30
0.0
  0
VERTEX
  5
6E
330
68
100
AcDbEntity
  8
1_ANYTOOL_1MMDEEP_LABELS_S
100
AcDbVertex
100
AcDb2dVertex
 10
56.37099609369871
 20
-4.033635602684704
 30
0.0
  0
VERTEX
  5
6F
330
68
100
AcDbEntity
  8
1_ANYTOOL_1MMDEEP_LABELS_S
100
AcDbVertex
100
AcDb2dVertex
 10
56.36052246088622
 20
-3.945211356032933
 30
0.0
  0
VERTEX
  5
70
330
68
100
AcDbEntity
  8
1_ANYTOOL_1MMDEEP_LABELS_S
100
AcDbVertex
100
AcDb2dVertex
 10
56.34843749994872
 20
-3.857812500006162
 30
0.0
  0
VERTEX
  5
71
330
68
100
AcDbEntity
  8
1_ANYTOOL_1MMDEEP_LABELS_S
100
AcDbVertex
100
AcDb2dVertex
 10
56.33474121088622
 20
-3.77143903460439
 30
0.0
  0
VERTEX
  5
72
330
68
100
AcDbEntity
  8
1_ANYTOOL_1MMDEEP_LABELS_S
100
AcDbVertex
100
AcDb2dVertex
 10
56.31943359369872
 20
-3.686090959827617
 30
0.0
  0
VERTEX
  5
73
330
68
100
AcDbEntity
  8
1_ANYTOOL_1MMDEEP_LABELS_S
100
AcDbVertex
100
AcDb2dVertex
 10
56.30251464838622
 20
-3.601768275675843
 30
0.0
  0
VERTEX
  5
74
330
68
100
AcDbEntity
  8
1_ANYTOOL_1MMDEEP_LABELS_S
100
AcDbVertex
100
AcDb2dVertex
 10
56.28398437494873
 20
-3.518470982149069
 30
0.0
  0
VERTEX
  5
75
330
68
100
AcDbEntity
  8
1_ANYTOOL_1MMDEEP_LABELS_S
100
AcDbVertex
100
AcDb2dVertex
 10
56.26384277338624
 20
-3.436199079247293
 30
0.0
  0
VERTEX
  5
76
330
68
100
AcDbEntity
  8
1_ANYTOOL_1MMDEEP_LABELS_S
100
AcDbVertex
100
AcDb2dVertex
 10
56.24208984369874
 20
-3.354952566970518
 30
0.0
  0
VERTEX
  5
77
330
68
100
AcDbEntity
  8
1_ANYTOOL_1MMDEEP_LABELS_S
100
AcDbVertex
100
AcDb2dVertex
 10
56.21872558588625
 20
-3.274731445318741
 30
0.0
  0
VERTEX
  5
78
330
68
100
AcDbEntity
  8
1_ANYTOOL_1MMDEEP_LABELS_S
100
AcDbVertex
100
AcDb2dVertex
 10
56.19374999994875
 20
-3.195535714291964
 30
0.0
  0
VERTEX
  5
79
330
68
100
AcDbEntity
  8
1_ANYTOOL_1MMDEEP_LABELS_S
100
AcDbVertex
100
AcDb2dVertex
 10
56.16716308588626
 20
-3.117365373890186
 30
0.0
  0
VERTEX
  5
7A
330
68
100
AcDbEntity
  8
1_ANYTOOL_1MMDEEP_LABELS_S
100
AcDbVertex
100
AcDb2dVertex
 10
56.13896484369876
 20
-3.040220424113407
 30
0.0
  0
VERTEX
  5
7B
330
68
100
AcDbEntity
  8
1_ANYTOOL_1MMDEEP_LABELS_S
100
AcDbVertex
100
AcDb2dVertex
 10
56.10915527338627
 20
-2.964100864961628
 30
0.0
  0
VERTEX
  5
7C
330
68
100
AcDbEntity
  8
1_ANYTOOL_1MMDEEP_LABELS_S
100
AcDbVertex
100
AcDb2dVertex
 10
56.07773437494878
 20
-2.889006696434848
 30
0.0
  0
VERTEX
  5
7D
330
68
100
AcDbEntity
  8
1_ANYTOOL_1MMDEEP_LABELS_S
100
AcDbVertex
100
AcDb2dVertex
 10
56.04470214838628
 20
-2.814937918533067
 30
0.0
  0
VERTEX
  5
7E
330
68
100
AcDbEntity
  8
1_ANYTOOL_1MMDEEP_LABELS_S
100
AcDbVertex
100
AcDb2dVertex
 10
56.01005859369879
 20
-2.741894531256285
 30
0.0
  0
VERTEX
  5
7F
330
68
100
AcDbEntity
  8
1_ANYTOOL_1MMDEEP_LABELS_S
100
AcDbVertex
100
AcDb2dVertex
 10
55.9738037108863
 20
-2.669876534604503
 30
0.0
  0
VERTEX
  5
80
330
68
100
AcDbEntity
  8
1_ANYTOOL_1MMDEEP_LABELS_S
100
AcDbVertex
100
AcDb2dVertex
 10
55.93593749994881
 20
-2.59888392857772
 30
0.0
  0
VERTEX
  5
81
330
68
100
AcDbEntity
  8
1_ANYTOOL_1MMDEEP_LABELS_S
100
AcDbVertex
100
AcDb2dVertex
 10
55.89645996088632
 20
-2.528916713175937
 30
0.0
  0
VERTEX
  5
82
330
68
100
AcDbEntity
  8
1_ANYTOOL_1MMDEEP_LABELS_S
100
AcDbVertex
100
AcDb2dVertex
 10
55.85537109369882
 20
-2.459974888399152
 30
0.0
  0
VERTEX
  5
83
330
68
100
AcDbEntity
  8
1_ANYTOOL_1MMDEEP_LABELS_S
100
AcDbVertex
100
AcDb2dVertex
 10
55.81267089838633
 20
-2.392058454247367
 30
0.0
  0
VERTEX
  5
84
330
68
100
AcDbEntity
  8
1_ANYTOOL_1MMDEEP_LABELS_S
100
AcDbVertex
100
AcDb2dVertex
 10
55.76835937494884
 20
-2.325167410720582
 30
0.0
  0
VERTEX
  5
85
330
68
100
AcDbEntity
  8
1_ANYTOOL_1MMDEEP_LABELS_S
100
AcDbVertex
100
AcDb2dVertex
 10
55.72243652338636
 20
-2.259301757818795
 30
0.0
  0
VERTEX
  5
86
330
68
100
AcDbEntity
  8
1_ANYTOOL_1MMDEEP_LABELS_S
100
AcDbVertex
100
AcDb2dVertex
 10
55.67490234369886
 20
-2.194461495542008
 30
0.0
  0
VERTEX
  5
87
330
68
100
AcDbEntity
  8
1_ANYTOOL_1MMDEEP_LABELS_S
100
AcDbVertex
100
AcDb2dVertex
 10
55.62575683588638
 20
-2.13064662389022
 30
0.0
  0
VERTEX
  5
88
330
68
100
AcDbEntity
  8
1_ANYTOOL_1MMDEEP_LABELS_S
100
AcDbVertex
100
AcDb2dVertex
 10
55.57499999994889
 20
-2.067857142863431
 30
0.0
  0
VERTEX
  5
89
330
68
100
AcDbEntity
  8
1_ANYTOOL_1MMDEEP_LABELS_S
100
AcDbVertex
100
AcDb2dVertex
 10
55.5226318358864
 20
-2.006093052461642
 30
0.0
  0
VERTEX
  5
8A
330
68
100
AcDbEntity
  8
1_ANYTOOL_1MMDEEP_LABELS_S
100
AcDbVertex
100
AcDb2dVertex
 10
55.46865234369891
 20
-1.945354352684852
 30
0.0
  0
VERTEX
  5
8B
330
68
100
AcDbEntity
  8
1_ANYTOOL_1MMDEEP_LABELS_S
100
AcDbVertex
100
AcDb2dVertex
 10
55.41306152338642
 20
-1.885641043533061
 30
0.0
  0
VERTEX
  5
8C
330
68
100
AcDbEntity
  8
1_ANYTOOL_1MMDEEP_LABELS_S
100
AcDbVertex
100
AcDb2dVertex
 10
55.35585937494893
 20
-1.82695312500627
 30
0.0
  0
VERTEX
  5
8D
330
68
100
AcDbEntity
  8
1_ANYTOOL_1MMDEEP_LABELS_S
100
AcDbVertex
100
AcDb2dVertex
 10
55.29704589838644
 20
-1.769290597104478
 30
0.0
  0
VERTEX
  5
8E
330
68
100
AcDbEntity
  8
1_ANYTOOL_1MMDEEP_LABELS_S
100
AcDbVertex
100
AcDb2dVertex
 10
55.23662109369896
 20
-1.712653459827685
 30
0.0
  0
VERTEX
  5
8F
330
68
100
AcDbEntity
  8
1_ANYTOOL_1MMDEEP_LABELS_S
100
AcDbVertex
100
AcDb2dVertex
 10
55.17458496088648
 20
-1.657041713175891
 30
0.0
  0
VERTEX
  5
90
330
68
100
AcDbEntity
  8
1_ANYTOOL_1MMDEEP_LABELS_S
100
AcDbVertex
100
AcDb2dVertex
 10
55.11093749994899
 20
-1.602455357149097
 30
0.0
  0
VERTEX
  5
91
330
68
100
AcDbEntity
  8
1_ANYTOOL_1MMDEEP_LABELS_S
100
AcDbVertex
100
AcDb2dVertex
 10
55.04567871088651
 20
-1.548894391747302
 30
0.0
  0
VERTEX
  5
92
330
68
100
AcDbEntity
  8
1_ANYTOOL_1MMDEEP_LABELS_S
100
AcDbVertex
100
AcDb2dVertex
 10
54.97880859369901
 20
-1.496358816970506
 30
0.0
  0
VERTEX
  5
93
330
68
100
AcDbEntity
  8
1_ANYTOOL_1MMDEEP_LABELS_S
100
AcDbVertex
100
AcDb2dVertex
 10
54.91032714838653
 20
-1.44484863281871
 30
0.0
  0
VERTEX
  5
94
330
68
100
AcDbEntity
  8
1_ANYTOOL_1MMDEEP_LABELS_S
100
AcDbVertex
100
AcDb2dVertex
 10
54.84023437494905
 20
-1.394363839291913
 30
0.0
  0
VERTEX
  5
95
330
68
100
AcDbEntity
  8
1_ANYTOOL_1MMDEEP_LABELS_S
100
AcDbVertex
100
AcDb2dVertex
 10
54.76853027338657
 20
-1.344904436390115
 30
0.0
  0
VERTEX
  5
96
330
68
100
AcDbEntity
  8
1_ANYTOOL_1MMDEEP_LABELS_S
100
AcDbVertex
100
AcDb2dVertex
 10
54.69521484369908
 20
-1.296470424113316
 30
0.0
  0
VERTEX
  5
97
330
68
100
AcDbEntity
  8
1_ANYTOOL_1MMDEEP_LABELS_S
100
AcDbVertex
100
AcDb2dVertex
 10
54.6202880858866
 20
-1.249061802461517
 30
0.0
  0
VERTEX
  5
98
330
68
100
AcDbEntity
  8
1_ANYTOOL_1MMDEEP_LABELS_S
100
AcDbVertex
100
AcDb2dVertex
 10
54.54374999994911
 20
-1.202678571434717
 30
0.0
  0
VERTEX
  5
99
330
68
100
AcDbEntity
  8
1_ANYTOOL_1MMDEEP_LABELS_S
100
AcDbVertex
100
AcDb2dVertex
 10
54.46560058588663
 20
-1.157320731032916
 30
0.0
  0
VERTEX
  5
9A
330
68
100
AcDbEntity
  8
1_ANYTOOL_1MMDEEP_LABELS_S
100
AcDbVertex
100
AcDb2dVertex
 10
54.38583984369915
 20
-1.112988281256115
 30
0.0
  0
VERTEX
  5
9B
330
68
100
AcDbEntity
  8
1_ANYTOOL_1MMDEEP_LABELS_S
100
AcDbVertex
100
AcDb2dVertex
 10
54.30446777338667
 20
-1.069681222104313
 30
0.0
  0
VERTEX
  5
9C
330
68
100
AcDbEntity
  8
1_ANYTOOL_1MMDEEP_LABELS_S
100
AcDbVertex
100
AcDb2dVertex
 10
54.22148437494918
 20
-1.02739955357751
 30
0.0
  0
VERTEX
  5
9D
330
68
100
AcDbEntity
  8
1_ANYTOOL_1MMDEEP_LABELS_S
100
AcDbVertex
100
AcDb2dVertex
 10
54.05068359369922
 20
-0.9459123883989022
 30
0.0
  0
VERTEX
  5
9E
330
68
100
AcDbEntity
  8
1_ANYTOOL_1MMDEEP_LABELS_S
100
AcDbVertex
100
AcDb2dVertex
 10
53.87343749994926
 20
-0.8685267857202916
 30
0.0
  0
VERTEX
  5
9F
330
68
100
AcDbEntity
  8
1_ANYTOOL_1MMDEEP_LABELS_S
100
AcDbVertex
100
AcDb2dVertex
 10
53.6897460936993
 20
-0.7952427455416782
 30
0.0
  0
VERTEX
  5
A0
330
68
100
AcDbEntity
  8
1_ANYTOOL_1MMDEEP_LABELS_S
100
AcDbVertex
100
AcDb2dVertex
 10
53.49960937494934
 20
-0.7260602678630619
 30
0.0
  0
VERTEX
  5
A1
330
68
100
AcDbEntity
  8
1_ANYTOOL_1MMDEEP_LABELS_S
100
AcDbVertex
100
AcDb2dVertex
 10
53.30302734369938
 20
-0.6609793526844427
 30
0.0
  0
VERTEX
  5
A2
330
68
100
AcDbEntity
  8
1_ANYTOOL_1MMDEEP_LABELS_S
100
AcDbVertex
100
AcDb2dVertex
 10
53.09999999994943
 20
-0.6000000000058208
 30
0.0
  0
VERTEX
  5
A3
330
68
100
AcDbEntity
  8
1_ANYTOOL_1MMDEEP_LABELS_S
100
AcDbVertex
100
AcDb2dVertex
 10
52.29241071423516
 20
-0.379017857148483
 30
0.0
  0
VERTEX
  5
A4
330
68
100
AcDbEntity
  8
1_ANYTOOL_1MMDEEP_LABELS_S
100
AcDbVertex
100
AcDb2dVertex
 10
51.49821428566372
 20
-0.187500000005457
 30
0.0
  0
VERTEX
  5
A5
330
68
100
AcDbEntity
  8
1_ANYTOOL_1MMDEEP_LABELS_S
100
AcDbVertex
100
AcDb2dVertex
 10
50.71741071423511
 20
-0.0254464285767426
 30
0.0
  0
VERTEX
  5
A6
330
68
100
AcDbEntity
  8
1_ANYTOOL_1MMDEEP_LABELS_S
100
AcDbVertex
100
AcDb2dVertex
 10
49.94999999994934
 20
0.10714285713766
 30
0.0
  0
VERTEX
  5
A7
330
68
100
AcDbEntity
  8
1_ANYTOOL_1MMDEEP_LABELS_S
100
AcDbVertex
100
AcDb2dVertex
 10
49.57131696423502
 20
0.1623883928519945
 30
0.0
  0
VERTEX
  5
A8
330
68
100
AcDbEntity
  8
1_ANYTOOL_1MMDEEP_LABELS_S
100
AcDbVertex
100
AcDb2dVertex
 10
49.1959821428064
 20
0.210267857137751
 30
0.0
  0
VERTEX
  5
A9
330
68
100
AcDbEntity
  8
1_ANYTOOL_1MMDEEP_LABELS_S
100
AcDbVertex
100
AcDb2dVertex
 10
48.82399553566349
 20
0.2507812499949296
 30
0.0
  0
VERTEX
  5
AA
330
68
100
AcDbEntity
  8
1_ANYTOOL_1MMDEEP_LABELS_S
100
AcDbVertex
100
AcDb2dVertex
 10
48.45535714280629
 20
0.2839285714235302
 30
0.0
  0
VERTEX
  5
AB
330
68
100
AcDbEntity
  8
1_ANYTOOL_1MMDEEP_LABELS_S
100
AcDbVertex
100
AcDb2dVertex
 10
48.0900669642348
 20
0.309709821423553
 30
0.0
  0
VERTEX
  5
AC
330
68
100
AcDbEntity
  8
1_ANYTOOL_1MMDEEP_LABELS_S
100
AcDbVertex
100
AcDb2dVertex
 10
47.72812499994902
 20
0.3281249999949978
 30
0.0
  0
VERTEX
  5
AD
330
68
100
AcDbEntity
  8
1_ANYTOOL_1MMDEEP_LABELS_S
100
AcDbVertex
100
AcDb2dVertex
 10
47.36953124994894
 20
0.3391741071378647
 30
0.0
  0
VERTEX
  5
AE
330
68
100
AcDbEntity
  8
1_ANYTOOL_1MMDEEP_LABELS_S
100
AcDbVertex
100
AcDb2dVertex
 10
47.01428571423457
 20
0.3428571428521536
 30
0.0
  0
VERTEX
  5
AF
330
68
100
AcDbEntity
  8
1_ANYTOOL_1MMDEEP_LABELS_S
100
AcDbVertex
100
AcDb2dVertex
 10
46.81937779012743
 20
0.34105747767358
 30
0.0
  0
VERTEX
  5
B0
330
68
100
AcDbEntity
  8
1_ANYTOOL_1MMDEEP_LABELS_S
100
AcDbVertex
100
AcDb2dVertex
 10
46.62572544637744
 20
0.335658482137859
 30
0.0
  0
VERTEX
  5
B1
330
68
100
AcDbEntity
  8
1_ANYTOOL_1MMDEEP_LABELS_S
100
AcDbVertex
100
AcDb2dVertex
 10
46.43332868298458
 20
0.3266601562449907
 30
0.0
  0
VERTEX
  5
B2
330
68
100
AcDbEntity
  8
1_ANYTOOL_1MMDEEP_LABELS_S
100
AcDbVertex
100
AcDb2dVertex
 10
46.24218749994887
 20
0.314062499994975
 30
0.0
  0
VERTEX
  5
B3
330
68
100
AcDbEntity
  8
1_ANYTOOL_1MMDEEP_LABELS_S
100
AcDbVertex
100
AcDb2dVertex
 10
46.0523018972703
 20
0.2978655133878121
 30
0.0
  0
VERTEX
  5
B4
330
68
100
AcDbEntity
  8
1_ANYTOOL_1MMDEEP_LABELS_S
100
AcDbVertex
100
AcDb2dVertex
 10
45.86367187494887
 20
0.2780691964235018
 30
0.0
  0
VERTEX
  5
B5
330
68
100
AcDbEntity
  8
1_ANYTOOL_1MMDEEP_LABELS_S
100
AcDbVertex
100
AcDb2dVertex
 10
45.67629743298458
 20
0.2546735491020442
 30
0.0
  0
VERTEX
  5
B6
330
68
100
AcDbEntity
  8
1_ANYTOOL_1MMDEEP_LABELS_S
100
AcDbVertex
100
AcDb2dVertex
 10
45.49017857137744
 20
0.2276785714234393
 30
0.0
  0
VERTEX
  5
B7
330
68
100
AcDbEntity
  8
1_ANYTOOL_1MMDEEP_LABELS_S
100
AcDbVertex
100
AcDb2dVertex
 10
45.30531529012744
 20
0.197084263387687
 30
0.0
  0
VERTEX
  5
B8
330
68
100
AcDbEntity
  8
1_ANYTOOL_1MMDEEP_LABELS_S
100
AcDbVertex
100
AcDb2dVertex
 10
45.12170758923458
 20
0.1628906249947875
 30
0.0
  0
VERTEX
  5
B9
330
68
100
AcDbEntity
  8
1_ANYTOOL_1MMDEEP_LABELS_S
100
AcDbVertex
100
AcDb2dVertex
 10
44.93935546869886
 20
0.1250976562447406
 30
0.0
  0
VERTEX
  5
BA
330
68
100
AcDbEntity
  8
1_ANYTOOL_1MMDEEP_LABELS_S
100
AcDbVertex
100
AcDb2dVertex
 10
44.75825892852029
 20
0.0837053571375463
 30
0.0
  0
VERTEX
  5
BB
330
68
100
AcDbEntity
  8
1_ANYTOOL_1MMDEEP_LABELS_S
100
AcDbVertex
100
AcDb2dVertex
 10
44.57841796869886
 20
0.0387137276732048
 30
0.0
  0
VERTEX
  5
BC
330
68
100
AcDbEntity
  8
1_ANYTOOL_1MMDEEP_LABELS_S
100
AcDbVertex
100
AcDb2dVertex
 10
44.39983258923457
 20
-0.0098772321482841
 30
0.0
  0
VERTEX
  5
BD
330
68
100
AcDbEntity
  8
1_ANYTOOL_1MMDEEP_LABELS_S
100
AcDbVertex
100
AcDb2dVertex
 10
44.22250279012742
 20
-0.0620675223269203
 30
0.0
  0
VERTEX
  5
BE
330
68
100
AcDbEntity
  8
1_ANYTOOL_1MMDEEP_LABELS_S
100
AcDbVertex
100
AcDb2dVertex
 10
44.04642857137742
 20
-0.1178571428627038
 30
0.0
  0
VERTEX
  5
BF
330
68
100
AcDbEntity
  8
1_ANYTOOL_1MMDEEP_LABELS_S
100
AcDbVertex
100
AcDb2dVertex
 10
43.87160993298455
 20
-0.1772460937556346
 30
0.0
  0
VERTEX
  5
C0
330
68
100
AcDbEntity
  8
1_ANYTOOL_1MMDEEP_LABELS_S
100
AcDbVertex
100
AcDb2dVertex
 10
43.69804687494884
 20
-0.2402343750057128
 30
0.0
  0
VERTEX
  5
C1
330
68
100
AcDbEntity
  8
1_ANYTOOL_1MMDEEP_LABELS_S
100
AcDbVertex
100
AcDb2dVertex
 10
43.52573939727026
 20
-0.3068219866129382
 30
0.0
  0
VERTEX
  5
C2
330
68
100
AcDbEntity
  8
1_ANYTOOL_1MMDEEP_LABELS_S
100
AcDbVertex
100
AcDb2dVertex
 10
43.35468749994882
 20
-0.3770089285773111
 30
0.0
  0
VERTEX
  5
C3
330
68
100
AcDbEntity
  8
1_ANYTOOL_1MMDEEP_LABELS_S
100
AcDbVertex
100
AcDb2dVertex
 10
43.18489118298453
 20
-0.4507952008988312
 30
0.0
  0
VERTEX
  5
C4
330
68
100
AcDbEntity
  8
1_ANYTOOL_1MMDEEP_LABELS_S
100
AcDbVertex
100
AcDb2dVertex
 10
43.01635044637738
 20
-0.5281808035774986
 30
0.0
  0
VERTEX
  5
C5
330
68
100
AcDbEntity
  8
1_ANYTOOL_1MMDEEP_LABELS_S
100
AcDbVertex
100
AcDb2dVertex
 10
42.84906529012737
 20
-0.6091657366133134
 30
0.0
  0
VERTEX
  5
C6
330
68
100
AcDbEntity
  8
1_ANYTOOL_1MMDEEP_LABELS_S
100
AcDbVertex
100
AcDb2dVertex
 10
42.68303571423451
 20
-0.6937500000062755
 30
0.0
  0
VERTEX
  5
C7
330
68
100
AcDbEntity
  8
1_ANYTOOL_1MMDEEP_LABELS_S
100
AcDbVertex
100
AcDb2dVertex
 10
42.51826171869878
 20
-0.7819335937563849
 30
0.0
  0
VERTEX
  5
C8
330
68
100
AcDbEntity
  8
1_ANYTOOL_1MMDEEP_LABELS_S
100
AcDbVertex
100
AcDb2dVertex
 10
42.3547433035202
 20
-0.8737165178636417
 30
0.0
  0
VERTEX
  5
C9
330
68
100
AcDbEntity
  8
1_ANYTOOL_1MMDEEP_LABELS_S
100
AcDbVertex
100
AcDb2dVertex
 10
42.19248046869876
 20
-0.9690987723280458
 30
0.0
  0
VERTEX
  5
CA
330
68
100
AcDbEntity
  8
1_ANYTOOL_1MMDEEP_LABELS_S
100
AcDbVertex
100
AcDb2dVertex
 10
42.03147321423447
 20
-1.068080357149597
 30
0.0
  0
VERTEX
  5
CB
330
68
100
AcDbEntity
  8
1_ANYTOOL_1MMDEEP_LABELS_S
100
AcDbVertex
100
AcDb2dVertex
 10
41.87172154012731
 20
-1.170661272328296
 30
0.0
  0
VERTEX
  5
CC
330
68
100
AcDbEntity
  8
1_ANYTOOL_1MMDEEP_LABELS_S
100
AcDbVertex
100
AcDb2dVertex
 10
41.7132254463773
 20
-1.276841517864142
 30
0.0
  0
VERTEX
  5
CD
330
68
100
AcDbEntity
  8
1_ANYTOOL_1MMDEEP_LABELS_S
100
AcDbVertex
100
AcDb2dVertex
 10
41.55598493298443
 20
-1.386621093757135
 30
0.0
  0
VERTEX
  5
CE
330
68
100
AcDbEntity
  8
1_ANYTOOL_1MMDEEP_LABELS_S
100
AcDbVertex
100
AcDb2dVertex
 10
41.3999999999487
 20
-1.500000000007276
 30
0.0
  0
VERTEX
  5
CF
330
68
100
AcDbEntity
  8
1_ANYTOOL_1MMDEEP_LABELS_S
100
AcDbVertex
100
AcDb2dVertex
 10
41.24707031244869
 20
-1.614048549114592
 30
0.0
  0
VERTEX
  5
D0
330
68
100
AcDbEntity
  8
1_ANYTOOL_1MMDEEP_LABELS_S
100
AcDbVertex
100
AcDb2dVertex
 10
41.09899553566297
 20
-1.731194196436178
 30
0.0
  0
VERTEX
  5
D1
330
68
100
AcDbEntity
  8
1_ANYTOOL_1MMDEEP_LABELS_S
100
AcDbVertex
100
AcDb2dVertex
 10
40.95577566959152
 20
-1.851436941972032
 30
0.0
  0
VERTEX
  5
D2
330
68
100
AcDbEntity
  8
1_ANYTOOL_1MMDEEP_LABELS_S
100
AcDbVertex
100
AcDb2dVertex
 10
40.81741071423437
 20
-1.974776785722156
 30
0.0
  0
VERTEX
  5
D3
330
68
100
AcDbEntity
  8
1_ANYTOOL_1MMDEEP_LABELS_S
100
AcDbVertex
100
AcDb2dVertex
 10
40.6839006695915
 20
-2.101213727686549
 30
0.0
  0
VERTEX
  5
D4
330
68
100
AcDbEntity
  8
1_ANYTOOL_1MMDEEP_LABELS_S
100
AcDbVertex
100
AcDb2dVertex
 10
40.55524553566292
 20
-2.230747767865211
 30
0.0
  0
VERTEX
  5
D5
330
68
100
AcDbEntity
  8
1_ANYTOOL_1MMDEEP_LABELS_S
100
AcDbVertex
100
AcDb2dVertex
 10
40.43144531244862
 20
-2.363378906258141
 30
0.0
  0
VERTEX
  5
D6
330
68
100
AcDbEntity
  8
1_ANYTOOL_1MMDEEP_LABELS_S
100
AcDbVertex
100
AcDb2dVertex
 10
40.31249999994861
 20
-2.499107142865341
 30
0.0
  0
VERTEX
  5
D7
330
68
100
AcDbEntity
  8
1_ANYTOOL_1MMDEEP_LABELS_S
100
AcDbVertex
100
AcDb2dVertex
 10
40.19840959816289
 20
-2.63793247768681
 30
0.0
  0
VERTEX
  5
D8
330
68
100
AcDbEntity
  8
1_ANYTOOL_1MMDEEP_LABELS_S
100
AcDbVertex
100
AcDb2dVertex
 10
40.08917410709145
 20
-2.779854910722548
 30
0.0
  0
VERTEX
  5
D9
330
68
100
AcDbEntity
  8
1_ANYTOOL_1MMDEEP_LABELS_S
100
AcDbVertex
100
AcDb2dVertex
 10
39.9847935267343
 20
-2.924874441972555
 30
0.0
  0
VERTEX
  5
DA
330
68
100
AcDbEntity
  8
1_ANYTOOL_1MMDEEP_LABELS_S
100
AcDbVertex
100
AcDb2dVertex
 10
39.88526785709143
 20
-3.072991071436832
 30
0.0
  0
VERTEX
  5
DB
330
68
100
AcDbEntity
  8
1_ANYTOOL_1MMDEEP_LABELS_S
100
AcDbVertex
100
AcDb2dVertex
 10
39.79059709816286
 20
-3.224204799115377
 30
0.0
  0
VERTEX
  5
DC
330
68
100
AcDbEntity
  8
1_ANYTOOL_1MMDEEP_LABELS_S
100
AcDbVertex
100
AcDb2dVertex
 10
39.70078124994856
 20
-3.378515625008191
 30
0.0
  0
VERTEX
  5
DD
330
68
100
AcDbEntity
  8
1_ANYTOOL_1MMDEEP_LABELS_S
100
AcDbVertex
100
AcDb2dVertex
 10
39.61582031244856
 20
-3.535923549115275
 30
0.0
  0
VERTEX
  5
DE
330
68
100
AcDbEntity
  8
1_ANYTOOL_1MMDEEP_LABELS_S
100
AcDbVertex
100
AcDb2dVertex
 10
39.53571428566283
 20
-3.696428571436627
 30
0.0
  0
VERTEX
  5
DF
330
68
100
AcDbEntity
  8
1_ANYTOOL_1MMDEEP_LABELS_S
100
AcDbVertex
100
AcDb2dVertex
 10
39.4604631695914
 20
-3.860030691972248
 30
0.0
  0
VERTEX
  5
E0
330
68
100
AcDbEntity
  8
1_ANYTOOL_1MMDEEP_LABELS_S
100
AcDbVertex
100
AcDb2dVertex
 10
39.39006696423425
 20
-4.026729910722139
 30
0.0
  0
VERTEX
  5
E1
330
68
100
AcDbEntity
  8
1_ANYTOOL_1MMDEEP_LABELS_S
100
AcDbVertex
100
AcDb2dVertex
 10
39.32452566959139
 20
-4.196526227686299
 30
0.0
  0
VERTEX
  5
E2
330
68
100
AcDbEntity
  8
1_ANYTOOL_1MMDEEP_LABELS_S
100
AcDbVertex
100
AcDb2dVertex
 10
39.26383928566281
 20
-4.369419642864727
 30
0.0
  0
VERTEX
  5
E3
330
68
100
AcDbEntity
  8
1_ANYTOOL_1MMDEEP_LABELS_S
100
AcDbVertex
100
AcDb2dVertex
 10
39.20800781244852
 20
-4.545410156257425
 30
0.0
  0
VERTEX
  5
E4
330
68
100
AcDbEntity
  8
1_ANYTOOL_1MMDEEP_LABELS_S
100
AcDbVertex
100
AcDb2dVertex
 10
39.15703124994852
 20
-4.724497767864392
 30
0.0
  0
VERTEX
  5
E5
330
68
100
AcDbEntity
  8
1_ANYTOOL_1MMDEEP_LABELS_S
100
AcDbVertex
100
AcDb2dVertex
 10
39.1109095981628
 20
-4.906682477685628
 30
0.0
  0
VERTEX
  5
E6
330
68
100
AcDbEntity
  8
1_ANYTOOL_1MMDEEP_LABELS_S
100
AcDbVertex
100
AcDb2dVertex
 10
39.06964285709137
 20
-5.091964285721133
 30
0.0
  0
VERTEX
  5
E7
330
68
100
AcDbEntity
  8
1_ANYTOOL_1MMDEEP_LABELS_S
100
AcDbVertex
100
AcDb2dVertex
 10
39.03323102673422
 20
-5.280343191970907
 30
0.0
  0
VERTEX
  5
E8
330
68
100
AcDbEntity
  8
1_ANYTOOL_1MMDEEP_LABELS_S
100
AcDbVertex
100
AcDb2dVertex
 10
39.00167410709136
 20
-5.47181919643495
 30
0.0
  0
VERTEX
  5
E9
330
68
100
AcDbEntity
  8
1_ANYTOOL_1MMDEEP_LABELS_S
100
AcDbVertex
100
AcDb2dVertex
 10
38.97497209816279
 20
-5.666392299113262
 30
0.0
  0
VERTEX
  5
EA
330
68
100
AcDbEntity
  8
1_ANYTOOL_1MMDEEP_LABELS_S
100
AcDbVertex
100
AcDb2dVertex
 10
38.9531249999485
 20
-5.864062500005844
 30
0.0
  0
VERTEX
  5
EB
330
68
100
AcDbEntity
  8
1_ANYTOOL_1MMDEEP_LABELS_S
100
AcDbVertex
100
AcDb2dVertex
 10
38.9361328124485
 20
-6.064829799112694
 30
0.0
  0
VERTEX
  5
EC
330
68
100
AcDbEntity
  8
1_ANYTOOL_1MMDEEP_LABELS_S
100
AcDbVertex
100
AcDb2dVertex
 10
38.92399553566278
 20
-6.268694196433813
 30
0.0
  0
VERTEX
  5
ED
330
68
100
AcDbEntity
  8
1_ANYTOOL_1MMDEEP_LABELS_S
100
AcDbVertex
100
AcDb2dVertex
 10
38.91671316959135
 20
-6.475655691969202
 30
0.0
  0
VERTEX
  5
EE
330
68
100
AcDbEntity
  8
1_ANYTOOL_1MMDEEP_LABELS_S
100
AcDbVertex
100
AcDb2dVertex
 10
38.91428571423421
 20
-6.685714285718859
 30
0.0
  0
VERTEX
  5
EF
330
68
100
AcDbEntity
  8
1_ANYTOOL_1MMDEEP_LABELS_S
100
AcDbVertex
100
AcDb2dVertex
 10
38.91704799101993
 20
-6.900837053576026
 30
0.0
  0
VERTEX
  5
F0
330
68
100
AcDbEntity
  8
1_ANYTOOL_1MMDEEP_LABELS_S
100
AcDbVertex
100
AcDb2dVertex
 10
38.92533482137707
 20
-7.112276785718905
 30
0.0
  0
VERTEX
  5
F1
330
68
100
AcDbEntity
  8
1_ANYTOOL_1MMDEEP_LABELS_S
100
AcDbVertex
100
AcDb2dVertex
 10
38.93914620530565
 20
-7.320033482147494
 30
0.0
  0
VERTEX
  5
F2
330
68
100
AcDbEntity
  8
1_ANYTOOL_1MMDEEP_LABELS_S
100
AcDbVertex
100
AcDb2dVertex
 10
38.95848214280565
 20
-7.524107142861794
 30
0.0
  0
VERTEX
  5
F3
330
68
100
AcDbEntity
  8
1_ANYTOOL_1MMDEEP_LABELS_S
100
AcDbVertex
100
AcDb2dVertex
 10
38.98334263387709
 20
-7.724497767861806
 30
0.0
  0
VERTEX
  5
F4
330
68
100
AcDbEntity
  8
1_ANYTOOL_1MMDEEP_LABELS_S
100
AcDbVertex
100
AcDb2dVertex
 10
39.01372767851995
 20
-7.921205357147528
 30
0.0
  0
VERTEX
  5
F5
330
68
100
AcDbEntity
  8
1_ANYTOOL_1MMDEEP_LABELS_S
100
AcDbVertex
100
AcDb2dVertex
 10
39.04963727673425
 20
-8.114229910718961
 30
0.0
  0
VERTEX
  5
F6
330
68
100
AcDbEntity
  8
1_ANYTOOL_1MMDEEP_LABELS_S
100
AcDbVertex
100
AcDb2dVertex
 10
39.09107142851997
 20
-8.303571428576106
 30
0.0
  0
VERTEX
  5
F7
330
68
100
AcDbEntity
  8
1_ANYTOOL_1MMDEEP_LABELS_S
100
AcDbVertex
100
AcDb2dVertex
 10
39.13803013387712
 20
-8.489229910718961
 30
0.0
  0
VERTEX
  5
F8
330
68
100
AcDbEntity
  8
1_ANYTOOL_1MMDEEP_LABELS_S
100
AcDbVertex
100
AcDb2dVertex
 10
39.19051339280571
 20
-8.671205357147528
 30
0.0
  0
VERTEX
  5
F9
330
68
100
AcDbEntity
  8
1_ANYTOOL_1MMDEEP_LABELS_S
100
AcDbVertex
100
AcDb2dVertex
 10
39.24852120530572
 20
-8.849497767861806
 30
0.0
  0
VERTEX
  5
FA
330
68
100
AcDbEntity
  8
1_ANYTOOL_1MMDEEP_LABELS_S
100
AcDbVertex
100
AcDb2dVertex
 10
39.31205357137716
 20
-9.024107142861794
 30
0.0
  0
VERTEX
  5
FB
330
68
100
AcDbEntity
  8
1_ANYTOOL_1MMDEEP_LABELS_S
100
AcDbVertex
100
AcDb2dVertex
 10
39.34589146200217
 20
-9.11003069196893
 30
0.0
  0
VERTEX
  5
FC
330
68
100
AcDbEntity
  8
1_ANYTOOL_1MMDEEP_LABELS_S
100
AcDbVertex
100
AcDb2dVertex
 10
39.38111049102004
 20
-9.195033482147494
 30
0.0
  0
VERTEX
  5
FD
330
68
100
AcDbEntity
  8
1_ANYTOOL_1MMDEEP_LABELS_S
100
AcDbVertex
100
AcDb2dVertex
 10
39.41771065843076
 20
-9.279115513397485
 30
0.0
  0
VERTEX
  5
FE
330
68
100
AcDbEntity
  8
1_ANYTOOL_1MMDEEP_LABELS_S
100
AcDbVertex
100
AcDb2dVertex
 10
39.45569196423434
 20
-9.362276785718905
 30
0.0
  0
VERTEX
  5
FF
330
68
100
AcDbEntity
  8
1_ANYTOOL_1MMDEEP_LABELS_S
100
AcDbVertex
100
AcDb2dVertex
 10
39.49505440843078
 20
-9.444517299111752
 30
0.0
  0
VERTEX
  5
100
330
68
100
AcDbEntity
  8
1_ANYTOOL_1MMDEEP_LABELS_S
100
AcDbVertex
100
AcDb2dVertex
 10
39.53579799102008
 20
-9.525837053576026
 30
0.0
  0
VERTEX
  5
101
330
68
100
AcDbEntity
  8
1_ANYTOOL_1MMDEEP_LABELS_S
100
AcDbVertex
100
AcDb2dVertex
 10
39.57792271200223
 20
-9.606236049111729
 30
0.0
  0
VERTEX
  5
102
330
68
100
AcDbEntity
  8
1_ANYTOOL_1MMDEEP_LABELS_S
100
AcDbVertex
100
AcDb2dVertex
 10
39.62142857137724
 20
-9.68571428571886
 30
0.0
  0
VERTEX
  5
103
330
68
100
AcDbEntity
  8
1_ANYTOOL_1MMDEEP_LABELS_S
100
AcDbVertex
100
AcDb2dVertex
 10
39.66631556914511
 20
-9.764271763397417
 30
0.0
  0
VERTEX
  5
104
330
68
100
AcDbEntity
  8
1_ANYTOOL_1MMDEEP_LABELS_S
100
AcDbVertex
100
AcDb2dVertex
 10
39.71258370530583
 20
-9.841908482147403
 30
0.0
  0
VERTEX
  5
105
330
68
100
AcDbEntity
  8
1_ANYTOOL_1MMDEEP_LABELS_S
100
AcDbVertex
100
AcDb2dVertex
 10
39.76023297985942
 20
-9.918624441968817
 30
0.0
  0
VERTEX
  5
106
330
68
100
AcDbEntity
  8
1_ANYTOOL_1MMDEEP_LABELS_S
100
AcDbVertex
100
AcDb2dVertex
 10
39.80926339280585
 20
-9.994419642861658
 30
0.0
  0
VERTEX
  5
107
330
68
100
AcDbEntity
  8
1_ANYTOOL_1MMDEEP_LABELS_S
100
AcDbVertex
100
AcDb2dVertex
 10
39.85967494414515
 20
-10.06929408482593
 30
0.0
  0
VERTEX
  5
108
330
68
100
AcDbEntity
  8
1_ANYTOOL_1MMDEEP_LABELS_S
100
AcDbVertex
100
AcDb2dVertex
 10
39.91146763387731
 20
-10.14324776786162
 30
0.0
  0
VERTEX
  5
109
330
68
100
AcDbEntity
  8
1_ANYTOOL_1MMDEEP_LABELS_S
100
AcDbVertex
100
AcDb2dVertex
 10
39.96464146200232
 20
-10.21628069196875
 30
0.0
  0
VERTEX
  5
10A
330
68
100
AcDbEntity
  8
1_ANYTOOL_1MMDEEP_LABELS_S
100
AcDbVertex
100
AcDb2dVertex
 10
40.01919642852019
 20
-10.2883928571473
 30
0.0
  0
VERTEX
  5
10B
330
68
100
AcDbEntity
  8
1_ANYTOOL_1MMDEEP_LABELS_S
100
AcDbVertex
100
AcDb2dVertex
 10
40.07513253343092
 20
-10.35958426339728
 30
0.0
  0
VERTEX
  5
10C
330
68
100
AcDbEntity
  8
1_ANYTOOL_1MMDEEP_LABELS_S
100
AcDbVertex
100
AcDb2dVertex
 10
40.1324497767345
 20
-10.42985491071869
 30
0.0
  0
VERTEX
  5
10D
330
68
100
AcDbEntity
  8
1_ANYTOOL_1MMDEEP_LABELS_S
100
AcDbVertex
100
AcDb2dVertex
 10
40.19114815843095
 20
-10.49920479911152
 30
0.0
  0
VERTEX
  5
10E
330
68
100
AcDbEntity
  8
1_ANYTOOL_1MMDEEP_LABELS_S
100
AcDbVertex
100
AcDb2dVertex
 10
40.25122767852024
 20
-10.56763392857579
 30
0.0
  0
VERTEX
  5
10F
330
68
100
AcDbEntity
  8
1_ANYTOOL_1MMDEEP_LABELS_S
100
AcDbVertex
100
AcDb2dVertex
 10
40.3126883370024
 20
-10.63514229911148
 30
0.0
  0
VERTEX
  5
110
330
68
100
AcDbEntity
  8
1_ANYTOOL_1MMDEEP_LABELS_S
100
AcDbVertex
100
AcDb2dVertex
 10
40.37553013387742
 20
-10.7017299107186
 30
0.0
  0
VERTEX
  5
111
330
68
100
AcDbEntity
  8
1_ANYTOOL_1MMDEEP_LABELS_S
100
AcDbVertex
100
AcDb2dVertex
 10
40.43975306914529
 20
-10.76739676339714
 30
0.0
  0
VERTEX
  5
112
330
68
100
AcDbEntity
  8
1_ANYTOOL_1MMDEEP_LABELS_S
100
AcDbVertex
100
AcDb2dVertex
 10
40.50535714280602
 20
-10.83214285714712
 30
0.0
  0
VERTEX
  5
113
330
68
100
AcDbEntity
  8
1_ANYTOOL_1MMDEEP_LABELS_S
100
AcDbVertex
100
AcDb2dVertex
 10
40.64070870530605
 20
-10.95887276786135
 30
0.0
  0
VERTEX
  5
114
330
68
100
AcDbEntity
  8
1_ANYTOOL_1MMDEEP_LABELS_S
100
AcDbVertex
100
AcDb2dVertex
 10
40.78158482137751
 20
-11.08191964286129
 30
0.0
  0
VERTEX
  5
115
330
68
100
AcDbEntity
  8
1_ANYTOOL_1MMDEEP_LABELS_S
100
AcDbVertex
100
AcDb2dVertex
 10
40.92798549102041
 20
-11.20128348214695
 30
0.0
  0
VERTEX
  5
116
330
68
100
AcDbEntity
  8
1_ANYTOOL_1MMDEEP_LABELS_S
100
AcDbVertex
100
AcDb2dVertex
 10
41.07991071423473
 20
-11.31696428571831
 30
0.0
  0
VERTEX
  5
117
330
68
100
AcDbEntity
  8
1_ANYTOOL_1MMDEEP_LABELS_S
100
AcDbVertex
100
AcDb2dVertex
 10
41.23736049102048
 20
-11.42896205357539
 30
0.0
  0
VERTEX
  5
118
330
68
100
AcDbEntity
  8
1_ANYTOOL_1MMDEEP_LABELS_S
100
AcDbVertex
100
AcDb2dVertex
 10
41.40033482137766
 20
-11.53727678571818
 30
0.0
  0
VERTEX
  5
119
330
68
100
AcDbEntity
  8
1_ANYTOOL_1MMDEEP_LABELS_S
100
AcDbVertex
100
AcDb2dVertex
 10
41.56883370530628
 20
-11.64190848214668
 30
0.0
  0
VERTEX
  5
11A
330
68
100
AcDbEntity
  8
1_ANYTOOL_1MMDEEP_LABELS_S
100
AcDbVertex
100
AcDb2dVertex
 10
41.74285714280632
 20
-11.74285714286088
 30
0.0
  0
VERTEX
  5
11B
330
68
100
AcDbEntity
  8
1_ANYTOOL_1MMDEEP_LABELS_S
100
AcDbVertex
100
AcDb2dVertex
 10
42.45803571423502
 20
-12.13392857143367
 30
0.0
  0
VERTEX
  5
11C
330
68
100
AcDbEntity
  8
1_ANYTOOL_1MMDEEP_LABELS_S
100
AcDbVertex
100
AcDb2dVertex
 10
43.1892857142351
 20
-12.51428571429187
 30
0.0
  0
VERTEX
  5
11D
330
68
100
AcDbEntity
  8
1_ANYTOOL_1MMDEEP_LABELS_S
100
AcDbVertex
100
AcDb2dVertex
 10
43.93660714280654
 20
-12.88392857143549
 30
0.0
  0
VERTEX
  5
11E
330
68
100
AcDbEntity
  8
1_ANYTOOL_1MMDEEP_LABELS_S
100
AcDbVertex
100
AcDb2dVertex
 10
44.69999999994934
 20
-13.24285714286452
 30
0.0
  0
VERTEX
  5
11F
330
68
100
AcDbEntity
  8
1_ANYTOOL_1MMDEEP_LABELS_S
100
AcDbVertex
100
AcDb2dVertex
 10
45.47946428566351
 20
-13.59107142857897
 30
0.0
  0
VERTEX
  5
120
330
68
100
AcDbEntity
  8
1_ANYTOOL_1MMDEEP_LABELS_S
100
AcDbVertex
100
AcDb2dVertex
 10
46.27499999994905
 20
-13.92857142857883
 30
0.0
  0
VERTEX
  5
121
330
68
100
AcDbEntity
  8
1_ANYTOOL_1MMDEEP_LABELS_S
100
AcDbVertex
100
AcDb2dVertex
 10
47.08660714280595
 20
-14.25535714286411
 30
0.0
  0
VERTEX
  5
122
330
68
100
AcDbEntity
  8
1_ANYTOOL_1MMDEEP_LABELS_S
100
AcDbVertex
100
AcDb2dVertex
 10
47.91428571423421
 20
-14.57142857143481
 30
0.0
  0
VERTEX
  5
123
330
68
100
AcDbEntity
  8
1_ANYTOOL_1MMDEEP_LABELS_S
100
AcDbVertex
100
AcDb2dVertex
 10
48.73995535709147
 20
-14.8794642857215
 30
0.0
  0
VERTEX
  5
124
330
68
100
AcDbEntity
  8
1_ANYTOOL_1MMDEEP_LABELS_S
100
AcDbVertex
100
AcDb2dVertex
 10
49.54553571423446
 20
-15.20357142857938
 30
0.0
  0
VERTEX
  5
125
330
68
100
AcDbEntity
  8
1_ANYTOOL_1MMDEEP_LABELS_S
100
AcDbVertex
100
AcDb2dVertex
 10
50.33102678566317
 20
-15.54375000000846
 30
0.0
  0
VERTEX
  5
126
330
68
100
AcDbEntity
  8
1_ANYTOOL_1MMDEEP_LABELS_S
100
AcDbVertex
100
AcDb2dVertex
 10
51.0964285713776
 20
-15.90000000000873
 30
0.0
  0
VERTEX
  5
127
330
68
100
AcDbEntity
  8
1_ANYTOOL_1MMDEEP_LABELS_S
100
AcDbVertex
100
AcDb2dVertex
 10
51.84174107137775
 20
-16.2723214285802
 30
0.0
  0
VERTEX
  5
128
330
68
100
AcDbEntity
  8
1_ANYTOOL_1MMDEEP_LABELS_S
100
AcDbVertex
100
AcDb2dVertex
 10
52.56696428566363
 20
-16.66071428572286
 30
0.0
  0
VERTEX
  5
129
330
68
100
AcDbEntity
  8
1_ANYTOOL_1MMDEEP_LABELS_S
100
AcDbVertex
100
AcDb2dVertex
 10
53.27209821423523
 20
-17.06517857143672
 30
0.0
  0
VERTEX
  5
12A
330
68
100
AcDbEntity
  8
1_ANYTOOL_1MMDEEP_LABELS_S
100
AcDbVertex
100
AcDb2dVertex
 10
53.95714285709255
 20
-17.48571428572177
 30
0.0
  0
VERTEX
  5
12B
330
68
100
AcDbEntity
  8
1_ANYTOOL_1MMDEEP_LABELS_S
100
AcDbVertex
100
AcDb2dVertex
 10
54.12296316959248
 20
-17.5948242187573
 30
0.0
  0
VERTEX
  5
12C
330
68
100
AcDbEntity
  8
1_ANYTOOL_1MMDEEP_LABELS_S
100
AcDbVertex
100
AcDb2dVertex
 10
54.28292410709242
 20
-17.70786830357855
 30
0.0
  0
VERTEX
  5
12D
330
68
100
AcDbEntity
  8
1_ANYTOOL_1MMDEEP_LABELS_S
100
AcDbVertex
100
AcDb2dVertex
 10
54.43702566959236
 20
-17.82484654018553
 30
0.0
  0
VERTEX
  5
12E
330
68
100
AcDbEntity
  8
1_ANYTOOL_1MMDEEP_LABELS_S
100
AcDbVertex
100
AcDb2dVertex
 10
54.51187918521733
 20
-17.88481096540867
 30
0.0
  0
VERTEX
  5
12F
330
68
100
AcDbEntity
  8
1_ANYTOOL_1MMDEEP_LABELS_S
100
AcDbVertex
100
AcDb2dVertex
 10
54.5852678570923
 20
-17.94575892857824
 30
0.0
  0
VERTEX
  5
130
330
68
100
AcDbEntity
  8
1_ANYTOOL_1MMDEEP_LABELS_S
100
AcDbVertex
100
AcDb2dVertex
 10
54.65719168521728
 20
-18.00769042969425
 30
0.0
  0
VERTEX
  5
131
330
68
100
AcDbEntity
  8
1_ANYTOOL_1MMDEEP_LABELS_S
100
AcDbVertex
100
AcDb2dVertex
 10
54.72765066959225
 20
-18.07060546875668
 30
0.0
  0
VERTEX
  5
132
330
68
100
AcDbEntity
  8
1_ANYTOOL_1MMDEEP_LABELS_S
100
AcDbVertex
100
AcDb2dVertex
 10
54.79664481021723
 20
-18.13450404576555
 30
0.0
  0
VERTEX
  5
133
330
68
100
AcDbEntity
  8
1_ANYTOOL_1MMDEEP_LABELS_S
100
AcDbVertex
100
AcDb2dVertex
 10
54.8641741070922
 20
-18.19938616072085
 30
0.0
  0
VERTEX
  5
134
330
68
100
AcDbEntity
  8
1_ANYTOOL_1MMDEEP_LABELS_S
100
AcDbVertex
100
AcDb2dVertex
 10
54.93023856021718
 20
-18.26525181362258
 30
0.0
  0
VERTEX
  5
135
330
68
100
AcDbEntity
  8
1_ANYTOOL_1MMDEEP_LABELS_S
100
AcDbVertex
100
AcDb2dVertex
 10
54.99483816959216
 20
-18.33210100447074
 30
0.0
  0
VERTEX
  5
136
330
68
100
AcDbEntity
  8
1_ANYTOOL_1MMDEEP_LABELS_S
100
AcDbVertex
100
AcDb2dVertex
 10
55.05797293521714
 20
-18.39993373326534
 30
0.0
  0
VERTEX
  5
137
330
68
100
AcDbEntity
  8
1_ANYTOOL_1MMDEEP_LABELS_S
100
AcDbVertex
100
AcDb2dVertex
 10
55.11964285709212
 20
-18.46875000000637
 30
0.0
  0
VERTEX
  5
138
330
68
100
AcDbEntity
  8
1_ANYTOOL_1MMDEEP_LABELS_S
100
AcDbVertex
100
AcDb2dVertex
 10
55.1798479352171
 20
-18.53854980469383
 30
0.0
  0
VERTEX
  5
139
330
68
100
AcDbEntity
  8
1_ANYTOOL_1MMDEEP_LABELS_S
100
AcDbVertex
100
AcDb2dVertex
 10
55.23858816959208
 20
-18.60933314732772
 30
0.0
  0
VERTEX
  5
13A
330
68
100
AcDbEntity
  8
1_ANYTOOL_1MMDEEP_LABELS_S
100
AcDbVertex
100
AcDb2dVertex
 10
55.29586356021706
 20
-18.68110002790804
 30
0.0
  0
VERTEX
  5
13B
330
68
100
AcDbEntity
  8
1_ANYTOOL_1MMDEEP_LABELS_S
100
AcDbVertex
100
AcDb2dVertex
 10
55.35167410709204
 20
-18.7538504464348
 30
0.0
  0
VERTEX
  5
13C
330
68
100
AcDbEntity
  8
1_ANYTOOL_1MMDEEP_LABELS_S
100
AcDbVertex
100
AcDb2dVertex
 10
55.40601981021703
 20
-18.82758440290798
 30
0.0
  0
VERTEX
  5
13D
330
68
100
AcDbEntity
  8
1_ANYTOOL_1MMDEEP_LABELS_S
100
AcDbVertex
100
AcDb2dVertex
 10
55.45890066959201
 20
-18.9023018973276
 30
0.0
  0
VERTEX
  5
13E
330
68
100
AcDbEntity
  8
1_ANYTOOL_1MMDEEP_LABELS_S
100
AcDbVertex
100
AcDb2dVertex
 10
55.510316685217
 20
-18.97800292969366
 30
0.0
  0
VERTEX
  5
13F
330
68
100
AcDbEntity
  8
1_ANYTOOL_1MMDEEP_LABELS_S
100
AcDbVertex
100
AcDb2dVertex
 10
55.56026785709199
 20
-19.05468750000614
 30
0.0
  0
VERTEX
  5
140
330
68
100
AcDbEntity
  8
1_ANYTOOL_1MMDEEP_LABELS_S
100
AcDbVertex
100
AcDb2dVertex
 10
55.60875418521697
 20
-19.13235560826505
 30
0.0
  0
VERTEX
  5
141
330
68
100
AcDbEntity
  8
1_ANYTOOL_1MMDEEP_LABELS_S
100
AcDbVertex
100
AcDb2dVertex
 10
55.65577566959196
 20
-19.2110072544704
 30
0.0
  0
VERTEX
  5
142
330
68
100
AcDbEntity
  8
1_ANYTOOL_1MMDEEP_LABELS_S
100
AcDbVertex
100
AcDb2dVertex
 10
55.70133231021696
 20
-19.29064243862218
 30
0.0
  0
VERTEX
  5
143
330
68
100
AcDbEntity
  8
1_ANYTOOL_1MMDEEP_LABELS_S
100
AcDbVertex
100
AcDb2dVertex
 10
55.74542410709194
 20
-19.37126116072039
 30
0.0
  0
VERTEX
  5
144
330
68
100
AcDbEntity
  8
1_ANYTOOL_1MMDEEP_LABELS_S
100
AcDbVertex
100
AcDb2dVertex
 10
55.78805106021693
 20
-19.45286342076504
 30
0.0
  0
VERTEX
  5
145
330
68
100
AcDbEntity
  8
1_ANYTOOL_1MMDEEP_LABELS_S
100
AcDbVertex
100
AcDb2dVertex
 10
55.82921316959192
 20
-19.53544921875611
 30
0.0
  0
VERTEX
  5
146
330
68
100
AcDbEntity
  8
1_ANYTOOL_1MMDEEP_LABELS_S
100
AcDbVertex
100
AcDb2dVertex
 10
55.86891043521692
 20
-19.61901855469362
 30
0.0
  0
VERTEX
  5
147
330
68
100
AcDbEntity
  8
1_ANYTOOL_1MMDEEP_LABELS_S
100
AcDbVertex
100
AcDb2dVertex
 10
55.90714285709191
 20
-19.70357142857756
 30
0.0
  0
VERTEX
  5
148
330
68
100
AcDbEntity
  8
1_ANYTOOL_1MMDEEP_LABELS_S
100
AcDbVertex
100
AcDb2dVertex
 10
55.94391043521691
 20
-19.78910784040793
 30
0.0
  0
VERTEX
  5
149
330
68
100
AcDbEntity
  8
1_ANYTOOL_1MMDEEP_LABELS_S
100
AcDbVertex
100
AcDb2dVertex
 10
55.9792131695919
 20
-19.87562779018474
 30
0.0
  0
VERTEX
  5
14A
330
68
100
AcDbEntity
  8
1_ANYTOOL_1MMDEEP_LABELS_S
100
AcDbVertex
100
AcDb2dVertex
 10
56.0130510602169
 20
-19.96313127790797
 30
0.0
  0
VERTEX
  5
14B
330
68
100
AcDbEntity
  8
1_ANYTOOL_1MMDEEP_LABELS_S
100
AcDbVertex
100
AcDb2dVertex
 10
56.0454241070919
 20
-20.05161830357764
 30
0.0
  0
VERTEX
  5
14C
330
68
100
AcDbEntity
  8
1_ANYTOOL_1MMDEEP_LABELS_S
100
AcDbVertex
100
AcDb2dVertex
 10
56.0763323102169
 20
-20.14108886719374
 30
0.0
  0
VERTEX
  5
14D
330
68
100
AcDbEntity
  8
1_ANYTOOL_1MMDEEP_LABELS_S
100
AcDbVertex
100
AcDb2dVertex
 10
56.10577566959189
 20
-20.23154296875627
 30
0.0
  0
VERTEX
  5
14E
330
68
100
AcDbEntity
  8
1_ANYTOOL_1MMDEEP_LABELS_S
100
AcDbVertex
100
AcDb2dVertex
 10
56.13375418521689
 20
-20.32298060826524
 30
0.0
  0
VERTEX
  5
14F
330
68
100
AcDbEntity
  8
1_ANYTOOL_1MMDEEP_LABELS_S
100
AcDbVertex
100
AcDb2dVertex
 10
56.1602678570919
 20
-20.41540178572063
 30
0.0
  0
VERTEX
  5
150
330
68
100
AcDbEntity
  8
1_ANYTOOL_1MMDEEP_LABELS_S
100
AcDbVertex
100
AcDb2dVertex
 10
56.2089006695919
 20
-20.60319475447072
 30
0.0
  0
VERTEX
  5
151
330
68
100
AcDbEntity
  8
1_ANYTOOL_1MMDEEP_LABELS_S
100
AcDbVertex
100
AcDb2dVertex
 10
56.25167410709191
 20
-20.79492187500654
 30
0.0
  0
VERTEX
  5
152
330
68
100
AcDbEntity
  8
1_ANYTOOL_1MMDEEP_LABELS_S
100
AcDbVertex
100
AcDb2dVertex
 10
56.28858816959192
 20
-20.99058314732808
 30
0.0
  0
VERTEX
  5
153
330
68
100
AcDbEntity
  8
1_ANYTOOL_1MMDEEP_LABELS_S
100
AcDbVertex
100
AcDb2dVertex
 10
56.31964285709194
 20
-21.19017857143535
 30
0.0
  0
VERTEX
  5
154
330
68
100
AcDbEntity
  8
1_ANYTOOL_1MMDEEP_LABELS_S
100
AcDbVertex
100
AcDb2dVertex
 10
56.34483816959195
 20
-21.39370814732835
 30
0.0
  0
VERTEX
  5
155
330
68
100
AcDbEntity
  8
1_ANYTOOL_1MMDEEP_LABELS_S
100
AcDbVertex
100
AcDb2dVertex
 10
56.36417410709198
 20
-21.60117187500708
 30
0.0
  0
VERTEX
  5
156
330
68
100
AcDbEntity
  8
1_ANYTOOL_1MMDEEP_LABELS_S
100
AcDbVertex
100
AcDb2dVertex
 10
56.377650669592
 20
-21.81256975447154
 30
0.0
  0
VERTEX
  5
157
330
68
100
AcDbEntity
  8
1_ANYTOOL_1MMDEEP_LABELS_S
100
AcDbVertex
100
AcDb2dVertex
 10
56.38526785709203
 20
-22.02790178572172
 30
0.0
  0
VERTEX
  5
158
330
68
100
AcDbEntity
  8
1_ANYTOOL_1MMDEEP_LABELS_S
100
AcDbVertex
100
AcDb2dVertex
 10
56.38702566959206
 20
-22.24716796875764
 30
0.0
  0
VERTEX
  5
159
330
68
100
AcDbEntity
  8
1_ANYTOOL_1MMDEEP_LABELS_S
100
AcDbVertex
100
AcDb2dVertex
 10
56.3829241070921
 20
-22.47036830357928
 30
0.0
  0
VERTEX
  5
15A
330
68
100
AcDbEntity
  8
1_ANYTOOL_1MMDEEP_LABELS_S
100
AcDbVertex
100
AcDb2dVertex
 10
56.37296316959214
 20
-22.69750279018665
 30
0.0
  0
VERTEX
  5
15B
330
68
100
AcDbEntity
  8
1_ANYTOOL_1MMDEEP_LABELS_S
100
AcDbVertex
100
AcDb2dVertex
 10
56.35714285709219
 20
-22.92857142857974
 30
0.0
  0
VERTEX
  5
15C
330
68
100
AcDbEntity
  8
1_ANYTOOL_1MMDEEP_LABELS_S
100
AcDbVertex
100
AcDb2dVertex
 10
56.33588169637783
 20
-23.15976562500811
 30
0.0
  0
VERTEX
  5
15D
330
68
100
AcDbEntity
  8
1_ANYTOOL_1MMDEEP_LABELS_S
100
AcDbVertex
100
AcDb2dVertex
 10
56.30959821423491
 20
-23.38727678572221
 30
0.0
  0
VERTEX
  5
15E
330
68
100
AcDbEntity
  8
1_ANYTOOL_1MMDEEP_LABELS_S
100
AcDbVertex
100
AcDb2dVertex
 10
56.27829241066342
 20
-23.61110491072203
 30
0.0
  0
VERTEX
  5
15F
330
68
100
AcDbEntity
  8
1_ANYTOOL_1MMDEEP_LABELS_S
100
AcDbVertex
100
AcDb2dVertex
 10
56.24196428566336
 20
-23.83125000000757
 30
0.0
  0
VERTEX
  5
160
330
68
100
AcDbEntity
  8
1_ANYTOOL_1MMDEEP_LABELS_S
100
AcDbVertex
100
AcDb2dVertex
 10
56.20061383923473
 20
-24.04771205357884
 30
0.0
  0
VERTEX
  5
161
330
68
100
AcDbEntity
  8
1_ANYTOOL_1MMDEEP_LABELS_S
100
AcDbVertex
100
AcDb2dVertex
 10
56.15424107137753
 20
-24.26049107143584
 30
0.0
  0
VERTEX
  5
162
330
68
100
AcDbEntity
  8
1_ANYTOOL_1MMDEEP_LABELS_S
100
AcDbVertex
100
AcDb2dVertex
 10
56.10284598209176
 20
-24.46958705357856
 30
0.0
  0
VERTEX
  5
163
330
68
100
AcDbEntity
  8
1_ANYTOOL_1MMDEEP_LABELS_S
100
AcDbVertex
100
AcDb2dVertex
 10
56.04642857137742
 20
-24.675000000007
 30
0.0
  0
VERTEX
  5
164
330
68
100
AcDbEntity
  8
1_ANYTOOL_1MMDEEP_LABELS_S
100
AcDbVertex
100
AcDb2dVertex
 10
55.98498883923451
 20
-24.87672991072117
 30
0.0
  0
VERTEX
  5
165
330
68
100
AcDbEntity
  8
1_ANYTOOL_1MMDEEP_LABELS_S
100
AcDbVertex
100
AcDb2dVertex
 10
55.91852678566303
 20
-25.07477678572107
 30
0.0
  0
VERTEX
  5
166
330
68
100
AcDbEntity
  8
1_ANYTOOL_1MMDEEP_LABELS_S
100
AcDbVertex
100
AcDb2dVertex
 10
55.84704241066299
 20
-25.26914062500669
 30
0.0
  0
VERTEX
  5
167
330
68
100
AcDbEntity
  8
1_ANYTOOL_1MMDEEP_LABELS_S
100
AcDbVertex
100
AcDb2dVertex
 10
55.77053571423437
 20
-25.45982142857804
 30
0.0
  0
VERTEX
  5
168
330
68
100
AcDbEntity
  8
1_ANYTOOL_1MMDEEP_LABELS_S
100
AcDbVertex
100
AcDb2dVertex
 10
55.68900669637718
 20
-25.64681919643511
 30
0.0
  0
VERTEX
  5
169
330
68
100
AcDbEntity
  8
1_ANYTOOL_1MMDEEP_LABELS_S
100
AcDbVertex
100
AcDb2dVertex
 10
55.60245535709143
 20
-25.83013392857791
 30
0.0
  0
VERTEX
  5
16A
330
68
100
AcDbEntity
  8
1_ANYTOOL_1MMDEEP_LABELS_S
100
AcDbVertex
100
AcDb2dVertex
 10
55.5108816963771
 20
-26.00976562500643
 30
0.0
  0
VERTEX
  5
16B
330
68
100
AcDbEntity
  8
1_ANYTOOL_1MMDEEP_LABELS_S
100
AcDbVertex
100
AcDb2dVertex
 10
55.41428571423421
 20
-26.18571428572068
 30
0.0
  0
VERTEX
  5
16C
330
68
100
AcDbEntity
  8
1_ANYTOOL_1MMDEEP_LABELS_S
100
AcDbVertex
100
AcDb2dVertex
 10
55.31266741066275
 20
-26.35797991072065
 30
0.0
  0
VERTEX
  5
16D
330
68
100
AcDbEntity
  8
1_ANYTOOL_1MMDEEP_LABELS_S
100
AcDbVertex
100
AcDb2dVertex
 10
55.20602678566271
 20
-26.52656250000635
 30
0.0
  0
VERTEX
  5
16E
330
68
100
AcDbEntity
  8
1_ANYTOOL_1MMDEEP_LABELS_S
100
AcDbVertex
100
AcDb2dVertex
 10
55.09436383923411
 20
-26.69146205357777
 30
0.0
  0
VERTEX
  5
16F
330
68
100
AcDbEntity
  8
1_ANYTOOL_1MMDEEP_LABELS_S
100
AcDbVertex
100
AcDb2dVertex
 10
54.97767857137694
 20
-26.85267857143492
 30
0.0
  0
VERTEX
  5
170
330
68
100
AcDbEntity
  8
1_ANYTOOL_1MMDEEP_LABELS_S
100
AcDbVertex
100
AcDb2dVertex
 10
54.8559709820912
 20
-27.0102120535778
 30
0.0
  0
VERTEX
  5
171
330
68
100
AcDbEntity
  8
1_ANYTOOL_1MMDEEP_LABELS_S
100
AcDbVertex
100
AcDb2dVertex
 10
54.72924107137689
 20
-27.16406250000639
 30
0.0
  0
VERTEX
  5
172
330
68
100
AcDbEntity
  8
1_ANYTOOL_1MMDEEP_LABELS_S
100
AcDbVertex
100
AcDb2dVertex
 10
54.59748883923401
 20
-27.31422991072072
 30
0.0
  0
VERTEX
  5
173
330
68
100
AcDbEntity
  8
1_ANYTOOL_1MMDEEP_LABELS_S
100
AcDbVertex
100
AcDb2dVertex
 10
54.46071428566256
 20
-27.46071428572077
 30
0.0
  0
VERTEX
  5
174
330
68
100
AcDbEntity
  8
1_ANYTOOL_1MMDEEP_LABELS_S
100
AcDbVertex
100
AcDb2dVertex
 10
54.31891741066254
 20
-27.60351562500654
 30
0.0
  0
VERTEX
  5
175
330
68
100
AcDbEntity
  8
1_ANYTOOL_1MMDEEP_LABELS_S
100
AcDbVertex
100
AcDb2dVertex
 10
54.17209821423396
 20
-27.74263392857804
 30
0.0
  0
VERTEX
  5
176
330
68
100
AcDbEntity
  8
1_ANYTOOL_1MMDEEP_LABELS_S
100
AcDbVertex
100
AcDb2dVertex
 10
54.0202566963768
 20
-27.87806919643527
 30
0.0
  0
VERTEX
  5
177
330
68
100
AcDbEntity
  8
1_ANYTOOL_1MMDEEP_LABELS_S
100
AcDbVertex
100
AcDb2dVertex
 10
53.86339285709107
 20
-28.00982142857822
 30
0.0
  0
VERTEX
  5
178
330
68
100
AcDbEntity
  8
1_ANYTOOL_1MMDEEP_LABELS_S
100
AcDbVertex
100
AcDb2dVertex
 10
53.70150669637678
 20
-28.1378906250069
 30
0.0
  0
VERTEX
  5
179
330
68
100
AcDbEntity
  8
1_ANYTOOL_1MMDEEP_LABELS_S
100
AcDbVertex
100
AcDb2dVertex
 10
53.53459821423391
 20
-28.2622767857213
 30
0.0
  0
VERTEX
  5
17A
330
68
100
AcDbEntity
  8
1_ANYTOOL_1MMDEEP_LABELS_S
100
AcDbVertex
100
AcDb2dVertex
 10
53.36266741066247
 20
-28.38297991072142
 30
0.0
  0
VERTEX
  5
17B
330
68
100
AcDbEntity
  8
1_ANYTOOL_1MMDEEP_LABELS_S
100
AcDbVertex
100
AcDb2dVertex
 10
53.18571428566247
 20
-28.50000000000728
 30
0.0
  0
VERTEX
  5
17C
330
68
100
AcDbEntity
  8
1_ANYTOOL_1MMDEEP_LABELS_S
100
AcDbVertex
100
AcDb2dVertex
 10
52.82494419637697
 20
-28.71813616072191
 30
0.0
  0
VERTEX
  5
17D
330
68
100
AcDbEntity
  8
1_ANYTOOL_1MMDEEP_LABELS_S
100
AcDbVertex
100
AcDb2dVertex
 10
52.46049107137716
 20
-28.92254464286509
 30
0.0
  0
VERTEX
  5
17E
330
68
100
AcDbEntity
  8
1_ANYTOOL_1MMDEEP_LABELS_S
100
AcDbVertex
100
AcDb2dVertex
 10
52.09235491066305
 20
-29.11322544643681
 30
0.0
  0
VERTEX
  5
17F
330
68
100
AcDbEntity
  8
1_ANYTOOL_1MMDEEP_LABELS_S
100
AcDbVertex
100
AcDb2dVertex
 10
51.72053571423464
 20
-29.29017857143708
 30
0.0
  0
VERTEX
  5
180
330
68
100
AcDbEntity
  8
1_ANYTOOL_1MMDEEP_LABELS_S
100
AcDbVertex
100
AcDb2dVertex
 10
51.34503348209193
 20
-29.45340401786589
 30
0.0
  0
VERTEX
  5
181
330
68
100
AcDbEntity
  8
1_ANYTOOL_1MMDEEP_LABELS_S
100
AcDbVertex
100
AcDb2dVertex
 10
50.96584821423491
 20
-29.60290178572325
 30
0.0
  0
VERTEX
  5
182
330
68
100
AcDbEntity
  8
1_ANYTOOL_1MMDEEP_LABELS_S
100
AcDbVertex
100
AcDb2dVertex
 10
50.58297991066359
 20
-29.73867187500915
 30
0.0
  0
VERTEX
  5
183
330
68
100
AcDbEntity
  8
1_ANYTOOL_1MMDEEP_LABELS_S
100
AcDbVertex
100
AcDb2dVertex
 10
50.39016462048507
 20
-29.8014090401878
 30
0.0
  0
VERTEX
  5
184
330
68
100
AcDbEntity
  8
1_ANYTOOL_1MMDEEP_LABELS_S
100
AcDbVertex
100
AcDb2dVertex
 10
50.19642857137796
 20
-29.86071428572359
 30
0.0
  0
VERTEX
  5
185
330
68
100
AcDbEntity
  8
1_ANYTOOL_1MMDEEP_LABELS_S
100
AcDbVertex
100
AcDb2dVertex
 10
50.00177176334229
 20
-29.91658761161651
 30
0.0
  0
VERTEX
  5
186
330
68
100
AcDbEntity
  8
1_ANYTOOL_1MMDEEP_LABELS_S
100
AcDbVertex
100
AcDb2dVertex
 10
49.80619419637804
 20
-29.96902901786657
 30
0.0
  0
VERTEX
  5
187
330
68
100
AcDbEntity
  8
1_ANYTOOL_1MMDEEP_LABELS_S
100
AcDbVertex
100
AcDb2dVertex
 10
49.60969587048521
 20
-30.01803850447377
 30
0.0
  0
VERTEX
  5
188
330
68
100
AcDbEntity
  8
1_ANYTOOL_1MMDEEP_LABELS_S
100
AcDbVertex
100
AcDb2dVertex
 10
49.41227678566381
 20
-30.0636160714381
 30
0.0
  0
VERTEX
  5
189
330
68
100
AcDbEntity
  8
1_ANYTOOL_1MMDEEP_LABELS_S
100
AcDbVertex
100
AcDb2dVertex
 10
49.21393694191383
 20
-30.10576171875957
 30
0.0
  0
VERTEX
  5
18A
330
68
100
AcDbEntity
  8
1_ANYTOOL_1MMDEEP_LABELS_S
100
AcDbVertex
100
AcDb2dVertex
 10
49.01467633923527
 20
-30.14447544643818
 30
0.0
  0
VERTEX
  5
18B
330
68
100
AcDbEntity
  8
1_ANYTOOL_1MMDEEP_LABELS_S
100
AcDbVertex
100
AcDb2dVertex
 10
48.61339285709244
 20
-30.2116071428668
 30
0.0
  0
VERTEX
  5
18C
330
68
100
AcDbEntity
  8
1_ANYTOOL_1MMDEEP_LABELS_S
100
AcDbVertex
100
AcDb2dVertex
 10
48.2084263392353
 20
-30.26501116072396
 30
0.0
  0
VERTEX
  5
18D
330
68
100
AcDbEntity
  8
1_ANYTOOL_1MMDEEP_LABELS_S
100
AcDbVertex
100
AcDb2dVertex
 10
47.79977678566385
 20
-30.30468750000966
 30
0.0
  0
VERTEX
  5
18E
330
68
100
AcDbEntity
  8
1_ANYTOOL_1MMDEEP_LABELS_S
100
AcDbVertex
100
AcDb2dVertex
 10
47.38744419637811
 20
-30.33063616072391
 30
0.0
  0
VERTEX
  5
18F
330
68
100
AcDbEntity
  8
1_ANYTOOL_1MMDEEP_LABELS_S
100
AcDbVertex
100
AcDb2dVertex
 10
46.97142857137806
 20
-30.34285714286671
 30
0.0
  0
VERTEX
  5
190
330
68
100
AcDbEntity
  8
1_ANYTOOL_1MMDEEP_LABELS_S
100
AcDbVertex
100
AcDb2dVertex
 10
46.56110491066364
 20
-30.34185267858092
 30
0.0
  0
VERTEX
  5
191
330
68
100
AcDbEntity
  8
1_ANYTOOL_1MMDEEP_LABELS_S
100
AcDbVertex
100
AcDb2dVertex
 10
46.15513392852066
 20
-30.32812500000944
 30
0.0
  0
VERTEX
  5
192
330
68
100
AcDbEntity
  8
1_ANYTOOL_1MMDEEP_LABELS_S
100
AcDbVertex
100
AcDb2dVertex
 10
45.75351562494911
 20
-30.30167410715225
 30
0.0
  0
VERTEX
  5
193
330
68
100
AcDbEntity
  8
1_ANYTOOL_1MMDEEP_LABELS_S
100
AcDbVertex
100
AcDb2dVertex
 10
45.356249999949
 20
-30.26250000000937
 30
0.0
  0
VERTEX
  5
194
330
68
100
AcDbEntity
  8
1_ANYTOOL_1MMDEEP_LABELS_S
100
AcDbVertex
100
AcDb2dVertex
 10
44.96333705352033
 20
-30.21060267858078
 30
0.0
  0
VERTEX
  5
195
330
68
100
AcDbEntity
  8
1_ANYTOOL_1MMDEEP_LABELS_S
100
AcDbVertex
100
AcDb2dVertex
 10
44.57477678566309
 20
-30.1459821428665
 30
0.0
  0
VERTEX
  5
196
330
68
100
AcDbEntity
  8
1_ANYTOOL_1MMDEEP_LABELS_S
100
AcDbVertex
100
AcDb2dVertex
 10
44.19056919637729
 20
-30.06863839286652
 30
0.0
  0
VERTEX
  5
197
330
68
100
AcDbEntity
  8
1_ANYTOOL_1MMDEEP_LABELS_S
100
AcDbVertex
100
AcDb2dVertex
 10
43.81071428566293
 20
-29.97857142858084
 30
0.0
  0
VERTEX
  5
198
330
68
100
AcDbEntity
  8
1_ANYTOOL_1MMDEEP_LABELS_S
100
AcDbVertex
100
AcDb2dVertex
 10
43.43521205352
 20
-29.87578125000945
 30
0.0
  0
VERTEX
  5
199
330
68
100
AcDbEntity
  8
1_ANYTOOL_1MMDEEP_LABELS_S
100
AcDbVertex
100
AcDb2dVertex
 10
43.06406249994851
 20
-29.76026785715237
 30
0.0
  0
VERTEX
  5
19A
330
68
100
AcDbEntity
  8
1_ANYTOOL_1MMDEEP_LABELS_S
100
AcDbVertex
100
AcDb2dVertex
 10
42.69726562494845
 20
-29.63203125000959
 30
0.0
  0
VERTEX
  5
19B
330
68
100
AcDbEntity
  8
1_ANYTOOL_1MMDEEP_LABELS_S
100
AcDbVertex
100
AcDb2dVertex
 10
42.33482142851983
 20
-29.49107142858111
 30
0.0
  0
VERTEX
  5
19C
330
68
100
AcDbEntity
  8
1_ANYTOOL_1MMDEEP_LABELS_S
100
AcDbVertex
100
AcDb2dVertex
 10
41.97672991066265
 20
-29.33738839286693
 30
0.0
  0
VERTEX
  5
19D
330
68
100
AcDbEntity
  8
1_ANYTOOL_1MMDEEP_LABELS_S
100
AcDbVertex
100
AcDb2dVertex
 10
41.6229910713769
 20
-29.17098214286705
 30
0.0
  0
VERTEX
  5
19E
330
68
100
AcDbEntity
  8
1_ANYTOOL_1MMDEEP_LABELS_S
100
AcDbVertex
100
AcDb2dVertex
 10
41.27360491066259
 20
-28.99185267858147
 30
0.0
  0
VERTEX
  5
19F
330
68
100
AcDbEntity
  8
1_ANYTOOL_1MMDEEP_LABELS_S
100
AcDbVertex
100
AcDb2dVertex
 10
40.92857142851972
 20
-28.80000000001019
 30
0.0
  0
VERTEX
  5
1A0
330
68
100
AcDbEntity
  8
1_ANYTOOL_1MMDEEP_LABELS_S
100
AcDbVertex
100
AcDb2dVertex
 10
40.75982142851971
 20
-28.69942801340267
 30
0.0
  0
VERTEX
  5
1A1
330
68
100
AcDbEntity
  8
1_ANYTOOL_1MMDEEP_LABELS_S
100
AcDbVertex
100
AcDb2dVertex
 10
40.59642857137685
 20
-28.59592633929518
 30
0.0
  0
VERTEX
  5
1A2
330
68
100
AcDbEntity
  8
1_ANYTOOL_1MMDEEP_LABELS_S
100
AcDbVertex
100
AcDb2dVertex
 10
40.43839285709113
 20
-28.48949497768769
 30
0.0
  0
VERTEX
  5
1A3
330
68
100
AcDbEntity
  8
1_ANYTOOL_1MMDEEP_LABELS_S
100
AcDbVertex
100
AcDb2dVertex
 10
40.28571428566255
 20
-28.38013392858022
 30
0.0
  0
VERTEX
  5
1A4
330
68
100
AcDbEntity
  8
1_ANYTOOL_1MMDEEP_LABELS_S
100
AcDbVertex
100
AcDb2dVertex
 10
40.13839285709112
 20
-28.26784319197277
 30
0.0
  0
VERTEX
  5
1A5
330
68
100
AcDbEntity
  8
1_ANYTOOL_1MMDEEP_LABELS_S
100
AcDbVertex
100
AcDb2dVertex
 10
39.99642857137682
 20
-28.15262276786532
 30
0.0
  0
VERTEX
  5
1A6
330
68
100
AcDbEntity
  8
1_ANYTOOL_1MMDEEP_LABELS_S
100
AcDbVertex
100
AcDb2dVertex
 10
39.85982142851968
 20
-28.0344726562579
 30
0.0
  0
VERTEX
  5
1A7
330
68
100
AcDbEntity
  8
1_ANYTOOL_1MMDEEP_LABELS_S
100
AcDbVertex
100
AcDb2dVertex
 10
39.72857142851967
 20
-27.91339285715048
 30
0.0
  0
VERTEX
  5
1A8
330
68
100
AcDbEntity
  8
1_ANYTOOL_1MMDEEP_LABELS_S
100
AcDbVertex
100
AcDb2dVertex
 10
39.60267857137681
 20
-27.78938337054309
 30
0.0
  0
VERTEX
  5
1A9
330
68
100
AcDbEntity
  8
1_ANYTOOL_1MMDEEP_LABELS_S
100
AcDbVertex
100
AcDb2dVertex
 10
39.48214285709109
 20
-27.6624441964357
 30
0.0
  0
VERTEX
  5
1AA
330
68
100
AcDbEntity
  8
1_ANYTOOL_1MMDEEP_LABELS_S
100
AcDbVertex
100
AcDb2dVertex
 10
39.36696428566252
 20
-27.53257533482833
 30
0.0
  0
VERTEX
  5
1AB
330
68
100
AcDbEntity
  8
1_ANYTOOL_1MMDEEP_LABELS_S
100
AcDbVertex
100
AcDb2dVertex
 10
39.25714285709108
 20
-27.39977678572097
 30
0.0
  0
VERTEX
  5
1AC
330
68
100
AcDbEntity
  8
1_ANYTOOL_1MMDEEP_LABELS_S
100
AcDbVertex
100
AcDb2dVertex
 10
39.2042410713768
 20
-27.3322788783548
 30
0.0
  0
VERTEX
  5
1AD
330
68
100
AcDbEntity
  8
1_ANYTOOL_1MMDEEP_LABELS_S
100
AcDbVertex
100
AcDb2dVertex
 10
39.1526785713768
 20
-27.26404854911363
 30
0.0
  0
VERTEX
  5
1AE
330
68
100
AcDbEntity
  8
1_ANYTOOL_1MMDEEP_LABELS_S
100
AcDbVertex
100
AcDb2dVertex
 10
39.10245535709108
 20
-27.19508579799746
 30
0.0
  0
VERTEX
  5
1AF
330
68
100
AcDbEntity
  8
1_ANYTOOL_1MMDEEP_LABELS_S
100
AcDbVertex
100
AcDb2dVertex
 10
39.05357142851965
 20
-27.1253906250063
 30
0.0
  0
VERTEX
  5
1B0
330
68
100
AcDbEntity
  8
1_ANYTOOL_1MMDEEP_LABELS_S
100
AcDbVertex
100
AcDb2dVertex
 10
39.0060267856625
 20
-27.05496303014014
 30
0.0
  0
VERTEX
  5
1B1
330
68
100
AcDbEntity
  8
1_ANYTOOL_1MMDEEP_LABELS_S
100
AcDbVertex
100
AcDb2dVertex
 10
38.95982142851965
 20
-26.98380301339899
 30
0.0
  0
VERTEX
  5
1B2
330
68
100
AcDbEntity
  8
1_ANYTOOL_1MMDEEP_LABELS_S
100
AcDbVertex
100
AcDb2dVertex
 10
38.91495535709107
 20
-26.91191057478284
 30
0.0
  0
VERTEX
  5
1B3
330
68
100
AcDbEntity
  8
1_ANYTOOL_1MMDEEP_LABELS_S
100
AcDbVertex
100
AcDb2dVertex
 10
38.87142857137678
 20
-26.83928571429169
 30
0.0
  0
VERTEX
  5
1B4
330
68
100
AcDbEntity
  8
1_ANYTOOL_1MMDEEP_LABELS_S
100
AcDbVertex
100
AcDb2dVertex
 10
38.82924107137679
 20
-26.76592843192554
 30
0.0
  0
VERTEX
  5
1B5
330
68
100
AcDbEntity
  8
1_ANYTOOL_1MMDEEP_LABELS_S
100
AcDbVertex
100
AcDb2dVertex
 10
38.78839285709107
 20
-26.69183872768441
 30
0.0
  0
VERTEX
  5
1B6
330
68
100
AcDbEntity
  8
1_ANYTOOL_1MMDEEP_LABELS_S
100
AcDbVertex
100
AcDb2dVertex
 10
38.74888392851963
 20
-26.61701660156827
 30
0.0
  0
VERTEX
  5
1B7
330
68
100
AcDbEntity
  8
1_ANYTOOL_1MMDEEP_LABELS_S
100
AcDbVertex
100
AcDb2dVertex
 10
38.71071428566249
 20
-26.54146205357713
 30
0.0
  0
VERTEX
  5
1B8
330
68
100
AcDbEntity
  8
1_ANYTOOL_1MMDEEP_LABELS_S
100
AcDbVertex
100
AcDb2dVertex
 10
38.67388392851964
 20
-26.465175083711
 30
0.0
  0
VERTEX
  5
1B9
330
68
100
AcDbEntity
  8
1_ANYTOOL_1MMDEEP_LABELS_S
100
AcDbVertex
100
AcDb2dVertex
 10
38.63839285709106
 20
-26.38815569196988
 30
0.0
  0
VERTEX
  5
1BA
330
68
100
AcDbEntity
  8
1_ANYTOOL_1MMDEEP_LABELS_S
100
AcDbVertex
100
AcDb2dVertex
 10
38.60424107137678
 20
-26.31040387835375
 30
0.0
  0
VERTEX
  5
1BB
330
68
100
AcDbEntity
  8
1_ANYTOOL_1MMDEEP_LABELS_S
100
AcDbVertex
100
AcDb2dVertex
 10
38.57142857137677
 20
-26.23191964286264
 30
0.0
  0
VERTEX
  5
1BC
330
68
100
AcDbEntity
  8
1_ANYTOOL_1MMDEEP_LABELS_S
100
AcDbVertex
100
AcDb2dVertex
 10
38.53995535709106
 20
-26.15270298549652
 30
0.0
  0
VERTEX
  5
1BD
330
68
100
AcDbEntity
  8
1_ANYTOOL_1MMDEEP_LABELS_S
100
AcDbVertex
100
AcDb2dVertex
 10
38.50982142851963
 20
-26.07275390625541
 30
0.0
  0
VERTEX
  5
1BE
330
68
100
AcDbEntity
  8
1_ANYTOOL_1MMDEEP_LABELS_S
100
AcDbVertex
100
AcDb2dVertex
 10
38.48102678566249
 20
-25.9920724051393
 30
0.0
  0
VERTEX
  5
1BF
330
68
100
AcDbEntity
  8
1_ANYTOOL_1MMDEEP_LABELS_S
100
AcDbVertex
100
AcDb2dVertex
 10
38.45357142851962
 20
-25.91065848214819
 30
0.0
  0
VERTEX
  5
1C0
330
68
100
AcDbEntity
  8
1_ANYTOOL_1MMDEEP_LABELS_S
100
AcDbVertex
100
AcDb2dVertex
 10
38.40267857137677
 20
-25.74563337054099
 30
0.0
  0
VERTEX
  5
1C1
330
68
100
AcDbEntity
  8
1_ANYTOOL_1MMDEEP_LABELS_S
100
AcDbVertex
100
AcDb2dVertex
 10
38.35714285709105
 20
-25.57767857143381
 30
0.0
  0
VERTEX
  5
1C2
330
68
100
AcDbEntity
  8
1_ANYTOOL_1MMDEEP_LABELS_S
100
AcDbVertex
100
AcDb2dVertex
 10
38.31696428566248
 20
-25.40679408482664
 30
0.0
  0
VERTEX
  5
1C3
330
68
100
AcDbEntity
  8
1_ANYTOOL_1MMDEEP_LABELS_S
100
AcDbVertex
100
AcDb2dVertex
 10
38.28214285709105
 20
-25.23297991071948
 30
0.0
  0
VERTEX
  5
1C4
330
68
100
AcDbEntity
  8
1_ANYTOOL_1MMDEEP_LABELS_S
100
AcDbVertex
100
AcDb2dVertex
 10
38.25267857137676
 20
-25.05623604911234
 30
0.0
  0
VERTEX
  5
1C5
330
68
100
AcDbEntity
  8
1_ANYTOOL_1MMDEEP_LABELS_S
100
AcDbVertex
100
AcDb2dVertex
 10
38.22857142851961
 20
-24.87656250000521
 30
0.0
  0
VERTEX
  5
1C6
330
68
100
AcDbEntity
  8
1_ANYTOOL_1MMDEEP_LABELS_S
100
AcDbVertex
100
AcDb2dVertex
 10
38.20982142851962
 20
-24.69395926339809
 30
0.0
  0
VERTEX
  5
1C7
330
68
100
AcDbEntity
  8
1_ANYTOOL_1MMDEEP_LABELS_S
100
AcDbVertex
100
AcDb2dVertex
 10
38.19642857137676
 20
-24.50842633929099
 30
0.0
  0
VERTEX
  5
1C8
330
68
100
AcDbEntity
  8
1_ANYTOOL_1MMDEEP_LABELS_S
100
AcDbVertex
100
AcDb2dVertex
 10
38.18839285709105
 20
-24.31996372768391
 30
0.0
  0
VERTEX
  5
1C9
330
68
100
AcDbEntity
  8
1_ANYTOOL_1MMDEEP_LABELS_S
100
AcDbVertex
100
AcDb2dVertex
 10
38.18571428566247
 20
-24.12857142857683
 30
0.0
  0
SEQEND
  5
1CA
330
68
100
AcDbEntity
  8
1_ANYTOOL_1MMDEEP_LABELS_S
  0
LINE
  5
1CB
330
1F
100
AcDbEntity
  8
1_ANYTOOL_1MMDEEP_LABELS_S
100
AcDbLine
 10
76.7142857142353
 20
-0.4714285714362632
 30
0.0
 11
59.52857142852008
 21
-31.24285714286088
 31
0.0
  0
POLYLINE
  5
1CC
330
1F
100
AcDbEntity
  8
1_ANYTOOL_1MMDEEP_LABELS_S
100
AcDb2dPolyline
 66
     1
 10
0.0
 20
0.0
 30
0.0
 70
     1
  0
VERTEX
  5
1CD
330
1CC
100
AcDbEntity
  8
1_ANYTOOL_1MMDEEP_LABELS_S
100
AcDbVertex
100
AcDb2dVertex
 10
91.07142857137842
 20
0.3428571428521536
 30
0.0
  0
VERTEX
  5
1CE
330
1CC
100
AcDbEntity
  8
1_ANYTOOL_1MMDEEP_LABELS_S
100
AcDbVertex
100
AcDb2dVertex
 10
91.44291294637841
 20
0.3369977678521536
 30
0.0
  0
VERTEX
  5
1CF
330
1CC
100
AcDbEntity
  8
1_ANYTOOL_1MMDEEP_LABELS_S
100
AcDbVertex
100
AcDb2dVertex
 10
91.8073660713784
 20
0.3194196428521536
 30
0.0
  0
VERTEX
  5
1D0
330
1CC
100
AcDbEntity
  8
1_ANYTOOL_1MMDEEP_LABELS_S
100
AcDbVertex
100
AcDb2dVertex
 10
92.16478794637837
 20
0.2901227678521536
 30
0.0
  0
VERTEX
  5
1D1
330
1CC
100
AcDbEntity
  8
1_ANYTOOL_1MMDEEP_LABELS_S
100
AcDbVertex
100
AcDb2dVertex
 10
92.34086216512836
 20
0.2710797991021536
 30
0.0
  0
VERTEX
  5
1D2
330
1CC
100
AcDbEntity
  8
1_ANYTOOL_1MMDEEP_LABELS_S
100
AcDbVertex
100
AcDb2dVertex
 10
92.51517857137833
 20
0.2491071428521536
 30
0.0
  0
VERTEX
  5
1D3
330
1CC
100
AcDbEntity
  8
1_ANYTOOL_1MMDEEP_LABELS_S
100
AcDbVertex
100
AcDb2dVertex
 10
92.68773716512831
 20
0.2242047991021536
 30
0.0
  0
VERTEX
  5
1D4
330
1CC
100
AcDbEntity
  8
1_ANYTOOL_1MMDEEP_LABELS_S
100
AcDbVertex
100
AcDb2dVertex
 10
92.85853794637828
 20
0.1963727678521536
 30
0.0
  0
VERTEX
  5
1D5
330
1CC
100
AcDbEntity
  8
1_ANYTOOL_1MMDEEP_LABELS_S
100
AcDbVertex
100
AcDb2dVertex
 10
93.02758091512825
 20
0.1656110491021536
 30
0.0
  0
VERTEX
  5
1D6
330
1CC
100
AcDbEntity
  8
1_ANYTOOL_1MMDEEP_LABELS_S
100
AcDbVertex
100
AcDb2dVertex
 10
93.19486607137821
 20
0.1319196428521536
 30
0.0
  0
VERTEX
  5
1D7
330
1CC
100
AcDbEntity
  8
1_ANYTOOL_1MMDEEP_LABELS_S
100
AcDbVertex
100
AcDb2dVertex
 10
93.36039341512819
 20
0.0952985491021536
 30
0.0
  0
VERTEX
  5
1D8
330
1CC
100
AcDbEntity
  8
1_ANYTOOL_1MMDEEP_LABELS_S
100
AcDbVertex
100
AcDb2dVertex
 10
93.52416294637814
 20
0.0557477678521536
 30
0.0
  0
VERTEX
  5
1D9
330
1CC
100
AcDbEntity
  8
1_ANYTOOL_1MMDEEP_LABELS_S
100
AcDbVertex
100
AcDb2dVertex
 10
93.6861746651281
 20
0.0132672991021536
 30
0.0
  0
VERTEX
  5
1DA
330
1CC
100
AcDbEntity
  8
1_ANYTOOL_1MMDEEP_LABELS_S
100
AcDbVertex
100
AcDb2dVertex
 10
93.84642857137806
 20
-0.0321428571478464
 30
0.0
  0
VERTEX
  5
1DB
330
1CC
100
AcDbEntity
  8
1_ANYTOOL_1MMDEEP_LABELS_S
100
AcDbVertex
100
AcDb2dVertex
 10
94.00492466512802
 20
-0.0804827008978464
 30
0.0
  0
VERTEX
  5
1DC
330
1CC
100
AcDbEntity
  8
1_ANYTOOL_1MMDEEP_LABELS_S
100
AcDbVertex
100
AcDb2dVertex
 10
94.16166294637796
 20
-0.1317522321478464
 30
0.0
  0
VERTEX
  5
1DD
330
1CC
100
AcDbEntity
  8
1_ANYTOOL_1MMDEEP_LABELS_S
100
AcDbVertex
100
AcDb2dVertex
 10
94.31664341512791
 20
-0.1859514508978464
 30
0.0
  0
VERTEX
  5
1DE
330
1CC
100
AcDbEntity
  8
1_ANYTOOL_1MMDEEP_LABELS_S
100
AcDbVertex
100
AcDb2dVertex
 10
94.46986607137785
 20
-0.2430803571478464
 30
0.0
  0
VERTEX
  5
1DF
330
1CC
100
AcDbEntity
  8
1_ANYTOOL_1MMDEEP_LABELS_S
100
AcDbVertex
100
AcDb2dVertex
 10
94.6213309151278
 20
-0.3031389508978464
 30
0.0
  0
VERTEX
  5
1E0
330
1CC
100
AcDbEntity
  8
1_ANYTOOL_1MMDEEP_LABELS_S
100
AcDbVertex
100
AcDb2dVertex
 10
94.77103794637773
 20
-0.3661272321478464
 30
0.0
  0
VERTEX
  5
1E1
330
1CC
100
AcDbEntity
  8
1_ANYTOOL_1MMDEEP_LABELS_S
100
AcDbVertex
100
AcDb2dVertex
 10
94.91898716512767
 20
-0.4320452008978464
 30
0.0
  0
VERTEX
  5
1E2
330
1CC
100
AcDbEntity
  8
1_ANYTOOL_1MMDEEP_LABELS_S
100
AcDbVertex
100
AcDb2dVertex
 10
95.0651785713776
 20
-0.5008928571478464
 30
0.0
  0
VERTEX
  5
1E3
330
1CC
100
AcDbEntity
  8
1_ANYTOOL_1MMDEEP_LABELS_S
100
AcDbVertex
100
AcDb2dVertex
 10
95.20961216512754
 20
-0.5726702008978464
 30
0.0
  0
VERTEX
  5
1E4
330
1CC
100
AcDbEntity
  8
1_ANYTOOL_1MMDEEP_LABELS_S
100
AcDbVertex
100
AcDb2dVertex
 10
95.35228794637746
 20
-0.6473772321478464
 30
0.0
  0
VERTEX
  5
1E5
330
1CC
100
AcDbEntity
  8
1_ANYTOOL_1MMDEEP_LABELS_S
100
AcDbVertex
100
AcDb2dVertex
 10
95.49320591512739
 20
-0.7250139508978464
 30
0.0
  0
VERTEX
  5
1E6
330
1CC
100
AcDbEntity
  8
1_ANYTOOL_1MMDEEP_LABELS_S
100
AcDbVertex
100
AcDb2dVertex
 10
95.6323660713773
 20
-0.8055803571478464
 30
0.0
  0
VERTEX
  5
1E7
330
1CC
100
AcDbEntity
  8
1_ANYTOOL_1MMDEEP_LABELS_S
100
AcDbVertex
100
AcDb2dVertex
 10
95.76976841512723
 20
-0.8890764508978464
 30
0.0
  0
VERTEX
  5
1E8
330
1CC
100
AcDbEntity
  8
1_ANYTOOL_1MMDEEP_LABELS_S
100
AcDbVertex
100
AcDb2dVertex
 10
95.90541294637714
 20
-0.9755022321478464
 30
0.0
  0
VERTEX
  5
1E9
330
1CC
100
AcDbEntity
  8
1_ANYTOOL_1MMDEEP_LABELS_S
100
AcDbVertex
100
AcDb2dVertex
 10
96.03929966512706
 20
-1.064857700897846
 30
0.0
  0
VERTEX
  5
1EA
330
1CC
100
AcDbEntity
  8
1_ANYTOOL_1MMDEEP_LABELS_S
100
AcDbVertex
100
AcDb2dVertex
 10
96.43091517851987
 20
-1.342466517862221
 30
0.0
  0
VERTEX
  5
1EB
330
1CC
100
AcDbEntity
  8
1_ANYTOOL_1MMDEEP_LABELS_S
100
AcDbVertex
100
AcDb2dVertex
 10
96.68437499994849
 20
-1.534151785719473
 30
0.0
  0
VERTEX
  5
1EC
330
1CC
100
AcDbEntity
  8
1_ANYTOOL_1MMDEEP_LABELS_S
100
AcDbVertex
100
AcDb2dVertex
 10
96.93180803566283
 20
-1.732198660719604
 30
0.0
  0
VERTEX
  5
1ED
330
1CC
100
AcDbEntity
  8
1_ANYTOOL_1MMDEEP_LABELS_S
100
AcDbVertex
100
AcDb2dVertex
 10
97.17321428566288
 20
-1.936607142862613
 30
0.0
  0
VERTEX
  5
1EE
330
1CC
100
AcDbEntity
  8
1_ANYTOOL_1MMDEEP_LABELS_S
100
AcDbVertex
100
AcDb2dVertex
 10
97.40859374994865
 20
-2.1473772321485
 30
0.0
  0
VERTEX
  5
1EF
330
1CC
100
AcDbEntity
  8
1_ANYTOOL_1MMDEEP_LABELS_S
100
AcDbVertex
100
AcDb2dVertex
 10
97.63794642852014
 20
-2.364508928577266
 30
0.0
  0
VERTEX
  5
1F0
330
1CC
100
AcDbEntity
  8
1_ANYTOOL_1MMDEEP_LABELS_S
100
AcDbVertex
100
AcDb2dVertex
 10
97.86127232137734
 20
-2.588002232148909
 30
0.0
  0
VERTEX
  5
1F1
330
1CC
100
AcDbEntity
  8
1_ANYTOOL_1MMDEEP_LABELS_S
100
AcDbVertex
100
AcDb2dVertex
 10
98.07857142852026
 20
-2.817857142863431
 30
0.0
  0
VERTEX
  5
1F2
330
1CC
100
AcDbEntity
  8
1_ANYTOOL_1MMDEEP_LABELS_S
100
AcDbVertex
100
AcDb2dVertex
 10
98.2898437499489
 20
-3.054073660720832
 30
0.0
  0
VERTEX
  5
1F3
330
1CC
100
AcDbEntity
  8
1_ANYTOOL_1MMDEEP_LABELS_S
100
AcDbVertex
100
AcDb2dVertex
 10
98.49508928566325
 20
-3.29665178572111
 30
0.0
  0
VERTEX
  5
1F4
330
1CC
100
AcDbEntity
  8
1_ANYTOOL_1MMDEEP_LABELS_S
100
AcDbVertex
100
AcDb2dVertex
 10
98.69430803566333
 20
-3.545591517864267
 30
0.0
  0
VERTEX
  5
1F5
330
1CC
100
AcDbEntity
  8
1_ANYTOOL_1MMDEEP_LABELS_S
100
AcDbVertex
100
AcDb2dVertex
 10
98.88749999994911
 20
-3.800892857150302
 30
0.0
  0
VERTEX
  5
1F6
330
1CC
100
AcDbEntity
  8
1_ANYTOOL_1MMDEEP_LABELS_S
100
AcDbVertex
100
AcDb2dVertex
 10
99.07466517852062
 20
-4.062555803579215
 30
0.0
  0
VERTEX
  5
1F7
330
1CC
100
AcDbEntity
  8
1_ANYTOOL_1MMDEEP_LABELS_S
100
AcDbVertex
100
AcDb2dVertex
 10
99.25580357137784
 20
-4.330580357151007
 30
0.0
  0
VERTEX
  5
1F8
330
1CC
100
AcDbEntity
  8
1_ANYTOOL_1MMDEEP_LABELS_S
100
AcDbVertex
100
AcDb2dVertex
 10
99.43091517852078
 20
-4.604966517865677
 30
0.0
  0
VERTEX
  5
1F9
330
1CC
100
AcDbEntity
  8
1_ANYTOOL_1MMDEEP_LABELS_S
100
AcDbVertex
100
AcDb2dVertex
 10
99.76841517852087
 20
-5.171484375008475
 30
0.0
  0
VERTEX
  5
1FA
330
1CC
100
AcDbEntity
  8
1_ANYTOOL_1MMDEEP_LABELS_S
100
AcDbVertex
100
AcDb2dVertex
 10
99.93080357137802
 20
-5.460937500008072
 30
0.0
  0
VERTEX
  5
1FB
330
1CC
100
AcDbEntity
  8
1_ANYTOOL_1MMDEEP_LABELS_S
100
AcDbVertex
100
AcDb2dVertex
 10
100.0871651785209
 20
-5.754073660722014
 30
0.0
  0
VERTEX
  5
1FC
330
1CC
100
AcDbEntity
  8
1_ANYTOOL_1MMDEEP_LABELS_S
100
AcDbVertex
100
AcDb2dVertex
 10
100.2374999999495
 20
-6.050892857150302
 30
0.0
  0
VERTEX
  5
1FD
330
1CC
100
AcDbEntity
  8
1_ANYTOOL_1MMDEEP_LABELS_S
100
AcDbVertex
100
AcDb2dVertex
 10
100.3818080356638
 20
-6.351395089292936
 30
0.0
  0
VERTEX
  5
1FE
330
1CC
100
AcDbEntity
  8
1_ANYTOOL_1MMDEEP_LABELS_S
100
AcDbVertex
100
AcDb2dVertex
 10
100.5200892856638
 20
-6.655580357149915
 30
0.0
  0
VERTEX
  5
1FF
330
1CC
100
AcDbEntity
  8
1_ANYTOOL_1MMDEEP_LABELS_S
100
AcDbVertex
100
AcDb2dVertex
 10
100.6523437499495
 20
-6.963448660721241
 30
0.0
  0
VERTEX
  5
200
330
1CC
100
AcDbEntity
  8
1_ANYTOOL_1MMDEEP_LABELS_S
100
AcDbVertex
100
AcDb2dVertex
 10
100.778571428521
 20
-7.275000000006912
 30
0.0
  0
VERTEX
  5
201
330
1CC
100
AcDbEntity
  8
1_ANYTOOL_1MMDEEP_LABELS_S
100
AcDbVertex
100
AcDb2dVertex
 10
100.8987723213782
 20
-7.590234375006929
 30
0.0
  0
VERTEX
  5
202
330
1CC
100
AcDbEntity
  8
1_ANYTOOL_1MMDEEP_LABELS_S
100
AcDbVertex
100
AcDb2dVertex
 10
101.012946428521
 20
-7.909151785721292
 30
0.0
  0
VERTEX
  5
203
330
1CC
100
AcDbEntity
  8
1_ANYTOOL_1MMDEEP_LABELS_S
100
AcDbVertex
100
AcDb2dVertex
 10
101.1210937499497
 20
-8.23175223215
 30
0.0
  0
VERTEX
  5
204
330
1CC
100
AcDbEntity
  8
1_ANYTOOL_1MMDEEP_LABELS_S
100
AcDbVertex
100
AcDb2dVertex
 10
101.223214285664
 20
-8.558035714293055
 30
0.0
  0
VERTEX
  5
205
330
1CC
100
AcDbEntity
  8
1_ANYTOOL_1MMDEEP_LABELS_S
100
AcDbVertex
100
AcDb2dVertex
 10
101.319308035664
 20
-8.888002232150455
 30
0.0
  0
VERTEX
  5
206
330
1CC
100
AcDbEntity
  8
1_ANYTOOL_1MMDEEP_LABELS_S
100
AcDbVertex
100
AcDb2dVertex
 10
101.4093749999498
 20
-9.221651785722202
 30
0.0
  0
VERTEX
  5
207
330
1CC
100
AcDbEntity
  8
1_ANYTOOL_1MMDEEP_LABELS_S
100
AcDbVertex
100
AcDb2dVertex
 10
101.4934151785212
 20
-9.558984375008293
 30
0.0
  0
VERTEX
  5
208
330
1CC
100
AcDbEntity
  8
1_ANYTOOL_1MMDEEP_LABELS_S
100
AcDbVertex
100
AcDb2dVertex
 10
101.7220982142355
 20
-10.58236607143647
 30
0.0
  0
VERTEX
  5
209
330
1CC
100
AcDbEntity
  8
1_ANYTOOL_1MMDEEP_LABELS_S
100
AcDbVertex
100
AcDb2dVertex
 10
101.8526785713783
 20
-11.25803571429287
 30
0.0
  0
VERTEX
  5
20A
330
1CC
100
AcDbEntity
  8
1_ANYTOOL_1MMDEEP_LABELS_S
100
AcDbVertex
100
AcDb2dVertex
 10
101.9631696428068
 20
-11.92700892857795
 30
0.0
  0
VERTEX
  5
20B
330
1CC
100
AcDbEntity
  8
1_ANYTOOL_1MMDEEP_LABELS_S
100
AcDbVertex
100
AcDb2dVertex
 10
102.0535714285211
 20
-12.58928571429169
 30
0.0
  0
VERTEX
  5
20C
330
1CC
100
AcDbEntity
  8
1_ANYTOOL_1MMDEEP_LABELS_S
100
AcDbVertex
100
AcDb2dVertex
 10
102.1238839285211
 20
-13.2448660714341
 30
0.0
  0
VERTEX
  5
20D
330
1CC
100
AcDbEntity
  8
1_ANYTOOL_1MMDEEP_LABELS_S
100
AcDbVertex
100
AcDb2dVertex
 10
102.1741071428067
 20
-13.89375000000518
 30
0.0
  0
VERTEX
  5
20E
330
1CC
100
AcDbEntity
  8
1_ANYTOOL_1MMDEEP_LABELS_S
100
AcDbVertex
100
AcDb2dVertex
 10
102.2042410713782
 20
-14.53593750000493
 30
0.0
  0
VERTEX
  5
20F
330
1CC
100
AcDbEntity
  8
1_ANYTOOL_1MMDEEP_LABELS_S
100
AcDbVertex
100
AcDb2dVertex
 10
102.2142857142353
 20
-15.17142857143335
 30
0.0
  0
VERTEX
  5
210
330
1CC
100
AcDbEntity
  8
1_ANYTOOL_1MMDEEP_LABELS_S
100
AcDbVertex
100
AcDb2dVertex
 10
102.2034040178067
 20
-15.80892857143405
 30
0.0
  0
VERTEX
  5
211
330
1CC
100
AcDbEntity
  8
1_ANYTOOL_1MMDEEP_LABELS_S
100
AcDbVertex
100
AcDb2dVertex
 10
102.170758928521
 20
-16.44642857143469
 30
0.0
  0
VERTEX
  5
212
330
1CC
100
AcDbEntity
  8
1_ANYTOOL_1MMDEEP_LABELS_S
100
AcDbVertex
100
AcDb2dVertex
 10
102.1163504463781
 20
-17.08392857143528
 30
0.0
  0
VERTEX
  5
213
330
1CC
100
AcDbEntity
  8
1_ANYTOOL_1MMDEEP_LABELS_S
100
AcDbVertex
100
AcDb2dVertex
 10
102.0401785713781
 20
-17.72142857143581
 30
0.0
  0
VERTEX
  5
214
330
1CC
100
AcDbEntity
  8
1_ANYTOOL_1MMDEEP_LABELS_S
100
AcDbVertex
100
AcDb2dVertex
 10
101.9422433035209
 20
-18.35892857143628
 30
0.0
  0
VERTEX
  5
215
330
1CC
100
AcDbEntity
  8
1_ANYTOOL_1MMDEEP_LABELS_S
100
AcDbVertex
100
AcDb2dVertex
 10
101.8225446428065
 20
-18.9964285714367
 30
0.0
  0
VERTEX
  5
216
330
1CC
100
AcDbEntity
  8
1_ANYTOOL_1MMDEEP_LABELS_S
100
AcDbVertex
100
AcDb2dVertex
 10
101.681082589235
 20
-19.63392857143705
 30
0.0
  0
VERTEX
  5
217
330
1CC
100
AcDbEntity
  8
1_ANYTOOL_1MMDEEP_LABELS_S
100
AcDbVertex
100
AcDb2dVertex
 10
101.5178571428064
 20
-20.27142857143735
 30
0.0
  0
VERTEX
  5
218
330
1CC
100
AcDbEntity
  8
1_ANYTOOL_1MMDEEP_LABELS_S
100
AcDbVertex
100
AcDb2dVertex
 10
101.3328683035206
 20
-20.9089285714376
 30
0.0
  0
VERTEX
  5
219
330
1CC
100
AcDbEntity
  8
1_ANYTOOL_1MMDEEP_LABELS_S
100
AcDbVertex
100
AcDb2dVertex
 10
101.1261160713777
 20
-21.54642857143779
 30
0.0
  0
VERTEX
  5
21A
330
1CC
100
AcDbEntity
  8
1_ANYTOOL_1MMDEEP_LABELS_S
100
AcDbVertex
100
AcDb2dVertex
 10
100.8976004463775
 20
-22.18392857143792
 30
0.0
  0
VERTEX
  5
21B
330
1CC
100
AcDbEntity
  8
1_ANYTOOL_1MMDEEP_LABELS_S
100
AcDbVertex
100
AcDb2dVertex
 10
100.6473214285203
 20
-22.82142857143799
 30
0.0
  0
VERTEX
  5
21C
330
1CC
100
AcDbEntity
  8
1_ANYTOOL_1MMDEEP_LABELS_S
100
AcDbVertex
100
AcDb2dVertex
 10
100.3752790178059
 20
-23.45892857143801
 30
0.0
  0
VERTEX
  5
21D
330
1CC
100
AcDbEntity
  8
1_ANYTOOL_1MMDEEP_LABELS_S
100
AcDbVertex
100
AcDb2dVertex
 10
100.0814732142343
 20
-24.09642857143797
 30
0.0
  0
VERTEX
  5
21E
330
1CC
100
AcDbEntity
  8
1_ANYTOOL_1MMDEEP_LABELS_S
100
AcDbVertex
100
AcDb2dVertex
 10
99.76590401780558
 20
-24.73392857143787
 30
0.0
  0
VERTEX
  5
21F
330
1CC
100
AcDbEntity
  8
1_ANYTOOL_1MMDEEP_LABELS_S
100
AcDbVertex
100
AcDb2dVertex
 10
99.42857142851972
 20
-25.37142857143772
 30
0.0
  0
VERTEX
  5
220
330
1CC
100
AcDbEntity
  8
1_ANYTOOL_1MMDEEP_LABELS_S
100
AcDbVertex
100
AcDb2dVertex
 10
99.25400390619828
 20
-25.68519810268763
 30
0.0
  0
VERTEX
  5
221
330
1CC
100
AcDbEntity
  8
1_ANYTOOL_1MMDEEP_LABELS_S
100
AcDbVertex
100
AcDb2dVertex
 10
99.07315848209115
 20
-25.98900669643754
 30
0.0
  0
VERTEX
  5
222
330
1CC
100
AcDbEntity
  8
1_ANYTOOL_1MMDEEP_LABELS_S
100
AcDbVertex
100
AcDb2dVertex
 10
98.88603515619828
 20
-26.28285435268746
 30
0.0
  0
VERTEX
  5
223
330
1CC
100
AcDbEntity
  8
1_ANYTOOL_1MMDEEP_LABELS_S
100
AcDbVertex
100
AcDb2dVertex
 10
98.69263392851971
 20
-26.56674107143738
 30
0.0
  0
VERTEX
  5
224
330
1CC
100
AcDbEntity
  8
1_ANYTOOL_1MMDEEP_LABELS_S
100
AcDbVertex
100
AcDb2dVertex
 10
98.49295479905544
 20
-26.8406668526873
 30
0.0
  0
VERTEX
  5
225
330
1CC
100
AcDbEntity
  8
1_ANYTOOL_1MMDEEP_LABELS_S
100
AcDbVertex
100
AcDb2dVertex
 10
98.28699776780545
 20
-27.10463169643722
 30
0.0
  0
VERTEX
  5
226
330
1CC
100
AcDbEntity
  8
1_ANYTOOL_1MMDEEP_LABELS_S
100
AcDbVertex
100
AcDb2dVertex
 10
98.07476283476973
 20
-27.35863560268715
 30
0.0
  0
VERTEX
  5
227
330
1CC
100
AcDbEntity
  8
1_ANYTOOL_1MMDEEP_LABELS_S
100
AcDbVertex
100
AcDb2dVertex
 10
97.85624999994832
 20
-27.60267857143708
 30
0.0
  0
VERTEX
  5
228
330
1CC
100
AcDbEntity
  8
1_ANYTOOL_1MMDEEP_LABELS_S
100
AcDbVertex
100
AcDb2dVertex
 10
97.74463936936797
 20
-27.72096470424955
 30
0.0
  0
VERTEX
  5
229
330
1CC
100
AcDbEntity
  8
1_ANYTOOL_1MMDEEP_LABELS_S
100
AcDbVertex
100
AcDb2dVertex
 10
97.63145926334118
 20
-27.83676060268701
 30
0.0
  0
VERTEX
  5
22A
330
1CC
100
AcDbEntity
  8
1_ANYTOOL_1MMDEEP_LABELS_S
100
AcDbVertex
100
AcDb2dVertex
 10
97.51670968186798
 20
-27.95006626674948
 30
0.0
  0
VERTEX
  5
22B
330
1CC
100
AcDbEntity
  8
1_ANYTOOL_1MMDEEP_LABELS_S
100
AcDbVertex
100
AcDb2dVertex
 10
97.40039062494836
 20
-28.06088169643695
 30
0.0
  0
VERTEX
  5
22C
330
1CC
100
AcDbEntity
  8
1_ANYTOOL_1MMDEEP_LABELS_S
100
AcDbVertex
100
AcDb2dVertex
 10
97.28250209258229
 20
-28.16920689174942
 30
0.0
  0
VERTEX
  5
22D
330
1CC
100
AcDbEntity
  8
1_ANYTOOL_1MMDEEP_LABELS_S
100
AcDbVertex
100
AcDb2dVertex
 10
97.16304408476981
 20
-28.27504185268689
 30
0.0
  0
VERTEX
  5
22E
330
1CC
100
AcDbEntity
  8
1_ANYTOOL_1MMDEEP_LABELS_S
100
AcDbVertex
100
AcDb2dVertex
 10
97.04201660151088
 20
-28.37838657924936
 30
0.0
  0
VERTEX
  5
22F
330
1CC
100
AcDbEntity
  8
1_ANYTOOL_1MMDEEP_LABELS_S
100
AcDbVertex
100
AcDb2dVertex
 10
96.91941964280554
 20
-28.47924107143683
 30
0.0
  0
VERTEX
  5
230
330
1CC
100
AcDbEntity
  8
1_ANYTOOL_1MMDEEP_LABELS_S
100
AcDbVertex
100
AcDb2dVertex
 10
96.79525320865376
 20
-28.5776053292493
 30
0.0
  0
VERTEX
  5
231
330
1CC
100
AcDbEntity
  8
1_ANYTOOL_1MMDEEP_LABELS_S
100
AcDbVertex
100
AcDb2dVertex
 10
96.66951729905556
 20
-28.67347935268678
 30
0.0
  0
VERTEX
  5
232
330
1CC
100
AcDbEntity
  8
1_ANYTOOL_1MMDEEP_LABELS_S
100
AcDbVertex
100
AcDb2dVertex
 10
96.54221191401092
 20
-28.76686314174925
 30
0.0
  0
VERTEX
  5
233
330
1CC
100
AcDbEntity
  8
1_ANYTOOL_1MMDEEP_LABELS_S
100
AcDbVertex
100
AcDb2dVertex
 10
96.41333705351988
 20
-28.85775669643672
 30
0.0
  0
VERTEX
  5
234
330
1CC
100
AcDbEntity
  8
1_ANYTOOL_1MMDEEP_LABELS_S
100
AcDbVertex
100
AcDb2dVertex
 10
96.28289271758238
 20
-28.9461600167492
 30
0.0
  0
VERTEX
  5
235
330
1CC
100
AcDbEntity
  8
1_ANYTOOL_1MMDEEP_LABELS_S
100
AcDbVertex
100
AcDb2dVertex
 10
96.15087890619847
 20
-29.03207310268667
 30
0.0
  0
VERTEX
  5
236
330
1CC
100
AcDbEntity
  8
1_ANYTOOL_1MMDEEP_LABELS_S
100
AcDbVertex
100
AcDb2dVertex
 10
96.01729561936813
 20
-29.11549595424915
 30
0.0
  0
VERTEX
  5
237
330
1CC
100
AcDbEntity
  8
1_ANYTOOL_1MMDEEP_LABELS_S
100
AcDbVertex
100
AcDb2dVertex
 10
95.88214285709137
 20
-29.19642857143663
 30
0.0
  0
VERTEX
  5
238
330
1CC
100
AcDbEntity
  8
1_ANYTOOL_1MMDEEP_LABELS_S
100
AcDbVertex
100
AcDb2dVertex
 10
95.74542061936816
 20
-29.2748709542491
 30
0.0
  0
VERTEX
  5
239
330
1CC
100
AcDbEntity
  8
1_ANYTOOL_1MMDEEP_LABELS_S
100
AcDbVertex
100
AcDb2dVertex
 10
95.60712890619854
 20
-29.35082310268658
 30
0.0
  0
VERTEX
  5
23A
330
1CC
100
AcDbEntity
  8
1_ANYTOOL_1MMDEEP_LABELS_S
100
AcDbVertex
100
AcDb2dVertex
 10
95.46726771758249
 20
-29.42428501674906
 30
0.0
  0
VERTEX
  5
23B
330
1CC
100
AcDbEntity
  8
1_ANYTOOL_1MMDEEP_LABELS_S
100
AcDbVertex
100
AcDb2dVertex
 10
95.32583705352002
 20
-29.49525669643654
 30
0.0
  0
VERTEX
  5
23C
330
1CC
100
AcDbEntity
  8
1_ANYTOOL_1MMDEEP_LABELS_S
100
AcDbVertex
100
AcDb2dVertex
 10
95.18283691401109
 20
-29.56373814174902
 30
0.0
  0
VERTEX
  5
23D
330
1CC
100
AcDbEntity
  8
1_ANYTOOL_1MMDEEP_LABELS_S
100
AcDbVertex
100
AcDb2dVertex
 10
95.03826729905576
 20
-29.6297293526865
 30
0.0
  0
VERTEX
  5
23E
330
1CC
100
AcDbEntity
  8
1_ANYTOOL_1MMDEEP_LABELS_S
100
AcDbVertex
100
AcDb2dVertex
 10
94.892128208654
 20
-29.69323032924898
 30
0.0
  0
VERTEX
  5
23F
330
1CC
100
AcDbEntity
  8
1_ANYTOOL_1MMDEEP_LABELS_S
100
AcDbVertex
100
AcDb2dVertex
 10
94.74441964280581
 20
-29.75424107143647
 30
0.0
  0
VERTEX
  5
240
330
1CC
100
AcDbEntity
  8
1_ANYTOOL_1MMDEEP_LABELS_S
100
AcDbVertex
100
AcDb2dVertex
 10
94.59514160151119
 20
-29.81276157924895
 30
0.0
  0
VERTEX
  5
241
330
1CC
100
AcDbEntity
  8
1_ANYTOOL_1MMDEEP_LABELS_S
100
AcDbVertex
100
AcDb2dVertex
 10
94.44429408477015
 20
-29.86879185268644
 30
0.0
  0
VERTEX
  5
242
330
1CC
100
AcDbEntity
  8
1_ANYTOOL_1MMDEEP_LABELS_S
100
AcDbVertex
100
AcDb2dVertex
 10
94.29187709258267
 20
-29.92233189174892
 30
0.0
  0
VERTEX
  5
243
330
1CC
100
AcDbEntity
  8
1_ANYTOOL_1MMDEEP_LABELS_S
100
AcDbVertex
100
AcDb2dVertex
 10
94.13789062494877
 20
-29.97338169643641
 30
0.0
  0
VERTEX
  5
244
330
1CC
100
AcDbEntity
  8
1_ANYTOOL_1MMDEEP_LABELS_S
100
AcDbVertex
100
AcDb2dVertex
 10
93.82520926334166
 20
-30.06801060268638
 30
0.0
  0
VERTEX
  5
245
330
1CC
100
AcDbEntity
  8
1_ANYTOOL_1MMDEEP_LABELS_S
100
AcDbVertex
100
AcDb2dVertex
 10
93.50624999994886
 20
-30.15267857143635
 30
0.0
  0
VERTEX
  5
246
330
1CC
100
AcDbEntity
  8
1_ANYTOOL_1MMDEEP_LABELS_S
100
AcDbVertex
100
AcDb2dVertex
 10
93.18101283477034
 20
-30.22738560268633
 30
0.0
  0
VERTEX
  5
247
330
1CC
100
AcDbEntity
  8
1_ANYTOOL_1MMDEEP_LABELS_S
100
AcDbVertex
100
AcDb2dVertex
 10
92.84949776780613
 20
-30.29213169643631
 30
0.0
  0
VERTEX
  5
248
330
1CC
100
AcDbEntity
  8
1_ANYTOOL_1MMDEEP_LABELS_S
100
AcDbVertex
100
AcDb2dVertex
 10
92.51170479905619
 20
-30.3469168526863
 30
0.0
  0
VERTEX
  5
249
330
1CC
100
AcDbEntity
  8
1_ANYTOOL_1MMDEEP_LABELS_S
100
AcDbVertex
100
AcDb2dVertex
 10
92.16763392852053
 20
-30.39174107143629
 30
0.0
  0
VERTEX
  5
24A
330
1CC
100
AcDbEntity
  8
1_ANYTOOL_1MMDEEP_LABELS_S
100
AcDbVertex
100
AcDb2dVertex
 10
91.81728515619916
 20
-30.42660435268628
 30
0.0
  0
VERTEX
  5
24B
330
1CC
100
AcDbEntity
  8
1_ANYTOOL_1MMDEEP_LABELS_S
100
AcDbVertex
100
AcDb2dVertex
 10
91.4606584820921
 20
-30.45150669643627
 30
0.0
  0
VERTEX
  5
24C
330
1CC
100
AcDbEntity
  8
1_ANYTOOL_1MMDEEP_LABELS_S
100
AcDbVertex
100
AcDb2dVertex
 10
91.0977539061993
 20
-30.46644810268626
 30
0.0
  0
VERTEX
  5
24D
330
1CC
100
AcDbEntity
  8
1_ANYTOOL_1MMDEEP_LABELS_S
100
AcDbVertex
100
AcDb2dVertex
 10
90.72857142852081
 20
-30.47142857143626
 30
0.0
  0
VERTEX
  5
24E
330
1CC
100
AcDbEntity
  8
1_ANYTOOL_1MMDEEP_LABELS_S
100
AcDbVertex
100
AcDb2dVertex
 10
90.3461635044136
 20
-30.46636439732912
 30
0.0
  0
VERTEX
  5
24F
330
1CC
100
AcDbEntity
  8
1_ANYTOOL_1MMDEEP_LABELS_S
100
AcDbVertex
100
AcDb2dVertex
 10
89.97036830352067
 20
-30.4511718750077
 30
0.0
  0
VERTEX
  5
250
330
1CC
100
AcDbEntity
  8
1_ANYTOOL_1MMDEEP_LABELS_S
100
AcDbVertex
100
AcDb2dVertex
 10
89.60118582584204
 20
-30.425851004472
 30
0.0
  0
VERTEX
  5
251
330
1CC
100
AcDbEntity
  8
1_ANYTOOL_1MMDEEP_LABELS_S
100
AcDbVertex
100
AcDb2dVertex
 10
89.23861607137769
 20
-30.39040178572202
 30
0.0
  0
VERTEX
  5
252
330
1CC
100
AcDbEntity
  8
1_ANYTOOL_1MMDEEP_LABELS_S
100
AcDbVertex
100
AcDb2dVertex
 10
88.88265904012763
 20
-30.34482421875776
 30
0.0
  0
VERTEX
  5
253
330
1CC
100
AcDbEntity
  8
1_ANYTOOL_1MMDEEP_LABELS_S
100
AcDbVertex
100
AcDb2dVertex
 10
88.53331473209187
 20
-30.28911830357922
 30
0.0
  0
VERTEX
  5
254
330
1CC
100
AcDbEntity
  8
1_ANYTOOL_1MMDEEP_LABELS_S
100
AcDbVertex
100
AcDb2dVertex
 10
88.19058314727039
 20
-30.22328404018639
 30
0.0
  0
VERTEX
  5
255
330
1CC
100
AcDbEntity
  8
1_ANYTOOL_1MMDEEP_LABELS_S
100
AcDbVertex
100
AcDb2dVertex
 10
87.8544642856632
 20
-30.14732142857929
 30
0.0
  0
VERTEX
  5
256
330
1CC
100
AcDbEntity
  8
1_ANYTOOL_1MMDEEP_LABELS_S
100
AcDbVertex
100
AcDb2dVertex
 10
87.5249581472703
 20
-30.06123046875791
 30
0.0
  0
VERTEX
  5
257
330
1CC
100
AcDbEntity
  8
1_ANYTOOL_1MMDEEP_LABELS_S
100
AcDbVertex
100
AcDb2dVertex
 10
87.20206473209169
 20
-29.96501116072224
 30
0.0
  0
VERTEX
  5
258
330
1CC
100
AcDbEntity
  8
1_ANYTOOL_1MMDEEP_LABELS_S
100
AcDbVertex
100
AcDb2dVertex
 10
87.04309779570774
 20
-29.91310337612406
 30
0.0
  0
VERTEX
  5
259
330
1CC
100
AcDbEntity
  8
1_ANYTOOL_1MMDEEP_LABELS_S
100
AcDbVertex
100
AcDb2dVertex
 10
86.88578404012736
 20
-29.8586635044723
 30
0.0
  0
VERTEX
  5
25A
330
1CC
100
AcDbEntity
  8
1_ANYTOOL_1MMDEEP_LABELS_S
100
AcDbVertex
100
AcDb2dVertex
 10
86.73012346535056
 20
-29.80169154576697
 30
0.0
  0
VERTEX
  5
25B
330
1CC
100
AcDbEntity
  8
1_ANYTOOL_1MMDEEP_LABELS_S
100
AcDbVertex
100
AcDb2dVertex
 10
86.57611607137733
 20
-29.74218750000807
 30
0.0
  0
VERTEX
  5
25C
330
1CC
100
AcDbEntity
  8
1_ANYTOOL_1MMDEEP_LABELS_S
100
AcDbVertex
100
AcDb2dVertex
 10
86.42376185820767
 20
-29.68015136719561
 30
0.0
  0
VERTEX
  5
25D
330
1CC
100
AcDbEntity
  8
1_ANYTOOL_1MMDEEP_LABELS_S
100
AcDbVertex
100
AcDb2dVertex
 10
86.27306082584158
 20
-29.61558314732957
 30
0.0
  0
VERTEX
  5
25E
330
1CC
100
AcDbEntity
  8
1_ANYTOOL_1MMDEEP_LABELS_S
100
AcDbVertex
100
AcDb2dVertex
 10
86.12401297427907
 20
-29.54848284040996
 30
0.0
  0
VERTEX
  5
25F
330
1CC
100
AcDbEntity
  8
1_ANYTOOL_1MMDEEP_LABELS_S
100
AcDbVertex
100
AcDb2dVertex
 10
85.97661830352013
 20
-29.47885044643678
 30
0.0
  0
VERTEX
  5
260
330
1CC
100
AcDbEntity
  8
1_ANYTOOL_1MMDEEP_LABELS_S
100
AcDbVertex
100
AcDb2dVertex
 10
85.83087681356476
 20
-29.40668596541003
 30
0.0
  0
VERTEX
  5
261
330
1CC
100
AcDbEntity
  8
1_ANYTOOL_1MMDEEP_LABELS_S
100
AcDbVertex
100
AcDb2dVertex
 10
85.68678850441296
 20
-29.33198939732971
 30
0.0
  0
VERTEX
  5
262
330
1CC
100
AcDbEntity
  8
1_ANYTOOL_1MMDEEP_LABELS_S
100
AcDbVertex
100
AcDb2dVertex
 10
85.54435337606473
 20
-29.25476074219583
 30
0.0
  0
VERTEX
  5
263
330
1CC
100
AcDbEntity
  8
1_ANYTOOL_1MMDEEP_LABELS_S
100
AcDbVertex
100
AcDb2dVertex
 10
85.40357142852008
 20
-29.17500000000837
 30
0.0
  0
VERTEX
  5
264
330
1CC
100
AcDbEntity
  8
1_ANYTOOL_1MMDEEP_LABELS_S
100
AcDbVertex
100
AcDb2dVertex
 10
85.264442661779
 20
-29.09270717076734
 30
0.0
  0
VERTEX
  5
265
330
1CC
100
AcDbEntity
  8
1_ANYTOOL_1MMDEEP_LABELS_S
100
AcDbVertex
100
AcDb2dVertex
 10
85.12696707584149
 20
-29.00788225447274
 30
0.0
  0
VERTEX
  5
266
330
1CC
100
AcDbEntity
  8
1_ANYTOOL_1MMDEEP_LABELS_S
100
AcDbVertex
100
AcDb2dVertex
 10
84.99114467070756
 20
-28.92052525112457
 30
0.0
  0
VERTEX
  5
267
330
1CC
100
AcDbEntity
  8
1_ANYTOOL_1MMDEEP_LABELS_S
100
AcDbVertex
100
AcDb2dVertex
 10
84.85697544637719
 20
-28.83063616072283
 30
0.0
  0
VERTEX
  5
268
330
1CC
100
AcDbEntity
  8
1_ANYTOOL_1MMDEEP_LABELS_S
100
AcDbVertex
100
AcDb2dVertex
 10
84.7244594028504
 20
-28.73821498326753
 30
0.0
  0
VERTEX
  5
269
330
1CC
100
AcDbEntity
  8
1_ANYTOOL_1MMDEEP_LABELS_S
100
AcDbVertex
100
AcDb2dVertex
 10
84.59359654012718
 20
-28.64326171875864
 30
0.0
  0
VERTEX
  5
26A
330
1CC
100
AcDbEntity
  8
1_ANYTOOL_1MMDEEP_LABELS_S
100
AcDbVertex
100
AcDb2dVertex
 10
84.46438685820753
 20
-28.5457763671962
 30
0.0
  0
VERTEX
  5
26B
330
1CC
100
AcDbEntity
  8
1_ANYTOOL_1MMDEEP_LABELS_S
100
AcDbVertex
100
AcDb2dVertex
 10
84.33683035709146
 20
-28.44575892858018
 30
0.0
  0
VERTEX
  5
26C
330
1CC
100
AcDbEntity
  8
1_ANYTOOL_1MMDEEP_LABELS_S
100
AcDbVertex
100
AcDb2dVertex
 10
84.21092703677895
 20
-28.34320940291059
 30
0.0
  0
VERTEX
  5
26D
330
1CC
100
AcDbEntity
  8
1_ANYTOOL_1MMDEEP_LABELS_S
100
AcDbVertex
100
AcDb2dVertex
 10
84.08667689727002
 20
-28.23812779018743
 30
0.0
  0
VERTEX
  5
26E
330
1CC
100
AcDbEntity
  8
1_ANYTOOL_1MMDEEP_LABELS_S
100
AcDbVertex
100
AcDb2dVertex
 10
83.96407993856467
 20
-28.1305140904107
 30
0.0
  0
VERTEX
  5
26F
330
1CC
100
AcDbEntity
  8
1_ANYTOOL_1MMDEEP_LABELS_S
100
AcDbVertex
100
AcDb2dVertex
 10
83.84313616066288
 20
-28.0203683035804
 30
0.0
  0
VERTEX
  5
270
330
1CC
100
AcDbEntity
  8
1_ANYTOOL_1MMDEEP_LABELS_S
100
AcDbVertex
100
AcDb2dVertex
 10
83.72384556356467
 20
-27.90769042969653
 30
0.0
  0
VERTEX
  5
271
330
1CC
100
AcDbEntity
  8
1_ANYTOOL_1MMDEEP_LABELS_S
100
AcDbVertex
100
AcDb2dVertex
 10
83.60620814727002
 20
-27.79248046875909
 30
0.0
  0
VERTEX
  5
272
330
1CC
100
AcDbEntity
  8
1_ANYTOOL_1MMDEEP_LABELS_S
100
AcDbVertex
100
AcDb2dVertex
 10
83.49022391177895
 20
-27.67473842076808
 30
0.0
  0
VERTEX
  5
273
330
1CC
100
AcDbEntity
  8
1_ANYTOOL_1MMDEEP_LABELS_S
100
AcDbVertex
100
AcDb2dVertex
 10
83.37589285709146
 20
-27.5544642857235
 30
0.0
  0
VERTEX
  5
274
330
1CC
100
AcDbEntity
  8
1_ANYTOOL_1MMDEEP_LABELS_S
100
AcDbVertex
100
AcDb2dVertex
 10
83.26321498320753
 20
-27.43165806362535
 30
0.0
  0
VERTEX
  5
275
330
1CC
100
AcDbEntity
  8
1_ANYTOOL_1MMDEEP_LABELS_S
100
AcDbVertex
100
AcDb2dVertex
 10
83.15219029012718
 20
-27.30631975447363
 30
0.0
  0
VERTEX
  5
276
330
1CC
100
AcDbEntity
  8
1_ANYTOOL_1MMDEEP_LABELS_S
100
AcDbVertex
100
AcDb2dVertex
 10
82.93510044637719
 20
-27.04804687500948
 30
0.0
  0
VERTEX
  5
277
330
1CC
100
AcDbEntity
  8
1_ANYTOOL_1MMDEEP_LABELS_S
100
AcDbVertex
100
AcDb2dVertex
 10
82.72462332584149
 20
-26.77964564733104
 30
0.0
  0
VERTEX
  5
278
330
1CC
100
AcDbEntity
  8
1_ANYTOOL_1MMDEEP_LABELS_S
100
AcDbVertex
100
AcDb2dVertex
 10
82.52075892852008
 20
-26.50111607143833
 30
0.0
  0
VERTEX
  5
279
330
1CC
100
AcDbEntity
  8
1_ANYTOOL_1MMDEEP_LABELS_S
100
AcDbVertex
100
AcDb2dVertex
 10
82.32350725441296
 20
-26.21245814733134
 30
0.0
  0
VERTEX
  5
27A
330
1CC
100
AcDbEntity
  8
1_ANYTOOL_1MMDEEP_LABELS_S
100
AcDbVertex
100
AcDb2dVertex
 10
82.13286830352013
 20
-25.91367187501007
 30
0.0
  0
VERTEX
  5
27B
330
1CC
100
AcDbEntity
  8
1_ANYTOOL_1MMDEEP_LABELS_S
100
AcDbVertex
100
AcDb2dVertex
 10
81.94884207584158
 20
-25.60475725447451
 30
0.0
  0
VERTEX
  5
27C
330
1CC
100
AcDbEntity
  8
1_ANYTOOL_1MMDEEP_LABELS_S
100
AcDbVertex
100
AcDb2dVertex
 10
81.77142857137733
 20
-25.28571428572468
 30
0.0
  0
VERTEX
  5
27D
330
1CC
100
AcDbEntity
  8
1_ANYTOOL_1MMDEEP_LABELS_S
100
AcDbVertex
100
AcDb2dVertex
 10
81.43928571423446
 20
-24.63733258929557
 30
0.0
  0
VERTEX
  5
27E
330
1CC
100
AcDbEntity
  8
1_ANYTOOL_1MMDEEP_LABELS_S
100
AcDbVertex
100
AcDb2dVertex
 10
81.12857142852016
 20
-23.98861607143795
 30
0.0
  0
VERTEX
  5
27F
330
1CC
100
AcDbEntity
  8
1_ANYTOOL_1MMDEEP_LABELS_S
100
AcDbVertex
100
AcDb2dVertex
 10
80.83928571423444
 20
-23.33956473215181
 30
0.0
  0
VERTEX
  5
280
330
1CC
100
AcDbEntity
  8
1_ANYTOOL_1MMDEEP_LABELS_S
100
AcDbVertex
100
AcDb2dVertex
 10
80.57142857137728
 20
-22.69017857143717
 30
0.0
  0
VERTEX
  5
281
330
1CC
100
AcDbEntity
  8
1_ANYTOOL_1MMDEEP_LABELS_S
100
AcDbVertex
100
AcDb2dVertex
 10
80.3249999999487
 20
-22.04045758929402
 30
0.0
  0
VERTEX
  5
282
330
1CC
100
AcDbEntity
  8
1_ANYTOOL_1MMDEEP_LABELS_S
100
AcDbVertex
100
AcDb2dVertex
 10
80.0999999999487
 20
-21.39040178572236
 30
0.0
  0
VERTEX
  5
283
330
1CC
100
AcDbEntity
  8
1_ANYTOOL_1MMDEEP_LABELS_S
100
AcDbVertex
100
AcDb2dVertex
 10
79.89642857137726
 20
-20.74001116072219
 30
0.0
  0
VERTEX
  5
284
330
1CC
100
AcDbEntity
  8
1_ANYTOOL_1MMDEEP_LABELS_S
100
AcDbVertex
100
AcDb2dVertex
 10
79.71428571423439
 20
-20.08928571429351
 30
0.0
  0
VERTEX
  5
285
330
1CC
100
AcDbEntity
  8
1_ANYTOOL_1MMDEEP_LABELS_S
100
AcDbVertex
100
AcDb2dVertex
 10
79.5535714285201
 20
-19.43822544643632
 30
0.0
  0
VERTEX
  5
286
330
1CC
100
AcDbEntity
  8
1_ANYTOOL_1MMDEEP_LABELS_S
100
AcDbVertex
100
AcDb2dVertex
 10
79.41428571423438
 20
-18.78683035715062
 30
0.0
  0
VERTEX
  5
287
330
1CC
100
AcDbEntity
  8
1_ANYTOOL_1MMDEEP_LABELS_S
100
AcDbVertex
100
AcDb2dVertex
 10
79.29642857137723
 20
-18.13510044643641
 30
0.0
  0
VERTEX
  5
288
330
1CC
100
AcDbEntity
  8
1_ANYTOOL_1MMDEEP_LABELS_S
100
AcDbVertex
100
AcDb2dVertex
 10
79.19999999994866
 20
-17.48303571429369
 30
0.0
  0
VERTEX
  5
289
330
1CC
100
AcDbEntity
  8
1_ANYTOOL_1MMDEEP_LABELS_S
100
AcDbVertex
100
AcDb2dVertex
 10
79.12499999994866
 20
-16.83063616072246
 30
0.0
  0
VERTEX
  5
28A
330
1CC
100
AcDbEntity
  8
1_ANYTOOL_1MMDEEP_LABELS_S
100
AcDbVertex
100
AcDb2dVertex
 10
79.07142857137723
 20
-16.17790178572272
 30
0.0
  0
VERTEX
  5
28B
330
1CC
100
AcDbEntity
  8
1_ANYTOOL_1MMDEEP_LABELS_S
100
AcDbVertex
100
AcDb2dVertex
 10
79.03928571423437
 20
-15.52483258929448
 30
0.0
  0
VERTEX
  5
28C
330
1CC
100
AcDbEntity
  8
1_ANYTOOL_1MMDEEP_LABELS_S
100
AcDbVertex
100
AcDb2dVertex
 10
79.02857142852008
 20
-14.87142857143772
 30
0.0
  0
VERTEX
  5
28D
330
1CC
100
AcDbEntity
  8
1_ANYTOOL_1MMDEEP_LABELS_S
100
AcDbVertex
100
AcDb2dVertex
 10
79.03978794637723
 20
-14.1780133928664
 30
0.0
  0
VERTEX
  5
28E
330
1CC
100
AcDbEntity
  8
1_ANYTOOL_1MMDEEP_LABELS_S
100
AcDbVertex
100
AcDb2dVertex
 10
79.07343749994865
 20
-13.49062500000935
 30
0.0
  0
VERTEX
  5
28F
330
1CC
100
AcDbEntity
  8
1_ANYTOOL_1MMDEEP_LABELS_S
100
AcDbVertex
100
AcDb2dVertex
 10
79.12952008923438
 20
-12.80926339286654
 30
0.0
  0
VERTEX
  5
290
330
1CC
100
AcDbEntity
  8
1_ANYTOOL_1MMDEEP_LABELS_S
100
AcDbVertex
100
AcDb2dVertex
 10
79.20803571423437
 20
-12.13392857143799
 30
0.0
  0
VERTEX
  5
291
330
1CC
100
AcDbEntity
  8
1_ANYTOOL_1MMDEEP_LABELS_S
100
AcDbVertex
100
AcDb2dVertex
 10
79.30898437494866
 20
-11.4646205357237
 30
0.0
  0
VERTEX
  5
292
330
1CC
100
AcDbEntity
  8
1_ANYTOOL_1MMDEEP_LABELS_S
100
AcDbVertex
100
AcDb2dVertex
 10
79.43236607137723
 20
-10.80133928572366
 30
0.0
  0
VERTEX
  5
293
330
1CC
100
AcDbEntity
  8
1_ANYTOOL_1MMDEEP_LABELS_S
100
AcDbVertex
100
AcDb2dVertex
 10
79.5781808035201
 20
-10.14408482143787
 30
0.0
  0
VERTEX
  5
294
330
1CC
100
AcDbEntity
  8
1_ANYTOOL_1MMDEEP_LABELS_S
100
AcDbVertex
100
AcDb2dVertex
 10
79.74642857137724
 20
-9.492857142866342
 30
0.0
  0
VERTEX
  5
295
330
1CC
100
AcDbEntity
  8
1_ANYTOOL_1MMDEEP_LABELS_S
100
AcDbVertex
100
AcDb2dVertex
 10
79.93710937494868
 20
-8.847656250009067
 30
0.0
  0
VERTEX
  5
296
330
1CC
100
AcDbEntity
  8
1_ANYTOOL_1MMDEEP_LABELS_S
100
AcDbVertex
100
AcDb2dVertex
 10
80.15022321423439
 20
-8.208482142866046
 30
0.0
  0
VERTEX
  5
297
330
1CC
100
AcDbEntity
  8
1_ANYTOOL_1MMDEEP_LABELS_S
100
AcDbVertex
100
AcDb2dVertex
 10
80.3857700892344
 20
-7.575334821437281
 30
0.0
  0
VERTEX
  5
298
330
1CC
100
AcDbEntity
  8
1_ANYTOOL_1MMDEEP_LABELS_S
100
AcDbVertex
100
AcDb2dVertex
 10
80.64374999994868
 20
-6.94821428572277
 30
0.0
  0
VERTEX
  5
299
330
1CC
100
AcDbEntity
  8
1_ANYTOOL_1MMDEEP_LABELS_S
100
AcDbVertex
100
AcDb2dVertex
 10
80.92416294637727
 20
-6.327120535722514
 30
0.0
  0
VERTEX
  5
29A
330
1CC
100
AcDbEntity
  8
1_ANYTOOL_1MMDEEP_LABELS_S
100
AcDbVertex
100
AcDb2dVertex
 10
81.22700892852012
 20
-5.712053571436513
 30
0.0
  0
VERTEX
  5
29B
330
1CC
100
AcDbEntity
  8
1_ANYTOOL_1MMDEEP_LABELS_S
100
AcDbVertex
100
AcDb2dVertex
 10
81.55228794637728
 20
-5.103013392864767
 30
0.0
  0
VERTEX
  5
29C
330
1CC
100
AcDbEntity
  8
1_ANYTOOL_1MMDEEP_LABELS_S
100
AcDbVertex
100
AcDb2dVertex
 10
81.8999999999487
 20
-4.500000000007276
 30
0.0
  0
VERTEX
  5
29D
330
1CC
100
AcDbEntity
  8
1_ANYTOOL_1MMDEEP_LABELS_S
100
AcDbVertex
100
AcDb2dVertex
 10
82.0854073660202
 20
-4.202050781257135
 30
0.0
  0
VERTEX
  5
29E
330
1CC
100
AcDbEntity
  8
1_ANYTOOL_1MMDEEP_LABELS_S
100
AcDbVertex
100
AcDb2dVertex
 10
82.27734374994886
 20
-3.913560267864142
 30
0.0
  0
VERTEX
  5
29F
330
1CC
100
AcDbEntity
  8
1_ANYTOOL_1MMDEEP_LABELS_S
100
AcDbVertex
100
AcDb2dVertex
 10
82.47580915173464
 20
-3.634528459828296
 30
0.0
  0
VERTEX
  5
2A0
330
1CC
100
AcDbEntity
  8
1_ANYTOOL_1MMDEEP_LABELS_S
100
AcDbVertex
100
AcDb2dVertex
 10
82.68080357137757
 20
-3.364955357149597
 30
0.0
  0
VERTEX
  5
2A1
330
1CC
100
AcDbEntity
  8
1_ANYTOOL_1MMDEEP_LABELS_S
100
AcDbVertex
100
AcDb2dVertex
 10
82.89232700887763
 20
-3.104840959828046
 30
0.0
  0
VERTEX
  5
2A2
330
1CC
100
AcDbEntity
  8
1_ANYTOOL_1MMDEEP_LABELS_S
100
AcDbVertex
100
AcDb2dVertex
 10
83.11037946423484
 20
-2.854185267863642
 30
0.0
  0
VERTEX
  5
2A3
330
1CC
100
AcDbEntity
  8
1_ANYTOOL_1MMDEEP_LABELS_S
100
AcDbVertex
100
AcDb2dVertex
 10
83.33496093744918
 20
-2.612988281256385
 30
0.0
  0
VERTEX
  5
2A4
330
1CC
100
AcDbEntity
  8
1_ANYTOOL_1MMDEEP_LABELS_S
100
AcDbVertex
100
AcDb2dVertex
 10
83.56607142852067
 20
-2.381250000006276
 30
0.0
  0
VERTEX
  5
2A5
330
1CC
100
AcDbEntity
  8
1_ANYTOOL_1MMDEEP_LABELS_S
100
AcDbVertex
100
AcDb2dVertex
 10
83.68407505575284
 20
-2.268927873890151
 30
0.0
  0
VERTEX
  5
2A6
330
1CC
100
AcDbEntity
  8
1_ANYTOOL_1MMDEEP_LABELS_S
100
AcDbVertex
100
AcDb2dVertex
 10
83.8037109374493
 20
-2.158970424113313
 30
0.0
  0
VERTEX
  5
2A7
330
1CC
100
AcDbEntity
  8
1_ANYTOOL_1MMDEEP_LABELS_S
100
AcDbVertex
100
AcDb2dVertex
 10
83.92497907361005
 20
-2.051377650675763
 30
0.0
  0
VERTEX
  5
2A8
330
1CC
100
AcDbEntity
  8
1_ANYTOOL_1MMDEEP_LABELS_S
100
AcDbVertex
100
AcDb2dVertex
 10
84.04787946423507
 20
-1.946149553577499
 30
0.0
  0
VERTEX
  5
2A9
330
1CC
100
AcDbEntity
  8
1_ANYTOOL_1MMDEEP_LABELS_S
100
AcDbVertex
100
AcDb2dVertex
 10
84.17241210932437
 20
-1.843286132818521
 30
0.0
  0
VERTEX
  5
2AA
330
1CC
100
AcDbEntity
  8
1_ANYTOOL_1MMDEEP_LABELS_S
100
AcDbVertex
100
AcDb2dVertex
 10
84.29857700887797
 20
-1.742787388398831
 30
0.0
  0
VERTEX
  5
2AB
330
1CC
100
AcDbEntity
  8
1_ANYTOOL_1MMDEEP_LABELS_S
100
AcDbVertex
100
AcDb2dVertex
 10
84.42637416289585
 20
-1.644653320318428
 30
0.0
  0
VERTEX
  5
2AC
330
1CC
100
AcDbEntity
  8
1_ANYTOOL_1MMDEEP_LABELS_S
100
AcDbVertex
100
AcDb2dVertex
 10
84.55580357137802
 20
-1.548883928577311
 30
0.0
  0
VERTEX
  5
2AD
330
1CC
100
AcDbEntity
  8
1_ANYTOOL_1MMDEEP_LABELS_S
100
AcDbVertex
100
AcDb2dVertex
 10
84.68686523432447
 20
-1.455479213175481
 30
0.0
  0
VERTEX
  5
2AE
330
1CC
100
AcDbEntity
  8
1_ANYTOOL_1MMDEEP_LABELS_S
100
AcDbVertex
100
AcDb2dVertex
 10
84.8195591517352
 20
-1.364439174112938
 30
0.0
  0
VERTEX
  5
2AF
330
1CC
100
AcDbEntity
  8
1_ANYTOOL_1MMDEEP_LABELS_S
100
AcDbVertex
100
AcDb2dVertex
 10
84.95388532361024
 20
-1.275763811389682
 30
0.0
  0
VERTEX
  5
2B0
330
1CC
100
AcDbEntity
  8
1_ANYTOOL_1MMDEEP_LABELS_S
100
AcDbVertex
100
AcDb2dVertex
 10
85.08984374994954
 20
-1.189453125005713
 30
0.0
  0
VERTEX
  5
2B1
330
1CC
100
AcDbEntity
  8
1_ANYTOOL_1MMDEEP_LABELS_S
100
AcDbVertex
100
AcDb2dVertex
 10
85.22743443075312
 20
-1.10550711496103
 30
0.0
  0
VERTEX
  5
2B2
330
1CC
100
AcDbEntity
  8
1_ANYTOOL_1MMDEEP_LABELS_S
100
AcDbVertex
100
AcDb2dVertex
 10
85.366657366021
 20
-1.023925781255635
 30
0.0
  0
VERTEX
  5
2B3
330
1CC
100
AcDbEntity
  8
1_ANYTOOL_1MMDEEP_LABELS_S
100
AcDbVertex
100
AcDb2dVertex
 10
85.50751255575317
 20
-0.9447091238895258
 30
0.0
  0
VERTEX
  5
2B4
330
1CC
100
AcDbEntity
  8
1_ANYTOOL_1MMDEEP_LABELS_S
100
AcDbVertex
100
AcDb2dVertex
 10
85.64999999994961
 20
-0.8678571428627038
 30
0.0
  0
VERTEX
  5
2B5
330
1CC
100
AcDbEntity
  8
1_ANYTOOL_1MMDEEP_LABELS_S
100
AcDbVertex
100
AcDb2dVertex
 10
85.79411969861034
 20
-0.7933698381751686
 30
0.0
  0
VERTEX
  5
2B6
330
1CC
100
AcDbEntity
  8
1_ANYTOOL_1MMDEEP_LABELS_S
100
AcDbVertex
100
AcDb2dVertex
 10
85.93987165173536
 20
-0.7212472098269203
 30
0.0
  0
VERTEX
  5
2B7
330
1CC
100
AcDbEntity
  8
1_ANYTOOL_1MMDEEP_LABELS_S
100
AcDbVertex
100
AcDb2dVertex
 10
86.23627232137825
 20
-0.5840959821482841
 30
0.0
  0
VERTEX
  5
2B8
330
1CC
100
AcDbEntity
  8
1_ANYTOOL_1MMDEEP_LABELS_S
100
AcDbVertex
100
AcDb2dVertex
 10
86.53920200887828
 20
-0.4564034598267952
 30
0.0
  0
VERTEX
  5
2B9
330
1CC
100
AcDbEntity
  8
1_ANYTOOL_1MMDEEP_LABELS_S
100
AcDbVertex
100
AcDb2dVertex
 10
86.84866071423545
 20
-0.3381696428624537
 30
0.0
  0
VERTEX
  5
2BA
330
1CC
100
AcDbEntity
  8
1_ANYTOOL_1MMDEEP_LABELS_S
100
AcDbVertex
100
AcDb2dVertex
 10
87.16464843744976
 20
-0.2293945312552594
 30
0.0
  0
VERTEX
  5
2BB
330
1CC
100
AcDbEntity
  8
1_ANYTOOL_1MMDEEP_LABELS_S
100
AcDbVertex
100
AcDb2dVertex
 10
87.48716517852121
 20
-0.1300781250052125
 30
0.0
  0
VERTEX
  5
2BC
330
1CC
100
AcDbEntity
  8
1_ANYTOOL_1MMDEEP_LABELS_S
100
AcDbVertex
100
AcDb2dVertex
 10
87.8162109374498
 20
-0.040220424112313
 30
0.0
  0
VERTEX
  5
2BD
330
1CC
100
AcDbEntity
  8
1_ANYTOOL_1MMDEEP_LABELS_S
100
AcDbVertex
100
AcDb2dVertex
 10
88.15178571423553
 20
0.0401785714234393
 30
0.0
  0
VERTEX
  5
2BE
330
1CC
100
AcDbEntity
  8
1_ANYTOOL_1MMDEEP_LABELS_S
100
AcDbVertex
100
AcDb2dVertex
 10
88.4938895088784
 20
0.1111188616020442
 30
0.0
  0
VERTEX
  5
2BF
330
1CC
100
AcDbEntity
  8
1_ANYTOOL_1MMDEEP_LABELS_S
100
AcDbVertex
100
AcDb2dVertex
 10
88.84252232137841
 20
0.1726004464235018
 30
0.0
  0
VERTEX
  5
2C0
330
1CC
100
AcDbEntity
  8
1_ANYTOOL_1MMDEEP_LABELS_S
100
AcDbVertex
100
AcDb2dVertex
 10
89.19768415173556
 20
0.2246233258878121
 30
0.0
  0
VERTEX
  5
2C1
330
1CC
100
AcDbEntity
  8
1_ANYTOOL_1MMDEEP_LABELS_S
100
AcDbVertex
100
AcDb2dVertex
 10
89.55937499994985
 20
0.267187499994975
 30
0.0
  0
VERTEX
  5
2C2
330
1CC
100
AcDbEntity
  8
1_ANYTOOL_1MMDEEP_LABELS_S
100
AcDbVertex
100
AcDb2dVertex
 10
89.92759486602128
 20
0.3002929687449907
 30
0.0
  0
VERTEX
  5
2C3
330
1CC
100
AcDbEntity
  8
1_ANYTOOL_1MMDEEP_LABELS_S
100
AcDbVertex
100
AcDb2dVertex
 10
90.30234374994986
 20
0.323939732137859
 30
0.0
  0
VERTEX
  5
2C4
330
1CC
100
AcDbEntity
  8
1_ANYTOOL_1MMDEEP_LABELS_S
100
AcDbVertex
100
AcDb2dVertex
 10
90.68362165173556
 20
0.33812779017358
 30
0.0
  0
SEQEND
  5
2C5
330
1CC
100
AcDbEntity
  8
1_ANYTOOL_1MMDEEP_LABELS_S
  0
POLYLINE
  5
2C7
330
1F
100
AcDbEntity
  8
5_ANYTOOL_HALF_MILL_9MM_IN
100
AcDb2dPolyline
 66
     1
 10
0.0
 20
0.0
 30
0.0000000000392315
 70
     1
  0
VERTEX
  5
2C8
330
2C7
100
AcDbEntity
  8
5_ANYTOOL_HALF_MILL_9MM_IN
100
AcDbVertex
100
AcDb2dVertex
 10
255.3679225406559
 20
254.3833260012761
 30
0.0000000000392315
 42
-1.000000000000171
  0
VERTEX
  5
2C9
330
2C7
100
AcDbEntity
  8
5_ANYTOOL_HALF_MILL_9MM_IN
100
AcDbVertex
100
AcDb2dVertex
 10
212.8679225406486
 20
254.3833260012543
 30
0.0000000000392315
  0
VERTEX
  5
2CA
330
2C7
100
AcDbEntity
  8
5_ANYTOOL_HALF_MILL_9MM_IN
100
AcDbVertex
100
AcDb2dVertex
 10
212.8679225406377
 20
260.6333260012543
 30
0.0000000000392315
  0
VERTEX
  5
2CB
330
2C7
100
AcDbEntity
  8
5_ANYTOOL_HALF_MILL_9MM_IN
100
AcDbVertex
100
AcDb2dVertex
 10
255.3679225406504
 20
260.6333260012761
 30
0.0000000000392315
  0
SEQEND
  5
2CC
330
2C7
100
AcDbEntity
  8
5_ANYTOOL_HALF_MILL_9MM_IN
  0
POLYLINE
  5
2CD
330
1F
100
AcDbEntity
  8
5_ANYTOOL_HALF_MILL_9MM_IN
100
AcDb2dPolyline
 66
     1
 10
0.0
 20
0.0
 30
-0.0000000000042783
 70
     1
  0
VERTEX
  5
2CE
330
2CD
100
AcDbEntity
  8
5_ANYTOOL_HALF_MILL_9MM_IN
100
AcDbVertex
100
AcDb2dVertex
 10
17.9619225396782
 20
254.3833260012034
 30
-0.0000000000042783
 42
0.9999999999998287
  0
VERTEX
  5
2CF
330
2CD
100
AcDbEntity
  8
5_ANYTOOL_HALF_MILL_9MM_IN
100
AcDbVertex
100
AcDb2dVertex
 10
60.46192253970003
 20
254.3833260012252
 30
-0.0000000000042783
  0
VERTEX
  5
2D0
330
2CD
100
AcDbEntity
  8
5_ANYTOOL_HALF_MILL_9MM_IN
100
AcDbVertex
100
AcDb2dVertex
 10
60.46192253968729
 20
260.6333260012252
 30
-0.0000000000042783
  0
VERTEX
  5
2D1
330
2CD
100
AcDbEntity
  8
5_ANYTOOL_HALF_MILL_9MM_IN
100
AcDbVertex
100
AcDb2dVertex
 10
17.96192253967274
 20
260.6333260012034
 30
-0.0000000000042783
  0
SEQEND
  5
2D2
330
2CD
100
AcDbEntity
  8
5_ANYTOOL_HALF_MILL_9MM_IN
  0
POLYLINE
  5
2D3
330
1F
100
AcDbEntity
  8
5_ANYTOOL_HALF_MILL_9MM_IN
100
AcDb2dPolyline
 66
     1
 10
0.0
 20
0.0
 30
0.0000000009998722
 70
     1
  0
VERTEX
  5
2D4
330
2D3
100
AcDbEntity
  8
5_ANYTOOL_HALF_MILL_9MM_IN
100
AcDbVertex
100
AcDb2dVertex
 10
-344.6320774603737
 20
254.3833260008541
 30
0.0000000009998722
 42
-0.9999999999994863
  0
VERTEX
  5
2D5
330
2D3
100
AcDbEntity
  8
5_ANYTOOL_HALF_MILL_9MM_IN
100
AcDbVertex
100
AcDb2dVertex
 10
-387.1320774603992
 20
254.3833260008614
 30
0.0000000009998722
  0
VERTEX
  5
2D6
330
2D3
100
AcDbEntity
  8
5_ANYTOOL_HALF_MILL_9MM_IN
100
AcDbVertex
100
AcDb2dVertex
 10
-387.1320774603828
 20
260.6333260008614
 30
0.0000000009998722
  0
VERTEX
  5
2D7
330
2D3
100
AcDbEntity
  8
5_ANYTOOL_HALF_MILL_9MM_IN
100
AcDbVertex
100
AcDb2dVertex
 10
-344.6320774603682
 20
260.6333260008541
 30
0.0000000009998722
  0
SEQEND
  5
2D8
330
2D3
100
AcDbEntity
  8
5_ANYTOOL_HALF_MILL_9MM_IN
  0
POLYLINE
  5
2D9
330
1F
100
AcDbEntity
  8
5_ANYTOOL_HALF_MILL_9MM_IN
100
AcDb2dPolyline
 66
     1
 10
0.0
 20
0.0
 30
0.000000000006669
 70
     1
  0
VERTEX
  5
2DA
330
2D9
100
AcDbEntity
  8
5_ANYTOOL_HALF_MILL_9MM_IN
100
AcDbVertex
100
AcDb2dVertex
 10
617.9619225403912
 20
254.383326001669
 30
0.000000000006669
 42
0.9999999999994863
  0
VERTEX
  5
2DB
330
2D9
100
AcDbEntity
  8
5_ANYTOOL_HALF_MILL_9MM_IN
100
AcDbVertex
100
AcDb2dVertex
 10
660.4619225404094
 20
254.3833260016618
 30
0.000000000006669
  0
VERTEX
  5
2DC
330
2D9
100
AcDbEntity
  8
5_ANYTOOL_HALF_MILL_9MM_IN
100
AcDbVertex
100
AcDb2dVertex
 10
660.4619225404185
 20
260.6333260016618
 30
0.000000000006669
  0
VERTEX
  5
2DD
330
2D9
100
AcDbEntity
  8
5_ANYTOOL_HALF_MILL_9MM_IN
100
AcDbVertex
100
AcDb2dVertex
 10
617.9619225403931
 20
260.633326001669
 30
0.000000000006669
  0
SEQEND
  5
2DE
330
2D9
100
AcDbEntity
  8
5_ANYTOOL_HALF_MILL_9MM_IN
  0
POLYLINE
  5
2E0
330
1F
100
AcDbEntity
  8
3_ANYTOOL_CUTTHROUGH_INSID
100
AcDb2dPolyline
 66
     1
 10
0.0
 20
0.0
 30
0.0000000010007035
 70
     1
  0
VERTEX
  5
2E1
330
2E0
100
AcDbEntity
  8
3_ANYTOOL_CUTTHROUGH_INSID
100
AcDbVertex
100
AcDb2dVertex
 10
-663.5850774605551
 20
89.13332600047579
 30
0.0000000010007035
  0
VERTEX
  5
2E2
330
2E0
100
AcDbEntity
  8
3_ANYTOOL_CUTTHROUGH_INSID
100
AcDbVertex
100
AcDb2dVertex
 10
-663.5850774605551
 20
-86.36667399842554
 30
0.0000000010007035
  0
VERTEX
  5
2E3
330
2E0
100
AcDbEntity
  8
3_ANYTOOL_CUTTHROUGH_INSID
100
AcDbVertex
100
AcDb2dVertex
 10
-669.5850774605588
 20
-86.36667399841826
 30
0.0000000010007035
  0
VERTEX
  5
2E4
330
2E0
100
AcDbEntity
  8
3_ANYTOOL_CUTTHROUGH_INSID
100
AcDbVertex
100
AcDb2dVertex
 10
-669.5850774605569
 20
-98.86667399841826
 30
0.0000000010007035
  0
VERTEX
  5
2E5
330
2E0
100
AcDbEntity
  8
3_ANYTOOL_CUTTHROUGH_INSID
100
AcDbVertex
100
AcDb2dVertex
 10
-639.0850774605278
 20
-98.86667399841099
 30
0.0000000010007035
  0
VERTEX
  5
2E6
330
2E0
100
AcDbEntity
  8
3_ANYTOOL_CUTTHROUGH_INSID
100
AcDbVertex
100
AcDb2dVertex
 10
-639.085077460526
 20
-86.36667399841099
 30
0.0000000010007035
  0
VERTEX
  5
2E7
330
2E0
100
AcDbEntity
  8
3_ANYTOOL_CUTTHROUGH_INSID
100
AcDbVertex
100
AcDb2dVertex
 10
-645.0850774605333
 20
-86.36667399842554
 30
0.0000000010007035
  0
VERTEX
  5
2E8
330
2E0
100
AcDbEntity
  8
3_ANYTOOL_CUTTHROUGH_INSID
100
AcDbVertex
100
AcDb2dVertex
 10
-645.0850774605478
 20
89.13332600047579
 30
0.0000000010007035
  0
VERTEX
  5
2E9
330
2E0
100
AcDbEntity
  8
3_ANYTOOL_CUTTHROUGH_INSID
100
AcDbVertex
100
AcDb2dVertex
 10
-639.0850774605442
 20
89.13332600045396
 30
0.0000000010007035
  0
VERTEX
  5
2EA
330
2E0
100
AcDbEntity
  8
3_ANYTOOL_CUTTHROUGH_INSID
100
AcDbVertex
100
AcDb2dVertex
 10
-639.0850774605406
 20
101.633326000454
 30
0.0000000010007035
  0
VERTEX
  5
2EB
330
2E0
100
AcDbEntity
  8
3_ANYTOOL_CUTTHROUGH_INSID
100
AcDbVertex
100
AcDb2dVertex
 10
-669.5850774605551
 20
101.6333260004758
 30
0.0000000010007035
  0
VERTEX
  5
2EC
330
2E0
100
AcDbEntity
  8
3_ANYTOOL_CUTTHROUGH_INSID
100
AcDbVertex
100
AcDb2dVertex
 10
-669.5850774605551
 20
89.13332600047579
 30
0.0000000010007035
  0
SEQEND
  5
2ED
330
2E0
100
AcDbEntity
  8
3_ANYTOOL_CUTTHROUGH_INSID
  0
POLYLINE
  5
2EF
330
1F
100
AcDbEntity
  8
4_ANYTOOL_CUTTHROUGH_OUTSI
100
AcDb2dPolyline
 66
     1
 10
0.0
 20
0.0
 30
0.0
 70
     1
  0
VERTEX
  5
2F0
330
2EF
100
AcDbEntity
  8
4_ANYTOOL_CUTTHROUGH_OUTSI
100
AcDbVertex
100
AcDb2dVertex
 10
684.4478871295141
 20
260.4659136078481
 30
0.0
  0
VERTEX
  5
2F1
330
2EF
100
AcDbEntity
  8
4_ANYTOOL_CUTTHROUGH_OUTSI
100
AcDbVertex
100
AcDb2dVertex
 10
667.5487741351262
 20
308.7495207807588
 30
0.0
  0
VERTEX
  5
2F2
330
2EF
100
AcDbEntity
  8
4_ANYTOOL_CUTTHROUGH_OUTSI
100
AcDbVertex
100
AcDb2dVertex
 10
667.3173598939369
 20
310.1333260016453
 30
0.0
  0
VERTEX
  5
2F3
330
2EF
100
AcDbEntity
  8
4_ANYTOOL_CUTTHROUGH_OUTSI
100
AcDbVertex
100
AcDb2dVertex
 10
706.4149225404908
 20
310.133326001669
 30
0.0
  0
VERTEX
  5
2F4
330
2EF
100
AcDbEntity
  8
4_ANYTOOL_CUTTHROUGH_OUTSI
100
AcDbVertex
100
AcDb2dVertex
 10
706.4149225404581
 20
286.383326001669
 30
0.0
 42
0.4142135624137103
  0
VERTEX
  5
2F5
330
2EF
100
AcDbEntity
  8
4_ANYTOOL_CUTTHROUGH_OUTSI
100
AcDbVertex
100
AcDb2dVertex
 10
706.6649225404581
 20
286.1333260016745
 30
0.0
  0
VERTEX
  5
2F6
330
2EF
100
AcDbEntity
  8
4_ANYTOOL_CUTTHROUGH_OUTSI
100
AcDbVertex
100
AcDb2dVertex
 10
713.801643576855
 20
286.1333260016618
 30
0.0
  0
VERTEX
  5
2F7
330
2EF
100
AcDbEntity
  8
4_ANYTOOL_CUTTHROUGH_OUTSI
100
AcDbVertex
100
AcDb2dVertex
 10
713.801643576855
 20
246.6304803881212
 30
0.0
 42
0.5023913917569771
  0
VERTEX
  5
2F8
330
2EF
100
AcDbEntity
  8
4_ANYTOOL_CUTTHROUGH_OUTSI
100
AcDbVertex
100
AcDb2dVertex
 10
721.8474213044157
 20
240.6440654375183
 30
0.0
 42
0.015610674554347
  0
VERTEX
  5
2F9
330
2EF
100
AcDbEntity
  8
4_ANYTOOL_CUTTHROUGH_OUTSI
100
AcDbVertex
100
AcDb2dVertex
 10
721.8622227562973
 20
240.6490143202098
 30
0.0
  0
VERTEX
  5
2FA
330
2EF
100
AcDbEntity
  8
4_ANYTOOL_CUTTHROUGH_OUTSI
100
AcDbVertex
100
AcDb2dVertex
 10
751.6304236385677
 20
251.6465065458979
 30
0.0
 42
-0.501976481917254
  0
VERTEX
  5
2FB
330
2EF
100
AcDbEntity
  8
4_ANYTOOL_CUTTHROUGH_OUTSI
100
AcDbVertex
100
AcDb2dVertex
 10
759.0252750976542
 20
246.1367899814359
 30
0.0
  0
VERTEX
  5
2FC
330
2EF
100
AcDbEntity
  8
4_ANYTOOL_CUTTHROUGH_OUTSI
100
AcDbVertex
100
AcDb2dVertex
 10
759.0257308902601
 20
197.6307054075223
 30
0.0
 42
-0.5019765309785766
  0
VERTEX
  5
2FD
330
2EF
100
AcDbEntity
  8
4_ANYTOOL_CUTTHROUGH_OUTSI
100
AcDbVertex
100
AcDb2dVertex
 10
751.6308774420309
 20
192.1209917860341
 30
0.0
  0
VERTEX
  5
2FE
330
2EF
100
AcDbEntity
  8
4_ANYTOOL_CUTTHROUGH_OUTSI
100
AcDbVertex
100
AcDb2dVertex
 10
721.8623631581777
 20
203.1180324849993
 30
0.0
 42
0.0156041603606488
  0
VERTEX
  5
2FF
330
2EF
100
AcDbEntity
  8
4_ANYTOOL_CUTTHROUGH_OUTSI
100
AcDbVertex
100
AcDb2dVertex
 10
721.847567861636
 20
203.1229792480809
 30
0.0
 42
0.5023969467382201
  0
VERTEX
  5
300
330
2EF
100
AcDbEntity
  8
4_ANYTOOL_CUTTHROUGH_OUTSI
100
AcDbVertex
100
AcDb2dVertex
 10
713.8016435768659
 20
197.1365637908675
 30
0.0
  0
VERTEX
  5
301
330
2EF
100
AcDbEntity
  8
4_ANYTOOL_CUTTHROUGH_OUTSI
100
AcDbVertex
100
AcDb2dVertex
 10
713.8020993694699
 20
148.630479216954
 30
0.0
 42
0.5023913917543487
  0
VERTEX
  5
302
330
2EF
100
AcDbEntity
  8
4_ANYTOOL_CUTTHROUGH_OUTSI
100
AcDbVertex
100
AcDb2dVertex
 10
721.8478770970323
 20
142.6440654409307
 30
0.0
 42
0.0156106730103796
  0
VERTEX
  5
303
330
2EF
100
AcDbEntity
  8
4_ANYTOOL_CUTTHROUGH_OUTSI
100
AcDbVertex
100
AcDb2dVertex
 10
721.8626785489142
 20
142.6490143236224
 30
0.0
  0
VERTEX
  5
304
330
2EF
100
AcDbEntity
  8
4_ANYTOOL_CUTTHROUGH_OUTSI
100
AcDbVertex
100
AcDb2dVertex
 10
751.6308794311772
 20
153.6465065492957
 30
0.0
 42
-0.5019764819143864
  0
VERTEX
  5
305
330
2EF
100
AcDbEntity
  8
4_ANYTOOL_CUTTHROUGH_OUTSI
100
AcDbVertex
100
AcDb2dVertex
 10
759.0257308902637
 20
148.1367899848483
 30
0.0
  0
VERTEX
  5
306
330
2EF
100
AcDbEntity
  8
4_ANYTOOL_CUTTHROUGH_OUTSI
100
AcDbVertex
100
AcDb2dVertex
 10
759.0261866828696
 20
99.63070541093475
 30
0.0
 42
-0.5019765309804151
  0
VERTEX
  5
307
330
2EF
100
AcDbEntity
  8
4_ANYTOOL_CUTTHROUGH_OUTSI
100
AcDbVertex
100
AcDb2dVertex
 10
751.6313332346434
 20
94.12099178945164
 30
0.0
  0
VERTEX
  5
308
330
2EF
100
AcDbEntity
  8
4_ANYTOOL_CUTTHROUGH_OUTSI
100
AcDbVertex
100
AcDb2dVertex
 10
721.8628189507908
 20
105.1180324884044
 30
0.0
 42
0.0156041593635336
  0
VERTEX
  5
309
330
2EF
100
AcDbEntity
  8
4_ANYTOOL_CUTTHROUGH_OUTSI
100
AcDbVertex
100
AcDb2dVertex
 10
721.8480236542509
 20
105.122979251486
 30
0.0
 42
0.5023969467404124
  0
VERTEX
  5
30A
330
2EF
100
AcDbEntity
  8
4_ANYTOOL_CUTTHROUGH_OUTSI
100
AcDbVertex
100
AcDb2dVertex
 10
713.8020993694754
 20
99.13656379427994
 30
0.0
  0
VERTEX
  5
30B
330
2EF
100
AcDbEntity
  8
4_ANYTOOL_CUTTHROUGH_OUTSI
100
AcDbVertex
100
AcDb2dVertex
 10
713.8025551620794
 20
50.6304792203664
 30
0.0
 42
0.5023913917574138
  0
VERTEX
  5
30C
330
2EF
100
AcDbEntity
  8
4_ANYTOOL_CUTTHROUGH_OUTSI
100
AcDbVertex
100
AcDb2dVertex
 10
721.8483328896345
 20
44.64406544433587
 30
0.0
 42
0.0156106747065194
  0
VERTEX
  5
30D
330
2EF
100
AcDbEntity
  8
4_ANYTOOL_CUTTHROUGH_OUTSI
100
AcDbVertex
100
AcDb2dVertex
 10
721.8631343415163
 20
44.64901432702749
 30
0.0
  0
VERTEX
  5
30E
330
2EF
100
AcDbEntity
  8
4_ANYTOOL_CUTTHROUGH_OUTSI
100
AcDbVertex
100
AcDb2dVertex
 10
751.6313352237885
 20
55.6465065527155
 30
0.0
 42
-0.501976481914727
  0
VERTEX
  5
30F
330
2EF
100
AcDbEntity
  8
4_ANYTOOL_CUTTHROUGH_OUTSI
100
AcDbVertex
100
AcDb2dVertex
 10
759.0261866828733
 20
50.13678998825344
 30
0.0
  0
VERTEX
  5
310
330
2EF
100
AcDbEntity
  8
4_ANYTOOL_CUTTHROUGH_OUTSI
100
AcDbVertex
100
AcDb2dVertex
 10
759.0266424754791
 20
1.6307054143399
 30
0.0
 42
-0.5019765309784329
  0
VERTEX
  5
311
330
2EF
100
AcDbEntity
  8
4_ANYTOOL_CUTTHROUGH_OUTSI
100
AcDbVertex
100
AcDb2dVertex
 10
751.6317890272505
 20
-3.879008207144966
 30
0.0
  0
VERTEX
  5
312
330
2EF
100
AcDbEntity
  8
4_ANYTOOL_CUTTHROUGH_OUTSI
100
AcDbVertex
100
AcDb2dVertex
 10
721.8632747433967
 20
7.118032491816848
 30
0.0
 42
0.0156041603553657
  0
VERTEX
  5
313
330
2EF
100
AcDbEntity
  8
4_ANYTOOL_CUTTHROUGH_OUTSI
100
AcDbVertex
100
AcDb2dVertex
 10
721.848479446855
 20
7.122979254898367
 30
0.0
 42
0.5023969467349538
  0
VERTEX
  5
314
330
2EF
100
AcDbEntity
  8
4_ANYTOOL_CUTTHROUGH_OUTSI
100
AcDbVertex
100
AcDb2dVertex
 10
713.8025551620849
 20
1.136563797685085
 30
0.0
  0
VERTEX
  5
315
330
2EF
100
AcDbEntity
  8
4_ANYTOOL_CUTTHROUGH_OUTSI
100
AcDbVertex
100
AcDb2dVertex
 10
713.803010954689
 20
-47.36952077622846
 30
0.0
 42
0.5023913917545821
  0
VERTEX
  5
316
330
2EF
100
AcDbEntity
  8
4_ANYTOOL_CUTTHROUGH_OUTSI
100
AcDbVertex
100
AcDb2dVertex
 10
721.8487886822513
 20
-53.35593455225181
 30
0.0
 42
0.0156106736763389
  0
VERTEX
  5
317
330
2EF
100
AcDbEntity
  8
4_ANYTOOL_CUTTHROUGH_OUTSI
100
AcDbVertex
100
AcDb2dVertex
 10
721.8635901341331
 20
-53.35098566956013
 30
0.0
  0
VERTEX
  5
318
330
2EF
100
AcDbEntity
  8
4_ANYTOOL_CUTTHROUGH_OUTSI
100
AcDbVertex
100
AcDb2dVertex
 10
751.6317910163962
 20
-42.35349344388669
 30
0.0
 42
-0.5019764819146058
  0
VERTEX
  5
319
330
2EF
100
AcDbEntity
  8
4_ANYTOOL_CUTTHROUGH_OUTSI
100
AcDbVertex
100
AcDb2dVertex
 10
759.0266424754827
 20
-47.86321000833413
 30
0.0
  0
VERTEX
  5
31A
330
2EF
100
AcDbEntity
  8
4_ANYTOOL_CUTTHROUGH_OUTSI
100
AcDbVertex
100
AcDb2dVertex
 10
759.0270982680886
 20
-96.36929458224768
 30
0.0
 42
-0.5019765309802326
  0
VERTEX
  5
31B
330
2EF
100
AcDbEntity
  8
4_ANYTOOL_CUTTHROUGH_OUTSI
100
AcDbVertex
100
AcDb2dVertex
 10
751.6322448198631
 20
-101.8790082037282
 30
0.0
  0
VERTEX
  5
31C
330
2EF
100
AcDbEntity
  8
4_ANYTOOL_CUTTHROUGH_OUTSI
100
AcDbVertex
100
AcDb2dVertex
 10
721.8637305360098
 20
-90.881967504778
 30
0.0
 42
0.0156041594441483
  0
VERTEX
  5
31D
330
2EF
100
AcDbEntity
  8
4_ANYTOOL_CUTTHROUGH_OUTSI
100
AcDbVertex
100
AcDb2dVertex
 10
721.8489352394699
 20
-90.87702074169646
 30
0.0
 42
0.5023969467378805
  0
VERTEX
  5
31E
330
2EF
100
AcDbEntity
  8
4_ANYTOOL_CUTTHROUGH_OUTSI
100
AcDbVertex
100
AcDb2dVertex
 10
713.8030109546944
 20
-96.86343619890249
 30
0.0
  0
VERTEX
  5
31F
330
2EF
100
AcDbEntity
  8
4_ANYTOOL_CUTTHROUGH_OUTSI
100
AcDbVertex
100
AcDb2dVertex
 10
713.8034667472984
 20
-145.369520772816
 30
0.0
 42
0.5023913917576468
  0
VERTEX
  5
320
330
2EF
100
AcDbEntity
  8
4_ANYTOOL_CUTTHROUGH_OUTSI
100
AcDbVertex
100
AcDb2dVertex
 10
721.8492444748537
 20
-151.3559345488466
 30
0.0
 42
0.01561067382381
  0
VERTEX
  5
321
330
2EF
100
AcDbEntity
  8
4_ANYTOOL_CUTTHROUGH_OUTSI
100
AcDbVertex
100
AcDb2dVertex
 10
721.8640459267353
 20
-151.3509856661549
 30
0.0
  0
VERTEX
  5
322
330
2EF
100
AcDbEntity
  8
4_ANYTOOL_CUTTHROUGH_OUTSI
100
AcDbVertex
100
AcDb2dVertex
 10
751.6322468090057
 20
-140.353493440467
 30
0.0
 42
-0.5019764819172623
  0
VERTEX
  5
323
330
2EF
100
AcDbEntity
  8
4_ANYTOOL_CUTTHROUGH_OUTSI
100
AcDbVertex
100
AcDb2dVertex
 10
759.0270982680921
 20
-145.863210004929
 30
0.0
  0
VERTEX
  5
324
330
2EF
100
AcDbEntity
  8
4_ANYTOOL_CUTTHROUGH_OUTSI
100
AcDbVertex
100
AcDb2dVertex
 10
759.0275540606963
 20
-194.3692945788425
 30
0.0
 42
-0.5019765309804223
  0
VERTEX
  5
325
330
2EF
100
AcDbEntity
  8
4_ANYTOOL_CUTTHROUGH_OUTSI
100
AcDbVertex
100
AcDb2dVertex
 10
751.6327006124718
 20
-199.8790082003112
 30
0.0
  0
VERTEX
  5
326
330
2EF
100
AcDbEntity
  8
4_ANYTOOL_CUTTHROUGH_OUTSI
100
AcDbVertex
100
AcDb2dVertex
 10
721.8641863286139
 20
-188.8819675013656
 30
0.0
 42
0.0156041603609153
  0
VERTEX
  5
327
330
2EF
100
AcDbEntity
  8
4_ANYTOOL_CUTTHROUGH_OUTSI
100
AcDbVertex
100
AcDb2dVertex
 10
721.8493910320723
 20
-188.8770207382839
 30
0.0
 42
0.5023969467360043
  0
VERTEX
  5
328
330
2EF
100
AcDbEntity
  8
4_ANYTOOL_CUTTHROUGH_OUTSI
100
AcDbVertex
100
AcDb2dVertex
 10
713.8034667473038
 20
-194.8634361954973
 30
0.0
  0
VERTEX
  5
329
330
2EF
100
AcDbEntity
  8
4_ANYTOOL_CUTTHROUGH_OUTSI
100
AcDbVertex
100
AcDb2dVertex
 10
713.8039225399061
 20
-243.3695207693963
 30
0.0
 42
0.5023913917578794
  0
VERTEX
  5
32A
330
2EF
100
AcDbEntity
  8
4_ANYTOOL_CUTTHROUGH_OUTSI
100
AcDbVertex
100
AcDb2dVertex
 10
721.8497002674685
 20
-249.3559345454196
 30
0.0
 42
0.0156106737458691
  0
VERTEX
  5
32B
330
2EF
100
AcDbEntity
  8
4_ANYTOOL_CUTTHROUGH_OUTSI
100
AcDbVertex
100
AcDb2dVertex
 10
721.8645017193503
 20
-249.3509856627279
 30
0.0
  0
VERTEX
  5
32C
330
2EF
100
AcDbEntity
  8
4_ANYTOOL_CUTTHROUGH_OUTSI
100
AcDbVertex
100
AcDb2dVertex
 10
751.6327026016206
 20
-238.3534934370546
 30
0.0
 42
-0.501976417977427
  0
VERTEX
  5
32D
330
2EF
100
AcDbEntity
  8
4_ANYTOOL_CUTTHROUGH_OUTSI
100
AcDbVertex
100
AcDb2dVertex
 10
759.0275540606897
 20
-243.8632088269369
 30
0.0
  0
VERTEX
  5
32E
330
2EF
100
AcDbEntity
  8
4_ANYTOOL_CUTTHROUGH_OUTSI
100
AcDbVertex
100
AcDb2dVertex
 10
759.0275540606981
 20
-289.3666739982655
 30
0.0
  0
VERTEX
  5
32F
330
2EF
100
AcDbEntity
  8
4_ANYTOOL_CUTTHROUGH_OUTSI
100
AcDbVertex
100
AcDb2dVertex
 10
681.4149225407982
 20
-289.36667399828
 30
0.0
  0
VERTEX
  5
330
330
2EF
100
AcDbEntity
  8
4_ANYTOOL_CUTTHROUGH_OUTSI
100
AcDbVertex
100
AcDb2dVertex
 10
681.4149225408164
 20
-283.6166739981491
 30
0.0
 42
0.4142135623988102
  0
VERTEX
  5
331
330
2EF
100
AcDbEntity
  8
4_ANYTOOL_CUTTHROUGH_OUTSI
100
AcDbVertex
100
AcDb2dVertex
 10
681.1649225408164
 20
-283.3666739981418
 30
0.0
  0
VERTEX
  5
332
330
2EF
100
AcDbEntity
  8
4_ANYTOOL_CUTTHROUGH_OUTSI
100
AcDbVertex
100
AcDb2dVertex
 10
669.1649225408091
 20
-283.3666739981563
 30
0.0
 42
0.4142135623624286
  0
VERTEX
  5
333
330
2EF
100
AcDbEntity
  8
4_ANYTOOL_CUTTHROUGH_OUTSI
100
AcDbVertex
100
AcDb2dVertex
 10
668.9149225408037
 20
-283.6166739981563
 30
0.0
  0
VERTEX
  5
334
330
2EF
100
AcDbEntity
  8
4_ANYTOOL_CUTTHROUGH_OUTSI
100
AcDbVertex
100
AcDb2dVertex
 10
668.9149225407964
 20
-298.3666739981563
 30
0.0
  0
VERTEX
  5
335
330
2EF
100
AcDbEntity
  8
4_ANYTOOL_CUTTHROUGH_OUTSI
100
AcDbVertex
100
AcDb2dVertex
 10
609.4149225407709
 20
-298.3666739981563
 30
0.0
  0
VERTEX
  5
336
330
2EF
100
AcDbEntity
  8
4_ANYTOOL_CUTTHROUGH_OUTSI
100
AcDbVertex
100
AcDb2dVertex
 10
609.41492254078
 20
-283.6166739981491
 30
0.0
 42
0.4142135623879775
  0
VERTEX
  5
337
330
2EF
100
AcDbEntity
  8
4_ANYTOOL_CUTTHROUGH_OUTSI
100
AcDbVertex
100
AcDb2dVertex
 10
609.16492254078
 20
-283.3666739981472
 30
0.0
  0
VERTEX
  5
338
330
2EF
100
AcDbEntity
  8
4_ANYTOOL_CUTTHROUGH_OUTSI
100
AcDbVertex
100
AcDb2dVertex
 10
597.1649225407727
 20
-283.3666739981491
 30
0.0
 42
0.4142135623644774
  0
VERTEX
  5
339
330
2EF
100
AcDbEntity
  8
4_ANYTOOL_CUTTHROUGH_OUTSI
100
AcDbVertex
100
AcDb2dVertex
 10
596.9149225407655
 20
-283.6166739981491
 30
0.0
  0
VERTEX
  5
33A
330
2EF
100
AcDbEntity
  8
4_ANYTOOL_CUTTHROUGH_OUTSI
100
AcDbVertex
100
AcDb2dVertex
 10
596.9149225407709
 20
-289.36667399828
 30
0.0
  0
VERTEX
  5
33B
330
2EF
100
AcDbEntity
  8
4_ANYTOOL_CUTTHROUGH_OUTSI
100
AcDbVertex
100
AcDb2dVertex
 10
276.4149225387973
 20
-289.366673998491
 30
0.0
  0
VERTEX
  5
33C
330
2EF
100
AcDbEntity
  8
4_ANYTOOL_CUTTHROUGH_OUTSI
100
AcDbVertex
100
AcDb2dVertex
 10
276.414922538801
 20
-283.6166739985056
 30
0.0
 42
0.4142135623645911
  0
VERTEX
  5
33D
330
2EF
100
AcDbEntity
  8
4_ANYTOOL_CUTTHROUGH_OUTSI
100
AcDbVertex
100
AcDb2dVertex
 10
276.164922538801
 20
-283.3666739984983
 30
0.0
  0
VERTEX
  5
33E
330
2EF
100
AcDbEntity
  8
4_ANYTOOL_CUTTHROUGH_OUTSI
100
AcDbVertex
100
AcDb2dVertex
 10
264.1649225387955
 20
-283.3666739985056
 30
0.0
 42
0.4142135623602171
  0
VERTEX
  5
33F
330
2EF
100
AcDbEntity
  8
4_ANYTOOL_CUTTHROUGH_OUTSI
100
AcDbVertex
100
AcDb2dVertex
 10
263.9149225388064
 20
-283.6166739985056
 30
0.0
  0
VERTEX
  5
340
330
2EF
100
AcDbEntity
  8
4_ANYTOOL_CUTTHROUGH_OUTSI
100
AcDbVertex
100
AcDb2dVertex
 10
263.9149225387864
 20
-298.3666739985129
 30
0.0
  0
VERTEX
  5
341
330
2EF
100
AcDbEntity
  8
4_ANYTOOL_CUTTHROUGH_OUTSI
100
AcDbVertex
100
AcDb2dVertex
 10
204.41492253877
 20
-298.366673998542
 30
0.0
  0
VERTEX
  5
342
330
2EF
100
AcDbEntity
  8
4_ANYTOOL_CUTTHROUGH_OUTSI
100
AcDbVertex
100
AcDb2dVertex
 10
204.4149225387846
 20
-283.6166739985347
 30
0.0
 42
0.4142135623538998
  0
VERTEX
  5
343
330
2EF
100
AcDbEntity
  8
4_ANYTOOL_CUTTHROUGH_OUTSI
100
AcDbVertex
100
AcDb2dVertex
 10
204.1649225387846
 20
-283.3666739985329
 30
0.0
  0
VERTEX
  5
344
330
2EF
100
AcDbEntity
  8
4_ANYTOOL_CUTTHROUGH_OUTSI
100
AcDbVertex
100
AcDb2dVertex
 10
192.164922538781
 20
-283.366673998542
 30
0.0
 42
0.4142135623560464
  0
VERTEX
  5
345
330
2EF
100
AcDbEntity
  8
4_ANYTOOL_CUTTHROUGH_OUTSI
100
AcDbVertex
100
AcDb2dVertex
 10
191.914922538781
 20
-283.616673998542
 30
0.0
  0
VERTEX
  5
346
330
2EF
100
AcDbEntity
  8
4_ANYTOOL_CUTTHROUGH_OUTSI
100
AcDbVertex
100
AcDb2dVertex
 10
191.914922538781
 20
-289.3666739986147
 30
0.0
  0
VERTEX
  5
347
330
2EF
100
AcDbEntity
  8
4_ANYTOOL_CUTTHROUGH_OUTSI
100
AcDbVertex
100
AcDb2dVertex
 10
81.41492253998695
 20
-289.3666739987239
 30
0.0
  0
VERTEX
  5
348
330
2EF
100
AcDbEntity
  8
4_ANYTOOL_CUTTHROUGH_OUTSI
100
AcDbVertex
100
AcDb2dVertex
 10
81.41492254000877
 20
-283.6166739985929
 30
0.0
 42
0.4142135623752141
  0
VERTEX
  5
349
330
2EF
100
AcDbEntity
  8
4_ANYTOOL_CUTTHROUGH_OUTSI
100
AcDbVertex
100
AcDb2dVertex
 10
81.16492254000877
 20
-283.3666739985947
 30
0.0
  0
VERTEX
  5
34A
330
2EF
100
AcDbEntity
  8
4_ANYTOOL_CUTTHROUGH_OUTSI
100
AcDbVertex
100
AcDb2dVertex
 10
69.16492254000514
 20
-283.3666739985929
 30
0.0
 42
0.4142135623475496
  0
VERTEX
  5
34B
330
2EF
100
AcDbEntity
  8
4_ANYTOOL_CUTTHROUGH_OUTSI
100
AcDbVertex
100
AcDb2dVertex
 10
68.91492254001241
 20
-283.6166739985929
 30
0.0
  0
VERTEX
  5
34C
330
2EF
100
AcDbEntity
  8
4_ANYTOOL_CUTTHROUGH_OUTSI
100
AcDbVertex
100
AcDb2dVertex
 10
68.91492253999058
 20
-298.3666739986002
 30
0.0
  0
VERTEX
  5
34D
330
2EF
100
AcDbEntity
  8
4_ANYTOOL_CUTTHROUGH_OUTSI
100
AcDbVertex
100
AcDb2dVertex
 10
9.414922539976033
 20
-298.3666739986293
 30
0.0
  0
VERTEX
  5
34E
330
2EF
100
AcDbEntity
  8
4_ANYTOOL_CUTTHROUGH_OUTSI
100
AcDbVertex
100
AcDb2dVertex
 10
9.414922539988765
 20
-283.616673998622
 30
0.0
 42
0.4142135623730299
  0
VERTEX
  5
34F
330
2EF
100
AcDbEntity
  8
4_ANYTOOL_CUTTHROUGH_OUTSI
100
AcDbVertex
100
AcDb2dVertex
 10
9.164922539988765
 20
-283.366673998622
 30
0.0
  0
VERTEX
  5
350
330
2EF
100
AcDbEntity
  8
4_ANYTOOL_CUTTHROUGH_OUTSI
100
AcDbVertex
100
AcDb2dVertex
 10
-2.835077460014872
 20
-283.3666739986293
 30
0.0
 42
0.4142135624178485
  0
VERTEX
  5
351
330
2EF
100
AcDbEntity
  8
4_ANYTOOL_CUTTHROUGH_OUTSI
100
AcDbVertex
100
AcDb2dVertex
 10
-3.085077460009416
 20
-283.6166739986293
 30
0.0
  0
VERTEX
  5
352
330
2EF
100
AcDbEntity
  8
4_ANYTOOL_CUTTHROUGH_OUTSI
100
AcDbVertex
100
AcDb2dVertex
 10
-3.085077460023967
 20
-289.3666739987602
 30
0.0
  0
VERTEX
  5
353
330
2EF
100
AcDbEntity
  8
4_ANYTOOL_CUTTHROUGH_OUTSI
100
AcDbVertex
100
AcDb2dVertex
 10
-323.5850774622213
 20
-289.3666739989203
 30
0.0
  0
VERTEX
  5
354
330
2EF
100
AcDbEntity
  8
4_ANYTOOL_CUTTHROUGH_OUTSI
100
AcDbVertex
100
AcDb2dVertex
 10
-323.5850774622195
 20
-283.6166739989349
 30
0.0
 42
0.4142135624178366
  0
VERTEX
  5
355
330
2EF
100
AcDbEntity
  8
4_ANYTOOL_CUTTHROUGH_OUTSI
100
AcDbVertex
100
AcDb2dVertex
 10
-323.8350774622195
 20
-283.3666739989294
 30
0.0
  0
VERTEX
  5
356
330
2EF
100
AcDbEntity
  8
4_ANYTOOL_CUTTHROUGH_OUTSI
100
AcDbVertex
100
AcDb2dVertex
 10
-335.8350774622286
 20
-283.3666739989349
 30
0.0
 42
0.4142135623454546
  0
VERTEX
  5
357
330
2EF
100
AcDbEntity
  8
4_ANYTOOL_CUTTHROUGH_OUTSI
100
AcDbVertex
100
AcDb2dVertex
 10
-336.085077462234
 20
-283.6166739989349
 30
0.0
  0
VERTEX
  5
358
330
2EF
100
AcDbEntity
  8
4_ANYTOOL_CUTTHROUGH_OUTSI
100
AcDbVertex
100
AcDb2dVertex
 10
-336.0850774622359
 20
-298.3666739989494
 30
0.0
  0
VERTEX
  5
359
330
2EF
100
AcDbEntity
  8
4_ANYTOOL_CUTTHROUGH_OUTSI
100
AcDbVertex
100
AcDb2dVertex
 10
-395.5850774622631
 20
-298.3666739989349
 30
0.0
  0
VERTEX
  5
35A
330
2EF
100
AcDbEntity
  8
4_ANYTOOL_CUTTHROUGH_OUTSI
100
AcDbVertex
100
AcDb2dVertex
 10
-395.5850774622486
 20
-283.6166739989203
 30
0.0
 42
0.4142135623730285
  0
VERTEX
  5
35B
330
2EF
100
AcDbEntity
  8
4_ANYTOOL_CUTTHROUGH_OUTSI
100
AcDbVertex
100
AcDb2dVertex
 10
-395.8350774622486
 20
-283.3666739989203
 30
0.0
  0
VERTEX
  5
35C
330
2EF
100
AcDbEntity
  8
4_ANYTOOL_CUTTHROUGH_OUTSI
100
AcDbVertex
100
AcDb2dVertex
 10
-407.8350774622559
 20
-283.3666739989349
 30
0.0
 42
0.4142135624007631
  0
VERTEX
  5
35D
330
2EF
100
AcDbEntity
  8
4_ANYTOOL_CUTTHROUGH_OUTSI
100
AcDbVertex
100
AcDb2dVertex
 10
-408.0850774622504
 20
-283.6166739989349
 30
0.0
  0
VERTEX
  5
35E
330
2EF
100
AcDbEntity
  8
4_ANYTOOL_CUTTHROUGH_OUTSI
100
AcDbVertex
100
AcDb2dVertex
 10
-408.0850774622577
 20
-289.3666739989931
 30
0.0
  0
VERTEX
  5
35F
330
2EF
100
AcDbEntity
  8
4_ANYTOOL_CUTTHROUGH_OUTSI
100
AcDbVertex
100
AcDb2dVertex
 10
-518.5850774610644
 20
-289.366673999044
 30
0.0
  0
VERTEX
  5
360
330
2EF
100
AcDbEntity
  8
4_ANYTOOL_CUTTHROUGH_OUTSI
100
AcDbVertex
100
AcDb2dVertex
 10
-518.5850774610481
 20
-283.616673998913
 30
0.0
 42
0.4142135623601709
  0
VERTEX
  5
361
330
2EF
100
AcDbEntity
  8
4_ANYTOOL_CUTTHROUGH_OUTSI
100
AcDbVertex
100
AcDb2dVertex
 10
-518.8350774610481
 20
-283.3666739989167
 30
0.0
  0
VERTEX
  5
362
330
2EF
100
AcDbEntity
  8
4_ANYTOOL_CUTTHROUGH_OUTSI
100
AcDbVertex
100
AcDb2dVertex
 10
-530.8350774610553
 20
-283.366673998913
 30
0.0
 42
0.4142135623624286
  0
VERTEX
  5
363
330
2EF
100
AcDbEntity
  8
4_ANYTOOL_CUTTHROUGH_OUTSI
100
AcDbVertex
100
AcDb2dVertex
 10
-531.0850774610608
 20
-283.616673998913
 30
0.0
  0
VERTEX
  5
364
330
2EF
100
AcDbEntity
  8
4_ANYTOOL_CUTTHROUGH_OUTSI
100
AcDbVertex
100
AcDb2dVertex
 10
-531.0850774610699
 20
-298.366673998913
 30
0.0
  0
VERTEX
  5
365
330
2EF
100
AcDbEntity
  8
4_ANYTOOL_CUTTHROUGH_OUTSI
100
AcDbVertex
100
AcDb2dVertex
 10
-590.5850774610972
 20
-298.3666739989058
 30
0.0
  0
VERTEX
  5
366
330
2EF
100
AcDbEntity
  8
4_ANYTOOL_CUTTHROUGH_OUTSI
100
AcDbVertex
100
AcDb2dVertex
 10
-590.5850774610826
 20
-283.6166739988912
 30
0.0
 42
0.4142135623647306
  0
VERTEX
  5
367
330
2EF
100
AcDbEntity
  8
4_ANYTOOL_CUTTHROUGH_OUTSI
100
AcDbVertex
100
AcDb2dVertex
 10
-590.8350774610826
 20
-283.3666739988985
 30
0.0
  0
VERTEX
  5
368
330
2EF
100
AcDbEntity
  8
4_ANYTOOL_CUTTHROUGH_OUTSI
100
AcDbVertex
100
AcDb2dVertex
 10
-602.8350774610899
 20
-283.3666739988912
 30
0.0
 42
0.4142135623560855
  0
VERTEX
  5
369
330
2EF
100
AcDbEntity
  8
4_ANYTOOL_CUTTHROUGH_OUTSI
100
AcDbVertex
100
AcDb2dVertex
 10
-603.0850774610899
 20
-283.6166739988912
 30
0.0
  0
VERTEX
  5
36A
330
2EF
100
AcDbEntity
  8
4_ANYTOOL_CUTTHROUGH_OUTSI
100
AcDbVertex
100
AcDb2dVertex
 10
-603.0850774610954
 20
-289.3666739990222
 30
0.0
  0
VERTEX
  5
36B
330
2EF
100
AcDbEntity
  8
4_ANYTOOL_CUTTHROUGH_OUTSI
100
AcDbVertex
100
AcDb2dVertex
 10
-731.085077460597
 20
-289.3666739989349
 30
0.0
  0
VERTEX
  5
36C
330
2EF
100
AcDbEntity
  8
4_ANYTOOL_CUTTHROUGH_OUTSI
100
AcDbVertex
100
AcDb2dVertex
 10
-731.0850774606151
 20
310.1333260010215
 30
0.0
  0
VERTEX
  5
36D
330
2EF
100
AcDbEntity
  8
4_ANYTOOL_CUTTHROUGH_OUTSI
100
AcDbVertex
100
AcDb2dVertex
 10
-706.585077460606
 20
310.1333260010288
 30
0.0
  0
VERTEX
  5
36E
330
2EF
100
AcDbEntity
  8
4_ANYTOOL_CUTTHROUGH_OUTSI
100
AcDbVertex
100
AcDb2dVertex
 10
-706.5850774606079
 20
286.3833260010288
 30
0.0
 42
0.4142135623859997
  0
VERTEX
  5
36F
330
2EF
100
AcDbEntity
  8
4_ANYTOOL_CUTTHROUGH_OUTSI
100
AcDbVertex
100
AcDb2dVertex
 10
-706.3350774606079
 20
286.1333260010251
 30
0.0
  0
VERTEX
  5
370
330
2EF
100
AcDbEntity
  8
4_ANYTOOL_CUTTHROUGH_OUTSI
100
AcDbVertex
100
AcDb2dVertex
 10
-694.3350774606024
 20
286.1333260010142
 30
0.0
 42
0.414213562375144
  0
VERTEX
  5
371
330
2EF
100
AcDbEntity
  8
4_ANYTOOL_CUTTHROUGH_OUTSI
100
AcDbVertex
100
AcDb2dVertex
 10
-694.0850774606006
 20
286.3833260010142
 30
0.0
  0
VERTEX
  5
372
330
2EF
100
AcDbEntity
  8
4_ANYTOOL_CUTTHROUGH_OUTSI
100
AcDbVertex
100
AcDb2dVertex
 10
-694.0850774606042
 20
292.1333260010288
 30
0.0
  0
VERTEX
  5
373
330
2EF
100
AcDbEntity
  8
4_ANYTOOL_CUTTHROUGH_OUTSI
100
AcDbVertex
100
AcDb2dVertex
 10
-650.58507746141
 20
292.1333260010288
 30
0.0
  0
VERTEX
  5
374
330
2EF
100
AcDbEntity
  8
4_ANYTOOL_CUTTHROUGH_OUTSI
100
AcDbVertex
100
AcDb2dVertex
 10
-650.58507746141
 20
286.3833260010288
 30
0.0
 42
0.414213562362433
  0
VERTEX
  5
375
330
2EF
100
AcDbEntity
  8
4_ANYTOOL_CUTTHROUGH_OUTSI
100
AcDbVertex
100
AcDb2dVertex
 10
-650.3350774614137
 20
286.1333260010233
 30
0.0
  0
VERTEX
  5
376
330
2EF
100
AcDbEntity
  8
4_ANYTOOL_CUTTHROUGH_OUTSI
100
AcDbVertex
100
AcDb2dVertex
 10
-638.3350774614046
 20
286.1333260008832
 30
0.0
 42
0.4142135624135744
  0
VERTEX
  5
377
330
2EF
100
AcDbEntity
  8
4_ANYTOOL_CUTTHROUGH_OUTSI
100
AcDbVertex
100
AcDb2dVertex
 10
-638.0850774613991
 20
286.3833260008832
 30
0.0
  0
VERTEX
  5
378
330
2EF
100
AcDbEntity
  8
4_ANYTOOL_CUTTHROUGH_OUTSI
100
AcDbVertex
100
AcDb2dVertex
 10
-638.0850774613973
 20
310.1333260008978
 30
0.0
  0
VERTEX
  5
379
330
2EF
100
AcDbEntity
  8
4_ANYTOOL_CUTTHROUGH_OUTSI
100
AcDbVertex
100
AcDb2dVertex
 10
-493.5850774613045
 20
310.1333260009123
 30
0.0
  0
VERTEX
  5
37A
330
2EF
100
AcDbEntity
  8
4_ANYTOOL_CUTTHROUGH_OUTSI
100
AcDbVertex
100
AcDb2dVertex
 10
-493.5850774613391
 20
286.3833260009123
 30
0.0
 42
0.4142135623538998
  0
VERTEX
  5
37B
330
2EF
100
AcDbEntity
  8
4_ANYTOOL_CUTTHROUGH_OUTSI
100
AcDbVertex
100
AcDb2dVertex
 10
-493.3350774613391
 20
286.1333260009105
 30
0.0
  0
VERTEX
  5
37C
330
2EF
100
AcDbEntity
  8
4_ANYTOOL_CUTTHROUGH_OUTSI
100
AcDbVertex
100
AcDb2dVertex
 10
-481.3350774613282
 20
286.1333260008978
 30
0.0
 42
0.4142135623538287
  0
VERTEX
  5
37D
330
2EF
100
AcDbEntity
  8
4_ANYTOOL_CUTTHROUGH_OUTSI
100
AcDbVertex
100
AcDb2dVertex
 10
-481.08507746133
 20
286.3833260008978
 30
0.0
  0
VERTEX
  5
37E
330
2EF
100
AcDbEntity
  8
4_ANYTOOL_CUTTHROUGH_OUTSI
100
AcDbVertex
100
AcDb2dVertex
 10
-481.0850774613264
 20
292.1333260008978
 30
0.0
  0
VERTEX
  5
37F
330
2EF
100
AcDbEntity
  8
4_ANYTOOL_CUTTHROUGH_OUTSI
100
AcDbVertex
100
AcDb2dVertex
 10
-445.5850774612773
 20
292.1333260008832
 30
0.0
  0
VERTEX
  5
380
330
2EF
100
AcDbEntity
  8
4_ANYTOOL_CUTTHROUGH_OUTSI
100
AcDbVertex
100
AcDb2dVertex
 10
-445.5850774612845
 20
286.3833260008832
 30
0.0
 42
0.4142135624113834
  0
VERTEX
  5
381
330
2EF
100
AcDbEntity
  8
4_ANYTOOL_CUTTHROUGH_OUTSI
100
AcDbVertex
100
AcDb2dVertex
 10
-445.3350774612845
 20
286.1333260008869
 30
0.0
  0
VERTEX
  5
382
330
2EF
100
AcDbEntity
  8
4_ANYTOOL_CUTTHROUGH_OUTSI
100
AcDbVertex
100
AcDb2dVertex
 10
-433.3350774612791
 20
286.1333260008832
 30
0.0
 42
0.4142135623859516
  0
VERTEX
  5
383
330
2EF
100
AcDbEntity
  8
4_ANYTOOL_CUTTHROUGH_OUTSI
100
AcDbVertex
100
AcDb2dVertex
 10
-433.0850774612827
 20
286.3833260008832
 30
0.0
  0
VERTEX
  5
384
330
2EF
100
AcDbEntity
  8
4_ANYTOOL_CUTTHROUGH_OUTSI
100
AcDbVertex
100
AcDb2dVertex
 10
-433.0850774612445
 20
310.1333260008978
 30
0.0
  0
VERTEX
  5
385
330
2EF
100
AcDbEntity
  8
4_ANYTOOL_CUTTHROUGH_OUTSI
100
AcDbVertex
100
AcDb2dVertex
 10
-393.9875984659884
 20
310.133326000876
 30
0.0
  0
VERTEX
  5
386
330
2EF
100
AcDbEntity
  8
4_ANYTOOL_CUTTHROUGH_OUTSI
100
AcDbVertex
100
AcDb2dVertex
 10
-394.2225088236321
 20
308.738455800561
 30
0.0
  0
VERTEX
  5
387
330
2EF
100
AcDbEntity
  8
4_ANYTOOL_CUTTHROUGH_OUTSI
100
AcDbVertex
100
AcDb2dVertex
 10
-411.1180420503933
 20
260.4659136070404
 30
0.0
  0
VERTEX
  5
388
330
2EF
100
AcDbEntity
  8
4_ANYTOOL_CUTTHROUGH_OUTSI
100
AcDbVertex
100
AcDb2dVertex
 10
-411.1320774613018
 20
260.3833260008614
 30
0.0
 42
0.4142135623769017
  0
VERTEX
  5
389
330
2EF
100
AcDbEntity
  8
4_ANYTOOL_CUTTHROUGH_OUTSI
100
AcDbVertex
100
AcDb2dVertex
 10
-404.8820774612886
 20
254.1333260008578
 30
0.0
  0
VERTEX
  5
38A
330
2EF
100
AcDbEntity
  8
4_ANYTOOL_CUTTHROUGH_OUTSI
100
AcDbVertex
100
AcDb2dVertex
 10
-326.8820774612959
 20
254.1333260008469
 30
0.0
 42
0.414213562372499
  0
VERTEX
  5
38B
330
2EF
100
AcDbEntity
  8
4_ANYTOOL_CUTTHROUGH_OUTSI
100
AcDbVertex
100
AcDb2dVertex
 10
-320.632077461265
 20
260.3833260008614
 30
0.0
  0
VERTEX
  5
38C
330
2EF
100
AcDbEntity
  8
4_ANYTOOL_CUTTHROUGH_OUTSI
100
AcDbVertex
100
AcDb2dVertex
 10
-320.6461128721712
 20
260.4659136070405
 30
0.0
  0
VERTEX
  5
38D
330
2EF
100
AcDbEntity
  8
4_ANYTOOL_CUTTHROUGH_OUTSI
100
AcDbVertex
100
AcDb2dVertex
 10
-337.5452258665409
 20
308.7495207799366
 30
0.0
  0
VERTEX
  5
38E
330
2EF
100
AcDbEntity
  8
4_ANYTOOL_CUTTHROUGH_OUTSI
100
AcDbVertex
100
AcDb2dVertex
 10
-337.7766401077323
 20
310.1333260008803
 30
0.0
  0
VERTEX
  5
38F
330
2EF
100
AcDbEntity
  8
4_ANYTOOL_CUTTHROUGH_OUTSI
100
AcDbVertex
100
AcDb2dVertex
 10
-263.5850774601404
 20
310.1333260011015
 30
0.0
  0
VERTEX
  5
390
330
2EF
100
AcDbEntity
  8
4_ANYTOOL_CUTTHROUGH_OUTSI
100
AcDbVertex
100
AcDb2dVertex
 10
-263.5850774601877
 20
286.3833260011161
 30
0.0
 42
0.4142135623731616
  0
VERTEX
  5
391
330
2EF
100
AcDbEntity
  8
4_ANYTOOL_CUTTHROUGH_OUTSI
100
AcDbVertex
100
AcDb2dVertex
 10
-263.3350774601895
 20
286.1333260011179
 30
0.0
  0
VERTEX
  5
392
330
2EF
100
AcDbEntity
  8
4_ANYTOOL_CUTTHROUGH_OUTSI
100
AcDbVertex
100
AcDb2dVertex
 10
-251.3350774601877
 20
286.1333260011597
 30
0.0
 42
0.4142135623603229
  0
VERTEX
  5
393
330
2EF
100
AcDbEntity
  8
4_ANYTOOL_CUTTHROUGH_OUTSI
100
AcDbVertex
100
AcDb2dVertex
 10
-251.085077460184
 20
286.3833260011597
 30
0.0
  0
VERTEX
  5
394
330
2EF
100
AcDbEntity
  8
4_ANYTOOL_CUTTHROUGH_OUTSI
100
AcDbVertex
100
AcDb2dVertex
 10
-251.0850774601658
 20
292.1333260009487
 30
0.0
  0
VERTEX
  5
395
330
2EF
100
AcDbEntity
  8
4_ANYTOOL_CUTTHROUGH_OUTSI
100
AcDbVertex
100
AcDb2dVertex
 10
-75.58507746013856
 20
292.1333260010142
 30
0.0
  0
VERTEX
  5
396
330
2EF
100
AcDbEntity
  8
4_ANYTOOL_CUTTHROUGH_OUTSI
100
AcDbVertex
100
AcDb2dVertex
 10
-75.58507746016221
 20
286.3833260012252
 30
0.0
 42
0.4142135623645698
  0
VERTEX
  5
397
330
2EF
100
AcDbEntity
  8
4_ANYTOOL_CUTTHROUGH_OUTSI
100
AcDbVertex
100
AcDb2dVertex
 10
-75.33507746016403
 20
286.1333260012343
 30
0.0
  0
VERTEX
  5
398
330
2EF
100
AcDbEntity
  8
4_ANYTOOL_CUTTHROUGH_OUTSI
100
AcDbVertex
100
AcDb2dVertex
 10
-63.33507746016039
 20
286.1333260011379
 30
0.0
 42
0.4142135623283785
  0
VERTEX
  5
399
330
2EF
100
AcDbEntity
  8
4_ANYTOOL_CUTTHROUGH_OUTSI
100
AcDbVertex
100
AcDb2dVertex
 10
-63.08507746015493
 20
286.3833260011379
 30
0.0
  0
VERTEX
  5
39A
330
2EF
100
AcDbEntity
  8
4_ANYTOOL_CUTTHROUGH_OUTSI
100
AcDbVertex
100
AcDb2dVertex
 10
-63.08507746014402
 20
310.1333260011452
 30
0.0
  0
VERTEX
  5
39B
330
2EF
100
AcDbEntity
  8
4_ANYTOOL_CUTTHROUGH_OUTSI
100
AcDbVertex
100
AcDb2dVertex
 10
11.10640153499116
 20
310.1333260012179
 30
0.0
  0
VERTEX
  5
39C
330
2EF
100
AcDbEntity
  8
4_ANYTOOL_CUTTHROUGH_OUTSI
100
AcDbVertex
100
AcDb2dVertex
 10
10.871491177353
 20
308.7384558009024
 30
0.0
  0
VERTEX
  5
39D
330
2EF
100
AcDbEntity
  8
4_ANYTOOL_CUTTHROUGH_OUTSI
100
AcDbVertex
100
AcDb2dVertex
 10
-6.024042049413765
 20
260.4659136073897
 30
0.0
  0
VERTEX
  5
39E
330
2EF
100
AcDbEntity
  8
4_ANYTOOL_CUTTHROUGH_OUTSI
100
AcDbVertex
100
AcDb2dVertex
 10
-6.038077460320153
 20
260.3833260012107
 30
0.0
 42
0.4142135623762412
  0
VERTEX
  5
39F
330
2EF
100
AcDbEntity
  8
4_ANYTOOL_CUTTHROUGH_OUTSI
100
AcDbVertex
100
AcDb2dVertex
 10
0.2119225397000261
 20
254.1333260011961
 30
0.0
  0
VERTEX
  5
3A0
330
2EF
100
AcDbEntity
  8
4_ANYTOOL_CUTTHROUGH_OUTSI
100
AcDbVertex
100
AcDb2dVertex
 10
78.21192253967456
 20
254.1333260012325
 30
0.0
 42
0.4142135623719123
  0
VERTEX
  5
3A1
330
2EF
100
AcDbEntity
  8
4_ANYTOOL_CUTTHROUGH_OUTSI
100
AcDbVertex
100
AcDb2dVertex
 10
84.4619225397073
 20
260.3833260012325
 30
0.0
  0
VERTEX
  5
3A2
330
2EF
100
AcDbEntity
  8
4_ANYTOOL_CUTTHROUGH_OUTSI
100
AcDbVertex
100
AcDb2dVertex
 10
84.44788712879023
 20
260.4659136074109
 30
0.0
  0
VERTEX
  5
3A3
330
2EF
100
AcDbEntity
  8
4_ANYTOOL_CUTTHROUGH_OUTSI
100
AcDbVertex
100
AcDb2dVertex
 10
67.54877413462054
 20
308.749520779631
 30
0.0
  0
VERTEX
  5
3A4
330
2EF
100
AcDbEntity
  8
4_ANYTOOL_CUTTHROUGH_OUTSI
100
AcDbVertex
100
AcDb2dVertex
 10
67.31735989323226
 20
310.1333260012348
 30
0.0
  0
VERTEX
  5
3A5
330
2EF
100
AcDbEntity
  8
4_ANYTOOL_CUTTHROUGH_OUTSI
100
AcDbVertex
100
AcDb2dVertex
 10
106.4149225397705
 20
310.133326001247
 30
0.0
  0
VERTEX
  5
3A6
330
2EF
100
AcDbEntity
  8
4_ANYTOOL_CUTTHROUGH_OUTSI
100
AcDbVertex
100
AcDb2dVertex
 10
106.4149225397323
 20
286.383326001247
 30
0.0
 42
0.4142135623538998
  0
VERTEX
  5
3A7
330
2EF
100
AcDbEntity
  8
4_ANYTOOL_CUTTHROUGH_OUTSI
100
AcDbVertex
100
AcDb2dVertex
 10
106.6649225397323
 20
286.1333260012452
 30
0.0
  0
VERTEX
  5
3A8
330
2EF
100
AcDbEntity
  8
4_ANYTOOL_CUTTHROUGH_OUTSI
100
AcDbVertex
100
AcDb2dVertex
 10
118.664922539745
 20
286.1333260012398
 30
0.0
 42
0.4142135623346663
  0
VERTEX
  5
3A9
330
2EF
100
AcDbEntity
  8
4_ANYTOOL_CUTTHROUGH_OUTSI
100
AcDbVertex
100
AcDb2dVertex
 10
118.9149225397559
 20
286.3833260012398
 30
0.0
  0
VERTEX
  5
3AA
330
2EF
100
AcDbEntity
  8
4_ANYTOOL_CUTTHROUGH_OUTSI
100
AcDbVertex
100
AcDb2dVertex
 10
118.914922539745
 20
292.1333260012398
 30
0.0
  0
VERTEX
  5
3AB
330
2EF
100
AcDbEntity
  8
4_ANYTOOL_CUTTHROUGH_OUTSI
100
AcDbVertex
100
AcDb2dVertex
 10
154.4149225397869
 20
292.133326001247
 30
0.0
  0
VERTEX
  5
3AC
330
2EF
100
AcDbEntity
  8
4_ANYTOOL_CUTTHROUGH_OUTSI
100
AcDbVertex
100
AcDb2dVertex
 10
154.4149225397778
 20
286.3833260012543
 30
0.0
 42
0.4142135623901632
  0
VERTEX
  5
3AD
330
2EF
100
AcDbEntity
  8
4_ANYTOOL_CUTTHROUGH_OUTSI
100
AcDbVertex
100
AcDb2dVertex
 10
154.6649225397778
 20
286.1333260012543
 30
0.0
  0
VERTEX
  5
3AE
330
2EF
100
AcDbEntity
  8
4_ANYTOOL_CUTTHROUGH_OUTSI
100
AcDbVertex
100
AcDb2dVertex
 10
166.6649225397796
 20
286.1333260012543
 30
0.0
 42
0.414213562392277
  0
VERTEX
  5
3AF
330
2EF
100
AcDbEntity
  8
4_ANYTOOL_CUTTHROUGH_OUTSI
100
AcDbVertex
100
AcDb2dVertex
 10
166.9149225397814
 20
286.3833260012543
 30
0.0
  0
VERTEX
  5
3B0
330
2EF
100
AcDbEntity
  8
4_ANYTOOL_CUTTHROUGH_OUTSI
100
AcDbVertex
100
AcDb2dVertex
 10
166.9149225398196
 20
310.1333260012616
 30
0.0
  0
VERTEX
  5
3B1
330
2EF
100
AcDbEntity
  8
4_ANYTOOL_CUTTHROUGH_OUTSI
100
AcDbVertex
100
AcDb2dVertex
 10
206.0124015350684
 20
310.1333260012689
 30
0.0
  0
VERTEX
  5
3B2
330
2EF
100
AcDbEntity
  8
4_ANYTOOL_CUTTHROUGH_OUTSI
100
AcDbVertex
100
AcDb2dVertex
 10
205.7774911774242
 20
308.7384558009684
 30
0.0
  0
VERTEX
  5
3B3
330
2EF
100
AcDbEntity
  8
4_ANYTOOL_CUTTHROUGH_OUTSI
100
AcDbVertex
100
AcDb2dVertex
 10
188.8819579506635
 20
260.4659136074333
 30
0.0
  0
VERTEX
  5
3B4
330
2EF
100
AcDbEntity
  8
4_ANYTOOL_CUTTHROUGH_OUTSI
100
AcDbVertex
100
AcDb2dVertex
 10
188.8679225397556
 20
260.3833260012543
 30
0.0
 42
0.4142135623761627
  0
VERTEX
  5
3B5
330
2EF
100
AcDbEntity
  8
4_ANYTOOL_CUTTHROUGH_OUTSI
100
AcDbVertex
100
AcDb2dVertex
 10
195.1179225397664
 20
254.1333260012507
 30
0.0
  0
VERTEX
  5
3B6
330
2EF
100
AcDbEntity
  8
4_ANYTOOL_CUTTHROUGH_OUTSI
100
AcDbVertex
100
AcDb2dVertex
 10
273.1179225397409
 20
254.1333260012834
 30
0.0
 42
0.4142135623699414
  0
VERTEX
  5
3B7
330
2EF
100
AcDbEntity
  8
4_ANYTOOL_CUTTHROUGH_OUTSI
100
AcDbVertex
100
AcDb2dVertex
 10
279.3679225397827
 20
260.3833260013052
 30
0.0
  0
VERTEX
  5
3B8
330
2EF
100
AcDbEntity
  8
4_ANYTOOL_CUTTHROUGH_OUTSI
100
AcDbVertex
100
AcDb2dVertex
 10
279.3538871288692
 20
260.4659136074843
 30
0.0
  0
VERTEX
  5
3B9
330
2EF
100
AcDbEntity
  8
4_ANYTOOL_CUTTHROUGH_OUTSI
100
AcDbVertex
100
AcDb2dVertex
 10
262.4547741345013
 20
308.7495207803731
 30
0.0
  0
VERTEX
  5
3BA
330
2EF
100
AcDbEntity
  8
4_ANYTOOL_CUTTHROUGH_OUTSI
100
AcDbVertex
100
AcDb2dVertex
 10
262.2233598933138
 20
310.1333260013048
 30
0.0
  0
VERTEX
  5
3BB
330
2EF
100
AcDbEntity
  8
4_ANYTOOL_CUTTHROUGH_OUTSI
100
AcDbVertex
100
AcDb2dVertex
 10
336.414922540147
 20
310.1333260012761
 30
0.0
  0
VERTEX
  5
3BC
330
2EF
100
AcDbEntity
  8
4_ANYTOOL_CUTTHROUGH_OUTSI
100
AcDbVertex
100
AcDb2dVertex
 10
336.4149225400997
 20
286.3833260012907
 30
0.0
 42
0.4142135623368512
  0
VERTEX
  5
3BD
330
2EF
100
AcDbEntity
  8
4_ANYTOOL_CUTTHROUGH_OUTSI
100
AcDbVertex
100
AcDb2dVertex
 10
336.6649225400979
 20
286.1333260012907
 30
0.0
  0
VERTEX
  5
3BE
330
2EF
100
AcDbEntity
  8
4_ANYTOOL_CUTTHROUGH_OUTSI
100
AcDbVertex
100
AcDb2dVertex
 10
348.6649225400997
 20
286.1333260013344
 30
0.0
 42
0.4142135623518269
  0
VERTEX
  5
3BF
330
2EF
100
AcDbEntity
  8
4_ANYTOOL_CUTTHROUGH_OUTSI
100
AcDbVertex
100
AcDb2dVertex
 10
348.9149225400961
 20
286.3833260013344
 30
0.0
  0
VERTEX
  5
3C0
330
2EF
100
AcDbEntity
  8
4_ANYTOOL_CUTTHROUGH_OUTSI
100
AcDbVertex
100
AcDb2dVertex
 10
348.9149225401216
 20
292.1333260011234
 30
0.0
  0
VERTEX
  5
3C1
330
2EF
100
AcDbEntity
  8
4_ANYTOOL_CUTTHROUGH_OUTSI
100
AcDbVertex
100
AcDb2dVertex
 10
524.4149225401488
 20
292.1333260011888
 30
0.0
  0
VERTEX
  5
3C2
330
2EF
100
AcDbEntity
  8
4_ANYTOOL_CUTTHROUGH_OUTSI
100
AcDbVertex
100
AcDb2dVertex
 10
524.4149225401252
 20
286.3833260013998
 30
0.0
 42
0.4142135623389036
  0
VERTEX
  5
3C3
330
2EF
100
AcDbEntity
  8
4_ANYTOOL_CUTTHROUGH_OUTSI
100
AcDbVertex
100
AcDb2dVertex
 10
524.6649225401234
 20
286.1333260014017
 30
0.0
  0
VERTEX
  5
3C4
330
2EF
100
AcDbEntity
  8
4_ANYTOOL_CUTTHROUGH_OUTSI
100
AcDbVertex
100
AcDb2dVertex
 10
536.664922540127
 20
286.1333260013125
 30
0.0
 42
0.4142135623795795
  0
VERTEX
  5
3C5
330
2EF
100
AcDbEntity
  8
4_ANYTOOL_CUTTHROUGH_OUTSI
100
AcDbVertex
100
AcDb2dVertex
 10
536.9149225401325
 20
286.3833260013125
 30
0.0
  0
VERTEX
  5
3C6
330
2EF
100
AcDbEntity
  8
4_ANYTOOL_CUTTHROUGH_OUTSI
100
AcDbVertex
100
AcDb2dVertex
 10
536.9149225401434
 20
310.1333260013198
 30
0.0
  0
VERTEX
  5
3C7
330
2EF
100
AcDbEntity
  8
4_ANYTOOL_CUTTHROUGH_OUTSI
100
AcDbVertex
100
AcDb2dVertex
 10
611.1064015356933
 20
310.1333260016836
 30
0.0
  0
VERTEX
  5
3C8
330
2EF
100
AcDbEntity
  8
4_ANYTOOL_CUTTHROUGH_OUTSI
100
AcDbVertex
100
AcDb2dVertex
 10
610.8714911780512
 20
308.7384558013753
 30
0.0
  0
VERTEX
  5
3C9
330
2EF
100
AcDbEntity
  8
4_ANYTOOL_CUTTHROUGH_OUTSI
100
AcDbVertex
100
AcDb2dVertex
 10
593.9759579512938
 20
260.4659136078699
 30
0.0
  0
VERTEX
  5
3CA
330
2EF
100
AcDbEntity
  8
4_ANYTOOL_CUTTHROUGH_OUTSI
100
AcDbVertex
100
AcDb2dVertex
 10
593.9619225403871
 20
260.3833260016909
 30
0.0
 42
0.4142135623745021
  0
VERTEX
  5
3CB
330
2EF
100
AcDbEntity
  8
4_ANYTOOL_CUTTHROUGH_OUTSI
100
AcDbVertex
100
AcDb2dVertex
 10
600.2119225404094
 20
254.1333260016672
 30
0.0
  0
VERTEX
  5
3CC
330
2EF
100
AcDbEntity
  8
4_ANYTOOL_CUTTHROUGH_OUTSI
100
AcDbVertex
100
AcDb2dVertex
 10
678.2119225403949
 20
254.1333260016618
 30
0.0
 42
0.4142135623725871
  0
VERTEX
  5
3CD
330
2EF
100
AcDbEntity
  8
4_ANYTOOL_CUTTHROUGH_OUTSI
100
AcDbVertex
100
AcDb2dVertex
 10
684.4619225404203
 20
260.383326001669
 30
0.0
  0
SEQEND
  5
3CE
330
2EF
100
AcDbEntity
  8
4_ANYTOOL_CUTTHROUGH_OUTSI
  0
ENDSEC
  0
SECTION
  2
OBJECTS
  0
DICTIONARY
  5
C
330
0
100
AcDbDictionary
  3
ACAD_GROUP
350
D
  3
ACAD_LAYOUT
350
1A
  3
ACAD_MATERIAL
350
43
  3
ACAD_MLEADERSTYLE
350
5B
  3
ACAD_MLINESTYLE
350
17
  3
ACAD_PLOTSETTINGS
350
19
  3
ACAD_SCALELIST
350
47
  3
ACAD_VISUALSTYLE
350
2A
  3
ACDBHEADERROUNDTRIPXREC
350
3CF
  3
ACDBVARIABLEDICTIONARY
350
3F0
  3
DWGPROPS
350
3F7
  0
DICTIONARY
  5
3F8
330
8
100
AcDbDictionary
280
     1
  3
ACAD_XREC_ROUNDTRIP
360
3F9
  0
DICTIONARY
  5
D
102
{ACAD_REACTORS
330
C
102
}
330
C
100
AcDbDictionary
  0
DICTIONARY
  5
1A
102
{ACAD_REACTORS
330
C
102
}
330
C
100
AcDbDictionary
  0
DICTIONARY
  5
43
102
{ACAD_REACTORS
330
C
102
}
330
C
100
AcDbDictionary
  3
BYBLOCK
350
45
  3
BYLAYER
350
44
  3
GLOBAL
350
46
  0
DICTIONARY
  5
5B
102
{ACAD_REACTORS
330
C
102
}
330
C
100
AcDbDictionary
  3
STANDARD
350
5C
  0
DICTIONARY
  5
17
102
{ACAD_REACTORS
330
C
102
}
330
C
100
AcDbDictionary
  3
STANDARD
350
18
  0
DICTIONARY
  5
19
102
{ACAD_REACTORS
330
C
102
}
330
C
100
AcDbDictionary
  0
DICTIONARY
  5
47
102
{ACAD_REACTORS
330
C
102
}
330
C
100
AcDbDictionary
  3
A0
350
48
  3
A1
350
49
  3
A2
350
4A
  3
A3
350
4B
  3
A4
350
4C
  3
A5
350
4D
  3
A6
350
4E
  3
A7
350
4F
  3
A8
350
50
  3
A9
350
51
  3
B1
350
52
  3
B2
350
53
  3
B3
350
54
  3
B4
350
55
  3
B5
350
56
  3
B6
350
57
  3
B7
350
58
  0
DICTIONARY
  5
2A
102
{ACAD_REACTORS
330
C
102
}
330
C
100
AcDbDictionary
  3
2DWIREFRAME
350
2F
  3
BASIC
350
32
  3
BRIGHTEN
350
36
  3
COLORCHANGE
350
3A
  3
CONCEPTUAL
350
34
  3
DIM
350
35
  3
EDGECOLOROFF
350
3D
  3
FACEPATTERN
350
39
  3
FLAT
350
2B
  3
FLATWITHEDGES
350
2C
  3
GOURAUD
350
2D
  3
GOURAUDWITHEDGES
350
2E
  3
HIDDEN
350
31
  3
JITTEROFF
350
3B
  3
LINEPATTERN
350
38
  3
OVERHANGOFF
350
3C
  3
REALISTIC
350
33
  3
SHADED
350
42
  3
SHADED_WITH_EDGES
350
41
  3
SHADES_OF_GRAY
350
3E
  3
SKETCHY
350
3F
  3
THICKEN
350
37
  3
WIREFRAME
350
30
  3
X-RAY
350
40
  0
DICTIONARY
  5
3CF
102
{ACAD_REACTORS
330
C
102
}
330
C
100
AcDbDictionary
  3
CEPSNID
350
3D9
  3
CEPSNTYPE
350
3D8
  3
DIMSTYLEDATA
350
3EF
  3
FINGERPRINTGUID
350
3DA
  3
HYPERLINKBASE
350
3D2
  3
INSUNITS
350
3D7
  3
LAYOUTDICT
350
3D4
  3
LWETCUNION
350
3D6
  3
PLOTSETDICT
350
3D5
  3
PSVPSCALE
350
3DC
  3
PUCSBASE
350
3DF
  3
PUCSORGBACK
350
3E5
  3
PUCSORGBOTTOM
350
3E1
  3
PUCSORGFRONT
350
3E4
  3
PUCSORGLEFT
350
3E2
  3
PUCSORGRIGHT
350
3E3
  3
PUCSORGTOP
350
3E0
  3
PUCSORTHOREF
350
3DD
  3
PUCSORTHOVIEW
350
3DE
  3
STYLESHEET
350
3D3
  3
TSTACKALIGN
350
3D0
  3
TSTACKSIZE
350
3D1
  3
UCSBASE
350
3E8
  3
UCSORGBACK
350
3EE
  3
UCSORGBOTTOM
350
3EA
  3
UCSORGFRONT
350
3ED
  3
UCSORGLEFT
350
3EB
  3
UCSORGRIGHT
350
3EC
  3
UCSORGTOP
350
3E9
  3
UCSORTHOREF
350
3E6
  3
UCSORTHOVIEW
350
3E7
  3
VERSIONGUID
350
3DB
  0
DICTIONARY
  5
3F0
102
{ACAD_REACTORS
330
C
102
}
330
C
100
AcDbDictionary
  3
CANNOSCALE
350
3FA
  3
CMLEADERSTYLE
350
3F2
  3
CTABLESTYLE
350
3F1
  3
DIMASSOC
350
3F5
  3
HIDETEXT
350
3F6
  3
MSLTSCALE
350
3FB
  0
XRECORD
  5
3F7
102
{ACAD_REACTORS
330
C
102
}
330
C
100
AcDbXrecord
  1
DWGPROPS COOKIE
  2

  3

  4

  6

  7

  8
clayt
  9

300
=
301
=
302
=
303
=
304
=
305
=
306
=
307
=
308
=
309
=
 40
0.0
 41
2461249.475228461
 42
2461249.475228646
  1

 90
        0
  0
XRECORD
  5
3F9
102
{ACAD_REACTORS
330
3F8
102
}
330
3F8
100
AcDbXrecord
102
VTR_0.000_0.000_1.000_1.000_VISUALSTYLE
340
2F
102
VTR_0.000_0.000_1.000_1.000_GRIDDISPLAY
 70
     3
102
VTR_0.000_0.000_1.000_1.000_GRIDMAJOR
 70
     5
102
VTR_0.000_0.000_1.000_1.000_DEFAULTLIGHTING
280
     1
102
VTR_0.000_0.000_1.000_1.000_DEFAULTLIGHTINGTYPE
 70
     1
102
VTR_0.000_0.000_1.000_1.000_BRIGHTNESS
141
0.0
102
VTR_0.000_0.000_1.000_1.000_CONTRAST
142
0.0
  0
MATERIAL
  5
45
102
{ACAD_REACTORS
330
43
102
}
102
{ACAD_XDICTIONARY
360
3FE
102
}
330
43
100
AcDbMaterial
  1
BYBLOCK
  0
MATERIAL
  5
44
102
{ACAD_REACTORS
330
43
102
}
102
{ACAD_XDICTIONARY
360
3FC
102
}
330
43
100
AcDbMaterial
  1
BYLAYER
  0
MATERIAL
  5
46
102
{ACAD_REACTORS
330
43
102
}
102
{ACAD_XDICTIONARY
360
400
102
}
330
43
100
AcDbMaterial
  1
GLOBAL
  0
ACAD_PROXY_OBJECT
  5
5C
102
{ACAD_REACTORS
330
5B
102
}
330
5B
100
AcDbProxyObject
 90
      499
 91
      505
 93
      610
310
40901902A4063FBFFFFFE056BD1B81E855B9FC0AD7A3703D0AD73F4214DD185B99185C9900AD7A3703D0AC73F90141901A02B5E8DC0F42B1CFC02B5E8DC0F42B1CFE5764000000000000300FC0
340
14
340
0
340
11
340
0
 94
        0
1001
ACAD_MLEADERVER
1070
     2
  0
MLINESTYLE
  5
18
102
{ACAD_REACTORS
330
17
102
}
330
17
100
AcDbMlineStyle
  2
Standard
 70
     0
  3

 62
   256
 51
90.0
 52
90.0
 71
     2
 49
0.5
 62
   256
  6
BYLAYER
 49
-0.5
 62
   256
  6
BYLAYER
  0
ACAD_PROXY_OBJECT
  5
48
102
{ACAD_REACTORS
330
47
102
}
330
47
100
AcDbProxyObject
 90
      499
 91
      503
 93
       41
310
903313A31580
  0
ACAD_PROXY_OBJECT
  5
49
102
{ACAD_REACTORS
330
47
102
}
330
47
100
AcDbProxyObject
 90
      499
 91
      503
 93
      257
310
90E312F31323822203D2031272D3022000000000000200FC000000000000284000
  0
ACAD_PROXY_OBJECT
  5
4A
102
{ACAD_REACTORS
330
47
102
}
330
47
100
AcDbProxyObject
 90
      499
 91
      503
 93
      249
310
90D312F363422203D2031272D3022000000000000240FC000000000000284000
  0
ACAD_PROXY_OBJECT
  5
4B
102
{ACAD_REACTORS
330
47
102
}
330
47
100
AcDbProxyObject
 90
      499
 91
      503
 93
      249
310
90D312F333222203D2031272D3022000000000000280FC000000000000284000
  0
ACAD_PROXY_OBJECT
  5
4C
102
{ACAD_REACTORS
330
47
102
}
330
47
100
AcDbProxyObject
 90
      499
 91
      503
 93
      249
310
90D312F313622203D2031272D30220000000000002C0FC000000000000284000
  0
ACAD_PROXY_OBJECT
  5
4D
102
{ACAD_REACTORS
330
47
102
}
330
47
100
AcDbProxyObject
 90
      499
 91
      503
 93
      249
310
90D332F333222203D2031272D30220000000000002E0FC000000000000284000
  0
ACAD_PROXY_OBJECT
  5
4E
102
{ACAD_REACTORS
330
47
102
}
330
47
100
AcDbProxyObject
 90
      499
 91
      503
 93
      241
310
90C312F3822203D2031272D3022000000000000300FC000000000000284000
  0
ACAD_PROXY_OBJECT
  5
4F
102
{ACAD_REACTORS
330
47
102
}
330
47
100
AcDbProxyObject
 90
      499
 91
      503
 93
      249
310
90D332F313622203D2031272D3022000000000000320FC000000000000284000
  0
ACAD_PROXY_OBJECT
  5
50
102
{ACAD_REACTORS
330
47
102
}
330
47
100
AcDbProxyObject
 90
      499
 91
      503
 93
      241
310
90C312F3422203D2031272D3022000000000000340FC000000000000284000
  0
ACAD_PROXY_OBJECT
  5
51
102
{ACAD_REACTORS
330
47
102
}
330
47
100
AcDbProxyObject
 90
      499
 91
      503
 93
      241
310
90C332F3822203D2031272D3022000000000000360FC000000000000284000
  0
ACAD_PROXY_OBJECT
  5
52
102
{ACAD_REACTORS
330
47
102
}
330
47
100
AcDbProxyObject
 90
      499
 91
      503
 93
      241
310
90C312F3222203D2031272D3022000000000000380FC000000000000284000
  0
ACAD_PROXY_OBJECT
  5
53
102
{ACAD_REACTORS
330
47
102
}
330
47
100
AcDbProxyObject
 90
      499
 91
      503
 93
      241
310
90C332F3422203D2031272D30220000000000003A0FC000000000000284000
  0
ACAD_PROXY_OBJECT
  5
54
102
{ACAD_REACTORS
330
47
102
}
330
47
100
AcDbProxyObject
 90
      499
 91
      503
 93
      161
310
90A3122203D2031272D30224000000000000284000
  0
ACAD_PROXY_OBJECT
  5
55
102
{ACAD_REACTORS
330
47
102
}
330
47
100
AcDbProxyObject
 90
      499
 91
      503
 93
      257
310
90E312D312F3222203D2031272D30220000000000003E0FC000000000000284000
  0
ACAD_PROXY_OBJECT
  5
56
102
{ACAD_REACTORS
330
47
102
}
330
47
100
AcDbProxyObject
 90
      499
 91
      503
 93
      225
310
90A3322203D2031272D302200000000000002100000000000000284000
  0
ACAD_PROXY_OBJECT
  5
57
102
{ACAD_REACTORS
330
47
102
}
330
47
100
AcDbProxyObject
 90
      499
 91
      503
 93
      225
310
90A3622203D2031272D302200000000000006100000000000000284000
  0
ACAD_PROXY_OBJECT
  5
58
102
{ACAD_REACTORS
330
47
102
}
330
47
100
AcDbProxyObject
 90
      499
 91
      503
 93
      249
310
90D31272D3022203D2031272D30220000000000000A100000000000000284000
  0
ACAD_PROXY_OBJECT
  5
2F
102
{ACAD_REACTORS
330
2A
102
}
330
2A
100
AcDbProxyObject
 90
      499
 91
      501
 93
      436
310
42CC9915DA5C99599C985B595049028333333333333E33F0000000000000F90107901411070040501600405405064090741402480A0340
1001
ACAD
1000
AcDbSavedByObjectVersion
1070
     0
  0
ACAD_PROXY_OBJECT
  5
32
102
{ACAD_REACTORS
330
2A
102
}
330
2A
100
AcDbProxyObject
 90
      499
 91
      501
 93
      388
310
4150985CDA58D07406404333333333333E33F0000000000000F90107A41107004050150841D405064090741402480A0350
1001
ACAD
1000
AcDbSavedByObjectVersion
1070
     0
  0
ACAD_PROXY_OBJECT
  5
36
102
{ACAD_REACTORS
330
2A
102
}
330
2A
100
AcDbProxyObject
 90
      499
 91
      501
 93
      428
310
42109C9A59DA1D195B90C409028333333333333E33F0000000000000F9010790141107004050150841D405064090741402480A029950
1001
ACAD
1000
AcDbSavedByObjectVersion
1070
     0
  0
ACAD_PROXY_OBJECT
  5
3A
102
{ACAD_REACTORS
330
2A
102
}
330
2A
100
AcDbProxyObject
 90
      499
 91
      501
 93
      452
310
42D0DBDB1BDC90DA185B99D95104090240C333333333333E33F0000000000000F90108901411070040501508421405064090741402480A0350
1001
ACAD
1000
AcDbSavedByObjectVersion
1070
     0
  0
ACAD_PROXY_OBJECT
  5
34
102
{ACAD_REACTORS
330
2A
102
}
330
2A
100
AcDbProxyObject
 90
      499
 91
      501
 93
      500
310
4290DBDB98D95C1D1D585B10940D028333333333333E33F0000000000000F90107902409070040501000000000018199010841D405064090740C02480A0340
1001
ACAD
1000
AcDbSavedByObjectVersion
1070
     0
  0
ACAD_PROXY_OBJECT
  5
35
102
{ACAD_REACTORS
330
2A
102
}
330
2A
100
AcDbProxyObject
 90
      499
 91
      501
 93
      412
310
40D11A5B50B409028333333333333E33F0000000000000F9010790141107004050150841D405064090741402480A02677FFFFFD0
1001
ACAD
1000
AcDbSavedByObjectVersion
1070
     0
  0
ACAD_PROXY_OBJECT
  5
3D
102
{ACAD_REACTORS
330
2A
102
}
330
2A
100
AcDbProxyObject
 90
      499
 91
      501
 93
      452
310
43115919D950DBDB1BDC93D999916409028333333333333E33F0000000000000F9010790141107004050150841D405064090741402480A0350
1001
ACAD
1000
AcDbSavedByObjectVersion
1070
     0
  0
ACAD_PROXY_OBJECT
  5
39
102
{ACAD_REACTORS
330
2A
102
}
330
2A
100
AcDbProxyObject
 90
      499
 91
      501
 93
      444
310
42D19858D95C185D1D195C9B90F409028333333333333E33F0000000000000F9010790141107004050150841D405064090741402480A0350
1001
ACAD
1000
AcDbSavedByObjectVersion
1070
     0
  0
ACAD_PROXY_OBJECT
  5
2B
102
{ACAD_REACTORS
330
2A
102
}
330
2A
100
AcDbProxyObject
 90
      499
 91
      501
 93
      380
310
41119B185D240901404333333333333E33F0000000000000F9010740A907004050150841D405064090741402480A1B50
1001
ACAD
1000
AcDbSavedByObjectVersion
1070
     0
  0
ACAD_PROXY_OBJECT
  5
2C
102
{ACAD_REACTORS
330
2A
102
}
330
2A
100
AcDbProxyObject
 90
      499
 91
      501
 93
      468
310
43519B185D15DA5D1A115919D95CD0140901404333333333333E33F0000000000000F90107409019070040501600405405064090741402480A1B50
1001
ACAD
1000
AcDbSavedByObjectVersion
1070
     0
  0
ACAD_PROXY_OBJECT
  5
2D
102
{ACAD_REACTORS
330
2A
102
}
330
2A
100
AcDbProxyObject
 90
      499
 91
      501
 93
      404
310
41D1DBDD5C985D5910240902404333333333333E33F0000000000000F9010740A9070040501641D405064090741402480A1B50
1001
ACAD
1000
AcDbSavedByObjectVersion
1070
     0
  0
ACAD_PROXY_OBJECT
  5
2E
102
{ACAD_REACTORS
330
2A
102
}
330
2A
100
AcDbProxyObject
 90
      499
 91
      501
 93
      492
310
4411DBDD5C985D5915DA5D1A115919D95CD0340902404333333333333E33F0000000000000F90107409019070040501600405405064090741402480A1B50
1001
ACAD
1000
AcDbSavedByObjectVersion
1070
     0
  0
ACAD_PROXY_OBJECT
  5
31
102
{ACAD_REACTORS
330
2A
102
}
330
2A
100
AcDbProxyObject
 90
      499
 91
      501
 93
      476
310
41921A5919195B90640502408333333333333E33F0000000000000F901079024090700405020000000000001110200405405064090740C02480A0340
1001
ACAD
1000
AcDbSavedByObjectVersion
1070
     0
  0
ACAD_PROXY_OBJECT
  5
3B
102
{ACAD_REACTORS
330
2A
102
}
330
2A
100
AcDbProxyObject
 90
      499
 91
      501
 93
      428
310
42529A5D1D195C93D999914409028333333333333E33F0000000000000F9010790141107004050150A41D405064090741402480A0350
1001
ACAD
1000
AcDbSavedByObjectVersion
1070
     0
  0
ACAD_PROXY_OBJECT
  5
38
102
{ACAD_REACTORS
330
2A
102
}
330
2A
100
AcDbProxyObject
 90
      499
 91
      501
 93
      444
310
42D31A5B995C185D1D195C9B90E409028333333333333E33F0000000000000F9010790141107004050750841D405064090741402483A0350
1001
ACAD
1000
AcDbSavedByObjectVersion
1070
     0
  0
ACAD_PROXY_OBJECT
  5
3C
102
{ACAD_REACTORS
330
2A
102
}
330
2A
100
AcDbProxyObject
 90
      499
 91
      501
 93
      444
310
42D3DD995C9A185B99D3D999915409028333333333333E33F0000000000000F9010790141107004050150941D405064090741402480A0350
1001
ACAD
1000
AcDbSavedByObjectVersion
1070
     0
  0
ACAD_PROXY_OBJECT
  5
33
102
{ACAD_REACTORS
330
2A
102
}
330
2A
100
AcDbProxyObject
 90
      499
 91
      501
 93
      428
310
425499585B1A5CDD1A58D08409038333333333333E33F0000000000000F9010740A907004050150800405405064090740C02480A1B40
1001
ACAD
1000
AcDbSavedByObjectVersion
1070
     0
  0
ACAD_PROXY_OBJECT
  5
42
102
{ACAD_REACTORS
330
2A
102
}
330
2A
100
AcDbProxyObject
 90
      499
 91
      501
 93
      420
310
4194DA1859195911B40902404333333333333E33F0000000000000F9010740A41107004050150800405405064090840C02480A0B40
1001
ACAD
1000
AcDbSavedByObjectVersion
1070
     0
  0
ACAD_PROXY_OBJECT
  5
41
102
{ACAD_REACTORS
330
2A
102
}
330
2A
100
AcDbProxyObject
 90
      499
 91
      501
 93
      516
310
4454DA18591959081DDA5D1A08195919D95CD1A40902404333333333333E33F0000000000000F901074090142907004050250800405405064090740C02480A0B40
1001
ACAD
1000
AcDbSavedByObjectVersion
1070
     0
  0
ACAD_PROXY_OBJECT
  5
3E
102
{ACAD_REACTORS
330
2A
102
}
330
2A
100
AcDbProxyObject
 90
      499
 91
      501
 93
      532
310
4394DA1859195CC81BD98811DC985E5174090240C333333333333E33F0000000000000F901079024090741D01000000000000111010841D405064090740C02480A0340
1001
ACAD
1000
AcDbSavedByObjectVersion
1070
     0
  0
ACAD_PROXY_OBJECT
  5
3F
102
{ACAD_REACTORS
330
2A
102
}
330
2A
100
AcDbProxyObject
 90
      499
 91
      501
 93
      476
310
41D4DAD95D18DA1E51840502408333333333333E33F0000000000000F901079024090741D01000000000000111010B41D405064090741802480A0340
1001
ACAD
1000
AcDbSavedByObjectVersion
1070
     0
  0
ACAD_PROXY_OBJECT
  5
37
102
{ACAD_REACTORS
330
2A
102
}
330
2A
100
AcDbProxyObject
 90
      499
 91
      501
 93
      412
310
41D51A1A58DAD95B90D409028333333333333E33F0000000000000F9010790141107004050150C41D405064090741402480A0350
1001
ACAD
1000
AcDbSavedByObjectVersion
1070
     0
  0
ACAD_PROXY_OBJECT
  5
30
102
{ACAD_REACTORS
330
2A
102
}
330
2A
100
AcDbProxyObject
 90
      499
 91
      501
 93
      420
310
4255DA5C99599C985B595059028333333333333E33F0000000000000F90107901411070040501600405405064090740C02480A0340
1001
ACAD
1000
AcDbSavedByObjectVersion
1070
     0
  0
ACAD_PROXY_OBJECT
  5
40
102
{ACAD_REACTORS
330
2A
102
}
330
2A
100
AcDbProxyObject
 90
      499
 91
      501
 93
      404
310
41560B54985E51940902404000000000000E03F0000000000000F9010740501907004050150841D405064090740C02480A1B40
1001
ACAD
1000
AcDbSavedByObjectVersion
1070
     0
  0
XRECORD
  5
3D9
102
{ACAD_REACTORS
330
3CF
102
}
330
3CF
100
AcDbXrecord
340
0
  0
XRECORD
  5
3D8
102
{ACAD_REACTORS
330
3CF
102
}
330
3CF
100
AcDbXrecord
 90
        0
  0
XRECORD
  5
3EF
102
{ACAD_REACTORS
330
3CF
102
}
330
3CF
100
AcDbXrecord
1000
DSTYLE
1002
{
1070
   171
 70
     2
1070
   143
 40
25.4
1070
   274
 70
     2
1070
    41
 40
0.18
1070
   141
 40
0.09
1070
   271
 70
     4
1070
    43
 40
0.38
1070
   278
 70
    46
1070
    44
 40
0.18
1070
    42
 40
0.0625
1070
   147
 40
0.09
1070
    77
 70
     0
1070
   272
 70
     4
1070
    73
 70
     1
1070
   279
 70
     2
1070
   172
 70
     0
1070
    74
 70
     1
1070
   283
 70
     1
1070
   340
340
11
1070
   140
 40
0.18
1070
   284
 70
     0
1070
    78
 70
     0
1002
}
  0
XRECORD
  5
3DA
102
{ACAD_REACTORS
330
3CF
102
}
330
3CF
100
AcDbXrecord
  1
{66df4023-c4ef-4191-a3eb-aca7e16c8be9}
  0
XRECORD
  5
3D2
102
{ACAD_REACTORS
330
3CF
102
}
330
3CF
100
AcDbXrecord
  1

  0
XRECORD
  5
3D7
102
{ACAD_REACTORS
330
3CF
102
}
330
3CF
100
AcDbXrecord
 90
        4
  0
XRECORD
  5
3D4
102
{ACAD_REACTORS
330
3CF
102
}
330
3CF
100
AcDbXrecord
340
1A
  0
XRECORD
  5
3D6
102
{ACAD_REACTORS
330
3CF
102
}
330
3CF
100
AcDbXrecord
 90
    10781
  0
XRECORD
  5
3D5
102
{ACAD_REACTORS
330
3CF
102
}
330
3CF
100
AcDbXrecord
340
19
  0
XRECORD
  5
3DC
102
{ACAD_REACTORS
330
3CF
102
}
330
3CF
100
AcDbXrecord
 40
0.0
  0
XRECORD
  5
3DF
102
{ACAD_REACTORS
330
3CF
102
}
330
3CF
100
AcDbXrecord
340
0
  0
XRECORD
  5
3E5
102
{ACAD_REACTORS
330
3CF
102
}
330
3CF
100
AcDbXrecord
 10
0.0
 20
0.0
 30
0.0
  0
XRECORD
  5
3E1
102
{ACAD_REACTORS
330
3CF
102
}
330
3CF
100
AcDbXrecord
 10
0.0
 20
0.0
 30
0.0
  0
XRECORD
  5
3E4
102
{ACAD_REACTORS
330
3CF
102
}
330
3CF
100
AcDbXrecord
 10
0.0
 20
0.0
 30
0.0
  0
XRECORD
  5
3E2
102
{ACAD_REACTORS
330
3CF
102
}
330
3CF
100
AcDbXrecord
 10
0.0
 20
0.0
 30
0.0
  0
XRECORD
  5
3E3
102
{ACAD_REACTORS
330
3CF
102
}
330
3CF
100
AcDbXrecord
 10
0.0
 20
0.0
 30
0.0
  0
XRECORD
  5
3E0
102
{ACAD_REACTORS
330
3CF
102
}
330
3CF
100
AcDbXrecord
 10
0.0
 20
0.0
 30
0.0
  0
XRECORD
  5
3DD
102
{ACAD_REACTORS
330
3CF
102
}
330
3CF
100
AcDbXrecord
340
0
  0
XRECORD
  5
3DE
102
{ACAD_REACTORS
330
3CF
102
}
330
3CF
100
AcDbXrecord
 70
     0
  0
XRECORD
  5
3D3
102
{ACAD_REACTORS
330
3CF
102
}
330
3CF
100
AcDbXrecord
  1

  0
XRECORD
  5
3D0
102
{ACAD_REACTORS
330
3CF
102
}
330
3CF
100
AcDbXrecord
 90
        1
  0
XRECORD
  5
3D1
102
{ACAD_REACTORS
330
3CF
102
}
330
3CF
100
AcDbXrecord
 90
       70
  0
XRECORD
  5
3E8
102
{ACAD_REACTORS
330
3CF
102
}
330
3CF
100
AcDbXrecord
340
0
  0
XRECORD
  5
3EE
102
{ACAD_REACTORS
330
3CF
102
}
330
3CF
100
AcDbXrecord
 10
0.0
 20
0.0
 30
0.0
  0
XRECORD
  5
3EA
102
{ACAD_REACTORS
330
3CF
102
}
330
3CF
100
AcDbXrecord
 10
0.0
 20
0.0
 30
0.0
  0
XRECORD
  5
3ED
102
{ACAD_REACTORS
330
3CF
102
}
330
3CF
100
AcDbXrecord
 10
0.0
 20
0.0
 30
0.0
  0
XRECORD
  5
3EB
102
{ACAD_REACTORS
330
3CF
102
}
330
3CF
100
AcDbXrecord
 10
0.0
 20
0.0
 30
0.0
  0
XRECORD
  5
3EC
102
{ACAD_REACTORS
330
3CF
102
}
330
3CF
100
AcDbXrecord
 10
0.0
 20
0.0
 30
0.0
  0
XRECORD
  5
3E9
102
{ACAD_REACTORS
330
3CF
102
}
330
3CF
100
AcDbXrecord
 10
0.0
 20
0.0
 30
0.0
  0
XRECORD
  5
3E6
102
{ACAD_REACTORS
330
3CF
102
}
330
3CF
100
AcDbXrecord
340
0
  0
XRECORD
  5
3E7
102
{ACAD_REACTORS
330
3CF
102
}
330
3CF
100
AcDbXrecord
 70
     0
  0
XRECORD
  5
3DB
102
{ACAD_REACTORS
330
3CF
102
}
330
3CF
100
AcDbXrecord
  1
{FAEB1C32-E019-11D5-929B-00C0DF256EC4}
  0
DICTIONARYVAR
  5
3FA
102
{ACAD_REACTORS
330
3F0
102
}
330
3F0
100
DictionaryVariables
280
     0
  1
1:1
  0
DICTIONARYVAR
  5
3F2
102
{ACAD_REACTORS
330
3F0
102
}
330
3F0
100
DictionaryVariables
280
     0
  1
Standard
  0
DICTIONARYVAR
  5
3F1
102
{ACAD_REACTORS
330
3F0
102
}
330
3F0
100
DictionaryVariables
280
     0
  1
Standard
  0
DICTIONARYVAR
  5
3F5
102
{ACAD_REACTORS
330
3F0
102
}
330
3F0
100
DictionaryVariables
280
     0
  1
2
  0
DICTIONARYVAR
  5
3F6
102
{ACAD_REACTORS
330
3F0
102
}
330
3F0
100
DictionaryVariables
280
     0
  1
1
  0
DICTIONARYVAR
  5
3FB
102
{ACAD_REACTORS
330
3F0
102
}
330
3F0
100
DictionaryVariables
280
     0
  1
1
  0
DICTIONARY
  5
3FE
330
45
100
AcDbDictionary
280
     1
  3
ACAD_XREC_ROUNDTRIP
360
3FF
  0
DICTIONARY
  5
3FC
330
44
100
AcDbDictionary
280
     1
  3
ACAD_XREC_ROUNDTRIP
360
3FD
  0
DICTIONARY
  5
400
330
46
100
AcDbDictionary
280
     1
  3
ACAD_XREC_ROUNDTRIP
360
401
  0
XRECORD
  5
3FF
102
{ACAD_REACTORS
330
3FE
102
}
330
3FE
100
AcDbXrecord
102
MATERIAL
148
0.0
149
0.0
149
0.0
 93
        0
 94
      127
282
     0
 72
     1
 77
     1
171
     1
175
     1
179
     1
273
     0
  0
XRECORD
  5
3FD
102
{ACAD_REACTORS
330
3FC
102
}
330
3FC
100
AcDbXrecord
102
MATERIAL
148
0.0
149
0.0
149
0.0
 93
        0
 94
      127
282
     0
 72
     1
 77
     1
171
     1
175
     1
179
     1
273
     0
  0
XRECORD
  5
401
102
{ACAD_REACTORS
330
400
102
}
330
400
100
AcDbXrecord
102
MATERIAL
148
0.0
149
0.0
149
0.0
 93
        0
 94
      127
282
     0
 72
     1
 77
     1
171
     1
175
     1
179
     1
273
     0
  0
ENDSEC
  0
EOF
