  0
SECTION
  2
HEADER
  9
$ACADVER
  1
AC1014
  9
$ACADMAINTVER
 70
     9
  9
$DWGCODEPAGE
  3
ANSI_1252
  9
$INSBASE
 10
0.0
 20
0.0
 30
0.0
  9
$EXTMIN
 10
-1181.750000000873
 20
-92.72839215772547
 30
0.0
  9
$EXTMAX
 10
1181.750000000866
 20
92.77160784305306
 30
0.0
  9
$LIMMIN
 10
0.0
 20
0.0
  9
$LIMMAX
 10
12.0
 20
9.0
  9
$ORTHOMODE
 70
     0
  9
$REGENMODE
 70
     1
  9
$FILLMODE
 70
     1
  9
$QTEXTMODE
 70
     0
  9
$MIRRTEXT
 70
     1
  9
$DRAGMODE
 70
     2
  9
$LTSCALE
 40
1.0
  9
$OSMODE
 70
    37
  9
$ATTMODE
 70
     1
  9
$TEXTSIZE
 40
0.2
  9
$TRACEWID
 40
0.05
  9
$TEXTSTYLE
  7
STANDARD
  9
$CLAYER
  8
0
  9
$CELTYPE
  6
BYLAYER
  9
$CECOLOR
 62
   256
  9
$CELTSCALE
 40
1.0
  9
$DELOBJ
 70
     1
  9
$DISPSILH
 70
     0
  9
$DIMSCALE
 40
1.0
  9
$DIMASZ
 40
0.18
  9
$DIMEXO
 40
0.0625
  9
$DIMDLI
 40
0.38
  9
$DIMRND
 40
0.0
  9
$DIMDLE
 40
0.0
  9
$DIMEXE
 40
0.18
  9
$DIMTP
 40
0.0
  9
$DIMTM
 40
0.0
  9
$DIMTXT
 40
0.18
  9
$DIMCEN
 40
0.09
  9
$DIMTSZ
 40
0.0
  9
$DIMTOL
 70
     0
  9
$DIMLIM
 70
     0
  9
$DIMTIH
 70
     1
  9
$DIMTOH
 70
     1
  9
$DIMSE1
 70
     0
  9
$DIMSE2
 70
     0
  9
$DIMTAD
 70
     0
  9
$DIMZIN
 70
     0
  9
$DIMBLK
  1

  9
$DIMASO
 70
     1
  9
$DIMSHO
 70
     1
  9
$DIMPOST
  1

  9
$DIMAPOST
  1

  9
$DIMALT
 70
     0
  9
$DIMALTD
 70
     2
  9
$DIMALTF
 40
25.4
  9
$DIMLFAC
 40
1.0
  9
$DIMTOFL
 70
     0
  9
$DIMTVP
 40
0.0
  9
$DIMTIX
 70
     0
  9
$DIMSOXD
 70
     0
  9
$DIMSAH
 70
     0
  9
$DIMBLK1
  1

  9
$DIMBLK2
  1

  9
$DIMSTYLE
  2
STANDARD_ACAD
  9
$DIMCLRD
 70
     0
  9
$DIMCLRE
 70
     0
  9
$DIMCLRT
 70
     0
  9
$DIMTFAC
 40
1.0
  9
$DIMGAP
 40
0.09
  9
$DIMJUST
 70
     0
  9
$DIMSD1
 70
     0
  9
$DIMSD2
 70
     0
  9
$DIMTOLJ
 70
     1
  9
$DIMTZIN
 70
     0
  9
$DIMALTZ
 70
     0
  9
$DIMALTTZ
 70
     0
  9
$DIMFIT
 70
     5
  9
$DIMUPT
 70
     0
  9
$DIMUNIT
 70
     2
  9
$DIMDEC
 70
     4
  9
$DIMTDEC
 70
     4
  9
$DIMALTU
 70
     2
  9
$DIMALTTD
 70
     2
  9
$DIMTXSTY
  7
STANDARD
  9
$DIMAUNIT
 70
     0
  9
$LUNITS
 70
     2
  9
$LUPREC
 70
     3
  9
$SKETCHINC
 40
0.1
  9
$FILLETRAD
 40
0.0
  9
$AUNITS
 70
     0
  9
$AUPREC
 70
     0
  9
$MENU
  1
.
  9
$ELEVATION
 40
0.0
  9
$PELEVATION
 40
0.0
  9
$THICKNESS
 40
0.0
  9
$LIMCHECK
 70
     0
  9
$CHAMFERA
 40
0.0
  9
$CHAMFERB
 40
0.0
  9
$CHAMFERC
 40
0.0
  9
$CHAMFERD
 40
0.0
  9
$SKPOLY
 70
     0
  9
$TDCREATE
 40
2461243.667081933
  9
$TDUPDATE
 40
2461243.667082072
  9
$TDINDWG
 40
0.0000000116
  9
$TDUSRTIMER
 40
0.0000000116
  9
$USRTIMER
 70
     1
  9
$ANGBASE
 50
0.0
  9
$ANGDIR
 70
     0
  9
$PDMODE
 70
     0
  9
$PDSIZE
 40
0.0
  9
$PLINEWID
 40
0.0
  9
$COORDS
 70
     1
  9
$SPLFRAME
 70
     0
  9
$SPLINETYPE
 70
     6
  9
$SPLINESEGS
 70
     8
  9
$ATTDIA
 70
     0
  9
$ATTREQ
 70
     1
  9
$HANDLING
 70
     1
  9
$HANDSEED
  5
412
  9
$SURFTAB1
 70
     6
  9
$SURFTAB2
 70
     6
  9
$SURFTYPE
 70
     6
  9
$SURFU
 70
     6
  9
$SURFV
 70
     6
  9
$UCSNAME
  2

  9
$UCSORG
 10
0.0
 20
0.0
 30
0.0
  9
$UCSXDIR
 10
1.0
 20
0.0
 30
0.0
  9
$UCSYDIR
 10
0.0
 20
1.0
 30
0.0
  9
$PUCSNAME
  2

  9
$PUCSORG
 10
0.0
 20
0.0
 30
0.0
  9
$PUCSXDIR
 10
1.0
 20
0.0
 30
0.0
  9
$PUCSYDIR
 10
0.0
 20
1.0
 30
0.0
  9
$USERI1
 70
     0
  9
$USERI2
 70
     0
  9
$USERI3
 70
     0
  9
$USERI4
 70
     0
  9
$USERI5
 70
     0
  9
$USERR1
 40
0.0
  9
$USERR2
 40
0.0
  9
$USERR3
 40
0.0
  9
$USERR4
 40
0.0
  9
$USERR5
 40
0.0
  9
$WORLDVIEW
 70
     1
  9
$SHADEDGE
 70
     3
  9
$SHADEDIF
 70
    70
  9
$TILEMODE
 70
     1
  9
$MAXACTVP
 70
    64
  9
$PINSBASE
 10
0.0
 20
0.0
 30
0.0
  9
$PLIMCHECK
 70
     0
  9
$PEXTMIN
 10
1.000000000000000E+20
 20
1.000000000000000E+20
 30
1.000000000000000E+20
  9
$PEXTMAX
 10
-1.000000000000000E+20
 20
-1.000000000000000E+20
 30
-1.000000000000000E+20
  9
$PLIMMIN
 10
0.0
 20
0.0
  9
$PLIMMAX
 10
12.0
 20
9.0
  9
$UNITMODE
 70
     0
  9
$VISRETAIN
 70
     1
  9
$PLINEGEN
 70
     0
  9
$PSLTSCALE
 70
     1
  9
$TREEDEPTH
 70
  3020
  9
$PICKSTYLE
 70
     1
  9
$CMLSTYLE
  2
STANDARD
  9
$CMLJUST
 70
     0
  9
$CMLSCALE
 40
1.0
  9
$PROXYGRAPHICS
 70
     1
  9
$MEASUREMENT
 70
     1
  0
ENDSEC
  0
SECTION
  2
CLASSES
  0
CLASS
  1
ACDBDICTIONARYWDFLT
  2
AcDbDictionaryWithDefault
  3
ObjectDBX Classes
 90
        0
280
     0
281
     0
  0
CLASS
  1
VISUALSTYLE
  2
AcDbVisualStyle
  3
ObjectDBX Classes
 90
     4095
280
     0
281
     0
  0
CLASS
  1
MATERIAL
  2
AcDbMaterial
  3
ObjectDBX Classes
 90
     1153
280
     0
281
     0
  0
CLASS
  1
SCALE
  2
AcDbScale
  3
ObjectDBX Classes
 90
     1153
280
     0
281
     0
  0
CLASS
  1
TABLESTYLE
  2
AcDbTableStyle
  3
ObjectDBX Classes
 90
     4095
280
     0
281
     0
  0
CLASS
  1
MLEADERSTYLE
  2
AcDbMLeaderStyle
  3
ACDB_MLEADERSTYLE_CLASS
 90
     4095
280
     0
281
     0
  0
CLASS
  1
SUN
  2
AcDbSun
  3
SCENEOE
 90
     1153
280
     0
281
     0
  0
CLASS
  1
DICTIONARYVAR
  2
AcDbDictionaryVar
  3
ObjectDBX Classes
 90
        0
280
     0
281
     0
  0
CLASS
  1
XRECORD
  2
AcDbXrecord
  3
ObjectDBX Classes
 90
        0
280
     0
281
     0
  0
CLASS
  1
LWPOLYLINE
  2
AcDbPolyline
  3
ObjectDBX Classes
 90
        0
280
     0
281
     1
  0
CLASS
  1
HATCH
  2
AcDbHatch
  3
ObjectDBX Classes
 90
        0
280
     0
281
     1
  0
CLASS
  1
ACDBPLACEHOLDER
  2
AcDbPlaceHolder
  3
ObjectDBX Classes
 90
        0
280
     0
281
     0
  0
CLASS
  1
LAYOUT
  2
AcDbLayout
  3
ObjectDBX Classes
 90
        0
280
     0
281
     0
  0
ENDSEC
  0
SECTION
  2
TABLES
  0
TABLE
  2
VPORT
  5
8
102
{ACAD_XDICTIONARY
360
407
102
}
330
0
100
AcDbSymbolTable
 70
     1
  0
VPORT
  5
29
330
8
100
AcDbSymbolTableRecord
100
AcDbViewportTableRecord
  2
*ACTIVE
 70
     0
 10
0.0
 20
0.0
 11
1.0
 21
1.0
 12
10.42990654205607
 22
4.5
 13
0.0
 23
0.0
 14
0.5
 24
0.5
 15
0.5
 25
0.5
 16
0.0
 26
0.0
 36
1.0
 17
0.0
 27
0.0
 37
0.0
 40
9.0
 41
1.972972972850329
 42
50.0
 43
0.0
 44
0.0
 50
0.0
 51
0.0
 71
     0
 72
   100
 73
     1
 74
     3
 75
     0
 76
     0
 77
     0
 78
     0
  0
ENDTAB
  0
TABLE
  2
LTYPE
  5
5
330
0
100
AcDbSymbolTable
 70
     1
  0
LTYPE
  5
14
330
5
100
AcDbSymbolTableRecord
100
AcDbLinetypeTableRecord
  2
BYBLOCK
 70
     0
  3

 72
    65
 73
     0
 40
0.0
  0
LTYPE
  5
15
330
5
100
AcDbSymbolTableRecord
100
AcDbLinetypeTableRecord
  2
BYLAYER
 70
     0
  3

 72
    65
 73
     0
 40
0.0
  0
LTYPE
  5
16
330
5
100
AcDbSymbolTableRecord
100
AcDbLinetypeTableRecord
  2
CONTINUOUS
 70
     0
  3
Solid line
 72
    65
 73
     0
 40
0.0
  0
ENDTAB
  0
TABLE
  2
LAYER
  5
2
330
0
100
AcDbSymbolTable
 70
     4
  0
LAYER
  5
10
330
2
100
AcDbSymbolTableRecord
100
AcDbLayerTableRecord
  2
0
 70
     0
 62
     7
  6
CONTINUOUS
  0
LAYER
  5
5F
330
2
100
AcDbSymbolTableRecord
100
AcDbLayerTableRecord
  2
1_ANYTOOL_1MMDEEP_LABELS_S
 70
     0
 62
     2
  6
CONTINUOUS
  0
LAYER
  5
2AA
330
2
100
AcDbSymbolTableRecord
100
AcDbLayerTableRecord
  2
3_ANYTOOL_CUTTHROUGH_INSID
 70
     0
 62
     4
  6
CONTINUOUS
  0
LAYER
  5
2FF
330
2
100
AcDbSymbolTableRecord
100
AcDbLayerTableRecord
  2
4_ANYTOOL_CUTTHROUGH_OUTSI
 70
     0
 62
     5
  6
CONTINUOUS
  0
ENDTAB
  0
TABLE
  2
STYLE
  5
3
330
0
100
AcDbSymbolTable
 70
     1
  0
STYLE
  5
11
330
3
100
AcDbSymbolTableRecord
100
AcDbTextStyleTableRecord
  2
STANDARD
 70
     0
 40
0.0
 41
1.0
 50
0.0
 71
     0
 42
0.2
  3
txt
  4

  0
ENDTAB
  0
TABLE
  2
VIEW
  5
6
330
0
100
AcDbSymbolTable
 70
     0
  0
ENDTAB
  0
TABLE
  2
UCS
  5
7
330
0
100
AcDbSymbolTable
 70
     0
  0
ENDTAB
  0
TABLE
  2
APPID
  5
9
330
0
100
AcDbSymbolTable
 70
     3
  0
APPID
  5
12
330
9
100
AcDbSymbolTableRecord
100
AcDbRegAppTableRecord
  2
ACAD
 70
     0
  0
APPID
  5
5E
330
9
100
AcDbSymbolTableRecord
100
AcDbRegAppTableRecord
  2
RHINO
 70
     0
  0
APPID
  5
411
330
9
100
AcDbSymbolTableRecord
100
AcDbRegAppTableRecord
  2
ACAD_MLEADERVER
 70
     0
  0
ENDTAB
  0
TABLE
  2
DIMSTYLE
  5
A
330
0
100
AcDbSymbolTable
 70
     1
  0
DIMSTYLE
105
27
330
A
100
AcDbSymbolTableRecord
100
AcDbDimStyleTableRecord
  2
STANDARD_ACAD
 70
     0
  3

  4

  5

  6

  7

 40
1.0
 41
0.18
 42
0.0625
 43
0.38
 44
0.18
 45
0.0
 46
0.0
 47
0.0
 48
0.0
140
0.18
141
0.09
142
0.0
143
25.4
144
1.0
145
0.0
146
1.0
147
0.09
 71
     0
 72
     0
 73
     1
 74
     1
 75
     0
 76
     0
 77
     0
 78
     0
170
     0
171
     2
172
     0
173
     0
174
     0
175
     0
176
     0
177
     0
178
     0
270
     2
271
     4
272
     4
273
     2
274
     2
340
11
275
     0
280
     0
281
     0
282
     0
283
     1
284
     0
285
     0
286
     0
287
     3
288
     0
  0
ENDTAB
  0
TABLE
  2
BLOCK_RECORD
  5
1
330
0
100
AcDbSymbolTable
 70
     0
  0
BLOCK_RECORD
  5
1F
330
1
100
AcDbSymbolTableRecord
100
AcDbBlockTableRecord
  2
*MODEL_SPACE
  0
BLOCK_RECORD
  5
1B
330
1
100
AcDbSymbolTableRecord
100
AcDbBlockTableRecord
  2
*PAPER_SPACE
  0
ENDTAB
  0
ENDSEC
  0
SECTION
  2
BLOCKS
  0
BLOCK
  5
20
330
1F
100
AcDbEntity
  8
0
100
AcDbBlockBegin
  2
*MODEL_SPACE
 70
     0
 10
0.0
 20
0.0
 30
0.0
  3
*MODEL_SPACE
  1

  0
ENDBLK
  5
21
330
1F
100
AcDbEntity
  8
0
100
AcDbBlockEnd
  0
BLOCK
  5
1C
330
1B
100
AcDbEntity
 67
     1
  8
0
100
AcDbBlockBegin
  2
*PAPER_SPACE
 70
     0
 10
0.0
 20
0.0
 30
0.0
  3
*PAPER_SPACE
  1

  0
ENDBLK
  5
1D
330
1B
100
AcDbEntity
 67
     1
  8
0
100
AcDbBlockEnd
  0
ENDSEC
  0
SECTION
  2
ENTITIES
  0
POLYLINE
  5
60
330
1F
100
AcDbEntity
  8
1_ANYTOOL_1MMDEEP_LABELS_S
100
AcDb2dPolyline
 66
     1
 10
0.0
 20
0.0
 30
0.0
 70
     1
  0
VERTEX
  5
61
330
60
100
AcDbEntity
  8
1_ANYTOOL_1MMDEEP_LABELS_S
100
AcDbVertex
100
AcDb2dVertex
 10
311.0673414167468
 20
-0.000000000007276
 30
0.0
  0
VERTEX
  5
62
330
60
100
AcDbEntity
  8
1_ANYTOOL_1MMDEEP_LABELS_S
100
AcDbVertex
100
AcDb2dVertex
 10
311.0673414167468
 20
-30.00000000000728
 30
0.0
  0
VERTEX
  5
63
330
60
100
AcDbEntity
  8
1_ANYTOOL_1MMDEEP_LABELS_S
100
AcDbVertex
100
AcDb2dVertex
 10
319.5959128453178
 20
-29.91428571429424
 30
0.0
  0
VERTEX
  5
64
330
60
100
AcDbEntity
  8
1_ANYTOOL_1MMDEEP_LABELS_S
100
AcDbVertex
100
AcDb2dVertex
 10
320.0071572649605
 20
-29.9041992187586
 30
0.0
  0
VERTEX
  5
65
330
60
100
AcDbEntity
  8
1_ANYTOOL_1MMDEEP_LABELS_S
100
AcDbVertex
100
AcDb2dVertex
 10
320.4105333810318
 20
-29.88465401786581
 30
0.0
  0
VERTEX
  5
66
330
60
100
AcDbEntity
  8
1_ANYTOOL_1MMDEEP_LABELS_S
100
AcDbVertex
100
AcDb2dVertex
 10
320.8060411935317
 20
-29.85565011161588
 30
0.0
  0
VERTEX
  5
67
330
60
100
AcDbEntity
  8
1_ANYTOOL_1MMDEEP_LABELS_S
100
AcDbVertex
100
AcDb2dVertex
 10
321.1936807024601
 20
-29.8171875000088
 30
0.0
  0
VERTEX
  5
68
330
60
100
AcDbEntity
  8
1_ANYTOOL_1MMDEEP_LABELS_S
100
AcDbVertex
100
AcDb2dVertex
 10
321.5734519078171
 20
-29.76926618304457
 30
0.0
  0
VERTEX
  5
69
330
60
100
AcDbEntity
  8
1_ANYTOOL_1MMDEEP_LABELS_S
100
AcDbVertex
100
AcDb2dVertex
 10
321.9453548096027
 20
-29.7118861607232
 30
0.0
  0
VERTEX
  5
6A
330
60
100
AcDbEntity
  8
1_ANYTOOL_1MMDEEP_LABELS_S
100
AcDbVertex
100
AcDb2dVertex
 10
322.3093894078169
 20
-29.64504743304467
 30
0.0
  0
VERTEX
  5
6B
330
60
100
AcDbEntity
  8
1_ANYTOOL_1MMDEEP_LABELS_S
100
AcDbVertex
100
AcDb2dVertex
 10
322.6655557024596
 20
-29.568750000009
 30
0.0
  0
VERTEX
  5
6C
330
60
100
AcDbEntity
  8
1_ANYTOOL_1MMDEEP_LABELS_S
100
AcDbVertex
100
AcDb2dVertex
 10
323.013853693531
 20
-29.48299386161619
 30
0.0
  0
VERTEX
  5
6D
330
60
100
AcDbEntity
  8
1_ANYTOOL_1MMDEEP_LABELS_S
100
AcDbVertex
100
AcDb2dVertex
 10
323.3542833810308
 20
-29.38777901786622
 30
0.0
  0
VERTEX
  5
6E
330
60
100
AcDbEntity
  8
1_ANYTOOL_1MMDEEP_LABELS_S
100
AcDbVertex
100
AcDb2dVertex
 10
323.6868447649592
 20
-29.28310546875911
 30
0.0
  0
VERTEX
  5
6F
330
60
100
AcDbEntity
  8
1_ANYTOOL_1MMDEEP_LABELS_S
100
AcDbVertex
100
AcDb2dVertex
 10
324.0115378453163
 20
-29.16897321429485
 30
0.0
  0
VERTEX
  5
70
330
60
100
AcDbEntity
  8
1_ANYTOOL_1MMDEEP_LABELS_S
100
AcDbVertex
100
AcDb2dVertex
 10
324.3283626221018
 20
-29.04538225447345
 30
0.0
  0
VERTEX
  5
71
330
60
100
AcDbEntity
  8
1_ANYTOOL_1MMDEEP_LABELS_S
100
AcDbVertex
100
AcDb2dVertex
 10
324.4838243966554
 20
-28.98003976005381
 30
0.0
  0
VERTEX
  5
72
330
60
100
AcDbEntity
  8
1_ANYTOOL_1MMDEEP_LABELS_S
100
AcDbVertex
100
AcDb2dVertex
 10
324.6373190953161
 20
-28.91233258929489
 30
0.0
  0
VERTEX
  5
73
330
60
100
AcDbEntity
  8
1_ANYTOOL_1MMDEEP_LABELS_S
100
AcDbVertex
100
AcDb2dVertex
 10
324.7888467180838
 20
-28.84226074219669
 30
0.0
  0
VERTEX
  5
74
330
60
100
AcDbEntity
  8
1_ANYTOOL_1MMDEEP_LABELS_S
100
AcDbVertex
100
AcDb2dVertex
 10
324.9384072649588
 20
-28.76982421875919
 30
0.0
  0
VERTEX
  5
75
330
60
100
AcDbEntity
  8
1_ANYTOOL_1MMDEEP_LABELS_S
100
AcDbVertex
100
AcDb2dVertex
 10
325.0860007359409
 20
-28.69502301898241
 30
0.0
  0
VERTEX
  5
76
330
60
100
AcDbEntity
  8
1_ANYTOOL_1MMDEEP_LABELS_S
100
AcDbVertex
100
AcDb2dVertex
 10
325.2316271310301
 20
-28.61785714286634
 30
0.0
  0
VERTEX
  5
77
330
60
100
AcDbEntity
  8
1_ANYTOOL_1MMDEEP_LABELS_S
100
AcDbVertex
100
AcDb2dVertex
 10
325.3752864502265
 20
-28.53832659041099
 30
0.0
  0
VERTEX
  5
78
330
60
100
AcDbEntity
  8
1_ANYTOOL_1MMDEEP_LABELS_S
100
AcDbVertex
100
AcDb2dVertex
 10
325.51697869353
 20
-28.45643136161635
 30
0.0
  0
VERTEX
  5
79
330
60
100
AcDbEntity
  8
1_ANYTOOL_1MMDEEP_LABELS_S
100
AcDbVertex
100
AcDb2dVertex
 10
325.6567038609406
 20
-28.37217145648242
 30
0.0
  0
VERTEX
  5
7A
330
60
100
AcDbEntity
  8
1_ANYTOOL_1MMDEEP_LABELS_S
100
AcDbVertex
100
AcDb2dVertex
 10
325.7944619524584
 20
-28.2855468750092
 30
0.0
  0
VERTEX
  5
7B
330
60
100
AcDbEntity
  8
1_ANYTOOL_1MMDEEP_LABELS_S
100
AcDbVertex
100
AcDb2dVertex
 10
325.9302529680834
 20
-28.1965576171967
 30
0.0
  0
VERTEX
  5
7C
330
60
100
AcDbEntity
  8
1_ANYTOOL_1MMDEEP_LABELS_S
100
AcDbVertex
100
AcDb2dVertex
 10
326.0640769078154
 20
-28.10520368304491
 30
0.0
  0
VERTEX
  5
7D
330
60
100
AcDbEntity
  8
1_ANYTOOL_1MMDEEP_LABELS_S
100
AcDbVertex
100
AcDb2dVertex
 10
326.1959337716547
 20
-28.01148507255384
 30
0.0
  0
VERTEX
  5
7E
330
60
100
AcDbEntity
  8
1_ANYTOOL_1MMDEEP_LABELS_S
100
AcDbVertex
100
AcDb2dVertex
 10
326.3258235596011
 20
-27.91540178572347
 30
0.0
  0
VERTEX
  5
7F
330
60
100
AcDbEntity
  8
1_ANYTOOL_1MMDEEP_LABELS_S
100
AcDbVertex
100
AcDb2dVertex
 10
326.4537462716546
 20
-27.81695382255383
 30
0.0
  0
VERTEX
  5
80
330
60
100
AcDbEntity
  8
1_ANYTOOL_1MMDEEP_LABELS_S
100
AcDbVertex
100
AcDb2dVertex
 10
326.5797019078152
 20
-27.71614118304489
 30
0.0
  0
VERTEX
  5
81
330
60
100
AcDbEntity
  8
1_ANYTOOL_1MMDEEP_LABELS_S
100
AcDbVertex
100
AcDb2dVertex
 10
326.703690468083
 20
-27.61296386719667
 30
0.0
  0
VERTEX
  5
82
330
60
100
AcDbEntity
  8
1_ANYTOOL_1MMDEEP_LABELS_S
100
AcDbVertex
100
AcDb2dVertex
 10
326.825711952458
 20
-27.50742187500916
 30
0.0
  0
VERTEX
  5
83
330
60
100
AcDbEntity
  8
1_ANYTOOL_1MMDEEP_LABELS_S
100
AcDbVertex
100
AcDb2dVertex
 10
326.9457663609401
 20
-27.39951520648236
 30
0.0
  0
VERTEX
  5
84
330
60
100
AcDbEntity
  8
1_ANYTOOL_1MMDEEP_LABELS_S
100
AcDbVertex
100
AcDb2dVertex
 10
327.0638536935293
 20
-27.28924386161628
 30
0.0
  0
VERTEX
  5
85
330
60
100
AcDbEntity
  8
1_ANYTOOL_1MMDEEP_LABELS_S
100
AcDbVertex
100
AcDb2dVertex
 10
327.1799739502256
 20
-27.17660784041091
 30
0.0
  0
VERTEX
  5
86
330
60
100
AcDbEntity
  8
1_ANYTOOL_1MMDEEP_LABELS_S
100
AcDbVertex
100
AcDb2dVertex
 10
327.2941271310292
 20
-27.06160714286625
 30
0.0
  0
VERTEX
  5
87
330
60
100
AcDbEntity
  8
1_ANYTOOL_1MMDEEP_LABELS_S
100
AcDbVertex
100
AcDb2dVertex
 10
327.4063132359398
 20
-26.94424176898231
 30
0.0
  0
VERTEX
  5
88
330
60
100
AcDbEntity
  8
1_ANYTOOL_1MMDEEP_LABELS_S
100
AcDbVertex
100
AcDb2dVertex
 10
327.5165322649577
 20
-26.82451171875908
 30
0.0
  0
VERTEX
  5
89
330
60
100
AcDbEntity
  8
1_ANYTOOL_1MMDEEP_LABELS_S
100
AcDbVertex
100
AcDb2dVertex
 10
327.6247842180827
 20
-26.70241699219656
 30
0.0
  0
VERTEX
  5
8A
330
60
100
AcDbEntity
  8
1_ANYTOOL_1MMDEEP_LABELS_S
100
AcDbVertex
100
AcDb2dVertex
 10
327.7310690953147
 20
-26.57795758929475
 30
0.0
  0
VERTEX
  5
8B
330
60
100
AcDbEntity
  8
1_ANYTOOL_1MMDEEP_LABELS_S
100
AcDbVertex
100
AcDb2dVertex
 10
327.8353868966539
 20
-26.45113351005367
 30
0.0
  0
VERTEX
  5
8C
330
60
100
AcDbEntity
  8
1_ANYTOOL_1MMDEEP_LABELS_S
100
AcDbVertex
100
AcDb2dVertex
 10
327.9377376221003
 20
-26.32194475447329
 30
0.0
  0
VERTEX
  5
8D
330
60
100
AcDbEntity
  8
1_ANYTOOL_1MMDEEP_LABELS_S
100
AcDbVertex
100
AcDb2dVertex
 10
328.0381212716538
 20
-26.19039132255362
 30
0.0
  0
VERTEX
  5
8E
330
60
100
AcDbEntity
  8
1_ANYTOOL_1MMDEEP_LABELS_S
100
AcDbVertex
100
AcDb2dVertex
 10
328.1365378453145
 20
-26.05647321429467
 30
0.0
  0
VERTEX
  5
8F
330
60
100
AcDbEntity
  8
1_ANYTOOL_1MMDEEP_LABELS_S
100
AcDbVertex
100
AcDb2dVertex
 10
328.2329873430822
 20
-25.92019042969643
 30
0.0
  0
VERTEX
  5
90
330
60
100
AcDbEntity
  8
1_ANYTOOL_1MMDEEP_LABELS_S
100
AcDbVertex
100
AcDb2dVertex
 10
328.3274697649572
 20
-25.78154296875891
 30
0.0
  0
VERTEX
  5
91
330
60
100
AcDbEntity
  8
1_ANYTOOL_1MMDEEP_LABELS_S
100
AcDbVertex
100
AcDb2dVertex
 10
328.5105333810286
 20
-25.497154017866
 30
0.0
  0
VERTEX
  5
92
330
60
100
AcDbEntity
  8
1_ANYTOOL_1MMDEEP_LABELS_S
100
AcDbVertex
100
AcDb2dVertex
 10
328.6857286935285
 20
-25.20330636161594
 30
0.0
  0
VERTEX
  5
93
330
60
100
AcDbEntity
  8
1_ANYTOOL_1MMDEEP_LABELS_S
100
AcDbVertex
100
AcDb2dVertex
 10
328.8530557024569
 20
-24.90000000000873
 30
0.0
  0
VERTEX
  5
94
330
60
100
AcDbEntity
  8
1_ANYTOOL_1MMDEEP_LABELS_S
100
AcDbVertex
100
AcDb2dVertex
 10
329.169629363171
 20
-24.28108258929433
 30
0.0
  0
VERTEX
  5
95
330
60
100
AcDbEntity
  8
1_ANYTOOL_1MMDEEP_LABELS_S
100
AcDbVertex
100
AcDb2dVertex
 10
329.4657789167422
 20
-23.65647321429424
 30
0.0
  0
VERTEX
  5
96
330
60
100
AcDbEntity
  8
1_ANYTOOL_1MMDEEP_LABELS_S
100
AcDbVertex
100
AcDb2dVertex
 10
329.7415043631706
 20
-23.02617187500846
 30
0.0
  0
VERTEX
  5
97
330
60
100
AcDbEntity
  8
1_ANYTOOL_1MMDEEP_LABELS_S
100
AcDbVertex
100
AcDb2dVertex
 10
329.9968057024562
 20
-22.39017857143699
 30
0.0
  0
VERTEX
  5
98
330
60
100
AcDbEntity
  8
1_ANYTOOL_1MMDEEP_LABELS_S
100
AcDbVertex
100
AcDb2dVertex
 10
330.2316829345989
 20
-21.74849330357983
 30
0.0
  0
VERTEX
  5
99
330
60
100
AcDbEntity
  8
1_ANYTOOL_1MMDEEP_LABELS_S
100
AcDbVertex
100
AcDb2dVertex
 10
330.4461360595988
 20
-21.10111607143699
 30
0.0
  0
VERTEX
  5
9A
330
60
100
AcDbEntity
  8
1_ANYTOOL_1MMDEEP_LABELS_S
100
AcDbVertex
100
AcDb2dVertex
 10
330.6401650774558
 20
-20.44804687500846
 30
0.0
  0
VERTEX
  5
9B
330
60
100
AcDbEntity
  8
1_ANYTOOL_1MMDEEP_LABELS_S
100
AcDbVertex
100
AcDb2dVertex
 10
330.81376998817
 20
-19.78928571429424
 30
0.0
  0
VERTEX
  5
9C
330
60
100
AcDbEntity
  8
1_ANYTOOL_1MMDEEP_LABELS_S
100
AcDbVertex
100
AcDb2dVertex
 10
330.9669507917413
 20
-19.12483258929433
 30
0.0
  0
VERTEX
  5
9D
330
60
100
AcDbEntity
  8
1_ANYTOOL_1MMDEEP_LABELS_S
100
AcDbVertex
100
AcDb2dVertex
 10
331.0997074881698
 20
-18.45468750000873
 30
0.0
  0
VERTEX
  5
9E
330
60
100
AcDbEntity
  8
1_ANYTOOL_1MMDEEP_LABELS_S
100
AcDbVertex
100
AcDb2dVertex
 10
331.2120400774554
 20
-17.77885044643745
 30
0.0
  0
VERTEX
  5
9F
330
60
100
AcDbEntity
  8
1_ANYTOOL_1MMDEEP_LABELS_S
100
AcDbVertex
100
AcDb2dVertex
 10
331.3039485595982
 20
-17.09732142858047
 30
0.0
  0
VERTEX
  5
A0
330
60
100
AcDbEntity
  8
1_ANYTOOL_1MMDEEP_LABELS_S
100
AcDbVertex
100
AcDb2dVertex
 10
331.3754329345982
 20
-16.41010044643781
 30
0.0
  0
VERTEX
  5
A1
330
60
100
AcDbEntity
  8
1_ANYTOOL_1MMDEEP_LABELS_S
100
AcDbVertex
100
AcDb2dVertex
 10
331.4264932024553
 20
-15.71718750000946
 30
0.0
  0
VERTEX
  5
A2
330
60
100
AcDbEntity
  8
1_ANYTOOL_1MMDEEP_LABELS_S
100
AcDbVertex
100
AcDb2dVertex
 10
331.4571293631695
 20
-15.01858258929542
 30
0.0
  0
VERTEX
  5
A3
330
60
100
AcDbEntity
  8
1_ANYTOOL_1MMDEEP_LABELS_S
100
AcDbVertex
100
AcDb2dVertex
 10
331.467341416741
 20
-14.31428571429569
 30
0.0
  0
VERTEX
  5
A4
330
60
100
AcDbEntity
  8
1_ANYTOOL_1MMDEEP_LABELS_S
100
AcDbVertex
100
AcDb2dVertex
 10
331.4576315953124
 20
-13.71729910715248
 30
0.0
  0
VERTEX
  5
A5
330
60
100
AcDbEntity
  8
1_ANYTOOL_1MMDEEP_LABELS_S
100
AcDbVertex
100
AcDb2dVertex
 10
331.4285021310267
 20
-13.12633928572359
 30
0.0
  0
VERTEX
  5
A6
330
60
100
AcDbEntity
  8
1_ANYTOOL_1MMDEEP_LABELS_S
100
AcDbVertex
100
AcDb2dVertex
 10
331.3799530238838
 20
-12.541406250009
 30
0.0
  0
VERTEX
  5
A7
330
60
100
AcDbEntity
  8
1_ANYTOOL_1MMDEEP_LABELS_S
100
AcDbVertex
100
AcDb2dVertex
 10
331.3119842738838
 20
-11.96250000000873
 30
0.0
  0
VERTEX
  5
A8
330
60
100
AcDbEntity
  8
1_ANYTOOL_1MMDEEP_LABELS_S
100
AcDbVertex
100
AcDb2dVertex
 10
331.2245958810266
 20
-11.38962053572277
 30
0.0
  0
VERTEX
  5
A9
330
60
100
AcDbEntity
  8
1_ANYTOOL_1MMDEEP_LABELS_S
100
AcDbVertex
100
AcDb2dVertex
 10
331.1736193185266
 20
-11.10544084822266
 30
0.0
  0
VERTEX
  5
AA
330
60
100
AcDbEntity
  8
1_ANYTOOL_1MMDEEP_LABELS_S
100
AcDbVertex
100
AcDb2dVertex
 10
331.1177878453124
 20
-10.82276785715112
 30
0.0
  0
VERTEX
  5
AB
330
60
100
AcDbEntity
  8
1_ANYTOOL_1MMDEEP_LABELS_S
100
AcDbVertex
100
AcDb2dVertex
 10
331.0571014613838
 20
-10.54160156250816
 30
0.0
  0
VERTEX
  5
AC
330
60
100
AcDbEntity
  8
1_ANYTOOL_1MMDEEP_LABELS_S
100
AcDbVertex
100
AcDb2dVertex
 10
330.9915601667409
 20
-10.26194196429378
 30
0.0
  0
VERTEX
  5
AD
330
60
100
AcDbEntity
  8
1_ANYTOOL_1MMDEEP_LABELS_S
100
AcDbVertex
100
AcDb2dVertex
 10
330.9211639613837
 20
-9.98378906250798
 30
0.0
  0
VERTEX
  5
AE
330
60
100
AcDbEntity
  8
1_ANYTOOL_1MMDEEP_LABELS_S
100
AcDbVertex
100
AcDb2dVertex
 10
330.8459128453123
 20
-9.707142857150757
 30
0.0
  0
VERTEX
  5
AF
330
60
100
AcDbEntity
  8
1_ANYTOOL_1MMDEEP_LABELS_S
100
AcDbVertex
100
AcDb2dVertex
 10
330.7658068185266
 20
-9.43200334822211
 30
0.0
  0
VERTEX
  5
B0
330
60
100
AcDbEntity
  8
1_ANYTOOL_1MMDEEP_LABELS_S
100
AcDbVertex
100
AcDb2dVertex
 10
330.6808458810266
 20
-9.158370535722042
 30
0.0
  0
VERTEX
  5
B1
330
60
100
AcDbEntity
  8
1_ANYTOOL_1MMDEEP_LABELS_S
100
AcDbVertex
100
AcDb2dVertex
 10
330.5910300328123
 20
-8.886244419650552
 30
0.0
  0
VERTEX
  5
B2
330
60
100
AcDbEntity
  8
1_ANYTOOL_1MMDEEP_LABELS_S
100
AcDbVertex
100
AcDb2dVertex
 10
330.4963592738837
 20
-8.61562500000764
 30
0.0
  0
VERTEX
  5
B3
330
60
100
AcDbEntity
  8
1_ANYTOOL_1MMDEEP_LABELS_S
100
AcDbVertex
100
AcDb2dVertex
 10
330.3968336042408
 20
-8.346512276793305
 30
0.0
  0
VERTEX
  5
B4
330
60
100
AcDbEntity
  8
1_ANYTOOL_1MMDEEP_LABELS_S
100
AcDbVertex
100
AcDb2dVertex
 10
330.2924530238837
 20
-8.078906250007549
 30
0.0
  0
VERTEX
  5
B5
330
60
100
AcDbEntity
  8
1_ANYTOOL_1MMDEEP_LABELS_S
100
AcDbVertex
100
AcDb2dVertex
 10
330.1832175328123
 20
-7.81280691965037
 30
0.0
  0
VERTEX
  5
B6
330
60
100
AcDbEntity
  8
1_ANYTOOL_1MMDEEP_LABELS_S
100
AcDbVertex
100
AcDb2dVertex
 10
330.0691271310266
 20
-7.54821428572177
 30
0.0
  0
VERTEX
  5
B7
330
60
100
AcDbEntity
  8
1_ANYTOOL_1MMDEEP_LABELS_S
100
AcDbVertex
100
AcDb2dVertex
 10
329.8263815953122
 20
-7.023549107150302
 30
0.0
  0
VERTEX
  5
B8
330
60
100
AcDbEntity
  8
1_ANYTOOL_1MMDEEP_LABELS_S
100
AcDbVertex
100
AcDb2dVertex
 10
329.5642164167408
 20
-6.504910714293146
 30
0.0
  0
VERTEX
  5
B9
330
60
100
AcDbEntity
  8
1_ANYTOOL_1MMDEEP_LABELS_S
100
AcDbVertex
100
AcDb2dVertex
 10
329.2826315953122
 20
-5.992299107150302
 30
0.0
  0
VERTEX
  5
BA
330
60
100
AcDbEntity
  8
1_ANYTOOL_1MMDEEP_LABELS_S
100
AcDbVertex
100
AcDb2dVertex
 10
328.9816271310265
 20
-5.48571428572177
 30
0.0
  0
VERTEX
  5
BB
330
60
100
AcDbEntity
  8
1_ANYTOOL_1MMDEEP_LABELS_S
100
AcDbVertex
100
AcDb2dVertex
 10
328.7870540283479
 20
-5.17964564732889
 30
0.0
  0
VERTEX
  5
BC
330
60
100
AcDbEntity
  8
1_ANYTOOL_1MMDEEP_LABELS_S
100
AcDbVertex
100
AcDb2dVertex
 10
328.5890490060266
 20
-4.882868303578874
 30
0.0
  0
VERTEX
  5
BD
330
60
100
AcDbEntity
  8
1_ANYTOOL_1MMDEEP_LABELS_S
100
AcDbVertex
100
AcDb2dVertex
 10
328.3876120640624
 20
-4.595382254471723
 30
0.0
  0
VERTEX
  5
BE
330
60
100
AcDbEntity
  8
1_ANYTOOL_1MMDEEP_LABELS_S
100
AcDbVertex
100
AcDb2dVertex
 10
328.1827432024553
 20
-4.317187500007435
 30
0.0
  0
VERTEX
  5
BF
330
60
100
AcDbEntity
  8
1_ANYTOOL_1MMDEEP_LABELS_S
100
AcDbVertex
100
AcDb2dVertex
 10
327.9744424212053
 20
-4.048284040186012
 30
0.0
  0
VERTEX
  5
C0
330
60
100
AcDbEntity
  8
1_ANYTOOL_1MMDEEP_LABELS_S
100
AcDbVertex
100
AcDb2dVertex
 10
327.7627097203125
 20
-3.788671875007452
 30
0.0
  0
VERTEX
  5
C1
330
60
100
AcDbEntity
  8
1_ANYTOOL_1MMDEEP_LABELS_S
100
AcDbVertex
100
AcDb2dVertex
 10
327.5475450997768
 20
-3.538351004471757
 30
0.0
  0
VERTEX
  5
C2
330
60
100
AcDbEntity
  8
1_ANYTOOL_1MMDEEP_LABELS_S
100
AcDbVertex
100
AcDb2dVertex
 10
327.3289485595983
 20
-3.297321428578925
 30
0.0
  0
VERTEX
  5
C3
330
60
100
AcDbEntity
  8
1_ANYTOOL_1MMDEEP_LABELS_S
100
AcDbVertex
100
AcDb2dVertex
 10
327.1069200997769
 20
-3.065583147328958
 30
0.0
  0
VERTEX
  5
C4
330
60
100
AcDbEntity
  8
1_ANYTOOL_1MMDEEP_LABELS_S
100
AcDbVertex
100
AcDb2dVertex
 10
326.8814597203126
 20
-2.843136160721855
 30
0.0
  0
VERTEX
  5
C5
330
60
100
AcDbEntity
  8
1_ANYTOOL_1MMDEEP_LABELS_S
100
AcDbVertex
100
AcDb2dVertex
 10
326.6525674212054
 20
-2.629980468757616
 30
0.0
  0
VERTEX
  5
C6
330
60
100
AcDbEntity
  8
1_ANYTOOL_1MMDEEP_LABELS_S
100
AcDbVertex
100
AcDb2dVertex
 10
326.4202432024555
 20
-2.42611607143624
 30
0.0
  0
VERTEX
  5
C7
330
60
100
AcDbEntity
  8
1_ANYTOOL_1MMDEEP_LABELS_S
100
AcDbVertex
100
AcDb2dVertex
 10
326.1844870640626
 20
-2.231542968757729
 30
0.0
  0
VERTEX
  5
C8
330
60
100
AcDbEntity
  8
1_ANYTOOL_1MMDEEP_LABELS_S
100
AcDbVertex
100
AcDb2dVertex
 10
325.9452990060269
 20
-2.046261160722082
 30
0.0
  0
VERTEX
  5
C9
330
60
100
AcDbEntity
  8
1_ANYTOOL_1MMDEEP_LABELS_S
100
AcDbVertex
100
AcDb2dVertex
 10
325.7026790283483
 20
-1.870270647329299
 30
0.0
  0
VERTEX
  5
CA
330
60
100
AcDbEntity
  8
1_ANYTOOL_1MMDEEP_LABELS_S
100
AcDbVertex
100
AcDb2dVertex
 10
325.4566271310268
 20
-1.70357142857938
 30
0.0
  0
VERTEX
  5
CB
330
60
100
AcDbEntity
  8
1_ANYTOOL_1MMDEEP_LABELS_S
100
AcDbVertex
100
AcDb2dVertex
 10
325.2071433140625
 20
-1.546163504472325
 30
0.0
  0
VERTEX
  5
CC
330
60
100
AcDbEntity
  8
1_ANYTOOL_1MMDEEP_LABELS_S
100
AcDbVertex
100
AcDb2dVertex
 10
324.9542275774553
 20
-1.398046875008134
 30
0.0
  0
VERTEX
  5
CD
330
60
100
AcDbEntity
  8
1_ANYTOOL_1MMDEEP_LABELS_S
100
AcDbVertex
100
AcDb2dVertex
 10
324.6978799212053
 20
-1.259221540186807
 30
0.0
  0
VERTEX
  5
CE
330
60
100
AcDbEntity
  8
1_ANYTOOL_1MMDEEP_LABELS_S
100
AcDbVertex
100
AcDb2dVertex
 10
324.4381003453124
 20
-1.129687500008345
 30
0.0
  0
VERTEX
  5
CF
330
60
100
AcDbEntity
  8
1_ANYTOOL_1MMDEEP_LABELS_S
100
AcDbVertex
100
AcDb2dVertex
 10
324.1748888497766
 20
-1.009444754472746
 30
0.0
  0
VERTEX
  5
D0
330
60
100
AcDbEntity
  8
1_ANYTOOL_1MMDEEP_LABELS_S
100
AcDbVertex
100
AcDb2dVertex
 10
323.9082454345979
 20
-0.8984933035800111
 30
0.0
  0
VERTEX
  5
D1
330
60
100
AcDbEntity
  8
1_ANYTOOL_1MMDEEP_LABELS_S
100
AcDbVertex
100
AcDb2dVertex
 10
323.6381700997764
 20
-0.7968331473301404
 30
0.0
  0
VERTEX
  5
D2
330
60
100
AcDbEntity
  8
1_ANYTOOL_1MMDEEP_LABELS_S
100
AcDbVertex
100
AcDb2dVertex
 10
323.3646628453121
 20
-0.7044642857231338
 30
0.0
  0
VERTEX
  5
D3
330
60
100
AcDbEntity
  8
1_ANYTOOL_1MMDEEP_LABELS_S
100
AcDbVertex
100
AcDb2dVertex
 10
323.0877236712048
 20
-0.6213867187589912
 30
0.0
  0
VERTEX
  5
D4
330
60
100
AcDbEntity
  8
1_ANYTOOL_1MMDEEP_LABELS_S
100
AcDbVertex
100
AcDb2dVertex
 10
322.8073525774547
 20
-0.5476004464377127
 30
0.0
  0
VERTEX
  5
D5
330
60
100
AcDbEntity
  8
1_ANYTOOL_1MMDEEP_LABELS_S
100
AcDbVertex
100
AcDb2dVertex
 10
322.5235495640617
 20
-0.4831054687592982
 30
0.0
  0
VERTEX
  5
D6
330
60
100
AcDbEntity
  8
1_ANYTOOL_1MMDEEP_LABELS_S
100
AcDbVertex
100
AcDb2dVertex
 10
322.2363146310259
 20
-0.4279017857237477
 30
0.0
  0
VERTEX
  5
D7
330
60
100
AcDbEntity
  8
1_ANYTOOL_1MMDEEP_LABELS_S
100
AcDbVertex
100
AcDb2dVertex
 10
321.9456477783473
 20
-0.3819893973310613
 30
0.0
  0
VERTEX
  5
D8
330
60
100
AcDbEntity
  8
1_ANYTOOL_1MMDEEP_LABELS_S
100
AcDbVertex
100
AcDb2dVertex
 10
321.6515490060257
 20
-0.3453683035812389
 30
0.0
  0
VERTEX
  5
D9
330
60
100
AcDbEntity
  8
1_ANYTOOL_1MMDEEP_LABELS_S
100
AcDbVertex
100
AcDb2dVertex
 10
321.3540183140612
 20
-0.3180385044742806
 30
0.0
  0
VERTEX
  5
DA
330
60
100
AcDbEntity
  8
1_ANYTOOL_1MMDEEP_LABELS_S
100
AcDbVertex
100
AcDb2dVertex
 10
321.053055702454
 20
-0.3000000000101863
 30
0.0
  0
VERTEX
  5
DB
330
60
100
AcDbEntity
  8
1_ANYTOOL_1MMDEEP_LABELS_S
100
AcDbVertex
100
AcDb2dVertex
 10
316.1566271310294
 20
-0.0964285714362632
 30
0.0
  0
SEQEND
  5
DC
330
60
100
AcDbEntity
  8
1_ANYTOOL_1MMDEEP_LABELS_S
  0
LINE
  5
DD
330
1F
100
AcDbEntity
  8
1_ANYTOOL_1MMDEEP_LABELS_S
100
AcDbLine
 10
307.6387699881743
 20
-0.4714285714362632
 30
0.0
 11
290.4530557024555
 21
-31.24285714286088
 31
0.0
  0
POLYLINE
  5
DE
330
1F
100
AcDbEntity
  8
1_ANYTOOL_1MMDEEP_LABELS_S
100
AcDb2dPolyline
 66
     1
 10
0.0
 20
0.0
 30
0.0
  0
VERTEX
  5
DF
330
DE
100
AcDbEntity
  8
1_ANYTOOL_1MMDEEP_LABELS_S
100
AcDbVertex
100
AcDb2dVertex
 10
267.2673414167439
 20
-25.24285714286088
 30
0.0
  0
VERTEX
  5
E0
330
DE
100
AcDbEntity
  8
1_ANYTOOL_1MMDEEP_LABELS_S
100
AcDbVertex
100
AcDb2dVertex
 10
267.4758933140655
 20
-25.5355329241111
 30
0.0
  0
VERTEX
  5
E1
330
DE
100
AcDbEntity
  8
1_ANYTOOL_1MMDEEP_LABELS_S
100
AcDbVertex
100
AcDb2dVertex
 10
267.6890490060299
 20
-25.81891741071846
 30
0.0
  0
VERTEX
  5
E2
330
DE
100
AcDbEntity
  8
1_ANYTOOL_1MMDEEP_LABELS_S
100
AcDbVertex
100
AcDb2dVertex
 10
267.9068084926373
 20
-26.09301060268294
 30
0.0
  0
VERTEX
  5
E3
330
DE
100
AcDbEntity
  8
1_ANYTOOL_1MMDEEP_LABELS_S
100
AcDbVertex
100
AcDb2dVertex
 10
268.1291717738874
 20
-26.35781250000457
 30
0.0
  0
VERTEX
  5
E4
330
DE
100
AcDbEntity
  8
1_ANYTOOL_1MMDEEP_LABELS_S
100
AcDbVertex
100
AcDb2dVertex
 10
268.3561388497803
 20
-26.61332310268333
 30
0.0
  0
VERTEX
  5
E5
330
DE
100
AcDbEntity
  8
1_ANYTOOL_1MMDEEP_LABELS_S
100
AcDbVertex
100
AcDb2dVertex
 10
268.5877097203162
 20
-26.85954241071923
 30
0.0
  0
VERTEX
  5
E6
330
DE
100
AcDbEntity
  8
1_ANYTOOL_1MMDEEP_LABELS_S
100
AcDbVertex
100
AcDb2dVertex
 10
268.8238843854949
 20
-27.09647042411226
 30
0.0
  0
VERTEX
  5
E7
330
DE
100
AcDbEntity
  8
1_ANYTOOL_1MMDEEP_LABELS_S
100
AcDbVertex
100
AcDb2dVertex
 10
269.0646628453164
 20
-27.32410714286243
 30
0.0
  0
VERTEX
  5
E8
330
DE
100
AcDbEntity
  8
1_ANYTOOL_1MMDEEP_LABELS_S
100
AcDbVertex
100
AcDb2dVertex
 10
269.3100450997808
 20
-27.54245256696974
 30
0.0
  0
VERTEX
  5
E9
330
DE
100
AcDbEntity
  8
1_ANYTOOL_1MMDEEP_LABELS_S
100
AcDbVertex
100
AcDb2dVertex
 10
269.560031148888
 20
-27.75150669643418
 30
0.0
  0
VERTEX
  5
EA
330
DE
100
AcDbEntity
  8
1_ANYTOOL_1MMDEEP_LABELS_S
100
AcDbVertex
100
AcDb2dVertex
 10
269.8146209926381
 20
-27.95126953125575
 30
0.0
  0
VERTEX
  5
EB
330
DE
100
AcDbEntity
  8
1_ANYTOOL_1MMDEEP_LABELS_S
100
AcDbVertex
100
AcDb2dVertex
 10
270.073814631031
 20
-28.14174107143447
 30
0.0
  0
VERTEX
  5
EC
330
DE
100
AcDbEntity
  8
1_ANYTOOL_1MMDEEP_LABELS_S
100
AcDbVertex
100
AcDb2dVertex
 10
270.3376120640668
 20
-28.32292131697032
 30
0.0
  0
VERTEX
  5
ED
330
DE
100
AcDbEntity
  8
1_ANYTOOL_1MMDEEP_LABELS_S
100
AcDbVertex
100
AcDb2dVertex
 10
270.6060132917454
 20
-28.4948102678633
 30
0.0
  0
VERTEX
  5
EE
330
DE
100
AcDbEntity
  8
1_ANYTOOL_1MMDEEP_LABELS_S
100
AcDbVertex
100
AcDb2dVertex
 10
270.8790183140669
 20
-28.65740792411342
 30
0.0
  0
VERTEX
  5
EF
330
DE
100
AcDbEntity
  8
1_ANYTOOL_1MMDEEP_LABELS_S
100
AcDbVertex
100
AcDb2dVertex
 10
271.1566271310312
 20
-28.81071428572068
 30
0.0
  0
VERTEX
  5
F0
330
DE
100
AcDbEntity
  8
1_ANYTOOL_1MMDEEP_LABELS_S
100
AcDbVertex
100
AcDb2dVertex
 10
271.4388397426384
 20
-28.95472935268507
 30
0.0
  0
VERTEX
  5
F1
330
DE
100
AcDbEntity
  8
1_ANYTOOL_1MMDEEP_LABELS_S
100
AcDbVertex
100
AcDb2dVertex
 10
271.7256561488883
 20
-29.0894531250066
 30
0.0
  0
VERTEX
  5
F2
330
DE
100
AcDbEntity
  8
1_ANYTOOL_1MMDEEP_LABELS_S
100
AcDbVertex
100
AcDb2dVertex
 10
272.0170763497812
 20
-29.21488560268526
 30
0.0
  0
VERTEX
  5
F3
330
DE
100
AcDbEntity
  8
1_ANYTOOL_1MMDEEP_LABELS_S
100
AcDbVertex
100
AcDb2dVertex
 10
272.3131003453169
 20
-29.33102678572106
 30
0.0
  0
VERTEX
  5
F4
330
DE
100
AcDbEntity
  8
1_ANYTOOL_1MMDEEP_LABELS_S
100
AcDbVertex
100
AcDb2dVertex
 10
272.6137281354954
 20
-29.437876674114
 30
0.0
  0
VERTEX
  5
F5
330
DE
100
AcDbEntity
  8
1_ANYTOOL_1MMDEEP_LABELS_S
100
AcDbVertex
100
AcDb2dVertex
 10
272.9189597203168
 20
-29.53543526786407
 30
0.0
  0
VERTEX
  5
F6
330
DE
100
AcDbEntity
  8
1_ANYTOOL_1MMDEEP_LABELS_S
100
AcDbVertex
100
AcDb2dVertex
 10
273.2287950997811
 20
-29.62370256697128
 30
0.0
  0
VERTEX
  5
F7
330
DE
100
AcDbEntity
  8
1_ANYTOOL_1MMDEEP_LABELS_S
100
AcDbVertex
100
AcDb2dVertex
 10
273.5432342738882
 20
-29.70267857143563
 30
0.0
  0
VERTEX
  5
F8
330
DE
100
AcDbEntity
  8
1_ANYTOOL_1MMDEEP_LABELS_S
100
AcDbVertex
100
AcDb2dVertex
 10
273.8622772426381
 20
-29.77236328125711
 30
0.0
  0
VERTEX
  5
F9
330
DE
100
AcDbEntity
  8
1_ANYTOOL_1MMDEEP_LABELS_S
100
AcDbVertex
100
AcDb2dVertex
 10
274.1859240060309
 20
-29.83275669643572
 30
0.0
  0
VERTEX
  5
FA
330
DE
100
AcDbEntity
  8
1_ANYTOOL_1MMDEEP_LABELS_S
100
AcDbVertex
100
AcDb2dVertex
 10
274.5141745640665
 20
-29.88385881697148
 30
0.0
  0
VERTEX
  5
FB
330
DE
100
AcDbEntity
  8
1_ANYTOOL_1MMDEEP_LABELS_S
100
AcDbVertex
100
AcDb2dVertex
 10
274.847028916745
 20
-29.92566964286436
 30
0.0
  0
VERTEX
  5
FC
330
DE
100
AcDbEntity
  8
1_ANYTOOL_1MMDEEP_LABELS_S
100
AcDbVertex
100
AcDb2dVertex
 10
275.1844870640663
 20
-29.95818917411439
 30
0.0
  0
VERTEX
  5
FD
330
DE
100
AcDbEntity
  8
1_ANYTOOL_1MMDEEP_LABELS_S
100
AcDbVertex
100
AcDb2dVertex
 10
275.5265490060305
 20
-29.98141741072155
 30
0.0
  0
VERTEX
  5
FE
330
DE
100
AcDbEntity
  8
1_ANYTOOL_1MMDEEP_LABELS_S
100
AcDbVertex
100
AcDb2dVertex
 10
275.8732147426375
 20
-29.99535435268584
 30
0.0
  0
VERTEX
  5
FF
330
DE
100
AcDbEntity
  8
1_ANYTOOL_1MMDEEP_LABELS_S
100
AcDbVertex
100
AcDb2dVertex
 10
276.2244842738874
 20
-30.00000000000728
 30
0.0
  0
VERTEX
  5
100
330
DE
100
AcDbEntity
  8
1_ANYTOOL_1MMDEEP_LABELS_S
100
AcDbVertex
100
AcDb2dVertex
 10
276.638993202459
 20
-29.99598214286442
 30
0.0
  0
VERTEX
  5
101
330
DE
100
AcDbEntity
  8
1_ANYTOOL_1MMDEEP_LABELS_S
100
AcDbVertex
100
AcDb2dVertex
 10
277.0468057024592
 20
-29.98392857143585
 30
0.0
  0
VERTEX
  5
102
330
DE
100
AcDbEntity
  8
1_ANYTOOL_1MMDEEP_LABELS_S
100
AcDbVertex
100
AcDb2dVertex
 10
277.4479217738879
 20
-29.96383928572158
 30
0.0
  0
VERTEX
  5
103
330
DE
100
AcDbEntity
  8
1_ANYTOOL_1MMDEEP_LABELS_S
100
AcDbVertex
100
AcDb2dVertex
 10
277.8423414167451
 20
-29.93571428572159
 30
0.0
  0
VERTEX
  5
104
330
DE
100
AcDbEntity
  8
1_ANYTOOL_1MMDEEP_LABELS_S
100
AcDbVertex
100
AcDb2dVertex
 10
278.2300646310307
 20
-29.89955357143589
 30
0.0
  0
VERTEX
  5
105
330
DE
100
AcDbEntity
  8
1_ANYTOOL_1MMDEEP_LABELS_S
100
AcDbVertex
100
AcDb2dVertex
 10
278.6110914167449
 20
-29.85535714286448
 30
0.0
  0
VERTEX
  5
106
330
DE
100
AcDbEntity
  8
1_ANYTOOL_1MMDEEP_LABELS_S
100
AcDbVertex
100
AcDb2dVertex
 10
278.9854217738875
 20
-29.80312500000736
 30
0.0
  0
VERTEX
  5
107
330
DE
100
AcDbEntity
  8
1_ANYTOOL_1MMDEEP_LABELS_S
100
AcDbVertex
100
AcDb2dVertex
 10
279.3530557024587
 20
-29.74285714286452
 30
0.0
  0
VERTEX
  5
108
330
DE
100
AcDbEntity
  8
1_ANYTOOL_1MMDEEP_LABELS_S
100
AcDbVertex
100
AcDb2dVertex
 10
279.7139932024584
 20
-29.67455357143598
 30
0.0
  0
VERTEX
  5
109
330
DE
100
AcDbEntity
  8
1_ANYTOOL_1MMDEEP_LABELS_S
100
AcDbVertex
100
AcDb2dVertex
 10
280.0682342738866
 20
-29.59821428572172
 30
0.0
  0
VERTEX
  5
10A
330
DE
100
AcDbEntity
  8
1_ANYTOOL_1MMDEEP_LABELS_S
100
AcDbVertex
100
AcDb2dVertex
 10
280.4157789167432
 20
-29.51383928572176
 30
0.0
  0
VERTEX
  5
10B
330
DE
100
AcDbEntity
  8
1_ANYTOOL_1MMDEEP_LABELS_S
100
AcDbVertex
100
AcDb2dVertex
 10
280.7566271310284
 20
-29.42142857143608
 30
0.0
  0
VERTEX
  5
10C
330
DE
100
AcDbEntity
  8
1_ANYTOOL_1MMDEEP_LABELS_S
100
AcDbVertex
100
AcDb2dVertex
 10
281.090778916742
 20
-29.32098214286469
 30
0.0
  0
VERTEX
  5
10D
330
DE
100
AcDbEntity
  8
1_ANYTOOL_1MMDEEP_LABELS_S
100
AcDbVertex
100
AcDb2dVertex
 10
281.4182342738842
 20
-29.21250000000759
 30
0.0
  0
VERTEX
  5
10E
330
DE
100
AcDbEntity
  8
1_ANYTOOL_1MMDEEP_LABELS_S
100
AcDbVertex
100
AcDb2dVertex
 10
281.7389932024548
 20
-29.09598214286478
 30
0.0
  0
VERTEX
  5
10F
330
DE
100
AcDbEntity
  8
1_ANYTOOL_1MMDEEP_LABELS_S
100
AcDbVertex
100
AcDb2dVertex
 10
282.053055702454
 20
-28.97142857143626
 30
0.0
  0
VERTEX
  5
110
330
DE
100
AcDbEntity
  8
1_ANYTOOL_1MMDEEP_LABELS_S
100
AcDbVertex
100
AcDb2dVertex
 10
282.210128805133
 20
-28.90237165179347
 30
0.0
  0
VERTEX
  5
111
330
DE
100
AcDbEntity
  8
1_ANYTOOL_1MMDEEP_LABELS_S
100
AcDbVertex
100
AcDb2dVertex
 10
282.3652766845977
 20
-28.82912946429352
 30
0.0
  0
VERTEX
  5
112
330
DE
100
AcDbEntity
  8
1_ANYTOOL_1MMDEEP_LABELS_S
100
AcDbVertex
100
AcDb2dVertex
 10
282.5184993408481
 20
-28.75170200893641
 30
0.0
  0
VERTEX
  5
113
330
DE
100
AcDbEntity
  8
1_ANYTOOL_1MMDEEP_LABELS_S
100
AcDbVertex
100
AcDb2dVertex
 10
282.6697967738842
 20
-28.67008928572216
 30
0.0
  0
VERTEX
  5
114
330
DE
100
AcDbEntity
  8
1_ANYTOOL_1MMDEEP_LABELS_S
100
AcDbVertex
100
AcDb2dVertex
 10
282.8191689837059
 20
-28.58429129465075
 30
0.0
  0
VERTEX
  5
115
330
DE
100
AcDbEntity
  8
1_ANYTOOL_1MMDEEP_LABELS_S
100
AcDbVertex
100
AcDb2dVertex
 10
282.9666159703135
 20
-28.49430803572218
 30
0.0
  0
VERTEX
  5
116
330
DE
100
AcDbEntity
  8
1_ANYTOOL_1MMDEEP_LABELS_S
100
AcDbVertex
100
AcDb2dVertex
 10
283.1121377337066
 20
-28.40013950893647
 30
0.0
  0
VERTEX
  5
117
330
DE
100
AcDbEntity
  8
1_ANYTOOL_1MMDEEP_LABELS_S
100
AcDbVertex
100
AcDb2dVertex
 10
283.2557342738855
 20
-28.3017857142936
 30
0.0
  0
VERTEX
  5
118
330
DE
100
AcDbEntity
  8
1_ANYTOOL_1MMDEEP_LABELS_S
100
AcDbVertex
100
AcDb2dVertex
 10
283.3974055908501
 20
-28.19924665179358
 30
0.0
  0
VERTEX
  5
119
330
DE
100
AcDbEntity
  8
1_ANYTOOL_1MMDEEP_LABELS_S
100
AcDbVertex
100
AcDb2dVertex
 10
283.5371516846004
 20
-28.09252232143641
 30
0.0
  0
VERTEX
  5
11A
330
DE
100
AcDbEntity
  8
1_ANYTOOL_1MMDEEP_LABELS_S
100
AcDbVertex
100
AcDb2dVertex
 10
283.6749725551364
 20
-27.98161272322208
 30
0.0
  0
VERTEX
  5
11B
330
DE
100
AcDbEntity
  8
1_ANYTOOL_1MMDEEP_LABELS_S
100
AcDbVertex
100
AcDb2dVertex
 10
283.8108682024581
 20
-27.8665178571506
 30
0.0
  0
VERTEX
  5
11C
330
DE
100
AcDbEntity
  8
1_ANYTOOL_1MMDEEP_LABELS_S
100
AcDbVertex
100
AcDb2dVertex
 10
283.9448386265655
 20
-27.74723772322196
 30
0.0
  0
VERTEX
  5
11D
330
DE
100
AcDbEntity
  8
1_ANYTOOL_1MMDEEP_LABELS_S
100
AcDbVertex
100
AcDb2dVertex
 10
284.0768838274586
 20
-27.62377232143618
 30
0.0
  0
VERTEX
  5
11E
330
DE
100
AcDbEntity
  8
1_ANYTOOL_1MMDEEP_LABELS_S
100
AcDbVertex
100
AcDb2dVertex
 10
284.2070038051373
 20
-27.49612165179324
 30
0.0
  0
VERTEX
  5
11F
330
DE
100
AcDbEntity
  8
1_ANYTOOL_1MMDEEP_LABELS_S
100
AcDbVertex
100
AcDb2dVertex
 10
284.3351985596018
 20
-27.36428571429315
 30
0.0
  0
VERTEX
  5
120
330
DE
100
AcDbEntity
  8
1_ANYTOOL_1MMDEEP_LABELS_S
100
AcDbVertex
100
AcDb2dVertex
 10
284.461468090852
 20
-27.2282645089359
 30
0.0
  0
VERTEX
  5
121
330
DE
100
AcDbEntity
  8
1_ANYTOOL_1MMDEEP_LABELS_S
100
AcDbVertex
100
AcDb2dVertex
 10
284.5858123988879
 20
-27.0880580357215
 30
0.0
  0
VERTEX
  5
122
330
DE
100
AcDbEntity
  8
1_ANYTOOL_1MMDEEP_LABELS_S
100
AcDbVertex
100
AcDb2dVertex
 10
284.7082314837095
 20
-26.94366629464995
 30
0.0
  0
VERTEX
  5
123
330
DE
100
AcDbEntity
  8
1_ANYTOOL_1MMDEEP_LABELS_S
100
AcDbVertex
100
AcDb2dVertex
 10
284.8287253453168
 20
-26.79508928572125
 30
0.0
  0
VERTEX
  5
124
330
DE
100
AcDbEntity
  8
1_ANYTOOL_1MMDEEP_LABELS_S
100
AcDbVertex
100
AcDb2dVertex
 10
284.9472939837098
 20
-26.64232700893539
 30
0.0
  0
VERTEX
  5
125
330
DE
100
AcDbEntity
  8
1_ANYTOOL_1MMDEEP_LABELS_S
100
AcDbVertex
100
AcDb2dVertex
 10
285.0639373988885
 20
-26.48537946429238
 30
0.0
  0
VERTEX
  5
126
330
DE
100
AcDbEntity
  8
1_ANYTOOL_1MMDEEP_LABELS_S
100
AcDbVertex
100
AcDb2dVertex
 10
285.1786555908528
 20
-26.32424665179222
 30
0.0
  0
VERTEX
  5
127
330
DE
100
AcDbEntity
  8
1_ANYTOOL_1MMDEEP_LABELS_S
100
AcDbVertex
100
AcDb2dVertex
 10
285.2914485596029
 20
-26.1589285714349
 30
0.0
  0
VERTEX
  5
128
330
DE
100
AcDbEntity
  8
1_ANYTOOL_1MMDEEP_LABELS_S
100
AcDbVertex
100
AcDb2dVertex
 10
285.4023163051387
 20
-25.98942522322043
 30
0.0
  0
VERTEX
  5
129
330
DE
100
AcDbEntity
  8
1_ANYTOOL_1MMDEEP_LABELS_S
100
AcDbVertex
100
AcDb2dVertex
 10
285.5112588274602
 20
-25.81573660714881
 30
0.0
  0
VERTEX
  5
12A
330
DE
100
AcDbEntity
  8
1_ANYTOOL_1MMDEEP_LABELS_S
100
AcDbVertex
100
AcDb2dVertex
 10
285.6182761265674
 20
-25.63786272322003
 30
0.0
  0
VERTEX
  5
12B
330
DE
100
AcDbEntity
  8
1_ANYTOOL_1MMDEEP_LABELS_S
100
AcDbVertex
100
AcDb2dVertex
 10
285.7233682024603
 20
-25.4558035714341
 30
0.0
  0
VERTEX
  5
12C
330
DE
100
AcDbEntity
  8
1_ANYTOOL_1MMDEEP_LABELS_S
100
AcDbVertex
100
AcDb2dVertex
 10
285.9277766846031
 20
-25.07912946429079
 30
0.0
  0
VERTEX
  5
12D
330
DE
100
AcDbEntity
  8
1_ANYTOOL_1MMDEEP_LABELS_S
100
AcDbVertex
100
AcDb2dVertex
 10
286.1244842738888
 20
-24.68571428571886
 30
0.0
  0
VERTEX
  5
12E
330
DE
100
AcDbEntity
  8
1_ANYTOOL_1MMDEEP_LABELS_S
100
AcDbVertex
100
AcDb2dVertex
 10
286.2386583810318
 20
-24.43962053571883
 30
0.0
  0
VERTEX
  5
12F
330
DE
100
AcDbEntity
  8
1_ANYTOOL_1MMDEEP_LABELS_S
100
AcDbVertex
100
AcDb2dVertex
 10
286.3454664167461
 20
-24.19419642857599
 30
0.0
  0
VERTEX
  5
130
330
DE
100
AcDbEntity
  8
1_ANYTOOL_1MMDEEP_LABELS_S
100
AcDbVertex
100
AcDb2dVertex
 10
286.444908381032
 20
-23.94944196429034
 30
0.0
  0
VERTEX
  5
131
330
DE
100
AcDbEntity
  8
1_ANYTOOL_1MMDEEP_LABELS_S
100
AcDbVertex
100
AcDb2dVertex
 10
286.5369842738892
 20
-23.70535714286189
 30
0.0
  0
VERTEX
  5
132
330
DE
100
AcDbEntity
  8
1_ANYTOOL_1MMDEEP_LABELS_S
100
AcDbVertex
100
AcDb2dVertex
 10
286.6216940953178
 20
-23.46194196429062
 30
0.0
  0
VERTEX
  5
133
330
DE
100
AcDbEntity
  8
1_ANYTOOL_1MMDEEP_LABELS_S
100
AcDbVertex
100
AcDb2dVertex
 10
286.6990378453179
 20
-23.21919642857654
 30
0.0
  0
VERTEX
  5
134
330
DE
100
AcDbEntity
  8
1_ANYTOOL_1MMDEEP_LABELS_S
100
AcDbVertex
100
AcDb2dVertex
 10
286.7690155238894
 20
-22.97712053571965
 30
0.0
  0
VERTEX
  5
135
330
DE
100
AcDbEntity
  8
1_ANYTOOL_1MMDEEP_LABELS_S
100
AcDbVertex
100
AcDb2dVertex
 10
286.8316271310323
 20
-22.73571428571995
 30
0.0
  0
VERTEX
  5
136
330
DE
100
AcDbEntity
  8
1_ANYTOOL_1MMDEEP_LABELS_S
100
AcDbVertex
100
AcDb2dVertex
 10
286.8868726667466
 20
-22.49497767857744
 30
0.0
  0
VERTEX
  5
137
330
DE
100
AcDbEntity
  8
1_ANYTOOL_1MMDEEP_LABELS_S
100
AcDbVertex
100
AcDb2dVertex
 10
286.9347521310324
 20
-22.25491071429212
 30
0.0
  0
VERTEX
  5
138
330
DE
100
AcDbEntity
  8
1_ANYTOOL_1MMDEEP_LABELS_S
100
AcDbVertex
100
AcDb2dVertex
 10
286.9752655238896
 20
-22.01551339286399
 30
0.0
  0
VERTEX
  5
139
330
DE
100
AcDbEntity
  8
1_ANYTOOL_1MMDEEP_LABELS_S
100
AcDbVertex
100
AcDb2dVertex
 10
287.0084128453182
 20
-21.77678571429306
 30
0.0
  0
VERTEX
  5
13A
330
DE
100
AcDbEntity
  8
1_ANYTOOL_1MMDEEP_LABELS_S
100
AcDbVertex
100
AcDb2dVertex
 10
287.0341940953182
 20
-21.53872767857931
 30
0.0
  0
VERTEX
  5
13B
330
DE
100
AcDbEntity
  8
1_ANYTOOL_1MMDEEP_LABELS_S
100
AcDbVertex
100
AcDb2dVertex
 10
287.0526092738896
 20
-21.30133928572275
 30
0.0
  0
VERTEX
  5
13C
330
DE
100
AcDbEntity
  8
1_ANYTOOL_1MMDEEP_LABELS_S
100
AcDbVertex
100
AcDb2dVertex
 10
287.0636583810325
 20
-21.06462053572338
 30
0.0
  0
VERTEX
  5
13D
330
DE
100
AcDbEntity
  8
1_ANYTOOL_1MMDEEP_LABELS_S
100
AcDbVertex
100
AcDb2dVertex
 10
287.0673414167468
 20
-20.8285714285812
 30
0.0
  0
VERTEX
  5
13E
330
DE
100
AcDbEntity
  8
1_ANYTOOL_1MMDEEP_LABELS_S
100
AcDbVertex
100
AcDb2dVertex
 10
287.0649976667468
 20
-20.56205357143815
 30
0.0
  0
VERTEX
  5
13F
330
DE
100
AcDbEntity
  8
1_ANYTOOL_1MMDEEP_LABELS_S
100
AcDbVertex
100
AcDb2dVertex
 10
287.0579664167468
 20
-20.29821428572367
 30
0.0
  0
VERTEX
  5
140
330
DE
100
AcDbEntity
  8
1_ANYTOOL_1MMDEEP_LABELS_S
100
AcDbVertex
100
AcDb2dVertex
 10
287.0462476667468
 20
-20.03705357143777
 30
0.0
  0
VERTEX
  5
141
330
DE
100
AcDbEntity
  8
1_ANYTOOL_1MMDEEP_LABELS_S
100
AcDbVertex
100
AcDb2dVertex
 10
287.0298414167468
 20
-19.77857142858045
 30
0.0
  0
VERTEX
  5
142
330
DE
100
AcDbEntity
  8
1_ANYTOOL_1MMDEEP_LABELS_S
100
AcDbVertex
100
AcDb2dVertex
 10
287.0087476667468
 20
-19.5227678571517
 30
0.0
  0
VERTEX
  5
143
330
DE
100
AcDbEntity
  8
1_ANYTOOL_1MMDEEP_LABELS_S
100
AcDbVertex
100
AcDb2dVertex
 10
286.9829664167468
 20
-19.26964285715152
 30
0.0
  0
VERTEX
  5
144
330
DE
100
AcDbEntity
  8
1_ANYTOOL_1MMDEEP_LABELS_S
100
AcDbVertex
100
AcDb2dVertex
 10
286.9524976667467
 20
-19.01919642857992
 30
0.0
  0
VERTEX
  5
145
330
DE
100
AcDbEntity
  8
1_ANYTOOL_1MMDEEP_LABELS_S
100
AcDbVertex
100
AcDb2dVertex
 10
286.9173414167467
 20
-18.7714285714369
 30
0.0
  0
VERTEX
  5
146
330
DE
100
AcDbEntity
  8
1_ANYTOOL_1MMDEEP_LABELS_S
100
AcDbVertex
100
AcDb2dVertex
 10
286.8774976667466
 20
-18.52633928572245
 30
0.0
  0
VERTEX
  5
147
330
DE
100
AcDbEntity
  8
1_ANYTOOL_1MMDEEP_LABELS_S
100
AcDbVertex
100
AcDb2dVertex
 10
286.8329664167467
 20
-18.28392857143658
 30
0.0
  0
VERTEX
  5
148
330
DE
100
AcDbEntity
  8
1_ANYTOOL_1MMDEEP_LABELS_S
100
AcDbVertex
100
AcDb2dVertex
 10
286.7837476667466
 20
-18.04419642857928
 30
0.0
  0
VERTEX
  5
149
330
DE
100
AcDbEntity
  8
1_ANYTOOL_1MMDEEP_LABELS_S
100
AcDbVertex
100
AcDb2dVertex
 10
286.7298414167466
 20
-17.80714285715055
 30
0.0
  0
VERTEX
  5
14A
330
DE
100
AcDbEntity
  8
1_ANYTOOL_1MMDEEP_LABELS_S
100
AcDbVertex
100
AcDb2dVertex
 10
286.6712476667465
 20
-17.5727678571504
 30
0.0
  0
VERTEX
  5
14B
330
DE
100
AcDbEntity
  8
1_ANYTOOL_1MMDEEP_LABELS_S
100
AcDbVertex
100
AcDb2dVertex
 10
286.6079664167465
 20
-17.34107142857883
 30
0.0
  0
VERTEX
  5
14C
330
DE
100
AcDbEntity
  8
1_ANYTOOL_1MMDEEP_LABELS_S
100
AcDbVertex
100
AcDb2dVertex
 10
286.5399976667464
 20
-17.11205357143583
 30
0.0
  0
VERTEX
  5
14D
330
DE
100
AcDbEntity
  8
1_ANYTOOL_1MMDEEP_LABELS_S
100
AcDbVertex
100
AcDb2dVertex
 10
286.4673414167464
 20
-16.88571428572141
 30
0.0
  0
VERTEX
  5
14E
330
DE
100
AcDbEntity
  8
1_ANYTOOL_1MMDEEP_LABELS_S
100
AcDbVertex
100
AcDb2dVertex
 10
286.3899976667464
 20
-16.66205357143556
 30
0.0
  0
VERTEX
  5
14F
330
DE
100
AcDbEntity
  8
1_ANYTOOL_1MMDEEP_LABELS_S
100
AcDbVertex
100
AcDb2dVertex
 10
286.3079664167464
 20
-16.44107142857828
 30
0.0
  0
VERTEX
  5
150
330
DE
100
AcDbEntity
  8
1_ANYTOOL_1MMDEEP_LABELS_S
100
AcDbVertex
100
AcDb2dVertex
 10
286.2212476667463
 20
-16.22276785714958
 30
0.0
  0
VERTEX
  5
151
330
DE
100
AcDbEntity
  8
1_ANYTOOL_1MMDEEP_LABELS_S
100
AcDbVertex
100
AcDb2dVertex
 10
286.1298414167462
 20
-16.00714285714946
 30
0.0
  0
VERTEX
  5
152
330
DE
100
AcDbEntity
  8
1_ANYTOOL_1MMDEEP_LABELS_S
100
AcDbVertex
100
AcDb2dVertex
 10
286.0337476667462
 20
-15.79419642857791
 30
0.0
  0
VERTEX
  5
153
330
DE
100
AcDbEntity
  8
1_ANYTOOL_1MMDEEP_LABELS_S
100
AcDbVertex
100
AcDb2dVertex
 10
285.9329664167461
 20
-15.58392857143494
 30
0.0
  0
VERTEX
  5
154
330
DE
100
AcDbEntity
  8
1_ANYTOOL_1MMDEEP_LABELS_S
100
AcDbVertex
100
AcDb2dVertex
 10
285.827497666746
 20
-15.37633928572054
 30
0.0
  0
VERTEX
  5
155
330
DE
100
AcDbEntity
  8
1_ANYTOOL_1MMDEEP_LABELS_S
100
AcDbVertex
100
AcDb2dVertex
 10
285.717341416746
 20
-15.17142857143472
 30
0.0
  0
VERTEX
  5
156
330
DE
100
AcDbEntity
  8
1_ANYTOOL_1MMDEEP_LABELS_S
100
AcDbVertex
100
AcDb2dVertex
 10
285.6024976667459
 20
-14.96919642857747
 30
0.0
  0
VERTEX
  5
157
330
DE
100
AcDbEntity
  8
1_ANYTOOL_1MMDEEP_LABELS_S
100
AcDbVertex
100
AcDb2dVertex
 10
285.4829664167459
 20
-14.7696428571488
 30
0.0
  0
VERTEX
  5
158
330
DE
100
AcDbEntity
  8
1_ANYTOOL_1MMDEEP_LABELS_S
100
AcDbVertex
100
AcDb2dVertex
 10
285.3587476667458
 20
-14.5727678571487
 30
0.0
  0
VERTEX
  5
159
330
DE
100
AcDbEntity
  8
1_ANYTOOL_1MMDEEP_LABELS_S
100
AcDbVertex
100
AcDb2dVertex
 10
285.2298414167457
 20
-14.37857142857717
 30
0.0
  0
VERTEX
  5
15A
330
DE
100
AcDbEntity
  8
1_ANYTOOL_1MMDEEP_LABELS_S
100
AcDbVertex
100
AcDb2dVertex
 10
285.0962476667456
 20
-14.18705357143423
 30
0.0
  0
VERTEX
  5
15B
330
DE
100
AcDbEntity
  8
1_ANYTOOL_1MMDEEP_LABELS_S
100
AcDbVertex
100
AcDb2dVertex
 10
284.9579664167455
 20
-13.99821428571985
 30
0.0
  0
VERTEX
  5
15C
330
DE
100
AcDbEntity
  8
1_ANYTOOL_1MMDEEP_LABELS_S
100
AcDbVertex
100
AcDb2dVertex
 10
284.8149976667454
 20
-13.81205357143406
 30
0.0
  0
VERTEX
  5
15D
330
DE
100
AcDbEntity
  8
1_ANYTOOL_1MMDEEP_LABELS_S
100
AcDbVertex
100
AcDb2dVertex
 10
284.6673414167453
 20
-13.62857142857683
 30
0.0
  0
VERTEX
  5
15E
330
DE
100
AcDbEntity
  8
1_ANYTOOL_1MMDEEP_LABELS_S
100
AcDbVertex
100
AcDb2dVertex
 10
284.5152487828167
 20
-13.44927455357676
 30
0.0
  0
VERTEX
  5
15F
330
DE
100
AcDbEntity
  8
1_ANYTOOL_1MMDEEP_LABELS_S
100
AcDbVertex
100
AcDb2dVertex
 10
284.3589708810309
 20
-13.2756696428624
 30
0.0
  0
VERTEX
  5
160
330
DE
100
AcDbEntity
  8
1_ANYTOOL_1MMDEEP_LABELS_S
100
AcDbVertex
100
AcDb2dVertex
 10
284.1985077113879
 20
-13.10775669643375
 30
0.0
  0
VERTEX
  5
161
330
DE
100
AcDbEntity
  8
1_ANYTOOL_1MMDEEP_LABELS_S
100
AcDbVertex
100
AcDb2dVertex
 10
284.0338592738879
 20
-12.94553571429083
 30
0.0
  0
VERTEX
  5
162
330
DE
100
AcDbEntity
  8
1_ANYTOOL_1MMDEEP_LABELS_S
100
AcDbVertex
100
AcDb2dVertex
 10
283.8650255685307
 20
-12.78900669643362
 30
0.0
  0
VERTEX
  5
163
330
DE
100
AcDbEntity
  8
1_ANYTOOL_1MMDEEP_LABELS_S
100
AcDbVertex
100
AcDb2dVertex
 10
283.6920065953163
 20
-12.63816964286212
 30
0.0
  0
VERTEX
  5
164
330
DE
100
AcDbEntity
  8
1_ANYTOOL_1MMDEEP_LABELS_S
100
AcDbVertex
100
AcDb2dVertex
 10
283.5148023542448
 20
-12.49302455357635
 30
0.0
  0
VERTEX
  5
165
330
DE
100
AcDbEntity
  8
1_ANYTOOL_1MMDEEP_LABELS_S
100
AcDbVertex
100
AcDb2dVertex
 10
283.3334128453162
 20
-12.35357142857629
 30
0.0
  0
VERTEX
  5
166
330
DE
100
AcDbEntity
  8
1_ANYTOOL_1MMDEEP_LABELS_S
100
AcDbVertex
100
AcDb2dVertex
 10
283.1478380685304
 20
-12.21981026786194
 30
0.0
  0
VERTEX
  5
167
330
DE
100
AcDbEntity
  8
1_ANYTOOL_1MMDEEP_LABELS_S
100
AcDbVertex
100
AcDb2dVertex
 10
282.9580780238875
 20
-12.09174107143332
 30
0.0
  0
VERTEX
  5
168
330
DE
100
AcDbEntity
  8
1_ANYTOOL_1MMDEEP_LABELS_S
100
AcDbVertex
100
AcDb2dVertex
 10
282.7641327113874
 20
-11.96936383929041
 30
0.0
  0
VERTEX
  5
169
330
DE
100
AcDbEntity
  8
1_ANYTOOL_1MMDEEP_LABELS_S
100
AcDbVertex
100
AcDb2dVertex
 10
282.5660021310302
 20
-11.85267857143322
 30
0.0
  0
VERTEX
  5
16A
330
DE
100
AcDbEntity
  8
1_ANYTOOL_1MMDEEP_LABELS_S
100
AcDbVertex
100
AcDb2dVertex
 10
282.3636862828159
 20
-11.74168526786174
 30
0.0
  0
VERTEX
  5
16B
330
DE
100
AcDbEntity
  8
1_ANYTOOL_1MMDEEP_LABELS_S
100
AcDbVertex
100
AcDb2dVertex
 10
282.1571851667445
 20
-11.63638392857598
 30
0.0
  0
VERTEX
  5
16C
330
DE
100
AcDbEntity
  8
1_ANYTOOL_1MMDEEP_LABELS_S
100
AcDbVertex
100
AcDb2dVertex
 10
281.9464987828159
 20
-11.53677455357594
 30
0.0
  0
VERTEX
  5
16D
330
DE
100
AcDbEntity
  8
1_ANYTOOL_1MMDEEP_LABELS_S
100
AcDbVertex
100
AcDb2dVertex
 10
281.7316271310301
 20
-11.44285714286161
 30
0.0
  0
VERTEX
  5
16E
330
DE
100
AcDbEntity
  8
1_ANYTOOL_1MMDEEP_LABELS_S
100
AcDbVertex
100
AcDb2dVertex
 10
281.5125702113872
 20
-11.354631696433
 30
0.0
  0
VERTEX
  5
16F
330
DE
100
AcDbEntity
  8
1_ANYTOOL_1MMDEEP_LABELS_S
100
AcDbVertex
100
AcDb2dVertex
 10
281.2893280238872
 20
-11.27209821429011
 30
0.0
  0
VERTEX
  5
170
330
DE
100
AcDbEntity
  8
1_ANYTOOL_1MMDEEP_LABELS_S
100
AcDbVertex
100
AcDb2dVertex
 10
281.0619005685301
 20
-11.19525669643293
 30
0.0
  0
VERTEX
  5
171
330
DE
100
AcDbEntity
  8
1_ANYTOOL_1MMDEEP_LABELS_S
100
AcDbVertex
100
AcDb2dVertex
 10
280.8302878453158
 20
-11.12410714286148
 30
0.0
  0
VERTEX
  5
172
330
DE
100
AcDbEntity
  8
1_ANYTOOL_1MMDEEP_LABELS_S
100
AcDbVertex
100
AcDb2dVertex
 10
280.5944898542443
 20
-11.05864955357573
 30
0.0
  0
VERTEX
  5
173
330
DE
100
AcDbEntity
  8
1_ANYTOOL_1MMDEEP_LABELS_S
100
AcDbVertex
100
AcDb2dVertex
 10
280.3545065953157
 20
-10.99888392857571
 30
0.0
  0
VERTEX
  5
174
330
DE
100
AcDbEntity
  8
1_ANYTOOL_1MMDEEP_LABELS_S
100
AcDbVertex
100
AcDb2dVertex
 10
280.11033806853
 20
-10.9448102678614
 30
0.0
  0
VERTEX
  5
175
330
DE
100
AcDbEntity
  8
1_ANYTOOL_1MMDEEP_LABELS_S
100
AcDbVertex
100
AcDb2dVertex
 10
279.8619842738872
 20
-10.89642857143281
 30
0.0
  0
VERTEX
  5
176
330
DE
100
AcDbEntity
  8
1_ANYTOOL_1MMDEEP_LABELS_S
100
AcDbVertex
100
AcDb2dVertex
 10
279.6094452113872
 20
-10.85373883928993
 30
0.0
  0
VERTEX
  5
177
330
DE
100
AcDbEntity
  8
1_ANYTOOL_1MMDEEP_LABELS_S
100
AcDbVertex
100
AcDb2dVertex
 10
279.3527208810301
 20
-10.81674107143277
 30
0.0
  0
VERTEX
  5
178
330
DE
100
AcDbEntity
  8
1_ANYTOOL_1MMDEEP_LABELS_S
100
AcDbVertex
100
AcDb2dVertex
 10
279.0918112828158
 20
-10.78543526786133
 30
0.0
  0
VERTEX
  5
179
330
DE
100
AcDbEntity
  8
1_ANYTOOL_1MMDEEP_LABELS_S
100
AcDbVertex
100
AcDb2dVertex
 10
278.8267164167444
 20
-10.75982142857561
 30
0.0
  0
VERTEX
  5
17A
330
DE
100
AcDbEntity
  8
1_ANYTOOL_1MMDEEP_LABELS_S
100
AcDbVertex
100
AcDb2dVertex
 10
278.5574362828158
 20
-10.7398995535756
 30
0.0
  0
VERTEX
  5
17B
330
DE
100
AcDbEntity
  8
1_ANYTOOL_1MMDEEP_LABELS_S
100
AcDbVertex
100
AcDb2dVertex
 10
278.2839708810301
 20
-10.72566964286131
 30
0.0
  0
VERTEX
  5
17C
330
DE
100
AcDbEntity
  8
1_ANYTOOL_1MMDEEP_LABELS_S
100
AcDbVertex
100
AcDb2dVertex
 10
278.0063202113873
 20
-10.71713169643273
 30
0.0
  0
VERTEX
  5
17D
330
DE
100
AcDbEntity
  8
1_ANYTOOL_1MMDEEP_LABELS_S
100
AcDbVertex
100
AcDb2dVertex
 10
277.7244842738874
 20
-10.71428571428987
 30
0.0
  0
VERTEX
  5
17E
330
DE
100
AcDbEntity
  8
1_ANYTOOL_1MMDEEP_LABELS_S
100
AcDbVertex
100
AcDb2dVertex
 10
277.3734240060299
 20
-10.71880580357561
 30
0.0
  0
VERTEX
  5
17F
330
DE
100
AcDbEntity
  8
1_ANYTOOL_1MMDEEP_LABELS_S
100
AcDbVertex
100
AcDb2dVertex
 10
277.0273860596011
 20
-10.73236607143281
 30
0.0
  0
VERTEX
  5
180
330
DE
100
AcDbEntity
  8
1_ANYTOOL_1MMDEEP_LABELS_S
100
AcDbVertex
100
AcDb2dVertex
 10
276.6863704346009
 20
-10.75496651786148
 30
0.0
  0
VERTEX
  5
181
330
DE
100
AcDbEntity
  8
1_ANYTOOL_1MMDEEP_LABELS_S
100
AcDbVertex
100
AcDb2dVertex
 10
276.3503771310293
 20
-10.78660714286161
 30
0.0
  0
VERTEX
  5
182
330
DE
100
AcDbEntity
  8
1_ANYTOOL_1MMDEEP_LABELS_S
100
AcDbVertex
100
AcDb2dVertex
 10
276.0194061488863
 20
-10.82728794643322
 30
0.0
  0
VERTEX
  5
183
330
DE
100
AcDbEntity
  8
1_ANYTOOL_1MMDEEP_LABELS_S
100
AcDbVertex
100
AcDb2dVertex
 10
275.6934574881719
 20
-10.87700892857629
 30
0.0
  0
VERTEX
  5
184
330
DE
100
AcDbEntity
  8
1_ANYTOOL_1MMDEEP_LABELS_S
100
AcDbVertex
100
AcDb2dVertex
 10
275.3725311488862
 20
-10.93577008929083
 30
0.0
  0
VERTEX
  5
185
330
DE
100
AcDbEntity
  8
1_ANYTOOL_1MMDEEP_LABELS_S
100
AcDbVertex
100
AcDb2dVertex
 10
275.056627131029
 20
-11.00357142857683
 30
0.0
  0
VERTEX
  5
186
330
DE
100
AcDbEntity
  8
1_ANYTOOL_1MMDEEP_LABELS_S
100
AcDbVertex
100
AcDb2dVertex
 10
274.7457454346005
 20
-11.08041294643431
 30
0.0
  0
VERTEX
  5
187
330
DE
100
AcDbEntity
  8
1_ANYTOOL_1MMDEEP_LABELS_S
100
AcDbVertex
100
AcDb2dVertex
 10
274.4398860596006
 20
-11.16629464286325
 30
0.0
  0
VERTEX
  5
188
330
DE
100
AcDbEntity
  8
1_ANYTOOL_1MMDEEP_LABELS_S
100
AcDbVertex
100
AcDb2dVertex
 10
274.1390490060293
 20
-11.26121651786366
 30
0.0
  0
VERTEX
  5
189
330
DE
100
AcDbEntity
  8
1_ANYTOOL_1MMDEEP_LABELS_S
100
AcDbVertex
100
AcDb2dVertex
 10
273.8432342738865
 20
-11.36517857143554
 30
0.0
  0
VERTEX
  5
18A
330
DE
100
AcDbEntity
  8
1_ANYTOOL_1MMDEEP_LABELS_S
100
AcDbVertex
100
AcDb2dVertex
 10
273.5524418631725
 20
-11.47818080357888
 30
0.0
  0
VERTEX
  5
18B
330
DE
100
AcDbEntity
  8
1_ANYTOOL_1MMDEEP_LABELS_S
100
AcDbVertex
100
AcDb2dVertex
 10
273.266671773887
 20
-11.60022321429369
 30
0.0
  0
VERTEX
  5
18C
330
DE
100
AcDbEntity
  8
1_ANYTOOL_1MMDEEP_LABELS_S
100
AcDbVertex
100
AcDb2dVertex
 10
272.9859240060301
 20
-11.73130580357997
 30
0.0
  0
VERTEX
  5
18D
330
DE
100
AcDbEntity
  8
1_ANYTOOL_1MMDEEP_LABELS_S
100
AcDbVertex
100
AcDb2dVertex
 10
272.7101985596018
 20
-11.87142857143772
 30
0.0
  0
VERTEX
  5
18E
330
DE
100
AcDbEntity
  8
1_ANYTOOL_1MMDEEP_LABELS_S
100
AcDbVertex
100
AcDb2dVertex
 10
272.1657789167436
 20
-12.16473214286589
 30
0.0
  0
VERTEX
  5
18F
330
DE
100
AcDbEntity
  8
1_ANYTOOL_1MMDEEP_LABELS_S
100
AcDbVertex
100
AcDb2dVertex
 10
271.8950757917432
 20
-12.32243303572284
 30
0.0
  0
VERTEX
  5
190
330
DE
100
AcDbEntity
  8
1_ANYTOOL_1MMDEEP_LABELS_S
100
AcDbVertex
100
AcDb2dVertex
 10
271.6253771310285
 20
-12.48750000000837
 30
0.0
  0
VERTEX
  5
191
330
DE
100
AcDbEntity
  8
1_ANYTOOL_1MMDEEP_LABELS_S
100
AcDbVertex
100
AcDb2dVertex
 10
271.3566829345995
 20
-12.65993303572247
 30
0.0
  0
VERTEX
  5
192
330
DE
100
AcDbEntity
  8
1_ANYTOOL_1MMDEEP_LABELS_S
100
AcDbVertex
100
AcDb2dVertex
 10
271.0889932024563
 20
-12.83973214286516
 30
0.0
  0
VERTEX
  5
193
330
DE
100
AcDbEntity
  8
1_ANYTOOL_1MMDEEP_LABELS_S
100
AcDbVertex
100
AcDb2dVertex
 10
270.8223079345989
 20
-13.02689732143642
 30
0.0
  0
VERTEX
  5
194
330
DE
100
AcDbEntity
  8
1_ANYTOOL_1MMDEEP_LABELS_S
100
AcDbVertex
100
AcDb2dVertex
 10
270.5566271310272
 20
-13.22142857143626
 30
0.0
  0
VERTEX
  5
195
330
DE
100
AcDbEntity
  8
1_ANYTOOL_1MMDEEP_LABELS_S
100
AcDbVertex
100
AcDb2dVertex
 10
270.2919507917413
 20
-13.42332589286468
 30
0.0
  0
VERTEX
  5
196
330
DE
100
AcDbEntity
  8
1_ANYTOOL_1MMDEEP_LABELS_S
100
AcDbVertex
100
AcDb2dVertex
 10
270.0282789167411
 20
-13.63258928572168
 30
0.0
  0
VERTEX
  5
197
330
DE
100
AcDbEntity
  8
1_ANYTOOL_1MMDEEP_LABELS_S
100
AcDbVertex
100
AcDb2dVertex
 10
269.7656115060267
 20
-13.84921875000725
 30
0.0
  0
VERTEX
  5
198
330
DE
100
AcDbEntity
  8
1_ANYTOOL_1MMDEEP_LABELS_S
100
AcDbVertex
100
AcDb2dVertex
 10
269.503948559598
 20
-14.07321428572141
 30
0.0
  0
VERTEX
  5
199
330
DE
100
AcDbEntity
  8
1_ANYTOOL_1MMDEEP_LABELS_S
100
AcDbVertex
100
AcDb2dVertex
 10
269.2432900774551
 20
-14.30457589286414
 30
0.0
  0
VERTEX
  5
19A
330
DE
100
AcDbEntity
  8
1_ANYTOOL_1MMDEEP_LABELS_S
100
AcDbVertex
100
AcDb2dVertex
 10
268.983636059598
 20
-14.54330357143544
 30
0.0
  0
VERTEX
  5
19B
330
DE
100
AcDbEntity
  8
1_ANYTOOL_1MMDEEP_LABELS_S
100
AcDbVertex
100
AcDb2dVertex
 10
268.467341416741
 20
-15.0428571428638
 30
0.0
  0
VERTEX
  5
19C
330
DE
100
AcDbEntity
  8
1_ANYTOOL_1MMDEEP_LABELS_S
100
AcDbVertex
100
AcDb2dVertex
 10
269.1959128453163
 20
-0.000000000007276
 30
0.0
  0
VERTEX
  5
19D
330
DE
100
AcDbEntity
  8
1_ANYTOOL_1MMDEEP_LABELS_S
100
AcDbVertex
100
AcDb2dVertex
 10
285.3959128453134
 20
-0.000000000007276
 30
0.0
  0
SEQEND
  5
19E
330
DE
100
AcDbEntity
  8
1_ANYTOOL_1MMDEEP_LABELS_S
  0
LINE
  5
19F
330
1F
100
AcDbEntity
  8
1_ANYTOOL_1MMDEEP_LABELS_S
100
AcDbLine
 10
262.9816271310265
 20
-16.11428571429133
 30
0.0
 11
254.1959128453163
 21
-16.20000000000437
 31
0.0
  0
POLYLINE
  5
1A0
330
1F
100
AcDbEntity
  8
1_ANYTOOL_1MMDEEP_LABELS_S
100
AcDb2dPolyline
 66
     1
 10
0.0
 20
0.0
 30
0.0
  0
VERTEX
  5
1A1
330
1A0
100
AcDbEntity
  8
1_ANYTOOL_1MMDEEP_LABELS_S
100
AcDbVertex
100
AcDb2dVertex
 10
224.6244842738888
 20
-30.00000000000728
 30
0.0
  0
VERTEX
  5
1A2
330
1A0
100
AcDbEntity
  8
1_ANYTOOL_1MMDEEP_LABELS_S
100
AcDbVertex
100
AcDb2dVertex
 10
224.6244842738888
 20
-0.000000000007276
 30
0.0
  0
VERTEX
  5
1A3
330
1A0
100
AcDbEntity
  8
1_ANYTOOL_1MMDEEP_LABELS_S
100
AcDbVertex
100
AcDb2dVertex
 10
236.6244842738888
 20
-28.37142857143772
 30
0.0
  0
VERTEX
  5
1A4
330
1A0
100
AcDbEntity
  8
1_ANYTOOL_1MMDEEP_LABELS_S
100
AcDbVertex
100
AcDb2dVertex
 10
248.6244842738888
 20
-0.1285714285768336
 30
0.0
  0
VERTEX
  5
1A5
330
1A0
100
AcDbEntity
  8
1_ANYTOOL_1MMDEEP_LABELS_S
100
AcDbVertex
100
AcDb2dVertex
 10
248.6244842738888
 20
-30.00000000000728
 30
0.0
  0
SEQEND
  5
1A6
330
1A0
100
AcDbEntity
  8
1_ANYTOOL_1MMDEEP_LABELS_S
  0
LINE
  5
1A7
330
1F
100
AcDbEntity
  8
1_ANYTOOL_1MMDEEP_LABELS_S
100
AcDbLine
 10
219.4816271310265
 20
-16.11428571429133
 30
0.0
 11
210.6959128453163
 21
-16.20000000000437
 31
0.0
  0
POLYLINE
  5
1A8
330
1F
100
AcDbEntity
  8
1_ANYTOOL_1MMDEEP_LABELS_S
100
AcDb2dPolyline
 66
     1
 10
0.0
 20
0.0
 30
0.0
 70
     1
  0
VERTEX
  5
1A9
330
1A8
100
AcDbEntity
  8
1_ANYTOOL_1MMDEEP_LABELS_S
100
AcDbVertex
100
AcDb2dVertex
 10
195.524484273883
 20
0.3428571428521536
 30
0.0
  0
VERTEX
  5
1AA
330
1A8
100
AcDbEntity
  8
1_ANYTOOL_1MMDEEP_LABELS_S
100
AcDbVertex
100
AcDb2dVertex
 10
195.895968648883
 20
0.3369977678521536
 30
0.0
  0
VERTEX
  5
1AB
330
1A8
100
AcDbEntity
  8
1_ANYTOOL_1MMDEEP_LABELS_S
100
AcDbVertex
100
AcDb2dVertex
 10
196.2604217738831
 20
0.3194196428521536
 30
0.0
  0
VERTEX
  5
1AC
330
1A8
100
AcDbEntity
  8
1_ANYTOOL_1MMDEEP_LABELS_S
100
AcDbVertex
100
AcDb2dVertex
 10
196.6178436488832
 20
0.2901227678521536
 30
0.0
  0
VERTEX
  5
1AD
330
1A8
100
AcDbEntity
  8
1_ANYTOOL_1MMDEEP_LABELS_S
100
AcDbVertex
100
AcDb2dVertex
 10
196.7939178676333
 20
0.2710797991021536
 30
0.0
  0
VERTEX
  5
1AE
330
1A8
100
AcDbEntity
  8
1_ANYTOOL_1MMDEEP_LABELS_S
100
AcDbVertex
100
AcDb2dVertex
 10
196.9682342738834
 20
0.2491071428521536
 30
0.0
  0
VERTEX
  5
1AF
330
1A8
100
AcDbEntity
  8
1_ANYTOOL_1MMDEEP_LABELS_S
100
AcDbVertex
100
AcDb2dVertex
 10
197.1407928676335
 20
0.2242047991021536
 30
0.0
  0
VERTEX
  5
1B0
330
1A8
100
AcDbEntity
  8
1_ANYTOOL_1MMDEEP_LABELS_S
100
AcDbVertex
100
AcDb2dVertex
 10
197.3115936488836
 20
0.1963727678521536
 30
0.0
  0
VERTEX
  5
1B1
330
1A8
100
AcDbEntity
  8
1_ANYTOOL_1MMDEEP_LABELS_S
100
AcDbVertex
100
AcDb2dVertex
 10
197.4806366176337
 20
0.1656110491021536
 30
0.0
  0
VERTEX
  5
1B2
330
1A8
100
AcDbEntity
  8
1_ANYTOOL_1MMDEEP_LABELS_S
100
AcDbVertex
100
AcDb2dVertex
 10
197.6479217738838
 20
0.1319196428521536
 30
0.0
  0
VERTEX
  5
1B3
330
1A8
100
AcDbEntity
  8
1_ANYTOOL_1MMDEEP_LABELS_S
100
AcDbVertex
100
AcDb2dVertex
 10
197.813449117634
 20
0.0952985491021536
 30
0.0
  0
VERTEX
  5
1B4
330
1A8
100
AcDbEntity
  8
1_ANYTOOL_1MMDEEP_LABELS_S
100
AcDbVertex
100
AcDb2dVertex
 10
197.9772186488841
 20
0.0557477678521536
 30
0.0
  0
VERTEX
  5
1B5
330
1A8
100
AcDbEntity
  8
1_ANYTOOL_1MMDEEP_LABELS_S
100
AcDbVertex
100
AcDb2dVertex
 10
198.1392303676343
 20
0.0132672991021536
 30
0.0
  0
VERTEX
  5
1B6
330
1A8
100
AcDbEntity
  8
1_ANYTOOL_1MMDEEP_LABELS_S
100
AcDbVertex
100
AcDb2dVertex
 10
198.2994842738844
 20
-0.0321428571478464
 30
0.0
  0
VERTEX
  5
1B7
330
1A8
100
AcDbEntity
  8
1_ANYTOOL_1MMDEEP_LABELS_S
100
AcDbVertex
100
AcDb2dVertex
 10
198.4579803676346
 20
-0.0804827008978464
 30
0.0
  0
VERTEX
  5
1B8
330
1A8
100
AcDbEntity
  8
1_ANYTOOL_1MMDEEP_LABELS_S
100
AcDbVertex
100
AcDb2dVertex
 10
198.6147186488848
 20
-0.1317522321478464
 30
0.0
  0
VERTEX
  5
1B9
330
1A8
100
AcDbEntity
  8
1_ANYTOOL_1MMDEEP_LABELS_S
100
AcDbVertex
100
AcDb2dVertex
 10
198.769699117635
 20
-0.1859514508978464
 30
0.0
  0
VERTEX
  5
1BA
330
1A8
100
AcDbEntity
  8
1_ANYTOOL_1MMDEEP_LABELS_S
100
AcDbVertex
100
AcDb2dVertex
 10
198.9229217738853
 20
-0.2430803571478464
 30
0.0
  0
VERTEX
  5
1BB
330
1A8
100
AcDbEntity
  8
1_ANYTOOL_1MMDEEP_LABELS_S
100
AcDbVertex
100
AcDb2dVertex
 10
199.0743866176355
 20
-0.3031389508978464
 30
0.0
  0
VERTEX
  5
1BC
330
1A8
100
AcDbEntity
  8
1_ANYTOOL_1MMDEEP_LABELS_S
100
AcDbVertex
100
AcDb2dVertex
 10
199.2240936488857
 20
-0.3661272321478464
 30
0.0
  0
VERTEX
  5
1BD
330
1A8
100
AcDbEntity
  8
1_ANYTOOL_1MMDEEP_LABELS_S
100
AcDbVertex
100
AcDb2dVertex
 10
199.372042867636
 20
-0.4320452008978464
 30
0.0
  0
VERTEX
  5
1BE
330
1A8
100
AcDbEntity
  8
1_ANYTOOL_1MMDEEP_LABELS_S
100
AcDbVertex
100
AcDb2dVertex
 10
199.5182342738863
 20
-0.5008928571478464
 30
0.0
  0
VERTEX
  5
1BF
330
1A8
100
AcDbEntity
  8
1_ANYTOOL_1MMDEEP_LABELS_S
100
AcDbVertex
100
AcDb2dVertex
 10
199.6626678676365
 20
-0.5726702008978464
 30
0.0
  0
VERTEX
  5
1C0
330
1A8
100
AcDbEntity
  8
1_ANYTOOL_1MMDEEP_LABELS_S
100
AcDbVertex
100
AcDb2dVertex
 10
199.8053436488868
 20
-0.6473772321478464
 30
0.0
  0
VERTEX
  5
1C1
330
1A8
100
AcDbEntity
  8
1_ANYTOOL_1MMDEEP_LABELS_S
100
AcDbVertex
100
AcDb2dVertex
 10
199.9462616176371
 20
-0.7250139508978464
 30
0.0
  0
VERTEX
  5
1C2
330
1A8
100
AcDbEntity
  8
1_ANYTOOL_1MMDEEP_LABELS_S
100
AcDbVertex
100
AcDb2dVertex
 10
200.0854217738874
 20
-0.8055803571478464
 30
0.0
  0
VERTEX
  5
1C3
330
1A8
100
AcDbEntity
  8
1_ANYTOOL_1MMDEEP_LABELS_S
100
AcDbVertex
100
AcDb2dVertex
 10
200.2228241176378
 20
-0.8890764508978464
 30
0.0
  0
VERTEX
  5
1C4
330
1A8
100
AcDbEntity
  8
1_ANYTOOL_1MMDEEP_LABELS_S
100
AcDbVertex
100
AcDb2dVertex
 10
200.3584686488881
 20
-0.9755022321478464
 30
0.0
  0
VERTEX
  5
1C5
330
1A8
100
AcDbEntity
  8
1_ANYTOOL_1MMDEEP_LABELS_S
100
AcDbVertex
100
AcDb2dVertex
 10
200.4923553676385
 20
-1.064857700897846
 30
0.0
  0
VERTEX
  5
1C6
330
1A8
100
AcDbEntity
  8
1_ANYTOOL_1MMDEEP_LABELS_S
100
AcDbVertex
100
AcDb2dVertex
 10
200.8839708810315
 20
-1.342466517862221
 30
0.0
  0
VERTEX
  5
1C7
330
1A8
100
AcDbEntity
  8
1_ANYTOOL_1MMDEEP_LABELS_S
100
AcDbVertex
100
AcDb2dVertex
 10
201.1374307024598
 20
-1.534151785719473
 30
0.0
  0
VERTEX
  5
1C8
330
1A8
100
AcDbEntity
  8
1_ANYTOOL_1MMDEEP_LABELS_S
100
AcDbVertex
100
AcDb2dVertex
 10
201.3848637381739
 20
-1.732198660719604
 30
0.0
  0
VERTEX
  5
1C9
330
1A8
100
AcDbEntity
  8
1_ANYTOOL_1MMDEEP_LABELS_S
100
AcDbVertex
100
AcDb2dVertex
 10
201.6262699881736
 20
-1.936607142862613
 30
0.0
  0
VERTEX
  5
1CA
330
1A8
100
AcDbEntity
  8
1_ANYTOOL_1MMDEEP_LABELS_S
100
AcDbVertex
100
AcDb2dVertex
 10
201.861649452459
 20
-2.1473772321485
 30
0.0
  0
VERTEX
  5
1CB
330
1A8
100
AcDbEntity
  8
1_ANYTOOL_1MMDEEP_LABELS_S
100
AcDbVertex
100
AcDb2dVertex
 10
202.0910021310301
 20
-2.364508928577266
 30
0.0
  0
VERTEX
  5
1CC
330
1A8
100
AcDbEntity
  8
1_ANYTOOL_1MMDEEP_LABELS_S
100
AcDbVertex
100
AcDb2dVertex
 10
202.3143280238869
 20
-2.588002232148909
 30
0.0
  0
VERTEX
  5
1CD
330
1A8
100
AcDbEntity
  8
1_ANYTOOL_1MMDEEP_LABELS_S
100
AcDbVertex
100
AcDb2dVertex
 10
202.5316271310294
 20
-2.817857142863431
 30
0.0
  0
VERTEX
  5
1CE
330
1A8
100
AcDbEntity
  8
1_ANYTOOL_1MMDEEP_LABELS_S
100
AcDbVertex
100
AcDb2dVertex
 10
202.7428994524576
 20
-3.054073660720832
 30
0.0
  0
VERTEX
  5
1CF
330
1A8
100
AcDbEntity
  8
1_ANYTOOL_1MMDEEP_LABELS_S
100
AcDbVertex
100
AcDb2dVertex
 10
202.9481449881714
 20
-3.29665178572111
 30
0.0
  0
VERTEX
  5
1D0
330
1A8
100
AcDbEntity
  8
1_ANYTOOL_1MMDEEP_LABELS_S
100
AcDbVertex
100
AcDb2dVertex
 10
203.147363738171
 20
-3.545591517864267
 30
0.0
  0
VERTEX
  5
1D1
330
1A8
100
AcDbEntity
  8
1_ANYTOOL_1MMDEEP_LABELS_S
100
AcDbVertex
100
AcDb2dVertex
 10
203.3405557024562
 20
-3.800892857150302
 30
0.0
  0
VERTEX
  5
1D2
330
1A8
100
AcDbEntity
  8
1_ANYTOOL_1MMDEEP_LABELS_S
100
AcDbVertex
100
AcDb2dVertex
 10
203.5277208810271
 20
-4.062555803579215
 30
0.0
  0
VERTEX
  5
1D3
330
1A8
100
AcDbEntity
  8
1_ANYTOOL_1MMDEEP_LABELS_S
100
AcDbVertex
100
AcDb2dVertex
 10
203.7088592738837
 20
-4.330580357151007
 30
0.0
  0
VERTEX
  5
1D4
330
1A8
100
AcDbEntity
  8
1_ANYTOOL_1MMDEEP_LABELS_S
100
AcDbVertex
100
AcDb2dVertex
 10
203.883970881026
 20
-4.604966517865677
 30
0.0
  0
VERTEX
  5
1D5
330
1A8
100
AcDbEntity
  8
1_ANYTOOL_1MMDEEP_LABELS_S
100
AcDbVertex
100
AcDb2dVertex
 10
204.2214708810257
 20
-5.171484375008475
 30
0.0
  0
VERTEX
  5
1D6
330
1A8
100
AcDbEntity
  8
1_ANYTOOL_1MMDEEP_LABELS_S
100
AcDbVertex
100
AcDb2dVertex
 10
204.383859273883
 20
-5.460937500008072
 30
0.0
  0
VERTEX
  5
1D7
330
1A8
100
AcDbEntity
  8
1_ANYTOOL_1MMDEEP_LABELS_S
100
AcDbVertex
100
AcDb2dVertex
 10
204.540220881026
 20
-5.754073660722014
 30
0.0
  0
VERTEX
  5
1D8
330
1A8
100
AcDbEntity
  8
1_ANYTOOL_1MMDEEP_LABELS_S
100
AcDbVertex
100
AcDb2dVertex
 10
204.6905557024547
 20
-6.050892857150302
 30
0.0
  0
VERTEX
  5
1D9
330
1A8
100
AcDbEntity
  8
1_ANYTOOL_1MMDEEP_LABELS_S
100
AcDbVertex
100
AcDb2dVertex
 10
204.8348637381691
 20
-6.351395089292936
 30
0.0
  0
VERTEX
  5
1DA
330
1A8
100
AcDbEntity
  8
1_ANYTOOL_1MMDEEP_LABELS_S
100
AcDbVertex
100
AcDb2dVertex
 10
204.9731449881692
 20
-6.655580357149915
 30
0.0
  0
VERTEX
  5
1DB
330
1A8
100
AcDbEntity
  8
1_ANYTOOL_1MMDEEP_LABELS_S
100
AcDbVertex
100
AcDb2dVertex
 10
205.105399452455
 20
-6.963448660721241
 30
0.0
  0
VERTEX
  5
1DC
330
1A8
100
AcDbEntity
  8
1_ANYTOOL_1MMDEEP_LABELS_S
100
AcDbVertex
100
AcDb2dVertex
 10
205.2316271310265
 20
-7.275000000006912
 30
0.0
  0
VERTEX
  5
1DD
330
1A8
100
AcDbEntity
  8
1_ANYTOOL_1MMDEEP_LABELS_S
100
AcDbVertex
100
AcDb2dVertex
 10
205.3518280238836
 20
-7.590234375006929
 30
0.0
  0
VERTEX
  5
1DE
330
1A8
100
AcDbEntity
  8
1_ANYTOOL_1MMDEEP_LABELS_S
100
AcDbVertex
100
AcDb2dVertex
 10
205.4660021310265
 20
-7.909151785721292
 30
0.0
  0
VERTEX
  5
1DF
330
1A8
100
AcDbEntity
  8
1_ANYTOOL_1MMDEEP_LABELS_S
100
AcDbVertex
100
AcDb2dVertex
 10
205.574149452455
 20
-8.23175223215
 30
0.0
  0
VERTEX
  5
1E0
330
1A8
100
AcDbEntity
  8
1_ANYTOOL_1MMDEEP_LABELS_S
100
AcDbVertex
100
AcDb2dVertex
 10
205.6762699881692
 20
-8.558035714293055
 30
0.0
  0
VERTEX
  5
1E1
330
1A8
100
AcDbEntity
  8
1_ANYTOOL_1MMDEEP_LABELS_S
100
AcDbVertex
100
AcDb2dVertex
 10
205.7723637381691
 20
-8.888002232150455
 30
0.0
  0
VERTEX
  5
1E2
330
1A8
100
AcDbEntity
  8
1_ANYTOOL_1MMDEEP_LABELS_S
100
AcDbVertex
100
AcDb2dVertex
 10
205.8624307024547
 20
-9.221651785722202
 30
0.0
  0
VERTEX
  5
1E3
330
1A8
100
AcDbEntity
  8
1_ANYTOOL_1MMDEEP_LABELS_S
100
AcDbVertex
100
AcDb2dVertex
 10
205.946470881026
 20
-9.558984375008293
 30
0.0
  0
VERTEX
  5
1E4
330
1A8
100
AcDbEntity
  8
1_ANYTOOL_1MMDEEP_LABELS_S
100
AcDbVertex
100
AcDb2dVertex
 10
206.1751539167414
 20
-10.58236607143647
 30
0.0
  0
VERTEX
  5
1E5
330
1A8
100
AcDbEntity
  8
1_ANYTOOL_1MMDEEP_LABELS_S
100
AcDbVertex
100
AcDb2dVertex
 10
206.3057342738853
 20
-11.25803571429287
 30
0.0
  0
VERTEX
  5
1E6
330
1A8
100
AcDbEntity
  8
1_ANYTOOL_1MMDEEP_LABELS_S
100
AcDbVertex
100
AcDb2dVertex
 10
206.4162253453147
 20
-11.92700892857795
 30
0.0
  0
VERTEX
  5
1E7
330
1A8
100
AcDbEntity
  8
1_ANYTOOL_1MMDEEP_LABELS_S
100
AcDbVertex
100
AcDb2dVertex
 10
206.5066271310297
 20
-12.58928571429169
 30
0.0
  0
VERTEX
  5
1E8
330
1A8
100
AcDbEntity
  8
1_ANYTOOL_1MMDEEP_LABELS_S
100
AcDbVertex
100
AcDb2dVertex
 10
206.5769396310303
 20
-13.2448660714341
 30
0.0
  0
VERTEX
  5
1E9
330
1A8
100
AcDbEntity
  8
1_ANYTOOL_1MMDEEP_LABELS_S
100
AcDbVertex
100
AcDb2dVertex
 10
206.6271628453164
 20
-13.89375000000518
 30
0.0
  0
VERTEX
  5
1EA
330
1A8
100
AcDbEntity
  8
1_ANYTOOL_1MMDEEP_LABELS_S
100
AcDbVertex
100
AcDb2dVertex
 10
206.6572967738881
 20
-14.53593750000493
 30
0.0
  0
VERTEX
  5
1EB
330
1A8
100
AcDbEntity
  8
1_ANYTOOL_1MMDEEP_LABELS_S
100
AcDbVertex
100
AcDb2dVertex
 10
206.6673414167453
 20
-15.17142857143335
 30
0.0
  0
VERTEX
  5
1EC
330
1A8
100
AcDbEntity
  8
1_ANYTOOL_1MMDEEP_LABELS_S
100
AcDbVertex
100
AcDb2dVertex
 10
206.6564597203167
 20
-15.80892857143405
 30
0.0
  0
VERTEX
  5
1ED
330
1A8
100
AcDbEntity
  8
1_ANYTOOL_1MMDEEP_LABELS_S
100
AcDbVertex
100
AcDb2dVertex
 10
206.623814631031
 20
-16.44642857143469
 30
0.0
  0
VERTEX
  5
1EE
330
1A8
100
AcDbEntity
  8
1_ANYTOOL_1MMDEEP_LABELS_S
100
AcDbVertex
100
AcDb2dVertex
 10
206.5694061488881
 20
-17.08392857143528
 30
0.0
  0
VERTEX
  5
1EF
330
1A8
100
AcDbEntity
  8
1_ANYTOOL_1MMDEEP_LABELS_S
100
AcDbVertex
100
AcDb2dVertex
 10
206.493234273888
 20
-17.72142857143581
 30
0.0
  0
VERTEX
  5
1F0
330
1A8
100
AcDbEntity
  8
1_ANYTOOL_1MMDEEP_LABELS_S
100
AcDbVertex
100
AcDb2dVertex
 10
206.3952990060307
 20
-18.35892857143628
 30
0.0
  0
VERTEX
  5
1F1
330
1A8
100
AcDbEntity
  8
1_ANYTOOL_1MMDEEP_LABELS_S
100
AcDbVertex
100
AcDb2dVertex
 10
206.2756003453163
 20
-18.9964285714367
 30
0.0
  0
VERTEX
  5
1F2
330
1A8
100
AcDbEntity
  8
1_ANYTOOL_1MMDEEP_LABELS_S
100
AcDbVertex
100
AcDb2dVertex
 10
206.1341382917447
 20
-19.63392857143705
 30
0.0
  0
VERTEX
  5
1F3
330
1A8
100
AcDbEntity
  8
1_ANYTOOL_1MMDEEP_LABELS_S
100
AcDbVertex
100
AcDb2dVertex
 10
205.970912845316
 20
-20.27142857143735
 30
0.0
  0
VERTEX
  5
1F4
330
1A8
100
AcDbEntity
  8
1_ANYTOOL_1MMDEEP_LABELS_S
100
AcDbVertex
100
AcDb2dVertex
 10
205.7859240060301
 20
-20.9089285714376
 30
0.0
  0
VERTEX
  5
1F5
330
1A8
100
AcDbEntity
  8
1_ANYTOOL_1MMDEEP_LABELS_S
100
AcDbVertex
100
AcDb2dVertex
 10
205.579171773887
 20
-21.54642857143779
 30
0.0
  0
VERTEX
  5
1F6
330
1A8
100
AcDbEntity
  8
1_ANYTOOL_1MMDEEP_LABELS_S
100
AcDbVertex
100
AcDb2dVertex
 10
205.3506561488867
 20
-22.18392857143792
 30
0.0
  0
VERTEX
  5
1F7
330
1A8
100
AcDbEntity
  8
1_ANYTOOL_1MMDEEP_LABELS_S
100
AcDbVertex
100
AcDb2dVertex
 10
205.1003771310293
 20
-22.82142857143799
 30
0.0
  0
VERTEX
  5
1F8
330
1A8
100
AcDbEntity
  8
1_ANYTOOL_1MMDEEP_LABELS_S
100
AcDbVertex
100
AcDb2dVertex
 10
204.8283347203147
 20
-23.45892857143801
 30
0.0
  0
VERTEX
  5
1F9
330
1A8
100
AcDbEntity
  8
1_ANYTOOL_1MMDEEP_LABELS_S
100
AcDbVertex
100
AcDb2dVertex
 10
204.5345289167429
 20
-24.09642857143797
 30
0.0
  0
VERTEX
  5
1FA
330
1A8
100
AcDbEntity
  8
1_ANYTOOL_1MMDEEP_LABELS_S
100
AcDbVertex
100
AcDb2dVertex
 10
204.218959720314
 20
-24.73392857143787
 30
0.0
  0
VERTEX
  5
1FB
330
1A8
100
AcDbEntity
  8
1_ANYTOOL_1MMDEEP_LABELS_S
100
AcDbVertex
100
AcDb2dVertex
 10
203.8816271310279
 20
-25.37142857143772
 30
0.0
  0
VERTEX
  5
1FC
330
1A8
100
AcDbEntity
  8
1_ANYTOOL_1MMDEEP_LABELS_S
100
AcDbVertex
100
AcDb2dVertex
 10
203.7070596087067
 20
-25.68519810268763
 30
0.0
  0
VERTEX
  5
1FD
330
1A8
100
AcDbEntity
  8
1_ANYTOOL_1MMDEEP_LABELS_S
100
AcDbVertex
100
AcDb2dVertex
 10
203.5262141845998
 20
-25.98900669643754
 30
0.0
  0
VERTEX
  5
1FE
330
1A8
100
AcDbEntity
  8
1_ANYTOOL_1MMDEEP_LABELS_S
100
AcDbVertex
100
AcDb2dVertex
 10
203.3390908587071
 20
-26.28285435268746
 30
0.0
  0
VERTEX
  5
1FF
330
1A8
100
AcDbEntity
  8
1_ANYTOOL_1MMDEEP_LABELS_S
100
AcDbVertex
100
AcDb2dVertex
 10
203.1456896310287
 20
-26.56674107143738
 30
0.0
  0
VERTEX
  5
200
330
1A8
100
AcDbEntity
  8
1_ANYTOOL_1MMDEEP_LABELS_S
100
AcDbVertex
100
AcDb2dVertex
 10
202.9460105015646
 20
-26.8406668526873
 30
0.0
  0
VERTEX
  5
201
330
1A8
100
AcDbEntity
  8
1_ANYTOOL_1MMDEEP_LABELS_S
100
AcDbVertex
100
AcDb2dVertex
 10
202.7400534703148
 20
-27.10463169643722
 30
0.0
  0
VERTEX
  5
202
330
1A8
100
AcDbEntity
  8
1_ANYTOOL_1MMDEEP_LABELS_S
100
AcDbVertex
100
AcDb2dVertex
 10
202.5278185372793
 20
-27.35863560268715
 30
0.0
  0
VERTEX
  5
203
330
1A8
100
AcDbEntity
  8
1_ANYTOOL_1MMDEEP_LABELS_S
100
AcDbVertex
100
AcDb2dVertex
 10
202.309305702458
 20
-27.60267857143708
 30
0.0
  0
VERTEX
  5
204
330
1A8
100
AcDbEntity
  8
1_ANYTOOL_1MMDEEP_LABELS_S
100
AcDbVertex
100
AcDb2dVertex
 10
202.1976950718777
 20
-27.72096470424955
 30
0.0
  0
VERTEX
  5
205
330
1A8
100
AcDbEntity
  8
1_ANYTOOL_1MMDEEP_LABELS_S
100
AcDbVertex
100
AcDb2dVertex
 10
202.084514965851
 20
-27.83676060268701
 30
0.0
  0
VERTEX
  5
206
330
1A8
100
AcDbEntity
  8
1_ANYTOOL_1MMDEEP_LABELS_S
100
AcDbVertex
100
AcDb2dVertex
 10
201.9697653843779
 20
-27.95006626674948
 30
0.0
  0
VERTEX
  5
207
330
1A8
100
AcDbEntity
  8
1_ANYTOOL_1MMDEEP_LABELS_S
100
AcDbVertex
100
AcDb2dVertex
 10
201.8534463274583
 20
-28.06088169643695
 30
0.0
  0
VERTEX
  5
208
330
1A8
100
AcDbEntity
  8
1_ANYTOOL_1MMDEEP_LABELS_S
100
AcDbVertex
100
AcDb2dVertex
 10
201.7355577950923
 20
-28.16920689174942
 30
0.0
  0
VERTEX
  5
209
330
1A8
100
AcDbEntity
  8
1_ANYTOOL_1MMDEEP_LABELS_S
100
AcDbVertex
100
AcDb2dVertex
 10
201.6160997872799
 20
-28.27504185268689
 30
0.0
  0
VERTEX
  5
20A
330
1A8
100
AcDbEntity
  8
1_ANYTOOL_1MMDEEP_LABELS_S
100
AcDbVertex
100
AcDb2dVertex
 10
201.495072304021
 20
-28.37838657924936
 30
0.0
  0
VERTEX
  5
20B
330
1A8
100
AcDbEntity
  8
1_ANYTOOL_1MMDEEP_LABELS_S
100
AcDbVertex
100
AcDb2dVertex
 10
201.3724753453157
 20
-28.47924107143683
 30
0.0
  0
VERTEX
  5
20C
330
1A8
100
AcDbEntity
  8
1_ANYTOOL_1MMDEEP_LABELS_S
100
AcDbVertex
100
AcDb2dVertex
 10
201.248308911164
 20
-28.5776053292493
 30
0.0
  0
VERTEX
  5
20D
330
1A8
100
AcDbEntity
  8
1_ANYTOOL_1MMDEEP_LABELS_S
100
AcDbVertex
100
AcDb2dVertex
 10
201.1225730015658
 20
-28.67347935268678
 30
0.0
  0
VERTEX
  5
20E
330
1A8
100
AcDbEntity
  8
1_ANYTOOL_1MMDEEP_LABELS_S
100
AcDbVertex
100
AcDb2dVertex
 10
200.9952676165212
 20
-28.76686314174925
 30
0.0
  0
VERTEX
  5
20F
330
1A8
100
AcDbEntity
  8
1_ANYTOOL_1MMDEEP_LABELS_S
100
AcDbVertex
100
AcDb2dVertex
 10
200.8663927560302
 20
-28.85775669643672
 30
0.0
  0
VERTEX
  5
210
330
1A8
100
AcDbEntity
  8
1_ANYTOOL_1MMDEEP_LABELS_S
100
AcDbVertex
100
AcDb2dVertex
 10
200.7359484200928
 20
-28.9461600167492
 30
0.0
  0
VERTEX
  5
211
330
1A8
100
AcDbEntity
  8
1_ANYTOOL_1MMDEEP_LABELS_S
100
AcDbVertex
100
AcDb2dVertex
 10
200.6039346087089
 20
-29.03207310268667
 30
0.0
  0
VERTEX
  5
212
330
1A8
100
AcDbEntity
  8
1_ANYTOOL_1MMDEEP_LABELS_S
100
AcDbVertex
100
AcDb2dVertex
 10
200.4703513218786
 20
-29.11549595424915
 30
0.0
  0
VERTEX
  5
213
330
1A8
100
AcDbEntity
  8
1_ANYTOOL_1MMDEEP_LABELS_S
100
AcDbVertex
100
AcDb2dVertex
 10
200.3351985596018
 20
-29.19642857143663
 30
0.0
  0
VERTEX
  5
214
330
1A8
100
AcDbEntity
  8
1_ANYTOOL_1MMDEEP_LABELS_S
100
AcDbVertex
100
AcDb2dVertex
 10
200.1984763218787
 20
-29.2748709542491
 30
0.0
  0
VERTEX
  5
215
330
1A8
100
AcDbEntity
  8
1_ANYTOOL_1MMDEEP_LABELS_S
100
AcDbVertex
100
AcDb2dVertex
 10
200.0601846087091
 20
-29.35082310268658
 30
0.0
  0
VERTEX
  5
216
330
1A8
100
AcDbEntity
  8
1_ANYTOOL_1MMDEEP_LABELS_S
100
AcDbVertex
100
AcDb2dVertex
 10
199.920323420093
 20
-29.42428501674906
 30
0.0
  0
VERTEX
  5
217
330
1A8
100
AcDbEntity
  8
1_ANYTOOL_1MMDEEP_LABELS_S
100
AcDbVertex
100
AcDb2dVertex
 10
199.7788927560306
 20
-29.49525669643654
 30
0.0
  0
VERTEX
  5
218
330
1A8
100
AcDbEntity
  8
1_ANYTOOL_1MMDEEP_LABELS_S
100
AcDbVertex
100
AcDb2dVertex
 10
199.6358926165217
 20
-29.56373814174902
 30
0.0
  0
VERTEX
  5
219
330
1A8
100
AcDbEntity
  8
1_ANYTOOL_1MMDEEP_LABELS_S
100
AcDbVertex
100
AcDb2dVertex
 10
199.4913230015664
 20
-29.6297293526865
 30
0.0
  0
VERTEX
  5
21A
330
1A8
100
AcDbEntity
  8
1_ANYTOOL_1MMDEEP_LABELS_S
100
AcDbVertex
100
AcDb2dVertex
 10
199.3451839111646
 20
-29.69323032924898
 30
0.0
  0
VERTEX
  5
21B
330
1A8
100
AcDbEntity
  8
1_ANYTOOL_1MMDEEP_LABELS_S
100
AcDbVertex
100
AcDb2dVertex
 10
199.1974753453164
 20
-29.75424107143647
 30
0.0
  0
VERTEX
  5
21C
330
1A8
100
AcDbEntity
  8
1_ANYTOOL_1MMDEEP_LABELS_S
100
AcDbVertex
100
AcDb2dVertex
 10
199.0481973040218
 20
-29.81276157924895
 30
0.0
  0
VERTEX
  5
21D
330
1A8
100
AcDbEntity
  8
1_ANYTOOL_1MMDEEP_LABELS_S
100
AcDbVertex
100
AcDb2dVertex
 10
198.8973497872808
 20
-29.86879185268644
 30
0.0
  0
VERTEX
  5
21E
330
1A8
100
AcDbEntity
  8
1_ANYTOOL_1MMDEEP_LABELS_S
100
AcDbVertex
100
AcDb2dVertex
 10
198.7449327950933
 20
-29.92233189174892
 30
0.0
  0
VERTEX
  5
21F
330
1A8
100
AcDbEntity
  8
1_ANYTOOL_1MMDEEP_LABELS_S
100
AcDbVertex
100
AcDb2dVertex
 10
198.5909463274594
 20
-29.97338169643641
 30
0.0
  0
VERTEX
  5
220
330
1A8
100
AcDbEntity
  8
1_ANYTOOL_1MMDEEP_LABELS_S
100
AcDbVertex
100
AcDb2dVertex
 10
198.2782649658523
 20
-30.06801060268638
 30
0.0
  0
VERTEX
  5
221
330
1A8
100
AcDbEntity
  8
1_ANYTOOL_1MMDEEP_LABELS_S
100
AcDbVertex
100
AcDb2dVertex
 10
197.9593057024595
 20
-30.15267857143635
 30
0.0
  0
VERTEX
  5
222
330
1A8
100
AcDbEntity
  8
1_ANYTOOL_1MMDEEP_LABELS_S
100
AcDbVertex
100
AcDb2dVertex
 10
197.6340685372809
 20
-30.22738560268633
 30
0.0
  0
VERTEX
  5
223
330
1A8
100
AcDbEntity
  8
1_ANYTOOL_1MMDEEP_LABELS_S
100
AcDbVertex
100
AcDb2dVertex
 10
197.3025534703166
 20
-30.29213169643631
 30
0.0
  0
VERTEX
  5
224
330
1A8
100
AcDbEntity
  8
1_ANYTOOL_1MMDEEP_LABELS_S
100
AcDbVertex
100
AcDb2dVertex
 10
196.9647605015666
 20
-30.3469168526863
 30
0.0
  0
VERTEX
  5
225
330
1A8
100
AcDbEntity
  8
1_ANYTOOL_1MMDEEP_LABELS_S
100
AcDbVertex
100
AcDb2dVertex
 10
196.6206896310309
 20
-30.39174107143629
 30
0.0
  0
VERTEX
  5
226
330
1A8
100
AcDbEntity
  8
1_ANYTOOL_1MMDEEP_LABELS_S
100
AcDbVertex
100
AcDb2dVertex
 10
196.2703408587095
 20
-30.42660435268628
 30
0.0
  0
VERTEX
  5
227
330
1A8
100
AcDbEntity
  8
1_ANYTOOL_1MMDEEP_LABELS_S
100
AcDbVertex
100
AcDb2dVertex
 10
195.9137141846023
 20
-30.45150669643627
 30
0.0
  0
VERTEX
  5
228
330
1A8
100
AcDbEntity
  8
1_ANYTOOL_1MMDEEP_LABELS_S
100
AcDbVertex
100
AcDb2dVertex
 10
195.5508096087094
 20
-30.46644810268626
 30
0.0
  0
VERTEX
  5
229
330
1A8
100
AcDbEntity
  8
1_ANYTOOL_1MMDEEP_LABELS_S
100
AcDbVertex
100
AcDb2dVertex
 10
195.1816271310308
 20
-30.47142857143626
 30
0.0
  0
VERTEX
  5
22A
330
1A8
100
AcDbEntity
  8
1_ANYTOOL_1MMDEEP_LABELS_S
100
AcDbVertex
100
AcDb2dVertex
 10
194.7992192069234
 20
-30.46636439732912
 30
0.0
  0
VERTEX
  5
22B
330
1A8
100
AcDbEntity
  8
1_ANYTOOL_1MMDEEP_LABELS_S
100
AcDbVertex
100
AcDb2dVertex
 10
194.4234240060303
 20
-30.4511718750077
 30
0.0
  0
VERTEX
  5
22C
330
1A8
100
AcDbEntity
  8
1_ANYTOOL_1MMDEEP_LABELS_S
100
AcDbVertex
100
AcDb2dVertex
 10
194.0542415283514
 20
-30.425851004472
 30
0.0
  0
VERTEX
  5
22D
330
1A8
100
AcDbEntity
  8
1_ANYTOOL_1MMDEEP_LABELS_S
100
AcDbVertex
100
AcDb2dVertex
 10
193.6916717738869
 20
-30.39040178572202
 30
0.0
  0
VERTEX
  5
22E
330
1A8
100
AcDbEntity
  8
1_ANYTOOL_1MMDEEP_LABELS_S
100
AcDbVertex
100
AcDb2dVertex
 10
193.3357147426367
 20
-30.34482421875776
 30
0.0
  0
VERTEX
  5
22F
330
1A8
100
AcDbEntity
  8
1_ANYTOOL_1MMDEEP_LABELS_S
100
AcDbVertex
100
AcDb2dVertex
 10
192.9863704346008
 20
-30.28911830357922
 30
0.0
  0
VERTEX
  5
230
330
1A8
100
AcDbEntity
  8
1_ANYTOOL_1MMDEEP_LABELS_S
100
AcDbVertex
100
AcDb2dVertex
 10
192.6436388497792
 20
-30.22328404018639
 30
0.0
  0
VERTEX
  5
231
330
1A8
100
AcDbEntity
  8
1_ANYTOOL_1MMDEEP_LABELS_S
100
AcDbVertex
100
AcDb2dVertex
 10
192.3075199881719
 20
-30.14732142857929
 30
0.0
  0
VERTEX
  5
232
330
1A8
100
AcDbEntity
  8
1_ANYTOOL_1MMDEEP_LABELS_S
100
AcDbVertex
100
AcDb2dVertex
 10
191.9780138497788
 20
-30.06123046875791
 30
0.0
  0
VERTEX
  5
233
330
1A8
100
AcDbEntity
  8
1_ANYTOOL_1MMDEEP_LABELS_S
100
AcDbVertex
100
AcDb2dVertex
 10
191.6551204346001
 20
-29.96501116072224
 30
0.0
  0
VERTEX
  5
234
330
1A8
100
AcDbEntity
  8
1_ANYTOOL_1MMDEEP_LABELS_S
100
AcDbVertex
100
AcDb2dVertex
 10
191.4961534982162
 20
-29.91310337612406
 30
0.0
  0
VERTEX
  5
235
330
1A8
100
AcDbEntity
  8
1_ANYTOOL_1MMDEEP_LABELS_S
100
AcDbVertex
100
AcDb2dVertex
 10
191.3388397426357
 20
-29.8586635044723
 30
0.0
  0
VERTEX
  5
236
330
1A8
100
AcDbEntity
  8
1_ANYTOOL_1MMDEEP_LABELS_S
100
AcDbVertex
100
AcDb2dVertex
 10
191.1831791678589
 20
-29.80169154576697
 30
0.0
  0
VERTEX
  5
237
330
1A8
100
AcDbEntity
  8
1_ANYTOOL_1MMDEEP_LABELS_S
100
AcDbVertex
100
AcDb2dVertex
 10
191.0291717738857
 20
-29.74218750000807
 30
0.0
  0
VERTEX
  5
238
330
1A8
100
AcDbEntity
  8
1_ANYTOOL_1MMDEEP_LABELS_S
100
AcDbVertex
100
AcDb2dVertex
 10
190.876817560716
 20
-29.68015136719561
 30
0.0
  0
VERTEX
  5
239
330
1A8
100
AcDbEntity
  8
1_ANYTOOL_1MMDEEP_LABELS_S
100
AcDbVertex
100
AcDb2dVertex
 10
190.7261165283498
 20
-29.61558314732957
 30
0.0
  0
VERTEX
  5
23A
330
1A8
100
AcDbEntity
  8
1_ANYTOOL_1MMDEEP_LABELS_S
100
AcDbVertex
100
AcDb2dVertex
 10
190.5770686767873
 20
-29.54848284040996
 30
0.0
  0
VERTEX
  5
23B
330
1A8
100
AcDbEntity
  8
1_ANYTOOL_1MMDEEP_LABELS_S
100
AcDbVertex
100
AcDb2dVertex
 10
190.4296740060284
 20
-29.47885044643678
 30
0.0
  0
VERTEX
  5
23C
330
1A8
100
AcDbEntity
  8
1_ANYTOOL_1MMDEEP_LABELS_S
100
AcDbVertex
100
AcDb2dVertex
 10
190.283932516073
 20
-29.40668596541003
 30
0.0
  0
VERTEX
  5
23D
330
1A8
100
AcDbEntity
  8
1_ANYTOOL_1MMDEEP_LABELS_S
100
AcDbVertex
100
AcDb2dVertex
 10
190.1398442069212
 20
-29.33198939732971
 30
0.0
  0
VERTEX
  5
23E
330
1A8
100
AcDbEntity
  8
1_ANYTOOL_1MMDEEP_LABELS_S
100
AcDbVertex
100
AcDb2dVertex
 10
189.997409078573
 20
-29.25476074219583
 30
0.0
  0
VERTEX
  5
23F
330
1A8
100
AcDbEntity
  8
1_ANYTOOL_1MMDEEP_LABELS_S
100
AcDbVertex
100
AcDb2dVertex
 10
189.8566271310283
 20
-29.17500000000837
 30
0.0
  0
VERTEX
  5
240
330
1A8
100
AcDbEntity
  8
1_ANYTOOL_1MMDEEP_LABELS_S
100
AcDbVertex
100
AcDb2dVertex
 10
189.7174983642872
 20
-29.09270717076734
 30
0.0
  0
VERTEX
  5
241
330
1A8
100
AcDbEntity
  8
1_ANYTOOL_1MMDEEP_LABELS_S
100
AcDbVertex
100
AcDb2dVertex
 10
189.5800227783497
 20
-29.00788225447274
 30
0.0
  0
VERTEX
  5
242
330
1A8
100
AcDbEntity
  8
1_ANYTOOL_1MMDEEP_LABELS_S
100
AcDbVertex
100
AcDb2dVertex
 10
189.4442003732158
 20
-28.92052525112457
 30
0.0
  0
VERTEX
  5
243
330
1A8
100
AcDbEntity
  8
1_ANYTOOL_1MMDEEP_LABELS_S
100
AcDbVertex
100
AcDb2dVertex
 10
189.3100311488854
 20
-28.83063616072283
 30
0.0
  0
VERTEX
  5
244
330
1A8
100
AcDbEntity
  8
1_ANYTOOL_1MMDEEP_LABELS_S
100
AcDbVertex
100
AcDb2dVertex
 10
189.1775151053587
 20
-28.73821498326753
 30
0.0
  0
VERTEX
  5
245
330
1A8
100
AcDbEntity
  8
1_ANYTOOL_1MMDEEP_LABELS_S
100
AcDbVertex
100
AcDb2dVertex
 10
189.0466522426354
 20
-28.64326171875864
 30
0.0
  0
VERTEX
  5
246
330
1A8
100
AcDbEntity
  8
1_ANYTOOL_1MMDEEP_LABELS_S
100
AcDbVertex
100
AcDb2dVertex
 10
188.9174425607158
 20
-28.5457763671962
 30
0.0
  0
VERTEX
  5
247
330
1A8
100
AcDbEntity
  8
1_ANYTOOL_1MMDEEP_LABELS_S
100
AcDbVertex
100
AcDb2dVertex
 10
188.7898860595998
 20
-28.44575892858018
 30
0.0
  0
VERTEX
  5
248
330
1A8
100
AcDbEntity
  8
1_ANYTOOL_1MMDEEP_LABELS_S
100
AcDbVertex
100
AcDb2dVertex
 10
188.6639827392873
 20
-28.34320940291059
 30
0.0
  0
VERTEX
  5
249
330
1A8
100
AcDbEntity
  8
1_ANYTOOL_1MMDEEP_LABELS_S
100
AcDbVertex
100
AcDb2dVertex
 10
188.5397325997784
 20
-28.23812779018743
 30
0.0
  0
VERTEX
  5
24A
330
1A8
100
AcDbEntity
  8
1_ANYTOOL_1MMDEEP_LABELS_S
100
AcDbVertex
100
AcDb2dVertex
 10
188.4171356410731
 20
-28.1305140904107
 30
0.0
  0
VERTEX
  5
24B
330
1A8
100
AcDbEntity
  8
1_ANYTOOL_1MMDEEP_LABELS_S
100
AcDbVertex
100
AcDb2dVertex
 10
188.2961918631713
 20
-28.0203683035804
 30
0.0
  0
VERTEX
  5
24C
330
1A8
100
AcDbEntity
  8
1_ANYTOOL_1MMDEEP_LABELS_S
100
AcDbVertex
100
AcDb2dVertex
 10
188.1769012660732
 20
-27.90769042969653
 30
0.0
  0
VERTEX
  5
24D
330
1A8
100
AcDbEntity
  8
1_ANYTOOL_1MMDEEP_LABELS_S
100
AcDbVertex
100
AcDb2dVertex
 10
188.0592638497786
 20
-27.79248046875909
 30
0.0
  0
VERTEX
  5
24E
330
1A8
100
AcDbEntity
  8
1_ANYTOOL_1MMDEEP_LABELS_S
100
AcDbVertex
100
AcDb2dVertex
 10
187.9432796142876
 20
-27.67473842076808
 30
0.0
  0
VERTEX
  5
24F
330
1A8
100
AcDbEntity
  8
1_ANYTOOL_1MMDEEP_LABELS_S
100
AcDbVertex
100
AcDb2dVertex
 10
187.8289485596001
 20
-27.5544642857235
 30
0.0
  0
VERTEX
  5
250
330
1A8
100
AcDbEntity
  8
1_ANYTOOL_1MMDEEP_LABELS_S
100
AcDbVertex
100
AcDb2dVertex
 10
187.7162706857163
 20
-27.43165806362535
 30
0.0
  0
VERTEX
  5
251
330
1A8
100
AcDbEntity
  8
1_ANYTOOL_1MMDEEP_LABELS_S
100
AcDbVertex
100
AcDb2dVertex
 10
187.605245992636
 20
-27.30631975447363
 30
0.0
  0
VERTEX
  5
252
330
1A8
100
AcDbEntity
  8
1_ANYTOOL_1MMDEEP_LABELS_S
100
AcDbVertex
100
AcDb2dVertex
 10
187.3881561488861
 20
-27.04804687500948
 30
0.0
  0
VERTEX
  5
253
330
1A8
100
AcDbEntity
  8
1_ANYTOOL_1MMDEEP_LABELS_S
100
AcDbVertex
100
AcDb2dVertex
 10
187.1776790283506
 20
-26.77964564733104
 30
0.0
  0
VERTEX
  5
254
330
1A8
100
AcDbEntity
  8
1_ANYTOOL_1MMDEEP_LABELS_S
100
AcDbVertex
100
AcDb2dVertex
 10
186.9738146310293
 20
-26.50111607143833
 30
0.0
  0
VERTEX
  5
255
330
1A8
100
AcDbEntity
  8
1_ANYTOOL_1MMDEEP_LABELS_S
100
AcDbVertex
100
AcDb2dVertex
 10
186.7765629569224
 20
-26.21245814733134
 30
0.0
  0
VERTEX
  5
256
330
1A8
100
AcDbEntity
  8
1_ANYTOOL_1MMDEEP_LABELS_S
100
AcDbVertex
100
AcDb2dVertex
 10
186.5859240060297
 20
-25.91367187501007
 30
0.0
  0
VERTEX
  5
257
330
1A8
100
AcDbEntity
  8
1_ANYTOOL_1MMDEEP_LABELS_S
100
AcDbVertex
100
AcDb2dVertex
 10
186.4018977783514
 20
-25.60475725447451
 30
0.0
  0
VERTEX
  5
258
330
1A8
100
AcDbEntity
  8
1_ANYTOOL_1MMDEEP_LABELS_S
100
AcDbVertex
100
AcDb2dVertex
 10
186.2244842738874
 20
-25.28571428572468
 30
0.0
  0
VERTEX
  5
259
330
1A8
100
AcDbEntity
  8
1_ANYTOOL_1MMDEEP_LABELS_S
100
AcDbVertex
100
AcDb2dVertex
 10
185.892341416744
 20
-24.63733258929557
 30
0.0
  0
VERTEX
  5
25A
330
1A8
100
AcDbEntity
  8
1_ANYTOOL_1MMDEEP_LABELS_S
100
AcDbVertex
100
AcDb2dVertex
 10
185.5816271310293
 20
-23.98861607143795
 30
0.0
  0
VERTEX
  5
25B
330
1A8
100
AcDbEntity
  8
1_ANYTOOL_1MMDEEP_LABELS_S
100
AcDbVertex
100
AcDb2dVertex
 10
185.2923414167432
 20
-23.33956473215181
 30
0.0
  0
VERTEX
  5
25C
330
1A8
100
AcDbEntity
  8
1_ANYTOOL_1MMDEEP_LABELS_S
100
AcDbVertex
100
AcDb2dVertex
 10
185.0244842738857
 20
-22.69017857143717
 30
0.0
  0
VERTEX
  5
25D
330
1A8
100
AcDbEntity
  8
1_ANYTOOL_1MMDEEP_LABELS_S
100
AcDbVertex
100
AcDb2dVertex
 10
184.7780557024568
 20
-22.04045758929402
 30
0.0
  0
VERTEX
  5
25E
330
1A8
100
AcDbEntity
  8
1_ANYTOOL_1MMDEEP_LABELS_S
100
AcDbVertex
100
AcDb2dVertex
 10
184.5530557024565
 20
-21.39040178572236
 30
0.0
  0
VERTEX
  5
25F
330
1A8
100
AcDbEntity
  8
1_ANYTOOL_1MMDEEP_LABELS_S
100
AcDbVertex
100
AcDb2dVertex
 10
184.3494842738848
 20
-20.74001116072219
 30
0.0
  0
VERTEX
  5
260
330
1A8
100
AcDbEntity
  8
1_ANYTOOL_1MMDEEP_LABELS_S
100
AcDbVertex
100
AcDb2dVertex
 10
184.1673414167417
 20
-20.08928571429351
 30
0.0
  0
VERTEX
  5
261
330
1A8
100
AcDbEntity
  8
1_ANYTOOL_1MMDEEP_LABELS_S
100
AcDbVertex
100
AcDb2dVertex
 10
184.0066271310272
 20
-19.43822544643632
 30
0.0
  0
VERTEX
  5
262
330
1A8
100
AcDbEntity
  8
1_ANYTOOL_1MMDEEP_LABELS_S
100
AcDbVertex
100
AcDb2dVertex
 10
183.8673414167413
 20
-18.78683035715062
 30
0.0
  0
VERTEX
  5
263
330
1A8
100
AcDbEntity
  8
1_ANYTOOL_1MMDEEP_LABELS_S
100
AcDbVertex
100
AcDb2dVertex
 10
183.749484273884
 20
-18.13510044643641
 30
0.0
  0
VERTEX
  5
264
330
1A8
100
AcDbEntity
  8
1_ANYTOOL_1MMDEEP_LABELS_S
100
AcDbVertex
100
AcDb2dVertex
 10
183.6530557024553
 20
-17.48303571429369
 30
0.0
  0
VERTEX
  5
265
330
1A8
100
AcDbEntity
  8
1_ANYTOOL_1MMDEEP_LABELS_S
100
AcDbVertex
100
AcDb2dVertex
 10
183.5780557024552
 20
-16.83063616072246
 30
0.0
  0
VERTEX
  5
266
330
1A8
100
AcDbEntity
  8
1_ANYTOOL_1MMDEEP_LABELS_S
100
AcDbVertex
100
AcDb2dVertex
 10
183.5244842738837
 20
-16.17790178572272
 30
0.0
  0
VERTEX
  5
267
330
1A8
100
AcDbEntity
  8
1_ANYTOOL_1MMDEEP_LABELS_S
100
AcDbVertex
100
AcDb2dVertex
 10
183.4923414167408
 20
-15.52483258929448
 30
0.0
  0
VERTEX
  5
268
330
1A8
100
AcDbEntity
  8
1_ANYTOOL_1MMDEEP_LABELS_S
100
AcDbVertex
100
AcDb2dVertex
 10
183.4816271310265
 20
-14.87142857143772
 30
0.0
  0
VERTEX
  5
269
330
1A8
100
AcDbEntity
  8
1_ANYTOOL_1MMDEEP_LABELS_S
100
AcDbVertex
100
AcDb2dVertex
 10
183.4928436488836
 20
-14.1780133928664
 30
0.0
  0
VERTEX
  5
26A
330
1A8
100
AcDbEntity
  8
1_ANYTOOL_1MMDEEP_LABELS_S
100
AcDbVertex
100
AcDb2dVertex
 10
183.5264932024551
 20
-13.49062500000935
 30
0.0
  0
VERTEX
  5
26B
330
1A8
100
AcDbEntity
  8
1_ANYTOOL_1MMDEEP_LABELS_S
100
AcDbVertex
100
AcDb2dVertex
 10
183.5825757917408
 20
-12.80926339286654
 30
0.0
  0
VERTEX
  5
26C
330
1A8
100
AcDbEntity
  8
1_ANYTOOL_1MMDEEP_LABELS_S
100
AcDbVertex
100
AcDb2dVertex
 10
183.6610914167409
 20
-12.13392857143799
 30
0.0
  0
VERTEX
  5
26D
330
1A8
100
AcDbEntity
  8
1_ANYTOOL_1MMDEEP_LABELS_S
100
AcDbVertex
100
AcDb2dVertex
 10
183.7620400774552
 20
-11.4646205357237
 30
0.0
  0
VERTEX
  5
26E
330
1A8
100
AcDbEntity
  8
1_ANYTOOL_1MMDEEP_LABELS_S
100
AcDbVertex
100
AcDb2dVertex
 10
183.8854217738839
 20
-10.80133928572366
 30
0.0
  0
VERTEX
  5
26F
330
1A8
100
AcDbEntity
  8
1_ANYTOOL_1MMDEEP_LABELS_S
100
AcDbVertex
100
AcDb2dVertex
 10
184.0312365060268
 20
-10.14408482143787
 30
0.0
  0
VERTEX
  5
270
330
1A8
100
AcDbEntity
  8
1_ANYTOOL_1MMDEEP_LABELS_S
100
AcDbVertex
100
AcDb2dVertex
 10
184.1994842738841
 20
-9.492857142866342
 30
0.0
  0
VERTEX
  5
271
330
1A8
100
AcDbEntity
  8
1_ANYTOOL_1MMDEEP_LABELS_S
100
AcDbVertex
100
AcDb2dVertex
 10
184.3901650774556
 20
-8.847656250009067
 30
0.0
  0
VERTEX
  5
272
330
1A8
100
AcDbEntity
  8
1_ANYTOOL_1MMDEEP_LABELS_S
100
AcDbVertex
100
AcDb2dVertex
 10
184.6032789167415
 20
-8.208482142866046
 30
0.0
  0
VERTEX
  5
273
330
1A8
100
AcDbEntity
  8
1_ANYTOOL_1MMDEEP_LABELS_S
100
AcDbVertex
100
AcDb2dVertex
 10
184.8388257917416
 20
-7.575334821437281
 30
0.0
  0
VERTEX
  5
274
330
1A8
100
AcDbEntity
  8
1_ANYTOOL_1MMDEEP_LABELS_S
100
AcDbVertex
100
AcDb2dVertex
 10
185.0968057024561
 20
-6.94821428572277
 30
0.0
  0
VERTEX
  5
275
330
1A8
100
AcDbEntity
  8
1_ANYTOOL_1MMDEEP_LABELS_S
100
AcDbVertex
100
AcDb2dVertex
 10
185.3772186488848
 20
-6.327120535722514
 30
0.0
  0
VERTEX
  5
276
330
1A8
100
AcDbEntity
  8
1_ANYTOOL_1MMDEEP_LABELS_S
100
AcDbVertex
100
AcDb2dVertex
 10
185.6800646310279
 20
-5.712053571436513
 30
0.0
  0
VERTEX
  5
277
330
1A8
100
AcDbEntity
  8
1_ANYTOOL_1MMDEEP_LABELS_S
100
AcDbVertex
100
AcDb2dVertex
 10
186.0053436488853
 20
-5.103013392864767
 30
0.0
  0
VERTEX
  5
278
330
1A8
100
AcDbEntity
  8
1_ANYTOOL_1MMDEEP_LABELS_S
100
AcDbVertex
100
AcDb2dVertex
 10
186.3530557024569
 20
-4.500000000007276
 30
0.0
  0
VERTEX
  5
279
330
1A8
100
AcDbEntity
  8
1_ANYTOOL_1MMDEEP_LABELS_S
100
AcDbVertex
100
AcDb2dVertex
 10
186.5384630685284
 20
-4.202050781257135
 30
0.0
  0
VERTEX
  5
27A
330
1A8
100
AcDbEntity
  8
1_ANYTOOL_1MMDEEP_LABELS_S
100
AcDbVertex
100
AcDb2dVertex
 10
186.730399452457
 20
-3.913560267864142
 30
0.0
  0
VERTEX
  5
27B
330
1A8
100
AcDbEntity
  8
1_ANYTOOL_1MMDEEP_LABELS_S
100
AcDbVertex
100
AcDb2dVertex
 10
186.9288648542428
 20
-3.634528459828296
 30
0.0
  0
VERTEX
  5
27C
330
1A8
100
AcDbEntity
  8
1_ANYTOOL_1MMDEEP_LABELS_S
100
AcDbVertex
100
AcDb2dVertex
 10
187.1338592738857
 20
-3.364955357149597
 30
0.0
  0
VERTEX
  5
27D
330
1A8
100
AcDbEntity
  8
1_ANYTOOL_1MMDEEP_LABELS_S
100
AcDbVertex
100
AcDb2dVertex
 10
187.3453827113858
 20
-3.104840959828046
 30
0.0
  0
VERTEX
  5
27E
330
1A8
100
AcDbEntity
  8
1_ANYTOOL_1MMDEEP_LABELS_S
100
AcDbVertex
100
AcDb2dVertex
 10
187.5634351667429
 20
-2.854185267863642
 30
0.0
  0
VERTEX
  5
27F
330
1A8
100
AcDbEntity
  8
1_ANYTOOL_1MMDEEP_LABELS_S
100
AcDbVertex
100
AcDb2dVertex
 10
187.7880166399572
 20
-2.612988281256385
 30
0.0
  0
VERTEX
  5
280
330
1A8
100
AcDbEntity
  8
1_ANYTOOL_1MMDEEP_LABELS_S
100
AcDbVertex
100
AcDb2dVertex
 10
188.0191271310287
 20
-2.381250000006276
 30
0.0
  0
VERTEX
  5
281
330
1A8
100
AcDbEntity
  8
1_ANYTOOL_1MMDEEP_LABELS_S
100
AcDbVertex
100
AcDb2dVertex
 10
188.1371307582608
 20
-2.268927873890151
 30
0.0
  0
VERTEX
  5
282
330
1A8
100
AcDbEntity
  8
1_ANYTOOL_1MMDEEP_LABELS_S
100
AcDbVertex
100
AcDb2dVertex
 10
188.2567666399572
 20
-2.158970424113313
 30
0.0
  0
VERTEX
  5
283
330
1A8
100
AcDbEntity
  8
1_ANYTOOL_1MMDEEP_LABELS_S
100
AcDbVertex
100
AcDb2dVertex
 10
188.3780347761179
 20
-2.051377650675763
 30
0.0
  0
VERTEX
  5
284
330
1A8
100
AcDbEntity
  8
1_ANYTOOL_1MMDEEP_LABELS_S
100
AcDbVertex
100
AcDb2dVertex
 10
188.5009351667429
 20
-1.946149553577499
 30
0.0
  0
VERTEX
  5
285
330
1A8
100
AcDbEntity
  8
1_ANYTOOL_1MMDEEP_LABELS_S
100
AcDbVertex
100
AcDb2dVertex
 10
188.6254678118322
 20
-1.843286132818521
 30
0.0
  0
VERTEX
  5
286
330
1A8
100
AcDbEntity
  8
1_ANYTOOL_1MMDEEP_LABELS_S
100
AcDbVertex
100
AcDb2dVertex
 10
188.7516327113858
 20
-1.742787388398831
 30
0.0
  0
VERTEX
  5
287
330
1A8
100
AcDbEntity
  8
1_ANYTOOL_1MMDEEP_LABELS_S
100
AcDbVertex
100
AcDb2dVertex
 10
188.8794298654036
 20
-1.644653320318428
 30
0.0
  0
VERTEX
  5
288
330
1A8
100
AcDbEntity
  8
1_ANYTOOL_1MMDEEP_LABELS_S
100
AcDbVertex
100
AcDb2dVertex
 10
189.0088592738857
 20
-1.548883928577311
 30
0.0
  0
VERTEX
  5
289
330
1A8
100
AcDbEntity
  8
1_ANYTOOL_1MMDEEP_LABELS_S
100
AcDbVertex
100
AcDb2dVertex
 10
189.1399209368321
 20
-1.455479213175481
 30
0.0
  0
VERTEX
  5
28A
330
1A8
100
AcDbEntity
  8
1_ANYTOOL_1MMDEEP_LABELS_S
100
AcDbVertex
100
AcDb2dVertex
 10
189.2726148542428
 20
-1.364439174112938
 30
0.0
  0
VERTEX
  5
28B
330
1A8
100
AcDbEntity
  8
1_ANYTOOL_1MMDEEP_LABELS_S
100
AcDbVertex
100
AcDb2dVertex
 10
189.4069410261178
 20
-1.275763811389682
 30
0.0
  0
VERTEX
  5
28C
330
1A8
100
AcDbEntity
  8
1_ANYTOOL_1MMDEEP_LABELS_S
100
AcDbVertex
100
AcDb2dVertex
 10
189.542899452457
 20
-1.189453125005713
 30
0.0
  0
VERTEX
  5
28D
330
1A8
100
AcDbEntity
  8
1_ANYTOOL_1MMDEEP_LABELS_S
100
AcDbVertex
100
AcDb2dVertex
 10
189.6804901332606
 20
-1.10550711496103
 30
0.0
  0
VERTEX
  5
28E
330
1A8
100
AcDbEntity
  8
1_ANYTOOL_1MMDEEP_LABELS_S
100
AcDbVertex
100
AcDb2dVertex
 10
189.8197130685284
 20
-1.023925781255635
 30
0.0
  0
VERTEX
  5
28F
330
1A8
100
AcDbEntity
  8
1_ANYTOOL_1MMDEEP_LABELS_S
100
AcDbVertex
100
AcDb2dVertex
 10
189.9605682582605
 20
-0.9447091238895258
 30
0.0
  0
VERTEX
  5
290
330
1A8
100
AcDbEntity
  8
1_ANYTOOL_1MMDEEP_LABELS_S
100
AcDbVertex
100
AcDb2dVertex
 10
190.1030557024569
 20
-0.8678571428627038
 30
0.0
  0
VERTEX
  5
291
330
1A8
100
AcDbEntity
  8
1_ANYTOOL_1MMDEEP_LABELS_S
100
AcDbVertex
100
AcDb2dVertex
 10
190.2471754011176
 20
-0.7933698381751686
 30
0.0
  0
VERTEX
  5
292
330
1A8
100
AcDbEntity
  8
1_ANYTOOL_1MMDEEP_LABELS_S
100
AcDbVertex
100
AcDb2dVertex
 10
190.3929273542425
 20
-0.7212472098269203
 30
0.0
  0
VERTEX
  5
293
330
1A8
100
AcDbEntity
  8
1_ANYTOOL_1MMDEEP_LABELS_S
100
AcDbVertex
100
AcDb2dVertex
 10
190.6893280238853
 20
-0.5840959821482841
 30
0.0
  0
VERTEX
  5
294
330
1A8
100
AcDbEntity
  8
1_ANYTOOL_1MMDEEP_LABELS_S
100
AcDbVertex
100
AcDb2dVertex
 10
190.9922577113852
 20
-0.4564034598267952
 30
0.0
  0
VERTEX
  5
295
330
1A8
100
AcDbEntity
  8
1_ANYTOOL_1MMDEEP_LABELS_S
100
AcDbVertex
100
AcDb2dVertex
 10
191.3017164167422
 20
-0.3381696428624537
 30
0.0
  0
VERTEX
  5
296
330
1A8
100
AcDbEntity
  8
1_ANYTOOL_1MMDEEP_LABELS_S
100
AcDbVertex
100
AcDb2dVertex
 10
191.6177041399564
 20
-0.2293945312552594
 30
0.0
  0
VERTEX
  5
297
330
1A8
100
AcDbEntity
  8
1_ANYTOOL_1MMDEEP_LABELS_S
100
AcDbVertex
100
AcDb2dVertex
 10
191.9402208810277
 20
-0.1300781250052125
 30
0.0
  0
VERTEX
  5
298
330
1A8
100
AcDbEntity
  8
1_ANYTOOL_1MMDEEP_LABELS_S
100
AcDbVertex
100
AcDb2dVertex
 10
192.2692666399561
 20
-0.040220424112313
 30
0.0
  0
VERTEX
  5
299
330
1A8
100
AcDbEntity
  8
1_ANYTOOL_1MMDEEP_LABELS_S
100
AcDbVertex
100
AcDb2dVertex
 10
192.6048414167417
 20
0.0401785714234393
 30
0.0
  0
VERTEX
  5
29A
330
1A8
100
AcDbEntity
  8
1_ANYTOOL_1MMDEEP_LABELS_S
100
AcDbVertex
100
AcDb2dVertex
 10
192.9469452113844
 20
0.1111188616020442
 30
0.0
  0
VERTEX
  5
29B
330
1A8
100
AcDbEntity
  8
1_ANYTOOL_1MMDEEP_LABELS_S
100
AcDbVertex
100
AcDb2dVertex
 10
193.2955780238842
 20
0.1726004464235018
 30
0.0
  0
VERTEX
  5
29C
330
1A8
100
AcDbEntity
  8
1_ANYTOOL_1MMDEEP_LABELS_S
100
AcDbVertex
100
AcDb2dVertex
 10
193.6507398542412
 20
0.2246233258878121
 30
0.0
  0
VERTEX
  5
29D
330
1A8
100
AcDbEntity
  8
1_ANYTOOL_1MMDEEP_LABELS_S
100
AcDbVertex
100
AcDb2dVertex
 10
194.0124307024553
 20
0.267187499994975
 30
0.0
  0
VERTEX
  5
29E
330
1A8
100
AcDbEntity
  8
1_ANYTOOL_1MMDEEP_LABELS_S
100
AcDbVertex
100
AcDb2dVertex
 10
194.3806505685265
 20
0.3002929687449907
 30
0.0
  0
VERTEX
  5
29F
330
1A8
100
AcDbEntity
  8
1_ANYTOOL_1MMDEEP_LABELS_S
100
AcDbVertex
100
AcDb2dVertex
 10
194.7553994524549
 20
0.323939732137859
 30
0.0
  0
VERTEX
  5
2A0
330
1A8
100
AcDbEntity
  8
1_ANYTOOL_1MMDEEP_LABELS_S
100
AcDbVertex
100
AcDb2dVertex
 10
195.1366773542404
 20
0.33812779017358
 30
0.0
  0
SEQEND
  5
2A1
330
1A8
100
AcDbEntity
  8
1_ANYTOOL_1MMDEEP_LABELS_S
  0
LINE
  5
2A2
330
1F
100
AcDbEntity
  8
1_ANYTOOL_1MMDEEP_LABELS_S
100
AcDbLine
 10
179.4530557024555
 20
-16.11428571429133
 30
0.0
 11
170.6673414167453
 21
-16.20000000000437
 31
0.0
  0
POLYLINE
  5
2A3
330
1F
100
AcDbEntity
  8
1_ANYTOOL_1MMDEEP_LABELS_S
100
AcDb2dPolyline
 66
     1
 10
0.0
 20
0.0
 30
0.0
  0
VERTEX
  5
2A4
330
2A3
100
AcDbEntity
  8
1_ANYTOOL_1MMDEEP_LABELS_S
100
AcDbVertex
100
AcDb2dVertex
 10
135.0959128453178
 20
-0.000000000007276
 30
0.0
  0
VERTEX
  5
2A5
330
2A3
100
AcDbEntity
  8
1_ANYTOOL_1MMDEEP_LABELS_S
100
AcDbVertex
100
AcDb2dVertex
 10
142.8101985596004
 20
-30.00000000000728
 30
0.0
  0
VERTEX
  5
2A6
330
2A3
100
AcDbEntity
  8
1_ANYTOOL_1MMDEEP_LABELS_S
100
AcDbVertex
100
AcDb2dVertex
 10
151.2530557024584
 20
-0.9000000000087311
 30
0.0
  0
VERTEX
  5
2A7
330
2A3
100
AcDbEntity
  8
1_ANYTOOL_1MMDEEP_LABELS_S
100
AcDbVertex
100
AcDb2dVertex
 10
159.7387699881729
 20
-30.00000000000728
 30
0.0
  0
VERTEX
  5
2A8
330
2A3
100
AcDbEntity
  8
1_ANYTOOL_1MMDEEP_LABELS_S
100
AcDbVertex
100
AcDb2dVertex
 10
167.2387699881729
 20
-0.000000000007276
 30
0.0
  0
SEQEND
  5
2A9
330
2A3
100
AcDbEntity
  8
1_ANYTOOL_1MMDEEP_LABELS_S
  0
POLYLINE
  5
2AB
330
1F
100
AcDbEntity
  8
3_ANYTOOL_CUTTHROUGH_INSID
100
AcDb2dPolyline
 66
     1
 10
0.0
 20
0.0
 30
0.0
 70
     1
  0
VERTEX
  5
2AC
330
2AB
100
AcDbEntity
  8
3_ANYTOOL_CUTTHROUGH_INSID
100
AcDbVertex
100
AcDb2dVertex
 10
-18.25000000019645
 20
-39.13939215661958
 30
0.0
  0
VERTEX
  5
2AD
330
2AB
100
AcDbEntity
  8
3_ANYTOOL_CUTTHROUGH_INSID
100
AcDbVertex
100
AcDb2dVertex
 10
-18.25000000024011
 20
-46.72839215653221
 30
0.0
  0
VERTEX
  5
2AE
330
2AB
100
AcDbEntity
  8
3_ANYTOOL_CUTTHROUGH_INSID
100
AcDbVertex
100
AcDb2dVertex
 10
-24.25000000025466
 20
-46.72839215651038
 30
0.0
  0
VERTEX
  5
2AF
330
2AB
100
AcDbEntity
  8
3_ANYTOOL_CUTTHROUGH_INSID
100
AcDbVertex
100
AcDb2dVertex
 10
-24.25000000024011
 20
-59.22839215651038
 30
0.0
  0
VERTEX
  5
2B0
330
2AB
100
AcDbEntity
  8
3_ANYTOOL_CUTTHROUGH_INSID
100
AcDbVertex
100
AcDb2dVertex
 10
24.2499999998181
 20
-59.22839215655404
 30
0.0
  0
VERTEX
  5
2B1
330
2AB
100
AcDbEntity
  8
3_ANYTOOL_CUTTHROUGH_INSID
100
AcDbVertex
100
AcDb2dVertex
 10
24.2499999998472
 20
-46.72839215655404
 30
0.0
  0
VERTEX
  5
2B2
330
2AB
100
AcDbEntity
  8
3_ANYTOOL_CUTTHROUGH_INSID
100
AcDbVertex
100
AcDb2dVertex
 10
18.2499999998472
 20
-46.72839215654676
 30
0.0
  0
VERTEX
  5
2B3
330
2AB
100
AcDbEntity
  8
3_ANYTOOL_CUTTHROUGH_INSID
100
AcDbVertex
100
AcDb2dVertex
 10
18.24999999987631
 20
-39.13939215663413
 30
0.0
  0
VERTEX
  5
2B4
330
2AB
100
AcDbEntity
  8
3_ANYTOOL_CUTTHROUGH_INSID
100
AcDbVertex
100
AcDb2dVertex
 10
24.24999999987631
 20
-39.13939215663413
 30
0.0
  0
VERTEX
  5
2B5
330
2AB
100
AcDbEntity
  8
3_ANYTOOL_CUTTHROUGH_INSID
100
AcDbVertex
100
AcDb2dVertex
 10
24.24999999986176
 20
-26.63939215663413
 30
0.0
  0
VERTEX
  5
2B6
330
2AB
100
AcDbEntity
  8
3_ANYTOOL_CUTTHROUGH_INSID
100
AcDbVertex
100
AcDb2dVertex
 10
-24.25000000016735
 20
-26.63939215659775
 30
0.0
  0
VERTEX
  5
2B7
330
2AB
100
AcDbEntity
  8
3_ANYTOOL_CUTTHROUGH_INSID
100
AcDbVertex
100
AcDb2dVertex
 10
-24.25000000019645
 20
-39.13939215659775
 30
0.0
  0
SEQEND
  5
2B8
330
2AB
100
AcDbEntity
  8
3_ANYTOOL_CUTTHROUGH_INSID
  0
POLYLINE
  5
2B9
330
1F
100
AcDbEntity
  8
3_ANYTOOL_CUTTHROUGH_INSID
100
AcDb2dPolyline
 66
     1
 10
0.0
 20
0.0
 30
0.0
 70
     1
  0
VERTEX
  5
2BA
330
2B9
100
AcDbEntity
  8
3_ANYTOOL_CUTTHROUGH_INSID
100
AcDbVertex
100
AcDb2dVertex
 10
581.7500000001237
 20
-39.13939215701976
 30
0.0
  0
VERTEX
  5
2BB
330
2B9
100
AcDbEntity
  8
3_ANYTOOL_CUTTHROUGH_INSID
100
AcDbVertex
100
AcDb2dVertex
 10
581.75000000008
 20
-46.72839215693239
 30
0.0
  0
VERTEX
  5
2BC
330
2B9
100
AcDbEntity
  8
3_ANYTOOL_CUTTHROUGH_INSID
100
AcDbVertex
100
AcDb2dVertex
 10
575.75000000008
 20
-46.72839215693239
 30
0.0
  0
VERTEX
  5
2BD
330
2B9
100
AcDbEntity
  8
3_ANYTOOL_CUTTHROUGH_INSID
100
AcDbVertex
100
AcDb2dVertex
 10
575.75000000008
 20
-59.22839215693239
 30
0.0
  0
VERTEX
  5
2BE
330
2B9
100
AcDbEntity
  8
3_ANYTOOL_CUTTHROUGH_INSID
100
AcDbVertex
100
AcDb2dVertex
 10
624.2500000001382
 20
-59.22839215695421
 30
0.0
  0
VERTEX
  5
2BF
330
2B9
100
AcDbEntity
  8
3_ANYTOOL_CUTTHROUGH_INSID
100
AcDbVertex
100
AcDb2dVertex
 10
624.2500000001673
 20
-46.72839215695421
 30
0.0
  0
VERTEX
  5
2C0
330
2B9
100
AcDbEntity
  8
3_ANYTOOL_CUTTHROUGH_INSID
100
AcDbVertex
100
AcDb2dVertex
 10
618.2500000001673
 20
-46.72839215694694
 30
0.0
  0
VERTEX
  5
2C1
330
2B9
100
AcDbEntity
  8
3_ANYTOOL_CUTTHROUGH_INSID
100
AcDbVertex
100
AcDb2dVertex
 10
618.2500000001819
 20
-39.13939215703431
 30
0.0
  0
VERTEX
  5
2C2
330
2B9
100
AcDbEntity
  8
3_ANYTOOL_CUTTHROUGH_INSID
100
AcDbVertex
100
AcDb2dVertex
 10
624.2500000001819
 20
-39.13939215704158
 30
0.0
  0
VERTEX
  5
2C3
330
2B9
100
AcDbEntity
  8
3_ANYTOOL_CUTTHROUGH_INSID
100
AcDbVertex
100
AcDb2dVertex
 10
624.2500000001819
 20
-26.63939215704158
 30
0.0
  0
VERTEX
  5
2C4
330
2B9
100
AcDbEntity
  8
3_ANYTOOL_CUTTHROUGH_INSID
100
AcDbVertex
100
AcDb2dVertex
 10
575.7500000001382
 20
-26.63939215701976
 30
0.0
  0
VERTEX
  5
2C5
330
2B9
100
AcDbEntity
  8
3_ANYTOOL_CUTTHROUGH_INSID
100
AcDbVertex
100
AcDb2dVertex
 10
575.7500000001237
 20
-39.13939215701976
 30
0.0
  0
SEQEND
  5
2C6
330
2B9
100
AcDbEntity
  8
3_ANYTOOL_CUTTHROUGH_INSID
  0
POLYLINE
  5
2C7
330
1F
100
AcDbEntity
  8
3_ANYTOOL_CUTTHROUGH_INSID
100
AcDb2dPolyline
 66
     1
 10
0.0
 20
0.0
 30
0.0
 70
     1
  0
VERTEX
  5
2C8
330
2C7
100
AcDbEntity
  8
3_ANYTOOL_CUTTHROUGH_INSID
100
AcDbVertex
100
AcDb2dVertex
 10
-618.2500000005239
 20
-39.13939215619757
 30
0.0
  0
VERTEX
  5
2C9
330
2C7
100
AcDbEntity
  8
3_ANYTOOL_CUTTHROUGH_INSID
100
AcDbVertex
100
AcDb2dVertex
 10
-618.250000000553
 20
-46.7283921561102
 30
0.0
  0
VERTEX
  5
2CA
330
2C7
100
AcDbEntity
  8
3_ANYTOOL_CUTTHROUGH_INSID
100
AcDbVertex
100
AcDb2dVertex
 10
-624.2500000005602
 20
-46.7283921561102
 30
0.0
  0
VERTEX
  5
2CB
330
2C7
100
AcDbEntity
  8
3_ANYTOOL_CUTTHROUGH_INSID
100
AcDbVertex
100
AcDb2dVertex
 10
-624.2500000005602
 20
-59.2283921561102
 30
0.0
  0
VERTEX
  5
2CC
330
2C7
100
AcDbEntity
  8
3_ANYTOOL_CUTTHROUGH_INSID
100
AcDbVertex
100
AcDb2dVertex
 10
-575.7500000005093
 20
-59.22839215615386
 30
0.0
  0
VERTEX
  5
2CD
330
2C7
100
AcDbEntity
  8
3_ANYTOOL_CUTTHROUGH_INSID
100
AcDbVertex
100
AcDb2dVertex
 10
-575.7500000004802
 20
-46.72839215615386
 30
0.0
  0
VERTEX
  5
2CE
330
2C7
100
AcDbEntity
  8
3_ANYTOOL_CUTTHROUGH_INSID
100
AcDbVertex
100
AcDb2dVertex
 10
-581.7500000004802
 20
-46.72839215614658
 30
0.0
  0
VERTEX
  5
2CF
330
2C7
100
AcDbEntity
  8
3_ANYTOOL_CUTTHROUGH_INSID
100
AcDbVertex
100
AcDb2dVertex
 10
-581.7500000004293
 20
-39.13939215623395
 30
0.0
  0
VERTEX
  5
2D0
330
2C7
100
AcDbEntity
  8
3_ANYTOOL_CUTTHROUGH_INSID
100
AcDbVertex
100
AcDb2dVertex
 10
-575.7500000004293
 20
-39.13939215623395
 30
0.0
  0
VERTEX
  5
2D1
330
2C7
100
AcDbEntity
  8
3_ANYTOOL_CUTTHROUGH_INSID
100
AcDbVertex
100
AcDb2dVertex
 10
-575.7500000004438
 20
-26.63939215623395
 30
0.0
  0
VERTEX
  5
2D2
330
2C7
100
AcDbEntity
  8
3_ANYTOOL_CUTTHROUGH_INSID
100
AcDbVertex
100
AcDb2dVertex
 10
-624.2500000004948
 20
-26.63939215619757
 30
0.0
  0
VERTEX
  5
2D3
330
2C7
100
AcDbEntity
  8
3_ANYTOOL_CUTTHROUGH_INSID
100
AcDbVertex
100
AcDb2dVertex
 10
-624.2500000005239
 20
-39.13939215619757
 30
0.0
  0
SEQEND
  5
2D4
330
2C7
100
AcDbEntity
  8
3_ANYTOOL_CUTTHROUGH_INSID
  0
POLYLINE
  5
2D5
330
1F
100
AcDbEntity
  8
3_ANYTOOL_CUTTHROUGH_INSID
100
AcDb2dPolyline
 66
     1
 10
0.0
 20
0.0
 30
0.0
 70
     1
  0
VERTEX
  5
2D6
330
2D5
100
AcDbEntity
  8
3_ANYTOOL_CUTTHROUGH_INSID
100
AcDbVertex
100
AcDb2dVertex
 10
-618.2500000004584
 20
33.77160784364969
 30
0.0
  0
VERTEX
  5
2D7
330
2D5
100
AcDbEntity
  8
3_ANYTOOL_CUTTHROUGH_INSID
100
AcDbVertex
100
AcDb2dVertex
 10
-618.2500000004438
 20
23.27160784380976
 30
0.0
  0
VERTEX
  5
2D8
330
2D5
100
AcDbEntity
  8
3_ANYTOOL_CUTTHROUGH_INSID
100
AcDbVertex
100
AcDb2dVertex
 10
-624.2500000004438
 20
23.27160784381704
 30
0.0
  0
VERTEX
  5
2D9
330
2D5
100
AcDbEntity
  8
3_ANYTOOL_CUTTHROUGH_INSID
100
AcDbVertex
100
AcDb2dVertex
 10
-624.2500000004584
 20
10.77160784381704
 30
0.0
  0
VERTEX
  5
2DA
330
2D5
100
AcDbEntity
  8
3_ANYTOOL_CUTTHROUGH_INSID
100
AcDbVertex
100
AcDb2dVertex
 10
-575.7500000003783
 20
10.77160784377338
 30
0.0
  0
VERTEX
  5
2DB
330
2D5
100
AcDbEntity
  8
3_ANYTOOL_CUTTHROUGH_INSID
100
AcDbVertex
100
AcDb2dVertex
 10
-575.7500000003638
 20
23.27160784377338
 30
0.0
  0
VERTEX
  5
2DC
330
2D5
100
AcDbEntity
  8
3_ANYTOOL_CUTTHROUGH_INSID
100
AcDbVertex
100
AcDb2dVertex
 10
-581.7500000003638
 20
23.27160784377338
 30
0.0
  0
VERTEX
  5
2DD
330
2D5
100
AcDbEntity
  8
3_ANYTOOL_CUTTHROUGH_INSID
100
AcDbVertex
100
AcDb2dVertex
 10
-581.7500000003638
 20
33.77160784360603
 30
0.0
  0
VERTEX
  5
2DE
330
2D5
100
AcDbEntity
  8
3_ANYTOOL_CUTTHROUGH_INSID
100
AcDbVertex
100
AcDb2dVertex
 10
-575.7500000003638
 20
33.77160784360603
 30
0.0
  0
VERTEX
  5
2DF
330
2D5
100
AcDbEntity
  8
3_ANYTOOL_CUTTHROUGH_INSID
100
AcDbVertex
100
AcDb2dVertex
 10
-575.7500000003565
 20
46.27160784361331
 30
0.0
  0
VERTEX
  5
2E0
330
2D5
100
AcDbEntity
  8
3_ANYTOOL_CUTTHROUGH_INSID
100
AcDbVertex
100
AcDb2dVertex
 10
-624.2500000003929
 20
46.27160784365697
 30
0.0
  0
VERTEX
  5
2E1
330
2D5
100
AcDbEntity
  8
3_ANYTOOL_CUTTHROUGH_INSID
100
AcDbVertex
100
AcDb2dVertex
 10
-624.2500000004584
 20
33.77160784364969
 30
0.0
  0
SEQEND
  5
2E2
330
2D5
100
AcDbEntity
  8
3_ANYTOOL_CUTTHROUGH_INSID
  0
POLYLINE
  5
2E3
330
1F
100
AcDbEntity
  8
3_ANYTOOL_CUTTHROUGH_INSID
100
AcDb2dPolyline
 66
     1
 10
0.0
 20
0.0
 30
0.0
 70
     1
  0
VERTEX
  5
2E4
330
2E3
100
AcDbEntity
  8
3_ANYTOOL_CUTTHROUGH_INSID
100
AcDbVertex
100
AcDb2dVertex
 10
-18.25000000013824
 20
33.77160784330772
 30
0.0
  0
VERTEX
  5
2E5
330
2E3
100
AcDbEntity
  8
3_ANYTOOL_CUTTHROUGH_INSID
100
AcDbVertex
100
AcDb2dVertex
 10
-18.25000000012369
 20
23.27160784346779
 30
0.0
  0
VERTEX
  5
2E6
330
2E3
100
AcDbEntity
  8
3_ANYTOOL_CUTTHROUGH_INSID
100
AcDbVertex
100
AcDb2dVertex
 10
-24.25000000013824
 20
23.27160784348962
 30
0.0
  0
VERTEX
  5
2E7
330
2E3
100
AcDbEntity
  8
3_ANYTOOL_CUTTHROUGH_INSID
100
AcDbVertex
100
AcDb2dVertex
 10
-24.25000000013824
 20
10.77160784348962
 30
0.0
  0
VERTEX
  5
2E8
330
2E3
100
AcDbEntity
  8
3_ANYTOOL_CUTTHROUGH_INSID
100
AcDbVertex
100
AcDb2dVertex
 10
24.24999999991996
 20
10.77160784345324
 30
0.0
  0
VERTEX
  5
2E9
330
2E3
100
AcDbEntity
  8
3_ANYTOOL_CUTTHROUGH_INSID
100
AcDbVertex
100
AcDb2dVertex
 10
24.24999999994907
 20
23.27160784345324
 30
0.0
  0
VERTEX
  5
2EA
330
2E3
100
AcDbEntity
  8
3_ANYTOOL_CUTTHROUGH_INSID
100
AcDbVertex
100
AcDb2dVertex
 10
18.24999999994907
 20
23.27160784345324
 30
0.0
  0
VERTEX
  5
2EB
330
2E3
100
AcDbEntity
  8
3_ANYTOOL_CUTTHROUGH_INSID
100
AcDbVertex
100
AcDb2dVertex
 10
18.24999999996362
 20
33.77160784328589
 30
0.0
  0
VERTEX
  5
2EC
330
2E3
100
AcDbEntity
  8
3_ANYTOOL_CUTTHROUGH_INSID
100
AcDbVertex
100
AcDb2dVertex
 10
24.24999999996362
 20
33.77160784328589
 30
0.0
  0
VERTEX
  5
2ED
330
2E3
100
AcDbEntity
  8
3_ANYTOOL_CUTTHROUGH_INSID
100
AcDbVertex
100
AcDb2dVertex
 10
24.24999999997817
 20
46.27160784329317
 30
0.0
  0
VERTEX
  5
2EE
330
2E3
100
AcDbEntity
  8
3_ANYTOOL_CUTTHROUGH_INSID
100
AcDbVertex
100
AcDb2dVertex
 10
-24.25000000008004
 20
46.27160784332955
 30
0.0
  0
VERTEX
  5
2EF
330
2E3
100
AcDbEntity
  8
3_ANYTOOL_CUTTHROUGH_INSID
100
AcDbVertex
100
AcDb2dVertex
 10
-24.25000000013824
 20
33.77160784332955
 30
0.0
  0
SEQEND
  5
2F0
330
2E3
100
AcDbEntity
  8
3_ANYTOOL_CUTTHROUGH_INSID
  0
POLYLINE
  5
2F1
330
1F
100
AcDbEntity
  8
3_ANYTOOL_CUTTHROUGH_INSID
100
AcDb2dPolyline
 66
     1
 10
0.0
 20
0.0
 30
0.0
 70
     1
  0
VERTEX
  5
2F2
330
2F1
100
AcDbEntity
  8
3_ANYTOOL_CUTTHROUGH_INSID
100
AcDbVertex
100
AcDb2dVertex
 10
581.7500000001819
 20
33.77160784290027
 30
0.0
  0
VERTEX
  5
2F3
330
2F1
100
AcDbEntity
  8
3_ANYTOOL_CUTTHROUGH_INSID
100
AcDbVertex
100
AcDb2dVertex
 10
581.7500000001965
 20
23.27160784306761
 30
0.0
  0
VERTEX
  5
2F4
330
2F1
100
AcDbEntity
  8
3_ANYTOOL_CUTTHROUGH_INSID
100
AcDbVertex
100
AcDb2dVertex
 10
575.7500000001965
 20
23.27160784306761
 30
0.0
  0
VERTEX
  5
2F5
330
2F1
100
AcDbEntity
  8
3_ANYTOOL_CUTTHROUGH_INSID
100
AcDbVertex
100
AcDb2dVertex
 10
575.7500000001819
 20
10.77160784306761
 30
0.0
  0
VERTEX
  5
2F6
330
2F1
100
AcDbEntity
  8
3_ANYTOOL_CUTTHROUGH_INSID
100
AcDbVertex
100
AcDb2dVertex
 10
624.2500000002401
 20
10.77160784304579
 30
0.0
  0
VERTEX
  5
2F7
330
2F1
100
AcDbEntity
  8
3_ANYTOOL_CUTTHROUGH_INSID
100
AcDbVertex
100
AcDb2dVertex
 10
624.2500000002692
 20
23.27160784304579
 30
0.0
  0
VERTEX
  5
2F8
330
2F1
100
AcDbEntity
  8
3_ANYTOOL_CUTTHROUGH_INSID
100
AcDbVertex
100
AcDb2dVertex
 10
618.2500000002692
 20
23.27160784305306
 30
0.0
  0
VERTEX
  5
2F9
330
2F1
100
AcDbEntity
  8
3_ANYTOOL_CUTTHROUGH_INSID
100
AcDbVertex
100
AcDb2dVertex
 10
618.2500000002547
 20
33.77160784288571
 30
0.0
  0
VERTEX
  5
2FA
330
2F1
100
AcDbEntity
  8
3_ANYTOOL_CUTTHROUGH_INSID
100
AcDbVertex
100
AcDb2dVertex
 10
624.2500000002692
 20
33.77160784288571
 30
0.0
  0
VERTEX
  5
2FB
330
2F1
100
AcDbEntity
  8
3_ANYTOOL_CUTTHROUGH_INSID
100
AcDbVertex
100
AcDb2dVertex
 10
624.2500000002838
 20
46.27160784288571
 30
0.0
  0
VERTEX
  5
2FC
330
2F1
100
AcDbEntity
  8
3_ANYTOOL_CUTTHROUGH_INSID
100
AcDbVertex
100
AcDb2dVertex
 10
575.7500000002401
 20
46.27160784290754
 30
0.0
  0
VERTEX
  5
2FD
330
2F1
100
AcDbEntity
  8
3_ANYTOOL_CUTTHROUGH_INSID
100
AcDbVertex
100
AcDb2dVertex
 10
575.7500000001819
 20
33.77160784290754
 30
0.0
  0
SEQEND
  5
2FE
330
2F1
100
AcDbEntity
  8
3_ANYTOOL_CUTTHROUGH_INSID
  0
POLYLINE
  5
300
330
1F
100
AcDbEntity
  8
4_ANYTOOL_CUTTHROUGH_OUTSI
100
AcDb2dPolyline
 66
     1
 10
0.0
 20
0.0
 30
0.0
 70
     1
  0
VERTEX
  5
301
330
300
100
AcDbEntity
  8
4_ANYTOOL_CUTTHROUGH_OUTSI
100
AcDbVertex
100
AcDb2dVertex
 10
1147.654437247627
 20
74.77160784214357
 30
0.0
  0
VERTEX
  5
302
330
300
100
AcDbEntity
  8
4_ANYTOOL_CUTTHROUGH_OUTSI
100
AcDbVertex
100
AcDb2dVertex
 10
1163.750000000793
 20
74.77160784211446
 30
0.0
  0
VERTEX
  5
303
330
300
100
AcDbEntity
  8
4_ANYTOOL_CUTTHROUGH_OUTSI
100
AcDbVertex
100
AcDb2dVertex
 10
1163.750000000793
 20
58.2716078421945
 30
0.0
  0
VERTEX
  5
304
330
300
100
AcDbEntity
  8
4_ANYTOOL_CUTTHROUGH_OUTSI
100
AcDbVertex
100
AcDb2dVertex
 10
1158.000000000793
 20
58.27160784220177
 30
0.0
 42
0.414213562355858
  0
VERTEX
  5
305
330
300
100
AcDbEntity
  8
4_ANYTOOL_CUTTHROUGH_OUTSI
100
AcDbVertex
100
AcDb2dVertex
 10
1157.750000000793
 20
58.02160784220177
 30
0.0
  0
VERTEX
  5
306
330
300
100
AcDbEntity
  8
4_ANYTOOL_CUTTHROUGH_OUTSI
100
AcDbVertex
100
AcDb2dVertex
 10
1157.750000000779
 20
46.02160784220177
 30
0.0
 42
0.4142135623642166
  0
VERTEX
  5
307
330
300
100
AcDbEntity
  8
4_ANYTOOL_CUTTHROUGH_OUTSI
100
AcDbVertex
100
AcDb2dVertex
 10
1158.000000000779
 20
45.77160784220905
 30
0.0
  0
VERTEX
  5
308
330
300
100
AcDbEntity
  8
4_ANYTOOL_CUTTHROUGH_OUTSI
100
AcDbVertex
100
AcDb2dVertex
 10
1181.750000000793
 20
45.7716078421945
 30
0.0
  0
VERTEX
  5
309
330
300
100
AcDbEntity
  8
4_ANYTOOL_CUTTHROUGH_OUTSI
100
AcDbVertex
100
AcDb2dVertex
 10
1181.750000000866
 20
11.27160784226726
 30
0.0
  0
VERTEX
  5
30A
330
300
100
AcDbEntity
  8
4_ANYTOOL_CUTTHROUGH_OUTSI
100
AcDbVertex
100
AcDb2dVertex
 10
1158.000000000764
 20
11.27160784228181
 30
0.0
 42
0.4142135623731436
  0
VERTEX
  5
30B
330
300
100
AcDbEntity
  8
4_ANYTOOL_CUTTHROUGH_OUTSI
100
AcDbVertex
100
AcDb2dVertex
 10
1157.750000000764
 20
11.02160784228181
 30
0.0
  0
VERTEX
  5
30C
330
300
100
AcDbEntity
  8
4_ANYTOOL_CUTTHROUGH_OUTSI
100
AcDbVertex
100
AcDb2dVertex
 10
1157.750000000764
 20
-0.97839215771819
 30
0.0
 42
0.4142135623477792
  0
VERTEX
  5
30D
330
300
100
AcDbEntity
  8
4_ANYTOOL_CUTTHROUGH_OUTSI
100
AcDbVertex
100
AcDb2dVertex
 10
1158.000000000764
 20
-1.228392157710914
 30
0.0
  0
VERTEX
  5
30E
330
300
100
AcDbEntity
  8
4_ANYTOOL_CUTTHROUGH_OUTSI
100
AcDbVertex
100
AcDb2dVertex
 10
1163.750000000764
 20
-1.228392157725466
 30
0.0
  0
VERTEX
  5
30F
330
300
100
AcDbEntity
  8
4_ANYTOOL_CUTTHROUGH_OUTSI
100
AcDbVertex
100
AcDb2dVertex
 10
1163.750000000779
 20
-14.63939215766004
 30
0.0
  0
VERTEX
  5
310
330
300
100
AcDbEntity
  8
4_ANYTOOL_CUTTHROUGH_OUTSI
100
AcDbVertex
100
AcDb2dVertex
 10
1158.000000000764
 20
-14.63939215765276
 30
0.0
 42
0.4142135623731436
  0
VERTEX
  5
311
330
300
100
AcDbEntity
  8
4_ANYTOOL_CUTTHROUGH_OUTSI
100
AcDbVertex
100
AcDb2dVertex
 10
1157.750000000764
 20
-14.88939215765276
 30
0.0
  0
VERTEX
  5
312
330
300
100
AcDbEntity
  8
4_ANYTOOL_CUTTHROUGH_OUTSI
100
AcDbVertex
100
AcDb2dVertex
 10
1157.750000000779
 20
-26.88939215765276
 30
0.0
 42
0.4142135623562348
  0
VERTEX
  5
313
330
300
100
AcDbEntity
  8
4_ANYTOOL_CUTTHROUGH_OUTSI
100
AcDbVertex
100
AcDb2dVertex
 10
1158.000000000779
 20
-27.13939215765276
 30
0.0
  0
VERTEX
  5
314
330
300
100
AcDbEntity
  8
4_ANYTOOL_CUTTHROUGH_OUTSI
100
AcDbVertex
100
AcDb2dVertex
 10
1181.750000000837
 20
-27.13939215767459
 30
0.0
  0
VERTEX
  5
315
330
300
100
AcDbEntity
  8
4_ANYTOOL_CUTTHROUGH_OUTSI
100
AcDbVertex
100
AcDb2dVertex
 10
1181.750000000837
 20
-58.72839215757995
 30
0.0
  0
VERTEX
  5
316
330
300
100
AcDbEntity
  8
4_ANYTOOL_CUTTHROUGH_OUTSI
100
AcDbVertex
100
AcDb2dVertex
 10
1158.00000000075
 20
-58.72839215755812
 30
0.0
 42
0.4142135623388745
  0
VERTEX
  5
317
330
300
100
AcDbEntity
  8
4_ANYTOOL_CUTTHROUGH_OUTSI
100
AcDbVertex
100
AcDb2dVertex
 10
1157.750000000735
 20
-58.97839215755812
 30
0.0
  0
VERTEX
  5
318
330
300
100
AcDbEntity
  8
4_ANYTOOL_CUTTHROUGH_OUTSI
100
AcDbVertex
100
AcDb2dVertex
 10
1157.750000000764
 20
-70.97839215755812
 30
0.0
 42
0.4142135623388564
  0
VERTEX
  5
319
330
300
100
AcDbEntity
  8
4_ANYTOOL_CUTTHROUGH_OUTSI
100
AcDbVertex
100
AcDb2dVertex
 10
1158.000000000764
 20
-71.22839215755812
 30
0.0
  0
VERTEX
  5
31A
330
300
100
AcDbEntity
  8
4_ANYTOOL_CUTTHROUGH_OUTSI
100
AcDbVertex
100
AcDb2dVertex
 10
1163.750000000764
 20
-71.2283921575654
 30
0.0
  0
VERTEX
  5
31B
330
300
100
AcDbEntity
  8
4_ANYTOOL_CUTTHROUGH_OUTSI
100
AcDbVertex
100
AcDb2dVertex
 10
1163.750000000735
 20
-74.72839215628483
 30
0.0
  0
VERTEX
  5
31C
330
300
100
AcDbEntity
  8
4_ANYTOOL_CUTTHROUGH_OUTSI
100
AcDbVertex
100
AcDb2dVertex
 10
1147.654437252517
 20
-74.72839215631393
 30
0.0
  0
VERTEX
  5
31D
330
300
100
AcDbEntity
  8
4_ANYTOOL_CUTTHROUGH_OUTSI
100
AcDbVertex
100
AcDb2dVertex
 10
1147.654437252517
 20
-68.97839215631393
 30
0.0
 42
0.4142135623983109
  0
VERTEX
  5
31E
330
300
100
AcDbEntity
  8
4_ANYTOOL_CUTTHROUGH_OUTSI
100
AcDbVertex
100
AcDb2dVertex
 10
1147.404437252517
 20
-68.72839215630665
 30
0.0
  0
VERTEX
  5
31F
330
300
100
AcDbEntity
  8
4_ANYTOOL_CUTTHROUGH_OUTSI
100
AcDbVertex
100
AcDb2dVertex
 10
1135.404437252517
 20
-68.72839215631393
 30
0.0
 42
0.4142135623899714
  0
VERTEX
  5
320
330
300
100
AcDbEntity
  8
4_ANYTOOL_CUTTHROUGH_OUTSI
100
AcDbVertex
100
AcDb2dVertex
 10
1135.154437252517
 20
-68.97839215631393
 30
0.0
  0
VERTEX
  5
321
330
300
100
AcDbEntity
  8
4_ANYTOOL_CUTTHROUGH_OUTSI
100
AcDbVertex
100
AcDb2dVertex
 10
1135.154437252517
 20
-92.72839215725253
 30
0.0
  0
VERTEX
  5
322
330
300
100
AcDbEntity
  8
4_ANYTOOL_CUTTHROUGH_OUTSI
100
AcDbVertex
100
AcDb2dVertex
 10
664.8455627459407
 20
-92.72839215727436
 30
0.0
  0
VERTEX
  5
323
330
300
100
AcDbEntity
  8
4_ANYTOOL_CUTTHROUGH_OUTSI
100
AcDbVertex
100
AcDb2dVertex
 10
664.8455627459407
 20
-68.97839215674321
 30
0.0
 42
0.4142135623902378
  0
VERTEX
  5
324
330
300
100
AcDbEntity
  8
4_ANYTOOL_CUTTHROUGH_OUTSI
100
AcDbVertex
100
AcDb2dVertex
 10
664.5955627459407
 20
-68.72839215674321
 30
0.0
  0
VERTEX
  5
325
330
300
100
AcDbEntity
  8
4_ANYTOOL_CUTTHROUGH_OUTSI
100
AcDbVertex
100
AcDb2dVertex
 10
652.5955627459407
 20
-68.72839215674321
 30
0.0
 42
0.4142135623731421
  0
VERTEX
  5
326
330
300
100
AcDbEntity
  8
4_ANYTOOL_CUTTHROUGH_OUTSI
100
AcDbVertex
100
AcDb2dVertex
 10
652.3455627459407
 20
-68.97839215674321
 30
0.0
  0
VERTEX
  5
327
330
300
100
AcDbEntity
  8
4_ANYTOOL_CUTTHROUGH_OUTSI
100
AcDbVertex
100
AcDb2dVertex
 10
652.3455627459407
 20
-74.72839215674321
 30
0.0
  0
VERTEX
  5
328
330
300
100
AcDbEntity
  8
4_ANYTOOL_CUTTHROUGH_OUTSI
100
AcDbVertex
100
AcDb2dVertex
 10
642.9044372489807
 20
-74.72839215671411
 30
0.0
  0
VERTEX
  5
329
330
300
100
AcDbEntity
  8
4_ANYTOOL_CUTTHROUGH_OUTSI
100
AcDbVertex
100
AcDb2dVertex
 10
642.9044372489807
 20
-68.97839215671411
 30
0.0
 42
0.4142135623987818
  0
VERTEX
  5
32A
330
300
100
AcDbEntity
  8
4_ANYTOOL_CUTTHROUGH_OUTSI
100
AcDbVertex
100
AcDb2dVertex
 10
642.6544372489807
 20
-68.72839215670683
 30
0.0
  0
VERTEX
  5
32B
330
300
100
AcDbEntity
  8
4_ANYTOOL_CUTTHROUGH_OUTSI
100
AcDbVertex
100
AcDb2dVertex
 10
630.6544372489807
 20
-68.72839215671411
 30
0.0
 42
0.4142135623305468
  0
VERTEX
  5
32C
330
300
100
AcDbEntity
  8
4_ANYTOOL_CUTTHROUGH_OUTSI
100
AcDbVertex
100
AcDb2dVertex
 10
630.404437248988
 20
-68.97839215671411
 30
0.0
  0
VERTEX
  5
32D
330
300
100
AcDbEntity
  8
4_ANYTOOL_CUTTHROUGH_OUTSI
100
AcDbVertex
100
AcDb2dVertex
 10
630.4044372489807
 20
-92.72839215724525
 30
0.0
  0
VERTEX
  5
32E
330
300
100
AcDbEntity
  8
4_ANYTOOL_CUTTHROUGH_OUTSI
100
AcDbVertex
100
AcDb2dVertex
 10
569.5955627445874
 20
-92.72839215772547
 30
0.0
  0
VERTEX
  5
32F
330
300
100
AcDbEntity
  8
4_ANYTOOL_CUTTHROUGH_OUTSI
100
AcDbVertex
100
AcDb2dVertex
 10
569.5955627445874
 20
-68.97839215772547
 30
0.0
 42
0.4142135624411483
  0
VERTEX
  5
330
330
300
100
AcDbEntity
  8
4_ANYTOOL_CUTTHROUGH_OUTSI
100
AcDbVertex
100
AcDb2dVertex
 10
569.3455627445874
 20
-68.72839215772547
 30
0.0
  0
VERTEX
  5
331
330
300
100
AcDbEntity
  8
4_ANYTOOL_CUTTHROUGH_OUTSI
100
AcDbVertex
100
AcDb2dVertex
 10
557.3455627445874
 20
-68.72839215772547
 30
0.0
 42
0.4142135624157373
  0
VERTEX
  5
332
330
300
100
AcDbEntity
  8
4_ANYTOOL_CUTTHROUGH_OUTSI
100
AcDbVertex
100
AcDb2dVertex
 10
557.0955627445801
 20
-68.97839215772547
 30
0.0
  0
VERTEX
  5
333
330
300
100
AcDbEntity
  8
4_ANYTOOL_CUTTHROUGH_OUTSI
100
AcDbVertex
100
AcDb2dVertex
 10
557.0955627445874
 20
-74.72839215772547
 30
0.0
  0
VERTEX
  5
334
330
300
100
AcDbEntity
  8
4_ANYTOOL_CUTTHROUGH_OUTSI
100
AcDbVertex
100
AcDb2dVertex
 10
547.6544372476274
 20
-74.72839215769636
 30
0.0
  0
VERTEX
  5
335
330
300
100
AcDbEntity
  8
4_ANYTOOL_CUTTHROUGH_OUTSI
100
AcDbVertex
100
AcDb2dVertex
 10
547.6544372476274
 20
-68.97839215769636
 30
0.0
 42
0.4142135623561406
  0
VERTEX
  5
336
330
300
100
AcDbEntity
  8
4_ANYTOOL_CUTTHROUGH_OUTSI
100
AcDbVertex
100
AcDb2dVertex
 10
547.4044372476274
 20
-68.72839215769636
 30
0.0
  0
VERTEX
  5
337
330
300
100
AcDbEntity
  8
4_ANYTOOL_CUTTHROUGH_OUTSI
100
AcDbVertex
100
AcDb2dVertex
 10
535.4044372476274
 20
-68.72839215769636
 30
0.0
 42
0.4142135623987024
  0
VERTEX
  5
338
330
300
100
AcDbEntity
  8
4_ANYTOOL_CUTTHROUGH_OUTSI
100
AcDbVertex
100
AcDb2dVertex
 10
535.1544372476346
 20
-68.97839215769636
 30
0.0
  0
VERTEX
  5
339
330
300
100
AcDbEntity
  8
4_ANYTOOL_CUTTHROUGH_OUTSI
100
AcDbVertex
100
AcDb2dVertex
 10
535.1544372476274
 20
-92.72839215770364
 30
0.0
  0
VERTEX
  5
33A
330
300
100
AcDbEntity
  8
4_ANYTOOL_CUTTHROUGH_OUTSI
100
AcDbVertex
100
AcDb2dVertex
 10
64.8455627459407
 20
-92.72839215731074
 30
0.0
  0
VERTEX
  5
33B
330
300
100
AcDbEntity
  8
4_ANYTOOL_CUTTHROUGH_OUTSI
100
AcDbVertex
100
AcDb2dVertex
 10
64.8455627459407
 20
-68.97839215731074
 30
0.0
 42
0.414213562398674
  0
VERTEX
  5
33C
330
300
100
AcDbEntity
  8
4_ANYTOOL_CUTTHROUGH_OUTSI
100
AcDbVertex
100
AcDb2dVertex
 10
64.5955627459407
 20
-68.72839215731801
 30
0.0
  0
VERTEX
  5
33D
330
300
100
AcDbEntity
  8
4_ANYTOOL_CUTTHROUGH_OUTSI
100
AcDbVertex
100
AcDb2dVertex
 10
52.5955627459407
 20
-68.72839215731074
 30
0.0
 42
0.414213562373095
  0
VERTEX
  5
33E
330
300
100
AcDbEntity
  8
4_ANYTOOL_CUTTHROUGH_OUTSI
100
AcDbVertex
100
AcDb2dVertex
 10
52.3455627459407
 20
-68.97839215731074
 30
0.0
  0
VERTEX
  5
33F
330
300
100
AcDbEntity
  8
4_ANYTOOL_CUTTHROUGH_OUTSI
100
AcDbVertex
100
AcDb2dVertex
 10
52.3455627459407
 20
-74.72839215731074
 30
0.0
  0
VERTEX
  5
340
330
300
100
AcDbEntity
  8
4_ANYTOOL_CUTTHROUGH_OUTSI
100
AcDbVertex
100
AcDb2dVertex
 10
42.90443724898068
 20
-74.72839215728163
 30
0.0
  0
VERTEX
  5
341
330
300
100
AcDbEntity
  8
4_ANYTOOL_CUTTHROUGH_OUTSI
100
AcDbVertex
100
AcDb2dVertex
 10
42.90443724898068
 20
-68.97839215728163
 30
0.0
 42
0.4142135624071923
  0
VERTEX
  5
342
330
300
100
AcDbEntity
  8
4_ANYTOOL_CUTTHROUGH_OUTSI
100
AcDbVertex
100
AcDb2dVertex
 10
42.65443724898068
 20
-68.72839215728163
 30
0.0
  0
VERTEX
  5
343
330
300
100
AcDbEntity
  8
4_ANYTOOL_CUTTHROUGH_OUTSI
100
AcDbVertex
100
AcDb2dVertex
 10
30.65443724898068
 20
-68.72839215728163
 30
0.0
 42
0.4142135623901366
  0
VERTEX
  5
344
330
300
100
AcDbEntity
  8
4_ANYTOOL_CUTTHROUGH_OUTSI
100
AcDbVertex
100
AcDb2dVertex
 10
30.40443724898068
 20
-68.97839215728163
 30
0.0
  0
VERTEX
  5
345
330
300
100
AcDbEntity
  8
4_ANYTOOL_CUTTHROUGH_OUTSI
100
AcDbVertex
100
AcDb2dVertex
 10
30.40443724898068
 20
-92.72839215728163
 30
0.0
  0
VERTEX
  5
346
330
300
100
AcDbEntity
  8
4_ANYTOOL_CUTTHROUGH_OUTSI
100
AcDbVertex
100
AcDb2dVertex
 10
-30.40443725397199
 20
-92.7283921572307
 30
0.0
  0
VERTEX
  5
347
330
300
100
AcDbEntity
  8
4_ANYTOOL_CUTTHROUGH_OUTSI
100
AcDbVertex
100
AcDb2dVertex
 10
-30.40443725397199
 20
-68.9783921572307
 30
0.0
 42
0.4142135624071953
  0
VERTEX
  5
348
330
300
100
AcDbEntity
  8
4_ANYTOOL_CUTTHROUGH_OUTSI
100
AcDbVertex
100
AcDb2dVertex
 10
-30.65443725397199
 20
-68.7283921572307
 30
0.0
  0
VERTEX
  5
349
330
300
100
AcDbEntity
  8
4_ANYTOOL_CUTTHROUGH_OUTSI
100
AcDbVertex
100
AcDb2dVertex
 10
-42.65443725397199
 20
-68.7283921572307
 30
0.0
 42
0.4142135624157057
  0
VERTEX
  5
34A
330
300
100
AcDbEntity
  8
4_ANYTOOL_CUTTHROUGH_OUTSI
100
AcDbVertex
100
AcDb2dVertex
 10
-42.90443725397927
 20
-68.9783921572307
 30
0.0
  0
VERTEX
  5
34B
330
300
100
AcDbEntity
  8
4_ANYTOOL_CUTTHROUGH_OUTSI
100
AcDbVertex
100
AcDb2dVertex
 10
-42.90443725397199
 20
-74.7283921572307
 30
0.0
  0
VERTEX
  5
34C
330
300
100
AcDbEntity
  8
4_ANYTOOL_CUTTHROUGH_OUTSI
100
AcDbVertex
100
AcDb2dVertex
 10
-52.345562750932
 20
-74.7283921572016
 30
0.0
  0
VERTEX
  5
34D
330
300
100
AcDbEntity
  8
4_ANYTOOL_CUTTHROUGH_OUTSI
100
AcDbVertex
100
AcDb2dVertex
 10
-52.345562750932
 20
-68.9783921572016
 30
0.0
 42
0.4142135624242411
  0
VERTEX
  5
34E
330
300
100
AcDbEntity
  8
4_ANYTOOL_CUTTHROUGH_OUTSI
100
AcDbVertex
100
AcDb2dVertex
 10
-52.595562750932
 20
-68.7283921572016
 30
0.0
  0
VERTEX
  5
34F
330
300
100
AcDbEntity
  8
4_ANYTOOL_CUTTHROUGH_OUTSI
100
AcDbVertex
100
AcDb2dVertex
 10
-64.595562750932
 20
-68.7283921572016
 30
0.0
 42
0.4142135623560464
  0
VERTEX
  5
350
330
300
100
AcDbEntity
  8
4_ANYTOOL_CUTTHROUGH_OUTSI
100
AcDbVertex
100
AcDb2dVertex
 10
-64.845562750932
 20
-68.9783921572016
 30
0.0
  0
VERTEX
  5
351
330
300
100
AcDbEntity
  8
4_ANYTOOL_CUTTHROUGH_OUTSI
100
AcDbVertex
100
AcDb2dVertex
 10
-64.845562750932
 20
-92.7283921572016
 30
0.0
  0
VERTEX
  5
352
330
300
100
AcDbEntity
  8
4_ANYTOOL_CUTTHROUGH_OUTSI
100
AcDbVertex
100
AcDb2dVertex
 10
-535.1544372526114
 20
-92.72839215681597
 30
0.0
  0
VERTEX
  5
353
330
300
100
AcDbEntity
  8
4_ANYTOOL_CUTTHROUGH_OUTSI
100
AcDbVertex
100
AcDb2dVertex
 10
-535.1544372526114
 20
-68.97839215681597
 30
0.0
 42
0.414213562373048
  0
VERTEX
  5
354
330
300
100
AcDbEntity
  8
4_ANYTOOL_CUTTHROUGH_OUTSI
100
AcDbVertex
100
AcDb2dVertex
 10
-535.4044372526114
 20
-68.72839215681597
 30
0.0
  0
VERTEX
  5
355
330
300
100
AcDbEntity
  8
4_ANYTOOL_CUTTHROUGH_OUTSI
100
AcDbVertex
100
AcDb2dVertex
 10
-547.4044372526114
 20
-68.72839215681597
 30
0.0
 42
0.4142135623816239
  0
VERTEX
  5
356
330
300
100
AcDbEntity
  8
4_ANYTOOL_CUTTHROUGH_OUTSI
100
AcDbVertex
100
AcDb2dVertex
 10
-547.6544372526187
 20
-68.97839215681597
 30
0.0
  0
VERTEX
  5
357
330
300
100
AcDbEntity
  8
4_ANYTOOL_CUTTHROUGH_OUTSI
100
AcDbVertex
100
AcDb2dVertex
 10
-547.6544372526114
 20
-74.72839215681597
 30
0.0
  0
VERTEX
  5
358
330
300
100
AcDbEntity
  8
4_ANYTOOL_CUTTHROUGH_OUTSI
100
AcDbVertex
100
AcDb2dVertex
 10
-557.0955627495714
 20
-74.72839215678687
 30
0.0
  0
VERTEX
  5
359
330
300
100
AcDbEntity
  8
4_ANYTOOL_CUTTHROUGH_OUTSI
100
AcDbVertex
100
AcDb2dVertex
 10
-557.0955627495714
 20
-68.97839215678687
 30
0.0
 42
0.4142135624073335
  0
VERTEX
  5
35A
330
300
100
AcDbEntity
  8
4_ANYTOOL_CUTTHROUGH_OUTSI
100
AcDbVertex
100
AcDb2dVertex
 10
-557.3455627495714
 20
-68.72839215678687
 30
0.0
  0
VERTEX
  5
35B
330
300
100
AcDbEntity
  8
4_ANYTOOL_CUTTHROUGH_OUTSI
100
AcDbVertex
100
AcDb2dVertex
 10
-569.3455627495714
 20
-68.72839215678687
 30
0.0
 42
0.4142135624157356
  0
VERTEX
  5
35C
330
300
100
AcDbEntity
  8
4_ANYTOOL_CUTTHROUGH_OUTSI
100
AcDbVertex
100
AcDb2dVertex
 10
-569.5955627495641
 20
-68.97839215678687
 30
0.0
  0
VERTEX
  5
35D
330
300
100
AcDbEntity
  8
4_ANYTOOL_CUTTHROUGH_OUTSI
100
AcDbVertex
100
AcDb2dVertex
 10
-569.5955627495714
 20
-92.72839215678687
 30
0.0
  0
VERTEX
  5
35E
330
300
100
AcDbEntity
  8
4_ANYTOOL_CUTTHROUGH_OUTSI
100
AcDbVertex
100
AcDb2dVertex
 10
-630.404437253972
 20
-92.72839215673594
 30
0.0
  0
VERTEX
  5
35F
330
300
100
AcDbEntity
  8
4_ANYTOOL_CUTTHROUGH_OUTSI
100
AcDbVertex
100
AcDb2dVertex
 10
-630.404437253972
 20
-68.97839215673594
 30
0.0
 42
0.4142135624156989
  0
VERTEX
  5
360
330
300
100
AcDbEntity
  8
4_ANYTOOL_CUTTHROUGH_OUTSI
100
AcDbVertex
100
AcDb2dVertex
 10
-630.654437253972
 20
-68.72839215672866
 30
0.0
  0
VERTEX
  5
361
330
300
100
AcDbEntity
  8
4_ANYTOOL_CUTTHROUGH_OUTSI
100
AcDbVertex
100
AcDb2dVertex
 10
-642.654437253972
 20
-68.72839215673594
 30
0.0
 42
0.4142135624157356
  0
VERTEX
  5
362
330
300
100
AcDbEntity
  8
4_ANYTOOL_CUTTHROUGH_OUTSI
100
AcDbVertex
100
AcDb2dVertex
 10
-642.9044372539647
 20
-68.97839215673594
 30
0.0
  0
VERTEX
  5
363
330
300
100
AcDbEntity
  8
4_ANYTOOL_CUTTHROUGH_OUTSI
100
AcDbVertex
100
AcDb2dVertex
 10
-642.904437253972
 20
-74.72839215673594
 30
0.0
  0
VERTEX
  5
364
330
300
100
AcDbEntity
  8
4_ANYTOOL_CUTTHROUGH_OUTSI
100
AcDbVertex
100
AcDb2dVertex
 10
-652.345562750932
 20
-74.72839215670683
 30
0.0
  0
VERTEX
  5
365
330
300
100
AcDbEntity
  8
4_ANYTOOL_CUTTHROUGH_OUTSI
100
AcDbVertex
100
AcDb2dVertex
 10
-652.345562750932
 20
-68.97839215670683
 30
0.0
 42
0.4142135623902378
  0
VERTEX
  5
366
330
300
100
AcDbEntity
  8
4_ANYTOOL_CUTTHROUGH_OUTSI
100
AcDbVertex
100
AcDb2dVertex
 10
-652.595562750932
 20
-68.72839215670683
 30
0.0
  0
VERTEX
  5
367
330
300
100
AcDbEntity
  8
4_ANYTOOL_CUTTHROUGH_OUTSI
100
AcDbVertex
100
AcDb2dVertex
 10
-664.595562750932
 20
-68.72839215670683
 30
0.0
 42
0.4142135623731421
  0
VERTEX
  5
368
330
300
100
AcDbEntity
  8
4_ANYTOOL_CUTTHROUGH_OUTSI
100
AcDbVertex
100
AcDb2dVertex
 10
-664.845562750932
 20
-68.97839215670683
 30
0.0
  0
VERTEX
  5
369
330
300
100
AcDbEntity
  8
4_ANYTOOL_CUTTHROUGH_OUTSI
100
AcDbVertex
100
AcDb2dVertex
 10
-664.845562750932
 20
-92.72839215670683
 30
0.0
  0
VERTEX
  5
36A
330
300
100
AcDbEntity
  8
4_ANYTOOL_CUTTHROUGH_OUTSI
100
AcDbVertex
100
AcDb2dVertex
 10
-1135.154437252619
 20
-92.72839215631393
 30
0.0
  0
VERTEX
  5
36B
330
300
100
AcDbEntity
  8
4_ANYTOOL_CUTTHROUGH_OUTSI
100
AcDbVertex
100
AcDb2dVertex
 10
-1135.154437252619
 20
-68.97839215631393
 30
0.0
 42
0.4142135623983109
  0
VERTEX
  5
36C
330
300
100
AcDbEntity
  8
4_ANYTOOL_CUTTHROUGH_OUTSI
100
AcDbVertex
100
AcDb2dVertex
 10
-1135.404437252619
 20
-68.72839215630665
 30
0.0
  0
VERTEX
  5
36D
330
300
100
AcDbEntity
  8
4_ANYTOOL_CUTTHROUGH_OUTSI
100
AcDbVertex
100
AcDb2dVertex
 10
-1147.404437252619
 20
-68.72839215631393
 30
0.0
 42
0.4142135623731421
  0
VERTEX
  5
36E
330
300
100
AcDbEntity
  8
4_ANYTOOL_CUTTHROUGH_OUTSI
100
AcDbVertex
100
AcDb2dVertex
 10
-1147.654437252619
 20
-68.97839215631393
 30
0.0
  0
VERTEX
  5
36F
330
300
100
AcDbEntity
  8
4_ANYTOOL_CUTTHROUGH_OUTSI
100
AcDbVertex
100
AcDb2dVertex
 10
-1147.654437252619
 20
-74.72839215631393
 30
0.0
  0
VERTEX
  5
370
330
300
100
AcDbEntity
  8
4_ANYTOOL_CUTTHROUGH_OUTSI
100
AcDbVertex
100
AcDb2dVertex
 10
-1163.750000000808
 20
-74.7283921562921
 30
0.0
  0
VERTEX
  5
371
330
300
100
AcDbEntity
  8
4_ANYTOOL_CUTTHROUGH_OUTSI
100
AcDbVertex
100
AcDb2dVertex
 10
-1163.7500000008
 20
-71.22839215583372
 30
0.0
  0
VERTEX
  5
372
330
300
100
AcDbEntity
  8
4_ANYTOOL_CUTTHROUGH_OUTSI
100
AcDbVertex
100
AcDb2dVertex
 10
-1158.0000000008
 20
-71.22839215583372
 30
0.0
 42
0.4142135623816952
  0
VERTEX
  5
373
330
300
100
AcDbEntity
  8
4_ANYTOOL_CUTTHROUGH_OUTSI
100
AcDbVertex
100
AcDb2dVertex
 10
-1157.750000000793
 20
-70.97839215583372
 30
0.0
  0
VERTEX
  5
374
330
300
100
AcDbEntity
  8
4_ANYTOOL_CUTTHROUGH_OUTSI
100
AcDbVertex
100
AcDb2dVertex
 10
-1157.7500000008
 20
-58.97839215583372
 30
0.0
 42
0.4142135623900495
  0
VERTEX
  5
375
330
300
100
AcDbEntity
  8
4_ANYTOOL_CUTTHROUGH_OUTSI
100
AcDbVertex
100
AcDb2dVertex
 10
-1158.0000000008
 20
-58.72839215583372
 30
0.0
  0
VERTEX
  5
376
330
300
100
AcDbEntity
  8
4_ANYTOOL_CUTTHROUGH_OUTSI
100
AcDbVertex
100
AcDb2dVertex
 10
-1181.750000000873
 20
-58.72839215581917
 30
0.0
  0
VERTEX
  5
377
330
300
100
AcDbEntity
  8
4_ANYTOOL_CUTTHROUGH_OUTSI
100
AcDbVertex
100
AcDb2dVertex
 10
-1181.750000000859
 20
-27.13939215591381
 30
0.0
  0
VERTEX
  5
378
330
300
100
AcDbEntity
  8
4_ANYTOOL_CUTTHROUGH_OUTSI
100
AcDbVertex
100
AcDb2dVertex
 10
-1158.000000000793
 20
-27.13939215592836
 30
0.0
 42
0.4142135623645772
  0
VERTEX
  5
379
330
300
100
AcDbEntity
  8
4_ANYTOOL_CUTTHROUGH_OUTSI
100
AcDbVertex
100
AcDb2dVertex
 10
-1157.7500000008
 20
-26.88939215592836
 30
0.0
  0
VERTEX
  5
37A
330
300
100
AcDbEntity
  8
4_ANYTOOL_CUTTHROUGH_OUTSI
100
AcDbVertex
100
AcDb2dVertex
 10
-1157.750000000793
 20
-14.88939215592836
 30
0.0
 42
0.4142135623983121
  0
VERTEX
  5
37B
330
300
100
AcDbEntity
  8
4_ANYTOOL_CUTTHROUGH_OUTSI
100
AcDbVertex
100
AcDb2dVertex
 10
-1158.000000000793
 20
-14.63939215592109
 30
0.0
  0
VERTEX
  5
37C
330
300
100
AcDbEntity
  8
4_ANYTOOL_CUTTHROUGH_OUTSI
100
AcDbVertex
100
AcDb2dVertex
 10
-1163.750000000793
 20
-14.63939215592836
 30
0.0
  0
VERTEX
  5
37D
330
300
100
AcDbEntity
  8
4_ANYTOOL_CUTTHROUGH_OUTSI
100
AcDbVertex
100
AcDb2dVertex
 10
-1163.750000000793
 20
-1.228392155986512
 30
0.0
  0
VERTEX
  5
37E
330
300
100
AcDbEntity
  8
4_ANYTOOL_CUTTHROUGH_OUTSI
100
AcDbVertex
100
AcDb2dVertex
 10
-1158.000000000793
 20
-1.228392155993788
 30
0.0
 42
0.4142135623645802
  0
VERTEX
  5
37F
330
300
100
AcDbEntity
  8
4_ANYTOOL_CUTTHROUGH_OUTSI
100
AcDbVertex
100
AcDb2dVertex
 10
-1157.7500000008
 20
-0.978392155993788
 30
0.0
  0
VERTEX
  5
380
330
300
100
AcDbEntity
  8
4_ANYTOOL_CUTTHROUGH_OUTSI
100
AcDbVertex
100
AcDb2dVertex
 10
-1157.750000000786
 20
11.02160784400621
 30
0.0
 42
0.414213562321855
  0
VERTEX
  5
381
330
300
100
AcDbEntity
  8
4_ANYTOOL_CUTTHROUGH_OUTSI
100
AcDbVertex
100
AcDb2dVertex
 10
-1158.000000000786
 20
11.27160784400621
 30
0.0
  0
VERTEX
  5
382
330
300
100
AcDbEntity
  8
4_ANYTOOL_CUTTHROUGH_OUTSI
100
AcDbVertex
100
AcDb2dVertex
 10
-1181.750000000851
 20
11.27160784402804
 30
0.0
  0
VERTEX
  5
383
330
300
100
AcDbEntity
  8
4_ANYTOOL_CUTTHROUGH_OUTSI
100
AcDbVertex
100
AcDb2dVertex
 10
-1181.750000000786
 20
45.771607843948
 30
0.0
  0
VERTEX
  5
384
330
300
100
AcDbEntity
  8
4_ANYTOOL_CUTTHROUGH_OUTSI
100
AcDbVertex
100
AcDb2dVertex
 10
-1158.000000000771
 20
45.77160784393345
 30
0.0
 42
0.4142135623986924
  0
VERTEX
  5
385
330
300
100
AcDbEntity
  8
4_ANYTOOL_CUTTHROUGH_OUTSI
100
AcDbVertex
100
AcDb2dVertex
 10
-1157.750000000764
 20
46.02160784393345
 30
0.0
  0
VERTEX
  5
386
330
300
100
AcDbEntity
  8
4_ANYTOOL_CUTTHROUGH_OUTSI
100
AcDbVertex
100
AcDb2dVertex
 10
-1157.750000000764
 20
58.02160784392618
 30
0.0
 42
0.414213562321855
  0
VERTEX
  5
387
330
300
100
AcDbEntity
  8
4_ANYTOOL_CUTTHROUGH_OUTSI
100
AcDbVertex
100
AcDb2dVertex
 10
-1158.000000000764
 20
58.27160784392618
 30
0.0
  0
VERTEX
  5
388
330
300
100
AcDbEntity
  8
4_ANYTOOL_CUTTHROUGH_OUTSI
100
AcDbVertex
100
AcDb2dVertex
 10
-1163.750000000815
 20
58.27160784392618
 30
0.0
  0
VERTEX
  5
389
330
300
100
AcDbEntity
  8
4_ANYTOOL_CUTTHROUGH_OUTSI
100
AcDbVertex
100
AcDb2dVertex
 10
-1163.750000003202
 20
74.77160784211446
 30
0.0
  0
VERTEX
  5
38A
330
300
100
AcDbEntity
  8
4_ANYTOOL_CUTTHROUGH_OUTSI
100
AcDbVertex
100
AcDb2dVertex
 10
-1147.654437257508
 20
74.77160784214357
 30
0.0
  0
VERTEX
  5
38B
330
300
100
AcDbEntity
  8
4_ANYTOOL_CUTTHROUGH_OUTSI
100
AcDbVertex
100
AcDb2dVertex
 10
-1147.654437257508
 20
69.02160784214357
 30
0.0
 42
0.4142135623391409
  0
VERTEX
  5
38C
330
300
100
AcDbEntity
  8
4_ANYTOOL_CUTTHROUGH_OUTSI
100
AcDbVertex
100
AcDb2dVertex
 10
-1147.404437257508
 20
68.77160784212901
 30
0.0
  0
VERTEX
  5
38D
330
300
100
AcDbEntity
  8
4_ANYTOOL_CUTTHROUGH_OUTSI
100
AcDbVertex
100
AcDb2dVertex
 10
-1135.404437257508
 20
68.77160784214357
 30
0.0
 42
0.4142135623816934
  0
VERTEX
  5
38E
330
300
100
AcDbEntity
  8
4_ANYTOOL_CUTTHROUGH_OUTSI
100
AcDbVertex
100
AcDb2dVertex
 10
-1135.154437257516
 20
69.02160784214357
 30
0.0
  0
VERTEX
  5
38F
330
300
100
AcDbEntity
  8
4_ANYTOOL_CUTTHROUGH_OUTSI
100
AcDbVertex
100
AcDb2dVertex
 10
-1135.154437257508
 20
92.7716078429803
 30
0.0
  0
VERTEX
  5
390
330
300
100
AcDbEntity
  8
4_ANYTOOL_CUTTHROUGH_OUTSI
100
AcDbVertex
100
AcDb2dVertex
 10
-664.8455627558214
 20
92.77160784300213
 30
0.0
  0
VERTEX
  5
391
330
300
100
AcDbEntity
  8
4_ANYTOOL_CUTTHROUGH_OUTSI
100
AcDbVertex
100
AcDb2dVertex
 10
-664.8455627558214
 20
69.02160784253647
 30
0.0
 42
0.4142135623644961
  0
VERTEX
  5
392
330
300
100
AcDbEntity
  8
4_ANYTOOL_CUTTHROUGH_OUTSI
100
AcDbVertex
100
AcDb2dVertex
 10
-664.5955627558214
 20
68.77160784252919
 30
0.0
  0
VERTEX
  5
393
330
300
100
AcDbEntity
  8
4_ANYTOOL_CUTTHROUGH_OUTSI
100
AcDbVertex
100
AcDb2dVertex
 10
-652.5955627558214
 20
68.77160784253647
 30
0.0
 42
0.414213562364511
  0
VERTEX
  5
394
330
300
100
AcDbEntity
  8
4_ANYTOOL_CUTTHROUGH_OUTSI
100
AcDbVertex
100
AcDb2dVertex
 10
-652.3455627558287
 20
69.02160784253647
 30
0.0
  0
VERTEX
  5
395
330
300
100
AcDbEntity
  8
4_ANYTOOL_CUTTHROUGH_OUTSI
100
AcDbVertex
100
AcDb2dVertex
 10
-652.3455627558214
 20
74.77160784253647
 30
0.0
  0
VERTEX
  5
396
330
300
100
AcDbEntity
  8
4_ANYTOOL_CUTTHROUGH_OUTSI
100
AcDbVertex
100
AcDb2dVertex
 10
-642.9044372588614
 20
74.77160784256557
 30
0.0
  0
VERTEX
  5
397
330
300
100
AcDbEntity
  8
4_ANYTOOL_CUTTHROUGH_OUTSI
100
AcDbVertex
100
AcDb2dVertex
 10
-642.9044372588614
 20
69.02160784256557
 30
0.0
 42
0.4142135623304931
  0
VERTEX
  5
398
330
300
100
AcDbEntity
  8
4_ANYTOOL_CUTTHROUGH_OUTSI
100
AcDbVertex
100
AcDb2dVertex
 10
-642.6544372588614
 20
68.7716078425583
 30
0.0
  0
VERTEX
  5
399
330
300
100
AcDbEntity
  8
4_ANYTOOL_CUTTHROUGH_OUTSI
100
AcDbVertex
100
AcDb2dVertex
 10
-630.6544372588614
 20
68.77160784256557
 30
0.0
 42
0.4142135623475801
  0
VERTEX
  5
39A
330
300
100
AcDbEntity
  8
4_ANYTOOL_CUTTHROUGH_OUTSI
100
AcDbVertex
100
AcDb2dVertex
 10
-630.4044372588687
 20
69.02160784256557
 30
0.0
  0
VERTEX
  5
39B
330
300
100
AcDbEntity
  8
4_ANYTOOL_CUTTHROUGH_OUTSI
100
AcDbVertex
100
AcDb2dVertex
 10
-630.4044372588614
 20
92.77160784300213
 30
0.0
  0
VERTEX
  5
39C
330
300
100
AcDbEntity
  8
4_ANYTOOL_CUTTHROUGH_OUTSI
100
AcDbVertex
100
AcDb2dVertex
 10
-569.5955627544608
 20
92.7716078430094
 30
0.0
  0
VERTEX
  5
39D
330
300
100
AcDbEntity
  8
4_ANYTOOL_CUTTHROUGH_OUTSI
100
AcDbVertex
100
AcDb2dVertex
 10
-569.5955627544608
 20
69.0216078426165
 30
0.0
 42
0.4142135623390449
  0
VERTEX
  5
39E
330
300
100
AcDbEntity
  8
4_ANYTOOL_CUTTHROUGH_OUTSI
100
AcDbVertex
100
AcDb2dVertex
 10
-569.3455627544608
 20
68.7716078426165
 30
0.0
  0
VERTEX
  5
39F
330
300
100
AcDbEntity
  8
4_ANYTOOL_CUTTHROUGH_OUTSI
100
AcDbVertex
100
AcDb2dVertex
 10
-557.3455627544608
 20
68.7716078426165
 30
0.0
 42
0.414213562364511
  0
VERTEX
  5
3A0
330
300
100
AcDbEntity
  8
4_ANYTOOL_CUTTHROUGH_OUTSI
100
AcDbVertex
100
AcDb2dVertex
 10
-557.0955627544681
 20
69.0216078426165
 30
0.0
  0
VERTEX
  5
3A1
330
300
100
AcDbEntity
  8
4_ANYTOOL_CUTTHROUGH_OUTSI
100
AcDbVertex
100
AcDb2dVertex
 10
-557.0955627544608
 20
74.7716078426165
 30
0.0
  0
VERTEX
  5
3A2
330
300
100
AcDbEntity
  8
4_ANYTOOL_CUTTHROUGH_OUTSI
100
AcDbVertex
100
AcDb2dVertex
 10
-547.6544372575008
 20
74.77160784264561
 30
0.0
  0
VERTEX
  5
3A3
330
300
100
AcDbEntity
  8
4_ANYTOOL_CUTTHROUGH_OUTSI
100
AcDbVertex
100
AcDb2dVertex
 10
-547.6544372575008
 20
69.02160784264561
 30
0.0
 42
0.4142135623902378
  0
VERTEX
  5
3A4
330
300
100
AcDbEntity
  8
4_ANYTOOL_CUTTHROUGH_OUTSI
100
AcDbVertex
100
AcDb2dVertex
 10
-547.4044372575008
 20
68.77160784264561
 30
0.0
  0
VERTEX
  5
3A5
330
300
100
AcDbEntity
  8
4_ANYTOOL_CUTTHROUGH_OUTSI
100
AcDbVertex
100
AcDb2dVertex
 10
-535.4044372575008
 20
68.77160784264561
 30
0.0
 42
0.4142135624157356
  0
VERTEX
  5
3A6
330
300
100
AcDbEntity
  8
4_ANYTOOL_CUTTHROUGH_OUTSI
100
AcDbVertex
100
AcDb2dVertex
 10
-535.1544372575081
 20
69.02160784264561
 30
0.0
  0
VERTEX
  5
3A7
330
300
100
AcDbEntity
  8
4_ANYTOOL_CUTTHROUGH_OUTSI
100
AcDbVertex
100
AcDb2dVertex
 10
-535.1544372575008
 20
92.7716078430094
 30
0.0
  0
VERTEX
  5
3A8
330
300
100
AcDbEntity
  8
4_ANYTOOL_CUTTHROUGH_OUTSI
100
AcDbVertex
100
AcDb2dVertex
 10
-64.84556275582145
 20
92.77160784302396
 30
0.0
  0
VERTEX
  5
3A9
330
300
100
AcDbEntity
  8
4_ANYTOOL_CUTTHROUGH_OUTSI
100
AcDbVertex
100
AcDb2dVertex
 10
-64.84556275582145
 20
69.02160784303123
 30
0.0
 42
0.4142135623304812
  0
VERTEX
  5
3AA
330
300
100
AcDbEntity
  8
4_ANYTOOL_CUTTHROUGH_OUTSI
100
AcDbVertex
100
AcDb2dVertex
 10
-64.59556275582145
 20
68.77160784302396
 30
0.0
  0
VERTEX
  5
3AB
330
300
100
AcDbEntity
  8
4_ANYTOOL_CUTTHROUGH_OUTSI
100
AcDbVertex
100
AcDb2dVertex
 10
-52.59556275582145
 20
68.77160784303123
 30
0.0
 42
0.4142135623389979
  0
VERTEX
  5
3AC
330
300
100
AcDbEntity
  8
4_ANYTOOL_CUTTHROUGH_OUTSI
100
AcDbVertex
100
AcDb2dVertex
 10
-52.34556275582145
 20
69.02160784303123
 30
0.0
  0
VERTEX
  5
3AD
330
300
100
AcDbEntity
  8
4_ANYTOOL_CUTTHROUGH_OUTSI
100
AcDbVertex
100
AcDb2dVertex
 10
-52.34556275582145
 20
74.77160784303123
 30
0.0
  0
VERTEX
  5
3AE
330
300
100
AcDbEntity
  8
4_ANYTOOL_CUTTHROUGH_OUTSI
100
AcDbVertex
100
AcDb2dVertex
 10
-42.90443725886144
 20
74.77160784306034
 30
0.0
  0
VERTEX
  5
3AF
330
300
100
AcDbEntity
  8
4_ANYTOOL_CUTTHROUGH_OUTSI
100
AcDbVertex
100
AcDb2dVertex
 10
-42.90443725886144
 20
69.02160784306034
 30
0.0
 42
0.4142135623389996
  0
VERTEX
  5
3B0
330
300
100
AcDbEntity
  8
4_ANYTOOL_CUTTHROUGH_OUTSI
100
AcDbVertex
100
AcDb2dVertex
 10
-42.65443725886144
 20
68.77160784304579
 30
0.0
  0
VERTEX
  5
3B1
330
300
100
AcDbEntity
  8
4_ANYTOOL_CUTTHROUGH_OUTSI
100
AcDbVertex
100
AcDb2dVertex
 10
-30.65443725886144
 20
68.77160784306034
 30
0.0
 42
0.4142135623304862
  0
VERTEX
  5
3B2
330
300
100
AcDbEntity
  8
4_ANYTOOL_CUTTHROUGH_OUTSI
100
AcDbVertex
100
AcDb2dVertex
 10
-30.40443725885416
 20
69.02160784306034
 30
0.0
  0
VERTEX
  5
3B3
330
300
100
AcDbEntity
  8
4_ANYTOOL_CUTTHROUGH_OUTSI
100
AcDbVertex
100
AcDb2dVertex
 10
-30.40443725886144
 20
92.77160784302396
 30
0.0
  0
VERTEX
  5
3B4
330
300
100
AcDbEntity
  8
4_ANYTOOL_CUTTHROUGH_OUTSI
100
AcDbVertex
100
AcDb2dVertex
 10
30.40443724409124
 20
92.77160784303123
 30
0.0
  0
VERTEX
  5
3B5
330
300
100
AcDbEntity
  8
4_ANYTOOL_CUTTHROUGH_OUTSI
100
AcDbVertex
100
AcDb2dVertex
 10
30.40443724409124
 20
69.02160784311127
 30
0.0
 42
0.4142135623475279
  0
VERTEX
  5
3B6
330
300
100
AcDbEntity
  8
4_ANYTOOL_CUTTHROUGH_OUTSI
100
AcDbVertex
100
AcDb2dVertex
 10
30.65443724409124
 20
68.771607843104
 30
0.0
  0
VERTEX
  5
3B7
330
300
100
AcDbEntity
  8
4_ANYTOOL_CUTTHROUGH_OUTSI
100
AcDbVertex
100
AcDb2dVertex
 10
42.65443724409124
 20
68.77160784311127
 30
0.0
 42
0.4142135623475112
  0
VERTEX
  5
3B8
330
300
100
AcDbEntity
  8
4_ANYTOOL_CUTTHROUGH_OUTSI
100
AcDbVertex
100
AcDb2dVertex
 10
42.90443724409852
 20
69.02160784311127
 30
0.0
  0
VERTEX
  5
3B9
330
300
100
AcDbEntity
  8
4_ANYTOOL_CUTTHROUGH_OUTSI
100
AcDbVertex
100
AcDb2dVertex
 10
42.90443724409124
 20
74.77160784311127
 30
0.0
  0
VERTEX
  5
3BA
330
300
100
AcDbEntity
  8
4_ANYTOOL_CUTTHROUGH_OUTSI
100
AcDbVertex
100
AcDb2dVertex
 10
52.34556274105125
 20
74.77160784314037
 30
0.0
  0
VERTEX
  5
3BB
330
300
100
AcDbEntity
  8
4_ANYTOOL_CUTTHROUGH_OUTSI
100
AcDbVertex
100
AcDb2dVertex
 10
52.34556274105125
 20
69.02160784314037
 30
0.0
 42
0.4142135623389979
  0
VERTEX
  5
3BC
330
300
100
AcDbEntity
  8
4_ANYTOOL_CUTTHROUGH_OUTSI
100
AcDbVertex
100
AcDb2dVertex
 10
52.59556274105125
 20
68.77160784314037
 30
0.0
  0
VERTEX
  5
3BD
330
300
100
AcDbEntity
  8
4_ANYTOOL_CUTTHROUGH_OUTSI
100
AcDbVertex
100
AcDb2dVertex
 10
64.59556274105125
 20
68.77160784314037
 30
0.0
 42
0.4142135624071923
  0
VERTEX
  5
3BE
330
300
100
AcDbEntity
  8
4_ANYTOOL_CUTTHROUGH_OUTSI
100
AcDbVertex
100
AcDb2dVertex
 10
64.84556274105125
 20
69.02160784314037
 30
0.0
  0
VERTEX
  5
3BF
330
300
100
AcDbEntity
  8
4_ANYTOOL_CUTTHROUGH_OUTSI
100
AcDbVertex
100
AcDb2dVertex
 10
64.84556274105125
 20
92.77160784303851
 30
0.0
  0
VERTEX
  5
3C0
330
300
100
AcDbEntity
  8
4_ANYTOOL_CUTTHROUGH_OUTSI
100
AcDbVertex
100
AcDb2dVertex
 10
535.1544372427379
 20
92.77160784305306
 30
0.0
  0
VERTEX
  5
3C1
330
300
100
AcDbEntity
  8
4_ANYTOOL_CUTTHROUGH_OUTSI
100
AcDbVertex
100
AcDb2dVertex
 10
535.1544372427379
 20
69.021607843526
 30
0.0
 42
0.4142135623390468
  0
VERTEX
  5
3C2
330
300
100
AcDbEntity
  8
4_ANYTOOL_CUTTHROUGH_OUTSI
100
AcDbVertex
100
AcDb2dVertex
 10
535.4044372427379
 20
68.77160784351145
 30
0.0
  0
VERTEX
  5
3C3
330
300
100
AcDbEntity
  8
4_ANYTOOL_CUTTHROUGH_OUTSI
100
AcDbVertex
100
AcDb2dVertex
 10
547.4044372427379
 20
68.771607843526
 30
0.0
 42
0.4142135623560855
  0
VERTEX
  5
3C4
330
300
100
AcDbEntity
  8
4_ANYTOOL_CUTTHROUGH_OUTSI
100
AcDbVertex
100
AcDb2dVertex
 10
547.6544372427379
 20
69.021607843526
 30
0.0
  0
VERTEX
  5
3C5
330
300
100
AcDbEntity
  8
4_ANYTOOL_CUTTHROUGH_OUTSI
100
AcDbVertex
100
AcDb2dVertex
 10
547.6544372427379
 20
74.771607843526
 30
0.0
  0
VERTEX
  5
3C6
330
300
100
AcDbEntity
  8
4_ANYTOOL_CUTTHROUGH_OUTSI
100
AcDbVertex
100
AcDb2dVertex
 10
557.0955627396979
 20
74.7716078435551
 30
0.0
  0
VERTEX
  5
3C7
330
300
100
AcDbEntity
  8
4_ANYTOOL_CUTTHROUGH_OUTSI
100
AcDbVertex
100
AcDb2dVertex
 10
557.0955627396979
 20
69.0216078435551
 30
0.0
 42
0.4142135623815998
  0
VERTEX
  5
3C8
330
300
100
AcDbEntity
  8
4_ANYTOOL_CUTTHROUGH_OUTSI
100
AcDbVertex
100
AcDb2dVertex
 10
557.3455627396979
 20
68.77160784356238
 30
0.0
  0
VERTEX
  5
3C9
330
300
100
AcDbEntity
  8
4_ANYTOOL_CUTTHROUGH_OUTSI
100
AcDbVertex
100
AcDb2dVertex
 10
569.3455627396979
 20
68.7716078435551
 30
0.0
 42
0.4142135624071843
  0
VERTEX
  5
3CA
330
300
100
AcDbEntity
  8
4_ANYTOOL_CUTTHROUGH_OUTSI
100
AcDbVertex
100
AcDb2dVertex
 10
569.5955627396979
 20
69.0216078435551
 30
0.0
  0
VERTEX
  5
3CB
330
300
100
AcDbEntity
  8
4_ANYTOOL_CUTTHROUGH_OUTSI
100
AcDbVertex
100
AcDb2dVertex
 10
569.5955627396979
 20
92.77160784305306
 30
0.0
  0
VERTEX
  5
3CC
330
300
100
AcDbEntity
  8
4_ANYTOOL_CUTTHROUGH_OUTSI
100
AcDbVertex
100
AcDb2dVertex
 10
630.4044372440912
 20
92.77160784252919
 30
0.0
  0
VERTEX
  5
3CD
330
300
100
AcDbEntity
  8
4_ANYTOOL_CUTTHROUGH_OUTSI
100
AcDbVertex
100
AcDb2dVertex
 10
630.4044372440912
 20
69.02160784254374
 30
0.0
 42
0.4142135623987818
  0
VERTEX
  5
3CE
330
300
100
AcDbEntity
  8
4_ANYTOOL_CUTTHROUGH_OUTSI
100
AcDbVertex
100
AcDb2dVertex
 10
630.6544372440912
 20
68.77160784253647
 30
0.0
  0
VERTEX
  5
3CF
330
300
100
AcDbEntity
  8
4_ANYTOOL_CUTTHROUGH_OUTSI
100
AcDbVertex
100
AcDb2dVertex
 10
642.6544372440912
 20
68.77160784254374
 30
0.0
 42
0.4142135624157356
  0
VERTEX
  5
3D0
330
300
100
AcDbEntity
  8
4_ANYTOOL_CUTTHROUGH_OUTSI
100
AcDbVertex
100
AcDb2dVertex
 10
642.904437244084
 20
69.02160784254374
 30
0.0
  0
VERTEX
  5
3D1
330
300
100
AcDbEntity
  8
4_ANYTOOL_CUTTHROUGH_OUTSI
100
AcDbVertex
100
AcDb2dVertex
 10
642.9044372440912
 20
74.77160784254374
 30
0.0
  0
VERTEX
  5
3D2
330
300
100
AcDbEntity
  8
4_ANYTOOL_CUTTHROUGH_OUTSI
100
AcDbVertex
100
AcDb2dVertex
 10
652.3455627410513
 20
74.77160784257285
 30
0.0
  0
VERTEX
  5
3D3
330
300
100
AcDbEntity
  8
4_ANYTOOL_CUTTHROUGH_OUTSI
100
AcDbVertex
100
AcDb2dVertex
 10
652.3455627410513
 20
69.02160784257285
 30
0.0
 42
0.4142135623475985
  0
VERTEX
  5
3D4
330
300
100
AcDbEntity
  8
4_ANYTOOL_CUTTHROUGH_OUTSI
100
AcDbVertex
100
AcDb2dVertex
 10
652.5955627410513
 20
68.77160784256557
 30
0.0
  0
VERTEX
  5
3D5
330
300
100
AcDbEntity
  8
4_ANYTOOL_CUTTHROUGH_OUTSI
100
AcDbVertex
100
AcDb2dVertex
 10
664.5955627410513
 20
68.77160784257285
 30
0.0
 42
0.4142135623731421
  0
VERTEX
  5
3D6
330
300
100
AcDbEntity
  8
4_ANYTOOL_CUTTHROUGH_OUTSI
100
AcDbVertex
100
AcDb2dVertex
 10
664.8455627410513
 20
69.02160784257285
 30
0.0
  0
VERTEX
  5
3D7
330
300
100
AcDbEntity
  8
4_ANYTOOL_CUTTHROUGH_OUTSI
100
AcDbVertex
100
AcDb2dVertex
 10
664.8455627410513
 20
92.77160784252919
 30
0.0
  0
VERTEX
  5
3D8
330
300
100
AcDbEntity
  8
4_ANYTOOL_CUTTHROUGH_OUTSI
100
AcDbVertex
100
AcDb2dVertex
 10
1135.154437247627
 20
92.77160784214357
 30
0.0
  0
VERTEX
  5
3D9
330
300
100
AcDbEntity
  8
4_ANYTOOL_CUTTHROUGH_OUTSI
100
AcDbVertex
100
AcDb2dVertex
 10
1135.154437247627
 20
69.02160784214357
 30
0.0
 42
0.4142135623391409
  0
VERTEX
  5
3DA
330
300
100
AcDbEntity
  8
4_ANYTOOL_CUTTHROUGH_OUTSI
100
AcDbVertex
100
AcDb2dVertex
 10
1135.404437247627
 20
68.77160784212901
 30
0.0
  0
VERTEX
  5
3DB
330
300
100
AcDbEntity
  8
4_ANYTOOL_CUTTHROUGH_OUTSI
100
AcDbVertex
100
AcDb2dVertex
 10
1147.404437247627
 20
68.77160784214357
 30
0.0
 42
0.4142135623303195
  0
VERTEX
  5
3DC
330
300
100
AcDbEntity
  8
4_ANYTOOL_CUTTHROUGH_OUTSI
100
AcDbVertex
100
AcDb2dVertex
 10
1147.65443724762
 20
69.02160784214357
 30
0.0
  0
SEQEND
  5
3DD
330
300
100
AcDbEntity
  8
4_ANYTOOL_CUTTHROUGH_OUTSI
  0
ENDSEC
  0
SECTION
  2
OBJECTS
  0
DICTIONARY
  5
C
330
0
100
AcDbDictionary
  3
ACAD_GROUP
350
D
  3
ACAD_LAYOUT
350
1A
  3
ACAD_MATERIAL
350
43
  3
ACAD_MLEADERSTYLE
350
5B
  3
ACAD_MLINESTYLE
350
17
  3
ACAD_PLOTSETTINGS
350
19
  3
ACAD_SCALELIST
350
47
  3
ACAD_VISUALSTYLE
350
2A
  3
ACDBHEADERROUNDTRIPXREC
350
3DE
  3
ACDBVARIABLEDICTIONARY
350
3FF
  3
DWGPROPS
350
406
  0
DICTIONARY
  5
407
330
8
100
AcDbDictionary
280
     1
  3
ACAD_XREC_ROUNDTRIP
360
408
  0
DICTIONARY
  5
D
102
{ACAD_REACTORS
330
C
102
}
330
C
100
AcDbDictionary
  0
DICTIONARY
  5
1A
102
{ACAD_REACTORS
330
C
102
}
330
C
100
AcDbDictionary
  0
DICTIONARY
  5
43
102
{ACAD_REACTORS
330
C
102
}
330
C
100
AcDbDictionary
  3
BYBLOCK
350
45
  3
BYLAYER
350
44
  3
GLOBAL
350
46
  0
DICTIONARY
  5
5B
102
{ACAD_REACTORS
330
C
102
}
330
C
100
AcDbDictionary
  3
STANDARD
350
5C
  0
DICTIONARY
  5
17
102
{ACAD_REACTORS
330
C
102
}
330
C
100
AcDbDictionary
  3
STANDARD
350
18
  0
DICTIONARY
  5
19
102
{ACAD_REACTORS
330
C
102
}
330
C
100
AcDbDictionary
  0
DICTIONARY
  5
47
102
{ACAD_REACTORS
330
C
102
}
330
C
100
AcDbDictionary
  3
A0
350
48
  3
A1
350
49
  3
A2
350
4A
  3
A3
350
4B
  3
A4
350
4C
  3
A5
350
4D
  3
A6
350
4E
  3
A7
350
4F
  3
A8
350
50
  3
A9
350
51
  3
B1
350
52
  3
B2
350
53
  3
B3
350
54
  3
B4
350
55
  3
B5
350
56
  3
B6
350
57
  3
B7
350
58
  0
DICTIONARY
  5
2A
102
{ACAD_REACTORS
330
C
102
}
330
C
100
AcDbDictionary
  3
2DWIREFRAME
350
2F
  3
BASIC
350
32
  3
BRIGHTEN
350
36
  3
COLORCHANGE
350
3A
  3
CONCEPTUAL
350
34
  3
DIM
350
35
  3
EDGECOLOROFF
350
3D
  3
FACEPATTERN
350
39
  3
FLAT
350
2B
  3
FLATWITHEDGES
350
2C
  3
GOURAUD
350
2D
  3
GOURAUDWITHEDGES
350
2E
  3
HIDDEN
350
31
  3
JITTEROFF
350
3B
  3
LINEPATTERN
350
38
  3
OVERHANGOFF
350
3C
  3
REALISTIC
350
33
  3
SHADED
350
42
  3
SHADED_WITH_EDGES
350
41
  3
SHADES_OF_GRAY
350
3E
  3
SKETCHY
350
3F
  3
THICKEN
350
37
  3
WIREFRAME
350
30
  3
X-RAY
350
40
  0
DICTIONARY
  5
3DE
102
{ACAD_REACTORS
330
C
102
}
330
C
100
AcDbDictionary
  3
CEPSNID
350
3E8
  3
CEPSNTYPE
350
3E7
  3
DIMSTYLEDATA
350
3FE
  3
FINGERPRINTGUID
350
3E9
  3
HYPERLINKBASE
350
3E1
  3
INSUNITS
350
3E6
  3
LAYOUTDICT
350
3E3
  3
LWETCUNION
350
3E5
  3
PLOTSETDICT
350
3E4
  3
PSVPSCALE
350
3EB
  3
PUCSBASE
350
3EE
  3
PUCSORGBACK
350
3F4
  3
PUCSORGBOTTOM
350
3F0
  3
PUCSORGFRONT
350
3F3
  3
PUCSORGLEFT
350
3F1
  3
PUCSORGRIGHT
350
3F2
  3
PUCSORGTOP
350
3EF
  3
PUCSORTHOREF
350
3EC
  3
PUCSORTHOVIEW
350
3ED
  3
STYLESHEET
350
3E2
  3
TSTACKALIGN
350
3DF
  3
TSTACKSIZE
350
3E0
  3
UCSBASE
350
3F7
  3
UCSORGBACK
350
3FD
  3
UCSORGBOTTOM
350
3F9
  3
UCSORGFRONT
350
3FC
  3
UCSORGLEFT
350
3FA
  3
UCSORGRIGHT
350
3FB
  3
UCSORGTOP
350
3F8
  3
UCSORTHOREF
350
3F5
  3
UCSORTHOVIEW
350
3F6
  3
VERSIONGUID
350
3EA
  0
DICTIONARY
  5
3FF
102
{ACAD_REACTORS
330
C
102
}
330
C
100
AcDbDictionary
  3
CANNOSCALE
350
409
  3
CMLEADERSTYLE
350
401
  3
CTABLESTYLE
350
400
  3
DIMASSOC
350
404
  3
HIDETEXT
350
405
  3
MSLTSCALE
350
40A
  0
XRECORD
  5
406
102
{ACAD_REACTORS
330
C
102
}
330
C
100
AcDbXrecord
  1
DWGPROPS COOKIE
  2

  3

  4

  6

  7

  8
clayt
  9

300
=
301
=
302
=
303
=
304
=
305
=
306
=
307
=
308
=
309
=
 40
0.0
 41
2461243.625415266
 42
2461243.625415406
  1

 90
        0
  0
XRECORD
  5
408
102
{ACAD_REACTORS
330
407
102
}
330
407
100
AcDbXrecord
102
VTR_0.000_0.000_1.000_1.000_VISUALSTYLE
340
2F
102
VTR_0.000_0.000_1.000_1.000_GRIDDISPLAY
 70
     3
102
VTR_0.000_0.000_1.000_1.000_GRIDMAJOR
 70
     5
102
VTR_0.000_0.000_1.000_1.000_DEFAULTLIGHTING
280
     1
102
VTR_0.000_0.000_1.000_1.000_DEFAULTLIGHTINGTYPE
 70
     1
102
VTR_0.000_0.000_1.000_1.000_BRIGHTNESS
141
0.0
102
VTR_0.000_0.000_1.000_1.000_CONTRAST
142
0.0
  0
MATERIAL
  5
45
102
{ACAD_REACTORS
330
43
102
}
102
{ACAD_XDICTIONARY
360
40D
102
}
330
43
100
AcDbMaterial
  1
BYBLOCK
  0
MATERIAL
  5
44
102
{ACAD_REACTORS
330
43
102
}
102
{ACAD_XDICTIONARY
360
40B
102
}
330
43
100
AcDbMaterial
  1
BYLAYER
  0
MATERIAL
  5
46
102
{ACAD_REACTORS
330
43
102
}
102
{ACAD_XDICTIONARY
360
40F
102
}
330
43
100
AcDbMaterial
  1
GLOBAL
  0
ACAD_PROXY_OBJECT
  5
5C
102
{ACAD_REACTORS
330
5B
102
}
330
5B
100
AcDbProxyObject
 90
      499
 91
      505
 93
      610
310
40901902A4063FBFFFFFE056BD1B81E855B9FC0AD7A3703D0AD73F4214DD185B99185C9900AD7A3703D0AC73F90141901A02B5E8DC0F42B1CFC02B5E8DC0F42B1CFE5764000000000000300FC0
340
14
340
0
340
11
340
0
 94
        0
1001
ACAD_MLEADERVER
1070
     2
  0
MLINESTYLE
  5
18
102
{ACAD_REACTORS
330
17
102
}
330
17
100
AcDbMlineStyle
  2
Standard
 70
     0
  3

 62
   256
 51
90.0
 52
90.0
 71
     2
 49
0.5
 62
   256
  6
BYLAYER
 49
-0.5
 62
   256
  6
BYLAYER
  0
ACAD_PROXY_OBJECT
  5
48
102
{ACAD_REACTORS
330
47
102
}
330
47
100
AcDbProxyObject
 90
      499
 91
      503
 93
       41
310
903313A31580
  0
ACAD_PROXY_OBJECT
  5
49
102
{ACAD_REACTORS
330
47
102
}
330
47
100
AcDbProxyObject
 90
      499
 91
      503
 93
      257
310
90E312F31323822203D2031272D3022000000000000200FC000000000000284000
  0
ACAD_PROXY_OBJECT
  5
4A
102
{ACAD_REACTORS
330
47
102
}
330
47
100
AcDbProxyObject
 90
      499
 91
      503
 93
      249
310
90D312F363422203D2031272D3022000000000000240FC000000000000284000
  0
ACAD_PROXY_OBJECT
  5
4B
102
{ACAD_REACTORS
330
47
102
}
330
47
100
AcDbProxyObject
 90
      499
 91
      503
 93
      249
310
90D312F333222203D2031272D3022000000000000280FC000000000000284000
  0
ACAD_PROXY_OBJECT
  5
4C
102
{ACAD_REACTORS
330
47
102
}
330
47
100
AcDbProxyObject
 90
      499
 91
      503
 93
      249
310
90D312F313622203D2031272D30220000000000002C0FC000000000000284000
  0
ACAD_PROXY_OBJECT
  5
4D
102
{ACAD_REACTORS
330
47
102
}
330
47
100
AcDbProxyObject
 90
      499
 91
      503
 93
      249
310
90D332F333222203D2031272D30220000000000002E0FC000000000000284000
  0
ACAD_PROXY_OBJECT
  5
4E
102
{ACAD_REACTORS
330
47
102
}
330
47
100
AcDbProxyObject
 90
      499
 91
      503
 93
      241
310
90C312F3822203D2031272D3022000000000000300FC000000000000284000
  0
ACAD_PROXY_OBJECT
  5
4F
102
{ACAD_REACTORS
330
47
102
}
330
47
100
AcDbProxyObject
 90
      499
 91
      503
 93
      249
310
90D332F313622203D2031272D3022000000000000320FC000000000000284000
  0
ACAD_PROXY_OBJECT
  5
50
102
{ACAD_REACTORS
330
47
102
}
330
47
100
AcDbProxyObject
 90
      499
 91
      503
 93
      241
310
90C312F3422203D2031272D3022000000000000340FC000000000000284000
  0
ACAD_PROXY_OBJECT
  5
51
102
{ACAD_REACTORS
330
47
102
}
330
47
100
AcDbProxyObject
 90
      499
 91
      503
 93
      241
310
90C332F3822203D2031272D3022000000000000360FC000000000000284000
  0
ACAD_PROXY_OBJECT
  5
52
102
{ACAD_REACTORS
330
47
102
}
330
47
100
AcDbProxyObject
 90
      499
 91
      503
 93
      241
310
90C312F3222203D2031272D3022000000000000380FC000000000000284000
  0
ACAD_PROXY_OBJECT
  5
53
102
{ACAD_REACTORS
330
47
102
}
330
47
100
AcDbProxyObject
 90
      499
 91
      503
 93
      241
310
90C332F3422203D2031272D30220000000000003A0FC000000000000284000
  0
ACAD_PROXY_OBJECT
  5
54
102
{ACAD_REACTORS
330
47
102
}
330
47
100
AcDbProxyObject
 90
      499
 91
      503
 93
      161
310
90A3122203D2031272D30224000000000000284000
  0
ACAD_PROXY_OBJECT
  5
55
102
{ACAD_REACTORS
330
47
102
}
330
47
100
AcDbProxyObject
 90
      499
 91
      503
 93
      257
310
90E312D312F3222203D2031272D30220000000000003E0FC000000000000284000
  0
ACAD_PROXY_OBJECT
  5
56
102
{ACAD_REACTORS
330
47
102
}
330
47
100
AcDbProxyObject
 90
      499
 91
      503
 93
      225
310
90A3322203D2031272D302200000000000002100000000000000284000
  0
ACAD_PROXY_OBJECT
  5
57
102
{ACAD_REACTORS
330
47
102
}
330
47
100
AcDbProxyObject
 90
      499
 91
      503
 93
      225
310
90A3622203D2031272D302200000000000006100000000000000284000
  0
ACAD_PROXY_OBJECT
  5
58
102
{ACAD_REACTORS
330
47
102
}
330
47
100
AcDbProxyObject
 90
      499
 91
      503
 93
      249
310
90D31272D3022203D2031272D30220000000000000A100000000000000284000
  0
ACAD_PROXY_OBJECT
  5
2F
102
{ACAD_REACTORS
330
2A
102
}
330
2A
100
AcDbProxyObject
 90
      499
 91
      501
 93
      436
310
42CC9915DA5C99599C985B595049028333333333333E33F0000000000000F90107901411070040501600405405064090741402480A0340
1001
ACAD
1000
AcDbSavedByObjectVersion
1070
     0
  0
ACAD_PROXY_OBJECT
  5
32
102
{ACAD_REACTORS
330
2A
102
}
330
2A
100
AcDbProxyObject
 90
      499
 91
      501
 93
      388
310
4150985CDA58D07406404333333333333E33F0000000000000F90107A41107004050150841D405064090741402480A0350
1001
ACAD
1000
AcDbSavedByObjectVersion
1070
     0
  0
ACAD_PROXY_OBJECT
  5
36
102
{ACAD_REACTORS
330
2A
102
}
330
2A
100
AcDbProxyObject
 90
      499
 91
      501
 93
      428
310
42109C9A59DA1D195B90C409028333333333333E33F0000000000000F9010790141107004050150841D405064090741402480A029950
1001
ACAD
1000
AcDbSavedByObjectVersion
1070
     0
  0
ACAD_PROXY_OBJECT
  5
3A
102
{ACAD_REACTORS
330
2A
102
}
330
2A
100
AcDbProxyObject
 90
      499
 91
      501
 93
      452
310
42D0DBDB1BDC90DA185B99D95104090240C333333333333E33F0000000000000F90108901411070040501508421405064090741402480A0350
1001
ACAD
1000
AcDbSavedByObjectVersion
1070
     0
  0
ACAD_PROXY_OBJECT
  5
34
102
{ACAD_REACTORS
330
2A
102
}
330
2A
100
AcDbProxyObject
 90
      499
 91
      501
 93
      500
310
4290DBDB98D95C1D1D585B10940D028333333333333E33F0000000000000F90107902409070040501000000000018199010841D405064090740C02480A0340
1001
ACAD
1000
AcDbSavedByObjectVersion
1070
     0
  0
ACAD_PROXY_OBJECT
  5
35
102
{ACAD_REACTORS
330
2A
102
}
330
2A
100
AcDbProxyObject
 90
      499
 91
      501
 93
      412
310
40D11A5B50B409028333333333333E33F0000000000000F9010790141107004050150841D405064090741402480A02677FFFFFD0
1001
ACAD
1000
AcDbSavedByObjectVersion
1070
     0
  0
ACAD_PROXY_OBJECT
  5
3D
102
{ACAD_REACTORS
330
2A
102
}
330
2A
100
AcDbProxyObject
 90
      499
 91
      501
 93
      452
310
43115919D950DBDB1BDC93D999916409028333333333333E33F0000000000000F9010790141107004050150841D405064090741402480A0350
1001
ACAD
1000
AcDbSavedByObjectVersion
1070
     0
  0
ACAD_PROXY_OBJECT
  5
39
102
{ACAD_REACTORS
330
2A
102
}
330
2A
100
AcDbProxyObject
 90
      499
 91
      501
 93
      444
310
42D19858D95C185D1D195C9B90F409028333333333333E33F0000000000000F9010790141107004050150841D405064090741402480A0350
1001
ACAD
1000
AcDbSavedByObjectVersion
1070
     0
  0
ACAD_PROXY_OBJECT
  5
2B
102
{ACAD_REACTORS
330
2A
102
}
330
2A
100
AcDbProxyObject
 90
      499
 91
      501
 93
      380
310
41119B185D240901404333333333333E33F0000000000000F9010740A907004050150841D405064090741402480A1B50
1001
ACAD
1000
AcDbSavedByObjectVersion
1070
     0
  0
ACAD_PROXY_OBJECT
  5
2C
102
{ACAD_REACTORS
330
2A
102
}
330
2A
100
AcDbProxyObject
 90
      499
 91
      501
 93
      468
310
43519B185D15DA5D1A115919D95CD0140901404333333333333E33F0000000000000F90107409019070040501600405405064090741402480A1B50
1001
ACAD
1000
AcDbSavedByObjectVersion
1070
     0
  0
ACAD_PROXY_OBJECT
  5
2D
102
{ACAD_REACTORS
330
2A
102
}
330
2A
100
AcDbProxyObject
 90
      499
 91
      501
 93
      404
310
41D1DBDD5C985D5910240902404333333333333E33F0000000000000F9010740A9070040501641D405064090741402480A1B50
1001
ACAD
1000
AcDbSavedByObjectVersion
1070
     0
  0
ACAD_PROXY_OBJECT
  5
2E
102
{ACAD_REACTORS
330
2A
102
}
330
2A
100
AcDbProxyObject
 90
      499
 91
      501
 93
      492
310
4411DBDD5C985D5915DA5D1A115919D95CD0340902404333333333333E33F0000000000000F90107409019070040501600405405064090741402480A1B50
1001
ACAD
1000
AcDbSavedByObjectVersion
1070
     0
  0
ACAD_PROXY_OBJECT
  5
31
102
{ACAD_REACTORS
330
2A
102
}
330
2A
100
AcDbProxyObject
 90
      499
 91
      501
 93
      476
310
41921A5919195B90640502408333333333333E33F0000000000000F901079024090700405020000000000001110200405405064090740C02480A0340
1001
ACAD
1000
AcDbSavedByObjectVersion
1070
     0
  0
ACAD_PROXY_OBJECT
  5
3B
102
{ACAD_REACTORS
330
2A
102
}
330
2A
100
AcDbProxyObject
 90
      499
 91
      501
 93
      428
310
42529A5D1D195C93D999914409028333333333333E33F0000000000000F9010790141107004050150A41D405064090741402480A0350
1001
ACAD
1000
AcDbSavedByObjectVersion
1070
     0
  0
ACAD_PROXY_OBJECT
  5
38
102
{ACAD_REACTORS
330
2A
102
}
330
2A
100
AcDbProxyObject
 90
      499
 91
      501
 93
      444
310
42D31A5B995C185D1D195C9B90E409028333333333333E33F0000000000000F9010790141107004050750841D405064090741402483A0350
1001
ACAD
1000
AcDbSavedByObjectVersion
1070
     0
  0
ACAD_PROXY_OBJECT
  5
3C
102
{ACAD_REACTORS
330
2A
102
}
330
2A
100
AcDbProxyObject
 90
      499
 91
      501
 93
      444
310
42D3DD995C9A185B99D3D999915409028333333333333E33F0000000000000F9010790141107004050150941D405064090741402480A0350
1001
ACAD
1000
AcDbSavedByObjectVersion
1070
     0
  0
ACAD_PROXY_OBJECT
  5
33
102
{ACAD_REACTORS
330
2A
102
}
330
2A
100
AcDbProxyObject
 90
      499
 91
      501
 93
      428
310
425499585B1A5CDD1A58D08409038333333333333E33F0000000000000F9010740A907004050150800405405064090740C02480A1B40
1001
ACAD
1000
AcDbSavedByObjectVersion
1070
     0
  0
ACAD_PROXY_OBJECT
  5
42
102
{ACAD_REACTORS
330
2A
102
}
330
2A
100
AcDbProxyObject
 90
      499
 91
      501
 93
      420
310
4194DA1859195911B40902404333333333333E33F0000000000000F9010740A41107004050150800405405064090840C02480A0B40
1001
ACAD
1000
AcDbSavedByObjectVersion
1070
     0
  0
ACAD_PROXY_OBJECT
  5
41
102
{ACAD_REACTORS
330
2A
102
}
330
2A
100
AcDbProxyObject
 90
      499
 91
      501
 93
      516
310
4454DA18591959081DDA5D1A08195919D95CD1A40902404333333333333E33F0000000000000F901074090142907004050250800405405064090740C02480A0B40
1001
ACAD
1000
AcDbSavedByObjectVersion
1070
     0
  0
ACAD_PROXY_OBJECT
  5
3E
102
{ACAD_REACTORS
330
2A
102
}
330
2A
100
AcDbProxyObject
 90
      499
 91
      501
 93
      532
310
4394DA1859195CC81BD98811DC985E5174090240C333333333333E33F0000000000000F901079024090741D01000000000000111010841D405064090740C02480A0340
1001
ACAD
1000
AcDbSavedByObjectVersion
1070
     0
  0
ACAD_PROXY_OBJECT
  5
3F
102
{ACAD_REACTORS
330
2A
102
}
330
2A
100
AcDbProxyObject
 90
      499
 91
      501
 93
      476
310
41D4DAD95D18DA1E51840502408333333333333E33F0000000000000F901079024090741D01000000000000111010B41D405064090741802480A0340
1001
ACAD
1000
AcDbSavedByObjectVersion
1070
     0
  0
ACAD_PROXY_OBJECT
  5
37
102
{ACAD_REACTORS
330
2A
102
}
330
2A
100
AcDbProxyObject
 90
      499
 91
      501
 93
      412
310
41D51A1A58DAD95B90D409028333333333333E33F0000000000000F9010790141107004050150C41D405064090741402480A0350
1001
ACAD
1000
AcDbSavedByObjectVersion
1070
     0
  0
ACAD_PROXY_OBJECT
  5
30
102
{ACAD_REACTORS
330
2A
102
}
330
2A
100
AcDbProxyObject
 90
      499
 91
      501
 93
      420
310
4255DA5C99599C985B595059028333333333333E33F0000000000000F90107901411070040501600405405064090740C02480A0340
1001
ACAD
1000
AcDbSavedByObjectVersion
1070
     0
  0
ACAD_PROXY_OBJECT
  5
40
102
{ACAD_REACTORS
330
2A
102
}
330
2A
100
AcDbProxyObject
 90
      499
 91
      501
 93
      404
310
41560B54985E51940902404000000000000E03F0000000000000F9010740501907004050150841D405064090740C02480A1B40
1001
ACAD
1000
AcDbSavedByObjectVersion
1070
     0
  0
XRECORD
  5
3E8
102
{ACAD_REACTORS
330
3DE
102
}
330
3DE
100
AcDbXrecord
340
0
  0
XRECORD
  5
3E7
102
{ACAD_REACTORS
330
3DE
102
}
330
3DE
100
AcDbXrecord
 90
        0
  0
XRECORD
  5
3FE
102
{ACAD_REACTORS
330
3DE
102
}
330
3DE
100
AcDbXrecord
1000
DSTYLE
1002
{
1070
   171
 70
     2
1070
   143
 40
25.4
1070
   274
 70
     2
1070
    41
 40
0.18
1070
   141
 40
0.09
1070
   271
 70
     4
1070
    43
 40
0.38
1070
   278
 70
    46
1070
    44
 40
0.18
1070
    42
 40
0.0625
1070
   147
 40
0.09
1070
    77
 70
     0
1070
   272
 70
     4
1070
    73
 70
     1
1070
   279
 70
     2
1070
   172
 70
     0
1070
    74
 70
     1
1070
   283
 70
     1
1070
   340
340
11
1070
   140
 40
0.18
1070
   284
 70
     0
1070
    78
 70
     0
1002
}
  0
XRECORD
  5
3E9
102
{ACAD_REACTORS
330
3DE
102
}
330
3DE
100
AcDbXrecord
  1
{ec338543-99e2-4bbf-9c29-228ff452a934}
  0
XRECORD
  5
3E1
102
{ACAD_REACTORS
330
3DE
102
}
330
3DE
100
AcDbXrecord
  1

  0
XRECORD
  5
3E6
102
{ACAD_REACTORS
330
3DE
102
}
330
3DE
100
AcDbXrecord
 90
        4
  0
XRECORD
  5
3E3
102
{ACAD_REACTORS
330
3DE
102
}
330
3DE
100
AcDbXrecord
340
1A
  0
XRECORD
  5
3E5
102
{ACAD_REACTORS
330
3DE
102
}
330
3DE
100
AcDbXrecord
 90
    10781
  0
XRECORD
  5
3E4
102
{ACAD_REACTORS
330
3DE
102
}
330
3DE
100
AcDbXrecord
340
19
  0
XRECORD
  5
3EB
102
{ACAD_REACTORS
330
3DE
102
}
330
3DE
100
AcDbXrecord
 40
0.0
  0
XRECORD
  5
3EE
102
{ACAD_REACTORS
330
3DE
102
}
330
3DE
100
AcDbXrecord
340
0
  0
XRECORD
  5
3F4
102
{ACAD_REACTORS
330
3DE
102
}
330
3DE
100
AcDbXrecord
 10
0.0
 20
0.0
 30
0.0
  0
XRECORD
  5
3F0
102
{ACAD_REACTORS
330
3DE
102
}
330
3DE
100
AcDbXrecord
 10
0.0
 20
0.0
 30
0.0
  0
XRECORD
  5
3F3
102
{ACAD_REACTORS
330
3DE
102
}
330
3DE
100
AcDbXrecord
 10
0.0
 20
0.0
 30
0.0
  0
XRECORD
  5
3F1
102
{ACAD_REACTORS
330
3DE
102
}
330
3DE
100
AcDbXrecord
 10
0.0
 20
0.0
 30
0.0
  0
XRECORD
  5
3F2
102
{ACAD_REACTORS
330
3DE
102
}
330
3DE
100
AcDbXrecord
 10
0.0
 20
0.0
 30
0.0
  0
XRECORD
  5
3EF
102
{ACAD_REACTORS
330
3DE
102
}
330
3DE
100
AcDbXrecord
 10
0.0
 20
0.0
 30
0.0
  0
XRECORD
  5
3EC
102
{ACAD_REACTORS
330
3DE
102
}
330
3DE
100
AcDbXrecord
340
0
  0
XRECORD
  5
3ED
102
{ACAD_REACTORS
330
3DE
102
}
330
3DE
100
AcDbXrecord
 70
     0
  0
XRECORD
  5
3E2
102
{ACAD_REACTORS
330
3DE
102
}
330
3DE
100
AcDbXrecord
  1

  0
XRECORD
  5
3DF
102
{ACAD_REACTORS
330
3DE
102
}
330
3DE
100
AcDbXrecord
 90
        1
  0
XRECORD
  5
3E0
102
{ACAD_REACTORS
330
3DE
102
}
330
3DE
100
AcDbXrecord
 90
       70
  0
XRECORD
  5
3F7
102
{ACAD_REACTORS
330
3DE
102
}
330
3DE
100
AcDbXrecord
340
0
  0
XRECORD
  5
3FD
102
{ACAD_REACTORS
330
3DE
102
}
330
3DE
100
AcDbXrecord
 10
0.0
 20
0.0
 30
0.0
  0
XRECORD
  5
3F9
102
{ACAD_REACTORS
330
3DE
102
}
330
3DE
100
AcDbXrecord
 10
0.0
 20
0.0
 30
0.0
  0
XRECORD
  5
3FC
102
{ACAD_REACTORS
330
3DE
102
}
330
3DE
100
AcDbXrecord
 10
0.0
 20
0.0
 30
0.0
  0
XRECORD
  5
3FA
102
{ACAD_REACTORS
330
3DE
102
}
330
3DE
100
AcDbXrecord
 10
0.0
 20
0.0
 30
0.0
  0
XRECORD
  5
3FB
102
{ACAD_REACTORS
330
3DE
102
}
330
3DE
100
AcDbXrecord
 10
0.0
 20
0.0
 30
0.0
  0
XRECORD
  5
3F8
102
{ACAD_REACTORS
330
3DE
102
}
330
3DE
100
AcDbXrecord
 10
0.0
 20
0.0
 30
0.0
  0
XRECORD
  5
3F5
102
{ACAD_REACTORS
330
3DE
102
}
330
3DE
100
AcDbXrecord
340
0
  0
XRECORD
  5
3F6
102
{ACAD_REACTORS
330
3DE
102
}
330
3DE
100
AcDbXrecord
 70
     0
  0
XRECORD
  5
3EA
102
{ACAD_REACTORS
330
3DE
102
}
330
3DE
100
AcDbXrecord
  1
{FAEB1C32-E019-11D5-929B-00C0DF256EC4}
  0
DICTIONARYVAR
  5
409
102
{ACAD_REACTORS
330
3FF
102
}
330
3FF
100
DictionaryVariables
280
     0
  1
1:1
  0
DICTIONARYVAR
  5
401
102
{ACAD_REACTORS
330
3FF
102
}
330
3FF
100
DictionaryVariables
280
     0
  1
Standard
  0
DICTIONARYVAR
  5
400
102
{ACAD_REACTORS
330
3FF
102
}
330
3FF
100
DictionaryVariables
280
     0
  1
Standard
  0
DICTIONARYVAR
  5
404
102
{ACAD_REACTORS
330
3FF
102
}
330
3FF
100
DictionaryVariables
280
     0
  1
2
  0
DICTIONARYVAR
  5
405
102
{ACAD_REACTORS
330
3FF
102
}
330
3FF
100
DictionaryVariables
280
     0
  1
1
  0
DICTIONARYVAR
  5
40A
102
{ACAD_REACTORS
330
3FF
102
}
330
3FF
100
DictionaryVariables
280
     0
  1
1
  0
DICTIONARY
  5
40D
330
45
100
AcDbDictionary
280
     1
  3
ACAD_XREC_ROUNDTRIP
360
40E
  0
DICTIONARY
  5
40B
330
44
100
AcDbDictionary
280
     1
  3
ACAD_XREC_ROUNDTRIP
360
40C
  0
DICTIONARY
  5
40F
330
46
100
AcDbDictionary
280
     1
  3
ACAD_XREC_ROUNDTRIP
360
410
  0
XRECORD
  5
40E
102
{ACAD_REACTORS
330
40D
102
}
330
40D
100
AcDbXrecord
102
MATERIAL
148
0.0
149
0.0
149
0.0
 93
        0
 94
      127
282
     0
 72
     1
 77
     1
171
     1
175
     1
179
     1
273
     0
  0
XRECORD
  5
40C
102
{ACAD_REACTORS
330
40B
102
}
330
40B
100
AcDbXrecord
102
MATERIAL
148
0.0
149
0.0
149
0.0
 93
        0
 94
      127
282
     0
 72
     1
 77
     1
171
     1
175
     1
179
     1
273
     0
  0
XRECORD
  5
410
102
{ACAD_REACTORS
330
40F
102
}
330
40F
100
AcDbXrecord
102
MATERIAL
148
0.0
149
0.0
149
0.0
 93
        0
 94
      127
282
     0
 72
     1
 77
     1
171
     1
175
     1
179
     1
273
     0
  0
ENDSEC
  0
EOF
