  0
SECTION
  2
HEADER
  9
$ACADVER
  1
AC1014
  9
$ACADMAINTVER
 70
     9
  9
$DWGCODEPAGE
  3
ANSI_1252
  9
$INSBASE
 10
0.0
 20
0.0
 30
0.0
  9
$EXTMIN
 10
-1199.751450847332
 20
-150.298132058866
 30
0.0
  9
$EXTMAX
 10
1199.748535111139
 20
139.2044109588023
 30
0.0
  9
$LIMMIN
 10
0.0
 20
0.0
  9
$LIMMAX
 10
12.0
 20
9.0
  9
$ORTHOMODE
 70
     0
  9
$REGENMODE
 70
     1
  9
$FILLMODE
 70
     1
  9
$QTEXTMODE
 70
     0
  9
$MIRRTEXT
 70
     1
  9
$DRAGMODE
 70
     2
  9
$LTSCALE
 40
1.0
  9
$OSMODE
 70
    37
  9
$ATTMODE
 70
     1
  9
$TEXTSIZE
 40
0.2
  9
$TRACEWID
 40
0.05
  9
$TEXTSTYLE
  7
STANDARD
  9
$CLAYER
  8
0
  9
$CELTYPE
  6
BYLAYER
  9
$CECOLOR
 62
   256
  9
$CELTSCALE
 40
1.0
  9
$DELOBJ
 70
     1
  9
$DISPSILH
 70
     0
  9
$DIMSCALE
 40
1.0
  9
$DIMASZ
 40
0.18
  9
$DIMEXO
 40
0.0625
  9
$DIMDLI
 40
0.38
  9
$DIMRND
 40
0.0
  9
$DIMDLE
 40
0.0
  9
$DIMEXE
 40
0.18
  9
$DIMTP
 40
0.0
  9
$DIMTM
 40
0.0
  9
$DIMTXT
 40
0.18
  9
$DIMCEN
 40
0.09
  9
$DIMTSZ
 40
0.0
  9
$DIMTOL
 70
     0
  9
$DIMLIM
 70
     0
  9
$DIMTIH
 70
     1
  9
$DIMTOH
 70
     1
  9
$DIMSE1
 70
     0
  9
$DIMSE2
 70
     0
  9
$DIMTAD
 70
     0
  9
$DIMZIN
 70
     0
  9
$DIMBLK
  1

  9
$DIMASO
 70
     1
  9
$DIMSHO
 70
     1
  9
$DIMPOST
  1

  9
$DIMAPOST
  1

  9
$DIMALT
 70
     0
  9
$DIMALTD
 70
     2
  9
$DIMALTF
 40
25.4
  9
$DIMLFAC
 40
1.0
  9
$DIMTOFL
 70
     0
  9
$DIMTVP
 40
0.0
  9
$DIMTIX
 70
     0
  9
$DIMSOXD
 70
     0
  9
$DIMSAH
 70
     0
  9
$DIMBLK1
  1

  9
$DIMBLK2
  1

  9
$DIMSTYLE
  2
STANDARD_ACAD
  9
$DIMCLRD
 70
     0
  9
$DIMCLRE
 70
     0
  9
$DIMCLRT
 70
     0
  9
$DIMTFAC
 40
1.0
  9
$DIMGAP
 40
0.09
  9
$DIMJUST
 70
     0
  9
$DIMSD1
 70
     0
  9
$DIMSD2
 70
     0
  9
$DIMTOLJ
 70
     1
  9
$DIMTZIN
 70
     0
  9
$DIMALTZ
 70
     0
  9
$DIMALTTZ
 70
     0
  9
$DIMFIT
 70
     5
  9
$DIMUPT
 70
     0
  9
$DIMUNIT
 70
     2
  9
$DIMDEC
 70
     4
  9
$DIMTDEC
 70
     4
  9
$DIMALTU
 70
     2
  9
$DIMALTTD
 70
     2
  9
$DIMTXSTY
  7
STANDARD
  9
$DIMAUNIT
 70
     0
  9
$LUNITS
 70
     2
  9
$LUPREC
 70
     3
  9
$SKETCHINC
 40
0.1
  9
$FILLETRAD
 40
0.0
  9
$AUNITS
 70
     0
  9
$AUPREC
 70
     0
  9
$MENU
  1
.
  9
$ELEVATION
 40
0.0
  9
$PELEVATION
 40
0.0
  9
$THICKNESS
 40
0.0
  9
$LIMCHECK
 70
     0
  9
$CHAMFERA
 40
0.0
  9
$CHAMFERB
 40
0.0
  9
$CHAMFERC
 40
0.0
  9
$CHAMFERD
 40
0.0
  9
$SKPOLY
 70
     0
  9
$TDCREATE
 40
2461243.667088449
  9
$TDUPDATE
 40
2461243.6670886
  9
$TDINDWG
 40
0.0000000116
  9
$TDUSRTIMER
 40
0.0000000116
  9
$USRTIMER
 70
     1
  9
$ANGBASE
 50
0.0
  9
$ANGDIR
 70
     0
  9
$PDMODE
 70
     0
  9
$PDSIZE
 40
0.0
  9
$PLINEWID
 40
0.0
  9
$COORDS
 70
     1
  9
$SPLFRAME
 70
     0
  9
$SPLINETYPE
 70
     6
  9
$SPLINESEGS
 70
     8
  9
$ATTDIA
 70
     0
  9
$ATTREQ
 70
     1
  9
$HANDLING
 70
     1
  9
$HANDSEED
  5
446
  9
$SURFTAB1
 70
     6
  9
$SURFTAB2
 70
     6
  9
$SURFTYPE
 70
     6
  9
$SURFU
 70
     6
  9
$SURFV
 70
     6
  9
$UCSNAME
  2

  9
$UCSORG
 10
0.0
 20
0.0
 30
0.0
  9
$UCSXDIR
 10
1.0
 20
0.0
 30
0.0
  9
$UCSYDIR
 10
0.0
 20
1.0
 30
0.0
  9
$PUCSNAME
  2

  9
$PUCSORG
 10
0.0
 20
0.0
 30
0.0
  9
$PUCSXDIR
 10
1.0
 20
0.0
 30
0.0
  9
$PUCSYDIR
 10
0.0
 20
1.0
 30
0.0
  9
$USERI1
 70
     0
  9
$USERI2
 70
     0
  9
$USERI3
 70
     0
  9
$USERI4
 70
     0
  9
$USERI5
 70
     0
  9
$USERR1
 40
0.0
  9
$USERR2
 40
0.0
  9
$USERR3
 40
0.0
  9
$USERR4
 40
0.0
  9
$USERR5
 40
0.0
  9
$WORLDVIEW
 70
     1
  9
$SHADEDGE
 70
     3
  9
$SHADEDIF
 70
    70
  9
$TILEMODE
 70
     1
  9
$MAXACTVP
 70
    64
  9
$PINSBASE
 10
0.0
 20
0.0
 30
0.0
  9
$PLIMCHECK
 70
     0
  9
$PEXTMIN
 10
1.000000000000000E+20
 20
1.000000000000000E+20
 30
1.000000000000000E+20
  9
$PEXTMAX
 10
-1.000000000000000E+20
 20
-1.000000000000000E+20
 30
-1.000000000000000E+20
  9
$PLIMMIN
 10
0.0
 20
0.0
  9
$PLIMMAX
 10
12.0
 20
9.0
  9
$UNITMODE
 70
     0
  9
$VISRETAIN
 70
     1
  9
$PLINEGEN
 70
     0
  9
$PSLTSCALE
 70
     1
  9
$TREEDEPTH
 70
  3020
  9
$PICKSTYLE
 70
     1
  9
$CMLSTYLE
  2
STANDARD
  9
$CMLJUST
 70
     0
  9
$CMLSCALE
 40
1.0
  9
$PROXYGRAPHICS
 70
     1
  9
$MEASUREMENT
 70
     1
  0
ENDSEC
  0
SECTION
  2
CLASSES
  0
CLASS
  1
ACDBDICTIONARYWDFLT
  2
AcDbDictionaryWithDefault
  3
ObjectDBX Classes
 90
        0
280
     0
281
     0
  0
CLASS
  1
VISUALSTYLE
  2
AcDbVisualStyle
  3
ObjectDBX Classes
 90
     4095
280
     0
281
     0
  0
CLASS
  1
MATERIAL
  2
AcDbMaterial
  3
ObjectDBX Classes
 90
     1153
280
     0
281
     0
  0
CLASS
  1
SCALE
  2
AcDbScale
  3
ObjectDBX Classes
 90
     1153
280
     0
281
     0
  0
CLASS
  1
TABLESTYLE
  2
AcDbTableStyle
  3
ObjectDBX Classes
 90
     4095
280
     0
281
     0
  0
CLASS
  1
MLEADERSTYLE
  2
AcDbMLeaderStyle
  3
ACDB_MLEADERSTYLE_CLASS
 90
     4095
280
     0
281
     0
  0
CLASS
  1
SUN
  2
AcDbSun
  3
SCENEOE
 90
     1153
280
     0
281
     0
  0
CLASS
  1
DICTIONARYVAR
  2
AcDbDictionaryVar
  3
ObjectDBX Classes
 90
        0
280
     0
281
     0
  0
CLASS
  1
XRECORD
  2
AcDbXrecord
  3
ObjectDBX Classes
 90
        0
280
     0
281
     0
  0
CLASS
  1
LWPOLYLINE
  2
AcDbPolyline
  3
ObjectDBX Classes
 90
        0
280
     0
281
     1
  0
CLASS
  1
HATCH
  2
AcDbHatch
  3
ObjectDBX Classes
 90
        0
280
     0
281
     1
  0
CLASS
  1
ACDBPLACEHOLDER
  2
AcDbPlaceHolder
  3
ObjectDBX Classes
 90
        0
280
     0
281
     0
  0
CLASS
  1
LAYOUT
  2
AcDbLayout
  3
ObjectDBX Classes
 90
        0
280
     0
281
     0
  0
ENDSEC
  0
SECTION
  2
TABLES
  0
TABLE
  2
VPORT
  5
8
102
{ACAD_XDICTIONARY
360
43B
102
}
330
0
100
AcDbSymbolTable
 70
     1
  0
VPORT
  5
29
330
8
100
AcDbSymbolTableRecord
100
AcDbViewportTableRecord
  2
*ACTIVE
 70
     0
 10
0.0
 20
0.0
 11
1.0
 21
1.0
 12
10.42990654205607
 22
4.5
 13
0.0
 23
0.0
 14
0.5
 24
0.5
 15
0.5
 25
0.5
 16
0.0
 26
0.0
 36
1.0
 17
0.0
 27
0.0
 37
0.0
 40
9.0
 41
1.972972972850329
 42
50.0
 43
0.0
 44
0.0
 50
0.0
 51
0.0
 71
     0
 72
   100
 73
     1
 74
     3
 75
     0
 76
     0
 77
     0
 78
     0
  0
ENDTAB
  0
TABLE
  2
LTYPE
  5
5
330
0
100
AcDbSymbolTable
 70
     1
  0
LTYPE
  5
14
330
5
100
AcDbSymbolTableRecord
100
AcDbLinetypeTableRecord
  2
BYBLOCK
 70
     0
  3

 72
    65
 73
     0
 40
0.0
  0
LTYPE
  5
15
330
5
100
AcDbSymbolTableRecord
100
AcDbLinetypeTableRecord
  2
BYLAYER
 70
     0
  3

 72
    65
 73
     0
 40
0.0
  0
LTYPE
  5
16
330
5
100
AcDbSymbolTableRecord
100
AcDbLinetypeTableRecord
  2
CONTINUOUS
 70
     0
  3
Solid line
 72
    65
 73
     0
 40
0.0
  0
ENDTAB
  0
TABLE
  2
LAYER
  5
2
330
0
100
AcDbSymbolTable
 70
     3
  0
LAYER
  5
10
330
2
100
AcDbSymbolTableRecord
100
AcDbLayerTableRecord
  2
0
 70
     0
 62
     7
  6
CONTINUOUS
  0
LAYER
  5
5F
330
2
100
AcDbSymbolTableRecord
100
AcDbLayerTableRecord
  2
1_ANYTOOL_1MMDEEP_LABELS_S
 70
     0
 62
     2
  6
CONTINUOUS
  0
LAYER
  5
31B
330
2
100
AcDbSymbolTableRecord
100
AcDbLayerTableRecord
  2
4_ANYTOOL_CUTTHROUGH_OUTSI
 70
     0
 62
     5
  6
CONTINUOUS
  0
ENDTAB
  0
TABLE
  2
STYLE
  5
3
330
0
100
AcDbSymbolTable
 70
     1
  0
STYLE
  5
11
330
3
100
AcDbSymbolTableRecord
100
AcDbTextStyleTableRecord
  2
STANDARD
 70
     0
 40
0.0
 41
1.0
 50
0.0
 71
     0
 42
0.2
  3
txt
  4

  0
ENDTAB
  0
TABLE
  2
VIEW
  5
6
330
0
100
AcDbSymbolTable
 70
     0
  0
ENDTAB
  0
TABLE
  2
UCS
  5
7
330
0
100
AcDbSymbolTable
 70
     0
  0
ENDTAB
  0
TABLE
  2
APPID
  5
9
330
0
100
AcDbSymbolTable
 70
     3
  0
APPID
  5
12
330
9
100
AcDbSymbolTableRecord
100
AcDbRegAppTableRecord
  2
ACAD
 70
     0
  0
APPID
  5
5E
330
9
100
AcDbSymbolTableRecord
100
AcDbRegAppTableRecord
  2
RHINO
 70
     0
  0
APPID
  5
445
330
9
100
AcDbSymbolTableRecord
100
AcDbRegAppTableRecord
  2
ACAD_MLEADERVER
 70
     0
  0
ENDTAB
  0
TABLE
  2
DIMSTYLE
  5
A
330
0
100
AcDbSymbolTable
 70
     1
  0
DIMSTYLE
105
27
330
A
100
AcDbSymbolTableRecord
100
AcDbDimStyleTableRecord
  2
STANDARD_ACAD
 70
     0
  3

  4

  5

  6

  7

 40
1.0
 41
0.18
 42
0.0625
 43
0.38
 44
0.18
 45
0.0
 46
0.0
 47
0.0
 48
0.0
140
0.18
141
0.09
142
0.0
143
25.4
144
1.0
145
0.0
146
1.0
147
0.09
 71
     0
 72
     0
 73
     1
 74
     1
 75
     0
 76
     0
 77
     0
 78
     0
170
     0
171
     2
172
     0
173
     0
174
     0
175
     0
176
     0
177
     0
178
     0
270
     2
271
     4
272
     4
273
     2
274
     2
340
11
275
     0
280
     0
281
     0
282
     0
283
     1
284
     0
285
     0
286
     0
287
     3
288
     0
  0
ENDTAB
  0
TABLE
  2
BLOCK_RECORD
  5
1
330
0
100
AcDbSymbolTable
 70
     0
  0
BLOCK_RECORD
  5
1F
330
1
100
AcDbSymbolTableRecord
100
AcDbBlockTableRecord
  2
*MODEL_SPACE
  0
BLOCK_RECORD
  5
1B
330
1
100
AcDbSymbolTableRecord
100
AcDbBlockTableRecord
  2
*PAPER_SPACE
  0
ENDTAB
  0
ENDSEC
  0
SECTION
  2
BLOCKS
  0
BLOCK
  5
20
330
1F
100
AcDbEntity
  8
0
100
AcDbBlockBegin
  2
*MODEL_SPACE
 70
     0
 10
0.0
 20
0.0
 30
0.0
  3
*MODEL_SPACE
  1

  0
ENDBLK
  5
21
330
1F
100
AcDbEntity
  8
0
100
AcDbBlockEnd
  0
BLOCK
  5
1C
330
1B
100
AcDbEntity
 67
     1
  8
0
100
AcDbBlockBegin
  2
*PAPER_SPACE
 70
     0
 10
0.0
 20
0.0
 30
0.0
  3
*PAPER_SPACE
  1

  0
ENDBLK
  5
1D
330
1B
100
AcDbEntity
 67
     1
  8
0
100
AcDbBlockEnd
  0
ENDSEC
  0
SECTION
  2
ENTITIES
  0
POLYLINE
  5
60
330
1F
100
AcDbEntity
  8
1_ANYTOOL_1MMDEEP_LABELS_S
100
AcDb2dPolyline
 66
     1
 10
0.0
 20
0.0
 30
0.0
  0
VERTEX
  5
61
330
60
100
AcDbEntity
  8
1_ANYTOOL_1MMDEEP_LABELS_S
100
AcDbVertex
100
AcDb2dVertex
 10
1.285714285710128
 20
0.0000000000145519
 30
0.0
  0
VERTEX
  5
62
330
60
100
AcDbEntity
  8
1_ANYTOOL_1MMDEEP_LABELS_S
100
AcDbVertex
100
AcDb2dVertex
 10
8.999999999992724
 20
-29.99999999998545
 30
0.0
  0
VERTEX
  5
63
330
60
100
AcDbEntity
  8
1_ANYTOOL_1MMDEEP_LABELS_S
100
AcDbVertex
100
AcDb2dVertex
 10
17.4428571428507
 20
-0.8999999999869033
 30
0.0
  0
VERTEX
  5
64
330
60
100
AcDbEntity
  8
1_ANYTOOL_1MMDEEP_LABELS_S
100
AcDbVertex
100
AcDb2dVertex
 10
25.92857142856519
 20
-29.99999999998545
 30
0.0
  0
VERTEX
  5
65
330
60
100
AcDbEntity
  8
1_ANYTOOL_1MMDEEP_LABELS_S
100
AcDbVertex
100
AcDb2dVertex
 10
33.42857142856519
 20
0.0000000000145519
 30
0.0
  0
SEQEND
  5
66
330
60
100
AcDbEntity
  8
1_ANYTOOL_1MMDEEP_LABELS_S
  0
LINE
  5
67
330
1F
100
AcDbEntity
  8
1_ANYTOOL_1MMDEEP_LABELS_S
100
AcDbLine
 10
45.64285714284779
 20
-16.1142857142695
 30
0.0
 11
36.85714285713766
 21
-16.19999999998254
 31
0.0
  0
POLYLINE
  5
68
330
1F
100
AcDbEntity
  8
1_ANYTOOL_1MMDEEP_LABELS_S
100
AcDb2dPolyline
 66
     1
 10
0.0
 20
0.0
 30
0.0
 70
     1
  0
VERTEX
  5
69
330
68
100
AcDbEntity
  8
1_ANYTOOL_1MMDEEP_LABELS_S
100
AcDbVertex
100
AcDb2dVertex
 10
61.71428571427532
 20
0.3428571428739815
 30
0.0
  0
VERTEX
  5
6A
330
68
100
AcDbEntity
  8
1_ANYTOOL_1MMDEEP_LABELS_S
100
AcDbVertex
100
AcDb2dVertex
 10
62.08577008927534
 20
0.3369977678739815
 30
0.0
  0
VERTEX
  5
6B
330
68
100
AcDbEntity
  8
1_ANYTOOL_1MMDEEP_LABELS_S
100
AcDbVertex
100
AcDb2dVertex
 10
62.45022321427541
 20
0.3194196428739815
 30
0.0
  0
VERTEX
  5
6C
330
68
100
AcDbEntity
  8
1_ANYTOOL_1MMDEEP_LABELS_S
100
AcDbVertex
100
AcDb2dVertex
 10
62.80764508927552
 20
0.2901227678739815
 30
0.0
  0
VERTEX
  5
6D
330
68
100
AcDbEntity
  8
1_ANYTOOL_1MMDEEP_LABELS_S
100
AcDbVertex
100
AcDb2dVertex
 10
62.9837193080256
 20
0.2710797991239815
 30
0.0
  0
VERTEX
  5
6E
330
68
100
AcDbEntity
  8
1_ANYTOOL_1MMDEEP_LABELS_S
100
AcDbVertex
100
AcDb2dVertex
 10
63.15803571427568
 20
0.2491071428739815
 30
0.0
  0
VERTEX
  5
6F
330
68
100
AcDbEntity
  8
1_ANYTOOL_1MMDEEP_LABELS_S
100
AcDbVertex
100
AcDb2dVertex
 10
63.33059430802578
 20
0.2242047991239815
 30
0.0
  0
VERTEX
  5
70
330
68
100
AcDbEntity
  8
1_ANYTOOL_1MMDEEP_LABELS_S
100
AcDbVertex
100
AcDb2dVertex
 10
63.50139508927589
 20
0.1963727678739815
 30
0.0
  0
VERTEX
  5
71
330
68
100
AcDbEntity
  8
1_ANYTOOL_1MMDEEP_LABELS_S
100
AcDbVertex
100
AcDb2dVertex
 10
63.67043805802601
 20
0.1656110491239815
 30
0.0
  0
VERTEX
  5
72
330
68
100
AcDbEntity
  8
1_ANYTOOL_1MMDEEP_LABELS_S
100
AcDbVertex
100
AcDb2dVertex
 10
63.83772321427614
 20
0.1319196428739815
 30
0.0
  0
VERTEX
  5
73
330
68
100
AcDbEntity
  8
1_ANYTOOL_1MMDEEP_LABELS_S
100
AcDbVertex
100
AcDb2dVertex
 10
64.00325055802628
 20
0.0952985491239815
 30
0.0
  0
VERTEX
  5
74
330
68
100
AcDbEntity
  8
1_ANYTOOL_1MMDEEP_LABELS_S
100
AcDbVertex
100
AcDb2dVertex
 10
64.16702008927643
 20
0.0557477678739815
 30
0.0
  0
VERTEX
  5
75
330
68
100
AcDbEntity
  8
1_ANYTOOL_1MMDEEP_LABELS_S
100
AcDbVertex
100
AcDb2dVertex
 10
64.3290318080266
 20
0.0132672991239815
 30
0.0
  0
VERTEX
  5
76
330
68
100
AcDbEntity
  8
1_ANYTOOL_1MMDEEP_LABELS_S
100
AcDbVertex
100
AcDb2dVertex
 10
64.48928571427678
 20
-0.0321428571260185
 30
0.0
  0
VERTEX
  5
77
330
68
100
AcDbEntity
  8
1_ANYTOOL_1MMDEEP_LABELS_S
100
AcDbVertex
100
AcDb2dVertex
 10
64.64778180802696
 20
-0.0804827008760185
 30
0.0
  0
VERTEX
  5
78
330
68
100
AcDbEntity
  8
1_ANYTOOL_1MMDEEP_LABELS_S
100
AcDbVertex
100
AcDb2dVertex
 10
64.80452008927716
 20
-0.1317522321260185
 30
0.0
  0
VERTEX
  5
79
330
68
100
AcDbEntity
  8
1_ANYTOOL_1MMDEEP_LABELS_S
100
AcDbVertex
100
AcDb2dVertex
 10
64.95950055802737
 20
-0.1859514508760185
 30
0.0
  0
VERTEX
  5
7A
330
68
100
AcDbEntity
  8
1_ANYTOOL_1MMDEEP_LABELS_S
100
AcDbVertex
100
AcDb2dVertex
 10
65.1127232142776
 20
-0.2430803571260185
 30
0.0
  0
VERTEX
  5
7B
330
68
100
AcDbEntity
  8
1_ANYTOOL_1MMDEEP_LABELS_S
100
AcDbVertex
100
AcDb2dVertex
 10
65.26418805802783
 20
-0.3031389508760185
 30
0.0
  0
VERTEX
  5
7C
330
68
100
AcDbEntity
  8
1_ANYTOOL_1MMDEEP_LABELS_S
100
AcDbVertex
100
AcDb2dVertex
 10
65.41389508927807
 20
-0.3661272321260185
 30
0.0
  0
VERTEX
  5
7D
330
68
100
AcDbEntity
  8
1_ANYTOOL_1MMDEEP_LABELS_S
100
AcDbVertex
100
AcDb2dVertex
 10
65.56184430802833
 20
-0.4320452008760185
 30
0.0
  0
VERTEX
  5
7E
330
68
100
AcDbEntity
  8
1_ANYTOOL_1MMDEEP_LABELS_S
100
AcDbVertex
100
AcDb2dVertex
 10
65.7080357142786
 20
-0.5008928571260185
 30
0.0
  0
VERTEX
  5
7F
330
68
100
AcDbEntity
  8
1_ANYTOOL_1MMDEEP_LABELS_S
100
AcDbVertex
100
AcDb2dVertex
 10
65.85246930802887
 20
-0.5726702008760185
 30
0.0
  0
VERTEX
  5
80
330
68
100
AcDbEntity
  8
1_ANYTOOL_1MMDEEP_LABELS_S
100
AcDbVertex
100
AcDb2dVertex
 10
65.99514508927916
 20
-0.6473772321260185
 30
0.0
  0
VERTEX
  5
81
330
68
100
AcDbEntity
  8
1_ANYTOOL_1MMDEEP_LABELS_S
100
AcDbVertex
100
AcDb2dVertex
 10
66.13606305802946
 20
-0.7250139508760185
 30
0.0
  0
VERTEX
  5
82
330
68
100
AcDbEntity
  8
1_ANYTOOL_1MMDEEP_LABELS_S
100
AcDbVertex
100
AcDb2dVertex
 10
66.27522321427978
 20
-0.8055803571260185
 30
0.0
  0
VERTEX
  5
83
330
68
100
AcDbEntity
  8
1_ANYTOOL_1MMDEEP_LABELS_S
100
AcDbVertex
100
AcDb2dVertex
 10
66.4126255580301
 20
-0.8890764508760185
 30
0.0
  0
VERTEX
  5
84
330
68
100
AcDbEntity
  8
1_ANYTOOL_1MMDEEP_LABELS_S
100
AcDbVertex
100
AcDb2dVertex
 10
66.54827008928044
 20
-0.9755022321260185
 30
0.0
  0
VERTEX
  5
85
330
68
100
AcDbEntity
  8
1_ANYTOOL_1MMDEEP_LABELS_S
100
AcDbVertex
100
AcDb2dVertex
 10
66.68215680803078
 20
-1.064857700876018
 30
0.0
  0
VERTEX
  5
86
330
68
100
AcDbEntity
  8
1_ANYTOOL_1MMDEEP_LABELS_S
100
AcDbVertex
100
AcDb2dVertex
 10
67.0737723214238
 20
-1.342466517840393
 30
0.0
  0
VERTEX
  5
87
330
68
100
AcDbEntity
  8
1_ANYTOOL_1MMDEEP_LABELS_S
100
AcDbVertex
100
AcDb2dVertex
 10
67.32723214285215
 20
-1.534151785697645
 30
0.0
  0
VERTEX
  5
88
330
68
100
AcDbEntity
  8
1_ANYTOOL_1MMDEEP_LABELS_S
100
AcDbVertex
100
AcDb2dVertex
 10
67.57466517856619
 20
-1.732198660697776
 30
0.0
  0
VERTEX
  5
89
330
68
100
AcDbEntity
  8
1_ANYTOOL_1MMDEEP_LABELS_S
100
AcDbVertex
100
AcDb2dVertex
 10
67.81607142856592
 20
-1.936607142840785
 30
0.0
  0
VERTEX
  5
8A
330
68
100
AcDbEntity
  8
1_ANYTOOL_1MMDEEP_LABELS_S
100
AcDbVertex
100
AcDb2dVertex
 10
68.05145089285134
 20
-2.147377232126672
 30
0.0
  0
VERTEX
  5
8B
330
68
100
AcDbEntity
  8
1_ANYTOOL_1MMDEEP_LABELS_S
100
AcDbVertex
100
AcDb2dVertex
 10
68.28080357142244
 20
-2.364508928555438
 30
0.0
  0
VERTEX
  5
8C
330
68
100
AcDbEntity
  8
1_ANYTOOL_1MMDEEP_LABELS_S
100
AcDbVertex
100
AcDb2dVertex
 10
68.50412946427923
 20
-2.588002232127081
 30
0.0
  0
VERTEX
  5
8D
330
68
100
AcDbEntity
  8
1_ANYTOOL_1MMDEEP_LABELS_S
100
AcDbVertex
100
AcDb2dVertex
 10
68.72142857142171
 20
-2.817857142841603
 30
0.0
  0
VERTEX
  5
8E
330
68
100
AcDbEntity
  8
1_ANYTOOL_1MMDEEP_LABELS_S
100
AcDbVertex
100
AcDb2dVertex
 10
68.93270089284988
 20
-3.054073660699004
 30
0.0
  0
VERTEX
  5
8F
330
68
100
AcDbEntity
  8
1_ANYTOOL_1MMDEEP_LABELS_S
100
AcDbVertex
100
AcDb2dVertex
 10
69.13794642856374
 20
-3.296651785699282
 30
0.0
  0
VERTEX
  5
90
330
68
100
AcDbEntity
  8
1_ANYTOOL_1MMDEEP_LABELS_S
100
AcDbVertex
100
AcDb2dVertex
 10
69.33716517856328
 20
-3.545591517842439
 30
0.0
  0
VERTEX
  5
91
330
68
100
AcDbEntity
  8
1_ANYTOOL_1MMDEEP_LABELS_S
100
AcDbVertex
100
AcDb2dVertex
 10
69.53035714284852
 20
-3.800892857128474
 30
0.0
  0
VERTEX
  5
92
330
68
100
AcDbEntity
  8
1_ANYTOOL_1MMDEEP_LABELS_S
100
AcDbVertex
100
AcDb2dVertex
 10
69.71752232141944
 20
-4.062555803557387
 30
0.0
  0
VERTEX
  5
93
330
68
100
AcDbEntity
  8
1_ANYTOOL_1MMDEEP_LABELS_S
100
AcDbVertex
100
AcDb2dVertex
 10
69.89866071427605
 20
-4.330580357129179
 30
0.0
  0
VERTEX
  5
94
330
68
100
AcDbEntity
  8
1_ANYTOOL_1MMDEEP_LABELS_S
100
AcDbVertex
100
AcDb2dVertex
 10
70.07377232141835
 20
-4.604966517843849
 30
0.0
  0
VERTEX
  5
95
330
68
100
AcDbEntity
  8
1_ANYTOOL_1MMDEEP_LABELS_S
100
AcDbVertex
100
AcDb2dVertex
 10
70.41127232141798
 20
-5.171484374986647
 30
0.0
  0
VERTEX
  5
96
330
68
100
AcDbEntity
  8
1_ANYTOOL_1MMDEEP_LABELS_S
100
AcDbVertex
100
AcDb2dVertex
 10
70.57366071427532
 20
-5.460937499986244
 30
0.0
  0
VERTEX
  5
97
330
68
100
AcDbEntity
  8
1_ANYTOOL_1MMDEEP_LABELS_S
100
AcDbVertex
100
AcDb2dVertex
 10
70.73002232141835
 20
-5.754073660700186
 30
0.0
  0
VERTEX
  5
98
330
68
100
AcDbEntity
  8
1_ANYTOOL_1MMDEEP_LABELS_S
100
AcDbVertex
100
AcDb2dVertex
 10
70.88035714284706
 20
-6.050892857128474
 30
0.0
  0
VERTEX
  5
99
330
68
100
AcDbEntity
  8
1_ANYTOOL_1MMDEEP_LABELS_S
100
AcDbVertex
100
AcDb2dVertex
 10
71.02466517856146
 20
-6.351395089271108
 30
0.0
  0
VERTEX
  5
9A
330
68
100
AcDbEntity
  8
1_ANYTOOL_1MMDEEP_LABELS_S
100
AcDbVertex
100
AcDb2dVertex
 10
71.16294642856155
 20
-6.655580357128088
 30
0.0
  0
VERTEX
  5
9B
330
68
100
AcDbEntity
  8
1_ANYTOOL_1MMDEEP_LABELS_S
100
AcDbVertex
100
AcDb2dVertex
 10
71.29520089284733
 20
-6.963448660699413
 30
0.0
  0
VERTEX
  5
9C
330
68
100
AcDbEntity
  8
1_ANYTOOL_1MMDEEP_LABELS_S
100
AcDbVertex
100
AcDb2dVertex
 10
71.4214285714188
 20
-7.274999999985084
 30
0.0
  0
VERTEX
  5
9D
330
68
100
AcDbEntity
  8
1_ANYTOOL_1MMDEEP_LABELS_S
100
AcDbVertex
100
AcDb2dVertex
 10
71.54162946427596
 20
-7.590234374985101
 30
0.0
  0
VERTEX
  5
9E
330
68
100
AcDbEntity
  8
1_ANYTOOL_1MMDEEP_LABELS_S
100
AcDbVertex
100
AcDb2dVertex
 10
71.6558035714188
 20
-7.909151785699464
 30
0.0
  0
VERTEX
  5
9F
330
68
100
AcDbEntity
  8
1_ANYTOOL_1MMDEEP_LABELS_S
100
AcDbVertex
100
AcDb2dVertex
 10
71.76395089284733
 20
-8.231752232128173
 30
0.0
  0
VERTEX
  5
A0
330
68
100
AcDbEntity
  8
1_ANYTOOL_1MMDEEP_LABELS_S
100
AcDbVertex
100
AcDb2dVertex
 10
71.86607142856155
 20
-8.558035714271227
 30
0.0
  0
VERTEX
  5
A1
330
68
100
AcDbEntity
  8
1_ANYTOOL_1MMDEEP_LABELS_S
100
AcDbVertex
100
AcDb2dVertex
 10
71.96216517856146
 20
-8.888002232128628
 30
0.0
  0
VERTEX
  5
A2
330
68
100
AcDbEntity
  8
1_ANYTOOL_1MMDEEP_LABELS_S
100
AcDbVertex
100
AcDb2dVertex
 10
72.05223214284706
 20
-9.221651785700374
 30
0.0
  0
VERTEX
  5
A3
330
68
100
AcDbEntity
  8
1_ANYTOOL_1MMDEEP_LABELS_S
100
AcDbVertex
100
AcDb2dVertex
 10
72.13627232141835
 20
-9.558984374986466
 30
0.0
  0
VERTEX
  5
A4
330
68
100
AcDbEntity
  8
1_ANYTOOL_1MMDEEP_LABELS_S
100
AcDbVertex
100
AcDb2dVertex
 10
72.36495535713368
 20
-10.58236607141464
 30
0.0
  0
VERTEX
  5
A5
330
68
100
AcDbEntity
  8
1_ANYTOOL_1MMDEEP_LABELS_S
100
AcDbVertex
100
AcDb2dVertex
 10
72.4955357142776
 20
-11.25803571427105
 30
0.0
  0
VERTEX
  5
A6
330
68
100
AcDbEntity
  8
1_ANYTOOL_1MMDEEP_LABELS_S
100
AcDbVertex
100
AcDb2dVertex
 10
72.60602678570706
 20
-11.92700892855612
 30
0.0
  0
VERTEX
  5
A7
330
68
100
AcDbEntity
  8
1_ANYTOOL_1MMDEEP_LABELS_S
100
AcDbVertex
100
AcDb2dVertex
 10
72.69642857142208
 20
-12.58928571426986
 30
0.0
  0
VERTEX
  5
A8
330
68
100
AcDbEntity
  8
1_ANYTOOL_1MMDEEP_LABELS_S
100
AcDbVertex
100
AcDb2dVertex
 10
72.76674107142264
 20
-13.24486607141228
 30
0.0
  0
VERTEX
  5
A9
330
68
100
AcDbEntity
  8
1_ANYTOOL_1MMDEEP_LABELS_S
100
AcDbVertex
100
AcDb2dVertex
 10
72.81696428570876
 20
-13.89374999998336
 30
0.0
  0
VERTEX
  5
AA
330
68
100
AcDbEntity
  8
1_ANYTOOL_1MMDEEP_LABELS_S
100
AcDbVertex
100
AcDb2dVertex
 10
72.84709821428044
 20
-14.53593749998311
 30
0.0
  0
VERTEX
  5
AB
330
68
100
AcDbEntity
  8
1_ANYTOOL_1MMDEEP_LABELS_S
100
AcDbVertex
100
AcDb2dVertex
 10
72.85714285713766
 20
-15.17142857141152
 30
0.0
  0
VERTEX
  5
AC
330
68
100
AcDbEntity
  8
1_ANYTOOL_1MMDEEP_LABELS_S
100
AcDbVertex
100
AcDb2dVertex
 10
72.84626116070908
 20
-15.80892857141222
 30
0.0
  0
VERTEX
  5
AD
330
68
100
AcDbEntity
  8
1_ANYTOOL_1MMDEEP_LABELS_S
100
AcDbVertex
100
AcDb2dVertex
 10
72.81361607142333
 20
-16.44642857141287
 30
0.0
  0
VERTEX
  5
AE
330
68
100
AcDbEntity
  8
1_ANYTOOL_1MMDEEP_LABELS_S
100
AcDbVertex
100
AcDb2dVertex
 10
72.75920758928041
 20
-17.08392857141345
 30
0.0
  0
VERTEX
  5
AF
330
68
100
AcDbEntity
  8
1_ANYTOOL_1MMDEEP_LABELS_S
100
AcDbVertex
100
AcDb2dVertex
 10
72.68303571428032
 20
-17.72142857141398
 30
0.0
  0
VERTEX
  5
B0
330
68
100
AcDbEntity
  8
1_ANYTOOL_1MMDEEP_LABELS_S
100
AcDbVertex
100
AcDb2dVertex
 10
72.58510044642307
 20
-18.35892857141445
 30
0.0
  0
VERTEX
  5
B1
330
68
100
AcDbEntity
  8
1_ANYTOOL_1MMDEEP_LABELS_S
100
AcDbVertex
100
AcDb2dVertex
 10
72.46540178570865
 20
-18.99642857141487
 30
0.0
  0
VERTEX
  5
B2
330
68
100
AcDbEntity
  8
1_ANYTOOL_1MMDEEP_LABELS_S
100
AcDbVertex
100
AcDb2dVertex
 10
72.32393973213706
 20
-19.63392857141523
 30
0.0
  0
VERTEX
  5
B3
330
68
100
AcDbEntity
  8
1_ANYTOOL_1MMDEEP_LABELS_S
100
AcDbVertex
100
AcDb2dVertex
 10
72.16071428570831
 20
-20.27142857141553
 30
0.0
  0
VERTEX
  5
B4
330
68
100
AcDbEntity
  8
1_ANYTOOL_1MMDEEP_LABELS_S
100
AcDbVertex
100
AcDb2dVertex
 10
71.97572544642239
 20
-20.90892857141577
 30
0.0
  0
VERTEX
  5
B5
330
68
100
AcDbEntity
  8
1_ANYTOOL_1MMDEEP_LABELS_S
100
AcDbVertex
100
AcDb2dVertex
 10
71.7689732142793
 20
-21.54642857141596
 30
0.0
  0
VERTEX
  5
B6
330
68
100
AcDbEntity
  8
1_ANYTOOL_1MMDEEP_LABELS_S
100
AcDbVertex
100
AcDb2dVertex
 10
71.54045758927904
 20
-22.18392857141609
 30
0.0
  0
VERTEX
  5
B7
330
68
100
AcDbEntity
  8
1_ANYTOOL_1MMDEEP_LABELS_S
100
AcDbVertex
100
AcDb2dVertex
 10
71.29017857142162
 20
-22.82142857141616
 30
0.0
  0
VERTEX
  5
B8
330
68
100
AcDbEntity
  8
1_ANYTOOL_1MMDEEP_LABELS_S
100
AcDbVertex
100
AcDb2dVertex
 10
71.01813616070703
 20
-23.45892857141618
 30
0.0
  0
VERTEX
  5
B9
330
68
100
AcDbEntity
  8
1_ANYTOOL_1MMDEEP_LABELS_S
100
AcDbVertex
100
AcDb2dVertex
 10
70.72433035713527
 20
-24.09642857141614
 30
0.0
  0
VERTEX
  5
BA
330
68
100
AcDbEntity
  8
1_ANYTOOL_1MMDEEP_LABELS_S
100
AcDbVertex
100
AcDb2dVertex
 10
70.40876116070635
 20
-24.73392857141604
 30
0.0
  0
VERTEX
  5
BB
330
68
100
AcDbEntity
  8
1_ANYTOOL_1MMDEEP_LABELS_S
100
AcDbVertex
100
AcDb2dVertex
 10
70.07142857142026
 20
-25.37142857141589
 30
0.0
  0
VERTEX
  5
BC
330
68
100
AcDbEntity
  8
1_ANYTOOL_1MMDEEP_LABELS_S
100
AcDbVertex
100
AcDb2dVertex
 10
69.89686104909904
 20
-25.6851981026658
 30
0.0
  0
VERTEX
  5
BD
330
68
100
AcDbEntity
  8
1_ANYTOOL_1MMDEEP_LABELS_S
100
AcDbVertex
100
AcDb2dVertex
 10
69.71601562499211
 20
-25.98900669641571
 30
0.0
  0
VERTEX
  5
BE
330
68
100
AcDbEntity
  8
1_ANYTOOL_1MMDEEP_LABELS_S
100
AcDbVertex
100
AcDb2dVertex
 10
69.52889229909945
 20
-26.28285435266563
 30
0.0
  0
VERTEX
  5
BF
330
68
100
AcDbEntity
  8
1_ANYTOOL_1MMDEEP_LABELS_S
100
AcDbVertex
100
AcDb2dVertex
 10
69.33549107142107
 20
-26.56674107141555
 30
0.0
  0
VERTEX
  5
C0
330
68
100
AcDbEntity
  8
1_ANYTOOL_1MMDEEP_LABELS_S
100
AcDbVertex
100
AcDb2dVertex
 10
69.13581194195697
 20
-26.84066685266547
 30
0.0
  0
VERTEX
  5
C1
330
68
100
AcDbEntity
  8
1_ANYTOOL_1MMDEEP_LABELS_S
100
AcDbVertex
100
AcDb2dVertex
 10
68.92985491070715
 20
-27.1046316964154
 30
0.0
  0
VERTEX
  5
C2
330
68
100
AcDbEntity
  8
1_ANYTOOL_1MMDEEP_LABELS_S
100
AcDbVertex
100
AcDb2dVertex
 10
68.7176199776716
 20
-27.35863560266532
 30
0.0
  0
VERTEX
  5
C3
330
68
100
AcDbEntity
  8
1_ANYTOOL_1MMDEEP_LABELS_S
100
AcDbVertex
100
AcDb2dVertex
 10
68.49910714285033
 20
-27.60267857141525
 30
0.0
  0
VERTEX
  5
C4
330
68
100
AcDbEntity
  8
1_ANYTOOL_1MMDEEP_LABELS_S
100
AcDbVertex
100
AcDb2dVertex
 10
68.38749651227005
 20
-27.72096470422772
 30
0.0
  0
VERTEX
  5
C5
330
68
100
AcDbEntity
  8
1_ANYTOOL_1MMDEEP_LABELS_S
100
AcDbVertex
100
AcDb2dVertex
 10
68.27431640624334
 20
-27.83676060266519
 30
0.0
  0
VERTEX
  5
C6
330
68
100
AcDbEntity
  8
1_ANYTOOL_1MMDEEP_LABELS_S
100
AcDbVertex
100
AcDb2dVertex
 10
68.1595668247702
 20
-27.95006626672765
 30
0.0
  0
VERTEX
  5
C7
330
68
100
AcDbEntity
  8
1_ANYTOOL_1MMDEEP_LABELS_S
100
AcDbVertex
100
AcDb2dVertex
 10
68.04324776785063
 20
-28.06088169641512
 30
0.0
  0
VERTEX
  5
C8
330
68
100
AcDbEntity
  8
1_ANYTOOL_1MMDEEP_LABELS_S
100
AcDbVertex
100
AcDb2dVertex
 10
67.92535923548462
 20
-28.16920689172759
 30
0.0
  0
VERTEX
  5
C9
330
68
100
AcDbEntity
  8
1_ANYTOOL_1MMDEEP_LABELS_S
100
AcDbVertex
100
AcDb2dVertex
 10
67.8059012276722
 20
-28.27504185266506
 30
0.0
  0
VERTEX
  5
CA
330
68
100
AcDbEntity
  8
1_ANYTOOL_1MMDEEP_LABELS_S
100
AcDbVertex
100
AcDb2dVertex
 10
67.68487374441332
 20
-28.37838657922753
 30
0.0
  0
VERTEX
  5
CB
330
68
100
AcDbEntity
  8
1_ANYTOOL_1MMDEEP_LABELS_S
100
AcDbVertex
100
AcDb2dVertex
 10
67.56227678570804
 20
-28.479241071415
 30
0.0
  0
VERTEX
  5
CC
330
68
100
AcDbEntity
  8
1_ANYTOOL_1MMDEEP_LABELS_S
100
AcDbVertex
100
AcDb2dVertex
 10
67.4381103515563
 20
-28.57760532922747
 30
0.0
  0
VERTEX
  5
CD
330
68
100
AcDbEntity
  8
1_ANYTOOL_1MMDEEP_LABELS_S
100
AcDbVertex
100
AcDb2dVertex
 10
67.31237444195816
 20
-28.67347935266495
 30
0.0
  0
VERTEX
  5
CE
330
68
100
AcDbEntity
  8
1_ANYTOOL_1MMDEEP_LABELS_S
100
AcDbVertex
100
AcDb2dVertex
 10
67.18506905691356
 20
-28.76686314172742
 30
0.0
  0
VERTEX
  5
CF
330
68
100
AcDbEntity
  8
1_ANYTOOL_1MMDEEP_LABELS_S
100
AcDbVertex
100
AcDb2dVertex
 10
67.05619419642255
 20
-28.8577566964149
 30
0.0
  0
VERTEX
  5
D0
330
68
100
AcDbEntity
  8
1_ANYTOOL_1MMDEEP_LABELS_S
100
AcDbVertex
100
AcDb2dVertex
 10
66.9257498604851
 20
-28.94616001672737
 30
0.0
  0
VERTEX
  5
D1
330
68
100
AcDbEntity
  8
1_ANYTOOL_1MMDEEP_LABELS_S
100
AcDbVertex
100
AcDb2dVertex
 10
66.79373604910123
 20
-29.03207310266485
 30
0.0
  0
VERTEX
  5
D2
330
68
100
AcDbEntity
  8
1_ANYTOOL_1MMDEEP_LABELS_S
100
AcDbVertex
100
AcDb2dVertex
 10
66.66015276227091
 20
-29.11549595422732
 30
0.0
  0
VERTEX
  5
D3
330
68
100
AcDbEntity
  8
1_ANYTOOL_1MMDEEP_LABELS_S
100
AcDbVertex
100
AcDb2dVertex
 10
66.52499999999418
 20
-29.1964285714148
 30
0.0
  0
VERTEX
  5
D4
330
68
100
AcDbEntity
  8
1_ANYTOOL_1MMDEEP_LABELS_S
100
AcDbVertex
100
AcDb2dVertex
 10
66.388277762271
 20
-29.27487095422727
 30
0.0
  0
VERTEX
  5
D5
330
68
100
AcDbEntity
  8
1_ANYTOOL_1MMDEEP_LABELS_S
100
AcDbVertex
100
AcDb2dVertex
 10
66.24998604910141
 20
-29.35082310266476
 30
0.0
  0
VERTEX
  5
D6
330
68
100
AcDbEntity
  8
1_ANYTOOL_1MMDEEP_LABELS_S
100
AcDbVertex
100
AcDb2dVertex
 10
66.11012486048537
 20
-29.42428501672723
 30
0.0
  0
VERTEX
  5
D7
330
68
100
AcDbEntity
  8
1_ANYTOOL_1MMDEEP_LABELS_S
100
AcDbVertex
100
AcDb2dVertex
 10
65.96869419642292
 20
-29.49525669641471
 30
0.0
  0
VERTEX
  5
D8
330
68
100
AcDbEntity
  8
1_ANYTOOL_1MMDEEP_LABELS_S
100
AcDbVertex
100
AcDb2dVertex
 10
65.82569405691402
 20
-29.56373814172719
 30
0.0
  0
VERTEX
  5
D9
330
68
100
AcDbEntity
  8
1_ANYTOOL_1MMDEEP_LABELS_S
100
AcDbVertex
100
AcDb2dVertex
 10
65.6811244419587
 20
-29.62972935266468
 30
0.0
  0
VERTEX
  5
DA
330
68
100
AcDbEntity
  8
1_ANYTOOL_1MMDEEP_LABELS_S
100
AcDbVertex
100
AcDb2dVertex
 10
65.53498535155694
 20
-29.69323032922716
 30
0.0
  0
VERTEX
  5
DB
330
68
100
AcDbEntity
  8
1_ANYTOOL_1MMDEEP_LABELS_S
100
AcDbVertex
100
AcDb2dVertex
 10
65.38727678570876
 20
-29.75424107141464
 30
0.0
  0
VERTEX
  5
DC
330
68
100
AcDbEntity
  8
1_ANYTOOL_1MMDEEP_LABELS_S
100
AcDbVertex
100
AcDb2dVertex
 10
65.23799874441414
 20
-29.81276157922712
 30
0.0
  0
VERTEX
  5
DD
330
68
100
AcDbEntity
  8
1_ANYTOOL_1MMDEEP_LABELS_S
100
AcDbVertex
100
AcDb2dVertex
 10
65.0871512276731
 20
-29.86879185266461
 30
0.0
  0
VERTEX
  5
DE
330
68
100
AcDbEntity
  8
1_ANYTOOL_1MMDEEP_LABELS_S
100
AcDbVertex
100
AcDb2dVertex
 10
64.93473423548562
 20
-29.92233189172709
 30
0.0
  0
VERTEX
  5
DF
330
68
100
AcDbEntity
  8
1_ANYTOOL_1MMDEEP_LABELS_S
100
AcDbVertex
100
AcDb2dVertex
 10
64.78074776785172
 20
-29.97338169641458
 30
0.0
  0
VERTEX
  5
E0
330
68
100
AcDbEntity
  8
1_ANYTOOL_1MMDEEP_LABELS_S
100
AcDbVertex
100
AcDb2dVertex
 10
64.46806640624462
 20
-30.06801060266455
 30
0.0
  0
VERTEX
  5
E1
330
68
100
AcDbEntity
  8
1_ANYTOOL_1MMDEEP_LABELS_S
100
AcDbVertex
100
AcDb2dVertex
 10
64.14910714285179
 20
-30.15267857141453
 30
0.0
  0
VERTEX
  5
E2
330
68
100
AcDbEntity
  8
1_ANYTOOL_1MMDEEP_LABELS_S
100
AcDbVertex
100
AcDb2dVertex
 10
63.82386997767324
 20
-30.2273856026645
 30
0.0
  0
VERTEX
  5
E3
330
68
100
AcDbEntity
  8
1_ANYTOOL_1MMDEEP_LABELS_S
100
AcDbVertex
100
AcDb2dVertex
 10
63.49235491070897
 20
-30.29213169641449
 30
0.0
  0
VERTEX
  5
E4
330
68
100
AcDbEntity
  8
1_ANYTOOL_1MMDEEP_LABELS_S
100
AcDbVertex
100
AcDb2dVertex
 10
63.15456194195897
 20
-30.34691685266447
 30
0.0
  0
VERTEX
  5
E5
330
68
100
AcDbEntity
  8
1_ANYTOOL_1MMDEEP_LABELS_S
100
AcDbVertex
100
AcDb2dVertex
 10
62.81049107142326
 20
-30.39174107141446
 30
0.0
  0
VERTEX
  5
E6
330
68
100
AcDbEntity
  8
1_ANYTOOL_1MMDEEP_LABELS_S
100
AcDbVertex
100
AcDb2dVertex
 10
62.46014229910182
 20
-30.42660435266445
 30
0.0
  0
VERTEX
  5
E7
330
68
100
AcDbEntity
  8
1_ANYTOOL_1MMDEEP_LABELS_S
100
AcDbVertex
100
AcDb2dVertex
 10
62.10351562499466
 20
-30.45150669641444
 30
0.0
  0
VERTEX
  5
E8
330
68
100
AcDbEntity
  8
1_ANYTOOL_1MMDEEP_LABELS_S
100
AcDbVertex
100
AcDb2dVertex
 10
61.74061104910177
 20
-30.46644810266444
 30
0.0
  0
VERTEX
  5
E9
330
68
100
AcDbEntity
  8
1_ANYTOOL_1MMDEEP_LABELS_S
100
AcDbVertex
100
AcDb2dVertex
 10
61.37142857142317
 20
-30.47142857141444
 30
0.0
  0
VERTEX
  5
EA
330
68
100
AcDbEntity
  8
1_ANYTOOL_1MMDEEP_LABELS_S
100
AcDbVertex
100
AcDb2dVertex
 10
60.98902064731573
 20
-30.4663643973073
 30
0.0
  0
VERTEX
  5
EB
330
68
100
AcDbEntity
  8
1_ANYTOOL_1MMDEEP_LABELS_S
100
AcDbVertex
100
AcDb2dVertex
 10
60.6132254464226
 20
-30.45117187498587
 30
0.0
  0
VERTEX
  5
EC
330
68
100
AcDbEntity
  8
1_ANYTOOL_1MMDEEP_LABELS_S
100
AcDbVertex
100
AcDb2dVertex
 10
60.24404296874378
 20
-30.42585100445017
 30
0.0
  0
VERTEX
  5
ED
330
68
100
AcDbEntity
  8
1_ANYTOOL_1MMDEEP_LABELS_S
100
AcDbVertex
100
AcDb2dVertex
 10
59.88147321427925
 20
-30.39040178570019
 30
0.0
  0
VERTEX
  5
EE
330
68
100
AcDbEntity
  8
1_ANYTOOL_1MMDEEP_LABELS_S
100
AcDbVertex
100
AcDb2dVertex
 10
59.52551618302903
 20
-30.34482421873593
 30
0.0
  0
VERTEX
  5
EF
330
68
100
AcDbEntity
  8
1_ANYTOOL_1MMDEEP_LABELS_S
100
AcDbVertex
100
AcDb2dVertex
 10
59.17617187499312
 20
-30.28911830355739
 30
0.0
  0
VERTEX
  5
F0
330
68
100
AcDbEntity
  8
1_ANYTOOL_1MMDEEP_LABELS_S
100
AcDbVertex
100
AcDb2dVertex
 10
58.8334402901715
 20
-30.22328404016456
 30
0.0
  0
VERTEX
  5
F1
330
68
100
AcDbEntity
  8
1_ANYTOOL_1MMDEEP_LABELS_S
100
AcDbVertex
100
AcDb2dVertex
 10
58.49732142856419
 20
-30.14732142855746
 30
0.0
  0
VERTEX
  5
F2
330
68
100
AcDbEntity
  8
1_ANYTOOL_1MMDEEP_LABELS_S
100
AcDbVertex
100
AcDb2dVertex
 10
58.16781529017118
 20
-30.06123046873608
 30
0.0
  0
VERTEX
  5
F3
330
68
100
AcDbEntity
  8
1_ANYTOOL_1MMDEEP_LABELS_S
100
AcDbVertex
100
AcDb2dVertex
 10
57.84492187499248
 20
-29.96501116070041
 30
0.0
  0
VERTEX
  5
F4
330
68
100
AcDbEntity
  8
1_ANYTOOL_1MMDEEP_LABELS_S
100
AcDbVertex
100
AcDb2dVertex
 10
57.68595493860849
 20
-29.91310337610223
 30
0.0
  0
VERTEX
  5
F5
330
68
100
AcDbEntity
  8
1_ANYTOOL_1MMDEEP_LABELS_S
100
AcDbVertex
100
AcDb2dVertex
 10
57.52864118302808
 20
-29.85866350445047
 30
0.0
  0
VERTEX
  5
F6
330
68
100
AcDbEntity
  8
1_ANYTOOL_1MMDEEP_LABELS_S
100
AcDbVertex
100
AcDb2dVertex
 10
57.37298060825124
 20
-29.80169154574514
 30
0.0
  0
VERTEX
  5
F7
330
68
100
AcDbEntity
  8
1_ANYTOOL_1MMDEEP_LABELS_S
100
AcDbVertex
100
AcDb2dVertex
 10
57.21897321427798
 20
-29.74218749998624
 30
0.0
  0
VERTEX
  5
F8
330
68
100
AcDbEntity
  8
1_ANYTOOL_1MMDEEP_LABELS_S
100
AcDbVertex
100
AcDb2dVertex
 10
57.06661900110829
 20
-29.68015136717378
 30
0.0
  0
VERTEX
  5
F9
330
68
100
AcDbEntity
  8
1_ANYTOOL_1MMDEEP_LABELS_S
100
AcDbVertex
100
AcDb2dVertex
 10
56.91591796874219
 20
-29.61558314730774
 30
0.0
  0
VERTEX
  5
FA
330
68
100
AcDbEntity
  8
1_ANYTOOL_1MMDEEP_LABELS_S
100
AcDbVertex
100
AcDb2dVertex
 10
56.76687011717965
 20
-29.54848284038813
 30
0.0
  0
VERTEX
  5
FB
330
68
100
AcDbEntity
  8
1_ANYTOOL_1MMDEEP_LABELS_S
100
AcDbVertex
100
AcDb2dVertex
 10
56.61947544642069
 20
-29.47885044641495
 30
0.0
  0
VERTEX
  5
FC
330
68
100
AcDbEntity
  8
1_ANYTOOL_1MMDEEP_LABELS_S
100
AcDbVertex
100
AcDb2dVertex
 10
56.47373395646531
 20
-29.40668596538821
 30
0.0
  0
VERTEX
  5
FD
330
68
100
AcDbEntity
  8
1_ANYTOOL_1MMDEEP_LABELS_S
100
AcDbVertex
100
AcDb2dVertex
 10
56.32964564731351
 20
-29.33198939730789
 30
0.0
  0
VERTEX
  5
FE
330
68
100
AcDbEntity
  8
1_ANYTOOL_1MMDEEP_LABELS_S
100
AcDbVertex
100
AcDb2dVertex
 10
56.18721051896527
 20
-29.254760742174
 30
0.0
  0
VERTEX
  5
FF
330
68
100
AcDbEntity
  8
1_ANYTOOL_1MMDEEP_LABELS_S
100
AcDbVertex
100
AcDb2dVertex
 10
56.04642857142062
 20
-29.17499999998654
 30
0.0
  0
VERTEX
  5
100
330
68
100
AcDbEntity
  8
1_ANYTOOL_1MMDEEP_LABELS_S
100
AcDbVertex
100
AcDb2dVertex
 10
55.90729980467954
 20
-29.09270717074551
 30
0.0
  0
VERTEX
  5
101
330
68
100
AcDbEntity
  8
1_ANYTOOL_1MMDEEP_LABELS_S
100
AcDbVertex
100
AcDb2dVertex
 10
55.76982421874204
 20
-29.00788225445091
 30
0.0
  0
VERTEX
  5
102
330
68
100
AcDbEntity
  8
1_ANYTOOL_1MMDEEP_LABELS_S
100
AcDbVertex
100
AcDb2dVertex
 10
55.63400181360811
 20
-28.92052525110275
 30
0.0
  0
VERTEX
  5
103
330
68
100
AcDbEntity
  8
1_ANYTOOL_1MMDEEP_LABELS_S
100
AcDbVertex
100
AcDb2dVertex
 10
55.49983258927776
 20
-28.830636160701
 30
0.0
  0
VERTEX
  5
104
330
68
100
AcDbEntity
  8
1_ANYTOOL_1MMDEEP_LABELS_S
100
AcDbVertex
100
AcDb2dVertex
 10
55.36731654575098
 20
-28.7382149832457
 30
0.0
  0
VERTEX
  5
105
330
68
100
AcDbEntity
  8
1_ANYTOOL_1MMDEEP_LABELS_S
100
AcDbVertex
100
AcDb2dVertex
 10
55.23645368302778
 20
-28.64326171873682
 30
0.0
  0
VERTEX
  5
106
330
68
100
AcDbEntity
  8
1_ANYTOOL_1MMDEEP_LABELS_S
100
AcDbVertex
100
AcDb2dVertex
 10
55.10724400110816
 20
-28.54577636717437
 30
0.0
  0
VERTEX
  5
107
330
68
100
AcDbEntity
  8
1_ANYTOOL_1MMDEEP_LABELS_S
100
AcDbVertex
100
AcDb2dVertex
 10
54.97968749999211
 20
-28.44575892855835
 30
0.0
  0
VERTEX
  5
108
330
68
100
AcDbEntity
  8
1_ANYTOOL_1MMDEEP_LABELS_S
100
AcDbVertex
100
AcDb2dVertex
 10
54.85378417967964
 20
-28.34320940288876
 30
0.0
  0
VERTEX
  5
109
330
68
100
AcDbEntity
  8
1_ANYTOOL_1MMDEEP_LABELS_S
100
AcDbVertex
100
AcDb2dVertex
 10
54.72953404017074
 20
-28.2381277901656
 30
0.0
  0
VERTEX
  5
10A
330
68
100
AcDbEntity
  8
1_ANYTOOL_1MMDEEP_LABELS_S
100
AcDbVertex
100
AcDb2dVertex
 10
54.60693708146542
 20
-28.13051409038887
 30
0.0
  0
VERTEX
  5
10B
330
68
100
AcDbEntity
  8
1_ANYTOOL_1MMDEEP_LABELS_S
100
AcDbVertex
100
AcDb2dVertex
 10
54.48599330356367
 20
-28.02036830355857
 30
0.0
  0
VERTEX
  5
10C
330
68
100
AcDbEntity
  8
1_ANYTOOL_1MMDEEP_LABELS_S
100
AcDbVertex
100
AcDb2dVertex
 10
54.3667027064655
 20
-27.9076904296747
 30
0.0
  0
VERTEX
  5
10D
330
68
100
AcDbEntity
  8
1_ANYTOOL_1MMDEEP_LABELS_S
100
AcDbVertex
100
AcDb2dVertex
 10
54.24906529017091
 20
-27.79248046873726
 30
0.0
  0
VERTEX
  5
10E
330
68
100
AcDbEntity
  8
1_ANYTOOL_1MMDEEP_LABELS_S
100
AcDbVertex
100
AcDb2dVertex
 10
54.13308105467989
 20
-27.67473842074625
 30
0.0
  0
VERTEX
  5
10F
330
68
100
AcDbEntity
  8
1_ANYTOOL_1MMDEEP_LABELS_S
100
AcDbVertex
100
AcDb2dVertex
 10
54.01874999999245
 20
-27.55446428570167
 30
0.0
  0
VERTEX
  5
110
330
68
100
AcDbEntity
  8
1_ANYTOOL_1MMDEEP_LABELS_S
100
AcDbVertex
100
AcDb2dVertex
 10
53.90607212610858
 20
-27.43165806360352
 30
0.0
  0
VERTEX
  5
111
330
68
100
AcDbEntity
  8
1_ANYTOOL_1MMDEEP_LABELS_S
100
AcDbVertex
100
AcDb2dVertex
 10
53.79504743302829
 20
-27.3063197544518
 30
0.0
  0
VERTEX
  5
112
330
68
100
AcDbEntity
  8
1_ANYTOOL_1MMDEEP_LABELS_S
100
AcDbVertex
100
AcDb2dVertex
 10
53.57795758927844
 20
-27.04804687498765
 30
0.0
  0
VERTEX
  5
113
330
68
100
AcDbEntity
  8
1_ANYTOOL_1MMDEEP_LABELS_S
100
AcDbVertex
100
AcDb2dVertex
 10
53.36748046874289
 20
-26.77964564730922
 30
0.0
  0
VERTEX
  5
114
330
68
100
AcDbEntity
  8
1_ANYTOOL_1MMDEEP_LABELS_S
100
AcDbVertex
100
AcDb2dVertex
 10
53.16361607142164
 20
-26.5011160714165
 30
0.0
  0
VERTEX
  5
115
330
68
100
AcDbEntity
  8
1_ANYTOOL_1MMDEEP_LABELS_S
100
AcDbVertex
100
AcDb2dVertex
 10
52.9663643973147
 20
-26.21245814730951
 30
0.0
  0
VERTEX
  5
116
330
68
100
AcDbEntity
  8
1_ANYTOOL_1MMDEEP_LABELS_S
100
AcDbVertex
100
AcDb2dVertex
 10
52.77572544642206
 20
-25.91367187498824
 30
0.0
  0
VERTEX
  5
117
330
68
100
AcDbEntity
  8
1_ANYTOOL_1MMDEEP_LABELS_S
100
AcDbVertex
100
AcDb2dVertex
 10
52.59169921874372
 20
-25.60475725445269
 30
0.0
  0
VERTEX
  5
118
330
68
100
AcDbEntity
  8
1_ANYTOOL_1MMDEEP_LABELS_S
100
AcDbVertex
100
AcDb2dVertex
 10
52.41428571427969
 20
-25.28571428570285
 30
0.0
  0
VERTEX
  5
119
330
68
100
AcDbEntity
  8
1_ANYTOOL_1MMDEEP_LABELS_S
100
AcDbVertex
100
AcDb2dVertex
 10
52.08214285713638
 20
-24.63733258927374
 30
0.0
  0
VERTEX
  5
11A
330
68
100
AcDbEntity
  8
1_ANYTOOL_1MMDEEP_LABELS_S
100
AcDbVertex
100
AcDb2dVertex
 10
51.77142857142167
 20
-23.98861607141612
 30
0.0
  0
VERTEX
  5
11B
330
68
100
AcDbEntity
  8
1_ANYTOOL_1MMDEEP_LABELS_S
100
AcDbVertex
100
AcDb2dVertex
 10
51.48214285713556
 20
-23.33956473212999
 30
0.0
  0
VERTEX
  5
11C
330
68
100
AcDbEntity
  8
1_ANYTOOL_1MMDEEP_LABELS_S
100
AcDbVertex
100
AcDb2dVertex
 10
51.21428571427805
 20
-22.69017857141534
 30
0.0
  0
VERTEX
  5
11D
330
68
100
AcDbEntity
  8
1_ANYTOOL_1MMDEEP_LABELS_S
100
AcDbVertex
100
AcDb2dVertex
 10
50.96785714284914
 20
-22.04045758927219
 30
0.0
  0
VERTEX
  5
11E
330
68
100
AcDbEntity
  8
1_ANYTOOL_1MMDEEP_LABELS_S
100
AcDbVertex
100
AcDb2dVertex
 10
50.74285714284883
 20
-21.39040178570053
 30
0.0
  0
VERTEX
  5
11F
330
68
100
AcDbEntity
  8
1_ANYTOOL_1MMDEEP_LABELS_S
100
AcDbVertex
100
AcDb2dVertex
 10
50.53928571427713
 20
-20.74001116070036
 30
0.0
  0
VERTEX
  5
120
330
68
100
AcDbEntity
  8
1_ANYTOOL_1MMDEEP_LABELS_S
100
AcDbVertex
100
AcDb2dVertex
 10
50.35714285713402
 20
-20.08928571427168
 30
0.0
  0
VERTEX
  5
121
330
68
100
AcDbEntity
  8
1_ANYTOOL_1MMDEEP_LABELS_S
100
AcDbVertex
100
AcDb2dVertex
 10
50.19642857141952
 20
-19.43822544641449
 30
0.0
  0
VERTEX
  5
122
330
68
100
AcDbEntity
  8
1_ANYTOOL_1MMDEEP_LABELS_S
100
AcDbVertex
100
AcDb2dVertex
 10
50.05714285713361
 20
-18.78683035712879
 30
0.0
  0
VERTEX
  5
123
330
68
100
AcDbEntity
  8
1_ANYTOOL_1MMDEEP_LABELS_S
100
AcDbVertex
100
AcDb2dVertex
 10
49.93928571427631
 20
-18.13510044641458
 30
0.0
  0
VERTEX
  5
124
330
68
100
AcDbEntity
  8
1_ANYTOOL_1MMDEEP_LABELS_S
100
AcDbVertex
100
AcDb2dVertex
 10
49.84285714284761
 20
-17.48303571427186
 30
0.0
  0
VERTEX
  5
125
330
68
100
AcDbEntity
  8
1_ANYTOOL_1MMDEEP_LABELS_S
100
AcDbVertex
100
AcDb2dVertex
 10
49.7678571428475
 20
-16.83063616070064
 30
0.0
  0
VERTEX
  5
126
330
68
100
AcDbEntity
  8
1_ANYTOOL_1MMDEEP_LABELS_S
100
AcDbVertex
100
AcDb2dVertex
 10
49.714285714276
 20
-16.1779017857009
 30
0.0
  0
VERTEX
  5
127
330
68
100
AcDbEntity
  8
1_ANYTOOL_1MMDEEP_LABELS_S
100
AcDbVertex
100
AcDb2dVertex
 10
49.6821428571331
 20
-15.52483258927265
 30
0.0
  0
VERTEX
  5
128
330
68
100
AcDbEntity
  8
1_ANYTOOL_1MMDEEP_LABELS_S
100
AcDbVertex
100
AcDb2dVertex
 10
49.6714285714188
 20
-14.87142857141589
 30
0.0
  0
VERTEX
  5
129
330
68
100
AcDbEntity
  8
1_ANYTOOL_1MMDEEP_LABELS_S
100
AcDbVertex
100
AcDb2dVertex
 10
49.68264508927595
 20
-14.17801339284458
 30
0.0
  0
VERTEX
  5
12A
330
68
100
AcDbEntity
  8
1_ANYTOOL_1MMDEEP_LABELS_S
100
AcDbVertex
100
AcDb2dVertex
 10
49.7162946428474
 20
-13.49062499998752
 30
0.0
  0
VERTEX
  5
12B
330
68
100
AcDbEntity
  8
1_ANYTOOL_1MMDEEP_LABELS_S
100
AcDbVertex
100
AcDb2dVertex
 10
49.77237723213315
 20
-12.80926339284471
 30
0.0
  0
VERTEX
  5
12C
330
68
100
AcDbEntity
  8
1_ANYTOOL_1MMDEEP_LABELS_S
100
AcDbVertex
100
AcDb2dVertex
 10
49.8508928571332
 20
-12.13392857141616
 30
0.0
  0
VERTEX
  5
12D
330
68
100
AcDbEntity
  8
1_ANYTOOL_1MMDEEP_LABELS_S
100
AcDbVertex
100
AcDb2dVertex
 10
49.95184151784755
 20
-11.46462053570187
 30
0.0
  0
VERTEX
  5
12E
330
68
100
AcDbEntity
  8
1_ANYTOOL_1MMDEEP_LABELS_S
100
AcDbVertex
100
AcDb2dVertex
 10
50.07522321427621
 20
-10.80133928570183
 30
0.0
  0
VERTEX
  5
12F
330
68
100
AcDbEntity
  8
1_ANYTOOL_1MMDEEP_LABELS_S
100
AcDbVertex
100
AcDb2dVertex
 10
50.22103794641916
 20
-10.14408482141604
 30
0.0
  0
VERTEX
  5
130
330
68
100
AcDbEntity
  8
1_ANYTOOL_1MMDEEP_LABELS_S
100
AcDbVertex
100
AcDb2dVertex
 10
50.38928571427641
 20
-9.492857142844514
 30
0.0
  0
VERTEX
  5
131
330
68
100
AcDbEntity
  8
1_ANYTOOL_1MMDEEP_LABELS_S
100
AcDbVertex
100
AcDb2dVertex
 10
50.57996651784796
 20
-8.847656249987239
 30
0.0
  0
VERTEX
  5
132
330
68
100
AcDbEntity
  8
1_ANYTOOL_1MMDEEP_LABELS_S
100
AcDbVertex
100
AcDb2dVertex
 10
50.79308035713382
 20
-8.208482142844218
 30
0.0
  0
VERTEX
  5
133
330
68
100
AcDbEntity
  8
1_ANYTOOL_1MMDEEP_LABELS_S
100
AcDbVertex
100
AcDb2dVertex
 10
51.02862723213397
 20
-7.575334821415453
 30
0.0
  0
VERTEX
  5
134
330
68
100
AcDbEntity
  8
1_ANYTOOL_1MMDEEP_LABELS_S
100
AcDbVertex
100
AcDb2dVertex
 10
51.28660714284842
 20
-6.948214285700942
 30
0.0
  0
VERTEX
  5
135
330
68
100
AcDbEntity
  8
1_ANYTOOL_1MMDEEP_LABELS_S
100
AcDbVertex
100
AcDb2dVertex
 10
51.56702008927718
 20
-6.327120535700686
 30
0.0
  0
VERTEX
  5
136
330
68
100
AcDbEntity
  8
1_ANYTOOL_1MMDEEP_LABELS_S
100
AcDbVertex
100
AcDb2dVertex
 10
51.86986607142023
 20
-5.712053571414685
 30
0.0
  0
VERTEX
  5
137
330
68
100
AcDbEntity
  8
1_ANYTOOL_1MMDEEP_LABELS_S
100
AcDbVertex
100
AcDb2dVertex
 10
52.19514508927759
 20
-5.103013392842939
 30
0.0
  0
VERTEX
  5
138
330
68
100
AcDbEntity
  8
1_ANYTOOL_1MMDEEP_LABELS_S
100
AcDbVertex
100
AcDb2dVertex
 10
52.54285714284924
 20
-4.499999999985448
 30
0.0
  0
VERTEX
  5
139
330
68
100
AcDbEntity
  8
1_ANYTOOL_1MMDEEP_LABELS_S
100
AcDbVertex
100
AcDb2dVertex
 10
52.72826450892074
 20
-4.202050781235307
 30
0.0
  0
VERTEX
  5
13A
330
68
100
AcDbEntity
  8
1_ANYTOOL_1MMDEEP_LABELS_S
100
AcDbVertex
100
AcDb2dVertex
 10
52.92020089284938
 20
-3.913560267842314
 30
0.0
  0
VERTEX
  5
13B
330
68
100
AcDbEntity
  8
1_ANYTOOL_1MMDEEP_LABELS_S
100
AcDbVertex
100
AcDb2dVertex
 10
53.11866629463515
 20
-3.634528459806468
 30
0.0
  0
VERTEX
  5
13C
330
68
100
AcDbEntity
  8
1_ANYTOOL_1MMDEEP_LABELS_S
100
AcDbVertex
100
AcDb2dVertex
 10
53.32366071427805
 20
-3.364955357127769
 30
0.0
  0
VERTEX
  5
13D
330
68
100
AcDbEntity
  8
1_ANYTOOL_1MMDEEP_LABELS_S
100
AcDbVertex
100
AcDb2dVertex
 10
53.53518415177808
 20
-3.104840959806218
 30
0.0
  0
VERTEX
  5
13E
330
68
100
AcDbEntity
  8
1_ANYTOOL_1MMDEEP_LABELS_S
100
AcDbVertex
100
AcDb2dVertex
 10
53.75323660713525
 20
-2.854185267841814
 30
0.0
  0
VERTEX
  5
13F
330
68
100
AcDbEntity
  8
1_ANYTOOL_1MMDEEP_LABELS_S
100
AcDbVertex
100
AcDb2dVertex
 10
53.97781808034955
 20
-2.612988281234557
 30
0.0
  0
VERTEX
  5
140
330
68
100
AcDbEntity
  8
1_ANYTOOL_1MMDEEP_LABELS_S
100
AcDbVertex
100
AcDb2dVertex
 10
54.20892857142098
 20
-2.381249999984448
 30
0.0
  0
VERTEX
  5
141
330
68
100
AcDbEntity
  8
1_ANYTOOL_1MMDEEP_LABELS_S
100
AcDbVertex
100
AcDb2dVertex
 10
54.32693219865313
 20
-2.268927873868323
 30
0.0
  0
VERTEX
  5
142
330
68
100
AcDbEntity
  8
1_ANYTOOL_1MMDEEP_LABELS_S
100
AcDbVertex
100
AcDb2dVertex
 10
54.44656808034955
 20
-2.158970424091486
 30
0.0
  0
VERTEX
  5
143
330
68
100
AcDbEntity
  8
1_ANYTOOL_1MMDEEP_LABELS_S
100
AcDbVertex
100
AcDb2dVertex
 10
54.56783621651026
 20
-2.051377650653935
 30
0.0
  0
VERTEX
  5
144
330
68
100
AcDbEntity
  8
1_ANYTOOL_1MMDEEP_LABELS_S
100
AcDbVertex
100
AcDb2dVertex
 10
54.69073660713525
 20
-1.946149553555671
 30
0.0
  0
VERTEX
  5
145
330
68
100
AcDbEntity
  8
1_ANYTOOL_1MMDEEP_LABELS_S
100
AcDbVertex
100
AcDb2dVertex
 10
54.81526925222452
 20
-1.843286132796694
 30
0.0
  0
VERTEX
  5
146
330
68
100
AcDbEntity
  8
1_ANYTOOL_1MMDEEP_LABELS_S
100
AcDbVertex
100
AcDb2dVertex
 10
54.94143415177808
 20
-1.742787388377003
 30
0.0
  0
VERTEX
  5
147
330
68
100
AcDbEntity
  8
1_ANYTOOL_1MMDEEP_LABELS_S
100
AcDbVertex
100
AcDb2dVertex
 10
55.06923130579592
 20
-1.6446533202966
 30
0.0
  0
VERTEX
  5
148
330
68
100
AcDbEntity
  8
1_ANYTOOL_1MMDEEP_LABELS_S
100
AcDbVertex
100
AcDb2dVertex
 10
55.19866071427805
 20
-1.548883928555483
 30
0.0
  0
VERTEX
  5
149
330
68
100
AcDbEntity
  8
1_ANYTOOL_1MMDEEP_LABELS_S
100
AcDbVertex
100
AcDb2dVertex
 10
55.32972237722446
 20
-1.455479213153653
 30
0.0
  0
VERTEX
  5
14A
330
68
100
AcDbEntity
  8
1_ANYTOOL_1MMDEEP_LABELS_S
100
AcDbVertex
100
AcDb2dVertex
 10
55.46241629463515
 20
-1.36443917409111
 30
0.0
  0
VERTEX
  5
14B
330
68
100
AcDbEntity
  8
1_ANYTOOL_1MMDEEP_LABELS_S
100
AcDbVertex
100
AcDb2dVertex
 10
55.59674246651012
 20
-1.275763811367854
 30
0.0
  0
VERTEX
  5
14C
330
68
100
AcDbEntity
  8
1_ANYTOOL_1MMDEEP_LABELS_S
100
AcDbVertex
100
AcDb2dVertex
 10
55.73270089284938
 20
-1.189453124983885
 30
0.0
  0
VERTEX
  5
14D
330
68
100
AcDbEntity
  8
1_ANYTOOL_1MMDEEP_LABELS_S
100
AcDbVertex
100
AcDb2dVertex
 10
55.87029157365292
 20
-1.105507114939202
 30
0.0
  0
VERTEX
  5
14E
330
68
100
AcDbEntity
  8
1_ANYTOOL_1MMDEEP_LABELS_S
100
AcDbVertex
100
AcDb2dVertex
 10
56.00951450892074
 20
-1.023925781233807
 30
0.0
  0
VERTEX
  5
14F
330
68
100
AcDbEntity
  8
1_ANYTOOL_1MMDEEP_LABELS_S
100
AcDbVertex
100
AcDb2dVertex
 10
56.15036969865285
 20
-0.9447091238676979
 30
0.0
  0
VERTEX
  5
150
330
68
100
AcDbEntity
  8
1_ANYTOOL_1MMDEEP_LABELS_S
100
AcDbVertex
100
AcDb2dVertex
 10
56.29285714284924
 20
-0.8678571428408759
 30
0.0
  0
VERTEX
  5
151
330
68
100
AcDbEntity
  8
1_ANYTOOL_1MMDEEP_LABELS_S
100
AcDbVertex
100
AcDb2dVertex
 10
56.43697684150992
 20
-0.7933698381533407
 30
0.0
  0
VERTEX
  5
152
330
68
100
AcDbEntity
  8
1_ANYTOOL_1MMDEEP_LABELS_S
100
AcDbVertex
100
AcDb2dVertex
 10
56.58272879463487
 20
-0.7212472098050924
 30
0.0
  0
VERTEX
  5
153
330
68
100
AcDbEntity
  8
1_ANYTOOL_1MMDEEP_LABELS_S
100
AcDbVertex
100
AcDb2dVertex
 10
56.87912946427764
 20
-0.5840959821264562
 30
0.0
  0
VERTEX
  5
154
330
68
100
AcDbEntity
  8
1_ANYTOOL_1MMDEEP_LABELS_S
100
AcDbVertex
100
AcDb2dVertex
 10
57.18205915177754
 20
-0.4564034598049673
 30
0.0
  0
VERTEX
  5
155
330
68
100
AcDbEntity
  8
1_ANYTOOL_1MMDEEP_LABELS_S
100
AcDbVertex
100
AcDb2dVertex
 10
57.49151785713457
 20
-0.3381696428406258
 30
0.0
  0
VERTEX
  5
156
330
68
100
AcDbEntity
  8
1_ANYTOOL_1MMDEEP_LABELS_S
100
AcDbVertex
100
AcDb2dVertex
 10
57.80750558034873
 20
-0.2293945312334316
 30
0.0
  0
VERTEX
  5
157
330
68
100
AcDbEntity
  8
1_ANYTOOL_1MMDEEP_LABELS_S
100
AcDbVertex
100
AcDb2dVertex
 10
58.13002232142003
 20
-0.1300781249833847
 30
0.0
  0
VERTEX
  5
158
330
68
100
AcDbEntity
  8
1_ANYTOOL_1MMDEEP_LABELS_S
100
AcDbVertex
100
AcDb2dVertex
 10
58.45906808034846
 20
-0.0402204240904851
 30
0.0
  0
VERTEX
  5
159
330
68
100
AcDbEntity
  8
1_ANYTOOL_1MMDEEP_LABELS_S
100
AcDbVertex
100
AcDb2dVertex
 10
58.79464285713402
 20
0.0401785714452672
 30
0.0
  0
VERTEX
  5
15A
330
68
100
AcDbEntity
  8
1_ANYTOOL_1MMDEEP_LABELS_S
100
AcDbVertex
100
AcDb2dVertex
 10
59.13674665177672
 20
0.1111188616238721
 30
0.0
  0
VERTEX
  5
15B
330
68
100
AcDbEntity
  8
1_ANYTOOL_1MMDEEP_LABELS_S
100
AcDbVertex
100
AcDb2dVertex
 10
59.48537946427655
 20
0.1726004464453297
 30
0.0
  0
VERTEX
  5
15C
330
68
100
AcDbEntity
  8
1_ANYTOOL_1MMDEEP_LABELS_S
100
AcDbVertex
100
AcDb2dVertex
 10
59.84054129463351
 20
0.22462332590964
 30
0.0
  0
VERTEX
  5
15D
330
68
100
AcDbEntity
  8
1_ANYTOOL_1MMDEEP_LABELS_S
100
AcDbVertex
100
AcDb2dVertex
 10
60.20223214284761
 20
0.2671875000168029
 30
0.0
  0
VERTEX
  5
15E
330
68
100
AcDbEntity
  8
1_ANYTOOL_1MMDEEP_LABELS_S
100
AcDbVertex
100
AcDb2dVertex
 10
60.57045200891883
 20
0.3002929687668185
 30
0.0
  0
VERTEX
  5
15F
330
68
100
AcDbEntity
  8
1_ANYTOOL_1MMDEEP_LABELS_S
100
AcDbVertex
100
AcDb2dVertex
 10
60.9452008928472
 20
0.3239397321596869
 30
0.0
  0
VERTEX
  5
160
330
68
100
AcDbEntity
  8
1_ANYTOOL_1MMDEEP_LABELS_S
100
AcDbVertex
100
AcDb2dVertex
 10
61.32647879463269
 20
0.3381277901954078
 30
0.0
  0
SEQEND
  5
161
330
68
100
AcDbEntity
  8
1_ANYTOOL_1MMDEEP_LABELS_S
  0
LINE
  5
162
330
1F
100
AcDbEntity
  8
1_ANYTOOL_1MMDEEP_LABELS_S
100
AcDbLine
 10
85.6714285714188
 20
-16.1142857142695
 30
0.0
 11
76.88571428570867
 21
-16.19999999998254
 31
0.0
  0
POLYLINE
  5
163
330
1F
100
AcDbEntity
  8
1_ANYTOOL_1MMDEEP_LABELS_S
100
AcDb2dPolyline
 66
     1
 10
0.0
 20
0.0
 30
0.0
  0
VERTEX
  5
164
330
163
100
AcDbEntity
  8
1_ANYTOOL_1MMDEEP_LABELS_S
100
AcDbVertex
100
AcDb2dVertex
 10
90.81428571428114
 20
-29.99999999998545
 30
0.0
  0
VERTEX
  5
165
330
163
100
AcDbEntity
  8
1_ANYTOOL_1MMDEEP_LABELS_S
100
AcDbVertex
100
AcDb2dVertex
 10
90.81428571428114
 20
0.0000000000145519
 30
0.0
  0
VERTEX
  5
166
330
163
100
AcDbEntity
  8
1_ANYTOOL_1MMDEEP_LABELS_S
100
AcDbVertex
100
AcDb2dVertex
 10
102.8142857142811
 20
-28.37142857141589
 30
0.0
  0
VERTEX
  5
167
330
163
100
AcDbEntity
  8
1_ANYTOOL_1MMDEEP_LABELS_S
100
AcDbVertex
100
AcDb2dVertex
 10
114.8142857142811
 20
-0.1285714285550057
 30
0.0
  0
VERTEX
  5
168
330
163
100
AcDbEntity
  8
1_ANYTOOL_1MMDEEP_LABELS_S
100
AcDbVertex
100
AcDb2dVertex
 10
114.8142857142811
 20
-29.99999999998545
 30
0.0
  0
SEQEND
  5
169
330
163
100
AcDbEntity
  8
1_ANYTOOL_1MMDEEP_LABELS_S
  0
LINE
  5
16A
330
1F
100
AcDbEntity
  8
1_ANYTOOL_1MMDEEP_LABELS_S
100
AcDbLine
 10
129.1714285714188
 20
-16.1142857142695
 30
0.0
 11
120.3857142857087
 21
-16.19999999998254
 31
0.0
  0
POLYLINE
  5
16B
330
1F
100
AcDbEntity
  8
1_ANYTOOL_1MMDEEP_LABELS_S
100
AcDb2dPolyline
 66
     1
 10
0.0
 20
0.0
 30
0.0
  0
VERTEX
  5
16C
330
16B
100
AcDbEntity
  8
1_ANYTOOL_1MMDEEP_LABELS_S
100
AcDbVertex
100
AcDb2dVertex
 10
133.4571428571362
 20
-25.24285714283906
 30
0.0
  0
VERTEX
  5
16D
330
16B
100
AcDbEntity
  8
1_ANYTOOL_1MMDEEP_LABELS_S
100
AcDbVertex
100
AcDb2dVertex
 10
133.6656947544578
 20
-25.53553292408927
 30
0.0
  0
VERTEX
  5
16E
330
16B
100
AcDbEntity
  8
1_ANYTOOL_1MMDEEP_LABELS_S
100
AcDbVertex
100
AcDb2dVertex
 10
133.8788504464223
 20
-25.81891741069663
 30
0.0
  0
VERTEX
  5
16F
330
16B
100
AcDbEntity
  8
1_ANYTOOL_1MMDEEP_LABELS_S
100
AcDbVertex
100
AcDb2dVertex
 10
134.0966099330296
 20
-26.09301060266112
 30
0.0
  0
VERTEX
  5
170
330
16B
100
AcDbEntity
  8
1_ANYTOOL_1MMDEEP_LABELS_S
100
AcDbVertex
100
AcDb2dVertex
 10
134.3189732142797
 20
-26.35781249998274
 30
0.0
  0
VERTEX
  5
171
330
16B
100
AcDbEntity
  8
1_ANYTOOL_1MMDEEP_LABELS_S
100
AcDbVertex
100
AcDb2dVertex
 10
134.5459402901727
 20
-26.6133231026615
 30
0.0
  0
VERTEX
  5
172
330
16B
100
AcDbEntity
  8
1_ANYTOOL_1MMDEEP_LABELS_S
100
AcDbVertex
100
AcDb2dVertex
 10
134.7775111607085
 20
-26.8595424106974
 30
0.0
  0
VERTEX
  5
173
330
16B
100
AcDbEntity
  8
1_ANYTOOL_1MMDEEP_LABELS_S
100
AcDbVertex
100
AcDb2dVertex
 10
135.0136858258872
 20
-27.09647042409043
 30
0.0
  0
VERTEX
  5
174
330
16B
100
AcDbEntity
  8
1_ANYTOOL_1MMDEEP_LABELS_S
100
AcDbVertex
100
AcDb2dVertex
 10
135.2544642857088
 20
-27.3241071428406
 30
0.0
  0
VERTEX
  5
175
330
16B
100
AcDbEntity
  8
1_ANYTOOL_1MMDEEP_LABELS_S
100
AcDbVertex
100
AcDb2dVertex
 10
135.4998465401731
 20
-27.54245256694791
 30
0.0
  0
VERTEX
  5
176
330
16B
100
AcDbEntity
  8
1_ANYTOOL_1MMDEEP_LABELS_S
100
AcDbVertex
100
AcDb2dVertex
 10
135.7498325892804
 20
-27.75150669641235
 30
0.0
  0
VERTEX
  5
177
330
16B
100
AcDbEntity
  8
1_ANYTOOL_1MMDEEP_LABELS_S
100
AcDbVertex
100
AcDb2dVertex
 10
136.0044224330305
 20
-27.95126953123393
 30
0.0
  0
VERTEX
  5
178
330
16B
100
AcDbEntity
  8
1_ANYTOOL_1MMDEEP_LABELS_S
100
AcDbVertex
100
AcDb2dVertex
 10
136.2636160714234
 20
-28.14174107141264
 30
0.0
  0
VERTEX
  5
179
330
16B
100
AcDbEntity
  8
1_ANYTOOL_1MMDEEP_LABELS_S
100
AcDbVertex
100
AcDb2dVertex
 10
136.5274135044592
 20
-28.32292131694849
 30
0.0
  0
VERTEX
  5
17A
330
16B
100
AcDbEntity
  8
1_ANYTOOL_1MMDEEP_LABELS_S
100
AcDbVertex
100
AcDb2dVertex
 10
136.7958147321378
 20
-28.49481026784147
 30
0.0
  0
VERTEX
  5
17B
330
16B
100
AcDbEntity
  8
1_ANYTOOL_1MMDEEP_LABELS_S
100
AcDbVertex
100
AcDb2dVertex
 10
137.0688197544592
 20
-28.65740792409159
 30
0.0
  0
VERTEX
  5
17C
330
16B
100
AcDbEntity
  8
1_ANYTOOL_1MMDEEP_LABELS_S
100
AcDbVertex
100
AcDb2dVertex
 10
137.3464285714235
 20
-28.81071428569885
 30
0.0
  0
VERTEX
  5
17D
330
16B
100
AcDbEntity
  8
1_ANYTOOL_1MMDEEP_LABELS_S
100
AcDbVertex
100
AcDb2dVertex
 10
137.6286411830307
 20
-28.95472935266324
 30
0.0
  0
VERTEX
  5
17E
330
16B
100
AcDbEntity
  8
1_ANYTOOL_1MMDEEP_LABELS_S
100
AcDbVertex
100
AcDb2dVertex
 10
137.9154575892807
 20
-29.08945312498477
 30
0.0
  0
VERTEX
  5
17F
330
16B
100
AcDbEntity
  8
1_ANYTOOL_1MMDEEP_LABELS_S
100
AcDbVertex
100
AcDb2dVertex
 10
138.2068777901736
 20
-29.21488560266344
 30
0.0
  0
VERTEX
  5
180
330
16B
100
AcDbEntity
  8
1_ANYTOOL_1MMDEEP_LABELS_S
100
AcDbVertex
100
AcDb2dVertex
 10
138.5029017857092
 20
-29.33102678569924
 30
0.0
  0
VERTEX
  5
181
330
16B
100
AcDbEntity
  8
1_ANYTOOL_1MMDEEP_LABELS_S
100
AcDbVertex
100
AcDb2dVertex
 10
138.8035295758878
 20
-29.43787667409217
 30
0.0
  0
VERTEX
  5
182
330
16B
100
AcDbEntity
  8
1_ANYTOOL_1MMDEEP_LABELS_S
100
AcDbVertex
100
AcDb2dVertex
 10
139.1087611607092
 20
-29.53543526784225
 30
0.0
  0
VERTEX
  5
183
330
16B
100
AcDbEntity
  8
1_ANYTOOL_1MMDEEP_LABELS_S
100
AcDbVertex
100
AcDb2dVertex
 10
139.4185965401734
 20
-29.62370256694945
 30
0.0
  0
VERTEX
  5
184
330
16B
100
AcDbEntity
  8
1_ANYTOOL_1MMDEEP_LABELS_S
100
AcDbVertex
100
AcDb2dVertex
 10
139.7330357142805
 20
-29.7026785714138
 30
0.0
  0
VERTEX
  5
185
330
16B
100
AcDbEntity
  8
1_ANYTOOL_1MMDEEP_LABELS_S
100
AcDbVertex
100
AcDb2dVertex
 10
140.0520786830304
 20
-29.77236328123528
 30
0.0
  0
VERTEX
  5
186
330
16B
100
AcDbEntity
  8
1_ANYTOOL_1MMDEEP_LABELS_S
100
AcDbVertex
100
AcDb2dVertex
 10
140.3757254464232
 20
-29.8327566964139
 30
0.0
  0
VERTEX
  5
187
330
16B
100
AcDbEntity
  8
1_ANYTOOL_1MMDEEP_LABELS_S
100
AcDbVertex
100
AcDb2dVertex
 10
140.7039760044589
 20
-29.88385881694965
 30
0.0
  0
VERTEX
  5
188
330
16B
100
AcDbEntity
  8
1_ANYTOOL_1MMDEEP_LABELS_S
100
AcDbVertex
100
AcDb2dVertex
 10
141.0368303571373
 20
-29.92566964284254
 30
0.0
  0
VERTEX
  5
189
330
16B
100
AcDbEntity
  8
1_ANYTOOL_1MMDEEP_LABELS_S
100
AcDbVertex
100
AcDb2dVertex
 10
141.3742885044587
 20
-29.95818917409256
 30
0.0
  0
VERTEX
  5
18A
330
16B
100
AcDbEntity
  8
1_ANYTOOL_1MMDEEP_LABELS_S
100
AcDbVertex
100
AcDb2dVertex
 10
141.7163504464228
 20
-29.98141741069972
 30
0.0
  0
VERTEX
  5
18B
330
16B
100
AcDbEntity
  8
1_ANYTOOL_1MMDEEP_LABELS_S
100
AcDbVertex
100
AcDb2dVertex
 10
142.0630161830298
 20
-29.99535435266402
 30
0.0
  0
VERTEX
  5
18C
330
16B
100
AcDbEntity
  8
1_ANYTOOL_1MMDEEP_LABELS_S
100
AcDbVertex
100
AcDb2dVertex
 10
142.4142857142797
 20
-29.99999999998545
 30
0.0
  0
VERTEX
  5
18D
330
16B
100
AcDbEntity
  8
1_ANYTOOL_1MMDEEP_LABELS_S
100
AcDbVertex
100
AcDb2dVertex
 10
142.8287946428514
 20
-29.99598214284259
 30
0.0
  0
VERTEX
  5
18E
330
16B
100
AcDbEntity
  8
1_ANYTOOL_1MMDEEP_LABELS_S
100
AcDbVertex
100
AcDb2dVertex
 10
143.2366071428515
 20
-29.98392857141403
 30
0.0
  0
VERTEX
  5
18F
330
16B
100
AcDbEntity
  8
1_ANYTOOL_1MMDEEP_LABELS_S
100
AcDbVertex
100
AcDb2dVertex
 10
143.6377232142802
 20
-29.96383928569975
 30
0.0
  0
VERTEX
  5
190
330
16B
100
AcDbEntity
  8
1_ANYTOOL_1MMDEEP_LABELS_S
100
AcDbVertex
100
AcDb2dVertex
 10
144.0321428571374
 20
-29.93571428569976
 30
0.0
  0
VERTEX
  5
191
330
16B
100
AcDbEntity
  8
1_ANYTOOL_1MMDEEP_LABELS_S
100
AcDbVertex
100
AcDb2dVertex
 10
144.4198660714231
 20
-29.89955357141406
 30
0.0
  0
VERTEX
  5
192
330
16B
100
AcDbEntity
  8
1_ANYTOOL_1MMDEEP_LABELS_S
100
AcDbVertex
100
AcDb2dVertex
 10
144.8008928571372
 20
-29.85535714284265
 30
0.0
  0
VERTEX
  5
193
330
16B
100
AcDbEntity
  8
1_ANYTOOL_1MMDEEP_LABELS_S
100
AcDbVertex
100
AcDb2dVertex
 10
145.1752232142799
 20
-29.80312499998553
 30
0.0
  0
VERTEX
  5
194
330
16B
100
AcDbEntity
  8
1_ANYTOOL_1MMDEEP_LABELS_S
100
AcDbVertex
100
AcDb2dVertex
 10
145.5428571428511
 20
-29.74285714284269
 30
0.0
  0
VERTEX
  5
195
330
16B
100
AcDbEntity
  8
1_ANYTOOL_1MMDEEP_LABELS_S
100
AcDbVertex
100
AcDb2dVertex
 10
145.9037946428507
 20
-29.67455357141415
 30
0.0
  0
VERTEX
  5
196
330
16B
100
AcDbEntity
  8
1_ANYTOOL_1MMDEEP_LABELS_S
100
AcDbVertex
100
AcDb2dVertex
 10
146.2580357142789
 20
-29.5982142856999
 30
0.0
  0
VERTEX
  5
197
330
16B
100
AcDbEntity
  8
1_ANYTOOL_1MMDEEP_LABELS_S
100
AcDbVertex
100
AcDb2dVertex
 10
146.6055803571356
 20
-29.51383928569993
 30
0.0
  0
VERTEX
  5
198
330
16B
100
AcDbEntity
  8
1_ANYTOOL_1MMDEEP_LABELS_S
100
AcDbVertex
100
AcDb2dVertex
 10
146.9464285714207
 20
-29.42142857141425
 30
0.0
  0
VERTEX
  5
199
330
16B
100
AcDbEntity
  8
1_ANYTOOL_1MMDEEP_LABELS_S
100
AcDbVertex
100
AcDb2dVertex
 10
147.2805803571344
 20
-29.32098214284287
 30
0.0
  0
VERTEX
  5
19A
330
16B
100
AcDbEntity
  8
1_ANYTOOL_1MMDEEP_LABELS_S
100
AcDbVertex
100
AcDb2dVertex
 10
147.6080357142765
 20
-29.21249999998577
 30
0.0
  0
VERTEX
  5
19B
330
16B
100
AcDbEntity
  8
1_ANYTOOL_1MMDEEP_LABELS_S
100
AcDbVertex
100
AcDb2dVertex
 10
147.9287946428472
 20
-29.09598214284296
 30
0.0
  0
VERTEX
  5
19C
330
16B
100
AcDbEntity
  8
1_ANYTOOL_1MMDEEP_LABELS_S
100
AcDbVertex
100
AcDb2dVertex
 10
148.2428571428463
 20
-28.97142857141444
 30
0.0
  0
VERTEX
  5
19D
330
16B
100
AcDbEntity
  8
1_ANYTOOL_1MMDEEP_LABELS_S
100
AcDbVertex
100
AcDb2dVertex
 10
148.3999302455253
 20
-28.90237165177164
 30
0.0
  0
VERTEX
  5
19E
330
16B
100
AcDbEntity
  8
1_ANYTOOL_1MMDEEP_LABELS_S
100
AcDbVertex
100
AcDb2dVertex
 10
148.55507812499
 20
-28.82912946427169
 30
0.0
  0
VERTEX
  5
19F
330
16B
100
AcDbEntity
  8
1_ANYTOOL_1MMDEEP_LABELS_S
100
AcDbVertex
100
AcDb2dVertex
 10
148.7083007812404
 20
-28.75170200891458
 30
0.0
  0
VERTEX
  5
1A0
330
16B
100
AcDbEntity
  8
1_ANYTOOL_1MMDEEP_LABELS_S
100
AcDbVertex
100
AcDb2dVertex
 10
148.8595982142765
 20
-28.67008928570033
 30
0.0
  0
VERTEX
  5
1A1
330
16B
100
AcDbEntity
  8
1_ANYTOOL_1MMDEEP_LABELS_S
100
AcDbVertex
100
AcDb2dVertex
 10
149.0089704240983
 20
-28.58429129462892
 30
0.0
  0
VERTEX
  5
1A2
330
16B
100
AcDbEntity
  8
1_ANYTOOL_1MMDEEP_LABELS_S
100
AcDbVertex
100
AcDb2dVertex
 10
149.1564174107058
 20
-28.49430803570036
 30
0.0
  0
VERTEX
  5
1A3
330
16B
100
AcDbEntity
  8
1_ANYTOOL_1MMDEEP_LABELS_S
100
AcDbVertex
100
AcDb2dVertex
 10
149.301939174099
 20
-28.40013950891464
 30
0.0
  0
VERTEX
  5
1A4
330
16B
100
AcDbEntity
  8
1_ANYTOOL_1MMDEEP_LABELS_S
100
AcDbVertex
100
AcDb2dVertex
 10
149.4455357142779
 20
-28.30178571427177
 30
0.0
  0
VERTEX
  5
1A5
330
16B
100
AcDbEntity
  8
1_ANYTOOL_1MMDEEP_LABELS_S
100
AcDbVertex
100
AcDb2dVertex
 10
149.5872070312425
 20
-28.19924665177175
 30
0.0
  0
VERTEX
  5
1A6
330
16B
100
AcDbEntity
  8
1_ANYTOOL_1MMDEEP_LABELS_S
100
AcDbVertex
100
AcDb2dVertex
 10
149.7269531249927
 20
-28.09252232141458
 30
0.0
  0
VERTEX
  5
1A7
330
16B
100
AcDbEntity
  8
1_ANYTOOL_1MMDEEP_LABELS_S
100
AcDbVertex
100
AcDb2dVertex
 10
149.8647739955287
 20
-27.98161272320025
 30
0.0
  0
VERTEX
  5
1A8
330
16B
100
AcDbEntity
  8
1_ANYTOOL_1MMDEEP_LABELS_S
100
AcDbVertex
100
AcDb2dVertex
 10
150.0006696428504
 20
-27.86651785712877
 30
0.0
  0
VERTEX
  5
1A9
330
16B
100
AcDbEntity
  8
1_ANYTOOL_1MMDEEP_LABELS_S
100
AcDbVertex
100
AcDb2dVertex
 10
150.1346400669578
 20
-27.74723772320014
 30
0.0
  0
VERTEX
  5
1AA
330
16B
100
AcDbEntity
  8
1_ANYTOOL_1MMDEEP_LABELS_S
100
AcDbVertex
100
AcDb2dVertex
 10
150.2666852678509
 20
-27.62377232141435
 30
0.0
  0
VERTEX
  5
1AB
330
16B
100
AcDbEntity
  8
1_ANYTOOL_1MMDEEP_LABELS_S
100
AcDbVertex
100
AcDb2dVertex
 10
150.3968052455297
 20
-27.49612165177141
 30
0.0
  0
VERTEX
  5
1AC
330
16B
100
AcDbEntity
  8
1_ANYTOOL_1MMDEEP_LABELS_S
100
AcDbVertex
100
AcDb2dVertex
 10
150.5249999999942
 20
-27.36428571427132
 30
0.0
  0
VERTEX
  5
1AD
330
16B
100
AcDbEntity
  8
1_ANYTOOL_1MMDEEP_LABELS_S
100
AcDbVertex
100
AcDb2dVertex
 10
150.6512695312444
 20
-27.22826450891407
 30
0.0
  0
VERTEX
  5
1AE
330
16B
100
AcDbEntity
  8
1_ANYTOOL_1MMDEEP_LABELS_S
100
AcDbVertex
100
AcDb2dVertex
 10
150.7756138392803
 20
-27.08805803569967
 30
0.0
  0
VERTEX
  5
1AF
330
16B
100
AcDbEntity
  8
1_ANYTOOL_1MMDEEP_LABELS_S
100
AcDbVertex
100
AcDb2dVertex
 10
150.8980329241018
 20
-26.94366629462812
 30
0.0
  0
VERTEX
  5
1B0
330
16B
100
AcDbEntity
  8
1_ANYTOOL_1MMDEEP_LABELS_S
100
AcDbVertex
100
AcDb2dVertex
 10
151.0185267857091
 20
-26.79508928569942
 30
0.0
  0
VERTEX
  5
1B1
330
16B
100
AcDbEntity
  8
1_ANYTOOL_1MMDEEP_LABELS_S
100
AcDbVertex
100
AcDb2dVertex
 10
151.1370954241021
 20
-26.64232700891356
 30
0.0
  0
VERTEX
  5
1B2
330
16B
100
AcDbEntity
  8
1_ANYTOOL_1MMDEEP_LABELS_S
100
AcDbVertex
100
AcDb2dVertex
 10
151.2537388392808
 20
-26.48537946427055
 30
0.0
  0
VERTEX
  5
1B3
330
16B
100
AcDbEntity
  8
1_ANYTOOL_1MMDEEP_LABELS_S
100
AcDbVertex
100
AcDb2dVertex
 10
151.3684570312452
 20
-26.32424665177039
 30
0.0
  0
VERTEX
  5
1B4
330
16B
100
AcDbEntity
  8
1_ANYTOOL_1MMDEEP_LABELS_S
100
AcDbVertex
100
AcDb2dVertex
 10
151.4812499999953
 20
-26.15892857141307
 30
0.0
  0
VERTEX
  5
1B5
330
16B
100
AcDbEntity
  8
1_ANYTOOL_1MMDEEP_LABELS_S
100
AcDbVertex
100
AcDb2dVertex
 10
151.5921177455311
 20
-25.9894252231986
 30
0.0
  0
VERTEX
  5
1B6
330
16B
100
AcDbEntity
  8
1_ANYTOOL_1MMDEEP_LABELS_S
100
AcDbVertex
100
AcDb2dVertex
 10
151.7010602678525
 20
-25.81573660712698
 30
0.0
  0
VERTEX
  5
1B7
330
16B
100
AcDbEntity
  8
1_ANYTOOL_1MMDEEP_LABELS_S
100
AcDbVertex
100
AcDb2dVertex
 10
151.8080775669597
 20
-25.6378627231982
 30
0.0
  0
VERTEX
  5
1B8
330
16B
100
AcDbEntity
  8
1_ANYTOOL_1MMDEEP_LABELS_S
100
AcDbVertex
100
AcDb2dVertex
 10
151.9131696428526
 20
-25.45580357141228
 30
0.0
  0
VERTEX
  5
1B9
330
16B
100
AcDbEntity
  8
1_ANYTOOL_1MMDEEP_LABELS_S
100
AcDbVertex
100
AcDb2dVertex
 10
152.1175781249955
 20
-25.07912946426896
 30
0.0
  0
VERTEX
  5
1BA
330
16B
100
AcDbEntity
  8
1_ANYTOOL_1MMDEEP_LABELS_S
100
AcDbVertex
100
AcDb2dVertex
 10
152.3142857142811
 20
-24.68571428569703
 30
0.0
  0
VERTEX
  5
1BB
330
16B
100
AcDbEntity
  8
1_ANYTOOL_1MMDEEP_LABELS_S
100
AcDbVertex
100
AcDb2dVertex
 10
152.4284598214241
 20
-24.439620535697
 30
0.0
  0
VERTEX
  5
1BC
330
16B
100
AcDbEntity
  8
1_ANYTOOL_1MMDEEP_LABELS_S
100
AcDbVertex
100
AcDb2dVertex
 10
152.5352678571385
 20
-24.19419642855416
 30
0.0
  0
VERTEX
  5
1BD
330
16B
100
AcDbEntity
  8
1_ANYTOOL_1MMDEEP_LABELS_S
100
AcDbVertex
100
AcDb2dVertex
 10
152.6347098214243
 20
-23.94944196426852
 30
0.0
  0
VERTEX
  5
1BE
330
16B
100
AcDbEntity
  8
1_ANYTOOL_1MMDEEP_LABELS_S
100
AcDbVertex
100
AcDb2dVertex
 10
152.7267857142815
 20
-23.70535714284006
 30
0.0
  0
VERTEX
  5
1BF
330
16B
100
AcDbEntity
  8
1_ANYTOOL_1MMDEEP_LABELS_S
100
AcDbVertex
100
AcDb2dVertex
 10
152.8114955357102
 20
-23.46194196426879
 30
0.0
  0
VERTEX
  5
1C0
330
16B
100
AcDbEntity
  8
1_ANYTOOL_1MMDEEP_LABELS_S
100
AcDbVertex
100
AcDb2dVertex
 10
152.8888392857102
 20
-23.21919642855471
 30
0.0
  0
VERTEX
  5
1C1
330
16B
100
AcDbEntity
  8
1_ANYTOOL_1MMDEEP_LABELS_S
100
AcDbVertex
100
AcDb2dVertex
 10
152.9588169642817
 20
-22.97712053569782
 30
0.0
  0
VERTEX
  5
1C2
330
16B
100
AcDbEntity
  8
1_ANYTOOL_1MMDEEP_LABELS_S
100
AcDbVertex
100
AcDb2dVertex
 10
153.0214285714246
 20
-22.73571428569812
 30
0.0
  0
VERTEX
  5
1C3
330
16B
100
AcDbEntity
  8
1_ANYTOOL_1MMDEEP_LABELS_S
100
AcDbVertex
100
AcDb2dVertex
 10
153.076674107139
 20
-22.49497767855561
 30
0.0
  0
VERTEX
  5
1C4
330
16B
100
AcDbEntity
  8
1_ANYTOOL_1MMDEEP_LABELS_S
100
AcDbVertex
100
AcDb2dVertex
 10
153.1245535714247
 20
-22.2549107142703
 30
0.0
  0
VERTEX
  5
1C5
330
16B
100
AcDbEntity
  8
1_ANYTOOL_1MMDEEP_LABELS_S
100
AcDbVertex
100
AcDb2dVertex
 10
153.1650669642819
 20
-22.01551339284217
 30
0.0
  0
VERTEX
  5
1C6
330
16B
100
AcDbEntity
  8
1_ANYTOOL_1MMDEEP_LABELS_S
100
AcDbVertex
100
AcDb2dVertex
 10
153.1982142857105
 20
-21.77678571427123
 30
0.0
  0
VERTEX
  5
1C7
330
16B
100
AcDbEntity
  8
1_ANYTOOL_1MMDEEP_LABELS_S
100
AcDbVertex
100
AcDb2dVertex
 10
153.2239955357105
 20
-21.53872767855748
 30
0.0
  0
VERTEX
  5
1C8
330
16B
100
AcDbEntity
  8
1_ANYTOOL_1MMDEEP_LABELS_S
100
AcDbVertex
100
AcDb2dVertex
 10
153.242410714282
 20
-21.30133928570092
 30
0.0
  0
VERTEX
  5
1C9
330
16B
100
AcDbEntity
  8
1_ANYTOOL_1MMDEEP_LABELS_S
100
AcDbVertex
100
AcDb2dVertex
 10
153.2534598214248
 20
-21.06462053570155
 30
0.0
  0
VERTEX
  5
1CA
330
16B
100
AcDbEntity
  8
1_ANYTOOL_1MMDEEP_LABELS_S
100
AcDbVertex
100
AcDb2dVertex
 10
153.2571428571391
 20
-20.82857142855937
 30
0.0
  0
VERTEX
  5
1CB
330
16B
100
AcDbEntity
  8
1_ANYTOOL_1MMDEEP_LABELS_S
100
AcDbVertex
100
AcDb2dVertex
 10
153.2547991071391
 20
-20.56205357141632
 30
0.0
  0
VERTEX
  5
1CC
330
16B
100
AcDbEntity
  8
1_ANYTOOL_1MMDEEP_LABELS_S
100
AcDbVertex
100
AcDb2dVertex
 10
153.2477678571391
 20
-20.29821428570185
 30
0.0
  0
VERTEX
  5
1CD
330
16B
100
AcDbEntity
  8
1_ANYTOOL_1MMDEEP_LABELS_S
100
AcDbVertex
100
AcDb2dVertex
 10
153.2360491071391
 20
-20.03705357141595
 30
0.0
  0
VERTEX
  5
1CE
330
16B
100
AcDbEntity
  8
1_ANYTOOL_1MMDEEP_LABELS_S
100
AcDbVertex
100
AcDb2dVertex
 10
153.2196428571391
 20
-19.77857142855862
 30
0.0
  0
VERTEX
  5
1CF
330
16B
100
AcDbEntity
  8
1_ANYTOOL_1MMDEEP_LABELS_S
100
AcDbVertex
100
AcDb2dVertex
 10
153.1985491071391
 20
-19.52276785712987
 30
0.0
  0
VERTEX
  5
1D0
330
16B
100
AcDbEntity
  8
1_ANYTOOL_1MMDEEP_LABELS_S
100
AcDbVertex
100
AcDb2dVertex
 10
153.1727678571391
 20
-19.2696428571297
 30
0.0
  0
VERTEX
  5
1D1
330
16B
100
AcDbEntity
  8
1_ANYTOOL_1MMDEEP_LABELS_S
100
AcDbVertex
100
AcDb2dVertex
 10
153.1422991071391
 20
-19.0191964285581
 30
0.0
  0
VERTEX
  5
1D2
330
16B
100
AcDbEntity
  8
1_ANYTOOL_1MMDEEP_LABELS_S
100
AcDbVertex
100
AcDb2dVertex
 10
153.107142857139
 20
-18.77142857141507
 30
0.0
  0
VERTEX
  5
1D3
330
16B
100
AcDbEntity
  8
1_ANYTOOL_1MMDEEP_LABELS_S
100
AcDbVertex
100
AcDb2dVertex
 10
153.067299107139
 20
-18.52633928570062
 30
0.0
  0
VERTEX
  5
1D4
330
16B
100
AcDbEntity
  8
1_ANYTOOL_1MMDEEP_LABELS_S
100
AcDbVertex
100
AcDb2dVertex
 10
153.022767857139
 20
-18.28392857141475
 30
0.0
  0
VERTEX
  5
1D5
330
16B
100
AcDbEntity
  8
1_ANYTOOL_1MMDEEP_LABELS_S
100
AcDbVertex
100
AcDb2dVertex
 10
152.9735491071389
 20
-18.04419642855745
 30
0.0
  0
VERTEX
  5
1D6
330
16B
100
AcDbEntity
  8
1_ANYTOOL_1MMDEEP_LABELS_S
100
AcDbVertex
100
AcDb2dVertex
 10
152.9196428571389
 20
-17.80714285712872
 30
0.0
  0
VERTEX
  5
1D7
330
16B
100
AcDbEntity
  8
1_ANYTOOL_1MMDEEP_LABELS_S
100
AcDbVertex
100
AcDb2dVertex
 10
152.8610491071389
 20
-17.57276785712858
 30
0.0
  0
VERTEX
  5
1D8
330
16B
100
AcDbEntity
  8
1_ANYTOOL_1MMDEEP_LABELS_S
100
AcDbVertex
100
AcDb2dVertex
 10
152.7977678571388
 20
-17.341071428557
 30
0.0
  0
VERTEX
  5
1D9
330
16B
100
AcDbEntity
  8
1_ANYTOOL_1MMDEEP_LABELS_S
100
AcDbVertex
100
AcDb2dVertex
 10
152.7297991071388
 20
-17.112053571414
 30
0.0
  0
VERTEX
  5
1DA
330
16B
100
AcDbEntity
  8
1_ANYTOOL_1MMDEEP_LABELS_S
100
AcDbVertex
100
AcDb2dVertex
 10
152.6571428571388
 20
-16.88571428569958
 30
0.0
  0
VERTEX
  5
1DB
330
16B
100
AcDbEntity
  8
1_ANYTOOL_1MMDEEP_LABELS_S
100
AcDbVertex
100
AcDb2dVertex
 10
152.5797991071387
 20
-16.66205357141373
 30
0.0
  0
VERTEX
  5
1DC
330
16B
100
AcDbEntity
  8
1_ANYTOOL_1MMDEEP_LABELS_S
100
AcDbVertex
100
AcDb2dVertex
 10
152.4977678571387
 20
-16.44107142855646
 30
0.0
  0
VERTEX
  5
1DD
330
16B
100
AcDbEntity
  8
1_ANYTOOL_1MMDEEP_LABELS_S
100
AcDbVertex
100
AcDb2dVertex
 10
152.4110491071386
 20
-16.22276785712776
 30
0.0
  0
VERTEX
  5
1DE
330
16B
100
AcDbEntity
  8
1_ANYTOOL_1MMDEEP_LABELS_S
100
AcDbVertex
100
AcDb2dVertex
 10
152.3196428571385
 20
-16.00714285712763
 30
0.0
  0
VERTEX
  5
1DF
330
16B
100
AcDbEntity
  8
1_ANYTOOL_1MMDEEP_LABELS_S
100
AcDbVertex
100
AcDb2dVertex
 10
152.2235491071385
 20
-15.79419642855608
 30
0.0
  0
VERTEX
  5
1E0
330
16B
100
AcDbEntity
  8
1_ANYTOOL_1MMDEEP_LABELS_S
100
AcDbVertex
100
AcDb2dVertex
 10
152.1227678571384
 20
-15.58392857141311
 30
0.0
  0
VERTEX
  5
1E1
330
16B
100
AcDbEntity
  8
1_ANYTOOL_1MMDEEP_LABELS_S
100
AcDbVertex
100
AcDb2dVertex
 10
152.0172991071384
 20
-15.37633928569871
 30
0.0
  0
VERTEX
  5
1E2
330
16B
100
AcDbEntity
  8
1_ANYTOOL_1MMDEEP_LABELS_S
100
AcDbVertex
100
AcDb2dVertex
 10
151.9071428571383
 20
-15.17142857141289
 30
0.0
  0
VERTEX
  5
1E3
330
16B
100
AcDbEntity
  8
1_ANYTOOL_1MMDEEP_LABELS_S
100
AcDbVertex
100
AcDb2dVertex
 10
151.7922991071382
 20
-14.96919642855564
 30
0.0
  0
VERTEX
  5
1E4
330
16B
100
AcDbEntity
  8
1_ANYTOOL_1MMDEEP_LABELS_S
100
AcDbVertex
100
AcDb2dVertex
 10
151.6727678571382
 20
-14.76964285712697
 30
0.0
  0
VERTEX
  5
1E5
330
16B
100
AcDbEntity
  8
1_ANYTOOL_1MMDEEP_LABELS_S
100
AcDbVertex
100
AcDb2dVertex
 10
151.5485491071381
 20
-14.57276785712687
 30
0.0
  0
VERTEX
  5
1E6
330
16B
100
AcDbEntity
  8
1_ANYTOOL_1MMDEEP_LABELS_S
100
AcDbVertex
100
AcDb2dVertex
 10
151.419642857138
 20
-14.37857142855535
 30
0.0
  0
VERTEX
  5
1E7
330
16B
100
AcDbEntity
  8
1_ANYTOOL_1MMDEEP_LABELS_S
100
AcDbVertex
100
AcDb2dVertex
 10
151.2860491071379
 20
-14.1870535714124
 30
0.0
  0
VERTEX
  5
1E8
330
16B
100
AcDbEntity
  8
1_ANYTOOL_1MMDEEP_LABELS_S
100
AcDbVertex
100
AcDb2dVertex
 10
151.1477678571378
 20
-13.99821428569803
 30
0.0
  0
VERTEX
  5
1E9
330
16B
100
AcDbEntity
  8
1_ANYTOOL_1MMDEEP_LABELS_S
100
AcDbVertex
100
AcDb2dVertex
 10
151.0047991071378
 20
-13.81205357141223
 30
0.0
  0
VERTEX
  5
1EA
330
16B
100
AcDbEntity
  8
1_ANYTOOL_1MMDEEP_LABELS_S
100
AcDbVertex
100
AcDb2dVertex
 10
150.8571428571377
 20
-13.62857142855501
 30
0.0
  0
VERTEX
  5
1EB
330
16B
100
AcDbEntity
  8
1_ANYTOOL_1MMDEEP_LABELS_S
100
AcDbVertex
100
AcDb2dVertex
 10
150.705050223209
 20
-13.44927455355493
 30
0.0
  0
VERTEX
  5
1EC
330
16B
100
AcDbEntity
  8
1_ANYTOOL_1MMDEEP_LABELS_S
100
AcDbVertex
100
AcDb2dVertex
 10
150.5487723214232
 20
-13.27566964284057
 30
0.0
  0
VERTEX
  5
1ED
330
16B
100
AcDbEntity
  8
1_ANYTOOL_1MMDEEP_LABELS_S
100
AcDbVertex
100
AcDb2dVertex
 10
150.3883091517803
 20
-13.10775669641193
 30
0.0
  0
VERTEX
  5
1EE
330
16B
100
AcDbEntity
  8
1_ANYTOOL_1MMDEEP_LABELS_S
100
AcDbVertex
100
AcDb2dVertex
 10
150.2236607142802
 20
-12.945535714269
 30
0.0
  0
VERTEX
  5
1EF
330
16B
100
AcDbEntity
  8
1_ANYTOOL_1MMDEEP_LABELS_S
100
AcDbVertex
100
AcDb2dVertex
 10
150.054827008923
 20
-12.78900669641179
 30
0.0
  0
VERTEX
  5
1F0
330
16B
100
AcDbEntity
  8
1_ANYTOOL_1MMDEEP_LABELS_S
100
AcDbVertex
100
AcDb2dVertex
 10
149.8818080357086
 20
-12.6381696428403
 30
0.0
  0
VERTEX
  5
1F1
330
16B
100
AcDbEntity
  8
1_ANYTOOL_1MMDEEP_LABELS_S
100
AcDbVertex
100
AcDb2dVertex
 10
149.7046037946371
 20
-12.49302455355452
 30
0.0
  0
VERTEX
  5
1F2
330
16B
100
AcDbEntity
  8
1_ANYTOOL_1MMDEEP_LABELS_S
100
AcDbVertex
100
AcDb2dVertex
 10
149.5232142857085
 20
-12.35357142855446
 30
0.0
  0
VERTEX
  5
1F3
330
16B
100
AcDbEntity
  8
1_ANYTOOL_1MMDEEP_LABELS_S
100
AcDbVertex
100
AcDb2dVertex
 10
149.3376395089227
 20
-12.21981026784012
 30
0.0
  0
VERTEX
  5
1F4
330
16B
100
AcDbEntity
  8
1_ANYTOOL_1MMDEEP_LABELS_S
100
AcDbVertex
100
AcDb2dVertex
 10
149.1478794642798
 20
-12.09174107141149
 30
0.0
  0
VERTEX
  5
1F5
330
16B
100
AcDbEntity
  8
1_ANYTOOL_1MMDEEP_LABELS_S
100
AcDbVertex
100
AcDb2dVertex
 10
148.9539341517798
 20
-11.96936383926858
 30
0.0
  0
VERTEX
  5
1F6
330
16B
100
AcDbEntity
  8
1_ANYTOOL_1MMDEEP_LABELS_S
100
AcDbVertex
100
AcDb2dVertex
 10
148.7558035714226
 20
-11.85267857141139
 30
0.0
  0
VERTEX
  5
1F7
330
16B
100
AcDbEntity
  8
1_ANYTOOL_1MMDEEP_LABELS_S
100
AcDbVertex
100
AcDb2dVertex
 10
148.5534877232083
 20
-11.74168526783991
 30
0.0
  0
VERTEX
  5
1F8
330
16B
100
AcDbEntity
  8
1_ANYTOOL_1MMDEEP_LABELS_S
100
AcDbVertex
100
AcDb2dVertex
 10
148.3469866071368
 20
-11.63638392855415
 30
0.0
  0
VERTEX
  5
1F9
330
16B
100
AcDbEntity
  8
1_ANYTOOL_1MMDEEP_LABELS_S
100
AcDbVertex
100
AcDb2dVertex
 10
148.1363002232082
 20
-11.53677455355411
 30
0.0
  0
VERTEX
  5
1FA
330
16B
100
AcDbEntity
  8
1_ANYTOOL_1MMDEEP_LABELS_S
100
AcDbVertex
100
AcDb2dVertex
 10
147.9214285714224
 20
-11.44285714283978
 30
0.0
  0
VERTEX
  5
1FB
330
16B
100
AcDbEntity
  8
1_ANYTOOL_1MMDEEP_LABELS_S
100
AcDbVertex
100
AcDb2dVertex
 10
147.7023716517796
 20
-11.35463169641118
 30
0.0
  0
VERTEX
  5
1FC
330
16B
100
AcDbEntity
  8
1_ANYTOOL_1MMDEEP_LABELS_S
100
AcDbVertex
100
AcDb2dVertex
 10
147.4791294642795
 20
-11.27209821426828
 30
0.0
  0
VERTEX
  5
1FD
330
16B
100
AcDbEntity
  8
1_ANYTOOL_1MMDEEP_LABELS_S
100
AcDbVertex
100
AcDb2dVertex
 10
147.2517020089224
 20
-11.19525669641111
 30
0.0
  0
VERTEX
  5
1FE
330
16B
100
AcDbEntity
  8
1_ANYTOOL_1MMDEEP_LABELS_S
100
AcDbVertex
100
AcDb2dVertex
 10
147.0200892857081
 20
-11.12410714283965
 30
0.0
  0
VERTEX
  5
1FF
330
16B
100
AcDbEntity
  8
1_ANYTOOL_1MMDEEP_LABELS_S
100
AcDbVertex
100
AcDb2dVertex
 10
146.7842912946367
 20
-11.05864955355391
 30
0.0
  0
VERTEX
  5
200
330
16B
100
AcDbEntity
  8
1_ANYTOOL_1MMDEEP_LABELS_S
100
AcDbVertex
100
AcDb2dVertex
 10
146.5443080357081
 20
-10.99888392855388
 30
0.0
  0
VERTEX
  5
201
330
16B
100
AcDbEntity
  8
1_ANYTOOL_1MMDEEP_LABELS_S
100
AcDbVertex
100
AcDb2dVertex
 10
146.3001395089224
 20
-10.94481026783957
 30
0.0
  0
VERTEX
  5
202
330
16B
100
AcDbEntity
  8
1_ANYTOOL_1MMDEEP_LABELS_S
100
AcDbVertex
100
AcDb2dVertex
 10
146.0517857142795
 20
-10.89642857141098
 30
0.0
  0
VERTEX
  5
203
330
16B
100
AcDbEntity
  8
1_ANYTOOL_1MMDEEP_LABELS_S
100
AcDbVertex
100
AcDb2dVertex
 10
145.7992466517795
 20
-10.8537388392681
 30
0.0
  0
VERTEX
  5
204
330
16B
100
AcDbEntity
  8
1_ANYTOOL_1MMDEEP_LABELS_S
100
AcDbVertex
100
AcDb2dVertex
 10
145.5425223214224
 20
-10.81674107141095
 30
0.0
  0
VERTEX
  5
205
330
16B
100
AcDbEntity
  8
1_ANYTOOL_1MMDEEP_LABELS_S
100
AcDbVertex
100
AcDb2dVertex
 10
145.2816127232081
 20
-10.7854352678395
 30
0.0
  0
VERTEX
  5
206
330
16B
100
AcDbEntity
  8
1_ANYTOOL_1MMDEEP_LABELS_S
100
AcDbVertex
100
AcDb2dVertex
 10
145.0165178571367
 20
-10.75982142855378
 30
0.0
  0
VERTEX
  5
207
330
16B
100
AcDbEntity
  8
1_ANYTOOL_1MMDEEP_LABELS_S
100
AcDbVertex
100
AcDb2dVertex
 10
144.7472377232082
 20
-10.73989955355377
 30
0.0
  0
VERTEX
  5
208
330
16B
100
AcDbEntity
  8
1_ANYTOOL_1MMDEEP_LABELS_S
100
AcDbVertex
100
AcDb2dVertex
 10
144.4737723214225
 20
-10.72566964283948
 30
0.0
  0
VERTEX
  5
209
330
16B
100
AcDbEntity
  8
1_ANYTOOL_1MMDEEP_LABELS_S
100
AcDbVertex
100
AcDb2dVertex
 10
144.1961216517797
 20
-10.7171316964109
 30
0.0
  0
VERTEX
  5
20A
330
16B
100
AcDbEntity
  8
1_ANYTOOL_1MMDEEP_LABELS_S
100
AcDbVertex
100
AcDb2dVertex
 10
143.9142857142797
 20
-10.71428571426804
 30
0.0
  0
VERTEX
  5
20B
330
16B
100
AcDbEntity
  8
1_ANYTOOL_1MMDEEP_LABELS_S
100
AcDbVertex
100
AcDb2dVertex
 10
143.5632254464223
 20
-10.71880580355378
 30
0.0
  0
VERTEX
  5
20C
330
16B
100
AcDbEntity
  8
1_ANYTOOL_1MMDEEP_LABELS_S
100
AcDbVertex
100
AcDb2dVertex
 10
143.2171874999934
 20
-10.73236607141098
 30
0.0
  0
VERTEX
  5
20D
330
16B
100
AcDbEntity
  8
1_ANYTOOL_1MMDEEP_LABELS_S
100
AcDbVertex
100
AcDb2dVertex
 10
142.8761718749932
 20
-10.75496651783965
 30
0.0
  0
VERTEX
  5
20E
330
16B
100
AcDbEntity
  8
1_ANYTOOL_1MMDEEP_LABELS_S
100
AcDbVertex
100
AcDb2dVertex
 10
142.5401785714216
 20
-10.78660714283978
 30
0.0
  0
VERTEX
  5
20F
330
16B
100
AcDbEntity
  8
1_ANYTOOL_1MMDEEP_LABELS_S
100
AcDbVertex
100
AcDb2dVertex
 10
142.2092075892786
 20
-10.82728794641139
 30
0.0
  0
VERTEX
  5
210
330
16B
100
AcDbEntity
  8
1_ANYTOOL_1MMDEEP_LABELS_S
100
AcDbVertex
100
AcDb2dVertex
 10
141.8832589285643
 20
-10.87700892855446
 30
0.0
  0
VERTEX
  5
211
330
16B
100
AcDbEntity
  8
1_ANYTOOL_1MMDEEP_LABELS_S
100
AcDbVertex
100
AcDb2dVertex
 10
141.5623325892785
 20
-10.935770089269
 30
0.0
  0
VERTEX
  5
212
330
16B
100
AcDbEntity
  8
1_ANYTOOL_1MMDEEP_LABELS_S
100
AcDbVertex
100
AcDb2dVertex
 10
141.2464285714213
 20
-11.00357142855501
 30
0.0
  0
VERTEX
  5
213
330
16B
100
AcDbEntity
  8
1_ANYTOOL_1MMDEEP_LABELS_S
100
AcDbVertex
100
AcDb2dVertex
 10
140.9355468749928
 20
-11.08041294641248
 30
0.0
  0
VERTEX
  5
214
330
16B
100
AcDbEntity
  8
1_ANYTOOL_1MMDEEP_LABELS_S
100
AcDbVertex
100
AcDb2dVertex
 10
140.6296874999929
 20
-11.16629464284142
 30
0.0
  0
VERTEX
  5
215
330
16B
100
AcDbEntity
  8
1_ANYTOOL_1MMDEEP_LABELS_S
100
AcDbVertex
100
AcDb2dVertex
 10
140.3288504464216
 20
-11.26121651784183
 30
0.0
  0
VERTEX
  5
216
330
16B
100
AcDbEntity
  8
1_ANYTOOL_1MMDEEP_LABELS_S
100
AcDbVertex
100
AcDb2dVertex
 10
140.0330357142789
 20
-11.36517857141371
 30
0.0
  0
VERTEX
  5
217
330
16B
100
AcDbEntity
  8
1_ANYTOOL_1MMDEEP_LABELS_S
100
AcDbVertex
100
AcDb2dVertex
 10
139.7422433035648
 20
-11.47818080355705
 30
0.0
  0
VERTEX
  5
218
330
16B
100
AcDbEntity
  8
1_ANYTOOL_1MMDEEP_LABELS_S
100
AcDbVertex
100
AcDb2dVertex
 10
139.4564732142793
 20
-11.60022321427186
 30
0.0
  0
VERTEX
  5
219
330
16B
100
AcDbEntity
  8
1_ANYTOOL_1MMDEEP_LABELS_S
100
AcDbVertex
100
AcDb2dVertex
 10
139.1757254464224
 20
-11.73130580355814
 30
0.0
  0
VERTEX
  5
21A
330
16B
100
AcDbEntity
  8
1_ANYTOOL_1MMDEEP_LABELS_S
100
AcDbVertex
100
AcDb2dVertex
 10
138.8999999999942
 20
-11.87142857141589
 30
0.0
  0
VERTEX
  5
21B
330
16B
100
AcDbEntity
  8
1_ANYTOOL_1MMDEEP_LABELS_S
100
AcDbVertex
100
AcDb2dVertex
 10
138.355580357136
 20
-12.16473214284406
 30
0.0
  0
VERTEX
  5
21C
330
16B
100
AcDbEntity
  8
1_ANYTOOL_1MMDEEP_LABELS_S
100
AcDbVertex
100
AcDb2dVertex
 10
138.0848772321355
 20
-12.32243303570101
 30
0.0
  0
VERTEX
  5
21D
330
16B
100
AcDbEntity
  8
1_ANYTOOL_1MMDEEP_LABELS_S
100
AcDbVertex
100
AcDb2dVertex
 10
137.8151785714208
 20
-12.48749999998654
 30
0.0
  0
VERTEX
  5
21E
330
16B
100
AcDbEntity
  8
1_ANYTOOL_1MMDEEP_LABELS_S
100
AcDbVertex
100
AcDb2dVertex
 10
137.5464843749918
 20
-12.65993303570065
 30
0.0
  0
VERTEX
  5
21F
330
16B
100
AcDbEntity
  8
1_ANYTOOL_1MMDEEP_LABELS_S
100
AcDbVertex
100
AcDb2dVertex
 10
137.2787946428487
 20
-12.83973214284333
 30
0.0
  0
VERTEX
  5
220
330
16B
100
AcDbEntity
  8
1_ANYTOOL_1MMDEEP_LABELS_S
100
AcDbVertex
100
AcDb2dVertex
 10
137.0121093749912
 20
-13.02689732141459
 30
0.0
  0
VERTEX
  5
221
330
16B
100
AcDbEntity
  8
1_ANYTOOL_1MMDEEP_LABELS_S
100
AcDbVertex
100
AcDb2dVertex
 10
136.7464285714195
 20
-13.22142857141444
 30
0.0
  0
VERTEX
  5
222
330
16B
100
AcDbEntity
  8
1_ANYTOOL_1MMDEEP_LABELS_S
100
AcDbVertex
100
AcDb2dVertex
 10
136.4817522321336
 20
-13.42332589284285
 30
0.0
  0
VERTEX
  5
223
330
16B
100
AcDbEntity
  8
1_ANYTOOL_1MMDEEP_LABELS_S
100
AcDbVertex
100
AcDb2dVertex
 10
136.2180803571334
 20
-13.63258928569985
 30
0.0
  0
VERTEX
  5
224
330
16B
100
AcDbEntity
  8
1_ANYTOOL_1MMDEEP_LABELS_S
100
AcDbVertex
100
AcDb2dVertex
 10
135.955412946419
 20
-13.84921874998543
 30
0.0
  0
VERTEX
  5
225
330
16B
100
AcDbEntity
  8
1_ANYTOOL_1MMDEEP_LABELS_S
100
AcDbVertex
100
AcDb2dVertex
 10
135.6937499999904
 20
-14.07321428569958
 30
0.0
  0
VERTEX
  5
226
330
16B
100
AcDbEntity
  8
1_ANYTOOL_1MMDEEP_LABELS_S
100
AcDbVertex
100
AcDb2dVertex
 10
135.4330915178475
 20
-14.30457589284231
 30
0.0
  0
VERTEX
  5
227
330
16B
100
AcDbEntity
  8
1_ANYTOOL_1MMDEEP_LABELS_S
100
AcDbVertex
100
AcDb2dVertex
 10
135.1734374999903
 20
-14.54330357141362
 30
0.0
  0
VERTEX
  5
228
330
16B
100
AcDbEntity
  8
1_ANYTOOL_1MMDEEP_LABELS_S
100
AcDbVertex
100
AcDb2dVertex
 10
134.6571428571333
 20
-15.04285714284197
 30
0.0
  0
VERTEX
  5
229
330
16B
100
AcDbEntity
  8
1_ANYTOOL_1MMDEEP_LABELS_S
100
AcDbVertex
100
AcDb2dVertex
 10
135.3857142857087
 20
0.0000000000145519
 30
0.0
  0
VERTEX
  5
22A
330
16B
100
AcDbEntity
  8
1_ANYTOOL_1MMDEEP_LABELS_S
100
AcDbVertex
100
AcDb2dVertex
 10
151.5857142857058
 20
0.0000000000145519
 30
0.0
  0
SEQEND
  5
22B
330
16B
100
AcDbEntity
  8
1_ANYTOOL_1MMDEEP_LABELS_S
  0
LINE
  5
22C
330
1F
100
AcDbEntity
  8
1_ANYTOOL_1MMDEEP_LABELS_S
100
AcDbLine
 10
173.8285714285666
 20
-0.4714285714144353
 30
0.0
 11
156.6428571428478
 21
-31.24285714283906
 31
0.0
  0
POLYLINE
  5
22D
330
1F
100
AcDbEntity
  8
1_ANYTOOL_1MMDEEP_LABELS_S
100
AcDb2dPolyline
 66
     1
 10
0.0
 20
0.0
 30
0.0
  0
VERTEX
  5
22E
330
22D
100
AcDbEntity
  8
1_ANYTOOL_1MMDEEP_LABELS_S
100
AcDbVertex
100
AcDb2dVertex
 10
189.0428571428492
 20
-16.19999999998254
 30
0.0
  0
VERTEX
  5
22F
330
22D
100
AcDbEntity
  8
1_ANYTOOL_1MMDEEP_LABELS_S
100
AcDbVertex
100
AcDb2dVertex
 10
198.8142857142811
 20
-16.24285714283906
 30
0.0
  0
VERTEX
  5
230
330
22D
100
AcDbEntity
  8
1_ANYTOOL_1MMDEEP_LABELS_S
100
AcDbVertex
100
AcDb2dVertex
 10
198.7796316964234
 20
-17.07137276783953
 30
0.0
  0
VERTEX
  5
231
330
22D
100
AcDbEntity
  8
1_ANYTOOL_1MMDEEP_LABELS_S
100
AcDbVertex
100
AcDb2dVertex
 10
198.7523856026731
 20
-17.47621372766119
 30
0.0
  0
VERTEX
  5
232
330
22D
100
AcDbEntity
  8
1_ANYTOOL_1MMDEEP_LABELS_S
100
AcDbVertex
100
AcDb2dVertex
 10
198.7185267857086
 20
-17.87477678569712
 30
0.0
  0
VERTEX
  5
233
330
22D
100
AcDbEntity
  8
1_ANYTOOL_1MMDEEP_LABELS_S
100
AcDbVertex
100
AcDb2dVertex
 10
198.6780552455298
 20
-18.26706194194733
 30
0.0
  0
VERTEX
  5
234
330
22D
100
AcDbEntity
  8
1_ANYTOOL_1MMDEEP_LABELS_S
100
AcDbVertex
100
AcDb2dVertex
 10
198.6309709821367
 20
-18.65306919641182
 30
0.0
  0
VERTEX
  5
235
330
22D
100
AcDbEntity
  8
1_ANYTOOL_1MMDEEP_LABELS_S
100
AcDbVertex
100
AcDb2dVertex
 10
198.5772739955293
 20
-19.03279854909059
 30
0.0
  0
VERTEX
  5
236
330
22D
100
AcDbEntity
  8
1_ANYTOOL_1MMDEEP_LABELS_S
100
AcDbVertex
100
AcDb2dVertex
 10
198.5169642857077
 20
-19.40624999998363
 30
0.0
  0
VERTEX
  5
237
330
22D
100
AcDbEntity
  8
1_ANYTOOL_1MMDEEP_LABELS_S
100
AcDbVertex
100
AcDb2dVertex
 10
198.4500418526717
 20
-19.77342354909095
 30
0.0
  0
VERTEX
  5
238
330
22D
100
AcDbEntity
  8
1_ANYTOOL_1MMDEEP_LABELS_S
100
AcDbVertex
100
AcDb2dVertex
 10
198.3765066964216
 20
-20.13431919641255
 30
0.0
  0
VERTEX
  5
239
330
22D
100
AcDbEntity
  8
1_ANYTOOL_1MMDEEP_LABELS_S
100
AcDbVertex
100
AcDb2dVertex
 10
198.2963588169571
 20
-20.48893694194842
 30
0.0
  0
VERTEX
  5
23A
330
22D
100
AcDbEntity
  8
1_ANYTOOL_1MMDEEP_LABELS_S
100
AcDbVertex
100
AcDb2dVertex
 10
198.2095982142783
 20
-20.83727678569858
 30
0.0
  0
VERTEX
  5
23B
330
22D
100
AcDbEntity
  8
1_ANYTOOL_1MMDEEP_LABELS_S
100
AcDbVertex
100
AcDb2dVertex
 10
198.1162248883853
 20
-21.17933872766301
 30
0.0
  0
VERTEX
  5
23C
330
22D
100
AcDbEntity
  8
1_ANYTOOL_1MMDEEP_LABELS_S
100
AcDbVertex
100
AcDb2dVertex
 10
198.016238839278
 20
-21.51512276784172
 30
0.0
  0
VERTEX
  5
23D
330
22D
100
AcDbEntity
  8
1_ANYTOOL_1MMDEEP_LABELS_S
100
AcDbVertex
100
AcDb2dVertex
 10
197.9096400669565
 20
-21.8446289062347
 30
0.0
  0
VERTEX
  5
23E
330
22D
100
AcDbEntity
  8
1_ANYTOOL_1MMDEEP_LABELS_S
100
AcDbVertex
100
AcDb2dVertex
 10
197.7964285714206
 20
-22.16785714284197
 30
0.0
  0
VERTEX
  5
23F
330
22D
100
AcDbEntity
  8
1_ANYTOOL_1MMDEEP_LABELS_S
100
AcDbVertex
100
AcDb2dVertex
 10
197.6766043526705
 20
-22.48480747766351
 30
0.0
  0
VERTEX
  5
240
330
22D
100
AcDbEntity
  8
1_ANYTOOL_1MMDEEP_LABELS_S
100
AcDbVertex
100
AcDb2dVertex
 10
197.5501674107061
 20
-22.79547991069933
 30
0.0
  0
VERTEX
  5
241
330
22D
100
AcDbEntity
  8
1_ANYTOOL_1MMDEEP_LABELS_S
100
AcDbVertex
100
AcDb2dVertex
 10
197.4171177455274
 20
-23.09987444194942
 30
0.0
  0
VERTEX
  5
242
330
22D
100
AcDbEntity
  8
1_ANYTOOL_1MMDEEP_LABELS_S
100
AcDbVertex
100
AcDb2dVertex
 10
197.2774553571345
 20
-23.3979910714138
 30
0.0
  0
VERTEX
  5
243
330
22D
100
AcDbEntity
  8
1_ANYTOOL_1MMDEEP_LABELS_S
100
AcDbVertex
100
AcDb2dVertex
 10
197.1311802455273
 20
-23.68982979909245
 30
0.0
  0
VERTEX
  5
244
330
22D
100
AcDbEntity
  8
1_ANYTOOL_1MMDEEP_LABELS_S
100
AcDbVertex
100
AcDb2dVertex
 10
196.9782924107058
 20
-23.97539062498538
 30
0.0
  0
VERTEX
  5
245
330
22D
100
AcDbEntity
  8
1_ANYTOOL_1MMDEEP_LABELS_S
100
AcDbVertex
100
AcDb2dVertex
 10
196.81879185267
 20
-24.25467354909259
 30
0.0
  0
VERTEX
  5
246
330
22D
100
AcDbEntity
  8
1_ANYTOOL_1MMDEEP_LABELS_S
100
AcDbVertex
100
AcDb2dVertex
 10
196.65267857142
 20
-24.52767857141407
 30
0.0
  0
VERTEX
  5
247
330
22D
100
AcDbEntity
  8
1_ANYTOOL_1MMDEEP_LABELS_S
100
AcDbVertex
100
AcDb2dVertex
 10
196.4799525669557
 20
-24.79440569194983
 30
0.0
  0
VERTEX
  5
248
330
22D
100
AcDbEntity
  8
1_ANYTOOL_1MMDEEP_LABELS_S
100
AcDbVertex
100
AcDb2dVertex
 10
196.3006138392771
 20
-25.05485491069987
 30
0.0
  0
VERTEX
  5
249
330
22D
100
AcDbEntity
  8
1_ANYTOOL_1MMDEEP_LABELS_S
100
AcDbVertex
100
AcDb2dVertex
 10
196.1146623883842
 20
-25.30902622766419
 30
0.0
  0
VERTEX
  5
24A
330
22D
100
AcDbEntity
  8
1_ANYTOOL_1MMDEEP_LABELS_S
100
AcDbVertex
100
AcDb2dVertex
 10
195.9220982142771
 20
-25.55691964284279
 30
0.0
  0
VERTEX
  5
24B
330
22D
100
AcDbEntity
  8
1_ANYTOOL_1MMDEEP_LABELS_S
100
AcDbVertex
100
AcDb2dVertex
 10
195.7229213169556
 20
-25.79853515623566
 30
0.0
  0
VERTEX
  5
24C
330
22D
100
AcDbEntity
  8
1_ANYTOOL_1MMDEEP_LABELS_S
100
AcDbVertex
100
AcDb2dVertex
 10
195.51713169642
 20
-26.03387276784281
 30
0.0
  0
VERTEX
  5
24D
330
22D
100
AcDbEntity
  8
1_ANYTOOL_1MMDEEP_LABELS_S
100
AcDbVertex
100
AcDb2dVertex
 10
195.30472935267
 20
-26.26293247766424
 30
0.0
  0
VERTEX
  5
24E
330
22D
100
AcDbEntity
  8
1_ANYTOOL_1MMDEEP_LABELS_S
100
AcDbVertex
100
AcDb2dVertex
 10
195.0857142857058
 20
-26.48571428569994
 30
0.0
  0
VERTEX
  5
24F
330
22D
100
AcDbEntity
  8
1_ANYTOOL_1MMDEEP_LABELS_S
100
AcDbVertex
100
AcDb2dVertex
 10
194.6439174107058
 20
-26.91143973212849
 30
0.0
  0
VERTEX
  5
250
330
22D
100
AcDbEntity
  8
1_ANYTOOL_1MMDEEP_LABELS_S
100
AcDbVertex
100
AcDb2dVertex
 10
194.4211356026701
 20
-27.1141322544499
 30
0.0
  0
VERTEX
  5
251
330
22D
100
AcDbEntity
  8
1_ANYTOOL_1MMDEEP_LABELS_S
100
AcDbVertex
100
AcDb2dVertex
 10
194.1970982142773
 20
-27.31004464284274
 30
0.0
  0
VERTEX
  5
252
330
22D
100
AcDbEntity
  8
1_ANYTOOL_1MMDEEP_LABELS_S
100
AcDbVertex
100
AcDb2dVertex
 10
193.9718052455273
 20
-27.49917689730701
 30
0.0
  0
VERTEX
  5
253
330
22D
100
AcDbEntity
  8
1_ANYTOOL_1MMDEEP_LABELS_S
100
AcDbVertex
100
AcDb2dVertex
 10
193.7452566964202
 20
-27.68152901784271
 30
0.0
  0
VERTEX
  5
254
330
22D
100
AcDbEntity
  8
1_ANYTOOL_1MMDEEP_LABELS_S
100
AcDbVertex
100
AcDb2dVertex
 10
193.517452566956
 20
-27.85710100444983
 30
0.0
  0
VERTEX
  5
255
330
22D
100
AcDbEntity
  8
1_ANYTOOL_1MMDEEP_LABELS_S
100
AcDbVertex
100
AcDb2dVertex
 10
193.2883928571346
 20
-28.02589285712838
 30
0.0
  0
VERTEX
  5
256
330
22D
100
AcDbEntity
  8
1_ANYTOOL_1MMDEEP_LABELS_S
100
AcDbVertex
100
AcDb2dVertex
 10
193.0580775669561
 20
-28.18790457587836
 30
0.0
  0
VERTEX
  5
257
330
22D
100
AcDbEntity
  8
1_ANYTOOL_1MMDEEP_LABELS_S
100
AcDbVertex
100
AcDb2dVertex
 10
192.8265066964204
 20
-28.34313616069977
 30
0.0
  0
VERTEX
  5
258
330
22D
100
AcDbEntity
  8
1_ANYTOOL_1MMDEEP_LABELS_S
100
AcDbVertex
100
AcDb2dVertex
 10
192.5936802455276
 20
-28.49158761159261
 30
0.0
  0
VERTEX
  5
259
330
22D
100
AcDbEntity
  8
1_ANYTOOL_1MMDEEP_LABELS_S
100
AcDbVertex
100
AcDb2dVertex
 10
192.3595982142776
 20
-28.63325892855687
 30
0.0
  0
VERTEX
  5
25A
330
22D
100
AcDbEntity
  8
1_ANYTOOL_1MMDEEP_LABELS_S
100
AcDbVertex
100
AcDb2dVertex
 10
192.1242606026706
 20
-28.76815011159256
 30
0.0
  0
VERTEX
  5
25B
330
22D
100
AcDbEntity
  8
1_ANYTOOL_1MMDEEP_LABELS_S
100
AcDbVertex
100
AcDb2dVertex
 10
191.8876674107063
 20
-28.89626116069968
 30
0.0
  0
VERTEX
  5
25C
330
22D
100
AcDbEntity
  8
1_ANYTOOL_1MMDEEP_LABELS_S
100
AcDbVertex
100
AcDb2dVertex
 10
191.649818638385
 20
-29.01759207587823
 30
0.0
  0
VERTEX
  5
25D
330
22D
100
AcDbEntity
  8
1_ANYTOOL_1MMDEEP_LABELS_S
100
AcDbVertex
100
AcDb2dVertex
 10
191.4107142857065
 20
-29.1321428571282
 30
0.0
  0
VERTEX
  5
25E
330
22D
100
AcDbEntity
  8
1_ANYTOOL_1MMDEEP_LABELS_S
100
AcDbVertex
100
AcDb2dVertex
 10
191.1703543526709
 20
-29.2399135044496
 30
0.0
  0
VERTEX
  5
25F
330
22D
100
AcDbEntity
  8
1_ANYTOOL_1MMDEEP_LABELS_S
100
AcDbVertex
100
AcDb2dVertex
 10
190.9287388392781
 20
-29.34090401784243
 30
0.0
  0
VERTEX
  5
260
330
22D
100
AcDbEntity
  8
1_ANYTOOL_1MMDEEP_LABELS_S
100
AcDbVertex
100
AcDb2dVertex
 10
190.6858677455282
 20
-29.43511439730669
 30
0.0
  0
VERTEX
  5
261
330
22D
100
AcDbEntity
  8
1_ANYTOOL_1MMDEEP_LABELS_S
100
AcDbVertex
100
AcDb2dVertex
 10
190.4417410714211
 20
-29.52254464284238
 30
0.0
  0
VERTEX
  5
262
330
22D
100
AcDbEntity
  8
1_ANYTOOL_1MMDEEP_LABELS_S
100
AcDbVertex
100
AcDb2dVertex
 10
190.1963588169569
 20
-29.60319475444949
 30
0.0
  0
VERTEX
  5
263
330
22D
100
AcDbEntity
  8
1_ANYTOOL_1MMDEEP_LABELS_S
100
AcDbVertex
100
AcDb2dVertex
 10
189.9497209821356
 20
-29.67706473212803
 30
0.0
  0
VERTEX
  5
264
330
22D
100
AcDbEntity
  8
1_ANYTOOL_1MMDEEP_LABELS_S
100
AcDbVertex
100
AcDb2dVertex
 10
189.7018275669571
 20
-29.744154575878
 30
0.0
  0
VERTEX
  5
265
330
22D
100
AcDbEntity
  8
1_ANYTOOL_1MMDEEP_LABELS_S
100
AcDbVertex
100
AcDb2dVertex
 10
189.4526785714215
 20
-29.8044642856994
 30
0.0
  0
VERTEX
  5
266
330
22D
100
AcDbEntity
  8
1_ANYTOOL_1MMDEEP_LABELS_S
100
AcDbVertex
100
AcDb2dVertex
 10
189.2022739955288
 20
-29.85799386159222
 30
0.0
  0
VERTEX
  5
267
330
22D
100
AcDbEntity
  8
1_ANYTOOL_1MMDEEP_LABELS_S
100
AcDbVertex
100
AcDb2dVertex
 10
188.9506138392789
 20
-29.90474330355647
 30
0.0
  0
VERTEX
  5
268
330
22D
100
AcDbEntity
  8
1_ANYTOOL_1MMDEEP_LABELS_S
100
AcDbVertex
100
AcDb2dVertex
 10
188.6976981026719
 20
-29.94471261159215
 30
0.0
  0
VERTEX
  5
269
330
22D
100
AcDbEntity
  8
1_ANYTOOL_1MMDEEP_LABELS_S
100
AcDbVertex
100
AcDb2dVertex
 10
188.4435267857077
 20
-29.97790178569926
 30
0.0
  0
VERTEX
  5
26A
330
22D
100
AcDbEntity
  8
1_ANYTOOL_1MMDEEP_LABELS_S
100
AcDbVertex
100
AcDb2dVertex
 10
188.1880998883864
 20
-30.00431082587779
 30
0.0
  0
VERTEX
  5
26B
330
22D
100
AcDbEntity
  8
1_ANYTOOL_1MMDEEP_LABELS_S
100
AcDbVertex
100
AcDb2dVertex
 10
187.931417410708
 20
-30.02393973212776
 30
0.0
  0
VERTEX
  5
26C
330
22D
100
AcDbEntity
  8
1_ANYTOOL_1MMDEEP_LABELS_S
100
AcDbVertex
100
AcDb2dVertex
 10
187.6734793526724
 20
-30.03678850444915
 30
0.0
  0
VERTEX
  5
26D
330
22D
100
AcDbEntity
  8
1_ANYTOOL_1MMDEEP_LABELS_S
100
AcDbVertex
100
AcDb2dVertex
 10
187.4142857142797
 20
-30.04285714284197
 30
0.0
  0
VERTEX
  5
26E
330
22D
100
AcDbEntity
  8
1_ANYTOOL_1MMDEEP_LABELS_S
100
AcDbVertex
100
AcDb2dVertex
 10
187.1551757812441
 20
-30.0420200892705
 30
0.0
  0
VERTEX
  5
26F
330
22D
100
AcDbEntity
  8
1_ANYTOOL_1MMDEEP_LABELS_S
100
AcDbVertex
100
AcDb2dVertex
 10
186.89748883928
 20
-30.03415178569904
 30
0.0
  0
VERTEX
  5
270
330
22D
100
AcDbEntity
  8
1_ANYTOOL_1MMDEEP_LABELS_S
100
AcDbVertex
100
AcDb2dVertex
 10
186.6412248883872
 20
-30.01925223212758
 30
0.0
  0
VERTEX
  5
271
330
22D
100
AcDbEntity
  8
1_ANYTOOL_1MMDEEP_LABELS_S
100
AcDbVertex
100
AcDb2dVertex
 10
186.3863839285659
 20
-29.99732142855612
 30
0.0
  0
VERTEX
  5
272
330
22D
100
AcDbEntity
  8
1_ANYTOOL_1MMDEEP_LABELS_S
100
AcDbVertex
100
AcDb2dVertex
 10
186.132965959816
 20
-29.96835937498467
 30
0.0
  0
VERTEX
  5
273
330
22D
100
AcDbEntity
  8
1_ANYTOOL_1MMDEEP_LABELS_S
100
AcDbVertex
100
AcDb2dVertex
 10
185.8809709821376
 20
-29.93236607141321
 30
0.0
  0
VERTEX
  5
274
330
22D
100
AcDbEntity
  8
1_ANYTOOL_1MMDEEP_LABELS_S
100
AcDbVertex
100
AcDb2dVertex
 10
185.6303989955305
 20
-29.88934151784176
 30
0.0
  0
VERTEX
  5
275
330
22D
100
AcDbEntity
  8
1_ANYTOOL_1MMDEEP_LABELS_S
100
AcDbVertex
100
AcDb2dVertex
 10
185.3812499999949
 20
-29.83928571427032
 30
0.0
  0
VERTEX
  5
276
330
22D
100
AcDbEntity
  8
1_ANYTOOL_1MMDEEP_LABELS_S
100
AcDbVertex
100
AcDb2dVertex
 10
185.1335239955307
 20
-29.78219866069887
 30
0.0
  0
VERTEX
  5
277
330
22D
100
AcDbEntity
  8
1_ANYTOOL_1MMDEEP_LABELS_S
100
AcDbVertex
100
AcDb2dVertex
 10
184.8872209821379
 20
-29.71808035712743
 30
0.0
  0
VERTEX
  5
278
330
22D
100
AcDbEntity
  8
1_ANYTOOL_1MMDEEP_LABELS_S
100
AcDbVertex
100
AcDb2dVertex
 10
184.6423409598166
 20
-29.646930803556
 30
0.0
  0
VERTEX
  5
279
330
22D
100
AcDbEntity
  8
1_ANYTOOL_1MMDEEP_LABELS_S
100
AcDbVertex
100
AcDb2dVertex
 10
184.3988839285666
 20
-29.56874999998456
 30
0.0
  0
VERTEX
  5
27A
330
22D
100
AcDbEntity
  8
1_ANYTOOL_1MMDEEP_LABELS_S
100
AcDbVertex
100
AcDb2dVertex
 10
184.1568498883881
 20
-29.48353794641313
 30
0.0
  0
VERTEX
  5
27B
330
22D
100
AcDbEntity
  8
1_ANYTOOL_1MMDEEP_LABELS_S
100
AcDbVertex
100
AcDb2dVertex
 10
183.916238839281
 20
-29.3912946428417
 30
0.0
  0
VERTEX
  5
27C
330
22D
100
AcDbEntity
  8
1_ANYTOOL_1MMDEEP_LABELS_S
100
AcDbVertex
100
AcDb2dVertex
 10
183.6770507812454
 20
-29.29202008927027
 30
0.0
  0
VERTEX
  5
27D
330
22D
100
AcDbEntity
  8
1_ANYTOOL_1MMDEEP_LABELS_S
100
AcDbVertex
100
AcDb2dVertex
 10
183.4392857142811
 20
-29.18571428569885
 30
0.0
  0
VERTEX
  5
27E
330
22D
100
AcDbEntity
  8
1_ANYTOOL_1MMDEEP_LABELS_S
100
AcDbVertex
100
AcDb2dVertex
 10
183.2029436383883
 20
-29.07237723212743
 30
0.0
  0
VERTEX
  5
27F
330
22D
100
AcDbEntity
  8
1_ANYTOOL_1MMDEEP_LABELS_S
100
AcDbVertex
100
AcDb2dVertex
 10
182.9680245535669
 20
-28.95200892855601
 30
0.0
  0
VERTEX
  5
280
330
22D
100
AcDbEntity
  8
1_ANYTOOL_1MMDEEP_LABELS_S
100
AcDbVertex
100
AcDb2dVertex
 10
182.7345284598169
 20
-28.8246093749846
 30
0.0
  0
VERTEX
  5
281
330
22D
100
AcDbEntity
  8
1_ANYTOOL_1MMDEEP_LABELS_S
100
AcDbVertex
100
AcDb2dVertex
 10
182.5024553571384
 20
-28.69017857141318
 30
0.0
  0
VERTEX
  5
282
330
22D
100
AcDbEntity
  8
1_ANYTOOL_1MMDEEP_LABELS_S
100
AcDbVertex
100
AcDb2dVertex
 10
182.2718052455313
 20
-28.54871651784178
 30
0.0
  0
VERTEX
  5
283
330
22D
100
AcDbEntity
  8
1_ANYTOOL_1MMDEEP_LABELS_S
100
AcDbVertex
100
AcDb2dVertex
 10
182.0425781249955
 20
-28.40022321427037
 30
0.0
  0
VERTEX
  5
284
330
22D
100
AcDbEntity
  8
1_ANYTOOL_1MMDEEP_LABELS_S
100
AcDbVertex
100
AcDb2dVertex
 10
181.8147739955313
 20
-28.24469866069897
 30
0.0
  0
VERTEX
  5
285
330
22D
100
AcDbEntity
  8
1_ANYTOOL_1MMDEEP_LABELS_S
100
AcDbVertex
100
AcDb2dVertex
 10
181.5883928571384
 20
-28.08214285712756
 30
0.0
  0
VERTEX
  5
286
330
22D
100
AcDbEntity
  8
1_ANYTOOL_1MMDEEP_LABELS_S
100
AcDbVertex
100
AcDb2dVertex
 10
181.3634347098169
 20
-27.91255580355617
 30
0.0
  0
VERTEX
  5
287
330
22D
100
AcDbEntity
  8
1_ANYTOOL_1MMDEEP_LABELS_S
100
AcDbVertex
100
AcDb2dVertex
 10
181.1398995535669
 20
-27.73593749998477
 30
0.0
  0
VERTEX
  5
288
330
22D
100
AcDbEntity
  8
1_ANYTOOL_1MMDEEP_LABELS_S
100
AcDbVertex
100
AcDb2dVertex
 10
180.9177873883883
 20
-27.55228794641338
 30
0.0
  0
VERTEX
  5
289
330
22D
100
AcDbEntity
  8
1_ANYTOOL_1MMDEEP_LABELS_S
100
AcDbVertex
100
AcDb2dVertex
 10
180.6970982142811
 20
-27.36160714284199
 30
0.0
  0
VERTEX
  5
28A
330
22D
100
AcDbEntity
  8
1_ANYTOOL_1MMDEEP_LABELS_S
100
AcDbVertex
100
AcDb2dVertex
 10
180.4778320312454
 20
-27.1638950892706
 30
0.0
  0
VERTEX
  5
28B
330
22D
100
AcDbEntity
  8
1_ANYTOOL_1MMDEEP_LABELS_S
100
AcDbVertex
100
AcDb2dVertex
 10
180.259988839281
 20
-26.95915178569922
 30
0.0
  0
VERTEX
  5
28C
330
22D
100
AcDbEntity
  8
1_ANYTOOL_1MMDEEP_LABELS_S
100
AcDbVertex
100
AcDb2dVertex
 10
180.0435686383881
 20
-26.74737723212784
 30
0.0
  0
VERTEX
  5
28D
330
22D
100
AcDbEntity
  8
1_ANYTOOL_1MMDEEP_LABELS_S
100
AcDbVertex
100
AcDb2dVertex
 10
179.8285714285666
 20
-26.52857142855646
 30
0.0
  0
VERTEX
  5
28E
330
22D
100
AcDbEntity
  8
1_ANYTOOL_1MMDEEP_LABELS_S
100
AcDbVertex
100
AcDb2dVertex
 10
179.6176339285666
 20
-26.30244140623508
 30
0.0
  0
VERTEX
  5
28F
330
22D
100
AcDbEntity
  8
1_ANYTOOL_1MMDEEP_LABELS_S
100
AcDbVertex
100
AcDb2dVertex
 10
179.4133928571379
 20
-26.0686941964137
 30
0.0
  0
VERTEX
  5
290
330
22D
100
AcDbEntity
  8
1_ANYTOOL_1MMDEEP_LABELS_S
100
AcDbVertex
100
AcDb2dVertex
 10
179.2158482142808
 20
-25.82732979909232
 30
0.0
  0
VERTEX
  5
291
330
22D
100
AcDbEntity
  8
1_ANYTOOL_1MMDEEP_LABELS_S
100
AcDbVertex
100
AcDb2dVertex
 10
179.024999999995
 20
-25.57834821427093
 30
0.0
  0
VERTEX
  5
292
330
22D
100
AcDbEntity
  8
1_ANYTOOL_1MMDEEP_LABELS_S
100
AcDbVertex
100
AcDb2dVertex
 10
178.8408482142806
 20
-25.32174944194954
 30
0.0
  0
VERTEX
  5
293
330
22D
100
AcDbEntity
  8
1_ANYTOOL_1MMDEEP_LABELS_S
100
AcDbVertex
100
AcDb2dVertex
 10
178.6633928571377
 20
-25.05753348212815
 30
0.0
  0
VERTEX
  5
294
330
22D
100
AcDbEntity
  8
1_ANYTOOL_1MMDEEP_LABELS_S
100
AcDbVertex
100
AcDb2dVertex
 10
178.4926339285662
 20
-24.78570033480676
 30
0.0
  0
VERTEX
  5
295
330
22D
100
AcDbEntity
  8
1_ANYTOOL_1MMDEEP_LABELS_S
100
AcDbVertex
100
AcDb2dVertex
 10
178.3285714285662
 20
-24.50624999998536
 30
0.0
  0
VERTEX
  5
296
330
22D
100
AcDbEntity
  8
1_ANYTOOL_1MMDEEP_LABELS_S
100
AcDbVertex
100
AcDb2dVertex
 10
178.1712053571376
 20
-24.21918247766396
 30
0.0
  0
VERTEX
  5
297
330
22D
100
AcDbEntity
  8
1_ANYTOOL_1MMDEEP_LABELS_S
100
AcDbVertex
100
AcDb2dVertex
 10
178.0205357142804
 20
-23.92449776784255
 30
0.0
  0
VERTEX
  5
298
330
22D
100
AcDbEntity
  8
1_ANYTOOL_1MMDEEP_LABELS_S
100
AcDbVertex
100
AcDb2dVertex
 10
177.8765624999946
 20
-23.62219587052115
 30
0.0
  0
VERTEX
  5
299
330
22D
100
AcDbEntity
  8
1_ANYTOOL_1MMDEEP_LABELS_S
100
AcDbVertex
100
AcDb2dVertex
 10
177.7392857142803
 20
-23.31227678569974
 30
0.0
  0
VERTEX
  5
29A
330
22D
100
AcDbEntity
  8
1_ANYTOOL_1MMDEEP_LABELS_S
100
AcDbVertex
100
AcDb2dVertex
 10
177.6087053571374
 20
-22.99474051337832
 30
0.0
  0
VERTEX
  5
29B
330
22D
100
AcDbEntity
  8
1_ANYTOOL_1MMDEEP_LABELS_S
100
AcDbVertex
100
AcDb2dVertex
 10
177.4848214285659
 20
-22.66958705355691
 30
0.0
  0
VERTEX
  5
29C
330
22D
100
AcDbEntity
  8
1_ANYTOOL_1MMDEEP_LABELS_S
100
AcDbVertex
100
AcDb2dVertex
 10
177.3676339285659
 20
-22.33681640623549
 30
0.0
  0
VERTEX
  5
29D
330
22D
100
AcDbEntity
  8
1_ANYTOOL_1MMDEEP_LABELS_S
100
AcDbVertex
100
AcDb2dVertex
 10
177.2571428571373
 20
-21.99642857141407
 30
0.0
  0
VERTEX
  5
29E
330
22D
100
AcDbEntity
  8
1_ANYTOOL_1MMDEEP_LABELS_S
100
AcDbVertex
100
AcDb2dVertex
 10
177.1533482142801
 20
-21.64842354909265
 30
0.0
  0
VERTEX
  5
29F
330
22D
100
AcDbEntity
  8
1_ANYTOOL_1MMDEEP_LABELS_S
100
AcDbVertex
100
AcDb2dVertex
 10
177.0562499999944
 20
-21.29280133927122
 30
0.0
  0
VERTEX
  5
2A0
330
22D
100
AcDbEntity
  8
1_ANYTOOL_1MMDEEP_LABELS_S
100
AcDbVertex
100
AcDb2dVertex
 10
176.9658482142801
 20
-20.92956194194979
 30
0.0
  0
VERTEX
  5
2A1
330
22D
100
AcDbEntity
  8
1_ANYTOOL_1MMDEEP_LABELS_S
100
AcDbVertex
100
AcDb2dVertex
 10
176.8821428571372
 20
-20.55870535712836
 30
0.0
  0
VERTEX
  5
2A2
330
22D
100
AcDbEntity
  8
1_ANYTOOL_1MMDEEP_LABELS_S
100
AcDbVertex
100
AcDb2dVertex
 10
176.8051339285657
 20
-20.18023158480693
 30
0.0
  0
VERTEX
  5
2A3
330
22D
100
AcDbEntity
  8
1_ANYTOOL_1MMDEEP_LABELS_S
100
AcDbVertex
100
AcDb2dVertex
 10
176.7348214285657
 20
-19.79414062498549
 30
0.0
  0
VERTEX
  5
2A4
330
22D
100
AcDbEntity
  8
1_ANYTOOL_1MMDEEP_LABELS_S
100
AcDbVertex
100
AcDb2dVertex
 10
176.6712053571371
 20
-19.40043247766405
 30
0.0
  0
VERTEX
  5
2A5
330
22D
100
AcDbEntity
  8
1_ANYTOOL_1MMDEEP_LABELS_S
100
AcDbVertex
100
AcDb2dVertex
 10
176.61428571428
 20
-18.9991071428426
 30
0.0
  0
VERTEX
  5
2A6
330
22D
100
AcDbEntity
  8
1_ANYTOOL_1MMDEEP_LABELS_S
100
AcDbVertex
100
AcDb2dVertex
 10
176.5640624999942
 20
-18.59016462052116
 30
0.0
  0
VERTEX
  5
2A7
330
22D
100
AcDbEntity
  8
1_ANYTOOL_1MMDEEP_LABELS_S
100
AcDbVertex
100
AcDb2dVertex
 10
176.5205357142799
 20
-18.17360491069971
 30
0.0
  0
VERTEX
  5
2A8
330
22D
100
AcDbEntity
  8
1_ANYTOOL_1MMDEEP_LABELS_S
100
AcDbVertex
100
AcDb2dVertex
 10
176.4535714285656
 20
-17.3176339285568
 30
0.0
  0
VERTEX
  5
2A9
330
22D
100
AcDbEntity
  8
1_ANYTOOL_1MMDEEP_LABELS_S
100
AcDbVertex
100
AcDb2dVertex
 10
176.413392857137
 20
-16.43119419641388
 30
0.0
  0
VERTEX
  5
2AA
330
22D
100
AcDbEntity
  8
1_ANYTOOL_1MMDEEP_LABELS_S
100
AcDbVertex
100
AcDb2dVertex
 10
176.3999999999942
 20
-15.51428571427095
 30
0.0
  0
VERTEX
  5
2AB
330
22D
100
AcDbEntity
  8
1_ANYTOOL_1MMDEEP_LABELS_S
100
AcDbVertex
100
AcDb2dVertex
 10
176.4103794642799
 20
-14.83560267855657
 30
0.0
  0
VERTEX
  5
2AC
330
22D
100
AcDbEntity
  8
1_ANYTOOL_1MMDEEP_LABELS_S
100
AcDbVertex
100
AcDb2dVertex
 10
176.441517857137
 20
-14.16026785712791
 30
0.0
  0
VERTEX
  5
2AD
330
22D
100
AcDbEntity
  8
1_ANYTOOL_1MMDEEP_LABELS_S
100
AcDbVertex
100
AcDb2dVertex
 10
176.4934151785655
 20
-13.48828124998496
 30
0.0
  0
VERTEX
  5
2AE
330
22D
100
AcDbEntity
  8
1_ANYTOOL_1MMDEEP_LABELS_S
100
AcDbVertex
100
AcDb2dVertex
 10
176.5660714285655
 20
-12.81964285712775
 30
0.0
  0
VERTEX
  5
2AF
330
22D
100
AcDbEntity
  8
1_ANYTOOL_1MMDEEP_LABELS_S
100
AcDbVertex
100
AcDb2dVertex
 10
176.6594866071368
 20
-12.15435267855625
 30
0.0
  0
VERTEX
  5
2B0
330
22D
100
AcDbEntity
  8
1_ANYTOOL_1MMDEEP_LABELS_S
100
AcDbVertex
100
AcDb2dVertex
 10
176.7736607142796
 20
-11.49241071427048
 30
0.0
  0
VERTEX
  5
2B1
330
22D
100
AcDbEntity
  8
1_ANYTOOL_1MMDEEP_LABELS_S
100
AcDbVertex
100
AcDb2dVertex
 10
176.9085937499937
 20
-10.83381696427043
 30
0.0
  0
VERTEX
  5
2B2
330
22D
100
AcDbEntity
  8
1_ANYTOOL_1MMDEEP_LABELS_S
100
AcDbVertex
100
AcDb2dVertex
 10
177.0642857142793
 20
-10.1785714285561
 30
0.0
  0
VERTEX
  5
2B3
330
22D
100
AcDbEntity
  8
1_ANYTOOL_1MMDEEP_LABELS_S
100
AcDbVertex
100
AcDb2dVertex
 10
177.2407366071363
 20
-9.52667410712749
 30
0.0
  0
VERTEX
  5
2B4
330
22D
100
AcDbEntity
  8
1_ANYTOOL_1MMDEEP_LABELS_S
100
AcDbVertex
100
AcDb2dVertex
 10
177.4379464285647
 20
-8.878124999984607
 30
0.0
  0
VERTEX
  5
2B5
330
22D
100
AcDbEntity
  8
1_ANYTOOL_1MMDEEP_LABELS_S
100
AcDbVertex
100
AcDb2dVertex
 10
177.6559151785645
 20
-8.232924107127445
 30
0.0
  0
VERTEX
  5
2B6
330
22D
100
AcDbEntity
  8
1_ANYTOOL_1MMDEEP_LABELS_S
100
AcDbVertex
100
AcDb2dVertex
 10
177.8946428571358
 20
-7.591071428556006
 30
0.0
  0
VERTEX
  5
2B7
330
22D
100
AcDbEntity
  8
1_ANYTOOL_1MMDEEP_LABELS_S
100
AcDbVertex
100
AcDb2dVertex
 10
178.1541294642784
 20
-6.952566964270289
 30
0.0
  0
VERTEX
  5
2B8
330
22D
100
AcDbEntity
  8
1_ANYTOOL_1MMDEEP_LABELS_S
100
AcDbVertex
100
AcDb2dVertex
 10
178.4343749999924
 20
-6.317410714270295
 30
0.0
  0
VERTEX
  5
2B9
330
22D
100
AcDbEntity
  8
1_ANYTOOL_1MMDEEP_LABELS_S
100
AcDbVertex
100
AcDb2dVertex
 10
178.7353794642779
 20
-5.685602678556023
 30
0.0
  0
VERTEX
  5
2BA
330
22D
100
AcDbEntity
  8
1_ANYTOOL_1MMDEEP_LABELS_S
100
AcDbVertex
100
AcDb2dVertex
 10
179.0571428571347
 20
-5.057142857127474
 30
0.0
  0
VERTEX
  5
2BB
330
22D
100
AcDbEntity
  8
1_ANYTOOL_1MMDEEP_LABELS_S
100
AcDbVertex
100
AcDb2dVertex
 10
179.2294503348136
 20
-4.746010044627525
 30
0.0
  0
VERTEX
  5
2BC
330
22D
100
AcDbEntity
  8
1_ANYTOOL_1MMDEEP_LABELS_S
100
AcDbVertex
100
AcDb2dVertex
 10
179.4088727678495
 20
-4.444754464270432
 30
0.0
  0
VERTEX
  5
2BD
330
22D
100
AcDbEntity
  8
1_ANYTOOL_1MMDEEP_LABELS_S
100
AcDbVertex
100
AcDb2dVertex
 10
179.5954101562426
 20
-4.153376116056194
 30
0.0
  0
VERTEX
  5
2BE
330
22D
100
AcDbEntity
  8
1_ANYTOOL_1MMDEEP_LABELS_S
100
AcDbVertex
100
AcDb2dVertex
 10
179.7890624999928
 20
-3.871874999984811
 30
0.0
  0
VERTEX
  5
2BF
330
22D
100
AcDbEntity
  8
1_ANYTOOL_1MMDEEP_LABELS_S
100
AcDbVertex
100
AcDb2dVertex
 10
179.9898297991002
 20
-3.600251116056285
 30
0.0
  0
VERTEX
  5
2C0
330
22D
100
AcDbEntity
  8
1_ANYTOOL_1MMDEEP_LABELS_S
100
AcDbVertex
100
AcDb2dVertex
 10
180.0928815569127
 20
-3.468143136145592
 30
0.0
  0
VERTEX
  5
2C1
330
22D
100
AcDbEntity
  8
1_ANYTOOL_1MMDEEP_LABELS_S
100
AcDbVertex
100
AcDb2dVertex
 10
180.1977120535646
 20
-3.338504464270613
 30
0.0
  0
VERTEX
  5
2C2
330
22D
100
AcDbEntity
  8
1_ANYTOOL_1MMDEEP_LABELS_S
100
AcDbVertex
100
AcDb2dVertex
 10
180.3043212890558
 20
-3.211335100431349
 30
0.0
  0
VERTEX
  5
2C3
330
22D
100
AcDbEntity
  8
1_ANYTOOL_1MMDEEP_LABELS_S
100
AcDbVertex
100
AcDb2dVertex
 10
180.4127092633862
 20
-3.086635044627798
 30
0.0
  0
VERTEX
  5
2C4
330
22D
100
AcDbEntity
  8
1_ANYTOOL_1MMDEEP_LABELS_S
100
AcDbVertex
100
AcDb2dVertex
 10
180.5228759765559
 20
-2.964404296859961
 30
0.0
  0
VERTEX
  5
2C5
330
22D
100
AcDbEntity
  8
1_ANYTOOL_1MMDEEP_LABELS_S
100
AcDbVertex
100
AcDb2dVertex
 10
180.6348214285649
 20
-2.844642857127837
 30
0.0
  0
VERTEX
  5
2C6
330
22D
100
AcDbEntity
  8
1_ANYTOOL_1MMDEEP_LABELS_S
100
AcDbVertex
100
AcDb2dVertex
 10
180.7485456194132
 20
-2.727350725431428
 30
0.0
  0
VERTEX
  5
2C7
330
22D
100
AcDbEntity
  8
1_ANYTOOL_1MMDEEP_LABELS_S
100
AcDbVertex
100
AcDb2dVertex
 10
180.8640485491007
 20
-2.612527901770733
 30
0.0
  0
VERTEX
  5
2C8
330
22D
100
AcDbEntity
  8
1_ANYTOOL_1MMDEEP_LABELS_S
100
AcDbVertex
100
AcDb2dVertex
 10
180.9813302176276
 20
-2.500174386145751
 30
0.0
  0
VERTEX
  5
2C9
330
22D
100
AcDbEntity
  8
1_ANYTOOL_1MMDEEP_LABELS_S
100
AcDbVertex
100
AcDb2dVertex
 10
181.1003906249937
 20
-2.390290178556484
 30
0.0
  0
VERTEX
  5
2CA
330
22D
100
AcDbEntity
  8
1_ANYTOOL_1MMDEEP_LABELS_S
100
AcDbVertex
100
AcDb2dVertex
 10
181.2212297711991
 20
-2.28287527900293
 30
0.0
  0
VERTEX
  5
2CB
330
22D
100
AcDbEntity
  8
1_ANYTOOL_1MMDEEP_LABELS_S
100
AcDbVertex
100
AcDb2dVertex
 10
181.3438476562438
 20
-2.17792968748509
 30
0.0
  0
VERTEX
  5
2CC
330
22D
100
AcDbEntity
  8
1_ANYTOOL_1MMDEEP_LABELS_S
100
AcDbVertex
100
AcDb2dVertex
 10
181.4682442801277
 20
-2.075453404002964
 30
0.0
  0
VERTEX
  5
2CD
330
22D
100
AcDbEntity
  8
1_ANYTOOL_1MMDEEP_LABELS_S
100
AcDbVertex
100
AcDb2dVertex
 10
181.594419642851
 20
-1.975446428556552
 30
0.0
  0
VERTEX
  5
2CE
330
22D
100
AcDbEntity
  8
1_ANYTOOL_1MMDEEP_LABELS_S
100
AcDbVertex
100
AcDb2dVertex
 10
181.7223737444135
 20
-1.877908761145854
 30
0.0
  0
VERTEX
  5
2CF
330
22D
100
AcDbEntity
  8
1_ANYTOOL_1MMDEEP_LABELS_S
100
AcDbVertex
100
AcDb2dVertex
 10
181.8521065848153
 20
-1.782840401770869
 30
0.0
  0
VERTEX
  5
2D0
330
22D
100
AcDbEntity
  8
1_ANYTOOL_1MMDEEP_LABELS_S
100
AcDbVertex
100
AcDb2dVertex
 10
181.9836181640564
 20
-1.690241350431599
 30
0.0
  0
VERTEX
  5
2D1
330
22D
100
AcDbEntity
  8
1_ANYTOOL_1MMDEEP_LABELS_S
100
AcDbVertex
100
AcDb2dVertex
 10
182.1169084821368
 20
-1.600111607128042
 30
0.0
  0
VERTEX
  5
2D2
330
22D
100
AcDbEntity
  8
1_ANYTOOL_1MMDEEP_LABELS_S
100
AcDbVertex
100
AcDb2dVertex
 10
182.2519775390564
 20
-1.512451171860199
 30
0.0
  0
VERTEX
  5
2D3
330
22D
100
AcDbEntity
  8
1_ANYTOOL_1MMDEEP_LABELS_S
100
AcDbVertex
100
AcDb2dVertex
 10
182.3888253348154
 20
-1.427260044628071
 30
0.0
  0
VERTEX
  5
2D4
330
22D
100
AcDbEntity
  8
1_ANYTOOL_1MMDEEP_LABELS_S
100
AcDbVertex
100
AcDb2dVertex
 10
182.5274518694136
 20
-1.344538225431656
 30
0.0
  0
VERTEX
  5
2D5
330
22D
100
AcDbEntity
  8
1_ANYTOOL_1MMDEEP_LABELS_S
100
AcDbVertex
100
AcDb2dVertex
 10
182.6678571428511
 20
-1.264285714270954
 30
0.0
  0
VERTEX
  5
2D6
330
22D
100
AcDbEntity
  8
1_ANYTOOL_1MMDEEP_LABELS_S
100
AcDbVertex
100
AcDb2dVertex
 10
182.8100411551278
 20
-1.186502511145967
 30
0.0
  0
VERTEX
  5
2D7
330
22D
100
AcDbEntity
  8
1_ANYTOOL_1MMDEEP_LABELS_S
100
AcDbVertex
100
AcDb2dVertex
 10
182.9540039062439
 20
-1.111188616056694
 30
0.0
  0
VERTEX
  5
2D8
330
22D
100
AcDbEntity
  8
1_ANYTOOL_1MMDEEP_LABELS_S
100
AcDbVertex
100
AcDb2dVertex
 10
183.0997453961992
 20
-1.038344029003134
 30
0.0
  0
VERTEX
  5
2D9
330
22D
100
AcDbEntity
  8
1_ANYTOOL_1MMDEEP_LABELS_S
100
AcDbVertex
100
AcDb2dVertex
 10
183.2472656249938
 20
-0.9679687499852889
 30
0.0
  0
VERTEX
  5
2DA
330
22D
100
AcDbEntity
  8
1_ANYTOOL_1MMDEEP_LABELS_S
100
AcDbVertex
100
AcDb2dVertex
 10
183.3965645926278
 20
-0.9000627790031572
 30
0.0
  0
VERTEX
  5
2DB
330
22D
100
AcDbEntity
  8
1_ANYTOOL_1MMDEEP_LABELS_S
100
AcDbVertex
100
AcDb2dVertex
 10
183.5476422991009
 20
-0.8346261160567394
 30
0.0
  0
VERTEX
  5
2DC
330
22D
100
AcDbEntity
  8
1_ANYTOOL_1MMDEEP_LABELS_S
100
AcDbVertex
100
AcDb2dVertex
 10
183.7004987444134
 20
-0.7716587611460355
 30
0.0
  0
VERTEX
  5
2DD
330
22D
100
AcDbEntity
  8
1_ANYTOOL_1MMDEEP_LABELS_S
100
AcDbVertex
100
AcDb2dVertex
 10
183.8551339285651
 20
-0.7111607142710454
 30
0.0
  0
VERTEX
  5
2DE
330
22D
100
AcDbEntity
  8
1_ANYTOOL_1MMDEEP_LABELS_S
100
AcDbVertex
100
AcDb2dVertex
 10
184.0115478515561
 20
-0.6531319754317693
 30
0.0
  0
VERTEX
  5
2DF
330
22D
100
AcDbEntity
  8
1_ANYTOOL_1MMDEEP_LABELS_S
100
AcDbVertex
100
AcDb2dVertex
 10
184.1697405133864
 20
-0.597572544628207
 30
0.0
  0
VERTEX
  5
2E0
330
22D
100
AcDbEntity
  8
1_ANYTOOL_1MMDEEP_LABELS_S
100
AcDbVertex
100
AcDb2dVertex
 10
184.4914620535649
 20
-0.493861607128224
 30
0.0
  0
VERTEX
  5
2E1
330
22D
100
AcDbEntity
  8
1_ANYTOOL_1MMDEEP_LABELS_S
100
AcDbVertex
100
AcDb2dVertex
 10
184.8202985491005
 20
-0.4000279017710966
 30
0.0
  0
VERTEX
  5
2E2
330
22D
100
AcDbEntity
  8
1_ANYTOOL_1MMDEEP_LABELS_S
100
AcDbVertex
100
AcDb2dVertex
 10
185.1562499999932
 20
-0.3160714285568247
 30
0.0
  0
VERTEX
  5
2E3
330
22D
100
AcDbEntity
  8
1_ANYTOOL_1MMDEEP_LABELS_S
100
AcDbVertex
100
AcDb2dVertex
 10
185.499316406243
 20
-0.2419921874854083
 30
0.0
  0
VERTEX
  5
2E4
330
22D
100
AcDbEntity
  8
1_ANYTOOL_1MMDEEP_LABELS_S
100
AcDbVertex
100
AcDb2dVertex
 10
185.84949776785
 20
-0.1777901785568474
 30
0.0
  0
VERTEX
  5
2E5
330
22D
100
AcDbEntity
  8
1_ANYTOOL_1MMDEEP_LABELS_S
100
AcDbVertex
100
AcDb2dVertex
 10
186.206794084814
 20
-0.1234654017711421
 30
0.0
  0
VERTEX
  5
2E6
330
22D
100
AcDbEntity
  8
1_ANYTOOL_1MMDEEP_LABELS_S
100
AcDbVertex
100
AcDb2dVertex
 10
186.5712053571352
 20
-0.0790178571282922
 30
0.0
  0
VERTEX
  5
2E7
330
22D
100
AcDbEntity
  8
1_ANYTOOL_1MMDEEP_LABELS_S
100
AcDbVertex
100
AcDb2dVertex
 10
186.9427315848135
 20
-0.0444475446282979
 30
0.0
  0
VERTEX
  5
2E8
330
22D
100
AcDbEntity
  8
1_ANYTOOL_1MMDEEP_LABELS_S
100
AcDbVertex
100
AcDb2dVertex
 10
187.321372767849
 20
-0.0197544642711591
 30
0.0
  0
VERTEX
  5
2E9
330
22D
100
AcDbEntity
  8
1_ANYTOOL_1MMDEEP_LABELS_S
100
AcDbVertex
100
AcDb2dVertex
 10
187.7071289062416
 20
-0.0049386160568758
 30
0.0
  0
VERTEX
  5
2EA
330
22D
100
AcDbEntity
  8
1_ANYTOOL_1MMDEEP_LABELS_S
100
AcDbVertex
100
AcDb2dVertex
 10
188.0999999999913
 20
0.0000000000145519
 30
0.0
  0
VERTEX
  5
2EB
330
22D
100
AcDbEntity
  8
1_ANYTOOL_1MMDEEP_LABELS_S
100
AcDbVertex
100
AcDb2dVertex
 10
188.3236607142769
 20
-0.002218191949737
 30
0.0
  0
VERTEX
  5
2EC
330
22D
100
AcDbEntity
  8
1_ANYTOOL_1MMDEEP_LABELS_S
100
AcDbVertex
100
AcDb2dVertex
 10
188.544642857134
 20
-0.0088727678426039
 30
0.0
  0
VERTEX
  5
2ED
330
22D
100
AcDbEntity
  8
1_ANYTOOL_1MMDEEP_LABELS_S
100
AcDbVertex
100
AcDb2dVertex
 10
188.7629464285625
 20
-0.0199637276640487
 30
0.0
  0
VERTEX
  5
2EE
330
22D
100
AcDbEntity
  8
1_ANYTOOL_1MMDEEP_LABELS_S
100
AcDbVertex
100
AcDb2dVertex
 10
188.9785714285624
 20
-0.0354910714140715
 30
0.0
  0
VERTEX
  5
2EF
330
22D
100
AcDbEntity
  8
1_ANYTOOL_1MMDEEP_LABELS_S
100
AcDbVertex
100
AcDb2dVertex
 10
189.1915178571338
 20
-0.0554547990926721
 30
0.0
  0
VERTEX
  5
2F0
330
22D
100
AcDbEntity
  8
1_ANYTOOL_1MMDEEP_LABELS_S
100
AcDbVertex
100
AcDb2dVertex
 10
189.4017857142766
 20
-0.0798549106998507
 30
0.0
  0
VERTEX
  5
2F1
330
22D
100
AcDbEntity
  8
1_ANYTOOL_1MMDEEP_LABELS_S
100
AcDbVertex
100
AcDb2dVertex
 10
189.6093749999909
 20
-0.1086914062356072
 30
0.0
  0
VERTEX
  5
2F2
330
22D
100
AcDbEntity
  8
1_ANYTOOL_1MMDEEP_LABELS_S
100
AcDbVertex
100
AcDb2dVertex
 10
189.8142857142766
 20
-0.1419642856999417
 30
0.0
  0
VERTEX
  5
2F3
330
22D
100
AcDbEntity
  8
1_ANYTOOL_1MMDEEP_LABELS_S
100
AcDbVertex
100
AcDb2dVertex
 10
190.0165178571337
 20
-0.179673549092854
 30
0.0
  0
VERTEX
  5
2F4
330
22D
100
AcDbEntity
  8
1_ANYTOOL_1MMDEEP_LABELS_S
100
AcDbVertex
100
AcDb2dVertex
 10
190.2160714285623
 20
-0.2218191964143443
 30
0.0
  0
VERTEX
  5
2F5
330
22D
100
AcDbEntity
  8
1_ANYTOOL_1MMDEEP_LABELS_S
100
AcDbVertex
100
AcDb2dVertex
 10
190.4129464285623
 20
-0.2684012276644125
 30
0.0
  0
VERTEX
  5
2F6
330
22D
100
AcDbEntity
  8
1_ANYTOOL_1MMDEEP_LABELS_S
100
AcDbVertex
100
AcDb2dVertex
 10
190.6071428571338
 20
-0.3194196428430587
 30
0.0
  0
VERTEX
  5
2F7
330
22D
100
AcDbEntity
  8
1_ANYTOOL_1MMDEEP_LABELS_S
100
AcDbVertex
100
AcDb2dVertex
 10
190.7986607142767
 20
-0.3748744419502827
 30
0.0
  0
VERTEX
  5
2F8
330
22D
100
AcDbEntity
  8
1_ANYTOOL_1MMDEEP_LABELS_S
100
AcDbVertex
100
AcDb2dVertex
 10
190.987499999991
 20
-0.4347656249860847
 30
0.0
  0
VERTEX
  5
2F9
330
22D
100
AcDbEntity
  8
1_ANYTOOL_1MMDEEP_LABELS_S
100
AcDbVertex
100
AcDb2dVertex
 10
191.1736607142768
 20
-0.4990931919504646
 30
0.0
  0
VERTEX
  5
2FA
330
22D
100
AcDbEntity
  8
1_ANYTOOL_1MMDEEP_LABELS_S
100
AcDbVertex
100
AcDb2dVertex
 10
191.357142857134
 20
-0.5678571428434225
 30
0.0
  0
VERTEX
  5
2FB
330
22D
100
AcDbEntity
  8
1_ANYTOOL_1MMDEEP_LABELS_S
100
AcDbVertex
100
AcDb2dVertex
 10
191.5379464285627
 20
-0.6410574776649582
 30
0.0
  0
VERTEX
  5
2FC
330
22D
100
AcDbEntity
  8
1_ANYTOOL_1MMDEEP_LABELS_S
100
AcDbVertex
100
AcDb2dVertex
 10
191.7160714285628
 20
-0.7186941964150719
 30
0.0
  0
VERTEX
  5
2FD
330
22D
100
AcDbEntity
  8
1_ANYTOOL_1MMDEEP_LABELS_S
100
AcDbVertex
100
AcDb2dVertex
 10
191.8915178571343
 20
-0.8007672990937635
 30
0.0
  0
VERTEX
  5
2FE
330
22D
100
AcDbEntity
  8
1_ANYTOOL_1MMDEEP_LABELS_S
100
AcDbVertex
100
AcDb2dVertex
 10
192.0642857142773
 20
-0.8872767857010331
 30
0.0
  0
VERTEX
  5
2FF
330
22D
100
AcDbEntity
  8
1_ANYTOOL_1MMDEEP_LABELS_S
100
AcDbVertex
100
AcDb2dVertex
 10
192.2343749999917
 20
-0.9782226562368805
 30
0.0
  0
VERTEX
  5
300
330
22D
100
AcDbEntity
  8
1_ANYTOOL_1MMDEEP_LABELS_S
100
AcDbVertex
100
AcDb2dVertex
 10
192.4017857142775
 20
-1.073604910701306
 30
0.0
  0
VERTEX
  5
301
330
22D
100
AcDbEntity
  8
1_ANYTOOL_1MMDEEP_LABELS_S
100
AcDbVertex
100
AcDb2dVertex
 10
192.5665178571348
 20
-1.173423549094309
 30
0.0
  0
VERTEX
  5
302
330
22D
100
AcDbEntity
  8
1_ANYTOOL_1MMDEEP_LABELS_S
100
AcDbVertex
100
AcDb2dVertex
 10
192.7285714285636
 20
-1.27767857141589
 30
0.0
  0
VERTEX
  5
303
330
22D
100
AcDbEntity
  8
1_ANYTOOL_1MMDEEP_LABELS_S
100
AcDbVertex
100
AcDb2dVertex
 10
192.8879464285637
 20
-1.38636997766605
 30
0.0
  0
VERTEX
  5
304
330
22D
100
AcDbEntity
  8
1_ANYTOOL_1MMDEEP_LABELS_S
100
AcDbVertex
100
AcDb2dVertex
 10
193.0446428571353
 20
-1.499497767844787
 30
0.0
  0
VERTEX
  5
305
330
22D
100
AcDbEntity
  8
1_ANYTOOL_1MMDEEP_LABELS_S
100
AcDbVertex
100
AcDb2dVertex
 10
193.1986607142784
 20
-1.617061941952102
 30
0.0
  0
VERTEX
  5
306
330
22D
100
AcDbEntity
  8
1_ANYTOOL_1MMDEEP_LABELS_S
100
AcDbVertex
100
AcDb2dVertex
 10
193.3499999999929
 20
-1.739062499987995
 30
0.0
  0
VERTEX
  5
307
330
22D
100
AcDbEntity
  8
1_ANYTOOL_1MMDEEP_LABELS_S
100
AcDbVertex
100
AcDb2dVertex
 10
193.4986607142788
 20
-1.865499441952466
 30
0.0
  0
VERTEX
  5
308
330
22D
100
AcDbEntity
  8
1_ANYTOOL_1MMDEEP_LABELS_S
100
AcDbVertex
100
AcDb2dVertex
 10
193.6446428571361
 20
-1.996372767845514
 30
0.0
  0
VERTEX
  5
309
330
22D
100
AcDbEntity
  8
1_ANYTOOL_1MMDEEP_LABELS_S
100
AcDbVertex
100
AcDb2dVertex
 10
193.787946428565
 20
-2.131682477667141
 30
0.0
  0
VERTEX
  5
30A
330
22D
100
AcDbEntity
  8
1_ANYTOOL_1MMDEEP_LABELS_S
100
AcDbVertex
100
AcDb2dVertex
 10
193.9285714285652
 20
-2.271428571417346
 30
0.0
  0
VERTEX
  5
30B
330
22D
100
AcDbEntity
  8
1_ANYTOOL_1MMDEEP_LABELS_S
100
AcDbVertex
100
AcDb2dVertex
 10
194.4830357142786
 20
-2.848660714273592
 30
0.0
  0
VERTEX
  5
30C
330
22D
100
AcDbEntity
  8
1_ANYTOOL_1MMDEEP_LABELS_S
100
AcDbVertex
100
AcDb2dVertex
 10
194.7502232142782
 20
-3.144308035701783
 30
0.0
  0
VERTEX
  5
30D
330
22D
100
AcDbEntity
  8
1_ANYTOOL_1MMDEEP_LABELS_S
100
AcDbVertex
100
AcDb2dVertex
 10
195.0107142857064
 20
-3.44464285713002
 30
0.0
  0
VERTEX
  5
30E
330
22D
100
AcDbEntity
  8
1_ANYTOOL_1MMDEEP_LABELS_S
100
AcDbVertex
100
AcDb2dVertex
 10
195.2645089285632
 20
-3.749665178558303
 30
0.0
  0
VERTEX
  5
30F
330
22D
100
AcDbEntity
  8
1_ANYTOOL_1MMDEEP_LABELS_S
100
AcDbVertex
100
AcDb2dVertex
 10
195.5116071428487
 20
-4.05937499998663
 30
0.0
  0
VERTEX
  5
310
330
22D
100
AcDbEntity
  8
1_ANYTOOL_1MMDEEP_LABELS_S
100
AcDbVertex
100
AcDb2dVertex
 10
195.7520089285627
 20
-4.373772321415004
 30
0.0
  0
VERTEX
  5
311
330
22D
100
AcDbEntity
  8
1_ANYTOOL_1MMDEEP_LABELS_S
100
AcDbVertex
100
AcDb2dVertex
 10
195.9857142857054
 20
-4.692857142843422
 30
0.0
  0
VERTEX
  5
312
330
22D
100
AcDbEntity
  8
1_ANYTOOL_1MMDEEP_LABELS_S
100
AcDbVertex
100
AcDb2dVertex
 10
196.2127232142767
 20
-5.016629464271887
 30
0.0
  0
VERTEX
  5
313
330
22D
100
AcDbEntity
  8
1_ANYTOOL_1MMDEEP_LABELS_S
100
AcDbVertex
100
AcDb2dVertex
 10
196.4330357142766
 20
-5.345089285700396
 30
0.0
  0
VERTEX
  5
314
330
22D
100
AcDbEntity
  8
1_ANYTOOL_1MMDEEP_LABELS_S
100
AcDbVertex
100
AcDb2dVertex
 10
196.6466517857051
 20
-5.678236607128952
 30
0.0
  0
VERTEX
  5
315
330
22D
100
AcDbEntity
  8
1_ANYTOOL_1MMDEEP_LABELS_S
100
AcDbVertex
100
AcDb2dVertex
 10
196.8535714285622
 20
-6.016071428557552
 30
0.0
  0
VERTEX
  5
316
330
22D
100
AcDbEntity
  8
1_ANYTOOL_1MMDEEP_LABELS_S
100
AcDbVertex
100
AcDb2dVertex
 10
197.0537946428479
 20
-6.358593749986198
 30
0.0
  0
VERTEX
  5
317
330
22D
100
AcDbEntity
  8
1_ANYTOOL_1MMDEEP_LABELS_S
100
AcDbVertex
100
AcDb2dVertex
 10
197.2473214285623
 20
-6.70580357141489
 30
0.0
  0
VERTEX
  5
318
330
22D
100
AcDbEntity
  8
1_ANYTOOL_1MMDEEP_LABELS_S
100
AcDbVertex
100
AcDb2dVertex
 10
197.4341517857052
 20
-7.057700892843627
 30
0.0
  0
VERTEX
  5
319
330
22D
100
AcDbEntity
  8
1_ANYTOOL_1MMDEEP_LABELS_S
100
AcDbVertex
100
AcDb2dVertex
 10
197.6142857142768
 20
-7.41428571427241
 30
0.0
  0
SEQEND
  5
31A
330
22D
100
AcDbEntity
  8
1_ANYTOOL_1MMDEEP_LABELS_S
  0
POLYLINE
  5
31C
330
1F
100
AcDbEntity
  8
4_ANYTOOL_CUTTHROUGH_OUTSI
100
AcDb2dPolyline
 66
     1
 10
0.0
 20
0.0
 30
0.0
 70
     1
  0
VERTEX
  5
31D
330
31C
100
AcDbEntity
  8
4_ANYTOOL_CUTTHROUGH_OUTSI
100
AcDbVertex
100
AcDb2dVertex
 10
1199.748535111139
 20
-132.2955721978287
 30
0.0
  0
VERTEX
  5
31E
330
31C
100
AcDbEntity
  8
4_ANYTOOL_CUTTHROUGH_OUTSI
100
AcDbVertex
100
AcDb2dVertex
 10
1062.247750512557
 20
-132.2955721978287
 30
0.0
  0
VERTEX
  5
31F
330
31C
100
AcDbEntity
  8
4_ANYTOOL_CUTTHROUGH_OUTSI
100
AcDbVertex
100
AcDb2dVertex
 10
1062.247764527863
 20
-126.5481625407483
 30
0.0
 42
0.4142135623986993
  0
VERTEX
  5
320
330
31C
100
AcDbEntity
  8
4_ANYTOOL_CUTTHROUGH_OUTSI
100
AcDbVertex
100
AcDb2dVertex
 10
1061.997765137501
 20
-126.2981619311031
 30
0.0
  0
VERTEX
  5
321
330
31C
100
AcDbEntity
  8
4_ANYTOOL_CUTTHROUGH_OUTSI
100
AcDbVertex
100
AcDb2dVertex
 10
1049.997765137538
 20
-126.2981326685767
 30
0.0
 42
0.4142135623731538
  0
VERTEX
  5
322
330
31C
100
AcDbEntity
  8
4_ANYTOOL_CUTTHROUGH_OUTSI
100
AcDbVertex
100
AcDb2dVertex
 10
1049.7477645279
 20
-126.5481320589388
 30
0.0
  0
VERTEX
  5
323
330
31C
100
AcDbEntity
  8
4_ANYTOOL_CUTTHROUGH_OUTSI
100
AcDbVertex
100
AcDb2dVertex
 10
1049.747706612492
 20
-150.298132058866
 30
0.0
  0
VERTEX
  5
324
330
31C
100
AcDbEntity
  8
4_ANYTOOL_CUTTHROUGH_OUTSI
100
AcDbVertex
100
AcDb2dVertex
 10
990.2477066126521
 20
-150.2979869654737
 30
0.0
  0
VERTEX
  5
325
330
31C
100
AcDbEntity
  8
4_ANYTOOL_CUTTHROUGH_OUTSI
100
AcDbVertex
100
AcDb2dVertex
 10
990.2477645280669
 20
-126.5479869655392
 30
0.0
 42
0.414213562415897
  0
VERTEX
  5
326
330
31C
100
AcDbEntity
  8
4_ANYTOOL_CUTTHROUGH_OUTSI
100
AcDbVertex
100
AcDb2dVertex
 10
989.9977651377048
 20
-126.2979863559085
 30
0.0
  0
VERTEX
  5
327
330
31C
100
AcDbEntity
  8
4_ANYTOOL_CUTTHROUGH_OUTSI
100
AcDbVertex
100
AcDb2dVertex
 10
977.9977651377267
 20
-126.2979570933676
 30
0.0
 42
0.4142135623900611
  0
VERTEX
  5
328
330
31C
100
AcDbEntity
  8
4_ANYTOOL_CUTTHROUGH_OUTSI
100
AcDbVertex
100
AcDb2dVertex
 10
977.7477645280887
 20
-126.5479564837296
 30
0.0
  0
VERTEX
  5
329
330
31C
100
AcDbEntity
  8
4_ANYTOOL_CUTTHROUGH_OUTSI
100
AcDbVertex
100
AcDb2dVertex
 10
977.7477505064671
 20
-132.2979564837151
 30
0.0
  0
VERTEX
  5
32A
330
31C
100
AcDbEntity
  8
4_ANYTOOL_CUTTHROUGH_OUTSI
100
AcDbVertex
100
AcDb2dVertex
 10
942.2477505065763
 20
-132.29786991539
 30
0.0
  0
VERTEX
  5
32B
330
31C
100
AcDbEntity
  8
4_ANYTOOL_CUTTHROUGH_OUTSI
100
AcDbVertex
100
AcDb2dVertex
 10
942.2477645281979
 20
-126.5478699154046
 30
0.0
 42
0.4142135623816114
  0
VERTEX
  5
32C
330
31C
100
AcDbEntity
  8
4_ANYTOOL_CUTTHROUGH_OUTSI
100
AcDbVertex
100
AcDb2dVertex
 10
941.9977651378358
 20
-126.2978693057739
 30
0.0
  0
VERTEX
  5
32D
330
31C
100
AcDbEntity
  8
4_ANYTOOL_CUTTHROUGH_OUTSI
100
AcDbVertex
100
AcDb2dVertex
 10
929.9977651378722
 20
-126.297840043233
 30
0.0
 42
0.4142135623218276
  0
VERTEX
  5
32E
330
31C
100
AcDbEntity
  8
4_ANYTOOL_CUTTHROUGH_OUTSI
100
AcDbVertex
100
AcDb2dVertex
 10
929.7477645282343
 20
-126.5478394335951
 30
0.0
  0
VERTEX
  5
32F
330
31C
100
AcDbEntity
  8
4_ANYTOOL_CUTTHROUGH_OUTSI
100
AcDbVertex
100
AcDb2dVertex
 10
929.7477066128195
 20
-150.2978394335296
 30
0.0
  0
VERTEX
  5
330
330
31C
100
AcDbEntity
  8
4_ANYTOOL_CUTTHROUGH_OUTSI
100
AcDbVertex
100
AcDb2dVertex
 10
870.2477066129795
 20
-150.29769434013
 30
0.0
  0
VERTEX
  5
331
330
31C
100
AcDbEntity
  8
4_ANYTOOL_CUTTHROUGH_OUTSI
100
AcDbVertex
100
AcDb2dVertex
 10
870.247764528387
 20
-126.5476943402027
 30
0.0
 42
0.4142135623816114
  0
VERTEX
  5
332
330
31C
100
AcDbEntity
  8
4_ANYTOOL_CUTTHROUGH_OUTSI
100
AcDbVertex
100
AcDb2dVertex
 10
869.997765138025
 20
-126.2976937305721
 30
0.0
  0
VERTEX
  5
333
330
31C
100
AcDbEntity
  8
4_ANYTOOL_CUTTHROUGH_OUTSI
100
AcDbVertex
100
AcDb2dVertex
 10
857.9977651380686
 20
-126.2976644680311
 30
0.0
 42
0.4142135623731519
  0
VERTEX
  5
334
330
31C
100
AcDbEntity
  8
4_ANYTOOL_CUTTHROUGH_OUTSI
100
AcDbVertex
100
AcDb2dVertex
 10
857.7477645284453
 20
-126.5476638583932
 30
0.0
  0
VERTEX
  5
335
330
31C
100
AcDbEntity
  8
4_ANYTOOL_CUTTHROUGH_OUTSI
100
AcDbVertex
100
AcDb2dVertex
 10
857.7477505068091
 20
-132.2976638583787
 30
0.0
  0
VERTEX
  5
336
330
31C
100
AcDbEntity
  8
4_ANYTOOL_CUTTHROUGH_OUTSI
100
AcDbVertex
100
AcDb2dVertex
 10
822.2477505068964
 20
-132.2975772900463
 30
0.0
  0
VERTEX
  5
337
330
31C
100
AcDbEntity
  8
4_ANYTOOL_CUTTHROUGH_OUTSI
100
AcDbVertex
100
AcDb2dVertex
 10
822.2477645285253
 20
-126.5475772900681
 30
0.0
 42
0.4142135623817074
  0
VERTEX
  5
338
330
31C
100
AcDbEntity
  8
4_ANYTOOL_CUTTHROUGH_OUTSI
100
AcDbVertex
100
AcDb2dVertex
 10
821.9977651381632
 20
-126.2975766804229
 30
0.0
  0
VERTEX
  5
339
330
31C
100
AcDbEntity
  8
4_ANYTOOL_CUTTHROUGH_OUTSI
100
AcDbVertex
100
AcDb2dVertex
 10
809.9977651381923
 20
-126.2975474178966
 30
0.0
 42
0.414213562415749
  0
VERTEX
  5
33A
330
31C
100
AcDbEntity
  8
4_ANYTOOL_CUTTHROUGH_OUTSI
100
AcDbVertex
100
AcDb2dVertex
 10
809.7477645285471
 20
-126.5475468082586
 30
0.0
  0
VERTEX
  5
33B
330
31C
100
AcDbEntity
  8
4_ANYTOOL_CUTTHROUGH_OUTSI
100
AcDbVertex
100
AcDb2dVertex
 10
809.7477066131469
 20
-150.2975468081859
 30
0.0
  0
VERTEX
  5
33C
330
31C
100
AcDbEntity
  8
4_ANYTOOL_CUTTHROUGH_OUTSI
100
AcDbVertex
100
AcDb2dVertex
 10
750.2477066133142
 20
-150.2974017147935
 30
0.0
  0
VERTEX
  5
33D
330
31C
100
AcDbEntity
  8
4_ANYTOOL_CUTTHROUGH_OUTSI
100
AcDbVertex
100
AcDb2dVertex
 10
750.2477645287217
 20
-126.5474017148663
 30
0.0
 42
0.4142135623218665
  0
VERTEX
  5
33E
330
31C
100
AcDbEntity
  8
4_ANYTOOL_CUTTHROUGH_OUTSI
100
AcDbVertex
100
AcDb2dVertex
 10
749.9977651383597
 20
-126.2974011052283
 30
0.0
  0
VERTEX
  5
33F
330
31C
100
AcDbEntity
  8
4_ANYTOOL_CUTTHROUGH_OUTSI
100
AcDbVertex
100
AcDb2dVertex
 10
737.9977651383888
 20
-126.2973718426947
 30
0.0
 42
0.4142135623900611
  0
VERTEX
  5
340
330
31C
100
AcDbEntity
  8
4_ANYTOOL_CUTTHROUGH_OUTSI
100
AcDbVertex
100
AcDb2dVertex
 10
737.7477645287508
 20
-126.5473712330568
 30
0.0
  0
VERTEX
  5
341
330
31C
100
AcDbEntity
  8
4_ANYTOOL_CUTTHROUGH_OUTSI
100
AcDbVertex
100
AcDb2dVertex
 10
737.7477505071365
 20
-132.2973712330349
 30
0.0
  0
VERTEX
  5
342
330
31C
100
AcDbEntity
  8
4_ANYTOOL_CUTTHROUGH_OUTSI
100
AcDbVertex
100
AcDb2dVertex
 10
702.2477505072238
 20
-132.2972846647099
 30
0.0
  0
VERTEX
  5
343
330
31C
100
AcDbEntity
  8
4_ANYTOOL_CUTTHROUGH_OUTSI
100
AcDbVertex
100
AcDb2dVertex
 10
702.2477645288527
 20
-126.5472846647244
 30
0.0
 42
0.4142135623218665
  0
VERTEX
  5
344
330
31C
100
AcDbEntity
  8
4_ANYTOOL_CUTTHROUGH_OUTSI
100
AcDbVertex
100
AcDb2dVertex
 10
701.9977651384906
 20
-126.2972840550865
 30
0.0
  0
VERTEX
  5
345
330
31C
100
AcDbEntity
  8
4_ANYTOOL_CUTTHROUGH_OUTSI
100
AcDbVertex
100
AcDb2dVertex
 10
689.9977651385198
 20
-126.2972547925528
 30
0.0
 42
0.4142135623731538
  0
VERTEX
  5
346
330
31C
100
AcDbEntity
  8
4_ANYTOOL_CUTTHROUGH_OUTSI
100
AcDbVertex
100
AcDb2dVertex
 10
689.7477645288818
 20
-126.5472541829149
 30
0.0
  0
VERTEX
  5
347
330
31C
100
AcDbEntity
  8
4_ANYTOOL_CUTTHROUGH_OUTSI
100
AcDbVertex
100
AcDb2dVertex
 10
689.7477066134743
 20
-150.2972541828494
 30
0.0
  0
VERTEX
  5
348
330
31C
100
AcDbEntity
  8
4_ANYTOOL_CUTTHROUGH_OUTSI
100
AcDbVertex
100
AcDb2dVertex
 10
630.2477066136416
 20
-150.2971090894571
 30
0.0
  0
VERTEX
  5
349
330
31C
100
AcDbEntity
  8
4_ANYTOOL_CUTTHROUGH_OUTSI
100
AcDbVertex
100
AcDb2dVertex
 10
630.2477645290492
 20
-126.5471090895226
 30
0.0
 42
0.4142135623817074
  0
VERTEX
  5
34A
330
31C
100
AcDbEntity
  8
4_ANYTOOL_CUTTHROUGH_OUTSI
100
AcDbVertex
100
AcDb2dVertex
 10
629.9977651386871
 20
-126.2971084798774
 30
0.0
  0
VERTEX
  5
34B
330
31C
100
AcDbEntity
  8
4_ANYTOOL_CUTTHROUGH_OUTSI
100
AcDbVertex
100
AcDb2dVertex
 10
617.9977651387308
 20
-126.297079217351
 30
0.0
 42
0.4142135623731555
  0
VERTEX
  5
34C
330
31C
100
AcDbEntity
  8
4_ANYTOOL_CUTTHROUGH_OUTSI
100
AcDbVertex
100
AcDb2dVertex
 10
617.7477645290783
 20
-126.547078607713
 30
0.0
  0
VERTEX
  5
34D
330
31C
100
AcDbEntity
  8
4_ANYTOOL_CUTTHROUGH_OUTSI
100
AcDbVertex
100
AcDb2dVertex
 10
617.7477505074639
 20
-132.2970786076985
 30
0.0
  0
VERTEX
  5
34E
330
31C
100
AcDbEntity
  8
4_ANYTOOL_CUTTHROUGH_OUTSI
100
AcDbVertex
100
AcDb2dVertex
 10
582.2477505075585
 20
-132.2969920393734
 30
0.0
  0
VERTEX
  5
34F
330
31C
100
AcDbEntity
  8
4_ANYTOOL_CUTTHROUGH_OUTSI
100
AcDbVertex
100
AcDb2dVertex
 10
582.2477645291801
 20
-126.546992039388
 30
0.0
 42
0.4142135624073452
  0
VERTEX
  5
350
330
31C
100
AcDbEntity
  8
4_ANYTOOL_CUTTHROUGH_OUTSI
100
AcDbVertex
100
AcDb2dVertex
 10
581.9977651388181
 20
-126.2969914297501
 30
0.0
  0
VERTEX
  5
351
330
31C
100
AcDbEntity
  8
4_ANYTOOL_CUTTHROUGH_OUTSI
100
AcDbVertex
100
AcDb2dVertex
 10
569.9977651388544
 20
-126.2969621672164
 30
0.0
 42
0.4142135623816356
  0
VERTEX
  5
352
330
31C
100
AcDbEntity
  8
4_ANYTOOL_CUTTHROUGH_OUTSI
100
AcDbVertex
100
AcDb2dVertex
 10
569.7477645292092
 20
-126.5469615575785
 30
0.0
  0
VERTEX
  5
353
330
31C
100
AcDbEntity
  8
4_ANYTOOL_CUTTHROUGH_OUTSI
100
AcDbVertex
100
AcDb2dVertex
 10
569.747706613809
 20
-150.2969615575057
 30
0.0
  0
VERTEX
  5
354
330
31C
100
AcDbEntity
  8
4_ANYTOOL_CUTTHROUGH_OUTSI
100
AcDbVertex
100
AcDb2dVertex
 10
510.2477066139763
 20
-150.2968164641134
 30
0.0
  0
VERTEX
  5
355
330
31C
100
AcDbEntity
  8
4_ANYTOOL_CUTTHROUGH_OUTSI
100
AcDbVertex
100
AcDb2dVertex
 10
510.2477645293839
 20
-126.5468164641861
 30
0.0
 42
0.4142135623986992
  0
VERTEX
  5
356
330
31C
100
AcDbEntity
  8
4_ANYTOOL_CUTTHROUGH_OUTSI
100
AcDbVertex
100
AcDb2dVertex
 10
509.9977651390218
 20
-126.2968158545409
 30
0.0
  0
VERTEX
  5
357
330
31C
100
AcDbEntity
  8
4_ANYTOOL_CUTTHROUGH_OUTSI
100
AcDbVertex
100
AcDb2dVertex
 10
497.9977651390436
 20
-126.2967865920145
 30
0.0
 42
0.414213562313402
  0
VERTEX
  5
358
330
31C
100
AcDbEntity
  8
4_ANYTOOL_CUTTHROUGH_OUTSI
100
AcDbVertex
100
AcDb2dVertex
 10
497.7477645293984
 20
-126.5467859823766
 30
0.0
  0
VERTEX
  5
359
330
31C
100
AcDbEntity
  8
4_ANYTOOL_CUTTHROUGH_OUTSI
100
AcDbVertex
100
AcDb2dVertex
 10
497.7477505077841
 20
-132.2967859823548
 30
0.0
  0
VERTEX
  5
35A
330
31C
100
AcDbEntity
  8
4_ANYTOOL_CUTTHROUGH_OUTSI
100
AcDbVertex
100
AcDb2dVertex
 10
462.2477505078859
 20
-132.2966994140297
 30
0.0
  0
VERTEX
  5
35B
330
31C
100
AcDbEntity
  8
4_ANYTOOL_CUTTHROUGH_OUTSI
100
AcDbVertex
100
AcDb2dVertex
 10
462.2477645295075
 20
-126.5466994140515
 30
0.0
 42
0.4142135623986992
  0
VERTEX
  5
35C
330
31C
100
AcDbEntity
  8
4_ANYTOOL_CUTTHROUGH_OUTSI
100
AcDbVertex
100
AcDb2dVertex
 10
461.9977651391455
 20
-126.2966988044063
 30
0.0
  0
VERTEX
  5
35D
330
31C
100
AcDbEntity
  8
4_ANYTOOL_CUTTHROUGH_OUTSI
100
AcDbVertex
100
AcDb2dVertex
 10
449.9977651391819
 20
-126.29666954188
 30
0.0
 42
0.4142135623815966
  0
VERTEX
  5
35E
330
31C
100
AcDbEntity
  8
4_ANYTOOL_CUTTHROUGH_OUTSI
100
AcDbVertex
100
AcDb2dVertex
 10
449.7477645295367
 20
-126.546668932242
 30
0.0
  0
VERTEX
  5
35F
330
31C
100
AcDbEntity
  8
4_ANYTOOL_CUTTHROUGH_OUTSI
100
AcDbVertex
100
AcDb2dVertex
 10
449.7477066141364
 20
-150.2966689321693
 30
0.0
  0
VERTEX
  5
360
330
31C
100
AcDbEntity
  8
4_ANYTOOL_CUTTHROUGH_OUTSI
100
AcDbVertex
100
AcDb2dVertex
 10
390.2477066142965
 20
-150.2965238387769
 30
0.0
  0
VERTEX
  5
361
330
31C
100
AcDbEntity
  8
4_ANYTOOL_CUTTHROUGH_OUTSI
100
AcDbVertex
100
AcDb2dVertex
 10
390.2477645297113
 20
-126.5465238388424
 30
0.0
 42
0.4142135623816114
  0
VERTEX
  5
362
330
31C
100
AcDbEntity
  8
4_ANYTOOL_CUTTHROUGH_OUTSI
100
AcDbVertex
100
AcDb2dVertex
 10
389.9977651393492
 20
-126.2965232292117
 30
0.0
  0
VERTEX
  5
363
330
31C
100
AcDbEntity
  8
4_ANYTOOL_CUTTHROUGH_OUTSI
100
AcDbVertex
100
AcDb2dVertex
 10
377.9977651393856
 20
-126.2964939666708
 30
0.0
 42
0.4142135623219413
  0
VERTEX
  5
364
330
31C
100
AcDbEntity
  8
4_ANYTOOL_CUTTHROUGH_OUTSI
100
AcDbVertex
100
AcDb2dVertex
 10
377.7477645297477
 20
-126.5464933570329
 30
0.0
  0
VERTEX
  5
365
330
31C
100
AcDbEntity
  8
4_ANYTOOL_CUTTHROUGH_OUTSI
100
AcDbVertex
100
AcDb2dVertex
 10
377.747750508126
 20
-132.2964933570183
 30
0.0
  0
VERTEX
  5
366
330
31C
100
AcDbEntity
  8
4_ANYTOOL_CUTTHROUGH_OUTSI
100
AcDbVertex
100
AcDb2dVertex
 10
342.2477505082206
 20
-132.2964067886933
 30
0.0
  0
VERTEX
  5
367
330
31C
100
AcDbEntity
  8
4_ANYTOOL_CUTTHROUGH_OUTSI
100
AcDbVertex
100
AcDb2dVertex
 10
342.2477645298422
 20
-126.5464067887078
 30
0.0
 42
0.4142135623304558
  0
VERTEX
  5
368
330
31C
100
AcDbEntity
  8
4_ANYTOOL_CUTTHROUGH_OUTSI
100
AcDbVertex
100
AcDb2dVertex
 10
341.9977651394802
 20
-126.2964061790772
 30
0.0
  0
VERTEX
  5
369
330
31C
100
AcDbEntity
  8
4_ANYTOOL_CUTTHROUGH_OUTSI
100
AcDbVertex
100
AcDb2dVertex
 10
329.9977651395093
 20
-126.2963769165362
 30
0.0
 42
0.4142135623730401
  0
VERTEX
  5
36A
330
31C
100
AcDbEntity
  8
4_ANYTOOL_CUTTHROUGH_OUTSI
100
AcDbVertex
100
AcDb2dVertex
 10
329.7477645298713
 20
-126.5463763068983
 30
0.0
  0
VERTEX
  5
36B
330
31C
100
AcDbEntity
  8
4_ANYTOOL_CUTTHROUGH_OUTSI
100
AcDbVertex
100
AcDb2dVertex
 10
329.7477066144638
 20
-150.2963763068328
 30
0.0
  0
VERTEX
  5
36C
330
31C
100
AcDbEntity
  8
4_ANYTOOL_CUTTHROUGH_OUTSI
100
AcDbVertex
100
AcDb2dVertex
 10
270.2477066146312
 20
-150.2962312134332
 30
0.0
  0
VERTEX
  5
36D
330
31C
100
AcDbEntity
  8
4_ANYTOOL_CUTTHROUGH_OUTSI
100
AcDbVertex
100
AcDb2dVertex
 10
270.2477645300387
 20
-126.546231213506
 30
0.0
 42
0.4142135623816603
  0
VERTEX
  5
36E
330
31C
100
AcDbEntity
  8
4_ANYTOOL_CUTTHROUGH_OUTSI
100
AcDbVertex
100
AcDb2dVertex
 10
269.9977651396766
 20
-126.2962306038607
 30
0.0
  0
VERTEX
  5
36F
330
31C
100
AcDbEntity
  8
4_ANYTOOL_CUTTHROUGH_OUTSI
100
AcDbVertex
100
AcDb2dVertex
 10
257.9977651397057
 20
-126.2962013413344
 30
0.0
 42
0.4142135623987139
  0
VERTEX
  5
370
330
31C
100
AcDbEntity
  8
4_ANYTOOL_CUTTHROUGH_OUTSI
100
AcDbVertex
100
AcDb2dVertex
 10
257.7477645300751
 20
-126.5462007316964
 30
0.0
  0
VERTEX
  5
371
330
31C
100
AcDbEntity
  8
4_ANYTOOL_CUTTHROUGH_OUTSI
100
AcDbVertex
100
AcDb2dVertex
 10
257.7477505084462
 20
-132.2962007316819
 30
0.0
  0
VERTEX
  5
372
330
31C
100
AcDbEntity
  8
4_ANYTOOL_CUTTHROUGH_OUTSI
100
AcDbVertex
100
AcDb2dVertex
 10
222.2477645301697
 20
-132.2961141633714
 30
0.0
  0
VERTEX
  5
373
330
31C
100
AcDbEntity
  8
4_ANYTOOL_CUTTHROUGH_OUTSI
100
AcDbVertex
100
AcDb2dVertex
 10
222.2477645301697
 20
-126.5461135537334
 30
0.0
 42
0.4142128481550831
  0
VERTEX
  5
374
330
31C
100
AcDbEntity
  8
4_ANYTOOL_CUTTHROUGH_OUTSI
100
AcDbVertex
100
AcDb2dVertex
 10
221.9977651398076
 20
-126.2961135537342
 30
0.0
  0
VERTEX
  5
375
330
31C
100
AcDbEntity
  8
4_ANYTOOL_CUTTHROUGH_OUTSI
100
AcDbVertex
100
AcDb2dVertex
 10
209.9977651398367
 20
-126.2960842911998
 30
0.0
 42
0.4142135623730969
  0
VERTEX
  5
376
330
31C
100
AcDbEntity
  8
4_ANYTOOL_CUTTHROUGH_OUTSI
100
AcDbVertex
100
AcDb2dVertex
 10
209.7477645301988
 20
-126.5460836815619
 30
0.0
  0
VERTEX
  5
377
330
31C
100
AcDbEntity
  8
4_ANYTOOL_CUTTHROUGH_OUTSI
100
AcDbVertex
100
AcDb2dVertex
 10
209.7477066147912
 20
-150.2960836814891
 30
0.0
  0
VERTEX
  5
378
330
31C
100
AcDbEntity
  8
4_ANYTOOL_CUTTHROUGH_OUTSI
100
AcDbVertex
100
AcDb2dVertex
 10
150.2477066149513
 20
-150.2959385880968
 30
0.0
  0
VERTEX
  5
379
330
31C
100
AcDbEntity
  8
4_ANYTOOL_CUTTHROUGH_OUTSI
100
AcDbVertex
100
AcDb2dVertex
 10
150.2477645303588
 20
-126.5459385881695
 30
0.0
 42
0.4142135623901554
  0
VERTEX
  5
37A
330
31C
100
AcDbEntity
  8
4_ANYTOOL_CUTTHROUGH_OUTSI
100
AcDbVertex
100
AcDb2dVertex
 10
149.9977651399968
 20
-126.2959379785316
 30
0.0
  0
VERTEX
  5
37B
330
31C
100
AcDbEntity
  8
4_ANYTOOL_CUTTHROUGH_OUTSI
100
AcDbVertex
100
AcDb2dVertex
 10
137.9977651400404
 20
-126.2959087159979
 30
0.0
 42
0.4142135623560581
  0
VERTEX
  5
37C
330
31C
100
AcDbEntity
  8
4_ANYTOOL_CUTTHROUGH_OUTSI
100
AcDbVertex
100
AcDb2dVertex
 10
137.7477645304025
 20
-126.54590810636
 30
0.0
  0
VERTEX
  5
37D
330
31C
100
AcDbEntity
  8
4_ANYTOOL_CUTTHROUGH_OUTSI
100
AcDbVertex
100
AcDb2dVertex
 10
137.7477505087736
 20
-132.2959081063382
 30
0.0
  0
VERTEX
  5
37E
330
31C
100
AcDbEntity
  8
4_ANYTOOL_CUTTHROUGH_OUTSI
100
AcDbVertex
100
AcDb2dVertex
 10
102.2477645305044
 20
-132.2958215380349
 30
0.0
  0
VERTEX
  5
37F
330
31C
100
AcDbEntity
  8
4_ANYTOOL_CUTTHROUGH_OUTSI
100
AcDbVertex
100
AcDb2dVertex
 10
102.2477645304971
 20
-126.5458209283897
 30
0.0
 42
0.4142128481550242
  0
VERTEX
  5
380
330
31C
100
AcDbEntity
  8
4_ANYTOOL_CUTTHROUGH_OUTSI
100
AcDbVertex
100
AcDb2dVertex
 10
101.997765140135
 20
-126.2958209283905
 30
0.0
  0
VERTEX
  5
381
330
31C
100
AcDbEntity
  8
4_ANYTOOL_CUTTHROUGH_OUTSI
100
AcDbVertex
100
AcDb2dVertex
 10
89.9977651401714
 20
-126.2957916658561
 30
0.0
 42
0.4142135623475278
  0
VERTEX
  5
382
330
31C
100
AcDbEntity
  8
4_ANYTOOL_CUTTHROUGH_OUTSI
100
AcDbVertex
100
AcDb2dVertex
 10
89.74776453052618
 20
-126.5457910562181
 30
0.0
  0
VERTEX
  5
383
330
31C
100
AcDbEntity
  8
4_ANYTOOL_CUTTHROUGH_OUTSI
100
AcDbVertex
100
AcDb2dVertex
 10
89.74770661512594
 20
-150.2957910561527
 30
0.0
  0
VERTEX
  5
384
330
31C
100
AcDbEntity
  8
4_ANYTOOL_CUTTHROUGH_OUTSI
100
AcDbVertex
100
AcDb2dVertex
 10
30.24770661529328
 20
-150.2956459627603
 30
0.0
  0
VERTEX
  5
385
330
31C
100
AcDbEntity
  8
4_ANYTOOL_CUTTHROUGH_OUTSI
100
AcDbVertex
100
AcDb2dVertex
 10
30.24776453070081
 20
-126.5456459628258
 30
0.0
 42
0.4142135623901554
  0
VERTEX
  5
386
330
31C
100
AcDbEntity
  8
4_ANYTOOL_CUTTHROUGH_OUTSI
100
AcDbVertex
100
AcDb2dVertex
 10
29.99776514033874
 20
-126.2956453531879
 30
0.0
  0
VERTEX
  5
387
330
31C
100
AcDbEntity
  8
4_ANYTOOL_CUTTHROUGH_OUTSI
100
AcDbVertex
100
AcDb2dVertex
 10
17.99776514036785
 20
-126.2956160906542
 30
0.0
 42
0.4142135623560491
  0
VERTEX
  5
388
330
31C
100
AcDbEntity
  8
4_ANYTOOL_CUTTHROUGH_OUTSI
100
AcDbVertex
100
AcDb2dVertex
 10
17.74776453074446
 20
-126.5456154810163
 30
0.0
  0
VERTEX
  5
389
330
31C
100
AcDbEntity
  8
4_ANYTOOL_CUTTHROUGH_OUTSI
100
AcDbVertex
100
AcDb2dVertex
 10
17.74775050910102
 20
-132.2956157858207
 30
0.0
  0
VERTEX
  5
38A
330
31C
100
AcDbEntity
  8
4_ANYTOOL_CUTTHROUGH_OUTSI
100
AcDbVertex
100
AcDb2dVertex
 10
-17.75145084704855
 20
-132.2955725026259
 30
0.0
  0
VERTEX
  5
38B
330
31C
100
AcDbEntity
  8
4_ANYTOOL_CUTTHROUGH_OUTSI
100
AcDbVertex
100
AcDb2dVertex
 10
-17.75145084705582
 20
-126.5455721978069
 30
0.0
 42
0.4142135624071953
  0
VERTEX
  5
38C
330
31C
100
AcDbEntity
  8
4_ANYTOOL_CUTTHROUGH_OUTSI
100
AcDbVertex
100
AcDb2dVertex
 10
-18.00145084705582
 20
-126.2955721978069
 30
0.0
  0
VERTEX
  5
38D
330
31C
100
AcDbEntity
  8
4_ANYTOOL_CUTTHROUGH_OUTSI
100
AcDbVertex
100
AcDb2dVertex
 10
-30.00145084705582
 20
-126.2955721978069
 30
0.0
 42
0.4142135624071869
  0
VERTEX
  5
38E
330
31C
100
AcDbEntity
  8
4_ANYTOOL_CUTTHROUGH_OUTSI
100
AcDbVertex
100
AcDb2dVertex
 10
-30.25145084707037
 20
-126.5455721978069
 30
0.0
  0
VERTEX
  5
38F
330
31C
100
AcDbEntity
  8
4_ANYTOOL_CUTTHROUGH_OUTSI
100
AcDbVertex
100
AcDb2dVertex
 10
-30.25145084703399
 20
-150.2955721978142
 30
0.0
  0
VERTEX
  5
390
330
31C
100
AcDbEntity
  8
4_ANYTOOL_CUTTHROUGH_OUTSI
100
AcDbVertex
100
AcDb2dVertex
 10
-89.75145084704855
 20
-150.2955721978142
 30
0.0
  0
VERTEX
  5
391
330
31C
100
AcDbEntity
  8
4_ANYTOOL_CUTTHROUGH_OUTSI
100
AcDbVertex
100
AcDb2dVertex
 10
-89.75145084707037
 20
-126.5455721978069
 30
0.0
 42
0.4142135623901437
  0
VERTEX
  5
392
330
31C
100
AcDbEntity
  8
4_ANYTOOL_CUTTHROUGH_OUTSI
100
AcDbVertex
100
AcDb2dVertex
 10
-90.00145084707037
 20
-126.2955721978069
 30
0.0
  0
VERTEX
  5
393
330
31C
100
AcDbEntity
  8
4_ANYTOOL_CUTTHROUGH_OUTSI
100
AcDbVertex
100
AcDb2dVertex
 10
-102.0014508470776
 20
-126.2955721978069
 30
0.0
 42
0.4142135623901437
  0
VERTEX
  5
394
330
31C
100
AcDbEntity
  8
4_ANYTOOL_CUTTHROUGH_OUTSI
100
AcDbVertex
100
AcDb2dVertex
 10
-102.2514508470776
 20
-126.5455721978069
 30
0.0
  0
VERTEX
  5
395
330
31C
100
AcDbEntity
  8
4_ANYTOOL_CUTTHROUGH_OUTSI
100
AcDbVertex
100
AcDb2dVertex
 10
-102.2514508470704
 20
-132.2955721978069
 30
0.0
  0
VERTEX
  5
396
330
31C
100
AcDbEntity
  8
4_ANYTOOL_CUTTHROUGH_OUTSI
100
AcDbVertex
100
AcDb2dVertex
 10
-137.7514508470776
 20
-132.2955721978069
 30
0.0
  0
VERTEX
  5
397
330
31C
100
AcDbEntity
  8
4_ANYTOOL_CUTTHROUGH_OUTSI
100
AcDbVertex
100
AcDb2dVertex
 10
-137.7514508470849
 20
-126.5455721978069
 30
0.0
 42
0.4142135623986857
  0
VERTEX
  5
398
330
31C
100
AcDbEntity
  8
4_ANYTOOL_CUTTHROUGH_OUTSI
100
AcDbVertex
100
AcDb2dVertex
 10
-138.0014508470849
 20
-126.2955721978142
 30
0.0
  0
VERTEX
  5
399
330
31C
100
AcDbEntity
  8
4_ANYTOOL_CUTTHROUGH_OUTSI
100
AcDbVertex
100
AcDb2dVertex
 10
-150.0014508470849
 20
-126.2955721978069
 30
0.0
 42
0.4142135624072039
  0
VERTEX
  5
39A
330
31C
100
AcDbEntity
  8
4_ANYTOOL_CUTTHROUGH_OUTSI
100
AcDbVertex
100
AcDb2dVertex
 10
-150.2514508470995
 20
-126.5455721978069
 30
0.0
  0
VERTEX
  5
39B
330
31C
100
AcDbEntity
  8
4_ANYTOOL_CUTTHROUGH_OUTSI
100
AcDbVertex
100
AcDb2dVertex
 10
-150.2514508470704
 20
-150.2955721978142
 30
0.0
  0
VERTEX
  5
39C
330
31C
100
AcDbEntity
  8
4_ANYTOOL_CUTTHROUGH_OUTSI
100
AcDbVertex
100
AcDb2dVertex
 10
-209.7514508470776
 20
-150.2955721978069
 30
0.0
  0
VERTEX
  5
39D
330
31C
100
AcDbEntity
  8
4_ANYTOOL_CUTTHROUGH_OUTSI
100
AcDbVertex
100
AcDb2dVertex
 10
-209.7514508470922
 20
-126.5455721978069
 30
0.0
 42
0.414213562441266
  0
VERTEX
  5
39E
330
31C
100
AcDbEntity
  8
4_ANYTOOL_CUTTHROUGH_OUTSI
100
AcDbVertex
100
AcDb2dVertex
 10
-210.0014508470922
 20
-126.2955721978069
 30
0.0
  0
VERTEX
  5
39F
330
31C
100
AcDbEntity
  8
4_ANYTOOL_CUTTHROUGH_OUTSI
100
AcDbVertex
100
AcDb2dVertex
 10
-222.0014508470995
 20
-126.2955721978069
 30
0.0
 42
0.4142135623815831
  0
VERTEX
  5
3A0
330
31C
100
AcDbEntity
  8
4_ANYTOOL_CUTTHROUGH_OUTSI
100
AcDbVertex
100
AcDb2dVertex
 10
-222.2514508470922
 20
-126.5455721978069
 30
0.0
  0
VERTEX
  5
3A1
330
31C
100
AcDbEntity
  8
4_ANYTOOL_CUTTHROUGH_OUTSI
100
AcDbVertex
100
AcDb2dVertex
 10
-222.2514508470922
 20
-132.2955721978069
 30
0.0
  0
VERTEX
  5
3A2
330
31C
100
AcDbEntity
  8
4_ANYTOOL_CUTTHROUGH_OUTSI
100
AcDbVertex
100
AcDb2dVertex
 10
-257.7514508470995
 20
-132.2955721978069
 30
0.0
  0
VERTEX
  5
3A3
330
31C
100
AcDbEntity
  8
4_ANYTOOL_CUTTHROUGH_OUTSI
100
AcDbVertex
100
AcDb2dVertex
 10
-257.7514508471068
 20
-126.5455721978069
 30
0.0
 42
0.4142135623475044
  0
VERTEX
  5
3A4
330
31C
100
AcDbEntity
  8
4_ANYTOOL_CUTTHROUGH_OUTSI
100
AcDbVertex
100
AcDb2dVertex
 10
-258.0014508471068
 20
-126.2955721977996
 30
0.0
  0
VERTEX
  5
3A5
330
31C
100
AcDbEntity
  8
4_ANYTOOL_CUTTHROUGH_OUTSI
100
AcDbVertex
100
AcDb2dVertex
 10
-270.001450847114
 20
-126.2955721978069
 30
0.0
 42
0.4142135623646264
  0
VERTEX
  5
3A6
330
31C
100
AcDbEntity
  8
4_ANYTOOL_CUTTHROUGH_OUTSI
100
AcDbVertex
100
AcDb2dVertex
 10
-270.2514508471213
 20
-126.5455721978069
 30
0.0
  0
VERTEX
  5
3A7
330
31C
100
AcDbEntity
  8
4_ANYTOOL_CUTTHROUGH_OUTSI
100
AcDbVertex
100
AcDb2dVertex
 10
-270.2514508470922
 20
-150.2955721978069
 30
0.0
  0
VERTEX
  5
3A8
330
31C
100
AcDbEntity
  8
4_ANYTOOL_CUTTHROUGH_OUTSI
100
AcDbVertex
100
AcDb2dVertex
 10
-329.7514508471068
 20
-150.2955721978069
 30
0.0
  0
VERTEX
  5
3A9
330
31C
100
AcDbEntity
  8
4_ANYTOOL_CUTTHROUGH_OUTSI
100
AcDbVertex
100
AcDb2dVertex
 10
-329.7514508471286
 20
-126.5455721978069
 30
0.0
 42
0.4142135623560464
  0
VERTEX
  5
3AA
330
31C
100
AcDbEntity
  8
4_ANYTOOL_CUTTHROUGH_OUTSI
100
AcDbVertex
100
AcDb2dVertex
 10
-330.0014508471286
 20
-126.2955721978069
 30
0.0
  0
VERTEX
  5
3AB
330
31C
100
AcDbEntity
  8
4_ANYTOOL_CUTTHROUGH_OUTSI
100
AcDbVertex
100
AcDb2dVertex
 10
-342.0014508471286
 20
-126.2955721978069
 30
0.0
 42
0.4142135623474681
  0
VERTEX
  5
3AC
330
31C
100
AcDbEntity
  8
4_ANYTOOL_CUTTHROUGH_OUTSI
100
AcDbVertex
100
AcDb2dVertex
 10
-342.2514508471359
 20
-126.5455721978069
 30
0.0
  0
VERTEX
  5
3AD
330
31C
100
AcDbEntity
  8
4_ANYTOOL_CUTTHROUGH_OUTSI
100
AcDbVertex
100
AcDb2dVertex
 10
-342.2514508471213
 20
-132.2955721978069
 30
0.0
  0
VERTEX
  5
3AE
330
31C
100
AcDbEntity
  8
4_ANYTOOL_CUTTHROUGH_OUTSI
100
AcDbVertex
100
AcDb2dVertex
 10
-377.7514508471359
 20
-132.2955721978069
 30
0.0
  0
VERTEX
  5
3AF
330
31C
100
AcDbEntity
  8
4_ANYTOOL_CUTTHROUGH_OUTSI
100
AcDbVertex
100
AcDb2dVertex
 10
-377.7514508471359
 20
-126.5455721978069
 30
0.0
 42
0.4142135624327829
  0
VERTEX
  5
3B0
330
31C
100
AcDbEntity
  8
4_ANYTOOL_CUTTHROUGH_OUTSI
100
AcDbVertex
100
AcDb2dVertex
 10
-378.0014508471359
 20
-126.2955721978142
 30
0.0
  0
VERTEX
  5
3B1
330
31C
100
AcDbEntity
  8
4_ANYTOOL_CUTTHROUGH_OUTSI
100
AcDbVertex
100
AcDb2dVertex
 10
-390.0014508471431
 20
-126.2955721978069
 30
0.0
 42
0.4142135623646264
  0
VERTEX
  5
3B2
330
31C
100
AcDbEntity
  8
4_ANYTOOL_CUTTHROUGH_OUTSI
100
AcDbVertex
100
AcDb2dVertex
 10
-390.2514508471504
 20
-126.5455721978069
 30
0.0
  0
VERTEX
  5
3B3
330
31C
100
AcDbEntity
  8
4_ANYTOOL_CUTTHROUGH_OUTSI
100
AcDbVertex
100
AcDb2dVertex
 10
-390.2514508471213
 20
-150.2955721978069
 30
0.0
  0
VERTEX
  5
3B4
330
31C
100
AcDbEntity
  8
4_ANYTOOL_CUTTHROUGH_OUTSI
100
AcDbVertex
100
AcDb2dVertex
 10
-449.7514508471286
 20
-150.2955721978069
 30
0.0
  0
VERTEX
  5
3B5
330
31C
100
AcDbEntity
  8
4_ANYTOOL_CUTTHROUGH_OUTSI
100
AcDbVertex
100
AcDb2dVertex
 10
-449.7514508471504
 20
-126.5455721978069
 30
0.0
 42
0.414213562321902
  0
VERTEX
  5
3B6
330
31C
100
AcDbEntity
  8
4_ANYTOOL_CUTTHROUGH_OUTSI
100
AcDbVertex
100
AcDb2dVertex
 10
-450.0014508471504
 20
-126.2955721978069
 30
0.0
  0
VERTEX
  5
3B7
330
31C
100
AcDbEntity
  8
4_ANYTOOL_CUTTHROUGH_OUTSI
100
AcDbVertex
100
AcDb2dVertex
 10
-462.0014508471504
 20
-126.2955721978069
 30
0.0
 42
0.4142135624157017
  0
VERTEX
  5
3B8
330
31C
100
AcDbEntity
  8
4_ANYTOOL_CUTTHROUGH_OUTSI
100
AcDbVertex
100
AcDb2dVertex
 10
-462.2514508471577
 20
-126.5455721978069
 30
0.0
  0
VERTEX
  5
3B9
330
31C
100
AcDbEntity
  8
4_ANYTOOL_CUTTHROUGH_OUTSI
100
AcDbVertex
100
AcDb2dVertex
 10
-462.2514508471504
 20
-132.2955721978069
 30
0.0
  0
VERTEX
  5
3BA
330
31C
100
AcDbEntity
  8
4_ANYTOOL_CUTTHROUGH_OUTSI
100
AcDbVertex
100
AcDb2dVertex
 10
-497.7514508471577
 20
-132.2955721978069
 30
0.0
  0
VERTEX
  5
3BB
330
31C
100
AcDbEntity
  8
4_ANYTOOL_CUTTHROUGH_OUTSI
100
AcDbVertex
100
AcDb2dVertex
 10
-497.751450847165
 20
-126.5455721978069
 30
0.0
 42
0.4142135623475044
  0
VERTEX
  5
3BC
330
31C
100
AcDbEntity
  8
4_ANYTOOL_CUTTHROUGH_OUTSI
100
AcDbVertex
100
AcDb2dVertex
 10
-498.001450847165
 20
-126.2955721977996
 30
0.0
  0
VERTEX
  5
3BD
330
31C
100
AcDbEntity
  8
4_ANYTOOL_CUTTHROUGH_OUTSI
100
AcDbVertex
100
AcDb2dVertex
 10
-510.001450847165
 20
-126.2955721978069
 30
0.0
 42
0.4142135623646264
  0
VERTEX
  5
3BE
330
31C
100
AcDbEntity
  8
4_ANYTOOL_CUTTHROUGH_OUTSI
100
AcDbVertex
100
AcDb2dVertex
 10
-510.2514508471722
 20
-126.5455721978069
 30
0.0
  0
VERTEX
  5
3BF
330
31C
100
AcDbEntity
  8
4_ANYTOOL_CUTTHROUGH_OUTSI
100
AcDbVertex
100
AcDb2dVertex
 10
-510.2514508471431
 20
-150.2955721978069
 30
0.0
  0
VERTEX
  5
3C0
330
31C
100
AcDbEntity
  8
4_ANYTOOL_CUTTHROUGH_OUTSI
100
AcDbVertex
100
AcDb2dVertex
 10
-569.7514508471577
 20
-150.2955721978069
 30
0.0
  0
VERTEX
  5
3C1
330
31C
100
AcDbEntity
  8
4_ANYTOOL_CUTTHROUGH_OUTSI
100
AcDbVertex
100
AcDb2dVertex
 10
-569.7514508471795
 20
-126.5455721977996
 30
0.0
 42
0.414213562296394
  0
VERTEX
  5
3C2
330
31C
100
AcDbEntity
  8
4_ANYTOOL_CUTTHROUGH_OUTSI
100
AcDbVertex
100
AcDb2dVertex
 10
-570.0014508471795
 20
-126.2955721978069
 30
0.0
  0
VERTEX
  5
3C3
330
31C
100
AcDbEntity
  8
4_ANYTOOL_CUTTHROUGH_OUTSI
100
AcDbVertex
100
AcDb2dVertex
 10
-582.0014508471795
 20
-126.2955721977996
 30
0.0
 42
0.4142135623731404
  0
VERTEX
  5
3C4
330
31C
100
AcDbEntity
  8
4_ANYTOOL_CUTTHROUGH_OUTSI
100
AcDbVertex
100
AcDb2dVertex
 10
-582.251450847165
 20
-126.5455721977996
 30
0.0
  0
VERTEX
  5
3C5
330
31C
100
AcDbEntity
  8
4_ANYTOOL_CUTTHROUGH_OUTSI
100
AcDbVertex
100
AcDb2dVertex
 10
-582.2514508471795
 20
-132.2955721978069
 30
0.0
  0
VERTEX
  5
3C6
330
31C
100
AcDbEntity
  8
4_ANYTOOL_CUTTHROUGH_OUTSI
100
AcDbVertex
100
AcDb2dVertex
 10
-617.7514508471868
 20
-132.2955721977996
 30
0.0
  0
VERTEX
  5
3C7
330
31C
100
AcDbEntity
  8
4_ANYTOOL_CUTTHROUGH_OUTSI
100
AcDbVertex
100
AcDb2dVertex
 10
-617.7514508471941
 20
-126.5455721977996
 30
0.0
 42
0.4142135623049475
  0
VERTEX
  5
3C8
330
31C
100
AcDbEntity
  8
4_ANYTOOL_CUTTHROUGH_OUTSI
100
AcDbVertex
100
AcDb2dVertex
 10
-618.0014508471941
 20
-126.2955721977996
 30
0.0
  0
VERTEX
  5
3C9
330
31C
100
AcDbEntity
  8
4_ANYTOOL_CUTTHROUGH_OUTSI
100
AcDbVertex
100
AcDb2dVertex
 10
-630.0014508471941
 20
-126.2955721977996
 30
0.0
 42
0.4142135623816222
  0
VERTEX
  5
3CA
330
31C
100
AcDbEntity
  8
4_ANYTOOL_CUTTHROUGH_OUTSI
100
AcDbVertex
100
AcDb2dVertex
 10
-630.2514508471868
 20
-126.5455721977996
 30
0.0
  0
VERTEX
  5
3CB
330
31C
100
AcDbEntity
  8
4_ANYTOOL_CUTTHROUGH_OUTSI
100
AcDbVertex
100
AcDb2dVertex
 10
-630.2514508471722
 20
-150.2955721978069
 30
0.0
  0
VERTEX
  5
3CC
330
31C
100
AcDbEntity
  8
4_ANYTOOL_CUTTHROUGH_OUTSI
100
AcDbVertex
100
AcDb2dVertex
 10
-689.7514508471868
 20
-150.2955721978069
 30
0.0
  0
VERTEX
  5
3CD
330
31C
100
AcDbEntity
  8
4_ANYTOOL_CUTTHROUGH_OUTSI
100
AcDbVertex
100
AcDb2dVertex
 10
-689.7514508472086
 20
-126.5455721977996
 30
0.0
 42
0.414213562373048
  0
VERTEX
  5
3CE
330
31C
100
AcDbEntity
  8
4_ANYTOOL_CUTTHROUGH_OUTSI
100
AcDbVertex
100
AcDb2dVertex
 10
-690.0014508472086
 20
-126.2955721977996
 30
0.0
  0
VERTEX
  5
3CF
330
31C
100
AcDbEntity
  8
4_ANYTOOL_CUTTHROUGH_OUTSI
100
AcDbVertex
100
AcDb2dVertex
 10
-702.0014508472159
 20
-126.2955721977996
 30
0.0
 42
0.4142135623900495
  0
VERTEX
  5
3D0
330
31C
100
AcDbEntity
  8
4_ANYTOOL_CUTTHROUGH_OUTSI
100
AcDbVertex
100
AcDb2dVertex
 10
-702.2514508472159
 20
-126.5455721977996
 30
0.0
  0
VERTEX
  5
3D1
330
31C
100
AcDbEntity
  8
4_ANYTOOL_CUTTHROUGH_OUTSI
100
AcDbVertex
100
AcDb2dVertex
 10
-702.2514508472086
 20
-132.2955721977996
 30
0.0
  0
VERTEX
  5
3D2
330
31C
100
AcDbEntity
  8
4_ANYTOOL_CUTTHROUGH_OUTSI
100
AcDbVertex
100
AcDb2dVertex
 10
-737.7514508472086
 20
-132.2955721977996
 30
0.0
  0
VERTEX
  5
3D3
330
31C
100
AcDbEntity
  8
4_ANYTOOL_CUTTHROUGH_OUTSI
100
AcDbVertex
100
AcDb2dVertex
 10
-737.7514508472159
 20
-126.5455721977996
 30
0.0
 42
0.4142135623134994
  0
VERTEX
  5
3D4
330
31C
100
AcDbEntity
  8
4_ANYTOOL_CUTTHROUGH_OUTSI
100
AcDbVertex
100
AcDb2dVertex
 10
-738.0014508472159
 20
-126.2955721978069
 30
0.0
  0
VERTEX
  5
3D5
330
31C
100
AcDbEntity
  8
4_ANYTOOL_CUTTHROUGH_OUTSI
100
AcDbVertex
100
AcDb2dVertex
 10
-750.0014508472159
 20
-126.2955721977996
 30
0.0
 42
0.414213562364511
  0
VERTEX
  5
3D6
330
31C
100
AcDbEntity
  8
4_ANYTOOL_CUTTHROUGH_OUTSI
100
AcDbVertex
100
AcDb2dVertex
 10
-750.2514508472086
 20
-126.5455721977996
 30
0.0
  0
VERTEX
  5
3D7
330
31C
100
AcDbEntity
  8
4_ANYTOOL_CUTTHROUGH_OUTSI
100
AcDbVertex
100
AcDb2dVertex
 10
-750.2514508472013
 20
-150.2955721977996
 30
0.0
  0
VERTEX
  5
3D8
330
31C
100
AcDbEntity
  8
4_ANYTOOL_CUTTHROUGH_OUTSI
100
AcDbVertex
100
AcDb2dVertex
 10
-809.7514508472159
 20
-150.2955721977996
 30
0.0
  0
VERTEX
  5
3D9
330
31C
100
AcDbEntity
  8
4_ANYTOOL_CUTTHROUGH_OUTSI
100
AcDbVertex
100
AcDb2dVertex
 10
-809.7514508472304
 20
-126.5455721977996
 30
0.0
 42
0.4142135623987818
  0
VERTEX
  5
3DA
330
31C
100
AcDbEntity
  8
4_ANYTOOL_CUTTHROUGH_OUTSI
100
AcDbVertex
100
AcDb2dVertex
 10
-810.0014508472304
 20
-126.2955721977924
 30
0.0
  0
VERTEX
  5
3DB
330
31C
100
AcDbEntity
  8
4_ANYTOOL_CUTTHROUGH_OUTSI
100
AcDbVertex
100
AcDb2dVertex
 10
-822.0014508472377
 20
-126.2955721977996
 30
0.0
 42
0.4142135623900495
  0
VERTEX
  5
3DC
330
31C
100
AcDbEntity
  8
4_ANYTOOL_CUTTHROUGH_OUTSI
100
AcDbVertex
100
AcDb2dVertex
 10
-822.2514508472377
 20
-126.5455721977996
 30
0.0
  0
VERTEX
  5
3DD
330
31C
100
AcDbEntity
  8
4_ANYTOOL_CUTTHROUGH_OUTSI
100
AcDbVertex
100
AcDb2dVertex
 10
-822.2514508472304
 20
-132.2955721977996
 30
0.0
  0
VERTEX
  5
3DE
330
31C
100
AcDbEntity
  8
4_ANYTOOL_CUTTHROUGH_OUTSI
100
AcDbVertex
100
AcDb2dVertex
 10
-857.7514508472377
 20
-132.2955721977996
 30
0.0
  0
VERTEX
  5
3DF
330
31C
100
AcDbEntity
  8
4_ANYTOOL_CUTTHROUGH_OUTSI
100
AcDbVertex
100
AcDb2dVertex
 10
-857.751450847245
 20
-126.5455721977996
 30
0.0
 42
0.4142135623134994
  0
VERTEX
  5
3E0
330
31C
100
AcDbEntity
  8
4_ANYTOOL_CUTTHROUGH_OUTSI
100
AcDbVertex
100
AcDb2dVertex
 10
-858.001450847245
 20
-126.2955721978069
 30
0.0
  0
VERTEX
  5
3E1
330
31C
100
AcDbEntity
  8
4_ANYTOOL_CUTTHROUGH_OUTSI
100
AcDbVertex
100
AcDb2dVertex
 10
-870.0014508472523
 20
-126.2955721977996
 30
0.0
 42
0.414213562364511
  0
VERTEX
  5
3E2
330
31C
100
AcDbEntity
  8
4_ANYTOOL_CUTTHROUGH_OUTSI
100
AcDbVertex
100
AcDb2dVertex
 10
-870.251450847245
 20
-126.5455721977996
 30
0.0
  0
VERTEX
  5
3E3
330
31C
100
AcDbEntity
  8
4_ANYTOOL_CUTTHROUGH_OUTSI
100
AcDbVertex
100
AcDb2dVertex
 10
-870.2514508472304
 20
-150.2955721977996
 30
0.0
  0
VERTEX
  5
3E4
330
31C
100
AcDbEntity
  8
4_ANYTOOL_CUTTHROUGH_OUTSI
100
AcDbVertex
100
AcDb2dVertex
 10
-929.751450847245
 20
-150.2955721977996
 30
0.0
  0
VERTEX
  5
3E5
330
31C
100
AcDbEntity
  8
4_ANYTOOL_CUTTHROUGH_OUTSI
100
AcDbVertex
100
AcDb2dVertex
 10
-929.7514508472668
 20
-126.5455721977996
 30
0.0
 42
0.4142135623134994
  0
VERTEX
  5
3E6
330
31C
100
AcDbEntity
  8
4_ANYTOOL_CUTTHROUGH_OUTSI
100
AcDbVertex
100
AcDb2dVertex
 10
-930.0014508472668
 20
-126.2955721978069
 30
0.0
  0
VERTEX
  5
3E7
330
31C
100
AcDbEntity
  8
4_ANYTOOL_CUTTHROUGH_OUTSI
100
AcDbVertex
100
AcDb2dVertex
 10
-942.0014508472668
 20
-126.2955721977996
 30
0.0
 42
0.4142135623900495
  0
VERTEX
  5
3E8
330
31C
100
AcDbEntity
  8
4_ANYTOOL_CUTTHROUGH_OUTSI
100
AcDbVertex
100
AcDb2dVertex
 10
-942.2514508472668
 20
-126.5455721977996
 30
0.0
  0
VERTEX
  5
3E9
330
31C
100
AcDbEntity
  8
4_ANYTOOL_CUTTHROUGH_OUTSI
100
AcDbVertex
100
AcDb2dVertex
 10
-942.2514508472595
 20
-132.2955721977996
 30
0.0
  0
VERTEX
  5
3EA
330
31C
100
AcDbEntity
  8
4_ANYTOOL_CUTTHROUGH_OUTSI
100
AcDbVertex
100
AcDb2dVertex
 10
-977.7514508472741
 20
-132.2955721977996
 30
0.0
  0
VERTEX
  5
3EB
330
31C
100
AcDbEntity
  8
4_ANYTOOL_CUTTHROUGH_OUTSI
100
AcDbVertex
100
AcDb2dVertex
 10
-977.7514508472741
 20
-126.5455721977996
 30
0.0
 42
0.4142135623902378
  0
VERTEX
  5
3EC
330
31C
100
AcDbEntity
  8
4_ANYTOOL_CUTTHROUGH_OUTSI
100
AcDbVertex
100
AcDb2dVertex
 10
-978.0014508472741
 20
-126.2955721977996
 30
0.0
  0
VERTEX
  5
3ED
330
31C
100
AcDbEntity
  8
4_ANYTOOL_CUTTHROUGH_OUTSI
100
AcDbVertex
100
AcDb2dVertex
 10
-990.0014508472741
 20
-126.2955721977996
 30
0.0
 42
0.4142135623816222
  0
VERTEX
  5
3EE
330
31C
100
AcDbEntity
  8
4_ANYTOOL_CUTTHROUGH_OUTSI
100
AcDbVertex
100
AcDb2dVertex
 10
-990.2514508472668
 20
-126.5455721977996
 30
0.0
  0
VERTEX
  5
3EF
330
31C
100
AcDbEntity
  8
4_ANYTOOL_CUTTHROUGH_OUTSI
100
AcDbVertex
100
AcDb2dVertex
 10
-990.2514508472523
 20
-150.2955721977996
 30
0.0
  0
VERTEX
  5
3F0
330
31C
100
AcDbEntity
  8
4_ANYTOOL_CUTTHROUGH_OUTSI
100
AcDbVertex
100
AcDb2dVertex
 10
-1049.751450847267
 20
-150.2955721977996
 30
0.0
  0
VERTEX
  5
3F1
330
31C
100
AcDbEntity
  8
4_ANYTOOL_CUTTHROUGH_OUTSI
100
AcDbVertex
100
AcDb2dVertex
 10
-1049.751450847289
 20
-126.5455721977996
 30
0.0
 42
0.4142135623047575
  0
VERTEX
  5
3F2
330
31C
100
AcDbEntity
  8
4_ANYTOOL_CUTTHROUGH_OUTSI
100
AcDbVertex
100
AcDb2dVertex
 10
-1050.001450847289
 20
-126.2955721978142
 30
0.0
  0
VERTEX
  5
3F3
330
31C
100
AcDbEntity
  8
4_ANYTOOL_CUTTHROUGH_OUTSI
100
AcDbVertex
100
AcDb2dVertex
 10
-1062.001450847289
 20
-126.2955721977996
 30
0.0
 42
0.4142135623899714
  0
VERTEX
  5
3F4
330
31C
100
AcDbEntity
  8
4_ANYTOOL_CUTTHROUGH_OUTSI
100
AcDbVertex
100
AcDb2dVertex
 10
-1062.251450847289
 20
-126.5455721977996
 30
0.0
  0
VERTEX
  5
3F5
330
31C
100
AcDbEntity
  8
4_ANYTOOL_CUTTHROUGH_OUTSI
100
AcDbVertex
100
AcDb2dVertex
 10
-1062.251450847289
 20
-132.2955721977996
 30
0.0
  0
VERTEX
  5
3F6
330
31C
100
AcDbEntity
  8
4_ANYTOOL_CUTTHROUGH_OUTSI
100
AcDbVertex
100
AcDb2dVertex
 10
-1199.751450847282
 20
-132.2955721977996
 30
0.0
  0
VERTEX
  5
3F7
330
31C
100
AcDbEntity
  8
4_ANYTOOL_CUTTHROUGH_OUTSI
100
AcDbVertex
100
AcDb2dVertex
 10
-1199.751450847332
 20
-56.79557219778508
 30
0.0
  0
VERTEX
  5
3F8
330
31C
100
AcDbEntity
  8
4_ANYTOOL_CUTTHROUGH_OUTSI
100
AcDbVertex
100
AcDb2dVertex
 10
-1158.001450847332
 20
-56.79557219778508
 30
0.0
 42
0.4142135623986907
  0
VERTEX
  5
3F9
330
31C
100
AcDbEntity
  8
4_ANYTOOL_CUTTHROUGH_OUTSI
100
AcDbVertex
100
AcDb2dVertex
 10
-1157.75145084734
 20
-56.54557219778508
 30
0.0
  0
VERTEX
  5
3FA
330
31C
100
AcDbEntity
  8
4_ANYTOOL_CUTTHROUGH_OUTSI
100
AcDbVertex
100
AcDb2dVertex
 10
-1157.751450847325
 20
-44.54557219778508
 30
0.0
 42
0.4142135624330723
  0
VERTEX
  5
3FB
330
31C
100
AcDbEntity
  8
4_ANYTOOL_CUTTHROUGH_OUTSI
100
AcDbVertex
100
AcDb2dVertex
 10
-1158.001450847325
 20
-44.2955721977778
 30
0.0
  0
VERTEX
  5
3FC
330
31C
100
AcDbEntity
  8
4_ANYTOOL_CUTTHROUGH_OUTSI
100
AcDbVertex
100
AcDb2dVertex
 10
-1163.751450847347
 20
-44.29557219778508
 30
0.0
  0
VERTEX
  5
3FD
330
31C
100
AcDbEntity
  8
4_ANYTOOL_CUTTHROUGH_OUTSI
100
AcDbVertex
100
AcDb2dVertex
 10
-1163.751450847369
 20
-12.79590537837794
 30
0.0
  0
VERTEX
  5
3FE
330
31C
100
AcDbEntity
  8
4_ANYTOOL_CUTTHROUGH_OUTSI
100
AcDbVertex
100
AcDb2dVertex
 10
-1158.001450847369
 20
-12.79590537837794
 30
0.0
 42
0.4142135623986966
  0
VERTEX
  5
3FF
330
31C
100
AcDbEntity
  8
4_ANYTOOL_CUTTHROUGH_OUTSI
100
AcDbVertex
100
AcDb2dVertex
 10
-1157.751450847376
 20
-12.54590537837794
 30
0.0
  0
VERTEX
  5
400
330
31C
100
AcDbEntity
  8
4_ANYTOOL_CUTTHROUGH_OUTSI
100
AcDbVertex
100
AcDb2dVertex
 10
-1157.751450847383
 20
-0.5459053783779382
 30
0.0
 42
0.4142139085541586
  0
VERTEX
  5
401
330
31C
100
AcDbEntity
  8
4_ANYTOOL_CUTTHROUGH_OUTSI
100
AcDbVertex
100
AcDb2dVertex
 10
-1158.001451142867
 20
-0.2959053783781128
 30
0.0
  0
VERTEX
  5
402
330
31C
100
AcDbEntity
  8
4_ANYTOOL_CUTTHROUGH_OUTSI
100
AcDbVertex
100
AcDb2dVertex
 10
-1199.751212578129
 20
-0.295954724191688
 30
0.0
  0
VERTEX
  5
403
330
31C
100
AcDbEntity
  8
4_ANYTOOL_CUTTHROUGH_OUTSI
100
AcDbVertex
100
AcDb2dVertex
 10
-1199.751443412759
 20
139.2044109588023
 30
0.0
  0
VERTEX
  5
404
330
31C
100
AcDbEntity
  8
4_ANYTOOL_CUTTHROUGH_OUTSI
100
AcDbVertex
100
AcDb2dVertex
 10
1199.748527676173
 20
139.2044109587732
 30
0.0
  0
VERTEX
  5
405
330
31C
100
AcDbEntity
  8
4_ANYTOOL_CUTTHROUGH_OUTSI
100
AcDbVertex
100
AcDb2dVertex
 10
1199.748296841768
 20
-0.2959547242207918
 30
0.0
  0
VERTEX
  5
406
330
31C
100
AcDbEntity
  8
4_ANYTOOL_CUTTHROUGH_OUTSI
100
AcDbVertex
100
AcDb2dVertex
 10
1157.998535406507
 20
-0.295905378407042
 30
0.0
 42
0.4142139085881722
  0
VERTEX
  5
407
330
31C
100
AcDbEntity
  8
4_ANYTOOL_CUTTHROUGH_OUTSI
100
AcDbVertex
100
AcDb2dVertex
 10
1157.748535111023
 20
-0.545905378407042
 30
0.0
  0
VERTEX
  5
408
330
31C
100
AcDbEntity
  8
4_ANYTOOL_CUTTHROUGH_OUTSI
100
AcDbVertex
100
AcDb2dVertex
 10
1157.748535111023
 20
-12.54590537840704
 30
0.0
 42
0.4142135623306863
  0
VERTEX
  5
409
330
31C
100
AcDbEntity
  8
4_ANYTOOL_CUTTHROUGH_OUTSI
100
AcDbVertex
100
AcDb2dVertex
 10
1157.998535111023
 20
-12.79590537841432
 30
0.0
  0
VERTEX
  5
40A
330
31C
100
AcDbEntity
  8
4_ANYTOOL_CUTTHROUGH_OUTSI
100
AcDbVertex
100
AcDb2dVertex
 10
1163.748535111023
 20
-12.79590537840704
 30
0.0
  0
VERTEX
  5
40B
330
31C
100
AcDbEntity
  8
4_ANYTOOL_CUTTHROUGH_OUTSI
100
AcDbVertex
100
AcDb2dVertex
 10
1163.748535111045
 20
-44.29557219781418
 30
0.0
  0
VERTEX
  5
40C
330
31C
100
AcDbEntity
  8
4_ANYTOOL_CUTTHROUGH_OUTSI
100
AcDbVertex
100
AcDb2dVertex
 10
1157.998535111045
 20
-44.29557219781418
 30
0.0
 42
0.4142135623388727
  0
VERTEX
  5
40D
330
31C
100
AcDbEntity
  8
4_ANYTOOL_CUTTHROUGH_OUTSI
100
AcDbVertex
100
AcDb2dVertex
 10
1157.748535111045
 20
-44.54557219781418
 30
0.0
  0
VERTEX
  5
40E
330
31C
100
AcDbEntity
  8
4_ANYTOOL_CUTTHROUGH_OUTSI
100
AcDbVertex
100
AcDb2dVertex
 10
1157.748535111052
 20
-56.54557219781418
 30
0.0
 42
0.4142135623562348
  0
VERTEX
  5
40F
330
31C
100
AcDbEntity
  8
4_ANYTOOL_CUTTHROUGH_OUTSI
100
AcDbVertex
100
AcDb2dVertex
 10
1157.998535111052
 20
-56.79557219781418
 30
0.0
  0
VERTEX
  5
410
330
31C
100
AcDbEntity
  8
4_ANYTOOL_CUTTHROUGH_OUTSI
100
AcDbVertex
100
AcDb2dVertex
 10
1199.748535111066
 20
-56.79557219781418
 30
0.0
  0
SEQEND
  5
411
330
31C
100
AcDbEntity
  8
4_ANYTOOL_CUTTHROUGH_OUTSI
  0
ENDSEC
  0
SECTION
  2
OBJECTS
  0
DICTIONARY
  5
C
330
0
100
AcDbDictionary
  3
ACAD_GROUP
350
D
  3
ACAD_LAYOUT
350
1A
  3
ACAD_MATERIAL
350
43
  3
ACAD_MLEADERSTYLE
350
5B
  3
ACAD_MLINESTYLE
350
17
  3
ACAD_PLOTSETTINGS
350
19
  3
ACAD_SCALELIST
350
47
  3
ACAD_VISUALSTYLE
350
2A
  3
ACDBHEADERROUNDTRIPXREC
350
412
  3
ACDBVARIABLEDICTIONARY
350
433
  3
DWGPROPS
350
43A
  0
DICTIONARY
  5
43B
330
8
100
AcDbDictionary
280
     1
  3
ACAD_XREC_ROUNDTRIP
360
43C
  0
DICTIONARY
  5
D
102
{ACAD_REACTORS
330
C
102
}
330
C
100
AcDbDictionary
  0
DICTIONARY
  5
1A
102
{ACAD_REACTORS
330
C
102
}
330
C
100
AcDbDictionary
  0
DICTIONARY
  5
43
102
{ACAD_REACTORS
330
C
102
}
330
C
100
AcDbDictionary
  3
BYBLOCK
350
45
  3
BYLAYER
350
44
  3
GLOBAL
350
46
  0
DICTIONARY
  5
5B
102
{ACAD_REACTORS
330
C
102
}
330
C
100
AcDbDictionary
  3
STANDARD
350
5C
  0
DICTIONARY
  5
17
102
{ACAD_REACTORS
330
C
102
}
330
C
100
AcDbDictionary
  3
STANDARD
350
18
  0
DICTIONARY
  5
19
102
{ACAD_REACTORS
330
C
102
}
330
C
100
AcDbDictionary
  0
DICTIONARY
  5
47
102
{ACAD_REACTORS
330
C
102
}
330
C
100
AcDbDictionary
  3
A0
350
48
  3
A1
350
49
  3
A2
350
4A
  3
A3
350
4B
  3
A4
350
4C
  3
A5
350
4D
  3
A6
350
4E
  3
A7
350
4F
  3
A8
350
50
  3
A9
350
51
  3
B1
350
52
  3
B2
350
53
  3
B3
350
54
  3
B4
350
55
  3
B5
350
56
  3
B6
350
57
  3
B7
350
58
  0
DICTIONARY
  5
2A
102
{ACAD_REACTORS
330
C
102
}
330
C
100
AcDbDictionary
  3
2DWIREFRAME
350
2F
  3
BASIC
350
32
  3
BRIGHTEN
350
36
  3
COLORCHANGE
350
3A
  3
CONCEPTUAL
350
34
  3
DIM
350
35
  3
EDGECOLOROFF
350
3D
  3
FACEPATTERN
350
39
  3
FLAT
350
2B
  3
FLATWITHEDGES
350
2C
  3
GOURAUD
350
2D
  3
GOURAUDWITHEDGES
350
2E
  3
HIDDEN
350
31
  3
JITTEROFF
350
3B
  3
LINEPATTERN
350
38
  3
OVERHANGOFF
350
3C
  3
REALISTIC
350
33
  3
SHADED
350
42
  3
SHADED_WITH_EDGES
350
41
  3
SHADES_OF_GRAY
350
3E
  3
SKETCHY
350
3F
  3
THICKEN
350
37
  3
WIREFRAME
350
30
  3
X-RAY
350
40
  0
DICTIONARY
  5
412
102
{ACAD_REACTORS
330
C
102
}
330
C
100
AcDbDictionary
  3
CEPSNID
350
41C
  3
CEPSNTYPE
350
41B
  3
DIMSTYLEDATA
350
432
  3
FINGERPRINTGUID
350
41D
  3
HYPERLINKBASE
350
415
  3
INSUNITS
350
41A
  3
LAYOUTDICT
350
417
  3
LWETCUNION
350
419
  3
PLOTSETDICT
350
418
  3
PSVPSCALE
350
41F
  3
PUCSBASE
350
422
  3
PUCSORGBACK
350
428
  3
PUCSORGBOTTOM
350
424
  3
PUCSORGFRONT
350
427
  3
PUCSORGLEFT
350
425
  3
PUCSORGRIGHT
350
426
  3
PUCSORGTOP
350
423
  3
PUCSORTHOREF
350
420
  3
PUCSORTHOVIEW
350
421
  3
STYLESHEET
350
416
  3
TSTACKALIGN
350
413
  3
TSTACKSIZE
350
414
  3
UCSBASE
350
42B
  3
UCSORGBACK
350
431
  3
UCSORGBOTTOM
350
42D
  3
UCSORGFRONT
350
430
  3
UCSORGLEFT
350
42E
  3
UCSORGRIGHT
350
42F
  3
UCSORGTOP
350
42C
  3
UCSORTHOREF
350
429
  3
UCSORTHOVIEW
350
42A
  3
VERSIONGUID
350
41E
  0
DICTIONARY
  5
433
102
{ACAD_REACTORS
330
C
102
}
330
C
100
AcDbDictionary
  3
CANNOSCALE
350
43D
  3
CMLEADERSTYLE
350
435
  3
CTABLESTYLE
350
434
  3
DIMASSOC
350
438
  3
HIDETEXT
350
439
  3
MSLTSCALE
350
43E
  0
XRECORD
  5
43A
102
{ACAD_REACTORS
330
C
102
}
330
C
100
AcDbXrecord
  1
DWGPROPS COOKIE
  2

  3

  4

  6

  7

  8
clayt
  9

300
=
301
=
302
=
303
=
304
=
305
=
306
=
307
=
308
=
309
=
 40
0.0
 41
2461243.625421783
 42
2461243.625421933
  1

 90
        0
  0
XRECORD
  5
43C
102
{ACAD_REACTORS
330
43B
102
}
330
43B
100
AcDbXrecord
102
VTR_0.000_0.000_1.000_1.000_VISUALSTYLE
340
2F
102
VTR_0.000_0.000_1.000_1.000_GRIDDISPLAY
 70
     3
102
VTR_0.000_0.000_1.000_1.000_GRIDMAJOR
 70
     5
102
VTR_0.000_0.000_1.000_1.000_DEFAULTLIGHTING
280
     1
102
VTR_0.000_0.000_1.000_1.000_DEFAULTLIGHTINGTYPE
 70
     1
102
VTR_0.000_0.000_1.000_1.000_BRIGHTNESS
141
0.0
102
VTR_0.000_0.000_1.000_1.000_CONTRAST
142
0.0
  0
MATERIAL
  5
45
102
{ACAD_REACTORS
330
43
102
}
102
{ACAD_XDICTIONARY
360
441
102
}
330
43
100
AcDbMaterial
  1
BYBLOCK
  0
MATERIAL
  5
44
102
{ACAD_REACTORS
330
43
102
}
102
{ACAD_XDICTIONARY
360
43F
102
}
330
43
100
AcDbMaterial
  1
BYLAYER
  0
MATERIAL
  5
46
102
{ACAD_REACTORS
330
43
102
}
102
{ACAD_XDICTIONARY
360
443
102
}
330
43
100
AcDbMaterial
  1
GLOBAL
  0
ACAD_PROXY_OBJECT
  5
5C
102
{ACAD_REACTORS
330
5B
102
}
330
5B
100
AcDbProxyObject
 90
      499
 91
      505
 93
      610
310
40901902A4063FBFFFFFE056BD1B81E855B9FC0AD7A3703D0AD73F4214DD185B99185C9900AD7A3703D0AC73F90141901A02B5E8DC0F42B1CFC02B5E8DC0F42B1CFE5764000000000000300FC0
340
14
340
0
340
11
340
0
 94
        0
1001
ACAD_MLEADERVER
1070
     2
  0
MLINESTYLE
  5
18
102
{ACAD_REACTORS
330
17
102
}
330
17
100
AcDbMlineStyle
  2
Standard
 70
     0
  3

 62
   256
 51
90.0
 52
90.0
 71
     2
 49
0.5
 62
   256
  6
BYLAYER
 49
-0.5
 62
   256
  6
BYLAYER
  0
ACAD_PROXY_OBJECT
  5
48
102
{ACAD_REACTORS
330
47
102
}
330
47
100
AcDbProxyObject
 90
      499
 91
      503
 93
       41
310
903313A31580
  0
ACAD_PROXY_OBJECT
  5
49
102
{ACAD_REACTORS
330
47
102
}
330
47
100
AcDbProxyObject
 90
      499
 91
      503
 93
      257
310
90E312F31323822203D2031272D3022000000000000200FC000000000000284000
  0
ACAD_PROXY_OBJECT
  5
4A
102
{ACAD_REACTORS
330
47
102
}
330
47
100
AcDbProxyObject
 90
      499
 91
      503
 93
      249
310
90D312F363422203D2031272D3022000000000000240FC000000000000284000
  0
ACAD_PROXY_OBJECT
  5
4B
102
{ACAD_REACTORS
330
47
102
}
330
47
100
AcDbProxyObject
 90
      499
 91
      503
 93
      249
310
90D312F333222203D2031272D3022000000000000280FC000000000000284000
  0
ACAD_PROXY_OBJECT
  5
4C
102
{ACAD_REACTORS
330
47
102
}
330
47
100
AcDbProxyObject
 90
      499
 91
      503
 93
      249
310
90D312F313622203D2031272D30220000000000002C0FC000000000000284000
  0
ACAD_PROXY_OBJECT
  5
4D
102
{ACAD_REACTORS
330
47
102
}
330
47
100
AcDbProxyObject
 90
      499
 91
      503
 93
      249
310
90D332F333222203D2031272D30220000000000002E0FC000000000000284000
  0
ACAD_PROXY_OBJECT
  5
4E
102
{ACAD_REACTORS
330
47
102
}
330
47
100
AcDbProxyObject
 90
      499
 91
      503
 93
      241
310
90C312F3822203D2031272D3022000000000000300FC000000000000284000
  0
ACAD_PROXY_OBJECT
  5
4F
102
{ACAD_REACTORS
330
47
102
}
330
47
100
AcDbProxyObject
 90
      499
 91
      503
 93
      249
310
90D332F313622203D2031272D3022000000000000320FC000000000000284000
  0
ACAD_PROXY_OBJECT
  5
50
102
{ACAD_REACTORS
330
47
102
}
330
47
100
AcDbProxyObject
 90
      499
 91
      503
 93
      241
310
90C312F3422203D2031272D3022000000000000340FC000000000000284000
  0
ACAD_PROXY_OBJECT
  5
51
102
{ACAD_REACTORS
330
47
102
}
330
47
100
AcDbProxyObject
 90
      499
 91
      503
 93
      241
310
90C332F3822203D2031272D3022000000000000360FC000000000000284000
  0
ACAD_PROXY_OBJECT
  5
52
102
{ACAD_REACTORS
330
47
102
}
330
47
100
AcDbProxyObject
 90
      499
 91
      503
 93
      241
310
90C312F3222203D2031272D3022000000000000380FC000000000000284000
  0
ACAD_PROXY_OBJECT
  5
53
102
{ACAD_REACTORS
330
47
102
}
330
47
100
AcDbProxyObject
 90
      499
 91
      503
 93
      241
310
90C332F3422203D2031272D30220000000000003A0FC000000000000284000
  0
ACAD_PROXY_OBJECT
  5
54
102
{ACAD_REACTORS
330
47
102
}
330
47
100
AcDbProxyObject
 90
      499
 91
      503
 93
      161
310
90A3122203D2031272D30224000000000000284000
  0
ACAD_PROXY_OBJECT
  5
55
102
{ACAD_REACTORS
330
47
102
}
330
47
100
AcDbProxyObject
 90
      499
 91
      503
 93
      257
310
90E312D312F3222203D2031272D30220000000000003E0FC000000000000284000
  0
ACAD_PROXY_OBJECT
  5
56
102
{ACAD_REACTORS
330
47
102
}
330
47
100
AcDbProxyObject
 90
      499
 91
      503
 93
      225
310
90A3322203D2031272D302200000000000002100000000000000284000
  0
ACAD_PROXY_OBJECT
  5
57
102
{ACAD_REACTORS
330
47
102
}
330
47
100
AcDbProxyObject
 90
      499
 91
      503
 93
      225
310
90A3622203D2031272D302200000000000006100000000000000284000
  0
ACAD_PROXY_OBJECT
  5
58
102
{ACAD_REACTORS
330
47
102
}
330
47
100
AcDbProxyObject
 90
      499
 91
      503
 93
      249
310
90D31272D3022203D2031272D30220000000000000A100000000000000284000
  0
ACAD_PROXY_OBJECT
  5
2F
102
{ACAD_REACTORS
330
2A
102
}
330
2A
100
AcDbProxyObject
 90
      499
 91
      501
 93
      436
310
42CC9915DA5C99599C985B595049028333333333333E33F0000000000000F90107901411070040501600405405064090741402480A0340
1001
ACAD
1000
AcDbSavedByObjectVersion
1070
     0
  0
ACAD_PROXY_OBJECT
  5
32
102
{ACAD_REACTORS
330
2A
102
}
330
2A
100
AcDbProxyObject
 90
      499
 91
      501
 93
      388
310
4150985CDA58D07406404333333333333E33F0000000000000F90107A41107004050150841D405064090741402480A0350
1001
ACAD
1000
AcDbSavedByObjectVersion
1070
     0
  0
ACAD_PROXY_OBJECT
  5
36
102
{ACAD_REACTORS
330
2A
102
}
330
2A
100
AcDbProxyObject
 90
      499
 91
      501
 93
      428
310
42109C9A59DA1D195B90C409028333333333333E33F0000000000000F9010790141107004050150841D405064090741402480A029950
1001
ACAD
1000
AcDbSavedByObjectVersion
1070
     0
  0
ACAD_PROXY_OBJECT
  5
3A
102
{ACAD_REACTORS
330
2A
102
}
330
2A
100
AcDbProxyObject
 90
      499
 91
      501
 93
      452
310
42D0DBDB1BDC90DA185B99D95104090240C333333333333E33F0000000000000F90108901411070040501508421405064090741402480A0350
1001
ACAD
1000
AcDbSavedByObjectVersion
1070
     0
  0
ACAD_PROXY_OBJECT
  5
34
102
{ACAD_REACTORS
330
2A
102
}
330
2A
100
AcDbProxyObject
 90
      499
 91
      501
 93
      500
310
4290DBDB98D95C1D1D585B10940D028333333333333E33F0000000000000F90107902409070040501000000000018199010841D405064090740C02480A0340
1001
ACAD
1000
AcDbSavedByObjectVersion
1070
     0
  0
ACAD_PROXY_OBJECT
  5
35
102
{ACAD_REACTORS
330
2A
102
}
330
2A
100
AcDbProxyObject
 90
      499
 91
      501
 93
      412
310
40D11A5B50B409028333333333333E33F0000000000000F9010790141107004050150841D405064090741402480A02677FFFFFD0
1001
ACAD
1000
AcDbSavedByObjectVersion
1070
     0
  0
ACAD_PROXY_OBJECT
  5
3D
102
{ACAD_REACTORS
330
2A
102
}
330
2A
100
AcDbProxyObject
 90
      499
 91
      501
 93
      452
310
43115919D950DBDB1BDC93D999916409028333333333333E33F0000000000000F9010790141107004050150841D405064090741402480A0350
1001
ACAD
1000
AcDbSavedByObjectVersion
1070
     0
  0
ACAD_PROXY_OBJECT
  5
39
102
{ACAD_REACTORS
330
2A
102
}
330
2A
100
AcDbProxyObject
 90
      499
 91
      501
 93
      444
310
42D19858D95C185D1D195C9B90F409028333333333333E33F0000000000000F9010790141107004050150841D405064090741402480A0350
1001
ACAD
1000
AcDbSavedByObjectVersion
1070
     0
  0
ACAD_PROXY_OBJECT
  5
2B
102
{ACAD_REACTORS
330
2A
102
}
330
2A
100
AcDbProxyObject
 90
      499
 91
      501
 93
      380
310
41119B185D240901404333333333333E33F0000000000000F9010740A907004050150841D405064090741402480A1B50
1001
ACAD
1000
AcDbSavedByObjectVersion
1070
     0
  0
ACAD_PROXY_OBJECT
  5
2C
102
{ACAD_REACTORS
330
2A
102
}
330
2A
100
AcDbProxyObject
 90
      499
 91
      501
 93
      468
310
43519B185D15DA5D1A115919D95CD0140901404333333333333E33F0000000000000F90107409019070040501600405405064090741402480A1B50
1001
ACAD
1000
AcDbSavedByObjectVersion
1070
     0
  0
ACAD_PROXY_OBJECT
  5
2D
102
{ACAD_REACTORS
330
2A
102
}
330
2A
100
AcDbProxyObject
 90
      499
 91
      501
 93
      404
310
41D1DBDD5C985D5910240902404333333333333E33F0000000000000F9010740A9070040501641D405064090741402480A1B50
1001
ACAD
1000
AcDbSavedByObjectVersion
1070
     0
  0
ACAD_PROXY_OBJECT
  5
2E
102
{ACAD_REACTORS
330
2A
102
}
330
2A
100
AcDbProxyObject
 90
      499
 91
      501
 93
      492
310
4411DBDD5C985D5915DA5D1A115919D95CD0340902404333333333333E33F0000000000000F90107409019070040501600405405064090741402480A1B50
1001
ACAD
1000
AcDbSavedByObjectVersion
1070
     0
  0
ACAD_PROXY_OBJECT
  5
31
102
{ACAD_REACTORS
330
2A
102
}
330
2A
100
AcDbProxyObject
 90
      499
 91
      501
 93
      476
310
41921A5919195B90640502408333333333333E33F0000000000000F901079024090700405020000000000001110200405405064090740C02480A0340
1001
ACAD
1000
AcDbSavedByObjectVersion
1070
     0
  0
ACAD_PROXY_OBJECT
  5
3B
102
{ACAD_REACTORS
330
2A
102
}
330
2A
100
AcDbProxyObject
 90
      499
 91
      501
 93
      428
310
42529A5D1D195C93D999914409028333333333333E33F0000000000000F9010790141107004050150A41D405064090741402480A0350
1001
ACAD
1000
AcDbSavedByObjectVersion
1070
     0
  0
ACAD_PROXY_OBJECT
  5
38
102
{ACAD_REACTORS
330
2A
102
}
330
2A
100
AcDbProxyObject
 90
      499
 91
      501
 93
      444
310
42D31A5B995C185D1D195C9B90E409028333333333333E33F0000000000000F9010790141107004050750841D405064090741402483A0350
1001
ACAD
1000
AcDbSavedByObjectVersion
1070
     0
  0
ACAD_PROXY_OBJECT
  5
3C
102
{ACAD_REACTORS
330
2A
102
}
330
2A
100
AcDbProxyObject
 90
      499
 91
      501
 93
      444
310
42D3DD995C9A185B99D3D999915409028333333333333E33F0000000000000F9010790141107004050150941D405064090741402480A0350
1001
ACAD
1000
AcDbSavedByObjectVersion
1070
     0
  0
ACAD_PROXY_OBJECT
  5
33
102
{ACAD_REACTORS
330
2A
102
}
330
2A
100
AcDbProxyObject
 90
      499
 91
      501
 93
      428
310
425499585B1A5CDD1A58D08409038333333333333E33F0000000000000F9010740A907004050150800405405064090740C02480A1B40
1001
ACAD
1000
AcDbSavedByObjectVersion
1070
     0
  0
ACAD_PROXY_OBJECT
  5
42
102
{ACAD_REACTORS
330
2A
102
}
330
2A
100
AcDbProxyObject
 90
      499
 91
      501
 93
      420
310
4194DA1859195911B40902404333333333333E33F0000000000000F9010740A41107004050150800405405064090840C02480A0B40
1001
ACAD
1000
AcDbSavedByObjectVersion
1070
     0
  0
ACAD_PROXY_OBJECT
  5
41
102
{ACAD_REACTORS
330
2A
102
}
330
2A
100
AcDbProxyObject
 90
      499
 91
      501
 93
      516
310
4454DA18591959081DDA5D1A08195919D95CD1A40902404333333333333E33F0000000000000F901074090142907004050250800405405064090740C02480A0B40
1001
ACAD
1000
AcDbSavedByObjectVersion
1070
     0
  0
ACAD_PROXY_OBJECT
  5
3E
102
{ACAD_REACTORS
330
2A
102
}
330
2A
100
AcDbProxyObject
 90
      499
 91
      501
 93
      532
310
4394DA1859195CC81BD98811DC985E5174090240C333333333333E33F0000000000000F901079024090741D01000000000000111010841D405064090740C02480A0340
1001
ACAD
1000
AcDbSavedByObjectVersion
1070
     0
  0
ACAD_PROXY_OBJECT
  5
3F
102
{ACAD_REACTORS
330
2A
102
}
330
2A
100
AcDbProxyObject
 90
      499
 91
      501
 93
      476
310
41D4DAD95D18DA1E51840502408333333333333E33F0000000000000F901079024090741D01000000000000111010B41D405064090741802480A0340
1001
ACAD
1000
AcDbSavedByObjectVersion
1070
     0
  0
ACAD_PROXY_OBJECT
  5
37
102
{ACAD_REACTORS
330
2A
102
}
330
2A
100
AcDbProxyObject
 90
      499
 91
      501
 93
      412
310
41D51A1A58DAD95B90D409028333333333333E33F0000000000000F9010790141107004050150C41D405064090741402480A0350
1001
ACAD
1000
AcDbSavedByObjectVersion
1070
     0
  0
ACAD_PROXY_OBJECT
  5
30
102
{ACAD_REACTORS
330
2A
102
}
330
2A
100
AcDbProxyObject
 90
      499
 91
      501
 93
      420
310
4255DA5C99599C985B595059028333333333333E33F0000000000000F90107901411070040501600405405064090740C02480A0340
1001
ACAD
1000
AcDbSavedByObjectVersion
1070
     0
  0
ACAD_PROXY_OBJECT
  5
40
102
{ACAD_REACTORS
330
2A
102
}
330
2A
100
AcDbProxyObject
 90
      499
 91
      501
 93
      404
310
41560B54985E51940902404000000000000E03F0000000000000F9010740501907004050150841D405064090740C02480A1B40
1001
ACAD
1000
AcDbSavedByObjectVersion
1070
     0
  0
XRECORD
  5
41C
102
{ACAD_REACTORS
330
412
102
}
330
412
100
AcDbXrecord
340
0
  0
XRECORD
  5
41B
102
{ACAD_REACTORS
330
412
102
}
330
412
100
AcDbXrecord
 90
        0
  0
XRECORD
  5
432
102
{ACAD_REACTORS
330
412
102
}
330
412
100
AcDbXrecord
1000
DSTYLE
1002
{
1070
   171
 70
     2
1070
   143
 40
25.4
1070
   274
 70
     2
1070
    41
 40
0.18
1070
   141
 40
0.09
1070
   271
 70
     4
1070
    43
 40
0.38
1070
   278
 70
    46
1070
    44
 40
0.18
1070
    42
 40
0.0625
1070
   147
 40
0.09
1070
    77
 70
     0
1070
   272
 70
     4
1070
    73
 70
     1
1070
   279
 70
     2
1070
   172
 70
     0
1070
    74
 70
     1
1070
   283
 70
     1
1070
   340
340
11
1070
   140
 40
0.18
1070
   284
 70
     0
1070
    78
 70
     0
1002
}
  0
XRECORD
  5
41D
102
{ACAD_REACTORS
330
412
102
}
330
412
100
AcDbXrecord
  1
{57d94867-4f4e-45ba-a8c8-47cb2c22606c}
  0
XRECORD
  5
415
102
{ACAD_REACTORS
330
412
102
}
330
412
100
AcDbXrecord
  1

  0
XRECORD
  5
41A
102
{ACAD_REACTORS
330
412
102
}
330
412
100
AcDbXrecord
 90
        4
  0
XRECORD
  5
417
102
{ACAD_REACTORS
330
412
102
}
330
412
100
AcDbXrecord
340
1A
  0
XRECORD
  5
419
102
{ACAD_REACTORS
330
412
102
}
330
412
100
AcDbXrecord
 90
    10781
  0
XRECORD
  5
418
102
{ACAD_REACTORS
330
412
102
}
330
412
100
AcDbXrecord
340
19
  0
XRECORD
  5
41F
102
{ACAD_REACTORS
330
412
102
}
330
412
100
AcDbXrecord
 40
0.0
  0
XRECORD
  5
422
102
{ACAD_REACTORS
330
412
102
}
330
412
100
AcDbXrecord
340
0
  0
XRECORD
  5
428
102
{ACAD_REACTORS
330
412
102
}
330
412
100
AcDbXrecord
 10
0.0
 20
0.0
 30
0.0
  0
XRECORD
  5
424
102
{ACAD_REACTORS
330
412
102
}
330
412
100
AcDbXrecord
 10
0.0
 20
0.0
 30
0.0
  0
XRECORD
  5
427
102
{ACAD_REACTORS
330
412
102
}
330
412
100
AcDbXrecord
 10
0.0
 20
0.0
 30
0.0
  0
XRECORD
  5
425
102
{ACAD_REACTORS
330
412
102
}
330
412
100
AcDbXrecord
 10
0.0
 20
0.0
 30
0.0
  0
XRECORD
  5
426
102
{ACAD_REACTORS
330
412
102
}
330
412
100
AcDbXrecord
 10
0.0
 20
0.0
 30
0.0
  0
XRECORD
  5
423
102
{ACAD_REACTORS
330
412
102
}
330
412
100
AcDbXrecord
 10
0.0
 20
0.0
 30
0.0
  0
XRECORD
  5
420
102
{ACAD_REACTORS
330
412
102
}
330
412
100
AcDbXrecord
340
0
  0
XRECORD
  5
421
102
{ACAD_REACTORS
330
412
102
}
330
412
100
AcDbXrecord
 70
     0
  0
XRECORD
  5
416
102
{ACAD_REACTORS
330
412
102
}
330
412
100
AcDbXrecord
  1

  0
XRECORD
  5
413
102
{ACAD_REACTORS
330
412
102
}
330
412
100
AcDbXrecord
 90
        1
  0
XRECORD
  5
414
102
{ACAD_REACTORS
330
412
102
}
330
412
100
AcDbXrecord
 90
       70
  0
XRECORD
  5
42B
102
{ACAD_REACTORS
330
412
102
}
330
412
100
AcDbXrecord
340
0
  0
XRECORD
  5
431
102
{ACAD_REACTORS
330
412
102
}
330
412
100
AcDbXrecord
 10
0.0
 20
0.0
 30
0.0
  0
XRECORD
  5
42D
102
{ACAD_REACTORS
330
412
102
}
330
412
100
AcDbXrecord
 10
0.0
 20
0.0
 30
0.0
  0
XRECORD
  5
430
102
{ACAD_REACTORS
330
412
102
}
330
412
100
AcDbXrecord
 10
0.0
 20
0.0
 30
0.0
  0
XRECORD
  5
42E
102
{ACAD_REACTORS
330
412
102
}
330
412
100
AcDbXrecord
 10
0.0
 20
0.0
 30
0.0
  0
XRECORD
  5
42F
102
{ACAD_REACTORS
330
412
102
}
330
412
100
AcDbXrecord
 10
0.0
 20
0.0
 30
0.0
  0
XRECORD
  5
42C
102
{ACAD_REACTORS
330
412
102
}
330
412
100
AcDbXrecord
 10
0.0
 20
0.0
 30
0.0
  0
XRECORD
  5
429
102
{ACAD_REACTORS
330
412
102
}
330
412
100
AcDbXrecord
340
0
  0
XRECORD
  5
42A
102
{ACAD_REACTORS
330
412
102
}
330
412
100
AcDbXrecord
 70
     0
  0
XRECORD
  5
41E
102
{ACAD_REACTORS
330
412
102
}
330
412
100
AcDbXrecord
  1
{FAEB1C32-E019-11D5-929B-00C0DF256EC4}
  0
DICTIONARYVAR
  5
43D
102
{ACAD_REACTORS
330
433
102
}
330
433
100
DictionaryVariables
280
     0
  1
1:1
  0
DICTIONARYVAR
  5
435
102
{ACAD_REACTORS
330
433
102
}
330
433
100
DictionaryVariables
280
     0
  1
Standard
  0
DICTIONARYVAR
  5
434
102
{ACAD_REACTORS
330
433
102
}
330
433
100
DictionaryVariables
280
     0
  1
Standard
  0
DICTIONARYVAR
  5
438
102
{ACAD_REACTORS
330
433
102
}
330
433
100
DictionaryVariables
280
     0
  1
2
  0
DICTIONARYVAR
  5
439
102
{ACAD_REACTORS
330
433
102
}
330
433
100
DictionaryVariables
280
     0
  1
1
  0
DICTIONARYVAR
  5
43E
102
{ACAD_REACTORS
330
433
102
}
330
433
100
DictionaryVariables
280
     0
  1
1
  0
DICTIONARY
  5
441
330
45
100
AcDbDictionary
280
     1
  3
ACAD_XREC_ROUNDTRIP
360
442
  0
DICTIONARY
  5
43F
330
44
100
AcDbDictionary
280
     1
  3
ACAD_XREC_ROUNDTRIP
360
440
  0
DICTIONARY
  5
443
330
46
100
AcDbDictionary
280
     1
  3
ACAD_XREC_ROUNDTRIP
360
444
  0
XRECORD
  5
442
102
{ACAD_REACTORS
330
441
102
}
330
441
100
AcDbXrecord
102
MATERIAL
148
0.0
149
0.0
149
0.0
 93
        0
 94
      127
282
     0
 72
     1
 77
     1
171
     1
175
     1
179
     1
273
     0
  0
XRECORD
  5
440
102
{ACAD_REACTORS
330
43F
102
}
330
43F
100
AcDbXrecord
102
MATERIAL
148
0.0
149
0.0
149
0.0
 93
        0
 94
      127
282
     0
 72
     1
 77
     1
171
     1
175
     1
179
     1
273
     0
  0
XRECORD
  5
444
102
{ACAD_REACTORS
330
443
102
}
330
443
100
AcDbXrecord
102
MATERIAL
148
0.0
149
0.0
149
0.0
 93
        0
 94
      127
282
     0
 72
     1
 77
     1
171
     1
175
     1
179
     1
273
     0
  0
ENDSEC
  0
EOF
