  0
SECTION
  2
HEADER
  9
$ACADVER
  1
AC1014
  9
$ACADMAINTVER
 70
     9
  9
$DWGCODEPAGE
  3
ANSI_1252
  9
$INSBASE
 10
0.0
 20
0.0
 30
0.0
  9
$EXTMIN
 10
-570.6712845741313
 20
-186.4743905326541
 30
-0.0000000000707843
  9
$EXTMAX
 10
576.8284479976883
 20
211.0256094708748
 30
0.000000000051223
  9
$LIMMIN
 10
0.0
 20
0.0
  9
$LIMMAX
 10
12.0
 20
9.0
  9
$ORTHOMODE
 70
     0
  9
$REGENMODE
 70
     1
  9
$FILLMODE
 70
     1
  9
$QTEXTMODE
 70
     0
  9
$MIRRTEXT
 70
     1
  9
$DRAGMODE
 70
     2
  9
$LTSCALE
 40
1.0
  9
$OSMODE
 70
    37
  9
$ATTMODE
 70
     1
  9
$TEXTSIZE
 40
0.2
  9
$TRACEWID
 40
0.05
  9
$TEXTSTYLE
  7
STANDARD
  9
$CLAYER
  8
0
  9
$CELTYPE
  6
BYLAYER
  9
$CECOLOR
 62
   256
  9
$CELTSCALE
 40
1.0
  9
$DELOBJ
 70
     1
  9
$DISPSILH
 70
     0
  9
$DIMSCALE
 40
1.0
  9
$DIMASZ
 40
0.18
  9
$DIMEXO
 40
0.0625
  9
$DIMDLI
 40
0.38
  9
$DIMRND
 40
0.0
  9
$DIMDLE
 40
0.0
  9
$DIMEXE
 40
0.18
  9
$DIMTP
 40
0.0
  9
$DIMTM
 40
0.0
  9
$DIMTXT
 40
0.18
  9
$DIMCEN
 40
0.09
  9
$DIMTSZ
 40
0.0
  9
$DIMTOL
 70
     0
  9
$DIMLIM
 70
     0
  9
$DIMTIH
 70
     1
  9
$DIMTOH
 70
     1
  9
$DIMSE1
 70
     0
  9
$DIMSE2
 70
     0
  9
$DIMTAD
 70
     0
  9
$DIMZIN
 70
     0
  9
$DIMBLK
  1

  9
$DIMASO
 70
     1
  9
$DIMSHO
 70
     1
  9
$DIMPOST
  1

  9
$DIMAPOST
  1

  9
$DIMALT
 70
     0
  9
$DIMALTD
 70
     2
  9
$DIMALTF
 40
25.4
  9
$DIMLFAC
 40
1.0
  9
$DIMTOFL
 70
     0
  9
$DIMTVP
 40
0.0
  9
$DIMTIX
 70
     0
  9
$DIMSOXD
 70
     0
  9
$DIMSAH
 70
     0
  9
$DIMBLK1
  1

  9
$DIMBLK2
  1

  9
$DIMSTYLE
  2
STANDARD_ACAD
  9
$DIMCLRD
 70
     0
  9
$DIMCLRE
 70
     0
  9
$DIMCLRT
 70
     0
  9
$DIMTFAC
 40
1.0
  9
$DIMGAP
 40
0.09
  9
$DIMJUST
 70
     0
  9
$DIMSD1
 70
     0
  9
$DIMSD2
 70
     0
  9
$DIMTOLJ
 70
     1
  9
$DIMTZIN
 70
     0
  9
$DIMALTZ
 70
     0
  9
$DIMALTTZ
 70
     0
  9
$DIMFIT
 70
     5
  9
$DIMUPT
 70
     0
  9
$DIMUNIT
 70
     2
  9
$DIMDEC
 70
     4
  9
$DIMTDEC
 70
     4
  9
$DIMALTU
 70
     2
  9
$DIMALTTD
 70
     2
  9
$DIMTXSTY
  7
STANDARD
  9
$DIMAUNIT
 70
     0
  9
$LUNITS
 70
     2
  9
$LUPREC
 70
     2
  9
$SKETCHINC
 40
0.1
  9
$FILLETRAD
 40
0.0
  9
$AUNITS
 70
     0
  9
$AUPREC
 70
     0
  9
$MENU
  1
.
  9
$ELEVATION
 40
0.0
  9
$PELEVATION
 40
0.0
  9
$THICKNESS
 40
0.0
  9
$LIMCHECK
 70
     0
  9
$CHAMFERA
 40
0.0
  9
$CHAMFERB
 40
0.0
  9
$CHAMFERC
 40
0.0
  9
$CHAMFERD
 40
0.0
  9
$SKPOLY
 70
     0
  9
$TDCREATE
 40
2461249.447718993
  9
$TDUPDATE
 40
2461249.447719086
  9
$TDINDWG
 40
0.0000000116
  9
$TDUSRTIMER
 40
0.0000000116
  9
$USRTIMER
 70
     1
  9
$ANGBASE
 50
0.0
  9
$ANGDIR
 70
     0
  9
$PDMODE
 70
     0
  9
$PDSIZE
 40
0.0
  9
$PLINEWID
 40
0.0
  9
$COORDS
 70
     1
  9
$SPLFRAME
 70
     0
  9
$SPLINETYPE
 70
     6
  9
$SPLINESEGS
 70
     8
  9
$ATTDIA
 70
     0
  9
$ATTREQ
 70
     1
  9
$HANDLING
 70
     1
  9
$HANDSEED
  5
24E
  9
$SURFTAB1
 70
     6
  9
$SURFTAB2
 70
     6
  9
$SURFTYPE
 70
     6
  9
$SURFU
 70
     6
  9
$SURFV
 70
     6
  9
$UCSNAME
  2

  9
$UCSORG
 10
0.0
 20
0.0
 30
0.0
  9
$UCSXDIR
 10
1.0
 20
0.0
 30
0.0
  9
$UCSYDIR
 10
0.0
 20
1.0
 30
0.0
  9
$PUCSNAME
  2

  9
$PUCSORG
 10
0.0
 20
0.0
 30
0.0
  9
$PUCSXDIR
 10
1.0
 20
0.0
 30
0.0
  9
$PUCSYDIR
 10
0.0
 20
1.0
 30
0.0
  9
$USERI1
 70
     0
  9
$USERI2
 70
     0
  9
$USERI3
 70
     0
  9
$USERI4
 70
     0
  9
$USERI5
 70
     0
  9
$USERR1
 40
0.0
  9
$USERR2
 40
0.0
  9
$USERR3
 40
0.0
  9
$USERR4
 40
0.0
  9
$USERR5
 40
0.0
  9
$WORLDVIEW
 70
     1
  9
$SHADEDGE
 70
     3
  9
$SHADEDIF
 70
    70
  9
$TILEMODE
 70
     1
  9
$MAXACTVP
 70
    64
  9
$PINSBASE
 10
0.0
 20
0.0
 30
0.0
  9
$PLIMCHECK
 70
     0
  9
$PEXTMIN
 10
1.000000000000000E+20
 20
1.000000000000000E+20
 30
1.000000000000000E+20
  9
$PEXTMAX
 10
-1.000000000000000E+20
 20
-1.000000000000000E+20
 30
-1.000000000000000E+20
  9
$PLIMMIN
 10
0.0
 20
0.0
  9
$PLIMMAX
 10
12.0
 20
9.0
  9
$UNITMODE
 70
     0
  9
$VISRETAIN
 70
     1
  9
$PLINEGEN
 70
     0
  9
$PSLTSCALE
 70
     1
  9
$TREEDEPTH
 70
  3020
  9
$PICKSTYLE
 70
     1
  9
$CMLSTYLE
  2
STANDARD
  9
$CMLJUST
 70
     0
  9
$CMLSCALE
 40
1.0
  9
$PROXYGRAPHICS
 70
     1
  9
$MEASUREMENT
 70
     1
  0
ENDSEC
  0
SECTION
  2
CLASSES
  0
CLASS
  1
ACDBDICTIONARYWDFLT
  2
AcDbDictionaryWithDefault
  3
ObjectDBX Classes
 90
        0
280
     0
281
     0
  0
CLASS
  1
VISUALSTYLE
  2
AcDbVisualStyle
  3
ObjectDBX Classes
 90
     4095
280
     0
281
     0
  0
CLASS
  1
MATERIAL
  2
AcDbMaterial
  3
ObjectDBX Classes
 90
     1153
280
     0
281
     0
  0
CLASS
  1
SCALE
  2
AcDbScale
  3
ObjectDBX Classes
 90
     1153
280
     0
281
     0
  0
CLASS
  1
TABLESTYLE
  2
AcDbTableStyle
  3
ObjectDBX Classes
 90
     4095
280
     0
281
     0
  0
CLASS
  1
MLEADERSTYLE
  2
AcDbMLeaderStyle
  3
ACDB_MLEADERSTYLE_CLASS
 90
     4095
280
     0
281
     0
  0
CLASS
  1
SUN
  2
AcDbSun
  3
SCENEOE
 90
     1153
280
     0
281
     0
  0
CLASS
  1
DICTIONARYVAR
  2
AcDbDictionaryVar
  3
ObjectDBX Classes
 90
        0
280
     0
281
     0
  0
CLASS
  1
XRECORD
  2
AcDbXrecord
  3
ObjectDBX Classes
 90
        0
280
     0
281
     0
  0
CLASS
  1
LWPOLYLINE
  2
AcDbPolyline
  3
ObjectDBX Classes
 90
        0
280
     0
281
     1
  0
CLASS
  1
HATCH
  2
AcDbHatch
  3
ObjectDBX Classes
 90
        0
280
     0
281
     1
  0
CLASS
  1
ACDBPLACEHOLDER
  2
AcDbPlaceHolder
  3
ObjectDBX Classes
 90
        0
280
     0
281
     0
  0
CLASS
  1
LAYOUT
  2
AcDbLayout
  3
ObjectDBX Classes
 90
        0
280
     0
281
     0
  0
ENDSEC
  0
SECTION
  2
TABLES
  0
TABLE
  2
VPORT
  5
8
102
{ACAD_XDICTIONARY
360
243
102
}
330
0
100
AcDbSymbolTable
 70
     1
  0
VPORT
  5
29
330
8
100
AcDbSymbolTableRecord
100
AcDbViewportTableRecord
  2
*ACTIVE
 70
     0
 10
0.0
 20
0.0
 11
1.0
 21
1.0
 12
10.42990654205607
 22
4.5
 13
0.0
 23
0.0
 14
0.5
 24
0.5
 15
0.5
 25
0.5
 16
0.0
 26
0.0
 36
1.0
 17
0.0
 27
0.0
 37
0.0
 40
9.0
 41
1.972972972850329
 42
50.0
 43
0.0
 44
0.0
 50
0.0
 51
0.0
 71
     0
 72
   100
 73
     1
 74
     3
 75
     0
 76
     0
 77
     0
 78
     0
  0
ENDTAB
  0
TABLE
  2
LTYPE
  5
5
330
0
100
AcDbSymbolTable
 70
     1
  0
LTYPE
  5
14
330
5
100
AcDbSymbolTableRecord
100
AcDbLinetypeTableRecord
  2
BYBLOCK
 70
     0
  3

 72
    65
 73
     0
 40
0.0
  0
LTYPE
  5
15
330
5
100
AcDbSymbolTableRecord
100
AcDbLinetypeTableRecord
  2
BYLAYER
 70
     0
  3

 72
    65
 73
     0
 40
0.0
  0
LTYPE
  5
16
330
5
100
AcDbSymbolTableRecord
100
AcDbLinetypeTableRecord
  2
CONTINUOUS
 70
     0
  3
Solid line
 72
    65
 73
     0
 40
0.0
  0
ENDTAB
  0
TABLE
  2
LAYER
  5
2
330
0
100
AcDbSymbolTable
 70
     4
  0
LAYER
  5
10
330
2
100
AcDbSymbolTableRecord
100
AcDbLayerTableRecord
  2
0
 70
     0
 62
     7
  6
CONTINUOUS
  0
LAYER
  5
5F
330
2
100
AcDbSymbolTableRecord
100
AcDbLayerTableRecord
  2
1_ANYTOOL_1MMDEEP_LABELS_S
 70
     0
 62
     2
  6
CONTINUOUS
  0
LAYER
  5
12C
330
2
100
AcDbSymbolTableRecord
100
AcDbLayerTableRecord
  2
3_ANYTOOL_CUTTHROUGH_INSID
 70
     0
 62
     4
  6
CONTINUOUS
  0
LAYER
  5
173
330
2
100
AcDbSymbolTableRecord
100
AcDbLayerTableRecord
  2
4_ANYTOOL_CUTTHROUGH_OUTSI
 70
     0
 62
     5
  6
CONTINUOUS
  0
ENDTAB
  0
TABLE
  2
STYLE
  5
3
330
0
100
AcDbSymbolTable
 70
     1
  0
STYLE
  5
11
330
3
100
AcDbSymbolTableRecord
100
AcDbTextStyleTableRecord
  2
STANDARD
 70
     0
 40
0.0
 41
1.0
 50
0.0
 71
     0
 42
0.2
  3
txt
  4

  0
ENDTAB
  0
TABLE
  2
VIEW
  5
6
330
0
100
AcDbSymbolTable
 70
     0
  0
ENDTAB
  0
TABLE
  2
UCS
  5
7
330
0
100
AcDbSymbolTable
 70
     0
  0
ENDTAB
  0
TABLE
  2
APPID
  5
9
330
0
100
AcDbSymbolTable
 70
     3
  0
APPID
  5
12
330
9
100
AcDbSymbolTableRecord
100
AcDbRegAppTableRecord
  2
ACAD
 70
     0
  0
APPID
  5
5E
330
9
100
AcDbSymbolTableRecord
100
AcDbRegAppTableRecord
  2
RHINO
 70
     0
  0
APPID
  5
24D
330
9
100
AcDbSymbolTableRecord
100
AcDbRegAppTableRecord
  2
ACAD_MLEADERVER
 70
     0
  0
ENDTAB
  0
TABLE
  2
DIMSTYLE
  5
A
330
0
100
AcDbSymbolTable
 70
     1
  0
DIMSTYLE
105
27
330
A
100
AcDbSymbolTableRecord
100
AcDbDimStyleTableRecord
  2
STANDARD_ACAD
 70
     0
  3

  4

  5

  6

  7

 40
1.0
 41
0.18
 42
0.0625
 43
0.38
 44
0.18
 45
0.0
 46
0.0
 47
0.0
 48
0.0
140
0.18
141
0.09
142
0.0
143
25.4
144
1.0
145
0.0
146
1.0
147
0.09
 71
     0
 72
     0
 73
     1
 74
     1
 75
     0
 76
     0
 77
     0
 78
     0
170
     0
171
     2
172
     0
173
     0
174
     0
175
     0
176
     0
177
     0
178
     0
270
     2
271
     4
272
     4
273
     2
274
     2
340
11
275
     0
280
     0
281
     0
282
     0
283
     1
284
     0
285
     0
286
     0
287
     3
288
     0
  0
ENDTAB
  0
TABLE
  2
BLOCK_RECORD
  5
1
330
0
100
AcDbSymbolTable
 70
     0
  0
BLOCK_RECORD
  5
1F
330
1
100
AcDbSymbolTableRecord
100
AcDbBlockTableRecord
  2
*MODEL_SPACE
  0
BLOCK_RECORD
  5
1B
330
1
100
AcDbSymbolTableRecord
100
AcDbBlockTableRecord
  2
*PAPER_SPACE
  0
ENDTAB
  0
ENDSEC
  0
SECTION
  2
BLOCKS
  0
BLOCK
  5
20
330
1F
100
AcDbEntity
  8
0
100
AcDbBlockBegin
  2
*MODEL_SPACE
 70
     0
 10
0.0
 20
0.0
 30
0.0
  3
*MODEL_SPACE
  1

  0
ENDBLK
  5
21
330
1F
100
AcDbEntity
  8
0
100
AcDbBlockEnd
  0
BLOCK
  5
1C
330
1B
100
AcDbEntity
 67
     1
  8
0
100
AcDbBlockBegin
  2
*PAPER_SPACE
 70
     0
 10
0.0
 20
0.0
 30
0.0
  3
*PAPER_SPACE
  1

  0
ENDBLK
  5
1D
330
1B
100
AcDbEntity
 67
     1
  8
0
100
AcDbBlockEnd
  0
ENDSEC
  0
SECTION
  2
ENTITIES
  0
POLYLINE
  5
60
330
1F
100
AcDbEntity
  8
1_ANYTOOL_1MMDEEP_LABELS_S
100
AcDb2dPolyline
 66
     1
 10
0.0
 20
0.0
 30
0.0
  0
VERTEX
  5
61
330
60
100
AcDbEntity
  8
1_ANYTOOL_1MMDEEP_LABELS_S
100
AcDbVertex
100
AcDb2dVertex
 10
23.07923101183042
 20
-29.7489946022979
 30
0.0
  0
VERTEX
  5
62
330
60
100
AcDbEntity
  8
1_ANYTOOL_1MMDEEP_LABELS_S
100
AcDbVertex
100
AcDb2dVertex
 10
4.136373868972441
 20
-29.7489946022979
 30
0.0
  0
VERTEX
  5
63
330
60
100
AcDbEntity
  8
1_ANYTOOL_1MMDEEP_LABELS_S
100
AcDbVertex
100
AcDb2dVertex
 10
4.136373868972441
 20
0.2510053977021016
 30
0.0
  0
VERTEX
  5
64
330
60
100
AcDbEntity
  8
1_ANYTOOL_1MMDEEP_LABELS_S
100
AcDbVertex
100
AcDb2dVertex
 10
21.96494529754455
 20
0.2510053977021016
 30
0.0
  0
SEQEND
  5
65
330
60
100
AcDbEntity
  8
1_ANYTOOL_1MMDEEP_LABELS_S
  0
LINE
  5
66
330
1F
100
AcDbEntity
  8
1_ANYTOOL_1MMDEEP_LABELS_S
100
AcDbLine
 10
18.79351672611483
 20
-13.67756603087037
 30
0.0
 11
4.136373868972441
 21
-13.67756603087037
 31
0.0
  0
LINE
  5
67
330
1F
100
AcDbEntity
  8
1_ANYTOOL_1MMDEEP_LABELS_S
100
AcDbLine
 10
35.29351672611483
 20
-15.86328031658195
 30
0.0
 11
26.50780244040106
 21
-15.94899460229499
 31
0.0
  0
POLYLINE
  5
68
330
1F
100
AcDbEntity
  8
1_ANYTOOL_1MMDEEP_LABELS_S
100
AcDb2dPolyline
 66
     1
 10
0.0
 20
0.0
 30
0.0
  0
VERTEX
  5
69
330
68
100
AcDbEntity
  8
1_ANYTOOL_1MMDEEP_LABELS_S
100
AcDbVertex
100
AcDb2dVertex
 10
40.43637386897171
 20
-29.7489946022979
 30
0.0
  0
VERTEX
  5
6A
330
68
100
AcDbEntity
  8
1_ANYTOOL_1MMDEEP_LABELS_S
100
AcDbVertex
100
AcDb2dVertex
 10
40.43637386897171
 20
0.2510053977021016
 30
0.0
  0
VERTEX
  5
6B
330
68
100
AcDbEntity
  8
1_ANYTOOL_1MMDEEP_LABELS_S
100
AcDbVertex
100
AcDb2dVertex
 10
52.43637386897171
 20
-28.12042317372834
 30
0.0
  0
VERTEX
  5
6C
330
68
100
AcDbEntity
  8
1_ANYTOOL_1MMDEEP_LABELS_S
100
AcDbVertex
100
AcDb2dVertex
 10
64.43637386897171
 20
0.122433969132544
 30
0.0
  0
VERTEX
  5
6D
330
68
100
AcDbEntity
  8
1_ANYTOOL_1MMDEEP_LABELS_S
100
AcDbVertex
100
AcDb2dVertex
 10
64.43637386897171
 20
-29.7489946022979
 30
0.0
  0
SEQEND
  5
6E
330
68
100
AcDbEntity
  8
1_ANYTOOL_1MMDEEP_LABELS_S
  0
LINE
  5
6F
330
1F
100
AcDbEntity
  8
1_ANYTOOL_1MMDEEP_LABELS_S
100
AcDbLine
 10
86.29351672611483
 20
-0.2204231737268856
 30
0.0
 11
69.10780244040143
 21
-30.99185174515151
 31
0.0
  0
POLYLINE
  5
70
330
1F
100
AcDbEntity
  8
1_ANYTOOL_1MMDEEP_LABELS_S
100
AcDb2dPolyline
 66
     1
 10
0.0
 20
0.0
 30
0.0
  0
VERTEX
  5
71
330
70
100
AcDbEntity
  8
1_ANYTOOL_1MMDEEP_LABELS_S
100
AcDbVertex
100
AcDb2dVertex
 10
109.9078024404007
 20
-7.248994602297898
 30
0.0
 42
0.1311029518676563
  0
VERTEX
  5
72
330
70
100
AcDbEntity
  8
1_ANYTOOL_1MMDEEP_LABELS_S
100
AcDbVertex
100
AcDb2dVertex
 10
106.1363738689724
 20
-1.891851745152966
 30
0.0
  0
VERTEX
  5
73
330
70
100
AcDbEntity
  8
1_ANYTOOL_1MMDEEP_LABELS_S
100
AcDbVertex
100
AcDb2dVertex
 10
105.9799285564724
 20
-1.760015807653094
 30
0.0
  0
VERTEX
  5
74
330
70
100
AcDbEntity
  8
1_ANYTOOL_1MMDEEP_LABELS_S
100
AcDbVertex
100
AcDb2dVertex
 10
105.8213069046867
 20
-1.63236513801036
 30
0.0
  0
VERTEX
  5
75
330
70
100
AcDbEntity
  8
1_ANYTOOL_1MMDEEP_LABELS_S
100
AcDbVertex
100
AcDb2dVertex
 10
105.6605089136153
 20
-1.508899736224765
 30
0.0
  0
VERTEX
  5
76
330
70
100
AcDbEntity
  8
1_ANYTOOL_1MMDEEP_LABELS_S
100
AcDbVertex
100
AcDb2dVertex
 10
105.4975345832581
 20
-1.389619602296309
 30
0.0
  0
VERTEX
  5
77
330
70
100
AcDbEntity
  8
1_ANYTOOL_1MMDEEP_LABELS_S
100
AcDbVertex
100
AcDb2dVertex
 10
105.3323839136152
 20
-1.274524736224992
 30
0.0
  0
VERTEX
  5
78
330
70
100
AcDbEntity
  8
1_ANYTOOL_1MMDEEP_LABELS_S
100
AcDbVertex
100
AcDb2dVertex
 10
105.1650569046867
 20
-1.163615138010814
 30
0.0
  0
VERTEX
  5
79
330
70
100
AcDbEntity
  8
1_ANYTOOL_1MMDEEP_LABELS_S
100
AcDbVertex
100
AcDb2dVertex
 10
104.9955535564723
 20
-1.056890807653775
 30
0.0
  0
VERTEX
  5
7A
330
70
100
AcDbEntity
  8
1_ANYTOOL_1MMDEEP_LABELS_S
100
AcDbVertex
100
AcDb2dVertex
 10
104.8238738689723
 20
-0.9543517451538739
 30
0.0
  0
VERTEX
  5
7B
330
70
100
AcDbEntity
  8
1_ANYTOOL_1MMDEEP_LABELS_S
100
AcDbVertex
100
AcDb2dVertex
 10
104.6500178421866
 20
-0.8559979505111119
 30
0.0
  0
VERTEX
  5
7C
330
70
100
AcDbEntity
  8
1_ANYTOOL_1MMDEEP_LABELS_S
100
AcDbVertex
100
AcDb2dVertex
 10
104.4739854761152
 20
-0.7618294237254889
 30
0.0
  0
VERTEX
  5
7D
330
70
100
AcDbEntity
  8
1_ANYTOOL_1MMDEEP_LABELS_S
100
AcDbVertex
100
AcDb2dVertex
 10
104.295776770758
 20
-0.6718461647970047
 30
0.0
  0
VERTEX
  5
7E
330
70
100
AcDbEntity
  8
1_ANYTOOL_1MMDEEP_LABELS_S
100
AcDbVertex
100
AcDb2dVertex
 10
104.1153917261151
 20
-0.5860481737256591
 30
0.0
  0
VERTEX
  5
7F
330
70
100
AcDbEntity
  8
1_ANYTOOL_1MMDEEP_LABELS_S
100
AcDbVertex
100
AcDb2dVertex
 10
103.9328303421865
 20
-0.5044354505114524
 30
0.0
  0
VERTEX
  5
80
330
70
100
AcDbEntity
  8
1_ANYTOOL_1MMDEEP_LABELS_S
100
AcDbVertex
100
AcDb2dVertex
 10
103.7480926189722
 20
-0.4270079951543846
 30
0.0
  0
VERTEX
  5
81
330
70
100
AcDbEntity
  8
1_ANYTOOL_1MMDEEP_LABELS_S
100
AcDbVertex
100
AcDb2dVertex
 10
103.5611785564722
 20
-0.3537658076544555
 30
0.0
  0
VERTEX
  5
82
330
70
100
AcDbEntity
  8
1_ANYTOOL_1MMDEEP_LABELS_S
100
AcDbVertex
100
AcDb2dVertex
 10
103.3720881546865
 20
-0.2847088880116653
 30
0.0
  0
VERTEX
  5
83
330
70
100
AcDbEntity
  8
1_ANYTOOL_1MMDEEP_LABELS_S
100
AcDbVertex
100
AcDb2dVertex
 10
103.180821413615
 20
-0.2198372362260138
 30
0.0
  0
VERTEX
  5
84
330
70
100
AcDbEntity
  8
1_ANYTOOL_1MMDEEP_LABELS_S
100
AcDbVertex
100
AcDb2dVertex
 10
102.9873783332579
 20
-0.1591508522975011
 30
0.0
  0
VERTEX
  5
85
330
70
100
AcDbEntity
  8
1_ANYTOOL_1MMDEEP_LABELS_S
100
AcDbVertex
100
AcDb2dVertex
 10
102.791758913615
 20
-0.1026497362261273
 30
0.0
  0
VERTEX
  5
86
330
70
100
AcDbEntity
  8
1_ANYTOOL_1MMDEEP_LABELS_S
100
AcDbVertex
100
AcDb2dVertex
 10
102.5939631546864
 20
-0.0503338880118923
 30
0.0
  0
VERTEX
  5
87
330
70
100
AcDbEntity
  8
1_ANYTOOL_1MMDEEP_LABELS_S
100
AcDbVertex
100
AcDb2dVertex
 10
102.3939910564721
 20
-0.002203307654796
 30
0.0
  0
VERTEX
  5
88
330
70
100
AcDbEntity
  8
1_ANYTOOL_1MMDEEP_LABELS_S
100
AcDbVertex
100
AcDb2dVertex
 10
102.1918426189721
 20
0.0417420048451614
 30
0.0
  0
VERTEX
  5
89
330
70
100
AcDbEntity
  8
1_ANYTOOL_1MMDEEP_LABELS_S
100
AcDbVertex
100
AcDb2dVertex
 10
101.9875178421863
 20
0.0815020494879801
 30
0.0
  0
VERTEX
  5
8A
330
70
100
AcDbEntity
  8
1_ANYTOOL_1MMDEEP_LABELS_S
100
AcDbVertex
100
AcDb2dVertex
 10
101.7810167261149
 20
0.1170768262736599
 30
0.0
  0
VERTEX
  5
8B
330
70
100
AcDbEntity
  8
1_ANYTOOL_1MMDEEP_LABELS_S
100
AcDbVertex
100
AcDb2dVertex
 10
101.5723392707577
 20
0.1484663352022009
 30
0.0
  0
VERTEX
  5
8C
330
70
100
AcDbEntity
  8
1_ANYTOOL_1MMDEEP_LABELS_S
100
AcDbVertex
100
AcDb2dVertex
 10
101.3614854761149
 20
0.1756705762736032
 30
0.0
  0
VERTEX
  5
8D
330
70
100
AcDbEntity
  8
1_ANYTOOL_1MMDEEP_LABELS_S
100
AcDbVertex
100
AcDb2dVertex
 10
101.1484553421863
 20
0.1986895494878666
 30
0.0
  0
VERTEX
  5
8E
330
70
100
AcDbEntity
  8
1_ANYTOOL_1MMDEEP_LABELS_S
100
AcDbVertex
100
AcDb2dVertex
 10
100.933248868972
 20
0.2175232548449912
 30
0.0
  0
VERTEX
  5
8F
330
70
100
AcDbEntity
  8
1_ANYTOOL_1MMDEEP_LABELS_S
100
AcDbVertex
100
AcDb2dVertex
 10
100.7158660564719
 20
0.232171692344977
 30
0.0
  0
VERTEX
  5
90
330
70
100
AcDbEntity
  8
1_ANYTOOL_1MMDEEP_LABELS_S
100
AcDbVertex
100
AcDb2dVertex
 10
100.4963069046862
 20
0.242634861987824
 30
0.0
  0
VERTEX
  5
91
330
70
100
AcDbEntity
  8
1_ANYTOOL_1MMDEEP_LABELS_S
100
AcDbVertex
100
AcDb2dVertex
 10
100.2745714136148
 20
0.2489127637735322
 30
0.0
  0
VERTEX
  5
92
330
70
100
AcDbEntity
  8
1_ANYTOOL_1MMDEEP_LABELS_S
100
AcDbVertex
100
AcDb2dVertex
 10
100.0506595832576
 20
0.2510053977021016
 30
0.0
  0
VERTEX
  5
93
330
70
100
AcDbEntity
  8
1_ANYTOOL_1MMDEEP_LABELS_S
100
AcDbVertex
100
AcDb2dVertex
 10
99.70776058772189
 20
0.2464016030592475
 30
0.0
  0
VERTEX
  5
94
330
70
100
AcDbEntity
  8
1_ANYTOOL_1MMDEEP_LABELS_S
100
AcDbVertex
100
AcDb2dVertex
 10
99.3701350296862
 20
0.2325902191306852
 30
0.0
  0
VERTEX
  5
95
330
70
100
AcDbEntity
  8
1_ANYTOOL_1MMDEEP_LABELS_S
100
AcDbVertex
100
AcDb2dVertex
 10
99.03778290915051
 20
0.2095712459164147
 30
0.0
  0
VERTEX
  5
96
330
70
100
AcDbEntity
  8
1_ANYTOOL_1MMDEEP_LABELS_S
100
AcDbVertex
100
AcDb2dVertex
 10
98.71070422611481
 20
0.1773446834164361
 30
0.0
  0
VERTEX
  5
97
330
70
100
AcDbEntity
  8
1_ANYTOOL_1MMDEEP_LABELS_S
100
AcDbVertex
100
AcDb2dVertex
 10
98.38889898057911
 20
0.1359105316307492
 30
0.0
  0
VERTEX
  5
98
330
70
100
AcDbEntity
  8
1_ANYTOOL_1MMDEEP_LABELS_S
100
AcDbVertex
100
AcDb2dVertex
 10
98.07236717254341
 20
0.0852687905593541
 30
0.0
  0
VERTEX
  5
99
330
70
100
AcDbEntity
  8
1_ANYTOOL_1MMDEEP_LABELS_S
100
AcDbVertex
100
AcDb2dVertex
 10
97.76110880200771
 20
0.0254194602022508
 30
0.0
  0
VERTEX
  5
9A
330
70
100
AcDbEntity
  8
1_ANYTOOL_1MMDEEP_LABELS_S
100
AcDbVertex
100
AcDb2dVertex
 10
97.45512386897201
 20
-0.0436374594405606
 30
0.0
  0
VERTEX
  5
9B
330
70
100
AcDbEntity
  8
1_ANYTOOL_1MMDEEP_LABELS_S
100
AcDbVertex
100
AcDb2dVertex
 10
97.1544123734363
 20
-0.1219019683690803
 30
0.0
  0
VERTEX
  5
9C
330
70
100
AcDbEntity
  8
1_ANYTOOL_1MMDEEP_LABELS_S
100
AcDbVertex
100
AcDb2dVertex
 10
96.85897431540059
 20
-0.2093740665833081
 30
0.0
  0
VERTEX
  5
9D
330
70
100
AcDbEntity
  8
1_ANYTOOL_1MMDEEP_LABELS_S
100
AcDbVertex
100
AcDb2dVertex
 10
96.56880969486488
 20
-0.3060537540832442
 30
0.0
  0
VERTEX
  5
9E
330
70
100
AcDbEntity
  8
1_ANYTOOL_1MMDEEP_LABELS_S
100
AcDbVertex
100
AcDb2dVertex
 10
96.28391851182917
 20
-0.4119410308688884
 30
0.0
  0
VERTEX
  5
9F
330
70
100
AcDbEntity
  8
1_ANYTOOL_1MMDEEP_LABELS_S
100
AcDbVertex
100
AcDb2dVertex
 10
96.00430076629345
 20
-0.5270358969402409
 30
0.0
  0
VERTEX
  5
A0
330
70
100
AcDbEntity
  8
1_ANYTOOL_1MMDEEP_LABELS_S
100
AcDbVertex
100
AcDb2dVertex
 10
95.86646943258809
 20
-0.5880361759580577
 30
0.0
  0
VERTEX
  5
A1
330
70
100
AcDbEntity
  8
1_ANYTOOL_1MMDEEP_LABELS_S
100
AcDbVertex
100
AcDb2dVertex
 10
95.72995645825773
 20
-0.6513383522973015
 30
0.0
  0
VERTEX
  5
A2
330
70
100
AcDbEntity
  8
1_ANYTOOL_1MMDEEP_LABELS_S
100
AcDbVertex
100
AcDb2dVertex
 10
95.59476184330238
 20
-0.7169424259579724
 30
0.0
  0
VERTEX
  5
A3
330
70
100
AcDbEntity
  8
1_ANYTOOL_1MMDEEP_LABELS_S
100
AcDbVertex
100
AcDb2dVertex
 10
95.46088558772202
 20
-0.7848483969400704
 30
0.0
  0
VERTEX
  5
A4
330
70
100
AcDbEntity
  8
1_ANYTOOL_1MMDEEP_LABELS_S
100
AcDbVertex
100
AcDb2dVertex
 10
95.32832769151665
 20
-0.8550562652435953
 30
0.0
  0
VERTEX
  5
A5
330
70
100
AcDbEntity
  8
1_ANYTOOL_1MMDEEP_LABELS_S
100
AcDbVertex
100
AcDb2dVertex
 10
95.1970881546863
 20
-0.9275660308685474
 30
0.0
  0
VERTEX
  5
A6
330
70
100
AcDbEntity
  8
1_ANYTOOL_1MMDEEP_LABELS_S
100
AcDbVertex
100
AcDb2dVertex
 10
95.06716697723093
 20
-1.002377693814926
 30
0.0
  0
VERTEX
  5
A7
330
70
100
AcDbEntity
  8
1_ANYTOOL_1MMDEEP_LABELS_S
100
AcDbVertex
100
AcDb2dVertex
 10
94.93856415915057
 20
-1.079491254082733
 30
0.0
  0
VERTEX
  5
A8
330
70
100
AcDbEntity
  8
1_ANYTOOL_1MMDEEP_LABELS_S
100
AcDbVertex
100
AcDb2dVertex
 10
94.81127970044521
 20
-1.158906711671966
 30
0.0
  0
VERTEX
  5
A9
330
70
100
AcDbEntity
  8
1_ANYTOOL_1MMDEEP_LABELS_S
100
AcDbVertex
100
AcDb2dVertex
 10
94.68531360111484
 20
-1.240624066582626
 30
0.0
  0
VERTEX
  5
AA
330
70
100
AcDbEntity
  8
1_ANYTOOL_1MMDEEP_LABELS_S
100
AcDbVertex
100
AcDb2dVertex
 10
94.56066586115948
 20
-1.324643318814713
 30
0.0
  0
VERTEX
  5
AB
330
70
100
AcDbEntity
  8
1_ANYTOOL_1MMDEEP_LABELS_S
100
AcDbVertex
100
AcDb2dVertex
 10
94.43733648057912
 20
-1.410964468368228
 30
0.0
  0
VERTEX
  5
AC
330
70
100
AcDbEntity
  8
1_ANYTOOL_1MMDEEP_LABELS_S
100
AcDbVertex
100
AcDb2dVertex
 10
94.19463279754339
 20
-1.590512459439537
 30
0.0
  0
VERTEX
  5
AD
330
70
100
AcDbEntity
  8
1_ANYTOOL_1MMDEEP_LABELS_S
100
AcDbVertex
100
AcDb2dVertex
 10
93.95720255200766
 20
-1.779268039796555
 30
0.0
  0
VERTEX
  5
AE
330
70
100
AcDbEntity
  8
1_ANYTOOL_1MMDEEP_LABELS_S
100
AcDbVertex
100
AcDb2dVertex
 10
93.72504574397192
 20
-1.977231209439282
 30
0.0
  0
VERTEX
  5
AF
330
70
100
AcDbEntity
  8
1_ANYTOOL_1MMDEEP_LABELS_S
100
AcDbVertex
100
AcDb2dVertex
 10
93.49816237343619
 20
-2.184401968367716
 30
0.0
  0
VERTEX
  5
B0
330
70
100
AcDbEntity
  8
1_ANYTOOL_1MMDEEP_LABELS_S
100
AcDbVertex
100
AcDb2dVertex
 10
93.27655244040045
 20
-2.400780316581859
 30
0.0
  0
VERTEX
  5
B1
330
70
100
AcDbEntity
  8
1_ANYTOOL_1MMDEEP_LABELS_S
100
AcDbVertex
100
AcDb2dVertex
 10
93.06021594486471
 20
-2.626366254081709
 30
0.0
  0
VERTEX
  5
B2
330
70
100
AcDbEntity
  8
1_ANYTOOL_1MMDEEP_LABELS_S
100
AcDbVertex
100
AcDb2dVertex
 10
92.84915288682896
 20
-2.861159780867268
 30
0.0
  0
VERTEX
  5
B3
330
70
100
AcDbEntity
  8
1_ANYTOOL_1MMDEEP_LABELS_S
100
AcDbVertex
100
AcDb2dVertex
 10
92.64336326629322
 20
-3.105160896938536
 30
0.0
  0
VERTEX
  5
B4
330
70
100
AcDbEntity
  8
1_ANYTOOL_1MMDEEP_LABELS_S
100
AcDbVertex
100
AcDb2dVertex
 10
92.44284708325748
 20
-3.358369602295511
 30
0.0
  0
VERTEX
  5
B5
330
70
100
AcDbEntity
  8
1_ANYTOOL_1MMDEEP_LABELS_S
100
AcDbVertex
100
AcDb2dVertex
 10
92.24760433772173
 20
-3.620785896938195
 30
0.0
  0
VERTEX
  5
B6
330
70
100
AcDbEntity
  8
1_ANYTOOL_1MMDEEP_LABELS_S
100
AcDbVertex
100
AcDb2dVertex
 10
92.05763502968597
 20
-3.892409780866586
 30
0.0
  0
VERTEX
  5
B7
330
70
100
AcDbEntity
  8
1_ANYTOOL_1MMDEEP_LABELS_S
100
AcDbVertex
100
AcDb2dVertex
 10
91.87293915915022
 20
-4.173241254080686
 30
0.0
  0
VERTEX
  5
B8
330
70
100
AcDbEntity
  8
1_ANYTOOL_1MMDEEP_LABELS_S
100
AcDbVertex
100
AcDb2dVertex
 10
91.69351672611447
 20
-4.463280316580494
 30
0.0
  0
VERTEX
  5
B9
330
70
100
AcDbEntity
  8
1_ANYTOOL_1MMDEEP_LABELS_S
100
AcDbVertex
100
AcDb2dVertex
 10
91.35618413682882
 20
-5.050891923723924
 30
0.0
  0
VERTEX
  5
BA
330
70
100
AcDbEntity
  8
1_ANYTOOL_1MMDEEP_LABELS_S
100
AcDbVertex
100
AcDb2dVertex
 10
91.0406149404003
 20
-5.645869602295875
 30
0.0
  0
VERTEX
  5
BB
330
70
100
AcDbEntity
  8
1_ANYTOOL_1MMDEEP_LABELS_S
100
AcDbVertex
100
AcDb2dVertex
 10
90.74680913682893
 20
-6.248213352296347
 30
0.0
  0
VERTEX
  5
BC
330
70
100
AcDbEntity
  8
1_ANYTOOL_1MMDEEP_LABELS_S
100
AcDbVertex
100
AcDb2dVertex
 10
90.4747667261147
 20
-6.857923173725339
 30
0.0
  0
VERTEX
  5
BD
330
70
100
AcDbEntity
  8
1_ANYTOOL_1MMDEEP_LABELS_S
100
AcDbVertex
100
AcDb2dVertex
 10
90.2244877082576
 20
-7.474999066582853
 30
0.0
  0
VERTEX
  5
BE
330
70
100
AcDbEntity
  8
1_ANYTOOL_1MMDEEP_LABELS_S
100
AcDbVertex
100
AcDb2dVertex
 10
89.99597208325764
 20
-8.099441030868888
 30
0.0
  0
VERTEX
  5
BF
330
70
100
AcDbEntity
  8
1_ANYTOOL_1MMDEEP_LABELS_S
100
AcDbVertex
100
AcDb2dVertex
 10
89.78921985111482
 20
-8.731249066583445
 30
0.0
  0
VERTEX
  5
C0
330
70
100
AcDbEntity
  8
1_ANYTOOL_1MMDEEP_LABELS_S
100
AcDbVertex
100
AcDb2dVertex
 10
89.60423101182914
 20
-9.370423173726522
 30
0.0
  0
VERTEX
  5
C1
330
70
100
AcDbEntity
  8
1_ANYTOOL_1MMDEEP_LABELS_S
100
AcDbVertex
100
AcDb2dVertex
 10
89.4410055654006
 20
-10.01696335229812
 30
0.0
  0
VERTEX
  5
C2
330
70
100
AcDbEntity
  8
1_ANYTOOL_1MMDEEP_LABELS_S
100
AcDbVertex
100
AcDb2dVertex
 10
89.2995435118292
 20
-10.67086960229824
 30
0.0
  0
VERTEX
  5
C3
330
70
100
AcDbEntity
  8
1_ANYTOOL_1MMDEEP_LABELS_S
100
AcDbVertex
100
AcDb2dVertex
 10
89.17984485111494
 20
-11.33214192372688
 30
0.0
  0
VERTEX
  5
C4
330
70
100
AcDbEntity
  8
1_ANYTOOL_1MMDEEP_LABELS_S
100
AcDbVertex
100
AcDb2dVertex
 10
89.08190958325781
 20
-12.00078031658404
 30
0.0
  0
VERTEX
  5
C5
330
70
100
AcDbEntity
  8
1_ANYTOOL_1MMDEEP_LABELS_S
100
AcDbVertex
100
AcDb2dVertex
 10
89.00573770825783
 20
-12.67678478086972
 30
0.0
  0
VERTEX
  5
C6
330
70
100
AcDbEntity
  8
1_ANYTOOL_1MMDEEP_LABELS_S
100
AcDbVertex
100
AcDb2dVertex
 10
88.95132922611498
 20
-13.36015531658393
 30
0.0
  0
VERTEX
  5
C7
330
70
100
AcDbEntity
  8
1_ANYTOOL_1MMDEEP_LABELS_S
100
AcDbVertex
100
AcDb2dVertex
 10
88.91868413682927
 20
-14.05089192372665
 30
0.0
  0
VERTEX
  5
C8
330
70
100
AcDbEntity
  8
1_ANYTOOL_1MMDEEP_LABELS_S
100
AcDbVertex
100
AcDb2dVertex
 10
88.9078024404007
 20
-14.7489946022979
 30
0.0
  0
VERTEX
  5
C9
330
70
100
AcDbEntity
  8
1_ANYTOOL_1MMDEEP_LABELS_S
100
AcDbVertex
100
AcDb2dVertex
 10
88.91885154754357
 20
-15.44726469158343
 30
0.0
  0
VERTEX
  5
CA
330
70
100
AcDbEntity
  8
1_ANYTOOL_1MMDEEP_LABELS_S
100
AcDbVertex
100
AcDb2dVertex
 10
88.95199886897214
 20
-16.138503530869
 30
0.0
  0
VERTEX
  5
CB
330
70
100
AcDbEntity
  8
1_ANYTOOL_1MMDEEP_LABELS_S
100
AcDbVertex
100
AcDb2dVertex
 10
89.00724440468645
 20
-16.82271112015462
 30
0.0
  0
VERTEX
  5
CC
330
70
100
AcDbEntity
  8
1_ANYTOOL_1MMDEEP_LABELS_S
100
AcDbVertex
100
AcDb2dVertex
 10
89.08458815468646
 20
-17.49988745944029
 30
0.0
  0
VERTEX
  5
CD
330
70
100
AcDbEntity
  8
1_ANYTOOL_1MMDEEP_LABELS_S
100
AcDbVertex
100
AcDb2dVertex
 10
89.1840301189722
 20
-18.170032548726
 30
0.0
  0
VERTEX
  5
CE
330
70
100
AcDbEntity
  8
1_ANYTOOL_1MMDEEP_LABELS_S
100
AcDbVertex
100
AcDb2dVertex
 10
89.30557029754365
 20
-18.83314638801176
 30
0.0
  0
VERTEX
  5
CF
330
70
100
AcDbEntity
  8
1_ANYTOOL_1MMDEEP_LABELS_S
100
AcDbVertex
100
AcDb2dVertex
 10
89.44920869040084
 20
-19.48922897729756
 30
0.0
  0
VERTEX
  5
D0
330
70
100
AcDbEntity
  8
1_ANYTOOL_1MMDEEP_LABELS_S
100
AcDbVertex
100
AcDb2dVertex
 10
89.61494529754373
 20
-20.1382803165834
 30
0.0
  0
VERTEX
  5
D1
330
70
100
AcDbEntity
  8
1_ANYTOOL_1MMDEEP_LABELS_S
100
AcDbVertex
100
AcDb2dVertex
 10
89.80278011897235
 20
-20.7803004058693
 30
0.0
  0
VERTEX
  5
D2
330
70
100
AcDbEntity
  8
1_ANYTOOL_1MMDEEP_LABELS_S
100
AcDbVertex
100
AcDb2dVertex
 10
90.01271315468668
 20
-21.41528924515524
 30
0.0
  0
VERTEX
  5
D3
330
70
100
AcDbEntity
  8
1_ANYTOOL_1MMDEEP_LABELS_S
100
AcDbVertex
100
AcDb2dVertex
 10
90.24474440468674
 20
-22.04324683444122
 30
0.0
  0
VERTEX
  5
D4
330
70
100
AcDbEntity
  8
1_ANYTOOL_1MMDEEP_LABELS_S
100
AcDbVertex
100
AcDb2dVertex
 10
90.49887386897251
 20
-22.66417317372725
 30
0.0
  0
VERTEX
  5
D5
330
70
100
AcDbEntity
  8
1_ANYTOOL_1MMDEEP_LABELS_S
100
AcDbVertex
100
AcDb2dVertex
 10
90.77510154754401
 20
-23.27806826301332
 30
0.0
  0
VERTEX
  5
D6
330
70
100
AcDbEntity
  8
1_ANYTOOL_1MMDEEP_LABELS_S
100
AcDbVertex
100
AcDb2dVertex
 10
91.07342744040122
 20
-23.88493210229944
 30
0.0
  0
VERTEX
  5
D7
330
70
100
AcDbEntity
  8
1_ANYTOOL_1MMDEEP_LABELS_S
100
AcDbVertex
100
AcDb2dVertex
 10
91.39385154754416
 20
-24.48476469158561
 30
0.0
  0
VERTEX
  5
D8
330
70
100
AcDbEntity
  8
1_ANYTOOL_1MMDEEP_LABELS_S
100
AcDbVertex
100
AcDb2dVertex
 10
91.7363738689728
 20
-25.07756603087182
 30
0.0
  0
VERTEX
  5
D9
330
70
100
AcDbEntity
  8
1_ANYTOOL_1MMDEEP_LABELS_S
100
AcDbVertex
100
AcDb2dVertex
 10
91.91868413682995
 20
-25.36496837462167
 30
0.0
  0
VERTEX
  5
DA
330
70
100
AcDbEntity
  8
1_ANYTOOL_1MMDEEP_LABELS_S
100
AcDbVertex
100
AcDb2dVertex
 10
92.10668636897282
 20
-25.64324683444295
 30
0.0
  0
VERTEX
  5
DB
330
70
100
AcDbEntity
  8
1_ANYTOOL_1MMDEEP_LABELS_S
100
AcDbVertex
100
AcDb2dVertex
 10
92.30038056540138
 20
-25.91240141033566
 30
0.0
  0
VERTEX
  5
DC
330
70
100
AcDbEntity
  8
1_ANYTOOL_1MMDEEP_LABELS_S
100
AcDbVertex
100
AcDb2dVertex
 10
92.49976672611567
 20
-26.17243210229981
 30
0.0
  0
VERTEX
  5
DD
330
70
100
AcDbEntity
  8
1_ANYTOOL_1MMDEEP_LABELS_S
100
AcDbVertex
100
AcDb2dVertex
 10
92.70484485111567
 20
-26.42333891033539
 30
0.0
  0
VERTEX
  5
DE
330
70
100
AcDbEntity
  8
1_ANYTOOL_1MMDEEP_LABELS_S
100
AcDbVertex
100
AcDb2dVertex
 10
92.91561494040138
 20
-26.6651218344424
 30
0.0
  0
VERTEX
  5
DF
330
70
100
AcDbEntity
  8
1_ANYTOOL_1MMDEEP_LABELS_S
100
AcDbVertex
100
AcDb2dVertex
 10
93.1320769939728
 20
-26.89778087462085
 30
0.0
  0
VERTEX
  5
E0
330
70
100
AcDbEntity
  8
1_ANYTOOL_1MMDEEP_LABELS_S
100
AcDbVertex
100
AcDb2dVertex
 10
93.35423101182994
 20
-27.12131603087073
 30
0.0
  0
VERTEX
  5
E1
330
70
100
AcDbEntity
  8
1_ANYTOOL_1MMDEEP_LABELS_S
100
AcDbVertex
100
AcDb2dVertex
 10
93.58207699397279
 20
-27.33572730319204
 30
0.0
  0
VERTEX
  5
E2
330
70
100
AcDbEntity
  8
1_ANYTOOL_1MMDEEP_LABELS_S
100
AcDbVertex
100
AcDb2dVertex
 10
93.81561494040136
 20
-27.54101469158479
 30
0.0
  0
VERTEX
  5
E3
330
70
100
AcDbEntity
  8
1_ANYTOOL_1MMDEEP_LABELS_S
100
AcDbVertex
100
AcDb2dVertex
 10
94.05484485111563
 20
-27.73717819604897
 30
0.0
  0
VERTEX
  5
E4
330
70
100
AcDbEntity
  8
1_ANYTOOL_1MMDEEP_LABELS_S
100
AcDbVertex
100
AcDb2dVertex
 10
94.29976672611562
 20
-27.92421781658459
 30
0.0
  0
VERTEX
  5
E5
330
70
100
AcDbEntity
  8
1_ANYTOOL_1MMDEEP_LABELS_S
100
AcDbVertex
100
AcDb2dVertex
 10
94.42436215022275
 20
-28.01431617037918
 30
0.0
  0
VERTEX
  5
E6
330
70
100
AcDbEntity
  8
1_ANYTOOL_1MMDEEP_LABELS_S
100
AcDbVertex
100
AcDb2dVertex
 10
94.55038056540133
 20
-28.10213355319163
 30
0.0
  0
VERTEX
  5
E7
330
70
100
AcDbEntity
  8
1_ANYTOOL_1MMDEEP_LABELS_S
100
AcDbVertex
100
AcDb2dVertex
 10
94.67782197165133
 20
-28.18766996502195
 30
0.0
  0
VERTEX
  5
E8
330
70
100
AcDbEntity
  8
1_ANYTOOL_1MMDEEP_LABELS_S
100
AcDbVertex
100
AcDb2dVertex
 10
94.80668636897275
 20
-28.27092540587012
 30
0.0
  0
VERTEX
  5
E9
330
70
100
AcDbEntity
  8
1_ANYTOOL_1MMDEEP_LABELS_S
100
AcDbVertex
100
AcDb2dVertex
 10
94.93697375736559
 20
-28.35189987573614
 30
0.0
  0
VERTEX
  5
EA
330
70
100
AcDbEntity
  8
1_ANYTOOL_1MMDEEP_LABELS_S
100
AcDbVertex
100
AcDb2dVertex
 10
95.06868413682987
 20
-28.43059337462003
 30
0.0
  0
VERTEX
  5
EB
330
70
100
AcDbEntity
  8
1_ANYTOOL_1MMDEEP_LABELS_S
100
AcDbVertex
100
AcDb2dVertex
 10
95.20181750736558
 20
-28.50700590252178
 30
0.0
  0
VERTEX
  5
EC
330
70
100
AcDbEntity
  8
1_ANYTOOL_1MMDEEP_LABELS_S
100
AcDbVertex
100
AcDb2dVertex
 10
95.33637386897271
 20
-28.58113745944138
 30
0.0
  0
VERTEX
  5
ED
330
70
100
AcDbEntity
  8
1_ANYTOOL_1MMDEEP_LABELS_S
100
AcDbVertex
100
AcDb2dVertex
 10
95.60975556540127
 20
-28.72255766033416
 30
0.0
  0
VERTEX
  5
EE
330
70
100
AcDbEntity
  8
1_ANYTOOL_1MMDEEP_LABELS_S
100
AcDbVertex
100
AcDb2dVertex
 10
95.88882922611555
 20
-28.85485397729838
 30
0.0
  0
VERTEX
  5
EF
330
70
100
AcDbEntity
  8
1_ANYTOOL_1MMDEEP_LABELS_S
100
AcDbVertex
100
AcDb2dVertex
 10
96.17359485111552
 20
-28.97802641033402
 30
0.0
  0
VERTEX
  5
F0
330
70
100
AcDbEntity
  8
1_ANYTOOL_1MMDEEP_LABELS_S
100
AcDbVertex
100
AcDb2dVertex
 10
96.46405244040122
 20
-29.09207495944111
 30
0.0
  0
VERTEX
  5
F1
330
70
100
AcDbEntity
  8
1_ANYTOOL_1MMDEEP_LABELS_S
100
AcDbVertex
100
AcDb2dVertex
 10
96.76020199397263
 20
-29.19699962461962
 30
0.0
  0
VERTEX
  5
F2
330
70
100
AcDbEntity
  8
1_ANYTOOL_1MMDEEP_LABELS_S
100
AcDbVertex
100
AcDb2dVertex
 10
97.06204351182976
 20
-29.29280040586957
 30
0.0
  0
VERTEX
  5
F3
330
70
100
AcDbEntity
  8
1_ANYTOOL_1MMDEEP_LABELS_S
100
AcDbVertex
100
AcDb2dVertex
 10
97.36957699397259
 20
-29.37947730319095
 30
0.0
  0
VERTEX
  5
F4
330
70
100
AcDbEntity
  8
1_ANYTOOL_1MMDEEP_LABELS_S
100
AcDbVertex
100
AcDb2dVertex
 10
97.68280244040113
 20
-29.45703031658377
 30
0.0
  0
VERTEX
  5
F5
330
70
100
AcDbEntity
  8
1_ANYTOOL_1MMDEEP_LABELS_S
100
AcDbVertex
100
AcDb2dVertex
 10
98.0017198511154
 20
-29.52545944604802
 30
0.0
  0
VERTEX
  5
F6
330
70
100
AcDbEntity
  8
1_ANYTOOL_1MMDEEP_LABELS_S
100
AcDbVertex
100
AcDb2dVertex
 10
98.32632922611538
 20
-29.5847646915837
 30
0.0
  0
VERTEX
  5
F7
330
70
100
AcDbEntity
  8
1_ANYTOOL_1MMDEEP_LABELS_S
100
AcDbVertex
100
AcDb2dVertex
 10
98.65663056540106
 20
-29.63494605319082
 30
0.0
  0
VERTEX
  5
F8
330
70
100
AcDbEntity
  8
1_ANYTOOL_1MMDEEP_LABELS_S
100
AcDbVertex
100
AcDb2dVertex
 10
98.99262386897246
 20
-29.67600353086937
 30
0.0
  0
VERTEX
  5
F9
330
70
100
AcDbEntity
  8
1_ANYTOOL_1MMDEEP_LABELS_S
100
AcDbVertex
100
AcDb2dVertex
 10
99.33430913682957
 20
-29.70793712461935
 30
0.0
  0
VERTEX
  5
FA
330
70
100
AcDbEntity
  8
1_ANYTOOL_1MMDEEP_LABELS_S
100
AcDbVertex
100
AcDb2dVertex
 10
99.68168636897241
 20
-29.73074683444077
 30
0.0
  0
VERTEX
  5
FB
330
70
100
AcDbEntity
  8
1_ANYTOOL_1MMDEEP_LABELS_S
100
AcDbVertex
100
AcDb2dVertex
 10
100.0347555654009
 20
-29.74443266033362
 30
0.0
  0
VERTEX
  5
FC
330
70
100
AcDbEntity
  8
1_ANYTOOL_1MMDEEP_LABELS_S
100
AcDbVertex
100
AcDb2dVertex
 10
100.3935167261152
 20
-29.7489946022979
 30
0.0
  0
VERTEX
  5
FD
330
70
100
AcDbEntity
  8
1_ANYTOOL_1MMDEEP_LABELS_S
100
AcDbVertex
100
AcDb2dVertex
 10
100.7755479761153
 20
-29.74263299515505
 30
0.0
  0
VERTEX
  5
FE
330
70
100
AcDbEntity
  8
1_ANYTOOL_1MMDEEP_LABELS_S
100
AcDbVertex
100
AcDb2dVertex
 10
101.1502131546868
 20
-29.7235481737265
 30
0.0
  0
VERTEX
  5
FF
330
70
100
AcDbEntity
  8
1_ANYTOOL_1MMDEEP_LABELS_S
100
AcDbVertex
100
AcDb2dVertex
 10
101.3347834671868
 20
-29.70923455765509
 30
0.0
  0
VERTEX
  5
100
330
70
100
AcDbEntity
  8
1_ANYTOOL_1MMDEEP_LABELS_S
100
AcDbVertex
100
AcDb2dVertex
 10
101.5175122618297
 20
-29.69174013801225
 30
0.0
  0
VERTEX
  5
101
330
70
100
AcDbEntity
  8
1_ANYTOOL_1MMDEEP_LABELS_S
100
AcDbVertex
100
AcDb2dVertex
 10
101.6983995386154
 20
-29.67106491479799
 30
0.0
  0
VERTEX
  5
102
330
70
100
AcDbEntity
  8
1_ANYTOOL_1MMDEEP_LABELS_S
100
AcDbVertex
100
AcDb2dVertex
 10
101.877445297544
 20
-29.6472088880123
 30
0.0
  0
VERTEX
  5
103
330
70
100
AcDbEntity
  8
1_ANYTOOL_1MMDEEP_LABELS_S
100
AcDbVertex
100
AcDb2dVertex
 10
102.0546495386155
 20
-29.62017205765519
 30
0.0
  0
VERTEX
  5
104
330
70
100
AcDbEntity
  8
1_ANYTOOL_1MMDEEP_LABELS_S
100
AcDbVertex
100
AcDb2dVertex
 10
102.2300122618298
 20
-29.58995442372665
 30
0.0
  0
VERTEX
  5
105
330
70
100
AcDbEntity
  8
1_ANYTOOL_1MMDEEP_LABELS_S
100
AcDbVertex
100
AcDb2dVertex
 10
102.4035334671869
 20
-29.55655598622669
 30
0.0
  0
VERTEX
  5
106
330
70
100
AcDbEntity
  8
1_ANYTOOL_1MMDEEP_LABELS_S
100
AcDbVertex
100
AcDb2dVertex
 10
102.5752131546869
 20
-29.5199767451553
 30
0.0
  0
VERTEX
  5
107
330
70
100
AcDbEntity
  8
1_ANYTOOL_1MMDEEP_LABELS_S
100
AcDbVertex
100
AcDb2dVertex
 10
102.7450513243298
 20
-29.48021670051249
 30
0.0
  0
VERTEX
  5
108
330
70
100
AcDbEntity
  8
1_ANYTOOL_1MMDEEP_LABELS_S
100
AcDbVertex
100
AcDb2dVertex
 10
102.9130479761155
 20
-29.43727585229826
 30
0.0
  0
VERTEX
  5
109
330
70
100
AcDbEntity
  8
1_ANYTOOL_1MMDEEP_LABELS_S
100
AcDbVertex
100
AcDb2dVertex
 10
103.0792031100441
 20
-29.3911542005126
 30
0.0
  0
VERTEX
  5
10A
330
70
100
AcDbEntity
  8
1_ANYTOOL_1MMDEEP_LABELS_S
100
AcDbVertex
100
AcDb2dVertex
 10
103.2435167261156
 20
-29.34185174515551
 30
0.0
  0
VERTEX
  5
10B
330
70
100
AcDbEntity
  8
1_ANYTOOL_1MMDEEP_LABELS_S
100
AcDbVertex
100
AcDb2dVertex
 10
103.4059888243299
 20
-29.289368486227
 30
0.0
  0
VERTEX
  5
10C
330
70
100
AcDbEntity
  8
1_ANYTOOL_1MMDEEP_LABELS_S
100
AcDbVertex
100
AcDb2dVertex
 10
103.566619404687
 20
-29.23370442372706
 30
0.0
  0
VERTEX
  5
10D
330
70
100
AcDbEntity
  8
1_ANYTOOL_1MMDEEP_LABELS_S
100
AcDbVertex
100
AcDb2dVertex
 10
103.725408467187
 20
-29.1748595576557
 30
0.0
  0
VERTEX
  5
10E
330
70
100
AcDbEntity
  8
1_ANYTOOL_1MMDEEP_LABELS_S
100
AcDbVertex
100
AcDb2dVertex
 10
103.8823560118299
 20
-29.11283388801291
 30
0.0
  0
VERTEX
  5
10F
330
70
100
AcDbEntity
  8
1_ANYTOOL_1MMDEEP_LABELS_S
100
AcDbVertex
100
AcDb2dVertex
 10
104.0374620386156
 20
-29.0476274147987
 30
0.0
  0
VERTEX
  5
110
330
70
100
AcDbEntity
  8
1_ANYTOOL_1MMDEEP_LABELS_S
100
AcDbVertex
100
AcDb2dVertex
 10
104.1907265475442
 20
-28.97924013801307
 30
0.0
  0
VERTEX
  5
111
330
70
100
AcDbEntity
  8
1_ANYTOOL_1MMDEEP_LABELS_S
100
AcDbVertex
100
AcDb2dVertex
 10
104.3421495386156
 20
-28.90767205765601
 30
0.0
  0
VERTEX
  5
112
330
70
100
AcDbEntity
  8
1_ANYTOOL_1MMDEEP_LABELS_S
100
AcDbVertex
100
AcDb2dVertex
 10
104.4917310118299
 20
-28.83292317372752
 30
0.0
  0
VERTEX
  5
113
330
70
100
AcDbEntity
  8
1_ANYTOOL_1MMDEEP_LABELS_S
100
AcDbVertex
100
AcDb2dVertex
 10
104.639470967187
 20
-28.75499348622761
 30
0.0
  0
VERTEX
  5
114
330
70
100
AcDbEntity
  8
1_ANYTOOL_1MMDEEP_LABELS_S
100
AcDbVertex
100
AcDb2dVertex
 10
104.785369404687
 20
-28.67388299515628
 30
0.0
  0
VERTEX
  5
115
330
70
100
AcDbEntity
  8
1_ANYTOOL_1MMDEEP_LABELS_S
100
AcDbVertex
100
AcDb2dVertex
 10
104.9294263243299
 20
-28.58959170051352
 30
0.0
  0
VERTEX
  5
116
330
70
100
AcDbEntity
  8
1_ANYTOOL_1MMDEEP_LABELS_S
100
AcDbVertex
100
AcDb2dVertex
 10
105.0716417261156
 20
-28.50211960229933
 30
0.0
  0
VERTEX
  5
117
330
70
100
AcDbEntity
  8
1_ANYTOOL_1MMDEEP_LABELS_S
100
AcDbVertex
100
AcDb2dVertex
 10
105.2120156100441
 20
-28.41146670051372
 30
0.0
  0
VERTEX
  5
118
330
70
100
AcDbEntity
  8
1_ANYTOOL_1MMDEEP_LABELS_S
100
AcDbVertex
100
AcDb2dVertex
 10
105.3505479761155
 20
-28.31763299515669
 30
0.0
  0
VERTEX
  5
119
330
70
100
AcDbEntity
  8
1_ANYTOOL_1MMDEEP_LABELS_S
100
AcDbVertex
100
AcDb2dVertex
 10
105.4872388243298
 20
-28.22061848622823
 30
0.0
  0
VERTEX
  5
11A
330
70
100
AcDbEntity
  8
1_ANYTOOL_1MMDEEP_LABELS_S
100
AcDbVertex
100
AcDb2dVertex
 10
105.6220881546869
 20
-28.12042317372834
 30
0.0
  0
VERTEX
  5
11B
330
70
100
AcDbEntity
  8
1_ANYTOOL_1MMDEEP_LABELS_S
100
AcDbVertex
100
AcDb2dVertex
 10
105.8872667261155
 20
-27.91316870944198
 30
0.0
  0
VERTEX
  5
11C
330
70
100
AcDbEntity
  8
1_ANYTOOL_1MMDEEP_LABELS_S
100
AcDbVertex
100
AcDb2dVertex
 10
106.1470881546869
 20
-27.69854817372709
 30
0.0
  0
VERTEX
  5
11D
330
70
100
AcDbEntity
  8
1_ANYTOOL_1MMDEEP_LABELS_S
100
AcDbVertex
100
AcDb2dVertex
 10
106.4015524404012
 20
-27.47656156658368
 30
0.0
  0
VERTEX
  5
11E
330
70
100
AcDbEntity
  8
1_ANYTOOL_1MMDEEP_LABELS_S
100
AcDbVertex
100
AcDb2dVertex
 10
106.6506595832583
 20
-27.24720888801176
 30
0.0
  0
VERTEX
  5
11F
330
70
100
AcDbEntity
  8
1_ANYTOOL_1MMDEEP_LABELS_S
100
AcDbVertex
100
AcDb2dVertex
 10
106.8944095832583
 20
-27.01049013801131
 30
0.0
  0
VERTEX
  5
120
330
70
100
AcDbEntity
  8
1_ANYTOOL_1MMDEEP_LABELS_S
100
AcDbVertex
100
AcDb2dVertex
 10
107.1328024404012
 20
-26.76640531658234
 30
0.0
  0
VERTEX
  5
121
330
70
100
AcDbEntity
  8
1_ANYTOOL_1MMDEEP_LABELS_S
100
AcDbVertex
100
AcDb2dVertex
 10
107.3658381546869
 20
-26.51495442372484
 30
0.0
  0
VERTEX
  5
122
330
70
100
AcDbEntity
  8
1_ANYTOOL_1MMDEEP_LABELS_S
100
AcDbVertex
100
AcDb2dVertex
 10
107.5935167261155
 20
-26.25613745943883
 30
0.0
  0
VERTEX
  5
123
330
70
100
AcDbEntity
  8
1_ANYTOOL_1MMDEEP_LABELS_S
100
AcDbVertex
100
AcDb2dVertex
 10
107.8158381546869
 20
-25.9899544237243
 30
0.0
  0
VERTEX
  5
124
330
70
100
AcDbEntity
  8
1_ANYTOOL_1MMDEEP_LABELS_S
100
AcDbVertex
100
AcDb2dVertex
 10
108.0328024404012
 20
-25.71640531658124
 30
0.0
  0
VERTEX
  5
125
330
70
100
AcDbEntity
  8
1_ANYTOOL_1MMDEEP_LABELS_S
100
AcDbVertex
100
AcDb2dVertex
 10
108.2444095832584
 20
-25.43549013800967
 30
0.0
  0
VERTEX
  5
126
330
70
100
AcDbEntity
  8
1_ANYTOOL_1MMDEEP_LABELS_S
100
AcDbVertex
100
AcDb2dVertex
 10
108.4506595832585
 20
-25.14720888800957
 30
0.0
  0
VERTEX
  5
127
330
70
100
AcDbEntity
  8
1_ANYTOOL_1MMDEEP_LABELS_S
100
AcDbVertex
100
AcDb2dVertex
 10
108.6515524404014
 20
-24.85156156658095
 30
0.0
  0
VERTEX
  5
128
330
70
100
AcDbEntity
  8
1_ANYTOOL_1MMDEEP_LABELS_S
100
AcDbVertex
100
AcDb2dVertex
 10
108.8470881546872
 20
-24.54854817372382
 30
0.0
  0
VERTEX
  5
129
330
70
100
AcDbEntity
  8
1_ANYTOOL_1MMDEEP_LABELS_S
100
AcDbVertex
100
AcDb2dVertex
 10
109.0372667261158
 20
-24.23816870943816
 30
0.0
  0
VERTEX
  5
12A
330
70
100
AcDbEntity
  8
1_ANYTOOL_1MMDEEP_LABELS_S
100
AcDbVertex
100
AcDb2dVertex
 10
109.2220881546873
 20
-23.92042317372398
 30
0.0
  0
SEQEND
  5
12B
330
70
100
AcDbEntity
  8
1_ANYTOOL_1MMDEEP_LABELS_S
  0
POLYLINE
  5
12D
330
1F
100
AcDbEntity
  8
3_ANYTOOL_CUTTHROUGH_INSID
100
AcDb2dPolyline
 66
     1
 10
0.0
 20
0.0
 30
-0.0000000000211919
 70
     1
  0
VERTEX
  5
12E
330
12D
100
AcDbEntity
  8
3_ANYTOOL_CUTTHROUGH_INSID
100
AcDbVertex
100
AcDb2dVertex
 10
-33.67155199723493
 20
-98.47439053047128
 30
-0.0000000000211919
  0
VERTEX
  5
12F
330
12D
100
AcDbEntity
  8
3_ANYTOOL_CUTTHROUGH_INSID
100
AcDbVertex
100
AcDb2dVertex
 10
-33.67155199720037
 20
-92.47439053047128
 30
-0.0000000000211919
  0
VERTEX
  5
130
330
12D
100
AcDbEntity
  8
3_ANYTOOL_CUTTHROUGH_INSID
100
AcDbVertex
100
AcDb2dVertex
 10
-21.17155199720582
 20
-92.47439053048583
 30
-0.0000000000211919
  0
VERTEX
  5
131
330
12D
100
AcDbEntity
  8
3_ANYTOOL_CUTTHROUGH_INSID
100
AcDbVertex
100
AcDb2dVertex
 10
-21.17155199721128
 20
-122.9743905304422
 30
-0.0000000000211919
  0
VERTEX
  5
132
330
12D
100
AcDbEntity
  8
3_ANYTOOL_CUTTHROUGH_INSID
100
AcDbVertex
100
AcDb2dVertex
 10
-33.67155199721128
 20
-122.9743905304422
 30
-0.0000000000211919
  0
VERTEX
  5
133
330
12D
100
AcDbEntity
  8
3_ANYTOOL_CUTTHROUGH_INSID
100
AcDbVertex
100
AcDb2dVertex
 10
-33.67155199718036
 20
-116.9743905304422
 30
-0.0000000000211919
  0
VERTEX
  5
134
330
12D
100
AcDbEntity
  8
3_ANYTOOL_CUTTHROUGH_INSID
100
AcDbVertex
100
AcDb2dVertex
 10
-84.17155199719309
 20
-116.9743905307987
 30
-0.0000000000211919
  0
VERTEX
  5
135
330
12D
100
AcDbEntity
  8
3_ANYTOOL_CUTTHROUGH_INSID
100
AcDbVertex
100
AcDb2dVertex
 10
-84.17155199719309
 20
-122.9743905307987
 30
-0.0000000000211919
  0
VERTEX
  5
136
330
12D
100
AcDbEntity
  8
3_ANYTOOL_CUTTHROUGH_INSID
100
AcDbVertex
100
AcDb2dVertex
 10
-96.67155199718945
 20
-122.9743905307987
 30
-0.0000000000211919
  0
VERTEX
  5
137
330
12D
100
AcDbEntity
  8
3_ANYTOOL_CUTTHROUGH_INSID
100
AcDbVertex
100
AcDb2dVertex
 10
-96.67155199718763
 20
-92.4743905308278
 30
-0.0000000000211919
  0
VERTEX
  5
138
330
12D
100
AcDbEntity
  8
3_ANYTOOL_CUTTHROUGH_INSID
100
AcDbVertex
100
AcDb2dVertex
 10
-84.171551997184
 20
-92.4743905308278
 30
-0.0000000000211919
  0
VERTEX
  5
139
330
12D
100
AcDbEntity
  8
3_ANYTOOL_CUTTHROUGH_INSID
100
AcDbVertex
100
AcDb2dVertex
 10
-84.17155199722038
 20
-98.4743905308278
 30
-0.0000000000211919
  0
SEQEND
  5
13A
330
12D
100
AcDbEntity
  8
3_ANYTOOL_CUTTHROUGH_INSID
  0
POLYLINE
  5
13B
330
1F
100
AcDbEntity
  8
3_ANYTOOL_CUTTHROUGH_INSID
100
AcDb2dPolyline
 66
     1
 10
0.0
 20
0.0
 30
-0.0000000000435065
 70
     1
  0
VERTEX
  5
13C
330
13B
100
AcDbEntity
  8
3_ANYTOOL_CUTTHROUGH_INSID
100
AcDbVertex
100
AcDb2dVertex
 10
116.328448002816
 20
-98.47439053027483
 30
-0.0000000000435065
  0
VERTEX
  5
13D
330
13B
100
AcDbEntity
  8
3_ANYTOOL_CUTTHROUGH_INSID
100
AcDbVertex
100
AcDb2dVertex
 10
116.3284480028269
 20
-92.47439053027483
 30
-0.0000000000435065
  0
VERTEX
  5
13E
330
13B
100
AcDbEntity
  8
3_ANYTOOL_CUTTHROUGH_INSID
100
AcDbVertex
100
AcDb2dVertex
 10
128.8284480028287
 20
-92.47439053028938
 30
-0.0000000000435065
  0
VERTEX
  5
13F
330
13B
100
AcDbEntity
  8
3_ANYTOOL_CUTTHROUGH_INSID
100
AcDbVertex
100
AcDb2dVertex
 10
128.8284480028397
 20
-122.9743905302603
 30
-0.0000000000435065
  0
VERTEX
  5
140
330
13B
100
AcDbEntity
  8
3_ANYTOOL_CUTTHROUGH_INSID
100
AcDbVertex
100
AcDb2dVertex
 10
116.3284480028433
 20
-122.9743905302457
 30
-0.0000000000435065
  0
VERTEX
  5
141
330
13B
100
AcDbEntity
  8
3_ANYTOOL_CUTTHROUGH_INSID
100
AcDbVertex
100
AcDb2dVertex
 10
116.3284480028469
 20
-116.9743905302457
 30
-0.0000000000435065
  0
VERTEX
  5
142
330
13B
100
AcDbEntity
  8
3_ANYTOOL_CUTTHROUGH_INSID
100
AcDbVertex
100
AcDb2dVertex
 10
65.82844800281055
 20
-116.9743905303112
 30
-0.0000000000435065
  0
VERTEX
  5
143
330
13B
100
AcDbEntity
  8
3_ANYTOOL_CUTTHROUGH_INSID
100
AcDbVertex
100
AcDb2dVertex
 10
65.82844800281055
 20
-122.9743905303112
 30
-0.0000000000435065
  0
VERTEX
  5
144
330
13B
100
AcDbEntity
  8
3_ANYTOOL_CUTTHROUGH_INSID
100
AcDbVertex
100
AcDb2dVertex
 10
53.32844800280691
 20
-122.9743905302967
 30
-0.0000000000435065
  0
VERTEX
  5
145
330
13B
100
AcDbEntity
  8
3_ANYTOOL_CUTTHROUGH_INSID
100
AcDbVertex
100
AcDb2dVertex
 10
53.32844800281418
 20
-92.47439053032576
 30
-0.0000000000435065
  0
VERTEX
  5
146
330
13B
100
AcDbEntity
  8
3_ANYTOOL_CUTTHROUGH_INSID
100
AcDbVertex
100
AcDb2dVertex
 10
65.82844800281964
 20
-92.47439053034032
 30
-0.0000000000435065
  0
VERTEX
  5
147
330
13B
100
AcDbEntity
  8
3_ANYTOOL_CUTTHROUGH_INSID
100
AcDbVertex
100
AcDb2dVertex
 10
65.82844800277962
 20
-98.47439053034032
 30
-0.0000000000435065
  0
SEQEND
  5
148
330
13B
100
AcDbEntity
  8
3_ANYTOOL_CUTTHROUGH_INSID
  0
POLYLINE
  5
149
330
1F
100
AcDbEntity
  8
3_ANYTOOL_CUTTHROUGH_INSID
100
AcDb2dPolyline
 66
     1
 10
0.0
 20
0.0
 30
-0.0000000000707843
 70
     1
  0
VERTEX
  5
14A
330
149
100
AcDbEntity
  8
3_ANYTOOL_CUTTHROUGH_INSID
100
AcDbVertex
100
AcDb2dVertex
 10
266.8284480254315
 20
3.105547303406638
 30
-0.0000000000707843
  0
VERTEX
  5
14B
330
149
100
AcDbEntity
  8
3_ANYTOOL_CUTTHROUGH_INSID
100
AcDbVertex
100
AcDb2dVertex
 10
266.8284480254315
 20
15.60554730340664
 30
-0.0000000000707843
  0
VERTEX
  5
14C
330
149
100
AcDbEntity
  8
3_ANYTOOL_CUTTHROUGH_INSID
100
AcDbVertex
100
AcDb2dVertex
 10
272.828448025437
 20
15.60554730339209
 30
-0.0000000000707843
  0
VERTEX
  5
14D
330
149
100
AcDbEntity
  8
3_ANYTOOL_CUTTHROUGH_INSID
100
AcDbVertex
100
AcDb2dVertex
 10
272.8284480254333
 20
61.10554730340664
 30
-0.0000000000707843
  0
VERTEX
  5
14E
330
149
100
AcDbEntity
  8
3_ANYTOOL_CUTTHROUGH_INSID
100
AcDbVertex
100
AcDb2dVertex
 10
266.8284480254315
 20
61.10554730340664
 30
-0.0000000000707843
  0
VERTEX
  5
14F
330
149
100
AcDbEntity
  8
3_ANYTOOL_CUTTHROUGH_INSID
100
AcDbVertex
100
AcDb2dVertex
 10
266.8284480254315
 20
73.60554730343574
 30
-0.0000000000707843
  0
VERTEX
  5
150
330
149
100
AcDbEntity
  8
3_ANYTOOL_CUTTHROUGH_INSID
100
AcDbVertex
100
AcDb2dVertex
 10
297.3284480254461
 20
73.60554730344302
 30
-0.0000000000707843
  0
VERTEX
  5
151
330
149
100
AcDbEntity
  8
3_ANYTOOL_CUTTHROUGH_INSID
100
AcDbVertex
100
AcDb2dVertex
 10
297.3284480254479
 20
61.10554730341391
 30
-0.0000000000707843
  0
VERTEX
  5
152
330
149
100
AcDbEntity
  8
3_ANYTOOL_CUTTHROUGH_INSID
100
AcDbVertex
100
AcDb2dVertex
 10
291.3284480254461
 20
61.10554730341391
 30
-0.0000000000707843
  0
VERTEX
  5
153
330
149
100
AcDbEntity
  8
3_ANYTOOL_CUTTHROUGH_INSID
100
AcDbVertex
100
AcDb2dVertex
 10
291.3284480254461
 20
15.60554730341391
 30
-0.0000000000707843
  0
VERTEX
  5
154
330
149
100
AcDbEntity
  8
3_ANYTOOL_CUTTHROUGH_INSID
100
AcDbVertex
100
AcDb2dVertex
 10
297.3284480254461
 20
15.60554730341391
 30
-0.0000000000707843
  0
VERTEX
  5
155
330
149
100
AcDbEntity
  8
3_ANYTOOL_CUTTHROUGH_INSID
100
AcDbVertex
100
AcDb2dVertex
 10
297.3284480254461
 20
3.105547303413914
 30
-0.0000000000707843
  0
SEQEND
  5
156
330
149
100
AcDbEntity
  8
3_ANYTOOL_CUTTHROUGH_INSID
  0
POLYLINE
  5
157
330
1F
100
AcDbEntity
  8
3_ANYTOOL_CUTTHROUGH_INSID
100
AcDb2dPolyline
 66
     1
 10
0.0
 20
0.0
 30
0.0000000000011298
 70
     1
  0
VERTEX
  5
158
330
157
100
AcDbEntity
  8
3_ANYTOOL_CUTTHROUGH_INSID
100
AcDbVertex
100
AcDb2dVertex
 10
-183.6715519972058
 20
-98.47439053095877
 30
0.0000000000011298
  0
VERTEX
  5
159
330
157
100
AcDbEntity
  8
3_ANYTOOL_CUTTHROUGH_INSID
100
AcDbVertex
100
AcDb2dVertex
 10
-183.6715519971985
 20
-92.47439053095877
 30
0.0000000000011298
  0
VERTEX
  5
15A
330
157
100
AcDbEntity
  8
3_ANYTOOL_CUTTHROUGH_INSID
100
AcDbVertex
100
AcDb2dVertex
 10
-171.1715519971967
 20
-92.47439053097332
 30
0.0000000000011298
  0
VERTEX
  5
15B
330
157
100
AcDbEntity
  8
3_ANYTOOL_CUTTHROUGH_INSID
100
AcDbVertex
100
AcDb2dVertex
 10
-171.1715519971858
 20
-122.9743905309369
 30
0.0000000000011298
  0
VERTEX
  5
15C
330
157
100
AcDbEntity
  8
3_ANYTOOL_CUTTHROUGH_INSID
100
AcDbVertex
100
AcDb2dVertex
 10
-183.6715519971804
 20
-122.9743905309297
 30
0.0000000000011298
  0
VERTEX
  5
15D
330
157
100
AcDbEntity
  8
3_ANYTOOL_CUTTHROUGH_INSID
100
AcDbVertex
100
AcDb2dVertex
 10
-183.6715519971804
 20
-116.9743905309297
 30
0.0000000000011298
  0
VERTEX
  5
15E
330
157
100
AcDbEntity
  8
3_ANYTOOL_CUTTHROUGH_INSID
100
AcDbVertex
100
AcDb2dVertex
 10
-234.1715518743877
 20
-116.9743905303112
 30
0.0000000000011298
  0
VERTEX
  5
15F
330
157
100
AcDbEntity
  8
3_ANYTOOL_CUTTHROUGH_INSID
100
AcDbVertex
100
AcDb2dVertex
 10
-234.1715518743913
 20
-122.9743905303112
 30
0.0000000000011298
  0
VERTEX
  5
160
330
157
100
AcDbEntity
  8
3_ANYTOOL_CUTTHROUGH_INSID
100
AcDbVertex
100
AcDb2dVertex
 10
-246.6715518743858
 20
-122.974390530333
 30
0.0000000000011298
  0
VERTEX
  5
161
330
157
100
AcDbEntity
  8
3_ANYTOOL_CUTTHROUGH_INSID
100
AcDbVertex
100
AcDb2dVertex
 10
-246.6715518743549
 20
-92.4743905303767
 30
0.0000000000011298
  0
VERTEX
  5
162
330
157
100
AcDbEntity
  8
3_ANYTOOL_CUTTHROUGH_INSID
100
AcDbVertex
100
AcDb2dVertex
 10
-234.1715518743567
 20
-92.47439053035487
 30
0.0000000000011298
  0
VERTEX
  5
163
330
157
100
AcDbEntity
  8
3_ANYTOOL_CUTTHROUGH_INSID
100
AcDbVertex
100
AcDb2dVertex
 10
-234.1715518743567
 20
-98.47439053034759
 30
0.0000000000011298
  0
SEQEND
  5
164
330
157
100
AcDbEntity
  8
3_ANYTOOL_CUTTHROUGH_INSID
  0
POLYLINE
  5
165
330
1F
100
AcDbEntity
  8
3_ANYTOOL_CUTTHROUGH_INSID
100
AcDb2dPolyline
 66
     1
 10
0.0
 20
0.0
 30
0.000000000051223
 70
     1
  0
VERTEX
  5
166
330
165
100
AcDbEntity
  8
3_ANYTOOL_CUTTHROUGH_INSID
100
AcDbVertex
100
AcDb2dVertex
 10
-333.6715518173405
 20
-98.47439053109701
 30
0.000000000051223
  0
VERTEX
  5
167
330
165
100
AcDbEntity
  8
3_ANYTOOL_CUTTHROUGH_INSID
100
AcDbVertex
100
AcDb2dVertex
 10
-384.1715518173824
 20
-98.47439053116977
 30
0.000000000051223
  0
VERTEX
  5
168
330
165
100
AcDbEntity
  8
3_ANYTOOL_CUTTHROUGH_INSID
100
AcDbVertex
100
AcDb2dVertex
 10
-384.1715518173532
 20
-92.47439053116977
 30
0.000000000051223
  0
VERTEX
  5
169
330
165
100
AcDbEntity
  8
3_ANYTOOL_CUTTHROUGH_INSID
100
AcDbVertex
100
AcDb2dVertex
 10
-396.6715518173569
 20
-92.47439053116977
 30
0.000000000051223
  0
VERTEX
  5
16A
330
165
100
AcDbEntity
  8
3_ANYTOOL_CUTTHROUGH_INSID
100
AcDbVertex
100
AcDb2dVertex
 10
-396.6715518173551
 20
-122.9743905311261
 30
0.000000000051223
  0
VERTEX
  5
16B
330
165
100
AcDbEntity
  8
3_ANYTOOL_CUTTHROUGH_INSID
100
AcDbVertex
100
AcDb2dVertex
 10
-384.1715518173605
 20
-122.9743905311334
 30
0.000000000051223
  0
VERTEX
  5
16C
330
165
100
AcDbEntity
  8
3_ANYTOOL_CUTTHROUGH_INSID
100
AcDbVertex
100
AcDb2dVertex
 10
-384.1715518173605
 20
-116.9743905311334
 30
0.000000000051223
  0
VERTEX
  5
16D
330
165
100
AcDbEntity
  8
3_ANYTOOL_CUTTHROUGH_INSID
100
AcDbVertex
100
AcDb2dVertex
 10
-333.6715518173205
 20
-116.9743905310606
 30
0.000000000051223
  0
VERTEX
  5
16E
330
165
100
AcDbEntity
  8
3_ANYTOOL_CUTTHROUGH_INSID
100
AcDbVertex
100
AcDb2dVertex
 10
-333.6715518173205
 20
-122.9743905310606
 30
0.000000000051223
  0
VERTEX
  5
16F
330
165
100
AcDbEntity
  8
3_ANYTOOL_CUTTHROUGH_INSID
100
AcDbVertex
100
AcDb2dVertex
 10
-321.1715518173114
 20
-122.9743905310752
 30
0.000000000051223
  0
VERTEX
  5
170
330
165
100
AcDbEntity
  8
3_ANYTOOL_CUTTHROUGH_INSID
100
AcDbVertex
100
AcDb2dVertex
 10
-321.1715518173387
 20
-92.47439053111884
 30
0.000000000051223
  0
VERTEX
  5
171
330
165
100
AcDbEntity
  8
3_ANYTOOL_CUTTHROUGH_INSID
100
AcDbVertex
100
AcDb2dVertex
 10
-333.6715518173405
 20
-92.47439053109701
 30
0.000000000051223
  0
SEQEND
  5
172
330
165
100
AcDbEntity
  8
3_ANYTOOL_CUTTHROUGH_INSID
  0
POLYLINE
  5
174
330
1F
100
AcDbEntity
  8
4_ANYTOOL_CUTTHROUGH_OUTSI
100
AcDb2dPolyline
 66
     1
 10
0.0
 20
0.0
 30
0.0
 70
     1
  0
VERTEX
  5
175
330
174
100
AcDbEntity
  8
4_ANYTOOL_CUTTHROUGH_OUTSI
100
AcDbVertex
100
AcDb2dVertex
 10
-178.2671147509955
 20
193.0256094673823
 30
0.0
  0
VERTEX
  5
176
330
174
100
AcDbEntity
  8
4_ANYTOOL_CUTTHROUGH_OUTSI
100
AcDbVertex
100
AcDb2dVertex
 10
-190.6715520025136
 20
193.0256094673678
 30
0.0
  0
VERTEX
  5
177
330
174
100
AcDbEntity
  8
4_ANYTOOL_CUTTHROUGH_OUTSI
100
AcDbVertex
100
AcDb2dVertex
 10
-190.6715520025155
 20
115.5256094673678
 30
0.0
  0
VERTEX
  5
178
330
174
100
AcDbEntity
  8
4_ANYTOOL_CUTTHROUGH_OUTSI
100
AcDbVertex
100
AcDb2dVertex
 10
-184.9215520025045
 20
115.5256094673678
 30
0.0
 42
-0.4142135623828063
  0
VERTEX
  5
179
330
174
100
AcDbEntity
  8
4_ANYTOOL_CUTTHROUGH_OUTSI
100
AcDbVertex
100
AcDb2dVertex
 10
-184.6715520025045
 20
115.2756094673678
 30
0.0
  0
VERTEX
  5
17A
330
174
100
AcDbEntity
  8
4_ANYTOOL_CUTTHROUGH_OUTSI
100
AcDbVertex
100
AcDb2dVertex
 10
-184.67155200251
 20
103.2756094673678
 30
0.0
 42
-0.4142135376069752
  0
VERTEX
  5
17B
330
174
100
AcDbEntity
  8
4_ANYTOOL_CUTTHROUGH_OUTSI
100
AcDbVertex
100
AcDb2dVertex
 10
-184.9215519813751
 20
103.0256094673677
 30
0.0
  0
VERTEX
  5
17C
330
174
100
AcDbEntity
  8
4_ANYTOOL_CUTTHROUGH_OUTSI
100
AcDbVertex
100
AcDb2dVertex
 10
-232.9215519799982
 20
103.0256054096462
 30
0.0
 42
-0.4142135871431177
  0
VERTEX
  5
17D
330
174
100
AcDbEntity
  8
4_ANYTOOL_CUTTHROUGH_OUTSI
100
AcDbVertex
100
AcDb2dVertex
 10
-233.1715520011312
 20
103.2756054096462
 30
0.0
  0
VERTEX
  5
17E
330
174
100
AcDbEntity
  8
4_ANYTOOL_CUTTHROUGH_OUTSI
100
AcDbVertex
100
AcDb2dVertex
 10
-233.1715520011039
 20
115.2756054096462
 30
0.0
 42
-0.4142135623752546
  0
VERTEX
  5
17F
330
174
100
AcDbEntity
  8
4_ANYTOOL_CUTTHROUGH_OUTSI
100
AcDbVertex
100
AcDb2dVertex
 10
-232.9215520011039
 20
115.5256054096462
 30
0.0
  0
VERTEX
  5
180
330
174
100
AcDbEntity
  8
4_ANYTOOL_CUTTHROUGH_OUTSI
100
AcDbVertex
100
AcDb2dVertex
 10
-227.1715520011003
 20
115.5256054096317
 30
0.0
  0
VERTEX
  5
181
330
174
100
AcDbEntity
  8
4_ANYTOOL_CUTTHROUGH_OUTSI
100
AcDbVertex
100
AcDb2dVertex
 10
-227.1715520020553
 20
193.0256094672441
 30
0.0
  0
VERTEX
  5
182
330
174
100
AcDbEntity
  8
4_ANYTOOL_CUTTHROUGH_OUTSI
100
AcDbVertex
100
AcDb2dVertex
 10
-239.5759892535789
 20
193.0256094672586
 30
0.0
 42
-0.3178372451961292
  0
VERTEX
  5
183
330
174
100
AcDbEntity
  8
4_ANYTOOL_CUTTHROUGH_OUTSI
100
AcDbVertex
100
AcDb2dVertex
 10
-245.4685457634641
 20
197.1922761339083
 30
0.0
 42
0.7071067811892751
  0
VERTEX
  5
184
330
174
100
AcDbEntity
  8
4_ANYTOOL_CUTTHROUGH_OUTSI
100
AcDbVertex
100
AcDb2dVertex
 10
-267.6245582406464
 20
197.1922761339083
 30
0.0
 42
-0.3178372451943359
  0
VERTEX
  5
185
330
174
100
AcDbEntity
  8
4_ANYTOOL_CUTTHROUGH_OUTSI
100
AcDbVertex
100
AcDb2dVertex
 10
-273.5171147505371
 20
193.0256094672513
 30
0.0
  0
VERTEX
  5
186
330
174
100
AcDbEntity
  8
4_ANYTOOL_CUTTHROUGH_OUTSI
100
AcDbVertex
100
AcDb2dVertex
 10
-285.9161146486076
 20
193.0256094672732
 30
0.0
  0
VERTEX
  5
187
330
174
100
AcDbEntity
  8
4_ANYTOOL_CUTTHROUGH_OUTSI
100
AcDbVertex
100
AcDb2dVertex
 10
-285.6811206396692
 20
191.6307392669813
 30
0.0
  0
VERTEX
  5
188
330
174
100
AcDbEntity
  8
4_ANYTOOL_CUTTHROUGH_OUTSI
100
AcDbVertex
100
AcDb2dVertex
 10
-268.7855874129964
 20
143.3581970734813
 30
0.0
  0
VERTEX
  5
189
330
174
100
AcDbEntity
  8
4_ANYTOOL_CUTTHROUGH_OUTSI
100
AcDbVertex
100
AcDb2dVertex
 10
-268.7715520020884
 20
143.2756094673023
 30
0.0
 42
-0.4142135623739926
  0
VERTEX
  5
18A
330
174
100
AcDbEntity
  8
4_ANYTOOL_CUTTHROUGH_OUTSI
100
AcDbVertex
100
AcDb2dVertex
 10
-275.0215520021102
 20
137.0256094673022
 30
0.0
  0
VERTEX
  5
18B
330
174
100
AcDbEntity
  8
4_ANYTOOL_CUTTHROUGH_OUTSI
100
AcDbVertex
100
AcDb2dVertex
 10
-353.0215520020793
 20
137.0256094672877
 30
0.0
 42
-0.4142135623734458
  0
VERTEX
  5
18C
330
174
100
AcDbEntity
  8
4_ANYTOOL_CUTTHROUGH_OUTSI
100
AcDbVertex
100
AcDb2dVertex
 10
-359.2715520021101
 20
143.2756094673023
 30
0.0
  0
VERTEX
  5
18D
330
174
100
AcDbEntity
  8
4_ANYTOOL_CUTTHROUGH_OUTSI
100
AcDbVertex
100
AcDb2dVertex
 10
-359.2575165912003
 20
143.358197073474
 30
0.0
  0
VERTEX
  5
18E
330
174
100
AcDbEntity
  8
4_ANYTOOL_CUTTHROUGH_OUTSI
100
AcDbVertex
100
AcDb2dVertex
 10
-342.3584035967506
 20
191.6418042463483
 30
0.0
  0
VERTEX
  5
18F
330
174
100
AcDbEntity
  8
4_ANYTOOL_CUTTHROUGH_OUTSI
100
AcDbVertex
100
AcDb2dVertex
 10
-342.1269893555506
 20
193.0256094672697
 30
0.0
  0
VERTEX
  5
190
330
174
100
AcDbEntity
  8
4_ANYTOOL_CUTTHROUGH_OUTSI
100
AcDbVertex
100
AcDb2dVertex
 10
-381.221552001738
 20
193.0256094672368
 30
0.0
  0
VERTEX
  5
191
330
174
100
AcDbEntity
  8
4_ANYTOOL_CUTTHROUGH_OUTSI
100
AcDbVertex
100
AcDb2dVertex
 10
-381.2215520017417
 20
169.2756094672295
 30
0.0
 42
-0.4142135623742937
  0
VERTEX
  5
192
330
174
100
AcDbEntity
  8
4_ANYTOOL_CUTTHROUGH_OUTSI
100
AcDbVertex
100
AcDb2dVertex
 10
-381.4715520017417
 20
169.0256094672295
 30
0.0
  0
VERTEX
  5
193
330
174
100
AcDbEntity
  8
4_ANYTOOL_CUTTHROUGH_OUTSI
100
AcDbVertex
100
AcDb2dVertex
 10
-393.4715520017471
 20
169.0256094672295
 30
0.0
 42
-0.414213562378979
  0
VERTEX
  5
194
330
174
100
AcDbEntity
  8
4_ANYTOOL_CUTTHROUGH_OUTSI
100
AcDbVertex
100
AcDb2dVertex
 10
-393.7215520017471
 20
169.2756094672295
 30
0.0
  0
VERTEX
  5
195
330
174
100
AcDbEntity
  8
4_ANYTOOL_CUTTHROUGH_OUTSI
100
AcDbVertex
100
AcDb2dVertex
 10
-393.7215520017453
 20
175.0256094672295
 30
0.0
  0
VERTEX
  5
196
330
174
100
AcDbEntity
  8
4_ANYTOOL_CUTTHROUGH_OUTSI
100
AcDbVertex
100
AcDb2dVertex
 10
-429.2215520017489
 20
175.025609467215
 30
0.0
  0
VERTEX
  5
197
330
174
100
AcDbEntity
  8
4_ANYTOOL_CUTTHROUGH_OUTSI
100
AcDbVertex
100
AcDb2dVertex
 10
-429.2215520017489
 20
169.275609467215
 30
0.0
 42
-0.4142135623697652
  0
VERTEX
  5
198
330
174
100
AcDbEntity
  8
4_ANYTOOL_CUTTHROUGH_OUTSI
100
AcDbVertex
100
AcDb2dVertex
 10
-429.4715520017489
 20
169.025609467215
 30
0.0
  0
VERTEX
  5
199
330
174
100
AcDbEntity
  8
4_ANYTOOL_CUTTHROUGH_OUTSI
100
AcDbVertex
100
AcDb2dVertex
 10
-441.4715520017544
 20
169.0256094672077
 30
0.0
 42
-0.4142135623848786
  0
VERTEX
  5
19A
330
174
100
AcDbEntity
  8
4_ANYTOOL_CUTTHROUGH_OUTSI
100
AcDbVertex
100
AcDb2dVertex
 10
-441.7215520017544
 20
169.2756094672077
 30
0.0
  0
VERTEX
  5
19B
330
174
100
AcDbEntity
  8
4_ANYTOOL_CUTTHROUGH_OUTSI
100
AcDbVertex
100
AcDb2dVertex
 10
-441.7215520017471
 20
193.0256094671859
 30
0.0
  0
VERTEX
  5
19C
330
174
100
AcDbEntity
  8
4_ANYTOOL_CUTTHROUGH_OUTSI
100
AcDbVertex
100
AcDb2dVertex
 10
-480.8161146479324
 20
193.025609467164
 30
0.0
  0
VERTEX
  5
19D
330
174
100
AcDbEntity
  8
4_ANYTOOL_CUTTHROUGH_OUTSI
100
AcDbVertex
100
AcDb2dVertex
 10
-480.5811206389796
 20
191.6307392668451
 30
0.0
  0
VERTEX
  5
19E
330
174
100
AcDbEntity
  8
4_ANYTOOL_CUTTHROUGH_OUTSI
100
AcDbVertex
100
AcDb2dVertex
 10
-463.6855874123012
 20
143.358197073343
 30
0.0
  0
VERTEX
  5
19F
330
174
100
AcDbEntity
  8
4_ANYTOOL_CUTTHROUGH_OUTSI
100
AcDbVertex
100
AcDb2dVertex
 10
-463.6715520013931
 20
143.275609467164
 30
0.0
 42
-0.4142135623735461
  0
VERTEX
  5
1A0
330
174
100
AcDbEntity
  8
4_ANYTOOL_CUTTHROUGH_OUTSI
100
AcDbVertex
100
AcDb2dVertex
 10
-469.9215520014186
 20
137.0256094671568
 30
0.0
  0
VERTEX
  5
1A1
330
174
100
AcDbEntity
  8
4_ANYTOOL_CUTTHROUGH_OUTSI
100
AcDbVertex
100
AcDb2dVertex
 10
-508.671552017202
 20
137.0256094671568
 30
0.0
  0
VERTEX
  5
1A2
330
174
100
AcDbEntity
  8
4_ANYTOOL_CUTTHROUGH_OUTSI
100
AcDbVertex
100
AcDb2dVertex
 10
-508.6715575731268
 20
47.29914128620294
 30
0.0
 42
-0.4114512520665055
  0
VERTEX
  5
1A3
330
174
100
AcDbEntity
  8
4_ANYTOOL_CUTTHROUGH_OUTSI
100
AcDbVertex
100
AcDb2dVertex
 10
-514.921284574104
 20
41.10697003063257
 30
0.0
  0
VERTEX
  5
1A4
330
174
100
AcDbEntity
  8
4_ANYTOOL_CUTTHROUGH_OUTSI
100
AcDbVertex
100
AcDb2dVertex
 10
-515.0038727718711
 20
41.12100564859429
 30
0.0
  0
VERTEX
  5
1A5
330
174
100
AcDbEntity
  8
4_ANYTOOL_CUTTHROUGH_OUTSI
100
AcDbVertex
100
AcDb2dVertex
 10
-564.963332073643
 20
58.60695700080396
 30
0.0
 42
0.4120733481077659
  0
VERTEX
  5
1A6
330
174
100
AcDbEntity
  8
4_ANYTOOL_CUTTHROUGH_OUTSI
100
AcDbVertex
100
AcDb2dVertex
 10
-570.6712845741076
 20
52.85711074131541
 30
0.0
  0
VERTEX
  5
1A7
330
174
100
AcDbEntity
  8
4_ANYTOOL_CUTTHROUGH_OUTSI
100
AcDbVertex
100
AcDb2dVertex
 10
-570.6712845741313
 20
-25.14288925867731
 30
0.0
 42
0.4120733481044037
  0
VERTEX
  5
1A8
330
174
100
AcDbEntity
  8
4_ANYTOOL_CUTTHROUGH_OUTSI
100
AcDbVertex
100
AcDb2dVertex
 10
-564.9633320736448
 20
-30.89273551817311
 30
0.0
  0
VERTEX
  5
1A9
330
174
100
AcDbEntity
  8
4_ANYTOOL_CUTTHROUGH_OUTSI
100
AcDbVertex
100
AcDb2dVertex
 10
-515.0038727718875
 20
-13.40678416591982
 30
0.0
  0
VERTEX
  5
1AA
330
174
100
AcDbEntity
  8
4_ANYTOOL_CUTTHROUGH_OUTSI
100
AcDbVertex
100
AcDb2dVertex
 10
-514.9212845741222
 20
-13.39274854795804
 30
0.0
 42
-0.414213562373319
  0
VERTEX
  5
1AB
330
174
100
AcDbEntity
  8
4_ANYTOOL_CUTTHROUGH_OUTSI
100
AcDbVertex
100
AcDb2dVertex
 10
-508.6712845741222
 20
-19.64274897066934
 30
0.0
  0
VERTEX
  5
1AC
330
174
100
AcDbEntity
  8
4_ANYTOOL_CUTTHROUGH_OUTSI
100
AcDbVertex
100
AcDb2dVertex
 10
-508.6715520018151
 20
-186.474390532625
 30
0.0
  0
VERTEX
  5
1AD
330
174
100
AcDbEntity
  8
4_ANYTOOL_CUTTHROUGH_OUTSI
100
AcDbVertex
100
AcDb2dVertex
 10
408.8284479976101
 20
-186.4743905326541
 30
0.0
  0
VERTEX
  5
1AE
330
174
100
AcDbEntity
  8
4_ANYTOOL_CUTTHROUGH_OUTSI
100
AcDbVertex
100
AcDb2dVertex
 10
408.8284479976264
 20
-48.97439053237758
 30
0.0
  0
VERTEX
  5
1AF
330
174
100
AcDbEntity
  8
4_ANYTOOL_CUTTHROUGH_OUTSI
100
AcDbVertex
100
AcDb2dVertex
 10
403.0784479976246
 20
-48.97439053234848
 30
0.0
 42
-0.4142135623868995
  0
VERTEX
  5
1B0
330
174
100
AcDbEntity
  8
4_ANYTOOL_CUTTHROUGH_OUTSI
100
AcDbVertex
100
AcDb2dVertex
 10
402.8284479976282
 20
-48.72439053234848
 30
0.0
  0
VERTEX
  5
1B1
330
174
100
AcDbEntity
  8
4_ANYTOOL_CUTTHROUGH_OUTSI
100
AcDbVertex
100
AcDb2dVertex
 10
402.8284479976264
 20
-36.72439053239214
 30
0.0
 42
-0.4142135623714355
  0
VERTEX
  5
1B2
330
174
100
AcDbEntity
  8
4_ANYTOOL_CUTTHROUGH_OUTSI
100
AcDbVertex
100
AcDb2dVertex
 10
403.0784479976264
 20
-36.47439053239208
 30
0.0
  0
VERTEX
  5
1B3
330
174
100
AcDbEntity
  8
4_ANYTOOL_CUTTHROUGH_OUTSI
100
AcDbVertex
100
AcDb2dVertex
 10
558.8284479976664
 20
-36.4743905323412
 30
0.0
  0
VERTEX
  5
1B4
330
174
100
AcDbEntity
  8
4_ANYTOOL_CUTTHROUGH_OUTSI
100
AcDbVertex
100
AcDb2dVertex
 10
558.828447997681
 20
36.02560946924496
 30
0.0
  0
VERTEX
  5
1B5
330
174
100
AcDbEntity
  8
4_ANYTOOL_CUTTHROUGH_OUTSI
100
AcDbVertex
100
AcDb2dVertex
 10
553.0784479976792
 20
36.02560946923768
 30
0.0
 42
-0.4142135623723804
  0
VERTEX
  5
1B6
330
174
100
AcDbEntity
  8
4_ANYTOOL_CUTTHROUGH_OUTSI
100
AcDbVertex
100
AcDb2dVertex
 10
552.8284479976792
 20
36.27560946923768
 30
0.0
  0
VERTEX
  5
1B7
330
174
100
AcDbEntity
  8
4_ANYTOOL_CUTTHROUGH_OUTSI
100
AcDbVertex
100
AcDb2dVertex
 10
552.8284479976719
 20
48.27560946923768
 30
0.0
 42
-0.4142135623543056
  0
VERTEX
  5
1B8
330
174
100
AcDbEntity
  8
4_ANYTOOL_CUTTHROUGH_OUTSI
100
AcDbVertex
100
AcDb2dVertex
 10
553.0784479976719
 20
48.52560946923763
 30
0.0
  0
VERTEX
  5
1B9
330
174
100
AcDbEntity
  8
4_ANYTOOL_CUTTHROUGH_OUTSI
100
AcDbVertex
100
AcDb2dVertex
 10
576.828447997681
 20
48.52560946925951
 30
0.0
  0
VERTEX
  5
1BA
330
174
100
AcDbEntity
  8
4_ANYTOOL_CUTTHROUGH_OUTSI
100
AcDbVertex
100
AcDb2dVertex
 10
576.8284479976883
 20
193.0256094692304
 30
0.0
  0
VERTEX
  5
1BB
330
174
100
AcDbEntity
  8
4_ANYTOOL_CUTTHROUGH_OUTSI
100
AcDbVertex
100
AcDb2dVertex
 10
543.0784479977083
 20
193.025609470882
 30
0.0
 42
-0.4142135623531965
  0
VERTEX
  5
1BC
330
174
100
AcDbEntity
  8
4_ANYTOOL_CUTTHROUGH_OUTSI
100
AcDbVertex
100
AcDb2dVertex
 10
542.8284479977247
 20
193.275609470882
 30
0.0
  0
VERTEX
  5
1BD
330
174
100
AcDbEntity
  8
4_ANYTOOL_CUTTHROUGH_OUTSI
100
AcDbVertex
100
AcDb2dVertex
 10
542.828447997721
 20
211.0256094708675
 30
0.0
  0
VERTEX
  5
1BE
330
174
100
AcDbEntity
  8
4_ANYTOOL_CUTTHROUGH_OUTSI
100
AcDbVertex
100
AcDb2dVertex
 10
511.2394479977702
 20
211.0256094708748
 30
0.0
  0
VERTEX
  5
1BF
330
174
100
AcDbEntity
  8
4_ANYTOOL_CUTTHROUGH_OUTSI
100
AcDbVertex
100
AcDb2dVertex
 10
511.2394479977702
 20
187.2756094710639
 30
0.0
 42
-0.4142135623347454
  0
VERTEX
  5
1C0
330
174
100
AcDbEntity
  8
4_ANYTOOL_CUTTHROUGH_OUTSI
100
AcDbVertex
100
AcDb2dVertex
 10
510.9894479977702
 20
187.0256094710639
 30
0.0
  0
VERTEX
  5
1C1
330
174
100
AcDbEntity
  8
4_ANYTOOL_CUTTHROUGH_OUTSI
100
AcDbVertex
100
AcDb2dVertex
 10
498.9894479977665
 20
187.0256094710639
 30
0.0
 42
-0.4142135623506721
  0
VERTEX
  5
1C2
330
174
100
AcDbEntity
  8
4_ANYTOOL_CUTTHROUGH_OUTSI
100
AcDbVertex
100
AcDb2dVertex
 10
498.7394479977629
 20
187.2756094710639
 30
0.0
  0
VERTEX
  5
1C3
330
174
100
AcDbEntity
  8
4_ANYTOOL_CUTTHROUGH_OUTSI
100
AcDbVertex
100
AcDb2dVertex
 10
498.7394479977665
 20
193.0256094711222
 30
0.0
  0
VERTEX
  5
1C4
330
174
100
AcDbEntity
  8
4_ANYTOOL_CUTTHROUGH_OUTSI
100
AcDbVertex
100
AcDb2dVertex
 10
485.3284479978083
 20
193.0256094711513
 30
0.0
  0
VERTEX
  5
1C5
330
174
100
AcDbEntity
  8
4_ANYTOOL_CUTTHROUGH_OUTSI
100
AcDbVertex
100
AcDb2dVertex
 10
485.3284479978083
 20
187.2756094711513
 30
0.0
 42
-0.4142135623713805
  0
VERTEX
  5
1C6
330
174
100
AcDbEntity
  8
4_ANYTOOL_CUTTHROUGH_OUTSI
100
AcDbVertex
100
AcDb2dVertex
 10
485.0784479978083
 20
187.0256094711586
 30
0.0
  0
VERTEX
  5
1C7
330
174
100
AcDbEntity
  8
4_ANYTOOL_CUTTHROUGH_OUTSI
100
AcDbVertex
100
AcDb2dVertex
 10
473.0784479978065
 20
187.0256094711367
 30
0.0
 42
-0.4142135623411654
  0
VERTEX
  5
1C8
330
174
100
AcDbEntity
  8
4_ANYTOOL_CUTTHROUGH_OUTSI
100
AcDbVertex
100
AcDb2dVertex
 10
472.8284479978047
 20
187.2756094711294
 30
0.0
  0
VERTEX
  5
1C9
330
174
100
AcDbEntity
  8
4_ANYTOOL_CUTTHROUGH_OUTSI
100
AcDbVertex
100
AcDb2dVertex
 10
472.8284479978047
 20
211.0256094708602
 30
0.0
  0
VERTEX
  5
1CA
330
174
100
AcDbEntity
  8
4_ANYTOOL_CUTTHROUGH_OUTSI
100
AcDbVertex
100
AcDb2dVertex
 10
438.3284479978411
 20
211.0256094708529
 30
0.0
  0
VERTEX
  5
1CB
330
174
100
AcDbEntity
  8
4_ANYTOOL_CUTTHROUGH_OUTSI
100
AcDbVertex
100
AcDb2dVertex
 10
438.3284479978429
 20
187.2756094709111
 30
0.0
 42
-0.4142135623861399
  0
VERTEX
  5
1CC
330
174
100
AcDbEntity
  8
4_ANYTOOL_CUTTHROUGH_OUTSI
100
AcDbVertex
100
AcDb2dVertex
 10
438.0784479978429
 20
187.025609470911
 30
0.0
  0
VERTEX
  5
1CD
330
174
100
AcDbEntity
  8
4_ANYTOOL_CUTTHROUGH_OUTSI
100
AcDbVertex
100
AcDb2dVertex
 10
426.0784479978429
 20
187.0256094709111
 30
0.0
 42
-0.4142135623704272
  0
VERTEX
  5
1CE
330
174
100
AcDbEntity
  8
4_ANYTOOL_CUTTHROUGH_OUTSI
100
AcDbVertex
100
AcDb2dVertex
 10
425.8284479978429
 20
187.2756094709111
 30
0.0
  0
VERTEX
  5
1CF
330
174
100
AcDbEntity
  8
4_ANYTOOL_CUTTHROUGH_OUTSI
100
AcDbVertex
100
AcDb2dVertex
 10
425.8284479978429
 20
193.0256094706929
 30
0.0
  0
VERTEX
  5
1D0
330
174
100
AcDbEntity
  8
4_ANYTOOL_CUTTHROUGH_OUTSI
100
AcDbVertex
100
AcDb2dVertex
 10
409.3284479949107
 20
193.0256094678407
 30
0.0
  0
VERTEX
  5
1D1
330
174
100
AcDbEntity
  8
4_ANYTOOL_CUTTHROUGH_OUTSI
100
AcDbVertex
100
AcDb2dVertex
 10
409.3284479968861
 20
90.525609467506
 30
0.0
  0
VERTEX
  5
1D2
330
174
100
AcDbEntity
  8
4_ANYTOOL_CUTTHROUGH_OUTSI
100
AcDbVertex
100
AcDb2dVertex
 10
415.0784479968952
 20
90.52560946752055
 30
0.0
 42
-0.4142135623861209
  0
VERTEX
  5
1D3
330
174
100
AcDbEntity
  8
4_ANYTOOL_CUTTHROUGH_OUTSI
100
AcDbVertex
100
AcDb2dVertex
 10
415.328447996897
 20
90.27560946752055
 30
0.0
  0
VERTEX
  5
1D4
330
174
100
AcDbEntity
  8
4_ANYTOOL_CUTTHROUGH_OUTSI
100
AcDbVertex
100
AcDb2dVertex
 10
415.3284479969043
 20
78.27560946752055
 30
0.0
 42
-0.4142135623888889
  0
VERTEX
  5
1D5
330
174
100
AcDbEntity
  8
4_ANYTOOL_CUTTHROUGH_OUTSI
100
AcDbVertex
100
AcDb2dVertex
 10
415.0784479969043
 20
78.02560946752052
 30
0.0
  0
VERTEX
  5
1D6
330
174
100
AcDbEntity
  8
4_ANYTOOL_CUTTHROUGH_OUTSI
100
AcDbVertex
100
AcDb2dVertex
 10
385.0784479968988
 20
78.02560946751328
 30
0.0
 42
-0.4142135623783025
  0
VERTEX
  5
1D7
330
174
100
AcDbEntity
  8
4_ANYTOOL_CUTTHROUGH_OUTSI
100
AcDbVertex
100
AcDb2dVertex
 10
384.828447996897
 20
78.275609467506
 30
0.0
  0
VERTEX
  5
1D8
330
174
100
AcDbEntity
  8
4_ANYTOOL_CUTTHROUGH_OUTSI
100
AcDbVertex
100
AcDb2dVertex
 10
384.828447996897
 20
90.27560946749873
 30
0.0
 42
-0.4142135623758734
  0
VERTEX
  5
1D9
330
174
100
AcDbEntity
  8
4_ANYTOOL_CUTTHROUGH_OUTSI
100
AcDbVertex
100
AcDb2dVertex
 10
385.078447996897
 20
90.52560946749874
 30
0.0
  0
VERTEX
  5
1DA
330
174
100
AcDbEntity
  8
4_ANYTOOL_CUTTHROUGH_OUTSI
100
AcDbVertex
100
AcDb2dVertex
 10
390.8284479968988
 20
90.52560946749873
 30
0.0
  0
VERTEX
  5
1DB
330
174
100
AcDbEntity
  8
4_ANYTOOL_CUTTHROUGH_OUTSI
100
AcDbVertex
100
AcDb2dVertex
 10
390.828447996897
 20
193.0256094675133
 30
0.0
  0
VERTEX
  5
1DC
330
174
100
AcDbEntity
  8
4_ANYTOOL_CUTTHROUGH_OUTSI
100
AcDbVertex
100
AcDb2dVertex
 10
360.4240107455826
 20
193.0256094674696
 30
0.0
 42
-0.3178372452028434
  0
VERTEX
  5
1DD
330
174
100
AcDbEntity
  8
4_ANYTOOL_CUTTHROUGH_OUTSI
100
AcDbVertex
100
AcDb2dVertex
 10
354.5314542356992
 20
197.1922761341339
 30
0.0
 42
0.7071067811843303
  0
VERTEX
  5
1DE
330
174
100
AcDbEntity
  8
4_ANYTOOL_CUTTHROUGH_OUTSI
100
AcDbVertex
100
AcDb2dVertex
 10
332.3754417585169
 20
197.1922761341412
 30
0.0
 42
-0.3178372451992874
  0
VERTEX
  5
1DF
330
174
100
AcDbEntity
  8
4_ANYTOOL_CUTTHROUGH_OUTSI
100
AcDbVertex
100
AcDb2dVertex
 10
326.4828852486116
 20
193.0256094674768
 30
0.0
  0
VERTEX
  5
1E0
330
174
100
AcDbEntity
  8
4_ANYTOOL_CUTTHROUGH_OUTSI
100
AcDbVertex
100
AcDb2dVertex
 10
314.0838853504065
 20
193.0256094675278
 30
0.0
  0
VERTEX
  5
1E1
330
174
100
AcDbEntity
  8
4_ANYTOOL_CUTTHROUGH_OUTSI
100
AcDbVertex
100
AcDb2dVertex
 10
314.318879359269
 20
191.6307392672453
 30
0.0
  0
VERTEX
  5
1E2
330
174
100
AcDbEntity
  8
4_ANYTOOL_CUTTHROUGH_OUTSI
100
AcDbVertex
100
AcDb2dVertex
 10
331.2144125859486
 20
143.3581970737578
 30
0.0
  0
VERTEX
  5
1E3
330
174
100
AcDbEntity
  8
4_ANYTOOL_CUTTHROUGH_OUTSI
100
AcDbVertex
100
AcDb2dVertex
 10
331.2284479968566
 20
143.2756094675788
 30
0.0
 42
-0.414213562376233
  0
VERTEX
  5
1E4
330
174
100
AcDbEntity
  8
4_ANYTOOL_CUTTHROUGH_OUTSI
100
AcDbVertex
100
AcDb2dVertex
 10
324.9784479968494
 20
137.0256094675788
 30
0.0
  0
VERTEX
  5
1E5
330
174
100
AcDbEntity
  8
4_ANYTOOL_CUTTHROUGH_OUTSI
100
AcDbVertex
100
AcDb2dVertex
 10
246.9784479968766
 20
137.0256094675569
 30
0.0
 42
-0.4142135623768426
  0
VERTEX
  5
1E6
330
174
100
AcDbEntity
  8
4_ANYTOOL_CUTTHROUGH_OUTSI
100
AcDbVertex
100
AcDb2dVertex
 10
240.7284479968421
 20
143.2756094675715
 30
0.0
  0
VERTEX
  5
1E7
330
174
100
AcDbEntity
  8
4_ANYTOOL_CUTTHROUGH_OUTSI
100
AcDbVertex
100
AcDb2dVertex
 10
240.7424834077501
 20
143.3581970737505
 30
0.0
  0
VERTEX
  5
1E8
330
174
100
AcDbEntity
  8
4_ANYTOOL_CUTTHROUGH_OUTSI
100
AcDbVertex
100
AcDb2dVertex
 10
257.6415964018779
 20
191.6418042455698
 30
0.0
  0
VERTEX
  5
1E9
330
174
100
AcDbEntity
  8
4_ANYTOOL_CUTTHROUGH_OUTSI
100
AcDbVertex
100
AcDb2dVertex
 10
257.8730106433945
 20
193.0256094675224
 30
0.0
  0
VERTEX
  5
1EA
330
174
100
AcDbEntity
  8
4_ANYTOOL_CUTTHROUGH_OUTSI
100
AcDbVertex
100
AcDb2dVertex
 10
218.7784479972015
 20
193.0256094674769
 30
0.0
  0
VERTEX
  5
1EB
330
174
100
AcDbEntity
  8
4_ANYTOOL_CUTTHROUGH_OUTSI
100
AcDbVertex
100
AcDb2dVertex
 10
218.7784479972142
 20
169.2756094674769
 30
0.0
 42
-0.4142135623724291
  0
VERTEX
  5
1EC
330
174
100
AcDbEntity
  8
4_ANYTOOL_CUTTHROUGH_OUTSI
100
AcDbVertex
100
AcDb2dVertex
 10
218.5284479972142
 20
169.0256094674769
 30
0.0
  0
VERTEX
  5
1ED
330
174
100
AcDbEntity
  8
4_ANYTOOL_CUTTHROUGH_OUTSI
100
AcDbVertex
100
AcDb2dVertex
 10
206.5284479972033
 20
169.0256094674623
 30
0.0
 42
-0.4142135623782211
  0
VERTEX
  5
1EE
330
174
100
AcDbEntity
  8
4_ANYTOOL_CUTTHROUGH_OUTSI
100
AcDbVertex
100
AcDb2dVertex
 10
206.2784479972015
 20
169.2756094674623
 30
0.0
  0
VERTEX
  5
1EF
330
174
100
AcDbEntity
  8
4_ANYTOOL_CUTTHROUGH_OUTSI
100
AcDbVertex
100
AcDb2dVertex
 10
206.2784479972051
 20
175.0256094674623
 30
0.0
  0
VERTEX
  5
1F0
330
174
100
AcDbEntity
  8
4_ANYTOOL_CUTTHROUGH_OUTSI
100
AcDbVertex
100
AcDb2dVertex
 10
170.7784479972051
 20
175.0256094674405
 30
0.0
  0
VERTEX
  5
1F1
330
174
100
AcDbEntity
  8
4_ANYTOOL_CUTTHROUGH_OUTSI
100
AcDbVertex
100
AcDb2dVertex
 10
170.7784479972015
 20
169.2756094674405
 30
0.0
 42
-0.4142135623455663
  0
VERTEX
  5
1F2
330
174
100
AcDbEntity
  8
4_ANYTOOL_CUTTHROUGH_OUTSI
100
AcDbVertex
100
AcDb2dVertex
 10
170.5284479972015
 20
169.0256094674478
 30
0.0
  0
VERTEX
  5
1F3
330
174
100
AcDbEntity
  8
4_ANYTOOL_CUTTHROUGH_OUTSI
100
AcDbVertex
100
AcDb2dVertex
 10
158.5284479972015
 20
169.0256094674405
 30
0.0
 42
-0.4142135623405757
  0
VERTEX
  5
1F4
330
174
100
AcDbEntity
  8
4_ANYTOOL_CUTTHROUGH_OUTSI
100
AcDbVertex
100
AcDb2dVertex
 10
158.2784479971997
 20
169.2756094674332
 30
0.0
  0
VERTEX
  5
1F5
330
174
100
AcDbEntity
  8
4_ANYTOOL_CUTTHROUGH_OUTSI
100
AcDbVertex
100
AcDb2dVertex
 10
158.2784479971997
 20
193.0256094674405
 30
0.0
  0
VERTEX
  5
1F6
330
174
100
AcDbEntity
  8
4_ANYTOOL_CUTTHROUGH_OUTSI
100
AcDbVertex
100
AcDb2dVertex
 10
119.1838853510035
 20
193.0256094674041
 30
0.0
  0
VERTEX
  5
1F7
330
174
100
AcDbEntity
  8
4_ANYTOOL_CUTTHROUGH_OUTSI
100
AcDbVertex
100
AcDb2dVertex
 10
119.4188793599606
 20
191.6307392670822
 30
0.0
  0
VERTEX
  5
1F8
330
174
100
AcDbEntity
  8
4_ANYTOOL_CUTTHROUGH_OUTSI
100
AcDbVertex
100
AcDb2dVertex
 10
136.314412586642
 20
143.358197073605
 30
0.0
  0
VERTEX
  5
1F9
330
174
100
AcDbEntity
  8
4_ANYTOOL_CUTTHROUGH_OUTSI
100
AcDbVertex
100
AcDb2dVertex
 10
136.32844799755
 20
143.275609467426
 30
0.0
 42
-0.4142135623753248
  0
VERTEX
  5
1FA
330
174
100
AcDbEntity
  8
4_ANYTOOL_CUTTHROUGH_OUTSI
100
AcDbVertex
100
AcDb2dVertex
 10
130.0784479975337
 20
137.0256094674114
 30
0.0
  0
VERTEX
  5
1FB
330
174
100
AcDbEntity
  8
4_ANYTOOL_CUTTHROUGH_OUTSI
100
AcDbVertex
100
AcDb2dVertex
 10
52.07844799685336
 20
137.0256094674114
 30
0.0
 42
-0.4142135623775388
  0
VERTEX
  5
1FC
330
174
100
AcDbEntity
  8
4_ANYTOOL_CUTTHROUGH_OUTSI
100
AcDbVertex
100
AcDb2dVertex
 10
45.82844799682972
 20
143.2756094673969
 30
0.0
  0
VERTEX
  5
1FD
330
174
100
AcDbEntity
  8
4_ANYTOOL_CUTTHROUGH_OUTSI
100
AcDbVertex
100
AcDb2dVertex
 10
45.84248340773956
 20
143.3581970735759
 30
0.0
  0
VERTEX
  5
1FE
330
174
100
AcDbEntity
  8
4_ANYTOOL_CUTTHROUGH_OUTSI
100
AcDbVertex
100
AcDb2dVertex
 10
62.74159640215112
 20
191.6418042464575
 30
0.0
  0
VERTEX
  5
1FF
330
174
100
AcDbEntity
  8
4_ANYTOOL_CUTTHROUGH_OUTSI
100
AcDbVertex
100
AcDb2dVertex
 10
62.97301064336774
 20
193.0256094673778
 30
0.0
  0
VERTEX
  5
200
330
174
100
AcDbEntity
  8
4_ANYTOOL_CUTTHROUGH_OUTSI
100
AcDbVertex
100
AcDb2dVertex
 10
23.87844799718005
 20
193.0256094674114
 30
0.0
  0
VERTEX
  5
201
330
174
100
AcDbEntity
  8
4_ANYTOOL_CUTTHROUGH_OUTSI
100
AcDbVertex
100
AcDb2dVertex
 10
23.87844799719642
 20
169.2756094674405
 30
0.0
 42
-0.4142135623199248
  0
VERTEX
  5
202
330
174
100
AcDbEntity
  8
4_ANYTOOL_CUTTHROUGH_OUTSI
100
AcDbVertex
100
AcDb2dVertex
 10
23.62844799719642
 20
169.0256094674478
 30
0.0
  0
VERTEX
  5
203
330
174
100
AcDbEntity
  8
4_ANYTOOL_CUTTHROUGH_OUTSI
100
AcDbVertex
100
AcDb2dVertex
 10
11.62844799719096
 20
169.0256094674187
 30
0.0
 42
-0.4142135623759559
  0
VERTEX
  5
204
330
174
100
AcDbEntity
  8
4_ANYTOOL_CUTTHROUGH_OUTSI
100
AcDbVertex
100
AcDb2dVertex
 10
11.37844799719279
 20
169.2756094674187
 30
0.0
  0
VERTEX
  5
205
330
174
100
AcDbEntity
  8
4_ANYTOOL_CUTTHROUGH_OUTSI
100
AcDbVertex
100
AcDb2dVertex
 10
11.3784479971855
 20
175.0256094674187
 30
0.0
  0
VERTEX
  5
206
330
174
100
AcDbEntity
  8
4_ANYTOOL_CUTTHROUGH_OUTSI
100
AcDbVertex
100
AcDb2dVertex
 10
-24.12155200282359
 20
175.0256094674041
 30
0.0
  0
VERTEX
  5
207
330
174
100
AcDbEntity
  8
4_ANYTOOL_CUTTHROUGH_OUTSI
100
AcDbVertex
100
AcDb2dVertex
 10
-24.12155200281813
 20
169.2756094674041
 30
0.0
 42
-0.4142135624274033
  0
VERTEX
  5
208
330
174
100
AcDbEntity
  8
4_ANYTOOL_CUTTHROUGH_OUTSI
100
AcDbVertex
100
AcDb2dVertex
 10
-24.37155200281813
 20
169.0256094674041
 30
0.0
  0
VERTEX
  5
209
330
174
100
AcDbEntity
  8
4_ANYTOOL_CUTTHROUGH_OUTSI
100
AcDbVertex
100
AcDb2dVertex
 10
-36.37155200282177
 20
169.0256094674187
 30
0.0
 42
-0.4142135623852489
  0
VERTEX
  5
20A
330
174
100
AcDbEntity
  8
4_ANYTOOL_CUTTHROUGH_OUTSI
100
AcDbVertex
100
AcDb2dVertex
 10
-36.62155200282179
 20
169.2756094674187
 30
0.0
  0
VERTEX
  5
20B
330
174
100
AcDbEntity
  8
4_ANYTOOL_CUTTHROUGH_OUTSI
100
AcDbVertex
100
AcDb2dVertex
 10
-36.62155200282177
 20
193.0256094674041
 30
0.0
  0
VERTEX
  5
20C
330
174
100
AcDbEntity
  8
4_ANYTOOL_CUTTHROUGH_OUTSI
100
AcDbVertex
100
AcDb2dVertex
 10
-75.71611464901616
 20
193.0256094674551
 30
0.0
  0
VERTEX
  5
20D
330
174
100
AcDbEntity
  8
4_ANYTOOL_CUTTHROUGH_OUTSI
100
AcDbVertex
100
AcDb2dVertex
 10
-75.48112064006982
 20
191.6307392671247
 30
0.0
  0
VERTEX
  5
20E
330
174
100
AcDbEntity
  8
4_ANYTOOL_CUTTHROUGH_OUTSI
100
AcDbVertex
100
AcDb2dVertex
 10
-58.58558741337038
 20
143.3581970736486
 30
0.0
  0
VERTEX
  5
20F
330
174
100
AcDbEntity
  8
4_ANYTOOL_CUTTHROUGH_OUTSI
100
AcDbVertex
100
AcDb2dVertex
 10
-58.57155200246234
 20
143.2756094674696
 30
0.0
 42
-0.4142135623742058
  0
VERTEX
  5
210
330
174
100
AcDbEntity
  8
4_ANYTOOL_CUTTHROUGH_OUTSI
100
AcDbVertex
100
AcDb2dVertex
 10
-64.82155200249144
 20
137.0256094674696
 30
0.0
  0
VERTEX
  5
211
330
174
100
AcDbEntity
  8
4_ANYTOOL_CUTTHROUGH_OUTSI
100
AcDbVertex
100
AcDb2dVertex
 10
-142.8215520024623
 20
137.0256094674478
 30
0.0
 42
-0.4142135623758004
  0
VERTEX
  5
212
330
174
100
AcDbEntity
  8
4_ANYTOOL_CUTTHROUGH_OUTSI
100
AcDbVertex
100
AcDb2dVertex
 10
-149.0715520024769
 20
143.2756094674332
 30
0.0
  0
VERTEX
  5
213
330
174
100
AcDbEntity
  8
4_ANYTOOL_CUTTHROUGH_OUTSI
100
AcDbVertex
100
AcDb2dVertex
 10
-149.057516591567
 20
143.3581970736122
 30
0.0
  0
VERTEX
  5
214
330
174
100
AcDbEntity
  8
4_ANYTOOL_CUTTHROUGH_OUTSI
100
AcDbVertex
100
AcDb2dVertex
 10
-132.1584034792158
 20
191.641804217652
 30
0.0
  0
VERTEX
  5
215
330
174
100
AcDbEntity
  8
4_ANYTOOL_CUTTHROUGH_OUTSI
100
AcDbVertex
100
AcDb2dVertex
 10
-131.9269065720504
 20
193.0256094674322
 30
0.0
  0
VERTEX
  5
216
330
174
100
AcDbEntity
  8
4_ANYTOOL_CUTTHROUGH_OUTSI
100
AcDbVertex
100
AcDb2dVertex
 10
-144.3259892540318
 20
193.0256094673896
 30
0.0
 42
-0.3178372452034249
  0
VERTEX
  5
217
330
174
100
AcDbEntity
  8
4_ANYTOOL_CUTTHROUGH_OUTSI
100
AcDbVertex
100
AcDb2dVertex
 10
-150.2185457639262
 20
197.1922761340466
 30
0.0
 42
0.7071067811845638
  0
VERTEX
  5
218
330
174
100
AcDbEntity
  8
4_ANYTOOL_CUTTHROUGH_OUTSI
100
AcDbVertex
100
AcDb2dVertex
 10
-172.374558241112
 20
197.1922761340466
 30
0.0
 42
-0.3178372451998213
  0
SEQEND
  5
219
330
174
100
AcDbEntity
  8
4_ANYTOOL_CUTTHROUGH_OUTSI
  0
ENDSEC
  0
SECTION
  2
OBJECTS
  0
DICTIONARY
  5
C
330
0
100
AcDbDictionary
  3
ACAD_GROUP
350
D
  3
ACAD_LAYOUT
350
1A
  3
ACAD_MATERIAL
350
43
  3
ACAD_MLEADERSTYLE
350
5B
  3
ACAD_MLINESTYLE
350
17
  3
ACAD_PLOTSETTINGS
350
19
  3
ACAD_SCALELIST
350
47
  3
ACAD_VISUALSTYLE
350
2A
  3
ACDBHEADERROUNDTRIPXREC
350
21A
  3
ACDBVARIABLEDICTIONARY
350
23B
  3
DWGPROPS
350
242
  0
DICTIONARY
  5
243
330
8
100
AcDbDictionary
280
     1
  3
ACAD_XREC_ROUNDTRIP
360
244
  0
DICTIONARY
  5
D
102
{ACAD_REACTORS
330
C
102
}
330
C
100
AcDbDictionary
  0
DICTIONARY
  5
1A
102
{ACAD_REACTORS
330
C
102
}
330
C
100
AcDbDictionary
  0
DICTIONARY
  5
43
102
{ACAD_REACTORS
330
C
102
}
330
C
100
AcDbDictionary
  3
BYBLOCK
350
45
  3
BYLAYER
350
44
  3
GLOBAL
350
46
  0
DICTIONARY
  5
5B
102
{ACAD_REACTORS
330
C
102
}
330
C
100
AcDbDictionary
  3
STANDARD
350
5C
  0
DICTIONARY
  5
17
102
{ACAD_REACTORS
330
C
102
}
330
C
100
AcDbDictionary
  3
STANDARD
350
18
  0
DICTIONARY
  5
19
102
{ACAD_REACTORS
330
C
102
}
330
C
100
AcDbDictionary
  0
DICTIONARY
  5
47
102
{ACAD_REACTORS
330
C
102
}
330
C
100
AcDbDictionary
  3
A0
350
48
  3
A1
350
49
  3
A2
350
4A
  3
A3
350
4B
  3
A4
350
4C
  3
A5
350
4D
  3
A6
350
4E
  3
A7
350
4F
  3
A8
350
50
  3
A9
350
51
  3
B1
350
52
  3
B2
350
53
  3
B3
350
54
  3
B4
350
55
  3
B5
350
56
  3
B6
350
57
  3
B7
350
58
  0
DICTIONARY
  5
2A
102
{ACAD_REACTORS
330
C
102
}
330
C
100
AcDbDictionary
  3
2DWIREFRAME
350
2F
  3
BASIC
350
32
  3
BRIGHTEN
350
36
  3
COLORCHANGE
350
3A
  3
CONCEPTUAL
350
34
  3
DIM
350
35
  3
EDGECOLOROFF
350
3D
  3
FACEPATTERN
350
39
  3
FLAT
350
2B
  3
FLATWITHEDGES
350
2C
  3
GOURAUD
350
2D
  3
GOURAUDWITHEDGES
350
2E
  3
HIDDEN
350
31
  3
JITTEROFF
350
3B
  3
LINEPATTERN
350
38
  3
OVERHANGOFF
350
3C
  3
REALISTIC
350
33
  3
SHADED
350
42
  3
SHADED_WITH_EDGES
350
41
  3
SHADES_OF_GRAY
350
3E
  3
SKETCHY
350
3F
  3
THICKEN
350
37
  3
WIREFRAME
350
30
  3
X-RAY
350
40
  0
DICTIONARY
  5
21A
102
{ACAD_REACTORS
330
C
102
}
330
C
100
AcDbDictionary
  3
CEPSNID
350
224
  3
CEPSNTYPE
350
223
  3
DIMSTYLEDATA
350
23A
  3
FINGERPRINTGUID
350
225
  3
HYPERLINKBASE
350
21D
  3
INSUNITS
350
222
  3
LAYOUTDICT
350
21F
  3
LWETCUNION
350
221
  3
PLOTSETDICT
350
220
  3
PSVPSCALE
350
227
  3
PUCSBASE
350
22A
  3
PUCSORGBACK
350
230
  3
PUCSORGBOTTOM
350
22C
  3
PUCSORGFRONT
350
22F
  3
PUCSORGLEFT
350
22D
  3
PUCSORGRIGHT
350
22E
  3
PUCSORGTOP
350
22B
  3
PUCSORTHOREF
350
228
  3
PUCSORTHOVIEW
350
229
  3
STYLESHEET
350
21E
  3
TSTACKALIGN
350
21B
  3
TSTACKSIZE
350
21C
  3
UCSBASE
350
233
  3
UCSORGBACK
350
239
  3
UCSORGBOTTOM
350
235
  3
UCSORGFRONT
350
238
  3
UCSORGLEFT
350
236
  3
UCSORGRIGHT
350
237
  3
UCSORGTOP
350
234
  3
UCSORTHOREF
350
231
  3
UCSORTHOVIEW
350
232
  3
VERSIONGUID
350
226
  0
DICTIONARY
  5
23B
102
{ACAD_REACTORS
330
C
102
}
330
C
100
AcDbDictionary
  3
CANNOSCALE
350
245
  3
CMLEADERSTYLE
350
23D
  3
CTABLESTYLE
350
23C
  3
DIMASSOC
350
240
  3
HIDETEXT
350
241
  3
MSLTSCALE
350
246
  0
XRECORD
  5
242
102
{ACAD_REACTORS
330
C
102
}
330
C
100
AcDbXrecord
  1
DWGPROPS COOKIE
  2

  3

  4

  6

  7

  8
clayt
  9

300
=
301
=
302
=
303
=
304
=
305
=
306
=
307
=
308
=
309
=
 40
0.0
 41
2461249.406052327
 42
2461249.406052419
  1

 90
        0
  0
XRECORD
  5
244
102
{ACAD_REACTORS
330
243
102
}
330
243
100
AcDbXrecord
102
VTR_0.000_0.000_1.000_1.000_VISUALSTYLE
340
2F
102
VTR_0.000_0.000_1.000_1.000_GRIDDISPLAY
 70
     3
102
VTR_0.000_0.000_1.000_1.000_GRIDMAJOR
 70
     5
102
VTR_0.000_0.000_1.000_1.000_DEFAULTLIGHTING
280
     1
102
VTR_0.000_0.000_1.000_1.000_DEFAULTLIGHTINGTYPE
 70
     1
102
VTR_0.000_0.000_1.000_1.000_BRIGHTNESS
141
0.0
102
VTR_0.000_0.000_1.000_1.000_CONTRAST
142
0.0
  0
MATERIAL
  5
45
102
{ACAD_REACTORS
330
43
102
}
102
{ACAD_XDICTIONARY
360
249
102
}
330
43
100
AcDbMaterial
  1
BYBLOCK
  0
MATERIAL
  5
44
102
{ACAD_REACTORS
330
43
102
}
102
{ACAD_XDICTIONARY
360
247
102
}
330
43
100
AcDbMaterial
  1
BYLAYER
  0
MATERIAL
  5
46
102
{ACAD_REACTORS
330
43
102
}
102
{ACAD_XDICTIONARY
360
24B
102
}
330
43
100
AcDbMaterial
  1
GLOBAL
  0
ACAD_PROXY_OBJECT
  5
5C
102
{ACAD_REACTORS
330
5B
102
}
330
5B
100
AcDbProxyObject
 90
      499
 91
      505
 93
      610
310
40901902A4063FBFFFFFE056BD1B81E855B9FC0AD7A3703D0AD73F4214DD185B99185C9900AD7A3703D0AC73F90141901A02B5E8DC0F42B1CFC02B5E8DC0F42B1CFE5764000000000000300FC0
340
14
340
0
340
11
340
0
 94
        0
1001
ACAD_MLEADERVER
1070
     2
  0
MLINESTYLE
  5
18
102
{ACAD_REACTORS
330
17
102
}
330
17
100
AcDbMlineStyle
  2
Standard
 70
     0
  3

 62
   256
 51
90.0
 52
90.0
 71
     2
 49
0.5
 62
   256
  6
BYLAYER
 49
-0.5
 62
   256
  6
BYLAYER
  0
ACAD_PROXY_OBJECT
  5
48
102
{ACAD_REACTORS
330
47
102
}
330
47
100
AcDbProxyObject
 90
      499
 91
      503
 93
       41
310
903313A31580
  0
ACAD_PROXY_OBJECT
  5
49
102
{ACAD_REACTORS
330
47
102
}
330
47
100
AcDbProxyObject
 90
      499
 91
      503
 93
      257
310
90E312F31323822203D2031272D3022000000000000200FC000000000000284000
  0
ACAD_PROXY_OBJECT
  5
4A
102
{ACAD_REACTORS
330
47
102
}
330
47
100
AcDbProxyObject
 90
      499
 91
      503
 93
      249
310
90D312F363422203D2031272D3022000000000000240FC000000000000284000
  0
ACAD_PROXY_OBJECT
  5
4B
102
{ACAD_REACTORS
330
47
102
}
330
47
100
AcDbProxyObject
 90
      499
 91
      503
 93
      249
310
90D312F333222203D2031272D3022000000000000280FC000000000000284000
  0
ACAD_PROXY_OBJECT
  5
4C
102
{ACAD_REACTORS
330
47
102
}
330
47
100
AcDbProxyObject
 90
      499
 91
      503
 93
      249
310
90D312F313622203D2031272D30220000000000002C0FC000000000000284000
  0
ACAD_PROXY_OBJECT
  5
4D
102
{ACAD_REACTORS
330
47
102
}
330
47
100
AcDbProxyObject
 90
      499
 91
      503
 93
      249
310
90D332F333222203D2031272D30220000000000002E0FC000000000000284000
  0
ACAD_PROXY_OBJECT
  5
4E
102
{ACAD_REACTORS
330
47
102
}
330
47
100
AcDbProxyObject
 90
      499
 91
      503
 93
      241
310
90C312F3822203D2031272D3022000000000000300FC000000000000284000
  0
ACAD_PROXY_OBJECT
  5
4F
102
{ACAD_REACTORS
330
47
102
}
330
47
100
AcDbProxyObject
 90
      499
 91
      503
 93
      249
310
90D332F313622203D2031272D3022000000000000320FC000000000000284000
  0
ACAD_PROXY_OBJECT
  5
50
102
{ACAD_REACTORS
330
47
102
}
330
47
100
AcDbProxyObject
 90
      499
 91
      503
 93
      241
310
90C312F3422203D2031272D3022000000000000340FC000000000000284000
  0
ACAD_PROXY_OBJECT
  5
51
102
{ACAD_REACTORS
330
47
102
}
330
47
100
AcDbProxyObject
 90
      499
 91
      503
 93
      241
310
90C332F3822203D2031272D3022000000000000360FC000000000000284000
  0
ACAD_PROXY_OBJECT
  5
52
102
{ACAD_REACTORS
330
47
102
}
330
47
100
AcDbProxyObject
 90
      499
 91
      503
 93
      241
310
90C312F3222203D2031272D3022000000000000380FC000000000000284000
  0
ACAD_PROXY_OBJECT
  5
53
102
{ACAD_REACTORS
330
47
102
}
330
47
100
AcDbProxyObject
 90
      499
 91
      503
 93
      241
310
90C332F3422203D2031272D30220000000000003A0FC000000000000284000
  0
ACAD_PROXY_OBJECT
  5
54
102
{ACAD_REACTORS
330
47
102
}
330
47
100
AcDbProxyObject
 90
      499
 91
      503
 93
      161
310
90A3122203D2031272D30224000000000000284000
  0
ACAD_PROXY_OBJECT
  5
55
102
{ACAD_REACTORS
330
47
102
}
330
47
100
AcDbProxyObject
 90
      499
 91
      503
 93
      257
310
90E312D312F3222203D2031272D30220000000000003E0FC000000000000284000
  0
ACAD_PROXY_OBJECT
  5
56
102
{ACAD_REACTORS
330
47
102
}
330
47
100
AcDbProxyObject
 90
      499
 91
      503
 93
      225
310
90A3322203D2031272D302200000000000002100000000000000284000
  0
ACAD_PROXY_OBJECT
  5
57
102
{ACAD_REACTORS
330
47
102
}
330
47
100
AcDbProxyObject
 90
      499
 91
      503
 93
      225
310
90A3622203D2031272D302200000000000006100000000000000284000
  0
ACAD_PROXY_OBJECT
  5
58
102
{ACAD_REACTORS
330
47
102
}
330
47
100
AcDbProxyObject
 90
      499
 91
      503
 93
      249
310
90D31272D3022203D2031272D30220000000000000A100000000000000284000
  0
ACAD_PROXY_OBJECT
  5
2F
102
{ACAD_REACTORS
330
2A
102
}
330
2A
100
AcDbProxyObject
 90
      499
 91
      501
 93
      436
310
42CC9915DA5C99599C985B595049028333333333333E33F0000000000000F90107901411070040501600405405064090741402480A0340
1001
ACAD
1000
AcDbSavedByObjectVersion
1070
     0
  0
ACAD_PROXY_OBJECT
  5
32
102
{ACAD_REACTORS
330
2A
102
}
330
2A
100
AcDbProxyObject
 90
      499
 91
      501
 93
      388
310
4150985CDA58D07406404333333333333E33F0000000000000F90107A41107004050150841D405064090741402480A0350
1001
ACAD
1000
AcDbSavedByObjectVersion
1070
     0
  0
ACAD_PROXY_OBJECT
  5
36
102
{ACAD_REACTORS
330
2A
102
}
330
2A
100
AcDbProxyObject
 90
      499
 91
      501
 93
      428
310
42109C9A59DA1D195B90C409028333333333333E33F0000000000000F9010790141107004050150841D405064090741402480A029950
1001
ACAD
1000
AcDbSavedByObjectVersion
1070
     0
  0
ACAD_PROXY_OBJECT
  5
3A
102
{ACAD_REACTORS
330
2A
102
}
330
2A
100
AcDbProxyObject
 90
      499
 91
      501
 93
      452
310
42D0DBDB1BDC90DA185B99D95104090240C333333333333E33F0000000000000F90108901411070040501508421405064090741402480A0350
1001
ACAD
1000
AcDbSavedByObjectVersion
1070
     0
  0
ACAD_PROXY_OBJECT
  5
34
102
{ACAD_REACTORS
330
2A
102
}
330
2A
100
AcDbProxyObject
 90
      499
 91
      501
 93
      500
310
4290DBDB98D95C1D1D585B10940D028333333333333E33F0000000000000F90107902409070040501000000000018199010841D405064090740C02480A0340
1001
ACAD
1000
AcDbSavedByObjectVersion
1070
     0
  0
ACAD_PROXY_OBJECT
  5
35
102
{ACAD_REACTORS
330
2A
102
}
330
2A
100
AcDbProxyObject
 90
      499
 91
      501
 93
      412
310
40D11A5B50B409028333333333333E33F0000000000000F9010790141107004050150841D405064090741402480A02677FFFFFD0
1001
ACAD
1000
AcDbSavedByObjectVersion
1070
     0
  0
ACAD_PROXY_OBJECT
  5
3D
102
{ACAD_REACTORS
330
2A
102
}
330
2A
100
AcDbProxyObject
 90
      499
 91
      501
 93
      452
310
43115919D950DBDB1BDC93D999916409028333333333333E33F0000000000000F9010790141107004050150841D405064090741402480A0350
1001
ACAD
1000
AcDbSavedByObjectVersion
1070
     0
  0
ACAD_PROXY_OBJECT
  5
39
102
{ACAD_REACTORS
330
2A
102
}
330
2A
100
AcDbProxyObject
 90
      499
 91
      501
 93
      444
310
42D19858D95C185D1D195C9B90F409028333333333333E33F0000000000000F9010790141107004050150841D405064090741402480A0350
1001
ACAD
1000
AcDbSavedByObjectVersion
1070
     0
  0
ACAD_PROXY_OBJECT
  5
2B
102
{ACAD_REACTORS
330
2A
102
}
330
2A
100
AcDbProxyObject
 90
      499
 91
      501
 93
      380
310
41119B185D240901404333333333333E33F0000000000000F9010740A907004050150841D405064090741402480A1B50
1001
ACAD
1000
AcDbSavedByObjectVersion
1070
     0
  0
ACAD_PROXY_OBJECT
  5
2C
102
{ACAD_REACTORS
330
2A
102
}
330
2A
100
AcDbProxyObject
 90
      499
 91
      501
 93
      468
310
43519B185D15DA5D1A115919D95CD0140901404333333333333E33F0000000000000F90107409019070040501600405405064090741402480A1B50
1001
ACAD
1000
AcDbSavedByObjectVersion
1070
     0
  0
ACAD_PROXY_OBJECT
  5
2D
102
{ACAD_REACTORS
330
2A
102
}
330
2A
100
AcDbProxyObject
 90
      499
 91
      501
 93
      404
310
41D1DBDD5C985D5910240902404333333333333E33F0000000000000F9010740A9070040501641D405064090741402480A1B50
1001
ACAD
1000
AcDbSavedByObjectVersion
1070
     0
  0
ACAD_PROXY_OBJECT
  5
2E
102
{ACAD_REACTORS
330
2A
102
}
330
2A
100
AcDbProxyObject
 90
      499
 91
      501
 93
      492
310
4411DBDD5C985D5915DA5D1A115919D95CD0340902404333333333333E33F0000000000000F90107409019070040501600405405064090741402480A1B50
1001
ACAD
1000
AcDbSavedByObjectVersion
1070
     0
  0
ACAD_PROXY_OBJECT
  5
31
102
{ACAD_REACTORS
330
2A
102
}
330
2A
100
AcDbProxyObject
 90
      499
 91
      501
 93
      476
310
41921A5919195B90640502408333333333333E33F0000000000000F901079024090700405020000000000001110200405405064090740C02480A0340
1001
ACAD
1000
AcDbSavedByObjectVersion
1070
     0
  0
ACAD_PROXY_OBJECT
  5
3B
102
{ACAD_REACTORS
330
2A
102
}
330
2A
100
AcDbProxyObject
 90
      499
 91
      501
 93
      428
310
42529A5D1D195C93D999914409028333333333333E33F0000000000000F9010790141107004050150A41D405064090741402480A0350
1001
ACAD
1000
AcDbSavedByObjectVersion
1070
     0
  0
ACAD_PROXY_OBJECT
  5
38
102
{ACAD_REACTORS
330
2A
102
}
330
2A
100
AcDbProxyObject
 90
      499
 91
      501
 93
      444
310
42D31A5B995C185D1D195C9B90E409028333333333333E33F0000000000000F9010790141107004050750841D405064090741402483A0350
1001
ACAD
1000
AcDbSavedByObjectVersion
1070
     0
  0
ACAD_PROXY_OBJECT
  5
3C
102
{ACAD_REACTORS
330
2A
102
}
330
2A
100
AcDbProxyObject
 90
      499
 91
      501
 93
      444
310
42D3DD995C9A185B99D3D999915409028333333333333E33F0000000000000F9010790141107004050150941D405064090741402480A0350
1001
ACAD
1000
AcDbSavedByObjectVersion
1070
     0
  0
ACAD_PROXY_OBJECT
  5
33
102
{ACAD_REACTORS
330
2A
102
}
330
2A
100
AcDbProxyObject
 90
      499
 91
      501
 93
      428
310
425499585B1A5CDD1A58D08409038333333333333E33F0000000000000F9010740A907004050150800405405064090740C02480A1B40
1001
ACAD
1000
AcDbSavedByObjectVersion
1070
     0
  0
ACAD_PROXY_OBJECT
  5
42
102
{ACAD_REACTORS
330
2A
102
}
330
2A
100
AcDbProxyObject
 90
      499
 91
      501
 93
      420
310
4194DA1859195911B40902404333333333333E33F0000000000000F9010740A41107004050150800405405064090840C02480A0B40
1001
ACAD
1000
AcDbSavedByObjectVersion
1070
     0
  0
ACAD_PROXY_OBJECT
  5
41
102
{ACAD_REACTORS
330
2A
102
}
330
2A
100
AcDbProxyObject
 90
      499
 91
      501
 93
      516
310
4454DA18591959081DDA5D1A08195919D95CD1A40902404333333333333E33F0000000000000F901074090142907004050250800405405064090740C02480A0B40
1001
ACAD
1000
AcDbSavedByObjectVersion
1070
     0
  0
ACAD_PROXY_OBJECT
  5
3E
102
{ACAD_REACTORS
330
2A
102
}
330
2A
100
AcDbProxyObject
 90
      499
 91
      501
 93
      532
310
4394DA1859195CC81BD98811DC985E5174090240C333333333333E33F0000000000000F901079024090741D01000000000000111010841D405064090740C02480A0340
1001
ACAD
1000
AcDbSavedByObjectVersion
1070
     0
  0
ACAD_PROXY_OBJECT
  5
3F
102
{ACAD_REACTORS
330
2A
102
}
330
2A
100
AcDbProxyObject
 90
      499
 91
      501
 93
      476
310
41D4DAD95D18DA1E51840502408333333333333E33F0000000000000F901079024090741D01000000000000111010B41D405064090741802480A0340
1001
ACAD
1000
AcDbSavedByObjectVersion
1070
     0
  0
ACAD_PROXY_OBJECT
  5
37
102
{ACAD_REACTORS
330
2A
102
}
330
2A
100
AcDbProxyObject
 90
      499
 91
      501
 93
      412
310
41D51A1A58DAD95B90D409028333333333333E33F0000000000000F9010790141107004050150C41D405064090741402480A0350
1001
ACAD
1000
AcDbSavedByObjectVersion
1070
     0
  0
ACAD_PROXY_OBJECT
  5
30
102
{ACAD_REACTORS
330
2A
102
}
330
2A
100
AcDbProxyObject
 90
      499
 91
      501
 93
      420
310
4255DA5C99599C985B595059028333333333333E33F0000000000000F90107901411070040501600405405064090740C02480A0340
1001
ACAD
1000
AcDbSavedByObjectVersion
1070
     0
  0
ACAD_PROXY_OBJECT
  5
40
102
{ACAD_REACTORS
330
2A
102
}
330
2A
100
AcDbProxyObject
 90
      499
 91
      501
 93
      404
310
41560B54985E51940902404000000000000E03F0000000000000F9010740501907004050150841D405064090740C02480A1B40
1001
ACAD
1000
AcDbSavedByObjectVersion
1070
     0
  0
XRECORD
  5
224
102
{ACAD_REACTORS
330
21A
102
}
330
21A
100
AcDbXrecord
340
0
  0
XRECORD
  5
223
102
{ACAD_REACTORS
330
21A
102
}
330
21A
100
AcDbXrecord
 90
        0
  0
XRECORD
  5
23A
102
{ACAD_REACTORS
330
21A
102
}
330
21A
100
AcDbXrecord
1000
DSTYLE
1002
{
1070
   171
 70
     2
1070
   143
 40
25.4
1070
   274
 70
     2
1070
    41
 40
0.18
1070
   141
 40
0.09
1070
   271
 70
     4
1070
    43
 40
0.38
1070
   278
 70
    46
1070
    44
 40
0.18
1070
    42
 40
0.0625
1070
   147
 40
0.09
1070
    77
 70
     0
1070
   272
 70
     4
1070
    73
 70
     1
1070
   279
 70
     2
1070
   172
 70
     0
1070
    74
 70
     1
1070
   283
 70
     1
1070
   340
340
11
1070
   140
 40
0.18
1070
   284
 70
     0
1070
    78
 70
     0
1002
}
  0
XRECORD
  5
225
102
{ACAD_REACTORS
330
21A
102
}
330
21A
100
AcDbXrecord
  1
{0145b255-73de-4af7-b128-97a4f3058aee}
  0
XRECORD
  5
21D
102
{ACAD_REACTORS
330
21A
102
}
330
21A
100
AcDbXrecord
  1

  0
XRECORD
  5
222
102
{ACAD_REACTORS
330
21A
102
}
330
21A
100
AcDbXrecord
 90
        4
  0
XRECORD
  5
21F
102
{ACAD_REACTORS
330
21A
102
}
330
21A
100
AcDbXrecord
340
1A
  0
XRECORD
  5
221
102
{ACAD_REACTORS
330
21A
102
}
330
21A
100
AcDbXrecord
 90
    10781
  0
XRECORD
  5
220
102
{ACAD_REACTORS
330
21A
102
}
330
21A
100
AcDbXrecord
340
19
  0
XRECORD
  5
227
102
{ACAD_REACTORS
330
21A
102
}
330
21A
100
AcDbXrecord
 40
0.0
  0
XRECORD
  5
22A
102
{ACAD_REACTORS
330
21A
102
}
330
21A
100
AcDbXrecord
340
0
  0
XRECORD
  5
230
102
{ACAD_REACTORS
330
21A
102
}
330
21A
100
AcDbXrecord
 10
0.0
 20
0.0
 30
0.0
  0
XRECORD
  5
22C
102
{ACAD_REACTORS
330
21A
102
}
330
21A
100
AcDbXrecord
 10
0.0
 20
0.0
 30
0.0
  0
XRECORD
  5
22F
102
{ACAD_REACTORS
330
21A
102
}
330
21A
100
AcDbXrecord
 10
0.0
 20
0.0
 30
0.0
  0
XRECORD
  5
22D
102
{ACAD_REACTORS
330
21A
102
}
330
21A
100
AcDbXrecord
 10
0.0
 20
0.0
 30
0.0
  0
XRECORD
  5
22E
102
{ACAD_REACTORS
330
21A
102
}
330
21A
100
AcDbXrecord
 10
0.0
 20
0.0
 30
0.0
  0
XRECORD
  5
22B
102
{ACAD_REACTORS
330
21A
102
}
330
21A
100
AcDbXrecord
 10
0.0
 20
0.0
 30
0.0
  0
XRECORD
  5
228
102
{ACAD_REACTORS
330
21A
102
}
330
21A
100
AcDbXrecord
340
0
  0
XRECORD
  5
229
102
{ACAD_REACTORS
330
21A
102
}
330
21A
100
AcDbXrecord
 70
     0
  0
XRECORD
  5
21E
102
{ACAD_REACTORS
330
21A
102
}
330
21A
100
AcDbXrecord
  1

  0
XRECORD
  5
21B
102
{ACAD_REACTORS
330
21A
102
}
330
21A
100
AcDbXrecord
 90
        1
  0
XRECORD
  5
21C
102
{ACAD_REACTORS
330
21A
102
}
330
21A
100
AcDbXrecord
 90
       70
  0
XRECORD
  5
233
102
{ACAD_REACTORS
330
21A
102
}
330
21A
100
AcDbXrecord
340
0
  0
XRECORD
  5
239
102
{ACAD_REACTORS
330
21A
102
}
330
21A
100
AcDbXrecord
 10
0.0
 20
0.0
 30
0.0
  0
XRECORD
  5
235
102
{ACAD_REACTORS
330
21A
102
}
330
21A
100
AcDbXrecord
 10
0.0
 20
0.0
 30
0.0
  0
XRECORD
  5
238
102
{ACAD_REACTORS
330
21A
102
}
330
21A
100
AcDbXrecord
 10
0.0
 20
0.0
 30
0.0
  0
XRECORD
  5
236
102
{ACAD_REACTORS
330
21A
102
}
330
21A
100
AcDbXrecord
 10
0.0
 20
0.0
 30
0.0
  0
XRECORD
  5
237
102
{ACAD_REACTORS
330
21A
102
}
330
21A
100
AcDbXrecord
 10
0.0
 20
0.0
 30
0.0
  0
XRECORD
  5
234
102
{ACAD_REACTORS
330
21A
102
}
330
21A
100
AcDbXrecord
 10
0.0
 20
0.0
 30
0.0
  0
XRECORD
  5
231
102
{ACAD_REACTORS
330
21A
102
}
330
21A
100
AcDbXrecord
340
0
  0
XRECORD
  5
232
102
{ACAD_REACTORS
330
21A
102
}
330
21A
100
AcDbXrecord
 70
     0
  0
XRECORD
  5
226
102
{ACAD_REACTORS
330
21A
102
}
330
21A
100
AcDbXrecord
  1
{FAEB1C32-E019-11D5-929B-00C0DF256EC4}
  0
DICTIONARYVAR
  5
245
102
{ACAD_REACTORS
330
23B
102
}
330
23B
100
DictionaryVariables
280
     0
  1
1:1
  0
DICTIONARYVAR
  5
23D
102
{ACAD_REACTORS
330
23B
102
}
330
23B
100
DictionaryVariables
280
     0
  1
Standard
  0
DICTIONARYVAR
  5
23C
102
{ACAD_REACTORS
330
23B
102
}
330
23B
100
DictionaryVariables
280
     0
  1
Standard
  0
DICTIONARYVAR
  5
240
102
{ACAD_REACTORS
330
23B
102
}
330
23B
100
DictionaryVariables
280
     0
  1
2
  0
DICTIONARYVAR
  5
241
102
{ACAD_REACTORS
330
23B
102
}
330
23B
100
DictionaryVariables
280
     0
  1
1
  0
DICTIONARYVAR
  5
246
102
{ACAD_REACTORS
330
23B
102
}
330
23B
100
DictionaryVariables
280
     0
  1
1
  0
DICTIONARY
  5
249
330
45
100
AcDbDictionary
280
     1
  3
ACAD_XREC_ROUNDTRIP
360
24A
  0
DICTIONARY
  5
247
330
44
100
AcDbDictionary
280
     1
  3
ACAD_XREC_ROUNDTRIP
360
248
  0
DICTIONARY
  5
24B
330
46
100
AcDbDictionary
280
     1
  3
ACAD_XREC_ROUNDTRIP
360
24C
  0
XRECORD
  5
24A
102
{ACAD_REACTORS
330
249
102
}
330
249
100
AcDbXrecord
102
MATERIAL
148
0.0
149
0.0
149
0.0
 93
        0
 94
      127
282
     0
 72
     1
 77
     1
171
     1
175
     1
179
     1
273
     0
  0
XRECORD
  5
248
102
{ACAD_REACTORS
330
247
102
}
330
247
100
AcDbXrecord
102
MATERIAL
148
0.0
149
0.0
149
0.0
 93
        0
 94
      127
282
     0
 72
     1
 77
     1
171
     1
175
     1
179
     1
273
     0
  0
XRECORD
  5
24C
102
{ACAD_REACTORS
330
24B
102
}
330
24B
100
AcDbXrecord
102
MATERIAL
148
0.0
149
0.0
149
0.0
 93
        0
 94
      127
282
     0
 72
     1
 77
     1
171
     1
175
     1
179
     1
273
     0
  0
ENDSEC
  0
EOF
