  0
SECTION
  2
HEADER
  9
$ACADVER
  1
AC1014
  9
$ACADMAINTVER
 70
     9
  9
$DWGCODEPAGE
  3
ANSI_1252
  9
$INSBASE
 10
0.0
 20
0.0
 30
0.0
  9
$EXTMIN
 10
-585.3426347378954
 20
-193.0906099776766
 30
-0.0000000000166018
  9
$EXTMAX
 10
562.1570979388209
 20
204.4093900265943
 30
0.0
  9
$LIMMIN
 10
0.0
 20
0.0
  9
$LIMMAX
 10
12.0
 20
9.0
  9
$ORTHOMODE
 70
     0
  9
$REGENMODE
 70
     1
  9
$FILLMODE
 70
     1
  9
$QTEXTMODE
 70
     0
  9
$MIRRTEXT
 70
     1
  9
$DRAGMODE
 70
     2
  9
$LTSCALE
 40
1.0
  9
$OSMODE
 70
    37
  9
$ATTMODE
 70
     1
  9
$TEXTSIZE
 40
0.2
  9
$TRACEWID
 40
0.05
  9
$TEXTSTYLE
  7
STANDARD
  9
$CLAYER
  8
0
  9
$CELTYPE
  6
BYLAYER
  9
$CECOLOR
 62
   256
  9
$CELTSCALE
 40
1.0
  9
$DELOBJ
 70
     1
  9
$DISPSILH
 70
     0
  9
$DIMSCALE
 40
1.0
  9
$DIMASZ
 40
0.18
  9
$DIMEXO
 40
0.0625
  9
$DIMDLI
 40
0.38
  9
$DIMRND
 40
0.0
  9
$DIMDLE
 40
0.0
  9
$DIMEXE
 40
0.18
  9
$DIMTP
 40
0.0
  9
$DIMTM
 40
0.0
  9
$DIMTXT
 40
0.18
  9
$DIMCEN
 40
0.09
  9
$DIMTSZ
 40
0.0
  9
$DIMTOL
 70
     0
  9
$DIMLIM
 70
     0
  9
$DIMTIH
 70
     1
  9
$DIMTOH
 70
     1
  9
$DIMSE1
 70
     0
  9
$DIMSE2
 70
     0
  9
$DIMTAD
 70
     0
  9
$DIMZIN
 70
     0
  9
$DIMBLK
  1

  9
$DIMASO
 70
     1
  9
$DIMSHO
 70
     1
  9
$DIMPOST
  1

  9
$DIMAPOST
  1

  9
$DIMALT
 70
     0
  9
$DIMALTD
 70
     2
  9
$DIMALTF
 40
25.4
  9
$DIMLFAC
 40
1.0
  9
$DIMTOFL
 70
     0
  9
$DIMTVP
 40
0.0
  9
$DIMTIX
 70
     0
  9
$DIMSOXD
 70
     0
  9
$DIMSAH
 70
     0
  9
$DIMBLK1
  1

  9
$DIMBLK2
  1

  9
$DIMSTYLE
  2
STANDARD_ACAD
  9
$DIMCLRD
 70
     0
  9
$DIMCLRE
 70
     0
  9
$DIMCLRT
 70
     0
  9
$DIMTFAC
 40
1.0
  9
$DIMGAP
 40
0.09
  9
$DIMJUST
 70
     0
  9
$DIMSD1
 70
     0
  9
$DIMSD2
 70
     0
  9
$DIMTOLJ
 70
     1
  9
$DIMTZIN
 70
     0
  9
$DIMALTZ
 70
     0
  9
$DIMALTTZ
 70
     0
  9
$DIMFIT
 70
     5
  9
$DIMUPT
 70
     0
  9
$DIMUNIT
 70
     2
  9
$DIMDEC
 70
     4
  9
$DIMTDEC
 70
     4
  9
$DIMALTU
 70
     2
  9
$DIMALTTD
 70
     2
  9
$DIMTXSTY
  7
STANDARD
  9
$DIMAUNIT
 70
     0
  9
$LUNITS
 70
     2
  9
$LUPREC
 70
     2
  9
$SKETCHINC
 40
0.1
  9
$FILLETRAD
 40
0.0
  9
$AUNITS
 70
     0
  9
$AUPREC
 70
     0
  9
$MENU
  1
.
  9
$ELEVATION
 40
0.0
  9
$PELEVATION
 40
0.0
  9
$THICKNESS
 40
0.0
  9
$LIMCHECK
 70
     0
  9
$CHAMFERA
 40
0.0
  9
$CHAMFERB
 40
0.0
  9
$CHAMFERC
 40
0.0
  9
$CHAMFERD
 40
0.0
  9
$SKPOLY
 70
     0
  9
$TDCREATE
 40
2461249.447780776
  9
$TDUPDATE
 40
2461249.447780799
  9
$TDINDWG
 40
0.0000000116
  9
$TDUSRTIMER
 40
0.0000000116
  9
$USRTIMER
 70
     1
  9
$ANGBASE
 50
0.0
  9
$ANGDIR
 70
     0
  9
$PDMODE
 70
     0
  9
$PDSIZE
 40
0.0
  9
$PLINEWID
 40
0.0
  9
$COORDS
 70
     1
  9
$SPLFRAME
 70
     0
  9
$SPLINETYPE
 70
     6
  9
$SPLINESEGS
 70
     8
  9
$ATTDIA
 70
     0
  9
$ATTREQ
 70
     1
  9
$HANDLING
 70
     1
  9
$HANDSEED
  5
20A
  9
$SURFTAB1
 70
     6
  9
$SURFTAB2
 70
     6
  9
$SURFTYPE
 70
     6
  9
$SURFU
 70
     6
  9
$SURFV
 70
     6
  9
$UCSNAME
  2

  9
$UCSORG
 10
0.0
 20
0.0
 30
0.0
  9
$UCSXDIR
 10
1.0
 20
0.0
 30
0.0
  9
$UCSYDIR
 10
0.0
 20
1.0
 30
0.0
  9
$PUCSNAME
  2

  9
$PUCSORG
 10
0.0
 20
0.0
 30
0.0
  9
$PUCSXDIR
 10
1.0
 20
0.0
 30
0.0
  9
$PUCSYDIR
 10
0.0
 20
1.0
 30
0.0
  9
$USERI1
 70
     0
  9
$USERI2
 70
     0
  9
$USERI3
 70
     0
  9
$USERI4
 70
     0
  9
$USERI5
 70
     0
  9
$USERR1
 40
0.0
  9
$USERR2
 40
0.0
  9
$USERR3
 40
0.0
  9
$USERR4
 40
0.0
  9
$USERR5
 40
0.0
  9
$WORLDVIEW
 70
     1
  9
$SHADEDGE
 70
     3
  9
$SHADEDIF
 70
    70
  9
$TILEMODE
 70
     1
  9
$MAXACTVP
 70
    64
  9
$PINSBASE
 10
0.0
 20
0.0
 30
0.0
  9
$PLIMCHECK
 70
     0
  9
$PEXTMIN
 10
1.000000000000000E+20
 20
1.000000000000000E+20
 30
1.000000000000000E+20
  9
$PEXTMAX
 10
-1.000000000000000E+20
 20
-1.000000000000000E+20
 30
-1.000000000000000E+20
  9
$PLIMMIN
 10
0.0
 20
0.0
  9
$PLIMMAX
 10
12.0
 20
9.0
  9
$UNITMODE
 70
     0
  9
$VISRETAIN
 70
     1
  9
$PLINEGEN
 70
     0
  9
$PSLTSCALE
 70
     1
  9
$TREEDEPTH
 70
  3020
  9
$PICKSTYLE
 70
     1
  9
$CMLSTYLE
  2
STANDARD
  9
$CMLJUST
 70
     0
  9
$CMLSCALE
 40
1.0
  9
$PROXYGRAPHICS
 70
     1
  9
$MEASUREMENT
 70
     1
  0
ENDSEC
  0
SECTION
  2
CLASSES
  0
CLASS
  1
ACDBDICTIONARYWDFLT
  2
AcDbDictionaryWithDefault
  3
ObjectDBX Classes
 90
        0
280
     0
281
     0
  0
CLASS
  1
VISUALSTYLE
  2
AcDbVisualStyle
  3
ObjectDBX Classes
 90
     4095
280
     0
281
     0
  0
CLASS
  1
MATERIAL
  2
AcDbMaterial
  3
ObjectDBX Classes
 90
     1153
280
     0
281
     0
  0
CLASS
  1
SCALE
  2
AcDbScale
  3
ObjectDBX Classes
 90
     1153
280
     0
281
     0
  0
CLASS
  1
TABLESTYLE
  2
AcDbTableStyle
  3
ObjectDBX Classes
 90
     4095
280
     0
281
     0
  0
CLASS
  1
MLEADERSTYLE
  2
AcDbMLeaderStyle
  3
ACDB_MLEADERSTYLE_CLASS
 90
     4095
280
     0
281
     0
  0
CLASS
  1
SUN
  2
AcDbSun
  3
SCENEOE
 90
     1153
280
     0
281
     0
  0
CLASS
  1
DICTIONARYVAR
  2
AcDbDictionaryVar
  3
ObjectDBX Classes
 90
        0
280
     0
281
     0
  0
CLASS
  1
XRECORD
  2
AcDbXrecord
  3
ObjectDBX Classes
 90
        0
280
     0
281
     0
  0
CLASS
  1
LWPOLYLINE
  2
AcDbPolyline
  3
ObjectDBX Classes
 90
        0
280
     0
281
     1
  0
CLASS
  1
HATCH
  2
AcDbHatch
  3
ObjectDBX Classes
 90
        0
280
     0
281
     1
  0
CLASS
  1
ACDBPLACEHOLDER
  2
AcDbPlaceHolder
  3
ObjectDBX Classes
 90
        0
280
     0
281
     0
  0
CLASS
  1
LAYOUT
  2
AcDbLayout
  3
ObjectDBX Classes
 90
        0
280
     0
281
     0
  0
ENDSEC
  0
SECTION
  2
TABLES
  0
TABLE
  2
VPORT
  5
8
102
{ACAD_XDICTIONARY
360
1FF
102
}
330
0
100
AcDbSymbolTable
 70
     1
  0
VPORT
  5
29
330
8
100
AcDbSymbolTableRecord
100
AcDbViewportTableRecord
  2
*ACTIVE
 70
     0
 10
0.0
 20
0.0
 11
1.0
 21
1.0
 12
10.42990654205607
 22
4.5
 13
0.0
 23
0.0
 14
0.5
 24
0.5
 15
0.5
 25
0.5
 16
0.0
 26
0.0
 36
1.0
 17
0.0
 27
0.0
 37
0.0
 40
9.0
 41
1.972972972850329
 42
50.0
 43
0.0
 44
0.0
 50
0.0
 51
0.0
 71
     0
 72
   100
 73
     1
 74
     3
 75
     0
 76
     0
 77
     0
 78
     0
  0
ENDTAB
  0
TABLE
  2
LTYPE
  5
5
330
0
100
AcDbSymbolTable
 70
     1
  0
LTYPE
  5
14
330
5
100
AcDbSymbolTableRecord
100
AcDbLinetypeTableRecord
  2
BYBLOCK
 70
     0
  3

 72
    65
 73
     0
 40
0.0
  0
LTYPE
  5
15
330
5
100
AcDbSymbolTableRecord
100
AcDbLinetypeTableRecord
  2
BYLAYER
 70
     0
  3

 72
    65
 73
     0
 40
0.0
  0
LTYPE
  5
16
330
5
100
AcDbSymbolTableRecord
100
AcDbLinetypeTableRecord
  2
CONTINUOUS
 70
     0
  3
Solid line
 72
    65
 73
     0
 40
0.0
  0
ENDTAB
  0
TABLE
  2
LAYER
  5
2
330
0
100
AcDbSymbolTable
 70
     4
  0
LAYER
  5
10
330
2
100
AcDbSymbolTableRecord
100
AcDbLayerTableRecord
  2
0
 70
     0
 62
     7
  6
CONTINUOUS
  0
LAYER
  5
5F
330
2
100
AcDbSymbolTableRecord
100
AcDbLayerTableRecord
  2
1_ANYTOOL_1MMDEEP_LABELS_S
 70
     0
 62
     2
  6
CONTINUOUS
  0
LAYER
  5
F4
330
2
100
AcDbSymbolTableRecord
100
AcDbLayerTableRecord
  2
3_ANYTOOL_CUTTHROUGH_INSID
 70
     0
 62
     4
  6
CONTINUOUS
  0
LAYER
  5
167
330
2
100
AcDbSymbolTableRecord
100
AcDbLayerTableRecord
  2
4_ANYTOOL_CUTTHROUGH_OUTSI
 70
     0
 62
     5
  6
CONTINUOUS
  0
ENDTAB
  0
TABLE
  2
STYLE
  5
3
330
0
100
AcDbSymbolTable
 70
     1
  0
STYLE
  5
11
330
3
100
AcDbSymbolTableRecord
100
AcDbTextStyleTableRecord
  2
STANDARD
 70
     0
 40
0.0
 41
1.0
 50
0.0
 71
     0
 42
0.2
  3
txt
  4

  0
ENDTAB
  0
TABLE
  2
VIEW
  5
6
330
0
100
AcDbSymbolTable
 70
     0
  0
ENDTAB
  0
TABLE
  2
UCS
  5
7
330
0
100
AcDbSymbolTable
 70
     0
  0
ENDTAB
  0
TABLE
  2
APPID
  5
9
330
0
100
AcDbSymbolTable
 70
     3
  0
APPID
  5
12
330
9
100
AcDbSymbolTableRecord
100
AcDbRegAppTableRecord
  2
ACAD
 70
     0
  0
APPID
  5
5E
330
9
100
AcDbSymbolTableRecord
100
AcDbRegAppTableRecord
  2
RHINO
 70
     0
  0
APPID
  5
209
330
9
100
AcDbSymbolTableRecord
100
AcDbRegAppTableRecord
  2
ACAD_MLEADERVER
 70
     0
  0
ENDTAB
  0
TABLE
  2
DIMSTYLE
  5
A
330
0
100
AcDbSymbolTable
 70
     1
  0
DIMSTYLE
105
27
330
A
100
AcDbSymbolTableRecord
100
AcDbDimStyleTableRecord
  2
STANDARD_ACAD
 70
     0
  3

  4

  5

  6

  7

 40
1.0
 41
0.18
 42
0.0625
 43
0.38
 44
0.18
 45
0.0
 46
0.0
 47
0.0
 48
0.0
140
0.18
141
0.09
142
0.0
143
25.4
144
1.0
145
0.0
146
1.0
147
0.09
 71
     0
 72
     0
 73
     1
 74
     1
 75
     0
 76
     0
 77
     0
 78
     0
170
     0
171
     2
172
     0
173
     0
174
     0
175
     0
176
     0
177
     0
178
     0
270
     2
271
     4
272
     4
273
     2
274
     2
340
11
275
     0
280
     0
281
     0
282
     0
283
     1
284
     0
285
     0
286
     0
287
     3
288
     0
  0
ENDTAB
  0
TABLE
  2
BLOCK_RECORD
  5
1
330
0
100
AcDbSymbolTable
 70
     0
  0
BLOCK_RECORD
  5
1F
330
1
100
AcDbSymbolTableRecord
100
AcDbBlockTableRecord
  2
*MODEL_SPACE
  0
BLOCK_RECORD
  5
1B
330
1
100
AcDbSymbolTableRecord
100
AcDbBlockTableRecord
  2
*PAPER_SPACE
  0
ENDTAB
  0
ENDSEC
  0
SECTION
  2
BLOCKS
  0
BLOCK
  5
20
330
1F
100
AcDbEntity
  8
0
100
AcDbBlockBegin
  2
*MODEL_SPACE
 70
     0
 10
0.0
 20
0.0
 30
0.0
  3
*MODEL_SPACE
  1

  0
ENDBLK
  5
21
330
1F
100
AcDbEntity
  8
0
100
AcDbBlockEnd
  0
BLOCK
  5
1C
330
1B
100
AcDbEntity
 67
     1
  8
0
100
AcDbBlockBegin
  2
*PAPER_SPACE
 70
     0
 10
0.0
 20
0.0
 30
0.0
  3
*PAPER_SPACE
  1

  0
ENDBLK
  5
1D
330
1B
100
AcDbEntity
 67
     1
  8
0
100
AcDbBlockEnd
  0
ENDSEC
  0
SECTION
  2
ENTITIES
  0
POLYLINE
  5
60
330
1F
100
AcDbEntity
  8
1_ANYTOOL_1MMDEEP_LABELS_S
100
AcDb2dPolyline
 66
     1
 10
0.0
 20
0.0
 30
0.0
  0
VERTEX
  5
61
330
60
100
AcDbEntity
  8
1_ANYTOOL_1MMDEEP_LABELS_S
100
AcDbVertex
100
AcDb2dVertex
 10
21.94285714285979
 20
-30.0
 30
0.0
  0
VERTEX
  5
62
330
60
100
AcDbEntity
  8
1_ANYTOOL_1MMDEEP_LABELS_S
100
AcDbVertex
100
AcDb2dVertex
 10
3.000000000001819
 20
-30.0
 30
0.0
  0
VERTEX
  5
63
330
60
100
AcDbEntity
  8
1_ANYTOOL_1MMDEEP_LABELS_S
100
AcDbVertex
100
AcDb2dVertex
 10
3.000000000001819
 20
0.0
 30
0.0
  0
VERTEX
  5
64
330
60
100
AcDbEntity
  8
1_ANYTOOL_1MMDEEP_LABELS_S
100
AcDbVertex
100
AcDb2dVertex
 10
20.82857142857392
 20
0.0
 30
0.0
  0
SEQEND
  5
65
330
60
100
AcDbEntity
  8
1_ANYTOOL_1MMDEEP_LABELS_S
  0
LINE
  5
66
330
1F
100
AcDbEntity
  8
1_ANYTOOL_1MMDEEP_LABELS_S
100
AcDbLine
 10
17.65714285714421
 20
-13.92857142857247
 30
0.0
 11
3.000000000001819
 21
-13.92857142857247
 31
0.0
  0
LINE
  5
67
330
1F
100
AcDbEntity
  8
1_ANYTOOL_1MMDEEP_LABELS_S
100
AcDbLine
 10
34.15714285714421
 20
-16.11428571428405
 30
0.0
 11
25.37142857143044
 21
-16.19999999999709
 31
0.0
  0
POLYLINE
  5
68
330
1F
100
AcDbEntity
  8
1_ANYTOOL_1MMDEEP_LABELS_S
100
AcDb2dPolyline
 66
     1
 10
0.0
 20
0.0
 30
0.0
  0
VERTEX
  5
69
330
68
100
AcDbEntity
  8
1_ANYTOOL_1MMDEEP_LABELS_S
100
AcDbVertex
100
AcDb2dVertex
 10
39.30000000000109
 20
-30.0
 30
0.0
  0
VERTEX
  5
6A
330
68
100
AcDbEntity
  8
1_ANYTOOL_1MMDEEP_LABELS_S
100
AcDbVertex
100
AcDb2dVertex
 10
39.30000000000109
 20
0.0
 30
0.0
  0
VERTEX
  5
6B
330
68
100
AcDbEntity
  8
1_ANYTOOL_1MMDEEP_LABELS_S
100
AcDbVertex
100
AcDb2dVertex
 10
51.30000000000109
 20
-28.37142857143044
 30
0.0
  0
VERTEX
  5
6C
330
68
100
AcDbEntity
  8
1_ANYTOOL_1MMDEEP_LABELS_S
100
AcDbVertex
100
AcDb2dVertex
 10
63.30000000000109
 20
-0.1285714285695576
 30
0.0
  0
VERTEX
  5
6D
330
68
100
AcDbEntity
  8
1_ANYTOOL_1MMDEEP_LABELS_S
100
AcDbVertex
100
AcDb2dVertex
 10
63.30000000000109
 20
-30.0
 30
0.0
  0
SEQEND
  5
6E
330
68
100
AcDbEntity
  8
1_ANYTOOL_1MMDEEP_LABELS_S
  0
LINE
  5
6F
330
1F
100
AcDbEntity
  8
1_ANYTOOL_1MMDEEP_LABELS_S
100
AcDbLine
 10
85.15714285714421
 20
-0.4714285714289872
 30
0.0
 11
67.9714285714308
 21
-31.24285714285361
 31
0.0
  0
POLYLINE
  5
70
330
1F
100
AcDbEntity
  8
1_ANYTOOL_1MMDEEP_LABELS_S
100
AcDb2dPolyline
 66
     1
 10
0.0
 20
0.0
 30
0.0
  0
VERTEX
  5
71
330
70
100
AcDbEntity
  8
1_ANYTOOL_1MMDEEP_LABELS_S
100
AcDbVertex
100
AcDb2dVertex
 10
86.22857142857356
 20
-21.51428571428551
 30
0.0
  0
VERTEX
  5
72
330
70
100
AcDbEntity
  8
1_ANYTOOL_1MMDEEP_LABELS_S
100
AcDbVertex
100
AcDb2dVertex
 10
86.23070591518069
 20
-21.72246093749993
 30
0.0
  0
VERTEX
  5
73
330
70
100
AcDbEntity
  8
1_ANYTOOL_1MMDEEP_LABELS_S
100
AcDbVertex
100
AcDb2dVertex
 10
86.23710937500212
 20
-21.92912946428578
 30
0.0
  0
VERTEX
  5
74
330
70
100
AcDbEntity
  8
1_ANYTOOL_1MMDEEP_LABELS_S
100
AcDbVertex
100
AcDb2dVertex
 10
86.24778180803784
 20
-22.13429129464305
 30
0.0
  0
VERTEX
  5
75
330
70
100
AcDbEntity
  8
1_ANYTOOL_1MMDEEP_LABELS_S
100
AcDbVertex
100
AcDb2dVertex
 10
86.26272321428783
 20
-22.33794642857174
 30
0.0
  0
VERTEX
  5
76
330
70
100
AcDbEntity
  8
1_ANYTOOL_1MMDEEP_LABELS_S
100
AcDbVertex
100
AcDb2dVertex
 10
86.2819335937521
 20
-22.54009486607185
 30
0.0
  0
VERTEX
  5
77
330
70
100
AcDbEntity
  8
1_ANYTOOL_1MMDEEP_LABELS_S
100
AcDbVertex
100
AcDb2dVertex
 10
86.30541294643066
 20
-22.74073660714339
 30
0.0
  0
VERTEX
  5
78
330
70
100
AcDbEntity
  8
1_ANYTOOL_1MMDEEP_LABELS_S
100
AcDbVertex
100
AcDb2dVertex
 10
86.33316127232351
 20
-22.93987165178635
 30
0.0
  0
VERTEX
  5
79
330
70
100
AcDbEntity
  8
1_ANYTOOL_1MMDEEP_LABELS_S
100
AcDbVertex
100
AcDb2dVertex
 10
86.36517857143065
 20
-23.13750000000073
 30
0.0
  0
VERTEX
  5
7A
330
70
100
AcDbEntity
  8
1_ANYTOOL_1MMDEEP_LABELS_S
100
AcDbVertex
100
AcDb2dVertex
 10
86.40146484375205
 20
-23.33362165178653
 30
0.0
  0
VERTEX
  5
7B
330
70
100
AcDbEntity
  8
1_ANYTOOL_1MMDEEP_LABELS_S
100
AcDbVertex
100
AcDb2dVertex
 10
86.44202008928775
 20
-23.52823660714375
 30
0.0
  0
VERTEX
  5
7C
330
70
100
AcDbEntity
  8
1_ANYTOOL_1MMDEEP_LABELS_S
100
AcDbVertex
100
AcDb2dVertex
 10
86.48684430803773
 20
-23.7213448660724
 30
0.0
  0
VERTEX
  5
7D
330
70
100
AcDbEntity
  8
1_ANYTOOL_1MMDEEP_LABELS_S
100
AcDbVertex
100
AcDb2dVertex
 10
86.535937500002
 20
-23.91294642857247
 30
0.0
  0
VERTEX
  5
7E
330
70
100
AcDbEntity
  8
1_ANYTOOL_1MMDEEP_LABELS_S
100
AcDbVertex
100
AcDb2dVertex
 10
86.58929966518056
 20
-24.10304129464396
 30
0.0
  0
VERTEX
  5
7F
330
70
100
AcDbEntity
  8
1_ANYTOOL_1MMDEEP_LABELS_S
100
AcDbVertex
100
AcDb2dVertex
 10
86.64693080357338
 20
-24.29162946428687
 30
0.0
  0
VERTEX
  5
80
330
70
100
AcDbEntity
  8
1_ANYTOOL_1MMDEEP_LABELS_S
100
AcDbVertex
100
AcDb2dVertex
 10
86.7088309151805
 20
-24.47871093750121
 30
0.0
  0
VERTEX
  5
81
330
70
100
AcDbEntity
  8
1_ANYTOOL_1MMDEEP_LABELS_S
100
AcDbVertex
100
AcDb2dVertex
 10
86.77500000000191
 20
-24.66428571428696
 30
0.0
  0
VERTEX
  5
82
330
70
100
AcDbEntity
  8
1_ANYTOOL_1MMDEEP_LABELS_S
100
AcDbVertex
100
AcDb2dVertex
 10
86.84543805803759
 20
-24.84835379464414
 30
0.0
  0
VERTEX
  5
83
330
70
100
AcDbEntity
  8
1_ANYTOOL_1MMDEEP_LABELS_S
100
AcDbVertex
100
AcDb2dVertex
 10
86.92014508928756
 20
-25.03091517857274
 30
0.0
  0
VERTEX
  5
84
330
70
100
AcDbEntity
  8
1_ANYTOOL_1MMDEEP_LABELS_S
100
AcDbVertex
100
AcDb2dVertex
 10
86.99912109375182
 20
-25.21196986607276
 30
0.0
  0
VERTEX
  5
85
330
70
100
AcDbEntity
  8
1_ANYTOOL_1MMDEEP_LABELS_S
100
AcDbVertex
100
AcDb2dVertex
 10
87.08236607143036
 20
-25.39151785714421
 30
0.0
  0
VERTEX
  5
86
330
70
100
AcDbEntity
  8
1_ANYTOOL_1MMDEEP_LABELS_S
100
AcDbVertex
100
AcDb2dVertex
 10
87.16988002232317
 20
-25.56955915178708
 30
0.0
  0
VERTEX
  5
87
330
70
100
AcDbEntity
  8
1_ANYTOOL_1MMDEEP_LABELS_S
100
AcDbVertex
100
AcDb2dVertex
 10
87.26166294643028
 20
-25.74609375000136
 30
0.0
  0
VERTEX
  5
88
330
70
100
AcDbEntity
  8
1_ANYTOOL_1MMDEEP_LABELS_S
100
AcDbVertex
100
AcDb2dVertex
 10
87.35771484375167
 20
-25.92112165178708
 30
0.0
  0
VERTEX
  5
89
330
70
100
AcDbEntity
  8
1_ANYTOOL_1MMDEEP_LABELS_S
100
AcDbVertex
100
AcDb2dVertex
 10
87.45803571428735
 20
-26.09464285714421
 30
0.0
  0
VERTEX
  5
8A
330
70
100
AcDbEntity
  8
1_ANYTOOL_1MMDEEP_LABELS_S
100
AcDbVertex
100
AcDb2dVertex
 10
87.5626255580373
 20
-26.26665736607276
 30
0.0
  0
VERTEX
  5
8B
330
70
100
AcDbEntity
  8
1_ANYTOOL_1MMDEEP_LABELS_S
100
AcDbVertex
100
AcDb2dVertex
 10
87.67148437500154
 20
-26.43716517857274
 30
0.0
  0
VERTEX
  5
8C
330
70
100
AcDbEntity
  8
1_ANYTOOL_1MMDEEP_LABELS_S
100
AcDbVertex
100
AcDb2dVertex
 10
87.78461216518006
 20
-26.60616629464414
 30
0.0
  0
VERTEX
  5
8D
330
70
100
AcDbEntity
  8
1_ANYTOOL_1MMDEEP_LABELS_S
100
AcDbVertex
100
AcDb2dVertex
 10
87.90200892857288
 20
-26.77366071428696
 30
0.0
  0
VERTEX
  5
8E
330
70
100
AcDbEntity
  8
1_ANYTOOL_1MMDEEP_LABELS_S
100
AcDbVertex
100
AcDb2dVertex
 10
88.02367466517998
 20
-26.93964843750121
 30
0.0
  0
VERTEX
  5
8F
330
70
100
AcDbEntity
  8
1_ANYTOOL_1MMDEEP_LABELS_S
100
AcDbVertex
100
AcDb2dVertex
 10
88.14960937500135
 20
-27.10412946428687
 30
0.0
  0
VERTEX
  5
90
330
70
100
AcDbEntity
  8
1_ANYTOOL_1MMDEEP_LABELS_S
100
AcDbVertex
100
AcDb2dVertex
 10
88.279813058037
 20
-27.26710379464396
 30
0.0
  0
VERTEX
  5
91
330
70
100
AcDbEntity
  8
1_ANYTOOL_1MMDEEP_LABELS_S
100
AcDbVertex
100
AcDb2dVertex
 10
88.41428571428696
 20
-27.42857142857247
 30
0.0
  0
VERTEX
  5
92
330
70
100
AcDbEntity
  8
1_ANYTOOL_1MMDEEP_LABELS_S
100
AcDbVertex
100
AcDb2dVertex
 10
88.55491071428699
 20
-27.5867745535724
 30
0.0
  0
VERTEX
  5
93
330
70
100
AcDbEntity
  8
1_ANYTOOL_1MMDEEP_LABELS_S
100
AcDbVertex
100
AcDb2dVertex
 10
88.69821428571558
 20
-27.73995535714377
 30
0.0
  0
VERTEX
  5
94
330
70
100
AcDbEntity
  8
1_ANYTOOL_1MMDEEP_LABELS_S
100
AcDbVertex
100
AcDb2dVertex
 10
88.84419642857273
 20
-27.88811383928657
 30
0.0
  0
VERTEX
  5
95
330
70
100
AcDbEntity
  8
1_ANYTOOL_1MMDEEP_LABELS_S
100
AcDbVertex
100
AcDb2dVertex
 10
88.99285714285847
 20
-28.0312500000008
 30
0.0
  0
VERTEX
  5
96
330
70
100
AcDbEntity
  8
1_ANYTOOL_1MMDEEP_LABELS_S
100
AcDbVertex
100
AcDb2dVertex
 10
89.14419642857278
 20
-28.16936383928645
 30
0.0
  0
VERTEX
  5
97
330
70
100
AcDbEntity
  8
1_ANYTOOL_1MMDEEP_LABELS_S
100
AcDbVertex
100
AcDb2dVertex
 10
89.29821428571566
 20
-28.30245535714354
 30
0.0
  0
VERTEX
  5
98
330
70
100
AcDbEntity
  8
1_ANYTOOL_1MMDEEP_LABELS_S
100
AcDbVertex
100
AcDb2dVertex
 10
89.45491071428711
 20
-28.43052455357206
 30
0.0
  0
VERTEX
  5
99
330
70
100
AcDbEntity
  8
1_ANYTOOL_1MMDEEP_LABELS_S
100
AcDbVertex
100
AcDb2dVertex
 10
89.61428571428712
 20
-28.55357142857201
 30
0.0
  0
VERTEX
  5
9A
330
70
100
AcDbEntity
  8
1_ANYTOOL_1MMDEEP_LABELS_S
100
AcDbVertex
100
AcDb2dVertex
 10
89.77633928571572
 20
-28.67159598214339
 30
0.0
  0
VERTEX
  5
9B
330
70
100
AcDbEntity
  8
1_ANYTOOL_1MMDEEP_LABELS_S
100
AcDbVertex
100
AcDb2dVertex
 10
89.94107142857288
 20
-28.78459821428621
 30
0.0
  0
VERTEX
  5
9C
330
70
100
AcDbEntity
  8
1_ANYTOOL_1MMDEEP_LABELS_S
100
AcDbVertex
100
AcDb2dVertex
 10
90.10848214285862
 20
-28.89257812500045
 30
0.0
  0
VERTEX
  5
9D
330
70
100
AcDbEntity
  8
1_ANYTOOL_1MMDEEP_LABELS_S
100
AcDbVertex
100
AcDb2dVertex
 10
90.27857142857292
 20
-28.99553571428612
 30
0.0
  0
VERTEX
  5
9E
330
70
100
AcDbEntity
  8
1_ANYTOOL_1MMDEEP_LABELS_S
100
AcDbVertex
100
AcDb2dVertex
 10
90.45133928571579
 20
-29.09347098214322
 30
0.0
  0
VERTEX
  5
9F
330
70
100
AcDbEntity
  8
1_ANYTOOL_1MMDEEP_LABELS_S
100
AcDbVertex
100
AcDb2dVertex
 10
90.62678571428725
 20
-29.18638392857176
 30
0.0
  0
VERTEX
  5
A0
330
70
100
AcDbEntity
  8
1_ANYTOOL_1MMDEEP_LABELS_S
100
AcDbVertex
100
AcDb2dVertex
 10
90.80491071428727
 20
-29.27427455357172
 30
0.0
  0
VERTEX
  5
A1
330
70
100
AcDbEntity
  8
1_ANYTOOL_1MMDEEP_LABELS_S
100
AcDbVertex
100
AcDb2dVertex
 10
90.98571428571586
 20
-29.35714285714312
 30
0.0
  0
VERTEX
  5
A2
330
70
100
AcDbEntity
  8
1_ANYTOOL_1MMDEEP_LABELS_S
100
AcDbVertex
100
AcDb2dVertex
 10
91.16919642857303
 20
-29.43498883928594
 30
0.0
  0
VERTEX
  5
A3
330
70
100
AcDbEntity
  8
1_ANYTOOL_1MMDEEP_LABELS_S
100
AcDbVertex
100
AcDb2dVertex
 10
91.35535714285876
 20
-29.5078125000002
 30
0.0
  0
VERTEX
  5
A4
330
70
100
AcDbEntity
  8
1_ANYTOOL_1MMDEEP_LABELS_S
100
AcDbVertex
100
AcDb2dVertex
 10
91.54419642857306
 20
-29.57561383928589
 30
0.0
  0
VERTEX
  5
A5
330
70
100
AcDbEntity
  8
1_ANYTOOL_1MMDEEP_LABELS_S
100
AcDbVertex
100
AcDb2dVertex
 10
91.73571428571594
 20
-29.638392857143
 30
0.0
  0
VERTEX
  5
A6
330
70
100
AcDbEntity
  8
1_ANYTOOL_1MMDEEP_LABELS_S
100
AcDbVertex
100
AcDb2dVertex
 10
91.9299107142874
 20
-29.69614955357155
 30
0.0
  0
VERTEX
  5
A7
330
70
100
AcDbEntity
  8
1_ANYTOOL_1MMDEEP_LABELS_S
100
AcDbVertex
100
AcDb2dVertex
 10
92.12678571428742
 20
-29.74888392857153
 30
0.0
  0
VERTEX
  5
A8
330
70
100
AcDbEntity
  8
1_ANYTOOL_1MMDEEP_LABELS_S
100
AcDbVertex
100
AcDb2dVertex
 10
92.32633928571602
 20
-29.79659598214294
 30
0.0
  0
VERTEX
  5
A9
330
70
100
AcDbEntity
  8
1_ANYTOOL_1MMDEEP_LABELS_S
100
AcDbVertex
100
AcDb2dVertex
 10
92.52857142857317
 20
-29.83928571428578
 30
0.0
  0
VERTEX
  5
AA
330
70
100
AcDbEntity
  8
1_ANYTOOL_1MMDEEP_LABELS_S
100
AcDbVertex
100
AcDb2dVertex
 10
92.73348214285892
 20
-29.87695312500005
 30
0.0
  0
VERTEX
  5
AB
330
70
100
AcDbEntity
  8
1_ANYTOOL_1MMDEEP_LABELS_S
100
AcDbVertex
100
AcDb2dVertex
 10
92.94107142857322
 20
-29.90959821428575
 30
0.0
  0
VERTEX
  5
AC
330
70
100
AcDbEntity
  8
1_ANYTOOL_1MMDEEP_LABELS_S
100
AcDbVertex
100
AcDb2dVertex
 10
93.1513392857161
 20
-29.93722098214288
 30
0.0
  0
VERTEX
  5
AD
330
70
100
AcDbEntity
  8
1_ANYTOOL_1MMDEEP_LABELS_S
100
AcDbVertex
100
AcDb2dVertex
 10
93.36428571428755
 20
-29.95982142857144
 30
0.0
  0
VERTEX
  5
AE
330
70
100
AcDbEntity
  8
1_ANYTOOL_1MMDEEP_LABELS_S
100
AcDbVertex
100
AcDb2dVertex
 10
93.57991071428756
 20
-29.97739955357144
 30
0.0
  0
VERTEX
  5
AF
330
70
100
AcDbEntity
  8
1_ANYTOOL_1MMDEEP_LABELS_S
100
AcDbVertex
100
AcDb2dVertex
 10
93.79821428571617
 20
-29.98995535714286
 30
0.0
  0
VERTEX
  5
B0
330
70
100
AcDbEntity
  8
1_ANYTOOL_1MMDEEP_LABELS_S
100
AcDbVertex
100
AcDb2dVertex
 10
94.01919642857334
 20
-29.99748883928572
 30
0.0
  0
VERTEX
  5
B1
330
70
100
AcDbEntity
  8
1_ANYTOOL_1MMDEEP_LABELS_S
100
AcDbVertex
100
AcDb2dVertex
 10
94.24285714285907
 20
-30.0
 30
0.0
  0
VERTEX
  5
B2
330
70
100
AcDbEntity
  8
1_ANYTOOL_1MMDEEP_LABELS_S
100
AcDbVertex
100
AcDb2dVertex
 10
94.45588727678759
 20
-29.99769810267857
 30
0.0
  0
VERTEX
  5
B3
330
70
100
AcDbEntity
  8
1_ANYTOOL_1MMDEEP_LABELS_S
100
AcDbVertex
100
AcDb2dVertex
 10
94.66640625000184
 20
-29.99079241071428
 30
0.0
  0
VERTEX
  5
B4
330
70
100
AcDbEntity
  8
1_ANYTOOL_1MMDEEP_LABELS_S
100
AcDbVertex
100
AcDb2dVertex
 10
94.8744140625018
 20
-29.97928292410712
 30
0.0
  0
VERTEX
  5
B5
330
70
100
AcDbEntity
  8
1_ANYTOOL_1MMDEEP_LABELS_S
100
AcDbVertex
100
AcDb2dVertex
 10
95.07991071428748
 20
-29.96316964285711
 30
0.0
  0
VERTEX
  5
B6
330
70
100
AcDbEntity
  8
1_ANYTOOL_1MMDEEP_LABELS_S
100
AcDbVertex
100
AcDb2dVertex
 10
95.28289620535888
 20
-29.94245256696423
 30
0.0
  0
VERTEX
  5
B7
330
70
100
AcDbEntity
  8
1_ANYTOOL_1MMDEEP_LABELS_S
100
AcDbVertex
100
AcDb2dVertex
 10
95.483370535716
 20
-29.9171316964285
 30
0.0
  0
VERTEX
  5
B8
330
70
100
AcDbEntity
  8
1_ANYTOOL_1MMDEEP_LABELS_S
100
AcDbVertex
100
AcDb2dVertex
 10
95.68133370535884
 20
-29.8872070312499
 30
0.0
  0
VERTEX
  5
B9
330
70
100
AcDbEntity
  8
1_ANYTOOL_1MMDEEP_LABELS_S
100
AcDbVertex
100
AcDb2dVertex
 10
95.8767857142874
 20
-29.85267857142844
 30
0.0
  0
VERTEX
  5
BA
330
70
100
AcDbEntity
  8
1_ANYTOOL_1MMDEEP_LABELS_S
100
AcDbVertex
100
AcDb2dVertex
 10
96.06972656250167
 20
-29.81354631696412
 30
0.0
  0
VERTEX
  5
BB
330
70
100
AcDbEntity
  8
1_ANYTOOL_1MMDEEP_LABELS_S
100
AcDbVertex
100
AcDb2dVertex
 10
96.26015625000167
 20
-29.76981026785694
 30
0.0
  0
VERTEX
  5
BC
330
70
100
AcDbEntity
  8
1_ANYTOOL_1MMDEEP_LABELS_S
100
AcDbVertex
100
AcDb2dVertex
 10
96.44807477678738
 20
-29.7214704241069
 30
0.0
  0
VERTEX
  5
BD
330
70
100
AcDbEntity
  8
1_ANYTOOL_1MMDEEP_LABELS_S
100
AcDbVertex
100
AcDb2dVertex
 10
96.63348214285881
 20
-29.66852678571399
 30
0.0
  0
VERTEX
  5
BE
330
70
100
AcDbEntity
  8
1_ANYTOOL_1MMDEEP_LABELS_S
100
AcDbVertex
100
AcDb2dVertex
 10
96.81637834821596
 20
-29.61097935267823
 30
0.0
  0
VERTEX
  5
BF
330
70
100
AcDbEntity
  8
1_ANYTOOL_1MMDEEP_LABELS_S
100
AcDbVertex
100
AcDb2dVertex
 10
96.99676339285884
 20
-29.5488281249996
 30
0.0
  0
VERTEX
  5
C0
330
70
100
AcDbEntity
  8
1_ANYTOOL_1MMDEEP_LABELS_S
100
AcDbVertex
100
AcDb2dVertex
 10
97.17463727678742
 20
-29.48207310267811
 30
0.0
  0
VERTEX
  5
C1
330
70
100
AcDbEntity
  8
1_ANYTOOL_1MMDEEP_LABELS_S
100
AcDbVertex
100
AcDb2dVertex
 10
97.35000000000173
 20
-29.41071428571377
 30
0.0
  0
VERTEX
  5
C2
330
70
100
AcDbEntity
  8
1_ANYTOOL_1MMDEEP_LABELS_S
100
AcDbVertex
100
AcDb2dVertex
 10
97.52285156250176
 20
-29.33475167410656
 30
0.0
  0
VERTEX
  5
C3
330
70
100
AcDbEntity
  8
1_ANYTOOL_1MMDEEP_LABELS_S
100
AcDbVertex
100
AcDb2dVertex
 10
97.69319196428751
 20
-29.25418526785649
 30
0.0
  0
VERTEX
  5
C4
330
70
100
AcDbEntity
  8
1_ANYTOOL_1MMDEEP_LABELS_S
100
AcDbVertex
100
AcDb2dVertex
 10
97.86102120535897
 20
-29.16901506696355
 30
0.0
  0
VERTEX
  5
C5
330
70
100
AcDbEntity
  8
1_ANYTOOL_1MMDEEP_LABELS_S
100
AcDbVertex
100
AcDb2dVertex
 10
98.02633928571615
 20
-29.07924107142776
 30
0.0
  0
VERTEX
  5
C6
330
70
100
AcDbEntity
  8
1_ANYTOOL_1MMDEEP_LABELS_S
100
AcDbVertex
100
AcDb2dVertex
 10
98.18914620535905
 20
-28.9848632812491
 30
0.0
  0
VERTEX
  5
C7
330
70
100
AcDbEntity
  8
1_ANYTOOL_1MMDEEP_LABELS_S
100
AcDbVertex
100
AcDb2dVertex
 10
98.34944196428768
 20
-28.88588169642759
 30
0.0
  0
VERTEX
  5
C8
330
70
100
AcDbEntity
  8
1_ANYTOOL_1MMDEEP_LABELS_S
100
AcDbVertex
100
AcDb2dVertex
 10
98.50722656250201
 20
-28.78229631696321
 30
0.0
  0
VERTEX
  5
C9
330
70
100
AcDbEntity
  8
1_ANYTOOL_1MMDEEP_LABELS_S
100
AcDbVertex
100
AcDb2dVertex
 10
98.66250000000207
 20
-28.67410714285597
 30
0.0
  0
VERTEX
  5
CA
330
70
100
AcDbEntity
  8
1_ANYTOOL_1MMDEEP_LABELS_S
100
AcDbVertex
100
AcDb2dVertex
 10
98.81526227678785
 20
-28.56131417410587
 30
0.0
  0
VERTEX
  5
CB
330
70
100
AcDbEntity
  8
1_ANYTOOL_1MMDEEP_LABELS_S
100
AcDbVertex
100
AcDb2dVertex
 10
98.96551339285935
 20
-28.44391741071291
 30
0.0
  0
VERTEX
  5
CC
330
70
100
AcDbEntity
  8
1_ANYTOOL_1MMDEEP_LABELS_S
100
AcDbVertex
100
AcDb2dVertex
 10
99.11325334821656
 20
-28.32191685267709
 30
0.0
  0
VERTEX
  5
CD
330
70
100
AcDbEntity
  8
1_ANYTOOL_1MMDEEP_LABELS_S
100
AcDbVertex
100
AcDb2dVertex
 10
99.25848214285949
 20
-28.19531249999841
 30
0.0
  0
VERTEX
  5
CE
330
70
100
AcDbEntity
  8
1_ANYTOOL_1MMDEEP_LABELS_S
100
AcDbVertex
100
AcDb2dVertex
 10
99.40119977678815
 20
-28.06410435267686
 30
0.0
  0
VERTEX
  5
CF
330
70
100
AcDbEntity
  8
1_ANYTOOL_1MMDEEP_LABELS_S
100
AcDbVertex
100
AcDb2dVertex
 10
99.54140625000252
 20
-27.92829241071246
 30
0.0
  0
VERTEX
  5
D0
330
70
100
AcDbEntity
  8
1_ANYTOOL_1MMDEEP_LABELS_S
100
AcDbVertex
100
AcDb2dVertex
 10
99.67910156250261
 20
-27.78787667410519
 30
0.0
  0
VERTEX
  5
D1
330
70
100
AcDbEntity
  8
1_ANYTOOL_1MMDEEP_LABELS_S
100
AcDbVertex
100
AcDb2dVertex
 10
99.81428571428842
 20
-27.64285714285506
 30
0.0
  0
VERTEX
  5
D2
330
70
100
AcDbEntity
  8
1_ANYTOOL_1MMDEEP_LABELS_S
100
AcDbVertex
100
AcDb2dVertex
 10
99.9461216517884
 20
-27.49453124999824
 30
0.0
  0
VERTEX
  5
D3
330
70
100
AcDbEntity
  8
1_ANYTOOL_1MMDEEP_LABELS_S
100
AcDbVertex
100
AcDb2dVertex
 10
100.0737723214312
 20
-27.34419642856997
 30
0.0
  0
VERTEX
  5
D4
330
70
100
AcDbEntity
  8
1_ANYTOOL_1MMDEEP_LABELS_S
100
AcDbVertex
100
AcDb2dVertex
 10
100.1972377232169
 20
-27.19185267857026
 30
0.0
  0
VERTEX
  5
D5
330
70
100
AcDbEntity
  8
1_ANYTOOL_1MMDEEP_LABELS_S
100
AcDbVertex
100
AcDb2dVertex
 10
100.3165178571455
 20
-27.03749999999911
 30
0.0
  0
VERTEX
  5
D6
330
70
100
AcDbEntity
  8
1_ANYTOOL_1MMDEEP_LABELS_S
100
AcDbVertex
100
AcDb2dVertex
 10
100.4316127232169
 20
-26.88113839285652
 30
0.0
  0
VERTEX
  5
D7
330
70
100
AcDbEntity
  8
1_ANYTOOL_1MMDEEP_LABELS_S
100
AcDbVertex
100
AcDb2dVertex
 10
100.5425223214312
 20
-26.72276785714249
 30
0.0
  0
VERTEX
  5
D8
330
70
100
AcDbEntity
  8
1_ANYTOOL_1MMDEEP_LABELS_S
100
AcDbVertex
100
AcDb2dVertex
 10
100.6492466517883
 20
-26.56238839285701
 30
0.0
  0
VERTEX
  5
D9
330
70
100
AcDbEntity
  8
1_ANYTOOL_1MMDEEP_LABELS_S
100
AcDbVertex
100
AcDb2dVertex
 10
100.7517857142883
 20
-26.40000000000009
 30
0.0
  0
VERTEX
  5
DA
330
70
100
AcDbEntity
  8
1_ANYTOOL_1MMDEEP_LABELS_S
100
AcDbVertex
100
AcDb2dVertex
 10
100.8501395089312
 20
-26.23560267857173
 30
0.0
  0
VERTEX
  5
DB
330
70
100
AcDbEntity
  8
1_ANYTOOL_1MMDEEP_LABELS_S
100
AcDbVertex
100
AcDb2dVertex
 10
100.9443080357169
 20
-26.06919642857193
 30
0.0
  0
VERTEX
  5
DC
330
70
100
AcDbEntity
  8
1_ANYTOOL_1MMDEEP_LABELS_S
100
AcDbVertex
100
AcDb2dVertex
 10
101.0342912946454
 20
-25.90078125000068
 30
0.0
  0
VERTEX
  5
DD
330
70
100
AcDbEntity
  8
1_ANYTOOL_1MMDEEP_LABELS_S
100
AcDbVertex
100
AcDb2dVertex
 10
101.1200892857168
 20
-25.730357142858
 30
0.0
  0
VERTEX
  5
DE
330
70
100
AcDbEntity
  8
1_ANYTOOL_1MMDEEP_LABELS_S
100
AcDbVertex
100
AcDb2dVertex
 10
101.2017020089311
 20
-25.55792410714387
 30
0.0
  0
VERTEX
  5
DF
330
70
100
AcDbEntity
  8
1_ANYTOOL_1MMDEEP_LABELS_S
100
AcDbVertex
100
AcDb2dVertex
 10
101.2791294642882
 20
-25.3834821428583
 30
0.0
  0
VERTEX
  5
E0
330
70
100
AcDbEntity
  8
1_ANYTOOL_1MMDEEP_LABELS_S
100
AcDbVertex
100
AcDb2dVertex
 10
101.3523716517882
 20
-25.20703125000129
 30
0.0
  0
VERTEX
  5
E1
330
70
100
AcDbEntity
  8
1_ANYTOOL_1MMDEEP_LABELS_S
100
AcDbVertex
100
AcDb2dVertex
 10
101.4214285714311
 20
-25.02857142857283
 30
0.0
  0
VERTEX
  5
E2
330
70
100
AcDbEntity
  8
1_ANYTOOL_1MMDEEP_LABELS_S
100
AcDbVertex
100
AcDb2dVertex
 10
101.4863002232168
 20
-24.84810267857294
 30
0.0
  0
VERTEX
  5
E3
330
70
100
AcDbEntity
  8
1_ANYTOOL_1MMDEEP_LABELS_S
100
AcDbVertex
100
AcDb2dVertex
 10
101.5469866071454
 20
-24.6656250000016
 30
0.0
  0
VERTEX
  5
E4
330
70
100
AcDbEntity
  8
1_ANYTOOL_1MMDEEP_LABELS_S
100
AcDbVertex
100
AcDb2dVertex
 10
101.6034877232168
 20
-24.48113839285882
 30
0.0
  0
VERTEX
  5
E5
330
70
100
AcDbEntity
  8
1_ANYTOOL_1MMDEEP_LABELS_S
100
AcDbVertex
100
AcDb2dVertex
 10
101.6558035714311
 20
-24.29464285714459
 30
0.0
  0
VERTEX
  5
E6
330
70
100
AcDbEntity
  8
1_ANYTOOL_1MMDEEP_LABELS_S
100
AcDbVertex
100
AcDb2dVertex
 10
101.7039341517882
 20
-24.10613839285893
 30
0.0
  0
VERTEX
  5
E7
330
70
100
AcDbEntity
  8
1_ANYTOOL_1MMDEEP_LABELS_S
100
AcDbVertex
100
AcDb2dVertex
 10
101.7478794642882
 20
-23.91562500000182
 30
0.0
  0
VERTEX
  5
E8
330
70
100
AcDbEntity
  8
1_ANYTOOL_1MMDEEP_LABELS_S
100
AcDbVertex
100
AcDb2dVertex
 10
101.787639508931
 20
-23.72310267857328
 30
0.0
  0
VERTEX
  5
E9
330
70
100
AcDbEntity
  8
1_ANYTOOL_1MMDEEP_LABELS_S
100
AcDbVertex
100
AcDb2dVertex
 10
101.8232142857167
 20
-23.52857142857329
 30
0.0
  0
VERTEX
  5
EA
330
70
100
AcDbEntity
  8
1_ANYTOOL_1MMDEEP_LABELS_S
100
AcDbVertex
100
AcDb2dVertex
 10
101.8546037946453
 20
-23.33203125000185
 30
0.0
  0
VERTEX
  5
EB
330
70
100
AcDbEntity
  8
1_ANYTOOL_1MMDEEP_LABELS_S
100
AcDbVertex
100
AcDb2dVertex
 10
101.8818080357167
 20
-23.13348214285898
 30
0.0
  0
VERTEX
  5
EC
330
70
100
AcDbEntity
  8
1_ANYTOOL_1MMDEEP_LABELS_S
100
AcDbVertex
100
AcDb2dVertex
 10
101.904827008931
 20
-22.93292410714466
 30
0.0
  0
VERTEX
  5
ED
330
70
100
AcDbEntity
  8
1_ANYTOOL_1MMDEEP_LABELS_S
100
AcDbVertex
100
AcDb2dVertex
 10
101.9236607142882
 20
-22.73035714285891
 30
0.0
  0
VERTEX
  5
EE
330
70
100
AcDbEntity
  8
1_ANYTOOL_1MMDEEP_LABELS_S
100
AcDbVertex
100
AcDb2dVertex
 10
101.9383091517882
 20
-22.52578125000171
 30
0.0
  0
VERTEX
  5
EF
330
70
100
AcDbEntity
  8
1_ANYTOOL_1MMDEEP_LABELS_S
100
AcDbVertex
100
AcDb2dVertex
 10
101.948772321431
 20
-22.31919642857306
 30
0.0
  0
VERTEX
  5
F0
330
70
100
AcDbEntity
  8
1_ANYTOOL_1MMDEEP_LABELS_S
100
AcDbVertex
100
AcDb2dVertex
 10
101.9550502232167
 20
-22.11060267857298
 30
0.0
  0
VERTEX
  5
F1
330
70
100
AcDbEntity
  8
1_ANYTOOL_1MMDEEP_LABELS_S
100
AcDbVertex
100
AcDb2dVertex
 10
101.9571428571453
 20
-21.90000000000146
 30
0.0
  0
VERTEX
  5
F2
330
70
100
AcDbEntity
  8
1_ANYTOOL_1MMDEEP_LABELS_S
100
AcDbVertex
100
AcDb2dVertex
 10
101.9571428571453
 20
0.0
 30
0.0
  0
SEQEND
  5
F3
330
70
100
AcDbEntity
  8
1_ANYTOOL_1MMDEEP_LABELS_S
  0
POLYLINE
  5
F5
330
1F
100
AcDbEntity
  8
3_ANYTOOL_CUTTHROUGH_INSID
100
AcDb2dPolyline
 66
     1
 10
0.0
 20
0.0
 30
0.0
 70
     1
  0
VERTEX
  5
F6
330
F5
100
AcDbEntity
  8
3_ANYTOOL_CUTTHROUGH_INSID
100
AcDbVertex
100
AcDb2dVertex
 10
-411.8426347378791
 20
72.90939002404775
 30
0.0
  0
VERTEX
  5
F7
330
F5
100
AcDbEntity
  8
3_ANYTOOL_CUTTHROUGH_INSID
100
AcDbVertex
100
AcDb2dVertex
 10
-411.8426347378791
 20
66.90939002404775
 30
0.0
  0
VERTEX
  5
F8
330
F5
100
AcDbEntity
  8
3_ANYTOOL_CUTTHROUGH_INSID
100
AcDbVertex
100
AcDb2dVertex
 10
-423.8426347378791
 20
66.9093900240332
 30
0.0
  0
VERTEX
  5
F9
330
F5
100
AcDbEntity
  8
3_ANYTOOL_CUTTHROUGH_INSID
100
AcDbVertex
100
AcDb2dVertex
 10
-423.8426347378645
 20
54.4093900240332
 30
0.0
  0
VERTEX
  5
FA
330
F5
100
AcDbEntity
  8
3_ANYTOOL_CUTTHROUGH_INSID
100
AcDbVertex
100
AcDb2dVertex
 10
-417.8426347378645
 20
54.40939002401865
 30
0.0
  0
VERTEX
  5
FB
330
F5
100
AcDbEntity
  8
3_ANYTOOL_CUTTHROUGH_INSID
100
AcDbVertex
100
AcDb2dVertex
 10
-417.8426347378791
 20
8.909390024004097
 30
0.0
  0
VERTEX
  5
FC
330
F5
100
AcDbEntity
  8
3_ANYTOOL_CUTTHROUGH_INSID
100
AcDbVertex
100
AcDb2dVertex
 10
-423.8426347378791
 20
8.9093900240332
 30
0.0
  0
VERTEX
  5
FD
330
F5
100
AcDbEntity
  8
3_ANYTOOL_CUTTHROUGH_INSID
100
AcDbVertex
100
AcDb2dVertex
 10
-423.8426347378791
 20
-3.5906099759668
 30
0.0
  0
VERTEX
  5
FE
330
F5
100
AcDbEntity
  8
3_ANYTOOL_CUTTHROUGH_INSID
100
AcDbVertex
100
AcDb2dVertex
 10
-411.8426347378791
 20
-3.5906099759668
 30
0.0
  0
VERTEX
  5
FF
330
F5
100
AcDbEntity
  8
3_ANYTOOL_CUTTHROUGH_INSID
100
AcDbVertex
100
AcDb2dVertex
 10
-411.8426347378918
 20
-9.5906099759668
 30
0.0
  0
VERTEX
  5
100
330
F5
100
AcDbEntity
  8
3_ANYTOOL_CUTTHROUGH_INSID
100
AcDbVertex
100
AcDb2dVertex
 10
-399.3426347378918
 20
-9.590609975995903
 30
0.0
  0
VERTEX
  5
101
330
F5
100
AcDbEntity
  8
3_ANYTOOL_CUTTHROUGH_INSID
100
AcDbVertex
100
AcDb2dVertex
 10
-399.3426347378772
 20
72.90939002401865
 30
0.0
  0
SEQEND
  5
102
330
F5
100
AcDbEntity
  8
3_ANYTOOL_CUTTHROUGH_INSID
  0
POLYLINE
  5
103
330
1F
100
AcDbEntity
  8
3_ANYTOOL_CUTTHROUGH_INSID
100
AcDb2dPolyline
 66
     1
 10
0.0
 20
0.0
 30
0.0
 70
     1
  0
VERTEX
  5
104
330
103
100
AcDbEntity
  8
3_ANYTOOL_CUTTHROUGH_INSID
100
AcDbVertex
100
AcDb2dVertex
 10
-567.3426347378955
 20
146.6593812415377
 30
0.0
 42
1.000000949554005
  0
VERTEX
  5
105
330
103
100
AcDbEntity
  8
3_ANYTOOL_CUTTHROUGH_INSID
100
AcDbVertex
100
AcDb2dVertex
 10
-576.842634737888
 20
146.6593900249209
 30
0.0
  0
VERTEX
  5
106
330
103
100
AcDbEntity
  8
3_ANYTOOL_CUTTHROUGH_INSID
100
AcDbVertex
100
AcDb2dVertex
 10
-576.842634737879
 20
96.65939019775396
 30
0.0
 42
1.000001457190949
  0
VERTEX
  5
107
330
103
100
AcDbEntity
  8
3_ANYTOOL_CUTTHROUGH_INSID
100
AcDbVertex
100
AcDb2dVertex
 10
-567.3426347378863
 20
96.65939107724992
 30
0.0
  0
SEQEND
  5
108
330
103
100
AcDbEntity
  8
3_ANYTOOL_CUTTHROUGH_INSID
  0
POLYLINE
  5
109
330
1F
100
AcDbEntity
  8
3_ANYTOOL_CUTTHROUGH_INSID
100
AcDb2dPolyline
 66
     1
 10
0.0
 20
0.0
 30
0.0
 70
     1
  0
VERTEX
  5
10A
330
109
100
AcDbEntity
  8
3_ANYTOOL_CUTTHROUGH_INSID
100
AcDbVertex
100
AcDb2dVertex
 10
-293.8426347378336
 20
72.90939002409141
 30
0.0
  0
VERTEX
  5
10B
330
109
100
AcDbEntity
  8
3_ANYTOOL_CUTTHROUGH_INSID
100
AcDbVertex
100
AcDb2dVertex
 10
-293.8426347378336
 20
66.90939002409141
 30
0.0
  0
VERTEX
  5
10C
330
109
100
AcDbEntity
  8
3_ANYTOOL_CUTTHROUGH_INSID
100
AcDbVertex
100
AcDb2dVertex
 10
-305.8426347378336
 20
66.90939002404775
 30
0.0
  0
VERTEX
  5
10D
330
109
100
AcDbEntity
  8
3_ANYTOOL_CUTTHROUGH_INSID
100
AcDbVertex
100
AcDb2dVertex
 10
-305.842634737819
 20
54.40939002404775
 30
0.0
  0
VERTEX
  5
10E
330
109
100
AcDbEntity
  8
3_ANYTOOL_CUTTHROUGH_INSID
100
AcDbVertex
100
AcDb2dVertex
 10
-299.8426347378045
 20
54.4093900240332
 30
0.0
  0
VERTEX
  5
10F
330
109
100
AcDbEntity
  8
3_ANYTOOL_CUTTHROUGH_INSID
100
AcDbVertex
100
AcDb2dVertex
 10
-299.8426347378281
 20
8.909390024047752
 30
0.0
  0
VERTEX
  5
110
330
109
100
AcDbEntity
  8
3_ANYTOOL_CUTTHROUGH_INSID
100
AcDbVertex
100
AcDb2dVertex
 10
-305.8426347378281
 20
8.909390024062304
 30
0.0
  0
VERTEX
  5
111
330
109
100
AcDbEntity
  8
3_ANYTOOL_CUTTHROUGH_INSID
100
AcDbVertex
100
AcDb2dVertex
 10
-305.8426347378299
 20
-3.590609975937696
 30
0.0
  0
VERTEX
  5
112
330
109
100
AcDbEntity
  8
3_ANYTOOL_CUTTHROUGH_INSID
100
AcDbVertex
100
AcDb2dVertex
 10
-293.8426347378299
 20
-3.590609975923144
 30
0.0
  0
VERTEX
  5
113
330
109
100
AcDbEntity
  8
3_ANYTOOL_CUTTHROUGH_INSID
100
AcDbVertex
100
AcDb2dVertex
 10
-293.8426347378263
 20
-9.590609975923144
 30
0.0
  0
VERTEX
  5
114
330
109
100
AcDbEntity
  8
3_ANYTOOL_CUTTHROUGH_INSID
100
AcDbVertex
100
AcDb2dVertex
 10
-281.3426347378227
 20
-9.5906099759668
 30
0.0
  0
VERTEX
  5
115
330
109
100
AcDbEntity
  8
3_ANYTOOL_CUTTHROUGH_INSID
100
AcDbVertex
100
AcDb2dVertex
 10
-281.3426347378336
 20
72.90939002404775
 30
0.0
  0
SEQEND
  5
116
330
109
100
AcDbEntity
  8
3_ANYTOOL_CUTTHROUGH_INSID
  0
POLYLINE
  5
117
330
1F
100
AcDbEntity
  8
3_ANYTOOL_CUTTHROUGH_INSID
100
AcDb2dPolyline
 66
     1
 10
0.0
 20
0.0
 30
-0.0000000000124736
 70
     1
  0
VERTEX
  5
118
330
117
100
AcDbEntity
  8
3_ANYTOOL_CUTTHROUGH_INSID
100
AcDbVertex
100
AcDb2dVertex
 10
25.15736537092016
 20
-105.090609973915
 30
-0.0000000000124736
  0
VERTEX
  5
119
330
117
100
AcDbEntity
  8
3_ANYTOOL_CUTTHROUGH_INSID
100
AcDbVertex
100
AcDb2dVertex
 10
25.15736537089106
 20
-99.09060997391498
 30
-0.0000000000124736
  0
VERTEX
  5
11A
330
117
100
AcDbEntity
  8
3_ANYTOOL_CUTTHROUGH_INSID
100
AcDbVertex
100
AcDb2dVertex
 10
12.65736537089288
 20
-99.09060997393681
 30
-0.0000000000124736
  0
VERTEX
  5
11B
330
117
100
AcDbEntity
  8
3_ANYTOOL_CUTTHROUGH_INSID
100
AcDbVertex
100
AcDb2dVertex
 10
12.65736537089651
 20
-129.5906099738932
 30
-0.0000000000124736
  0
VERTEX
  5
11C
330
117
100
AcDbEntity
  8
3_ANYTOOL_CUTTHROUGH_INSID
100
AcDbVertex
100
AcDb2dVertex
 10
25.15736537089651
 20
-129.5906099738786
 30
-0.0000000000124736
  0
VERTEX
  5
11D
330
117
100
AcDbEntity
  8
3_ANYTOOL_CUTTHROUGH_INSID
100
AcDbVertex
100
AcDb2dVertex
 10
25.15736537086559
 20
-123.5906099738786
 30
-0.0000000000124736
  0
VERTEX
  5
11E
330
117
100
AcDbEntity
  8
3_ANYTOOL_CUTTHROUGH_INSID
100
AcDbVertex
100
AcDb2dVertex
 10
75.65736537086013
 20
-123.5906099742351
 30
-0.0000000000124736
  0
VERTEX
  5
11F
330
117
100
AcDbEntity
  8
3_ANYTOOL_CUTTHROUGH_INSID
100
AcDbVertex
100
AcDb2dVertex
 10
75.65736537086013
 20
-129.5906099742351
 30
-0.0000000000124736
  0
VERTEX
  5
120
330
117
100
AcDbEntity
  8
3_ANYTOOL_CUTTHROUGH_INSID
100
AcDbVertex
100
AcDb2dVertex
 10
88.15736537086013
 20
-129.5906099742206
 30
-0.0000000000124736
  0
VERTEX
  5
121
330
117
100
AcDbEntity
  8
3_ANYTOOL_CUTTHROUGH_INSID
100
AcDbVertex
100
AcDb2dVertex
 10
88.15736537086013
 20
-99.09060997426423
 30
-0.0000000000124736
  0
VERTEX
  5
122
330
117
100
AcDbEntity
  8
3_ANYTOOL_CUTTHROUGH_INSID
100
AcDbVertex
100
AcDb2dVertex
 10
75.65736537085832
 20
-99.0906099742715
 30
-0.0000000000124736
  0
VERTEX
  5
123
330
117
100
AcDbEntity
  8
3_ANYTOOL_CUTTHROUGH_INSID
100
AcDbVertex
100
AcDb2dVertex
 10
75.65736537088742
 20
-105.0906099742715
 30
-0.0000000000124736
  0
SEQEND
  5
124
330
117
100
AcDbEntity
  8
3_ANYTOOL_CUTTHROUGH_INSID
  0
POLYLINE
  5
125
330
1F
100
AcDbEntity
  8
3_ANYTOOL_CUTTHROUGH_INSID
100
AcDb2dPolyline
 66
     1
 10
0.0
 20
0.0
 30
-0.0000000000091317
 70
     1
  0
VERTEX
  5
126
330
125
100
AcDbEntity
  8
3_ANYTOOL_CUTTHROUGH_INSID
100
AcDbVertex
100
AcDb2dVertex
 10
-249.8426347437417
 20
-123.5906099736021
 30
-0.0000000000091317
  0
VERTEX
  5
127
330
125
100
AcDbEntity
  8
3_ANYTOOL_CUTTHROUGH_INSID
100
AcDbVertex
100
AcDb2dVertex
 10
-224.3426346291017
 20
-123.5906099736239
 30
-0.0000000000091317
  0
VERTEX
  5
128
330
125
100
AcDbEntity
  8
3_ANYTOOL_CUTTHROUGH_INSID
100
AcDbVertex
100
AcDb2dVertex
 10
-224.3426346290726
 20
-129.5906099736239
 30
-0.0000000000091317
  0
VERTEX
  5
129
330
125
100
AcDbEntity
  8
3_ANYTOOL_CUTTHROUGH_INSID
100
AcDbVertex
100
AcDb2dVertex
 10
-211.8426346290726
 20
-129.5906099736094
 30
-0.0000000000091317
  0
VERTEX
  5
12A
330
125
100
AcDbEntity
  8
3_ANYTOOL_CUTTHROUGH_INSID
100
AcDbVertex
100
AcDb2dVertex
 10
-211.8426346290744
 20
-99.09060997365305
 30
-0.0000000000091317
  0
VERTEX
  5
12B
330
125
100
AcDbEntity
  8
3_ANYTOOL_CUTTHROUGH_INSID
100
AcDbVertex
100
AcDb2dVertex
 10
-224.3426346290744
 20
-99.09060997366032
 30
-0.0000000000091317
  0
VERTEX
  5
12C
330
125
100
AcDbEntity
  8
3_ANYTOOL_CUTTHROUGH_INSID
100
AcDbVertex
100
AcDb2dVertex
 10
-224.3426346290744
 20
-105.0906099736603
 30
-0.0000000000091317
  0
VERTEX
  5
12D
330
125
100
AcDbEntity
  8
3_ANYTOOL_CUTTHROUGH_INSID
100
AcDbVertex
100
AcDb2dVertex
 10
-249.8426346275919
 20
-105.0906099736458
 30
-0.0000000000091317
  0
SEQEND
  5
12E
330
125
100
AcDbEntity
  8
3_ANYTOOL_CUTTHROUGH_INSID
  0
POLYLINE
  5
12F
330
1F
100
AcDbEntity
  8
3_ANYTOOL_CUTTHROUGH_INSID
100
AcDb2dPolyline
 66
     1
 10
0.0
 20
0.0
 30
-0.0000000000155893
 70
     1
  0
VERTEX
  5
130
330
12F
100
AcDbEntity
  8
3_ANYTOOL_CUTTHROUGH_INSID
100
AcDbVertex
100
AcDb2dVertex
 10
-124.8426346291053
 20
-105.0906099737622
 30
-0.0000000000155893
  0
VERTEX
  5
131
330
12F
100
AcDbEntity
  8
3_ANYTOOL_CUTTHROUGH_INSID
100
AcDbVertex
100
AcDb2dVertex
 10
-124.8426346291053
 20
-99.09060997376218
 30
-0.0000000000155893
  0
VERTEX
  5
132
330
12F
100
AcDbEntity
  8
3_ANYTOOL_CUTTHROUGH_INSID
100
AcDbVertex
100
AcDb2dVertex
 10
-137.3426346291053
 20
-99.09060997378401
 30
-0.0000000000155893
  0
VERTEX
  5
133
330
12F
100
AcDbEntity
  8
3_ANYTOOL_CUTTHROUGH_INSID
100
AcDbVertex
100
AcDb2dVertex
 10
-137.3426346291344
 20
-129.5906099737404
 30
-0.0000000000155893
  0
VERTEX
  5
134
330
12F
100
AcDbEntity
  8
3_ANYTOOL_CUTTHROUGH_INSID
100
AcDbVertex
100
AcDb2dVertex
 10
-124.8426346291344
 20
-129.5906099737258
 30
-0.0000000000155893
  0
VERTEX
  5
135
330
12F
100
AcDbEntity
  8
3_ANYTOOL_CUTTHROUGH_INSID
100
AcDbVertex
100
AcDb2dVertex
 10
-124.8426346291344
 20
-123.5906099737258
 30
-0.0000000000155893
  0
VERTEX
  5
136
330
12F
100
AcDbEntity
  8
3_ANYTOOL_CUTTHROUGH_INSID
100
AcDbVertex
100
AcDb2dVertex
 10
-74.3426346291053
 20
-123.5906099737695
 30
-0.0000000000155893
  0
VERTEX
  5
137
330
12F
100
AcDbEntity
  8
3_ANYTOOL_CUTTHROUGH_INSID
100
AcDbVertex
100
AcDb2dVertex
 10
-74.3426346291053
 20
-129.5906099737695
 30
-0.0000000000155893
  0
VERTEX
  5
138
330
12F
100
AcDbEntity
  8
3_ANYTOOL_CUTTHROUGH_INSID
100
AcDbVertex
100
AcDb2dVertex
 10
-61.84263462910531
 20
-129.5906099737549
 30
-0.0000000000155893
  0
VERTEX
  5
139
330
12F
100
AcDbEntity
  8
3_ANYTOOL_CUTTHROUGH_INSID
100
AcDbVertex
100
AcDb2dVertex
 10
-61.84263462910531
 20
-99.09060997379856
 30
-0.0000000000155893
  0
VERTEX
  5
13A
330
12F
100
AcDbEntity
  8
3_ANYTOOL_CUTTHROUGH_INSID
100
AcDbVertex
100
AcDb2dVertex
 10
-74.34263462910712
 20
-99.09060997380584
 30
-0.0000000000155893
  0
VERTEX
  5
13B
330
12F
100
AcDbEntity
  8
3_ANYTOOL_CUTTHROUGH_INSID
100
AcDbVertex
100
AcDb2dVertex
 10
-74.34263462907802
 20
-105.0906099738131
 30
-0.0000000000155893
  0
SEQEND
  5
13C
330
12F
100
AcDbEntity
  8
3_ANYTOOL_CUTTHROUGH_INSID
  0
POLYLINE
  5
13D
330
1F
100
AcDbEntity
  8
3_ANYTOOL_CUTTHROUGH_INSID
100
AcDb2dPolyline
 66
     1
 10
0.0
 20
0.0
 30
-0.0000000000134861
 70
     1
  0
VERTEX
  5
13E
330
13D
100
AcDbEntity
  8
3_ANYTOOL_CUTTHROUGH_INSID
100
AcDbVertex
100
AcDb2dVertex
 10
325.1573653708547
 20
-105.0906099745334
 30
-0.0000000000134861
  0
VERTEX
  5
13F
330
13D
100
AcDbEntity
  8
3_ANYTOOL_CUTTHROUGH_INSID
100
AcDbVertex
100
AcDb2dVertex
 10
325.1573653708547
 20
-99.09060997452616
 30
-0.0000000000134861
  0
VERTEX
  5
140
330
13D
100
AcDbEntity
  8
3_ANYTOOL_CUTTHROUGH_INSID
100
AcDbVertex
100
AcDb2dVertex
 10
312.6573653708565
 20
-99.09060997454799
 30
-0.0000000000134861
  0
VERTEX
  5
141
330
13D
100
AcDbEntity
  8
3_ANYTOOL_CUTTHROUGH_INSID
100
AcDbVertex
100
AcDb2dVertex
 10
312.6573653708292
 20
-129.5906099745043
 30
-0.0000000000134861
  0
VERTEX
  5
142
330
13D
100
AcDbEntity
  8
3_ANYTOOL_CUTTHROUGH_INSID
100
AcDbVertex
100
AcDb2dVertex
 10
325.1573653708274
 20
-129.5906099744898
 30
-0.0000000000134861
  0
VERTEX
  5
143
330
13D
100
AcDbEntity
  8
3_ANYTOOL_CUTTHROUGH_INSID
100
AcDbVertex
100
AcDb2dVertex
 10
325.1573653708274
 20
-123.5906099744971
 30
-0.0000000000134861
  0
VERTEX
  5
144
330
13D
100
AcDbEntity
  8
3_ANYTOOL_CUTTHROUGH_INSID
100
AcDbVertex
100
AcDb2dVertex
 10
375.6573653663781
 20
-123.5906099753774
 30
-0.0000000000134861
  0
VERTEX
  5
145
330
13D
100
AcDbEntity
  8
3_ANYTOOL_CUTTHROUGH_INSID
100
AcDbVertex
100
AcDb2dVertex
 10
375.6573653664054
 20
-129.5906099753847
 30
-0.0000000000134861
  0
VERTEX
  5
146
330
13D
100
AcDbEntity
  8
3_ANYTOOL_CUTTHROUGH_INSID
100
AcDbVertex
100
AcDb2dVertex
 10
388.1573653664054
 20
-129.5906099753702
 30
-0.0000000000134861
  0
VERTEX
  5
147
330
13D
100
AcDbEntity
  8
3_ANYTOOL_CUTTHROUGH_INSID
100
AcDbVertex
100
AcDb2dVertex
 10
388.1573653664036
 20
-99.09060997541383
 30
-0.0000000000134861
  0
VERTEX
  5
148
330
13D
100
AcDbEntity
  8
3_ANYTOOL_CUTTHROUGH_INSID
100
AcDbVertex
100
AcDb2dVertex
 10
375.6573653664036
 20
-99.09060997541383
 30
-0.0000000000134861
  0
VERTEX
  5
149
330
13D
100
AcDbEntity
  8
3_ANYTOOL_CUTTHROUGH_INSID
100
AcDbVertex
100
AcDb2dVertex
 10
375.6573653664036
 20
-105.0906099754138
 30
-0.0000000000134861
  0
SEQEND
  5
14A
330
13D
100
AcDbEntity
  8
3_ANYTOOL_CUTTHROUGH_INSID
  0
POLYLINE
  5
14B
330
1F
100
AcDbEntity
  8
3_ANYTOOL_CUTTHROUGH_INSID
100
AcDb2dPolyline
 66
     1
 10
0.0
 20
0.0
 30
-0.0000000000166018
 70
     1
  0
VERTEX
  5
14C
330
14B
100
AcDbEntity
  8
3_ANYTOOL_CUTTHROUGH_INSID
100
AcDbVertex
100
AcDb2dVertex
 10
175.1573653708583
 20
-105.0906099743588
 30
-0.0000000000166018
  0
VERTEX
  5
14D
330
14B
100
AcDbEntity
  8
3_ANYTOOL_CUTTHROUGH_INSID
100
AcDbVertex
100
AcDb2dVertex
 10
175.1573653708583
 20
-99.09060997435881
 30
-0.0000000000166018
  0
VERTEX
  5
14E
330
14B
100
AcDbEntity
  8
3_ANYTOOL_CUTTHROUGH_INSID
100
AcDbVertex
100
AcDb2dVertex
 10
162.6573653708583
 20
-99.09060997438064
 30
-0.0000000000166018
  0
VERTEX
  5
14F
330
14B
100
AcDbEntity
  8
3_ANYTOOL_CUTTHROUGH_INSID
100
AcDbVertex
100
AcDb2dVertex
 10
162.6573653708292
 20
-129.5906099743443
 30
-0.0000000000166018
  0
VERTEX
  5
150
330
14B
100
AcDbEntity
  8
3_ANYTOOL_CUTTHROUGH_INSID
100
AcDbVertex
100
AcDb2dVertex
 10
175.1573653708292
 20
-129.5906099743224
 30
-0.0000000000166018
  0
VERTEX
  5
151
330
14B
100
AcDbEntity
  8
3_ANYTOOL_CUTTHROUGH_INSID
100
AcDbVertex
100
AcDb2dVertex
 10
175.1573653708292
 20
-123.5906099743224
 30
-0.0000000000166018
  0
VERTEX
  5
152
330
14B
100
AcDbEntity
  8
3_ANYTOOL_CUTTHROUGH_INSID
100
AcDbVertex
100
AcDb2dVertex
 10
225.6573653708583
 20
-123.5906099743734
 30
-0.0000000000166018
  0
VERTEX
  5
153
330
14B
100
AcDbEntity
  8
3_ANYTOOL_CUTTHROUGH_INSID
100
AcDbVertex
100
AcDb2dVertex
 10
225.6573653708565
 20
-129.5906099743734
 30
-0.0000000000166018
  0
VERTEX
  5
154
330
14B
100
AcDbEntity
  8
3_ANYTOOL_CUTTHROUGH_INSID
100
AcDbVertex
100
AcDb2dVertex
 10
238.1573653708565
 20
-129.5906099743588
 30
-0.0000000000166018
  0
VERTEX
  5
155
330
14B
100
AcDbEntity
  8
3_ANYTOOL_CUTTHROUGH_INSID
100
AcDbVertex
100
AcDb2dVertex
 10
238.1573653708565
 20
-99.09060997440247
 30
-0.0000000000166018
  0
VERTEX
  5
156
330
14B
100
AcDbEntity
  8
3_ANYTOOL_CUTTHROUGH_INSID
100
AcDbVertex
100
AcDb2dVertex
 10
225.6573653708547
 20
-99.09060997440974
 30
-0.0000000000166018
  0
VERTEX
  5
157
330
14B
100
AcDbEntity
  8
3_ANYTOOL_CUTTHROUGH_INSID
100
AcDbVertex
100
AcDb2dVertex
 10
225.6573653708838
 20
-105.0906099744097
 30
-0.0000000000166018
  0
SEQEND
  5
158
330
14B
100
AcDbEntity
  8
3_ANYTOOL_CUTTHROUGH_INSID
  0
POLYLINE
  5
159
330
1F
100
AcDbEntity
  8
3_ANYTOOL_CUTTHROUGH_INSID
100
AcDb2dPolyline
 66
     1
 10
0.0
 20
0.0
 30
-0.000000000014726
 70
     1
  0
VERTEX
  5
15A
330
159
100
AcDbEntity
  8
3_ANYTOOL_CUTTHROUGH_INSID
100
AcDbVertex
100
AcDb2dVertex
 10
224.6573653760897
 20
48.4093900242151
 30
-0.000000000014726
  0
VERTEX
  5
15B
330
159
100
AcDbEntity
  8
3_ANYTOOL_CUTTHROUGH_INSID
100
AcDbVertex
100
AcDb2dVertex
 10
224.6573653760897
 20
60.9093900242151
 30
-0.000000000014726
  0
VERTEX
  5
15C
330
159
100
AcDbEntity
  8
3_ANYTOOL_CUTTHROUGH_INSID
100
AcDbVertex
100
AcDb2dVertex
 10
218.6573653760897
 20
60.90939002420055
 30
-0.000000000014726
  0
VERTEX
  5
15D
330
159
100
AcDbEntity
  8
3_ANYTOOL_CUTTHROUGH_INSID
100
AcDbVertex
100
AcDb2dVertex
 10
218.6573653761316
 20
106.4093900242297
 30
-0.000000000014726
  0
VERTEX
  5
15E
330
159
100
AcDbEntity
  8
3_ANYTOOL_CUTTHROUGH_INSID
100
AcDbVertex
100
AcDb2dVertex
 10
224.6573653761316
 20
106.4093900242442
 30
-0.000000000014726
  0
VERTEX
  5
15F
330
159
100
AcDbEntity
  8
3_ANYTOOL_CUTTHROUGH_INSID
100
AcDbVertex
100
AcDb2dVertex
 10
224.6573653761152
 20
118.9093900242442
 30
-0.000000000014726
  0
VERTEX
  5
160
330
159
100
AcDbEntity
  8
3_ANYTOOL_CUTTHROUGH_INSID
100
AcDbVertex
100
AcDb2dVertex
 10
176.1573653761607
 20
118.9093900242442
 30
-0.000000000014726
  0
VERTEX
  5
161
330
159
100
AcDbEntity
  8
3_ANYTOOL_CUTTHROUGH_INSID
100
AcDbVertex
100
AcDb2dVertex
 10
176.157365376177
 20
106.4093900242442
 30
-0.000000000014726
  0
VERTEX
  5
162
330
159
100
AcDbEntity
  8
3_ANYTOOL_CUTTHROUGH_INSID
100
AcDbVertex
100
AcDb2dVertex
 10
182.1573653761752
 20
106.4093900242588
 30
-0.000000000014726
  0
VERTEX
  5
163
330
159
100
AcDbEntity
  8
3_ANYTOOL_CUTTHROUGH_INSID
100
AcDbVertex
100
AcDb2dVertex
 10
182.1573653761188
 20
60.9093900242442
 30
-0.000000000014726
  0
VERTEX
  5
164
330
159
100
AcDbEntity
  8
3_ANYTOOL_CUTTHROUGH_INSID
100
AcDbVertex
100
AcDb2dVertex
 10
176.1573653761188
 20
60.90939002422965
 30
-0.000000000014726
  0
VERTEX
  5
165
330
159
100
AcDbEntity
  8
3_ANYTOOL_CUTTHROUGH_INSID
100
AcDbVertex
100
AcDb2dVertex
 10
176.1573653761498
 20
48.40939002422965
 30
-0.000000000014726
  0
SEQEND
  5
166
330
159
100
AcDbEntity
  8
3_ANYTOOL_CUTTHROUGH_INSID
  0
POLYLINE
  5
168
330
1F
100
AcDbEntity
  8
4_ANYTOOL_CUTTHROUGH_OUTSI
100
AcDb2dPolyline
 66
     1
 10
0.0
 20
0.0
 30
0.0
 70
     1
  0
VERTEX
  5
169
330
168
100
AcDbEntity
  8
4_ANYTOOL_CUTTHROUGH_OUTSI
100
AcDbVertex
100
AcDb2dVertex
 10
-274.8426347386448
 20
186.4093900240769
 30
0.0
  0
VERTEX
  5
16A
330
168
100
AcDbEntity
  8
4_ANYTOOL_CUTTHROUGH_OUTSI
100
AcDbVertex
100
AcDb2dVertex
 10
-274.842634738663
 20
162.6593900241205
 30
0.0
 42
0.4142135623176523
  0
VERTEX
  5
16B
330
168
100
AcDbEntity
  8
4_ANYTOOL_CUTTHROUGH_OUTSI
100
AcDbVertex
100
AcDb2dVertex
 10
-274.592634738663
 20
162.4093900241314
 30
0.0
  0
VERTEX
  5
16C
330
168
100
AcDbEntity
  8
4_ANYTOOL_CUTTHROUGH_OUTSI
100
AcDbVertex
100
AcDb2dVertex
 10
-262.5926347386667
 20
162.4093900241132
 30
0.0
 42
0.4142135623539465
  0
VERTEX
  5
16D
330
168
100
AcDbEntity
  8
4_ANYTOOL_CUTTHROUGH_OUTSI
100
AcDbVertex
100
AcDb2dVertex
 10
-262.3426347386685
 20
162.6593900241132
 30
0.0
  0
VERTEX
  5
16E
330
168
100
AcDbEntity
  8
4_ANYTOOL_CUTTHROUGH_OUTSI
100
AcDbVertex
100
AcDb2dVertex
 10
-262.3426347386376
 20
168.409390024106
 30
0.0
  0
VERTEX
  5
16F
330
168
100
AcDbEntity
  8
4_ANYTOOL_CUTTHROUGH_OUTSI
100
AcDbVertex
100
AcDb2dVertex
 10
-141.8426346290926
 20
168.4093900246808
 30
0.0
  0
VERTEX
  5
170
330
168
100
AcDbEntity
  8
4_ANYTOOL_CUTTHROUGH_OUTSI
100
AcDbVertex
100
AcDb2dVertex
 10
-141.842634629078
 20
162.6593900246808
 30
0.0
 42
0.4142135623624526
  0
VERTEX
  5
171
330
168
100
AcDbEntity
  8
4_ANYTOOL_CUTTHROUGH_OUTSI
100
AcDbVertex
100
AcDb2dVertex
 10
-141.592634629078
 20
162.4093900246717
 30
0.0
  0
VERTEX
  5
172
330
168
100
AcDbEntity
  8
4_ANYTOOL_CUTTHROUGH_OUTSI
100
AcDbVertex
100
AcDb2dVertex
 10
-129.592634629078
 20
162.4093900246808
 30
0.0
 42
0.4142135623922535
  0
VERTEX
  5
173
330
168
100
AcDbEntity
  8
4_ANYTOOL_CUTTHROUGH_OUTSI
100
AcDbVertex
100
AcDb2dVertex
 10
-129.3426346290762
 20
162.6593900246808
 30
0.0
  0
VERTEX
  5
174
330
168
100
AcDbEntity
  8
4_ANYTOOL_CUTTHROUGH_OUTSI
100
AcDbVertex
100
AcDb2dVertex
 10
-129.3426346290944
 20
186.4093900246808
 30
0.0
  0
VERTEX
  5
175
330
168
100
AcDbEntity
  8
4_ANYTOOL_CUTTHROUGH_OUTSI
100
AcDbVertex
100
AcDb2dVertex
 10
-69.84263462909621
 20
186.4093900247171
 30
0.0
  0
VERTEX
  5
176
330
168
100
AcDbEntity
  8
4_ANYTOOL_CUTTHROUGH_OUTSI
100
AcDbVertex
100
AcDb2dVertex
 10
-69.84263462907984
 20
162.6593900247099
 30
0.0
 42
0.4142135623539177
  0
VERTEX
  5
177
330
168
100
AcDbEntity
  8
4_ANYTOOL_CUTTHROUGH_OUTSI
100
AcDbVertex
100
AcDb2dVertex
 10
-69.59263462907984
 20
162.409390024708
 30
0.0
  0
VERTEX
  5
178
330
168
100
AcDbEntity
  8
4_ANYTOOL_CUTTHROUGH_OUTSI
100
AcDbVertex
100
AcDb2dVertex
 10
-57.59263462907984
 20
162.409390024739
 30
0.0
 42
0.4142135623539505
  0
VERTEX
  5
179
330
168
100
AcDbEntity
  8
4_ANYTOOL_CUTTHROUGH_OUTSI
100
AcDbVertex
100
AcDb2dVertex
 10
-57.34263462908166
 20
162.659390024739
 30
0.0
  0
VERTEX
  5
17A
330
168
100
AcDbEntity
  8
4_ANYTOOL_CUTTHROUGH_OUTSI
100
AcDbVertex
100
AcDb2dVertex
 10
-57.34263462909621
 20
168.409390024739
 30
0.0
  0
VERTEX
  5
17B
330
168
100
AcDbEntity
  8
4_ANYTOOL_CUTTHROUGH_OUTSI
100
AcDbVertex
100
AcDb2dVertex
 10
88.15736537089833
 20
168.4093900246953
 30
0.0
  0
VERTEX
  5
17C
330
168
100
AcDbEntity
  8
4_ANYTOOL_CUTTHROUGH_OUTSI
100
AcDbVertex
100
AcDb2dVertex
 10
88.15736537090015
 20
162.6593900246953
 30
0.0
 42
0.4142135624007862
  0
VERTEX
  5
17D
330
168
100
AcDbEntity
  8
4_ANYTOOL_CUTTHROUGH_OUTSI
100
AcDbVertex
100
AcDb2dVertex
 10
88.40736537090197
 20
162.4093900247026
 30
0.0
  0
VERTEX
  5
17E
330
168
100
AcDbEntity
  8
4_ANYTOOL_CUTTHROUGH_OUTSI
100
AcDbVertex
100
AcDb2dVertex
 10
100.4073653709002
 20
162.4093900247171
 30
0.0
 42
0.4142135623581375
  0
VERTEX
  5
17F
330
168
100
AcDbEntity
  8
4_ANYTOOL_CUTTHROUGH_OUTSI
100
AcDbVertex
100
AcDb2dVertex
 10
100.657365370902
 20
162.6593900247171
 30
0.0
  0
VERTEX
  5
180
330
168
100
AcDbEntity
  8
4_ANYTOOL_CUTTHROUGH_OUTSI
100
AcDbVertex
100
AcDb2dVertex
 10
100.6573653708983
 20
186.4093900247171
 30
0.0
  0
VERTEX
  5
181
330
168
100
AcDbEntity
  8
4_ANYTOOL_CUTTHROUGH_OUTSI
100
AcDbVertex
100
AcDb2dVertex
 10
300.1573653708947
 20
186.4093900247244
 30
0.0
  0
VERTEX
  5
182
330
168
100
AcDbEntity
  8
4_ANYTOOL_CUTTHROUGH_OUTSI
100
AcDbVertex
100
AcDb2dVertex
 10
300.1573653708965
 20
162.6593900247244
 30
0.0
 42
0.4142135623539177
  0
VERTEX
  5
183
330
168
100
AcDbEntity
  8
4_ANYTOOL_CUTTHROUGH_OUTSI
100
AcDbVertex
100
AcDb2dVertex
 10
300.4073653708965
 20
162.4093900247226
 30
0.0
  0
VERTEX
  5
184
330
168
100
AcDbEntity
  8
4_ANYTOOL_CUTTHROUGH_OUTSI
100
AcDbVertex
100
AcDb2dVertex
 10
312.4073653708965
 20
162.4093900247317
 30
0.0
 42
0.4142135623688089
  0
VERTEX
  5
185
330
168
100
AcDbEntity
  8
4_ANYTOOL_CUTTHROUGH_OUTSI
100
AcDbVertex
100
AcDb2dVertex
 10
312.6573653708929
 20
162.6593900247317
 30
0.0
  0
VERTEX
  5
186
330
168
100
AcDbEntity
  8
4_ANYTOOL_CUTTHROUGH_OUTSI
100
AcDbVertex
100
AcDb2dVertex
 10
312.6573653708947
 20
168.4093900247317
 30
0.0
  0
VERTEX
  5
187
330
168
100
AcDbEntity
  8
4_ANYTOOL_CUTTHROUGH_OUTSI
100
AcDbVertex
100
AcDb2dVertex
 10
458.1573653663982
 20
168.4093900238367
 30
0.0
  0
VERTEX
  5
188
330
168
100
AcDbEntity
  8
4_ANYTOOL_CUTTHROUGH_OUTSI
100
AcDbVertex
100
AcDb2dVertex
 10
458.1573653664
 20
162.6593900238367
 30
0.0
 42
0.414213562351771
  0
VERTEX
  5
189
330
168
100
AcDbEntity
  8
4_ANYTOOL_CUTTHROUGH_OUTSI
100
AcDbVertex
100
AcDb2dVertex
 10
458.4073653664
 20
162.4093900238331
 30
0.0
  0
VERTEX
  5
18A
330
168
100
AcDbEntity
  8
4_ANYTOOL_CUTTHROUGH_OUTSI
100
AcDbVertex
100
AcDb2dVertex
 10
470.4073653664
 20
162.4093900238367
 30
0.0
 42
0.4142135623453822
  0
VERTEX
  5
18B
330
168
100
AcDbEntity
  8
4_ANYTOOL_CUTTHROUGH_OUTSI
100
AcDbVertex
100
AcDb2dVertex
 10
470.6573653663909
 20
162.6593900238367
 30
0.0
  0
VERTEX
  5
18C
330
168
100
AcDbEntity
  8
4_ANYTOOL_CUTTHROUGH_OUTSI
100
AcDbVertex
100
AcDb2dVertex
 10
470.6573653663982
 20
186.4093900238367
 30
0.0
  0
VERTEX
  5
18D
330
168
100
AcDbEntity
  8
4_ANYTOOL_CUTTHROUGH_OUTSI
100
AcDbVertex
100
AcDb2dVertex
 10
500.1573653829837
 20
186.409390023844
 30
0.0
  0
VERTEX
  5
18E
330
168
100
AcDbEntity
  8
4_ANYTOOL_CUTTHROUGH_OUTSI
100
AcDbVertex
100
AcDb2dVertex
 10
500.157370937839
 20
102.682921841144
 30
0.0
 42
0.4114512520673604
  0
VERTEX
  5
18F
330
168
100
AcDbEntity
  8
4_ANYTOOL_CUTTHROUGH_OUTSI
100
AcDbVertex
100
AcDb2dVertex
 10
506.4070979388125
 20
96.49075058556632
 30
0.0
  0
VERTEX
  5
190
330
168
100
AcDbEntity
  8
4_ANYTOOL_CUTTHROUGH_OUTSI
100
AcDbVertex
100
AcDb2dVertex
 10
506.4896861365796
 20
96.50478620352824
 30
0.0
  0
VERTEX
  5
191
330
168
100
AcDbEntity
  8
4_ANYTOOL_CUTTHROUGH_OUTSI
100
AcDbVertex
100
AcDb2dVertex
 10
556.4491454383406
 20
113.9907375557596
 30
0.0
 42
-0.4120733481064998
  0
VERTEX
  5
192
330
168
100
AcDbEntity
  8
4_ANYTOOL_CUTTHROUGH_OUTSI
100
AcDbVertex
100
AcDb2dVertex
 10
562.1570979388117
 20
108.2408912962783
 30
0.0
  0
VERTEX
  5
193
330
168
100
AcDbEntity
  8
4_ANYTOOL_CUTTHROUGH_OUTSI
100
AcDbVertex
100
AcDb2dVertex
 10
562.1570979388143
 20
30.24089129627828
 30
0.0
 42
-0.4120733481058583
  0
VERTEX
  5
194
330
168
100
AcDbEntity
  8
4_ANYTOOL_CUTTHROUGH_OUTSI
100
AcDbVertex
100
AcDb2dVertex
 10
556.4491454383297
 20
24.49104503678542
 30
0.0
  0
VERTEX
  5
195
330
168
100
AcDbEntity
  8
4_ANYTOOL_CUTTHROUGH_OUTSI
100
AcDbVertex
100
AcDb2dVertex
 10
506.4896861365814
 20
41.97699638902122
 30
0.0
  0
VERTEX
  5
196
330
168
100
AcDbEntity
  8
4_ANYTOOL_CUTTHROUGH_OUTSI
100
AcDbVertex
100
AcDb2dVertex
 10
506.4070979388143
 20
41.99103200698266
 30
0.0
 42
0.414213562372941
  0
VERTEX
  5
197
330
168
100
AcDbEntity
  8
4_ANYTOOL_CUTTHROUGH_OUTSI
100
AcDbVertex
100
AcDb2dVertex
 10
500.157097938818
 20
35.741032006983
 30
0.0
  0
VERTEX
  5
198
330
168
100
AcDbEntity
  8
4_ANYTOOL_CUTTHROUGH_OUTSI
100
AcDbVertex
100
AcDb2dVertex
 10
500.157097938818
 20
-42.258967993017
 30
0.0
 42
0.4142135623728398
  0
VERTEX
  5
199
330
168
100
AcDbEntity
  8
4_ANYTOOL_CUTTHROUGH_OUTSI
100
AcDbVertex
100
AcDb2dVertex
 10
506.4070979388107
 20
-48.50896799301518
 30
0.0
  0
VERTEX
  5
19A
330
168
100
AcDbEntity
  8
4_ANYTOOL_CUTTHROUGH_OUTSI
100
AcDbVertex
100
AcDb2dVertex
 10
506.4896861365779
 20
-48.49493237505538
 30
0.0
  0
VERTEX
  5
19B
330
168
100
AcDbEntity
  8
4_ANYTOOL_CUTTHROUGH_OUTSI
100
AcDbVertex
100
AcDb2dVertex
 10
556.449145438346
 20
-31.00898102282372
 30
0.0
 42
-0.4120733481063196
  0
VERTEX
  5
19C
330
168
100
AcDbEntity
  8
4_ANYTOOL_CUTTHROUGH_OUTSI
100
AcDbVertex
100
AcDb2dVertex
 10
562.1570979388209
 20
-36.75882728231227
 30
0.0
  0
VERTEX
  5
19D
330
168
100
AcDbEntity
  8
4_ANYTOOL_CUTTHROUGH_OUTSI
100
AcDbVertex
100
AcDb2dVertex
 10
562.1570979388125
 20
-114.7588272823123
 30
0.0
 42
-0.4120733481047577
  0
VERTEX
  5
19E
330
168
100
AcDbEntity
  8
4_ANYTOOL_CUTTHROUGH_OUTSI
100
AcDbVertex
100
AcDb2dVertex
 10
556.4491454383278
 20
-120.5086735418123
 30
0.0
  0
VERTEX
  5
19F
330
168
100
AcDbEntity
  8
4_ANYTOOL_CUTTHROUGH_OUTSI
100
AcDbVertex
100
AcDb2dVertex
 10
506.4896861365796
 20
-103.0227221895693
 30
0.0
  0
VERTEX
  5
1A0
330
168
100
AcDbEntity
  8
4_ANYTOOL_CUTTHROUGH_OUTSI
100
AcDbVertex
100
AcDb2dVertex
 10
506.4070979388125
 20
-103.0086865716075
 30
0.0
 42
0.411451251831058
  0
VERTEX
  5
1A1
330
168
100
AcDbEntity
  8
4_ANYTOOL_CUTTHROUGH_OUTSI
100
AcDbVertex
100
AcDb2dVertex
 10
500.1573709378699
 20
-109.2008578221939
 30
0.0
  0
VERTEX
  5
1A2
330
168
100
AcDbEntity
  8
4_ANYTOOL_CUTTHROUGH_OUTSI
100
AcDbVertex
100
AcDb2dVertex
 10
500.1573653830183
 20
-193.0906099776766
 30
0.0
  0
VERTEX
  5
1A3
330
168
100
AcDbEntity
  8
4_ANYTOOL_CUTTHROUGH_OUTSI
100
AcDbVertex
100
AcDb2dVertex
 10
-417.3426347378627
 20
-193.0906099764907
 30
0.0
  0
VERTEX
  5
1A4
330
168
100
AcDbEntity
  8
4_ANYTOOL_CUTTHROUGH_OUTSI
100
AcDbVertex
100
AcDb2dVertex
 10
-417.3426347378645
 20
-55.59060997617053
 30
0.0
  0
VERTEX
  5
1A5
330
168
100
AcDbEntity
  8
4_ANYTOOL_CUTTHROUGH_OUTSI
100
AcDbVertex
100
AcDb2dVertex
 10
-411.5926347378627
 20
-55.59060997617053
 30
0.0
 42
0.41421356236026
  0
VERTEX
  5
1A6
330
168
100
AcDbEntity
  8
4_ANYTOOL_CUTTHROUGH_OUTSI
100
AcDbVertex
100
AcDb2dVertex
 10
-411.342634737859
 20
-55.34060997617053
 30
0.0
  0
VERTEX
  5
1A7
330
168
100
AcDbEntity
  8
4_ANYTOOL_CUTTHROUGH_OUTSI
100
AcDbVertex
100
AcDb2dVertex
 10
-411.3426347378627
 20
-43.34060997617053
 30
0.0
 42
0.4142135623624508
  0
VERTEX
  5
1A8
330
168
100
AcDbEntity
  8
4_ANYTOOL_CUTTHROUGH_OUTSI
100
AcDbVertex
100
AcDb2dVertex
 10
-411.5926347378627
 20
-43.09060997617598
 30
0.0
  0
VERTEX
  5
1A9
330
168
100
AcDbEntity
  8
4_ANYTOOL_CUTTHROUGH_OUTSI
100
AcDbVertex
100
AcDb2dVertex
 10
-567.3426347373806
 20
-43.09060997624329
 30
0.0
  0
VERTEX
  5
1AA
330
168
100
AcDbEntity
  8
4_ANYTOOL_CUTTHROUGH_OUTSI
100
AcDbVertex
100
AcDb2dVertex
 10
-567.3426347378954
 20
44.40939002490632
 30
0.0
  0
VERTEX
  5
1AB
330
168
100
AcDbEntity
  8
4_ANYTOOL_CUTTHROUGH_OUTSI
100
AcDbVertex
100
AcDb2dVertex
 10
-561.5926347378954
 20
44.40939002490632
 30
0.0
 42
0.4142135623943378
  0
VERTEX
  5
1AC
330
168
100
AcDbEntity
  8
4_ANYTOOL_CUTTHROUGH_OUTSI
100
AcDbVertex
100
AcDb2dVertex
 10
-561.3426347378918
 20
44.65939002490632
 30
0.0
  0
VERTEX
  5
1AD
330
168
100
AcDbEntity
  8
4_ANYTOOL_CUTTHROUGH_OUTSI
100
AcDbVertex
100
AcDb2dVertex
 10
-561.3426347378954
 20
56.65939002490632
 30
0.0
 42
0.4142135623750871
  0
VERTEX
  5
1AE
330
168
100
AcDbEntity
  8
4_ANYTOOL_CUTTHROUGH_OUTSI
100
AcDbVertex
100
AcDb2dVertex
 10
-561.5926347378954
 20
56.9093900249045
 30
0.0
  0
VERTEX
  5
1AF
330
168
100
AcDbEntity
  8
4_ANYTOOL_CUTTHROUGH_OUTSI
100
AcDbVertex
100
AcDb2dVertex
 10
-585.3426347378954
 20
56.90939002490632
 30
0.0
  0
VERTEX
  5
1B0
330
168
100
AcDbEntity
  8
4_ANYTOOL_CUTTHROUGH_OUTSI
100
AcDbVertex
100
AcDb2dVertex
 10
-585.3426347378809
 20
186.4093900248918
 30
0.0
  0
VERTEX
  5
1B1
330
168
100
AcDbEntity
  8
4_ANYTOOL_CUTTHROUGH_OUTSI
100
AcDbVertex
100
AcDb2dVertex
 10
-563.8426347381992
 20
186.4093900259686
 30
0.0
  0
VERTEX
  5
1B2
330
168
100
AcDbEntity
  8
4_ANYTOOL_CUTTHROUGH_OUTSI
100
AcDbVertex
100
AcDb2dVertex
 10
-563.8426347379173
 20
180.6593900265652
 30
0.0
 42
0.4142135623409737
  0
VERTEX
  5
1B3
330
168
100
AcDbEntity
  8
4_ANYTOOL_CUTTHROUGH_OUTSI
100
AcDbVertex
100
AcDb2dVertex
 10
-563.5926347379173
 20
180.4093900265816
 30
0.0
  0
VERTEX
  5
1B4
330
168
100
AcDbEntity
  8
4_ANYTOOL_CUTTHROUGH_OUTSI
100
AcDbVertex
100
AcDb2dVertex
 10
-551.5926347379173
 20
180.4093900265798
 30
0.0
 42
0.414213562370944
  0
VERTEX
  5
1B5
330
168
100
AcDbEntity
  8
4_ANYTOOL_CUTTHROUGH_OUTSI
100
AcDbVertex
100
AcDb2dVertex
 10
-551.3426347379191
 20
180.6593900265798
 30
0.0
  0
VERTEX
  5
1B6
330
168
100
AcDbEntity
  8
4_ANYTOOL_CUTTHROUGH_OUTSI
100
AcDbVertex
100
AcDb2dVertex
 10
-551.3426347379173
 20
204.4093900265652
 30
0.0
  0
VERTEX
  5
1B7
330
168
100
AcDbEntity
  8
4_ANYTOOL_CUTTHROUGH_OUTSI
100
AcDbVertex
100
AcDb2dVertex
 10
-519.7536347379682
 20
204.4093900265798
 30
0.0
  0
VERTEX
  5
1B8
330
168
100
AcDbEntity
  8
4_ANYTOOL_CUTTHROUGH_OUTSI
100
AcDbVertex
100
AcDb2dVertex
 10
-519.7536347379682
 20
180.6593900267835
 30
0.0
 42
0.4142135623880343
  0
VERTEX
  5
1B9
330
168
100
AcDbEntity
  8
4_ANYTOOL_CUTTHROUGH_OUTSI
100
AcDbVertex
100
AcDb2dVertex
 10
-519.5036347379682
 20
180.4093900267817
 30
0.0
  0
VERTEX
  5
1BA
330
168
100
AcDbEntity
  8
4_ANYTOOL_CUTTHROUGH_OUTSI
100
AcDbVertex
100
AcDb2dVertex
 10
-507.5036347379682
 20
180.4093900267835
 30
0.0
 42
0.4142135623901632
  0
VERTEX
  5
1BB
330
168
100
AcDbEntity
  8
4_ANYTOOL_CUTTHROUGH_OUTSI
100
AcDbVertex
100
AcDb2dVertex
 10
-507.2536347379682
 20
180.6593900267835
 30
0.0
  0
VERTEX
  5
1BC
330
168
100
AcDbEntity
  8
4_ANYTOOL_CUTTHROUGH_OUTSI
100
AcDbVertex
100
AcDb2dVertex
 10
-507.2536347379682
 20
186.4093900268272
 30
0.0
  0
VERTEX
  5
1BD
330
168
100
AcDbEntity
  8
4_ANYTOOL_CUTTHROUGH_OUTSI
100
AcDbVertex
100
AcDb2dVertex
 10
-493.84263473801
 20
186.4093900268708
 30
0.0
  0
VERTEX
  5
1BE
330
168
100
AcDbEntity
  8
4_ANYTOOL_CUTTHROUGH_OUTSI
100
AcDbVertex
100
AcDb2dVertex
 10
-493.8426347380082
 20
180.6593900268854
 30
0.0
 42
0.4142135623858957
  0
VERTEX
  5
1BF
330
168
100
AcDbEntity
  8
4_ANYTOOL_CUTTHROUGH_OUTSI
100
AcDbVertex
100
AcDb2dVertex
 10
-493.5926347380082
 20
180.4093900268817
 30
0.0
  0
VERTEX
  5
1C0
330
168
100
AcDbEntity
  8
4_ANYTOOL_CUTTHROUGH_OUTSI
100
AcDbVertex
100
AcDb2dVertex
 10
-481.5926347380082
 20
180.4093900268854
 30
0.0
 42
0.4142135623879771
  0
VERTEX
  5
1C1
330
168
100
AcDbEntity
  8
4_ANYTOOL_CUTTHROUGH_OUTSI
100
AcDbVertex
100
AcDb2dVertex
 10
-481.34263473801
 20
180.6593900268854
 30
0.0
  0
VERTEX
  5
1C2
330
168
100
AcDbEntity
  8
4_ANYTOOL_CUTTHROUGH_OUTSI
100
AcDbVertex
100
AcDb2dVertex
 10
-481.3426347380082
 20
204.4093900265943
 30
0.0
  0
VERTEX
  5
1C3
330
168
100
AcDbEntity
  8
4_ANYTOOL_CUTTHROUGH_OUTSI
100
AcDbVertex
100
AcDb2dVertex
 10
-446.8426347380519
 20
204.4093900265943
 30
0.0
  0
VERTEX
  5
1C4
330
168
100
AcDbEntity
  8
4_ANYTOOL_CUTTHROUGH_OUTSI
100
AcDbVertex
100
AcDb2dVertex
 10
-446.8426347380519
 20
180.6593900266816
 30
0.0
 42
0.4142135623773333
  0
VERTEX
  5
1C5
330
168
100
AcDbEntity
  8
4_ANYTOOL_CUTTHROUGH_OUTSI
100
AcDbVertex
100
AcDb2dVertex
 10
-446.5926347380519
 20
180.4093900266853
 30
0.0
  0
VERTEX
  5
1C6
330
168
100
AcDbEntity
  8
4_ANYTOOL_CUTTHROUGH_OUTSI
100
AcDbVertex
100
AcDb2dVertex
 10
-434.5926347380519
 20
180.4093900266816
 30
0.0
 42
0.4142135624007866
  0
VERTEX
  5
1C7
330
168
100
AcDbEntity
  8
4_ANYTOOL_CUTTHROUGH_OUTSI
100
AcDbVertex
100
AcDb2dVertex
 10
-434.3426347380573
 20
180.6593900266816
 30
0.0
  0
VERTEX
  5
1C8
330
168
100
AcDbEntity
  8
4_ANYTOOL_CUTTHROUGH_OUTSI
100
AcDbVertex
100
AcDb2dVertex
 10
-434.3426347380519
 20
186.4093900264852
 30
0.0
  0
VERTEX
  5
1C9
330
168
100
AcDbEntity
  8
4_ANYTOOL_CUTTHROUGH_OUTSI
100
AcDbVertex
100
AcDb2dVertex
 10
-367.8426347378354
 20
186.4093900255248
 30
0.0
  0
VERTEX
  5
1CA
330
168
100
AcDbEntity
  8
4_ANYTOOL_CUTTHROUGH_OUTSI
100
AcDbVertex
100
AcDb2dVertex
 10
-367.8426347378336
 20
180.909390025532
 30
0.0
  0
VERTEX
  5
1CB
330
168
100
AcDbEntity
  8
4_ANYTOOL_CUTTHROUGH_OUTSI
100
AcDbVertex
100
AcDb2dVertex
 10
-373.5926347378336
 20
180.9093900255175
 30
0.0
 42
0.4142135624199589
  0
VERTEX
  5
1CC
330
168
100
AcDbEntity
  8
4_ANYTOOL_CUTTHROUGH_OUTSI
100
AcDbVertex
100
AcDb2dVertex
 10
-373.8426347378299
 20
180.6593900255175
 30
0.0
  0
VERTEX
  5
1CD
330
168
100
AcDbEntity
  8
4_ANYTOOL_CUTTHROUGH_OUTSI
100
AcDbVertex
100
AcDb2dVertex
 10
-373.8426347378354
 20
168.659390025532
 30
0.0
 42
0.4142135623730853
  0
VERTEX
  5
1CE
330
168
100
AcDbEntity
  8
4_ANYTOOL_CUTTHROUGH_OUTSI
100
AcDbVertex
100
AcDb2dVertex
 10
-373.5926347378354
 20
168.409390025532
 30
0.0
  0
VERTEX
  5
1CF
330
168
100
AcDbEntity
  8
4_ANYTOOL_CUTTHROUGH_OUTSI
100
AcDbVertex
100
AcDb2dVertex
 10
-336.5926347378336
 20
168.4093900255466
 30
0.0
 42
0.4142135623474801
  0
VERTEX
  5
1D0
330
168
100
AcDbEntity
  8
4_ANYTOOL_CUTTHROUGH_OUTSI
100
AcDbVertex
100
AcDb2dVertex
 10
-336.3426347378263
 20
168.6593900255466
 30
0.0
  0
VERTEX
  5
1D1
330
168
100
AcDbEntity
  8
4_ANYTOOL_CUTTHROUGH_OUTSI
100
AcDbVertex
100
AcDb2dVertex
 10
-336.3426347378336
 20
180.6593900255612
 30
0.0
 42
0.4142135623922725
  0
VERTEX
  5
1D2
330
168
100
AcDbEntity
  8
4_ANYTOOL_CUTTHROUGH_OUTSI
100
AcDbVertex
100
AcDb2dVertex
 10
-336.5926347378354
 20
180.9093900255612
 30
0.0
  0
VERTEX
  5
1D3
330
168
100
AcDbEntity
  8
4_ANYTOOL_CUTTHROUGH_OUTSI
100
AcDbVertex
100
AcDb2dVertex
 10
-342.3426347378336
 20
180.909390025532
 30
0.0
  0
VERTEX
  5
1D4
330
168
100
AcDbEntity
  8
4_ANYTOOL_CUTTHROUGH_OUTSI
100
AcDbVertex
100
AcDb2dVertex
 10
-342.3426347378372
 20
186.4093900251755
 30
0.0
  0
SEQEND
  5
1D5
330
168
100
AcDbEntity
  8
4_ANYTOOL_CUTTHROUGH_OUTSI
  0
ENDSEC
  0
SECTION
  2
OBJECTS
  0
DICTIONARY
  5
C
330
0
100
AcDbDictionary
  3
ACAD_GROUP
350
D
  3
ACAD_LAYOUT
350
1A
  3
ACAD_MATERIAL
350
43
  3
ACAD_MLEADERSTYLE
350
5B
  3
ACAD_MLINESTYLE
350
17
  3
ACAD_PLOTSETTINGS
350
19
  3
ACAD_SCALELIST
350
47
  3
ACAD_VISUALSTYLE
350
2A
  3
ACDBHEADERROUNDTRIPXREC
350
1D6
  3
ACDBVARIABLEDICTIONARY
350
1F7
  3
DWGPROPS
350
1FE
  0
DICTIONARY
  5
1FF
330
8
100
AcDbDictionary
280
     1
  3
ACAD_XREC_ROUNDTRIP
360
200
  0
DICTIONARY
  5
D
102
{ACAD_REACTORS
330
C
102
}
330
C
100
AcDbDictionary
  0
DICTIONARY
  5
1A
102
{ACAD_REACTORS
330
C
102
}
330
C
100
AcDbDictionary
  0
DICTIONARY
  5
43
102
{ACAD_REACTORS
330
C
102
}
330
C
100
AcDbDictionary
  3
BYBLOCK
350
45
  3
BYLAYER
350
44
  3
GLOBAL
350
46
  0
DICTIONARY
  5
5B
102
{ACAD_REACTORS
330
C
102
}
330
C
100
AcDbDictionary
  3
STANDARD
350
5C
  0
DICTIONARY
  5
17
102
{ACAD_REACTORS
330
C
102
}
330
C
100
AcDbDictionary
  3
STANDARD
350
18
  0
DICTIONARY
  5
19
102
{ACAD_REACTORS
330
C
102
}
330
C
100
AcDbDictionary
  0
DICTIONARY
  5
47
102
{ACAD_REACTORS
330
C
102
}
330
C
100
AcDbDictionary
  3
A0
350
48
  3
A1
350
49
  3
A2
350
4A
  3
A3
350
4B
  3
A4
350
4C
  3
A5
350
4D
  3
A6
350
4E
  3
A7
350
4F
  3
A8
350
50
  3
A9
350
51
  3
B1
350
52
  3
B2
350
53
  3
B3
350
54
  3
B4
350
55
  3
B5
350
56
  3
B6
350
57
  3
B7
350
58
  0
DICTIONARY
  5
2A
102
{ACAD_REACTORS
330
C
102
}
330
C
100
AcDbDictionary
  3
2DWIREFRAME
350
2F
  3
BASIC
350
32
  3
BRIGHTEN
350
36
  3
COLORCHANGE
350
3A
  3
CONCEPTUAL
350
34
  3
DIM
350
35
  3
EDGECOLOROFF
350
3D
  3
FACEPATTERN
350
39
  3
FLAT
350
2B
  3
FLATWITHEDGES
350
2C
  3
GOURAUD
350
2D
  3
GOURAUDWITHEDGES
350
2E
  3
HIDDEN
350
31
  3
JITTEROFF
350
3B
  3
LINEPATTERN
350
38
  3
OVERHANGOFF
350
3C
  3
REALISTIC
350
33
  3
SHADED
350
42
  3
SHADED_WITH_EDGES
350
41
  3
SHADES_OF_GRAY
350
3E
  3
SKETCHY
350
3F
  3
THICKEN
350
37
  3
WIREFRAME
350
30
  3
X-RAY
350
40
  0
DICTIONARY
  5
1D6
102
{ACAD_REACTORS
330
C
102
}
330
C
100
AcDbDictionary
  3
CEPSNID
350
1E0
  3
CEPSNTYPE
350
1DF
  3
DIMSTYLEDATA
350
1F6
  3
FINGERPRINTGUID
350
1E1
  3
HYPERLINKBASE
350
1D9
  3
INSUNITS
350
1DE
  3
LAYOUTDICT
350
1DB
  3
LWETCUNION
350
1DD
  3
PLOTSETDICT
350
1DC
  3
PSVPSCALE
350
1E3
  3
PUCSBASE
350
1E6
  3
PUCSORGBACK
350
1EC
  3
PUCSORGBOTTOM
350
1E8
  3
PUCSORGFRONT
350
1EB
  3
PUCSORGLEFT
350
1E9
  3
PUCSORGRIGHT
350
1EA
  3
PUCSORGTOP
350
1E7
  3
PUCSORTHOREF
350
1E4
  3
PUCSORTHOVIEW
350
1E5
  3
STYLESHEET
350
1DA
  3
TSTACKALIGN
350
1D7
  3
TSTACKSIZE
350
1D8
  3
UCSBASE
350
1EF
  3
UCSORGBACK
350
1F5
  3
UCSORGBOTTOM
350
1F1
  3
UCSORGFRONT
350
1F4
  3
UCSORGLEFT
350
1F2
  3
UCSORGRIGHT
350
1F3
  3
UCSORGTOP
350
1F0
  3
UCSORTHOREF
350
1ED
  3
UCSORTHOVIEW
350
1EE
  3
VERSIONGUID
350
1E2
  0
DICTIONARY
  5
1F7
102
{ACAD_REACTORS
330
C
102
}
330
C
100
AcDbDictionary
  3
CANNOSCALE
350
201
  3
CMLEADERSTYLE
350
1F9
  3
CTABLESTYLE
350
1F8
  3
DIMASSOC
350
1FC
  3
HIDETEXT
350
1FD
  3
MSLTSCALE
350
202
  0
XRECORD
  5
1FE
102
{ACAD_REACTORS
330
C
102
}
330
C
100
AcDbXrecord
  1
DWGPROPS COOKIE
  2

  3

  4

  6

  7

  8
clayt
  9

300
=
301
=
302
=
303
=
304
=
305
=
306
=
307
=
308
=
309
=
 40
0.0
 41
2461249.406114109
 42
2461249.406114132
  1

 90
        0
  0
XRECORD
  5
200
102
{ACAD_REACTORS
330
1FF
102
}
330
1FF
100
AcDbXrecord
102
VTR_0.000_0.000_1.000_1.000_VISUALSTYLE
340
2F
102
VTR_0.000_0.000_1.000_1.000_GRIDDISPLAY
 70
     3
102
VTR_0.000_0.000_1.000_1.000_GRIDMAJOR
 70
     5
102
VTR_0.000_0.000_1.000_1.000_DEFAULTLIGHTING
280
     1
102
VTR_0.000_0.000_1.000_1.000_DEFAULTLIGHTINGTYPE
 70
     1
102
VTR_0.000_0.000_1.000_1.000_BRIGHTNESS
141
0.0
102
VTR_0.000_0.000_1.000_1.000_CONTRAST
142
0.0
  0
MATERIAL
  5
45
102
{ACAD_REACTORS
330
43
102
}
102
{ACAD_XDICTIONARY
360
205
102
}
330
43
100
AcDbMaterial
  1
BYBLOCK
  0
MATERIAL
  5
44
102
{ACAD_REACTORS
330
43
102
}
102
{ACAD_XDICTIONARY
360
203
102
}
330
43
100
AcDbMaterial
  1
BYLAYER
  0
MATERIAL
  5
46
102
{ACAD_REACTORS
330
43
102
}
102
{ACAD_XDICTIONARY
360
207
102
}
330
43
100
AcDbMaterial
  1
GLOBAL
  0
ACAD_PROXY_OBJECT
  5
5C
102
{ACAD_REACTORS
330
5B
102
}
330
5B
100
AcDbProxyObject
 90
      499
 91
      505
 93
      610
310
40901902A4063FBFFFFFE056BD1B81E855B9FC0AD7A3703D0AD73F4214DD185B99185C9900AD7A3703D0AC73F90141901A02B5E8DC0F42B1CFC02B5E8DC0F42B1CFE5764000000000000300FC0
340
14
340
0
340
11
340
0
 94
        0
1001
ACAD_MLEADERVER
1070
     2
  0
MLINESTYLE
  5
18
102
{ACAD_REACTORS
330
17
102
}
330
17
100
AcDbMlineStyle
  2
Standard
 70
     0
  3

 62
   256
 51
90.0
 52
90.0
 71
     2
 49
0.5
 62
   256
  6
BYLAYER
 49
-0.5
 62
   256
  6
BYLAYER
  0
ACAD_PROXY_OBJECT
  5
48
102
{ACAD_REACTORS
330
47
102
}
330
47
100
AcDbProxyObject
 90
      499
 91
      503
 93
       41
310
903313A31580
  0
ACAD_PROXY_OBJECT
  5
49
102
{ACAD_REACTORS
330
47
102
}
330
47
100
AcDbProxyObject
 90
      499
 91
      503
 93
      257
310
90E312F31323822203D2031272D3022000000000000200FC000000000000284000
  0
ACAD_PROXY_OBJECT
  5
4A
102
{ACAD_REACTORS
330
47
102
}
330
47
100
AcDbProxyObject
 90
      499
 91
      503
 93
      249
310
90D312F363422203D2031272D3022000000000000240FC000000000000284000
  0
ACAD_PROXY_OBJECT
  5
4B
102
{ACAD_REACTORS
330
47
102
}
330
47
100
AcDbProxyObject
 90
      499
 91
      503
 93
      249
310
90D312F333222203D2031272D3022000000000000280FC000000000000284000
  0
ACAD_PROXY_OBJECT
  5
4C
102
{ACAD_REACTORS
330
47
102
}
330
47
100
AcDbProxyObject
 90
      499
 91
      503
 93
      249
310
90D312F313622203D2031272D30220000000000002C0FC000000000000284000
  0
ACAD_PROXY_OBJECT
  5
4D
102
{ACAD_REACTORS
330
47
102
}
330
47
100
AcDbProxyObject
 90
      499
 91
      503
 93
      249
310
90D332F333222203D2031272D30220000000000002E0FC000000000000284000
  0
ACAD_PROXY_OBJECT
  5
4E
102
{ACAD_REACTORS
330
47
102
}
330
47
100
AcDbProxyObject
 90
      499
 91
      503
 93
      241
310
90C312F3822203D2031272D3022000000000000300FC000000000000284000
  0
ACAD_PROXY_OBJECT
  5
4F
102
{ACAD_REACTORS
330
47
102
}
330
47
100
AcDbProxyObject
 90
      499
 91
      503
 93
      249
310
90D332F313622203D2031272D3022000000000000320FC000000000000284000
  0
ACAD_PROXY_OBJECT
  5
50
102
{ACAD_REACTORS
330
47
102
}
330
47
100
AcDbProxyObject
 90
      499
 91
      503
 93
      241
310
90C312F3422203D2031272D3022000000000000340FC000000000000284000
  0
ACAD_PROXY_OBJECT
  5
51
102
{ACAD_REACTORS
330
47
102
}
330
47
100
AcDbProxyObject
 90
      499
 91
      503
 93
      241
310
90C332F3822203D2031272D3022000000000000360FC000000000000284000
  0
ACAD_PROXY_OBJECT
  5
52
102
{ACAD_REACTORS
330
47
102
}
330
47
100
AcDbProxyObject
 90
      499
 91
      503
 93
      241
310
90C312F3222203D2031272D3022000000000000380FC000000000000284000
  0
ACAD_PROXY_OBJECT
  5
53
102
{ACAD_REACTORS
330
47
102
}
330
47
100
AcDbProxyObject
 90
      499
 91
      503
 93
      241
310
90C332F3422203D2031272D30220000000000003A0FC000000000000284000
  0
ACAD_PROXY_OBJECT
  5
54
102
{ACAD_REACTORS
330
47
102
}
330
47
100
AcDbProxyObject
 90
      499
 91
      503
 93
      161
310
90A3122203D2031272D30224000000000000284000
  0
ACAD_PROXY_OBJECT
  5
55
102
{ACAD_REACTORS
330
47
102
}
330
47
100
AcDbProxyObject
 90
      499
 91
      503
 93
      257
310
90E312D312F3222203D2031272D30220000000000003E0FC000000000000284000
  0
ACAD_PROXY_OBJECT
  5
56
102
{ACAD_REACTORS
330
47
102
}
330
47
100
AcDbProxyObject
 90
      499
 91
      503
 93
      225
310
90A3322203D2031272D302200000000000002100000000000000284000
  0
ACAD_PROXY_OBJECT
  5
57
102
{ACAD_REACTORS
330
47
102
}
330
47
100
AcDbProxyObject
 90
      499
 91
      503
 93
      225
310
90A3622203D2031272D302200000000000006100000000000000284000
  0
ACAD_PROXY_OBJECT
  5
58
102
{ACAD_REACTORS
330
47
102
}
330
47
100
AcDbProxyObject
 90
      499
 91
      503
 93
      249
310
90D31272D3022203D2031272D30220000000000000A100000000000000284000
  0
ACAD_PROXY_OBJECT
  5
2F
102
{ACAD_REACTORS
330
2A
102
}
330
2A
100
AcDbProxyObject
 90
      499
 91
      501
 93
      436
310
42CC9915DA5C99599C985B595049028333333333333E33F0000000000000F90107901411070040501600405405064090741402480A0340
1001
ACAD
1000
AcDbSavedByObjectVersion
1070
     0
  0
ACAD_PROXY_OBJECT
  5
32
102
{ACAD_REACTORS
330
2A
102
}
330
2A
100
AcDbProxyObject
 90
      499
 91
      501
 93
      388
310
4150985CDA58D07406404333333333333E33F0000000000000F90107A41107004050150841D405064090741402480A0350
1001
ACAD
1000
AcDbSavedByObjectVersion
1070
     0
  0
ACAD_PROXY_OBJECT
  5
36
102
{ACAD_REACTORS
330
2A
102
}
330
2A
100
AcDbProxyObject
 90
      499
 91
      501
 93
      428
310
42109C9A59DA1D195B90C409028333333333333E33F0000000000000F9010790141107004050150841D405064090741402480A029950
1001
ACAD
1000
AcDbSavedByObjectVersion
1070
     0
  0
ACAD_PROXY_OBJECT
  5
3A
102
{ACAD_REACTORS
330
2A
102
}
330
2A
100
AcDbProxyObject
 90
      499
 91
      501
 93
      452
310
42D0DBDB1BDC90DA185B99D95104090240C333333333333E33F0000000000000F90108901411070040501508421405064090741402480A0350
1001
ACAD
1000
AcDbSavedByObjectVersion
1070
     0
  0
ACAD_PROXY_OBJECT
  5
34
102
{ACAD_REACTORS
330
2A
102
}
330
2A
100
AcDbProxyObject
 90
      499
 91
      501
 93
      500
310
4290DBDB98D95C1D1D585B10940D028333333333333E33F0000000000000F90107902409070040501000000000018199010841D405064090740C02480A0340
1001
ACAD
1000
AcDbSavedByObjectVersion
1070
     0
  0
ACAD_PROXY_OBJECT
  5
35
102
{ACAD_REACTORS
330
2A
102
}
330
2A
100
AcDbProxyObject
 90
      499
 91
      501
 93
      412
310
40D11A5B50B409028333333333333E33F0000000000000F9010790141107004050150841D405064090741402480A02677FFFFFD0
1001
ACAD
1000
AcDbSavedByObjectVersion
1070
     0
  0
ACAD_PROXY_OBJECT
  5
3D
102
{ACAD_REACTORS
330
2A
102
}
330
2A
100
AcDbProxyObject
 90
      499
 91
      501
 93
      452
310
43115919D950DBDB1BDC93D999916409028333333333333E33F0000000000000F9010790141107004050150841D405064090741402480A0350
1001
ACAD
1000
AcDbSavedByObjectVersion
1070
     0
  0
ACAD_PROXY_OBJECT
  5
39
102
{ACAD_REACTORS
330
2A
102
}
330
2A
100
AcDbProxyObject
 90
      499
 91
      501
 93
      444
310
42D19858D95C185D1D195C9B90F409028333333333333E33F0000000000000F9010790141107004050150841D405064090741402480A0350
1001
ACAD
1000
AcDbSavedByObjectVersion
1070
     0
  0
ACAD_PROXY_OBJECT
  5
2B
102
{ACAD_REACTORS
330
2A
102
}
330
2A
100
AcDbProxyObject
 90
      499
 91
      501
 93
      380
310
41119B185D240901404333333333333E33F0000000000000F9010740A907004050150841D405064090741402480A1B50
1001
ACAD
1000
AcDbSavedByObjectVersion
1070
     0
  0
ACAD_PROXY_OBJECT
  5
2C
102
{ACAD_REACTORS
330
2A
102
}
330
2A
100
AcDbProxyObject
 90
      499
 91
      501
 93
      468
310
43519B185D15DA5D1A115919D95CD0140901404333333333333E33F0000000000000F90107409019070040501600405405064090741402480A1B50
1001
ACAD
1000
AcDbSavedByObjectVersion
1070
     0
  0
ACAD_PROXY_OBJECT
  5
2D
102
{ACAD_REACTORS
330
2A
102
}
330
2A
100
AcDbProxyObject
 90
      499
 91
      501
 93
      404
310
41D1DBDD5C985D5910240902404333333333333E33F0000000000000F9010740A9070040501641D405064090741402480A1B50
1001
ACAD
1000
AcDbSavedByObjectVersion
1070
     0
  0
ACAD_PROXY_OBJECT
  5
2E
102
{ACAD_REACTORS
330
2A
102
}
330
2A
100
AcDbProxyObject
 90
      499
 91
      501
 93
      492
310
4411DBDD5C985D5915DA5D1A115919D95CD0340902404333333333333E33F0000000000000F90107409019070040501600405405064090741402480A1B50
1001
ACAD
1000
AcDbSavedByObjectVersion
1070
     0
  0
ACAD_PROXY_OBJECT
  5
31
102
{ACAD_REACTORS
330
2A
102
}
330
2A
100
AcDbProxyObject
 90
      499
 91
      501
 93
      476
310
41921A5919195B90640502408333333333333E33F0000000000000F901079024090700405020000000000001110200405405064090740C02480A0340
1001
ACAD
1000
AcDbSavedByObjectVersion
1070
     0
  0
ACAD_PROXY_OBJECT
  5
3B
102
{ACAD_REACTORS
330
2A
102
}
330
2A
100
AcDbProxyObject
 90
      499
 91
      501
 93
      428
310
42529A5D1D195C93D999914409028333333333333E33F0000000000000F9010790141107004050150A41D405064090741402480A0350
1001
ACAD
1000
AcDbSavedByObjectVersion
1070
     0
  0
ACAD_PROXY_OBJECT
  5
38
102
{ACAD_REACTORS
330
2A
102
}
330
2A
100
AcDbProxyObject
 90
      499
 91
      501
 93
      444
310
42D31A5B995C185D1D195C9B90E409028333333333333E33F0000000000000F9010790141107004050750841D405064090741402483A0350
1001
ACAD
1000
AcDbSavedByObjectVersion
1070
     0
  0
ACAD_PROXY_OBJECT
  5
3C
102
{ACAD_REACTORS
330
2A
102
}
330
2A
100
AcDbProxyObject
 90
      499
 91
      501
 93
      444
310
42D3DD995C9A185B99D3D999915409028333333333333E33F0000000000000F9010790141107004050150941D405064090741402480A0350
1001
ACAD
1000
AcDbSavedByObjectVersion
1070
     0
  0
ACAD_PROXY_OBJECT
  5
33
102
{ACAD_REACTORS
330
2A
102
}
330
2A
100
AcDbProxyObject
 90
      499
 91
      501
 93
      428
310
425499585B1A5CDD1A58D08409038333333333333E33F0000000000000F9010740A907004050150800405405064090740C02480A1B40
1001
ACAD
1000
AcDbSavedByObjectVersion
1070
     0
  0
ACAD_PROXY_OBJECT
  5
42
102
{ACAD_REACTORS
330
2A
102
}
330
2A
100
AcDbProxyObject
 90
      499
 91
      501
 93
      420
310
4194DA1859195911B40902404333333333333E33F0000000000000F9010740A41107004050150800405405064090840C02480A0B40
1001
ACAD
1000
AcDbSavedByObjectVersion
1070
     0
  0
ACAD_PROXY_OBJECT
  5
41
102
{ACAD_REACTORS
330
2A
102
}
330
2A
100
AcDbProxyObject
 90
      499
 91
      501
 93
      516
310
4454DA18591959081DDA5D1A08195919D95CD1A40902404333333333333E33F0000000000000F901074090142907004050250800405405064090740C02480A0B40
1001
ACAD
1000
AcDbSavedByObjectVersion
1070
     0
  0
ACAD_PROXY_OBJECT
  5
3E
102
{ACAD_REACTORS
330
2A
102
}
330
2A
100
AcDbProxyObject
 90
      499
 91
      501
 93
      532
310
4394DA1859195CC81BD98811DC985E5174090240C333333333333E33F0000000000000F901079024090741D01000000000000111010841D405064090740C02480A0340
1001
ACAD
1000
AcDbSavedByObjectVersion
1070
     0
  0
ACAD_PROXY_OBJECT
  5
3F
102
{ACAD_REACTORS
330
2A
102
}
330
2A
100
AcDbProxyObject
 90
      499
 91
      501
 93
      476
310
41D4DAD95D18DA1E51840502408333333333333E33F0000000000000F901079024090741D01000000000000111010B41D405064090741802480A0340
1001
ACAD
1000
AcDbSavedByObjectVersion
1070
     0
  0
ACAD_PROXY_OBJECT
  5
37
102
{ACAD_REACTORS
330
2A
102
}
330
2A
100
AcDbProxyObject
 90
      499
 91
      501
 93
      412
310
41D51A1A58DAD95B90D409028333333333333E33F0000000000000F9010790141107004050150C41D405064090741402480A0350
1001
ACAD
1000
AcDbSavedByObjectVersion
1070
     0
  0
ACAD_PROXY_OBJECT
  5
30
102
{ACAD_REACTORS
330
2A
102
}
330
2A
100
AcDbProxyObject
 90
      499
 91
      501
 93
      420
310
4255DA5C99599C985B595059028333333333333E33F0000000000000F90107901411070040501600405405064090740C02480A0340
1001
ACAD
1000
AcDbSavedByObjectVersion
1070
     0
  0
ACAD_PROXY_OBJECT
  5
40
102
{ACAD_REACTORS
330
2A
102
}
330
2A
100
AcDbProxyObject
 90
      499
 91
      501
 93
      404
310
41560B54985E51940902404000000000000E03F0000000000000F9010740501907004050150841D405064090740C02480A1B40
1001
ACAD
1000
AcDbSavedByObjectVersion
1070
     0
  0
XRECORD
  5
1E0
102
{ACAD_REACTORS
330
1D6
102
}
330
1D6
100
AcDbXrecord
340
0
  0
XRECORD
  5
1DF
102
{ACAD_REACTORS
330
1D6
102
}
330
1D6
100
AcDbXrecord
 90
        0
  0
XRECORD
  5
1F6
102
{ACAD_REACTORS
330
1D6
102
}
330
1D6
100
AcDbXrecord
1000
DSTYLE
1002
{
1070
   171
 70
     2
1070
   143
 40
25.4
1070
   274
 70
     2
1070
    41
 40
0.18
1070
   141
 40
0.09
1070
   271
 70
     4
1070
    43
 40
0.38
1070
   278
 70
    46
1070
    44
 40
0.18
1070
    42
 40
0.0625
1070
   147
 40
0.09
1070
    77
 70
     0
1070
   272
 70
     4
1070
    73
 70
     1
1070
   279
 70
     2
1070
   172
 70
     0
1070
    74
 70
     1
1070
   283
 70
     1
1070
   340
340
11
1070
   140
 40
0.18
1070
   284
 70
     0
1070
    78
 70
     0
1002
}
  0
XRECORD
  5
1E1
102
{ACAD_REACTORS
330
1D6
102
}
330
1D6
100
AcDbXrecord
  1
{717545c7-67ce-4930-9535-3a9da1d68742}
  0
XRECORD
  5
1D9
102
{ACAD_REACTORS
330
1D6
102
}
330
1D6
100
AcDbXrecord
  1

  0
XRECORD
  5
1DE
102
{ACAD_REACTORS
330
1D6
102
}
330
1D6
100
AcDbXrecord
 90
        4
  0
XRECORD
  5
1DB
102
{ACAD_REACTORS
330
1D6
102
}
330
1D6
100
AcDbXrecord
340
1A
  0
XRECORD
  5
1DD
102
{ACAD_REACTORS
330
1D6
102
}
330
1D6
100
AcDbXrecord
 90
    10781
  0
XRECORD
  5
1DC
102
{ACAD_REACTORS
330
1D6
102
}
330
1D6
100
AcDbXrecord
340
19
  0
XRECORD
  5
1E3
102
{ACAD_REACTORS
330
1D6
102
}
330
1D6
100
AcDbXrecord
 40
0.0
  0
XRECORD
  5
1E6
102
{ACAD_REACTORS
330
1D6
102
}
330
1D6
100
AcDbXrecord
340
0
  0
XRECORD
  5
1EC
102
{ACAD_REACTORS
330
1D6
102
}
330
1D6
100
AcDbXrecord
 10
0.0
 20
0.0
 30
0.0
  0
XRECORD
  5
1E8
102
{ACAD_REACTORS
330
1D6
102
}
330
1D6
100
AcDbXrecord
 10
0.0
 20
0.0
 30
0.0
  0
XRECORD
  5
1EB
102
{ACAD_REACTORS
330
1D6
102
}
330
1D6
100
AcDbXrecord
 10
0.0
 20
0.0
 30
0.0
  0
XRECORD
  5
1E9
102
{ACAD_REACTORS
330
1D6
102
}
330
1D6
100
AcDbXrecord
 10
0.0
 20
0.0
 30
0.0
  0
XRECORD
  5
1EA
102
{ACAD_REACTORS
330
1D6
102
}
330
1D6
100
AcDbXrecord
 10
0.0
 20
0.0
 30
0.0
  0
XRECORD
  5
1E7
102
{ACAD_REACTORS
330
1D6
102
}
330
1D6
100
AcDbXrecord
 10
0.0
 20
0.0
 30
0.0
  0
XRECORD
  5
1E4
102
{ACAD_REACTORS
330
1D6
102
}
330
1D6
100
AcDbXrecord
340
0
  0
XRECORD
  5
1E5
102
{ACAD_REACTORS
330
1D6
102
}
330
1D6
100
AcDbXrecord
 70
     0
  0
XRECORD
  5
1DA
102
{ACAD_REACTORS
330
1D6
102
}
330
1D6
100
AcDbXrecord
  1

  0
XRECORD
  5
1D7
102
{ACAD_REACTORS
330
1D6
102
}
330
1D6
100
AcDbXrecord
 90
        1
  0
XRECORD
  5
1D8
102
{ACAD_REACTORS
330
1D6
102
}
330
1D6
100
AcDbXrecord
 90
       70
  0
XRECORD
  5
1EF
102
{ACAD_REACTORS
330
1D6
102
}
330
1D6
100
AcDbXrecord
340
0
  0
XRECORD
  5
1F5
102
{ACAD_REACTORS
330
1D6
102
}
330
1D6
100
AcDbXrecord
 10
0.0
 20
0.0
 30
0.0
  0
XRECORD
  5
1F1
102
{ACAD_REACTORS
330
1D6
102
}
330
1D6
100
AcDbXrecord
 10
0.0
 20
0.0
 30
0.0
  0
XRECORD
  5
1F4
102
{ACAD_REACTORS
330
1D6
102
}
330
1D6
100
AcDbXrecord
 10
0.0
 20
0.0
 30
0.0
  0
XRECORD
  5
1F2
102
{ACAD_REACTORS
330
1D6
102
}
330
1D6
100
AcDbXrecord
 10
0.0
 20
0.0
 30
0.0
  0
XRECORD
  5
1F3
102
{ACAD_REACTORS
330
1D6
102
}
330
1D6
100
AcDbXrecord
 10
0.0
 20
0.0
 30
0.0
  0
XRECORD
  5
1F0
102
{ACAD_REACTORS
330
1D6
102
}
330
1D6
100
AcDbXrecord
 10
0.0
 20
0.0
 30
0.0
  0
XRECORD
  5
1ED
102
{ACAD_REACTORS
330
1D6
102
}
330
1D6
100
AcDbXrecord
340
0
  0
XRECORD
  5
1EE
102
{ACAD_REACTORS
330
1D6
102
}
330
1D6
100
AcDbXrecord
 70
     0
  0
XRECORD
  5
1E2
102
{ACAD_REACTORS
330
1D6
102
}
330
1D6
100
AcDbXrecord
  1
{FAEB1C32-E019-11D5-929B-00C0DF256EC4}
  0
DICTIONARYVAR
  5
201
102
{ACAD_REACTORS
330
1F7
102
}
330
1F7
100
DictionaryVariables
280
     0
  1
1:1
  0
DICTIONARYVAR
  5
1F9
102
{ACAD_REACTORS
330
1F7
102
}
330
1F7
100
DictionaryVariables
280
     0
  1
Standard
  0
DICTIONARYVAR
  5
1F8
102
{ACAD_REACTORS
330
1F7
102
}
330
1F7
100
DictionaryVariables
280
     0
  1
Standard
  0
DICTIONARYVAR
  5
1FC
102
{ACAD_REACTORS
330
1F7
102
}
330
1F7
100
DictionaryVariables
280
     0
  1
2
  0
DICTIONARYVAR
  5
1FD
102
{ACAD_REACTORS
330
1F7
102
}
330
1F7
100
DictionaryVariables
280
     0
  1
1
  0
DICTIONARYVAR
  5
202
102
{ACAD_REACTORS
330
1F7
102
}
330
1F7
100
DictionaryVariables
280
     0
  1
1
  0
DICTIONARY
  5
205
330
45
100
AcDbDictionary
280
     1
  3
ACAD_XREC_ROUNDTRIP
360
206
  0
DICTIONARY
  5
203
330
44
100
AcDbDictionary
280
     1
  3
ACAD_XREC_ROUNDTRIP
360
204
  0
DICTIONARY
  5
207
330
46
100
AcDbDictionary
280
     1
  3
ACAD_XREC_ROUNDTRIP
360
208
  0
XRECORD
  5
206
102
{ACAD_REACTORS
330
205
102
}
330
205
100
AcDbXrecord
102
MATERIAL
148
0.0
149
0.0
149
0.0
 93
        0
 94
      127
282
     0
 72
     1
 77
     1
171
     1
175
     1
179
     1
273
     0
  0
XRECORD
  5
204
102
{ACAD_REACTORS
330
203
102
}
330
203
100
AcDbXrecord
102
MATERIAL
148
0.0
149
0.0
149
0.0
 93
        0
 94
      127
282
     0
 72
     1
 77
     1
171
     1
175
     1
179
     1
273
     0
  0
XRECORD
  5
208
102
{ACAD_REACTORS
330
207
102
}
330
207
100
AcDbXrecord
102
MATERIAL
148
0.0
149
0.0
149
0.0
 93
        0
 94
      127
282
     0
 72
     1
 77
     1
171
     1
175
     1
179
     1
273
     0
  0
ENDSEC
  0
EOF
