  0
SECTION
  2
HEADER
  9
$ACADVER
  1
AC1014
  9
$ACADMAINTVER
 70
     9
  9
$DWGCODEPAGE
  3
ANSI_1252
  9
$INSBASE
 10
0.0
 20
0.0
 30
0.0
  9
$EXTMIN
 10
-600.2500063153439
 20
-80.14622487308225
 30
0.0
  9
$EXTMAX
 10
600.249993685298
 20
69.85377512917012
 30
0.0000000000235829
  9
$LIMMIN
 10
0.0
 20
0.0
  9
$LIMMAX
 10
12.0
 20
9.0
  9
$ORTHOMODE
 70
     0
  9
$REGENMODE
 70
     1
  9
$FILLMODE
 70
     1
  9
$QTEXTMODE
 70
     0
  9
$MIRRTEXT
 70
     1
  9
$DRAGMODE
 70
     2
  9
$LTSCALE
 40
1.0
  9
$OSMODE
 70
    37
  9
$ATTMODE
 70
     1
  9
$TEXTSIZE
 40
0.2
  9
$TRACEWID
 40
0.05
  9
$TEXTSTYLE
  7
STANDARD
  9
$CLAYER
  8
0
  9
$CELTYPE
  6
BYLAYER
  9
$CECOLOR
 62
   256
  9
$CELTSCALE
 40
1.0
  9
$DELOBJ
 70
     1
  9
$DISPSILH
 70
     0
  9
$DIMSCALE
 40
1.0
  9
$DIMASZ
 40
0.18
  9
$DIMEXO
 40
0.0625
  9
$DIMDLI
 40
0.38
  9
$DIMRND
 40
0.0
  9
$DIMDLE
 40
0.0
  9
$DIMEXE
 40
0.18
  9
$DIMTP
 40
0.0
  9
$DIMTM
 40
0.0
  9
$DIMTXT
 40
0.18
  9
$DIMCEN
 40
0.09
  9
$DIMTSZ
 40
0.0
  9
$DIMTOL
 70
     0
  9
$DIMLIM
 70
     0
  9
$DIMTIH
 70
     1
  9
$DIMTOH
 70
     1
  9
$DIMSE1
 70
     0
  9
$DIMSE2
 70
     0
  9
$DIMTAD
 70
     0
  9
$DIMZIN
 70
     0
  9
$DIMBLK
  1

  9
$DIMASO
 70
     1
  9
$DIMSHO
 70
     1
  9
$DIMPOST
  1

  9
$DIMAPOST
  1

  9
$DIMALT
 70
     0
  9
$DIMALTD
 70
     2
  9
$DIMALTF
 40
25.4
  9
$DIMLFAC
 40
1.0
  9
$DIMTOFL
 70
     0
  9
$DIMTVP
 40
0.0
  9
$DIMTIX
 70
     0
  9
$DIMSOXD
 70
     0
  9
$DIMSAH
 70
     0
  9
$DIMBLK1
  1

  9
$DIMBLK2
  1

  9
$DIMSTYLE
  2
STANDARD_ACAD
  9
$DIMCLRD
 70
     0
  9
$DIMCLRE
 70
     0
  9
$DIMCLRT
 70
     0
  9
$DIMTFAC
 40
1.0
  9
$DIMGAP
 40
0.09
  9
$DIMJUST
 70
     0
  9
$DIMSD1
 70
     0
  9
$DIMSD2
 70
     0
  9
$DIMTOLJ
 70
     1
  9
$DIMTZIN
 70
     0
  9
$DIMALTZ
 70
     0
  9
$DIMALTTZ
 70
     0
  9
$DIMFIT
 70
     5
  9
$DIMUPT
 70
     0
  9
$DIMUNIT
 70
     2
  9
$DIMDEC
 70
     4
  9
$DIMTDEC
 70
     4
  9
$DIMALTU
 70
     2
  9
$DIMALTTD
 70
     2
  9
$DIMTXSTY
  7
STANDARD
  9
$DIMAUNIT
 70
     0
  9
$LUNITS
 70
     2
  9
$LUPREC
 70
     3
  9
$SKETCHINC
 40
0.1
  9
$FILLETRAD
 40
0.0
  9
$AUNITS
 70
     0
  9
$AUPREC
 70
     0
  9
$MENU
  1
.
  9
$ELEVATION
 40
0.0
  9
$PELEVATION
 40
0.0
  9
$THICKNESS
 40
0.0
  9
$LIMCHECK
 70
     0
  9
$CHAMFERA
 40
0.0
  9
$CHAMFERB
 40
0.0
  9
$CHAMFERC
 40
0.0
  9
$CHAMFERD
 40
0.0
  9
$SKPOLY
 70
     0
  9
$TDCREATE
 40
2461243.631184468
  9
$TDUPDATE
 40
2461243.631184607
  9
$TDINDWG
 40
0.0000000116
  9
$TDUSRTIMER
 40
0.0000000116
  9
$USRTIMER
 70
     1
  9
$ANGBASE
 50
0.0
  9
$ANGDIR
 70
     0
  9
$PDMODE
 70
     0
  9
$PDSIZE
 40
0.0
  9
$PLINEWID
 40
0.0
  9
$COORDS
 70
     1
  9
$SPLFRAME
 70
     0
  9
$SPLINETYPE
 70
     6
  9
$SPLINESEGS
 70
     8
  9
$ATTDIA
 70
     0
  9
$ATTREQ
 70
     1
  9
$HANDLING
 70
     1
  9
$HANDSEED
  5
3F4
  9
$SURFTAB1
 70
     6
  9
$SURFTAB2
 70
     6
  9
$SURFTYPE
 70
     6
  9
$SURFU
 70
     6
  9
$SURFV
 70
     6
  9
$UCSNAME
  2

  9
$UCSORG
 10
0.0
 20
0.0
 30
0.0
  9
$UCSXDIR
 10
1.0
 20
0.0
 30
0.0
  9
$UCSYDIR
 10
0.0
 20
1.0
 30
0.0
  9
$PUCSNAME
  2

  9
$PUCSORG
 10
0.0
 20
0.0
 30
0.0
  9
$PUCSXDIR
 10
1.0
 20
0.0
 30
0.0
  9
$PUCSYDIR
 10
0.0
 20
1.0
 30
0.0
  9
$USERI1
 70
     0
  9
$USERI2
 70
     0
  9
$USERI3
 70
     0
  9
$USERI4
 70
     0
  9
$USERI5
 70
     0
  9
$USERR1
 40
0.0
  9
$USERR2
 40
0.0
  9
$USERR3
 40
0.0
  9
$USERR4
 40
0.0
  9
$USERR5
 40
0.0
  9
$WORLDVIEW
 70
     1
  9
$SHADEDGE
 70
     3
  9
$SHADEDIF
 70
    70
  9
$TILEMODE
 70
     1
  9
$MAXACTVP
 70
    64
  9
$PINSBASE
 10
0.0
 20
0.0
 30
0.0
  9
$PLIMCHECK
 70
     0
  9
$PEXTMIN
 10
1.000000000000000E+20
 20
1.000000000000000E+20
 30
1.000000000000000E+20
  9
$PEXTMAX
 10
-1.000000000000000E+20
 20
-1.000000000000000E+20
 30
-1.000000000000000E+20
  9
$PLIMMIN
 10
0.0
 20
0.0
  9
$PLIMMAX
 10
12.0
 20
9.0
  9
$UNITMODE
 70
     0
  9
$VISRETAIN
 70
     1
  9
$PLINEGEN
 70
     0
  9
$PSLTSCALE
 70
     1
  9
$TREEDEPTH
 70
  3020
  9
$PICKSTYLE
 70
     1
  9
$CMLSTYLE
  2
STANDARD
  9
$CMLJUST
 70
     0
  9
$CMLSCALE
 40
1.0
  9
$PROXYGRAPHICS
 70
     1
  9
$MEASUREMENT
 70
     1
  0
ENDSEC
  0
SECTION
  2
CLASSES
  0
CLASS
  1
ACDBDICTIONARYWDFLT
  2
AcDbDictionaryWithDefault
  3
ObjectDBX Classes
 90
        0
280
     0
281
     0
  0
CLASS
  1
VISUALSTYLE
  2
AcDbVisualStyle
  3
ObjectDBX Classes
 90
     4095
280
     0
281
     0
  0
CLASS
  1
MATERIAL
  2
AcDbMaterial
  3
ObjectDBX Classes
 90
     1153
280
     0
281
     0
  0
CLASS
  1
SCALE
  2
AcDbScale
  3
ObjectDBX Classes
 90
     1153
280
     0
281
     0
  0
CLASS
  1
TABLESTYLE
  2
AcDbTableStyle
  3
ObjectDBX Classes
 90
     4095
280
     0
281
     0
  0
CLASS
  1
MLEADERSTYLE
  2
AcDbMLeaderStyle
  3
ACDB_MLEADERSTYLE_CLASS
 90
     4095
280
     0
281
     0
  0
CLASS
  1
SUN
  2
AcDbSun
  3
SCENEOE
 90
     1153
280
     0
281
     0
  0
CLASS
  1
DICTIONARYVAR
  2
AcDbDictionaryVar
  3
ObjectDBX Classes
 90
        0
280
     0
281
     0
  0
CLASS
  1
XRECORD
  2
AcDbXrecord
  3
ObjectDBX Classes
 90
        0
280
     0
281
     0
  0
CLASS
  1
LWPOLYLINE
  2
AcDbPolyline
  3
ObjectDBX Classes
 90
        0
280
     0
281
     1
  0
CLASS
  1
HATCH
  2
AcDbHatch
  3
ObjectDBX Classes
 90
        0
280
     0
281
     1
  0
CLASS
  1
ACDBPLACEHOLDER
  2
AcDbPlaceHolder
  3
ObjectDBX Classes
 90
        0
280
     0
281
     0
  0
CLASS
  1
LAYOUT
  2
AcDbLayout
  3
ObjectDBX Classes
 90
        0
280
     0
281
     0
  0
ENDSEC
  0
SECTION
  2
TABLES
  0
TABLE
  2
VPORT
  5
8
102
{ACAD_XDICTIONARY
360
3E9
102
}
330
0
100
AcDbSymbolTable
 70
     1
  0
VPORT
  5
29
330
8
100
AcDbSymbolTableRecord
100
AcDbViewportTableRecord
  2
*ACTIVE
 70
     0
 10
0.0
 20
0.0
 11
1.0
 21
1.0
 12
10.42990654205607
 22
4.5
 13
0.0
 23
0.0
 14
0.5
 24
0.5
 15
0.5
 25
0.5
 16
0.0
 26
0.0
 36
1.0
 17
0.0
 27
0.0
 37
0.0
 40
9.0
 41
1.972972972850329
 42
50.0
 43
0.0
 44
0.0
 50
0.0
 51
0.0
 71
     0
 72
   100
 73
     1
 74
     3
 75
     0
 76
     0
 77
     0
 78
     0
  0
ENDTAB
  0
TABLE
  2
LTYPE
  5
5
330
0
100
AcDbSymbolTable
 70
     1
  0
LTYPE
  5
14
330
5
100
AcDbSymbolTableRecord
100
AcDbLinetypeTableRecord
  2
BYBLOCK
 70
     0
  3

 72
    65
 73
     0
 40
0.0
  0
LTYPE
  5
15
330
5
100
AcDbSymbolTableRecord
100
AcDbLinetypeTableRecord
  2
BYLAYER
 70
     0
  3

 72
    65
 73
     0
 40
0.0
  0
LTYPE
  5
16
330
5
100
AcDbSymbolTableRecord
100
AcDbLinetypeTableRecord
  2
CONTINUOUS
 70
     0
  3
Solid line
 72
    65
 73
     0
 40
0.0
  0
ENDTAB
  0
TABLE
  2
LAYER
  5
2
330
0
100
AcDbSymbolTable
 70
     4
  0
LAYER
  5
10
330
2
100
AcDbSymbolTableRecord
100
AcDbLayerTableRecord
  2
0
 70
     0
 62
     7
  6
CONTINUOUS
  0
LAYER
  5
5F
330
2
100
AcDbSymbolTableRecord
100
AcDbLayerTableRecord
  2
1_ANYTOOL_1MMDEEP_LABELS_S
 70
     0
 62
     2
  6
CONTINUOUS
  0
LAYER
  5
266
330
2
100
AcDbSymbolTableRecord
100
AcDbLayerTableRecord
  2
5_ANYTOOL_HALF_MILL_9MM_IN
 70
     0
 62
     3
  6
CONTINUOUS
  0
LAYER
  5
2D1
330
2
100
AcDbSymbolTableRecord
100
AcDbLayerTableRecord
  2
4_ANYTOOL_CUTTHROUGH_OUTSI
 70
     0
 62
     5
  6
CONTINUOUS
  0
ENDTAB
  0
TABLE
  2
STYLE
  5
3
330
0
100
AcDbSymbolTable
 70
     1
  0
STYLE
  5
11
330
3
100
AcDbSymbolTableRecord
100
AcDbTextStyleTableRecord
  2
STANDARD
 70
     0
 40
0.0
 41
1.0
 50
0.0
 71
     0
 42
0.2
  3
txt
  4

  0
ENDTAB
  0
TABLE
  2
VIEW
  5
6
330
0
100
AcDbSymbolTable
 70
     0
  0
ENDTAB
  0
TABLE
  2
UCS
  5
7
330
0
100
AcDbSymbolTable
 70
     0
  0
ENDTAB
  0
TABLE
  2
APPID
  5
9
330
0
100
AcDbSymbolTable
 70
     3
  0
APPID
  5
12
330
9
100
AcDbSymbolTableRecord
100
AcDbRegAppTableRecord
  2
ACAD
 70
     0
  0
APPID
  5
5E
330
9
100
AcDbSymbolTableRecord
100
AcDbRegAppTableRecord
  2
RHINO
 70
     0
  0
APPID
  5
3F3
330
9
100
AcDbSymbolTableRecord
100
AcDbRegAppTableRecord
  2
ACAD_MLEADERVER
 70
     0
  0
ENDTAB
  0
TABLE
  2
DIMSTYLE
  5
A
330
0
100
AcDbSymbolTable
 70
     1
  0
DIMSTYLE
105
27
330
A
100
AcDbSymbolTableRecord
100
AcDbDimStyleTableRecord
  2
STANDARD_ACAD
 70
     0
  3

  4

  5

  6

  7

 40
1.0
 41
0.18
 42
0.0625
 43
0.38
 44
0.18
 45
0.0
 46
0.0
 47
0.0
 48
0.0
140
0.18
141
0.09
142
0.0
143
25.4
144
1.0
145
0.0
146
1.0
147
0.09
 71
     0
 72
     0
 73
     1
 74
     1
 75
     0
 76
     0
 77
     0
 78
     0
170
     0
171
     2
172
     0
173
     0
174
     0
175
     0
176
     0
177
     0
178
     0
270
     2
271
     4
272
     4
273
     2
274
     2
340
11
275
     0
280
     0
281
     0
282
     0
283
     1
284
     0
285
     0
286
     0
287
     3
288
     0
  0
ENDTAB
  0
TABLE
  2
BLOCK_RECORD
  5
1
330
0
100
AcDbSymbolTable
 70
     0
  0
BLOCK_RECORD
  5
1F
330
1
100
AcDbSymbolTableRecord
100
AcDbBlockTableRecord
  2
*MODEL_SPACE
  0
BLOCK_RECORD
  5
1B
330
1
100
AcDbSymbolTableRecord
100
AcDbBlockTableRecord
  2
*PAPER_SPACE
  0
ENDTAB
  0
ENDSEC
  0
SECTION
  2
BLOCKS
  0
BLOCK
  5
20
330
1F
100
AcDbEntity
  8
0
100
AcDbBlockBegin
  2
*MODEL_SPACE
 70
     0
 10
0.0
 20
0.0
 30
0.0
  3
*MODEL_SPACE
  1

  0
ENDBLK
  5
21
330
1F
100
AcDbEntity
  8
0
100
AcDbBlockEnd
  0
BLOCK
  5
1C
330
1B
100
AcDbEntity
 67
     1
  8
0
100
AcDbBlockBegin
  2
*PAPER_SPACE
 70
     0
 10
0.0
 20
0.0
 30
0.0
  3
*PAPER_SPACE
  1

  0
ENDBLK
  5
1D
330
1B
100
AcDbEntity
 67
     1
  8
0
100
AcDbBlockEnd
  0
ENDSEC
  0
SECTION
  2
ENTITIES
  0
POLYLINE
  5
60
330
1F
100
AcDbEntity
  8
1_ANYTOOL_1MMDEEP_LABELS_S
100
AcDb2dPolyline
 66
     1
 10
0.0
 20
0.0
 30
0.0
  0
VERTEX
  5
61
330
60
100
AcDbEntity
  8
1_ANYTOOL_1MMDEEP_LABELS_S
100
AcDbVertex
100
AcDb2dVertex
 10
187.6285714284477
 20
24.47376309668471
 30
0.0
 42
0.131102951867689
  0
VERTEX
  5
62
330
60
100
AcDbEntity
  8
1_ANYTOOL_1MMDEEP_LABELS_S
100
AcDbVertex
100
AcDb2dVertex
 10
183.8571428570191
 20
29.83090595382964
 30
0.0
  0
VERTEX
  5
63
330
60
100
AcDbEntity
  8
1_ANYTOOL_1MMDEEP_LABELS_S
100
AcDbVertex
100
AcDb2dVertex
 10
183.7006975445191
 20
29.96274189132951
 30
0.0
  0
VERTEX
  5
64
330
60
100
AcDbEntity
  8
1_ANYTOOL_1MMDEEP_LABELS_S
100
AcDbVertex
100
AcDb2dVertex
 10
183.5420758927334
 20
30.09039256097224
 30
0.0
  0
VERTEX
  5
65
330
60
100
AcDbEntity
  8
1_ANYTOOL_1MMDEEP_LABELS_S
100
AcDbVertex
100
AcDb2dVertex
 10
183.381277901662
 20
30.21385796275784
 30
0.0
  0
VERTEX
  5
66
330
60
100
AcDbEntity
  8
1_ANYTOOL_1MMDEEP_LABELS_S
100
AcDbVertex
100
AcDb2dVertex
 10
183.2183035713049
 20
30.33313809668629
 30
0.0
  0
VERTEX
  5
67
330
60
100
AcDbEntity
  8
1_ANYTOOL_1MMDEEP_LABELS_S
100
AcDbVertex
100
AcDb2dVertex
 10
183.053152901662
 20
30.44823296275761
 30
0.0
  0
VERTEX
  5
68
330
60
100
AcDbEntity
  8
1_ANYTOOL_1MMDEEP_LABELS_S
100
AcDbVertex
100
AcDb2dVertex
 10
182.8858258927334
 20
30.55914256097179
 30
0.0
  0
VERTEX
  5
69
330
60
100
AcDbEntity
  8
1_ANYTOOL_1MMDEEP_LABELS_S
100
AcDbVertex
100
AcDb2dVertex
 10
182.7163225445191
 20
30.66586689132883
 30
0.0
  0
VERTEX
  5
6A
330
60
100
AcDbEntity
  8
1_ANYTOOL_1MMDEEP_LABELS_S
100
AcDbVertex
100
AcDb2dVertex
 10
182.5446428570191
 20
30.76840595382873
 30
0.0
  0
VERTEX
  5
6B
330
60
100
AcDbEntity
  8
1_ANYTOOL_1MMDEEP_LABELS_S
100
AcDbVertex
100
AcDb2dVertex
 10
182.3707868302334
 20
30.86675974847149
 30
0.0
  0
VERTEX
  5
6C
330
60
100
AcDbEntity
  8
1_ANYTOOL_1MMDEEP_LABELS_S
100
AcDbVertex
100
AcDb2dVertex
 10
182.194754464162
 20
30.96092827525712
 30
0.0
  0
VERTEX
  5
6D
330
60
100
AcDbEntity
  8
1_ANYTOOL_1MMDEEP_LABELS_S
100
AcDbVertex
100
AcDb2dVertex
 10
182.0165457588049
 20
31.0509115341856
 30
0.0
  0
VERTEX
  5
6E
330
60
100
AcDbEntity
  8
1_ANYTOOL_1MMDEEP_LABELS_S
100
AcDbVertex
100
AcDb2dVertex
 10
181.836160714162
 20
31.13670952525695
 30
0.0
  0
VERTEX
  5
6F
330
60
100
AcDbEntity
  8
1_ANYTOOL_1MMDEEP_LABELS_S
100
AcDbVertex
100
AcDb2dVertex
 10
181.6535993302334
 20
31.21832224847115
 30
0.0
  0
VERTEX
  5
70
330
60
100
AcDbEntity
  8
1_ANYTOOL_1MMDEEP_LABELS_S
100
AcDbVertex
100
AcDb2dVertex
 10
181.4688616070191
 20
31.29574970382822
 30
0.0
  0
VERTEX
  5
71
330
60
100
AcDbEntity
  8
1_ANYTOOL_1MMDEEP_LABELS_S
100
AcDbVertex
100
AcDb2dVertex
 10
181.2819475445191
 20
31.36899189132815
 30
0.0
  0
VERTEX
  5
72
330
60
100
AcDbEntity
  8
1_ANYTOOL_1MMDEEP_LABELS_S
100
AcDbVertex
100
AcDb2dVertex
 10
181.0928571427334
 20
31.43804881097094
 30
0.0
  0
VERTEX
  5
73
330
60
100
AcDbEntity
  8
1_ANYTOOL_1MMDEEP_LABELS_S
100
AcDbVertex
100
AcDb2dVertex
 10
180.901590401662
 20
31.50292046275659
 30
0.0
  0
VERTEX
  5
74
330
60
100
AcDbEntity
  8
1_ANYTOOL_1MMDEEP_LABELS_S
100
AcDbVertex
100
AcDb2dVertex
 10
180.7081473213048
 20
31.5636068466851
 30
0.0
  0
VERTEX
  5
75
330
60
100
AcDbEntity
  8
1_ANYTOOL_1MMDEEP_LABELS_S
100
AcDbVertex
100
AcDb2dVertex
 10
180.512527901662
 20
31.62010796275648
 30
0.0
  0
VERTEX
  5
76
330
60
100
AcDbEntity
  8
1_ANYTOOL_1MMDEEP_LABELS_S
100
AcDbVertex
100
AcDb2dVertex
 10
180.3147321427334
 20
31.67242381097071
 30
0.0
  0
VERTEX
  5
77
330
60
100
AcDbEntity
  8
1_ANYTOOL_1MMDEEP_LABELS_S
100
AcDbVertex
100
AcDb2dVertex
 10
180.1147600445191
 20
31.72055439132781
 30
0.0
  0
VERTEX
  5
78
330
60
100
AcDbEntity
  8
1_ANYTOOL_1MMDEEP_LABELS_S
100
AcDbVertex
100
AcDb2dVertex
 10
179.9126116070191
 20
31.76449970382777
 30
0.0
  0
VERTEX
  5
79
330
60
100
AcDbEntity
  8
1_ANYTOOL_1MMDEEP_LABELS_S
100
AcDbVertex
100
AcDb2dVertex
 10
179.7082868302334
 20
31.80425974847059
 30
0.0
  0
VERTEX
  5
7A
330
60
100
AcDbEntity
  8
1_ANYTOOL_1MMDEEP_LABELS_S
100
AcDbVertex
100
AcDb2dVertex
 10
179.501785714162
 20
31.83983452525626
 30
0.0
  0
VERTEX
  5
7B
330
60
100
AcDbEntity
  8
1_ANYTOOL_1MMDEEP_LABELS_S
100
AcDbVertex
100
AcDb2dVertex
 10
179.2931082588048
 20
31.87122403418481
 30
0.0
  0
VERTEX
  5
7C
330
60
100
AcDbEntity
  8
1_ANYTOOL_1MMDEEP_LABELS_S
100
AcDbVertex
100
AcDb2dVertex
 10
179.082254464162
 20
31.89842827525621
 30
0.0
  0
VERTEX
  5
7D
330
60
100
AcDbEntity
  8
1_ANYTOOL_1MMDEEP_LABELS_S
100
AcDbVertex
100
AcDb2dVertex
 10
178.8692243302334
 20
31.92144724847047
 30
0.0
  0
VERTEX
  5
7E
330
60
100
AcDbEntity
  8
1_ANYTOOL_1MMDEEP_LABELS_S
100
AcDbVertex
100
AcDb2dVertex
 10
178.6540178570191
 20
31.9402809538276
 30
0.0
  0
VERTEX
  5
7F
330
60
100
AcDbEntity
  8
1_ANYTOOL_1MMDEEP_LABELS_S
100
AcDbVertex
100
AcDb2dVertex
 10
178.4366350445191
 20
31.95492939132758
 30
0.0
  0
VERTEX
  5
80
330
60
100
AcDbEntity
  8
1_ANYTOOL_1MMDEEP_LABELS_S
100
AcDbVertex
100
AcDb2dVertex
 10
178.2170758927334
 20
31.96539256097043
 30
0.0
  0
VERTEX
  5
81
330
60
100
AcDbEntity
  8
1_ANYTOOL_1MMDEEP_LABELS_S
100
AcDbVertex
100
AcDb2dVertex
 10
177.995340401662
 20
31.97167046275614
 30
0.0
  0
VERTEX
  5
82
330
60
100
AcDbEntity
  8
1_ANYTOOL_1MMDEEP_LABELS_S
100
AcDbVertex
100
AcDb2dVertex
 10
177.7714285713049
 20
31.97376309668471
 30
0.0
  0
VERTEX
  5
83
330
60
100
AcDbEntity
  8
1_ANYTOOL_1MMDEEP_LABELS_S
100
AcDbVertex
100
AcDb2dVertex
 10
177.4285295757691
 20
31.96915930204185
 30
0.0
  0
VERTEX
  5
84
330
60
100
AcDbEntity
  8
1_ANYTOOL_1MMDEEP_LABELS_S
100
AcDbVertex
100
AcDb2dVertex
 10
177.0909040177334
 20
31.95534791811329
 30
0.0
  0
VERTEX
  5
85
330
60
100
AcDbEntity
  8
1_ANYTOOL_1MMDEEP_LABELS_S
100
AcDbVertex
100
AcDb2dVertex
 10
176.7585518971977
 20
31.93232894489902
 30
0.0
  0
VERTEX
  5
86
330
60
100
AcDbEntity
  8
1_ANYTOOL_1MMDEEP_LABELS_S
100
AcDbVertex
100
AcDb2dVertex
 10
176.431473214162
 20
31.90010238239904
 30
0.0
  0
VERTEX
  5
87
330
60
100
AcDbEntity
  8
1_ANYTOOL_1MMDEEP_LABELS_S
100
AcDbVertex
100
AcDb2dVertex
 10
176.1096679686263
 20
31.85866823061335
 30
0.0
  0
VERTEX
  5
88
330
60
100
AcDbEntity
  8
1_ANYTOOL_1MMDEEP_LABELS_S
100
AcDbVertex
100
AcDb2dVertex
 10
175.7931361605906
 20
31.80802648954196
 30
0.0
  0
VERTEX
  5
89
330
60
100
AcDbEntity
  8
1_ANYTOOL_1MMDEEP_LABELS_S
100
AcDbVertex
100
AcDb2dVertex
 10
175.4818777900549
 20
31.74817715918486
 30
0.0
  0
VERTEX
  5
8A
330
60
100
AcDbEntity
  8
1_ANYTOOL_1MMDEEP_LABELS_S
100
AcDbVertex
100
AcDb2dVertex
 10
175.1758928570191
 20
31.67912023954204
 30
0.0
  0
VERTEX
  5
8B
330
60
100
AcDbEntity
  8
1_ANYTOOL_1MMDEEP_LABELS_S
100
AcDbVertex
100
AcDb2dVertex
 10
174.8751813614834
 20
31.60085573061352
 30
0.0
  0
VERTEX
  5
8C
330
60
100
AcDbEntity
  8
1_ANYTOOL_1MMDEEP_LABELS_S
100
AcDbVertex
100
AcDb2dVertex
 10
174.5797433034477
 20
31.5133836323993
 30
0.0
  0
VERTEX
  5
8D
330
60
100
AcDbEntity
  8
1_ANYTOOL_1MMDEEP_LABELS_S
100
AcDbVertex
100
AcDb2dVertex
 10
174.289578682912
 20
31.41670394489936
 30
0.0
  0
VERTEX
  5
8E
330
60
100
AcDbEntity
  8
1_ANYTOOL_1MMDEEP_LABELS_S
100
AcDbVertex
100
AcDb2dVertex
 10
174.0046874998763
 20
31.31081666811372
 30
0.0
  0
VERTEX
  5
8F
330
60
100
AcDbEntity
  8
1_ANYTOOL_1MMDEEP_LABELS_S
100
AcDbVertex
100
AcDb2dVertex
 10
173.7250697543406
 20
31.19572180204236
 30
0.0
  0
VERTEX
  5
90
330
60
100
AcDbEntity
  8
1_ANYTOOL_1MMDEEP_LABELS_S
100
AcDbVertex
100
AcDb2dVertex
 10
173.5872384206352
 20
31.13472152302455
 30
0.0
  0
VERTEX
  5
91
330
60
100
AcDbEntity
  8
1_ANYTOOL_1MMDEEP_LABELS_S
100
AcDbVertex
100
AcDb2dVertex
 10
173.4507254463048
 20
31.0714193466853
 30
0.0
  0
VERTEX
  5
92
330
60
100
AcDbEntity
  8
1_ANYTOOL_1MMDEEP_LABELS_S
100
AcDbVertex
100
AcDb2dVertex
 10
173.3155308313495
 20
31.00581527302463
 30
0.0
  0
VERTEX
  5
93
330
60
100
AcDbEntity
  8
1_ANYTOOL_1MMDEEP_LABELS_S
100
AcDbVertex
100
AcDb2dVertex
 10
173.1816545757691
 20
30.93790930204253
 30
0.0
  0
VERTEX
  5
94
330
60
100
AcDbEntity
  8
1_ANYTOOL_1MMDEEP_LABELS_S
100
AcDbVertex
100
AcDb2dVertex
 10
173.0490966795638
 20
30.86770143373901
 30
0.0
  0
VERTEX
  5
95
330
60
100
AcDbEntity
  8
1_ANYTOOL_1MMDEEP_LABELS_S
100
AcDbVertex
100
AcDb2dVertex
 10
172.9178571427334
 20
30.79519166811406
 30
0.0
  0
VERTEX
  5
96
330
60
100
AcDbEntity
  8
1_ANYTOOL_1MMDEEP_LABELS_S
100
AcDbVertex
100
AcDb2dVertex
 10
172.787935965278
 20
30.72038000516768
 30
0.0
  0
VERTEX
  5
97
330
60
100
AcDbEntity
  8
1_ANYTOOL_1MMDEEP_LABELS_S
100
AcDbVertex
100
AcDb2dVertex
 10
172.6593331471977
 20
30.64326644489987
 30
0.0
  0
VERTEX
  5
98
330
60
100
AcDbEntity
  8
1_ANYTOOL_1MMDEEP_LABELS_S
100
AcDbVertex
100
AcDb2dVertex
 10
172.5320486884923
 20
30.56385098731064
 30
0.0
  0
VERTEX
  5
99
330
60
100
AcDbEntity
  8
1_ANYTOOL_1MMDEEP_LABELS_S
100
AcDbVertex
100
AcDb2dVertex
 10
172.4060825891619
 20
30.48213363239998
 30
0.0
  0
VERTEX
  5
9A
330
60
100
AcDbEntity
  8
1_ANYTOOL_1MMDEEP_LABELS_S
100
AcDbVertex
100
AcDb2dVertex
 10
172.2814348492066
 20
30.39811438016789
 30
0.0
  0
VERTEX
  5
9B
330
60
100
AcDbEntity
  8
1_ANYTOOL_1MMDEEP_LABELS_S
100
AcDbVertex
100
AcDb2dVertex
 10
172.1581054686262
 20
30.31179323061438
 30
0.0
  0
VERTEX
  5
9C
330
60
100
AcDbEntity
  8
1_ANYTOOL_1MMDEEP_LABELS_S
100
AcDbVertex
100
AcDb2dVertex
 10
171.9154017855905
 20
30.13224523954307
 30
0.0
  0
VERTEX
  5
9D
330
60
100
AcDbEntity
  8
1_ANYTOOL_1MMDEEP_LABELS_S
100
AcDbVertex
100
AcDb2dVertex
 10
171.6779715400548
 20
29.94348965918605
 30
0.0
  0
VERTEX
  5
9E
330
60
100
AcDbEntity
  8
1_ANYTOOL_1MMDEEP_LABELS_S
100
AcDbVertex
100
AcDb2dVertex
 10
171.4458147320191
 20
29.74552648954332
 30
0.0
  0
VERTEX
  5
9F
330
60
100
AcDbEntity
  8
1_ANYTOOL_1MMDEEP_LABELS_S
100
AcDbVertex
100
AcDb2dVertex
 10
171.2189313614834
 20
29.53835573061489
 30
0.0
  0
VERTEX
  5
A0
330
60
100
AcDbEntity
  8
1_ANYTOOL_1MMDEEP_LABELS_S
100
AcDbVertex
100
AcDb2dVertex
 10
170.9973214284477
 20
29.32197738240075
 30
0.0
  0
VERTEX
  5
A1
330
60
100
AcDbEntity
  8
1_ANYTOOL_1MMDEEP_LABELS_S
100
AcDbVertex
100
AcDb2dVertex
 10
170.780984932912
 20
29.0963914449009
 30
0.0
  0
VERTEX
  5
A2
330
60
100
AcDbEntity
  8
1_ANYTOOL_1MMDEEP_LABELS_S
100
AcDbVertex
100
AcDb2dVertex
 10
170.5699218748762
 20
28.86159791811534
 30
0.0
  0
VERTEX
  5
A3
330
60
100
AcDbEntity
  8
1_ANYTOOL_1MMDEEP_LABELS_S
100
AcDbVertex
100
AcDb2dVertex
 10
170.3641322543405
 20
28.61759680204407
 30
0.0
  0
VERTEX
  5
A4
330
60
100
AcDbEntity
  8
1_ANYTOOL_1MMDEEP_LABELS_S
100
AcDbVertex
100
AcDb2dVertex
 10
170.1636160713048
 20
28.36438809668709
 30
0.0
  0
VERTEX
  5
A5
330
60
100
AcDbEntity
  8
1_ANYTOOL_1MMDEEP_LABELS_S
100
AcDbVertex
100
AcDb2dVertex
 10
169.9683733257691
 20
28.10197180204441
 30
0.0
  0
VERTEX
  5
A6
330
60
100
AcDbEntity
  8
1_ANYTOOL_1MMDEEP_LABELS_S
100
AcDbVertex
100
AcDb2dVertex
 10
169.7784040177334
 20
27.83034791811602
 30
0.0
  0
VERTEX
  5
A7
330
60
100
AcDbEntity
  8
1_ANYTOOL_1MMDEEP_LABELS_S
100
AcDbVertex
100
AcDb2dVertex
 10
169.5937081471977
 20
27.54951644490192
 30
0.0
  0
VERTEX
  5
A8
330
60
100
AcDbEntity
  8
1_ANYTOOL_1MMDEEP_LABELS_S
100
AcDbVertex
100
AcDb2dVertex
 10
169.414285714162
 20
27.25947738240211
 30
0.0
  0
VERTEX
  5
A9
330
60
100
AcDbEntity
  8
1_ANYTOOL_1MMDEEP_LABELS_S
100
AcDbVertex
100
AcDb2dVertex
 10
169.0769531248762
 20
26.67186577525868
 30
0.0
  0
VERTEX
  5
AA
330
60
100
AcDbEntity
  8
1_ANYTOOL_1MMDEEP_LABELS_S
100
AcDbVertex
100
AcDb2dVertex
 10
168.7613839284477
 20
26.07688809668673
 30
0.0
  0
VERTEX
  5
AB
330
60
100
AcDbEntity
  8
1_ANYTOOL_1MMDEEP_LABELS_S
100
AcDbVertex
100
AcDb2dVertex
 10
168.4675781248762
 20
25.47454434668626
 30
0.0
  0
VERTEX
  5
AC
330
60
100
AcDbEntity
  8
1_ANYTOOL_1MMDEEP_LABELS_S
100
AcDbVertex
100
AcDb2dVertex
 10
168.195535714162
 20
24.86483452525727
 30
0.0
  0
VERTEX
  5
AD
330
60
100
AcDbEntity
  8
1_ANYTOOL_1MMDEEP_LABELS_S
100
AcDbVertex
100
AcDb2dVertex
 10
167.9452566963048
 20
24.24775863239975
 30
0.0
  0
VERTEX
  5
AE
330
60
100
AcDbEntity
  8
1_ANYTOOL_1MMDEEP_LABELS_S
100
AcDbVertex
100
AcDb2dVertex
 10
167.7167410713048
 20
23.62331666811372
 30
0.0
  0
VERTEX
  5
AF
330
60
100
AcDbEntity
  8
1_ANYTOOL_1MMDEEP_LABELS_S
100
AcDbVertex
100
AcDb2dVertex
 10
167.5099888391619
 20
22.99150863239916
 30
0.0
  0
VERTEX
  5
B0
330
60
100
AcDbEntity
  8
1_ANYTOOL_1MMDEEP_LABELS_S
100
AcDbVertex
100
AcDb2dVertex
 10
167.3249999998762
 20
22.35233452525608
 30
0.0
  0
VERTEX
  5
B1
330
60
100
AcDbEntity
  8
1_ANYTOOL_1MMDEEP_LABELS_S
100
AcDbVertex
100
AcDb2dVertex
 10
167.1617745534477
 20
21.70579434668448
 30
0.0
  0
VERTEX
  5
B2
330
60
100
AcDbEntity
  8
1_ANYTOOL_1MMDEEP_LABELS_S
100
AcDbVertex
100
AcDb2dVertex
 10
167.0203124998762
 20
21.05188809668437
 30
0.0
  0
VERTEX
  5
B3
330
60
100
AcDbEntity
  8
1_ANYTOOL_1MMDEEP_LABELS_S
100
AcDbVertex
100
AcDb2dVertex
 10
166.900613839162
 20
20.39061577525572
 30
0.0
  0
VERTEX
  5
B4
330
60
100
AcDbEntity
  8
1_ANYTOOL_1MMDEEP_LABELS_S
100
AcDbVertex
100
AcDb2dVertex
 10
166.8026785713048
 20
19.72197738239856
 30
0.0
  0
VERTEX
  5
B5
330
60
100
AcDbEntity
  8
1_ANYTOOL_1MMDEEP_LABELS_S
100
AcDbVertex
100
AcDb2dVertex
 10
166.7265066963048
 20
19.04597291811288
 30
0.0
  0
VERTEX
  5
B6
330
60
100
AcDbEntity
  8
1_ANYTOOL_1MMDEEP_LABELS_S
100
AcDbVertex
100
AcDb2dVertex
 10
166.672098214162
 20
18.36260238239868
 30
0.0
  0
VERTEX
  5
B7
330
60
100
AcDbEntity
  8
1_ANYTOOL_1MMDEEP_LABELS_S
100
AcDbVertex
100
AcDb2dVertex
 10
166.6394531248762
 20
17.67186577525595
 30
0.0
  0
VERTEX
  5
B8
330
60
100
AcDbEntity
  8
1_ANYTOOL_1MMDEEP_LABELS_S
100
AcDbVertex
100
AcDb2dVertex
 10
166.6285714284477
 20
16.97376309668471
 30
0.0
  0
VERTEX
  5
B9
330
60
100
AcDbEntity
  8
1_ANYTOOL_1MMDEEP_LABELS_S
100
AcDbVertex
100
AcDb2dVertex
 10
166.6396205355906
 20
16.27549300739918
 30
0.0
  0
VERTEX
  5
BA
330
60
100
AcDbEntity
  8
1_ANYTOOL_1MMDEEP_LABELS_S
100
AcDbVertex
100
AcDb2dVertex
 10
166.6727678570191
 20
15.5842541681136
 30
0.0
  0
VERTEX
  5
BB
330
60
100
AcDbEntity
  8
1_ANYTOOL_1MMDEEP_LABELS_S
100
AcDbVertex
100
AcDb2dVertex
 10
166.7280133927334
 20
14.90004657882798
 30
0.0
  0
VERTEX
  5
BC
330
60
100
AcDbEntity
  8
1_ANYTOOL_1MMDEEP_LABELS_S
100
AcDbVertex
100
AcDb2dVertex
 10
166.8053571427334
 20
14.22287023954232
 30
0.0
  0
VERTEX
  5
BD
330
60
100
AcDbEntity
  8
1_ANYTOOL_1MMDEEP_LABELS_S
100
AcDbVertex
100
AcDb2dVertex
 10
166.9047991070191
 20
13.55272515025661
 30
0.0
  0
VERTEX
  5
BE
330
60
100
AcDbEntity
  8
1_ANYTOOL_1MMDEEP_LABELS_S
100
AcDbVertex
100
AcDb2dVertex
 10
167.0263392855906
 20
12.88961131097085
 30
0.0
  0
VERTEX
  5
BF
330
60
100
AcDbEntity
  8
1_ANYTOOL_1MMDEEP_LABELS_S
100
AcDbVertex
100
AcDb2dVertex
 10
167.1699776784477
 20
12.23352872168505
 30
0.0
  0
VERTEX
  5
C0
330
60
100
AcDbEntity
  8
1_ANYTOOL_1MMDEEP_LABELS_S
100
AcDbVertex
100
AcDb2dVertex
 10
167.3357142855905
 20
11.5844773823992
 30
0.0
  0
VERTEX
  5
C1
330
60
100
AcDbEntity
  8
1_ANYTOOL_1MMDEEP_LABELS_S
100
AcDbVertex
100
AcDb2dVertex
 10
167.5235491070191
 20
10.94245729311331
 30
0.0
  0
VERTEX
  5
C2
330
60
100
AcDbEntity
  8
1_ANYTOOL_1MMDEEP_LABELS_S
100
AcDbVertex
100
AcDb2dVertex
 10
167.7334821427334
 20
10.30746845382737
 30
0.0
  0
VERTEX
  5
C3
330
60
100
AcDbEntity
  8
1_ANYTOOL_1MMDEEP_LABELS_S
100
AcDbVertex
100
AcDb2dVertex
 10
167.9655133927334
 20
9.679510864541385
 30
0.0
  0
VERTEX
  5
C4
330
60
100
AcDbEntity
  8
1_ANYTOOL_1MMDEEP_LABELS_S
100
AcDbVertex
100
AcDb2dVertex
 10
168.2196428570191
 20
9.058584525255355
 30
0.0
  0
VERTEX
  5
C5
330
60
100
AcDbEntity
  8
1_ANYTOOL_1MMDEEP_LABELS_S
100
AcDbVertex
100
AcDb2dVertex
 10
168.4958705355905
 20
8.44468943596928
 30
0.0
  0
VERTEX
  5
C6
330
60
100
AcDbEntity
  8
1_ANYTOOL_1MMDEEP_LABELS_S
100
AcDbVertex
100
AcDb2dVertex
 10
168.7941964284477
 20
7.83782559668316
 30
0.0
  0
VERTEX
  5
C7
330
60
100
AcDbEntity
  8
1_ANYTOOL_1MMDEEP_LABELS_S
100
AcDbVertex
100
AcDb2dVertex
 10
169.1146205355905
 20
7.237993007396994
 30
0.0
  0
VERTEX
  5
C8
330
60
100
AcDbEntity
  8
1_ANYTOOL_1MMDEEP_LABELS_S
100
AcDbVertex
100
AcDb2dVertex
 10
169.4571428570191
 20
6.645191668110783
 30
0.0
  0
VERTEX
  5
C9
330
60
100
AcDbEntity
  8
1_ANYTOOL_1MMDEEP_LABELS_S
100
AcDbVertex
100
AcDb2dVertex
 10
169.6394531248762
 20
6.357789324360937
 30
0.0
  0
VERTEX
  5
CA
330
60
100
AcDbEntity
  8
1_ANYTOOL_1MMDEEP_LABELS_S
100
AcDbVertex
100
AcDb2dVertex
 10
169.8274553570191
 20
6.079510864539657
 30
0.0
  0
VERTEX
  5
CB
330
60
100
AcDbEntity
  8
1_ANYTOOL_1MMDEEP_LABELS_S
100
AcDbVertex
100
AcDb2dVertex
 10
170.0211495534477
 20
5.810356288646943
 30
0.0
  0
VERTEX
  5
CC
330
60
100
AcDbEntity
  8
1_ANYTOOL_1MMDEEP_LABELS_S
100
AcDbVertex
100
AcDb2dVertex
 10
170.220535714162
 20
5.550325596682796
 30
0.0
  0
VERTEX
  5
CD
330
60
100
AcDbEntity
  8
1_ANYTOOL_1MMDEEP_LABELS_S
100
AcDbVertex
100
AcDb2dVertex
 10
170.4256138391619
 20
5.299418788647216
 30
0.0
  0
VERTEX
  5
CE
330
60
100
AcDbEntity
  8
1_ANYTOOL_1MMDEEP_LABELS_S
100
AcDbVertex
100
AcDb2dVertex
 10
170.6363839284477
 20
5.057635864540202
 30
0.0
  0
VERTEX
  5
CF
330
60
100
AcDbEntity
  8
1_ANYTOOL_1MMDEEP_LABELS_S
100
AcDbVertex
100
AcDb2dVertex
 10
170.8528459820191
 20
4.824976824361755
 30
0.0
  0
VERTEX
  5
D0
330
60
100
AcDbEntity
  8
1_ANYTOOL_1MMDEEP_LABELS_S
100
AcDbVertex
100
AcDb2dVertex
 10
171.0749999998763
 20
4.601441668111875
 30
0.0
  0
VERTEX
  5
D1
330
60
100
AcDbEntity
  8
1_ANYTOOL_1MMDEEP_LABELS_S
100
AcDbVertex
100
AcDb2dVertex
 10
171.3028459820191
 20
4.387030395790561
 30
0.0
  0
VERTEX
  5
D2
330
60
100
AcDbEntity
  8
1_ANYTOOL_1MMDEEP_LABELS_S
100
AcDbVertex
100
AcDb2dVertex
 10
171.5363839284477
 20
4.181743007397813
 30
0.0
  0
VERTEX
  5
D3
330
60
100
AcDbEntity
  8
1_ANYTOOL_1MMDEEP_LABELS_S
100
AcDbVertex
100
AcDb2dVertex
 10
171.775613839162
 20
3.985579502933632
 30
0.0
  0
VERTEX
  5
D4
330
60
100
AcDbEntity
  8
1_ANYTOOL_1MMDEEP_LABELS_S
100
AcDbVertex
100
AcDb2dVertex
 10
172.020535714162
 20
3.798539882398018
 30
0.0
  0
VERTEX
  5
D5
330
60
100
AcDbEntity
  8
1_ANYTOOL_1MMDEEP_LABELS_S
100
AcDbVertex
100
AcDb2dVertex
 10
172.1451311382691
 20
3.708441528603423
 30
0.0
  0
VERTEX
  5
D6
330
60
100
AcDbEntity
  8
1_ANYTOOL_1MMDEEP_LABELS_S
100
AcDbVertex
100
AcDb2dVertex
 10
172.2711495534477
 20
3.62062414579097
 30
0.0
  0
VERTEX
  5
D7
330
60
100
AcDbEntity
  8
1_ANYTOOL_1MMDEEP_LABELS_S
100
AcDbVertex
100
AcDb2dVertex
 10
172.3985909596977
 20
3.535087733960658
 30
0.0
  0
VERTEX
  5
D8
330
60
100
AcDbEntity
  8
1_ANYTOOL_1MMDEEP_LABELS_S
100
AcDbVertex
100
AcDb2dVertex
 10
172.5274553570191
 20
3.451832293112489
 30
0.0
  0
VERTEX
  5
D9
330
60
100
AcDbEntity
  8
1_ANYTOOL_1MMDEEP_LABELS_S
100
AcDbVertex
100
AcDb2dVertex
 10
172.657742745412
 20
3.37085782324646
 30
0.0
  0
VERTEX
  5
DA
330
60
100
AcDbEntity
  8
1_ANYTOOL_1MMDEEP_LABELS_S
100
AcDbVertex
100
AcDb2dVertex
 10
172.7894531248763
 20
3.292164324362574
 30
0.0
  0
VERTEX
  5
DB
330
60
100
AcDbEntity
  8
1_ANYTOOL_1MMDEEP_LABELS_S
100
AcDbVertex
100
AcDb2dVertex
 10
172.922586495412
 20
3.215751796460829
 30
0.0
  0
VERTEX
  5
DC
330
60
100
AcDbEntity
  8
1_ANYTOOL_1MMDEEP_LABELS_S
100
AcDbVertex
100
AcDb2dVertex
 10
173.0571428570191
 20
3.141620239541226
 30
0.0
  0
VERTEX
  5
DD
330
60
100
AcDbEntity
  8
1_ANYTOOL_1MMDEEP_LABELS_S
100
AcDbVertex
100
AcDb2dVertex
 10
173.3305245534477
 20
3.000200038648444
 30
0.0
  0
VERTEX
  5
DE
330
60
100
AcDbEntity
  8
1_ANYTOOL_1MMDEEP_LABELS_S
100
AcDbVertex
100
AcDb2dVertex
 10
173.609598214162
 20
2.867903721684229
 30
0.0
  0
VERTEX
  5
DF
330
60
100
AcDbEntity
  8
1_ANYTOOL_1MMDEEP_LABELS_S
100
AcDbVertex
100
AcDb2dVertex
 10
173.894363839162
 20
2.74473128864858
 30
0.0
  0
VERTEX
  5
E0
330
60
100
AcDbEntity
  8
1_ANYTOOL_1MMDEEP_LABELS_S
100
AcDbVertex
100
AcDb2dVertex
 10
174.1848214284477
 20
2.630682739541498
 30
0.0
  0
VERTEX
  5
E1
330
60
100
AcDbEntity
  8
1_ANYTOOL_1MMDEEP_LABELS_S
100
AcDbVertex
100
AcDb2dVertex
 10
174.4809709820191
 20
2.525758074362983
 30
0.0
  0
VERTEX
  5
E2
330
60
100
AcDbEntity
  8
1_ANYTOOL_1MMDEEP_LABELS_S
100
AcDbVertex
100
AcDb2dVertex
 10
174.7828124998763
 20
2.429957293113034
 30
0.0
  0
VERTEX
  5
E3
330
60
100
AcDbEntity
  8
1_ANYTOOL_1MMDEEP_LABELS_S
100
AcDbVertex
100
AcDb2dVertex
 10
175.0903459820191
 20
2.343280395791652
 30
0.0
  0
VERTEX
  5
E4
330
60
100
AcDbEntity
  8
1_ANYTOOL_1MMDEEP_LABELS_S
100
AcDbVertex
100
AcDb2dVertex
 10
175.4035714284477
 20
2.265727382398836
 30
0.0
  0
VERTEX
  5
E5
330
60
100
AcDbEntity
  8
1_ANYTOOL_1MMDEEP_LABELS_S
100
AcDbVertex
100
AcDb2dVertex
 10
175.722488839162
 20
2.197298252934587
 30
0.0
  0
VERTEX
  5
E6
330
60
100
AcDbEntity
  8
1_ANYTOOL_1MMDEEP_LABELS_S
100
AcDbVertex
100
AcDb2dVertex
 10
176.047098214162
 20
2.137993007398904
 30
0.0
  0
VERTEX
  5
E7
330
60
100
AcDbEntity
  8
1_ANYTOOL_1MMDEEP_LABELS_S
100
AcDbVertex
100
AcDb2dVertex
 10
176.3773995534477
 20
2.087811645791788
 30
0.0
  0
VERTEX
  5
E8
330
60
100
AcDbEntity
  8
1_ANYTOOL_1MMDEEP_LABELS_S
100
AcDbVertex
100
AcDb2dVertex
 10
176.7133928570192
 20
2.046754168113239
 30
0.0
  0
VERTEX
  5
E9
330
60
100
AcDbEntity
  8
1_ANYTOOL_1MMDEEP_LABELS_S
100
AcDbVertex
100
AcDb2dVertex
 10
177.0550781248763
 20
2.014820574363256
 30
0.0
  0
VERTEX
  5
EA
330
60
100
AcDbEntity
  8
1_ANYTOOL_1MMDEEP_LABELS_S
100
AcDbVertex
100
AcDb2dVertex
 10
177.4024553570192
 20
1.99201086454184
 30
0.0
  0
VERTEX
  5
EB
330
60
100
AcDbEntity
  8
1_ANYTOOL_1MMDEEP_LABELS_S
100
AcDbVertex
100
AcDb2dVertex
 10
177.7555245534477
 20
1.97832503864899
 30
0.0
  0
VERTEX
  5
EC
330
60
100
AcDbEntity
  8
1_ANYTOOL_1MMDEEP_LABELS_S
100
AcDbVertex
100
AcDb2dVertex
 10
178.114285714162
 20
1.973763096684706
 30
0.0
  0
VERTEX
  5
ED
330
60
100
AcDbEntity
  8
1_ANYTOOL_1MMDEEP_LABELS_S
100
AcDbVertex
100
AcDb2dVertex
 10
178.496316964162
 20
1.980124703827556
 30
0.0
  0
VERTEX
  5
EE
330
60
100
AcDbEntity
  8
1_ANYTOOL_1MMDEEP_LABELS_S
100
AcDbVertex
100
AcDb2dVertex
 10
178.8709821427335
 20
1.999209525256106
 30
0.0
  0
VERTEX
  5
EF
330
60
100
AcDbEntity
  8
1_ANYTOOL_1MMDEEP_LABELS_S
100
AcDbVertex
100
AcDb2dVertex
 10
179.0555524552335
 20
2.013523141327518
 30
0.0
  0
VERTEX
  5
F0
330
60
100
AcDbEntity
  8
1_ANYTOOL_1MMDEEP_LABELS_S
100
AcDbVertex
100
AcDb2dVertex
 10
179.2382812498763
 20
2.031017560970355
 30
0.0
  0
VERTEX
  5
F1
330
60
100
AcDbEntity
  8
1_ANYTOOL_1MMDEEP_LABELS_S
100
AcDbVertex
100
AcDb2dVertex
 10
179.419168526662
 20
2.051692784184617
 30
0.0
  0
VERTEX
  5
F2
330
60
100
AcDbEntity
  8
1_ANYTOOL_1MMDEEP_LABELS_S
100
AcDbVertex
100
AcDb2dVertex
 10
179.5982142855906
 20
2.075548810970304
 30
0.0
  0
VERTEX
  5
F3
330
60
100
AcDbEntity
  8
1_ANYTOOL_1MMDEEP_LABELS_S
100
AcDbVertex
100
AcDb2dVertex
 10
179.775418526662
 20
2.102585641327416
 30
0.0
  0
VERTEX
  5
F4
330
60
100
AcDbEntity
  8
1_ANYTOOL_1MMDEEP_LABELS_S
100
AcDbVertex
100
AcDb2dVertex
 10
179.9507812498763
 20
2.132803275255952
 30
0.0
  0
VERTEX
  5
F5
330
60
100
AcDbEntity
  8
1_ANYTOOL_1MMDEEP_LABELS_S
100
AcDbVertex
100
AcDb2dVertex
 10
180.1243024552334
 20
2.166201712755914
 30
0.0
  0
VERTEX
  5
F6
330
60
100
AcDbEntity
  8
1_ANYTOOL_1MMDEEP_LABELS_S
100
AcDbVertex
100
AcDb2dVertex
 10
180.2959821427334
 20
2.2027809538273
 30
0.0
  0
VERTEX
  5
F7
330
60
100
AcDbEntity
  8
1_ANYTOOL_1MMDEEP_LABELS_S
100
AcDbVertex
100
AcDb2dVertex
 10
180.4658203123763
 20
2.242540998470112
 30
0.0
  0
VERTEX
  5
F8
330
60
100
AcDbEntity
  8
1_ANYTOOL_1MMDEEP_LABELS_S
100
AcDbVertex
100
AcDb2dVertex
 10
180.633816964162
 20
2.285481846684348
 30
0.0
  0
VERTEX
  5
F9
330
60
100
AcDbEntity
  8
1_ANYTOOL_1MMDEEP_LABELS_S
100
AcDbVertex
100
AcDb2dVertex
 10
180.7999720980906
 20
2.33160349847001
 30
0.0
  0
VERTEX
  5
FA
330
60
100
AcDbEntity
  8
1_ANYTOOL_1MMDEEP_LABELS_S
100
AcDbVertex
100
AcDb2dVertex
 10
180.964285714162
 20
2.380905953827096
 30
0.0
  0
VERTEX
  5
FB
330
60
100
AcDbEntity
  8
1_ANYTOOL_1MMDEEP_LABELS_S
100
AcDbVertex
100
AcDb2dVertex
 10
181.1267578123763
 20
2.433389212755607
 30
0.0
  0
VERTEX
  5
FC
330
60
100
AcDbEntity
  8
1_ANYTOOL_1MMDEEP_LABELS_S
100
AcDbVertex
100
AcDb2dVertex
 10
181.2873883927334
 20
2.489053275255543
 30
0.0
  0
VERTEX
  5
FD
330
60
100
AcDbEntity
  8
1_ANYTOOL_1MMDEEP_LABELS_S
100
AcDbVertex
100
AcDb2dVertex
 10
181.4461774552334
 20
2.547898141326904
 30
0.0
  0
VERTEX
  5
FE
330
60
100
AcDbEntity
  8
1_ANYTOOL_1MMDEEP_LABELS_S
100
AcDbVertex
100
AcDb2dVertex
 10
181.6031249998763
 20
2.60992381096969
 30
0.0
  0
VERTEX
  5
FF
330
60
100
AcDbEntity
  8
1_ANYTOOL_1MMDEEP_LABELS_S
100
AcDbVertex
100
AcDb2dVertex
 10
181.758231026662
 20
2.675130284183901
 30
0.0
  0
VERTEX
  5
100
330
60
100
AcDbEntity
  8
1_ANYTOOL_1MMDEEP_LABELS_S
100
AcDbVertex
100
AcDb2dVertex
 10
181.9114955355906
 20
2.743517560969536
 30
0.0
  0
VERTEX
  5
101
330
60
100
AcDbEntity
  8
1_ANYTOOL_1MMDEEP_LABELS_S
100
AcDbVertex
100
AcDb2dVertex
 10
182.062918526662
 20
2.815085641326597
 30
0.0
  0
VERTEX
  5
102
330
60
100
AcDbEntity
  8
1_ANYTOOL_1MMDEEP_LABELS_S
100
AcDbVertex
100
AcDb2dVertex
 10
182.2124999998763
 20
2.889834525255083
 30
0.0
  0
VERTEX
  5
103
330
60
100
AcDbEntity
  8
1_ANYTOOL_1MMDEEP_LABELS_S
100
AcDbVertex
100
AcDb2dVertex
 10
182.3602399552334
 20
2.967764212754993
 30
0.0
  0
VERTEX
  5
104
330
60
100
AcDbEntity
  8
1_ANYTOOL_1MMDEEP_LABELS_S
100
AcDbVertex
100
AcDb2dVertex
 10
182.5061383927334
 20
3.048874703826328
 30
0.0
  0
VERTEX
  5
105
330
60
100
AcDbEntity
  8
1_ANYTOOL_1MMDEEP_LABELS_S
100
AcDbVertex
100
AcDb2dVertex
 10
182.6501953123763
 20
3.133165998469089
 30
0.0
  0
VERTEX
  5
106
330
60
100
AcDbEntity
  8
1_ANYTOOL_1MMDEEP_LABELS_S
100
AcDbVertex
100
AcDb2dVertex
 10
182.792410714162
 20
3.220638096683274
 30
0.0
  0
VERTEX
  5
107
330
60
100
AcDbEntity
  8
1_ANYTOOL_1MMDEEP_LABELS_S
100
AcDbVertex
100
AcDb2dVertex
 10
182.9327845980905
 20
3.311290998468884
 30
0.0
  0
VERTEX
  5
108
330
60
100
AcDbEntity
  8
1_ANYTOOL_1MMDEEP_LABELS_S
100
AcDbVertex
100
AcDb2dVertex
 10
183.071316964162
 20
3.405124703825919
 30
0.0
  0
VERTEX
  5
109
330
60
100
AcDbEntity
  8
1_ANYTOOL_1MMDEEP_LABELS_S
100
AcDbVertex
100
AcDb2dVertex
 10
183.2080078123763
 20
3.502139212754379
 30
0.0
  0
VERTEX
  5
10A
330
60
100
AcDbEntity
  8
1_ANYTOOL_1MMDEEP_LABELS_S
100
AcDbVertex
100
AcDb2dVertex
 10
183.3428571427334
 20
3.602334525254264
 30
0.0
  0
VERTEX
  5
10B
330
60
100
AcDbEntity
  8
1_ANYTOOL_1MMDEEP_LABELS_S
100
AcDbVertex
100
AcDb2dVertex
 10
183.608035714162
 20
3.809588989540629
 30
0.0
  0
VERTEX
  5
10C
330
60
100
AcDbEntity
  8
1_ANYTOOL_1MMDEEP_LABELS_S
100
AcDbVertex
100
AcDb2dVertex
 10
183.8678571427334
 20
4.024209525255515
 30
0.0
  0
VERTEX
  5
10D
330
60
100
AcDbEntity
  8
1_ANYTOOL_1MMDEEP_LABELS_S
100
AcDbVertex
100
AcDb2dVertex
 10
184.1223214284477
 20
4.246196132398921
 30
0.0
  0
VERTEX
  5
10E
330
60
100
AcDbEntity
  8
1_ANYTOOL_1MMDEEP_LABELS_S
100
AcDbVertex
100
AcDb2dVertex
 10
184.3714285713048
 20
4.475548810970849
 30
0.0
  0
VERTEX
  5
10F
330
60
100
AcDbEntity
  8
1_ANYTOOL_1MMDEEP_LABELS_S
100
AcDbVertex
100
AcDb2dVertex
 10
184.6151785713048
 20
4.712267560971299
 30
0.0
  0
VERTEX
  5
110
330
60
100
AcDbEntity
  8
1_ANYTOOL_1MMDEEP_LABELS_S
100
AcDbVertex
100
AcDb2dVertex
 10
184.8535714284477
 20
4.956352382400269
 30
0.0
  0
VERTEX
  5
111
330
60
100
AcDbEntity
  8
1_ANYTOOL_1MMDEEP_LABELS_S
100
AcDbVertex
100
AcDb2dVertex
 10
185.0866071427334
 20
5.20780327525776
 30
0.0
  0
VERTEX
  5
112
330
60
100
AcDbEntity
  8
1_ANYTOOL_1MMDEEP_LABELS_S
100
AcDbVertex
100
AcDb2dVertex
 10
185.314285714162
 20
5.466620239543772
 30
0.0
  0
VERTEX
  5
113
330
60
100
AcDbEntity
  8
1_ANYTOOL_1MMDEEP_LABELS_S
100
AcDbVertex
100
AcDb2dVertex
 10
185.5366071427334
 20
5.732803275258306
 30
0.0
  0
VERTEX
  5
114
330
60
100
AcDbEntity
  8
1_ANYTOOL_1MMDEEP_LABELS_S
100
AcDbVertex
100
AcDb2dVertex
 10
185.7535714284477
 20
6.00635238240136
 30
0.0
  0
VERTEX
  5
115
330
60
100
AcDbEntity
  8
1_ANYTOOL_1MMDEEP_LABELS_S
100
AcDbVertex
100
AcDb2dVertex
 10
185.9651785713048
 20
6.287267560972936
 30
0.0
  0
VERTEX
  5
116
330
60
100
AcDbEntity
  8
1_ANYTOOL_1MMDEEP_LABELS_S
100
AcDbVertex
100
AcDb2dVertex
 10
186.1714285713048
 20
6.575548810973032
 30
0.0
  0
VERTEX
  5
117
330
60
100
AcDbEntity
  8
1_ANYTOOL_1MMDEEP_LABELS_S
100
AcDbVertex
100
AcDb2dVertex
 10
186.3723214284477
 20
6.87119613240165
 30
0.0
  0
VERTEX
  5
118
330
60
100
AcDbEntity
  8
1_ANYTOOL_1MMDEEP_LABELS_S
100
AcDbVertex
100
AcDb2dVertex
 10
186.5678571427334
 20
7.174209525258789
 30
0.0
  0
VERTEX
  5
119
330
60
100
AcDbEntity
  8
1_ANYTOOL_1MMDEEP_LABELS_S
100
AcDbVertex
100
AcDb2dVertex
 10
186.758035714162
 20
7.484588989544449
 30
0.0
  0
VERTEX
  5
11A
330
60
100
AcDbEntity
  8
1_ANYTOOL_1MMDEEP_LABELS_S
100
AcDbVertex
100
AcDb2dVertex
 10
186.9428571427334
 20
7.80233452525863
 30
0.0
  0
SEQEND
  5
11B
330
60
100
AcDbEntity
  8
1_ANYTOOL_1MMDEEP_LABELS_S
  0
LINE
  5
11C
330
1F
100
AcDbEntity
  8
1_ANYTOOL_1MMDEEP_LABELS_S
100
AcDbLine
 10
164.014285714162
 20
31.50233452525572
 30
0.0
 11
146.8285714284477
 21
0.7309059538310976
 31
0.0
  0
POLYLINE
  5
11D
330
1F
100
AcDbEntity
  8
1_ANYTOOL_1MMDEEP_LABELS_S
100
AcDb2dPolyline
 66
     1
 10
0.0
 20
0.0
 30
0.0
  0
VERTEX
  5
11E
330
11D
100
AcDbEntity
  8
1_ANYTOOL_1MMDEEP_LABELS_S
100
AcDbVertex
100
AcDb2dVertex
 10
141.2999999998763
 20
1.973763096684706
 30
0.0
  0
VERTEX
  5
11F
330
11D
100
AcDbEntity
  8
1_ANYTOOL_1MMDEEP_LABELS_S
100
AcDbVertex
100
AcDb2dVertex
 10
141.2999999998763
 20
32.01662023954123
 30
0.0
  0
VERTEX
  5
120
330
11D
100
AcDbEntity
  8
1_ANYTOOL_1MMDEEP_LABELS_S
100
AcDbVertex
100
AcDb2dVertex
 10
141.2792829239834
 20
31.86536465918403
 30
0.0
  0
VERTEX
  5
121
330
11D
100
AcDbEntity
  8
1_ANYTOOL_1MMDEEP_LABELS_S
100
AcDbVertex
100
AcDb2dVertex
 10
141.2546316963048
 20
31.7169550609697
 30
0.0
  0
VERTEX
  5
122
330
11D
100
AcDbEntity
  8
1_ANYTOOL_1MMDEEP_LABELS_S
100
AcDbVertex
100
AcDb2dVertex
 10
141.2260463168406
 20
31.57139144489822
 30
0.0
  0
VERTEX
  5
123
330
11D
100
AcDbEntity
  8
1_ANYTOOL_1MMDEEP_LABELS_S
100
AcDbVertex
100
AcDb2dVertex
 10
141.1935267855906
 20
31.4286738109696
 30
0.0
  0
VERTEX
  5
124
330
11D
100
AcDbEntity
  8
1_ANYTOOL_1MMDEEP_LABELS_S
100
AcDbVertex
100
AcDb2dVertex
 10
141.1570731025548
 20
31.28880215918384
 30
0.0
  0
VERTEX
  5
125
330
11D
100
AcDbEntity
  8
1_ANYTOOL_1MMDEEP_LABELS_S
100
AcDbVertex
100
AcDb2dVertex
 10
141.1166852677334
 20
31.15177648954094
 30
0.0
  0
VERTEX
  5
126
330
11D
100
AcDbEntity
  8
1_ANYTOOL_1MMDEEP_LABELS_S
100
AcDbVertex
100
AcDb2dVertex
 10
141.0723632811263
 20
31.01759680204089
 30
0.0
  0
VERTEX
  5
127
330
11D
100
AcDbEntity
  8
1_ANYTOOL_1MMDEEP_LABELS_S
100
AcDbVertex
100
AcDb2dVertex
 10
141.0241071427334
 20
30.88626309668371
 30
0.0
  0
VERTEX
  5
128
330
11D
100
AcDbEntity
  8
1_ANYTOOL_1MMDEEP_LABELS_S
100
AcDbVertex
100
AcDb2dVertex
 10
140.9719168525548
 20
30.75777537346938
 30
0.0
  0
VERTEX
  5
129
330
11D
100
AcDbEntity
  8
1_ANYTOOL_1MMDEEP_LABELS_S
100
AcDbVertex
100
AcDb2dVertex
 10
140.9157924105906
 20
30.63213363239791
 30
0.0
  0
VERTEX
  5
12A
330
11D
100
AcDbEntity
  8
1_ANYTOOL_1MMDEEP_LABELS_S
100
AcDbVertex
100
AcDb2dVertex
 10
140.8862548826888
 20
30.57038000516575
 30
0.0
  0
VERTEX
  5
12B
330
11D
100
AcDbEntity
  8
1_ANYTOOL_1MMDEEP_LABELS_S
100
AcDbVertex
100
AcDb2dVertex
 10
140.8557338168406
 20
30.5093378734693
 30
0.0
  0
VERTEX
  5
12C
330
11D
100
AcDbEntity
  8
1_ANYTOOL_1MMDEEP_LABELS_S
100
AcDbVertex
100
AcDb2dVertex
 10
140.8242292130459
 20
30.44900723730856
 30
0.0
  0
VERTEX
  5
12D
330
11D
100
AcDbEntity
  8
1_ANYTOOL_1MMDEEP_LABELS_S
100
AcDbVertex
100
AcDb2dVertex
 10
140.7917410713048
 20
30.38938809668355
 30
0.0
  0
VERTEX
  5
12E
330
11D
100
AcDbEntity
  8
1_ANYTOOL_1MMDEEP_LABELS_S
100
AcDbVertex
100
AcDb2dVertex
 10
140.7582693916173
 20
30.33048045159424
 30
0.0
  0
VERTEX
  5
12F
330
11D
100
AcDbEntity
  8
1_ANYTOOL_1MMDEEP_LABELS_S
100
AcDbVertex
100
AcDb2dVertex
 10
140.7238141739834
 20
30.27228430204065
 30
0.0
  0
VERTEX
  5
130
330
11D
100
AcDbEntity
  8
1_ANYTOOL_1MMDEEP_LABELS_S
100
AcDbVertex
100
AcDb2dVertex
 10
140.688375418403
 20
30.21479964802278
 30
0.0
  0
VERTEX
  5
131
330
11D
100
AcDbEntity
  8
1_ANYTOOL_1MMDEEP_LABELS_S
100
AcDbVertex
100
AcDb2dVertex
 10
140.6519531248763
 20
30.15802648954062
 30
0.0
  0
VERTEX
  5
132
330
11D
100
AcDbEntity
  8
1_ANYTOOL_1MMDEEP_LABELS_S
100
AcDbVertex
100
AcDb2dVertex
 10
140.614547293403
 20
30.10196482659417
 30
0.0
  0
VERTEX
  5
133
330
11D
100
AcDbEntity
  8
1_ANYTOOL_1MMDEEP_LABELS_S
100
AcDbVertex
100
AcDb2dVertex
 10
140.5761579239834
 20
30.04661465918344
 30
0.0
  0
VERTEX
  5
134
330
11D
100
AcDbEntity
  8
1_ANYTOOL_1MMDEEP_LABELS_S
100
AcDbVertex
100
AcDb2dVertex
 10
140.5367850166173
 20
29.99197598730842
 30
0.0
  0
VERTEX
  5
135
330
11D
100
AcDbEntity
  8
1_ANYTOOL_1MMDEEP_LABELS_S
100
AcDbVertex
100
AcDb2dVertex
 10
140.4964285713048
 20
29.93804881096912
 30
0.0
  0
VERTEX
  5
136
330
11D
100
AcDbEntity
  8
1_ANYTOOL_1MMDEEP_LABELS_S
100
AcDbVertex
100
AcDb2dVertex
 10
140.4550885880459
 20
29.88483313016553
 30
0.0
  0
VERTEX
  5
137
330
11D
100
AcDbEntity
  8
1_ANYTOOL_1MMDEEP_LABELS_S
100
AcDbVertex
100
AcDb2dVertex
 10
140.4127650668405
 20
29.83232894489766
 30
0.0
  0
VERTEX
  5
138
330
11D
100
AcDbEntity
  8
1_ANYTOOL_1MMDEEP_LABELS_S
100
AcDbVertex
100
AcDb2dVertex
 10
140.3694580076887
 20
29.7805362551655
 30
0.0
  0
VERTEX
  5
139
330
11D
100
AcDbEntity
  8
1_ANYTOOL_1MMDEEP_LABELS_S
100
AcDbVertex
100
AcDb2dVertex
 10
140.3251674105905
 20
29.72945506096906
 30
0.0
  0
VERTEX
  5
13A
330
11D
100
AcDbEntity
  8
1_ANYTOOL_1MMDEEP_LABELS_S
100
AcDbVertex
100
AcDb2dVertex
 10
140.2798932755459
 20
29.67908536230833
 30
0.0
  0
VERTEX
  5
13B
330
11D
100
AcDbEntity
  8
1_ANYTOOL_1MMDEEP_LABELS_S
100
AcDbVertex
100
AcDb2dVertex
 10
140.2336356025548
 20
29.62942715918332
 30
0.0
  0
VERTEX
  5
13C
330
11D
100
AcDbEntity
  8
1_ANYTOOL_1MMDEEP_LABELS_S
100
AcDbVertex
100
AcDb2dVertex
 10
140.1863943916173
 20
29.58048045159401
 30
0.0
  0
VERTEX
  5
13D
330
11D
100
AcDbEntity
  8
1_ANYTOOL_1MMDEEP_LABELS_S
100
AcDbVertex
100
AcDb2dVertex
 10
140.1381696427334
 20
29.53224523954043
 30
0.0
  0
VERTEX
  5
13E
330
11D
100
AcDbEntity
  8
1_ANYTOOL_1MMDEEP_LABELS_S
100
AcDbVertex
100
AcDb2dVertex
 10
140.0387695311263
 20
29.4379093020404
 30
0.0
  0
VERTEX
  5
13F
330
11D
100
AcDbEntity
  8
1_ANYTOOL_1MMDEEP_LABELS_S
100
AcDbVertex
100
AcDb2dVertex
 10
139.9354352677334
 20
29.34641934668323
 30
0.0
  0
VERTEX
  5
140
330
11D
100
AcDbEntity
  8
1_ANYTOOL_1MMDEEP_LABELS_S
100
AcDbVertex
100
AcDb2dVertex
 10
139.8281668525548
 20
29.25777537346892
 30
0.0
  0
VERTEX
  5
141
330
11D
100
AcDbEntity
  8
1_ANYTOOL_1MMDEEP_LABELS_S
100
AcDbVertex
100
AcDb2dVertex
 10
139.7169642855906
 20
29.17197738239747
 30
0.0
  0
VERTEX
  5
142
330
11D
100
AcDbEntity
  8
1_ANYTOOL_1MMDEEP_LABELS_S
100
AcDbVertex
100
AcDb2dVertex
 10
139.6018275668405
 20
29.08902537346888
 30
0.0
  0
VERTEX
  5
143
330
11D
100
AcDbEntity
  8
1_ANYTOOL_1MMDEEP_LABELS_S
100
AcDbVertex
100
AcDb2dVertex
 10
139.4827566963048
 20
29.00891934668314
 30
0.0
  0
VERTEX
  5
144
330
11D
100
AcDbEntity
  8
1_ANYTOOL_1MMDEEP_LABELS_S
100
AcDbVertex
100
AcDb2dVertex
 10
139.3597516739834
 20
28.93165930204027
 30
0.0
  0
VERTEX
  5
145
330
11D
100
AcDbEntity
  8
1_ANYTOOL_1MMDEEP_LABELS_S
100
AcDbVertex
100
AcDb2dVertex
 10
139.2328124998763
 20
28.85724523954025
 30
0.0
  0
VERTEX
  5
146
330
11D
100
AcDbEntity
  8
1_ANYTOOL_1MMDEEP_LABELS_S
100
AcDbVertex
100
AcDb2dVertex
 10
139.1019391739834
 20
28.78567715918309
 30
0.0
  0
VERTEX
  5
147
330
11D
100
AcDbEntity
  8
1_ANYTOOL_1MMDEEP_LABELS_S
100
AcDbVertex
100
AcDb2dVertex
 10
138.9671316963048
 20
28.71695506096879
 30
0.0
  0
VERTEX
  5
148
330
11D
100
AcDbEntity
  8
1_ANYTOOL_1MMDEEP_LABELS_S
100
AcDbVertex
100
AcDb2dVertex
 10
138.8283900668405
 20
28.65107894489734
 30
0.0
  0
VERTEX
  5
149
330
11D
100
AcDbEntity
  8
1_ANYTOOL_1MMDEEP_LABELS_S
100
AcDbVertex
100
AcDb2dVertex
 10
138.6857142855906
 20
28.58804881096876
 30
0.0
  0
VERTEX
  5
14A
330
11D
100
AcDbEntity
  8
1_ANYTOOL_1MMDEEP_LABELS_S
100
AcDbVertex
100
AcDb2dVertex
 10
138.3974330355906
 20
28.4738747038258
 30
0.0
  0
VERTEX
  5
14B
330
11D
100
AcDbEntity
  8
1_ANYTOOL_1MMDEEP_LABELS_S
100
AcDbVertex
100
AcDb2dVertex
 10
138.111160714162
 20
28.36706666811142
 30
0.0
  0
VERTEX
  5
14C
330
11D
100
AcDbEntity
  8
1_ANYTOOL_1MMDEEP_LABELS_S
100
AcDbVertex
100
AcDb2dVertex
 10
137.8268973213048
 20
28.26762470382562
 30
0.0
  0
VERTEX
  5
14D
330
11D
100
AcDbEntity
  8
1_ANYTOOL_1MMDEEP_LABELS_S
100
AcDbVertex
100
AcDb2dVertex
 10
137.5446428570191
 20
28.17554881096839
 30
0.0
  0
VERTEX
  5
14E
330
11D
100
AcDbEntity
  8
1_ANYTOOL_1MMDEEP_LABELS_S
100
AcDbVertex
100
AcDb2dVertex
 10
137.2643973213048
 20
28.09083898953975
 30
0.0
  0
VERTEX
  5
14F
330
11D
100
AcDbEntity
  8
1_ANYTOOL_1MMDEEP_LABELS_S
100
AcDbVertex
100
AcDb2dVertex
 10
136.986160714162
 20
28.01349523953968
 30
0.0
  0
VERTEX
  5
150
330
11D
100
AcDbEntity
  8
1_ANYTOOL_1MMDEEP_LABELS_S
100
AcDbVertex
100
AcDb2dVertex
 10
136.7099330355906
 20
27.94351756096819
 30
0.0
  0
VERTEX
  5
151
330
11D
100
AcDbEntity
  8
1_ANYTOOL_1MMDEEP_LABELS_S
100
AcDbVertex
100
AcDb2dVertex
 10
136.4357142855905
 20
27.88090595382528
 30
0.0
  0
VERTEX
  5
152
330
11D
100
AcDbEntity
  8
1_ANYTOOL_1MMDEEP_LABELS_S
100
AcDbVertex
100
AcDb2dVertex
 10
136.163504464162
 20
27.82566041811094
 30
0.0
  0
VERTEX
  5
153
330
11D
100
AcDbEntity
  8
1_ANYTOOL_1MMDEEP_LABELS_S
100
AcDbVertex
100
AcDb2dVertex
 10
135.8933035713048
 20
27.77778095382519
 30
0.0
  0
VERTEX
  5
154
330
11D
100
AcDbEntity
  8
1_ANYTOOL_1MMDEEP_LABELS_S
100
AcDbVertex
100
AcDb2dVertex
 10
135.6251116070191
 20
27.73726756096801
 30
0.0
  0
VERTEX
  5
155
330
11D
100
AcDbEntity
  8
1_ANYTOOL_1MMDEEP_LABELS_S
100
AcDbVertex
100
AcDb2dVertex
 10
135.3589285713048
 20
27.70412023953941
 30
0.0
  0
VERTEX
  5
156
330
11D
100
AcDbEntity
  8
1_ANYTOOL_1MMDEEP_LABELS_S
100
AcDbVertex
100
AcDb2dVertex
 10
135.094754464162
 20
27.67833898953938
 30
0.0
  0
VERTEX
  5
157
330
11D
100
AcDbEntity
  8
1_ANYTOOL_1MMDEEP_LABELS_S
100
AcDbVertex
100
AcDb2dVertex
 10
134.8325892855905
 20
27.65992381096794
 30
0.0
  0
VERTEX
  5
158
330
11D
100
AcDbEntity
  8
1_ANYTOOL_1MMDEEP_LABELS_S
100
AcDbVertex
100
AcDb2dVertex
 10
134.5724330355905
 20
27.64887470382507
 30
0.0
  0
VERTEX
  5
159
330
11D
100
AcDbEntity
  8
1_ANYTOOL_1MMDEEP_LABELS_S
100
AcDbVertex
100
AcDb2dVertex
 10
134.3142857141619
 20
27.64519166811078
 30
0.0
  0
SEQEND
  5
15A
330
11D
100
AcDbEntity
  8
1_ANYTOOL_1MMDEEP_LABELS_S
  0
LINE
  5
15B
330
1F
100
AcDbEntity
  8
1_ANYTOOL_1MMDEEP_LABELS_S
100
AcDbLine
 10
129.1714285713048
 20
15.85947738240066
 30
0.0
 11
120.3857142855906
 21
15.77376309668762
 31
0.0
  0
POLYLINE
  5
15C
330
1F
100
AcDbEntity
  8
1_ANYTOOL_1MMDEEP_LABELS_S
100
AcDb2dPolyline
 66
     1
 10
0.0
 20
0.0
 30
0.0
  0
VERTEX
  5
15D
330
15C
100
AcDbEntity
  8
1_ANYTOOL_1MMDEEP_LABELS_S
100
AcDbVertex
100
AcDb2dVertex
 10
90.81428571416194
 20
1.973763096684706
 30
0.0
  0
VERTEX
  5
15E
330
15C
100
AcDbEntity
  8
1_ANYTOOL_1MMDEEP_LABELS_S
100
AcDbVertex
100
AcDb2dVertex
 10
90.81428571416194
 20
31.97376309668471
 30
0.0
  0
VERTEX
  5
15F
330
15C
100
AcDbEntity
  8
1_ANYTOOL_1MMDEEP_LABELS_S
100
AcDbVertex
100
AcDb2dVertex
 10
102.8142857141619
 20
3.602334525254264
 30
0.0
  0
VERTEX
  5
160
330
15C
100
AcDbEntity
  8
1_ANYTOOL_1MMDEEP_LABELS_S
100
AcDbVertex
100
AcDb2dVertex
 10
114.8142857141619
 20
31.84519166811515
 30
0.0
  0
VERTEX
  5
161
330
15C
100
AcDbEntity
  8
1_ANYTOOL_1MMDEEP_LABELS_S
100
AcDbVertex
100
AcDb2dVertex
 10
114.8142857141619
 20
1.973763096684706
 30
0.0
  0
SEQEND
  5
162
330
15C
100
AcDbEntity
  8
1_ANYTOOL_1MMDEEP_LABELS_S
  0
LINE
  5
163
330
1F
100
AcDbEntity
  8
1_ANYTOOL_1MMDEEP_LABELS_S
100
AcDbLine
 10
85.67142857130483
 20
15.85947738240066
 30
0.0
 11
76.88571428559055
 21
15.77376309668762
 31
0.0
  0
POLYLINE
  5
164
330
1F
100
AcDbEntity
  8
1_ANYTOOL_1MMDEEP_LABELS_S
100
AcDb2dPolyline
 66
     1
 10
0.0
 20
0.0
 30
0.0
 70
     1
  0
VERTEX
  5
165
330
164
100
AcDbEntity
  8
1_ANYTOOL_1MMDEEP_LABELS_S
100
AcDbVertex
100
AcDb2dVertex
 10
61.71428571416197
 20
32.31662023954414
 30
0.0
  0
VERTEX
  5
166
330
164
100
AcDbEntity
  8
1_ANYTOOL_1MMDEEP_LABELS_S
100
AcDbVertex
100
AcDb2dVertex
 10
62.08577008916198
 20
32.31076086454414
 30
0.0
  0
VERTEX
  5
167
330
164
100
AcDbEntity
  8
1_ANYTOOL_1MMDEEP_LABELS_S
100
AcDbVertex
100
AcDb2dVertex
 10
62.45022321416197
 20
32.29318273954414
 30
0.0
  0
VERTEX
  5
168
330
164
100
AcDbEntity
  8
1_ANYTOOL_1MMDEEP_LABELS_S
100
AcDbVertex
100
AcDb2dVertex
 10
62.80764508916197
 20
32.26388586454414
 30
0.0
  0
VERTEX
  5
169
330
164
100
AcDbEntity
  8
1_ANYTOOL_1MMDEEP_LABELS_S
100
AcDbVertex
100
AcDb2dVertex
 10
62.98371930791198
 20
32.24484289579414
 30
0.0
  0
VERTEX
  5
16A
330
164
100
AcDbEntity
  8
1_ANYTOOL_1MMDEEP_LABELS_S
100
AcDbVertex
100
AcDb2dVertex
 10
63.15803571416198
 20
32.22287023954414
 30
0.0
  0
VERTEX
  5
16B
330
164
100
AcDbEntity
  8
1_ANYTOOL_1MMDEEP_LABELS_S
100
AcDbVertex
100
AcDb2dVertex
 10
63.33059430791197
 20
32.19796789579414
 30
0.0
  0
VERTEX
  5
16C
330
164
100
AcDbEntity
  8
1_ANYTOOL_1MMDEEP_LABELS_S
100
AcDbVertex
100
AcDb2dVertex
 10
63.50139508916197
 20
32.17013586454414
 30
0.0
  0
VERTEX
  5
16D
330
164
100
AcDbEntity
  8
1_ANYTOOL_1MMDEEP_LABELS_S
100
AcDbVertex
100
AcDb2dVertex
 10
63.67043805791198
 20
32.13937414579414
 30
0.0
  0
VERTEX
  5
16E
330
164
100
AcDbEntity
  8
1_ANYTOOL_1MMDEEP_LABELS_S
100
AcDbVertex
100
AcDb2dVertex
 10
63.83772321416198
 20
32.10568273954414
 30
0.0
  0
VERTEX
  5
16F
330
164
100
AcDbEntity
  8
1_ANYTOOL_1MMDEEP_LABELS_S
100
AcDbVertex
100
AcDb2dVertex
 10
64.00325055791198
 20
32.06906164579414
 30
0.0
  0
VERTEX
  5
170
330
164
100
AcDbEntity
  8
1_ANYTOOL_1MMDEEP_LABELS_S
100
AcDbVertex
100
AcDb2dVertex
 10
64.16702008916198
 20
32.02951086454414
 30
0.0
  0
VERTEX
  5
171
330
164
100
AcDbEntity
  8
1_ANYTOOL_1MMDEEP_LABELS_S
100
AcDbVertex
100
AcDb2dVertex
 10
64.32903180791197
 20
31.98703039579414
 30
0.0
  0
VERTEX
  5
172
330
164
100
AcDbEntity
  8
1_ANYTOOL_1MMDEEP_LABELS_S
100
AcDbVertex
100
AcDb2dVertex
 10
64.48928571416198
 20
31.94162023954414
 30
0.0
  0
VERTEX
  5
173
330
164
100
AcDbEntity
  8
1_ANYTOOL_1MMDEEP_LABELS_S
100
AcDbVertex
100
AcDb2dVertex
 10
64.64778180791198
 20
31.89328039579414
 30
0.0
  0
VERTEX
  5
174
330
164
100
AcDbEntity
  8
1_ANYTOOL_1MMDEEP_LABELS_S
100
AcDbVertex
100
AcDb2dVertex
 10
64.80452008916197
 20
31.84201086454414
 30
0.0
  0
VERTEX
  5
175
330
164
100
AcDbEntity
  8
1_ANYTOOL_1MMDEEP_LABELS_S
100
AcDbVertex
100
AcDb2dVertex
 10
64.95950055791198
 20
31.78781164579414
 30
0.0
  0
VERTEX
  5
176
330
164
100
AcDbEntity
  8
1_ANYTOOL_1MMDEEP_LABELS_S
100
AcDbVertex
100
AcDb2dVertex
 10
65.11272321416197
 20
31.73068273954414
 30
0.0
  0
VERTEX
  5
177
330
164
100
AcDbEntity
  8
1_ANYTOOL_1MMDEEP_LABELS_S
100
AcDbVertex
100
AcDb2dVertex
 10
65.26418805791198
 20
31.67062414579414
 30
0.0
  0
VERTEX
  5
178
330
164
100
AcDbEntity
  8
1_ANYTOOL_1MMDEEP_LABELS_S
100
AcDbVertex
100
AcDb2dVertex
 10
65.41389508916197
 20
31.60763586454414
 30
0.0
  0
VERTEX
  5
179
330
164
100
AcDbEntity
  8
1_ANYTOOL_1MMDEEP_LABELS_S
100
AcDbVertex
100
AcDb2dVertex
 10
65.56184430791197
 20
31.54171789579414
 30
0.0
  0
VERTEX
  5
17A
330
164
100
AcDbEntity
  8
1_ANYTOOL_1MMDEEP_LABELS_S
100
AcDbVertex
100
AcDb2dVertex
 10
65.70803571416197
 20
31.47287023954414
 30
0.0
  0
VERTEX
  5
17B
330
164
100
AcDbEntity
  8
1_ANYTOOL_1MMDEEP_LABELS_S
100
AcDbVertex
100
AcDb2dVertex
 10
65.85246930791197
 20
31.40109289579414
 30
0.0
  0
VERTEX
  5
17C
330
164
100
AcDbEntity
  8
1_ANYTOOL_1MMDEEP_LABELS_S
100
AcDbVertex
100
AcDb2dVertex
 10
65.99514508916197
 20
31.32638586454414
 30
0.0
  0
VERTEX
  5
17D
330
164
100
AcDbEntity
  8
1_ANYTOOL_1MMDEEP_LABELS_S
100
AcDbVertex
100
AcDb2dVertex
 10
66.13606305791197
 20
31.24874914579414
 30
0.0
  0
VERTEX
  5
17E
330
164
100
AcDbEntity
  8
1_ANYTOOL_1MMDEEP_LABELS_S
100
AcDbVertex
100
AcDb2dVertex
 10
66.27522321416197
 20
31.16818273954414
 30
0.0
  0
VERTEX
  5
17F
330
164
100
AcDbEntity
  8
1_ANYTOOL_1MMDEEP_LABELS_S
100
AcDbVertex
100
AcDb2dVertex
 10
66.41262555791198
 20
31.08468664579414
 30
0.0
  0
VERTEX
  5
180
330
164
100
AcDbEntity
  8
1_ANYTOOL_1MMDEEP_LABELS_S
100
AcDbVertex
100
AcDb2dVertex
 10
66.54827008916197
 20
30.99826086454414
 30
0.0
  0
VERTEX
  5
181
330
164
100
AcDbEntity
  8
1_ANYTOOL_1MMDEEP_LABELS_S
100
AcDbVertex
100
AcDb2dVertex
 10
66.68215680791198
 20
30.90890539579414
 30
0.0
  0
VERTEX
  5
182
330
164
100
AcDbEntity
  8
1_ANYTOOL_1MMDEEP_LABELS_S
100
AcDbVertex
100
AcDb2dVertex
 10
67.07377232130483
 20
30.63129657882976
 30
0.0
  0
VERTEX
  5
183
330
164
100
AcDbEntity
  8
1_ANYTOOL_1MMDEEP_LABELS_S
100
AcDbVertex
100
AcDb2dVertex
 10
67.32723214273341
 20
30.43961131097251
 30
0.0
  0
VERTEX
  5
184
330
164
100
AcDbEntity
  8
1_ANYTOOL_1MMDEEP_LABELS_S
100
AcDbVertex
100
AcDb2dVertex
 10
67.57466517844769
 20
30.24156443597238
 30
0.0
  0
VERTEX
  5
185
330
164
100
AcDbEntity
  8
1_ANYTOOL_1MMDEEP_LABELS_S
100
AcDbVertex
100
AcDb2dVertex
 10
67.81607142844769
 20
30.03715595382937
 30
0.0
  0
VERTEX
  5
186
330
164
100
AcDbEntity
  8
1_ANYTOOL_1MMDEEP_LABELS_S
100
AcDbVertex
100
AcDb2dVertex
 10
68.0514508927334
 20
29.82638586454348
 30
0.0
  0
VERTEX
  5
187
330
164
100
AcDbEntity
  8
1_ANYTOOL_1MMDEEP_LABELS_S
100
AcDbVertex
100
AcDb2dVertex
 10
68.28080357130483
 20
29.60925416811472
 30
0.0
  0
VERTEX
  5
188
330
164
100
AcDbEntity
  8
1_ANYTOOL_1MMDEEP_LABELS_S
100
AcDbVertex
100
AcDb2dVertex
 10
68.50412946416196
 20
29.38576086454307
 30
0.0
  0
VERTEX
  5
189
330
164
100
AcDbEntity
  8
1_ANYTOOL_1MMDEEP_LABELS_S
100
AcDbVertex
100
AcDb2dVertex
 10
68.72142857130481
 20
29.15590595382855
 30
0.0
  0
VERTEX
  5
18A
330
164
100
AcDbEntity
  8
1_ANYTOOL_1MMDEEP_LABELS_S
100
AcDbVertex
100
AcDb2dVertex
 10
68.9327008927334
 20
28.91968943597115
 30
0.0
  0
VERTEX
  5
18B
330
164
100
AcDbEntity
  8
1_ANYTOOL_1MMDEEP_LABELS_S
100
AcDbVertex
100
AcDb2dVertex
 10
69.13794642844768
 20
28.67711131097087
 30
0.0
  0
VERTEX
  5
18C
330
164
100
AcDbEntity
  8
1_ANYTOOL_1MMDEEP_LABELS_S
100
AcDbVertex
100
AcDb2dVertex
 10
69.33716517844766
 20
28.42817157882772
 30
0.0
  0
VERTEX
  5
18D
330
164
100
AcDbEntity
  8
1_ANYTOOL_1MMDEEP_LABELS_S
100
AcDbVertex
100
AcDb2dVertex
 10
69.53035714273338
 20
28.17287023954168
 30
0.0
  0
VERTEX
  5
18E
330
164
100
AcDbEntity
  8
1_ANYTOOL_1MMDEEP_LABELS_S
100
AcDbVertex
100
AcDb2dVertex
 10
69.71752232130481
 20
27.91120729311277
 30
0.0
  0
VERTEX
  5
18F
330
164
100
AcDbEntity
  8
1_ANYTOOL_1MMDEEP_LABELS_S
100
AcDbVertex
100
AcDb2dVertex
 10
69.89866071416196
 20
27.64318273954098
 30
0.0
  0
VERTEX
  5
190
330
164
100
AcDbEntity
  8
1_ANYTOOL_1MMDEEP_LABELS_S
100
AcDbVertex
100
AcDb2dVertex
 10
70.07377232130482
 20
27.36879657882631
 30
0.0
  0
VERTEX
  5
191
330
164
100
AcDbEntity
  8
1_ANYTOOL_1MMDEEP_LABELS_S
100
AcDbVertex
100
AcDb2dVertex
 10
70.41127232130482
 20
26.80227872168351
 30
0.0
  0
VERTEX
  5
192
330
164
100
AcDbEntity
  8
1_ANYTOOL_1MMDEEP_LABELS_S
100
AcDbVertex
100
AcDb2dVertex
 10
70.57366071416196
 20
26.51282559668391
 30
0.0
  0
VERTEX
  5
193
330
164
100
AcDbEntity
  8
1_ANYTOOL_1MMDEEP_LABELS_S
100
AcDbVertex
100
AcDb2dVertex
 10
70.7300223213048
 20
26.21968943596997
 30
0.0
  0
VERTEX
  5
194
330
164
100
AcDbEntity
  8
1_ANYTOOL_1MMDEEP_LABELS_S
100
AcDbVertex
100
AcDb2dVertex
 10
70.88035714273337
 20
25.92287023954168
 30
0.0
  0
VERTEX
  5
195
330
164
100
AcDbEntity
  8
1_ANYTOOL_1MMDEEP_LABELS_S
100
AcDbVertex
100
AcDb2dVertex
 10
71.02466517844766
 20
25.62236800739905
 30
0.0
  0
VERTEX
  5
196
330
164
100
AcDbEntity
  8
1_ANYTOOL_1MMDEEP_LABELS_S
100
AcDbVertex
100
AcDb2dVertex
 10
71.16294642844767
 20
25.31818273954207
 30
0.0
  0
VERTEX
  5
197
330
164
100
AcDbEntity
  8
1_ANYTOOL_1MMDEEP_LABELS_S
100
AcDbVertex
100
AcDb2dVertex
 10
71.29520089273339
 20
25.01031443597074
 30
0.0
  0
VERTEX
  5
198
330
164
100
AcDbEntity
  8
1_ANYTOOL_1MMDEEP_LABELS_S
100
AcDbVertex
100
AcDb2dVertex
 10
71.42142857130482
 20
24.69876309668507
 30
0.0
  0
VERTEX
  5
199
330
164
100
AcDbEntity
  8
1_ANYTOOL_1MMDEEP_LABELS_S
100
AcDbVertex
100
AcDb2dVertex
 10
71.54162946416196
 20
24.38352872168505
 30
0.0
  0
VERTEX
  5
19A
330
164
100
AcDbEntity
  8
1_ANYTOOL_1MMDEEP_LABELS_S
100
AcDbVertex
100
AcDb2dVertex
 10
71.65580357130483
 20
24.06461131097069
 30
0.0
  0
VERTEX
  5
19B
330
164
100
AcDbEntity
  8
1_ANYTOOL_1MMDEEP_LABELS_S
100
AcDbVertex
100
AcDb2dVertex
 10
71.76395089273339
 20
23.74201086454198
 30
0.0
  0
VERTEX
  5
19C
330
164
100
AcDbEntity
  8
1_ANYTOOL_1MMDEEP_LABELS_S
100
AcDbVertex
100
AcDb2dVertex
 10
71.86607142844768
 20
23.41572738239893
 30
0.0
  0
VERTEX
  5
19D
330
164
100
AcDbEntity
  8
1_ANYTOOL_1MMDEEP_LABELS_S
100
AcDbVertex
100
AcDb2dVertex
 10
71.96216517844769
 20
23.08576086454153
 30
0.0
  0
VERTEX
  5
19E
330
164
100
AcDbEntity
  8
1_ANYTOOL_1MMDEEP_LABELS_S
100
AcDbVertex
100
AcDb2dVertex
 10
72.0522321427334
 20
22.75211131096978
 30
0.0
  0
VERTEX
  5
19F
330
164
100
AcDbEntity
  8
1_ANYTOOL_1MMDEEP_LABELS_S
100
AcDbVertex
100
AcDb2dVertex
 10
72.13627232130483
 20
22.41477872168369
 30
0.0
  0
VERTEX
  5
1A0
330
164
100
AcDbEntity
  8
1_ANYTOOL_1MMDEEP_LABELS_S
100
AcDbVertex
100
AcDb2dVertex
 10
72.36495535701911
 20
21.39139702525551
 30
0.0
  0
VERTEX
  5
1A1
330
164
100
AcDbEntity
  8
1_ANYTOOL_1MMDEEP_LABELS_S
100
AcDbVertex
100
AcDb2dVertex
 10
72.49553571416197
 20
20.71572738239911
 30
0.0
  0
VERTEX
  5
1A2
330
164
100
AcDbEntity
  8
1_ANYTOOL_1MMDEEP_LABELS_S
100
AcDbVertex
100
AcDb2dVertex
 10
72.60602678559056
 20
20.04675416811403
 30
0.0
  0
VERTEX
  5
1A3
330
164
100
AcDbEntity
  8
1_ANYTOOL_1MMDEEP_LABELS_S
100
AcDbVertex
100
AcDb2dVertex
 10
72.69642857130484
 20
19.38447738240029
 30
0.0
  0
VERTEX
  5
1A4
330
164
100
AcDbEntity
  8
1_ANYTOOL_1MMDEEP_LABELS_S
100
AcDbVertex
100
AcDb2dVertex
 10
72.76674107130484
 20
18.72889702525788
 30
0.0
  0
VERTEX
  5
1A5
330
164
100
AcDbEntity
  8
1_ANYTOOL_1MMDEEP_LABELS_S
100
AcDbVertex
100
AcDb2dVertex
 10
72.81696428559054
 20
18.0800130966868
 30
0.0
  0
VERTEX
  5
1A6
330
164
100
AcDbEntity
  8
1_ANYTOOL_1MMDEEP_LABELS_S
100
AcDbVertex
100
AcDb2dVertex
 10
72.84709821416197
 20
17.43782559668705
 30
0.0
  0
VERTEX
  5
1A7
330
164
100
AcDbEntity
  8
1_ANYTOOL_1MMDEEP_LABELS_S
100
AcDbVertex
100
AcDb2dVertex
 10
72.85714285701911
 20
16.80233452525863
 30
0.0
  0
VERTEX
  5
1A8
330
164
100
AcDbEntity
  8
1_ANYTOOL_1MMDEEP_LABELS_S
100
AcDbVertex
100
AcDb2dVertex
 10
72.84626116059054
 20
16.16483452525793
 30
0.0
  0
VERTEX
  5
1A9
330
164
100
AcDbEntity
  8
1_ANYTOOL_1MMDEEP_LABELS_S
100
AcDbVertex
100
AcDb2dVertex
 10
72.81361607130484
 20
15.52733452525729
 30
0.0
  0
VERTEX
  5
1AA
330
164
100
AcDbEntity
  8
1_ANYTOOL_1MMDEEP_LABELS_S
100
AcDbVertex
100
AcDb2dVertex
 10
72.75920758916197
 20
14.8898345252567
 30
0.0
  0
VERTEX
  5
1AB
330
164
100
AcDbEntity
  8
1_ANYTOOL_1MMDEEP_LABELS_S
100
AcDbVertex
100
AcDb2dVertex
 10
72.68303571416197
 20
14.25233452525617
 30
0.0
  0
VERTEX
  5
1AC
330
164
100
AcDbEntity
  8
1_ANYTOOL_1MMDEEP_LABELS_S
100
AcDbVertex
100
AcDb2dVertex
 10
72.58510044630482
 20
13.6148345252557
 30
0.0
  0
VERTEX
  5
1AD
330
164
100
AcDbEntity
  8
1_ANYTOOL_1MMDEEP_LABELS_S
100
AcDbVertex
100
AcDb2dVertex
 10
72.46540178559053
 20
12.97733452525529
 30
0.0
  0
VERTEX
  5
1AE
330
164
100
AcDbEntity
  8
1_ANYTOOL_1MMDEEP_LABELS_S
100
AcDbVertex
100
AcDb2dVertex
 10
72.3239397320191
 20
12.33983452525493
 30
0.0
  0
VERTEX
  5
1AF
330
164
100
AcDbEntity
  8
1_ANYTOOL_1MMDEEP_LABELS_S
100
AcDbVertex
100
AcDb2dVertex
 10
72.16071428559053
 20
11.70233452525463
 30
0.0
  0
VERTEX
  5
1B0
330
164
100
AcDbEntity
  8
1_ANYTOOL_1MMDEEP_LABELS_S
100
AcDbVertex
100
AcDb2dVertex
 10
71.9757254463048
 20
11.06483452525438
 30
0.0
  0
VERTEX
  5
1B1
330
164
100
AcDbEntity
  8
1_ANYTOOL_1MMDEEP_LABELS_S
100
AcDbVertex
100
AcDb2dVertex
 10
71.76897321416196
 20
10.4273345252542
 30
0.0
  0
VERTEX
  5
1B2
330
164
100
AcDbEntity
  8
1_ANYTOOL_1MMDEEP_LABELS_S
100
AcDbVertex
100
AcDb2dVertex
 10
71.54045758916196
 20
9.789834525254065
 30
0.0
  0
VERTEX
  5
1B3
330
164
100
AcDbEntity
  8
1_ANYTOOL_1MMDEEP_LABELS_S
100
AcDbVertex
100
AcDb2dVertex
 10
71.29017857130482
 20
9.152334525253991
 30
0.0
  0
VERTEX
  5
1B4
330
164
100
AcDbEntity
  8
1_ANYTOOL_1MMDEEP_LABELS_S
100
AcDbVertex
100
AcDb2dVertex
 10
71.01813616059054
 20
8.514834525253974
 30
0.0
  0
VERTEX
  5
1B5
330
164
100
AcDbEntity
  8
1_ANYTOOL_1MMDEEP_LABELS_S
100
AcDbVertex
100
AcDb2dVertex
 10
70.72433035701911
 20
7.877334525254014
 30
0.0
  0
VERTEX
  5
1B6
330
164
100
AcDbEntity
  8
1_ANYTOOL_1MMDEEP_LABELS_S
100
AcDbVertex
100
AcDb2dVertex
 10
70.40876116059053
 20
7.239834525254111
 30
0.0
  0
VERTEX
  5
1B7
330
164
100
AcDbEntity
  8
1_ANYTOOL_1MMDEEP_LABELS_S
100
AcDbVertex
100
AcDb2dVertex
 10
70.0714285713048
 20
6.602334525254264
 30
0.0
  0
VERTEX
  5
1B8
330
164
100
AcDbEntity
  8
1_ANYTOOL_1MMDEEP_LABELS_S
100
AcDbVertex
100
AcDb2dVertex
 10
69.89686104898337
 20
6.288564994004354
 30
0.0
  0
VERTEX
  5
1B9
330
164
100
AcDbEntity
  8
1_ANYTOOL_1MMDEEP_LABELS_S
100
AcDbVertex
100
AcDb2dVertex
 10
69.71601562487623
 20
5.98475640025444
 30
0.0
  0
VERTEX
  5
1BA
330
164
100
AcDbEntity
  8
1_ANYTOOL_1MMDEEP_LABELS_S
100
AcDbVertex
100
AcDb2dVertex
 10
69.52889229898338
 20
5.690908744004524
 30
0.0
  0
VERTEX
  5
1BB
330
164
100
AcDbEntity
  8
1_ANYTOOL_1MMDEEP_LABELS_S
100
AcDbVertex
100
AcDb2dVertex
 10
69.3354910713048
 20
5.407022025254605
 30
0.0
  0
VERTEX
  5
1BC
330
164
100
AcDbEntity
  8
1_ANYTOOL_1MMDEEP_LABELS_S
100
AcDbVertex
100
AcDb2dVertex
 10
69.13581194184053
 20
5.133096244004683
 30
0.0
  0
VERTEX
  5
1BD
330
164
100
AcDbEntity
  8
1_ANYTOOL_1MMDEEP_LABELS_S
100
AcDbVertex
100
AcDb2dVertex
 10
68.92985491059052
 20
4.869131400254759
 30
0.0
  0
VERTEX
  5
1BE
330
164
100
AcDbEntity
  8
1_ANYTOOL_1MMDEEP_LABELS_S
100
AcDbVertex
100
AcDb2dVertex
 10
68.71761997755482
 20
4.615127494004831
 30
0.0
  0
VERTEX
  5
1BF
330
164
100
AcDbEntity
  8
1_ANYTOOL_1MMDEEP_LABELS_S
100
AcDbVertex
100
AcDb2dVertex
 10
68.49910714273338
 20
4.371084525254901
 30
0.0
  0
VERTEX
  5
1C0
330
164
100
AcDbEntity
  8
1_ANYTOOL_1MMDEEP_LABELS_S
100
AcDbVertex
100
AcDb2dVertex
 10
68.387496512153
 20
4.252798392442434
 30
0.0
  0
VERTEX
  5
1C1
330
164
100
AcDbEntity
  8
1_ANYTOOL_1MMDEEP_LABELS_S
100
AcDbVertex
100
AcDb2dVertex
 10
68.27431640612623
 20
4.137002494004967
 30
0.0
  0
VERTEX
  5
1C2
330
164
100
AcDbEntity
  8
1_ANYTOOL_1MMDEEP_LABELS_S
100
AcDbVertex
100
AcDb2dVertex
 10
68.15956682465303
 20
4.0236968299425
 30
0.0
  0
VERTEX
  5
1C3
330
164
100
AcDbEntity
  8
1_ANYTOOL_1MMDEEP_LABELS_S
100
AcDbVertex
100
AcDb2dVertex
 10
68.04324776773339
 20
3.912881400255031
 30
0.0
  0
VERTEX
  5
1C4
330
164
100
AcDbEntity
  8
1_ANYTOOL_1MMDEEP_LABELS_S
100
AcDbVertex
100
AcDb2dVertex
 10
67.92535923536732
 20
3.804556204942562
 30
0.0
  0
VERTEX
  5
1C5
330
164
100
AcDbEntity
  8
1_ANYTOOL_1MMDEEP_LABELS_S
100
AcDbVertex
100
AcDb2dVertex
 10
67.80590122755481
 20
3.698721244005093
 30
0.0
  0
VERTEX
  5
1C6
330
164
100
AcDbEntity
  8
1_ANYTOOL_1MMDEEP_LABELS_S
100
AcDbVertex
100
AcDb2dVertex
 10
67.68487374429588
 20
3.595376517442622
 30
0.0
  0
VERTEX
  5
1C7
330
164
100
AcDbEntity
  8
1_ANYTOOL_1MMDEEP_LABELS_S
100
AcDbVertex
100
AcDb2dVertex
 10
67.56227678559053
 20
3.494522025255151
 30
0.0
  0
VERTEX
  5
1C8
330
164
100
AcDbEntity
  8
1_ANYTOOL_1MMDEEP_LABELS_S
100
AcDbVertex
100
AcDb2dVertex
 10
67.43811035143872
 20
3.396157767442679
 30
0.0
  0
VERTEX
  5
1C9
330
164
100
AcDbEntity
  8
1_ANYTOOL_1MMDEEP_LABELS_S
100
AcDbVertex
100
AcDb2dVertex
 10
67.31237444184052
 20
3.300283744005206
 30
0.0
  0
VERTEX
  5
1CA
330
164
100
AcDbEntity
  8
1_ANYTOOL_1MMDEEP_LABELS_S
100
AcDbVertex
100
AcDb2dVertex
 10
67.18506905679587
 20
3.206899954942733
 30
0.0
  0
VERTEX
  5
1CB
330
164
100
AcDbEntity
  8
1_ANYTOOL_1MMDEEP_LABELS_S
100
AcDbVertex
100
AcDb2dVertex
 10
67.05619419630482
 20
3.116006400255259
 30
0.0
  0
VERTEX
  5
1CC
330
164
100
AcDbEntity
  8
1_ANYTOOL_1MMDEEP_LABELS_S
100
AcDbVertex
100
AcDb2dVertex
 10
66.92574986036732
 20
3.027603079942784
 30
0.0
  0
VERTEX
  5
1CD
330
164
100
AcDbEntity
  8
1_ANYTOOL_1MMDEEP_LABELS_S
100
AcDbVertex
100
AcDb2dVertex
 10
66.79373604898339
 20
2.941689994005309
 30
0.0
  0
VERTEX
  5
1CE
330
164
100
AcDbEntity
  8
1_ANYTOOL_1MMDEEP_LABELS_S
100
AcDbVertex
100
AcDb2dVertex
 10
66.66015276215302
 20
2.858267142442832
 30
0.0
  0
VERTEX
  5
1CF
330
164
100
AcDbEntity
  8
1_ANYTOOL_1MMDEEP_LABELS_S
100
AcDbVertex
100
AcDb2dVertex
 10
66.52499999987624
 20
2.777334525255355
 30
0.0
  0
VERTEX
  5
1D0
330
164
100
AcDbEntity
  8
1_ANYTOOL_1MMDEEP_LABELS_S
100
AcDbVertex
100
AcDb2dVertex
 10
66.38827776215304
 20
2.698892142442878
 30
0.0
  0
VERTEX
  5
1D1
330
164
100
AcDbEntity
  8
1_ANYTOOL_1MMDEEP_LABELS_S
100
AcDbVertex
100
AcDb2dVertex
 10
66.24998604898339
 20
2.622939994005399
 30
0.0
  0
VERTEX
  5
1D2
330
164
100
AcDbEntity
  8
1_ANYTOOL_1MMDEEP_LABELS_S
100
AcDbVertex
100
AcDb2dVertex
 10
66.1101248603673
 20
2.54947807994292
 30
0.0
  0
VERTEX
  5
1D3
330
164
100
AcDbEntity
  8
1_ANYTOOL_1MMDEEP_LABELS_S
100
AcDbVertex
100
AcDb2dVertex
 10
65.96869419630481
 20
2.478506400255441
 30
0.0
  0
VERTEX
  5
1D4
330
164
100
AcDbEntity
  8
1_ANYTOOL_1MMDEEP_LABELS_S
100
AcDbVertex
100
AcDb2dVertex
 10
65.82569405679588
 20
2.41002495494296
 30
0.0
  0
VERTEX
  5
1D5
330
164
100
AcDbEntity
  8
1_ANYTOOL_1MMDEEP_LABELS_S
100
AcDbVertex
100
AcDb2dVertex
 10
65.68112444184052
 20
2.344033744005479
 30
0.0
  0
VERTEX
  5
1D6
330
164
100
AcDbEntity
  8
1_ANYTOOL_1MMDEEP_LABELS_S
100
AcDbVertex
100
AcDb2dVertex
 10
65.53498535143873
 20
2.280532767442997
 30
0.0
  0
VERTEX
  5
1D7
330
164
100
AcDbEntity
  8
1_ANYTOOL_1MMDEEP_LABELS_S
100
AcDbVertex
100
AcDb2dVertex
 10
65.38727678559053
 20
2.219522025255515
 30
0.0
  0
VERTEX
  5
1D8
330
164
100
AcDbEntity
  8
1_ANYTOOL_1MMDEEP_LABELS_S
100
AcDbVertex
100
AcDb2dVertex
 10
65.23799874429588
 20
2.161001517443031
 30
0.0
  0
VERTEX
  5
1D9
330
164
100
AcDbEntity
  8
1_ANYTOOL_1MMDEEP_LABELS_S
100
AcDbVertex
100
AcDb2dVertex
 10
65.08715122755481
 20
2.104971244005547
 30
0.0
  0
VERTEX
  5
1DA
330
164
100
AcDbEntity
  8
1_ANYTOOL_1MMDEEP_LABELS_S
100
AcDbVertex
100
AcDb2dVertex
 10
64.93473423536732
 20
2.051431204943063
 30
0.0
  0
VERTEX
  5
1DB
330
164
100
AcDbEntity
  8
1_ANYTOOL_1MMDEEP_LABELS_S
100
AcDbVertex
100
AcDb2dVertex
 10
64.78074776773339
 20
2.000381400255577
 30
0.0
  0
VERTEX
  5
1DC
330
164
100
AcDbEntity
  8
1_ANYTOOL_1MMDEEP_LABELS_S
100
AcDbVertex
100
AcDb2dVertex
 10
64.46806640612624
 20
1.905752494005604
 30
0.0
  0
VERTEX
  5
1DD
330
164
100
AcDbEntity
  8
1_ANYTOOL_1MMDEEP_LABELS_S
100
AcDbVertex
100
AcDb2dVertex
 10
64.14910714273338
 20
1.821084525255628
 30
0.0
  0
VERTEX
  5
1DE
330
164
100
AcDbEntity
  8
1_ANYTOOL_1MMDEEP_LABELS_S
100
AcDbVertex
100
AcDb2dVertex
 10
63.82386997755481
 20
1.74637749400565
 30
0.0
  0
VERTEX
  5
1DF
330
164
100
AcDbEntity
  8
1_ANYTOOL_1MMDEEP_LABELS_S
100
AcDbVertex
100
AcDb2dVertex
 10
63.49235491059053
 20
1.681631400255668
 30
0.0
  0
VERTEX
  5
1E0
330
164
100
AcDbEntity
  8
1_ANYTOOL_1MMDEEP_LABELS_S
100
AcDbVertex
100
AcDb2dVertex
 10
63.15456194184053
 20
1.626846244005684
 30
0.0
  0
VERTEX
  5
1E1
330
164
100
AcDbEntity
  8
1_ANYTOOL_1MMDEEP_LABELS_S
100
AcDbVertex
100
AcDb2dVertex
 10
62.81049107130482
 20
1.582022025255696
 30
0.0
  0
VERTEX
  5
1E2
330
164
100
AcDbEntity
  8
1_ANYTOOL_1MMDEEP_LABELS_S
100
AcDbVertex
100
AcDb2dVertex
 10
62.46014229898339
 20
1.547158744005706
 30
0.0
  0
VERTEX
  5
1E3
330
164
100
AcDbEntity
  8
1_ANYTOOL_1MMDEEP_LABELS_S
100
AcDbVertex
100
AcDb2dVertex
 10
62.10351562487624
 20
1.522256400255714
 30
0.0
  0
VERTEX
  5
1E4
330
164
100
AcDbEntity
  8
1_ANYTOOL_1MMDEEP_LABELS_S
100
AcDbVertex
100
AcDb2dVertex
 10
61.74061104898338
 20
1.507314994005718
 30
0.0
  0
VERTEX
  5
1E5
330
164
100
AcDbEntity
  8
1_ANYTOOL_1MMDEEP_LABELS_S
100
AcDbVertex
100
AcDb2dVertex
 10
61.37142857130482
 20
1.502334525255719
 30
0.0
  0
VERTEX
  5
1E6
330
164
100
AcDbEntity
  8
1_ANYTOOL_1MMDEEP_LABELS_S
100
AcDbVertex
100
AcDb2dVertex
 10
60.98902064719768
 20
1.507398699362859
 30
0.0
  0
VERTEX
  5
1E7
330
164
100
AcDbEntity
  8
1_ANYTOOL_1MMDEEP_LABELS_S
100
AcDbVertex
100
AcDb2dVertex
 10
60.61322544630482
 20
1.52259122168428
 30
0.0
  0
VERTEX
  5
1E8
330
164
100
AcDbEntity
  8
1_ANYTOOL_1MMDEEP_LABELS_S
100
AcDbVertex
100
AcDb2dVertex
 10
60.24404296862625
 20
1.547912092219981
 30
0.0
  0
VERTEX
  5
1E9
330
164
100
AcDbEntity
  8
1_ANYTOOL_1MMDEEP_LABELS_S
100
AcDbVertex
100
AcDb2dVertex
 10
59.88147321416196
 20
1.583361310969963
 30
0.0
  0
VERTEX
  5
1EA
330
164
100
AcDbEntity
  8
1_ANYTOOL_1MMDEEP_LABELS_S
100
AcDbVertex
100
AcDb2dVertex
 10
59.52551618291196
 20
1.628938877934225
 30
0.0
  0
VERTEX
  5
1EB
330
164
100
AcDbEntity
  8
1_ANYTOOL_1MMDEEP_LABELS_S
100
AcDbVertex
100
AcDb2dVertex
 10
59.17617187487625
 20
1.684644793112767
 30
0.0
  0
VERTEX
  5
1EC
330
164
100
AcDbEntity
  8
1_ANYTOOL_1MMDEEP_LABELS_S
100
AcDbVertex
100
AcDb2dVertex
 10
58.83344029005482
 20
1.75047905650559
 30
0.0
  0
VERTEX
  5
1ED
330
164
100
AcDbEntity
  8
1_ANYTOOL_1MMDEEP_LABELS_S
100
AcDbVertex
100
AcDb2dVertex
 10
58.49732142844768
 20
1.826441668112693
 30
0.0
  0
VERTEX
  5
1EE
330
164
100
AcDbEntity
  8
1_ANYTOOL_1MMDEEP_LABELS_S
100
AcDbVertex
100
AcDb2dVertex
 10
58.16781529005482
 20
1.912532627934077
 30
0.0
  0
VERTEX
  5
1EF
330
164
100
AcDbEntity
  8
1_ANYTOOL_1MMDEEP_LABELS_S
100
AcDbVertex
100
AcDb2dVertex
 10
57.84492187487624
 20
2.008751935969741
 30
0.0
  0
VERTEX
  5
1F0
330
164
100
AcDbEntity
  8
1_ANYTOOL_1MMDEEP_LABELS_S
100
AcDbVertex
100
AcDb2dVertex
 10
57.68595493849232
 20
2.060659720567928
 30
0.0
  0
VERTEX
  5
1F1
330
164
100
AcDbEntity
  8
1_ANYTOOL_1MMDEEP_LABELS_S
100
AcDbVertex
100
AcDb2dVertex
 10
57.52864118291195
 20
2.115099592219686
 30
0.0
  0
VERTEX
  5
1F2
330
164
100
AcDbEntity
  8
1_ANYTOOL_1MMDEEP_LABELS_S
100
AcDbVertex
100
AcDb2dVertex
 10
57.37298060813517
 20
2.172071550925013
 30
0.0
  0
VERTEX
  5
1F3
330
164
100
AcDbEntity
  8
1_ANYTOOL_1MMDEEP_LABELS_S
100
AcDbVertex
100
AcDb2dVertex
 10
57.21897321416196
 20
2.231575596683911
 30
0.0
  0
VERTEX
  5
1F4
330
164
100
AcDbEntity
  8
1_ANYTOOL_1MMDEEP_LABELS_S
100
AcDbVertex
100
AcDb2dVertex
 10
57.06661900099232
 20
2.293611729496378
 30
0.0
  0
VERTEX
  5
1F5
330
164
100
AcDbEntity
  8
1_ANYTOOL_1MMDEEP_LABELS_S
100
AcDbVertex
100
AcDb2dVertex
 10
56.91591796862625
 20
2.358179949362416
 30
0.0
  0
VERTEX
  5
1F6
330
164
100
AcDbEntity
  8
1_ANYTOOL_1MMDEEP_LABELS_S
100
AcDbVertex
100
AcDb2dVertex
 10
56.76687011706375
 20
2.425280256282024
 30
0.0
  0
VERTEX
  5
1F7
330
164
100
AcDbEntity
  8
1_ANYTOOL_1MMDEEP_LABELS_S
100
AcDbVertex
100
AcDb2dVertex
 10
56.61947544630482
 20
2.494912650255202
 30
0.0
  0
VERTEX
  5
1F8
330
164
100
AcDbEntity
  8
1_ANYTOOL_1MMDEEP_LABELS_S
100
AcDbVertex
100
AcDb2dVertex
 10
56.47373395634946
 20
2.56707713128195
 30
0.0
  0
VERTEX
  5
1F9
330
164
100
AcDbEntity
  8
1_ANYTOOL_1MMDEEP_LABELS_S
100
AcDbVertex
100
AcDb2dVertex
 10
56.32964564719767
 20
2.641773699362268
 30
0.0
  0
VERTEX
  5
1FA
330
164
100
AcDbEntity
  8
1_ANYTOOL_1MMDEEP_LABELS_S
100
AcDbVertex
100
AcDb2dVertex
 10
56.18721051884945
 20
2.719002354496157
 30
0.0
  0
VERTEX
  5
1FB
330
164
100
AcDbEntity
  8
1_ANYTOOL_1MMDEEP_LABELS_S
100
AcDbVertex
100
AcDb2dVertex
 10
56.04642857130482
 20
2.798763096683615
 30
0.0
  0
VERTEX
  5
1FC
330
164
100
AcDbEntity
  8
1_ANYTOOL_1MMDEEP_LABELS_S
100
AcDbVertex
100
AcDb2dVertex
 10
55.90729980456375
 20
2.881055925924644
 30
0.0
  0
VERTEX
  5
1FD
330
164
100
AcDbEntity
  8
1_ANYTOOL_1MMDEEP_LABELS_S
100
AcDbVertex
100
AcDb2dVertex
 10
55.76982421862625
 20
2.965880842219242
 30
0.0
  0
VERTEX
  5
1FE
330
164
100
AcDbEntity
  8
1_ANYTOOL_1MMDEEP_LABELS_S
100
AcDbVertex
100
AcDb2dVertex
 10
55.63400181349232
 20
3.053237845567411
 30
0.0
  0
VERTEX
  5
1FF
330
164
100
AcDbEntity
  8
1_ANYTOOL_1MMDEEP_LABELS_S
100
AcDbVertex
100
AcDb2dVertex
 10
55.49983258916196
 20
3.14312693596915
 30
0.0
  0
VERTEX
  5
200
330
164
100
AcDbEntity
  8
1_ANYTOOL_1MMDEEP_LABELS_S
100
AcDbVertex
100
AcDb2dVertex
 10
55.36731654563518
 20
3.235548113424459
 30
0.0
  0
VERTEX
  5
201
330
164
100
AcDbEntity
  8
1_ANYTOOL_1MMDEEP_LABELS_S
100
AcDbVertex
100
AcDb2dVertex
 10
55.23645368291196
 20
3.330501377933338
 30
0.0
  0
VERTEX
  5
202
330
164
100
AcDbEntity
  8
1_ANYTOOL_1MMDEEP_LABELS_S
100
AcDbVertex
100
AcDb2dVertex
 10
55.10724400099232
 20
3.427986729495787
 30
0.0
  0
VERTEX
  5
203
330
164
100
AcDbEntity
  8
1_ANYTOOL_1MMDEEP_LABELS_S
100
AcDbVertex
100
AcDb2dVertex
 10
54.97968749987625
 20
3.528004168111806
 30
0.0
  0
VERTEX
  5
204
330
164
100
AcDbEntity
  8
1_ANYTOOL_1MMDEEP_LABELS_S
100
AcDbVertex
100
AcDb2dVertex
 10
54.85378417956375
 20
3.630553693781396
 30
0.0
  0
VERTEX
  5
205
330
164
100
AcDbEntity
  8
1_ANYTOOL_1MMDEEP_LABELS_S
100
AcDbVertex
100
AcDb2dVertex
 10
54.72953404005482
 20
3.735635306504555
 30
0.0
  0
VERTEX
  5
206
330
164
100
AcDbEntity
  8
1_ANYTOOL_1MMDEEP_LABELS_S
100
AcDbVertex
100
AcDb2dVertex
 10
54.60693708134946
 20
3.843249006281285
 30
0.0
  0
VERTEX
  5
207
330
164
100
AcDbEntity
  8
1_ANYTOOL_1MMDEEP_LABELS_S
100
AcDbVertex
100
AcDb2dVertex
 10
54.48599330344768
 20
3.953394793111585
 30
0.0
  0
VERTEX
  5
208
330
164
100
AcDbEntity
  8
1_ANYTOOL_1MMDEEP_LABELS_S
100
AcDbVertex
100
AcDb2dVertex
 10
54.36670270634946
 20
4.066072666995455
 30
0.0
  0
VERTEX
  5
209
330
164
100
AcDbEntity
  8
1_ANYTOOL_1MMDEEP_LABELS_S
100
AcDbVertex
100
AcDb2dVertex
 10
54.24906529005482
 20
4.181282627932895
 30
0.0
  0
VERTEX
  5
20A
330
164
100
AcDbEntity
  8
1_ANYTOOL_1MMDEEP_LABELS_S
100
AcDbVertex
100
AcDb2dVertex
 10
54.13308105456375
 20
4.299024675923905
 30
0.0
  0
VERTEX
  5
20B
330
164
100
AcDbEntity
  8
1_ANYTOOL_1MMDEEP_LABELS_S
100
AcDbVertex
100
AcDb2dVertex
 10
54.01874999987625
 20
4.419298810968485
 30
0.0
  0
VERTEX
  5
20C
330
164
100
AcDbEntity
  8
1_ANYTOOL_1MMDEEP_LABELS_S
100
AcDbVertex
100
AcDb2dVertex
 10
53.90607212599232
 20
4.542105033066635
 30
0.0
  0
VERTEX
  5
20D
330
164
100
AcDbEntity
  8
1_ANYTOOL_1MMDEEP_LABELS_S
100
AcDbVertex
100
AcDb2dVertex
 10
53.79504743291196
 20
4.667443342218355
 30
0.0
  0
VERTEX
  5
20E
330
164
100
AcDbEntity
  8
1_ANYTOOL_1MMDEEP_LABELS_S
100
AcDbVertex
100
AcDb2dVertex
 10
53.57795758916196
 20
4.925716221682507
 30
0.0
  0
VERTEX
  5
20F
330
164
100
AcDbEntity
  8
1_ANYTOOL_1MMDEEP_LABELS_S
100
AcDbVertex
100
AcDb2dVertex
 10
53.36748046862625
 20
5.194117449360938
 30
0.0
  0
VERTEX
  5
210
330
164
100
AcDbEntity
  8
1_ANYTOOL_1MMDEEP_LABELS_S
100
AcDbVertex
100
AcDb2dVertex
 10
53.16361607130482
 20
5.47264702525365
 30
0.0
  0
VERTEX
  5
211
330
164
100
AcDbEntity
  8
1_ANYTOOL_1MMDEEP_LABELS_S
100
AcDbVertex
100
AcDb2dVertex
 10
52.96636439719768
 20
5.761304949360643
 30
0.0
  0
VERTEX
  5
212
330
164
100
AcDbEntity
  8
1_ANYTOOL_1MMDEEP_LABELS_S
100
AcDbVertex
100
AcDb2dVertex
 10
52.77572544630482
 20
6.060091221681915
 30
0.0
  0
VERTEX
  5
213
330
164
100
AcDbEntity
  8
1_ANYTOOL_1MMDEEP_LABELS_S
100
AcDbVertex
100
AcDb2dVertex
 10
52.59169921862625
 20
6.369005842217469
 30
0.0
  0
VERTEX
  5
214
330
164
100
AcDbEntity
  8
1_ANYTOOL_1MMDEEP_LABELS_S
100
AcDbVertex
100
AcDb2dVertex
 10
52.41428571416196
 20
6.688048810967302
 30
0.0
  0
VERTEX
  5
215
330
164
100
AcDbEntity
  8
1_ANYTOOL_1MMDEEP_LABELS_S
100
AcDbVertex
100
AcDb2dVertex
 10
52.08214285701911
 20
7.336430507396415
 30
0.0
  0
VERTEX
  5
216
330
164
100
AcDbEntity
  8
1_ANYTOOL_1MMDEEP_LABELS_S
100
AcDbVertex
100
AcDb2dVertex
 10
51.77142857130482
 20
7.985147025254037
 30
0.0
  0
VERTEX
  5
217
330
164
100
AcDbEntity
  8
1_ANYTOOL_1MMDEEP_LABELS_S
100
AcDbVertex
100
AcDb2dVertex
 10
51.48214285701911
 20
8.634198364540168
 30
0.0
  0
VERTEX
  5
218
330
164
100
AcDbEntity
  8
1_ANYTOOL_1MMDEEP_LABELS_S
100
AcDbVertex
100
AcDb2dVertex
 10
51.21428571416197
 20
9.28358452525481
 30
0.0
  0
VERTEX
  5
219
330
164
100
AcDbEntity
  8
1_ANYTOOL_1MMDEEP_LABELS_S
100
AcDbVertex
100
AcDb2dVertex
 10
50.96785714273339
 20
9.93330550739796
 30
0.0
  0
VERTEX
  5
21A
330
164
100
AcDbEntity
  8
1_ANYTOOL_1MMDEEP_LABELS_S
100
AcDbVertex
100
AcDb2dVertex
 10
50.7428571427334
 20
10.58336131096962
 30
0.0
  0
VERTEX
  5
21B
330
164
100
AcDbEntity
  8
1_ANYTOOL_1MMDEEP_LABELS_S
100
AcDbVertex
100
AcDb2dVertex
 10
50.53928571416197
 20
11.23375193596979
 30
0.0
  0
VERTEX
  5
21C
330
164
100
AcDbEntity
  8
1_ANYTOOL_1MMDEEP_LABELS_S
100
AcDbVertex
100
AcDb2dVertex
 10
50.35714285701911
 20
11.88447738239847
 30
0.0
  0
VERTEX
  5
21D
330
164
100
AcDbEntity
  8
1_ANYTOOL_1MMDEEP_LABELS_S
100
AcDbVertex
100
AcDb2dVertex
 10
50.19642857130483
 20
12.53553765025566
 30
0.0
  0
VERTEX
  5
21E
330
164
100
AcDbEntity
  8
1_ANYTOOL_1MMDEEP_LABELS_S
100
AcDbVertex
100
AcDb2dVertex
 10
50.05714285701912
 20
13.18693273954136
 30
0.0
  0
VERTEX
  5
21F
330
164
100
AcDbEntity
  8
1_ANYTOOL_1MMDEEP_LABELS_S
100
AcDbVertex
100
AcDb2dVertex
 10
49.93928571416197
 20
13.83866265025557
 30
0.0
  0
VERTEX
  5
220
330
164
100
AcDbEntity
  8
1_ANYTOOL_1MMDEEP_LABELS_S
100
AcDbVertex
100
AcDb2dVertex
 10
49.8428571427334
 20
14.49072738239829
 30
0.0
  0
VERTEX
  5
221
330
164
100
AcDbEntity
  8
1_ANYTOOL_1MMDEEP_LABELS_S
100
AcDbVertex
100
AcDb2dVertex
 10
49.7678571427334
 20
15.14312693596952
 30
0.0
  0
VERTEX
  5
222
330
164
100
AcDbEntity
  8
1_ANYTOOL_1MMDEEP_LABELS_S
100
AcDbVertex
100
AcDb2dVertex
 10
49.71428571416197
 20
15.79586131096926
 30
0.0
  0
VERTEX
  5
223
330
164
100
AcDbEntity
  8
1_ANYTOOL_1MMDEEP_LABELS_S
100
AcDbVertex
100
AcDb2dVertex
 10
49.68214285701912
 20
16.44893050739751
 30
0.0
  0
VERTEX
  5
224
330
164
100
AcDbEntity
  8
1_ANYTOOL_1MMDEEP_LABELS_S
100
AcDbVertex
100
AcDb2dVertex
 10
49.67142857130483
 20
17.10233452525426
 30
0.0
  0
VERTEX
  5
225
330
164
100
AcDbEntity
  8
1_ANYTOOL_1MMDEEP_LABELS_S
100
AcDbVertex
100
AcDb2dVertex
 10
49.68264508916197
 20
17.79574970382558
 30
0.0
  0
VERTEX
  5
226
330
164
100
AcDbEntity
  8
1_ANYTOOL_1MMDEEP_LABELS_S
100
AcDbVertex
100
AcDb2dVertex
 10
49.7162946427334
 20
18.48313809668264
 30
0.0
  0
VERTEX
  5
227
330
164
100
AcDbEntity
  8
1_ANYTOOL_1MMDEEP_LABELS_S
100
AcDbVertex
100
AcDb2dVertex
 10
49.77237723201912
 20
19.16449970382544
 30
0.0
  0
VERTEX
  5
228
330
164
100
AcDbEntity
  8
1_ANYTOOL_1MMDEEP_LABELS_S
100
AcDbVertex
100
AcDb2dVertex
 10
49.85089285701912
 20
19.83983452525399
 30
0.0
  0
VERTEX
  5
229
330
164
100
AcDbEntity
  8
1_ANYTOOL_1MMDEEP_LABELS_S
100
AcDbVertex
100
AcDb2dVertex
 10
49.95184151773341
 20
20.50914256096829
 30
0.0
  0
VERTEX
  5
22A
330
164
100
AcDbEntity
  8
1_ANYTOOL_1MMDEEP_LABELS_S
100
AcDbVertex
100
AcDb2dVertex
 10
50.07522321416197
 20
21.17242381096833
 30
0.0
  0
VERTEX
  5
22B
330
164
100
AcDbEntity
  8
1_ANYTOOL_1MMDEEP_LABELS_S
100
AcDbVertex
100
AcDb2dVertex
 10
50.22103794630483
 20
21.82967827525411
 30
0.0
  0
VERTEX
  5
22C
330
164
100
AcDbEntity
  8
1_ANYTOOL_1MMDEEP_LABELS_S
100
AcDbVertex
100
AcDb2dVertex
 10
50.38928571416197
 20
22.48090595382564
 30
0.0
  0
VERTEX
  5
22D
330
164
100
AcDbEntity
  8
1_ANYTOOL_1MMDEEP_LABELS_S
100
AcDbVertex
100
AcDb2dVertex
 10
50.5799665177334
 20
23.12610684668292
 30
0.0
  0
VERTEX
  5
22E
330
164
100
AcDbEntity
  8
1_ANYTOOL_1MMDEEP_LABELS_S
100
AcDbVertex
100
AcDb2dVertex
 10
50.79308035701911
 20
23.76528095382594
 30
0.0
  0
VERTEX
  5
22F
330
164
100
AcDbEntity
  8
1_ANYTOOL_1MMDEEP_LABELS_S
100
AcDbVertex
100
AcDb2dVertex
 10
51.02862723201911
 20
24.3984282752547
 30
0.0
  0
VERTEX
  5
230
330
164
100
AcDbEntity
  8
1_ANYTOOL_1MMDEEP_LABELS_S
100
AcDbVertex
100
AcDb2dVertex
 10
51.2866071427334
 20
25.02554881096921
 30
0.0
  0
VERTEX
  5
231
330
164
100
AcDbEntity
  8
1_ANYTOOL_1MMDEEP_LABELS_S
100
AcDbVertex
100
AcDb2dVertex
 10
51.56702008916197
 20
25.64664256096947
 30
0.0
  0
VERTEX
  5
232
330
164
100
AcDbEntity
  8
1_ANYTOOL_1MMDEEP_LABELS_S
100
AcDbVertex
100
AcDb2dVertex
 10
51.86986607130483
 20
26.26170952525547
 30
0.0
  0
VERTEX
  5
233
330
164
100
AcDbEntity
  8
1_ANYTOOL_1MMDEEP_LABELS_S
100
AcDbVertex
100
AcDb2dVertex
 10
52.19514508916197
 20
26.87074970382722
 30
0.0
  0
VERTEX
  5
234
330
164
100
AcDbEntity
  8
1_ANYTOOL_1MMDEEP_LABELS_S
100
AcDbVertex
100
AcDb2dVertex
 10
52.5428571427334
 20
27.47376309668471
 30
0.0
  0
VERTEX
  5
235
330
164
100
AcDbEntity
  8
1_ANYTOOL_1MMDEEP_LABELS_S
100
AcDbVertex
100
AcDb2dVertex
 10
52.72826450880482
 20
27.77171231543485
 30
0.0
  0
VERTEX
  5
236
330
164
100
AcDbEntity
  8
1_ANYTOOL_1MMDEEP_LABELS_S
100
AcDbVertex
100
AcDb2dVertex
 10
52.92020089273339
 20
28.06020282882784
 30
0.0
  0
VERTEX
  5
237
330
164
100
AcDbEntity
  8
1_ANYTOOL_1MMDEEP_LABELS_S
100
AcDbVertex
100
AcDb2dVertex
 10
53.11866629451911
 20
28.33923463686369
 30
0.0
  0
VERTEX
  5
238
330
164
100
AcDbEntity
  8
1_ANYTOOL_1MMDEEP_LABELS_S
100
AcDbVertex
100
AcDb2dVertex
 10
53.32366071416197
 20
28.60880773954239
 30
0.0
  0
VERTEX
  5
239
330
164
100
AcDbEntity
  8
1_ANYTOOL_1MMDEEP_LABELS_S
100
AcDbVertex
100
AcDb2dVertex
 10
53.53518415166197
 20
28.86892213686394
 30
0.0
  0
VERTEX
  5
23A
330
164
100
AcDbEntity
  8
1_ANYTOOL_1MMDEEP_LABELS_S
100
AcDbVertex
100
AcDb2dVertex
 10
53.75323660701911
 20
29.11957782882834
 30
0.0
  0
VERTEX
  5
23B
330
164
100
AcDbEntity
  8
1_ANYTOOL_1MMDEEP_LABELS_S
100
AcDbVertex
100
AcDb2dVertex
 10
53.9778180802334
 20
29.3607748154356
 30
0.0
  0
VERTEX
  5
23C
330
164
100
AcDbEntity
  8
1_ANYTOOL_1MMDEEP_LABELS_S
100
AcDbVertex
100
AcDb2dVertex
 10
54.20892857130482
 20
29.59251309668571
 30
0.0
  0
VERTEX
  5
23D
330
164
100
AcDbEntity
  8
1_ANYTOOL_1MMDEEP_LABELS_S
100
AcDbVertex
100
AcDb2dVertex
 10
54.32693219853697
 20
29.70483522280183
 30
0.0
  0
VERTEX
  5
23E
330
164
100
AcDbEntity
  8
1_ANYTOOL_1MMDEEP_LABELS_S
100
AcDbVertex
100
AcDb2dVertex
 10
54.4465680802334
 20
29.81479267257867
 30
0.0
  0
VERTEX
  5
23F
330
164
100
AcDbEntity
  8
1_ANYTOOL_1MMDEEP_LABELS_S
100
AcDbVertex
100
AcDb2dVertex
 10
54.56783621639411
 20
29.92238544601622
 30
0.0
  0
VERTEX
  5
240
330
164
100
AcDbEntity
  8
1_ANYTOOL_1MMDEEP_LABELS_S
100
AcDbVertex
100
AcDb2dVertex
 10
54.69073660701911
 20
30.02761354311448
 30
0.0
  0
VERTEX
  5
241
330
164
100
AcDbEntity
  8
1_ANYTOOL_1MMDEEP_LABELS_S
100
AcDbVertex
100
AcDb2dVertex
 10
54.81526925210839
 20
30.13047696387346
 30
0.0
  0
VERTEX
  5
242
330
164
100
AcDbEntity
  8
1_ANYTOOL_1MMDEEP_LABELS_S
100
AcDbVertex
100
AcDb2dVertex
 10
54.94143415166197
 20
30.23097570829315
 30
0.0
  0
VERTEX
  5
243
330
164
100
AcDbEntity
  8
1_ANYTOOL_1MMDEEP_LABELS_S
100
AcDbVertex
100
AcDb2dVertex
 10
55.06923130567982
 20
30.32910977637356
 30
0.0
  0
VERTEX
  5
244
330
164
100
AcDbEntity
  8
1_ANYTOOL_1MMDEEP_LABELS_S
100
AcDbVertex
100
AcDb2dVertex
 10
55.19866071416197
 20
30.42487916811467
 30
0.0
  0
VERTEX
  5
245
330
164
100
AcDbEntity
  8
1_ANYTOOL_1MMDEEP_LABELS_S
100
AcDbVertex
100
AcDb2dVertex
 10
55.3297223771084
 20
30.5182838835165
 30
0.0
  0
VERTEX
  5
246
330
164
100
AcDbEntity
  8
1_ANYTOOL_1MMDEEP_LABELS_S
100
AcDbVertex
100
AcDb2dVertex
 10
55.46241629451911
 20
30.60932392257904
 30
0.0
  0
VERTEX
  5
247
330
164
100
AcDbEntity
  8
1_ANYTOOL_1MMDEEP_LABELS_S
100
AcDbVertex
100
AcDb2dVertex
 10
55.5967424663941
 20
30.6979992853023
 30
0.0
  0
VERTEX
  5
248
330
164
100
AcDbEntity
  8
1_ANYTOOL_1MMDEEP_LABELS_S
100
AcDbVertex
100
AcDb2dVertex
 10
55.73270089273339
 20
30.78430997168627
 30
0.0
  0
VERTEX
  5
249
330
164
100
AcDbEntity
  8
1_ANYTOOL_1MMDEEP_LABELS_S
100
AcDbVertex
100
AcDb2dVertex
 10
55.87029157353696
 20
30.86825598173095
 30
0.0
  0
VERTEX
  5
24A
330
164
100
AcDbEntity
  8
1_ANYTOOL_1MMDEEP_LABELS_S
100
AcDbVertex
100
AcDb2dVertex
 10
56.00951450880482
 20
30.94983731543635
 30
0.0
  0
VERTEX
  5
24B
330
164
100
AcDbEntity
  8
1_ANYTOOL_1MMDEEP_LABELS_S
100
AcDbVertex
100
AcDb2dVertex
 10
56.15036969853696
 20
31.02905397280246
 30
0.0
  0
VERTEX
  5
24C
330
164
100
AcDbEntity
  8
1_ANYTOOL_1MMDEEP_LABELS_S
100
AcDbVertex
100
AcDb2dVertex
 10
56.2928571427334
 20
31.10590595382928
 30
0.0
  0
VERTEX
  5
24D
330
164
100
AcDbEntity
  8
1_ANYTOOL_1MMDEEP_LABELS_S
100
AcDbVertex
100
AcDb2dVertex
 10
56.43697684139411
 20
31.18039325851682
 30
0.0
  0
VERTEX
  5
24E
330
164
100
AcDbEntity
  8
1_ANYTOOL_1MMDEEP_LABELS_S
100
AcDbVertex
100
AcDb2dVertex
 10
56.58272879451911
 20
31.25251588686506
 30
0.0
  0
VERTEX
  5
24F
330
164
100
AcDbEntity
  8
1_ANYTOOL_1MMDEEP_LABELS_S
100
AcDbVertex
100
AcDb2dVertex
 10
56.87912946416196
 20
31.3896671145437
 30
0.0
  0
VERTEX
  5
250
330
164
100
AcDbEntity
  8
1_ANYTOOL_1MMDEEP_LABELS_S
100
AcDbVertex
100
AcDb2dVertex
 10
57.18205915166196
 20
31.51735963686519
 30
0.0
  0
VERTEX
  5
251
330
164
100
AcDbEntity
  8
1_ANYTOOL_1MMDEEP_LABELS_S
100
AcDbVertex
100
AcDb2dVertex
 10
57.49151785701911
 20
31.63559345382953
 30
0.0
  0
VERTEX
  5
252
330
164
100
AcDbEntity
  8
1_ANYTOOL_1MMDEEP_LABELS_S
100
AcDbVertex
100
AcDb2dVertex
 10
57.8075055802334
 20
31.74436856543672
 30
0.0
  0
VERTEX
  5
253
330
164
100
AcDbEntity
  8
1_ANYTOOL_1MMDEEP_LABELS_S
100
AcDbVertex
100
AcDb2dVertex
 10
58.13002232130483
 20
31.84368497168677
 30
0.0
  0
VERTEX
  5
254
330
164
100
AcDbEntity
  8
1_ANYTOOL_1MMDEEP_LABELS_S
100
AcDbVertex
100
AcDb2dVertex
 10
58.45906808023339
 20
31.93354267257967
 30
0.0
  0
VERTEX
  5
255
330
164
100
AcDbEntity
  8
1_ANYTOOL_1MMDEEP_LABELS_S
100
AcDbVertex
100
AcDb2dVertex
 10
58.79464285701911
 20
32.01394166811542
 30
0.0
  0
VERTEX
  5
256
330
164
100
AcDbEntity
  8
1_ANYTOOL_1MMDEEP_LABELS_S
100
AcDbVertex
100
AcDb2dVertex
 10
59.13674665166197
 20
32.08488195829403
 30
0.0
  0
VERTEX
  5
257
330
164
100
AcDbEntity
  8
1_ANYTOOL_1MMDEEP_LABELS_S
100
AcDbVertex
100
AcDb2dVertex
 10
59.48537946416197
 20
32.14636354311548
 30
0.0
  0
VERTEX
  5
258
330
164
100
AcDbEntity
  8
1_ANYTOOL_1MMDEEP_LABELS_S
100
AcDbVertex
100
AcDb2dVertex
 10
59.84054129451912
 20
32.19838642257979
 30
0.0
  0
VERTEX
  5
259
330
164
100
AcDbEntity
  8
1_ANYTOOL_1MMDEEP_LABELS_S
100
AcDbVertex
100
AcDb2dVertex
 10
60.2022321427334
 20
32.24095059668696
 30
0.0
  0
VERTEX
  5
25A
330
164
100
AcDbEntity
  8
1_ANYTOOL_1MMDEEP_LABELS_S
100
AcDbVertex
100
AcDb2dVertex
 10
60.57045200880482
 20
32.27405606543697
 30
0.0
  0
VERTEX
  5
25B
330
164
100
AcDbEntity
  8
1_ANYTOOL_1MMDEEP_LABELS_S
100
AcDbVertex
100
AcDb2dVertex
 10
60.9452008927334
 20
32.29770282882984
 30
0.0
  0
VERTEX
  5
25C
330
164
100
AcDbEntity
  8
1_ANYTOOL_1MMDEEP_LABELS_S
100
AcDbVertex
100
AcDb2dVertex
 10
61.32647879451912
 20
32.31189088686556
 30
0.0
  0
SEQEND
  5
25D
330
164
100
AcDbEntity
  8
1_ANYTOOL_1MMDEEP_LABELS_S
  0
LINE
  5
25E
330
1F
100
AcDbEntity
  8
1_ANYTOOL_1MMDEEP_LABELS_S
100
AcDbLine
 10
45.64285714273339
 20
15.85947738240066
 30
0.0
 11
36.85714285701911
 21
15.77376309668762
 31
0.0
  0
POLYLINE
  5
25F
330
1F
100
AcDbEntity
  8
1_ANYTOOL_1MMDEEP_LABELS_S
100
AcDb2dPolyline
 66
     1
 10
0.0
 20
0.0
 30
0.0
  0
VERTEX
  5
260
330
25F
100
AcDbEntity
  8
1_ANYTOOL_1MMDEEP_LABELS_S
100
AcDbVertex
100
AcDb2dVertex
 10
1.285714285590529
 20
31.97376309668471
 30
0.0
  0
VERTEX
  5
261
330
25F
100
AcDbEntity
  8
1_ANYTOOL_1MMDEEP_LABELS_S
100
AcDbVertex
100
AcDb2dVertex
 10
8.999999999876252
 20
1.973763096684706
 30
0.0
  0
VERTEX
  5
262
330
25F
100
AcDbEntity
  8
1_ANYTOOL_1MMDEEP_LABELS_S
100
AcDbVertex
100
AcDb2dVertex
 10
17.4428571427334
 20
31.07376309668325
 30
0.0
  0
VERTEX
  5
263
330
25F
100
AcDbEntity
  8
1_ANYTOOL_1MMDEEP_LABELS_S
100
AcDbVertex
100
AcDb2dVertex
 10
25.92857142844767
 20
1.973763096684706
 30
0.0
  0
VERTEX
  5
264
330
25F
100
AcDbEntity
  8
1_ANYTOOL_1MMDEEP_LABELS_S
100
AcDbVertex
100
AcDb2dVertex
 10
33.4285714284477
 20
31.97376309668471
 30
0.0
  0
SEQEND
  5
265
330
25F
100
AcDbEntity
  8
1_ANYTOOL_1MMDEEP_LABELS_S
  0
POLYLINE
  5
267
330
1F
100
AcDbEntity
  8
5_ANYTOOL_HALF_MILL_9MM_IN
100
AcDb2dPolyline
 66
     1
 10
0.0
 20
0.0
 30
0.0000000000235829
 70
     1
  0
VERTEX
  5
268
330
267
100
AcDbEntity
  8
5_ANYTOOL_HALF_MILL_9MM_IN
100
AcDbVertex
100
AcDb2dVertex
 10
171.6249936850239
 20
69.85377512916602
 30
0.0000000000235829
 42
0.4142135623728723
  0
VERTEX
  5
269
330
267
100
AcDbEntity
  8
5_ANYTOOL_HALF_MILL_9MM_IN
100
AcDbVertex
100
AcDb2dVertex
 10
165.6249936850285
 20
63.85377512916602
 30
0.0000000000235829
  0
VERTEX
  5
26A
330
267
100
AcDbEntity
  8
5_ANYTOOL_HALF_MILL_9MM_IN
100
AcDbVertex
100
AcDb2dVertex
 10
165.6249936850239
 20
57.35377512912237
 30
0.0000000000235829
 42
0.4142135623729155
  0
VERTEX
  5
26B
330
267
100
AcDbEntity
  8
5_ANYTOOL_HALF_MILL_9MM_IN
100
AcDbVertex
100
AcDb2dVertex
 10
171.6249936850239
 20
51.35377512911873
 30
0.0000000000235829
  0
VERTEX
  5
26C
330
267
100
AcDbEntity
  8
5_ANYTOOL_HALF_MILL_9MM_IN
100
AcDbVertex
100
AcDb2dVertex
 10
220.3749936850251
 20
51.35377512912237
 30
0.0000000000235829
 42
0.414213562372501
  0
VERTEX
  5
26D
330
267
100
AcDbEntity
  8
5_ANYTOOL_HALF_MILL_9MM_IN
100
AcDbVertex
100
AcDb2dVertex
 10
226.3749936850274
 20
57.35377512912237
 30
0.0000000000235829
  0
VERTEX
  5
26E
330
267
100
AcDbEntity
  8
5_ANYTOOL_HALF_MILL_9MM_IN
100
AcDbVertex
100
AcDb2dVertex
 10
226.3749936850251
 20
63.85377512916602
 30
0.0000000000235829
 42
0.4142135623724612
  0
VERTEX
  5
26F
330
267
100
AcDbEntity
  8
5_ANYTOOL_HALF_MILL_9MM_IN
100
AcDbVertex
100
AcDb2dVertex
 10
220.3749936850251
 20
69.85377512916449
 30
0.0000000000235829
  0
SEQEND
  5
270
330
267
100
AcDbEntity
  8
5_ANYTOOL_HALF_MILL_9MM_IN
  0
POLYLINE
  5
271
330
1F
100
AcDbEntity
  8
5_ANYTOOL_HALF_MILL_9MM_IN
100
AcDb2dPolyline
 66
     1
 10
0.0
 20
0.0
 30
0.0000000000235829
 70
     1
  0
VERTEX
  5
272
330
271
100
AcDbEntity
  8
5_ANYTOOL_HALF_MILL_9MM_IN
100
AcDbVertex
100
AcDb2dVertex
 10
-220.3750063150339
 20
69.85377512916602
 30
0.0000000000235829
 42
0.4142135623717116
  0
VERTEX
  5
273
330
271
100
AcDbEntity
  8
5_ANYTOOL_HALF_MILL_9MM_IN
100
AcDbVertex
100
AcDb2dVertex
 10
-226.3750063150347
 20
63.85377512916602
 30
0.0000000000235829
  0
VERTEX
  5
274
330
271
100
AcDbEntity
  8
5_ANYTOOL_HALF_MILL_9MM_IN
100
AcDbVertex
100
AcDb2dVertex
 10
-226.3750063150339
 20
57.35377512915147
 30
0.0000000000235829
 42
0.4142135623733266
  0
VERTEX
  5
275
330
271
100
AcDbEntity
  8
5_ANYTOOL_HALF_MILL_9MM_IN
100
AcDbVertex
100
AcDb2dVertex
 10
-220.3750063150339
 20
51.3537751291417
 30
0.0000000000235829
  0
VERTEX
  5
276
330
271
100
AcDbEntity
  8
5_ANYTOOL_HALF_MILL_9MM_IN
100
AcDbVertex
100
AcDb2dVertex
 10
-171.6250063150327
 20
51.35377512915147
 30
0.0000000000235829
 42
0.4142135623739945
  0
VERTEX
  5
277
330
271
100
AcDbEntity
  8
5_ANYTOOL_HALF_MILL_9MM_IN
100
AcDbVertex
100
AcDb2dVertex
 10
-165.6250063150434
 20
57.35377512915147
 30
0.0000000000235829
  0
VERTEX
  5
278
330
271
100
AcDbEntity
  8
5_ANYTOOL_HALF_MILL_9MM_IN
100
AcDbVertex
100
AcDb2dVertex
 10
-165.6250063150327
 20
63.85377512916602
 30
0.0000000000235829
 42
0.4142135623723777
  0
VERTEX
  5
279
330
271
100
AcDbEntity
  8
5_ANYTOOL_HALF_MILL_9MM_IN
100
AcDbVertex
100
AcDb2dVertex
 10
-171.6250063150327
 20
69.85377512916617
 30
0.0000000000235829
  0
SEQEND
  5
27A
330
271
100
AcDbEntity
  8
5_ANYTOOL_HALF_MILL_9MM_IN
  0
POLYLINE
  5
27B
330
1F
100
AcDbEntity
  8
5_ANYTOOL_HALF_MILL_9MM_IN
100
AcDb2dPolyline
 66
     1
 10
0.0
 20
0.0
 30
0.0000000000235829
 70
     1
  0
VERTEX
  5
27C
330
27B
100
AcDbEntity
  8
5_ANYTOOL_HALF_MILL_9MM_IN
100
AcDbVertex
100
AcDb2dVertex
 10
-428.3750063150343
 20
69.85377512912964
 30
0.0000000000235829
 42
0.4142135623729047
  0
VERTEX
  5
27D
330
27B
100
AcDbEntity
  8
5_ANYTOOL_HALF_MILL_9MM_IN
100
AcDbVertex
100
AcDb2dVertex
 10
-434.3750063150304
 20
63.85377512912964
 30
0.0000000000235829
  0
VERTEX
  5
27E
330
27B
100
AcDbEntity
  8
5_ANYTOOL_HALF_MILL_9MM_IN
100
AcDbVertex
100
AcDb2dVertex
 10
-434.3750063150343
 20
57.35377512911509
 30
0.0000000000235829
 42
0.4142135623718343
  0
VERTEX
  5
27F
330
27B
100
AcDbEntity
  8
5_ANYTOOL_HALF_MILL_9MM_IN
100
AcDbVertex
100
AcDb2dVertex
 10
-428.3750063150343
 20
51.35377512911833
 30
0.0000000000235829
  0
VERTEX
  5
280
330
27B
100
AcDbEntity
  8
5_ANYTOOL_HALF_MILL_9MM_IN
100
AcDbVertex
100
AcDb2dVertex
 10
-379.6250063150331
 20
51.35377512911509
 30
0.0000000000235829
 42
0.4142135623722685
  0
VERTEX
  5
281
330
27B
100
AcDbEntity
  8
5_ANYTOOL_HALF_MILL_9MM_IN
100
AcDbVertex
100
AcDb2dVertex
 10
-373.6250063150355
 20
57.35377512911509
 30
0.0000000000235829
  0
VERTEX
  5
282
330
27B
100
AcDbEntity
  8
5_ANYTOOL_HALF_MILL_9MM_IN
100
AcDbVertex
100
AcDb2dVertex
 10
-373.6250063150331
 20
63.85377512912964
 30
0.0000000000235829
 42
0.4142135623729832
  0
VERTEX
  5
283
330
27B
100
AcDbEntity
  8
5_ANYTOOL_HALF_MILL_9MM_IN
100
AcDbVertex
100
AcDb2dVertex
 10
-379.6250063150331
 20
69.85377512913192
 30
0.0000000000235829
  0
SEQEND
  5
284
330
27B
100
AcDbEntity
  8
5_ANYTOOL_HALF_MILL_9MM_IN
  0
POLYLINE
  5
285
330
1F
100
AcDbEntity
  8
5_ANYTOOL_HALF_MILL_9MM_IN
100
AcDb2dPolyline
 66
     1
 10
0.0
 20
0.0
 30
0.0000000000235829
 70
     1
  0
VERTEX
  5
286
330
285
100
AcDbEntity
  8
5_ANYTOOL_HALF_MILL_9MM_IN
100
AcDbVertex
100
AcDb2dVertex
 10
-24.37500631500512
 20
69.85377512843843
 30
0.0000000000235829
 42
0.4142135623739064
  0
VERTEX
  5
287
330
285
100
AcDbEntity
  8
5_ANYTOOL_HALF_MILL_9MM_IN
100
AcDbVertex
100
AcDb2dVertex
 10
-30.37500631499265
 20
63.85377512843843
 30
0.0000000000235829
  0
VERTEX
  5
288
330
285
100
AcDbEntity
  8
5_ANYTOOL_HALF_MILL_9MM_IN
100
AcDbVertex
100
AcDb2dVertex
 10
-30.37500631500512
 20
57.35377512842388
 30
0.0000000000235829
 42
0.4142135623728773
  0
VERTEX
  5
289
330
285
100
AcDbEntity
  8
5_ANYTOOL_HALF_MILL_9MM_IN
100
AcDbVertex
100
AcDb2dVertex
 10
-24.37500631500512
 20
51.35377512841941
 30
0.0000000000235829
  0
VERTEX
  5
28A
330
285
100
AcDbEntity
  8
5_ANYTOOL_HALF_MILL_9MM_IN
100
AcDbVertex
100
AcDb2dVertex
 10
24.37499368499601
 20
51.35377512842388
 30
0.0000000000235829
 42
0.4142135623723308
  0
VERTEX
  5
28B
330
285
100
AcDbEntity
  8
5_ANYTOOL_HALF_MILL_9MM_IN
100
AcDbVertex
100
AcDb2dVertex
 10
30.37499368499491
 20
57.35377512842388
 30
0.0000000000235829
  0
VERTEX
  5
28C
330
285
100
AcDbEntity
  8
5_ANYTOOL_HALF_MILL_9MM_IN
100
AcDbVertex
100
AcDb2dVertex
 10
30.37499368499601
 20
63.85377512843843
 30
0.0000000000235829
 42
0.4142135623733584
  0
VERTEX
  5
28D
330
285
100
AcDbEntity
  8
5_ANYTOOL_HALF_MILL_9MM_IN
100
AcDbVertex
100
AcDb2dVertex
 10
24.37499368499601
 20
69.85377512844758
 30
0.0000000000235829
  0
SEQEND
  5
28E
330
285
100
AcDbEntity
  8
5_ANYTOOL_HALF_MILL_9MM_IN
  0
POLYLINE
  5
28F
330
1F
100
AcDbEntity
  8
5_ANYTOOL_HALF_MILL_9MM_IN
100
AcDb2dPolyline
 66
     1
 10
0.0
 20
0.0
 30
0.0000000000062883
 70
     1
  0
VERTEX
  5
290
330
28F
100
AcDbEntity
  8
5_ANYTOOL_HALF_MILL_9MM_IN
100
AcDbVertex
100
AcDb2dVertex
 10
-594.250006315344
 20
-8.77122487303859
 30
0.0000000000062883
 42
0.4142135623734413
  0
VERTEX
  5
291
330
28F
100
AcDbEntity
  8
5_ANYTOOL_HALF_MILL_9MM_IN
100
AcDbVertex
100
AcDb2dVertex
 10
-600.2500063153366
 20
-14.77122487303859
 30
0.0000000000062883
  0
VERTEX
  5
292
330
28F
100
AcDbEntity
  8
5_ANYTOOL_HALF_MILL_9MM_IN
100
AcDbVertex
100
AcDb2dVertex
 10
-600.2500063153439
 20
-41.0212248730968
 30
0.0000000000062883
 42
0.4142135623722699
  0
VERTEX
  5
293
330
28F
100
AcDbEntity
  8
5_ANYTOOL_HALF_MILL_9MM_IN
100
AcDbVertex
100
AcDb2dVertex
 10
-594.2500063153439
 20
-47.02122487309924
 30
0.0000000000062883
  0
VERTEX
  5
294
330
28F
100
AcDbEntity
  8
5_ANYTOOL_HALF_MILL_9MM_IN
100
AcDbVertex
100
AcDb2dVertex
 10
-587.7500063152988
 20
-47.0212248730968
 30
0.0000000000062883
 42
0.4142135623723696
  0
VERTEX
  5
295
330
28F
100
AcDbEntity
  8
5_ANYTOOL_HALF_MILL_9MM_IN
100
AcDbVertex
100
AcDb2dVertex
 10
-581.7500063152992
 20
-41.0212248730968
 30
0.0000000000062883
  0
VERTEX
  5
296
330
28F
100
AcDbEntity
  8
5_ANYTOOL_HALF_MILL_9MM_IN
100
AcDbVertex
100
AcDb2dVertex
 10
-581.7500063152988
 20
-14.77122487303859
 30
0.0000000000062883
 42
0.4142135623733983
  0
VERTEX
  5
297
330
28F
100
AcDbEntity
  8
5_ANYTOOL_HALF_MILL_9MM_IN
100
AcDbVertex
100
AcDb2dVertex
 10
-587.750006315299
 20
-8.77122487302961
 30
0.0000000000062883
  0
SEQEND
  5
298
330
28F
100
AcDbEntity
  8
5_ANYTOOL_HALF_MILL_9MM_IN
  0
POLYLINE
  5
299
330
1F
100
AcDbEntity
  8
5_ANYTOOL_HALF_MILL_9MM_IN
100
AcDb2dPolyline
 66
     1
 10
0.0
 20
0.0
 30
0.0000000000102176
 70
     1
  0
VERTEX
  5
29A
330
299
100
AcDbEntity
  8
5_ANYTOOL_HALF_MILL_9MM_IN
100
AcDbVertex
100
AcDb2dVertex
 10
587.7499936852615
 20
-8.771224872944003
 30
0.0000000000102176
 42
0.4142135623725241
  0
VERTEX
  5
29B
330
299
100
AcDbEntity
  8
5_ANYTOOL_HALF_MILL_9MM_IN
100
AcDbVertex
100
AcDb2dVertex
 10
581.7499936852587
 20
-14.771224872944
 30
0.0000000000102176
  0
VERTEX
  5
29C
330
299
100
AcDbEntity
  8
5_ANYTOOL_HALF_MILL_9MM_IN
100
AcDbVertex
100
AcDb2dVertex
 10
581.7499936852614
 20
-41.02122487297311
 30
0.0000000000102176
 42
0.4142135623729897
  0
VERTEX
  5
29D
330
299
100
AcDbEntity
  8
5_ANYTOOL_HALF_MILL_9MM_IN
100
AcDbVertex
100
AcDb2dVertex
 10
587.7499936852614
 20
-47.02122487297515
 30
0.0000000000102176
  0
VERTEX
  5
29E
330
299
100
AcDbEntity
  8
5_ANYTOOL_HALF_MILL_9MM_IN
100
AcDbVertex
100
AcDb2dVertex
 10
594.249993685298
 20
-47.02122487297311
 30
0.0000000000102176
 42
0.414213562372325
  0
VERTEX
  5
29F
330
299
100
AcDbEntity
  8
5_ANYTOOL_HALF_MILL_9MM_IN
100
AcDbVertex
100
AcDb2dVertex
 10
600.2499936852969
 20
-41.02122487297311
 30
0.0000000000102176
  0
VERTEX
  5
2A0
330
299
100
AcDbEntity
  8
5_ANYTOOL_HALF_MILL_9MM_IN
100
AcDbVertex
100
AcDb2dVertex
 10
600.249993685298
 20
-14.771224872944
 30
0.0000000000102176
 42
0.4142135623718426
  0
VERTEX
  5
2A1
330
299
100
AcDbEntity
  8
5_ANYTOOL_HALF_MILL_9MM_IN
100
AcDbVertex
100
AcDb2dVertex
 10
594.2499936852979
 20
-8.771224872947755
 30
0.0000000000102176
  0
SEQEND
  5
2A2
330
299
100
AcDbEntity
  8
5_ANYTOOL_HALF_MILL_9MM_IN
  0
POLYLINE
  5
2A3
330
1F
100
AcDbEntity
  8
5_ANYTOOL_HALF_MILL_9MM_IN
100
AcDb2dPolyline
 66
     1
 10
0.0
 20
0.0
 30
0.0000000000088061
 70
     1
  0
VERTEX
  5
2A4
330
2A3
100
AcDbEntity
  8
5_ANYTOOL_HALF_MILL_9MM_IN
100
AcDbVertex
100
AcDb2dVertex
 10
-473.6500063148259
 20
-24.39622487298766
 30
0.0000000000088061
 42
1.000000000000342
  0
VERTEX
  5
2A5
330
2A3
100
AcDbEntity
  8
5_ANYTOOL_HALF_MILL_9MM_IN
100
AcDbVertex
100
AcDb2dVertex
 10
-516.1500063148296
 20
-24.39622487300221
 30
0.0000000000088061
  0
VERTEX
  5
2A6
330
2A3
100
AcDbEntity
  8
5_ANYTOOL_HALF_MILL_9MM_IN
100
AcDbVertex
100
AcDb2dVertex
 10
-516.1500063148253
 20
-30.64622487300221
 30
0.0000000000088061
  0
VERTEX
  5
2A7
330
2A3
100
AcDbEntity
  8
5_ANYTOOL_HALF_MILL_9MM_IN
100
AcDbVertex
100
AcDb2dVertex
 10
-473.6500063148241
 20
-30.64622487298766
 30
0.0000000000088061
  0
SEQEND
  5
2A8
330
2A3
100
AcDbEntity
  8
5_ANYTOOL_HALF_MILL_9MM_IN
  0
POLYLINE
  5
2A9
330
1F
100
AcDbEntity
  8
5_ANYTOOL_HALF_MILL_9MM_IN
100
AcDb2dPolyline
 66
     1
 10
0.0
 20
0.0
 30
0.0000000000088061
 70
     1
  0
VERTEX
  5
2AA
330
2A9
100
AcDbEntity
  8
5_ANYTOOL_HALF_MILL_9MM_IN
100
AcDbVertex
100
AcDb2dVertex
 10
-278.750006315038
 20
-24.39622487297311
 30
0.0000000000088061
 42
0.9999999999986303
  0
VERTEX
  5
2AB
330
2A9
100
AcDbEntity
  8
5_ANYTOOL_HALF_MILL_9MM_IN
100
AcDbVertex
100
AcDb2dVertex
 10
-321.2500063150196
 20
-24.39622487297311
 30
0.0000000000088061
  0
VERTEX
  5
2AC
330
2A9
100
AcDbEntity
  8
5_ANYTOOL_HALF_MILL_9MM_IN
100
AcDbVertex
100
AcDb2dVertex
 10
-321.2500063150399
 20
-30.64622487297311
 30
0.0000000000088061
  0
VERTEX
  5
2AD
330
2A9
100
AcDbEntity
  8
5_ANYTOOL_HALF_MILL_9MM_IN
100
AcDbVertex
100
AcDb2dVertex
 10
-278.7500063150425
 20
-30.64622487297311
 30
0.0000000000088061
  0
SEQEND
  5
2AE
330
2A9
100
AcDbEntity
  8
5_ANYTOOL_HALF_MILL_9MM_IN
  0
POLYLINE
  5
2AF
330
1F
100
AcDbEntity
  8
5_ANYTOOL_HALF_MILL_9MM_IN
100
AcDb2dPolyline
 66
     1
 10
0.0
 20
0.0
 30
0.0000000000088061
 70
     1
  0
VERTEX
  5
2B0
330
2AF
100
AcDbEntity
  8
5_ANYTOOL_HALF_MILL_9MM_IN
100
AcDbVertex
100
AcDb2dVertex
 10
-83.850006315232
 20
-24.39622487290035
 30
0.0000000000088061
 42
0.9999999999993151
  0
VERTEX
  5
2B1
330
2AF
100
AcDbEntity
  8
5_ANYTOOL_HALF_MILL_9MM_IN
100
AcDbVertex
100
AcDb2dVertex
 10
-126.3500063152387
 20
-24.3962248729149
 30
0.0000000000088061
  0
VERTEX
  5
2B2
330
2AF
100
AcDbEntity
  8
5_ANYTOOL_HALF_MILL_9MM_IN
100
AcDbVertex
100
AcDb2dVertex
 10
-126.3500063152284
 20
-30.6462248729149
 30
0.0000000000088061
  0
VERTEX
  5
2B3
330
2AF
100
AcDbEntity
  8
5_ANYTOOL_HALF_MILL_9MM_IN
100
AcDbVertex
100
AcDb2dVertex
 10
-83.85000631522759
 20
-30.64622487290035
 30
0.0000000000088061
  0
SEQEND
  5
2B4
330
2AF
100
AcDbEntity
  8
5_ANYTOOL_HALF_MILL_9MM_IN
  0
POLYLINE
  5
2B5
330
1F
100
AcDbEntity
  8
5_ANYTOOL_HALF_MILL_9MM_IN
100
AcDb2dPolyline
 66
     1
 10
0.0
 20
0.0
 30
0.0000000000088061
 70
     1
  0
VERTEX
  5
2B6
330
2B5
100
AcDbEntity
  8
5_ANYTOOL_HALF_MILL_9MM_IN
100
AcDbVertex
100
AcDb2dVertex
 10
126.3499936852181
 20
-24.39622487290762
 30
0.0000000000088061
 42
0.9999999999998287
  0
VERTEX
  5
2B7
330
2B5
100
AcDbEntity
  8
5_ANYTOOL_HALF_MILL_9MM_IN
100
AcDbVertex
100
AcDb2dVertex
 10
83.8499936852051
 20
-24.39622487290034
 30
0.0000000000088061
  0
VERTEX
  5
2B8
330
2B5
100
AcDbEntity
  8
5_ANYTOOL_HALF_MILL_9MM_IN
100
AcDbVertex
100
AcDb2dVertex
 10
83.84999368521892
 20
-30.64622487290035
 30
0.0000000000088061
  0
VERTEX
  5
2B9
330
2B5
100
AcDbEntity
  8
5_ANYTOOL_HALF_MILL_9MM_IN
100
AcDbVertex
100
AcDb2dVertex
 10
126.3499936852209
 20
-30.64622487290762
 30
0.0000000000088061
  0
SEQEND
  5
2BA
330
2B5
100
AcDbEntity
  8
5_ANYTOOL_HALF_MILL_9MM_IN
  0
POLYLINE
  5
2BB
330
1F
100
AcDbEntity
  8
5_ANYTOOL_HALF_MILL_9MM_IN
100
AcDb2dPolyline
 66
     1
 10
0.0
 20
0.0
 30
0.0000000000088061
 70
     1
  0
VERTEX
  5
2BC
330
2BB
100
AcDbEntity
  8
5_ANYTOOL_HALF_MILL_9MM_IN
100
AcDbVertex
100
AcDb2dVertex
 10
321.2499936850224
 20
-24.39622487287852
 30
0.0000000000088061
 42
1.000000000000857
  0
VERTEX
  5
2BD
330
2BB
100
AcDbEntity
  8
5_ANYTOOL_HALF_MILL_9MM_IN
100
AcDbVertex
100
AcDb2dVertex
 10
278.7499936850105
 20
-24.39622487288579
 30
0.0000000000088061
  0
VERTEX
  5
2BE
330
2BB
100
AcDbEntity
  8
5_ANYTOOL_HALF_MILL_9MM_IN
100
AcDbVertex
100
AcDb2dVertex
 10
278.749993685026
 20
-30.6462248728858
 30
0.0000000000088061
  0
VERTEX
  5
2BF
330
2BB
100
AcDbEntity
  8
5_ANYTOOL_HALF_MILL_9MM_IN
100
AcDbVertex
100
AcDb2dVertex
 10
321.249993685026
 20
-30.64622487287124
 30
0.0000000000088061
  0
SEQEND
  5
2C0
330
2BB
100
AcDbEntity
  8
5_ANYTOOL_HALF_MILL_9MM_IN
  0
POLYLINE
  5
2C1
330
1F
100
AcDbEntity
  8
5_ANYTOOL_HALF_MILL_9MM_IN
100
AcDb2dPolyline
 66
     1
 10
0.0
 20
0.0
 30
0.0000000000088061
 70
     1
  0
VERTEX
  5
2C2
330
2C1
100
AcDbEntity
  8
5_ANYTOOL_HALF_MILL_9MM_IN
100
AcDbVertex
100
AcDb2dVertex
 10
516.1499936848245
 20
-24.39622487282031
 30
0.0000000000088061
 42
1.0000000000012
  0
VERTEX
  5
2C3
330
2C1
100
AcDbEntity
  8
5_ANYTOOL_HALF_MILL_9MM_IN
100
AcDbVertex
100
AcDb2dVertex
 10
473.6499936848309
 20
-24.39622487284214
 30
0.0000000000088061
  0
VERTEX
  5
2C4
330
2C1
100
AcDbEntity
  8
5_ANYTOOL_HALF_MILL_9MM_IN
100
AcDbVertex
100
AcDb2dVertex
 10
473.6499936848244
 20
-30.64622487284214
 30
0.0000000000088061
  0
VERTEX
  5
2C5
330
2C1
100
AcDbEntity
  8
5_ANYTOOL_HALF_MILL_9MM_IN
100
AcDbVertex
100
AcDb2dVertex
 10
516.1499936848243
 20
-30.64622487282031
 30
0.0000000000088061
  0
SEQEND
  5
2C6
330
2C1
100
AcDbEntity
  8
5_ANYTOOL_HALF_MILL_9MM_IN
  0
POLYLINE
  5
2C7
330
1F
100
AcDbEntity
  8
5_ANYTOOL_HALF_MILL_9MM_IN
100
AcDb2dPolyline
 66
     1
 10
0.0
 20
0.0
 30
0.0000000000235829
 70
     1
  0
VERTEX
  5
2C8
330
2C7
100
AcDbEntity
  8
5_ANYTOOL_HALF_MILL_9MM_IN
100
AcDbVertex
100
AcDb2dVertex
 10
379.624993685024
 20
69.85377512916602
 30
0.0000000000235829
 42
0.4142135623722554
  0
VERTEX
  5
2C9
330
2C7
100
AcDbEntity
  8
5_ANYTOOL_HALF_MILL_9MM_IN
100
AcDbVertex
100
AcDb2dVertex
 10
373.6249936850266
 20
63.85377512916602
 30
0.0000000000235829
  0
VERTEX
  5
2CA
330
2C7
100
AcDbEntity
  8
5_ANYTOOL_HALF_MILL_9MM_IN
100
AcDbVertex
100
AcDb2dVertex
 10
373.624993685024
 20
57.35377512912237
 30
0.0000000000235829
 42
0.4142135623728105
  0
VERTEX
  5
2CB
330
2C7
100
AcDbEntity
  8
5_ANYTOOL_HALF_MILL_9MM_IN
100
AcDbVertex
100
AcDb2dVertex
 10
379.624993685024
 20
51.35377512911657
 30
0.0000000000235829
  0
VERTEX
  5
2CC
330
2C7
100
AcDbEntity
  8
5_ANYTOOL_HALF_MILL_9MM_IN
100
AcDbVertex
100
AcDb2dVertex
 10
428.3749936850251
 20
51.35377512912237
 30
0.0000000000235829
 42
0.4142135623729174
  0
VERTEX
  5
2CD
330
2C7
100
AcDbEntity
  8
5_ANYTOOL_HALF_MILL_9MM_IN
100
AcDbVertex
100
AcDb2dVertex
 10
434.3749936850215
 20
57.35377512912237
 30
0.0000000000235829
  0
VERTEX
  5
2CE
330
2C7
100
AcDbEntity
  8
5_ANYTOOL_HALF_MILL_9MM_IN
100
AcDbVertex
100
AcDb2dVertex
 10
434.3749936850251
 20
63.85377512916602
 30
0.0000000000235829
 42
0.4142135623728936
  0
VERTEX
  5
2CF
330
2C7
100
AcDbEntity
  8
5_ANYTOOL_HALF_MILL_9MM_IN
100
AcDbVertex
100
AcDb2dVertex
 10
428.3749936850251
 20
69.85377512917012
 30
0.0000000000235829
  0
SEQEND
  5
2D0
330
2C7
100
AcDbEntity
  8
5_ANYTOOL_HALF_MILL_9MM_IN
  0
POLYLINE
  5
2D2
330
1F
100
AcDbEntity
  8
4_ANYTOOL_CUTTHROUGH_OUTSI
100
AcDb2dPolyline
 66
     1
 10
0.0
 20
0.0
 30
0.0
 70
     1
  0
VERTEX
  5
2D3
330
2D2
100
AcDbEntity
  8
4_ANYTOOL_CUTTHROUGH_OUTSI
100
AcDbVertex
100
AcDb2dVertex
 10
30.65443093672985
 20
-80.14622487308225
 30
0.0
  0
VERTEX
  5
2D4
330
2D2
100
AcDbEntity
  8
4_ANYTOOL_CUTTHROUGH_OUTSI
100
AcDbVertex
100
AcDb2dVertex
 10
-30.65444356675056
 20
-80.14622487308225
 30
0.0
 42
-0.3178372451960152
  0
VERTEX
  5
2D5
330
2D2
100
AcDbEntity
  8
4_ANYTOOL_CUTTHROUGH_OUTSI
100
AcDbVertex
100
AcDb2dVertex
 10
-36.07559555585014
 20
-76.31289153974589
 30
0.0
 42
0.707106781184121
  0
VERTEX
  5
2D6
330
2D2
100
AcDbEntity
  8
4_ANYTOOL_CUTTHROUGH_OUTSI
100
AcDbVertex
100
AcDb2dVertex
 10
-59.17441707461644
 20
-76.31289153972465
 30
0.0
 42
-0.3178372451962962
  0
VERTEX
  5
2D7
330
2D2
100
AcDbEntity
  8
4_ANYTOOL_CUTTHROUGH_OUTSI
100
AcDbVertex
100
AcDb2dVertex
 10
-64.5955690637164
 20
-80.14622487306546
 30
0.0
  0
VERTEX
  5
2D8
330
2D2
100
AcDbEntity
  8
4_ANYTOOL_CUTTHROUGH_OUTSI
100
AcDbVertex
100
AcDb2dVertex
 10
-76.99456896242293
 20
-80.14622487290762
 30
0.0
  0
VERTEX
  5
2D9
330
2D2
100
AcDbEntity
  8
4_ANYTOOL_CUTTHROUGH_OUTSI
100
AcDbVertex
100
AcDb2dVertex
 10
-76.75957495383842
 20
-78.75135467258934
 30
0.0
  0
VERTEX
  5
2DA
330
2D2
100
AcDbEntity
  8
4_ANYTOOL_CUTTHROUGH_OUTSI
100
AcDbVertex
100
AcDb2dVertex
 10
-59.8640417271444
 20
-30.4788124790939
 30
0.0
  0
VERTEX
  5
2DB
330
2D2
100
AcDbEntity
  8
4_ANYTOOL_CUTTHROUGH_OUTSI
100
AcDbVertex
100
AcDb2dVertex
 10
-59.85000631623586
 20
-30.39622487290762
 30
0.0
 42
0.4142135623766556
  0
VERTEX
  5
2DC
330
2D2
100
AcDbEntity
  8
4_ANYTOOL_CUTTHROUGH_OUTSI
100
AcDbVertex
100
AcDb2dVertex
 10
-66.1000063162665
 20
-24.14622487292397
 30
0.0
  0
VERTEX
  5
2DD
330
2D2
100
AcDbEntity
  8
4_ANYTOOL_CUTTHROUGH_OUTSI
100
AcDbVertex
100
AcDb2dVertex
 10
-144.1000063162064
 20
-24.14622487292218
 30
0.0
 42
0.4142135623757345
  0
VERTEX
  5
2DE
330
2D2
100
AcDbEntity
  8
4_ANYTOOL_CUTTHROUGH_OUTSI
100
AcDbVertex
100
AcDb2dVertex
 10
-150.3500063162337
 20
-30.39622487290762
 30
0.0
  0
VERTEX
  5
2DF
330
2D2
100
AcDbEntity
  8
4_ANYTOOL_CUTTHROUGH_OUTSI
100
AcDbVertex
100
AcDb2dVertex
 10
-150.3359709053285
 20
-30.47881247908678
 30
0.0
  0
VERTEX
  5
2E0
330
2D2
100
AcDbEntity
  8
4_ANYTOOL_CUTTHROUGH_OUTSI
100
AcDbVertex
100
AcDb2dVertex
 10
-133.4368579108815
 20
-78.76241965198278
 30
0.0
  0
VERTEX
  5
2E1
330
2D2
100
AcDbEntity
  8
4_ANYTOOL_CUTTHROUGH_OUTSI
100
AcDbVertex
100
AcDb2dVertex
 10
-133.2054436693297
 20
-80.14622487291057
 30
0.0
  0
VERTEX
  5
2E2
330
2D2
100
AcDbEntity
  8
4_ANYTOOL_CUTTHROUGH_OUTSI
100
AcDbVertex
100
AcDb2dVertex
 10
-271.8945689616997
 20
-80.14622487295128
 30
0.0
  0
VERTEX
  5
2E3
330
2D2
100
AcDbEntity
  8
4_ANYTOOL_CUTTHROUGH_OUTSI
100
AcDbVertex
100
AcDb2dVertex
 10
-271.6595749531058
 20
-78.75135467263382
 30
0.0
  0
VERTEX
  5
2E4
330
2D2
100
AcDbEntity
  8
4_ANYTOOL_CUTTHROUGH_OUTSI
100
AcDbVertex
100
AcDb2dVertex
 10
-254.7640417264258
 20
-30.47881247916666
 30
0.0
  0
VERTEX
  5
2E5
330
2D2
100
AcDbEntity
  8
4_ANYTOOL_CUTTHROUGH_OUTSI
100
AcDbVertex
100
AcDb2dVertex
 10
-254.7500063155143
 20
-30.39622487298038
 30
0.0
 42
0.4142135623793567
  0
VERTEX
  5
2E6
330
2D2
100
AcDbEntity
  8
4_ANYTOOL_CUTTHROUGH_OUTSI
100
AcDbVertex
100
AcDb2dVertex
 10
-261.0000063155331
 20
-24.14622487298485
 30
0.0
  0
VERTEX
  5
2E7
330
2D2
100
AcDbEntity
  8
4_ANYTOOL_CUTTHROUGH_OUTSI
100
AcDbVertex
100
AcDb2dVertex
 10
-339.0000063155018
 20
-24.14622487298038
 30
0.0
 42
0.4142135623777099
  0
VERTEX
  5
2E8
330
2D2
100
AcDbEntity
  8
4_ANYTOOL_CUTTHROUGH_OUTSI
100
AcDbVertex
100
AcDb2dVertex
 10
-345.2500063155129
 20
-30.39622487298038
 30
0.0
  0
VERTEX
  5
2E9
330
2D2
100
AcDbEntity
  8
4_ANYTOOL_CUTTHROUGH_OUTSI
100
AcDbVertex
100
AcDb2dVertex
 10
-345.2359709046072
 20
-30.4788124791589
 30
0.0
  0
VERTEX
  5
2EA
330
2D2
100
AcDbEntity
  8
4_ANYTOOL_CUTTHROUGH_OUTSI
100
AcDbVertex
100
AcDb2dVertex
 10
-328.3368579101628
 20
-78.76241965202644
 30
0.0
  0
VERTEX
  5
2EB
330
2D2
100
AcDbEntity
  8
4_ANYTOOL_CUTTHROUGH_OUTSI
100
AcDbVertex
100
AcDb2dVertex
 10
-328.105443668983
 20
-80.1462248729642
 30
0.0
  0
VERTEX
  5
2EC
330
2D2
100
AcDbEntity
  8
4_ANYTOOL_CUTTHROUGH_OUTSI
100
AcDbVertex
100
AcDb2dVertex
 10
-466.7945689613474
 20
-80.14622487299494
 30
0.0
  0
VERTEX
  5
2ED
330
2D2
100
AcDbEntity
  8
4_ANYTOOL_CUTTHROUGH_OUTSI
100
AcDbVertex
100
AcDb2dVertex
 10
-466.5595749524011
 20
-78.75135467267484
 30
0.0
  0
VERTEX
  5
2EE
330
2D2
100
AcDbEntity
  8
4_ANYTOOL_CUTTHROUGH_OUTSI
100
AcDbVertex
100
AcDb2dVertex
 10
-449.6640417257074
 20
-30.47881247918849
 30
0.0
  0
VERTEX
  5
2EF
330
2D2
100
AcDbEntity
  8
4_ANYTOOL_CUTTHROUGH_OUTSI
100
AcDbVertex
100
AcDb2dVertex
 10
-449.6500063148003
 20
-30.39622487300221
 30
0.0
 42
0.4142135623788883
  0
VERTEX
  5
2F0
330
2D2
100
AcDbEntity
  8
4_ANYTOOL_CUTTHROUGH_OUTSI
100
AcDbVertex
100
AcDb2dVertex
 10
-455.9000063148284
 20
-24.14622487299243
 30
0.0
  0
VERTEX
  5
2F1
330
2D2
100
AcDbEntity
  8
4_ANYTOOL_CUTTHROUGH_OUTSI
100
AcDbVertex
100
AcDb2dVertex
 10
-533.9000063147826
 20
-24.14622487300949
 30
0.0
 42
0.4142135623785461
  0
VERTEX
  5
2F2
330
2D2
100
AcDbEntity
  8
4_ANYTOOL_CUTTHROUGH_OUTSI
100
AcDbVertex
100
AcDb2dVertex
 10
-540.1500063147971
 20
-30.39622487300949
 30
0.0
  0
VERTEX
  5
2F3
330
2D2
100
AcDbEntity
  8
4_ANYTOOL_CUTTHROUGH_OUTSI
100
AcDbVertex
100
AcDb2dVertex
 10
-540.1359709038904
 20
-30.47881247918858
 30
0.0
  0
VERTEX
  5
2F4
330
2D2
100
AcDbEntity
  8
4_ANYTOOL_CUTTHROUGH_OUTSI
100
AcDbVertex
100
AcDb2dVertex
 10
-523.2368579094575
 20
-78.7624196520701
 30
0.0
  0
VERTEX
  5
2F5
330
2D2
100
AcDbEntity
  8
4_ANYTOOL_CUTTHROUGH_OUTSI
100
AcDbVertex
100
AcDb2dVertex
 10
-523.0054436682782
 20
-80.14622487299916
 30
0.0
  0
VERTEX
  5
2F6
330
2D2
100
AcDbEntity
  8
4_ANYTOOL_CUTTHROUGH_OUTSI
100
AcDbVertex
100
AcDb2dVertex
 10
-535.4044435663607
 20
-80.14622487296583
 30
0.0
 42
-0.3178372451977064
  0
VERTEX
  5
2F7
330
2D2
100
AcDbEntity
  8
4_ANYTOOL_CUTTHROUGH_OUTSI
100
AcDbVertex
100
AcDb2dVertex
 10
-540.8255955554546
 20
-76.31289153962985
 30
0.0
 42
0.707106781184332
  0
VERTEX
  5
2F8
330
2D2
100
AcDbEntity
  8
4_ANYTOOL_CUTTHROUGH_OUTSI
100
AcDbVertex
100
AcDb2dVertex
 10
-563.9244170742189
 20
-76.31289153961549
 30
0.0
 42
-0.3178372451947113
  0
VERTEX
  5
2F9
330
2D2
100
AcDbEntity
  8
4_ANYTOOL_CUTTHROUGH_OUTSI
100
AcDbVertex
100
AcDb2dVertex
 10
-569.3455690633178
 20
-80.14622487295281
 30
0.0
  0
VERTEX
  5
2FA
330
2D2
100
AcDbEntity
  8
4_ANYTOOL_CUTTHROUGH_OUTSI
100
AcDbVertex
100
AcDb2dVertex
 10
-581.7500063150137
 20
-80.14622487302404
 30
0.0
  0
VERTEX
  5
2FB
330
2D2
100
AcDbEntity
  8
4_ANYTOOL_CUTTHROUGH_OUTSI
100
AcDbVertex
100
AcDb2dVertex
 10
-581.7500063153552
 20
-52.64622487308225
 30
0.0
  0
VERTEX
  5
2FC
330
2D2
100
AcDbEntity
  8
4_ANYTOOL_CUTTHROUGH_OUTSI
100
AcDbVertex
100
AcDb2dVertex
 10
-576.0000063153584
 20
-52.64622487308225
 30
0.0
 42
0.4142135623649083
  0
VERTEX
  5
2FD
330
2D2
100
AcDbEntity
  8
4_ANYTOOL_CUTTHROUGH_OUTSI
100
AcDbVertex
100
AcDb2dVertex
 10
-575.7500063153655
 20
-52.39622487308225
 30
0.0
  0
VERTEX
  5
2FE
330
2D2
100
AcDbEntity
  8
4_ANYTOOL_CUTTHROUGH_OUTSI
100
AcDbVertex
100
AcDb2dVertex
 10
-575.7500063152997
 20
-40.39622487308225
 30
0.0
 42
0.4142135623568705
  0
VERTEX
  5
2FF
330
2D2
100
AcDbEntity
  8
4_ANYTOOL_CUTTHROUGH_OUTSI
100
AcDbVertex
100
AcDb2dVertex
 10
-576.0000063152997
 20
-40.14622487308293
 30
0.0
  0
VERTEX
  5
300
330
2D2
100
AcDbEntity
  8
4_ANYTOOL_CUTTHROUGH_OUTSI
100
AcDbVertex
100
AcDb2dVertex
 10
-599.750006315343
 20
-40.14622487308225
 30
0.0
  0
VERTEX
  5
301
330
2D2
100
AcDbEntity
  8
4_ANYTOOL_CUTTHROUGH_OUTSI
100
AcDbVertex
100
AcDb2dVertex
 10
-599.7500063152993
 20
-15.64622487308225
 30
0.0
  0
VERTEX
  5
302
330
2D2
100
AcDbEntity
  8
4_ANYTOOL_CUTTHROUGH_OUTSI
100
AcDbVertex
100
AcDb2dVertex
 10
-576.0000063152693
 20
-15.64622487305314
 30
0.0
 42
0.4142135623508947
  0
VERTEX
  5
303
330
2D2
100
AcDbEntity
  8
4_ANYTOOL_CUTTHROUGH_OUTSI
100
AcDbVertex
100
AcDb2dVertex
 10
-575.7500063152737
 20
-15.39622487305314
 30
0.0
  0
VERTEX
  5
304
330
2D2
100
AcDbEntity
  8
4_ANYTOOL_CUTTHROUGH_OUTSI
100
AcDbVertex
100
AcDb2dVertex
 10
-575.7500063153564
 20
-3.396224873053143
 30
0.0
 42
0.4142135623864486
  0
VERTEX
  5
305
330
2D2
100
AcDbEntity
  8
4_ANYTOOL_CUTTHROUGH_OUTSI
100
AcDbVertex
100
AcDb2dVertex
 10
-576.0000063153564
 20
-3.146224873050016
 30
0.0
  0
VERTEX
  5
306
330
2D2
100
AcDbEntity
  8
4_ANYTOOL_CUTTHROUGH_OUTSI
100
AcDbVertex
100
AcDb2dVertex
 10
-581.7500063153559
 20
-3.146224873053143
 30
0.0
  0
VERTEX
  5
307
330
2D2
100
AcDbEntity
  8
4_ANYTOOL_CUTTHROUGH_OUTSI
100
AcDbVertex
100
AcDb2dVertex
 10
-581.7500063153418
 20
7.353775126975961
 30
0.0
  0
VERTEX
  5
308
330
2D2
100
AcDbEntity
  8
4_ANYTOOL_CUTTHROUGH_OUTSI
100
AcDbVertex
100
AcDb2dVertex
 10
-576.0000063153414
 20
7.353775126975961
 30
0.0
 42
0.4142135623813877
  0
VERTEX
  5
309
330
2D2
100
AcDbEntity
  8
4_ANYTOOL_CUTTHROUGH_OUTSI
100
AcDbVertex
100
AcDb2dVertex
 10
-575.7500063153343
 20
7.603775126975961
 30
0.0
  0
VERTEX
  5
30A
330
2D2
100
AcDbEntity
  8
4_ANYTOOL_CUTTHROUGH_OUTSI
100
AcDbVertex
100
AcDb2dVertex
 10
-575.7500063152681
 20
19.60377512697596
 30
0.0
 42
0.4142135624013131
  0
VERTEX
  5
30B
330
2D2
100
AcDbEntity
  8
4_ANYTOOL_CUTTHROUGH_OUTSI
100
AcDbVertex
100
AcDb2dVertex
 10
-576.0000063152681
 20
19.85377512698091
 30
0.0
  0
VERTEX
  5
30C
330
2D2
100
AcDbEntity
  8
4_ANYTOOL_CUTTHROUGH_OUTSI
100
AcDbVertex
100
AcDb2dVertex
 10
-599.7500063152961
 20
19.85377512697596
 30
0.0
  0
VERTEX
  5
30D
330
2D2
100
AcDbEntity
  8
4_ANYTOOL_CUTTHROUGH_OUTSI
100
AcDbVertex
100
AcDb2dVertex
 10
-599.7500063150635
 20
69.35377512843115
 30
0.0
  0
VERTEX
  5
30E
330
2D2
100
AcDbEntity
  8
4_ANYTOOL_CUTTHROUGH_OUTSI
100
AcDbVertex
100
AcDb2dVertex
 10
-458.2500063150334
 20
69.35377512912964
 30
0.0
  0
VERTEX
  5
30F
330
2D2
100
AcDbEntity
  8
4_ANYTOOL_CUTTHROUGH_OUTSI
100
AcDbVertex
100
AcDb2dVertex
 10
-458.2500063150343
 20
45.60377512912964
 30
0.0
 42
0.4142135623640517
  0
VERTEX
  5
310
330
2D2
100
AcDbEntity
  8
4_ANYTOOL_CUTTHROUGH_OUTSI
100
AcDbVertex
100
AcDb2dVertex
 10
-458.0000063150343
 20
45.35377512913647
 30
0.0
  0
VERTEX
  5
311
330
2D2
100
AcDbEntity
  8
4_ANYTOOL_CUTTHROUGH_OUTSI
100
AcDbVertex
100
AcDb2dVertex
 10
-446.0000063150343
 20
45.35377512912964
 30
0.0
 42
0.414213562383253
  0
VERTEX
  5
312
330
2D2
100
AcDbEntity
  8
4_ANYTOOL_CUTTHROUGH_OUTSI
100
AcDbVertex
100
AcDb2dVertex
 10
-445.7500063150402
 20
45.60377512912964
 30
0.0
  0
VERTEX
  5
313
330
2D2
100
AcDbEntity
  8
4_ANYTOOL_CUTTHROUGH_OUTSI
100
AcDbVertex
100
AcDb2dVertex
 10
-445.7500063150341
 20
51.35377512912964
 30
0.0
  0
VERTEX
  5
314
330
2D2
100
AcDbEntity
  8
4_ANYTOOL_CUTTHROUGH_OUTSI
100
AcDbVertex
100
AcDb2dVertex
 10
-436.2500063150341
 20
51.35377512912964
 30
0.0
  0
VERTEX
  5
315
330
2D2
100
AcDbEntity
  8
4_ANYTOOL_CUTTHROUGH_OUTSI
100
AcDbVertex
100
AcDb2dVertex
 10
-436.2500063150343
 20
45.60377512912964
 30
0.0
 42
0.4142135623640517
  0
VERTEX
  5
316
330
2D2
100
AcDbEntity
  8
4_ANYTOOL_CUTTHROUGH_OUTSI
100
AcDbVertex
100
AcDb2dVertex
 10
-436.0000063150343
 20
45.35377512913647
 30
0.0
  0
VERTEX
  5
317
330
2D2
100
AcDbEntity
  8
4_ANYTOOL_CUTTHROUGH_OUTSI
100
AcDbVertex
100
AcDb2dVertex
 10
-424.0000063150343
 20
45.35377512912964
 30
0.0
 42
0.4142135623875804
  0
VERTEX
  5
318
330
2D2
100
AcDbEntity
  8
4_ANYTOOL_CUTTHROUGH_OUTSI
100
AcDbVertex
100
AcDb2dVertex
 10
-423.7500063150366
 20
45.60377512912964
 30
0.0
  0
VERTEX
  5
319
330
2D2
100
AcDbEntity
  8
4_ANYTOOL_CUTTHROUGH_OUTSI
100
AcDbVertex
100
AcDb2dVertex
 10
-423.7500063150333
 20
69.35377512912964
 30
0.0
  0
VERTEX
  5
31A
330
2D2
100
AcDbEntity
  8
4_ANYTOOL_CUTTHROUGH_OUTSI
100
AcDbVertex
100
AcDb2dVertex
 10
-384.2500063150333
 20
69.35377512912964
 30
0.0
  0
VERTEX
  5
31B
330
2D2
100
AcDbEntity
  8
4_ANYTOOL_CUTTHROUGH_OUTSI
100
AcDbVertex
100
AcDb2dVertex
 10
-384.2500063150343
 20
45.60377512912964
 30
0.0
 42
0.4142135623881801
  0
VERTEX
  5
31C
330
2D2
100
AcDbEntity
  8
4_ANYTOOL_CUTTHROUGH_OUTSI
100
AcDbVertex
100
AcDb2dVertex
 10
-384.0000063150343
 20
45.35377512912794
 30
0.0
  0
VERTEX
  5
31D
330
2D2
100
AcDbEntity
  8
4_ANYTOOL_CUTTHROUGH_OUTSI
100
AcDbVertex
100
AcDb2dVertex
 10
-372.0000063150343
 20
45.35377512912964
 30
0.0
 42
0.4142135623755315
  0
VERTEX
  5
31E
330
2D2
100
AcDbEntity
  8
4_ANYTOOL_CUTTHROUGH_OUTSI
100
AcDbVertex
100
AcDb2dVertex
 10
-371.7500063150323
 20
45.60377512912964
 30
0.0
  0
VERTEX
  5
31F
330
2D2
100
AcDbEntity
  8
4_ANYTOOL_CUTTHROUGH_OUTSI
100
AcDbVertex
100
AcDb2dVertex
 10
-371.7500063150341
 20
51.35377512912964
 30
0.0
  0
VERTEX
  5
320
330
2D2
100
AcDbEntity
  8
4_ANYTOOL_CUTTHROUGH_OUTSI
100
AcDbVertex
100
AcDb2dVertex
 10
-362.2500063150341
 20
51.35377512912964
 30
0.0
  0
VERTEX
  5
321
330
2D2
100
AcDbEntity
  8
4_ANYTOOL_CUTTHROUGH_OUTSI
100
AcDbVertex
100
AcDb2dVertex
 10
-362.2500063150343
 20
45.60377512912964
 30
0.0
 42
0.4142135623834145
  0
VERTEX
  5
322
330
2D2
100
AcDbEntity
  8
4_ANYTOOL_CUTTHROUGH_OUTSI
100
AcDbVertex
100
AcDb2dVertex
 10
-362.0000063150343
 20
45.35377512912393
 30
0.0
  0
VERTEX
  5
323
330
2D2
100
AcDbEntity
  8
4_ANYTOOL_CUTTHROUGH_OUTSI
100
AcDbVertex
100
AcDb2dVertex
 10
-350.0000063150343
 20
45.35377512912959
 30
0.0
 42
0.4142135623879168
  0
VERTEX
  5
324
330
2D2
100
AcDbEntity
  8
4_ANYTOOL_CUTTHROUGH_OUTSI
100
AcDbVertex
100
AcDb2dVertex
 10
-349.7500063150362
 20
45.60377512912964
 30
0.0
  0
VERTEX
  5
325
330
2D2
100
AcDbEntity
  8
4_ANYTOOL_CUTTHROUGH_OUTSI
100
AcDbVertex
100
AcDb2dVertex
 10
-349.7500063150333
 20
69.35377512912964
 30
0.0
  0
VERTEX
  5
326
330
2D2
100
AcDbEntity
  8
4_ANYTOOL_CUTTHROUGH_OUTSI
100
AcDbVertex
100
AcDb2dVertex
 10
-250.2500063150333
 20
69.35377512915875
 30
0.0
  0
VERTEX
  5
327
330
2D2
100
AcDbEntity
  8
4_ANYTOOL_CUTTHROUGH_OUTSI
100
AcDbVertex
100
AcDb2dVertex
 10
-250.2500063150343
 20
45.60377512912964
 30
0.0
 42
0.414213562364014
  0
VERTEX
  5
328
330
2D2
100
AcDbEntity
  8
4_ANYTOOL_CUTTHROUGH_OUTSI
100
AcDbVertex
100
AcDb2dVertex
 10
-250.0000063150337
 20
45.35377512913585
 30
0.0
  0
VERTEX
  5
329
330
2D2
100
AcDbEntity
  8
4_ANYTOOL_CUTTHROUGH_OUTSI
100
AcDbVertex
100
AcDb2dVertex
 10
-238.0000063150337
 20
45.35377512915875
 30
0.0
 42
0.4142135624277489
  0
VERTEX
  5
32A
330
2D2
100
AcDbEntity
  8
4_ANYTOOL_CUTTHROUGH_OUTSI
100
AcDbVertex
100
AcDb2dVertex
 10
-237.7500063150307
 20
45.60377512915875
 30
0.0
  0
VERTEX
  5
32B
330
2D2
100
AcDbEntity
  8
4_ANYTOOL_CUTTHROUGH_OUTSI
100
AcDbVertex
100
AcDb2dVertex
 10
-237.7500063150341
 20
51.35377512915875
 30
0.0
  0
VERTEX
  5
32C
330
2D2
100
AcDbEntity
  8
4_ANYTOOL_CUTTHROUGH_OUTSI
100
AcDbVertex
100
AcDb2dVertex
 10
-228.2500063150341
 20
51.35377512915875
 30
0.0
  0
VERTEX
  5
32D
330
2D2
100
AcDbEntity
  8
4_ANYTOOL_CUTTHROUGH_OUTSI
100
AcDbVertex
100
AcDb2dVertex
 10
-228.2500063150343
 20
45.60377512915875
 30
0.0
 42
0.4142135623638887
  0
VERTEX
  5
32E
330
2D2
100
AcDbEntity
  8
4_ANYTOOL_CUTTHROUGH_OUTSI
100
AcDbVertex
100
AcDb2dVertex
 10
-228.0000063150343
 20
45.35377512915092
 30
0.0
  0
VERTEX
  5
32F
330
2D2
100
AcDbEntity
  8
4_ANYTOOL_CUTTHROUGH_OUTSI
100
AcDbVertex
100
AcDb2dVertex
 10
-216.0000063150343
 20
45.35377512915875
 30
0.0
 42
0.414213562351987
  0
VERTEX
  5
330
330
2D2
100
AcDbEntity
  8
4_ANYTOOL_CUTTHROUGH_OUTSI
100
AcDbVertex
100
AcDb2dVertex
 10
-215.7500063150378
 20
45.60377512915875
 30
0.0
  0
VERTEX
  5
331
330
2D2
100
AcDbEntity
  8
4_ANYTOOL_CUTTHROUGH_OUTSI
100
AcDbVertex
100
AcDb2dVertex
 10
-215.7500063150333
 20
69.35377512915875
 30
0.0
  0
VERTEX
  5
332
330
2D2
100
AcDbEntity
  8
4_ANYTOOL_CUTTHROUGH_OUTSI
100
AcDbVertex
100
AcDb2dVertex
 10
-176.2500063150333
 20
69.35377512915875
 30
0.0
  0
VERTEX
  5
333
330
2D2
100
AcDbEntity
  8
4_ANYTOOL_CUTTHROUGH_OUTSI
100
AcDbVertex
100
AcDb2dVertex
 10
-176.2500063150343
 20
45.60377512915875
 30
0.0
 42
0.4142135623643927
  0
VERTEX
  5
334
330
2D2
100
AcDbEntity
  8
4_ANYTOOL_CUTTHROUGH_OUTSI
100
AcDbVertex
100
AcDb2dVertex
 10
-176.0000063150343
 20
45.35377512915137
 30
0.0
  0
VERTEX
  5
335
330
2D2
100
AcDbEntity
  8
4_ANYTOOL_CUTTHROUGH_OUTSI
100
AcDbVertex
100
AcDb2dVertex
 10
-164.0000063150343
 20
45.35377512915875
 30
0.0
 42
0.4142135623737113
  0
VERTEX
  5
336
330
2D2
100
AcDbEntity
  8
4_ANYTOOL_CUTTHROUGH_OUTSI
100
AcDbVertex
100
AcDb2dVertex
 10
-163.7500063150483
 20
45.60377512915875
 30
0.0
  0
VERTEX
  5
337
330
2D2
100
AcDbEntity
  8
4_ANYTOOL_CUTTHROUGH_OUTSI
100
AcDbVertex
100
AcDb2dVertex
 10
-163.7500063150341
 20
51.35377512915875
 30
0.0
  0
VERTEX
  5
338
330
2D2
100
AcDbEntity
  8
4_ANYTOOL_CUTTHROUGH_OUTSI
100
AcDbVertex
100
AcDb2dVertex
 10
-154.2500063150341
 20
51.35377512915875
 30
0.0
  0
VERTEX
  5
339
330
2D2
100
AcDbEntity
  8
4_ANYTOOL_CUTTHROUGH_OUTSI
100
AcDbVertex
100
AcDb2dVertex
 10
-154.2500063150343
 20
45.60377512915875
 30
0.0
 42
0.4142135623609362
  0
VERTEX
  5
33A
330
2D2
100
AcDbEntity
  8
4_ANYTOOL_CUTTHROUGH_OUTSI
100
AcDbVertex
100
AcDb2dVertex
 10
-154.0000063150343
 20
45.35377512914836
 30
0.0
  0
VERTEX
  5
33B
330
2D2
100
AcDbEntity
  8
4_ANYTOOL_CUTTHROUGH_OUTSI
100
AcDbVertex
100
AcDb2dVertex
 10
-142.0000063150343
 20
45.35377512915875
 30
0.0
 42
0.4142135623405933
  0
VERTEX
  5
33C
330
2D2
100
AcDbEntity
  8
4_ANYTOOL_CUTTHROUGH_OUTSI
100
AcDbVertex
100
AcDb2dVertex
 10
-141.7500063150329
 20
45.60377512915875
 30
0.0
  0
VERTEX
  5
33D
330
2D2
100
AcDbEntity
  8
4_ANYTOOL_CUTTHROUGH_OUTSI
100
AcDbVertex
100
AcDb2dVertex
 10
-141.7500063150334
 20
69.35377512915147
 30
0.0
  0
VERTEX
  5
33E
330
2D2
100
AcDbEntity
  8
4_ANYTOOL_CUTTHROUGH_OUTSI
100
AcDbVertex
100
AcDb2dVertex
 10
-54.25000631500427
 20
69.35377512704144
 30
0.0
  0
VERTEX
  5
33F
330
2D2
100
AcDbEntity
  8
4_ANYTOOL_CUTTHROUGH_OUTSI
100
AcDbVertex
100
AcDb2dVertex
 10
-54.25000631500524
 20
45.60377512843115
 30
0.0
 42
0.4142135623901731
  0
VERTEX
  5
340
330
2D2
100
AcDbEntity
  8
4_ANYTOOL_CUTTHROUGH_OUTSI
100
AcDbVertex
100
AcDb2dVertex
 10
-54.00000631500524
 20
45.35377512843118
 30
0.0
  0
VERTEX
  5
341
330
2D2
100
AcDbEntity
  8
4_ANYTOOL_CUTTHROUGH_OUTSI
100
AcDbVertex
100
AcDb2dVertex
 10
-42.00000631500524
 20
45.35377512843115
 30
0.0
 42
0.4142135623980339
  0
VERTEX
  5
342
330
2D2
100
AcDbEntity
  8
4_ANYTOOL_CUTTHROUGH_OUTSI
100
AcDbVertex
100
AcDb2dVertex
 10
-41.75000631501305
 20
45.60377512843115
 30
0.0
  0
VERTEX
  5
343
330
2D2
100
AcDbEntity
  8
4_ANYTOOL_CUTTHROUGH_OUTSI
100
AcDbVertex
100
AcDb2dVertex
 10
-41.75000631500501
 20
51.35377512843115
 30
0.0
  0
VERTEX
  5
344
330
2D2
100
AcDbEntity
  8
4_ANYTOOL_CUTTHROUGH_OUTSI
100
AcDbVertex
100
AcDb2dVertex
 10
-32.25000631500501
 20
51.35377512843115
 30
0.0
  0
VERTEX
  5
345
330
2D2
100
AcDbEntity
  8
4_ANYTOOL_CUTTHROUGH_OUTSI
100
AcDbVertex
100
AcDb2dVertex
 10
-32.25000631500524
 20
45.60377512843115
 30
0.0
 42
0.4142135624020393
  0
VERTEX
  5
346
330
2D2
100
AcDbEntity
  8
4_ANYTOOL_CUTTHROUGH_OUTSI
100
AcDbVertex
100
AcDb2dVertex
 10
-32.00000631500524
 20
45.35377512842675
 30
0.0
  0
VERTEX
  5
347
330
2D2
100
AcDbEntity
  8
4_ANYTOOL_CUTTHROUGH_OUTSI
100
AcDbVertex
100
AcDb2dVertex
 10
-20.00000631500524
 20
45.35377512843115
 30
0.0
 42
0.4142135623980269
  0
VERTEX
  5
348
330
2D2
100
AcDbEntity
  8
4_ANYTOOL_CUTTHROUGH_OUTSI
100
AcDbVertex
100
AcDb2dVertex
 10
-19.75000631501305
 20
45.60377512843115
 30
0.0
  0
VERTEX
  5
349
330
2D2
100
AcDbEntity
  8
4_ANYTOOL_CUTTHROUGH_OUTSI
100
AcDbVertex
100
AcDb2dVertex
 10
-19.75000631500421
 20
69.35377512843115
 30
0.0
  0
VERTEX
  5
34A
330
2D2
100
AcDbEntity
  8
4_ANYTOOL_CUTTHROUGH_OUTSI
100
AcDbVertex
100
AcDb2dVertex
 10
19.74999368499579
 20
69.35377512843115
 30
0.0
  0
VERTEX
  5
34B
330
2D2
100
AcDbEntity
  8
4_ANYTOOL_CUTTHROUGH_OUTSI
100
AcDbVertex
100
AcDb2dVertex
 10
19.74999368499476
 20
45.60377512843115
 30
0.0
 42
0.4142135624020246
  0
VERTEX
  5
34C
330
2D2
100
AcDbEntity
  8
4_ANYTOOL_CUTTHROUGH_OUTSI
100
AcDbVertex
100
AcDb2dVertex
 10
19.99999368499476
 20
45.35377512842675
 30
0.0
  0
VERTEX
  5
34D
330
2D2
100
AcDbEntity
  8
4_ANYTOOL_CUTTHROUGH_OUTSI
100
AcDbVertex
100
AcDb2dVertex
 10
31.99999368499476
 20
45.35377512843115
 30
0.0
 42
0.4142135623980339
  0
VERTEX
  5
34E
330
2D2
100
AcDbEntity
  8
4_ANYTOOL_CUTTHROUGH_OUTSI
100
AcDbVertex
100
AcDb2dVertex
 10
32.24999368498695
 20
45.60377512843115
 30
0.0
  0
VERTEX
  5
34F
330
2D2
100
AcDbEntity
  8
4_ANYTOOL_CUTTHROUGH_OUTSI
100
AcDbVertex
100
AcDb2dVertex
 10
32.24999368499499
 20
51.35377512843115
 30
0.0
  0
VERTEX
  5
350
330
2D2
100
AcDbEntity
  8
4_ANYTOOL_CUTTHROUGH_OUTSI
100
AcDbVertex
100
AcDb2dVertex
 10
41.74999368499499
 20
51.35377512843115
 30
0.0
  0
VERTEX
  5
351
330
2D2
100
AcDbEntity
  8
4_ANYTOOL_CUTTHROUGH_OUTSI
100
AcDbVertex
100
AcDb2dVertex
 10
41.74999368499476
 20
45.60377512843115
 30
0.0
 42
0.4142135623810175
  0
VERTEX
  5
352
330
2D2
100
AcDbEntity
  8
4_ANYTOOL_CUTTHROUGH_OUTSI
100
AcDbVertex
100
AcDb2dVertex
 10
41.99999368499476
 20
45.35377512842337
 30
0.0
  0
VERTEX
  5
353
330
2D2
100
AcDbEntity
  8
4_ANYTOOL_CUTTHROUGH_OUTSI
100
AcDbVertex
100
AcDb2dVertex
 10
53.99999368499476
 20
45.35377512843115
 30
0.0
 42
0.4142135623786133
  0
VERTEX
  5
354
330
2D2
100
AcDbEntity
  8
4_ANYTOOL_CUTTHROUGH_OUTSI
100
AcDbVertex
100
AcDb2dVertex
 10
54.24999368499948
 20
45.60377512843115
 30
0.0
  0
VERTEX
  5
355
330
2D2
100
AcDbEntity
  8
4_ANYTOOL_CUTTHROUGH_OUTSI
100
AcDbVertex
100
AcDb2dVertex
 10
54.2499936849957
 20
69.35377512843115
 30
0.0
  0
VERTEX
  5
356
330
2D2
100
AcDbEntity
  8
4_ANYTOOL_CUTTHROUGH_OUTSI
100
AcDbVertex
100
AcDb2dVertex
 10
141.7499936850248
 20
69.35377512773266
 30
0.0
  0
VERTEX
  5
357
330
2D2
100
AcDbEntity
  8
4_ANYTOOL_CUTTHROUGH_OUTSI
100
AcDbVertex
100
AcDb2dVertex
 10
141.7499936850239
 20
45.60377512915875
 30
0.0
 42
0.4142135623487567
  0
VERTEX
  5
358
330
2D2
100
AcDbEntity
  8
4_ANYTOOL_CUTTHROUGH_OUTSI
100
AcDbVertex
100
AcDb2dVertex
 10
141.9999936850239
 20
45.3537751291525
 30
0.0
  0
VERTEX
  5
359
330
2D2
100
AcDbEntity
  8
4_ANYTOOL_CUTTHROUGH_OUTSI
100
AcDbVertex
100
AcDb2dVertex
 10
153.9999936850239
 20
45.35377512915875
 30
0.0
 42
0.4142135623521925
  0
VERTEX
  5
35A
330
2D2
100
AcDbEntity
  8
4_ANYTOOL_CUTTHROUGH_OUTSI
100
AcDbVertex
100
AcDb2dVertex
 10
154.2499936850206
 20
45.60377512915875
 30
0.0
  0
VERTEX
  5
35B
330
2D2
100
AcDbEntity
  8
4_ANYTOOL_CUTTHROUGH_OUTSI
100
AcDbVertex
100
AcDb2dVertex
 10
154.2499936850241
 20
51.35377512915875
 30
0.0
  0
VERTEX
  5
35C
330
2D2
100
AcDbEntity
  8
4_ANYTOOL_CUTTHROUGH_OUTSI
100
AcDbVertex
100
AcDb2dVertex
 10
163.7499936850241
 20
51.35377512915875
 30
0.0
  0
VERTEX
  5
35D
330
2D2
100
AcDbEntity
  8
4_ANYTOOL_CUTTHROUGH_OUTSI
100
AcDbVertex
100
AcDb2dVertex
 10
163.7499936850239
 20
45.60377512915875
 30
0.0
 42
0.4142135623536683
  0
VERTEX
  5
35E
330
2D2
100
AcDbEntity
  8
4_ANYTOOL_CUTTHROUGH_OUTSI
100
AcDbVertex
100
AcDb2dVertex
 10
163.9999936850239
 20
45.3537751291567
 30
0.0
  0
VERTEX
  5
35F
330
2D2
100
AcDbEntity
  8
4_ANYTOOL_CUTTHROUGH_OUTSI
100
AcDbVertex
100
AcDb2dVertex
 10
175.9999936850239
 20
45.35377512915875
 30
0.0
 42
0.4142135623430004
  0
VERTEX
  5
360
330
2D2
100
AcDbEntity
  8
4_ANYTOOL_CUTTHROUGH_OUTSI
100
AcDbVertex
100
AcDb2dVertex
 10
176.2499936850273
 20
45.60377512915875
 30
0.0
  0
VERTEX
  5
361
330
2D2
100
AcDbEntity
  8
4_ANYTOOL_CUTTHROUGH_OUTSI
100
AcDbVertex
100
AcDb2dVertex
 10
176.2499936850249
 20
69.35377512915875
 30
0.0
  0
VERTEX
  5
362
330
2D2
100
AcDbEntity
  8
4_ANYTOOL_CUTTHROUGH_OUTSI
100
AcDbVertex
100
AcDb2dVertex
 10
215.7499936850249
 20
69.35377512915875
 30
0.0
  0
VERTEX
  5
363
330
2D2
100
AcDbEntity
  8
4_ANYTOOL_CUTTHROUGH_OUTSI
100
AcDbVertex
100
AcDb2dVertex
 10
215.7499936850239
 20
45.60377512915875
 30
0.0
 42
0.4142135623517754
  0
VERTEX
  5
364
330
2D2
100
AcDbEntity
  8
4_ANYTOOL_CUTTHROUGH_OUTSI
100
AcDbVertex
100
AcDb2dVertex
 10
215.9999936850239
 20
45.35377512915511
 30
0.0
  0
VERTEX
  5
365
330
2D2
100
AcDbEntity
  8
4_ANYTOOL_CUTTHROUGH_OUTSI
100
AcDbVertex
100
AcDb2dVertex
 10
227.9999936850239
 20
45.35377512915875
 30
0.0
 42
0.4142135623519265
  0
VERTEX
  5
366
330
2D2
100
AcDbEntity
  8
4_ANYTOOL_CUTTHROUGH_OUTSI
100
AcDbVertex
100
AcDb2dVertex
 10
228.2499936850203
 20
45.60377512915875
 30
0.0
  0
VERTEX
  5
367
330
2D2
100
AcDbEntity
  8
4_ANYTOOL_CUTTHROUGH_OUTSI
100
AcDbVertex
100
AcDb2dVertex
 10
228.2499936850241
 20
51.35377512915875
 30
0.0
  0
VERTEX
  5
368
330
2D2
100
AcDbEntity
  8
4_ANYTOOL_CUTTHROUGH_OUTSI
100
AcDbVertex
100
AcDb2dVertex
 10
237.7499936850241
 20
51.35377512915875
 30
0.0
  0
VERTEX
  5
369
330
2D2
100
AcDbEntity
  8
4_ANYTOOL_CUTTHROUGH_OUTSI
100
AcDbVertex
100
AcDb2dVertex
 10
237.7499936850239
 20
45.60377512915875
 30
0.0
 42
0.4142135623478292
  0
VERTEX
  5
36A
330
2D2
100
AcDbEntity
  8
4_ANYTOOL_CUTTHROUGH_OUTSI
100
AcDbVertex
100
AcDb2dVertex
 10
237.9999936850239
 20
45.35377512915176
 30
0.0
  0
VERTEX
  5
36B
330
2D2
100
AcDbEntity
  8
4_ANYTOOL_CUTTHROUGH_OUTSI
100
AcDbVertex
100
AcDb2dVertex
 10
249.9999936850239
 20
45.35377512915875
 30
0.0
 42
0.4142135623427227
  0
VERTEX
  5
36C
330
2D2
100
AcDbEntity
  8
4_ANYTOOL_CUTTHROUGH_OUTSI
100
AcDbVertex
100
AcDb2dVertex
 10
250.2499936850271
 20
45.60377512915875
 30
0.0
  0
VERTEX
  5
36D
330
2D2
100
AcDbEntity
  8
4_ANYTOOL_CUTTHROUGH_OUTSI
100
AcDbVertex
100
AcDb2dVertex
 10
250.2499936850249
 20
69.35377512915875
 30
0.0
  0
VERTEX
  5
36E
330
2D2
100
AcDbEntity
  8
4_ANYTOOL_CUTTHROUGH_OUTSI
100
AcDbVertex
100
AcDb2dVertex
 10
349.7499936850249
 20
69.35377512915875
 30
0.0
  0
VERTEX
  5
36F
330
2D2
100
AcDbEntity
  8
4_ANYTOOL_CUTTHROUGH_OUTSI
100
AcDbVertex
100
AcDb2dVertex
 10
349.7499936850239
 20
45.60377512915875
 30
0.0
 42
0.4142135623536683
  0
VERTEX
  5
370
330
2D2
100
AcDbEntity
  8
4_ANYTOOL_CUTTHROUGH_OUTSI
100
AcDbVertex
100
AcDb2dVertex
 10
349.9999936850239
 20
45.3537751291567
 30
0.0
  0
VERTEX
  5
371
330
2D2
100
AcDbEntity
  8
4_ANYTOOL_CUTTHROUGH_OUTSI
100
AcDbVertex
100
AcDb2dVertex
 10
361.9999936850239
 20
45.35377512915875
 30
0.0
 42
0.4142135623436828
  0
VERTEX
  5
372
330
2D2
100
AcDbEntity
  8
4_ANYTOOL_CUTTHROUGH_OUTSI
100
AcDbVertex
100
AcDb2dVertex
 10
362.2499936850278
 20
45.60377512915875
 30
0.0
  0
VERTEX
  5
373
330
2D2
100
AcDbEntity
  8
4_ANYTOOL_CUTTHROUGH_OUTSI
100
AcDbVertex
100
AcDb2dVertex
 10
362.2499936850241
 20
51.35377512915875
 30
0.0
  0
VERTEX
  5
374
330
2D2
100
AcDbEntity
  8
4_ANYTOOL_CUTTHROUGH_OUTSI
100
AcDbVertex
100
AcDb2dVertex
 10
371.7499936850241
 20
51.35377512915875
 30
0.0
  0
VERTEX
  5
375
330
2D2
100
AcDbEntity
  8
4_ANYTOOL_CUTTHROUGH_OUTSI
100
AcDbVertex
100
AcDb2dVertex
 10
371.7499936850239
 20
45.60377512915875
 30
0.0
 42
0.4142135623503813
  0
VERTEX
  5
376
330
2D2
100
AcDbEntity
  8
4_ANYTOOL_CUTTHROUGH_OUTSI
100
AcDbVertex
100
AcDb2dVertex
 10
371.9999936850239
 20
45.35377512915386
 30
0.0
  0
VERTEX
  5
377
330
2D2
100
AcDbEntity
  8
4_ANYTOOL_CUTTHROUGH_OUTSI
100
AcDbVertex
100
AcDb2dVertex
 10
383.9999936850239
 20
45.35377512915875
 30
0.0
 42
0.4142135623501511
  0
VERTEX
  5
378
330
2D2
100
AcDbEntity
  8
4_ANYTOOL_CUTTHROUGH_OUTSI
100
AcDbVertex
100
AcDb2dVertex
 10
384.2499936850189
 20
45.60377512915875
 30
0.0
  0
VERTEX
  5
379
330
2D2
100
AcDbEntity
  8
4_ANYTOOL_CUTTHROUGH_OUTSI
100
AcDbVertex
100
AcDb2dVertex
 10
384.2499936850249
 20
69.35377512915875
 30
0.0
  0
VERTEX
  5
37A
330
2D2
100
AcDbEntity
  8
4_ANYTOOL_CUTTHROUGH_OUTSI
100
AcDbVertex
100
AcDb2dVertex
 10
423.7499936850249
 20
69.35377512915875
 30
0.0
  0
VERTEX
  5
37B
330
2D2
100
AcDbEntity
  8
4_ANYTOOL_CUTTHROUGH_OUTSI
100
AcDbVertex
100
AcDb2dVertex
 10
423.749993685024
 20
45.60377512915875
 30
0.0
 42
0.4142135623413053
  0
VERTEX
  5
37C
330
2D2
100
AcDbEntity
  8
4_ANYTOOL_CUTTHROUGH_OUTSI
100
AcDbVertex
100
AcDb2dVertex
 10
423.999993685024
 20
45.35377512916068
 30
0.0
  0
VERTEX
  5
37D
330
2D2
100
AcDbEntity
  8
4_ANYTOOL_CUTTHROUGH_OUTSI
100
AcDbVertex
100
AcDb2dVertex
 10
435.999993685024
 20
45.35377512915875
 30
0.0
 42
0.4142135623432781
  0
VERTEX
  5
37E
330
2D2
100
AcDbEntity
  8
4_ANYTOOL_CUTTHROUGH_OUTSI
100
AcDbVertex
100
AcDb2dVertex
 10
436.2499936850276
 20
45.60377512915875
 30
0.0
  0
VERTEX
  5
37F
330
2D2
100
AcDbEntity
  8
4_ANYTOOL_CUTTHROUGH_OUTSI
100
AcDbVertex
100
AcDb2dVertex
 10
436.2499936850242
 20
51.35377512915875
 30
0.0
  0
VERTEX
  5
380
330
2D2
100
AcDbEntity
  8
4_ANYTOOL_CUTTHROUGH_OUTSI
100
AcDbVertex
100
AcDb2dVertex
 10
445.7499936850242
 20
51.35377512915875
 30
0.0
  0
VERTEX
  5
381
330
2D2
100
AcDbEntity
  8
4_ANYTOOL_CUTTHROUGH_OUTSI
100
AcDbVertex
100
AcDb2dVertex
 10
445.749993685024
 20
45.60377512915875
 30
0.0
 42
0.4142135623624056
  0
VERTEX
  5
382
330
2D2
100
AcDbEntity
  8
4_ANYTOOL_CUTTHROUGH_OUTSI
100
AcDbVertex
100
AcDb2dVertex
 10
445.999993685024
 20
45.35377512914965
 30
0.0
  0
VERTEX
  5
383
330
2D2
100
AcDbEntity
  8
4_ANYTOOL_CUTTHROUGH_OUTSI
100
AcDbVertex
100
AcDb2dVertex
 10
457.999993685024
 20
45.35377512915875
 30
0.0
 42
0.4142135623284505
  0
VERTEX
  5
384
330
2D2
100
AcDbEntity
  8
4_ANYTOOL_CUTTHROUGH_OUTSI
100
AcDbVertex
100
AcDb2dVertex
 10
458.2499936850296
 20
45.60377512915875
 30
0.0
  0
VERTEX
  5
385
330
2D2
100
AcDbEntity
  8
4_ANYTOOL_CUTTHROUGH_OUTSI
100
AcDbVertex
100
AcDb2dVertex
 10
458.2499936850249
 20
69.35377512915875
 30
0.0
  0
VERTEX
  5
386
330
2D2
100
AcDbEntity
  8
4_ANYTOOL_CUTTHROUGH_OUTSI
100
AcDbVertex
100
AcDb2dVertex
 10
599.7499936850552
 20
69.35377512847481
 30
0.0
  0
VERTEX
  5
387
330
2D2
100
AcDbEntity
  8
4_ANYTOOL_CUTTHROUGH_OUTSI
100
AcDbVertex
100
AcDb2dVertex
 10
599.749993685298
 20
19.85377512710693
 30
0.0
  0
VERTEX
  5
388
330
2D2
100
AcDbEntity
  8
4_ANYTOOL_CUTTHROUGH_OUTSI
100
AcDbVertex
100
AcDb2dVertex
 10
575.9999936852703
 20
19.85377512709238
 30
0.0
 42
0.414213562385271
  0
VERTEX
  5
389
330
2D2
100
AcDbEntity
  8
4_ANYTOOL_CUTTHROUGH_OUTSI
100
AcDbVertex
100
AcDb2dVertex
 10
575.7499936852744
 20
19.60377512709238
 30
0.0
  0
VERTEX
  5
38A
330
2D2
100
AcDbEntity
  8
4_ANYTOOL_CUTTHROUGH_OUTSI
100
AcDbVertex
100
AcDb2dVertex
 10
575.7499936853571
 20
7.603775127092376
 30
0.0
 42
0.4142135623433184
  0
VERTEX
  5
38B
330
2D2
100
AcDbEntity
  8
4_ANYTOOL_CUTTHROUGH_OUTSI
100
AcDbVertex
100
AcDb2dVertex
 10
575.9999936853571
 20
7.353775127096014
 30
0.0
  0
VERTEX
  5
38C
330
2D2
100
AcDbEntity
  8
4_ANYTOOL_CUTTHROUGH_OUTSI
100
AcDbVertex
100
AcDb2dVertex
 10
581.7499936853571
 20
7.353775127092376
 30
0.0
  0
VERTEX
  5
38D
330
2D2
100
AcDbEntity
  8
4_ANYTOOL_CUTTHROUGH_OUTSI
100
AcDbVertex
100
AcDb2dVertex
 10
581.7499936853565
 20
-3.146224872965831
 30
0.0
  0
VERTEX
  5
38E
330
2D2
100
AcDbEntity
  8
4_ANYTOOL_CUTTHROUGH_OUTSI
100
AcDbVertex
100
AcDb2dVertex
 10
575.9999936853276
 20
-3.146224872965831
 30
0.0
 42
0.414213562334818
  0
VERTEX
  5
38F
330
2D2
100
AcDbEntity
  8
4_ANYTOOL_CUTTHROUGH_OUTSI
100
AcDbVertex
100
AcDb2dVertex
 10
575.7499936853312
 20
-3.396224872965831
 30
0.0
  0
VERTEX
  5
390
330
2D2
100
AcDbEntity
  8
4_ANYTOOL_CUTTHROUGH_OUTSI
100
AcDbVertex
100
AcDb2dVertex
 10
575.7499936852253
 20
-15.39622487296583
 30
0.0
 42
0.4142135623984986
  0
VERTEX
  5
391
330
2D2
100
AcDbEntity
  8
4_ANYTOOL_CUTTHROUGH_OUTSI
100
AcDbVertex
100
AcDb2dVertex
 10
575.9999936852253
 20
-15.64622487295856
 30
0.0
  0
VERTEX
  5
392
330
2D2
100
AcDbEntity
  8
4_ANYTOOL_CUTTHROUGH_OUTSI
100
AcDbVertex
100
AcDb2dVertex
 10
599.7499936852978
 20
-15.64622487295128
 30
0.0
  0
VERTEX
  5
393
330
2D2
100
AcDbEntity
  8
4_ANYTOOL_CUTTHROUGH_OUTSI
100
AcDbVertex
100
AcDb2dVertex
 10
599.7499936852826
 20
-40.14622487295128
 30
0.0
  0
VERTEX
  5
394
330
2D2
100
AcDbEntity
  8
4_ANYTOOL_CUTTHROUGH_OUTSI
100
AcDbVertex
100
AcDb2dVertex
 10
575.9999936852532
 20
-40.14622487296583
 30
0.0
 42
0.4142135623860923
  0
VERTEX
  5
395
330
2D2
100
AcDbEntity
  8
4_ANYTOOL_CUTTHROUGH_OUTSI
100
AcDbVertex
100
AcDb2dVertex
 10
575.7499936852566
 20
-40.39622487296583
 30
0.0
  0
VERTEX
  5
396
330
2D2
100
AcDbEntity
  8
4_ANYTOOL_CUTTHROUGH_OUTSI
100
AcDbVertex
100
AcDb2dVertex
 10
575.7499936853401
 20
-52.39622487296583
 30
0.0
 42
0.4142135623410368
  0
VERTEX
  5
397
330
2D2
100
AcDbEntity
  8
4_ANYTOOL_CUTTHROUGH_OUTSI
100
AcDbVertex
100
AcDb2dVertex
 10
575.9999936853401
 20
-52.64622487296424
 30
0.0
  0
VERTEX
  5
398
330
2D2
100
AcDbEntity
  8
4_ANYTOOL_CUTTHROUGH_OUTSI
100
AcDbVertex
100
AcDb2dVertex
 10
581.7499936853367
 20
-52.64622487295128
 30
0.0
  0
VERTEX
  5
399
330
2D2
100
AcDbEntity
  8
4_ANYTOOL_CUTTHROUGH_OUTSI
100
AcDbVertex
100
AcDb2dVertex
 10
581.7499936849933
 20
-80.14622487290762
 30
0.0
  0
VERTEX
  5
39A
330
2D2
100
AcDbEntity
  8
4_ANYTOOL_CUTTHROUGH_OUTSI
100
AcDbVertex
100
AcDb2dVertex
 10
569.345556433296
 20
-80.14622487295134
 30
0.0
 42
-0.3178372451941475
  0
VERTEX
  5
39B
330
2D2
100
AcDbEntity
  8
4_ANYTOOL_CUTTHROUGH_OUTSI
100
AcDbVertex
100
AcDb2dVertex
 10
563.9244044441936
 20
-76.31289153961619
 30
0.0
 42
0.7071067811852162
  0
VERTEX
  5
39C
330
2D2
100
AcDbEntity
  8
4_ANYTOOL_CUTTHROUGH_OUTSI
100
AcDbVertex
100
AcDb2dVertex
 10
540.8255829254297
 20
-76.31289153963013
 30
0.0
 42
-0.3178372451999741
  0
VERTEX
  5
39D
330
2D2
100
AcDbEntity
  8
4_ANYTOOL_CUTTHROUGH_OUTSI
100
AcDbVertex
100
AcDb2dVertex
 10
535.4044309363411
 20
-80.14622487296353
 30
0.0
  0
VERTEX
  5
39E
330
2D2
100
AcDbEntity
  8
4_ANYTOOL_CUTTHROUGH_OUTSI
100
AcDbVertex
100
AcDb2dVertex
 10
523.0054310376224
 20
-80.14622487287852
 30
0.0
  0
VERTEX
  5
39F
330
2D2
100
AcDbEntity
  8
4_ANYTOOL_CUTTHROUGH_OUTSI
100
AcDbVertex
100
AcDb2dVertex
 10
523.2404250461911
 20
-78.75135467250601
 30
0.0
  0
VERTEX
  5
3A0
330
2D2
100
AcDbEntity
  8
4_ANYTOOL_CUTTHROUGH_OUTSI
100
AcDbVertex
100
AcDb2dVertex
 10
540.1359582728842
 20
-30.47881247900659
 30
0.0
  0
VERTEX
  5
3A1
330
2D2
100
AcDbEntity
  8
4_ANYTOOL_CUTTHROUGH_OUTSI
100
AcDbVertex
100
AcDb2dVertex
 10
540.1499936837939
 20
-30.39622487282031
 30
0.0
 42
0.4142135623757305
  0
VERTEX
  5
3A2
330
2D2
100
AcDbEntity
  8
4_ANYTOOL_CUTTHROUGH_OUTSI
100
AcDbVertex
100
AcDb2dVertex
 10
533.899993683763
 20
-24.14622487281895
 30
0.0
  0
VERTEX
  5
3A3
330
2D2
100
AcDbEntity
  8
4_ANYTOOL_CUTTHROUGH_OUTSI
100
AcDbVertex
100
AcDb2dVertex
 10
455.8999936838234
 20
-24.14622487283486
 30
0.0
 42
0.4142135623797301
  0
VERTEX
  5
3A4
330
2D2
100
AcDbEntity
  8
4_ANYTOOL_CUTTHROUGH_OUTSI
100
AcDbVertex
100
AcDb2dVertex
 10
449.6499936837983
 20
-30.39622487282031
 30
0.0
  0
VERTEX
  5
3A5
330
2D2
100
AcDbEntity
  8
4_ANYTOOL_CUTTHROUGH_OUTSI
100
AcDbVertex
100
AcDb2dVertex
 10
449.664029094702
 20
-30.47881247899909
 30
0.0
  0
VERTEX
  5
3A6
330
2D2
100
AcDbEntity
  8
4_ANYTOOL_CUTTHROUGH_OUTSI
100
AcDbVertex
100
AcDb2dVertex
 10
466.563142089148
 20
-78.76241965189547
 30
0.0
  0
VERTEX
  5
3A7
330
2D2
100
AcDbEntity
  8
4_ANYTOOL_CUTTHROUGH_OUTSI
100
AcDbVertex
100
AcDb2dVertex
 10
466.7945563306951
 20
-80.14622487287905
 30
0.0
  0
VERTEX
  5
3A8
330
2D2
100
AcDbEntity
  8
4_ANYTOOL_CUTTHROUGH_OUTSI
100
AcDbVertex
100
AcDb2dVertex
 10
328.105431038337
 20
-80.14622487287852
 30
0.0
  0
VERTEX
  5
3A9
330
2D2
100
AcDbEntity
  8
4_ANYTOOL_CUTTHROUGH_OUTSI
100
AcDbVertex
100
AcDb2dVertex
 10
328.3404250469231
 20
-78.75135467255588
 30
0.0
  0
VERTEX
  5
3AA
330
2D2
100
AcDbEntity
  8
4_ANYTOOL_CUTTHROUGH_OUTSI
100
AcDbVertex
100
AcDb2dVertex
 10
345.2359582736028
 20
-30.47881247905025
 30
0.0
  0
VERTEX
  5
3AB
330
2D2
100
AcDbEntity
  8
4_ANYTOOL_CUTTHROUGH_OUTSI
100
AcDbVertex
100
AcDb2dVertex
 10
345.2499936845095
 20
-30.39622487286397
 30
0.0
 42
0.4142135623759314
  0
VERTEX
  5
3AC
330
2D2
100
AcDbEntity
  8
4_ANYTOOL_CUTTHROUGH_OUTSI
100
AcDbVertex
100
AcDb2dVertex
 10
338.999993684497
 20
-24.14622487286465
 30
0.0
  0
VERTEX
  5
3AD
330
2D2
100
AcDbEntity
  8
4_ANYTOOL_CUTTHROUGH_OUTSI
100
AcDbVertex
100
AcDb2dVertex
 10
260.9999936845275
 20
-24.14622487287852
 30
0.0
 42
0.4142135623773679
  0
VERTEX
  5
3AE
330
2D2
100
AcDbEntity
  8
4_ANYTOOL_CUTTHROUGH_OUTSI
100
AcDbVertex
100
AcDb2dVertex
 10
254.749993684509
 20
-30.39622487286397
 30
0.0
  0
VERTEX
  5
3AF
330
2D2
100
AcDbEntity
  8
4_ANYTOOL_CUTTHROUGH_OUTSI
100
AcDbVertex
100
AcDb2dVertex
 10
254.7640290954207
 20
-30.47881247904277
 30
0.0
  0
VERTEX
  5
3B0
330
2D2
100
AcDbEntity
  8
4_ANYTOOL_CUTTHROUGH_OUTSI
100
AcDbVertex
100
AcDb2dVertex
 10
271.6631420898668
 20
-78.76241965193913
 30
0.0
  0
VERTEX
  5
3B1
330
2D2
100
AcDbEntity
  8
4_ANYTOOL_CUTTHROUGH_OUTSI
100
AcDbVertex
100
AcDb2dVertex
 10
271.8945563310634
 20
-80.14622487290848
 30
0.0
  0
VERTEX
  5
3B2
330
2D2
100
AcDbEntity
  8
4_ANYTOOL_CUTTHROUGH_OUTSI
100
AcDbVertex
100
AcDb2dVertex
 10
133.2054310387061
 20
-80.14622487290762
 30
0.0
  0
VERTEX
  5
3B3
330
2D2
100
AcDbEntity
  8
4_ANYTOOL_CUTTHROUGH_OUTSI
100
AcDbVertex
100
AcDb2dVertex
 10
133.440425047629
 20
-78.75135467257554
 30
0.0
  0
VERTEX
  5
3B4
330
2D2
100
AcDbEntity
  8
4_ANYTOOL_CUTTHROUGH_OUTSI
100
AcDbVertex
100
AcDb2dVertex
 10
150.3359582743223
 20
-30.47881247907935
 30
0.0
  0
VERTEX
  5
3B5
330
2D2
100
AcDbEntity
  8
4_ANYTOOL_CUTTHROUGH_OUTSI
100
AcDbVertex
100
AcDb2dVertex
 10
150.3499936852297
 20
-30.39622487289307
 30
0.0
 42
0.4142135623805802
  0
VERTEX
  5
3B6
330
2D2
100
AcDbEntity
  8
4_ANYTOOL_CUTTHROUGH_OUTSI
100
AcDbVertex
100
AcDb2dVertex
 10
144.0999936852008
 20
-24.14622487290541
 30
0.0
  0
VERTEX
  5
3B7
330
2D2
100
AcDbEntity
  8
4_ANYTOOL_CUTTHROUGH_OUTSI
100
AcDbVertex
100
AcDb2dVertex
 10
66.09999368524615
 20
-24.14622487290762
 30
0.0
 42
0.4142135623808482
  0
VERTEX
  5
3B8
330
2D2
100
AcDbEntity
  8
4_ANYTOOL_CUTTHROUGH_OUTSI
100
AcDbVertex
100
AcDb2dVertex
 10
59.84999368522622
 20
-30.39622487289307
 30
0.0
  0
VERTEX
  5
3B9
330
2D2
100
AcDbEntity
  8
4_ANYTOOL_CUTTHROUGH_OUTSI
100
AcDbVertex
100
AcDb2dVertex
 10
59.86402909613971
 20
-30.47881247907168
 30
0.0
  0
VERTEX
  5
3BA
330
2D2
100
AcDbEntity
  8
4_ANYTOOL_CUTTHROUGH_OUTSI
100
AcDbVertex
100
AcDb2dVertex
 10
76.76314209057091
 20
-78.76241965196823
 30
0.0
  0
VERTEX
  5
3BB
330
2D2
100
AcDbEntity
  8
4_ANYTOOL_CUTTHROUGH_OUTSI
100
AcDbVertex
100
AcDb2dVertex
 10
76.9945563317586
 20
-80.14622487291335
 30
0.0
  0
VERTEX
  5
3BC
330
2D2
100
AcDbEntity
  8
4_ANYTOOL_CUTTHROUGH_OUTSI
100
AcDbVertex
100
AcDb2dVertex
 10
64.59555643369569
 20
-80.1462248730677
 30
0.0
 42
-0.3178372451955632
  0
VERTEX
  5
3BD
330
2D2
100
AcDbEntity
  8
4_ANYTOOL_CUTTHROUGH_OUTSI
100
AcDbVertex
100
AcDb2dVertex
 10
59.17440444459515
 20
-76.31289153973147
 30
0.0
 42
0.707106781185173
  0
VERTEX
  5
3BE
330
2D2
100
AcDbEntity
  8
4_ANYTOOL_CUTTHROUGH_OUTSI
100
AcDbVertex
100
AcDb2dVertex
 10
36.07558292582944
 20
-76.31289153974652
 30
0.0
 42
-0.3178372451956855
  0
SEQEND
  5
3BF
330
2D2
100
AcDbEntity
  8
4_ANYTOOL_CUTTHROUGH_OUTSI
  0
ENDSEC
  0
SECTION
  2
OBJECTS
  0
DICTIONARY
  5
C
330
0
100
AcDbDictionary
  3
ACAD_GROUP
350
D
  3
ACAD_LAYOUT
350
1A
  3
ACAD_MATERIAL
350
43
  3
ACAD_MLEADERSTYLE
350
5B
  3
ACAD_MLINESTYLE
350
17
  3
ACAD_PLOTSETTINGS
350
19
  3
ACAD_SCALELIST
350
47
  3
ACAD_VISUALSTYLE
350
2A
  3
ACDBHEADERROUNDTRIPXREC
350
3C0
  3
ACDBVARIABLEDICTIONARY
350
3E1
  3
DWGPROPS
350
3E8
  0
DICTIONARY
  5
3E9
330
8
100
AcDbDictionary
280
     1
  3
ACAD_XREC_ROUNDTRIP
360
3EA
  0
DICTIONARY
  5
D
102
{ACAD_REACTORS
330
C
102
}
330
C
100
AcDbDictionary
  0
DICTIONARY
  5
1A
102
{ACAD_REACTORS
330
C
102
}
330
C
100
AcDbDictionary
  0
DICTIONARY
  5
43
102
{ACAD_REACTORS
330
C
102
}
330
C
100
AcDbDictionary
  3
BYBLOCK
350
45
  3
BYLAYER
350
44
  3
GLOBAL
350
46
  0
DICTIONARY
  5
5B
102
{ACAD_REACTORS
330
C
102
}
330
C
100
AcDbDictionary
  3
STANDARD
350
5C
  0
DICTIONARY
  5
17
102
{ACAD_REACTORS
330
C
102
}
330
C
100
AcDbDictionary
  3
STANDARD
350
18
  0
DICTIONARY
  5
19
102
{ACAD_REACTORS
330
C
102
}
330
C
100
AcDbDictionary
  0
DICTIONARY
  5
47
102
{ACAD_REACTORS
330
C
102
}
330
C
100
AcDbDictionary
  3
A0
350
48
  3
A1
350
49
  3
A2
350
4A
  3
A3
350
4B
  3
A4
350
4C
  3
A5
350
4D
  3
A6
350
4E
  3
A7
350
4F
  3
A8
350
50
  3
A9
350
51
  3
B1
350
52
  3
B2
350
53
  3
B3
350
54
  3
B4
350
55
  3
B5
350
56
  3
B6
350
57
  3
B7
350
58
  0
DICTIONARY
  5
2A
102
{ACAD_REACTORS
330
C
102
}
330
C
100
AcDbDictionary
  3
2DWIREFRAME
350
2F
  3
BASIC
350
32
  3
BRIGHTEN
350
36
  3
COLORCHANGE
350
3A
  3
CONCEPTUAL
350
34
  3
DIM
350
35
  3
EDGECOLOROFF
350
3D
  3
FACEPATTERN
350
39
  3
FLAT
350
2B
  3
FLATWITHEDGES
350
2C
  3
GOURAUD
350
2D
  3
GOURAUDWITHEDGES
350
2E
  3
HIDDEN
350
31
  3
JITTEROFF
350
3B
  3
LINEPATTERN
350
38
  3
OVERHANGOFF
350
3C
  3
REALISTIC
350
33
  3
SHADED
350
42
  3
SHADED_WITH_EDGES
350
41
  3
SHADES_OF_GRAY
350
3E
  3
SKETCHY
350
3F
  3
THICKEN
350
37
  3
WIREFRAME
350
30
  3
X-RAY
350
40
  0
DICTIONARY
  5
3C0
102
{ACAD_REACTORS
330
C
102
}
330
C
100
AcDbDictionary
  3
CEPSNID
350
3CA
  3
CEPSNTYPE
350
3C9
  3
DIMSTYLEDATA
350
3E0
  3
FINGERPRINTGUID
350
3CB
  3
HYPERLINKBASE
350
3C3
  3
INSUNITS
350
3C8
  3
LAYOUTDICT
350
3C5
  3
LWETCUNION
350
3C7
  3
PLOTSETDICT
350
3C6
  3
PSVPSCALE
350
3CD
  3
PUCSBASE
350
3D0
  3
PUCSORGBACK
350
3D6
  3
PUCSORGBOTTOM
350
3D2
  3
PUCSORGFRONT
350
3D5
  3
PUCSORGLEFT
350
3D3
  3
PUCSORGRIGHT
350
3D4
  3
PUCSORGTOP
350
3D1
  3
PUCSORTHOREF
350
3CE
  3
PUCSORTHOVIEW
350
3CF
  3
STYLESHEET
350
3C4
  3
TSTACKALIGN
350
3C1
  3
TSTACKSIZE
350
3C2
  3
UCSBASE
350
3D9
  3
UCSORGBACK
350
3DF
  3
UCSORGBOTTOM
350
3DB
  3
UCSORGFRONT
350
3DE
  3
UCSORGLEFT
350
3DC
  3
UCSORGRIGHT
350
3DD
  3
UCSORGTOP
350
3DA
  3
UCSORTHOREF
350
3D7
  3
UCSORTHOVIEW
350
3D8
  3
VERSIONGUID
350
3CC
  0
DICTIONARY
  5
3E1
102
{ACAD_REACTORS
330
C
102
}
330
C
100
AcDbDictionary
  3
CANNOSCALE
350
3EB
  3
CMLEADERSTYLE
350
3E3
  3
CTABLESTYLE
350
3E2
  3
DIMASSOC
350
3E6
  3
HIDETEXT
350
3E7
  3
MSLTSCALE
350
3EC
  0
XRECORD
  5
3E8
102
{ACAD_REACTORS
330
C
102
}
330
C
100
AcDbXrecord
  1
DWGPROPS COOKIE
  2

  3

  4

  6

  7

  8
clayt
  9

300
=
301
=
302
=
303
=
304
=
305
=
306
=
307
=
308
=
309
=
 40
0.0
 41
2461243.589517801
 42
2461243.58951794
  1

 90
        0
  0
XRECORD
  5
3EA
102
{ACAD_REACTORS
330
3E9
102
}
330
3E9
100
AcDbXrecord
102
VTR_0.000_0.000_1.000_1.000_VISUALSTYLE
340
2F
102
VTR_0.000_0.000_1.000_1.000_GRIDDISPLAY
 70
     3
102
VTR_0.000_0.000_1.000_1.000_GRIDMAJOR
 70
     5
102
VTR_0.000_0.000_1.000_1.000_DEFAULTLIGHTING
280
     1
102
VTR_0.000_0.000_1.000_1.000_DEFAULTLIGHTINGTYPE
 70
     1
102
VTR_0.000_0.000_1.000_1.000_BRIGHTNESS
141
0.0
102
VTR_0.000_0.000_1.000_1.000_CONTRAST
142
0.0
  0
MATERIAL
  5
45
102
{ACAD_REACTORS
330
43
102
}
102
{ACAD_XDICTIONARY
360
3EF
102
}
330
43
100
AcDbMaterial
  1
BYBLOCK
  0
MATERIAL
  5
44
102
{ACAD_REACTORS
330
43
102
}
102
{ACAD_XDICTIONARY
360
3ED
102
}
330
43
100
AcDbMaterial
  1
BYLAYER
  0
MATERIAL
  5
46
102
{ACAD_REACTORS
330
43
102
}
102
{ACAD_XDICTIONARY
360
3F1
102
}
330
43
100
AcDbMaterial
  1
GLOBAL
  0
ACAD_PROXY_OBJECT
  5
5C
102
{ACAD_REACTORS
330
5B
102
}
330
5B
100
AcDbProxyObject
 90
      499
 91
      505
 93
      610
310
40901902A4063FBFFFFFE056BD1B81E855B9FC0AD7A3703D0AD73F4214DD185B99185C9900AD7A3703D0AC73F90141901A02B5E8DC0F42B1CFC02B5E8DC0F42B1CFE5764000000000000300FC0
340
14
340
0
340
11
340
0
 94
        0
1001
ACAD_MLEADERVER
1070
     2
  0
MLINESTYLE
  5
18
102
{ACAD_REACTORS
330
17
102
}
330
17
100
AcDbMlineStyle
  2
Standard
 70
     0
  3

 62
   256
 51
90.0
 52
90.0
 71
     2
 49
0.5
 62
   256
  6
BYLAYER
 49
-0.5
 62
   256
  6
BYLAYER
  0
ACAD_PROXY_OBJECT
  5
48
102
{ACAD_REACTORS
330
47
102
}
330
47
100
AcDbProxyObject
 90
      499
 91
      503
 93
       41
310
903313A31580
  0
ACAD_PROXY_OBJECT
  5
49
102
{ACAD_REACTORS
330
47
102
}
330
47
100
AcDbProxyObject
 90
      499
 91
      503
 93
      257
310
90E312F31323822203D2031272D3022000000000000200FC000000000000284000
  0
ACAD_PROXY_OBJECT
  5
4A
102
{ACAD_REACTORS
330
47
102
}
330
47
100
AcDbProxyObject
 90
      499
 91
      503
 93
      249
310
90D312F363422203D2031272D3022000000000000240FC000000000000284000
  0
ACAD_PROXY_OBJECT
  5
4B
102
{ACAD_REACTORS
330
47
102
}
330
47
100
AcDbProxyObject
 90
      499
 91
      503
 93
      249
310
90D312F333222203D2031272D3022000000000000280FC000000000000284000
  0
ACAD_PROXY_OBJECT
  5
4C
102
{ACAD_REACTORS
330
47
102
}
330
47
100
AcDbProxyObject
 90
      499
 91
      503
 93
      249
310
90D312F313622203D2031272D30220000000000002C0FC000000000000284000
  0
ACAD_PROXY_OBJECT
  5
4D
102
{ACAD_REACTORS
330
47
102
}
330
47
100
AcDbProxyObject
 90
      499
 91
      503
 93
      249
310
90D332F333222203D2031272D30220000000000002E0FC000000000000284000
  0
ACAD_PROXY_OBJECT
  5
4E
102
{ACAD_REACTORS
330
47
102
}
330
47
100
AcDbProxyObject
 90
      499
 91
      503
 93
      241
310
90C312F3822203D2031272D3022000000000000300FC000000000000284000
  0
ACAD_PROXY_OBJECT
  5
4F
102
{ACAD_REACTORS
330
47
102
}
330
47
100
AcDbProxyObject
 90
      499
 91
      503
 93
      249
310
90D332F313622203D2031272D3022000000000000320FC000000000000284000
  0
ACAD_PROXY_OBJECT
  5
50
102
{ACAD_REACTORS
330
47
102
}
330
47
100
AcDbProxyObject
 90
      499
 91
      503
 93
      241
310
90C312F3422203D2031272D3022000000000000340FC000000000000284000
  0
ACAD_PROXY_OBJECT
  5
51
102
{ACAD_REACTORS
330
47
102
}
330
47
100
AcDbProxyObject
 90
      499
 91
      503
 93
      241
310
90C332F3822203D2031272D3022000000000000360FC000000000000284000
  0
ACAD_PROXY_OBJECT
  5
52
102
{ACAD_REACTORS
330
47
102
}
330
47
100
AcDbProxyObject
 90
      499
 91
      503
 93
      241
310
90C312F3222203D2031272D3022000000000000380FC000000000000284000
  0
ACAD_PROXY_OBJECT
  5
53
102
{ACAD_REACTORS
330
47
102
}
330
47
100
AcDbProxyObject
 90
      499
 91
      503
 93
      241
310
90C332F3422203D2031272D30220000000000003A0FC000000000000284000
  0
ACAD_PROXY_OBJECT
  5
54
102
{ACAD_REACTORS
330
47
102
}
330
47
100
AcDbProxyObject
 90
      499
 91
      503
 93
      161
310
90A3122203D2031272D30224000000000000284000
  0
ACAD_PROXY_OBJECT
  5
55
102
{ACAD_REACTORS
330
47
102
}
330
47
100
AcDbProxyObject
 90
      499
 91
      503
 93
      257
310
90E312D312F3222203D2031272D30220000000000003E0FC000000000000284000
  0
ACAD_PROXY_OBJECT
  5
56
102
{ACAD_REACTORS
330
47
102
}
330
47
100
AcDbProxyObject
 90
      499
 91
      503
 93
      225
310
90A3322203D2031272D302200000000000002100000000000000284000
  0
ACAD_PROXY_OBJECT
  5
57
102
{ACAD_REACTORS
330
47
102
}
330
47
100
AcDbProxyObject
 90
      499
 91
      503
 93
      225
310
90A3622203D2031272D302200000000000006100000000000000284000
  0
ACAD_PROXY_OBJECT
  5
58
102
{ACAD_REACTORS
330
47
102
}
330
47
100
AcDbProxyObject
 90
      499
 91
      503
 93
      249
310
90D31272D3022203D2031272D30220000000000000A100000000000000284000
  0
ACAD_PROXY_OBJECT
  5
2F
102
{ACAD_REACTORS
330
2A
102
}
330
2A
100
AcDbProxyObject
 90
      499
 91
      501
 93
      436
310
42CC9915DA5C99599C985B595049028333333333333E33F0000000000000F90107901411070040501600405405064090741402480A0340
1001
ACAD
1000
AcDbSavedByObjectVersion
1070
     0
  0
ACAD_PROXY_OBJECT
  5
32
102
{ACAD_REACTORS
330
2A
102
}
330
2A
100
AcDbProxyObject
 90
      499
 91
      501
 93
      388
310
4150985CDA58D07406404333333333333E33F0000000000000F90107A41107004050150841D405064090741402480A0350
1001
ACAD
1000
AcDbSavedByObjectVersion
1070
     0
  0
ACAD_PROXY_OBJECT
  5
36
102
{ACAD_REACTORS
330
2A
102
}
330
2A
100
AcDbProxyObject
 90
      499
 91
      501
 93
      428
310
42109C9A59DA1D195B90C409028333333333333E33F0000000000000F9010790141107004050150841D405064090741402480A029950
1001
ACAD
1000
AcDbSavedByObjectVersion
1070
     0
  0
ACAD_PROXY_OBJECT
  5
3A
102
{ACAD_REACTORS
330
2A
102
}
330
2A
100
AcDbProxyObject
 90
      499
 91
      501
 93
      452
310
42D0DBDB1BDC90DA185B99D95104090240C333333333333E33F0000000000000F90108901411070040501508421405064090741402480A0350
1001
ACAD
1000
AcDbSavedByObjectVersion
1070
     0
  0
ACAD_PROXY_OBJECT
  5
34
102
{ACAD_REACTORS
330
2A
102
}
330
2A
100
AcDbProxyObject
 90
      499
 91
      501
 93
      500
310
4290DBDB98D95C1D1D585B10940D028333333333333E33F0000000000000F90107902409070040501000000000018199010841D405064090740C02480A0340
1001
ACAD
1000
AcDbSavedByObjectVersion
1070
     0
  0
ACAD_PROXY_OBJECT
  5
35
102
{ACAD_REACTORS
330
2A
102
}
330
2A
100
AcDbProxyObject
 90
      499
 91
      501
 93
      412
310
40D11A5B50B409028333333333333E33F0000000000000F9010790141107004050150841D405064090741402480A02677FFFFFD0
1001
ACAD
1000
AcDbSavedByObjectVersion
1070
     0
  0
ACAD_PROXY_OBJECT
  5
3D
102
{ACAD_REACTORS
330
2A
102
}
330
2A
100
AcDbProxyObject
 90
      499
 91
      501
 93
      452
310
43115919D950DBDB1BDC93D999916409028333333333333E33F0000000000000F9010790141107004050150841D405064090741402480A0350
1001
ACAD
1000
AcDbSavedByObjectVersion
1070
     0
  0
ACAD_PROXY_OBJECT
  5
39
102
{ACAD_REACTORS
330
2A
102
}
330
2A
100
AcDbProxyObject
 90
      499
 91
      501
 93
      444
310
42D19858D95C185D1D195C9B90F409028333333333333E33F0000000000000F9010790141107004050150841D405064090741402480A0350
1001
ACAD
1000
AcDbSavedByObjectVersion
1070
     0
  0
ACAD_PROXY_OBJECT
  5
2B
102
{ACAD_REACTORS
330
2A
102
}
330
2A
100
AcDbProxyObject
 90
      499
 91
      501
 93
      380
310
41119B185D240901404333333333333E33F0000000000000F9010740A907004050150841D405064090741402480A1B50
1001
ACAD
1000
AcDbSavedByObjectVersion
1070
     0
  0
ACAD_PROXY_OBJECT
  5
2C
102
{ACAD_REACTORS
330
2A
102
}
330
2A
100
AcDbProxyObject
 90
      499
 91
      501
 93
      468
310
43519B185D15DA5D1A115919D95CD0140901404333333333333E33F0000000000000F90107409019070040501600405405064090741402480A1B50
1001
ACAD
1000
AcDbSavedByObjectVersion
1070
     0
  0
ACAD_PROXY_OBJECT
  5
2D
102
{ACAD_REACTORS
330
2A
102
}
330
2A
100
AcDbProxyObject
 90
      499
 91
      501
 93
      404
310
41D1DBDD5C985D5910240902404333333333333E33F0000000000000F9010740A9070040501641D405064090741402480A1B50
1001
ACAD
1000
AcDbSavedByObjectVersion
1070
     0
  0
ACAD_PROXY_OBJECT
  5
2E
102
{ACAD_REACTORS
330
2A
102
}
330
2A
100
AcDbProxyObject
 90
      499
 91
      501
 93
      492
310
4411DBDD5C985D5915DA5D1A115919D95CD0340902404333333333333E33F0000000000000F90107409019070040501600405405064090741402480A1B50
1001
ACAD
1000
AcDbSavedByObjectVersion
1070
     0
  0
ACAD_PROXY_OBJECT
  5
31
102
{ACAD_REACTORS
330
2A
102
}
330
2A
100
AcDbProxyObject
 90
      499
 91
      501
 93
      476
310
41921A5919195B90640502408333333333333E33F0000000000000F901079024090700405020000000000001110200405405064090740C02480A0340
1001
ACAD
1000
AcDbSavedByObjectVersion
1070
     0
  0
ACAD_PROXY_OBJECT
  5
3B
102
{ACAD_REACTORS
330
2A
102
}
330
2A
100
AcDbProxyObject
 90
      499
 91
      501
 93
      428
310
42529A5D1D195C93D999914409028333333333333E33F0000000000000F9010790141107004050150A41D405064090741402480A0350
1001
ACAD
1000
AcDbSavedByObjectVersion
1070
     0
  0
ACAD_PROXY_OBJECT
  5
38
102
{ACAD_REACTORS
330
2A
102
}
330
2A
100
AcDbProxyObject
 90
      499
 91
      501
 93
      444
310
42D31A5B995C185D1D195C9B90E409028333333333333E33F0000000000000F9010790141107004050750841D405064090741402483A0350
1001
ACAD
1000
AcDbSavedByObjectVersion
1070
     0
  0
ACAD_PROXY_OBJECT
  5
3C
102
{ACAD_REACTORS
330
2A
102
}
330
2A
100
AcDbProxyObject
 90
      499
 91
      501
 93
      444
310
42D3DD995C9A185B99D3D999915409028333333333333E33F0000000000000F9010790141107004050150941D405064090741402480A0350
1001
ACAD
1000
AcDbSavedByObjectVersion
1070
     0
  0
ACAD_PROXY_OBJECT
  5
33
102
{ACAD_REACTORS
330
2A
102
}
330
2A
100
AcDbProxyObject
 90
      499
 91
      501
 93
      428
310
425499585B1A5CDD1A58D08409038333333333333E33F0000000000000F9010740A907004050150800405405064090740C02480A1B40
1001
ACAD
1000
AcDbSavedByObjectVersion
1070
     0
  0
ACAD_PROXY_OBJECT
  5
42
102
{ACAD_REACTORS
330
2A
102
}
330
2A
100
AcDbProxyObject
 90
      499
 91
      501
 93
      420
310
4194DA1859195911B40902404333333333333E33F0000000000000F9010740A41107004050150800405405064090840C02480A0B40
1001
ACAD
1000
AcDbSavedByObjectVersion
1070
     0
  0
ACAD_PROXY_OBJECT
  5
41
102
{ACAD_REACTORS
330
2A
102
}
330
2A
100
AcDbProxyObject
 90
      499
 91
      501
 93
      516
310
4454DA18591959081DDA5D1A08195919D95CD1A40902404333333333333E33F0000000000000F901074090142907004050250800405405064090740C02480A0B40
1001
ACAD
1000
AcDbSavedByObjectVersion
1070
     0
  0
ACAD_PROXY_OBJECT
  5
3E
102
{ACAD_REACTORS
330
2A
102
}
330
2A
100
AcDbProxyObject
 90
      499
 91
      501
 93
      532
310
4394DA1859195CC81BD98811DC985E5174090240C333333333333E33F0000000000000F901079024090741D01000000000000111010841D405064090740C02480A0340
1001
ACAD
1000
AcDbSavedByObjectVersion
1070
     0
  0
ACAD_PROXY_OBJECT
  5
3F
102
{ACAD_REACTORS
330
2A
102
}
330
2A
100
AcDbProxyObject
 90
      499
 91
      501
 93
      476
310
41D4DAD95D18DA1E51840502408333333333333E33F0000000000000F901079024090741D01000000000000111010B41D405064090741802480A0340
1001
ACAD
1000
AcDbSavedByObjectVersion
1070
     0
  0
ACAD_PROXY_OBJECT
  5
37
102
{ACAD_REACTORS
330
2A
102
}
330
2A
100
AcDbProxyObject
 90
      499
 91
      501
 93
      412
310
41D51A1A58DAD95B90D409028333333333333E33F0000000000000F9010790141107004050150C41D405064090741402480A0350
1001
ACAD
1000
AcDbSavedByObjectVersion
1070
     0
  0
ACAD_PROXY_OBJECT
  5
30
102
{ACAD_REACTORS
330
2A
102
}
330
2A
100
AcDbProxyObject
 90
      499
 91
      501
 93
      420
310
4255DA5C99599C985B595059028333333333333E33F0000000000000F90107901411070040501600405405064090740C02480A0340
1001
ACAD
1000
AcDbSavedByObjectVersion
1070
     0
  0
ACAD_PROXY_OBJECT
  5
40
102
{ACAD_REACTORS
330
2A
102
}
330
2A
100
AcDbProxyObject
 90
      499
 91
      501
 93
      404
310
41560B54985E51940902404000000000000E03F0000000000000F9010740501907004050150841D405064090740C02480A1B40
1001
ACAD
1000
AcDbSavedByObjectVersion
1070
     0
  0
XRECORD
  5
3CA
102
{ACAD_REACTORS
330
3C0
102
}
330
3C0
100
AcDbXrecord
340
0
  0
XRECORD
  5
3C9
102
{ACAD_REACTORS
330
3C0
102
}
330
3C0
100
AcDbXrecord
 90
        0
  0
XRECORD
  5
3E0
102
{ACAD_REACTORS
330
3C0
102
}
330
3C0
100
AcDbXrecord
1000
DSTYLE
1002
{
1070
   171
 70
     2
1070
   143
 40
25.4
1070
   274
 70
     2
1070
    41
 40
0.18
1070
   141
 40
0.09
1070
   271
 70
     4
1070
    43
 40
0.38
1070
   278
 70
    46
1070
    44
 40
0.18
1070
    42
 40
0.0625
1070
   147
 40
0.09
1070
    77
 70
     0
1070
   272
 70
     4
1070
    73
 70
     1
1070
   279
 70
     2
1070
   172
 70
     0
1070
    74
 70
     1
1070
   283
 70
     1
1070
   340
340
11
1070
   140
 40
0.18
1070
   284
 70
     0
1070
    78
 70
     0
1002
}
  0
XRECORD
  5
3CB
102
{ACAD_REACTORS
330
3C0
102
}
330
3C0
100
AcDbXrecord
  1
{4a081cb4-fc13-490c-b320-f0e48a090c5e}
  0
XRECORD
  5
3C3
102
{ACAD_REACTORS
330
3C0
102
}
330
3C0
100
AcDbXrecord
  1

  0
XRECORD
  5
3C8
102
{ACAD_REACTORS
330
3C0
102
}
330
3C0
100
AcDbXrecord
 90
        4
  0
XRECORD
  5
3C5
102
{ACAD_REACTORS
330
3C0
102
}
330
3C0
100
AcDbXrecord
340
1A
  0
XRECORD
  5
3C7
102
{ACAD_REACTORS
330
3C0
102
}
330
3C0
100
AcDbXrecord
 90
    10781
  0
XRECORD
  5
3C6
102
{ACAD_REACTORS
330
3C0
102
}
330
3C0
100
AcDbXrecord
340
19
  0
XRECORD
  5
3CD
102
{ACAD_REACTORS
330
3C0
102
}
330
3C0
100
AcDbXrecord
 40
0.0
  0
XRECORD
  5
3D0
102
{ACAD_REACTORS
330
3C0
102
}
330
3C0
100
AcDbXrecord
340
0
  0
XRECORD
  5
3D6
102
{ACAD_REACTORS
330
3C0
102
}
330
3C0
100
AcDbXrecord
 10
0.0
 20
0.0
 30
0.0
  0
XRECORD
  5
3D2
102
{ACAD_REACTORS
330
3C0
102
}
330
3C0
100
AcDbXrecord
 10
0.0
 20
0.0
 30
0.0
  0
XRECORD
  5
3D5
102
{ACAD_REACTORS
330
3C0
102
}
330
3C0
100
AcDbXrecord
 10
0.0
 20
0.0
 30
0.0
  0
XRECORD
  5
3D3
102
{ACAD_REACTORS
330
3C0
102
}
330
3C0
100
AcDbXrecord
 10
0.0
 20
0.0
 30
0.0
  0
XRECORD
  5
3D4
102
{ACAD_REACTORS
330
3C0
102
}
330
3C0
100
AcDbXrecord
 10
0.0
 20
0.0
 30
0.0
  0
XRECORD
  5
3D1
102
{ACAD_REACTORS
330
3C0
102
}
330
3C0
100
AcDbXrecord
 10
0.0
 20
0.0
 30
0.0
  0
XRECORD
  5
3CE
102
{ACAD_REACTORS
330
3C0
102
}
330
3C0
100
AcDbXrecord
340
0
  0
XRECORD
  5
3CF
102
{ACAD_REACTORS
330
3C0
102
}
330
3C0
100
AcDbXrecord
 70
     0
  0
XRECORD
  5
3C4
102
{ACAD_REACTORS
330
3C0
102
}
330
3C0
100
AcDbXrecord
  1

  0
XRECORD
  5
3C1
102
{ACAD_REACTORS
330
3C0
102
}
330
3C0
100
AcDbXrecord
 90
        1
  0
XRECORD
  5
3C2
102
{ACAD_REACTORS
330
3C0
102
}
330
3C0
100
AcDbXrecord
 90
       70
  0
XRECORD
  5
3D9
102
{ACAD_REACTORS
330
3C0
102
}
330
3C0
100
AcDbXrecord
340
0
  0
XRECORD
  5
3DF
102
{ACAD_REACTORS
330
3C0
102
}
330
3C0
100
AcDbXrecord
 10
0.0
 20
0.0
 30
0.0
  0
XRECORD
  5
3DB
102
{ACAD_REACTORS
330
3C0
102
}
330
3C0
100
AcDbXrecord
 10
0.0
 20
0.0
 30
0.0
  0
XRECORD
  5
3DE
102
{ACAD_REACTORS
330
3C0
102
}
330
3C0
100
AcDbXrecord
 10
0.0
 20
0.0
 30
0.0
  0
XRECORD
  5
3DC
102
{ACAD_REACTORS
330
3C0
102
}
330
3C0
100
AcDbXrecord
 10
0.0
 20
0.0
 30
0.0
  0
XRECORD
  5
3DD
102
{ACAD_REACTORS
330
3C0
102
}
330
3C0
100
AcDbXrecord
 10
0.0
 20
0.0
 30
0.0
  0
XRECORD
  5
3DA
102
{ACAD_REACTORS
330
3C0
102
}
330
3C0
100
AcDbXrecord
 10
0.0
 20
0.0
 30
0.0
  0
XRECORD
  5
3D7
102
{ACAD_REACTORS
330
3C0
102
}
330
3C0
100
AcDbXrecord
340
0
  0
XRECORD
  5
3D8
102
{ACAD_REACTORS
330
3C0
102
}
330
3C0
100
AcDbXrecord
 70
     0
  0
XRECORD
  5
3CC
102
{ACAD_REACTORS
330
3C0
102
}
330
3C0
100
AcDbXrecord
  1
{FAEB1C32-E019-11D5-929B-00C0DF256EC4}
  0
DICTIONARYVAR
  5
3EB
102
{ACAD_REACTORS
330
3E1
102
}
330
3E1
100
DictionaryVariables
280
     0
  1
1:1
  0
DICTIONARYVAR
  5
3E3
102
{ACAD_REACTORS
330
3E1
102
}
330
3E1
100
DictionaryVariables
280
     0
  1
Standard
  0
DICTIONARYVAR
  5
3E2
102
{ACAD_REACTORS
330
3E1
102
}
330
3E1
100
DictionaryVariables
280
     0
  1
Standard
  0
DICTIONARYVAR
  5
3E6
102
{ACAD_REACTORS
330
3E1
102
}
330
3E1
100
DictionaryVariables
280
     0
  1
2
  0
DICTIONARYVAR
  5
3E7
102
{ACAD_REACTORS
330
3E1
102
}
330
3E1
100
DictionaryVariables
280
     0
  1
1
  0
DICTIONARYVAR
  5
3EC
102
{ACAD_REACTORS
330
3E1
102
}
330
3E1
100
DictionaryVariables
280
     0
  1
1
  0
DICTIONARY
  5
3EF
330
45
100
AcDbDictionary
280
     1
  3
ACAD_XREC_ROUNDTRIP
360
3F0
  0
DICTIONARY
  5
3ED
330
44
100
AcDbDictionary
280
     1
  3
ACAD_XREC_ROUNDTRIP
360
3EE
  0
DICTIONARY
  5
3F1
330
46
100
AcDbDictionary
280
     1
  3
ACAD_XREC_ROUNDTRIP
360
3F2
  0
XRECORD
  5
3F0
102
{ACAD_REACTORS
330
3EF
102
}
330
3EF
100
AcDbXrecord
102
MATERIAL
148
0.0
149
0.0
149
0.0
 93
        0
 94
      127
282
     0
 72
     1
 77
     1
171
     1
175
     1
179
     1
273
     0
  0
XRECORD
  5
3EE
102
{ACAD_REACTORS
330
3ED
102
}
330
3ED
100
AcDbXrecord
102
MATERIAL
148
0.0
149
0.0
149
0.0
 93
        0
 94
      127
282
     0
 72
     1
 77
     1
171
     1
175
     1
179
     1
273
     0
  0
XRECORD
  5
3F2
102
{ACAD_REACTORS
330
3F1
102
}
330
3F1
100
AcDbXrecord
102
MATERIAL
148
0.0
149
0.0
149
0.0
 93
        0
 94
      127
282
     0
 72
     1
 77
     1
171
     1
175
     1
179
     1
273
     0
  0
ENDSEC
  0
EOF
